<svg xmlns="http://www.w3.org/2000/svg" xmlns:xlink="http://www.w3.org/1999/xlink" viewBox="0 0 1280 389" width="1280" height="389"><path d="M 471.000,319.000 C 483.500,277.000 482.613,276.691 496.000,235.000" stroke-width="4.698" stroke="black" fill="none" stroke-linecap="round"></path><path d="M 496.000,235.000 C 500.113,222.191 501.301,222.612 506.000,210.000" stroke-width="4.500" stroke="black" fill="none" stroke-linecap="round"></path><path d="M 506.000,210.000 C 510.801,197.112 510.742,197.077 515.000,184.000" stroke-width="4.500" stroke="black" fill="none" stroke-linecap="round"></path><path d="M 515.000,184.000 C 517.742,175.577 518.152,175.624 520.000,167.000" stroke-width="4.500" stroke="black" fill="none" stroke-linecap="round"></path><path d="M 520.000,167.000 C 521.152,161.624 520.694,161.509 521.000,156.000" stroke-width="4.947" stroke="black" fill="none" stroke-linecap="round"></path><path d="M 521.000,156.000 C 521.194,152.509 521.875,152.208 521.000,149.000" stroke-width="5.867" stroke="black" fill="none" stroke-linecap="round"></path><path d="M 521.000,149.000 C 520.375,146.708 519.980,146.238 518.000,145.000" stroke-width="7.125" stroke="black" fill="none" stroke-linecap="round"></path><path d="M 518.000,145.000 C 515.980,143.738 514.257,142.743 513.000,144.000" stroke-width="8.010" stroke="black" fill="none" stroke-linecap="round"></path><path d="M 513.000,144.000 C 511.257,145.743 512.185,147.478 512.000,151.000" stroke-width="8.222" stroke="black" fill="none" stroke-linecap="round"></path><path d="M 512.000,151.000 C 511.685,156.978 512.000,157.000 512.000,163.000" stroke-width="6.020" stroke="black" fill="none" stroke-linecap="round"></path><path d="M 512.000,163.000 C 512.000,173.500 510.324,173.735 512.000,184.000" stroke-width="4.500" stroke="black" fill="none" stroke-linecap="round"></path><path d="M 512.000,184.000 C 514.324,198.235 515.659,198.108 520.000,212.000" stroke-width="4.500" stroke="black" fill="none" stroke-linecap="round"></path><path d="M 520.000,212.000 C 523.159,222.108 523.740,221.924 527.000,232.000" stroke-width="4.500" stroke="black" fill="none" stroke-linecap="round"></path><path d="M 527.000,232.000 C 529.240,238.924 529.861,238.879 531.000,246.000" stroke-width="4.595" stroke="black" fill="none" stroke-linecap="round"></path><path d="M 531.000,246.000 C 531.861,251.379 531.572,251.570 531.000,257.000" stroke-width="5.171" stroke="black" fill="none" stroke-linecap="round"></path><path d="M 531.000,257.000 C 530.572,261.070 531.339,262.141 529.000,265.000" stroke-width="5.686" stroke="black" fill="none" stroke-linecap="round"></path><path d="M 529.000,265.000 C 526.839,267.641 525.683,267.163 522.000,268.000" stroke-width="6.046" stroke="black" fill="none" stroke-linecap="round"></path><path d="M 522.000,268.000 C 514.683,269.663 514.537,269.557 507.000,270.000" stroke-width="5.086" stroke="black" fill="none" stroke-linecap="round"></path><path d="M 507.000,270.000 C 497.537,270.557 497.500,270.000 488.000,270.000" stroke-width="4.500" stroke="black" fill="none" stroke-linecap="round"></path><path d="M 488.000,270.000 C 477.500,270.000 477.473,270.524 467.000,270.000" stroke-width="4.500" stroke="black" fill="none" stroke-linecap="round"></path><path d="M 467.000,270.000 C 457.473,269.524 457.173,270.293 448.000,268.000" stroke-width="4.500" stroke="black" fill="none" stroke-linecap="round"></path><path d="M 448.000,268.000 C 439.173,265.793 439.159,265.079 431.000,261.000" stroke-width="4.500" stroke="black" fill="none" stroke-linecap="round"></path><path d="M 431.000,261.000 C 428.159,259.579 427.538,259.564 426.000,257.000" stroke-width="5.703" stroke="black" fill="none" stroke-linecap="round"></path><path d="M 426.000,257.000 C 424.538,254.564 425.168,254.027 425.000,251.000" stroke-width="6.321" stroke="black" fill="none" stroke-linecap="round"></path><path d="M 425.000,251.000 C 424.668,245.027 423.696,244.543 425.000,239.000" stroke-width="5.447" stroke="black" fill="none" stroke-linecap="round"></path><path d="M 425.000,239.000 C 425.696,236.043 426.201,234.988 429.000,234.000" stroke-width="6.230" stroke="black" fill="none" stroke-linecap="round"></path><path d="M 429.000,234.000 C 434.701,231.988 435.527,232.548 442.000,233.000" stroke-width="5.388" stroke="black" fill="none" stroke-linecap="round"></path><path d="M 442.000,233.000 C 457.027,234.048 457.687,232.580 472.000,237.000" stroke-width="4.500" stroke="black" fill="none" stroke-linecap="round"></path><path d="M 472.000,237.000 C 491.687,243.080 492.443,243.288 510.000,254.000" stroke-width="4.500" stroke="black" fill="none" stroke-linecap="round"></path><path d="M 510.000,254.000 C 521.943,261.288 521.156,262.874 531.000,273.000" stroke-width="4.500" stroke="black" fill="none" stroke-linecap="round"></path><path d="M 531.000,273.000 C 538.656,280.874 538.220,281.337 545.000,290.000" stroke-width="4.500" stroke="black" fill="none" stroke-linecap="round"></path><path d="M 545.000,290.000 C 547.220,292.837 547.460,298.225 549.000,296.000" stroke-width="5.238" stroke="black" fill="none" stroke-linecap="round"></path><path d="M 549.000,296.000 C 556.460,285.225 556.169,280.072 563.000,264.000" stroke-width="5.695" stroke="black" fill="none" stroke-linecap="round"></path><path d="M 563.000,264.000 C 573.169,240.072 571.642,239.314 583.000,216.000" stroke-width="4.500" stroke="black" fill="none" stroke-linecap="round"></path><path d="M 583.000,216.000 C 590.642,200.314 592.225,201.129 601.000,186.000" stroke-width="4.500" stroke="black" fill="none" stroke-linecap="round"></path><path d="M 601.000,186.000 C 606.725,176.129 614.183,171.457 612.000,166.000" stroke-width="4.500" stroke="black" fill="none" stroke-linecap="round"></path><path d="M 612.000,166.000 C 610.183,161.457 602.205,164.017 593.000,166.000" stroke-width="5.453" stroke="black" fill="none" stroke-linecap="round"></path><path d="M 593.000,166.000 C 569.705,171.017 569.635,171.968 547.000,180.000" stroke-width="4.500" stroke="black" fill="none" stroke-linecap="round"></path><path d="M 547.000,180.000 C 523.135,188.468 523.516,189.540 500.000,199.000" stroke-width="4.500" stroke="black" fill="none" stroke-linecap="round"></path><path d="M 500.000,199.000 C 480.016,207.040 480.020,207.051 460.000,215.000" stroke-width="4.500" stroke="black" fill="none" stroke-linecap="round"></path><path d="M 460.000,215.000 C 446.020,220.551 445.000,218.973 432.000,226.000" stroke-width="4.500" stroke="black" fill="none" stroke-linecap="round"></path><path d="M 432.000,226.000 C 426.500,228.973 424.596,230.212 423.000,235.000" stroke-width="4.500" stroke="black" fill="none" stroke-linecap="round"></path><path d="M 423.000,235.000 C 422.096,237.712 424.140,239.162 427.000,241.000" stroke-width="6.215" stroke="black" fill="none" stroke-linecap="round"></path><path d="M 427.000,241.000 C 431.140,243.662 431.856,243.173 437.000,244.000" stroke-width="5.753" stroke="black" fill="none" stroke-linecap="round"></path><path d="M 437.000,244.000 C 459.856,247.673 459.851,249.288 483.000,250.000" stroke-width="4.500" stroke="black" fill="none" stroke-linecap="round"></path><path d="M 483.000,250.000 C 557.351,252.288 557.500,250.000 632.000,250.000" stroke-width="4.500" stroke="black" fill="none" stroke-linecap="round"></path><path d="M 632.000,250.000 C 686.000,250.000 686.000,250.000 740.000,250.000" stroke-width="4.500" stroke="black" fill="none" stroke-linecap="round"></path><path d="M 740.000,250.000 C 757.500,250.000 757.500,250.000 775.000,250.000" stroke-width="4.500" stroke="black" fill="none" stroke-linecap="round"></path><path d="M 775.000,250.000 C 793.500,250.000 798.663,250.000 812.000,250.000" stroke-width="4.500" stroke="black" fill="none" stroke-linecap="round"></path></svg>