<svg xmlns="http://www.w3.org/2000/svg" xmlns:xlink="http://www.w3.org/1999/xlink" viewBox="0 0 576 416" width="576" height="416"><path d="M 27.071,14.904 C 31.865,13.705 31.833,13.562 36.659,12.506" stroke-width="8.463" stroke="black" fill="none" stroke-linecap="round"></path><path d="M 36.659,12.506 C 44.617,10.764 44.612,10.685 52.639,9.308" stroke-width="6.595" stroke="black" fill="none" stroke-linecap="round"></path><path d="M 52.639,9.308 C 58.595,8.287 58.612,8.311 64.624,7.709" stroke-width="5.599" stroke="black" fill="none" stroke-linecap="round"></path><path d="M 64.624,7.709 C 70.597,7.112 70.620,7.354 76.609,6.910" stroke-width="5.367" stroke="black" fill="none" stroke-linecap="round"></path><path d="M 76.609,6.910 C 81.407,6.555 81.396,6.329 86.197,6.111" stroke-width="5.628" stroke="black" fill="none" stroke-linecap="round"></path><path d="M 86.197,6.111 C 90.185,5.929 90.209,5.877 94.187,6.111" stroke-width="5.965" stroke="black" fill="none" stroke-linecap="round"></path><path d="M 94.187,6.111 C 97.000,6.276 100.575,5.547 99.780,6.910" stroke-width="6.558" stroke="black" fill="none" stroke-linecap="round"></path><path d="M 99.780,6.910 C 97.779,10.343 94.461,11.695 88.594,15.704" stroke-width="6.844" stroke="black" fill="none" stroke-linecap="round"></path><path d="M 88.594,15.704 C 78.081,22.887 78.090,22.992 67.021,29.293" stroke-width="4.500" stroke="black" fill="none" stroke-linecap="round"></path><path d="M 67.021,29.293 C 54.919,36.183 54.388,35.243 42.252,42.084" stroke-width="4.500" stroke="black" fill="none" stroke-linecap="round"></path><path d="M 42.252,42.084 C 26.024,51.231 26.216,51.586 10.292,61.269" stroke-width="4.500" stroke="black" fill="none" stroke-linecap="round"></path><path d="M 10.292,61.269 C 5.841,63.976 5.663,63.744 1.503,66.865" stroke-width="4.500" stroke="black" fill="none" stroke-linecap="round"></path><path d="M 1.503,66.865 C -5.523,72.138 -6.221,71.609 -12.080,78.057" stroke-width="4.500" stroke="black" fill="none" stroke-linecap="round"></path><path d="M -12.080,78.057 C -18.206,84.799 -19.778,84.952 -22.467,93.246" stroke-width="4.500" stroke="black" fill="none" stroke-linecap="round"></path><path d="M -22.467,93.246 C -24.572,99.741 -24.029,101.599 -21.668,107.635" stroke-width="5.596" stroke="black" fill="none" stroke-linecap="round"></path><path d="M -21.668,107.635 C -20.433,110.792 -18.823,110.530 -15.276,111.632" stroke-width="6.728" stroke="black" fill="none" stroke-linecap="round"></path><path d="M -15.276,111.632 C -7.238,114.128 -6.966,114.076 1.503,114.830" stroke-width="6.194" stroke="black" fill="none" stroke-linecap="round"></path><path d="M 1.503,114.830 C 11.011,115.675 11.124,115.320 20.679,114.830" stroke-width="5.834" stroke="black" fill="none" stroke-linecap="round"></path><path d="M 20.679,114.830 C 26.704,114.520 26.649,113.694 32.664,113.231" stroke-width="6.375" stroke="black" fill="none" stroke-linecap="round"></path><path d="M 32.664,113.231 C 37.036,112.894 37.073,113.461 41.453,113.231" stroke-width="6.142" stroke="black" fill="none" stroke-linecap="round"></path><path d="M 130.142,90.048 C 125.748,89.249 125.787,88.608 121.353,88.449" stroke-width="8.427" stroke="black" fill="none" stroke-linecap="round"></path><path d="M 121.353,88.449 C 114.601,88.208 114.470,88.291 107.770,89.249" stroke-width="6.920" stroke="black" fill="none" stroke-linecap="round"></path><path d="M 107.770,89.249 C 103.284,89.890 103.268,90.146 98.981,91.647" stroke-width="6.142" stroke="black" fill="none" stroke-linecap="round"></path><path d="M 98.981,91.647 C 95.278,92.944 95.259,93.007 91.790,94.844" stroke-width="6.149" stroke="black" fill="none" stroke-linecap="round"></path><path d="M 91.790,94.844 C 88.467,96.604 88.289,96.460 85.398,98.841" stroke-width="6.473" stroke="black" fill="none" stroke-linecap="round"></path><path d="M 85.398,98.841 C 81.498,102.055 81.206,102.035 78.207,106.036" stroke-width="6.972" stroke="black" fill="none" stroke-linecap="round"></path><path d="M 78.207,106.036 C 76.412,108.430 76.276,108.684 75.810,111.632" stroke-width="6.862" stroke="black" fill="none" stroke-linecap="round"></path><path d="M 75.810,111.632 C 75.077,116.278 73.673,119.301 75.810,121.225" stroke-width="7.059" stroke="black" fill="none" stroke-linecap="round"></path><path d="M 75.810,121.225 C 77.668,122.898 80.309,120.922 83.800,118.827" stroke-width="7.519" stroke="black" fill="none" stroke-linecap="round"></path><path d="M 83.800,118.827 C 88.299,116.126 87.871,115.309 91.790,111.632" stroke-width="7.064" stroke="black" fill="none" stroke-linecap="round"></path><path d="M 91.790,111.632 C 94.263,109.313 93.921,108.885 96.584,106.836" stroke-width="7.366" stroke="black" fill="none" stroke-linecap="round"></path><path d="M 96.584,106.836 C 99.114,104.888 99.238,104.898 102.177,103.638" stroke-width="6.674" stroke="black" fill="none" stroke-linecap="round"></path><path d="M 102.177,103.638 C 104.831,102.500 105.160,101.517 107.770,102.039" stroke-width="7.351" stroke="black" fill="none" stroke-linecap="round"></path><path d="M 107.770,102.039 C 111.153,102.716 111.326,103.585 114.162,106.036" stroke-width="7.362" stroke="black" fill="none" stroke-linecap="round"></path><path d="M 114.162,106.036 C 120.115,111.180 119.890,111.506 125.348,117.228" stroke-width="6.507" stroke="black" fill="none" stroke-linecap="round"></path><path d="M 125.348,117.228 C 128.279,120.300 127.945,120.625 130.941,123.623" stroke-width="6.054" stroke="black" fill="none" stroke-linecap="round"></path><path d="M 130.941,123.623 C 133.937,126.621 134.263,126.287 137.333,129.219" stroke-width="6.096" stroke="black" fill="none" stroke-linecap="round"></path><path d="M 151.715,5.311 C 153.713,9.308 154.149,9.139 155.710,13.305" stroke-width="8.507" stroke="black" fill="none" stroke-linecap="round"></path><path d="M 155.710,13.305 C 157.744,18.732 157.408,18.875 158.906,24.497" stroke-width="6.014" stroke="black" fill="none" stroke-linecap="round"></path><path d="M 158.906,24.497 C 160.604,30.866 160.811,30.830 162.102,37.287" stroke-width="5.320" stroke="black" fill="none" stroke-linecap="round"></path><path d="M 162.102,37.287 C 163.608,44.819 163.269,44.887 164.499,52.476" stroke-width="4.889" stroke="black" fill="none" stroke-linecap="round"></path><path d="M 164.499,52.476 C 165.666,59.676 165.788,59.658 166.896,66.865" stroke-width="4.857" stroke="black" fill="none" stroke-linecap="round"></path><path d="M 166.896,66.865 C 167.386,70.050 167.428,70.051 167.695,73.261" stroke-width="6.027" stroke="black" fill="none" stroke-linecap="round"></path><path d="M 167.695,73.261 C 168.227,79.643 168.054,79.659 168.494,86.051" stroke-width="5.267" stroke="black" fill="none" stroke-linecap="round"></path><path d="M 168.494,86.051 C 168.853,91.250 168.842,91.252 169.293,96.443" stroke-width="5.394" stroke="black" fill="none" stroke-linecap="round"></path><path d="M 169.293,96.443 C 169.641,100.445 169.434,100.485 170.092,104.437" stroke-width="5.877" stroke="black" fill="none" stroke-linecap="round"></path><path d="M 170.092,104.437 C 170.633,107.680 169.736,110.299 171.690,110.833" stroke-width="6.927" stroke="black" fill="none" stroke-linecap="round"></path><path d="M 171.690,110.833 C 174.130,111.498 175.399,109.013 178.881,106.836" stroke-width="7.497" stroke="black" fill="none" stroke-linecap="round"></path><path d="M 178.881,106.836 C 181.791,105.016 181.678,104.837 184.474,102.838" stroke-width="6.700" stroke="black" fill="none" stroke-linecap="round"></path><path d="M 184.474,102.838 C 187.271,100.840 187.180,100.698 190.067,98.841" stroke-width="6.493" stroke="black" fill="none" stroke-linecap="round"></path><path d="M 190.067,98.841 C 192.773,97.101 192.815,97.151 195.660,95.644" stroke-width="6.587" stroke="black" fill="none" stroke-linecap="round"></path><path d="M 195.660,95.644 C 199.606,93.554 199.472,92.576 203.650,91.647" stroke-width="6.926" stroke="black" fill="none" stroke-linecap="round"></path><path d="M 203.650,91.647 C 206.663,90.977 207.650,90.789 210.042,92.446" stroke-width="7.639" stroke="black" fill="none" stroke-linecap="round"></path><path d="M 210.042,92.446 C 212.843,94.386 212.223,95.541 214.037,98.841" stroke-width="7.499" stroke="black" fill="none" stroke-linecap="round"></path><path d="M 214.037,98.841 C 216.618,103.535 216.538,103.590 218.832,108.434" stroke-width="6.952" stroke="black" fill="none" stroke-linecap="round"></path><path d="M 218.832,108.434 C 220.133,111.184 219.934,111.277 221.228,114.030" stroke-width="6.721" stroke="black" fill="none" stroke-linecap="round"></path><path d="M 221.228,114.030 C 223.130,118.072 223.226,118.027 225.223,122.024" stroke-width="7.029" stroke="black" fill="none" stroke-linecap="round"></path><path d="M 211.640,82.853 C 216.434,85.252 216.394,85.336 221.228,87.650" stroke-width="8.420" stroke="black" fill="none" stroke-linecap="round"></path><path d="M 221.228,87.650 C 225.582,89.733 225.666,89.557 230.017,91.647" stroke-width="6.346" stroke="black" fill="none" stroke-linecap="round"></path><path d="M 230.017,91.647 C 235.654,94.354 235.496,94.705 241.203,97.243" stroke-width="5.486" stroke="black" fill="none" stroke-linecap="round"></path><path d="M 241.203,97.243 C 246.282,99.501 246.469,99.072 251.591,101.240" stroke-width="5.453" stroke="black" fill="none" stroke-linecap="round"></path><path d="M 251.591,101.240 C 256.856,103.468 256.696,103.849 261.978,106.036" stroke-width="5.401" stroke="black" fill="none" stroke-linecap="round"></path><path d="M 261.978,106.036 C 268.281,108.646 268.468,108.209 274.762,110.833" stroke-width="6.110" stroke="black" fill="none" stroke-linecap="round"></path><path d="M 274.762,110.833 C 278.056,112.206 277.958,112.431 281.154,114.030" stroke-width="6.267" stroke="black" fill="none" stroke-linecap="round"></path><path d="M 281.154,114.030 C 283.551,115.229 283.699,116.633 285.948,116.428" stroke-width="6.592" stroke="black" fill="none" stroke-linecap="round"></path><path d="M 285.948,116.428 C 288.094,116.233 288.328,115.170 289.943,113.231" stroke-width="7.943" stroke="black" fill="none" stroke-linecap="round"></path><path d="M 289.943,113.231 C 292.323,110.373 291.598,109.761 293.938,106.836" stroke-width="7.885" stroke="black" fill="none" stroke-linecap="round"></path><path d="M 293.938,106.836 C 296.392,103.766 296.627,103.921 299.531,101.240" stroke-width="7.467" stroke="black" fill="none" stroke-linecap="round"></path><path d="M 299.531,101.240 C 301.821,99.124 301.761,99.006 304.325,97.243" stroke-width="6.825" stroke="black" fill="none" stroke-linecap="round"></path><path d="M 304.325,97.243 C 308.153,94.610 308.248,94.720 312.315,92.446" stroke-width="6.173" stroke="black" fill="none" stroke-linecap="round"></path><path d="M 312.315,92.446 C 321.831,87.125 321.749,86.928 331.491,82.054" stroke-width="5.673" stroke="black" fill="none" stroke-linecap="round"></path><path d="M 331.491,82.054 C 336.131,79.733 336.272,80.024 341.079,78.057" stroke-width="5.612" stroke="black" fill="none" stroke-linecap="round"></path><path d="M 341.079,78.057 C 345.061,76.427 345.059,76.420 349.069,74.859" stroke-width="5.938" stroke="black" fill="none" stroke-linecap="round"></path><path d="M 349.069,74.859 C 352.250,73.622 352.157,73.248 355.461,72.461" stroke-width="6.192" stroke="black" fill="none" stroke-linecap="round"></path><path d="M 355.461,72.461 C 360.546,71.250 360.651,71.122 365.848,70.862" stroke-width="6.623" stroke="black" fill="none" stroke-linecap="round"></path><path d="M 383.426,134.015 C 376.634,132.816 376.664,132.592 369.843,131.617" stroke-width="8.415" stroke="black" fill="none" stroke-linecap="round"></path><path d="M 369.843,131.617 C 365.478,130.993 365.457,131.018 361.054,130.818" stroke-width="6.502" stroke="black" fill="none" stroke-linecap="round"></path><path d="M 361.054,130.818 C 356.668,130.618 356.659,130.818 352.265,130.818" stroke-width="6.093" stroke="black" fill="none" stroke-linecap="round"></path><path d="M 352.265,130.818 C 348.270,130.818 348.246,130.486 344.275,130.818" stroke-width="6.190" stroke="black" fill="none" stroke-linecap="round"></path><path d="M 344.275,130.818 C 338.658,131.286 338.038,130.491 333.089,132.416" stroke-width="6.541" stroke="black" fill="none" stroke-linecap="round"></path><path d="M 333.089,132.416 C 330.847,133.289 330.242,134.142 329.893,136.413" stroke-width="7.369" stroke="black" fill="none" stroke-linecap="round"></path><path d="M 329.893,136.413 C 329.443,139.339 329.849,140.140 331.491,142.809" stroke-width="7.780" stroke="black" fill="none" stroke-linecap="round"></path><path d="M 331.491,142.809 C 333.045,145.336 333.489,145.757 336.285,146.806" stroke-width="7.945" stroke="black" fill="none" stroke-linecap="round"></path><path d="M 336.285,146.806 C 339.881,148.155 340.411,148.060 344.275,147.605" stroke-width="7.840" stroke="black" fill="none" stroke-linecap="round"></path><path d="M 344.275,147.605 C 347.203,147.260 347.008,146.229 349.868,145.207" stroke-width="7.670" stroke="black" fill="none" stroke-linecap="round"></path><path d="M 349.868,145.207 C 352.601,144.230 352.623,144.216 355.461,143.608" stroke-width="7.703" stroke="black" fill="none" stroke-linecap="round"></path><path d="M 355.461,143.608 C 358.216,143.017 358.242,142.996 361.054,142.809" stroke-width="7.713" stroke="black" fill="none" stroke-linecap="round"></path><path d="M 361.054,142.809 C 364.235,142.596 364.428,142.054 367.446,142.809" stroke-width="8.066" stroke="black" fill="none" stroke-linecap="round"></path><path d="M 367.446,142.809 C 370.820,143.653 370.994,143.920 373.838,146.006" stroke-width="7.945" stroke="black" fill="none" stroke-linecap="round"></path><path d="M 373.838,146.006 C 376.986,148.316 377.009,148.518 379.431,151.602" stroke-width="7.483" stroke="black" fill="none" stroke-linecap="round"></path><path d="M 379.431,151.602 C 381.403,154.114 381.145,154.338 382.627,157.198" stroke-width="6.703" stroke="black" fill="none" stroke-linecap="round"></path><path d="M 382.627,157.198 C 386.738,165.130 386.526,165.242 390.617,173.186" stroke-width="6.163" stroke="black" fill="none" stroke-linecap="round"></path><path d="M 390.617,173.186 C 393.318,178.432 393.473,178.351 396.210,183.578" stroke-width="5.542" stroke="black" fill="none" stroke-linecap="round"></path><path d="M 396.210,183.578 C 397.868,186.745 397.808,186.776 399.406,189.973" stroke-width="6.075" stroke="black" fill="none" stroke-linecap="round"></path></svg>