<svg xmlns="http://www.w3.org/2000/svg" xmlns:xlink="http://www.w3.org/1999/xlink" viewBox="0 0 576 416" width="576" height="416"><path d="M 126.946,404.971 C 124.549,400.175 123.210,400.491 122.152,395.378" stroke-width="8.383" stroke="black" fill="none" stroke-linecap="round"></path><path d="M 122.152,395.378 C 120.813,388.900 121.891,388.576 122.152,381.788" stroke-width="6.009" stroke="black" fill="none" stroke-linecap="round"></path><path d="M 122.152,381.788 C 122.690,367.791 122.483,367.759 123.750,353.809" stroke-width="4.500" stroke="black" fill="none" stroke-linecap="round"></path><path d="M 123.750,353.809 C 125.679,332.585 125.780,332.577 128.544,311.441" stroke-width="4.500" stroke="black" fill="none" stroke-linecap="round"></path><path d="M 128.544,311.441 C 131.373,289.809 131.019,289.725 134.936,268.273" stroke-width="4.500" stroke="black" fill="none" stroke-linecap="round"></path><path d="M 134.936,268.273 C 138.610,248.156 139.065,248.226 143.725,228.303" stroke-width="4.500" stroke="black" fill="none" stroke-linecap="round"></path><path d="M 143.725,228.303 C 147.854,210.654 147.873,210.650 152.514,193.129" stroke-width="4.500" stroke="black" fill="none" stroke-linecap="round"></path><path d="M 152.514,193.129 C 156.662,177.475 156.856,177.526 161.303,161.953" stroke-width="4.500" stroke="black" fill="none" stroke-linecap="round"></path><path d="M 161.303,161.953 C 164.846,149.547 164.419,149.403 168.494,137.171" stroke-width="4.500" stroke="black" fill="none" stroke-linecap="round"></path><path d="M 168.494,137.171 C 172.809,124.221 173.472,124.441 178.082,111.590" stroke-width="4.500" stroke="black" fill="none" stroke-linecap="round"></path><path d="M 178.082,111.590 C 179.065,108.853 179.860,103.958 179.680,105.994" stroke-width="5.322" stroke="black" fill="none" stroke-linecap="round"></path><path d="M 179.680,105.994 C 178.661,117.548 177.764,122.393 175.685,138.770" stroke-width="5.779" stroke="black" fill="none" stroke-linecap="round"></path><path d="M 175.685,138.770 C 174.568,147.574 174.359,147.547 173.288,156.357" stroke-width="4.742" stroke="black" fill="none" stroke-linecap="round"></path><path d="M 173.288,156.357 C 170.764,177.125 170.515,177.105 168.494,197.926" stroke-width="4.500" stroke="black" fill="none" stroke-linecap="round"></path><path d="M 168.494,197.926 C 166.520,218.274 166.099,218.279 165.298,238.695" stroke-width="4.500" stroke="black" fill="none" stroke-linecap="round"></path><path d="M 165.298,238.695 C 164.501,259.049 164.953,259.085 165.298,279.465" stroke-width="4.500" stroke="black" fill="none" stroke-linecap="round"></path><path d="M 165.298,279.465 C 165.752,306.250 164.550,306.421 166.896,333.025" stroke-width="4.500" stroke="black" fill="none" stroke-linecap="round"></path><path d="M 166.896,333.025 C 168.146,347.191 169.368,347.093 172.489,361.004" stroke-width="4.500" stroke="black" fill="none" stroke-linecap="round"></path><path d="M 172.489,361.004 C 173.763,366.679 173.583,366.785 175.685,372.196" stroke-width="4.500" stroke="black" fill="none" stroke-linecap="round"></path><path d="M 175.685,372.196 C 179.176,381.175 178.754,381.576 183.675,389.783" stroke-width="4.500" stroke="black" fill="none" stroke-linecap="round"></path><path d="M 183.675,389.783 C 187.143,395.565 186.799,397.718 192.464,400.175" stroke-width="4.819" stroke="black" fill="none" stroke-linecap="round"></path><path d="M 192.464,400.175 C 198.784,402.915 201.155,402.423 207.645,400.175" stroke-width="4.774" stroke="black" fill="none" stroke-linecap="round"></path><path d="M 207.645,400.175 C 211.542,398.825 210.957,396.893 213.238,392.980" stroke-width="5.485" stroke="black" fill="none" stroke-linecap="round"></path><path d="M 213.238,392.980 C 216.550,387.300 216.192,387.054 218.832,380.989" stroke-width="5.273" stroke="black" fill="none" stroke-linecap="round"></path><path d="M 218.832,380.989 C 226.978,362.273 228.150,362.670 234.811,343.417" stroke-width="4.500" stroke="black" fill="none" stroke-linecap="round"></path><path d="M 234.811,343.417 C 242.532,321.101 241.813,320.787 247.596,297.851" stroke-width="4.500" stroke="black" fill="none" stroke-linecap="round"></path><path d="M 247.596,297.851 C 252.999,276.420 253.426,276.455 257.184,254.683" stroke-width="4.500" stroke="black" fill="none" stroke-linecap="round"></path><path d="M 257.184,254.683 C 263.014,220.897 262.308,220.744 266.772,186.734" stroke-width="4.500" stroke="black" fill="none" stroke-linecap="round"></path><path d="M 266.772,186.734 C 267.501,181.173 267.384,181.146 267.571,175.542" stroke-width="4.500" stroke="black" fill="none" stroke-linecap="round"></path><path d="M 267.571,175.542 C 267.783,169.155 268.674,160.421 267.571,162.752" stroke-width="4.500" stroke="black" fill="none" stroke-linecap="round"></path><path d="M 267.571,162.752 C 265.078,168.016 263.927,176.729 260.380,190.731" stroke-width="5.585" stroke="black" fill="none" stroke-linecap="round"></path><path d="M 260.380,190.731 C 256.736,205.108 256.909,205.153 253.189,219.510" stroke-width="4.500" stroke="black" fill="none" stroke-linecap="round"></path><path d="M 253.189,219.510 C 251.316,226.737 248.292,237.509 249.194,233.899" stroke-width="4.500" stroke="black" fill="none" stroke-linecap="round"></path><path d="M 394.612,148.363 C 388.220,155.557 387.378,154.943 381.828,162.752" stroke-width="7.614" stroke="black" fill="none" stroke-linecap="round"></path><path d="M 381.828,162.752 C 374.594,172.929 375.098,173.357 369.044,184.336" stroke-width="4.500" stroke="black" fill="none" stroke-linecap="round"></path><path d="M 369.044,184.336 C 362.314,196.540 362.598,196.699 356.260,209.117" stroke-width="4.500" stroke="black" fill="none" stroke-linecap="round"></path><path d="M 356.260,209.117 C 353.010,215.485 352.696,215.348 349.868,221.908" stroke-width="4.500" stroke="black" fill="none" stroke-linecap="round"></path><path d="M 349.868,221.908 C 343.907,235.732 343.924,235.767 338.682,249.887" stroke-width="4.500" stroke="black" fill="none" stroke-linecap="round"></path><path d="M 338.682,249.887 C 333.537,263.746 333.395,263.727 329.094,277.866" stroke-width="4.500" stroke="black" fill="none" stroke-linecap="round"></path><path d="M 329.094,277.866 C 325.005,291.306 324.309,291.259 321.903,305.046" stroke-width="4.500" stroke="black" fill="none" stroke-linecap="round"></path><path d="M 321.903,305.046 C 319.914,316.441 320.528,316.630 320.305,328.229" stroke-width="4.500" stroke="black" fill="none" stroke-linecap="round"></path><path d="M 320.305,328.229 C 320.128,337.414 319.717,337.594 321.104,346.615" stroke-width="4.500" stroke="black" fill="none" stroke-linecap="round"></path><path d="M 321.104,346.615 C 322.114,353.183 321.920,353.779 325.099,359.405" stroke-width="4.628" stroke="black" fill="none" stroke-linecap="round"></path><path d="M 325.099,359.405 C 327.114,362.972 327.853,363.931 331.491,365.001" stroke-width="5.511" stroke="black" fill="none" stroke-linecap="round"></path><path d="M 331.491,365.001 C 334.645,365.929 335.853,365.446 338.682,363.402" stroke-width="6.027" stroke="black" fill="none" stroke-linecap="round"></path><path d="M 338.682,363.402 C 343.044,360.250 342.781,359.358 345.873,354.609" stroke-width="5.570" stroke="black" fill="none" stroke-linecap="round"></path><path d="M 345.873,354.609 C 353.967,342.171 354.487,342.337 361.054,329.028" stroke-width="4.500" stroke="black" fill="none" stroke-linecap="round"></path><path d="M 361.054,329.028 C 370.067,310.760 370.743,310.821 377.034,291.456" stroke-width="4.500" stroke="black" fill="none" stroke-linecap="round"></path><path d="M 377.034,291.456 C 386.324,262.857 385.493,262.447 392.215,233.099" stroke-width="4.500" stroke="black" fill="none" stroke-linecap="round"></path><path d="M 392.215,233.099 C 394.282,224.075 393.784,223.944 394.612,214.713" stroke-width="4.500" stroke="black" fill="none" stroke-linecap="round"></path><path d="M 394.612,214.713 C 396.580,192.767 396.866,192.732 397.808,170.746" stroke-width="4.500" stroke="black" fill="none" stroke-linecap="round"></path><path d="M 397.808,170.746 C 398.065,164.752 397.301,164.756 397.009,158.755" stroke-width="4.500" stroke="black" fill="none" stroke-linecap="round"></path><path d="M 397.009,158.755 C 396.502,148.368 397.494,138.827 396.210,137.970" stroke-width="4.500" stroke="black" fill="none" stroke-linecap="round"></path><path d="M 396.210,137.970 C 395.097,137.228 393.222,146.628 392.215,155.557" stroke-width="5.549" stroke="black" fill="none" stroke-linecap="round"></path><path d="M 392.215,155.557 C 390.426,171.409 391.159,171.539 390.617,187.534" stroke-width="4.500" stroke="black" fill="none" stroke-linecap="round"></path><path d="M 390.617,187.534 C 390.360,195.121 390.218,195.144 390.617,202.722" stroke-width="4.500" stroke="black" fill="none" stroke-linecap="round"></path><path d="M 390.617,202.722 C 391.417,217.927 390.721,218.082 393.014,233.099" stroke-width="4.500" stroke="black" fill="none" stroke-linecap="round"></path><path d="M 393.014,233.099 C 395.115,246.860 395.015,247.101 399.406,260.279" stroke-width="4.500" stroke="black" fill="none" stroke-linecap="round"></path><path d="M 399.406,260.279 C 403.005,271.083 402.659,271.783 408.994,281.064" stroke-width="4.500" stroke="black" fill="none" stroke-linecap="round"></path><path d="M 408.994,281.064 C 413.845,288.171 414.555,288.379 421.778,293.055" stroke-width="4.500" stroke="black" fill="none" stroke-linecap="round"></path><path d="M 421.778,293.055 C 428.138,297.172 428.748,297.028 436.160,298.651" stroke-width="4.544" stroke="black" fill="none" stroke-linecap="round"></path><path d="M 436.160,298.651 C 441.532,299.826 441.952,299.589 447.346,298.651" stroke-width="5.129" stroke="black" fill="none" stroke-linecap="round"></path><path d="M 447.346,298.651 C 451.141,297.990 450.921,297.004 454.537,295.453" stroke-width="5.805" stroke="black" fill="none" stroke-linecap="round"></path><path d="M 454.537,295.453 C 459.310,293.406 459.609,293.941 464.125,291.456" stroke-width="5.650" stroke="black" fill="none" stroke-linecap="round"></path><path d="M 464.125,291.456 C 467.599,289.544 467.475,289.235 470.517,286.660" stroke-width="5.972" stroke="black" fill="none" stroke-linecap="round"></path><path d="M 470.517,286.660 C 472.668,284.838 474.512,284.752 474.512,282.663" stroke-width="6.499" stroke="black" fill="none" stroke-linecap="round"></path><path d="M 474.512,282.663 C 474.512,280.355 473.033,279.335 470.517,277.866" stroke-width="7.235" stroke="black" fill="none" stroke-linecap="round"></path><path d="M 470.517,277.866 C 468.239,276.537 467.740,277.248 464.924,277.067" stroke-width="6.892" stroke="black" fill="none" stroke-linecap="round"></path><path d="M 464.924,277.067 C 455.356,276.449 455.341,276.430 445.748,276.267" stroke-width="4.782" stroke="black" fill="none" stroke-linecap="round"></path><path d="M 445.748,276.267 C 431.770,276.030 431.765,276.267 417.783,276.267" stroke-width="4.500" stroke="black" fill="none" stroke-linecap="round"></path><path d="M 417.783,276.267 C 392.614,276.267 392.608,276.557 367.446,276.267" stroke-width="4.500" stroke="black" fill="none" stroke-linecap="round"></path><path d="M 367.446,276.267 C 357.852,276.157 357.851,276.000 348.270,275.468" stroke-width="4.500" stroke="black" fill="none" stroke-linecap="round"></path><path d="M 348.270,275.468 C 329.087,274.402 328.952,275.426 309.918,273.070" stroke-width="4.500" stroke="black" fill="none" stroke-linecap="round"></path><path d="M 309.918,273.070 C 290.200,270.629 290.183,270.192 270.767,265.875" stroke-width="4.500" stroke="black" fill="none" stroke-linecap="round"></path><path d="M 270.767,265.875 C 250.632,261.398 250.646,261.181 230.816,255.483" stroke-width="4.500" stroke="black" fill="none" stroke-linecap="round"></path><path d="M 230.816,255.483 C 213.093,250.389 213.091,250.312 195.660,244.291" stroke-width="4.500" stroke="black" fill="none" stroke-linecap="round"></path><path d="M 195.660,244.291 C 179.533,238.721 179.689,238.272 163.700,232.300" stroke-width="4.500" stroke="black" fill="none" stroke-linecap="round"></path><path d="M 163.700,232.300 C 149.727,227.081 149.817,226.818 135.735,221.908" stroke-width="4.500" stroke="black" fill="none" stroke-linecap="round"></path><path d="M 135.735,221.908 C 123.450,217.624 123.416,217.695 110.966,213.914" stroke-width="4.500" stroke="black" fill="none" stroke-linecap="round"></path><path d="M 110.966,213.914 C 101.044,210.900 100.894,211.385 90.991,208.318" stroke-width="4.500" stroke="black" fill="none" stroke-linecap="round"></path><path d="M 90.991,208.318 C 84.115,206.188 84.214,205.879 77.408,203.522" stroke-width="4.509" stroke="black" fill="none" stroke-linecap="round"></path><path d="M 77.408,203.522 C 73.827,202.281 70.423,200.918 70.217,201.123" stroke-width="5.587" stroke="black" fill="none" stroke-linecap="round"></path><path d="M 70.217,201.123 C 70.023,201.317 73.373,202.810 76.609,204.321" stroke-width="6.765" stroke="black" fill="none" stroke-linecap="round"></path><path d="M 76.609,204.321 C 79.365,205.608 79.499,205.326 82.202,206.719" stroke-width="6.668" stroke="black" fill="none" stroke-linecap="round"></path><path d="M 82.202,206.719 C 92.683,212.121 92.726,212.073 102.976,217.911" stroke-width="4.500" stroke="black" fill="none" stroke-linecap="round"></path><path d="M 102.976,217.911 C 118.693,226.862 118.627,226.986 134.137,236.297" stroke-width="4.500" stroke="black" fill="none" stroke-linecap="round"></path><path d="M 134.137,236.297 C 150.587,246.172 150.378,246.525 166.896,256.282" stroke-width="4.500" stroke="black" fill="none" stroke-linecap="round"></path><path d="M 166.896,256.282 C 183.536,266.111 183.479,266.234 200.454,275.468" stroke-width="4.500" stroke="black" fill="none" stroke-linecap="round"></path><path d="M 200.454,275.468 C 224.627,288.617 224.595,288.743 249.194,301.049" stroke-width="4.500" stroke="black" fill="none" stroke-linecap="round"></path><path d="M 249.194,301.049 C 256.555,304.731 256.772,304.275 264.375,307.444" stroke-width="4.500" stroke="black" fill="none" stroke-linecap="round"></path><path d="M 264.375,307.444 C 285.536,316.266 285.244,317.101 306.722,325.031" stroke-width="4.500" stroke="black" fill="none" stroke-linecap="round"></path><path d="M 306.722,325.031 C 318.803,329.492 319.080,328.723 331.491,332.225" stroke-width="4.500" stroke="black" fill="none" stroke-linecap="round"></path><path d="M 331.491,332.225 C 334.661,333.120 334.796,332.701 337.883,333.824" stroke-width="4.966" stroke="black" fill="none" stroke-linecap="round"></path></svg>