<svg xmlns="http://www.w3.org/2000/svg" xmlns:xlink="http://www.w3.org/1999/xlink" viewBox="0 0 576 416" width="576" height="416"><path d="M 166.097,376.042 C 165.298,370.846 165.209,370.858 164.499,365.650" stroke-width="7.759" stroke="black" fill="none" stroke-linecap="round"></path><path d="M 164.499,365.650 C 164.011,362.064 163.845,362.067 163.700,358.455" stroke-width="6.595" stroke="black" fill="none" stroke-linecap="round"></path><path d="M 163.700,358.455 C 163.445,352.074 163.507,352.054 163.700,345.665" stroke-width="6.393" stroke="black" fill="none" stroke-linecap="round"></path><path d="M 163.700,345.665 C 163.906,338.864 164.257,338.874 164.499,332.075" stroke-width="5.348" stroke="black" fill="none" stroke-linecap="round"></path><path d="M 164.499,332.075 C 164.656,327.683 164.125,327.655 164.499,323.281" stroke-width="5.744" stroke="black" fill="none" stroke-linecap="round"></path><path d="M 164.499,323.281 C 165.323,313.665 165.673,313.685 166.896,304.096" stroke-width="4.500" stroke="black" fill="none" stroke-linecap="round"></path><path d="M 166.896,304.096 C 168.070,294.899 168.060,294.898 169.293,285.709" stroke-width="4.500" stroke="black" fill="none" stroke-linecap="round"></path><path d="M 169.293,285.709 C 171.655,268.118 171.125,267.991 174.087,250.536" stroke-width="4.500" stroke="black" fill="none" stroke-linecap="round"></path><path d="M 174.087,250.536 C 174.720,246.807 175.286,246.938 176.484,243.341" stroke-width="5.061" stroke="black" fill="none" stroke-linecap="round"></path><path d="M 176.484,243.341 C 178.881,236.146 178.799,236.117 181.278,228.952" stroke-width="4.844" stroke="black" fill="none" stroke-linecap="round"></path><path d="M 181.278,228.952 C 182.395,225.725 181.896,225.432 183.675,222.557" stroke-width="5.783" stroke="black" fill="none" stroke-linecap="round"></path><path d="M 183.675,222.557 C 187.090,217.038 187.164,216.873 191.665,212.164" stroke-width="5.274" stroke="black" fill="none" stroke-linecap="round"></path><path d="M 191.665,212.164 C 195.953,207.680 195.610,206.106 201.253,204.170" stroke-width="5.214" stroke="black" fill="none" stroke-linecap="round"></path><path d="M 201.253,204.170 C 209.593,201.310 210.927,200.830 219.630,202.571" stroke-width="4.500" stroke="black" fill="none" stroke-linecap="round"></path><path d="M 219.630,202.571 C 228.904,204.427 229.123,205.909 237.208,211.365" stroke-width="5.219" stroke="black" fill="none" stroke-linecap="round"></path><path d="M 237.208,211.365 C 246.302,217.501 247.060,217.302 253.988,225.754" stroke-width="4.500" stroke="black" fill="none" stroke-linecap="round"></path><path d="M 253.988,225.754 C 263.440,237.287 262.625,238.240 269.968,251.335" stroke-width="4.500" stroke="black" fill="none" stroke-linecap="round"></path><path d="M 269.968,251.335 C 271.814,254.628 271.545,254.838 272.365,258.530" stroke-width="4.973" stroke="black" fill="none" stroke-linecap="round"></path><path d="M 272.365,258.530 C 273.942,265.630 275.415,265.947 274.762,272.919" stroke-width="4.784" stroke="black" fill="none" stroke-linecap="round"></path><path d="M 274.762,272.919 C 274.216,278.738 273.296,279.393 269.968,284.111" stroke-width="5.179" stroke="black" fill="none" stroke-linecap="round"></path><path d="M 269.968,284.111 C 268.502,286.188 267.775,285.957 265.174,286.509" stroke-width="6.182" stroke="black" fill="none" stroke-linecap="round"></path><path d="M 265.174,286.509 C 254.591,288.755 254.395,289.192 243.601,289.706" stroke-width="4.500" stroke="black" fill="none" stroke-linecap="round"></path><path d="M 243.601,289.706 C 237.616,289.992 237.429,289.703 231.615,288.108" stroke-width="4.931" stroke="black" fill="none" stroke-linecap="round"></path><path d="M 231.615,288.108 C 212.660,282.908 212.562,282.792 194.062,276.117" stroke-width="4.500" stroke="black" fill="none" stroke-linecap="round"></path><path d="M 194.062,276.117 C 188.193,273.999 188.183,273.800 182.876,270.521" stroke-width="4.500" stroke="black" fill="none" stroke-linecap="round"></path><path d="M 182.876,270.521 C 174.600,265.406 174.365,265.514 166.896,259.329" stroke-width="4.500" stroke="black" fill="none" stroke-linecap="round"></path><path d="M 166.896,259.329 C 162.780,255.921 157.182,252.976 159.705,251.335" stroke-width="5.012" stroke="black" fill="none" stroke-linecap="round"></path><path d="M 159.705,251.335 C 165.172,247.780 171.279,249.152 182.876,248.937" stroke-width="5.194" stroke="black" fill="none" stroke-linecap="round"></path><path d="M 182.876,248.937 C 192.852,248.752 192.923,249.226 202.851,250.536" stroke-width="4.500" stroke="black" fill="none" stroke-linecap="round"></path><path d="M 202.851,250.536 C 229.278,254.022 229.496,253.186 255.586,258.530" stroke-width="4.500" stroke="black" fill="none" stroke-linecap="round"></path><path d="M 255.586,258.530 C 280.233,263.578 280.367,263.610 304.325,271.320" stroke-width="4.500" stroke="black" fill="none" stroke-linecap="round"></path><path d="M 304.325,271.320 C 337.496,281.996 337.096,283.279 369.843,295.302" stroke-width="4.500" stroke="black" fill="none" stroke-linecap="round"></path><path d="M 369.843,295.302 C 380.641,299.267 397.925,305.679 391.416,303.296" stroke-width="4.500" stroke="black" fill="none" stroke-linecap="round"></path></svg>