<svg xmlns="http://www.w3.org/2000/svg" xmlns:xlink="http://www.w3.org/1999/xlink" viewBox="0 0 576 416" width="576" height="416"><path d="M 110.167,321.455 C 108.170,317.058 107.887,317.164 106.172,312.661" stroke-width="8.299" stroke="black" fill="none" stroke-linecap="round"></path><path d="M 106.172,312.661 C 104.691,308.770 104.471,308.779 103.775,304.667" stroke-width="6.574" stroke="black" fill="none" stroke-linecap="round"></path><path d="M 103.775,304.667 C 96.082,259.216 93.070,253.262 89.393,213.535" stroke-width="6.234" stroke="black" fill="none" stroke-linecap="round"></path><path d="M 89.393,213.535 C 89.075,210.094 93.450,215.216 95.785,218.332" stroke-width="7.538" stroke="black" fill="none" stroke-linecap="round"></path><path d="M 95.785,218.332 C 99.442,223.210 98.180,224.190 101.378,229.523" stroke-width="6.324" stroke="black" fill="none" stroke-linecap="round"></path><path d="M 101.378,229.523 C 102.974,232.184 103.604,231.763 105.373,234.320" stroke-width="6.428" stroke="black" fill="none" stroke-linecap="round"></path><path d="M 105.373,234.320 C 107.200,236.959 106.821,237.213 108.569,239.916" stroke-width="6.420" stroke="black" fill="none" stroke-linecap="round"></path><path d="M 108.569,239.916 C 111.216,244.008 111.350,243.924 114.162,247.910" stroke-width="6.779" stroke="black" fill="none" stroke-linecap="round"></path><path d="M 114.162,247.910 C 116.144,250.719 116.201,250.679 118.157,253.505" stroke-width="6.515" stroke="black" fill="none" stroke-linecap="round"></path><path d="M 118.157,253.505 C 119.797,255.875 119.755,255.904 121.353,258.302" stroke-width="6.586" stroke="black" fill="none" stroke-linecap="round"></path><path d="M 121.353,258.302 C 122.951,260.700 122.856,260.769 124.549,263.098" stroke-width="6.680" stroke="black" fill="none" stroke-linecap="round"></path><path d="M 124.549,263.098 C 126.052,265.166 126.027,265.204 127.745,267.095" stroke-width="6.845" stroke="black" fill="none" stroke-linecap="round"></path><path d="M 127.745,267.095 C 130.022,269.601 129.948,269.731 132.539,271.892" stroke-width="7.242" stroke="black" fill="none" stroke-linecap="round"></path><path d="M 132.539,271.892 C 134.742,273.728 134.703,274.738 137.333,275.089" stroke-width="6.793" stroke="black" fill="none" stroke-linecap="round"></path><path d="M 137.333,275.089 C 140.696,275.538 142.054,275.816 144.524,273.491" stroke-width="7.469" stroke="black" fill="none" stroke-linecap="round"></path><path d="M 144.524,273.491 C 148.846,269.421 148.375,268.148 150.916,262.299" stroke-width="6.699" stroke="black" fill="none" stroke-linecap="round"></path><path d="M 150.916,262.299 C 152.370,258.954 152.222,258.757 152.514,255.104" stroke-width="6.399" stroke="black" fill="none" stroke-linecap="round"></path><path d="M 152.514,255.104 C 153.021,248.765 152.714,248.703 152.514,242.314" stroke-width="6.460" stroke="black" fill="none" stroke-linecap="round"></path><path d="M 152.514,242.314 C 152.314,235.912 152.206,235.911 151.715,229.523" stroke-width="5.361" stroke="black" fill="none" stroke-linecap="round"></path><path d="M 151.715,229.523 C 151.407,225.519 151.575,225.481 150.916,221.529" stroke-width="5.787" stroke="black" fill="none" stroke-linecap="round"></path><path d="M 150.916,221.529 C 150.376,218.287 149.924,218.368 149.318,215.134" stroke-width="6.325" stroke="black" fill="none" stroke-linecap="round"></path><path d="M 149.318,215.134 C 148.726,211.972 147.255,208.317 148.519,208.739" stroke-width="7.099" stroke="black" fill="none" stroke-linecap="round"></path><path d="M 148.519,208.739 C 150.850,209.516 152.891,212.848 156.509,217.532" stroke-width="7.820" stroke="black" fill="none" stroke-linecap="round"></path><path d="M 156.509,217.532 C 159.683,221.641 159.361,221.895 162.102,226.326" stroke-width="6.205" stroke="black" fill="none" stroke-linecap="round"></path><path d="M 162.102,226.326 C 164.554,230.289 164.499,230.323 166.896,234.320" stroke-width="5.925" stroke="black" fill="none" stroke-linecap="round"></path><path d="M 166.896,234.320 C 169.293,238.317 169.356,238.280 171.690,242.314" stroke-width="5.928" stroke="black" fill="none" stroke-linecap="round"></path><path d="M 171.690,242.314 C 173.751,245.875 173.492,246.034 175.685,249.508" stroke-width="5.939" stroke="black" fill="none" stroke-linecap="round"></path><path d="M 175.685,249.508 C 178.286,253.628 178.632,253.410 181.278,257.502" stroke-width="5.783" stroke="black" fill="none" stroke-linecap="round"></path><path d="M 181.278,257.502 C 183.026,260.205 182.693,260.425 184.474,263.098" stroke-width="6.904" stroke="black" fill="none" stroke-linecap="round"></path><path d="M 184.474,263.098 C 185.889,265.221 185.952,265.204 187.670,267.095" stroke-width="6.913" stroke="black" fill="none" stroke-linecap="round"></path><path d="M 187.670,267.095 C 189.947,269.601 190.188,269.386 192.464,271.892" stroke-width="7.316" stroke="black" fill="none" stroke-linecap="round"></path><path d="M 192.464,271.892 C 194.183,273.783 193.709,274.327 195.660,275.889" stroke-width="7.900" stroke="black" fill="none" stroke-linecap="round"></path><path d="M 195.660,275.889 C 197.704,277.525 197.876,277.857 200.454,278.287" stroke-width="8.385" stroke="black" fill="none" stroke-linecap="round"></path><path d="M 200.454,278.287 C 205.067,279.056 205.261,278.059 210.042,278.287" stroke-width="8.346" stroke="black" fill="none" stroke-linecap="round"></path><path d="M 210.042,278.287 C 213.651,278.459 214.767,280.526 217.233,279.086" stroke-width="8.042" stroke="black" fill="none" stroke-linecap="round"></path><path d="M 217.233,279.086 C 219.561,277.728 219.078,276.006 219.630,272.691" stroke-width="7.955" stroke="black" fill="none" stroke-linecap="round"></path><path d="M 219.630,272.691 C 220.277,268.811 219.864,268.677 219.630,264.697" stroke-width="6.479" stroke="black" fill="none" stroke-linecap="round"></path><path d="M 219.630,264.697 C 219.465,261.883 219.182,261.905 218.832,259.101" stroke-width="6.669" stroke="black" fill="none" stroke-linecap="round"></path><path d="M 218.832,259.101 C 218.383,255.510 218.032,255.498 218.032,251.907" stroke-width="7.178" stroke="black" fill="none" stroke-linecap="round"></path><path d="M 218.032,251.907 C 218.032,249.102 217.447,246.905 218.832,246.311" stroke-width="7.801" stroke="black" fill="none" stroke-linecap="round"></path><path d="M 218.832,246.311 C 220.243,245.705 221.492,247.588 223.625,249.508" stroke-width="7.998" stroke="black" fill="none" stroke-linecap="round"></path><path d="M 223.625,249.508 C 229.482,254.782 228.981,255.374 234.811,260.700" stroke-width="6.601" stroke="black" fill="none" stroke-linecap="round"></path><path d="M 234.811,260.700 C 238.169,263.767 237.983,264.732 242.003,266.296" stroke-width="6.941" stroke="black" fill="none" stroke-linecap="round"></path><path d="M 242.003,266.296 C 245.174,267.530 247.087,267.982 249.194,266.296" stroke-width="7.578" stroke="black" fill="none" stroke-linecap="round"></path><path d="M 249.194,266.296 C 251.082,264.785 249.792,263.111 249.993,259.901" stroke-width="8.024" stroke="black" fill="none" stroke-linecap="round"></path><path d="M 249.993,259.901 C 250.192,256.715 248.501,255.211 249.993,253.505" stroke-width="7.729" stroke="black" fill="none" stroke-linecap="round"></path><path d="M 249.993,253.505 C 251.297,252.014 252.930,252.841 255.586,253.505" stroke-width="8.348" stroke="black" fill="none" stroke-linecap="round"></path><path d="M 255.586,253.505 C 259.322,254.440 259.080,255.398 262.777,256.703" stroke-width="7.622" stroke="black" fill="none" stroke-linecap="round"></path><path d="M 262.777,256.703 C 265.871,257.796 265.942,258.087 269.169,258.302" stroke-width="7.588" stroke="black" fill="none" stroke-linecap="round"></path><path d="M 269.169,258.302 C 271.935,258.486 271.993,258.056 274.762,257.502" stroke-width="6.907" stroke="black" fill="none" stroke-linecap="round"></path><path d="M 274.762,257.502 C 281.981,256.058 282.046,256.241 289.144,254.305" stroke-width="5.186" stroke="black" fill="none" stroke-linecap="round"></path><path d="M 289.144,254.305 C 295.230,252.644 295.221,252.524 301.129,250.308" stroke-width="5.170" stroke="black" fill="none" stroke-linecap="round"></path><path d="M 301.129,250.308 C 304.809,248.927 304.754,248.775 308.320,247.110" stroke-width="5.820" stroke="black" fill="none" stroke-linecap="round"></path><path d="M 308.320,247.110 C 316.739,243.179 316.820,243.333 325.099,239.116" stroke-width="4.552" stroke="black" fill="none" stroke-linecap="round"></path><path d="M 325.099,239.116 C 338.792,232.141 339.014,232.435 352.265,224.727" stroke-width="4.500" stroke="black" fill="none" stroke-linecap="round"></path><path d="M 352.265,224.727 C 356.192,222.442 355.694,221.691 359.456,219.131" stroke-width="4.822" stroke="black" fill="none" stroke-linecap="round"></path><path d="M 359.456,219.131 C 365.681,214.896 365.929,215.255 372.240,211.137" stroke-width="4.785" stroke="black" fill="none" stroke-linecap="round"></path><path d="M 372.240,211.137 C 375.117,209.260 379.252,207.657 377.833,207.140" stroke-width="5.817" stroke="black" fill="none" stroke-linecap="round"></path><path d="M 377.833,207.140 C 374.858,206.058 370.496,206.674 363.451,207.939" stroke-width="6.197" stroke="black" fill="none" stroke-linecap="round"></path><path d="M 363.451,207.939 C 354.915,209.472 354.977,210.065 346.672,212.736" stroke-width="4.960" stroke="black" fill="none" stroke-linecap="round"></path><path d="M 346.672,212.736 C 321.419,220.857 321.225,220.368 296.335,229.523" stroke-width="4.500" stroke="black" fill="none" stroke-linecap="round"></path><path d="M 296.335,229.523 C 266.893,240.353 266.862,240.394 238.008,252.706" stroke-width="4.500" stroke="black" fill="none" stroke-linecap="round"></path><path d="M 238.008,252.706 C 212.530,263.577 212.969,264.589 187.670,275.889" stroke-width="4.500" stroke="black" fill="none" stroke-linecap="round"></path><path d="M 187.670,275.889 C 168.225,284.574 168.184,284.497 148.519,292.676" stroke-width="4.500" stroke="black" fill="none" stroke-linecap="round"></path><path d="M 148.519,292.676 C 132.628,299.286 132.650,299.369 116.559,305.467" stroke-width="4.500" stroke="black" fill="none" stroke-linecap="round"></path><path d="M 116.559,305.467 C 106.283,309.361 106.312,310.721 95.785,312.661" stroke-width="4.500" stroke="black" fill="none" stroke-linecap="round"></path><path d="M 95.785,312.661 C 91.131,313.519 85.821,314.070 86.197,311.063" stroke-width="4.754" stroke="black" fill="none" stroke-linecap="round"></path><path d="M 86.197,311.063 C 87.020,304.477 92.040,302.163 98.182,293.476" stroke-width="5.234" stroke="black" fill="none" stroke-linecap="round"></path><path d="M 98.182,293.476 C 103.626,285.776 103.335,285.531 109.368,278.287" stroke-width="4.617" stroke="black" fill="none" stroke-linecap="round"></path><path d="M 224.425,167.170 C 222.427,175.963 222.197,175.917 220.429,184.757" stroke-width="7.718" stroke="black" fill="none" stroke-linecap="round"></path><path d="M 220.429,184.757 C 218.601,193.904 218.515,193.910 217.233,203.143" stroke-width="4.950" stroke="black" fill="none" stroke-linecap="round"></path><path d="M 217.233,203.143 C 216.518,208.300 216.345,208.331 216.434,213.535" stroke-width="5.452" stroke="black" fill="none" stroke-linecap="round"></path><path d="M 216.434,213.535 C 216.744,231.514 216.611,231.587 218.032,249.508" stroke-width="4.500" stroke="black" fill="none" stroke-linecap="round"></path><path d="M 218.032,249.508 C 218.608,256.769 219.000,256.746 220.429,263.898" stroke-width="4.500" stroke="black" fill="none" stroke-linecap="round"></path></svg>