<svg xmlns="http://www.w3.org/2000/svg" xmlns:xlink="http://www.w3.org/1999/xlink" viewBox="0 0 576 416" width="576" height="416"><path d="M 204.449,271.452 C 205.648,267.055 205.662,267.059 206.846,262.658" stroke-width="6.738" stroke="black" fill="none" stroke-linecap="round"></path><path d="M 206.846,262.658 C 211.255,246.274 211.804,246.409 215.635,229.883" stroke-width="4.500" stroke="black" fill="none" stroke-linecap="round"></path><path d="M 215.635,229.883 C 229.782,168.866 230.979,169.026 242.802,107.574" stroke-width="4.500" stroke="black" fill="none" stroke-linecap="round"></path><path d="M 242.802,107.574 C 247.358,83.889 245.762,83.609 248.395,59.610" stroke-width="4.500" stroke="black" fill="none" stroke-linecap="round"></path><path d="M 248.395,59.610 C 249.357,50.833 249.993,50.774 249.993,42.023" stroke-width="4.500" stroke="black" fill="none" stroke-linecap="round"></path><path d="M 249.993,42.023 C 249.993,37.983 249.327,34.729 248.395,34.029" stroke-width="5.181" stroke="black" fill="none" stroke-linecap="round"></path><path d="M 248.395,34.029 C 247.729,33.530 247.331,36.775 246.797,39.625" stroke-width="7.010" stroke="black" fill="none" stroke-linecap="round"></path><path d="M 246.797,39.625 C 246.132,43.170 246.086,43.205 245.998,46.819" stroke-width="6.507" stroke="black" fill="none" stroke-linecap="round"></path><path d="M 245.998,46.819 C 245.686,59.593 245.541,59.623 245.998,72.400" stroke-width="4.500" stroke="black" fill="none" stroke-linecap="round"></path><path d="M 245.998,72.400 C 246.740,93.198 245.315,93.430 248.395,113.969" stroke-width="4.500" stroke="black" fill="none" stroke-linecap="round"></path><path d="M 248.395,113.969 C 253.705,149.388 255.225,149.222 262.777,184.317" stroke-width="4.500" stroke="black" fill="none" stroke-linecap="round"></path><path d="M 262.777,184.317 C 267.610,206.779 269.117,206.499 273.164,229.083" stroke-width="4.500" stroke="black" fill="none" stroke-linecap="round"></path><path d="M 273.164,229.083 C 276.708,248.867 276.242,249.028 277.958,269.054" stroke-width="4.500" stroke="black" fill="none" stroke-linecap="round"></path><path d="M 277.958,269.054 C 278.639,277.007 278.192,277.052 277.958,285.042" stroke-width="4.500" stroke="black" fill="none" stroke-linecap="round"></path><path d="M 277.958,285.042 C 277.393,304.232 277.614,304.272 276.360,323.413" stroke-width="4.500" stroke="black" fill="none" stroke-linecap="round"></path><path d="M 276.360,323.413 C 276.016,328.654 275.549,328.607 274.762,333.805" stroke-width="4.500" stroke="black" fill="none" stroke-linecap="round"></path><path d="M 274.762,333.805 C 273.551,341.798 273.651,341.814 272.365,349.793" stroke-width="4.500" stroke="black" fill="none" stroke-linecap="round"></path><path d="M 272.365,349.793 C 271.653,354.205 271.521,354.182 270.767,358.587" stroke-width="5.370" stroke="black" fill="none" stroke-linecap="round"></path><path d="M 270.767,358.587 C 269.124,368.172 269.908,368.420 267.571,377.772" stroke-width="4.500" stroke="black" fill="none" stroke-linecap="round"></path><path d="M 267.571,377.772 C 266.711,381.210 265.230,385.308 264.375,384.168" stroke-width="6.150" stroke="black" fill="none" stroke-linecap="round"></path><path d="M 264.375,384.168 C 262.833,382.111 263.098,377.802 262.777,371.377" stroke-width="6.372" stroke="black" fill="none" stroke-linecap="round"></path><path d="M 262.777,371.377 C 262.299,361.814 262.599,361.781 262.777,352.192" stroke-width="4.813" stroke="black" fill="none" stroke-linecap="round"></path><path d="M 262.777,352.192 C 262.999,340.197 262.761,340.164 263.576,328.209" stroke-width="4.500" stroke="black" fill="none" stroke-linecap="round"></path><path d="M 263.576,328.209 C 263.959,322.577 263.781,322.484 265.174,317.018" stroke-width="4.891" stroke="black" fill="none" stroke-linecap="round"></path><path d="M 265.174,317.018 C 268.974,302.099 269.364,302.162 273.963,287.440" stroke-width="4.500" stroke="black" fill="none" stroke-linecap="round"></path><path d="M 273.963,287.440 C 275.357,282.976 275.075,282.816 277.159,278.646" stroke-width="4.824" stroke="black" fill="none" stroke-linecap="round"></path><path d="M 277.159,278.646 C 281.067,270.825 281.648,271.105 285.948,263.458" stroke-width="4.540" stroke="black" fill="none" stroke-linecap="round"></path><path d="M 285.948,263.458 C 288.839,258.315 293.692,254.225 291.541,253.066" stroke-width="5.132" stroke="black" fill="none" stroke-linecap="round"></path><path d="M 291.541,253.066 C 288.499,251.427 282.937,254.069 275.561,257.862" stroke-width="5.615" stroke="black" fill="none" stroke-linecap="round"></path><path d="M 275.561,257.862 C 254.173,268.858 254.120,269.232 234.013,282.643" stroke-width="4.500" stroke="black" fill="none" stroke-linecap="round"></path><path d="M 234.013,282.643 C 201.386,304.406 202.090,305.480 170.092,328.209" stroke-width="4.500" stroke="black" fill="none" stroke-linecap="round"></path><path d="M 170.092,328.209 C 162.140,333.858 162.119,333.829 154.112,339.401" stroke-width="4.500" stroke="black" fill="none" stroke-linecap="round"></path><path d="M 154.112,339.401 C 143.742,346.619 138.714,353.534 133.338,353.790" stroke-width="4.500" stroke="black" fill="none" stroke-linecap="round"></path><path d="M 133.338,353.790 C 130.325,353.934 133.569,346.071 137.333,340.200" stroke-width="5.064" stroke="black" fill="none" stroke-linecap="round"></path><path d="M 137.333,340.200 C 147.152,324.887 148.303,325.285 160.504,311.422" stroke-width="4.500" stroke="black" fill="none" stroke-linecap="round"></path><path d="M 160.504,311.422 C 195.444,271.725 194.658,270.878 231.615,233.080" stroke-width="4.500" stroke="black" fill="none" stroke-linecap="round"></path><path d="M 231.615,233.080 C 266.568,197.333 267.077,197.708 304.325,164.332" stroke-width="4.500" stroke="black" fill="none" stroke-linecap="round"></path><path d="M 304.325,164.332 C 339.786,132.556 339.502,132.060 377.034,102.778" stroke-width="4.500" stroke="black" fill="none" stroke-linecap="round"></path></svg>