<svg xmlns="http://www.w3.org/2000/svg" xmlns:xlink="http://www.w3.org/1999/xlink" viewBox="0 0 576 416" width="576" height="416"><path d="M 414.587,119.605 C 410.991,122.003 410.909,123.899 407.396,124.402" stroke-width="8.491" stroke="black" fill="none" stroke-linecap="round"></path><path d="M 407.396,124.402 C 405.316,124.699 404.004,123.214 403.401,121.204" stroke-width="8.400" stroke="black" fill="none" stroke-linecap="round"></path><path d="M 403.401,121.204 C 402.805,119.217 403.634,118.456 404.999,116.407" stroke-width="7.510" stroke="black" fill="none" stroke-linecap="round"></path><path d="M 404.999,116.407 C 406.830,113.660 407.936,110.682 409.793,111.611" stroke-width="7.554" stroke="black" fill="none" stroke-linecap="round"></path><path d="M 409.793,111.611 C 412.730,113.080 414.135,116.085 414.587,121.204" stroke-width="7.415" stroke="black" fill="none" stroke-linecap="round"></path><path d="M 414.587,121.204 C 415.334,129.675 414.110,130.147 412.190,138.791" stroke-width="4.889" stroke="black" fill="none" stroke-linecap="round"></path><path d="M 412.190,138.791 C 409.316,151.731 409.079,151.737 404.999,164.372" stroke-width="4.500" stroke="black" fill="none" stroke-linecap="round"></path><path d="M 404.999,164.372 C 400.689,177.718 394.190,195.095 395.411,190.752" stroke-width="4.500" stroke="black" fill="none" stroke-linecap="round"></path><path d="M 377.833,145.985 C 373.438,147.584 373.196,147.106 369.044,149.183" stroke-width="8.481" stroke="black" fill="none" stroke-linecap="round"></path><path d="M 369.044,149.183 C 365.206,151.103 365.735,152.253 361.853,153.979" stroke-width="7.489" stroke="black" fill="none" stroke-linecap="round"></path><path d="M 361.853,153.979 C 358.544,155.451 356.481,156.994 354.662,155.578" stroke-width="7.425" stroke="black" fill="none" stroke-linecap="round"></path><path d="M 354.662,155.578 C 352.885,154.196 355.553,148.205 354.662,148.384" stroke-width="7.887" stroke="black" fill="none" stroke-linecap="round"></path><path d="M 354.662,148.384 C 353.555,148.605 352.941,152.538 350.667,156.378" stroke-width="8.039" stroke="black" fill="none" stroke-linecap="round"></path><path d="M 350.667,156.378 C 346.549,163.330 346.555,163.374 341.878,169.967" stroke-width="5.287" stroke="black" fill="none" stroke-linecap="round"></path><path d="M 341.878,169.967 C 337.766,175.765 337.976,176.047 333.089,181.159" stroke-width="4.909" stroke="black" fill="none" stroke-linecap="round"></path><path d="M 333.089,181.159 C 329.187,185.240 329.181,185.912 324.300,188.354" stroke-width="5.152" stroke="black" fill="none" stroke-linecap="round"></path><path d="M 324.300,188.354 C 321.190,189.909 320.525,189.756 317.109,189.153" stroke-width="5.913" stroke="black" fill="none" stroke-linecap="round"></path><path d="M 317.109,189.153 C 313.734,188.557 313.255,188.374 310.717,185.956" stroke-width="6.855" stroke="black" fill="none" stroke-linecap="round"></path><path d="M 310.717,185.956 C 304.865,180.380 305.370,179.679 300.330,173.165" stroke-width="4.959" stroke="black" fill="none" stroke-linecap="round"></path><path d="M 300.330,173.165 C 295.782,167.288 296.271,166.892 291.541,161.174" stroke-width="4.750" stroke="black" fill="none" stroke-linecap="round"></path><path d="M 291.541,161.174 C 286.683,155.301 286.814,155.060 281.154,149.982" stroke-width="4.744" stroke="black" fill="none" stroke-linecap="round"></path><path d="M 281.154,149.982 C 275.228,144.668 275.318,144.164 268.370,140.390" stroke-width="4.670" stroke="black" fill="none" stroke-linecap="round"></path><path d="M 268.370,140.390 C 261.336,136.569 261.035,136.437 253.189,134.794" stroke-width="4.629" stroke="black" fill="none" stroke-linecap="round"></path><path d="M 253.189,134.794 C 243.857,132.840 243.602,133.195 234.013,133.195" stroke-width="4.500" stroke="black" fill="none" stroke-linecap="round"></path><path d="M 234.013,133.195 C 224.026,133.195 224.000,133.755 214.037,134.794" stroke-width="4.500" stroke="black" fill="none" stroke-linecap="round"></path><path d="M 214.037,134.794 C 204.824,135.754 204.877,136.292 195.660,137.192" stroke-width="4.500" stroke="black" fill="none" stroke-linecap="round"></path><path d="M 195.660,137.192 C 188.497,137.891 188.434,138.230 181.278,137.991" stroke-width="4.651" stroke="black" fill="none" stroke-linecap="round"></path><path d="M 181.278,137.991 C 176.449,137.830 174.182,139.420 171.690,136.393" stroke-width="5.354" stroke="black" fill="none" stroke-linecap="round"></path><path d="M 171.690,136.393 C 168.589,132.625 168.620,129.998 170.092,124.402" stroke-width="6.193" stroke="black" fill="none" stroke-linecap="round"></path><path d="M 170.092,124.402 C 172.615,114.809 174.088,114.698 179.680,106.015" stroke-width="4.523" stroke="black" fill="none" stroke-linecap="round"></path><path d="M 179.680,106.015 C 185.673,96.711 185.771,96.567 193.263,88.428" stroke-width="4.500" stroke="black" fill="none" stroke-linecap="round"></path><path d="M 193.263,88.428 C 199.753,81.379 199.958,81.351 207.645,75.638" stroke-width="4.500" stroke="black" fill="none" stroke-linecap="round"></path><path d="M 207.645,75.638 C 213.941,70.959 214.048,70.692 221.228,67.644" stroke-width="4.509" stroke="black" fill="none" stroke-linecap="round"></path><path d="M 221.228,67.644 C 227.232,65.096 228.137,63.063 234.013,64.446" stroke-width="4.969" stroke="black" fill="none" stroke-linecap="round"></path><path d="M 234.013,64.446 C 241.720,66.261 244.718,67.263 248.395,74.039" stroke-width="5.590" stroke="black" fill="none" stroke-linecap="round"></path><path d="M 248.395,74.039 C 252.308,81.253 249.847,83.276 249.194,92.425" stroke-width="4.637" stroke="black" fill="none" stroke-linecap="round"></path><path d="M 249.194,92.425 C 247.849,111.255 248.249,111.510 244.400,129.997" stroke-width="4.500" stroke="black" fill="none" stroke-linecap="round"></path><path d="M 244.400,129.997 C 240.259,149.881 239.392,149.771 233.214,169.168" stroke-width="4.500" stroke="black" fill="none" stroke-linecap="round"></path><path d="M 233.214,169.168 C 227.806,186.143 227.452,186.044 221.228,202.743" stroke-width="4.500" stroke="black" fill="none" stroke-linecap="round"></path><path d="M 221.228,202.743 C 218.663,209.627 218.472,209.554 215.635,216.333" stroke-width="4.500" stroke="black" fill="none" stroke-linecap="round"></path><path d="M 215.635,216.333 C 211.280,226.742 211.698,226.948 206.846,237.117" stroke-width="4.500" stroke="black" fill="none" stroke-linecap="round"></path><path d="M 206.846,237.117 C 203.308,244.535 203.747,246.614 198.856,251.507" stroke-width="4.500" stroke="black" fill="none" stroke-linecap="round"></path><path d="M 198.856,251.507 C 197.355,253.009 195.200,251.615 194.062,249.908" stroke-width="5.886" stroke="black" fill="none" stroke-linecap="round"></path><path d="M 194.062,249.908 C 192.803,248.018 193.946,247.107 194.062,244.312" stroke-width="7.083" stroke="black" fill="none" stroke-linecap="round"></path><path d="M 194.062,244.312 C 194.346,237.514 194.359,237.509 194.861,230.722" stroke-width="6.570" stroke="black" fill="none" stroke-linecap="round"></path><path d="M 194.861,230.722 C 195.158,226.717 196.115,223.410 195.660,222.728" stroke-width="7.051" stroke="black" fill="none" stroke-linecap="round"></path><path d="M 195.660,222.728 C 195.316,222.211 194.422,225.509 193.263,228.324" stroke-width="7.449" stroke="black" fill="none" stroke-linecap="round"></path><path d="M 193.263,228.324 C 191.625,232.304 191.612,232.300 190.067,236.318" stroke-width="6.352" stroke="black" fill="none" stroke-linecap="round"></path><path d="M 190.067,236.318 C 183.622,253.085 184.465,253.469 177.283,269.893" stroke-width="4.500" stroke="black" fill="none" stroke-linecap="round"></path><path d="M 177.283,269.893 C 173.279,279.050 172.952,279.006 167.695,287.480" stroke-width="4.500" stroke="black" fill="none" stroke-linecap="round"></path><path d="M 167.695,287.480 C 165.761,290.597 165.419,290.389 162.901,293.076" stroke-width="5.309" stroke="black" fill="none" stroke-linecap="round"></path><path d="M 162.901,293.076 C 159.426,296.784 159.881,297.720 155.710,300.270" stroke-width="5.530" stroke="black" fill="none" stroke-linecap="round"></path><path d="M 155.710,300.270 C 152.690,302.117 151.433,302.766 148.519,301.869" stroke-width="6.103" stroke="black" fill="none" stroke-linecap="round"></path><path d="M 148.519,301.869 C 146.240,301.167 145.928,299.696 145.323,297.073" stroke-width="7.116" stroke="black" fill="none" stroke-linecap="round"></path><path d="M 145.323,297.073 C 144.730,294.500 145.749,294.278 146.122,291.477" stroke-width="6.859" stroke="black" fill="none" stroke-linecap="round"></path><path d="M 146.122,291.477 C 146.548,288.283 145.869,288.066 146.921,285.082" stroke-width="6.622" stroke="black" fill="none" stroke-linecap="round"></path><path d="M 146.921,285.082 C 148.266,281.271 148.832,278.096 150.916,277.887" stroke-width="7.074" stroke="black" fill="none" stroke-linecap="round"></path><path d="M 150.916,277.887 C 152.827,277.696 153.632,280.807 154.911,284.282" stroke-width="7.581" stroke="black" fill="none" stroke-linecap="round"></path><path d="M 154.911,284.282 C 156.428,288.401 155.932,288.650 156.509,293.076" stroke-width="6.319" stroke="black" fill="none" stroke-linecap="round"></path><path d="M 156.509,293.076 C 157.131,297.843 156.909,297.872 157.308,302.668" stroke-width="5.907" stroke="black" fill="none" stroke-linecap="round"></path><path d="M 157.308,302.668 C 157.708,307.465 157.672,307.468 158.107,312.261" stroke-width="5.877" stroke="black" fill="none" stroke-linecap="round"></path><path d="M 158.107,312.261 C 158.471,316.262 158.906,316.250 158.906,320.255" stroke-width="5.957" stroke="black" fill="none" stroke-linecap="round"></path><path d="M 158.906,320.255 C 158.906,327.441 158.384,327.447 158.107,334.645" stroke-width="6.207" stroke="black" fill="none" stroke-linecap="round"></path><path d="M 158.107,334.645 C 157.985,337.839 158.107,337.842 158.107,341.040" stroke-width="6.436" stroke="black" fill="none" stroke-linecap="round"></path><path d="M 150.117,225.126 C 143.725,226.725 143.708,226.660 137.333,228.324" stroke-width="8.188" stroke="black" fill="none" stroke-linecap="round"></path><path d="M 137.333,228.324 C 134.519,229.058 134.592,229.515 131.740,229.923" stroke-width="7.091" stroke="black" fill="none" stroke-linecap="round"></path><path d="M 131.740,229.923 C 128.999,230.315 128.725,230.782 126.147,229.923" stroke-width="6.865" stroke="black" fill="none" stroke-linecap="round"></path><path d="M 126.147,229.923 C 121.534,228.384 120.490,228.501 117.358,225.126" stroke-width="6.926" stroke="black" fill="none" stroke-linecap="round"></path><path d="M 117.358,225.126 C 115.297,222.905 116.121,221.983 115.760,218.731" stroke-width="6.686" stroke="black" fill="none" stroke-linecap="round"></path><path d="M 115.760,218.731 C 115.322,214.788 114.844,214.558 115.760,210.737" stroke-width="6.280" stroke="black" fill="none" stroke-linecap="round"></path><path d="M 115.760,210.737 C 117.241,204.565 117.693,204.471 120.554,198.746" stroke-width="6.411" stroke="black" fill="none" stroke-linecap="round"></path><path d="M 120.554,198.746 C 121.688,196.477 121.879,194.593 123.750,194.749" stroke-width="6.757" stroke="black" fill="none" stroke-linecap="round"></path><path d="M 123.750,194.749 C 126.673,194.993 129.144,196.049 130.142,199.545" stroke-width="7.092" stroke="black" fill="none" stroke-linecap="round"></path><path d="M 130.142,199.545 C 132.340,207.240 130.932,208.444 130.142,217.132" stroke-width="5.206" stroke="black" fill="none" stroke-linecap="round"></path><path d="M 130.142,217.132 C 129.733,221.635 129.071,221.566 127.745,225.926" stroke-width="5.647" stroke="black" fill="none" stroke-linecap="round"></path><path d="M 127.745,225.926 C 123.478,239.953 124.413,240.387 118.956,253.905" stroke-width="4.500" stroke="black" fill="none" stroke-linecap="round"></path><path d="M 118.956,253.905 C 116.023,261.171 115.479,261.079 110.966,267.495" stroke-width="4.500" stroke="black" fill="none" stroke-linecap="round"></path><path d="M 110.966,267.495 C 107.888,271.871 107.768,271.964 103.775,275.489" stroke-width="5.072" stroke="black" fill="none" stroke-linecap="round"></path><path d="M 103.775,275.489 C 100.976,277.960 100.809,278.572 97.383,279.486" stroke-width="5.834" stroke="black" fill="none" stroke-linecap="round"></path><path d="M 97.383,279.486 C 94.816,280.171 93.647,277.293 91.790,278.686" stroke-width="7.036" stroke="black" fill="none" stroke-linecap="round"></path><path d="M 91.790,278.686 C 88.853,280.890 88.452,282.411 87.795,286.680" stroke-width="7.860" stroke="black" fill="none" stroke-linecap="round"></path><path d="M 87.795,286.680 C 86.854,292.803 88.218,293.074 88.594,299.471" stroke-width="5.728" stroke="black" fill="none" stroke-linecap="round"></path><path d="M 88.594,299.471 C 89.017,306.664 88.742,306.689 89.393,313.860" stroke-width="5.100" stroke="black" fill="none" stroke-linecap="round"></path><path d="M 89.393,313.860 C 89.940,319.879 89.809,319.938 90.991,325.851" stroke-width="5.210" stroke="black" fill="none" stroke-linecap="round"></path><path d="M 90.991,325.851 C 91.807,329.931 92.243,329.833 93.388,333.845" stroke-width="5.762" stroke="black" fill="none" stroke-linecap="round"></path><path d="M 93.388,333.845 C 94.640,338.227 97.494,342.126 95.785,342.639" stroke-width="6.636" stroke="black" fill="none" stroke-linecap="round"></path><path d="M 95.785,342.639 C 93.499,343.325 90.053,340.091 85.398,336.243" stroke-width="7.462" stroke="black" fill="none" stroke-linecap="round"></path><path d="M 85.398,336.243 C 80.864,332.496 80.804,332.279 77.408,327.450" stroke-width="5.690" stroke="black" fill="none" stroke-linecap="round"></path><path d="M 77.408,327.450 C 73.214,321.487 73.813,321.055 70.217,314.660" stroke-width="5.060" stroke="black" fill="none" stroke-linecap="round"></path></svg>