<svg xmlns="http://www.w3.org/2000/svg" xmlns:xlink="http://www.w3.org/1999/xlink" viewBox="0 0 685.6 336" width="685.6" height="336"><circle r="3" cx="238.77410888671875" cy="184.802734375" fill="black"></circle><path d="M 452.215,46.576 C 441.423,50.171 441.396,50.093 430.631,53.767" stroke-width="7.087" stroke="black" fill="none" stroke-linecap="round"></path><path d="M 430.631,53.767 C 425.008,55.686 424.988,55.638 419.439,57.762" stroke-width="5.731" stroke="black" fill="none" stroke-linecap="round"></path><path d="M 419.439,57.762 C 406.202,62.829 406.125,62.660 393.059,68.149" stroke-width="4.500" stroke="black" fill="none" stroke-linecap="round"></path><path d="M 393.059,68.149 C 378.546,74.245 378.904,75.119 364.280,80.933" stroke-width="4.500" stroke="black" fill="none" stroke-linecap="round"></path><path d="M 364.280,80.933 C 343.730,89.102 343.387,88.241 322.711,96.114" stroke-width="4.500" stroke="black" fill="none" stroke-linecap="round"></path><path d="M 322.711,96.114 C 309.812,101.025 310.106,101.823 297.131,106.501" stroke-width="4.500" stroke="black" fill="none" stroke-linecap="round"></path><path d="M 297.131,106.501 C 285.724,110.613 285.572,110.206 273.948,113.692" stroke-width="4.500" stroke="black" fill="none" stroke-linecap="round"></path><path d="M 273.948,113.692 C 265.587,116.199 265.610,116.314 257.160,118.486" stroke-width="4.500" stroke="black" fill="none" stroke-linecap="round"></path><path d="M 257.160,118.486 C 251.621,119.909 247.977,121.635 245.969,120.883" stroke-width="5.062" stroke="black" fill="none" stroke-linecap="round"></path><path d="M 245.969,120.883 C 244.779,120.437 248.172,118.248 250.765,116.089" stroke-width="6.883" stroke="black" fill="none" stroke-linecap="round"></path><path d="M 250.765,116.089 C 252.969,114.253 256.946,112.398 255.562,112.893" stroke-width="7.432" stroke="black" fill="none" stroke-linecap="round"></path><path d="M 255.562,112.893 C 251.350,114.396 247.548,116.445 239.573,120.084" stroke-width="6.319" stroke="black" fill="none" stroke-linecap="round"></path><path d="M 239.573,120.084 C 229.162,124.835 229.064,124.638 218.789,129.672" stroke-width="4.500" stroke="black" fill="none" stroke-linecap="round"></path><path d="M 218.789,129.672 C 208.679,134.625 208.917,135.112 198.804,140.059" stroke-width="4.500" stroke="black" fill="none" stroke-linecap="round"></path><path d="M 198.804,140.059 C 190.131,144.301 189.945,143.916 181.217,148.049" stroke-width="4.500" stroke="black" fill="none" stroke-linecap="round"></path><path d="M 181.217,148.049 C 174.756,151.107 174.956,151.569 168.427,154.441" stroke-width="4.719" stroke="black" fill="none" stroke-linecap="round"></path><path d="M 168.427,154.441 C 164.964,155.964 164.335,157.315 161.232,156.838" stroke-width="5.611" stroke="black" fill="none" stroke-linecap="round"></path><path d="M 161.232,156.838 C 159.138,156.516 160.123,153.602 158.034,152.843" stroke-width="7.294" stroke="black" fill="none" stroke-linecap="round"></path><path d="M 158.034,152.843 C 155.727,152.004 155.031,152.586 152.438,153.642" stroke-width="7.585" stroke="black" fill="none" stroke-linecap="round"></path><path d="M 152.438,153.642 C 144.240,156.980 144.179,157.169 136.450,161.632" stroke-width="5.023" stroke="black" fill="none" stroke-linecap="round"></path><path d="M 136.450,161.632 C 126.192,167.556 126.581,168.226 116.465,174.416" stroke-width="4.500" stroke="black" fill="none" stroke-linecap="round"></path><path d="M 116.465,174.416 C 106.996,180.211 107.029,180.312 97.280,185.602" stroke-width="4.500" stroke="black" fill="none" stroke-linecap="round"></path><path d="M 97.280,185.602 C 93.040,187.902 93.063,188.126 88.486,189.597" stroke-width="5.052" stroke="black" fill="none" stroke-linecap="round"></path><path d="M 88.486,189.597 C 81.871,191.722 81.736,192.337 74.896,192.793" stroke-width="4.974" stroke="black" fill="none" stroke-linecap="round"></path><path d="M 74.896,192.793 C 69.745,193.136 68.692,193.985 64.504,191.195" stroke-width="5.371" stroke="black" fill="none" stroke-linecap="round"></path><path d="M 64.504,191.195 C 55.501,185.196 55.951,183.671 48.516,175.215" stroke-width="5.395" stroke="black" fill="none" stroke-linecap="round"></path><path d="M 48.516,175.215 C 44.360,170.488 44.629,170.199 41.321,164.828" stroke-width="5.230" stroke="black" fill="none" stroke-linecap="round"></path><path d="M 41.321,164.828 C 38.233,159.812 38.551,159.619 35.726,154.441" stroke-width="5.288" stroke="black" fill="none" stroke-linecap="round"></path><path d="M 35.726,154.441 C 33.755,150.830 31.212,150.692 31.729,147.250" stroke-width="5.809" stroke="black" fill="none" stroke-linecap="round"></path><path d="M 31.729,147.250 C 32.411,142.702 33.690,141.230 38.124,138.461" stroke-width="6.849" stroke="black" fill="none" stroke-linecap="round"></path><path d="M 38.124,138.461 C 46.481,133.240 47.637,134.639 57.309,131.270" stroke-width="4.644" stroke="black" fill="none" stroke-linecap="round"></path><path d="M 57.309,131.270 C 74.017,125.450 74.286,126.196 90.884,120.084" stroke-width="4.500" stroke="black" fill="none" stroke-linecap="round"></path><path d="M 90.884,120.084 C 112.258,112.213 112.114,111.807 133.253,103.305" stroke-width="4.500" stroke="black" fill="none" stroke-linecap="round"></path><path d="M 133.253,103.305 C 144.890,98.624 144.815,98.439 156.436,93.717" stroke-width="4.500" stroke="black" fill="none" stroke-linecap="round"></path><path d="M 156.436,93.717 C 181.188,83.658 181.237,83.779 205.998,73.742" stroke-width="4.500" stroke="black" fill="none" stroke-linecap="round"></path><path d="M 205.998,73.742 C 238.395,60.608 238.163,59.928 270.750,47.375" stroke-width="4.500" stroke="black" fill="none" stroke-linecap="round"></path><path d="M 270.750,47.375 C 276.534,45.146 276.691,44.626 282.741,44.179" stroke-width="4.500" stroke="black" fill="none" stroke-linecap="round"></path><path d="M 282.741,44.179 C 287.483,43.827 291.163,44.138 292.334,45.777" stroke-width="4.770" stroke="black" fill="none" stroke-linecap="round"></path><path d="M 292.334,45.777 C 293.162,46.935 289.615,47.890 286.738,49.772" stroke-width="5.810" stroke="black" fill="none" stroke-linecap="round"></path><path d="M 286.738,49.772 C 267.631,62.272 267.904,62.724 248.367,74.541" stroke-width="4.500" stroke="black" fill="none" stroke-linecap="round"></path><path d="M 248.367,74.541 C 189.962,109.865 189.260,108.729 130.855,144.054" stroke-width="4.500" stroke="black" fill="none" stroke-linecap="round"></path><path d="M 130.855,144.054 C 111.318,155.870 111.258,155.831 92.483,168.823" stroke-width="4.500" stroke="black" fill="none" stroke-linecap="round"></path><path d="M 92.483,168.823 C 38.512,206.168 37.605,205.097 -14.637,244.728" stroke-width="4.500" stroke="black" fill="none" stroke-linecap="round"></path><path d="M -14.637,244.728 C -40.337,264.223 -39.751,265.126 -63.400,287.075" stroke-width="4.500" stroke="black" fill="none" stroke-linecap="round"></path><path d="M -63.400,287.075 C -78.922,301.480 -79.284,301.420 -92.978,317.437" stroke-width="4.500" stroke="black" fill="none" stroke-linecap="round"></path><path d="M -92.978,317.437 C -98.070,323.393 -98.342,323.739 -100.972,331.020" stroke-width="4.500" stroke="black" fill="none" stroke-linecap="round"></path><circle r="3" cx="98.07907104492188" cy="169.62173461914062" fill="black"></circle></svg>