<svg xmlns="http://www.w3.org/2000/svg" xmlns:xlink="http://www.w3.org/1999/xlink" viewBox="0 0 576 416" width="576" height="416"><path d="M 168.494,245.879 C 168.095,240.283 167.903,240.290 167.695,234.687" stroke-width="7.523" stroke="black" fill="none" stroke-linecap="round"></path><path d="M 167.695,234.687 C 167.503,229.498 167.695,229.491 167.695,224.295" stroke-width="6.997" stroke="black" fill="none" stroke-linecap="round"></path><path d="M 167.695,224.295 C 167.695,219.099 167.488,219.090 167.695,213.902" stroke-width="5.945" stroke="black" fill="none" stroke-linecap="round"></path><path d="M 167.695,213.902 C 167.887,209.097 167.074,208.777 168.494,204.310" stroke-width="5.805" stroke="black" fill="none" stroke-linecap="round"></path><path d="M 168.494,204.310 C 169.870,199.984 169.944,197.059 173.288,196.316" stroke-width="5.810" stroke="black" fill="none" stroke-linecap="round"></path><path d="M 173.288,196.316 C 177.135,195.460 178.789,197.840 182.876,201.112" stroke-width="6.465" stroke="black" fill="none" stroke-linecap="round"></path><path d="M 182.876,201.112 C 186.779,204.236 186.236,204.989 189.268,209.106" stroke-width="5.749" stroke="black" fill="none" stroke-linecap="round"></path><path d="M 189.268,209.106 C 191.829,212.583 191.474,212.848 194.062,216.301" stroke-width="5.899" stroke="black" fill="none" stroke-linecap="round"></path><path d="M 194.062,216.301 C 196.268,219.243 196.013,219.763 198.856,221.896" stroke-width="6.160" stroke="black" fill="none" stroke-linecap="round"></path><path d="M 198.856,221.896 C 200.807,223.360 201.595,224.469 203.650,223.495" stroke-width="6.684" stroke="black" fill="none" stroke-linecap="round"></path><path d="M 203.650,223.495 C 209.186,220.872 209.043,219.315 214.037,214.702" stroke-width="6.421" stroke="black" fill="none" stroke-linecap="round"></path><path d="M 214.037,214.702 C 219.430,209.722 219.344,209.614 224.425,204.310" stroke-width="5.104" stroke="black" fill="none" stroke-linecap="round"></path><path d="M 224.425,204.310 C 228.533,200.021 228.331,199.829 232.415,195.516" stroke-width="5.238" stroke="black" fill="none" stroke-linecap="round"></path><path d="M 232.415,195.516 C 235.522,192.234 235.498,192.195 238.806,189.121" stroke-width="5.668" stroke="black" fill="none" stroke-linecap="round"></path><path d="M 238.806,189.121 C 241.091,186.999 243.982,185.506 243.601,185.124" stroke-width="6.279" stroke="black" fill="none" stroke-linecap="round"></path><path d="M 243.601,185.124 C 243.183,184.706 240.196,185.892 237.208,187.522" stroke-width="7.355" stroke="black" fill="none" stroke-linecap="round"></path><path d="M 237.208,187.522 C 227.013,193.086 226.945,193.097 217.233,199.513" stroke-width="4.500" stroke="black" fill="none" stroke-linecap="round"></path><path d="M 217.233,199.513 C 205.771,207.086 205.774,207.152 194.861,215.501" stroke-width="4.500" stroke="black" fill="none" stroke-linecap="round"></path><path d="M 194.861,215.501 C 185.400,222.740 184.990,222.423 176.484,230.690" stroke-width="4.500" stroke="black" fill="none" stroke-linecap="round"></path><path d="M 176.484,230.690 C 171.007,236.013 170.281,236.191 166.896,242.681" stroke-width="4.500" stroke="black" fill="none" stroke-linecap="round"></path><path d="M 166.896,242.681 C 165.487,245.384 165.432,247.820 166.896,249.076" stroke-width="5.695" stroke="black" fill="none" stroke-linecap="round"></path><path d="M 166.896,249.076 C 168.228,250.219 169.822,248.628 172.489,247.477" stroke-width="6.367" stroke="black" fill="none" stroke-linecap="round"></path><path d="M 172.489,247.477 C 192.993,238.635 193.542,239.590 213.238,229.091" stroke-width="4.500" stroke="black" fill="none" stroke-linecap="round"></path><path d="M 213.238,229.091 C 242.281,213.610 242.162,213.183 269.968,195.516" stroke-width="4.500" stroke="black" fill="none" stroke-linecap="round"></path><path d="M 269.968,195.516 C 296.894,178.408 296.374,177.587 322.702,159.543" stroke-width="4.500" stroke="black" fill="none" stroke-linecap="round"></path><path d="M 322.702,159.543 C 347.111,142.813 347.098,142.795 371.441,125.968" stroke-width="4.500" stroke="black" fill="none" stroke-linecap="round"></path><path d="M 371.441,125.968 C 391.043,112.418 391.364,112.846 410.592,98.788" stroke-width="4.500" stroke="black" fill="none" stroke-linecap="round"></path><path d="M 410.592,98.788 C 422.525,90.063 422.755,90.157 433.763,80.402" stroke-width="4.500" stroke="black" fill="none" stroke-linecap="round"></path><path d="M 433.763,80.402 C 436.737,77.766 439.664,76.538 438.557,74.007" stroke-width="4.599" stroke="black" fill="none" stroke-linecap="round"></path><path d="M 438.557,74.007 C 436.867,70.143 433.854,68.448 428.170,67.612" stroke-width="5.030" stroke="black" fill="none" stroke-linecap="round"></path><path d="M 428.170,67.612 C 420.271,66.449 419.679,68.264 411.391,70.010" stroke-width="4.652" stroke="black" fill="none" stroke-linecap="round"></path><path d="M 411.391,70.010 C 381.726,76.258 381.574,75.850 352.265,83.600" stroke-width="4.500" stroke="black" fill="none" stroke-linecap="round"></path><path d="M 352.265,83.600 C 325.643,90.639 325.931,91.706 299.531,99.588" stroke-width="4.500" stroke="black" fill="none" stroke-linecap="round"></path><path d="M 299.531,99.588 C 276.393,106.495 276.542,107.103 253.189,113.178" stroke-width="4.500" stroke="black" fill="none" stroke-linecap="round"></path><path d="M 253.189,113.178 C 236.592,117.495 236.486,117.210 219.630,120.372" stroke-width="4.500" stroke="black" fill="none" stroke-linecap="round"></path><path d="M 219.630,120.372 C 210.918,122.007 210.707,122.770 202.052,122.770" stroke-width="4.500" stroke="black" fill="none" stroke-linecap="round"></path><path d="M 202.052,122.770 C 198.722,122.770 194.868,120.848 195.660,120.372" stroke-width="5.275" stroke="black" fill="none" stroke-linecap="round"></path><path d="M 195.660,120.372 C 196.866,119.649 201.621,118.316 206.047,120.372" stroke-width="6.645" stroke="black" fill="none" stroke-linecap="round"></path><path d="M 206.047,120.372 C 212.807,123.512 213.904,124.251 218.032,130.764" stroke-width="5.223" stroke="black" fill="none" stroke-linecap="round"></path><path d="M 218.032,130.764 C 224.291,140.639 223.927,141.563 226.822,153.148" stroke-width="4.500" stroke="black" fill="none" stroke-linecap="round"></path><path d="M 226.822,153.148 C 230.319,167.144 229.040,167.510 230.816,181.926" stroke-width="4.500" stroke="black" fill="none" stroke-linecap="round"></path><path d="M 230.816,181.926 C 232.636,196.688 231.739,196.821 234.013,211.504" stroke-width="4.500" stroke="black" fill="none" stroke-linecap="round"></path><path d="M 234.013,211.504 C 236.133,225.200 235.640,225.458 239.605,238.684" stroke-width="4.500" stroke="black" fill="none" stroke-linecap="round"></path><path d="M 239.605,238.684 C 242.831,249.440 242.382,250.134 248.395,259.468" stroke-width="4.500" stroke="black" fill="none" stroke-linecap="round"></path><path d="M 248.395,259.468 C 253.968,268.121 254.491,268.538 262.777,274.657" stroke-width="4.500" stroke="black" fill="none" stroke-linecap="round"></path><path d="M 262.777,274.657 C 271.270,280.929 272.365,279.454 281.953,284.250" stroke-width="4.500" stroke="black" fill="none" stroke-linecap="round"></path><circle r="3" cx="336.28466796875" cy="249.07620239257812" fill="black"></circle></svg>