<svg xmlns="http://www.w3.org/2000/svg" xmlns:xlink="http://www.w3.org/1999/xlink" viewBox="0 0 576 416" width="576" height="416"><path d="M 14.287,349.046 C 12.689,355.041 12.389,354.978 11.091,361.037" stroke-width="8.108" stroke="black" fill="none" stroke-linecap="round"></path><path d="M 11.091,361.037 C 9.992,366.170 10.052,366.207 9.493,371.429" stroke-width="6.139" stroke="black" fill="none" stroke-linecap="round"></path><path d="M 9.493,371.429 C 8.854,377.398 9.312,377.447 8.694,383.420" stroke-width="5.506" stroke="black" fill="none" stroke-linecap="round"></path><path d="M 8.694,383.420 C 8.113,389.039 7.658,388.992 7.096,394.612" stroke-width="5.341" stroke="black" fill="none" stroke-linecap="round"></path><path d="M 7.096,394.612 C 6.459,400.983 6.709,401.008 6.297,407.402" stroke-width="5.193" stroke="black" fill="none" stroke-linecap="round"></path><path d="M 6.297,407.402 C 5.910,413.399 5.997,413.407 5.498,419.393" stroke-width="5.248" stroke="black" fill="none" stroke-linecap="round"></path><path d="M 5.498,419.393 C 5.198,422.999 5.148,422.997 4.699,426.588" stroke-width="5.878" stroke="black" fill="none" stroke-linecap="round"></path><path d="M 4.699,426.588 C 4.349,429.392 4.172,429.371 3.900,432.184" stroke-width="6.398" stroke="black" fill="none" stroke-linecap="round"></path><path d="M 3.900,432.184 C 2.974,441.762 3.040,441.772 2.302,451.369" stroke-width="4.582" stroke="black" fill="none" stroke-linecap="round"></path><path d="M 2.302,451.369 C 1.842,457.360 1.717,457.359 1.503,463.360" stroke-width="4.959" stroke="black" fill="none" stroke-linecap="round"></path><path d="M 1.503,463.360 C 1.318,468.550 1.711,468.565 1.503,473.753" stroke-width="5.297" stroke="black" fill="none" stroke-linecap="round"></path><path d="M 1.503,473.753 C 1.311,478.558 1.104,478.549 0.704,483.346" stroke-width="5.518" stroke="black" fill="none" stroke-linecap="round"></path><path d="M 0.704,483.346 C 0.305,488.142 0.114,488.134 -0.095,492.938" stroke-width="5.676" stroke="black" fill="none" stroke-linecap="round"></path><path d="M -0.095,492.938 C -0.286,497.327 -0.095,497.335 -0.095,501.732" stroke-width="5.853" stroke="black" fill="none" stroke-linecap="round"></path><path d="M -0.095,501.732 C -0.095,505.729 -0.095,505.729 -0.095,509.726" stroke-width="6.038" stroke="black" fill="none" stroke-linecap="round"></path><path d="M -0.095,509.726 C -0.095,513.323 -0.095,513.323 -0.095,516.921" stroke-width="6.235" stroke="black" fill="none" stroke-linecap="round"></path><path d="M -0.095,516.921 C -0.095,524.115 -0.095,524.115 -0.095,531.310" stroke-width="6.258" stroke="black" fill="none" stroke-linecap="round"></path><path d="M -0.095,531.310 C -0.095,534.108 -0.250,534.115 -0.095,536.906" stroke-width="6.608" stroke="black" fill="none" stroke-linecap="round"></path><path d="M -0.095,536.906 C 0.150,541.309 0.460,541.295 0.704,545.699" stroke-width="6.975" stroke="black" fill="none" stroke-linecap="round"></path><path d="M 0.704,545.699 C 0.859,548.490 0.505,548.511 0.704,551.295" stroke-width="7.441" stroke="black" fill="none" stroke-linecap="round"></path><path d="M 433.763,119.617 C 435.361,126.012 435.907,125.919 436.959,132.407" stroke-width="7.379" stroke="black" fill="none" stroke-linecap="round"></path><path d="M 436.959,132.407 C 438.304,140.707 438.032,140.788 438.557,149.195" stroke-width="4.990" stroke="black" fill="none" stroke-linecap="round"></path><path d="M 438.557,149.195 C 438.831,153.579 438.911,153.612 438.557,157.988" stroke-width="5.536" stroke="black" fill="none" stroke-linecap="round"></path><path d="M 438.557,157.988 C 437.713,168.401 438.759,168.718 436.160,178.773" stroke-width="4.500" stroke="black" fill="none" stroke-linecap="round"></path><path d="M 436.160,178.773 C 432.766,191.901 433.121,192.468 426.572,204.354" stroke-width="4.500" stroke="black" fill="none" stroke-linecap="round"></path><path d="M 426.572,204.354 C 415.943,223.644 416.814,225.095 401.803,241.126" stroke-width="4.500" stroke="black" fill="none" stroke-linecap="round"></path><path d="M 401.803,241.126 C 381.258,263.067 378.632,260.712 355.461,280.297" stroke-width="4.500" stroke="black" fill="none" stroke-linecap="round"></path><path d="M 333.089,114.821 C 335.885,122.815 336.640,122.638 338.682,130.809" stroke-width="7.785" stroke="black" fill="none" stroke-linecap="round"></path><path d="M 338.682,130.809 C 340.235,137.027 340.280,137.192 340.280,143.599" stroke-width="5.705" stroke="black" fill="none" stroke-linecap="round"></path><path d="M 340.280,143.599 C 340.280,151.981 339.794,152.042 338.682,160.387" stroke-width="4.819" stroke="black" fill="none" stroke-linecap="round"></path><path d="M 338.682,160.387 C 338.196,164.033 338.008,164.015 337.084,167.581" stroke-width="5.686" stroke="black" fill="none" stroke-linecap="round"></path><path d="M 337.084,167.581 C 335.211,174.807 335.384,174.873 333.089,181.970" stroke-width="5.029" stroke="black" fill="none" stroke-linecap="round"></path><path d="M 333.089,181.970 C 330.989,188.463 331.241,188.639 328.295,194.761" stroke-width="5.002" stroke="black" fill="none" stroke-linecap="round"></path><path d="M 328.295,194.761 C 326.047,199.431 325.981,199.545 322.702,203.554" stroke-width="5.471" stroke="black" fill="none" stroke-linecap="round"></path><path d="M 322.702,203.554 C 318.790,208.338 319.092,209.109 313.913,212.348" stroke-width="5.277" stroke="black" fill="none" stroke-linecap="round"></path><path d="M 313.913,212.348 C 306.308,217.103 305.854,216.968 297.134,219.542" stroke-width="4.500" stroke="black" fill="none" stroke-linecap="round"></path><path d="M 297.134,219.542 C 281.485,224.162 281.295,225.052 265.174,226.737" stroke-width="4.500" stroke="black" fill="none" stroke-linecap="round"></path><path d="M 265.174,226.737 C 254.528,227.850 254.293,226.607 243.601,225.138" stroke-width="4.500" stroke="black" fill="none" stroke-linecap="round"></path><path d="M 243.601,225.138 C 233.918,223.809 233.944,223.427 224.425,221.141" stroke-width="4.500" stroke="black" fill="none" stroke-linecap="round"></path><path d="M 224.425,221.141 C 213.969,218.631 214.179,217.611 203.650,215.545" stroke-width="4.500" stroke="black" fill="none" stroke-linecap="round"></path><path d="M 203.650,215.545 C 193.805,213.614 193.657,213.147 183.675,213.147" stroke-width="4.500" stroke="black" fill="none" stroke-linecap="round"></path><path d="M 183.675,213.147 C 174.481,213.147 174.146,213.040 165.298,215.545" stroke-width="4.500" stroke="black" fill="none" stroke-linecap="round"></path><path d="M 165.298,215.545 C 152.973,219.036 152.604,219.020 141.328,225.138" stroke-width="4.500" stroke="black" fill="none" stroke-linecap="round"></path><path d="M 141.328,225.138 C 129.034,231.810 128.877,232.117 118.157,241.126" stroke-width="4.500" stroke="black" fill="none" stroke-linecap="round"></path><path d="M 118.157,241.126 C 108.902,248.905 108.721,249.140 101.378,258.713" stroke-width="4.500" stroke="black" fill="none" stroke-linecap="round"></path><path d="M 101.378,258.713 C 95.538,266.327 94.778,266.534 91.790,275.501" stroke-width="4.500" stroke="black" fill="none" stroke-linecap="round"></path><path d="M 91.790,275.501 C 89.185,283.322 89.053,284.591 90.192,292.288" stroke-width="4.500" stroke="black" fill="none" stroke-linecap="round"></path><path d="M 90.192,292.288 C 90.651,295.383 91.934,295.910 94.986,297.085" stroke-width="5.638" stroke="black" fill="none" stroke-linecap="round"></path><path d="M 94.986,297.085 C 102.321,299.907 102.966,300.704 110.966,300.282" stroke-width="4.865" stroke="black" fill="none" stroke-linecap="round"></path><path d="M 110.966,300.282 C 125.737,299.504 126.277,299.179 140.529,294.686" stroke-width="4.500" stroke="black" fill="none" stroke-linecap="round"></path><path d="M 140.529,294.686 C 155.441,289.986 155.520,289.370 169.293,281.896" stroke-width="4.500" stroke="black" fill="none" stroke-linecap="round"></path><path d="M 169.293,281.896 C 179.090,276.580 179.345,276.394 187.670,269.105" stroke-width="4.500" stroke="black" fill="none" stroke-linecap="round"></path><path d="M 187.670,269.105 C 192.129,265.203 193.461,264.275 194.861,259.513" stroke-width="4.702" stroke="black" fill="none" stroke-linecap="round"></path><path d="M 194.861,259.513 C 195.459,257.480 193.973,255.076 191.665,255.516" stroke-width="6.008" stroke="black" fill="none" stroke-linecap="round"></path><path d="M 191.665,255.516 C 177.194,258.273 176.022,259.597 161.303,265.908" stroke-width="5.024" stroke="black" fill="none" stroke-linecap="round"></path><path d="M 161.303,265.908 C 139.668,275.185 139.754,275.595 118.956,286.692" stroke-width="4.500" stroke="black" fill="none" stroke-linecap="round"></path><path d="M 118.956,286.692 C 97.806,297.978 97.931,298.269 77.408,310.674" stroke-width="4.500" stroke="black" fill="none" stroke-linecap="round"></path><path d="M 77.408,310.674 C 59.579,321.452 59.920,322.010 42.252,333.058" stroke-width="4.500" stroke="black" fill="none" stroke-linecap="round"></path><path d="M 42.252,333.058 C 27.960,341.995 28.074,342.208 13.488,350.645" stroke-width="4.500" stroke="black" fill="none" stroke-linecap="round"></path><path d="M 13.488,350.645 C 2.506,356.997 2.302,356.640 -8.884,362.636" stroke-width="4.500" stroke="black" fill="none" stroke-linecap="round"></path><path d="M 226.022,346.648 C 236.410,337.454 235.351,335.987 246.797,328.261" stroke-width="6.154" stroke="black" fill="none" stroke-linecap="round"></path><path d="M 246.797,328.261 C 268.510,313.604 269.568,315.071 292.340,301.881" stroke-width="4.500" stroke="black" fill="none" stroke-linecap="round"></path></svg>