<svg xmlns="http://www.w3.org/2000/svg" xmlns:xlink="http://www.w3.org/1999/xlink" viewBox="0 0 576 416" width="576" height="416"><path d="M 416.185,159.207 C 416.984,165.203 416.897,165.216 417.783,171.198" stroke-width="8.618" stroke="black" fill="none" stroke-linecap="round"></path><path d="M 417.783,171.198 C 418.495,176.008 418.500,176.009 419.381,180.791" stroke-width="6.255" stroke="black" fill="none" stroke-linecap="round"></path><path d="M 419.381,180.791 C 421.297,191.198 421.525,191.158 423.376,201.576" stroke-width="5.742" stroke="black" fill="none" stroke-linecap="round"></path><path d="M 423.376,201.576 C 424.721,209.144 424.925,209.127 425.773,216.764" stroke-width="4.991" stroke="black" fill="none" stroke-linecap="round"></path><path d="M 425.773,216.764 C 427.721,234.308 427.371,234.351 428.969,251.938" stroke-width="4.500" stroke="black" fill="none" stroke-linecap="round"></path><path d="M 416.984,157.609 C 416.984,163.604 416.762,163.613 416.984,169.600" stroke-width="8.715" stroke="black" fill="none" stroke-linecap="round"></path><path d="M 416.984,169.600 C 417.162,174.405 417.210,174.417 417.783,179.192" stroke-width="7.486" stroke="black" fill="none" stroke-linecap="round"></path><path d="M 417.783,179.192 C 418.408,184.409 418.638,184.381 419.381,189.585" stroke-width="7.011" stroke="black" fill="none" stroke-linecap="round"></path><path d="M 419.381,189.585 C 419.836,192.774 419.780,192.782 420.180,195.980" stroke-width="6.664" stroke="black" fill="none" stroke-linecap="round"></path><path d="M 420.180,195.980 C 420.579,199.178 420.839,199.161 420.979,202.375" stroke-width="6.567" stroke="black" fill="none" stroke-linecap="round"></path><path d="M 420.979,202.375 C 421.239,208.354 421.218,208.383 420.979,214.366" stroke-width="6.627" stroke="black" fill="none" stroke-linecap="round"></path><path d="M 420.979,214.366 C 420.819,218.375 420.543,218.360 420.180,222.360" stroke-width="6.072" stroke="black" fill="none" stroke-linecap="round"></path><path d="M 420.180,222.360 C 419.744,227.153 420.202,227.231 419.381,231.953" stroke-width="5.840" stroke="black" fill="none" stroke-linecap="round"></path><path d="M 419.381,231.953 C 418.604,236.424 417.906,236.289 416.984,240.746" stroke-width="5.853" stroke="black" fill="none" stroke-linecap="round"></path><path d="M 416.984,240.746 C 415.509,247.880 416.547,248.164 414.587,255.136" stroke-width="5.298" stroke="black" fill="none" stroke-linecap="round"></path><path d="M 414.587,255.136 C 412.951,260.955 412.146,260.713 409.793,266.327" stroke-width="5.260" stroke="black" fill="none" stroke-linecap="round"></path><path d="M 409.793,266.327 C 406.952,273.104 407.398,273.317 404.200,279.917" stroke-width="5.043" stroke="black" fill="none" stroke-linecap="round"></path><path d="M 404.200,279.917 C 401.006,286.507 400.691,286.363 397.009,292.708" stroke-width="4.794" stroke="black" fill="none" stroke-linecap="round"></path><path d="M 397.009,292.708 C 393.500,298.754 393.413,298.703 389.818,304.699" stroke-width="4.894" stroke="black" fill="none" stroke-linecap="round"></path><path d="M 344.275,165.603 C 346.272,172.797 347.092,172.686 348.270,179.992" stroke-width="8.454" stroke="black" fill="none" stroke-linecap="round"></path><path d="M 348.270,179.992 C 349.089,185.076 348.826,185.234 348.270,190.384" stroke-width="6.219" stroke="black" fill="none" stroke-linecap="round"></path><path d="M 348.270,190.384 C 347.228,200.023 348.376,200.521 345.074,209.570" stroke-width="4.760" stroke="black" fill="none" stroke-linecap="round"></path><path d="M 345.074,209.570 C 339.187,225.702 337.642,225.239 329.893,240.746" stroke-width="4.500" stroke="black" fill="none" stroke-linecap="round"></path><path d="M 329.893,240.746 C 326.856,246.823 328.627,248.591 323.501,252.738" stroke-width="4.500" stroke="black" fill="none" stroke-linecap="round"></path><path d="M 323.501,252.738 C 309.851,263.779 308.329,262.829 292.340,271.124" stroke-width="4.500" stroke="black" fill="none" stroke-linecap="round"></path><path d="M 292.340,271.124 C 286.756,274.020 286.508,273.825 280.355,275.121" stroke-width="4.500" stroke="black" fill="none" stroke-linecap="round"></path><path d="M 280.355,275.121 C 271.327,277.022 271.187,277.021 261.978,277.519" stroke-width="4.500" stroke="black" fill="none" stroke-linecap="round"></path><path d="M 261.978,277.519 C 256.405,277.820 255.914,278.494 250.792,276.720" stroke-width="5.029" stroke="black" fill="none" stroke-linecap="round"></path><path d="M 250.792,276.720 C 245.527,274.896 245.932,273.616 241.203,270.324" stroke-width="6.076" stroke="black" fill="none" stroke-linecap="round"></path><path d="M 241.203,270.324 C 236.744,267.220 236.809,267.127 232.415,263.929" stroke-width="5.743" stroke="black" fill="none" stroke-linecap="round"></path><path d="M 232.415,263.929 C 228.020,260.732 228.143,260.547 223.625,257.534" stroke-width="5.563" stroke="black" fill="none" stroke-linecap="round"></path><path d="M 223.625,257.534 C 218.555,254.152 218.554,254.117 213.238,251.139" stroke-width="5.333" stroke="black" fill="none" stroke-linecap="round"></path><path d="M 213.238,251.139 C 208.567,248.521 208.610,248.327 203.650,246.342" stroke-width="5.545" stroke="black" fill="none" stroke-linecap="round"></path><path d="M 203.650,246.342 C 198.623,244.330 198.548,244.294 193.263,243.145" stroke-width="5.414" stroke="black" fill="none" stroke-linecap="round"></path><path d="M 193.263,243.145 C 189.359,242.296 189.196,242.100 185.273,242.345" stroke-width="5.885" stroke="black" fill="none" stroke-linecap="round"></path><path d="M 185.273,242.345 C 182.804,242.500 182.648,242.688 180.479,243.944" stroke-width="6.584" stroke="black" fill="none" stroke-linecap="round"></path><path d="M 180.479,243.944 C 175.057,247.085 174.688,246.869 170.092,251.139" stroke-width="5.520" stroke="black" fill="none" stroke-linecap="round"></path><path d="M 170.092,251.139 C 163.502,257.262 163.558,257.530 158.107,264.729" stroke-width="4.651" stroke="black" fill="none" stroke-linecap="round"></path><path d="M 158.107,264.729 C 153.571,270.720 153.665,270.893 150.117,277.519" stroke-width="4.820" stroke="black" fill="none" stroke-linecap="round"></path><path d="M 150.117,277.519 C 147.673,282.085 147.418,282.142 146.122,287.112" stroke-width="5.249" stroke="black" fill="none" stroke-linecap="round"></path><path d="M 146.122,287.112 C 145.021,291.335 144.598,291.794 145.323,295.905" stroke-width="5.703" stroke="black" fill="none" stroke-linecap="round"></path><path d="M 145.323,295.905 C 145.797,298.589 146.327,298.890 148.519,300.702" stroke-width="6.380" stroke="black" fill="none" stroke-linecap="round"></path><path d="M 148.519,300.702 C 155.516,306.484 155.213,308.263 163.700,311.094" stroke-width="4.785" stroke="black" fill="none" stroke-linecap="round"></path><path d="M 163.700,311.094 C 175.588,315.058 176.487,314.472 189.268,314.292" stroke-width="4.500" stroke="black" fill="none" stroke-linecap="round"></path><path d="M 189.268,314.292 C 204.852,314.072 205.135,313.574 220.429,310.295" stroke-width="4.500" stroke="black" fill="none" stroke-linecap="round"></path><path d="M 220.429,310.295 C 233.100,307.578 233.566,307.748 245.199,302.301" stroke-width="4.500" stroke="black" fill="none" stroke-linecap="round"></path><path d="M 245.199,302.301 C 252.342,298.955 252.790,298.423 257.983,292.708" stroke-width="4.500" stroke="black" fill="none" stroke-linecap="round"></path><path d="M 257.983,292.708 C 260.780,289.629 263.265,286.503 261.179,284.714" stroke-width="5.342" stroke="black" fill="none" stroke-linecap="round"></path><path d="M 261.179,284.714 C 257.672,281.706 253.988,282.955 246.797,283.115" stroke-width="5.987" stroke="black" fill="none" stroke-linecap="round"></path><path d="M 246.797,283.115 C 236.010,283.355 235.939,283.849 225.223,285.513" stroke-width="4.614" stroke="black" fill="none" stroke-linecap="round"></path><path d="M 225.223,285.513 C 212.768,287.447 212.779,287.638 200.454,290.310" stroke-width="4.500" stroke="black" fill="none" stroke-linecap="round"></path><path d="M 200.454,290.310 C 188.809,292.834 188.694,292.523 177.283,295.905" stroke-width="4.500" stroke="black" fill="none" stroke-linecap="round"></path><path d="M 177.283,295.905 C 167.121,298.918 167.041,298.927 157.308,303.100" stroke-width="4.500" stroke="black" fill="none" stroke-linecap="round"></path><path d="M 157.308,303.100 C 150.262,306.121 150.035,306.011 143.725,310.295" stroke-width="4.500" stroke="black" fill="none" stroke-linecap="round"></path><path d="M 143.725,310.295 C 138.849,313.605 139.128,314.095 134.936,318.289" stroke-width="4.999" stroke="black" fill="none" stroke-linecap="round"></path><path d="M 134.936,318.289 C 132.337,320.890 132.096,320.780 130.142,323.884" stroke-width="5.895" stroke="black" fill="none" stroke-linecap="round"></path><path d="M 130.142,323.884 C 125.305,331.572 125.968,332.007 121.353,339.872" stroke-width="4.601" stroke="black" fill="none" stroke-linecap="round"></path><path d="M 121.353,339.872 C 115.181,350.393 115.247,350.451 108.569,360.657" stroke-width="4.500" stroke="black" fill="none" stroke-linecap="round"></path><path d="M 108.569,360.657 C 100.864,372.434 100.586,372.253 92.589,383.840" stroke-width="4.500" stroke="black" fill="none" stroke-linecap="round"></path><path d="M 92.589,383.840 C 89.000,389.040 88.994,389.036 85.398,394.232" stroke-width="4.500" stroke="black" fill="none" stroke-linecap="round"></path><path d="M 273.963,356.660 C 285.548,347.467 284.404,345.632 297.134,338.274" stroke-width="5.930" stroke="black" fill="none" stroke-linecap="round"></path><path d="M 297.134,338.274 C 320.359,324.848 320.738,324.651 345.873,315.091" stroke-width="4.500" stroke="black" fill="none" stroke-linecap="round"></path><path d="M 345.873,315.091 C 369.078,306.265 369.843,308.296 393.813,301.501" stroke-width="4.500" stroke="black" fill="none" stroke-linecap="round"></path></svg>