<svg xmlns="http://www.w3.org/2000/svg" xmlns:xlink="http://www.w3.org/1999/xlink" viewBox="0 0 576 416" width="576" height="416"><path d="M 337.084,128.810 C 339.481,125.213 340.356,125.532 341.878,121.616" stroke-width="7.842" stroke="black" fill="none" stroke-linecap="round"></path><path d="M 341.878,121.616 C 343.152,118.337 344.006,116.859 342.677,114.421" stroke-width="7.514" stroke="black" fill="none" stroke-linecap="round"></path><path d="M 342.677,114.421 C 341.609,112.462 339.957,113.167 337.084,112.822" stroke-width="6.929" stroke="black" fill="none" stroke-linecap="round"></path><path d="M 337.084,112.822 C 329.969,111.968 329.866,111.601 322.702,112.023" stroke-width="5.348" stroke="black" fill="none" stroke-linecap="round"></path><path d="M 322.702,112.023 C 309.491,112.800 309.323,112.622 296.335,115.221" stroke-width="4.500" stroke="black" fill="none" stroke-linecap="round"></path><path d="M 296.335,115.221 C 281.358,118.217 281.443,118.865 266.772,123.215" stroke-width="4.500" stroke="black" fill="none" stroke-linecap="round"></path><path d="M 266.772,123.215 C 259.870,125.260 259.570,124.748 253.189,128.011" stroke-width="4.500" stroke="black" fill="none" stroke-linecap="round"></path><path d="M 253.189,128.011 C 241.592,133.941 241.462,134.057 230.816,141.601" stroke-width="4.500" stroke="black" fill="none" stroke-linecap="round"></path><path d="M 230.816,141.601 C 222.286,147.647 221.428,147.276 214.836,155.191" stroke-width="4.500" stroke="black" fill="none" stroke-linecap="round"></path><path d="M 214.836,155.191 C 209.443,161.666 209.383,162.343 206.846,170.379" stroke-width="4.500" stroke="black" fill="none" stroke-linecap="round"></path><path d="M 206.846,170.379 C 204.589,177.531 204.498,178.065 205.248,185.568" stroke-width="4.509" stroke="black" fill="none" stroke-linecap="round"></path><path d="M 205.248,185.568 C 206.496,198.050 207.944,197.982 210.841,210.350" stroke-width="4.500" stroke="black" fill="none" stroke-linecap="round"></path><path d="M 210.841,210.350 C 213.937,223.563 214.270,223.488 217.233,236.730" stroke-width="4.500" stroke="black" fill="none" stroke-linecap="round"></path><path d="M 217.233,236.730 C 220.263,250.268 220.721,250.216 222.826,263.910" stroke-width="4.500" stroke="black" fill="none" stroke-linecap="round"></path><path d="M 222.826,263.910 C 224.716,276.196 225.663,276.383 225.223,288.691" stroke-width="4.500" stroke="black" fill="none" stroke-linecap="round"></path><path d="M 225.223,288.691 C 224.864,298.766 224.903,299.378 221.228,308.676" stroke-width="4.500" stroke="black" fill="none" stroke-linecap="round"></path><path d="M 221.228,308.676 C 218.111,316.565 217.605,317.098 211.640,323.066" stroke-width="4.500" stroke="black" fill="none" stroke-linecap="round"></path><path d="M 211.640,323.066 C 206.819,327.890 206.022,327.464 199.655,330.260" stroke-width="4.855" stroke="black" fill="none" stroke-linecap="round"></path><path d="M 199.655,330.260 C 189.643,334.658 189.439,334.437 178.881,337.455" stroke-width="4.500" stroke="black" fill="none" stroke-linecap="round"></path><path d="M 178.881,337.455 C 164.270,341.631 164.100,341.052 149.318,344.649" stroke-width="4.500" stroke="black" fill="none" stroke-linecap="round"></path><path d="M 149.318,344.649 C 134.537,348.247 134.584,348.453 119.755,351.844" stroke-width="4.500" stroke="black" fill="none" stroke-linecap="round"></path><path d="M 119.755,351.844 C 106.619,354.848 106.666,355.226 93.388,357.440" stroke-width="4.500" stroke="black" fill="none" stroke-linecap="round"></path><path d="M 93.388,357.440 C 82.696,359.223 82.613,358.758 71.815,359.838" stroke-width="4.500" stroke="black" fill="none" stroke-linecap="round"></path><path d="M 71.815,359.838 C 66.633,360.357 66.622,360.238 61.428,360.637" stroke-width="4.880" stroke="black" fill="none" stroke-linecap="round"></path><path d="M 349.069,128.810 C 354.662,126.812 354.537,126.387 360.255,124.813" stroke-width="6.684" stroke="black" fill="none" stroke-linecap="round"></path><path d="M 360.255,124.813 C 370.517,121.990 370.521,121.359 381.029,120.017" stroke-width="4.656" stroke="black" fill="none" stroke-linecap="round"></path><path d="M 381.029,120.017 C 389.298,118.961 389.766,118.676 397.808,120.017" stroke-width="4.567" stroke="black" fill="none" stroke-linecap="round"></path><path d="M 397.808,120.017 C 401.751,120.675 402.822,120.928 404.999,124.014" stroke-width="5.521" stroke="black" fill="none" stroke-linecap="round"></path><path d="M 404.999,124.014 C 407.616,127.723 408.391,128.959 407.396,133.607" stroke-width="5.639" stroke="black" fill="none" stroke-linecap="round"></path><path d="M 407.396,133.607 C 404.796,145.747 405.341,147.360 397.808,157.589" stroke-width="4.500" stroke="black" fill="none" stroke-linecap="round"></path><path d="M 397.808,157.589 C 382.969,177.737 381.880,177.900 362.652,194.362" stroke-width="4.500" stroke="black" fill="none" stroke-linecap="round"></path><path d="M 362.652,194.362 C 343.129,211.075 342.017,209.989 320.305,223.939" stroke-width="4.500" stroke="black" fill="none" stroke-linecap="round"></path><path d="M 320.305,223.939 C 298.471,237.968 298.028,237.295 275.561,250.320" stroke-width="4.500" stroke="black" fill="none" stroke-linecap="round"></path><path d="M 275.561,250.320 C 255.282,262.076 255.005,261.605 234.811,273.502" stroke-width="4.500" stroke="black" fill="none" stroke-linecap="round"></path><path d="M 234.811,273.502 C 219.050,282.789 219.479,283.533 203.650,292.688" stroke-width="4.500" stroke="black" fill="none" stroke-linecap="round"></path><path d="M 203.650,292.688 C 193.911,298.322 193.742,298.045 183.675,303.080" stroke-width="4.500" stroke="black" fill="none" stroke-linecap="round"></path><path d="M 183.675,303.080 C 178.561,305.639 175.773,307.601 173.288,307.877" stroke-width="4.606" stroke="black" fill="none" stroke-linecap="round"></path><path d="M 173.288,307.877 C 172.177,308.000 174.135,304.528 176.484,303.880" stroke-width="6.718" stroke="black" fill="none" stroke-linecap="round"></path><path d="M 176.484,303.880 C 185.720,301.331 186.541,301.077 196.459,301.482" stroke-width="4.663" stroke="black" fill="none" stroke-linecap="round"></path><path d="M 196.459,301.482 C 206.116,301.876 206.913,301.464 215.635,305.479" stroke-width="4.500" stroke="black" fill="none" stroke-linecap="round"></path><path d="M 215.635,305.479 C 226.888,310.657 228.007,310.846 236.410,319.868" stroke-width="4.500" stroke="black" fill="none" stroke-linecap="round"></path><path d="M 236.410,319.868 C 244.387,328.433 244.360,329.552 248.395,340.652" stroke-width="4.500" stroke="black" fill="none" stroke-linecap="round"></path><path d="M 248.395,340.652 C 252.350,351.536 251.162,352.164 252.390,363.835" stroke-width="4.500" stroke="black" fill="none" stroke-linecap="round"></path><path d="M 252.390,363.835 C 253.559,374.947 253.189,375.038 253.189,386.218" stroke-width="4.500" stroke="black" fill="none" stroke-linecap="round"></path><path d="M 253.189,386.218 C 253.189,390.626 253.343,390.717 252.390,395.012" stroke-width="5.117" stroke="black" fill="none" stroke-linecap="round"></path><path d="M 252.390,395.012 C 250.147,405.106 250.068,405.178 246.797,414.997" stroke-width="4.500" stroke="black" fill="none" stroke-linecap="round"></path><path d="M 246.797,414.997 C 245.274,419.567 245.297,419.689 242.802,423.790" stroke-width="5.177" stroke="black" fill="none" stroke-linecap="round"></path><path d="M 242.802,423.790 C 239.704,428.882 239.206,428.587 235.611,433.383" stroke-width="6.129" stroke="black" fill="none" stroke-linecap="round"></path></svg>