<svg xmlns="http://www.w3.org/2000/svg" xmlns:xlink="http://www.w3.org/1999/xlink" viewBox="0 0 576 416" width="576" height="416"><path d="M 338.682,225.926 C 334.687,229.923 334.687,229.923 330.692,233.920" stroke-width="8.476" stroke="black" fill="none" stroke-linecap="round"></path><path d="M 330.692,233.920 C 328.295,236.318 328.605,238.536 325.898,238.716" stroke-width="6.935" stroke="black" fill="none" stroke-linecap="round"></path><path d="M 325.898,238.716 C 322.613,238.935 319.498,238.226 318.707,234.719" stroke-width="7.472" stroke="black" fill="none" stroke-linecap="round"></path><path d="M 318.707,234.719 C 316.701,225.835 318.640,224.168 320.305,213.935" stroke-width="5.986" stroke="black" fill="none" stroke-linecap="round"></path><path d="M 320.305,213.935 C 321.436,206.981 321.361,206.677 324.300,200.345" stroke-width="5.083" stroke="black" fill="none" stroke-linecap="round"></path><path d="M 324.300,200.345 C 326.555,195.485 326.623,194.718 330.692,191.551" stroke-width="5.361" stroke="black" fill="none" stroke-linecap="round"></path><path d="M 330.692,191.551 C 333.814,189.122 335.288,188.304 338.682,189.153" stroke-width="5.817" stroke="black" fill="none" stroke-linecap="round"></path><path d="M 338.682,189.153 C 341.680,189.903 342.926,191.268 343.476,194.749" stroke-width="6.840" stroke="black" fill="none" stroke-linecap="round"></path><path d="M 343.476,194.749 C 345.323,206.457 345.380,207.403 343.476,219.531" stroke-width="4.500" stroke="black" fill="none" stroke-linecap="round"></path><path d="M 343.476,219.531 C 340.986,235.382 340.116,235.496 334.687,250.707" stroke-width="4.500" stroke="black" fill="none" stroke-linecap="round"></path><path d="M 334.687,250.707 C 330.129,263.475 329.999,263.606 323.501,275.489" stroke-width="4.500" stroke="black" fill="none" stroke-linecap="round"></path><path d="M 323.501,275.489 C 318.414,284.790 318.083,284.791 311.516,293.076" stroke-width="4.500" stroke="black" fill="none" stroke-linecap="round"></path><path d="M 311.516,293.076 C 308.894,296.383 308.698,296.436 305.124,298.671" stroke-width="5.113" stroke="black" fill="none" stroke-linecap="round"></path><path d="M 305.124,298.671 C 299.110,302.432 299.112,303.937 292.340,305.067" stroke-width="4.954" stroke="black" fill="none" stroke-linecap="round"></path><path d="M 292.340,305.067 C 284.730,306.336 283.414,306.082 276.360,303.468" stroke-width="4.814" stroke="black" fill="none" stroke-linecap="round"></path><path d="M 276.360,303.468 C 272.628,302.085 273.370,300.422 270.767,297.073" stroke-width="6.268" stroke="black" fill="none" stroke-linecap="round"></path><path d="M 270.767,297.073 C 267.777,293.227 267.936,293.099 265.174,289.079" stroke-width="5.778" stroke="black" fill="none" stroke-linecap="round"></path><path d="M 265.174,289.079 C 263.542,286.704 264.241,285.226 261.978,284.282" stroke-width="6.408" stroke="black" fill="none" stroke-linecap="round"></path><path d="M 261.978,284.282 C 259.447,283.227 257.287,282.717 255.586,285.082" stroke-width="7.450" stroke="black" fill="none" stroke-linecap="round"></path><path d="M 255.586,285.082 C 250.096,292.710 251.606,294.681 247.596,304.267" stroke-width="4.565" stroke="black" fill="none" stroke-linecap="round"></path><path d="M 247.596,304.267 C 244.415,311.868 244.448,311.882 241.203,319.456" stroke-width="4.568" stroke="black" fill="none" stroke-linecap="round"></path><path d="M 241.203,319.456 C 239.654,323.074 239.766,323.131 238.008,326.651" stroke-width="5.745" stroke="black" fill="none" stroke-linecap="round"></path><path d="M 238.008,326.651 C 233.374,335.921 234.971,337.546 228.419,345.037" stroke-width="4.500" stroke="black" fill="none" stroke-linecap="round"></path><path d="M 228.419,345.037 C 223.785,350.336 222.130,350.536 215.635,352.231" stroke-width="5.507" stroke="black" fill="none" stroke-linecap="round"></path><path d="M 215.635,352.231 C 212.941,352.935 212.713,351.281 210.042,349.833" stroke-width="6.179" stroke="black" fill="none" stroke-linecap="round"></path><path d="M 210.042,349.833 C 203.125,346.085 203.314,345.725 196.459,341.839" stroke-width="6.198" stroke="black" fill="none" stroke-linecap="round"></path><path d="M 196.459,341.839 C 191.329,338.930 191.665,336.685 186.072,336.243" stroke-width="5.551" stroke="black" fill="none" stroke-linecap="round"></path><path d="M 186.072,336.243 C 176.484,335.486 175.529,336.296 166.097,339.441" stroke-width="4.500" stroke="black" fill="none" stroke-linecap="round"></path><path d="M 166.097,339.441 C 158.750,341.892 158.605,342.491 152.514,347.435" stroke-width="4.604" stroke="black" fill="none" stroke-linecap="round"></path><path d="M 152.514,347.435 C 137.432,359.678 136.232,359.038 123.750,373.815" stroke-width="4.500" stroke="black" fill="none" stroke-linecap="round"></path><path d="M 123.750,373.815 C 112.262,387.417 112.648,388.262 104.574,404.193" stroke-width="4.500" stroke="black" fill="none" stroke-linecap="round"></path><path d="M 104.574,404.193 C 98.266,416.640 98.178,417.063 94.986,430.573" stroke-width="4.500" stroke="black" fill="none" stroke-linecap="round"></path><path d="M 94.986,430.573 C 92.984,439.047 90.994,441.541 94.187,448.160" stroke-width="4.500" stroke="black" fill="none" stroke-linecap="round"></path><path d="M 94.187,448.160 C 96.587,453.133 100.202,452.618 106.172,453.756" stroke-width="4.651" stroke="black" fill="none" stroke-linecap="round"></path><path d="M 106.172,453.756 C 108.592,454.217 108.924,453.071 110.966,451.358" stroke-width="5.995" stroke="black" fill="none" stroke-linecap="round"></path><path d="M 110.966,451.358 C 121.309,442.679 121.584,442.793 130.941,432.971" stroke-width="4.500" stroke="black" fill="none" stroke-linecap="round"></path><path d="M 130.941,432.971 C 162.333,400.025 162.379,399.973 192.464,365.821" stroke-width="4.500" stroke="black" fill="none" stroke-linecap="round"></path><path d="M 192.464,365.821 C 203.927,352.809 203.327,352.291 214.037,338.642" stroke-width="4.500" stroke="black" fill="none" stroke-linecap="round"></path><path d="M 214.037,338.642 C 236.885,309.523 237.463,309.954 259.581,280.285" stroke-width="4.500" stroke="black" fill="none" stroke-linecap="round"></path><path d="M 259.581,280.285 C 291.395,237.608 290.998,237.298 321.903,193.950" stroke-width="4.500" stroke="black" fill="none" stroke-linecap="round"></path><path d="M 321.903,193.950 C 331.747,180.141 331.185,179.743 341.079,165.970" stroke-width="4.500" stroke="black" fill="none" stroke-linecap="round"></path><path d="M 341.079,165.970 C 358.750,141.371 358.865,141.445 377.034,117.207" stroke-width="4.500" stroke="black" fill="none" stroke-linecap="round"></path><path d="M 377.034,117.207 C 391.224,98.277 391.647,98.592 405.798,79.635" stroke-width="4.500" stroke="black" fill="none" stroke-linecap="round"></path><path d="M 405.798,79.635 C 415.217,67.016 415.384,67.095 424.175,54.054" stroke-width="4.500" stroke="black" fill="none" stroke-linecap="round"></path><path d="M 424.175,54.054 C 426.970,49.907 431.044,44.058 428.969,45.261" stroke-width="4.500" stroke="black" fill="none" stroke-linecap="round"></path><path d="M 428.969,45.261 C 423.454,48.455 418.950,54.018 408.994,62.847" stroke-width="4.816" stroke="black" fill="none" stroke-linecap="round"></path><path d="M 408.994,62.847 C 401.372,69.607 401.365,69.600 393.813,76.437" stroke-width="4.500" stroke="black" fill="none" stroke-linecap="round"></path><path d="M 393.813,76.437 C 376.197,92.383 376.480,92.704 358.657,108.413" stroke-width="4.500" stroke="black" fill="none" stroke-linecap="round"></path><path d="M 358.657,108.413 C 342.922,122.282 342.890,122.263 326.697,135.593" stroke-width="4.500" stroke="black" fill="none" stroke-linecap="round"></path><path d="M 326.697,135.593 C 311.329,148.243 311.798,148.964 295.536,160.375" stroke-width="4.500" stroke="black" fill="none" stroke-linecap="round"></path><path d="M 295.536,160.375 C 281.037,170.548 280.950,170.761 265.174,178.761" stroke-width="4.500" stroke="black" fill="none" stroke-linecap="round"></path><path d="M 265.174,178.761 C 251.786,185.550 251.530,185.461 237.208,189.953" stroke-width="4.500" stroke="black" fill="none" stroke-linecap="round"></path><path d="M 237.208,189.953 C 224.764,193.855 224.544,193.671 211.640,195.548" stroke-width="4.500" stroke="black" fill="none" stroke-linecap="round"></path><path d="M 211.640,195.548 C 202.572,196.868 202.406,196.617 193.263,196.348" stroke-width="4.500" stroke="black" fill="none" stroke-linecap="round"></path><path d="M 193.263,196.348 C 188.823,196.217 184.474,196.094 184.474,194.749" stroke-width="5.224" stroke="black" fill="none" stroke-linecap="round"></path><path d="M 184.474,194.749 C 184.474,193.296 188.577,191.667 193.263,190.752" stroke-width="6.331" stroke="black" fill="none" stroke-linecap="round"></path><path d="M 193.263,190.752 C 204.956,188.469 205.231,188.834 217.233,188.354" stroke-width="4.500" stroke="black" fill="none" stroke-linecap="round"></path><path d="M 217.233,188.354 C 225.206,188.035 225.549,187.101 233.214,189.153" stroke-width="4.513" stroke="black" fill="none" stroke-linecap="round"></path><path d="M 233.214,189.153 C 253.914,194.695 257.143,190.710 273.963,203.542" stroke-width="4.500" stroke="black" fill="none" stroke-linecap="round"></path><path d="M 273.963,203.542 C 312.674,233.078 310.047,237.874 344.275,273.890" stroke-width="4.500" stroke="black" fill="none" stroke-linecap="round"></path><path d="M 344.275,273.890 C 356.389,286.637 373.938,308.364 366.647,301.070" stroke-width="4.500" stroke="black" fill="none" stroke-linecap="round"></path></svg>