<svg xmlns="http://www.w3.org/2000/svg" xmlns:xlink="http://www.w3.org/1999/xlink" viewBox="0 0 576 416" width="576" height="416"><path d="M 236.410,169.180 C 240.405,165.982 240.016,165.291 244.400,162.785" stroke-width="8.040" stroke="black" fill="none" stroke-linecap="round"></path><path d="M 244.400,162.785 C 248.405,160.494 248.721,160.948 253.189,159.587" stroke-width="6.228" stroke="black" fill="none" stroke-linecap="round"></path><path d="M 253.189,159.587 C 257.910,158.150 257.907,157.774 262.777,157.189" stroke-width="5.842" stroke="black" fill="none" stroke-linecap="round"></path><path d="M 262.777,157.189 C 267.894,156.575 268.132,156.257 273.164,157.189" stroke-width="5.661" stroke="black" fill="none" stroke-linecap="round"></path><path d="M 273.164,157.189 C 278.918,158.255 278.970,158.764 284.350,161.186" stroke-width="5.651" stroke="black" fill="none" stroke-linecap="round"></path><path d="M 284.350,161.186 C 286.960,162.361 286.985,162.494 289.144,164.384" stroke-width="6.294" stroke="black" fill="none" stroke-linecap="round"></path><path d="M 289.144,164.384 C 293.377,168.090 293.745,167.927 297.134,172.378" stroke-width="5.544" stroke="black" fill="none" stroke-linecap="round"></path><path d="M 297.134,172.378 C 300.137,176.321 300.186,176.525 301.928,181.171" stroke-width="5.627" stroke="black" fill="none" stroke-linecap="round"></path><path d="M 301.928,181.171 C 303.782,186.118 304.522,186.417 304.325,191.563" stroke-width="5.559" stroke="black" fill="none" stroke-linecap="round"></path><path d="M 304.325,191.563 C 304.123,196.810 303.732,197.304 301.129,201.956" stroke-width="5.316" stroke="black" fill="none" stroke-linecap="round"></path><path d="M 301.129,201.956 C 298.139,207.297 297.928,207.655 293.139,211.548" stroke-width="5.227" stroke="black" fill="none" stroke-linecap="round"></path><path d="M 293.139,211.548 C 285.144,218.047 284.566,217.514 275.561,222.740" stroke-width="4.500" stroke="black" fill="none" stroke-linecap="round"></path><path d="M 275.561,222.740 C 264.591,229.106 264.740,229.550 253.189,234.731" stroke-width="4.500" stroke="black" fill="none" stroke-linecap="round"></path><path d="M 253.189,234.731 C 241.569,239.942 241.323,239.488 229.218,243.525" stroke-width="4.500" stroke="black" fill="none" stroke-linecap="round"></path><path d="M 229.218,243.525 C 217.353,247.482 217.341,247.535 205.248,250.719" stroke-width="4.500" stroke="black" fill="none" stroke-linecap="round"></path><path d="M 205.248,250.719 C 194.570,253.531 194.430,252.984 183.675,255.516" stroke-width="4.500" stroke="black" fill="none" stroke-linecap="round"></path><path d="M 183.675,255.516 C 174.056,257.780 174.014,257.655 164.499,260.312" stroke-width="4.500" stroke="black" fill="none" stroke-linecap="round"></path><path d="M 164.499,260.312 C 156.836,262.452 156.500,261.824 149.318,265.108" stroke-width="4.500" stroke="black" fill="none" stroke-linecap="round"></path><path d="M 149.318,265.108 C 142.517,268.219 142.624,268.691 136.534,273.102" stroke-width="4.679" stroke="black" fill="none" stroke-linecap="round"></path><path d="M 136.534,273.102 C 131.038,277.085 130.705,276.922 126.147,281.896" stroke-width="4.898" stroke="black" fill="none" stroke-linecap="round"></path><path d="M 126.147,281.896 C 121.916,286.515 121.753,286.693 118.956,292.288" stroke-width="5.080" stroke="black" fill="none" stroke-linecap="round"></path><path d="M 118.956,292.288 C 116.160,297.884 116.115,298.121 114.961,304.279" stroke-width="5.137" stroke="black" fill="none" stroke-linecap="round"></path><path d="M 114.961,304.279 C 113.718,310.912 114.162,311.075 114.162,317.869" stroke-width="5.039" stroke="black" fill="none" stroke-linecap="round"></path><path d="M 114.162,317.869 C 114.162,324.265 113.878,324.427 114.961,330.660" stroke-width="5.103" stroke="black" fill="none" stroke-linecap="round"></path><path d="M 114.961,330.660 C 115.476,333.620 115.719,333.721 117.358,336.255" stroke-width="6.082" stroke="black" fill="none" stroke-linecap="round"></path><path d="M 117.358,336.255 C 120.114,340.516 119.918,340.990 123.750,344.249" stroke-width="5.654" stroke="black" fill="none" stroke-linecap="round"></path><path d="M 123.750,344.249 C 127.908,347.785 128.204,347.943 133.338,349.845" stroke-width="5.593" stroke="black" fill="none" stroke-linecap="round"></path><path d="M 133.338,349.845 C 138.991,351.940 139.331,351.044 145.323,352.243" stroke-width="5.338" stroke="black" fill="none" stroke-linecap="round"></path><path d="M 373.838,127.611 C 376.634,132.407 377.324,132.110 379.431,137.204" stroke-width="7.936" stroke="black" fill="none" stroke-linecap="round"></path><path d="M 379.431,137.204 C 382.118,143.702 382.211,143.851 383.426,150.794" stroke-width="5.544" stroke="black" fill="none" stroke-linecap="round"></path><path d="M 383.426,150.794 C 385.008,159.839 385.505,160.025 385.024,169.180" stroke-width="4.623" stroke="black" fill="none" stroke-linecap="round"></path><path d="M 385.024,169.180 C 384.307,182.808 384.036,182.986 381.029,196.360" stroke-width="4.500" stroke="black" fill="none" stroke-linecap="round"></path><path d="M 381.029,196.360 C 376.845,214.962 376.919,215.128 370.642,233.132" stroke-width="4.500" stroke="black" fill="none" stroke-linecap="round"></path><path d="M 370.642,233.132 C 364.934,249.502 364.378,249.378 357.059,265.108" stroke-width="4.500" stroke="black" fill="none" stroke-linecap="round"></path><path d="M 357.059,265.108 C 353.591,272.561 353.321,272.456 349.069,279.498" stroke-width="4.500" stroke="black" fill="none" stroke-linecap="round"></path><path d="M 349.069,279.498 C 341.736,291.641 342.711,292.499 333.888,303.480" stroke-width="4.500" stroke="black" fill="none" stroke-linecap="round"></path><path d="M 333.888,303.480 C 326.332,312.884 326.240,313.576 316.310,320.267" stroke-width="4.500" stroke="black" fill="none" stroke-linecap="round"></path><path d="M 316.310,320.267 C 306.664,326.766 305.890,326.141 294.737,329.860" stroke-width="4.500" stroke="black" fill="none" stroke-linecap="round"></path><path d="M 294.737,329.860 C 281.920,334.135 281.758,334.342 268.370,336.255" stroke-width="4.500" stroke="black" fill="none" stroke-linecap="round"></path><path d="M 268.370,336.255 C 248.200,339.138 248.016,338.724 227.620,339.453" stroke-width="4.500" stroke="black" fill="none" stroke-linecap="round"></path><path d="M 227.620,339.453 C 214.458,339.923 214.349,339.922 201.253,338.654" stroke-width="4.500" stroke="black" fill="none" stroke-linecap="round"></path><path d="M 201.253,338.654 C 189.580,337.523 189.516,337.296 178.082,334.657" stroke-width="4.500" stroke="black" fill="none" stroke-linecap="round"></path><path d="M 178.082,334.657 C 168.742,332.500 168.761,332.232 159.705,329.061" stroke-width="4.500" stroke="black" fill="none" stroke-linecap="round"></path><path d="M 159.705,329.061 C 152.781,326.636 152.924,326.237 146.122,323.465" stroke-width="4.633" stroke="black" fill="none" stroke-linecap="round"></path><path d="M 146.122,323.465 C 142.138,321.841 140.560,318.486 138.132,320.267" stroke-width="5.497" stroke="black" fill="none" stroke-linecap="round"></path><path d="M 138.132,320.267 C 134.567,322.883 135.627,326.133 134.137,332.258" stroke-width="6.595" stroke="black" fill="none" stroke-linecap="round"></path><path d="M 134.137,332.258 C 132.031,340.922 132.763,341.098 130.941,349.845" stroke-width="4.987" stroke="black" fill="none" stroke-linecap="round"></path><path d="M 130.941,349.845 C 128.768,360.284 128.433,360.213 126.147,370.630" stroke-width="4.500" stroke="black" fill="none" stroke-linecap="round"></path><path d="M 126.147,370.630 C 124.837,376.601 124.949,376.625 123.750,382.621" stroke-width="4.849" stroke="black" fill="none" stroke-linecap="round"></path></svg>