<svg xmlns="http://www.w3.org/2000/svg" xmlns:xlink="http://www.w3.org/1999/xlink" viewBox="0 0 576 416" width="576" height="416"><path d="M 277.958,186.417 C 273.164,186.817 272.927,185.973 268.370,187.216" stroke-width="8.595" stroke="black" fill="none" stroke-linecap="round"></path><path d="M 268.370,187.216 C 264.138,188.371 264.034,188.712 260.380,191.213" stroke-width="6.512" stroke="black" fill="none" stroke-linecap="round"></path><path d="M 260.380,191.213 C 256.443,193.908 256.487,194.126 253.189,197.609" stroke-width="5.957" stroke="black" fill="none" stroke-linecap="round"></path><path d="M 253.189,197.609 C 249.296,201.720 248.890,201.579 245.998,206.402" stroke-width="5.552" stroke="black" fill="none" stroke-linecap="round"></path><path d="M 245.998,206.402 C 242.897,211.571 243.182,211.853 241.203,217.594" stroke-width="5.333" stroke="black" fill="none" stroke-linecap="round"></path><path d="M 241.203,217.594 C 239.187,223.445 238.770,223.480 238.008,229.585" stroke-width="5.241" stroke="black" fill="none" stroke-linecap="round"></path><path d="M 238.008,229.585 C 237.172,236.270 237.172,236.489 238.008,243.174" stroke-width="5.071" stroke="black" fill="none" stroke-linecap="round"></path><path d="M 238.008,243.174 C 238.770,249.279 238.761,249.527 241.203,255.166" stroke-width="5.162" stroke="black" fill="none" stroke-linecap="round"></path><path d="M 241.203,255.166 C 243.955,261.518 244.166,261.638 248.395,267.157" stroke-width="5.003" stroke="black" fill="none" stroke-linecap="round"></path><path d="M 248.395,267.157 C 253.354,273.629 253.511,273.682 259.581,279.148" stroke-width="4.700" stroke="black" fill="none" stroke-linecap="round"></path><path d="M 259.581,279.148 C 265.496,284.474 265.786,284.216 272.365,288.741" stroke-width="4.657" stroke="black" fill="none" stroke-linecap="round"></path><path d="M 272.365,288.741 C 278.570,293.009 278.379,293.560 285.149,296.735" stroke-width="4.735" stroke="black" fill="none" stroke-linecap="round"></path><path d="M 285.149,296.735 C 291.163,299.555 291.403,299.467 297.933,300.732" stroke-width="4.940" stroke="black" fill="none" stroke-linecap="round"></path><path d="M 297.933,300.732 C 303.788,301.865 304.099,302.230 309.918,301.531" stroke-width="5.169" stroke="black" fill="none" stroke-linecap="round"></path><path d="M 309.918,301.531 C 314.087,301.030 314.373,300.691 317.908,298.333" stroke-width="5.708" stroke="black" fill="none" stroke-linecap="round"></path><path d="M 317.908,298.333 C 323.961,294.296 324.229,294.192 329.094,288.741" stroke-width="5.057" stroke="black" fill="none" stroke-linecap="round"></path><path d="M 329.094,288.741 C 334.217,283.000 334.115,282.696 337.883,275.950" stroke-width="4.805" stroke="black" fill="none" stroke-linecap="round"></path><path d="M 337.883,275.950 C 341.705,269.106 341.933,269.016 344.275,261.561" stroke-width="4.712" stroke="black" fill="none" stroke-linecap="round"></path><path d="M 344.275,261.561 C 346.327,255.027 346.465,254.791 346.672,247.971" stroke-width="4.888" stroke="black" fill="none" stroke-linecap="round"></path><path d="M 346.672,247.971 C 346.865,241.601 346.872,241.254 345.074,235.181" stroke-width="5.047" stroke="black" fill="none" stroke-linecap="round"></path><path d="M 345.074,235.181 C 343.676,230.462 343.013,230.570 340.280,226.387" stroke-width="5.463" stroke="black" fill="none" stroke-linecap="round"></path><path d="M 340.280,226.387 C 336.222,220.178 336.507,219.816 331.491,214.396" stroke-width="4.982" stroke="black" fill="none" stroke-linecap="round"></path><path d="M 331.491,214.396 C 326.519,209.024 326.388,208.861 320.305,204.803" stroke-width="4.868" stroke="black" fill="none" stroke-linecap="round"></path><path d="M 320.305,204.803 C 314.403,200.867 314.209,200.770 307.521,198.408" stroke-width="4.883" stroke="black" fill="none" stroke-linecap="round"></path><path d="M 307.521,198.408 C 300.626,195.974 300.419,195.998 293.139,195.210" stroke-width="4.840" stroke="black" fill="none" stroke-linecap="round"></path><path d="M 293.139,195.210 C 285.637,194.399 285.503,194.707 277.958,195.210" stroke-width="4.780" stroke="black" fill="none" stroke-linecap="round"></path><path d="M 277.958,195.210 C 273.518,195.506 273.537,195.889 269.169,196.809" stroke-width="5.512" stroke="black" fill="none" stroke-linecap="round"></path><path d="M 269.169,196.809 C 265.947,197.488 265.973,197.609 262.777,198.408" stroke-width="6.160" stroke="black" fill="none" stroke-linecap="round"></path><path d="M 393.014,133.656 C 386.222,134.456 385.956,133.475 379.431,135.255" stroke-width="7.981" stroke="black" fill="none" stroke-linecap="round"></path><path d="M 379.431,135.255 C 372.773,137.072 372.660,137.368 366.647,140.851" stroke-width="5.580" stroke="black" fill="none" stroke-linecap="round"></path><path d="M 366.647,140.851 C 357.478,146.161 357.414,146.282 349.069,152.842" stroke-width="4.500" stroke="black" fill="none" stroke-linecap="round"></path><path d="M 349.069,152.842 C 340.635,159.472 340.348,159.363 333.089,167.231" stroke-width="4.500" stroke="black" fill="none" stroke-linecap="round"></path><path d="M 333.089,167.231 C 325.966,174.952 325.946,175.149 320.305,184.019" stroke-width="4.500" stroke="black" fill="none" stroke-linecap="round"></path><path d="M 320.305,184.019 C 314.760,192.735 315.241,193.086 310.717,202.405" stroke-width="4.500" stroke="black" fill="none" stroke-linecap="round"></path><path d="M 310.717,202.405 C 308.449,207.075 308.442,207.100 306.722,211.998" stroke-width="4.941" stroke="black" fill="none" stroke-linecap="round"></path><path d="M 306.722,211.998 C 303.248,221.888 303.288,221.920 300.330,231.983" stroke-width="4.500" stroke="black" fill="none" stroke-linecap="round"></path><path d="M 300.330,231.983 C 297.295,242.305 297.826,242.463 294.737,252.767" stroke-width="4.500" stroke="black" fill="none" stroke-linecap="round"></path><path d="M 294.737,252.767 C 291.834,262.448 291.913,262.502 288.345,271.953" stroke-width="4.500" stroke="black" fill="none" stroke-linecap="round"></path><path d="M 288.345,271.953 C 285.122,280.488 285.568,280.790 281.154,288.741" stroke-width="4.500" stroke="black" fill="none" stroke-linecap="round"></path><path d="M 281.154,288.741 C 275.581,298.777 275.303,298.759 268.370,307.926" stroke-width="4.500" stroke="black" fill="none" stroke-linecap="round"></path><path d="M 268.370,307.926 C 264.117,313.548 263.889,313.477 258.782,318.318" stroke-width="4.644" stroke="black" fill="none" stroke-linecap="round"></path><path d="M 258.782,318.318 C 256.298,320.672 256.032,320.385 253.189,322.316" stroke-width="5.958" stroke="black" fill="none" stroke-linecap="round"></path><path d="M 253.189,322.316 C 244.846,327.979 245.130,328.522 236.410,333.507" stroke-width="4.500" stroke="black" fill="none" stroke-linecap="round"></path><path d="M 236.410,333.507 C 231.147,336.516 230.718,335.693 225.223,338.304" stroke-width="4.967" stroke="black" fill="none" stroke-linecap="round"></path><path d="M 225.223,338.304 C 214.738,343.287 214.836,343.500 204.449,348.696" stroke-width="4.500" stroke="black" fill="none" stroke-linecap="round"></path><path d="M 204.449,348.696 C 193.263,354.292 193.221,354.208 182.077,359.887" stroke-width="4.500" stroke="black" fill="none" stroke-linecap="round"></path><path d="M 182.077,359.887 C 172.047,365.000 171.938,364.813 162.102,370.280" stroke-width="4.500" stroke="black" fill="none" stroke-linecap="round"></path><path d="M 162.102,370.280 C 153.961,374.805 153.651,374.458 146.122,379.872" stroke-width="4.500" stroke="black" fill="none" stroke-linecap="round"></path><path d="M 146.122,379.872 C 140.867,383.652 141.328,384.269 136.534,388.666" stroke-width="4.763" stroke="black" fill="none" stroke-linecap="round"></path><path d="M 443.351,166.432 C 439.356,168.031 439.170,167.653 435.361,169.629" stroke-width="7.871" stroke="black" fill="none" stroke-linecap="round"></path><path d="M 435.361,169.629 C 428.384,173.249 428.208,173.103 421.778,177.623" stroke-width="5.319" stroke="black" fill="none" stroke-linecap="round"></path><path d="M 421.778,177.623 C 413.427,183.495 413.401,183.587 405.798,190.414" stroke-width="4.500" stroke="black" fill="none" stroke-linecap="round"></path><path d="M 405.798,190.414 C 397.821,197.576 397.407,197.340 390.617,205.603" stroke-width="4.500" stroke="black" fill="none" stroke-linecap="round"></path><path d="M 390.617,205.603 C 382.625,215.327 382.484,215.445 376.235,226.387" stroke-width="4.500" stroke="black" fill="none" stroke-linecap="round"></path><path d="M 376.235,226.387 C 368.102,240.626 368.571,240.971 361.853,255.965" stroke-width="4.500" stroke="black" fill="none" stroke-linecap="round"></path><path d="M 361.853,255.965 C 358.184,264.154 358.025,264.157 355.461,272.752" stroke-width="4.500" stroke="black" fill="none" stroke-linecap="round"></path><path d="M 355.461,272.752 C 350.035,290.937 350.328,291.057 345.873,309.525" stroke-width="4.500" stroke="black" fill="none" stroke-linecap="round"></path><path d="M 345.873,309.525 C 341.939,325.832 342.695,326.017 338.682,342.301" stroke-width="4.500" stroke="black" fill="none" stroke-linecap="round"></path><path d="M 338.682,342.301 C 335.504,355.195 336.133,355.496 331.491,367.881" stroke-width="4.500" stroke="black" fill="none" stroke-linecap="round"></path><path d="M 331.491,367.881 C 327.744,377.879 327.805,378.210 321.903,387.067" stroke-width="4.500" stroke="black" fill="none" stroke-linecap="round"></path><path d="M 321.903,387.067 C 315.820,396.196 315.658,396.507 307.521,403.855" stroke-width="4.500" stroke="black" fill="none" stroke-linecap="round"></path><path d="M 307.521,403.855 C 299.279,411.296 298.491,410.499 289.144,416.645" stroke-width="4.500" stroke="black" fill="none" stroke-linecap="round"></path><path d="M 289.144,416.645 C 284.509,419.692 284.350,419.443 279.556,422.241" stroke-width="4.842" stroke="black" fill="none" stroke-linecap="round"></path></svg>