<svg xmlns="http://www.w3.org/2000/svg" xmlns:xlink="http://www.w3.org/1999/xlink" viewBox="0 0 576 416" width="576" height="416"><path d="M 388.220,142.779 C 387.021,138.782 386.072,138.768 385.823,134.785" stroke-width="8.572" stroke="black" fill="none" stroke-linecap="round"></path><path d="M 385.823,134.785 C 385.672,132.373 386.246,132.209 387.421,129.989" stroke-width="7.358" stroke="black" fill="none" stroke-linecap="round"></path><path d="M 387.421,129.989 C 389.842,125.414 389.798,125.217 393.014,121.195" stroke-width="7.023" stroke="black" fill="none" stroke-linecap="round"></path><path d="M 393.014,121.195 C 394.592,119.221 394.942,119.502 397.009,117.998" stroke-width="7.012" stroke="black" fill="none" stroke-linecap="round"></path><path d="M 397.009,117.998 C 399.336,116.304 399.214,116.019 401.803,114.800" stroke-width="6.806" stroke="black" fill="none" stroke-linecap="round"></path><path d="M 401.803,114.800 C 406.005,112.822 406.087,112.279 410.592,111.603" stroke-width="6.981" stroke="black" fill="none" stroke-linecap="round"></path><path d="M 410.592,111.603 C 414.077,111.080 415.196,110.755 417.783,112.402" stroke-width="7.588" stroke="black" fill="none" stroke-linecap="round"></path><path d="M 417.783,112.402 C 419.590,113.553 419.732,114.914 419.381,117.198" stroke-width="7.738" stroke="black" fill="none" stroke-linecap="round"></path><path d="M 419.381,117.198 C 418.933,120.110 418.100,120.239 416.185,122.794" stroke-width="7.617" stroke="black" fill="none" stroke-linecap="round"></path><path d="M 416.185,122.794 C 414.505,125.035 414.430,125.110 412.190,126.791" stroke-width="6.992" stroke="black" fill="none" stroke-linecap="round"></path><path d="M 412.190,126.791 C 409.636,128.708 409.438,128.473 406.597,129.989" stroke-width="6.733" stroke="black" fill="none" stroke-linecap="round"></path><path d="M 406.597,129.989 C 403.445,131.671 403.549,132.006 400.205,133.187" stroke-width="6.366" stroke="black" fill="none" stroke-linecap="round"></path><path d="M 400.205,133.187 C 396.758,134.404 396.642,134.180 393.014,134.785" stroke-width="6.305" stroke="black" fill="none" stroke-linecap="round"></path><path d="M 393.014,134.785 C 389.451,135.380 389.412,135.136 385.823,135.585" stroke-width="6.311" stroke="black" fill="none" stroke-linecap="round"></path><path d="M 385.823,135.585 C 383.020,135.935 383.041,136.197 380.230,136.384" stroke-width="6.615" stroke="black" fill="none" stroke-linecap="round"></path><path d="M 380.230,136.384 C 377.049,136.596 376.763,137.360 373.838,136.384" stroke-width="7.282" stroke="black" fill="none" stroke-linecap="round"></path><path d="M 373.838,136.384 C 369.572,134.962 369.676,134.221 365.848,131.588" stroke-width="6.087" stroke="black" fill="none" stroke-linecap="round"></path><path d="M 365.848,131.588 C 363.284,129.824 363.360,129.688 361.054,127.591" stroke-width="6.426" stroke="black" fill="none" stroke-linecap="round"></path><path d="M 361.054,127.591 C 358.966,125.691 358.770,125.820 357.059,123.594" stroke-width="6.653" stroke="black" fill="none" stroke-linecap="round"></path><path d="M 357.059,123.594 C 354.775,120.624 355.730,118.019 353.064,117.198" stroke-width="7.137" stroke="black" fill="none" stroke-linecap="round"></path><path d="M 353.064,117.198 C 350.536,116.420 349.572,118.387 346.672,120.396" stroke-width="7.914" stroke="black" fill="none" stroke-linecap="round"></path><path d="M 346.672,120.396 C 344.378,121.985 344.765,122.494 342.677,124.393" stroke-width="7.065" stroke="black" fill="none" stroke-linecap="round"></path><path d="M 342.677,124.393 C 340.370,126.491 340.354,126.488 337.883,128.390" stroke-width="6.793" stroke="black" fill="none" stroke-linecap="round"></path><path d="M 337.883,128.390 C 335.161,130.485 335.012,130.292 332.290,132.387" stroke-width="6.437" stroke="black" fill="none" stroke-linecap="round"></path><path d="M 332.290,132.387 C 329.818,134.289 330.167,134.857 327.496,136.384" stroke-width="6.538" stroke="black" fill="none" stroke-linecap="round"></path><path d="M 327.496,136.384 C 324.574,138.055 324.339,137.703 321.104,138.782" stroke-width="6.456" stroke="black" fill="none" stroke-linecap="round"></path><path d="M 321.104,138.782 C 318.347,139.702 318.374,139.952 315.511,140.381" stroke-width="6.629" stroke="black" fill="none" stroke-linecap="round"></path><path d="M 315.511,140.381 C 310.383,141.151 310.130,141.864 305.124,141.181" stroke-width="6.841" stroke="black" fill="none" stroke-linecap="round"></path><path d="M 305.124,141.181 C 301.341,140.665 301.188,140.077 297.933,137.983" stroke-width="7.134" stroke="black" fill="none" stroke-linecap="round"></path><path d="M 297.933,137.983 C 295.595,136.479 295.412,136.347 293.938,133.986" stroke-width="6.864" stroke="black" fill="none" stroke-linecap="round"></path><path d="M 293.938,133.986 C 291.417,129.951 291.207,129.748 289.943,125.193" stroke-width="6.996" stroke="black" fill="none" stroke-linecap="round"></path><path d="M 289.943,125.193 C 289.210,122.553 289.424,122.322 289.943,119.597" stroke-width="6.837" stroke="black" fill="none" stroke-linecap="round"></path><path d="M 289.943,119.597 C 291.022,113.928 290.770,113.618 293.139,108.405" stroke-width="6.707" stroke="black" fill="none" stroke-linecap="round"></path><path d="M 293.139,108.405 C 294.765,104.825 295.438,105.129 297.933,102.010" stroke-width="6.286" stroke="black" fill="none" stroke-linecap="round"></path><path d="M 297.933,102.010 C 300.232,99.134 300.040,98.895 302.727,96.414" stroke-width="6.281" stroke="black" fill="none" stroke-linecap="round"></path><path d="M 302.727,96.414 C 305.233,94.099 305.382,94.181 308.320,92.417" stroke-width="6.370" stroke="black" fill="none" stroke-linecap="round"></path><path d="M 308.320,92.417 C 311.374,90.583 311.408,90.542 314.712,89.219" stroke-width="6.420" stroke="black" fill="none" stroke-linecap="round"></path><path d="M 314.712,89.219 C 317.400,88.143 317.467,88.229 320.305,87.621" stroke-width="6.545" stroke="black" fill="none" stroke-linecap="round"></path><path d="M 320.305,87.621 C 323.060,87.030 323.131,86.637 325.898,86.821" stroke-width="6.691" stroke="black" fill="none" stroke-linecap="round"></path><path d="M 325.898,86.821 C 329.124,87.036 330.957,86.325 332.290,88.420" stroke-width="7.263" stroke="black" fill="none" stroke-linecap="round"></path><path d="M 332.290,88.420 C 333.754,90.722 332.720,92.335 331.491,95.615" stroke-width="7.685" stroke="black" fill="none" stroke-linecap="round"></path><path d="M 331.491,95.615 C 330.323,98.730 329.819,98.707 327.496,101.210" stroke-width="6.744" stroke="black" fill="none" stroke-linecap="round"></path><path d="M 327.496,101.210 C 324.625,104.303 324.533,104.328 321.104,106.806" stroke-width="6.206" stroke="black" fill="none" stroke-linecap="round"></path><path d="M 321.104,106.806 C 317.342,109.524 317.201,109.372 313.114,111.603" stroke-width="5.926" stroke="black" fill="none" stroke-linecap="round"></path><path d="M 313.114,111.603 C 308.412,114.169 308.426,114.242 303.526,116.399" stroke-width="5.635" stroke="black" fill="none" stroke-linecap="round"></path><path d="M 303.526,116.399 C 298.438,118.639 298.412,118.637 293.139,120.396" stroke-width="5.583" stroke="black" fill="none" stroke-linecap="round"></path><path d="M 293.139,120.396 C 287.626,122.235 287.611,122.273 281.953,123.594" stroke-width="5.317" stroke="black" fill="none" stroke-linecap="round"></path><path d="M 281.953,123.594 C 275.626,125.071 275.591,124.988 269.169,125.992" stroke-width="5.162" stroke="black" fill="none" stroke-linecap="round"></path><path d="M 269.169,125.992 C 262.807,126.986 262.779,126.815 256.385,127.591" stroke-width="5.133" stroke="black" fill="none" stroke-linecap="round"></path><path d="M 256.385,127.591 C 249.596,128.414 249.612,128.606 242.802,129.190" stroke-width="5.030" stroke="black" fill="none" stroke-linecap="round"></path><path d="M 242.802,129.190 C 235.629,129.805 235.616,129.783 228.419,129.989" stroke-width="4.918" stroke="black" fill="none" stroke-linecap="round"></path><path d="M 228.419,129.989 C 221.633,130.183 221.622,130.195 214.836,129.989" stroke-width="5.064" stroke="black" fill="none" stroke-linecap="round"></path><path d="M 214.836,129.989 C 208.438,129.795 208.400,129.959 202.052,129.190" stroke-width="5.018" stroke="black" fill="none" stroke-linecap="round"></path><path d="M 202.052,129.190 C 195.217,128.361 195.187,128.309 188.469,126.791" stroke-width="4.983" stroke="black" fill="none" stroke-linecap="round"></path><path d="M 188.469,126.791 C 182.803,125.511 182.867,125.223 177.283,123.594" stroke-width="5.230" stroke="black" fill="none" stroke-linecap="round"></path><path d="M 177.283,123.594 C 173.279,122.425 173.288,122.395 169.293,121.195" stroke-width="5.770" stroke="black" fill="none" stroke-linecap="round"></path><circle r="3" cx="363.45068359375" cy="74.03070068359375" fill="black"></circle><path d="M 267.571,62.839 C 263.975,65.237 263.495,64.741 260.380,67.635" stroke-width="8.514" stroke="black" fill="none" stroke-linecap="round"></path><path d="M 260.380,67.635 C 257.902,69.938 257.700,70.160 256.385,73.231" stroke-width="7.767" stroke="black" fill="none" stroke-linecap="round"></path><path d="M 256.385,73.231 C 255.303,75.756 255.375,76.084 255.586,78.827" stroke-width="7.732" stroke="black" fill="none" stroke-linecap="round"></path><path d="M 255.586,78.827 C 255.774,81.280 255.660,81.760 257.184,83.624" stroke-width="8.161" stroke="black" fill="none" stroke-linecap="round"></path><path d="M 257.184,83.624 C 259.255,86.157 262.777,85.498 262.777,87.621" stroke-width="8.192" stroke="black" fill="none" stroke-linecap="round"></path><path d="M 262.777,87.621 C 262.777,89.895 260.182,90.299 257.184,92.417" stroke-width="8.249" stroke="black" fill="none" stroke-linecap="round"></path><path d="M 257.184,92.417 C 253.391,95.096 253.410,95.315 249.194,97.213" stroke-width="7.347" stroke="black" fill="none" stroke-linecap="round"></path><path d="M 249.194,97.213 C 245.419,98.913 245.269,98.894 241.203,99.612" stroke-width="7.291" stroke="black" fill="none" stroke-linecap="round"></path><path d="M 241.203,99.612 C 238.478,100.093 237.905,100.655 235.611,99.612" stroke-width="7.613" stroke="black" fill="none" stroke-linecap="round"></path><path d="M 235.611,99.612 C 233.511,98.657 234.543,96.106 232.415,95.615" stroke-width="8.122" stroke="black" fill="none" stroke-linecap="round"></path><path d="M 232.415,95.615 C 229.350,94.907 228.532,95.742 225.223,97.213" stroke-width="8.233" stroke="black" fill="none" stroke-linecap="round"></path><path d="M 225.223,97.213 C 221.341,98.940 221.750,99.822 218.032,102.010" stroke-width="7.463" stroke="black" fill="none" stroke-linecap="round"></path><path d="M 218.032,102.010 C 214.959,103.819 214.987,104.538 211.640,105.207" stroke-width="7.471" stroke="black" fill="none" stroke-linecap="round"></path><path d="M 211.640,105.207 C 208.995,105.737 208.101,105.949 206.047,104.408" stroke-width="7.891" stroke="black" fill="none" stroke-linecap="round"></path><path d="M 206.047,104.408 C 203.307,102.352 204.142,101.149 202.052,98.013" stroke-width="7.856" stroke="black" fill="none" stroke-linecap="round"></path><path d="M 202.052,98.013 C 200.147,95.153 200.800,93.332 198.057,92.417" stroke-width="7.895" stroke="black" fill="none" stroke-linecap="round"></path><path d="M 198.057,92.417 C 194.807,91.333 193.803,92.562 190.067,94.016" stroke-width="8.002" stroke="black" fill="none" stroke-linecap="round"></path><circle r="3" cx="233.2135009765625" cy="125.1925048828125" fill="black"></circle><path d="M 164.499,50.848 C 165.298,57.643 165.249,57.649 166.097,64.438" stroke-width="8.254" stroke="black" fill="none" stroke-linecap="round"></path><path d="M 166.097,64.438 C 166.448,67.242 166.497,67.236 166.896,70.034" stroke-width="7.144" stroke="black" fill="none" stroke-linecap="round"></path><path d="M 144.524,66.037 C 145.323,72.832 145.308,72.834 146.122,79.627" stroke-width="8.378" stroke="black" fill="none" stroke-linecap="round"></path><path d="M 146.122,79.627 C 146.506,82.826 146.522,82.824 146.921,86.022" stroke-width="7.070" stroke="black" fill="none" stroke-linecap="round"></path><path d="M 146.921,86.022 C 147.321,89.219 147.720,89.213 147.720,92.417" stroke-width="6.680" stroke="black" fill="none" stroke-linecap="round"></path><path d="M 147.720,92.417 C 147.720,96.807 149.000,98.899 146.921,101.210" stroke-width="7.054" stroke="black" fill="none" stroke-linecap="round"></path><path d="M 146.921,101.210 C 145.405,102.896 142.926,102.010 140.529,100.411" stroke-width="7.915" stroke="black" fill="none" stroke-linecap="round"></path><path d="M 140.529,100.411 C 138.132,98.812 138.848,97.657 137.333,94.815" stroke-width="7.614" stroke="black" fill="none" stroke-linecap="round"></path><path d="M 137.333,94.815 C 135.652,91.662 134.854,87.882 134.137,88.420" stroke-width="7.489" stroke="black" fill="none" stroke-linecap="round"></path><path d="M 134.137,88.420 C 133.256,89.081 134.137,92.817 134.137,97.213" stroke-width="8.085" stroke="black" fill="none" stroke-linecap="round"></path><path d="M 134.137,97.213 C 134.137,101.610 134.945,101.766 134.137,106.007" stroke-width="7.407" stroke="black" fill="none" stroke-linecap="round"></path><path d="M 134.137,106.007 C 133.347,110.159 133.403,110.799 130.941,114.001" stroke-width="7.248" stroke="black" fill="none" stroke-linecap="round"></path><path d="M 130.941,114.001 C 129.408,115.995 128.156,117.172 126.147,116.399" stroke-width="7.853" stroke="black" fill="none" stroke-linecap="round"></path><path d="M 126.147,116.399 C 122.963,115.174 123.173,113.338 120.554,110.004" stroke-width="7.385" stroke="black" fill="none" stroke-linecap="round"></path><path d="M 120.554,110.004 C 118.778,107.742 119.051,107.536 117.358,105.207" stroke-width="6.907" stroke="black" fill="none" stroke-linecap="round"></path><path d="M 117.358,105.207 C 115.855,103.140 115.800,103.176 114.162,101.210" stroke-width="6.914" stroke="black" fill="none" stroke-linecap="round"></path><path d="M 114.162,101.210 C 111.805,98.380 112.352,97.321 109.368,95.615" stroke-width="7.245" stroke="black" fill="none" stroke-linecap="round"></path><path d="M 109.368,95.615 C 106.759,94.123 105.772,93.883 102.976,94.815" stroke-width="7.467" stroke="black" fill="none" stroke-linecap="round"></path><path d="M 102.976,94.815 C 99.779,95.881 99.676,96.788 97.383,99.612" stroke-width="7.418" stroke="black" fill="none" stroke-linecap="round"></path><path d="M 97.383,99.612 C 94.483,103.183 94.572,103.418 92.589,107.606" stroke-width="7.166" stroke="black" fill="none" stroke-linecap="round"></path><path d="M 92.589,107.606 C 90.976,111.012 89.473,112.162 90.192,114.800" stroke-width="7.300" stroke="black" fill="none" stroke-linecap="round"></path><path d="M 90.192,114.800 C 90.672,116.559 92.895,117.261 94.986,116.399" stroke-width="7.900" stroke="black" fill="none" stroke-linecap="round"></path><path d="M 94.986,116.399 C 99.687,114.463 99.414,112.841 103.775,109.204" stroke-width="5.962" stroke="black" fill="none" stroke-linecap="round"></path><path d="M 103.775,109.204 C 106.605,106.845 106.572,106.806 109.368,104.408" stroke-width="6.180" stroke="black" fill="none" stroke-linecap="round"></path></svg>