<svg xmlns="http://www.w3.org/2000/svg" xmlns:xlink="http://www.w3.org/1999/xlink" viewBox="0 0 576 416" width="576" height="416"><path d="M 436.959,203.554 C 438.956,208.351 438.845,208.400 440.954,213.147" stroke-width="8.599" stroke="black" fill="none" stroke-linecap="round"></path><path d="M 440.954,213.147 C 443.639,219.192 443.667,219.183 446.547,225.138" stroke-width="5.774" stroke="black" fill="none" stroke-linecap="round"></path><path d="M 446.547,225.138 C 449.659,231.574 449.888,231.465 452.939,237.929" stroke-width="5.311" stroke="black" fill="none" stroke-linecap="round"></path><path d="M 452.939,237.929 C 456.679,245.854 456.380,245.996 460.130,253.917" stroke-width="4.556" stroke="black" fill="none" stroke-linecap="round"></path><path d="M 460.130,253.917 C 463.571,261.185 463.889,261.034 467.321,268.306" stroke-width="4.604" stroke="black" fill="none" stroke-linecap="round"></path><path d="M 467.321,268.306 C 470.680,275.424 470.441,275.535 473.713,282.695" stroke-width="4.652" stroke="black" fill="none" stroke-linecap="round"></path><path d="M 473.713,282.695 C 476.833,289.525 476.909,289.490 480.105,296.285" stroke-width="4.645" stroke="black" fill="none" stroke-linecap="round"></path><path d="M 420.180,142.800 C 416.584,134.406 416.305,134.514 412.989,126.012" stroke-width="7.375" stroke="black" fill="none" stroke-linecap="round"></path><path d="M 412.989,126.012 C 409.913,118.127 410.408,117.936 407.396,110.024" stroke-width="5.103" stroke="black" fill="none" stroke-linecap="round"></path><path d="M 407.396,110.024 C 404.016,101.149 403.626,101.298 400.205,92.437" stroke-width="4.500" stroke="black" fill="none" stroke-linecap="round"></path><path d="M 400.205,92.437 C 396.835,83.711 396.893,83.684 393.813,74.850" stroke-width="4.500" stroke="black" fill="none" stroke-linecap="round"></path><path d="M 393.813,74.850 C 390.900,66.497 391.016,66.457 388.220,58.063" stroke-width="4.500" stroke="black" fill="none" stroke-linecap="round"></path><path d="M 388.220,58.063 C 385.823,50.868 385.823,50.868 383.426,43.674" stroke-width="4.640" stroke="black" fill="none" stroke-linecap="round"></path><path d="M 383.426,43.674 C 382.227,40.076 381.984,40.143 381.029,36.479" stroke-width="5.646" stroke="black" fill="none" stroke-linecap="round"></path><path d="M 381.029,36.479 C 379.587,30.950 380.073,30.817 378.632,25.287" stroke-width="5.456" stroke="black" fill="none" stroke-linecap="round"></path><path d="M 378.632,25.287 C 377.676,21.624 376.924,21.773 376.235,18.093" stroke-width="5.972" stroke="black" fill="none" stroke-linecap="round"></path><path d="M 376.235,18.093 C 375.726,15.377 375.242,11.504 376.235,12.497" stroke-width="7.101" stroke="black" fill="none" stroke-linecap="round"></path><path d="M 376.235,12.497 C 378.838,15.101 380.053,18.779 383.426,25.287" stroke-width="7.022" stroke="black" fill="none" stroke-linecap="round"></path><path d="M 383.426,25.287 C 385.646,29.571 385.486,29.656 387.421,34.081" stroke-width="6.164" stroke="black" fill="none" stroke-linecap="round"></path><path d="M 387.421,34.081 C 391.079,42.447 391.223,42.392 394.612,50.868" stroke-width="4.646" stroke="black" fill="none" stroke-linecap="round"></path><path d="M 394.612,50.868 C 397.615,58.380 397.457,58.445 400.205,66.057" stroke-width="4.621" stroke="black" fill="none" stroke-linecap="round"></path><path d="M 400.205,66.057 C 402.651,72.834 402.590,72.856 404.999,79.647" stroke-width="4.793" stroke="black" fill="none" stroke-linecap="round"></path><path d="M 404.999,79.647 C 406.985,85.247 407.051,85.224 408.994,90.838" stroke-width="5.135" stroke="black" fill="none" stroke-linecap="round"></path><path d="M 408.994,90.838 C 410.647,95.616 410.130,95.852 412.190,100.431" stroke-width="5.481" stroke="black" fill="none" stroke-linecap="round"></path><path d="M 412.190,100.431 C 413.726,103.846 413.931,103.819 416.185,106.827" stroke-width="6.057" stroke="black" fill="none" stroke-linecap="round"></path><path d="M 416.185,106.827 C 418.725,110.215 418.467,110.689 421.778,113.222" stroke-width="6.787" stroke="black" fill="none" stroke-linecap="round"></path><path d="M 421.778,113.222 C 425.259,115.885 425.539,116.211 429.768,117.219" stroke-width="7.022" stroke="black" fill="none" stroke-linecap="round"></path><path d="M 429.768,117.219 C 433.928,118.210 434.369,118.171 438.557,117.219" stroke-width="7.141" stroke="black" fill="none" stroke-linecap="round"></path><path d="M 438.557,117.219 C 443.158,116.173 442.979,115.278 447.346,113.222" stroke-width="7.015" stroke="black" fill="none" stroke-linecap="round"></path><path d="M 447.346,113.222 C 449.770,112.080 449.776,112.085 452.140,110.824" stroke-width="6.893" stroke="black" fill="none" stroke-linecap="round"></path><path d="M 452.140,110.824 C 455.768,108.887 459.117,107.040 459.331,106.827" stroke-width="7.137" stroke="black" fill="none" stroke-linecap="round"></path><path d="M 459.331,106.827 C 459.517,106.641 455.883,108.021 452.939,110.024" stroke-width="7.813" stroke="black" fill="none" stroke-linecap="round"></path><path d="M 452.939,110.024 C 445.895,114.816 446.238,115.343 439.356,120.416" stroke-width="5.143" stroke="black" fill="none" stroke-linecap="round"></path><path d="M 439.356,120.416 C 431.057,126.534 430.867,126.277 422.577,132.407" stroke-width="4.500" stroke="black" fill="none" stroke-linecap="round"></path><path d="M 422.577,132.407 C 412.490,139.867 412.605,140.022 402.602,147.596" stroke-width="4.500" stroke="black" fill="none" stroke-linecap="round"></path><path d="M 402.602,147.596 C 397.823,151.214 397.833,151.227 393.014,154.791" stroke-width="4.806" stroke="black" fill="none" stroke-linecap="round"></path><path d="M 393.014,154.791 C 379.456,164.817 379.533,164.927 365.848,174.776" stroke-width="4.500" stroke="black" fill="none" stroke-linecap="round"></path><path d="M 322.702,293.887 C 321.903,289.091 321.791,289.107 321.104,284.294" stroke-width="8.475" stroke="black" fill="none" stroke-linecap="round"></path><path d="M 321.104,284.294 C 320.193,277.915 320.217,277.909 319.506,271.504" stroke-width="5.809" stroke="black" fill="none" stroke-linecap="round"></path><path d="M 319.506,271.504 C 318.619,263.520 318.687,263.512 317.908,255.516" stroke-width="4.928" stroke="black" fill="none" stroke-linecap="round"></path><path d="M 317.908,255.516 C 317.089,247.124 317.090,247.124 316.310,238.728" stroke-width="4.634" stroke="black" fill="none" stroke-linecap="round"></path><path d="M 316.310,238.728 C 315.492,229.936 315.511,229.935 314.712,221.141" stroke-width="4.500" stroke="black" fill="none" stroke-linecap="round"></path><path d="M 314.712,221.141 C 313.913,212.348 313.647,212.360 313.114,203.554" stroke-width="4.500" stroke="black" fill="none" stroke-linecap="round"></path><path d="M 313.114,203.554 C 312.848,199.170 312.981,199.155 313.114,194.761" stroke-width="5.314" stroke="black" fill="none" stroke-linecap="round"></path><path d="M 313.114,194.761 C 313.380,185.964 312.876,185.890 313.913,177.174" stroke-width="4.656" stroke="black" fill="none" stroke-linecap="round"></path><path d="M 313.913,177.174 C 314.873,169.102 315.001,169.045 317.109,161.186" stroke-width="4.515" stroke="black" fill="none" stroke-linecap="round"></path><path d="M 317.109,161.186 C 319.396,152.657 319.353,152.564 322.702,144.398" stroke-width="4.500" stroke="black" fill="none" stroke-linecap="round"></path><path d="M 322.702,144.398 C 325.745,136.975 325.159,136.384 329.893,130.009" stroke-width="4.568" stroke="black" fill="none" stroke-linecap="round"></path><path d="M 329.893,130.009 C 335.546,122.395 336.312,122.760 343.476,116.419" stroke-width="4.502" stroke="black" fill="none" stroke-linecap="round"></path><path d="M 343.476,116.419 C 346.699,113.567 346.872,113.633 350.667,111.623" stroke-width="5.436" stroke="black" fill="none" stroke-linecap="round"></path><path d="M 350.667,111.623 C 353.664,110.036 353.976,109.019 357.059,109.225" stroke-width="6.090" stroke="black" fill="none" stroke-linecap="round"></path><path d="M 357.059,109.225 C 359.968,109.419 361.404,109.925 362.652,112.422" stroke-width="7.446" stroke="black" fill="none" stroke-linecap="round"></path><path d="M 362.652,112.422 C 364.200,115.521 362.652,116.419 362.652,120.416" stroke-width="7.304" stroke="black" fill="none" stroke-linecap="round"></path><path d="M 362.652,120.416 C 362.652,123.214 362.997,123.252 362.652,126.012" stroke-width="6.923" stroke="black" fill="none" stroke-linecap="round"></path><path d="M 362.652,126.012 C 362.198,129.647 362.387,129.799 361.054,133.207" stroke-width="6.459" stroke="black" fill="none" stroke-linecap="round"></path><path d="M 361.054,133.207 C 358.791,138.992 358.946,139.250 355.461,144.398" stroke-width="5.511" stroke="black" fill="none" stroke-linecap="round"></path><path d="M 355.461,144.398 C 350.557,151.641 349.925,151.241 344.275,157.988" stroke-width="4.801" stroke="black" fill="none" stroke-linecap="round"></path><path d="M 344.275,157.988 C 337.540,166.030 337.887,166.366 330.692,173.976" stroke-width="4.500" stroke="black" fill="none" stroke-linecap="round"></path><path d="M 330.692,173.976 C 323.905,181.155 323.512,180.784 316.310,187.566" stroke-width="4.500" stroke="black" fill="none" stroke-linecap="round"></path><path d="M 316.310,187.566 C 309.929,193.574 309.931,193.576 303.526,199.557" stroke-width="4.500" stroke="black" fill="none" stroke-linecap="round"></path><path d="M 303.526,199.557 C 297.946,204.768 297.849,204.667 292.340,209.950" stroke-width="4.614" stroke="black" fill="none" stroke-linecap="round"></path><path d="M 292.340,209.950 C 288.261,213.860 288.755,214.516 284.350,217.944" stroke-width="5.141" stroke="black" fill="none" stroke-linecap="round"></path><path d="M 284.350,217.944 C 281.564,220.111 281.234,219.736 277.958,221.141" stroke-width="6.046" stroke="black" fill="none" stroke-linecap="round"></path><path d="M 277.958,221.141 C 275.641,222.135 275.148,223.336 273.164,222.740" stroke-width="6.511" stroke="black" fill="none" stroke-linecap="round"></path><path d="M 273.164,222.740 C 271.153,222.137 270.731,221.034 269.968,218.743" stroke-width="7.709" stroke="black" fill="none" stroke-linecap="round"></path><path d="M 269.968,218.743 C 269.133,216.238 269.968,215.945 269.968,213.147" stroke-width="7.722" stroke="black" fill="none" stroke-linecap="round"></path><path d="M 269.968,213.147 C 269.968,209.550 270.551,205.953 269.968,205.953" stroke-width="7.837" stroke="black" fill="none" stroke-linecap="round"></path><path d="M 269.968,205.953 C 269.353,205.953 268.900,209.600 267.571,213.147" stroke-width="8.308" stroke="black" fill="none" stroke-linecap="round"></path><path d="M 267.571,213.147 C 266.503,215.995 266.751,216.178 265.174,218.743" stroke-width="6.970" stroke="black" fill="none" stroke-linecap="round"></path><path d="M 265.174,218.743 C 263.556,221.374 263.176,221.141 261.179,223.539" stroke-width="6.694" stroke="black" fill="none" stroke-linecap="round"></path><path d="M 261.179,223.539 C 259.181,225.938 259.469,226.258 257.184,228.336" stroke-width="6.616" stroke="black" fill="none" stroke-linecap="round"></path><path d="M 257.184,228.336 C 255.074,230.255 254.387,231.933 252.390,231.534" stroke-width="7.336" stroke="black" fill="none" stroke-linecap="round"></path><path d="M 252.390,231.534 C 250.392,231.134 250.386,229.323 249.194,226.737" stroke-width="7.846" stroke="black" fill="none" stroke-linecap="round"></path><path d="M 249.194,226.737 C 247.989,224.126 248.269,220.198 247.596,221.141" stroke-width="7.732" stroke="black" fill="none" stroke-linecap="round"></path><path d="M 247.596,221.141 C 246.271,222.996 245.784,226.672 245.199,232.333" stroke-width="8.061" stroke="black" fill="none" stroke-linecap="round"></path><path d="M 245.199,232.333 C 244.585,238.263 245.392,238.334 245.199,244.324" stroke-width="5.995" stroke="black" fill="none" stroke-linecap="round"></path><path d="M 245.199,244.324 C 244.992,250.725 245.016,250.740 244.400,257.114" stroke-width="5.260" stroke="black" fill="none" stroke-linecap="round"></path><path d="M 244.400,257.114 C 243.818,263.131 243.721,263.129 242.802,269.105" stroke-width="5.259" stroke="black" fill="none" stroke-linecap="round"></path><path d="M 242.802,269.105 C 242.123,273.521 242.002,273.502 241.203,277.899" stroke-width="5.691" stroke="black" fill="none" stroke-linecap="round"></path><circle r="3" cx="298.7315979003906" cy="303.4797668457031" fill="black"></circle><path d="M 283.551,119.617 C 282.352,115.220 282.373,115.215 281.154,110.824" stroke-width="8.065" stroke="black" fill="none" stroke-linecap="round"></path><path d="M 281.154,110.824 C 280.375,108.020 280.164,108.066 279.556,105.228" stroke-width="7.062" stroke="black" fill="none" stroke-linecap="round"></path><path d="M 279.556,105.228 C 278.965,102.471 279.130,102.433 278.757,99.632" stroke-width="6.844" stroke="black" fill="none" stroke-linecap="round"></path><path d="M 278.757,99.632 C 278.331,96.438 277.256,93.061 277.958,93.237" stroke-width="7.334" stroke="black" fill="none" stroke-linecap="round"></path><path d="M 277.958,93.237 C 278.854,93.461 279.912,96.858 281.953,100.431" stroke-width="7.798" stroke="black" fill="none" stroke-linecap="round"></path><path d="M 281.953,100.431 C 284.706,105.252 285.145,105.035 287.546,110.024" stroke-width="5.874" stroke="black" fill="none" stroke-linecap="round"></path><path d="M 287.546,110.024 C 290.338,115.827 289.872,116.049 292.340,122.015" stroke-width="5.321" stroke="black" fill="none" stroke-linecap="round"></path><path d="M 292.340,122.015 C 294.666,127.640 294.594,127.676 297.134,133.207" stroke-width="5.267" stroke="black" fill="none" stroke-linecap="round"></path><path d="M 297.134,133.207 C 301.385,142.465 301.917,142.243 305.923,151.593" stroke-width="4.584" stroke="black" fill="none" stroke-linecap="round"></path><path d="M 305.923,151.593 C 307.910,156.232 307.597,156.366 309.119,161.186" stroke-width="5.277" stroke="black" fill="none" stroke-linecap="round"></path><path d="M 309.119,161.186 C 309.994,163.960 309.861,164.001 310.717,166.782" stroke-width="6.202" stroke="black" fill="none" stroke-linecap="round"></path><path d="M 310.717,166.782 C 311.460,169.197 313.308,171.247 312.315,171.578" stroke-width="6.699" stroke="black" fill="none" stroke-linecap="round"></path><path d="M 312.315,171.578 C 310.911,172.046 309.191,169.820 305.923,168.381" stroke-width="7.649" stroke="black" fill="none" stroke-linecap="round"></path><path d="M 305.923,168.381 C 299.204,165.423 299.309,165.051 292.340,162.785" stroke-width="5.541" stroke="black" fill="none" stroke-linecap="round"></path><path d="M 292.340,162.785 C 283.329,159.855 283.175,160.293 273.963,157.988" stroke-width="4.500" stroke="black" fill="none" stroke-linecap="round"></path><path d="M 273.963,157.988 C 263.999,155.496 264.058,155.168 253.988,153.192" stroke-width="4.500" stroke="black" fill="none" stroke-linecap="round"></path><path d="M 253.988,153.192 C 243.684,151.171 243.656,151.019 233.214,149.994" stroke-width="4.500" stroke="black" fill="none" stroke-linecap="round"></path><path d="M 233.214,149.994 C 223.282,149.020 223.225,149.195 213.238,149.195" stroke-width="4.500" stroke="black" fill="none" stroke-linecap="round"></path><path d="M 213.238,149.195 C 204.448,149.195 204.255,148.466 195.660,149.994" stroke-width="4.500" stroke="black" fill="none" stroke-linecap="round"></path><path d="M 195.660,149.994 C 186.278,151.663 186.020,151.724 177.283,155.590" stroke-width="4.500" stroke="black" fill="none" stroke-linecap="round"></path><path d="M 177.283,155.590 C 165.246,160.917 164.945,160.893 154.112,168.381" stroke-width="4.500" stroke="black" fill="none" stroke-linecap="round"></path><path d="M 154.112,168.381 C 142.972,176.081 142.926,176.375 133.338,185.967" stroke-width="4.500" stroke="black" fill="none" stroke-linecap="round"></path><path d="M 133.338,185.967 C 123.750,195.561 123.634,195.723 115.760,206.752" stroke-width="4.500" stroke="black" fill="none" stroke-linecap="round"></path><path d="M 115.760,206.752 C 109.652,215.308 109.328,215.493 105.373,225.138" stroke-width="4.500" stroke="black" fill="none" stroke-linecap="round"></path><path d="M 105.373,225.138 C 102.936,231.082 101.036,232.968 102.976,237.929" stroke-width="4.640" stroke="black" fill="none" stroke-linecap="round"></path><path d="M 102.976,237.929 C 104.632,242.161 107.281,243.525 112.564,243.525" stroke-width="5.175" stroke="black" fill="none" stroke-linecap="round"></path><path d="M 112.564,243.525 C 127.256,243.525 128.234,242.551 142.926,237.929" stroke-width="4.500" stroke="black" fill="none" stroke-linecap="round"></path><path d="M 142.926,237.929 C 191.755,222.566 192.563,223.693 239.605,203.554" stroke-width="4.500" stroke="black" fill="none" stroke-linecap="round"></path><path d="M 239.605,203.554 C 275.659,188.120 273.850,184.126 309.119,166.782" stroke-width="4.500" stroke="black" fill="none" stroke-linecap="round"></path><path d="M 309.119,166.782 C 344.561,149.352 345.169,150.600 381.029,134.006" stroke-width="4.500" stroke="black" fill="none" stroke-linecap="round"></path><path d="M 381.029,134.006 C 409.089,121.022 409.031,120.893 436.959,107.626" stroke-width="4.500" stroke="black" fill="none" stroke-linecap="round"></path><path d="M 436.959,107.626 C 464.561,94.513 464.705,94.776 492.090,81.246" stroke-width="4.500" stroke="black" fill="none" stroke-linecap="round"></path><path d="M 492.090,81.246 C 497.064,78.788 497.007,78.641 501.678,75.650" stroke-width="4.500" stroke="black" fill="none" stroke-linecap="round"></path><path d="M 501.678,75.650 C 506.994,72.246 511.606,69.604 512.065,68.455" stroke-width="4.581" stroke="black" fill="none" stroke-linecap="round"></path><path d="M 512.065,68.455 C 512.405,67.605 507.266,69.245 503.276,71.653" stroke-width="6.467" stroke="black" fill="none" stroke-linecap="round"></path><path d="M 503.276,71.653 C 482.097,84.434 483.078,86.197 461.728,98.833" stroke-width="4.500" stroke="black" fill="none" stroke-linecap="round"></path><path d="M 461.728,98.833 C 426.349,119.771 426.007,119.251 389.818,138.803" stroke-width="4.500" stroke="black" fill="none" stroke-linecap="round"></path><path d="M 389.818,138.803 C 346.107,162.418 345.920,162.075 301.928,185.168" stroke-width="4.500" stroke="black" fill="none" stroke-linecap="round"></path><path d="M 301.928,185.168 C 256.831,208.840 255.806,207.052 211.640,232.333" stroke-width="4.500" stroke="black" fill="none" stroke-linecap="round"></path><path d="M 211.640,232.333 C 172.710,254.617 173.500,256.024 135.735,280.297" stroke-width="4.500" stroke="black" fill="none" stroke-linecap="round"></path><path d="M 135.735,280.297 C 107.583,298.392 107.274,297.984 79.805,317.070" stroke-width="4.500" stroke="black" fill="none" stroke-linecap="round"></path><path d="M 79.805,317.070 C 64.128,327.962 64.845,328.970 49.443,340.252" stroke-width="4.500" stroke="black" fill="none" stroke-linecap="round"></path><path d="M 296.335,291.489 C 290.342,293.088 290.109,292.419 284.350,294.686" stroke-width="7.810" stroke="black" fill="none" stroke-linecap="round"></path><path d="M 284.350,294.686 C 265.739,302.012 265.973,302.680 247.596,310.674" stroke-width="4.500" stroke="black" fill="none" stroke-linecap="round"></path></svg>