<svg xmlns="http://www.w3.org/2000/svg" xmlns:xlink="http://www.w3.org/1999/xlink" viewBox="0 0 576 416" width="576" height="416"><circle r="3" cx="329.8926696777344" cy="276.2577209472656" fill="black"></circle><path d="M 328.295,292.246 C 328.694,287.449 328.472,287.420 329.094,282.653" stroke-width="7.968" stroke="black" fill="none" stroke-linecap="round"></path><path d="M 329.094,282.653 C 329.671,278.227 329.772,278.230 330.692,273.860" stroke-width="6.397" stroke="black" fill="none" stroke-linecap="round"></path><path d="M 330.692,273.860 C 331.370,270.636 331.152,270.553 332.290,267.464" stroke-width="6.459" stroke="black" fill="none" stroke-linecap="round"></path><path d="M 332.290,267.464 C 336.745,255.364 335.971,254.894 341.878,243.482" stroke-width="4.500" stroke="black" fill="none" stroke-linecap="round"></path><path d="M 341.878,243.482 C 347.556,232.511 348.456,232.941 355.461,222.698" stroke-width="4.500" stroke="black" fill="none" stroke-linecap="round"></path><path d="M 355.461,222.698 C 358.843,217.752 358.566,217.465 362.652,213.105" stroke-width="4.789" stroke="black" fill="none" stroke-linecap="round"></path><path d="M 362.652,213.105 C 370.551,204.675 370.315,204.164 379.431,197.117" stroke-width="4.500" stroke="black" fill="none" stroke-linecap="round"></path><path d="M 379.431,197.117 C 387.893,190.574 388.191,190.629 397.808,185.925" stroke-width="4.500" stroke="black" fill="none" stroke-linecap="round"></path><path d="M 397.808,185.925 C 406.168,181.836 406.374,181.837 415.386,179.530" stroke-width="4.500" stroke="black" fill="none" stroke-linecap="round"></path><path d="M 415.386,179.530 C 423.552,177.440 423.739,177.543 432.165,177.132" stroke-width="4.500" stroke="black" fill="none" stroke-linecap="round"></path><path d="M 432.165,177.132 C 440.119,176.744 440.468,176.159 448.145,177.931" stroke-width="4.500" stroke="black" fill="none" stroke-linecap="round"></path><path d="M 448.145,177.931 C 456.049,179.756 457.307,179.673 463.326,184.326" stroke-width="4.500" stroke="black" fill="none" stroke-linecap="round"></path><path d="M 463.326,184.326 C 466.096,186.468 467.457,188.702 465.723,191.521" stroke-width="5.554" stroke="black" fill="none" stroke-linecap="round"></path><path d="M 465.723,191.521 C 461.065,199.094 458.963,199.494 450.542,205.111" stroke-width="5.647" stroke="black" fill="none" stroke-linecap="round"></path><path d="M 450.542,205.111 C 437.390,213.883 437.053,213.782 422.577,220.299" stroke-width="4.500" stroke="black" fill="none" stroke-linecap="round"></path><path d="M 422.577,220.299 C 405.092,228.171 404.756,227.539 386.622,233.889" stroke-width="4.500" stroke="black" fill="none" stroke-linecap="round"></path><path d="M 386.622,233.889 C 364.806,241.529 364.849,241.766 342.677,248.279" stroke-width="4.500" stroke="black" fill="none" stroke-linecap="round"></path><path d="M 342.677,248.279 C 321.304,254.557 321.256,254.549 299.531,259.470" stroke-width="4.500" stroke="black" fill="none" stroke-linecap="round"></path><path d="M 299.531,259.470 C 278.909,264.142 278.827,263.883 257.983,267.464" stroke-width="4.500" stroke="black" fill="none" stroke-linecap="round"></path><path d="M 257.983,267.464 C 239.277,270.678 239.255,270.651 220.429,273.060" stroke-width="4.500" stroke="black" fill="none" stroke-linecap="round"></path><path d="M 220.429,273.060 C 204.898,275.048 204.884,275.352 189.268,276.258" stroke-width="4.500" stroke="black" fill="none" stroke-linecap="round"></path><path d="M 189.268,276.258 C 177.319,276.951 177.175,277.248 165.298,276.258" stroke-width="4.500" stroke="black" fill="none" stroke-linecap="round"></path><path d="M 165.298,276.258 C 157.999,275.649 157.441,275.961 150.916,273.060" stroke-width="4.500" stroke="black" fill="none" stroke-linecap="round"></path><path d="M 150.916,273.060 C 146.655,271.165 146.214,270.513 143.725,266.665" stroke-width="5.226" stroke="black" fill="none" stroke-linecap="round"></path><path d="M 143.725,266.665 C 141.819,263.718 141.268,262.738 142.127,259.470" stroke-width="5.921" stroke="black" fill="none" stroke-linecap="round"></path><path d="M 142.127,259.470 C 143.265,255.144 144.467,255.073 147.720,251.476" stroke-width="6.633" stroke="black" fill="none" stroke-linecap="round"></path><path d="M 147.720,251.476 C 152.058,246.680 152.238,246.741 157.308,242.683" stroke-width="5.479" stroke="black" fill="none" stroke-linecap="round"></path><path d="M 157.308,242.683 C 164.223,237.148 164.233,237.073 171.690,232.291" stroke-width="4.679" stroke="black" fill="none" stroke-linecap="round"></path><path d="M 171.690,232.291 C 179.814,227.081 179.952,227.256 188.469,222.698" stroke-width="4.500" stroke="black" fill="none" stroke-linecap="round"></path><path d="M 188.469,222.698 C 197.131,218.063 197.258,218.301 206.047,213.904" stroke-width="4.500" stroke="black" fill="none" stroke-linecap="round"></path><path d="M 206.047,213.904 C 214.836,209.508 214.878,209.589 223.625,205.111" stroke-width="4.500" stroke="black" fill="none" stroke-linecap="round"></path><path d="M 223.625,205.111 C 232.056,200.795 232.201,201.037 240.405,196.317" stroke-width="4.500" stroke="black" fill="none" stroke-linecap="round"></path><path d="M 240.405,196.317 C 248.181,191.844 248.187,191.800 255.586,186.725" stroke-width="4.500" stroke="black" fill="none" stroke-linecap="round"></path><path d="M 255.586,186.725 C 262.170,182.207 262.207,182.209 268.370,177.132" stroke-width="4.543" stroke="black" fill="none" stroke-linecap="round"></path><path d="M 268.370,177.132 C 275.790,171.017 275.462,170.622 282.752,164.341" stroke-width="4.500" stroke="black" fill="none" stroke-linecap="round"></path><path d="M 282.752,164.341 C 289.844,158.231 290.224,158.654 297.134,152.350" stroke-width="4.500" stroke="black" fill="none" stroke-linecap="round"></path><path d="M 297.134,152.350 C 303.807,146.263 303.632,146.058 309.918,139.560" stroke-width="4.500" stroke="black" fill="none" stroke-linecap="round"></path><path d="M 309.918,139.560 C 315.617,133.667 315.889,133.873 321.104,127.569" stroke-width="4.506" stroke="black" fill="none" stroke-linecap="round"></path><path d="M 321.104,127.569 C 325.477,122.282 325.797,122.355 329.094,116.377" stroke-width="4.825" stroke="black" fill="none" stroke-linecap="round"></path><path d="M 329.094,116.377 C 332.189,110.763 332.512,110.578 333.888,104.386" stroke-width="5.024" stroke="black" fill="none" stroke-linecap="round"></path><path d="M 333.888,104.386 C 334.909,99.786 335.145,99.069 333.888,94.793" stroke-width="5.513" stroke="black" fill="none" stroke-linecap="round"></path><path d="M 333.888,94.793 C 333.147,92.274 332.255,92.289 329.893,90.796" stroke-width="6.263" stroke="black" fill="none" stroke-linecap="round"></path><path d="M 329.893,90.796 C 324.664,87.492 324.644,86.897 318.707,85.200" stroke-width="5.564" stroke="black" fill="none" stroke-linecap="round"></path><path d="M 318.707,85.200 C 310.661,82.900 310.358,83.177 301.928,82.802" stroke-width="4.779" stroke="black" fill="none" stroke-linecap="round"></path><path d="M 301.928,82.802 C 292.381,82.378 292.248,82.438 282.752,83.602" stroke-width="4.500" stroke="black" fill="none" stroke-linecap="round"></path><path d="M 282.752,83.602 C 272.672,84.836 272.318,84.344 262.777,87.599" stroke-width="4.500" stroke="black" fill="none" stroke-linecap="round"></path><path d="M 262.777,87.599 C 254.740,90.340 254.688,90.862 247.596,95.593" stroke-width="4.500" stroke="black" fill="none" stroke-linecap="round"></path><path d="M 247.596,95.593 C 241.504,99.655 240.870,99.505 236.410,105.185" stroke-width="4.681" stroke="black" fill="none" stroke-linecap="round"></path><path d="M 236.410,105.185 C 232.081,110.697 232.378,111.284 230.017,117.976" stroke-width="4.910" stroke="black" fill="none" stroke-linecap="round"></path><path d="M 230.017,117.976 C 227.584,124.874 227.677,125.089 226.822,132.365" stroke-width="4.847" stroke="black" fill="none" stroke-linecap="round"></path><path d="M 226.822,132.365 C 226.079,138.679 226.051,138.837 226.822,145.156" stroke-width="4.954" stroke="black" fill="none" stroke-linecap="round"></path><path d="M 226.822,145.156 C 228.049,155.224 228.349,155.264 230.816,165.141" stroke-width="4.500" stroke="black" fill="none" stroke-linecap="round"></path><path d="M 230.816,165.141 C 233.542,176.049 233.887,175.971 237.208,186.725" stroke-width="4.500" stroke="black" fill="none" stroke-linecap="round"></path><path d="M 237.208,186.725 C 240.678,197.955 240.987,197.861 244.400,209.108" stroke-width="4.500" stroke="black" fill="none" stroke-linecap="round"></path><path d="M 244.400,209.108 C 247.778,220.244 247.873,220.228 250.792,231.491" stroke-width="4.500" stroke="black" fill="none" stroke-linecap="round"></path><path d="M 250.792,231.491 C 253.466,241.812 253.536,241.816 255.586,252.276" stroke-width="4.500" stroke="black" fill="none" stroke-linecap="round"></path><path d="M 255.586,252.276 C 257.531,262.201 257.379,262.241 258.782,272.261" stroke-width="4.500" stroke="black" fill="none" stroke-linecap="round"></path><path d="M 258.782,272.261 C 260.176,282.226 260.326,282.225 261.179,292.246" stroke-width="4.500" stroke="black" fill="none" stroke-linecap="round"></path><path d="M 261.179,292.246 C 261.924,301.011 261.549,301.041 261.978,309.833" stroke-width="4.500" stroke="black" fill="none" stroke-linecap="round"></path><path d="M 261.978,309.833 C 262.348,317.428 262.330,317.430 262.777,325.021" stroke-width="4.612" stroke="black" fill="none" stroke-linecap="round"></path><path d="M 262.777,325.021 C 263.129,331.020 263.097,331.023 263.576,337.012" stroke-width="5.135" stroke="black" fill="none" stroke-linecap="round"></path><path d="M 263.576,337.012 C 263.896,341.016 263.954,341.012 264.375,345.006" stroke-width="5.706" stroke="black" fill="none" stroke-linecap="round"></path><circle r="3" cx="315.5106201171875" cy="356.1980895996094" fill="black"></circle></svg>