<svg xmlns="http://www.w3.org/2000/svg" xmlns:xlink="http://www.w3.org/1999/xlink" viewBox="0 0 576 416" width="576" height="416"><path d="M 183.675,371.429 C 183.675,363.035 183.235,363.010 183.675,354.642" stroke-width="8.062" stroke="black" fill="none" stroke-linecap="round"></path><path d="M 183.675,354.642 C 184.034,347.821 184.538,347.854 185.273,341.052" stroke-width="5.631" stroke="black" fill="none" stroke-linecap="round"></path><path d="M 185.273,341.052 C 186.136,333.065 186.092,333.060 186.871,325.064" stroke-width="4.888" stroke="black" fill="none" stroke-linecap="round"></path><path d="M 186.871,325.064 C 187.690,316.672 187.450,316.643 188.469,308.276" stroke-width="4.623" stroke="black" fill="none" stroke-linecap="round"></path><path d="M 188.469,308.276 C 189.447,300.255 189.865,300.307 190.866,292.288" stroke-width="4.616" stroke="black" fill="none" stroke-linecap="round"></path><path d="M 190.866,292.288 C 191.862,284.319 191.444,284.266 192.464,276.300" stroke-width="4.713" stroke="black" fill="none" stroke-linecap="round"></path><path d="M 192.464,276.300 C 193.441,268.677 193.631,268.701 194.861,261.111" stroke-width="4.626" stroke="black" fill="none" stroke-linecap="round"></path><path d="M 194.861,261.111 C 196.028,253.912 196.228,253.941 197.258,246.722" stroke-width="4.862" stroke="black" fill="none" stroke-linecap="round"></path><path d="M 197.258,246.722 C 198.225,239.951 198.238,239.943 198.856,233.132" stroke-width="4.948" stroke="black" fill="none" stroke-linecap="round"></path><path d="M 198.856,233.132 C 199.436,226.753 199.456,226.743 199.655,220.342" stroke-width="5.075" stroke="black" fill="none" stroke-linecap="round"></path><path d="M 199.655,220.342 C 199.855,213.953 200.094,213.913 199.655,207.551" stroke-width="5.118" stroke="black" fill="none" stroke-linecap="round"></path><path d="M 199.655,207.551 C 199.295,202.322 199.040,202.318 198.057,197.159" stroke-width="5.500" stroke="black" fill="none" stroke-linecap="round"></path><path d="M 198.057,197.159 C 197.442,193.925 197.764,193.747 196.459,190.764" stroke-width="6.084" stroke="black" fill="none" stroke-linecap="round"></path><path d="M 196.459,190.764 C 194.967,187.352 194.403,187.601 192.464,184.369" stroke-width="6.189" stroke="black" fill="none" stroke-linecap="round"></path><path d="M 192.464,184.369 C 190.808,181.606 191.184,181.328 189.268,178.773" stroke-width="6.421" stroke="black" fill="none" stroke-linecap="round"></path><path d="M 189.268,178.773 C 187.589,176.532 187.499,176.488 185.273,174.776" stroke-width="6.651" stroke="black" fill="none" stroke-linecap="round"></path><path d="M 185.273,174.776 C 182.305,172.491 181.342,170.163 178.881,170.779" stroke-width="7.136" stroke="black" fill="none" stroke-linecap="round"></path><path d="M 178.881,170.779 C 176.548,171.362 176.582,173.811 175.685,177.174" stroke-width="7.813" stroke="black" fill="none" stroke-linecap="round"></path><path d="M 175.685,177.174 C 174.984,179.806 175.341,180.010 175.685,182.770" stroke-width="7.053" stroke="black" fill="none" stroke-linecap="round"></path><path d="M 175.685,182.770 C 176.140,186.405 176.484,186.367 177.283,189.965" stroke-width="6.492" stroke="black" fill="none" stroke-linecap="round"></path><path d="M 177.283,189.965 C 178.082,193.562 177.825,193.637 178.881,197.159" stroke-width="6.341" stroke="black" fill="none" stroke-linecap="round"></path><path d="M 178.881,197.159 C 180.222,201.631 180.148,201.705 182.077,205.953" stroke-width="5.956" stroke="black" fill="none" stroke-linecap="round"></path><path d="M 182.077,205.953 C 184.143,210.499 184.271,210.472 186.871,214.746" stroke-width="5.748" stroke="black" fill="none" stroke-linecap="round"></path><path d="M 186.871,214.746 C 189.864,219.665 190.194,219.462 193.263,224.339" stroke-width="5.473" stroke="black" fill="none" stroke-linecap="round"></path><path d="M 193.263,224.339 C 196.986,230.254 196.752,230.402 200.454,236.330" stroke-width="5.088" stroke="black" fill="none" stroke-linecap="round"></path><path d="M 200.454,236.330 C 202.744,239.995 202.784,239.974 205.248,243.525" stroke-width="5.744" stroke="black" fill="none" stroke-linecap="round"></path><path d="M 205.248,243.525 C 212.771,254.363 212.883,254.286 220.429,265.108" stroke-width="4.500" stroke="black" fill="none" stroke-linecap="round"></path><path d="M 220.429,265.108 C 224.868,271.473 225.015,271.381 229.218,277.899" stroke-width="4.500" stroke="black" fill="none" stroke-linecap="round"></path><path d="M 229.218,277.899 C 233.005,283.772 232.783,283.913 236.410,289.890" stroke-width="4.770" stroke="black" fill="none" stroke-linecap="round"></path><path d="M 236.410,289.890 C 239.574,295.105 240.002,294.881 242.802,300.282" stroke-width="5.089" stroke="black" fill="none" stroke-linecap="round"></path><path d="M 242.802,300.282 C 245.595,305.673 245.413,305.797 247.596,311.474" stroke-width="5.197" stroke="black" fill="none" stroke-linecap="round"></path><path d="M 247.596,311.474 C 249.408,316.189 249.570,316.177 250.792,321.067" stroke-width="5.580" stroke="black" fill="none" stroke-linecap="round"></path><path d="M 250.792,321.067 C 251.967,325.770 252.189,325.839 252.390,330.660" stroke-width="5.592" stroke="black" fill="none" stroke-linecap="round"></path><path d="M 252.390,330.660 C 252.588,335.431 252.603,335.590 251.591,340.252" stroke-width="5.699" stroke="black" fill="none" stroke-linecap="round"></path><path d="M 251.591,340.252 C 250.606,344.784 249.872,344.610 248.395,349.046" stroke-width="6.587" stroke="black" fill="none" stroke-linecap="round"></path><path d="M 248.395,349.046 C 247.475,351.805 247.836,351.937 246.797,354.642" stroke-width="6.669" stroke="black" fill="none" stroke-linecap="round"></path><path d="M 246.797,354.642 C 245.839,357.133 245.522,357.005 244.400,359.438" stroke-width="6.789" stroke="black" fill="none" stroke-linecap="round"></path><path d="M 244.400,359.438 C 243.125,362.201 241.139,364.861 242.003,365.034" stroke-width="7.359" stroke="black" fill="none" stroke-linecap="round"></path><path d="M 242.003,365.034 C 243.136,365.261 245.384,362.857 248.395,360.237" stroke-width="7.649" stroke="black" fill="none" stroke-linecap="round"></path><path d="M 248.395,360.237 C 254.572,354.863 254.420,354.677 260.380,349.046" stroke-width="5.208" stroke="black" fill="none" stroke-linecap="round"></path><path d="M 260.380,349.046 C 268.802,341.087 268.871,341.156 277.159,333.058" stroke-width="4.500" stroke="black" fill="none" stroke-linecap="round"></path><path d="M 277.159,333.058 C 286.050,324.369 285.848,324.162 294.737,315.471" stroke-width="4.500" stroke="black" fill="none" stroke-linecap="round"></path><path d="M 294.737,315.471 C 303.426,306.975 303.726,307.277 312.315,298.683" stroke-width="4.500" stroke="black" fill="none" stroke-linecap="round"></path><path d="M 312.315,298.683 C 320.105,290.889 320.245,290.986 327.496,282.695" stroke-width="4.500" stroke="black" fill="none" stroke-linecap="round"></path><path d="M 327.496,282.695 C 334.228,274.998 334.057,274.828 340.280,266.707" stroke-width="4.500" stroke="black" fill="none" stroke-linecap="round"></path><path d="M 340.280,266.707 C 343.245,262.837 342.965,262.629 345.873,258.713" stroke-width="5.072" stroke="black" fill="none" stroke-linecap="round"></path><path d="M 345.873,258.713 C 353.352,248.640 353.927,249.027 361.054,238.728" stroke-width="4.500" stroke="black" fill="none" stroke-linecap="round"></path><path d="M 361.054,238.728 C 364.714,233.439 364.668,233.326 367.446,227.536" stroke-width="4.711" stroke="black" fill="none" stroke-linecap="round"></path><path d="M 367.446,227.536 C 369.462,223.334 369.516,223.250 370.642,218.743" stroke-width="5.427" stroke="black" fill="none" stroke-linecap="round"></path><path d="M 370.642,218.743 C 371.513,215.256 371.441,215.139 371.441,211.548" stroke-width="6.018" stroke="black" fill="none" stroke-linecap="round"></path><path d="M 371.441,211.548 C 371.441,208.744 372.135,206.513 370.642,205.953" stroke-width="7.133" stroke="black" fill="none" stroke-linecap="round"></path><path d="M 370.642,205.953 C 368.939,205.314 366.370,206.695 365.049,209.150" stroke-width="7.949" stroke="black" fill="none" stroke-linecap="round"></path><path d="M 365.049,209.150 C 363.573,211.892 364.724,212.772 365.049,216.345" stroke-width="6.737" stroke="black" fill="none" stroke-linecap="round"></path><path d="M 365.049,216.345 C 365.523,221.566 365.298,221.679 366.647,226.737" stroke-width="5.868" stroke="black" fill="none" stroke-linecap="round"></path><path d="M 366.647,226.737 C 368.495,233.670 368.609,233.716 371.441,240.327" stroke-width="5.133" stroke="black" fill="none" stroke-linecap="round"></path><path d="M 371.441,240.327 C 374.602,247.706 374.290,248.003 378.632,254.716" stroke-width="4.766" stroke="black" fill="none" stroke-linecap="round"></path><path d="M 378.632,254.716 C 383.079,261.593 383.599,261.309 389.019,267.507" stroke-width="4.627" stroke="black" fill="none" stroke-linecap="round"></path><path d="M 389.019,267.507 C 394.785,274.100 394.615,274.331 401.004,280.297" stroke-width="4.500" stroke="black" fill="none" stroke-linecap="round"></path><path d="M 401.004,280.297 C 406.600,285.522 406.996,285.094 412.989,289.890" stroke-width="4.654" stroke="black" fill="none" stroke-linecap="round"></path></svg>