<svg xmlns="http://www.w3.org/2000/svg" xmlns:xlink="http://www.w3.org/1999/xlink" viewBox="0 0 576 416" width="576" height="416"><path d="M 301.928,221.940 C 303.126,217.144 303.003,217.108 304.325,212.347" stroke-width="8.747" stroke="black" fill="none" stroke-linecap="round"></path><path d="M 304.325,212.347 C 305.000,209.913 305.124,209.949 305.923,207.551" stroke-width="7.396" stroke="black" fill="none" stroke-linecap="round"></path><path d="M 305.923,207.551 C 307.121,203.953 307.307,204.005 308.320,200.356" stroke-width="6.618" stroke="black" fill="none" stroke-linecap="round"></path><path d="M 308.320,200.356 C 309.304,196.810 308.981,196.723 309.918,193.162" stroke-width="6.376" stroke="black" fill="none" stroke-linecap="round"></path><path d="M 309.918,193.162 C 310.978,189.129 311.059,189.146 312.315,185.167" stroke-width="6.046" stroke="black" fill="none" stroke-linecap="round"></path><path d="M 312.315,185.167 C 313.456,181.552 313.756,181.637 314.712,177.973" stroke-width="6.169" stroke="black" fill="none" stroke-linecap="round"></path><path d="M 314.712,177.973 C 316.153,172.443 315.784,172.346 317.109,166.781" stroke-width="6.484" stroke="black" fill="none" stroke-linecap="round"></path><path d="M 317.109,166.781 C 317.782,163.952 317.788,163.944 318.707,161.185" stroke-width="6.637" stroke="black" fill="none" stroke-linecap="round"></path><path d="M 318.707,161.185 C 319.785,157.948 319.037,157.087 321.104,154.790" stroke-width="7.215" stroke="black" fill="none" stroke-linecap="round"></path><path d="M 321.104,154.790 C 322.633,153.090 323.564,152.779 325.898,153.191" stroke-width="7.888" stroke="black" fill="none" stroke-linecap="round"></path><path d="M 325.898,153.191 C 330.356,153.979 330.333,155.105 334.687,157.188" stroke-width="7.285" stroke="black" fill="none" stroke-linecap="round"></path><path d="M 334.687,157.188 C 339.521,159.502 339.415,159.727 344.275,161.985" stroke-width="5.845" stroke="black" fill="none" stroke-linecap="round"></path><path d="M 344.275,161.985 C 350.601,164.923 350.625,164.881 357.059,167.581" stroke-width="5.183" stroke="black" fill="none" stroke-linecap="round"></path><path d="M 357.059,167.581 C 363.010,170.078 363.199,169.662 369.044,172.377" stroke-width="5.135" stroke="black" fill="none" stroke-linecap="round"></path><path d="M 369.044,172.377 C 374.385,174.858 374.244,175.162 379.431,177.973" stroke-width="5.258" stroke="black" fill="none" stroke-linecap="round"></path><path d="M 379.431,177.973 C 383.832,180.358 383.874,180.285 388.220,182.769" stroke-width="5.536" stroke="black" fill="none" stroke-linecap="round"></path><path d="M 388.220,182.769 C 392.264,185.081 392.301,185.035 396.210,187.566" stroke-width="5.806" stroke="black" fill="none" stroke-linecap="round"></path><path d="M 396.210,187.566 C 399.093,189.432 399.172,189.369 401.803,191.563" stroke-width="6.140" stroke="black" fill="none" stroke-linecap="round"></path><path d="M 401.803,191.563 C 403.966,193.366 404.747,193.106 405.798,195.560" stroke-width="6.558" stroke="black" fill="none" stroke-linecap="round"></path><path d="M 405.798,195.560 C 407.144,198.702 408.152,199.954 406.597,202.754" stroke-width="7.139" stroke="black" fill="none" stroke-linecap="round"></path><path d="M 406.597,202.754 C 404.157,207.148 402.441,206.704 397.808,209.949" stroke-width="7.293" stroke="black" fill="none" stroke-linecap="round"></path><path d="M 397.808,209.949 C 394.451,212.300 394.327,212.188 390.617,213.946" stroke-width="6.387" stroke="black" fill="none" stroke-linecap="round"></path><path d="M 390.617,213.946 C 386.736,215.785 386.622,215.545 382.627,217.144" stroke-width="6.093" stroke="black" fill="none" stroke-linecap="round"></path><path d="M 382.627,217.144 C 378.632,218.742 378.657,218.809 374.637,220.341" stroke-width="6.010" stroke="black" fill="none" stroke-linecap="round"></path><path d="M 374.637,220.341 C 370.268,222.007 370.282,222.060 365.848,223.539" stroke-width="5.866" stroke="black" fill="none" stroke-linecap="round"></path><path d="M 365.848,223.539 C 361.892,224.858 361.835,224.681 357.858,225.937" stroke-width="6.132" stroke="black" fill="none" stroke-linecap="round"></path><path d="M 357.858,225.937 C 354.244,227.079 354.195,226.963 350.667,228.335" stroke-width="6.024" stroke="black" fill="none" stroke-linecap="round"></path><path d="M 350.667,228.335 C 347.004,229.760 346.990,229.775 343.476,231.533" stroke-width="6.113" stroke="black" fill="none" stroke-linecap="round"></path><path d="M 343.476,231.533 C 340.598,232.972 340.792,233.372 337.883,234.731" stroke-width="6.397" stroke="black" fill="none" stroke-linecap="round"></path><path d="M 337.883,234.731 C 334.800,236.170 334.705,235.980 331.491,237.129" stroke-width="6.414" stroke="black" fill="none" stroke-linecap="round"></path><path d="M 331.491,237.129 C 329.112,237.979 329.120,238.014 326.697,238.728" stroke-width="6.772" stroke="black" fill="none" stroke-linecap="round"></path><path d="M 326.697,238.728 C 322.328,240.013 321.853,241.619 317.908,241.126" stroke-width="6.997" stroke="black" fill="none" stroke-linecap="round"></path><path d="M 317.908,241.126 C 315.461,240.820 314.659,239.556 313.913,237.129" stroke-width="7.867" stroke="black" fill="none" stroke-linecap="round"></path><path d="M 313.913,237.129 C 313.061,234.360 314.082,233.884 314.712,230.734" stroke-width="7.654" stroke="black" fill="none" stroke-linecap="round"></path><path d="M 314.712,230.734 C 315.280,227.889 315.270,227.842 316.310,225.138" stroke-width="6.964" stroke="black" fill="none" stroke-linecap="round"></path><path d="M 316.310,225.138 C 317.268,222.646 317.359,222.653 318.707,220.341" stroke-width="6.878" stroke="black" fill="none" stroke-linecap="round"></path><path d="M 318.707,220.341 C 320.155,217.856 320.210,217.874 321.903,215.545" stroke-width="6.768" stroke="black" fill="none" stroke-linecap="round"></path><path d="M 321.903,215.545 C 323.406,213.477 323.231,213.273 325.099,211.548" stroke-width="6.872" stroke="black" fill="none" stroke-linecap="round"></path><path d="M 325.099,211.548 C 328.424,208.476 328.327,208.039 332.290,205.952" stroke-width="7.028" stroke="black" fill="none" stroke-linecap="round"></path><path d="M 332.290,205.952 C 335.918,204.042 336.208,204.233 340.280,203.554" stroke-width="7.166" stroke="black" fill="none" stroke-linecap="round"></path><path d="M 340.280,203.554 C 343.399,203.034 345.706,202.008 346.672,203.554" stroke-width="7.740" stroke="black" fill="none" stroke-linecap="round"></path><path d="M 346.672,203.554 C 347.704,205.205 346.265,207.294 344.275,209.949" stroke-width="8.210" stroke="black" fill="none" stroke-linecap="round"></path><path d="M 344.275,209.949 C 341.471,213.690 340.777,213.265 337.084,216.344" stroke-width="7.335" stroke="black" fill="none" stroke-linecap="round"></path><path d="M 337.084,216.344 C 333.586,219.260 333.474,219.125 329.893,221.940" stroke-width="7.167" stroke="black" fill="none" stroke-linecap="round"></path><path d="M 329.893,221.940 C 327.881,223.521 327.781,223.411 325.898,225.138" stroke-width="6.991" stroke="black" fill="none" stroke-linecap="round"></path><path d="M 325.898,225.138 C 322.987,227.808 323.201,228.043 320.305,230.734" stroke-width="7.205" stroke="black" fill="none" stroke-linecap="round"></path><path d="M 320.305,230.734 C 317.608,233.239 317.416,233.032 314.712,235.530" stroke-width="7.338" stroke="black" fill="none" stroke-linecap="round"></path><path d="M 314.712,235.530 C 312.223,237.829 312.422,238.048 309.918,240.326" stroke-width="7.453" stroke="black" fill="none" stroke-linecap="round"></path><path d="M 309.918,240.326 C 308.028,242.045 308.134,242.317 305.923,243.524" stroke-width="7.708" stroke="black" fill="none" stroke-linecap="round"></path><path d="M 305.923,243.524 C 303.739,244.716 303.412,244.069 301.129,245.123" stroke-width="8.038" stroke="black" fill="none" stroke-linecap="round"></path><path d="M 301.129,245.123 C 298.218,246.467 297.641,246.039 295.536,248.320" stroke-width="8.566" stroke="black" fill="none" stroke-linecap="round"></path><path d="M 295.536,248.320 C 292.847,251.235 293.717,252.031 291.541,255.515" stroke-width="7.597" stroke="black" fill="none" stroke-linecap="round"></path><path d="M 291.541,255.515 C 289.722,258.426 289.943,258.712 287.546,261.111" stroke-width="7.519" stroke="black" fill="none" stroke-linecap="round"></path><path d="M 287.546,261.111 C 285.149,263.509 284.871,264.659 281.953,265.108" stroke-width="7.777" stroke="black" fill="none" stroke-linecap="round"></path><path d="M 281.953,265.108 C 279.677,265.458 279.591,262.710 277.159,262.710" stroke-width="8.308" stroke="black" fill="none" stroke-linecap="round"></path><path d="M 277.159,262.710 C 274.397,262.710 273.997,263.370 271.566,265.108" stroke-width="8.606" stroke="black" fill="none" stroke-linecap="round"></path><path d="M 271.566,265.108 C 268.404,267.367 269.068,268.321 265.973,270.704" stroke-width="7.649" stroke="black" fill="none" stroke-linecap="round"></path><path d="M 265.973,270.704 C 263.875,272.318 263.576,273.102 261.179,273.102" stroke-width="7.736" stroke="black" fill="none" stroke-linecap="round"></path><path d="M 261.179,273.102 C 258.782,273.102 258.029,272.555 256.385,270.704" stroke-width="8.132" stroke="black" fill="none" stroke-linecap="round"></path><path d="M 256.385,270.704 C 254.833,268.958 255.693,265.726 254.787,265.907" stroke-width="8.442" stroke="black" fill="none" stroke-linecap="round"></path><path d="M 254.787,265.907 C 253.695,266.126 254.237,269.244 252.390,271.503" stroke-width="8.412" stroke="black" fill="none" stroke-linecap="round"></path><path d="M 252.390,271.503 C 250.641,273.641 249.604,275.371 247.596,274.701" stroke-width="8.338" stroke="black" fill="none" stroke-linecap="round"></path><path d="M 247.596,274.701 C 244.810,273.772 244.553,271.810 242.802,268.306" stroke-width="7.924" stroke="black" fill="none" stroke-linecap="round"></path><path d="M 242.802,268.306 C 241.357,265.415 242.108,265.077 241.203,261.910" stroke-width="7.676" stroke="black" fill="none" stroke-linecap="round"></path><path d="M 241.203,261.910 C 240.510,259.481 240.099,256.126 239.605,257.114" stroke-width="8.017" stroke="black" fill="none" stroke-linecap="round"></path><path d="M 239.605,257.114 C 238.501,259.323 238.835,262.714 238.008,268.306" stroke-width="7.966" stroke="black" fill="none" stroke-linecap="round"></path><path d="M 238.008,268.306 C 237.237,273.506 237.209,273.502 236.410,278.698" stroke-width="6.115" stroke="black" fill="none" stroke-linecap="round"></path><path d="M 236.410,278.698 C 235.611,283.894 235.735,283.916 234.811,289.090" stroke-width="5.716" stroke="black" fill="none" stroke-linecap="round"></path><path d="M 234.811,289.090 C 233.737,295.107 233.613,295.085 232.415,301.081" stroke-width="5.370" stroke="black" fill="none" stroke-linecap="round"></path><path d="M 232.415,301.081 C 231.216,307.077 231.298,307.094 230.017,313.072" stroke-width="5.363" stroke="black" fill="none" stroke-linecap="round"></path><path d="M 230.017,313.072 C 228.901,318.286 228.707,318.245 227.620,323.464" stroke-width="5.389" stroke="black" fill="none" stroke-linecap="round"></path><path d="M 227.620,323.464 C 226.710,327.838 226.898,327.876 226.022,332.258" stroke-width="5.736" stroke="black" fill="none" stroke-linecap="round"></path><path d="M 226.022,332.258 C 225.300,335.871 225.518,335.950 224.425,339.452" stroke-width="6.105" stroke="black" fill="none" stroke-linecap="round"></path><path d="M 224.425,339.452 C 223.521,342.345 223.049,342.187 222.027,345.048" stroke-width="6.461" stroke="black" fill="none" stroke-linecap="round"></path><path d="M 222.027,345.048 C 221.051,347.783 221.848,350.238 220.429,350.644" stroke-width="7.292" stroke="black" fill="none" stroke-linecap="round"></path><path d="M 220.429,350.644 C 219.052,351.038 217.554,349.075 216.434,346.647" stroke-width="8.055" stroke="black" fill="none" stroke-linecap="round"></path><path d="M 216.434,346.647 C 215.157,343.878 216.165,343.428 215.635,340.252" stroke-width="6.999" stroke="black" fill="none" stroke-linecap="round"></path><path d="M 215.635,340.252 C 214.966,336.234 214.800,336.262 214.037,332.258" stroke-width="6.240" stroke="black" fill="none" stroke-linecap="round"></path><path d="M 214.037,332.258 C 213.202,327.868 213.071,327.885 212.439,323.464" stroke-width="5.997" stroke="black" fill="none" stroke-linecap="round"></path><path d="M 212.439,323.464 C 211.872,319.491 212.061,319.465 211.640,315.470" stroke-width="6.077" stroke="black" fill="none" stroke-linecap="round"></path><path d="M 211.640,315.470 C 211.262,311.871 211.264,311.870 210.841,308.276" stroke-width="6.240" stroke="black" fill="none" stroke-linecap="round"></path><path d="M 210.841,308.276 C 210.465,305.075 210.243,305.090 210.042,301.880" stroke-width="6.437" stroke="black" fill="none" stroke-linecap="round"></path><path d="M 210.042,301.880 C 209.843,298.695 210.042,298.683 210.042,295.485" stroke-width="6.578" stroke="black" fill="none" stroke-linecap="round"></path><path d="M 210.042,295.485 C 210.042,291.088 211.416,287.084 210.042,286.692" stroke-width="6.939" stroke="black" fill="none" stroke-linecap="round"></path><path d="M 210.042,286.692 C 208.619,286.285 206.807,290.026 204.449,293.886" stroke-width="7.959" stroke="black" fill="none" stroke-linecap="round"></path><path d="M 204.449,293.886 C 202.413,297.221 203.173,297.667 201.253,301.081" stroke-width="6.601" stroke="black" fill="none" stroke-linecap="round"></path><path d="M 201.253,301.081 C 199.577,304.062 199.114,303.788 197.258,306.677" stroke-width="6.465" stroke="black" fill="none" stroke-linecap="round"></path><path d="M 197.258,306.677 C 195.519,309.384 195.978,309.717 194.062,312.273" stroke-width="6.578" stroke="black" fill="none" stroke-linecap="round"></path><path d="M 194.062,312.273 C 192.383,314.514 192.230,314.466 190.067,316.270" stroke-width="6.629" stroke="black" fill="none" stroke-linecap="round"></path><path d="M 190.067,316.270 C 187.436,318.463 187.196,320.267 184.474,320.267" stroke-width="7.207" stroke="black" fill="none" stroke-linecap="round"></path><path d="M 184.474,320.267 C 182.003,320.267 181.304,318.796 179.680,316.270" stroke-width="7.767" stroke="black" fill="none" stroke-linecap="round"></path><path d="M 179.680,316.270 C 177.708,313.200 178.296,312.724 177.283,309.075" stroke-width="7.447" stroke="black" fill="none" stroke-linecap="round"></path><path d="M 177.283,309.075 C 176.299,305.529 177.219,302.072 175.685,301.880" stroke-width="7.412" stroke="black" fill="none" stroke-linecap="round"></path><path d="M 175.685,301.880 C 174.023,301.672 172.849,304.848 170.891,308.276" stroke-width="8.115" stroke="black" fill="none" stroke-linecap="round"></path><path d="M 170.891,308.276 C 169.653,310.444 170.347,310.788 169.293,313.072" stroke-width="7.178" stroke="black" fill="none" stroke-linecap="round"></path><path d="M 169.293,313.072 C 167.950,315.984 168.316,318.497 166.097,318.668" stroke-width="7.420" stroke="black" fill="none" stroke-linecap="round"></path><path d="M 166.097,318.668 C 163.122,318.897 161.772,316.943 158.906,313.871" stroke-width="7.769" stroke="black" fill="none" stroke-linecap="round"></path><path d="M 158.906,313.871 C 156.179,310.947 156.847,310.307 154.911,306.677" stroke-width="7.425" stroke="black" fill="none" stroke-linecap="round"></path><path d="M 154.911,306.677 C 153.650,304.312 154.070,302.075 152.514,301.880" stroke-width="7.644" stroke="black" fill="none" stroke-linecap="round"></path><path d="M 152.514,301.880 C 150.874,301.675 149.810,303.457 148.519,305.877" stroke-width="8.104" stroke="black" fill="none" stroke-linecap="round"></path><path d="M 148.519,305.877 C 146.614,309.452 147.441,309.914 146.122,313.871" stroke-width="6.436" stroke="black" fill="none" stroke-linecap="round"></path><path d="M 146.122,313.871 C 144.644,318.308 144.462,318.247 142.926,322.665" stroke-width="5.981" stroke="black" fill="none" stroke-linecap="round"></path><path d="M 142.926,322.665 C 141.266,327.440 141.390,327.483 139.730,332.258" stroke-width="5.741" stroke="black" fill="none" stroke-linecap="round"></path><path d="M 139.730,332.258 C 138.194,336.676 138.270,336.710 136.534,341.051" stroke-width="5.786" stroke="black" fill="none" stroke-linecap="round"></path><path d="M 136.534,341.051 C 135.074,344.704 134.836,344.607 133.338,348.246" stroke-width="6.037" stroke="black" fill="none" stroke-linecap="round"></path><path d="M 133.338,348.246 C 132.039,351.402 132.284,351.506 130.941,354.641" stroke-width="6.370" stroke="black" fill="none" stroke-linecap="round"></path><path d="M 130.941,354.641 C 129.887,357.102 130.100,359.243 128.544,359.437" stroke-width="6.625" stroke="black" fill="none" stroke-linecap="round"></path><path d="M 128.544,359.437 C 126.904,359.643 125.316,357.997 124.549,355.440" stroke-width="7.721" stroke="black" fill="none" stroke-linecap="round"></path><path d="M 124.549,355.440 C 122.919,350.003 123.917,349.453 123.750,343.449" stroke-width="5.933" stroke="black" fill="none" stroke-linecap="round"></path><path d="M 123.750,343.449 C 123.517,335.063 123.750,335.056 123.750,326.662" stroke-width="4.763" stroke="black" fill="none" stroke-linecap="round"></path><path d="M 123.750,326.662 C 123.750,315.870 123.547,315.866 123.750,305.078" stroke-width="4.500" stroke="black" fill="none" stroke-linecap="round"></path><path d="M 123.750,305.078 C 123.946,294.682 124.150,294.686 124.549,284.294" stroke-width="4.500" stroke="black" fill="none" stroke-linecap="round"></path><path d="M 124.549,284.294 C 124.949,273.901 124.738,273.889 125.348,263.509" stroke-width="4.500" stroke="black" fill="none" stroke-linecap="round"></path><path d="M 125.348,263.509 C 125.937,253.504 126.078,253.511 126.946,243.524" stroke-width="4.500" stroke="black" fill="none" stroke-linecap="round"></path><path d="M 126.946,243.524 C 127.676,235.124 127.446,235.090 128.544,226.736" stroke-width="4.500" stroke="black" fill="none" stroke-linecap="round"></path><path d="M 128.544,226.736 C 129.443,219.901 129.808,219.952 130.941,213.147" stroke-width="4.718" stroke="black" fill="none" stroke-linecap="round"></path><path d="M 130.941,213.147 C 131.805,207.961 131.511,207.900 132.539,202.754" stroke-width="5.278" stroke="black" fill="none" stroke-linecap="round"></path><path d="M 132.539,202.754 C 133.109,199.906 132.551,197.335 134.137,197.159" stroke-width="6.202" stroke="black" fill="none" stroke-linecap="round"></path><path d="M 134.137,197.159 C 136.146,196.935 136.710,199.878 139.730,201.955" stroke-width="7.525" stroke="black" fill="none" stroke-linecap="round"></path><path d="M 139.730,201.955 C 143.102,204.274 143.115,204.462 146.921,205.952" stroke-width="6.528" stroke="black" fill="none" stroke-linecap="round"></path><path d="M 146.921,205.952 C 152.304,208.059 152.381,208.375 158.107,209.150" stroke-width="5.547" stroke="black" fill="none" stroke-linecap="round"></path><path d="M 158.107,209.150 C 167.162,210.374 167.337,210.467 176.484,209.949" stroke-width="4.629" stroke="black" fill="none" stroke-linecap="round"></path><path d="M 176.484,209.949 C 188.510,209.268 188.534,208.739 200.454,206.751" stroke-width="4.500" stroke="black" fill="none" stroke-linecap="round"></path><path d="M 200.454,206.751 C 212.504,204.742 212.580,204.918 224.425,201.955" stroke-width="4.500" stroke="black" fill="none" stroke-linecap="round"></path><path d="M 224.425,201.955 C 236.550,198.922 236.464,198.530 248.395,194.760" stroke-width="4.500" stroke="black" fill="none" stroke-linecap="round"></path><path d="M 248.395,194.760 C 259.236,191.335 259.181,191.163 269.968,187.566" stroke-width="4.500" stroke="black" fill="none" stroke-linecap="round"></path><path d="M 269.968,187.566 C 279.556,184.368 279.556,184.368 289.144,181.170" stroke-width="4.500" stroke="black" fill="none" stroke-linecap="round"></path><path d="M 289.144,181.170 C 297.533,178.373 297.405,177.878 305.923,175.575" stroke-width="4.500" stroke="black" fill="none" stroke-linecap="round"></path><path d="M 305.923,175.575 C 312.186,173.881 312.312,174.361 318.707,173.176" stroke-width="4.765" stroke="black" fill="none" stroke-linecap="round"></path><path d="M 318.707,173.176 C 323.098,172.363 323.318,171.113 327.496,171.578" stroke-width="5.506" stroke="black" fill="none" stroke-linecap="round"></path><path d="M 327.496,171.578 C 330.509,171.913 334.332,172.861 333.089,174.775" stroke-width="6.760" stroke="black" fill="none" stroke-linecap="round"></path><path d="M 333.089,174.775 C 329.138,180.855 325.486,181.745 317.109,187.566" stroke-width="6.494" stroke="black" fill="none" stroke-linecap="round"></path><path d="M 317.109,187.566 C 311.104,191.737 310.838,191.390 304.325,194.760" stroke-width="5.121" stroke="black" fill="none" stroke-linecap="round"></path><path d="M 304.325,194.760 C 276.081,209.376 276.219,209.690 247.596,223.539" stroke-width="4.500" stroke="black" fill="none" stroke-linecap="round"></path><path d="M 247.596,223.539 C 227.480,233.272 227.151,232.580 206.846,241.925" stroke-width="4.500" stroke="black" fill="none" stroke-linecap="round"></path><path d="M 206.846,241.925 C 187.201,250.967 187.226,251.025 167.695,260.311" stroke-width="4.500" stroke="black" fill="none" stroke-linecap="round"></path><path d="M 167.695,260.311 C 146.877,270.210 146.761,269.984 126.147,280.296" stroke-width="4.500" stroke="black" fill="none" stroke-linecap="round"></path><path d="M 126.147,280.296 C 108.409,289.170 108.498,289.356 90.991,298.683" stroke-width="4.500" stroke="black" fill="none" stroke-linecap="round"></path><path d="M 90.991,298.683 C 77.736,305.744 77.718,305.718 64.624,313.072" stroke-width="4.500" stroke="black" fill="none" stroke-linecap="round"></path><path d="M 64.624,313.072 C 54.946,318.508 54.965,318.551 45.448,324.264" stroke-width="4.500" stroke="black" fill="none" stroke-linecap="round"></path><path d="M 45.448,324.264 C 38.985,328.143 39.126,328.379 32.664,332.258" stroke-width="4.500" stroke="black" fill="none" stroke-linecap="round"></path><path d="M 32.664,332.258 C 29.138,334.374 26.610,337.393 25.473,336.255" stroke-width="5.406" stroke="black" fill="none" stroke-linecap="round"></path><path d="M 25.473,336.255 C 24.213,334.994 26.531,331.815 27.870,327.461" stroke-width="7.062" stroke="black" fill="none" stroke-linecap="round"></path><path d="M 27.870,327.461 C 29.727,321.423 30.165,321.545 31.865,315.470" stroke-width="5.985" stroke="black" fill="none" stroke-linecap="round"></path><path d="M 31.865,315.470 C 32.962,311.552 32.887,311.509 33.463,307.476" stroke-width="5.876" stroke="black" fill="none" stroke-linecap="round"></path><path d="M 33.463,307.476 C 35.284,294.722 35.468,294.711 36.659,281.895" stroke-width="4.500" stroke="black" fill="none" stroke-linecap="round"></path><path d="M 36.659,281.895 C 37.066,277.524 36.659,277.499 36.659,273.102" stroke-width="5.192" stroke="black" fill="none" stroke-linecap="round"></path><path d="M 36.659,273.102 C 36.659,258.713 37.138,258.693 36.659,244.323" stroke-width="4.500" stroke="black" fill="none" stroke-linecap="round"></path><path d="M 36.659,244.323 C 36.339,234.711 36.058,234.710 35.061,225.138" stroke-width="4.500" stroke="black" fill="none" stroke-linecap="round"></path><path d="M 35.061,225.138 C 34.060,215.524 34.181,215.493 32.664,205.952" stroke-width="4.500" stroke="black" fill="none" stroke-linecap="round"></path><path d="M 32.664,205.952 C 31.385,197.906 31.105,197.950 29.468,189.964" stroke-width="4.500" stroke="black" fill="none" stroke-linecap="round"></path><path d="M 29.468,189.964 C 27.909,182.362 28.099,182.313 26.272,174.775" stroke-width="4.627" stroke="black" fill="none" stroke-linecap="round"></path><path d="M 26.272,174.775 C 24.903,169.123 24.645,169.188 23.076,163.584" stroke-width="5.020" stroke="black" fill="none" stroke-linecap="round"></path><path d="M 23.076,163.584 C 21.848,159.195 21.615,159.239 20.679,154.790" stroke-width="5.499" stroke="black" fill="none" stroke-linecap="round"></path><path d="M 20.679,154.790 C 20.017,151.644 19.247,151.349 19.880,148.395" stroke-width="6.563" stroke="black" fill="none" stroke-linecap="round"></path><path d="M 19.880,148.395 C 20.446,145.753 20.759,144.261 23.076,143.599" stroke-width="7.295" stroke="black" fill="none" stroke-linecap="round"></path><path d="M 23.076,143.599 C 26.352,142.662 27.160,144.063 31.066,145.197" stroke-width="7.241" stroke="black" fill="none" stroke-linecap="round"></path><path d="M 31.066,145.197 C 39.545,147.660 39.423,148.097 47.845,150.793" stroke-width="4.997" stroke="black" fill="none" stroke-linecap="round"></path><path d="M 47.845,150.793 C 59.398,154.492 59.510,154.151 71.016,157.988" stroke-width="4.500" stroke="black" fill="none" stroke-linecap="round"></path><path d="M 71.016,157.988 C 83.481,162.145 83.360,162.502 95.785,166.781" stroke-width="4.500" stroke="black" fill="none" stroke-linecap="round"></path><path d="M 95.785,166.781 C 107.730,170.895 107.729,170.908 119.755,174.775" stroke-width="4.500" stroke="black" fill="none" stroke-linecap="round"></path><path d="M 119.755,174.775 C 130.101,178.102 130.060,178.273 140.529,181.170" stroke-width="4.500" stroke="black" fill="none" stroke-linecap="round"></path><path d="M 140.529,181.170 C 148.837,183.469 148.835,183.714 157.308,185.167" stroke-width="4.500" stroke="black" fill="none" stroke-linecap="round"></path><path d="M 157.308,185.167 C 162.818,186.112 162.905,185.967 168.494,185.967" stroke-width="5.013" stroke="black" fill="none" stroke-linecap="round"></path><path d="M 168.494,185.967 C 172.893,185.967 172.949,185.890 177.283,185.167" stroke-width="5.540" stroke="black" fill="none" stroke-linecap="round"></path><path d="M 177.283,185.167 C 180.140,184.691 180.905,185.362 182.876,183.569" stroke-width="6.307" stroke="black" fill="none" stroke-linecap="round"></path><path d="M 182.876,183.569 C 185.299,181.365 186.529,179.686 186.072,177.173" stroke-width="7.057" stroke="black" fill="none" stroke-linecap="round"></path><path d="M 186.072,177.173 C 185.730,175.289 183.881,174.775 181.278,174.775" stroke-width="7.784" stroke="black" fill="none" stroke-linecap="round"></path><path d="M 181.278,174.775 C 171.896,174.775 171.344,174.669 162.102,177.173" stroke-width="6.178" stroke="black" fill="none" stroke-linecap="round"></path><path d="M 162.102,177.173 C 152.168,179.865 152.194,180.531 142.926,185.167" stroke-width="4.517" stroke="black" fill="none" stroke-linecap="round"></path><path d="M 142.926,185.167 C 133.817,189.724 133.625,189.645 125.348,195.560" stroke-width="4.500" stroke="black" fill="none" stroke-linecap="round"></path><path d="M 125.348,195.560 C 116.846,201.636 117.141,202.114 109.368,209.150" stroke-width="4.500" stroke="black" fill="none" stroke-linecap="round"></path><path d="M 109.368,209.150 C 100.362,217.302 100.275,217.246 91.790,225.937" stroke-width="4.500" stroke="black" fill="none" stroke-linecap="round"></path><path d="M 91.790,225.937 C 83.496,234.433 83.468,234.451 75.810,243.524" stroke-width="4.500" stroke="black" fill="none" stroke-linecap="round"></path><path d="M 75.810,243.524 C 68.287,252.437 68.531,252.650 61.428,261.910" stroke-width="4.500" stroke="black" fill="none" stroke-linecap="round"></path><path d="M 61.428,261.910 C 55.348,269.837 55.760,270.174 49.443,277.898" stroke-width="4.500" stroke="black" fill="none" stroke-linecap="round"></path><path d="M 49.443,277.898 C 44.973,283.364 44.609,283.058 39.855,288.291" stroke-width="4.520" stroke="black" fill="none" stroke-linecap="round"></path><path d="M 39.855,288.291 C 36.619,291.852 36.961,292.235 33.463,295.485" stroke-width="5.314" stroke="black" fill="none" stroke-linecap="round"></path><path d="M 33.463,295.485 C 31.368,297.431 31.066,298.683 28.669,298.683" stroke-width="6.164" stroke="black" fill="none" stroke-linecap="round"></path><path d="M 28.669,298.683 C 26.272,298.683 25.578,297.614 23.875,295.485" stroke-width="7.162" stroke="black" fill="none" stroke-linecap="round"></path><path d="M 23.875,295.485 C 22.382,293.617 22.920,293.131 22.277,290.689" stroke-width="7.003" stroke="black" fill="none" stroke-linecap="round"></path><path d="M 22.277,290.689 C 20.922,285.537 21.212,285.459 19.880,280.296" stroke-width="5.999" stroke="black" fill="none" stroke-linecap="round"></path><path d="M 19.880,280.296 C 18.016,273.068 17.795,273.125 15.885,265.907" stroke-width="4.990" stroke="black" fill="none" stroke-linecap="round"></path><path d="M 15.885,265.907 C 14.199,259.535 14.580,259.423 12.689,253.117" stroke-width="5.045" stroke="black" fill="none" stroke-linecap="round"></path><path d="M 12.689,253.117 C 10.985,247.432 10.825,247.469 8.694,241.925" stroke-width="5.219" stroke="black" fill="none" stroke-linecap="round"></path><path d="M 8.694,241.925 C 6.830,237.077 6.666,237.141 4.699,232.332" stroke-width="5.470" stroke="black" fill="none" stroke-linecap="round"></path><path d="M 4.699,232.332 C 3.070,228.348 3.132,228.323 1.503,224.338" stroke-width="5.814" stroke="black" fill="none" stroke-linecap="round"></path><path d="M 1.503,224.338 C -0.463,219.529 -2.755,217.119 -2.492,214.745" stroke-width="6.529" stroke="black" fill="none" stroke-linecap="round"></path><path d="M -2.492,214.745 C -2.356,213.521 0.590,215.260 2.302,217.144" stroke-width="7.887" stroke="black" fill="none" stroke-linecap="round"></path><path d="M 2.302,217.144 C 4.585,219.656 3.665,220.483 5.498,223.539" stroke-width="6.733" stroke="black" fill="none" stroke-linecap="round"></path><path d="M 5.498,223.539 C 7.261,226.478 7.472,226.354 9.493,229.135" stroke-width="6.502" stroke="black" fill="none" stroke-linecap="round"></path><path d="M 9.493,229.135 C 13.864,235.147 13.824,235.179 18.282,241.126" stroke-width="6.371" stroke="black" fill="none" stroke-linecap="round"></path><path d="M 18.282,241.126 C 19.817,243.173 19.478,243.622 21.478,245.123" stroke-width="6.744" stroke="black" fill="none" stroke-linecap="round"></path><path d="M 21.478,245.123 C 24.272,247.219 28.467,249.067 27.870,248.320" stroke-width="7.471" stroke="black" fill="none" stroke-linecap="round"></path><circle r="3" cx="92.58927917480469" cy="122.81402587890625" fill="black"></circle></svg>