<svg xmlns="http://www.w3.org/2000/svg" xmlns:xlink="http://www.w3.org/1999/xlink" viewBox="0 0 576 416" width="576" height="416"><path d="M 337.883,151.531 C 335.486,156.727 335.514,156.740 333.089,161.923" stroke-width="6.998" stroke="black" fill="none" stroke-linecap="round"></path><path d="M 333.089,161.923 C 326.725,175.526 326.640,175.487 320.305,189.103" stroke-width="4.500" stroke="black" fill="none" stroke-linecap="round"></path><path d="M 320.305,189.103 C 315.854,198.670 316.229,198.857 311.516,208.289" stroke-width="4.500" stroke="black" fill="none" stroke-linecap="round"></path><path d="M 311.516,208.289 C 307.440,216.443 307.018,216.227 302.727,224.277" stroke-width="4.500" stroke="black" fill="none" stroke-linecap="round"></path><path d="M 302.727,224.277 C 294.234,240.209 294.441,240.320 285.948,256.253" stroke-width="4.500" stroke="black" fill="none" stroke-linecap="round"></path><path d="M 285.948,256.253 C 278.461,270.298 279.520,271.003 270.767,284.232" stroke-width="4.500" stroke="black" fill="none" stroke-linecap="round"></path><path d="M 270.767,284.232 C 260.743,299.381 261.305,301.268 248.395,313.011" stroke-width="4.500" stroke="black" fill="none" stroke-linecap="round"></path><path d="M 248.395,313.011 C 243.727,317.256 241.366,316.496 235.611,316.208" stroke-width="4.500" stroke="black" fill="none" stroke-linecap="round"></path><path d="M 235.611,316.208 C 233.376,316.096 233.444,314.529 232.415,312.211" stroke-width="5.683" stroke="black" fill="none" stroke-linecap="round"></path><path d="M 232.415,312.211 C 228.650,303.737 228.283,303.672 226.022,294.624" stroke-width="4.626" stroke="black" fill="none" stroke-linecap="round"></path><path d="M 226.022,294.624 C 222.291,279.690 223.234,279.434 220.429,264.247" stroke-width="4.500" stroke="black" fill="none" stroke-linecap="round"></path><path d="M 220.429,264.247 C 216.443,242.662 217.665,242.366 212.439,221.079" stroke-width="4.500" stroke="black" fill="none" stroke-linecap="round"></path><path d="M 212.439,221.079 C 206.479,196.800 207.517,196.158 198.057,173.115" stroke-width="4.500" stroke="black" fill="none" stroke-linecap="round"></path><path d="M 198.057,173.115 C 189.140,151.391 188.572,151.203 175.685,131.546" stroke-width="4.500" stroke="black" fill="none" stroke-linecap="round"></path><path d="M 175.685,131.546 C 164.202,114.030 163.781,113.909 149.318,98.770" stroke-width="4.500" stroke="black" fill="none" stroke-linecap="round"></path><path d="M 149.318,98.770 C 137.814,86.729 136.728,87.736 123.750,77.187" stroke-width="4.500" stroke="black" fill="none" stroke-linecap="round"></path><path d="M 123.750,77.187 C 117.552,72.147 111.189,69.156 110.966,67.594" stroke-width="4.500" stroke="black" fill="none" stroke-linecap="round"></path><path d="M 110.966,67.594 C 110.790,66.359 117.008,69.453 122.951,71.591" stroke-width="5.473" stroke="black" fill="none" stroke-linecap="round"></path><path d="M 122.951,71.591 C 152.563,82.243 152.490,82.449 182.077,93.175" stroke-width="4.500" stroke="black" fill="none" stroke-linecap="round"></path><path d="M 182.077,93.175 C 207.621,102.434 208.429,100.641 233.214,111.561" stroke-width="4.500" stroke="black" fill="none" stroke-linecap="round"></path><path d="M 233.214,111.561 C 251.975,119.827 252.484,119.887 269.169,131.546" stroke-width="4.500" stroke="black" fill="none" stroke-linecap="round"></path><path d="M 269.169,131.546 C 277.653,137.474 290.494,142.082 283.551,146.735" stroke-width="4.500" stroke="black" fill="none" stroke-linecap="round"></path><path d="M 283.551,146.735 C 246.948,171.261 234.258,172.561 182.077,189.902" stroke-width="4.500" stroke="black" fill="none" stroke-linecap="round"></path><path d="M 182.077,189.902 C 118.802,210.932 117.394,206.829 52.639,223.477" stroke-width="4.500" stroke="black" fill="none" stroke-linecap="round"></path></svg>