<svg xmlns="http://www.w3.org/2000/svg" xmlns:xlink="http://www.w3.org/1999/xlink" viewBox="0 0 576 416" width="576" height="416"><path d="M 124.549,168.781 C 124.949,173.177 125.148,173.168 125.348,177.574" stroke-width="8.630" stroke="black" fill="none" stroke-linecap="round"></path><path d="M 125.348,177.574 C 125.548,181.962 125.158,181.979 125.348,186.367" stroke-width="6.546" stroke="black" fill="none" stroke-linecap="round"></path><path d="M 125.348,186.367 C 125.557,191.172 125.838,191.158 126.147,195.960" stroke-width="5.868" stroke="black" fill="none" stroke-linecap="round"></path><path d="M 126.147,195.960 C 126.637,203.549 126.172,203.593 126.946,211.149" stroke-width="6.109" stroke="black" fill="none" stroke-linecap="round"></path><path d="M 126.946,211.149 C 127.770,219.181 128.276,219.127 129.343,227.137" stroke-width="5.083" stroke="black" fill="none" stroke-linecap="round"></path><path d="M 129.343,227.137 C 129.874,231.118 129.699,231.139 130.142,235.131" stroke-width="5.762" stroke="black" fill="none" stroke-linecap="round"></path><path d="M 130.142,235.131 C 130.498,238.334 130.727,238.317 130.941,241.526" stroke-width="6.276" stroke="black" fill="none" stroke-linecap="round"></path><path d="M 130.941,241.526 C 131.127,244.313 131.140,247.122 130.941,247.122" stroke-width="7.185" stroke="black" fill="none" stroke-linecap="round"></path><path d="M 130.941,247.122 C 130.741,247.122 130.472,244.333 130.142,241.526" stroke-width="8.003" stroke="black" fill="none" stroke-linecap="round"></path><path d="M 130.142,241.526 C 129.673,237.538 129.911,237.506 129.343,233.532" stroke-width="6.668" stroke="black" fill="none" stroke-linecap="round"></path><path d="M 129.343,233.532 C 128.712,229.112 128.511,229.141 127.745,224.739" stroke-width="6.016" stroke="black" fill="none" stroke-linecap="round"></path><path d="M 127.745,224.739 C 126.913,219.948 126.726,219.969 126.147,215.146" stroke-width="5.809" stroke="black" fill="none" stroke-linecap="round"></path><path d="M 126.147,215.146 C 125.527,209.977 125.733,209.951 125.348,204.754" stroke-width="5.646" stroke="black" fill="none" stroke-linecap="round"></path><path d="M 125.348,204.754 C 124.934,199.159 124.549,199.157 124.549,193.562" stroke-width="5.487" stroke="black" fill="none" stroke-linecap="round"></path><path d="M 124.549,193.562 C 124.549,188.365 124.794,188.350 125.348,183.170" stroke-width="5.634" stroke="black" fill="none" stroke-linecap="round"></path><path d="M 125.348,183.170 C 125.992,177.158 125.885,177.127 126.946,171.179" stroke-width="5.366" stroke="black" fill="none" stroke-linecap="round"></path><path d="M 126.946,171.179 C 127.882,165.935 127.854,165.897 129.343,160.787" stroke-width="5.480" stroke="black" fill="none" stroke-linecap="round"></path><path d="M 129.343,160.787 C 130.650,156.304 130.770,156.320 132.539,151.993" stroke-width="5.704" stroke="black" fill="none" stroke-linecap="round"></path><path d="M 132.539,151.993 C 134.366,147.527 134.291,147.464 136.534,143.200" stroke-width="5.729" stroke="black" fill="none" stroke-linecap="round"></path><path d="M 136.534,143.200 C 138.286,139.870 138.190,139.730 140.529,136.804" stroke-width="6.074" stroke="black" fill="none" stroke-linecap="round"></path><path d="M 140.529,136.804 C 142.984,133.735 142.974,133.519 146.122,131.209" stroke-width="6.121" stroke="black" fill="none" stroke-linecap="round"></path><path d="M 146.122,131.209 C 148.967,129.122 149.139,129.004 152.514,128.011" stroke-width="6.270" stroke="black" fill="none" stroke-linecap="round"></path><path d="M 152.514,128.011 C 155.931,127.006 156.233,126.543 159.705,127.212" stroke-width="6.300" stroke="black" fill="none" stroke-linecap="round"></path><path d="M 159.705,127.212 C 166.620,128.542 166.913,128.819 173.288,132.008" stroke-width="6.315" stroke="black" fill="none" stroke-linecap="round"></path><path d="M 173.288,132.008 C 178.099,134.415 178.069,134.775 182.077,138.403" stroke-width="5.714" stroke="black" fill="none" stroke-linecap="round"></path><path d="M 182.077,138.403 C 186.459,142.369 186.520,142.464 190.067,147.197" stroke-width="5.416" stroke="black" fill="none" stroke-linecap="round"></path><path d="M 190.067,147.197 C 193.711,152.057 193.742,152.152 196.459,157.589" stroke-width="5.380" stroke="black" fill="none" stroke-linecap="round"></path><path d="M 196.459,157.589 C 199.335,163.344 199.463,163.408 201.253,169.580" stroke-width="5.191" stroke="black" fill="none" stroke-linecap="round"></path><path d="M 201.253,169.580 C 203.058,175.799 203.064,175.918 203.650,182.370" stroke-width="5.125" stroke="black" fill="none" stroke-linecap="round"></path><path d="M 203.650,182.370 C 204.263,189.109 204.281,189.228 203.650,195.960" stroke-width="4.941" stroke="black" fill="none" stroke-linecap="round"></path><path d="M 203.650,195.960 C 203.083,202.018 203.125,202.163 201.253,207.951" stroke-width="5.052" stroke="black" fill="none" stroke-linecap="round"></path><path d="M 201.253,207.951 C 198.731,215.752 198.691,215.881 194.861,223.140" stroke-width="4.705" stroke="black" fill="none" stroke-linecap="round"></path><path d="M 194.861,223.140 C 191.100,230.270 191.122,230.465 186.072,236.730" stroke-width="4.729" stroke="black" fill="none" stroke-linecap="round"></path><path d="M 186.072,236.730 C 181.135,242.855 180.872,242.789 174.886,247.922" stroke-width="4.584" stroke="black" fill="none" stroke-linecap="round"></path><path d="M 174.886,247.922 C 169.686,252.381 169.588,252.425 163.700,255.916" stroke-width="4.851" stroke="black" fill="none" stroke-linecap="round"></path><path d="M 163.700,255.916 C 158.801,258.820 158.697,258.916 153.313,260.712" stroke-width="5.209" stroke="black" fill="none" stroke-linecap="round"></path><path d="M 153.313,260.712 C 149.109,262.114 148.929,262.066 144.524,262.311" stroke-width="5.674" stroke="black" fill="none" stroke-linecap="round"></path><path d="M 144.524,262.311 C 141.738,262.466 140.723,263.304 138.931,261.511" stroke-width="6.390" stroke="black" fill="none" stroke-linecap="round"></path><path d="M 138.931,261.511 C 135.530,258.108 134.870,256.802 134.137,251.919" stroke-width="6.731" stroke="black" fill="none" stroke-linecap="round"></path><path d="M 134.137,251.919 C 133.671,248.808 135.095,248.608 136.534,245.523" stroke-width="7.248" stroke="black" fill="none" stroke-linecap="round"></path><path d="M 136.534,245.523 C 137.892,242.613 137.815,242.483 139.730,239.928" stroke-width="6.727" stroke="black" fill="none" stroke-linecap="round"></path><path d="M 139.730,239.928 C 141.410,237.687 141.485,237.611 143.725,235.931" stroke-width="6.674" stroke="black" fill="none" stroke-linecap="round"></path><path d="M 143.725,235.931 C 146.279,234.014 146.356,233.918 149.318,232.733" stroke-width="6.707" stroke="black" fill="none" stroke-linecap="round"></path><path d="M 149.318,232.733 C 152.348,231.520 152.473,231.706 155.710,231.134" stroke-width="6.551" stroke="black" fill="none" stroke-linecap="round"></path><path d="M 155.710,231.134 C 159.265,230.506 159.338,230.137 162.901,230.335" stroke-width="6.383" stroke="black" fill="none" stroke-linecap="round"></path><path d="M 162.901,230.335 C 166.529,230.536 166.650,230.681 170.092,231.934" stroke-width="6.385" stroke="black" fill="none" stroke-linecap="round"></path><path d="M 170.092,231.934 C 175.439,233.879 175.326,234.248 180.479,236.730" stroke-width="5.544" stroke="black" fill="none" stroke-linecap="round"></path><path d="M 180.479,236.730 C 186.113,239.444 186.260,239.205 191.665,242.326" stroke-width="5.288" stroke="black" fill="none" stroke-linecap="round"></path><path d="M 191.665,242.326 C 196.647,245.201 196.401,245.614 201.253,248.721" stroke-width="5.248" stroke="black" fill="none" stroke-linecap="round"></path><path d="M 201.253,248.721 C 206.389,252.009 206.281,252.229 211.640,255.116" stroke-width="5.148" stroke="black" fill="none" stroke-linecap="round"></path><path d="M 211.640,255.116 C 216.668,257.824 216.762,257.684 222.027,259.913" stroke-width="5.391" stroke="black" fill="none" stroke-linecap="round"></path><path d="M 222.027,259.913 C 227.149,262.081 227.109,262.276 232.415,263.910" stroke-width="5.333" stroke="black" fill="none" stroke-linecap="round"></path><path d="M 232.415,263.910 C 237.496,265.474 237.543,265.677 242.802,266.308" stroke-width="5.470" stroke="black" fill="none" stroke-linecap="round"></path><path d="M 242.802,266.308 C 247.531,266.876 247.665,266.805 252.390,266.308" stroke-width="5.666" stroke="black" fill="none" stroke-linecap="round"></path><path d="M 252.390,266.308 C 255.256,266.006 255.226,265.629 257.983,264.709" stroke-width="6.471" stroke="black" fill="none" stroke-linecap="round"></path><path d="M 257.983,264.709 C 261.218,263.630 261.492,264.041 264.375,262.311" stroke-width="6.356" stroke="black" fill="none" stroke-linecap="round"></path><path d="M 264.375,262.311 C 267.485,260.444 267.371,260.112 269.968,257.514" stroke-width="6.302" stroke="black" fill="none" stroke-linecap="round"></path><path d="M 269.968,257.514 C 272.564,254.916 272.734,254.962 274.762,251.919" stroke-width="6.203" stroke="black" fill="none" stroke-linecap="round"></path><path d="M 274.762,251.919 C 276.729,248.966 276.965,248.900 277.958,245.523" stroke-width="6.295" stroke="black" fill="none" stroke-linecap="round"></path><path d="M 277.958,245.523 C 278.963,242.105 278.531,241.936 278.757,238.329" stroke-width="6.307" stroke="black" fill="none" stroke-linecap="round"></path><path d="M 278.757,238.329 C 278.931,235.540 279.526,235.349 278.757,232.733" stroke-width="6.688" stroke="black" fill="none" stroke-linecap="round"></path><path d="M 278.757,232.733 C 277.528,228.554 277.885,227.473 274.762,224.739" stroke-width="6.959" stroke="black" fill="none" stroke-linecap="round"></path><path d="M 274.762,224.739 C 271.493,221.877 270.455,222.289 265.973,221.541" stroke-width="7.028" stroke="black" fill="none" stroke-linecap="round"></path><path d="M 265.973,221.541 C 263.264,221.090 263.072,221.571 260.380,222.341" stroke-width="6.835" stroke="black" fill="none" stroke-linecap="round"></path><path d="M 260.380,222.341 C 257.479,223.170 257.316,223.112 254.787,224.739" stroke-width="6.758" stroke="black" fill="none" stroke-linecap="round"></path><path d="M 254.787,224.739 C 251.723,226.709 251.538,226.763 249.194,229.535" stroke-width="6.330" stroke="black" fill="none" stroke-linecap="round"></path><path d="M 249.194,229.535 C 247.143,231.960 247.182,232.167 245.998,235.131" stroke-width="6.466" stroke="black" fill="none" stroke-linecap="round"></path><path d="M 245.998,235.131 C 244.785,238.163 244.832,238.284 244.400,241.526" stroke-width="6.479" stroke="black" fill="none" stroke-linecap="round"></path><path d="M 244.400,241.526 C 244.033,244.279 243.787,244.469 244.400,247.122" stroke-width="6.681" stroke="black" fill="none" stroke-linecap="round"></path><path d="M 244.400,247.122 C 244.986,249.665 245.396,249.642 246.797,251.919" stroke-width="6.856" stroke="black" fill="none" stroke-linecap="round"></path><path d="M 246.797,251.919 C 248.592,254.838 248.317,255.245 250.792,257.514" stroke-width="6.536" stroke="black" fill="none" stroke-linecap="round"></path><path d="M 250.792,257.514 C 253.111,259.641 253.507,259.273 256.385,260.712" stroke-width="6.530" stroke="black" fill="none" stroke-linecap="round"></path><path d="M 256.385,260.712 C 259.899,262.470 259.846,262.731 263.576,263.910" stroke-width="6.174" stroke="black" fill="none" stroke-linecap="round"></path><path d="M 263.576,263.910 C 267.437,265.130 267.541,265.307 271.566,265.508" stroke-width="6.111" stroke="black" fill="none" stroke-linecap="round"></path><path d="M 271.566,265.508 C 275.531,265.707 275.597,265.334 279.556,264.709" stroke-width="6.112" stroke="black" fill="none" stroke-linecap="round"></path><path d="M 279.556,264.709 C 283.187,264.135 283.226,264.167 286.747,263.110" stroke-width="6.228" stroke="black" fill="none" stroke-linecap="round"></path><path d="M 286.747,263.110 C 291.216,261.769 291.334,261.923 295.536,259.913" stroke-width="6.011" stroke="black" fill="none" stroke-linecap="round"></path><path d="M 295.536,259.913 C 300.523,257.526 300.550,257.436 305.124,254.317" stroke-width="5.603" stroke="black" fill="none" stroke-linecap="round"></path><path d="M 305.124,254.317 C 309.339,251.441 309.403,251.416 313.114,247.922" stroke-width="5.523" stroke="black" fill="none" stroke-linecap="round"></path><path d="M 313.114,247.922 C 316.194,245.021 316.271,244.978 318.707,241.526" stroke-width="5.849" stroke="black" fill="none" stroke-linecap="round"></path><path d="M 318.707,241.526 C 321.065,238.183 320.865,238.008 322.702,234.332" stroke-width="5.998" stroke="black" fill="none" stroke-linecap="round"></path><path d="M 322.702,234.332 C 324.061,231.612 324.270,231.637 325.099,228.736" stroke-width="6.425" stroke="black" fill="none" stroke-linecap="round"></path><path d="M 325.099,228.736 C 325.868,226.042 326.082,225.908 325.898,223.140" stroke-width="6.775" stroke="black" fill="none" stroke-linecap="round"></path><path d="M 325.898,223.140 C 325.683,219.912 326.320,218.564 324.300,216.745" stroke-width="7.242" stroke="black" fill="none" stroke-linecap="round"></path><path d="M 324.300,216.745 C 322.325,214.967 321.068,215.748 317.908,215.945" stroke-width="7.466" stroke="black" fill="none" stroke-linecap="round"></path><path d="M 317.908,215.945 C 314.676,216.148 314.582,216.394 311.516,217.544" stroke-width="6.752" stroke="black" fill="none" stroke-linecap="round"></path><path d="M 311.516,217.544 C 308.190,218.792 307.968,218.655 305.124,220.742" stroke-width="6.602" stroke="black" fill="none" stroke-linecap="round"></path><path d="M 305.124,220.742 C 301.975,223.052 301.985,223.268 299.531,226.338" stroke-width="6.089" stroke="black" fill="none" stroke-linecap="round"></path><path d="M 299.531,226.338 C 297.191,229.263 296.759,229.266 295.536,232.733" stroke-width="6.190" stroke="black" fill="none" stroke-linecap="round"></path><path d="M 295.536,232.733 C 294.362,236.061 294.737,236.330 294.737,239.928" stroke-width="6.275" stroke="black" fill="none" stroke-linecap="round"></path><path d="M 294.737,239.928 C 294.737,243.525 294.414,243.755 295.536,247.122" stroke-width="6.301" stroke="black" fill="none" stroke-linecap="round"></path><path d="M 295.536,247.122 C 296.811,250.950 297.216,250.932 299.531,254.317" stroke-width="6.213" stroke="black" fill="none" stroke-linecap="round"></path><path d="M 299.531,254.317 C 302.409,258.526 302.325,258.711 305.923,262.311" stroke-width="5.784" stroke="black" fill="none" stroke-linecap="round"></path><path d="M 305.923,262.311 C 309.915,266.305 309.912,266.583 314.712,269.505" stroke-width="5.506" stroke="black" fill="none" stroke-linecap="round"></path><path d="M 314.712,269.505 C 319.101,272.179 319.425,271.729 324.300,273.502" stroke-width="5.472" stroke="black" fill="none" stroke-linecap="round"></path><path d="M 324.300,273.502 C 328.214,274.927 328.209,275.288 332.290,275.901" stroke-width="5.856" stroke="black" fill="none" stroke-linecap="round"></path><path d="M 332.290,275.901 C 336.198,276.487 336.591,277.008 340.280,275.901" stroke-width="6.040" stroke="black" fill="none" stroke-linecap="round"></path><path d="M 340.280,275.901 C 344.581,274.610 344.821,274.094 348.270,271.104" stroke-width="6.750" stroke="black" fill="none" stroke-linecap="round"></path><path d="M 348.270,271.104 C 350.814,268.898 350.446,268.419 352.265,265.508" stroke-width="6.507" stroke="black" fill="none" stroke-linecap="round"></path><path d="M 352.265,265.508 C 354.441,262.024 354.577,262.055 356.260,258.314" stroke-width="6.102" stroke="black" fill="none" stroke-linecap="round"></path><path d="M 356.260,258.314 C 358.173,254.061 357.791,253.892 359.456,249.520" stroke-width="5.975" stroke="black" fill="none" stroke-linecap="round"></path><path d="M 359.456,249.520 C 360.987,245.498 361.165,245.564 362.652,241.526" stroke-width="5.974" stroke="black" fill="none" stroke-linecap="round"></path><path d="M 362.652,241.526 C 363.961,237.970 363.719,237.879 365.049,234.332" stroke-width="6.147" stroke="black" fill="none" stroke-linecap="round"></path><path d="M 365.049,234.332 C 366.116,231.484 366.487,231.614 367.446,228.736" stroke-width="6.475" stroke="black" fill="none" stroke-linecap="round"></path><path d="M 367.446,228.736 C 368.484,225.619 368.889,221.566 369.044,222.341" stroke-width="7.161" stroke="black" fill="none" stroke-linecap="round"></path><path d="M 369.044,222.341 C 369.288,223.565 368.716,227.543 368.245,232.733" stroke-width="7.619" stroke="black" fill="none" stroke-linecap="round"></path><path d="M 368.245,232.733 C 367.917,236.337 367.845,236.330 367.446,239.928" stroke-width="6.564" stroke="black" fill="none" stroke-linecap="round"></path><path d="M 367.446,239.928 C 367.046,243.525 366.859,243.514 366.647,247.122" stroke-width="6.302" stroke="black" fill="none" stroke-linecap="round"></path><path d="M 366.647,247.122 C 366.459,250.309 366.647,250.320 366.647,253.517" stroke-width="6.467" stroke="black" fill="none" stroke-linecap="round"></path><path d="M 366.647,253.517 C 366.647,256.315 366.811,256.323 366.647,259.113" stroke-width="6.677" stroke="black" fill="none" stroke-linecap="round"></path><path d="M 366.647,259.113 C 366.411,263.118 365.682,267.771 365.848,267.107" stroke-width="7.114" stroke="black" fill="none" stroke-linecap="round"></path><path d="M 365.848,267.107 C 366.081,266.173 366.587,261.502 367.446,255.916" stroke-width="7.526" stroke="black" fill="none" stroke-linecap="round"></path><path d="M 367.446,255.916 C 368.185,251.110 368.126,251.097 369.044,246.323" stroke-width="6.168" stroke="black" fill="none" stroke-linecap="round"></path><path d="M 369.044,246.323 C 370.124,240.704 369.821,240.602 371.441,235.131" stroke-width="5.493" stroke="black" fill="none" stroke-linecap="round"></path><path d="M 371.441,235.131 C 373.017,229.810 373.408,229.923 375.436,224.739" stroke-width="5.540" stroke="black" fill="none" stroke-linecap="round"></path><path d="M 375.436,224.739 C 377.004,220.730 376.715,220.580 378.632,216.745" stroke-width="5.754" stroke="black" fill="none" stroke-linecap="round"></path><path d="M 378.632,216.745 C 380.311,213.386 380.485,213.445 382.627,210.350" stroke-width="6.154" stroke="black" fill="none" stroke-linecap="round"></path><path d="M 382.627,210.350 C 384.080,208.249 383.734,207.492 385.823,206.353" stroke-width="6.605" stroke="black" fill="none" stroke-linecap="round"></path><path d="M 385.823,206.353 C 388.129,205.094 389.293,204.226 391.416,205.553" stroke-width="7.366" stroke="black" fill="none" stroke-linecap="round"></path><path d="M 391.416,205.553 C 395.685,208.223 395.476,209.649 398.607,214.347" stroke-width="6.883" stroke="black" fill="none" stroke-linecap="round"></path><path d="M 398.607,214.347 C 401.069,218.042 400.915,218.215 402.602,222.341" stroke-width="6.251" stroke="black" fill="none" stroke-linecap="round"></path><path d="M 402.602,222.341 C 404.510,227.008 404.258,227.118 405.798,231.934" stroke-width="5.813" stroke="black" fill="none" stroke-linecap="round"></path><path d="M 405.798,231.934 C 407.454,237.111 407.472,237.107 408.994,242.326" stroke-width="5.582" stroke="black" fill="none" stroke-linecap="round"></path><path d="M 408.994,242.326 C 410.269,246.700 410.082,246.756 411.391,251.119" stroke-width="5.851" stroke="black" fill="none" stroke-linecap="round"></path><path d="M 411.391,251.119 C 412.479,254.750 412.527,254.739 413.788,258.314" stroke-width="6.180" stroke="black" fill="none" stroke-linecap="round"></path><path d="M 413.788,258.314 C 414.924,261.534 414.668,261.674 416.185,264.709" stroke-width="6.346" stroke="black" fill="none" stroke-linecap="round"></path><path d="M 416.185,264.709 C 417.465,267.270 417.476,267.388 419.381,269.505" stroke-width="6.604" stroke="black" fill="none" stroke-linecap="round"></path><path d="M 419.381,269.505 C 421.072,271.385 421.043,272.236 423.376,272.703" stroke-width="6.753" stroke="black" fill="none" stroke-linecap="round"></path><path d="M 423.376,272.703 C 427.036,273.435 427.644,273.067 431.366,271.904" stroke-width="7.056" stroke="black" fill="none" stroke-linecap="round"></path><path d="M 431.366,271.904 C 434.036,271.069 433.971,270.559 436.160,268.706" stroke-width="6.887" stroke="black" fill="none" stroke-linecap="round"></path><path d="M 436.160,268.706 C 439.165,266.162 439.824,266.444 441.753,263.110" stroke-width="6.258" stroke="black" fill="none" stroke-linecap="round"></path><path d="M 441.753,263.110 C 444.218,258.850 443.417,258.335 444.949,253.517" stroke-width="5.903" stroke="black" fill="none" stroke-linecap="round"></path><path d="M 444.949,253.517 C 446.213,249.541 446.249,249.548 447.346,245.523" stroke-width="5.911" stroke="black" fill="none" stroke-linecap="round"></path><path d="M 447.346,245.523 C 448.646,240.755 448.861,240.782 449.743,235.931" stroke-width="5.839" stroke="black" fill="none" stroke-linecap="round"></path><path d="M 449.743,235.931 C 450.459,231.989 450.331,231.943 450.542,227.936" stroke-width="6.027" stroke="black" fill="none" stroke-linecap="round"></path><path d="M 450.542,227.936 C 450.731,224.349 450.721,224.331 450.542,220.742" stroke-width="6.232" stroke="black" fill="none" stroke-linecap="round"></path><path d="M 450.542,220.742 C 450.322,216.337 451.654,212.522 449.743,211.948" stroke-width="6.844" stroke="black" fill="none" stroke-linecap="round"></path><path d="M 449.743,211.948 C 447.659,211.323 445.596,214.689 442.552,218.344" stroke-width="7.337" stroke="black" fill="none" stroke-linecap="round"></path><path d="M 442.552,218.344 C 439.603,221.884 439.836,222.180 437.758,226.338" stroke-width="6.199" stroke="black" fill="none" stroke-linecap="round"></path><path d="M 437.758,226.338 C 435.441,230.973 435.535,231.054 433.763,235.931" stroke-width="5.757" stroke="black" fill="none" stroke-linecap="round"></path><path d="M 433.763,235.931 C 432.339,239.847 431.978,239.841 431.366,243.924" stroke-width="5.950" stroke="black" fill="none" stroke-linecap="round"></path><path d="M 431.366,243.924 C 430.779,247.836 431.132,247.938 431.366,251.919" stroke-width="6.069" stroke="black" fill="none" stroke-linecap="round"></path><path d="M 431.366,251.919 C 431.531,254.733 430.888,255.119 432.165,257.514" stroke-width="6.533" stroke="black" fill="none" stroke-linecap="round"></path><path d="M 432.165,257.514 C 434.084,261.115 434.380,262.853 437.758,263.910" stroke-width="6.986" stroke="black" fill="none" stroke-linecap="round"></path><path d="M 437.758,263.910 C 440.772,264.852 441.910,263.538 444.949,261.511" stroke-width="7.216" stroke="black" fill="none" stroke-linecap="round"></path><path d="M 444.949,261.511 C 447.903,259.541 447.537,258.858 449.743,255.916" stroke-width="6.533" stroke="black" fill="none" stroke-linecap="round"></path><path d="M 449.743,255.916 C 452.331,252.463 452.376,252.455 454.537,248.721" stroke-width="6.209" stroke="black" fill="none" stroke-linecap="round"></path><path d="M 454.537,248.721 C 456.770,244.861 456.879,244.861 458.532,240.727" stroke-width="5.898" stroke="black" fill="none" stroke-linecap="round"></path><path d="M 458.532,240.727 C 460.075,236.867 459.868,236.766 460.929,232.733" stroke-width="6.072" stroke="black" fill="none" stroke-linecap="round"></path><path d="M 460.929,232.733 C 461.866,229.171 461.579,229.094 462.527,225.538" stroke-width="6.134" stroke="black" fill="none" stroke-linecap="round"></path><path d="M 462.527,225.538 C 463.177,223.099 463.559,223.195 464.125,220.742" stroke-width="6.675" stroke="black" fill="none" stroke-linecap="round"></path><path d="M 464.125,220.742 C 464.758,217.999 464.208,214.429 464.924,215.146" stroke-width="7.372" stroke="black" fill="none" stroke-linecap="round"></path><path d="M 464.924,215.146 C 466.205,216.428 466.216,220.064 468.120,224.739" stroke-width="7.469" stroke="black" fill="none" stroke-linecap="round"></path><path d="M 468.120,224.739 C 470.611,230.856 470.327,231.083 473.713,236.730" stroke-width="5.710" stroke="black" fill="none" stroke-linecap="round"></path><path d="M 473.713,236.730 C 477.518,243.074 477.913,242.878 482.502,248.721" stroke-width="4.936" stroke="black" fill="none" stroke-linecap="round"></path><path d="M 482.502,248.721 C 486.702,254.070 486.959,253.866 491.291,259.113" stroke-width="4.980" stroke="black" fill="none" stroke-linecap="round"></path><path d="M 491.291,259.113 C 494.549,263.059 494.741,262.938 497.683,267.107" stroke-width="5.410" stroke="black" fill="none" stroke-linecap="round"></path><path d="M 497.683,267.107 C 499.535,269.732 503.257,272.213 500.879,272.703" stroke-width="6.208" stroke="black" fill="none" stroke-linecap="round"></path><path d="M 500.879,272.703 C 489.674,275.011 485.622,273.663 470.517,272.703" stroke-width="5.800" stroke="black" fill="none" stroke-linecap="round"></path><path d="M 470.517,272.703 C 460.453,272.064 460.548,270.985 450.542,269.505" stroke-width="4.503" stroke="black" fill="none" stroke-linecap="round"></path><path d="M 450.542,269.505 C 414.605,264.190 414.565,264.457 378.632,259.113" stroke-width="4.500" stroke="black" fill="none" stroke-linecap="round"></path><path d="M 378.632,259.113 C 355.439,255.664 355.485,255.349 332.290,251.919" stroke-width="4.500" stroke="black" fill="none" stroke-linecap="round"></path><path d="M 332.290,251.919 C 309.543,248.554 309.574,248.247 286.747,245.523" stroke-width="4.500" stroke="black" fill="none" stroke-linecap="round"></path><path d="M 286.747,245.523 C 266.029,243.051 265.950,243.735 245.199,241.526" stroke-width="4.500" stroke="black" fill="none" stroke-linecap="round"></path><path d="M 245.199,241.526 C 228.397,239.738 228.451,239.188 211.640,237.529" stroke-width="4.500" stroke="black" fill="none" stroke-linecap="round"></path><path d="M 211.640,237.529 C 200.087,236.390 200.064,236.470 188.469,235.931" stroke-width="4.500" stroke="black" fill="none" stroke-linecap="round"></path><path d="M 188.469,235.931 C 182.885,235.671 176.041,235.931 177.283,235.931" stroke-width="4.635" stroke="black" fill="none" stroke-linecap="round"></path><path d="M 177.283,235.931 C 179.237,235.931 186.098,235.361 194.861,235.931" stroke-width="5.907" stroke="black" fill="none" stroke-linecap="round"></path><path d="M 194.861,235.931 C 216.860,237.360 216.817,238.144 238.806,239.928" stroke-width="4.500" stroke="black" fill="none" stroke-linecap="round"></path><path d="M 238.806,239.928 C 261.161,241.741 261.216,241.112 283.551,243.125" stroke-width="4.500" stroke="black" fill="none" stroke-linecap="round"></path><path d="M 283.551,243.125 C 305.561,245.109 305.549,245.303 327.496,247.922" stroke-width="4.500" stroke="black" fill="none" stroke-linecap="round"></path><path d="M 327.496,247.922 C 349.095,250.499 349.095,250.529 370.642,253.517" stroke-width="4.500" stroke="black" fill="none" stroke-linecap="round"></path><path d="M 370.642,253.517 C 389.445,256.125 389.441,256.174 408.195,259.113" stroke-width="4.500" stroke="black" fill="none" stroke-linecap="round"></path><path d="M 408.195,259.113 C 422.599,261.370 422.612,261.326 436.959,263.910" stroke-width="4.500" stroke="black" fill="none" stroke-linecap="round"></path><path d="M 436.959,263.910 C 442.587,264.923 442.552,265.109 448.145,266.308" stroke-width="4.500" stroke="black" fill="none" stroke-linecap="round"></path></svg>