<svg xmlns="http://www.w3.org/2000/svg" xmlns:xlink="http://www.w3.org/1999/xlink" viewBox="0 0 576 416" width="576" height="416"><path d="M 452.939,156.343 C 450.941,159.940 450.626,159.797 448.944,163.538" stroke-width="8.675" stroke="black" fill="none" stroke-linecap="round"></path><path d="M 448.944,163.538 C 447.031,167.791 447.526,168.012 445.748,172.331" stroke-width="6.445" stroke="black" fill="none" stroke-linecap="round"></path><path d="M 445.748,172.331 C 444.729,174.807 444.467,174.691 443.351,177.128" stroke-width="6.780" stroke="black" fill="none" stroke-linecap="round"></path><path d="M 443.351,177.128 C 440.073,184.283 440.178,184.332 436.959,191.517" stroke-width="5.036" stroke="black" fill="none" stroke-linecap="round"></path><path d="M 436.959,191.517 C 434.984,195.924 435.121,195.994 432.964,200.310" stroke-width="5.509" stroke="black" fill="none" stroke-linecap="round"></path><path d="M 432.964,200.310 C 431.126,203.988 431.241,204.095 428.969,207.505" stroke-width="5.886" stroke="black" fill="none" stroke-linecap="round"></path><path d="M 428.969,207.505 C 427.246,210.091 427.169,210.105 424.974,212.301" stroke-width="6.357" stroke="black" fill="none" stroke-linecap="round"></path><path d="M 424.974,212.301 C 423.174,214.102 423.257,214.549 420.979,215.499" stroke-width="6.739" stroke="black" fill="none" stroke-linecap="round"></path><path d="M 420.979,215.499 C 418.463,216.548 417.299,217.874 415.386,216.298" stroke-width="7.435" stroke="black" fill="none" stroke-linecap="round"></path><path d="M 415.386,216.298 C 410.507,212.279 410.418,210.757 407.396,204.307" stroke-width="6.619" stroke="black" fill="none" stroke-linecap="round"></path><path d="M 407.396,204.307 C 404.425,197.967 405.072,197.593 403.401,190.717" stroke-width="5.322" stroke="black" fill="none" stroke-linecap="round"></path><path d="M 403.401,190.717 C 401.477,182.804 401.383,182.785 400.205,174.729" stroke-width="4.790" stroke="black" fill="none" stroke-linecap="round"></path><path d="M 400.205,174.729 C 398.986,166.397 399.425,166.334 398.607,157.942" stroke-width="4.500" stroke="black" fill="none" stroke-linecap="round"></path><path d="M 398.607,157.942 C 397.827,149.946 397.430,149.967 397.009,141.954" stroke-width="4.587" stroke="black" fill="none" stroke-linecap="round"></path><path d="M 397.009,141.954 C 396.631,134.778 397.009,134.759 397.009,127.565" stroke-width="4.692" stroke="black" fill="none" stroke-linecap="round"></path><path d="M 397.009,127.565 C 397.009,121.569 397.009,121.569 397.009,115.573" stroke-width="5.087" stroke="black" fill="none" stroke-linecap="round"></path><path d="M 397.009,115.573 C 397.009,111.177 397.009,111.177 397.009,106.780" stroke-width="5.650" stroke="black" fill="none" stroke-linecap="round"></path><path d="M 397.009,106.780 C 397.009,103.982 397.591,99.826 397.009,101.184" stroke-width="6.391" stroke="black" fill="none" stroke-linecap="round"></path><path d="M 397.009,101.184 C 395.194,105.422 394.705,109.606 392.215,117.972" stroke-width="7.108" stroke="black" fill="none" stroke-linecap="round"></path><path d="M 392.215,117.972 C 389.112,128.392 389.592,128.574 385.823,138.756" stroke-width="4.556" stroke="black" fill="none" stroke-linecap="round"></path><path d="M 385.823,138.756 C 381.602,150.158 381.669,150.266 376.235,161.139" stroke-width="4.500" stroke="black" fill="none" stroke-linecap="round"></path><path d="M 376.235,161.139 C 370.483,172.650 370.221,172.565 363.451,183.523" stroke-width="4.500" stroke="black" fill="none" stroke-linecap="round"></path><path d="M 363.451,183.523 C 356.638,194.549 356.710,194.644 349.069,205.107" stroke-width="4.500" stroke="black" fill="none" stroke-linecap="round"></path><path d="M 349.069,205.107 C 341.529,215.429 341.503,215.470 333.089,225.092" stroke-width="4.500" stroke="black" fill="none" stroke-linecap="round"></path><path d="M 333.089,225.092 C 324.724,234.656 324.694,234.698 315.511,243.478" stroke-width="4.500" stroke="black" fill="none" stroke-linecap="round"></path><path d="M 315.511,243.478 C 306.717,251.885 306.671,251.912 297.134,259.466" stroke-width="4.500" stroke="black" fill="none" stroke-linecap="round"></path><path d="M 297.134,259.466 C 287.495,267.101 287.508,267.228 277.159,273.855" stroke-width="4.500" stroke="black" fill="none" stroke-linecap="round"></path><path d="M 277.159,273.855 C 267.533,280.019 267.240,279.579 257.184,285.047" stroke-width="4.500" stroke="black" fill="none" stroke-linecap="round"></path><path d="M 257.184,285.047 C 248.863,289.571 248.829,289.512 240.405,293.840" stroke-width="4.500" stroke="black" fill="none" stroke-linecap="round"></path><path d="M 240.405,293.840 C 234.048,297.106 234.012,297.038 227.620,300.236" stroke-width="4.578" stroke="black" fill="none" stroke-linecap="round"></path><path d="M 227.620,300.236 C 222.826,302.634 222.871,302.727 218.032,305.032" stroke-width="5.199" stroke="black" fill="none" stroke-linecap="round"></path><path d="M 218.032,305.032 C 214.481,306.724 214.517,306.851 210.841,308.230" stroke-width="5.831" stroke="black" fill="none" stroke-linecap="round"></path><path d="M 210.841,308.230 C 208.125,309.249 208.028,308.973 205.248,309.829" stroke-width="6.417" stroke="black" fill="none" stroke-linecap="round"></path><path d="M 280.355,129.163 C 281.553,135.159 281.553,135.159 282.752,141.154" stroke-width="8.328" stroke="black" fill="none" stroke-linecap="round"></path><path d="M 282.752,141.154 C 283.950,147.150 284.022,147.136 285.149,153.145" stroke-width="5.891" stroke="black" fill="none" stroke-linecap="round"></path><path d="M 285.149,153.145 C 286.419,159.927 286.264,159.956 287.546,166.735" stroke-width="5.213" stroke="black" fill="none" stroke-linecap="round"></path><path d="M 287.546,166.735 C 289.060,174.745 289.284,174.704 290.742,182.723" stroke-width="4.764" stroke="black" fill="none" stroke-linecap="round"></path><path d="M 290.742,182.723 C 291.681,187.895 291.541,187.919 292.340,193.116" stroke-width="5.295" stroke="black" fill="none" stroke-linecap="round"></path><circle r="3" cx="360.25469970703125" cy="328.21478271484375" fill="black"></circle><path d="M 194.062,86.795 C 197.658,97.587 197.585,97.612 201.253,108.379" stroke-width="7.815" stroke="black" fill="none" stroke-linecap="round"></path><path d="M 201.253,108.379 C 203.577,115.199 203.945,115.083 206.047,121.969" stroke-width="5.492" stroke="black" fill="none" stroke-linecap="round"></path><path d="M 206.047,121.969 C 208.339,129.473 208.428,129.483 210.042,137.157" stroke-width="4.896" stroke="black" fill="none" stroke-linecap="round"></path><path d="M 210.042,137.157 C 211.624,144.671 211.241,144.752 212.439,152.346" stroke-width="4.775" stroke="black" fill="none" stroke-linecap="round"></path><path d="M 212.439,152.346 C 213.638,159.940 213.750,159.925 214.836,167.535" stroke-width="4.740" stroke="black" fill="none" stroke-linecap="round"></path><path d="M 214.836,167.535 C 215.348,171.117 215.247,171.131 215.635,174.729" stroke-width="5.858" stroke="black" fill="none" stroke-linecap="round"></path><path d="M 215.635,174.729 C 216.845,185.920 217.268,185.898 218.032,197.113" stroke-width="4.500" stroke="black" fill="none" stroke-linecap="round"></path><path d="M 218.032,197.113 C 218.467,203.485 218.238,203.515 218.032,209.903" stroke-width="4.812" stroke="black" fill="none" stroke-linecap="round"></path><path d="M 218.032,209.903 C 217.839,215.905 218.110,215.973 217.233,221.894" stroke-width="5.125" stroke="black" fill="none" stroke-linecap="round"></path><path d="M 217.233,221.894 C 216.512,226.765 216.193,226.737 214.836,231.487" stroke-width="5.424" stroke="black" fill="none" stroke-linecap="round"></path><path d="M 214.836,231.487 C 213.796,235.130 214.028,235.275 212.439,238.682" stroke-width="6.029" stroke="black" fill="none" stroke-linecap="round"></path><path d="M 212.439,238.682 C 211.232,241.271 211.381,241.728 209.243,243.478" stroke-width="6.498" stroke="black" fill="none" stroke-linecap="round"></path><path d="M 209.243,243.478 C 206.987,245.325 205.785,246.653 203.650,245.876" stroke-width="7.231" stroke="black" fill="none" stroke-linecap="round"></path><path d="M 203.650,245.876 C 201.390,245.054 201.893,243.159 200.454,240.280" stroke-width="7.462" stroke="black" fill="none" stroke-linecap="round"></path><path d="M 200.454,240.280 C 198.697,236.764 198.616,236.772 197.258,233.086" stroke-width="6.494" stroke="black" fill="none" stroke-linecap="round"></path><path d="M 197.258,233.086 C 195.819,229.178 195.826,229.145 194.861,225.092" stroke-width="6.248" stroke="black" fill="none" stroke-linecap="round"></path><path d="M 194.861,225.092 C 193.828,220.751 194.183,220.669 193.263,216.298" stroke-width="5.909" stroke="black" fill="none" stroke-linecap="round"></path><path d="M 193.263,216.298 C 192.585,213.075 192.271,213.137 191.665,209.903" stroke-width="6.368" stroke="black" fill="none" stroke-linecap="round"></path><path d="M 191.665,209.903 C 191.073,206.741 191.496,203.718 190.866,203.508" stroke-width="7.162" stroke="black" fill="none" stroke-linecap="round"></path><path d="M 190.866,203.508 C 190.298,203.318 190.187,206.345 189.268,209.104" stroke-width="7.769" stroke="black" fill="none" stroke-linecap="round"></path><path d="M 189.268,209.104 C 188.190,212.341 188.238,212.374 186.871,215.499" stroke-width="6.854" stroke="black" fill="none" stroke-linecap="round"></path><path d="M 186.871,215.499 C 185.441,218.770 185.356,218.741 183.675,221.894" stroke-width="6.398" stroke="black" fill="none" stroke-linecap="round"></path><path d="M 183.675,221.894 C 182.160,224.736 182.166,224.747 180.479,227.490" stroke-width="6.487" stroke="black" fill="none" stroke-linecap="round"></path><path d="M 180.479,227.490 C 178.970,229.943 179.361,230.381 177.283,232.286" stroke-width="6.649" stroke="black" fill="none" stroke-linecap="round"></path><path d="M 177.283,232.286 C 174.567,234.778 174.274,235.607 170.891,236.283" stroke-width="7.185" stroke="black" fill="none" stroke-linecap="round"></path><path d="M 170.891,236.283 C 168.281,236.806 166.983,236.677 165.298,234.685" stroke-width="7.481" stroke="black" fill="none" stroke-linecap="round"></path><path d="M 165.298,234.685 C 162.589,231.480 162.926,230.424 162.102,225.891" stroke-width="7.180" stroke="black" fill="none" stroke-linecap="round"></path><path d="M 162.102,225.891 C 161.328,221.631 164.421,216.286 162.102,217.098" stroke-width="7.159" stroke="black" fill="none" stroke-linecap="round"></path><path d="M 162.102,217.098 C 156.431,219.084 154.600,224.909 146.122,231.487" stroke-width="7.349" stroke="black" fill="none" stroke-linecap="round"></path><path d="M 146.122,231.487 C 135.024,240.098 135.230,240.710 122.951,247.475" stroke-width="4.500" stroke="black" fill="none" stroke-linecap="round"></path><path d="M 122.951,247.475 C 107.664,255.898 107.172,255.152 90.991,261.864" stroke-width="4.500" stroke="black" fill="none" stroke-linecap="round"></path><path d="M 90.991,261.864 C 74.413,268.742 74.433,268.917 57.433,274.655" stroke-width="4.500" stroke="black" fill="none" stroke-linecap="round"></path><path d="M 57.433,274.655 C 41.275,280.108 41.205,280.058 24.674,284.248" stroke-width="4.500" stroke="black" fill="none" stroke-linecap="round"></path><path d="M 24.674,284.248 C 11.242,287.652 11.106,287.122 -2.492,289.843" stroke-width="4.500" stroke="black" fill="none" stroke-linecap="round"></path><path d="M -2.492,289.843 C -10.866,291.519 -10.840,291.878 -19.271,293.041" stroke-width="4.500" stroke="black" fill="none" stroke-linecap="round"></path><path d="M -19.271,293.041 C -22.426,293.476 -27.469,294.222 -25.663,293.041" stroke-width="5.541" stroke="black" fill="none" stroke-linecap="round"></path><path d="M -25.663,293.041 C -17.082,287.427 -12.322,285.728 1.503,279.451" stroke-width="4.965" stroke="black" fill="none" stroke-linecap="round"></path><path d="M 1.503,279.451 C 35.218,264.144 35.148,263.900 69.418,249.873" stroke-width="4.500" stroke="black" fill="none" stroke-linecap="round"></path><path d="M 69.418,249.873 C 105.460,235.121 105.517,235.177 142.127,221.894" stroke-width="4.500" stroke="black" fill="none" stroke-linecap="round"></path><path d="M 142.127,221.894 C 178.226,208.797 178.422,209.326 214.836,197.113" stroke-width="4.500" stroke="black" fill="none" stroke-linecap="round"></path><path d="M 214.836,197.113 C 248.734,185.743 248.704,185.639 282.752,174.729" stroke-width="4.500" stroke="black" fill="none" stroke-linecap="round"></path><path d="M 282.752,174.729 C 309.828,166.054 309.779,165.850 337.084,157.942" stroke-width="4.500" stroke="black" fill="none" stroke-linecap="round"></path><path d="M 337.084,157.942 C 355.322,152.660 355.299,152.116 373.838,148.349" stroke-width="4.500" stroke="black" fill="none" stroke-linecap="round"></path><path d="M 373.838,148.349 C 380.867,146.920 384.796,146.693 388.220,147.550" stroke-width="4.500" stroke="black" fill="none" stroke-linecap="round"></path><path d="M 388.220,147.550 C 389.590,147.892 386.054,149.620 383.426,150.747" stroke-width="5.445" stroke="black" fill="none" stroke-linecap="round"></path><path d="M 383.426,150.747 C 377.664,153.218 377.543,153.121 371.441,154.744" stroke-width="5.245" stroke="black" fill="none" stroke-linecap="round"></path><path d="M 371.441,154.744 C 345.982,161.515 345.987,161.634 320.305,167.535" stroke-width="4.500" stroke="black" fill="none" stroke-linecap="round"></path><path d="M 320.305,167.535 C 292.054,174.025 292.016,173.918 263.576,179.526" stroke-width="4.500" stroke="black" fill="none" stroke-linecap="round"></path><path d="M 263.576,179.526 C 237.285,184.710 237.283,184.782 210.841,189.119" stroke-width="4.500" stroke="black" fill="none" stroke-linecap="round"></path><path d="M 210.841,189.119 C 188.544,192.776 188.565,193.660 166.097,195.514" stroke-width="4.500" stroke="black" fill="none" stroke-linecap="round"></path><path d="M 166.097,195.514 C 149.813,196.858 149.534,197.010 133.338,195.514" stroke-width="4.500" stroke="black" fill="none" stroke-linecap="round"></path><path d="M 133.338,195.514 C 123.566,194.611 122.692,194.984 114.162,190.717" stroke-width="4.500" stroke="black" fill="none" stroke-linecap="round"></path><path d="M 114.162,190.717 C 108.310,187.790 107.166,186.909 104.574,181.125" stroke-width="4.500" stroke="black" fill="none" stroke-linecap="round"></path><path d="M 104.574,181.125 C 101.973,175.318 102.989,174.086 103.775,167.535" stroke-width="4.831" stroke="black" fill="none" stroke-linecap="round"></path><path d="M 103.775,167.535 C 104.188,164.094 104.656,163.803 106.971,161.139" stroke-width="5.794" stroke="black" fill="none" stroke-linecap="round"></path><path d="M 106.971,161.139 C 112.646,154.610 112.990,154.663 119.755,149.148" stroke-width="4.656" stroke="black" fill="none" stroke-linecap="round"></path><path d="M 119.755,149.148 C 123.777,145.870 123.740,145.450 128.544,143.553" stroke-width="5.341" stroke="black" fill="none" stroke-linecap="round"></path><path d="M 128.544,143.553 C 138.921,139.455 139.149,136.886 150.117,137.157" stroke-width="4.500" stroke="black" fill="none" stroke-linecap="round"></path><path d="M 150.117,137.157 C 171.508,137.686 173.051,137.543 193.263,145.151" stroke-width="4.500" stroke="black" fill="none" stroke-linecap="round"></path><path d="M 193.263,145.151 C 213.401,152.732 213.352,154.584 230.816,167.535" stroke-width="4.500" stroke="black" fill="none" stroke-linecap="round"></path><path d="M 230.816,167.535 C 247.310,179.765 246.705,180.829 261.179,195.514" stroke-width="4.500" stroke="black" fill="none" stroke-linecap="round"></path><path d="M 261.179,195.514 C 275.069,209.607 274.544,210.147 287.546,225.092" stroke-width="4.500" stroke="black" fill="none" stroke-linecap="round"></path><path d="M 287.546,225.092 C 293.321,231.730 294.053,231.261 298.732,238.682" stroke-width="4.500" stroke="black" fill="none" stroke-linecap="round"></path><path d="M 298.732,238.682 C 310.432,257.241 313.163,256.990 320.305,277.053" stroke-width="4.500" stroke="black" fill="none" stroke-linecap="round"></path><path d="M 320.305,277.053 C 323.550,286.169 322.652,288.320 319.506,297.038" stroke-width="4.500" stroke="black" fill="none" stroke-linecap="round"></path><path d="M 319.506,297.038 C 317.459,302.709 315.609,302.806 309.918,305.831" stroke-width="4.537" stroke="black" fill="none" stroke-linecap="round"></path><path d="M 309.918,305.831 C 290.041,316.396 289.935,317.432 268.370,324.218" stroke-width="4.500" stroke="black" fill="none" stroke-linecap="round"></path><path d="M 268.370,324.218 C 240.397,333.020 239.830,331.878 210.841,337.008" stroke-width="4.500" stroke="black" fill="none" stroke-linecap="round"></path><path d="M 210.841,337.008 C 181.104,342.271 180.932,341.457 150.916,345.002" stroke-width="4.500" stroke="black" fill="none" stroke-linecap="round"></path><path d="M 150.916,345.002 C 123.404,348.252 123.378,348.109 95.785,350.598" stroke-width="4.500" stroke="black" fill="none" stroke-linecap="round"></path><path d="M 95.785,350.598 C 74.639,352.506 74.626,352.991 53.438,353.796" stroke-width="4.500" stroke="black" fill="none" stroke-linecap="round"></path><path d="M 53.438,353.796 C 43.066,354.190 35.894,355.482 32.664,352.996" stroke-width="4.500" stroke="black" fill="none" stroke-linecap="round"></path><path d="M 32.664,352.996 C 30.701,351.485 37.254,348.236 43.051,345.802" stroke-width="5.385" stroke="black" fill="none" stroke-linecap="round"></path><path d="M 43.051,345.802 C 69.613,334.647 70.064,335.375 97.383,325.817" stroke-width="4.500" stroke="black" fill="none" stroke-linecap="round"></path><path d="M 97.383,325.817 C 135.183,312.592 135.199,312.606 173.288,300.236" stroke-width="4.500" stroke="black" fill="none" stroke-linecap="round"></path><path d="M 173.288,300.236 C 211.504,287.824 211.398,287.404 249.993,276.254" stroke-width="4.500" stroke="black" fill="none" stroke-linecap="round"></path><path d="M 249.993,276.254 C 286.105,265.820 286.218,266.139 322.702,257.068" stroke-width="4.500" stroke="black" fill="none" stroke-linecap="round"></path><path d="M 322.702,257.068 C 353.734,249.352 353.727,249.212 385.024,242.679" stroke-width="4.500" stroke="black" fill="none" stroke-linecap="round"></path><path d="M 385.024,242.679 C 409.257,237.620 409.314,237.760 433.763,233.885" stroke-width="4.500" stroke="black" fill="none" stroke-linecap="round"></path><path d="M 433.763,233.885 C 449.663,231.365 449.705,230.922 465.723,229.888" stroke-width="4.500" stroke="black" fill="none" stroke-linecap="round"></path><path d="M 465.723,229.888 C 474.474,229.323 475.881,228.312 483.301,230.688" stroke-width="4.500" stroke="black" fill="none" stroke-linecap="round"></path><path d="M 483.301,230.688 C 485.868,231.509 484.499,233.485 485.698,236.283" stroke-width="5.381" stroke="black" fill="none" stroke-linecap="round"></path></svg>