<svg xmlns="http://www.w3.org/2000/svg" xmlns:xlink="http://www.w3.org/1999/xlink" viewBox="0 0 576 416" width="576" height="416"><path d="M 169.293,225.538 C 164.100,229.535 163.399,228.850 158.906,233.532" stroke-width="7.789" stroke="black" fill="none" stroke-linecap="round"></path><path d="M 158.906,233.532 C 153.811,238.843 154.236,239.343 150.117,245.523" stroke-width="5.426" stroke="black" fill="none" stroke-linecap="round"></path><path d="M 150.117,245.523 C 145.447,252.533 145.171,252.438 141.328,259.913" stroke-width="4.650" stroke="black" fill="none" stroke-linecap="round"></path><path d="M 141.328,259.913 C 137.980,266.427 138.261,266.610 135.735,273.502" stroke-width="4.859" stroke="black" fill="none" stroke-linecap="round"></path><path d="M 135.735,273.502 C 133.867,278.601 133.501,278.603 132.539,283.895" stroke-width="5.284" stroke="black" fill="none" stroke-linecap="round"></path><path d="M 132.539,283.895 C 131.903,287.396 130.966,289.065 132.539,291.089" stroke-width="6.577" stroke="black" fill="none" stroke-linecap="round"></path><path d="M 132.539,291.089 C 133.762,292.663 135.464,291.808 138.132,291.089" stroke-width="7.322" stroke="black" fill="none" stroke-linecap="round"></path><path d="M 138.132,291.089 C 145.851,289.010 145.825,288.537 153.313,285.494" stroke-width="5.301" stroke="black" fill="none" stroke-linecap="round"></path><path d="M 153.313,285.494 C 158.609,283.341 158.466,283.002 163.700,280.697" stroke-width="5.356" stroke="black" fill="none" stroke-linecap="round"></path><path d="M 163.700,280.697 C 168.453,278.605 168.438,278.549 173.288,276.700" stroke-width="5.515" stroke="black" fill="none" stroke-linecap="round"></path><path d="M 173.288,276.700 C 176.828,275.351 176.793,274.690 180.479,274.302" stroke-width="6.063" stroke="black" fill="none" stroke-linecap="round"></path><path d="M 180.479,274.302 C 184.384,273.891 186.471,272.738 188.469,275.101" stroke-width="6.867" stroke="black" fill="none" stroke-linecap="round"></path><path d="M 188.469,275.101 C 190.865,277.934 189.445,279.912 189.268,284.694" stroke-width="6.969" stroke="black" fill="none" stroke-linecap="round"></path><path d="M 189.268,284.694 C 189.046,290.704 188.697,290.729 187.670,296.685" stroke-width="5.676" stroke="black" fill="none" stroke-linecap="round"></path><path d="M 187.670,296.685 C 186.699,302.320 186.353,302.258 185.273,307.877" stroke-width="5.465" stroke="black" fill="none" stroke-linecap="round"></path><path d="M 185.273,307.877 C 184.356,312.651 184.362,312.658 183.675,317.470" stroke-width="5.557" stroke="black" fill="none" stroke-linecap="round"></path><path d="M 183.675,317.470 C 183.164,321.051 182.641,321.134 182.876,324.664" stroke-width="6.133" stroke="black" fill="none" stroke-linecap="round"></path><path d="M 182.876,324.664 C 183.041,327.130 182.710,328.402 184.474,329.461" stroke-width="6.675" stroke="black" fill="none" stroke-linecap="round"></path><path d="M 184.474,329.461 C 186.705,330.800 188.077,330.729 190.866,329.461" stroke-width="7.281" stroke="black" fill="none" stroke-linecap="round"></path><path d="M 190.866,329.461 C 196.866,326.732 196.835,325.919 202.052,321.467" stroke-width="5.498" stroke="black" fill="none" stroke-linecap="round"></path><path d="M 202.052,321.467 C 210.418,314.327 210.458,314.266 218.032,306.278" stroke-width="4.500" stroke="black" fill="none" stroke-linecap="round"></path><path d="M 218.032,306.278 C 225.240,298.677 225.123,298.518 231.615,290.290" stroke-width="4.500" stroke="black" fill="none" stroke-linecap="round"></path><path d="M 231.615,290.290 C 237.108,283.329 237.316,283.402 242.003,275.901" stroke-width="4.500" stroke="black" fill="none" stroke-linecap="round"></path><path d="M 242.003,275.901 C 245.306,270.612 245.364,270.514 247.596,264.709" stroke-width="4.833" stroke="black" fill="none" stroke-linecap="round"></path><path d="M 247.596,264.709 C 249.359,260.122 249.509,259.956 249.993,255.116" stroke-width="5.321" stroke="black" fill="none" stroke-linecap="round"></path><path d="M 249.993,255.116 C 250.308,251.962 250.761,250.961 249.194,248.721" stroke-width="6.043" stroke="black" fill="none" stroke-linecap="round"></path><path d="M 249.194,248.721 C 247.964,246.964 246.144,246.346 244.400,247.122" stroke-width="7.507" stroke="black" fill="none" stroke-linecap="round"></path><path d="M 244.400,247.122 C 242.549,247.945 242.131,249.347 242.003,251.919" stroke-width="7.692" stroke="black" fill="none" stroke-linecap="round"></path><path d="M 242.003,251.919 C 241.732,257.341 242.246,257.688 243.601,263.110" stroke-width="7.011" stroke="black" fill="none" stroke-linecap="round"></path><path d="M 243.601,263.110 C 244.243,265.682 244.567,265.657 245.998,267.907" stroke-width="6.892" stroke="black" fill="none" stroke-linecap="round"></path><path d="M 245.998,267.907 C 247.363,270.054 247.140,270.534 249.194,271.904" stroke-width="6.910" stroke="black" fill="none" stroke-linecap="round"></path><path d="M 249.194,271.904 C 251.934,273.731 254.113,275.591 255.586,274.302" stroke-width="7.309" stroke="black" fill="none" stroke-linecap="round"></path><path d="M 255.586,274.302 C 257.309,272.793 255.981,270.266 255.586,266.308" stroke-width="7.633" stroke="black" fill="none" stroke-linecap="round"></path><path d="M 255.586,266.308 C 255.182,262.272 255.268,262.156 253.988,258.314" stroke-width="6.478" stroke="black" fill="none" stroke-linecap="round"></path><path d="M 253.988,258.314 C 252.471,253.762 251.783,253.998 249.993,249.520" stroke-width="5.942" stroke="black" fill="none" stroke-linecap="round"></path><path d="M 249.993,249.520 C 248.587,246.004 249.000,245.838 247.596,242.326" stroke-width="6.137" stroke="black" fill="none" stroke-linecap="round"></path><path d="M 247.596,242.326 C 246.603,239.842 246.156,240.021 245.199,237.529" stroke-width="6.614" stroke="black" fill="none" stroke-linecap="round"></path><path d="M 245.199,237.529 C 244.159,234.825 242.354,233.003 243.601,231.934" stroke-width="7.329" stroke="black" fill="none" stroke-linecap="round"></path><path d="M 243.601,231.934 C 245.150,230.604 247.255,232.025 250.792,232.733" stroke-width="7.694" stroke="black" fill="none" stroke-linecap="round"></path><path d="M 250.792,232.733 C 255.245,233.624 255.287,233.637 259.581,235.131" stroke-width="6.405" stroke="black" fill="none" stroke-linecap="round"></path><path d="M 259.581,235.131 C 264.476,236.835 264.309,237.305 269.169,239.128" stroke-width="5.711" stroke="black" fill="none" stroke-linecap="round"></path><path d="M 269.169,239.128 C 273.897,240.902 273.920,240.874 278.757,242.326" stroke-width="5.664" stroke="black" fill="none" stroke-linecap="round"></path><path d="M 278.757,242.326 C 281.910,243.272 281.907,243.492 285.149,243.924" stroke-width="6.215" stroke="black" fill="none" stroke-linecap="round"></path><path d="M 285.149,243.924 C 287.900,244.291 288.591,245.180 290.742,243.924" stroke-width="6.657" stroke="black" fill="none" stroke-linecap="round"></path><path d="M 290.742,243.924 C 293.385,242.382 294.559,241.346 294.737,238.329" stroke-width="7.217" stroke="black" fill="none" stroke-linecap="round"></path><path d="M 294.737,238.329 C 294.959,234.551 293.287,234.265 291.541,230.335" stroke-width="7.192" stroke="black" fill="none" stroke-linecap="round"></path><path d="M 291.541,230.335 C 290.091,227.071 290.025,227.093 288.345,223.939" stroke-width="6.570" stroke="black" fill="none" stroke-linecap="round"></path><path d="M 288.345,223.939 C 286.829,221.097 286.728,221.152 285.149,218.344" stroke-width="6.539" stroke="black" fill="none" stroke-linecap="round"></path><path d="M 285.149,218.344 C 283.132,214.757 280.162,212.340 281.154,211.149" stroke-width="7.019" stroke="black" fill="none" stroke-linecap="round"></path><path d="M 281.154,211.149 C 282.159,209.942 285.211,212.170 289.144,213.547" stroke-width="7.505" stroke="black" fill="none" stroke-linecap="round"></path><path d="M 289.144,213.547 C 293.201,214.968 293.017,215.568 297.134,216.745" stroke-width="6.364" stroke="black" fill="none" stroke-linecap="round"></path><path d="M 297.134,216.745 C 301.407,217.966 301.504,217.712 305.923,218.344" stroke-width="6.032" stroke="black" fill="none" stroke-linecap="round"></path><path d="M 305.923,218.344 C 309.894,218.911 309.918,219.143 313.913,219.143" stroke-width="6.004" stroke="black" fill="none" stroke-linecap="round"></path><path d="M 313.913,219.143 C 317.908,219.143 317.964,219.039 321.903,218.344" stroke-width="6.156" stroke="black" fill="none" stroke-linecap="round"></path><path d="M 321.903,218.344 C 324.756,217.840 325.064,218.164 327.496,216.745" stroke-width="6.531" stroke="black" fill="none" stroke-linecap="round"></path><path d="M 327.496,216.745 C 329.858,215.366 329.903,215.042 331.491,212.748" stroke-width="6.686" stroke="black" fill="none" stroke-linecap="round"></path><path d="M 331.491,212.748 C 333.499,209.846 333.440,209.680 334.687,206.353" stroke-width="6.437" stroke="black" fill="none" stroke-linecap="round"></path><path d="M 334.687,206.353 C 335.837,203.285 336.083,203.191 336.285,199.957" stroke-width="6.471" stroke="black" fill="none" stroke-linecap="round"></path><path d="M 336.285,199.957 C 336.482,196.796 336.157,196.698 335.486,193.562" stroke-width="6.509" stroke="black" fill="none" stroke-linecap="round"></path><path d="M 335.486,193.562 C 334.959,191.102 335.079,190.951 333.888,188.766" stroke-width="6.803" stroke="black" fill="none" stroke-linecap="round"></path><path d="M 333.888,188.766 C 332.682,186.554 332.746,186.139 330.692,184.769" stroke-width="6.883" stroke="black" fill="none" stroke-linecap="round"></path><path d="M 330.692,184.769 C 327.952,182.941 327.268,182.142 324.300,182.370" stroke-width="7.300" stroke="black" fill="none" stroke-linecap="round"></path><path d="M 324.300,182.370 C 322.075,182.542 321.920,183.629 320.305,185.568" stroke-width="7.028" stroke="black" fill="none" stroke-linecap="round"></path><path d="M 320.305,185.568 C 317.925,188.425 317.903,188.575 316.310,191.963" stroke-width="6.453" stroke="black" fill="none" stroke-linecap="round"></path><path d="M 316.310,191.963 C 314.707,195.370 314.926,195.509 313.913,199.158" stroke-width="6.291" stroke="black" fill="none" stroke-linecap="round"></path><path d="M 313.913,199.158 C 312.928,202.704 312.506,202.719 312.315,206.353" stroke-width="6.282" stroke="black" fill="none" stroke-linecap="round"></path><path d="M 312.315,206.353 C 312.106,210.313 311.670,214.347 313.114,214.347" stroke-width="6.949" stroke="black" fill="none" stroke-linecap="round"></path><path d="M 313.114,214.347 C 314.866,214.347 316.459,210.626 318.707,206.353" stroke-width="7.569" stroke="black" fill="none" stroke-linecap="round"></path><path d="M 318.707,206.353 C 320.454,203.031 319.905,202.755 321.104,199.158" stroke-width="6.574" stroke="black" fill="none" stroke-linecap="round"></path><path d="M 321.104,199.158 C 322.302,195.561 322.171,195.511 323.501,191.963" stroke-width="6.325" stroke="black" fill="none" stroke-linecap="round"></path><path d="M 323.501,191.963 C 324.568,189.116 324.470,189.046 325.898,186.367" stroke-width="6.460" stroke="black" fill="none" stroke-linecap="round"></path><path d="M 325.898,186.367 C 327.666,183.050 327.121,181.252 329.893,179.972" stroke-width="7.117" stroke="black" fill="none" stroke-linecap="round"></path><path d="M 329.893,179.972 C 332.315,178.854 333.059,180.925 336.285,181.571" stroke-width="7.682" stroke="black" fill="none" stroke-linecap="round"></path><path d="M 336.285,181.571 C 339.051,182.125 340.021,183.764 341.878,182.370" stroke-width="7.971" stroke="black" fill="none" stroke-linecap="round"></path><path d="M 341.878,182.370 C 344.815,180.166 344.644,178.555 345.873,174.376" stroke-width="7.749" stroke="black" fill="none" stroke-linecap="round"></path><path d="M 345.873,174.376 C 346.642,171.760 345.674,171.564 345.873,168.781" stroke-width="7.038" stroke="black" fill="none" stroke-linecap="round"></path><path d="M 345.873,168.781 C 346.073,165.969 346.181,165.967 346.672,163.185" stroke-width="6.837" stroke="black" fill="none" stroke-linecap="round"></path><path d="M 346.672,163.185 C 347.379,159.172 346.618,158.732 348.270,155.191" stroke-width="7.127" stroke="black" fill="none" stroke-linecap="round"></path><path d="M 348.270,155.191 C 349.415,152.736 349.927,152.697 352.265,151.194" stroke-width="7.530" stroke="black" fill="none" stroke-linecap="round"></path><path d="M 352.265,151.194 C 355.520,149.100 355.941,149.754 359.456,147.996" stroke-width="7.374" stroke="black" fill="none" stroke-linecap="round"></path><path d="M 359.456,147.996 C 362.333,146.557 366.471,145.510 365.049,144.798" stroke-width="7.507" stroke="black" fill="none" stroke-linecap="round"></path><path d="M 365.049,144.798 C 361.677,143.112 357.333,142.303 349.868,143.200" stroke-width="7.091" stroke="black" fill="none" stroke-linecap="round"></path><path d="M 349.868,143.200 C 337.358,144.702 337.051,145.172 325.099,149.595" stroke-width="4.500" stroke="black" fill="none" stroke-linecap="round"></path><path d="M 325.099,149.595 C 307.888,155.964 307.571,155.832 291.541,164.784" stroke-width="4.500" stroke="black" fill="none" stroke-linecap="round"></path><path d="M 291.541,164.784 C 273.214,175.018 273.033,175.169 256.385,187.966" stroke-width="4.500" stroke="black" fill="none" stroke-linecap="round"></path><path d="M 256.385,187.966 C 240.274,200.350 240.401,200.761 226.022,215.146" stroke-width="4.500" stroke="black" fill="none" stroke-linecap="round"></path><path d="M 226.022,215.146 C 213.634,227.541 214.082,228.043 202.851,241.526" stroke-width="4.500" stroke="black" fill="none" stroke-linecap="round"></path><path d="M 202.851,241.526 C 194.107,252.025 193.444,251.691 186.072,263.110" stroke-width="4.500" stroke="black" fill="none" stroke-linecap="round"></path><path d="M 186.072,263.110 C 181.059,270.876 181.230,271.238 178.082,279.898" stroke-width="4.500" stroke="black" fill="none" stroke-linecap="round"></path><path d="M 178.082,279.898 C 176.436,284.428 175.543,285.252 176.484,289.491" stroke-width="5.029" stroke="black" fill="none" stroke-linecap="round"></path><path d="M 176.484,289.491 C 177.141,292.446 178.185,293.955 181.278,294.287" stroke-width="5.936" stroke="black" fill="none" stroke-linecap="round"></path><path d="M 181.278,294.287 C 189.371,295.155 190.368,294.295 198.856,291.889" stroke-width="5.921" stroke="black" fill="none" stroke-linecap="round"></path><path d="M 198.856,291.889 C 214.338,287.500 214.778,287.832 229.218,280.697" stroke-width="4.500" stroke="black" fill="none" stroke-linecap="round"></path><path d="M 229.218,280.697 C 247.138,271.844 247.095,271.312 263.576,259.913" stroke-width="4.500" stroke="black" fill="none" stroke-linecap="round"></path><path d="M 263.576,259.913 C 279.455,248.929 279.134,248.371 293.938,235.931" stroke-width="4.500" stroke="black" fill="none" stroke-linecap="round"></path><path d="M 293.938,235.931 C 309.097,223.190 308.856,222.890 323.501,209.550" stroke-width="4.500" stroke="black" fill="none" stroke-linecap="round"></path><path d="M 323.501,209.550 C 335.622,198.508 335.769,198.645 347.471,187.167" stroke-width="4.500" stroke="black" fill="none" stroke-linecap="round"></path><path d="M 347.471,187.167 C 356.144,178.660 356.364,178.784 364.250,169.580" stroke-width="4.500" stroke="black" fill="none" stroke-linecap="round"></path><path d="M 364.250,169.580 C 368.349,164.795 374.347,159.849 371.441,159.188" stroke-width="4.500" stroke="black" fill="none" stroke-linecap="round"></path><path d="M 371.441,159.188 C 365.558,157.850 358.255,160.451 346.672,165.583" stroke-width="5.750" stroke="black" fill="none" stroke-linecap="round"></path><path d="M 346.672,165.583 C 330.289,172.842 330.406,173.773 315.511,183.969" stroke-width="4.500" stroke="black" fill="none" stroke-linecap="round"></path><path d="M 315.511,183.969 C 300.044,194.557 299.676,194.427 285.948,207.152" stroke-width="4.500" stroke="black" fill="none" stroke-linecap="round"></path><path d="M 285.948,207.152 C 272.510,219.608 272.870,220.171 261.179,234.332" stroke-width="4.500" stroke="black" fill="none" stroke-linecap="round"></path><path d="M 261.179,234.332 C 250.099,247.751 249.786,247.686 240.405,262.311" stroke-width="4.500" stroke="black" fill="none" stroke-linecap="round"></path><path d="M 240.405,262.311 C 232.607,274.466 232.920,274.785 226.822,287.892" stroke-width="4.500" stroke="black" fill="none" stroke-linecap="round"></path><path d="M 226.822,287.892 C 222.133,297.968 221.868,298.044 218.832,308.676" stroke-width="4.500" stroke="black" fill="none" stroke-linecap="round"></path><path d="M 218.832,308.676 C 217.074,314.831 216.277,315.486 217.233,321.467" stroke-width="4.783" stroke="black" fill="none" stroke-linecap="round"></path><path d="M 217.233,321.467 C 217.875,325.478 218.459,327.769 222.027,328.661" stroke-width="5.554" stroke="black" fill="none" stroke-linecap="round"></path><path d="M 222.027,328.661 C 228.047,330.167 229.608,328.713 236.410,326.263" stroke-width="6.055" stroke="black" fill="none" stroke-linecap="round"></path><path d="M 236.410,326.263 C 249.583,321.518 249.681,321.161 261.978,314.272" stroke-width="4.500" stroke="black" fill="none" stroke-linecap="round"></path><path d="M 261.978,314.272 C 279.644,304.374 279.814,304.412 296.335,292.688" stroke-width="4.500" stroke="black" fill="none" stroke-linecap="round"></path><path d="M 296.335,292.688 C 314.171,280.030 313.517,279.104 330.692,265.508" stroke-width="4.500" stroke="black" fill="none" stroke-linecap="round"></path><path d="M 330.692,265.508 C 349.872,250.325 350.026,250.515 369.044,235.131" stroke-width="4.500" stroke="black" fill="none" stroke-linecap="round"></path><path d="M 369.044,235.131 C 387.579,220.138 387.286,219.776 405.798,204.754" stroke-width="4.500" stroke="black" fill="none" stroke-linecap="round"></path><path d="M 405.798,204.754 C 423.241,190.598 423.376,190.764 440.954,176.775" stroke-width="4.500" stroke="black" fill="none" stroke-linecap="round"></path></svg>