<svg xmlns="http://www.w3.org/2000/svg" xmlns:xlink="http://www.w3.org/1999/xlink" viewBox="0 0 576 416" width="576" height="416"><path d="M 66.222,184.758 C 71.815,190.753 72.061,190.543 77.408,196.749" stroke-width="8.082" stroke="black" fill="none" stroke-linecap="round"></path><path d="M 77.408,196.749 C 82.048,202.134 81.930,202.249 86.197,207.941" stroke-width="5.555" stroke="black" fill="none" stroke-linecap="round"></path><path d="M 86.197,207.941 C 91.518,215.039 91.263,215.231 96.584,222.330" stroke-width="4.695" stroke="black" fill="none" stroke-linecap="round"></path><path d="M 96.584,222.330 C 102.049,229.620 102.273,229.452 107.770,236.719" stroke-width="4.500" stroke="black" fill="none" stroke-linecap="round"></path><path d="M 107.770,236.719 C 113.459,244.241 113.267,244.386 118.956,251.908" stroke-width="4.500" stroke="black" fill="none" stroke-linecap="round"></path><path d="M 118.956,251.908 C 124.453,259.175 124.578,259.080 130.142,266.297" stroke-width="4.500" stroke="black" fill="none" stroke-linecap="round"></path><path d="M 130.142,266.297 C 135.364,273.070 135.317,273.107 140.529,279.887" stroke-width="4.500" stroke="black" fill="none" stroke-linecap="round"></path><path d="M 140.529,279.887 C 143.307,283.499 143.326,283.484 146.122,287.082" stroke-width="5.317" stroke="black" fill="none" stroke-linecap="round"></path><path d="M 114.162,163.973 C 110.167,173.966 110.033,173.914 106.172,183.959" stroke-width="7.494" stroke="black" fill="none" stroke-linecap="round"></path><path d="M 106.172,183.959 C 102.043,194.699 102.351,194.818 98.182,205.542" stroke-width="4.500" stroke="black" fill="none" stroke-linecap="round"></path><path d="M 98.182,205.542 C 93.961,216.402 93.759,216.323 89.393,227.126" stroke-width="4.500" stroke="black" fill="none" stroke-linecap="round"></path><path d="M 89.393,227.126 C 86.168,235.109 85.961,235.038 83.001,243.114" stroke-width="4.500" stroke="black" fill="none" stroke-linecap="round"></path><path d="M 83.001,243.114 C 81.567,247.029 78.637,251.803 80.604,251.108" stroke-width="5.384" stroke="black" fill="none" stroke-linecap="round"></path><path d="M 80.604,251.108 C 85.429,249.405 88.837,244.993 96.584,238.318" stroke-width="5.546" stroke="black" fill="none" stroke-linecap="round"></path><path d="M 96.584,238.318 C 103.219,232.602 102.885,232.223 109.368,226.327" stroke-width="4.607" stroke="black" fill="none" stroke-linecap="round"></path><path d="M 109.368,226.327 C 124.858,212.238 124.548,211.860 140.529,198.348" stroke-width="4.500" stroke="black" fill="none" stroke-linecap="round"></path><path d="M 140.529,198.348 C 152.913,187.878 153.068,188.019 166.097,178.363" stroke-width="4.500" stroke="black" fill="none" stroke-linecap="round"></path><path d="M 166.097,178.363 C 174.641,172.031 181.088,166.372 183.675,166.372" stroke-width="4.500" stroke="black" fill="none" stroke-linecap="round"></path><path d="M 183.675,166.372 C 185.483,166.372 180.011,173.012 174.886,178.363" stroke-width="5.204" stroke="black" fill="none" stroke-linecap="round"></path><path d="M 174.886,178.363 C 161.634,192.198 160.719,191.363 146.921,204.743" stroke-width="4.500" stroke="black" fill="none" stroke-linecap="round"></path><path d="M 146.921,204.743 C 134.752,216.544 134.811,216.612 122.951,228.725" stroke-width="4.500" stroke="black" fill="none" stroke-linecap="round"></path><path d="M 122.951,228.725 C 115.635,236.198 111.581,239.092 108.569,243.914" stroke-width="4.500" stroke="black" fill="none" stroke-linecap="round"></path><path d="M 108.569,243.914 C 107.586,245.488 112.217,243.520 114.961,241.516" stroke-width="5.701" stroke="black" fill="none" stroke-linecap="round"></path><path d="M 114.961,241.516 C 137.386,225.134 136.781,224.130 158.906,207.141" stroke-width="4.500" stroke="black" fill="none" stroke-linecap="round"></path><path d="M 158.906,207.141 C 188.317,184.559 187.928,184.004 218.032,162.375" stroke-width="4.500" stroke="black" fill="none" stroke-linecap="round"></path><path d="M 218.032,162.375 C 247.454,141.236 247.419,141.086 277.958,121.605" stroke-width="4.500" stroke="black" fill="none" stroke-linecap="round"></path><path d="M 277.958,121.605 C 306.945,103.114 307.384,103.783 337.084,86.431" stroke-width="4.500" stroke="black" fill="none" stroke-linecap="round"></path><path d="M 337.084,86.431 C 362.115,71.807 362.126,71.816 387.421,57.653" stroke-width="4.500" stroke="black" fill="none" stroke-linecap="round"></path><path d="M 387.421,57.653 C 405.672,47.434 405.934,47.899 424.175,37.668" stroke-width="4.500" stroke="black" fill="none" stroke-linecap="round"></path><path d="M 424.175,37.668 C 432.301,33.110 438.404,29.827 440.155,28.075" stroke-width="4.500" stroke="black" fill="none" stroke-linecap="round"></path><path d="M 440.155,28.075 C 441.200,27.029 434.803,29.709 429.768,32.072" stroke-width="5.256" stroke="black" fill="none" stroke-linecap="round"></path><path d="M 429.768,32.072 C 402.443,44.897 402.271,44.616 375.436,58.452" stroke-width="4.500" stroke="black" fill="none" stroke-linecap="round"></path><path d="M 375.436,58.452 C 337.153,78.191 336.575,77.303 299.531,99.222" stroke-width="4.500" stroke="black" fill="none" stroke-linecap="round"></path><path d="M 299.531,99.222 C 262.268,121.270 262.388,121.665 226.822,146.387" stroke-width="4.500" stroke="black" fill="none" stroke-linecap="round"></path><path d="M 226.822,146.387 C 186.482,174.426 186.267,174.296 147.720,204.743" stroke-width="4.500" stroke="black" fill="none" stroke-linecap="round"></path><path d="M 147.720,204.743 C 110.362,234.251 111.268,235.405 75.011,266.297" stroke-width="4.500" stroke="black" fill="none" stroke-linecap="round"></path><path d="M 75.011,266.297 C 49.345,288.166 49.659,288.540 23.875,310.264" stroke-width="4.500" stroke="black" fill="none" stroke-linecap="round"></path><path d="M 23.875,310.264 C 11.707,320.516 11.804,320.721 -0.894,330.249" stroke-width="4.500" stroke="black" fill="none" stroke-linecap="round"></path><path d="M -0.894,330.249 C -4.176,332.712 -7.016,334.888 -8.085,334.246" stroke-width="4.500" stroke="black" fill="none" stroke-linecap="round"></path><path d="M -8.085,334.246 C -9.014,333.689 -6.319,331.122 -4.889,327.851" stroke-width="6.255" stroke="black" fill="none" stroke-linecap="round"></path><path d="M -4.889,327.851 C -3.523,324.727 -3.931,324.541 -2.492,321.456" stroke-width="6.292" stroke="black" fill="none" stroke-linecap="round"></path><path d="M -2.492,321.456 C -1.134,318.545 -1.242,318.392 0.704,315.860" stroke-width="6.454" stroke="black" fill="none" stroke-linecap="round"></path><path d="M 0.704,315.860 C 2.753,313.196 3.002,313.353 5.498,311.064" stroke-width="6.440" stroke="black" fill="none" stroke-linecap="round"></path><path d="M 5.498,311.064 C 7.796,308.956 7.593,308.567 10.292,307.067" stroke-width="6.539" stroke="black" fill="none" stroke-linecap="round"></path><path d="M 10.292,307.067 C 14.784,304.570 14.949,304.655 19.880,303.070" stroke-width="5.842" stroke="black" fill="none" stroke-linecap="round"></path><path d="M 19.880,303.070 C 26.135,301.058 26.305,301.592 32.664,299.872" stroke-width="5.374" stroke="black" fill="none" stroke-linecap="round"></path><path d="M 32.664,299.872 C 41.086,297.595 40.973,297.143 49.443,295.076" stroke-width="4.578" stroke="black" fill="none" stroke-linecap="round"></path><path d="M 49.443,295.076 C 57.353,293.146 57.500,293.756 65.423,291.878" stroke-width="4.590" stroke="black" fill="none" stroke-linecap="round"></path><path d="M 65.423,291.878 C 72.681,290.158 72.557,289.639 79.805,287.881" stroke-width="4.730" stroke="black" fill="none" stroke-linecap="round"></path><path d="M 79.805,287.881 C 85.740,286.441 85.798,286.682 91.790,285.483" stroke-width="5.073" stroke="black" fill="none" stroke-linecap="round"></path></svg>