<svg xmlns="http://www.w3.org/2000/svg" xmlns:xlink="http://www.w3.org/1999/xlink" viewBox="0 0 576 416" width="576" height="416"><path d="M 468.120,370.230 C 464.125,377.425 463.895,377.308 460.130,384.620" stroke-width="6.906" stroke="black" fill="none" stroke-linecap="round"></path><path d="M 460.130,384.620 C 457.103,390.498 456.727,390.382 454.537,396.611" stroke-width="5.502" stroke="black" fill="none" stroke-linecap="round"></path><path d="M 454.537,396.611 C 449.137,411.966 448.577,411.928 444.949,427.787" stroke-width="4.500" stroke="black" fill="none" stroke-linecap="round"></path><path d="M 444.949,427.787 C 440.987,445.104 441.173,445.297 439.356,462.961" stroke-width="4.500" stroke="black" fill="none" stroke-linecap="round"></path><path d="M 439.356,462.961 C 438.377,472.477 439.217,472.555 439.356,482.147" stroke-width="4.500" stroke="black" fill="none" stroke-linecap="round"></path><path d="M 439.356,482.147 C 439.616,500.135 438.890,500.197 440.155,518.120" stroke-width="4.500" stroke="black" fill="none" stroke-linecap="round"></path><path d="M 440.155,518.120 C 441.287,534.171 441.912,534.144 444.150,550.096" stroke-width="4.500" stroke="black" fill="none" stroke-linecap="round"></path><path d="M 444.150,550.096 C 445.108,556.927 447.008,567.375 446.547,563.686" stroke-width="4.500" stroke="black" fill="none" stroke-linecap="round"></path></svg>