<svg xmlns="http://www.w3.org/2000/svg" xmlns:xlink="http://www.w3.org/1999/xlink" viewBox="0 0 576 416" width="576" height="416"><path d="M 408.195,234.332 C 403.401,233.932 403.129,234.825 398.607,233.532" stroke-width="8.755" stroke="black" fill="none" stroke-linecap="round"></path><path d="M 398.607,233.532 C 394.740,232.427 394.618,231.999 391.416,229.535" stroke-width="8.042" stroke="black" fill="none" stroke-linecap="round"></path><path d="M 391.416,229.535 C 389.424,228.002 389.341,227.783 388.220,225.538" stroke-width="7.865" stroke="black" fill="none" stroke-linecap="round"></path><path d="M 388.220,225.538 C 386.944,222.986 386.197,222.495 386.622,219.942" stroke-width="7.738" stroke="black" fill="none" stroke-linecap="round"></path><path d="M 386.622,219.942 C 386.996,217.698 387.808,216.549 389.818,215.945" stroke-width="8.302" stroke="black" fill="none" stroke-linecap="round"></path><path d="M 389.818,215.945 C 391.803,215.350 392.537,216.223 394.612,217.544" stroke-width="7.991" stroke="black" fill="none" stroke-linecap="round"></path><path d="M 394.612,217.544 C 396.932,219.021 397.131,219.221 398.607,221.541" stroke-width="7.774" stroke="black" fill="none" stroke-linecap="round"></path><path d="M 398.607,221.541 C 399.927,223.617 400.205,223.898 400.205,226.338" stroke-width="7.816" stroke="black" fill="none" stroke-linecap="round"></path><path d="M 400.205,226.338 C 400.205,229.894 399.886,230.120 398.607,233.532" stroke-width="7.545" stroke="black" fill="none" stroke-linecap="round"></path><path d="M 398.607,233.532 C 397.489,236.516 397.326,236.573 395.411,239.128" stroke-width="6.878" stroke="black" fill="none" stroke-linecap="round"></path><path d="M 395.411,239.128 C 393.731,241.369 393.579,241.322 391.416,243.125" stroke-width="6.791" stroke="black" fill="none" stroke-linecap="round"></path><path d="M 391.416,243.125 C 388.785,245.319 388.545,245.027 385.823,247.122" stroke-width="6.519" stroke="black" fill="none" stroke-linecap="round"></path><path d="M 385.823,247.122 C 383.351,249.024 383.700,249.592 381.029,251.119" stroke-width="6.564" stroke="black" fill="none" stroke-linecap="round"></path><path d="M 381.029,251.119 C 378.107,252.790 377.720,252.078 374.637,253.517" stroke-width="6.383" stroke="black" fill="none" stroke-linecap="round"></path><path d="M 374.637,253.517 C 371.727,254.876 371.879,255.188 369.044,256.715" stroke-width="6.483" stroke="black" fill="none" stroke-linecap="round"></path><path d="M 369.044,256.715 C 366.685,257.986 366.584,257.800 364.250,259.113" stroke-width="6.730" stroke="black" fill="none" stroke-linecap="round"></path><path d="M 364.250,259.113 C 360.192,261.397 359.959,261.133 356.260,263.910" stroke-width="6.960" stroke="black" fill="none" stroke-linecap="round"></path><path d="M 356.260,263.910 C 353.567,265.930 353.360,265.968 351.466,268.706" stroke-width="7.332" stroke="black" fill="none" stroke-linecap="round"></path><path d="M 351.466,268.706 C 349.765,271.164 349.972,271.409 349.069,274.302" stroke-width="7.540" stroke="black" fill="none" stroke-linecap="round"></path><path d="M 349.069,274.302 C 347.975,277.804 348.364,277.923 347.471,281.496" stroke-width="7.764" stroke="black" fill="none" stroke-linecap="round"></path><path d="M 347.471,281.496 C 346.766,284.318 347.091,284.481 345.873,287.092" stroke-width="6.991" stroke="black" fill="none" stroke-linecap="round"></path><path d="M 345.873,287.092 C 344.294,290.476 344.005,290.377 341.878,293.488" stroke-width="6.444" stroke="black" fill="none" stroke-linecap="round"></path><path d="M 341.878,293.488 C 338.811,297.972 339.198,298.372 335.486,302.281" stroke-width="5.745" stroke="black" fill="none" stroke-linecap="round"></path><path d="M 335.486,302.281 C 331.607,306.366 331.276,306.128 326.697,309.476" stroke-width="5.496" stroke="black" fill="none" stroke-linecap="round"></path><path d="M 326.697,309.476 C 320.889,313.722 320.866,313.738 314.712,317.470" stroke-width="4.941" stroke="black" fill="none" stroke-linecap="round"></path><path d="M 314.712,317.470 C 307.682,321.732 307.521,321.467 300.330,325.464" stroke-width="4.678" stroke="black" fill="none" stroke-linecap="round"></path><circle r="3" cx="375.4356994628906" cy="176.774658203125" fill="black"></circle><path d="M 324.300,229.535 C 319.905,231.933 320.059,232.309 315.511,234.332" stroke-width="8.648" stroke="black" fill="none" stroke-linecap="round"></path><path d="M 315.511,234.332 C 312.868,235.507 312.769,235.523 309.918,235.931" stroke-width="8.217" stroke="black" fill="none" stroke-linecap="round"></path><path d="M 309.918,235.931 C 307.176,236.322 306.055,234.356 304.325,235.931" stroke-width="8.259" stroke="black" fill="none" stroke-linecap="round"></path><path d="M 304.325,235.931 C 301.661,238.353 302.875,239.994 301.129,243.924" stroke-width="7.827" stroke="black" fill="none" stroke-linecap="round"></path><path d="M 301.129,243.924 C 299.679,247.189 299.531,247.122 297.933,250.320" stroke-width="6.629" stroke="black" fill="none" stroke-linecap="round"></path><path d="M 297.933,250.320 C 296.335,253.517 296.247,253.477 294.737,256.715" stroke-width="6.338" stroke="black" fill="none" stroke-linecap="round"></path><path d="M 294.737,256.715 C 293.451,259.472 293.776,259.642 292.340,262.311" stroke-width="6.464" stroke="black" fill="none" stroke-linecap="round"></path><path d="M 292.340,262.311 C 290.980,264.838 290.742,264.709 289.144,267.107" stroke-width="6.642" stroke="black" fill="none" stroke-linecap="round"></path><path d="M 289.144,267.107 C 286.747,270.705 287.226,271.184 284.350,274.302" stroke-width="6.946" stroke="black" fill="none" stroke-linecap="round"></path><path d="M 284.350,274.302 C 282.432,276.380 281.857,277.691 279.556,277.499" stroke-width="7.432" stroke="black" fill="none" stroke-linecap="round"></path><path d="M 279.556,277.499 C 277.063,277.292 276.696,275.867 274.762,273.502" stroke-width="7.833" stroke="black" fill="none" stroke-linecap="round"></path><path d="M 274.762,273.502 C 273.100,271.471 273.419,271.167 272.365,268.706" stroke-width="7.112" stroke="black" fill="none" stroke-linecap="round"></path><path d="M 272.365,268.706 C 271.022,265.571 271.046,265.549 269.968,262.311" stroke-width="6.613" stroke="black" fill="none" stroke-linecap="round"></path><path d="M 269.968,262.311 C 268.649,258.354 268.668,258.342 267.571,254.317" stroke-width="6.199" stroke="black" fill="none" stroke-linecap="round"></path><path d="M 267.571,254.317 C 266.271,249.548 266.208,249.556 265.174,244.724" stroke-width="6.265" stroke="black" fill="none" stroke-linecap="round"></path><path d="M 265.174,244.724 C 263.812,238.364 264.052,238.313 262.777,231.934" stroke-width="5.673" stroke="black" fill="none" stroke-linecap="round"></path><path d="M 262.777,231.934 C 261.655,226.322 261.115,226.387 260.380,220.742" stroke-width="6.310" stroke="black" fill="none" stroke-linecap="round"></path><path d="M 260.380,220.742 C 259.917,217.194 260.380,217.145 260.380,213.547" stroke-width="6.239" stroke="black" fill="none" stroke-linecap="round"></path><path d="M 260.380,213.547 C 260.380,209.950 259.492,209.681 260.380,206.353" stroke-width="6.976" stroke="black" fill="none" stroke-linecap="round"></path><path d="M 260.380,206.353 C 261.090,203.686 261.578,203.555 263.576,201.556" stroke-width="7.442" stroke="black" fill="none" stroke-linecap="round"></path><path d="M 263.576,201.556 C 265.573,199.558 265.973,199.957 268.370,198.359" stroke-width="7.618" stroke="black" fill="none" stroke-linecap="round"></path><path d="M 268.370,198.359 C 270.767,196.760 270.609,196.439 273.164,195.161" stroke-width="7.672" stroke="black" fill="none" stroke-linecap="round"></path><path d="M 273.164,195.161 C 275.403,194.040 275.561,194.362 277.958,193.562" stroke-width="7.765" stroke="black" fill="none" stroke-linecap="round"></path><path d="M 277.958,193.562 C 280.355,192.763 282.752,190.931 282.752,191.963" stroke-width="8.057" stroke="black" fill="none" stroke-linecap="round"></path><path d="M 282.752,191.963 C 282.752,193.729 280.793,195.942 277.958,199.158" stroke-width="8.210" stroke="black" fill="none" stroke-linecap="round"></path><path d="M 277.958,199.158 C 274.801,202.737 274.536,202.576 270.767,205.553" stroke-width="6.315" stroke="black" fill="none" stroke-linecap="round"></path><path d="M 270.767,205.553 C 266.946,208.571 266.894,208.547 262.777,211.149" stroke-width="5.885" stroke="black" fill="none" stroke-linecap="round"></path><path d="M 262.777,211.149 C 259.304,213.343 259.220,213.221 255.586,215.146" stroke-width="6.010" stroke="black" fill="none" stroke-linecap="round"></path><path d="M 255.586,215.146 C 252.428,216.818 252.497,217.021 249.194,218.344" stroke-width="6.306" stroke="black" fill="none" stroke-linecap="round"></path><path d="M 249.194,218.344 C 246.505,219.420 246.452,219.535 243.601,219.942" stroke-width="6.580" stroke="black" fill="none" stroke-linecap="round"></path><path d="M 243.601,219.942 C 240.859,220.334 240.663,220.607 238.008,219.942" stroke-width="6.713" stroke="black" fill="none" stroke-linecap="round"></path><path d="M 238.008,219.942 C 234.271,219.008 234.072,218.839 230.816,216.745" stroke-width="7.119" stroke="black" fill="none" stroke-linecap="round"></path><path d="M 230.816,216.745 C 228.479,215.241 228.819,214.746 226.822,212.748" stroke-width="6.860" stroke="black" fill="none" stroke-linecap="round"></path><path d="M 226.822,212.748 C 224.824,210.749 224.607,210.927 222.826,208.751" stroke-width="6.853" stroke="black" fill="none" stroke-linecap="round"></path><path d="M 222.826,208.751 C 221.011,206.531 221.079,206.439 219.630,203.954" stroke-width="6.760" stroke="black" fill="none" stroke-linecap="round"></path><path d="M 219.630,203.954 C 218.283,201.643 218.262,201.627 217.233,199.158" stroke-width="6.817" stroke="black" fill="none" stroke-linecap="round"></path><path d="M 217.233,199.158 C 216.264,196.830 216.605,196.689 215.635,194.362" stroke-width="6.901" stroke="black" fill="none" stroke-linecap="round"></path><path d="M 215.635,194.362 C 214.607,191.893 213.825,189.370 213.238,189.565" stroke-width="7.546" stroke="black" fill="none" stroke-linecap="round"></path><path d="M 213.238,189.565 C 212.626,189.769 213.064,192.373 213.238,195.161" stroke-width="8.213" stroke="black" fill="none" stroke-linecap="round"></path><path d="M 213.238,195.161 C 213.464,198.768 213.848,198.747 214.037,202.356" stroke-width="6.689" stroke="black" fill="none" stroke-linecap="round"></path><path d="M 214.037,202.356 C 214.247,206.341 214.573,206.419 214.037,210.350" stroke-width="6.281" stroke="black" fill="none" stroke-linecap="round"></path><path d="M 214.037,210.350 C 213.375,215.212 213.365,215.341 211.640,219.942" stroke-width="5.856" stroke="black" fill="none" stroke-linecap="round"></path><path d="M 211.640,219.942 C 209.770,224.933 209.959,225.254 206.846,229.535" stroke-width="5.521" stroke="black" fill="none" stroke-linecap="round"></path><path d="M 206.846,229.535 C 203.567,234.047 203.473,234.450 198.856,237.529" stroke-width="5.440" stroke="black" fill="none" stroke-linecap="round"></path><path d="M 198.856,237.529 C 193.885,240.845 193.466,240.569 187.670,242.326" stroke-width="5.302" stroke="black" fill="none" stroke-linecap="round"></path><path d="M 187.670,242.326 C 180.283,244.566 180.168,244.630 172.489,245.523" stroke-width="4.655" stroke="black" fill="none" stroke-linecap="round"></path><path d="M 172.489,245.523 C 162.990,246.628 162.904,246.323 153.313,246.323" stroke-width="4.500" stroke="black" fill="none" stroke-linecap="round"></path><path d="M 153.313,246.323 C 140.132,246.323 140.091,246.476 126.946,245.523" stroke-width="4.500" stroke="black" fill="none" stroke-linecap="round"></path><path d="M 126.946,245.523 C 112.525,244.478 112.495,244.401 98.182,242.326" stroke-width="4.500" stroke="black" fill="none" stroke-linecap="round"></path><path d="M 98.182,242.326 C 84.929,240.404 84.873,240.479 71.815,237.529" stroke-width="4.500" stroke="black" fill="none" stroke-linecap="round"></path><path d="M 71.815,237.529 C 60.104,234.883 59.849,235.235 48.644,231.134" stroke-width="4.500" stroke="black" fill="none" stroke-linecap="round"></path><path d="M 48.644,231.134 C 43.469,229.240 42.772,229.513 39.056,225.538" stroke-width="4.699" stroke="black" fill="none" stroke-linecap="round"></path><path d="M 39.056,225.538 C 31.187,217.122 29.152,216.607 25.473,206.353" stroke-width="4.500" stroke="black" fill="none" stroke-linecap="round"></path><path d="M 25.473,206.353 C 23.559,201.018 25.483,199.934 27.870,194.362" stroke-width="4.797" stroke="black" fill="none" stroke-linecap="round"></path><path d="M 27.870,194.362 C 33.873,180.349 33.648,179.842 42.252,167.182" stroke-width="4.500" stroke="black" fill="none" stroke-linecap="round"></path><path d="M 42.252,167.182 C 54.022,149.864 53.252,148.419 68.619,134.406" stroke-width="4.500" stroke="black" fill="none" stroke-linecap="round"></path><path d="M 68.619,134.406 C 84.813,119.640 86.363,120.964 105.373,109.625" stroke-width="4.500" stroke="black" fill="none" stroke-linecap="round"></path><path d="M 105.373,109.625 C 127.911,96.182 128.114,96.352 151.715,84.843" stroke-width="4.500" stroke="black" fill="none" stroke-linecap="round"></path><path d="M 151.715,84.843 C 175.655,73.170 175.471,72.413 200.454,63.259" stroke-width="4.500" stroke="black" fill="none" stroke-linecap="round"></path><path d="M 200.454,63.259 C 232.201,51.628 232.543,52.287 265.174,43.274" stroke-width="4.500" stroke="black" fill="none" stroke-linecap="round"></path><path d="M 265.174,43.274 C 297.662,34.301 297.757,34.476 330.692,27.286" stroke-width="4.500" stroke="black" fill="none" stroke-linecap="round"></path><path d="M 330.692,27.286 C 363.675,20.086 363.850,20.891 397.009,14.496" stroke-width="4.500" stroke="black" fill="none" stroke-linecap="round"></path><circle r="3" cx="286.74658203125" cy="139.20266723632812" fill="black"></circle><circle r="3" cx="179.68040466308594" cy="242.3258056640625" fill="black"></circle><path d="M 331.491,208.751 C 333.089,213.947 333.050,213.959 334.687,219.143" stroke-width="8.679" stroke="black" fill="none" stroke-linecap="round"></path><path d="M 334.687,219.143 C 335.447,221.553 336.009,221.456 336.285,223.939" stroke-width="7.382" stroke="black" fill="none" stroke-linecap="round"></path><circle r="3" cx="341.877685546875" cy="271.104248046875" fill="black"></circle><path d="M 329.893,263.110 C 325.498,266.708 325.085,266.321 321.104,270.305" stroke-width="8.408" stroke="black" fill="none" stroke-linecap="round"></path><path d="M 321.104,270.305 C 318.693,272.716 319.090,273.092 317.109,275.901" stroke-width="6.901" stroke="black" fill="none" stroke-linecap="round"></path><path d="M 182.876,240.727 C 178.881,241.526 178.902,242.103 174.886,242.326" stroke-width="8.738" stroke="black" fill="none" stroke-linecap="round"></path><path d="M 174.886,242.326 C 171.711,242.502 169.133,242.804 168.494,241.526" stroke-width="8.201" stroke="black" fill="none" stroke-linecap="round"></path><path d="M 168.494,241.526 C 167.934,240.406 170.181,237.914 172.489,237.529" stroke-width="8.471" stroke="black" fill="none" stroke-linecap="round"></path><path d="M 172.489,237.529 C 174.975,237.115 177.233,238.015 178.082,239.928" stroke-width="8.416" stroke="black" fill="none" stroke-linecap="round"></path><circle r="3" cx="158.1073760986328" cy="199.95730590820312" fill="black"></circle></svg>