<svg xmlns="http://www.w3.org/2000/svg" xmlns:xlink="http://www.w3.org/1999/xlink" viewBox="0 0 576 416" width="576" height="416"><circle r="3" cx="414.5867614746094" cy="123.614013671875" fill="black"></circle><path d="M 377.833,231.534 C 383.825,229.535 383.799,229.453 389.818,227.536" stroke-width="8.462" stroke="black" fill="none" stroke-linecap="round"></path><path d="M 389.818,227.536 C 401.377,223.857 401.485,224.178 412.989,220.342" stroke-width="4.924" stroke="black" fill="none" stroke-linecap="round"></path><path d="M 412.989,220.342 C 419.463,218.183 419.469,218.155 425.773,215.545" stroke-width="4.876" stroke="black" fill="none" stroke-linecap="round"></path><path d="M 425.773,215.545 C 431.055,213.359 431.200,213.554 436.160,210.749" stroke-width="5.130" stroke="black" fill="none" stroke-linecap="round"></path><path d="M 436.160,210.749 C 440.389,208.358 440.225,208.046 444.150,205.153" stroke-width="5.528" stroke="black" fill="none" stroke-linecap="round"></path><path d="M 444.150,205.153 C 447.816,202.451 447.953,202.590 451.341,199.557" stroke-width="6.514" stroke="black" fill="none" stroke-linecap="round"></path><path d="M 451.341,199.557 C 455.543,195.795 455.769,195.891 459.331,191.563" stroke-width="5.594" stroke="black" fill="none" stroke-linecap="round"></path><path d="M 459.331,191.563 C 461.362,189.096 460.700,188.607 462.527,185.967" stroke-width="6.145" stroke="black" fill="none" stroke-linecap="round"></path><path d="M 462.527,185.967 C 464.296,183.411 465.683,183.898 466.522,181.171" stroke-width="6.372" stroke="black" fill="none" stroke-linecap="round"></path><path d="M 466.522,181.171 C 467.281,178.702 467.329,176.982 465.723,175.575" stroke-width="7.472" stroke="black" fill="none" stroke-linecap="round"></path><path d="M 465.723,175.575 C 464.133,174.184 462.917,175.401 460.130,175.575" stroke-width="8.037" stroke="black" fill="none" stroke-linecap="round"></path><path d="M 460.130,175.575 C 456.525,175.801 456.519,175.863 452.939,176.375" stroke-width="7.567" stroke="black" fill="none" stroke-linecap="round"></path><path d="M 452.939,176.375 C 448.129,177.062 448.100,176.973 443.351,177.973" stroke-width="7.052" stroke="black" fill="none" stroke-linecap="round"></path><path d="M 443.351,177.973 C 440.509,178.572 440.537,178.717 437.758,179.572" stroke-width="7.437" stroke="black" fill="none" stroke-linecap="round"></path><path d="M 437.758,179.572 C 435.343,180.316 435.077,179.870 432.964,181.171" stroke-width="7.669" stroke="black" fill="none" stroke-linecap="round"></path><path d="M 432.964,181.171 C 429.883,183.068 429.635,183.135 427.371,185.967" stroke-width="7.776" stroke="black" fill="none" stroke-linecap="round"></path><path d="M 427.371,185.967 C 424.841,189.131 423.860,189.532 423.376,193.162" stroke-width="7.366" stroke="black" fill="none" stroke-linecap="round"></path><path d="M 423.376,193.162 C 423.061,195.527 423.857,196.425 425.773,197.959" stroke-width="8.017" stroke="black" fill="none" stroke-linecap="round"></path><path d="M 425.773,197.959 C 427.852,199.622 431.800,200.426 431.366,199.557" stroke-width="8.037" stroke="black" fill="none" stroke-linecap="round"></path><circle r="3" cx="467.32086181640625" cy="123.614013671875" fill="black"></circle><path d="M 384.225,243.525 C 384.225,237.929 384.025,237.922 384.225,232.333" stroke-width="8.375" stroke="black" fill="none" stroke-linecap="round"></path><path d="M 384.225,232.333 C 384.425,226.730 384.594,226.735 385.024,221.141" stroke-width="5.947" stroke="black" fill="none" stroke-linecap="round"></path><path d="M 385.024,221.141 C 385.393,216.342 385.623,216.353 385.823,211.548" stroke-width="5.714" stroke="black" fill="none" stroke-linecap="round"></path><path d="M 385.823,211.548 C 386.022,206.760 385.823,206.752 385.823,201.956" stroke-width="5.741" stroke="black" fill="none" stroke-linecap="round"></path><path d="M 385.823,201.956 C 385.823,199.158 386.810,196.195 385.823,196.360" stroke-width="6.982" stroke="black" fill="none" stroke-linecap="round"></path><path d="M 385.823,196.360 C 384.413,196.595 382.929,199.270 381.029,202.755" stroke-width="7.798" stroke="black" fill="none" stroke-linecap="round"></path><path d="M 381.029,202.755 C 378.135,208.064 378.878,208.469 376.235,213.947" stroke-width="5.700" stroke="black" fill="none" stroke-linecap="round"></path><path d="M 376.235,213.947 C 373.285,220.060 373.597,220.304 369.843,225.938" stroke-width="5.090" stroke="black" fill="none" stroke-linecap="round"></path><path d="M 369.843,225.938 C 364.808,233.494 364.709,233.538 358.657,240.327" stroke-width="4.543" stroke="black" fill="none" stroke-linecap="round"></path><path d="M 358.657,240.327 C 351.526,248.327 351.814,248.842 343.476,255.516" stroke-width="4.500" stroke="black" fill="none" stroke-linecap="round"></path><path d="M 343.476,255.516 C 333.837,263.231 333.544,263.150 322.702,269.105" stroke-width="4.500" stroke="black" fill="none" stroke-linecap="round"></path><path d="M 322.702,269.105 C 313.169,274.342 312.980,274.266 302.727,277.899" stroke-width="4.500" stroke="black" fill="none" stroke-linecap="round"></path><path d="M 302.727,277.899 C 293.804,281.061 293.640,280.836 284.350,282.695" stroke-width="4.500" stroke="black" fill="none" stroke-linecap="round"></path><path d="M 284.350,282.695 C 277.660,284.034 277.492,284.526 270.767,284.294" stroke-width="4.661" stroke="black" fill="none" stroke-linecap="round"></path><path d="M 270.767,284.294 C 265.906,284.126 265.351,284.192 261.179,281.896" stroke-width="5.258" stroke="black" fill="none" stroke-linecap="round"></path><path d="M 261.179,281.896 C 257.361,279.795 256.737,279.403 254.787,275.501" stroke-width="6.430" stroke="black" fill="none" stroke-linecap="round"></path><path d="M 254.787,275.501 C 251.943,269.810 252.478,269.219 251.591,262.710" stroke-width="5.304" stroke="black" fill="none" stroke-linecap="round"></path><path d="M 251.591,262.710 C 250.081,251.632 249.659,251.501 249.993,240.327" stroke-width="4.500" stroke="black" fill="none" stroke-linecap="round"></path><path d="M 249.993,240.327 C 250.458,224.721 249.663,224.318 253.189,209.150" stroke-width="4.500" stroke="black" fill="none" stroke-linecap="round"></path><path d="M 253.189,209.150 C 257.653,189.943 257.424,189.310 265.973,171.578" stroke-width="4.500" stroke="black" fill="none" stroke-linecap="round"></path><path d="M 265.973,171.578 C 273.804,155.335 274.816,155.490 285.948,141.201" stroke-width="4.500" stroke="black" fill="none" stroke-linecap="round"></path><path d="M 285.948,141.201 C 295.989,128.310 296.421,128.437 308.320,117.219" stroke-width="4.500" stroke="black" fill="none" stroke-linecap="round"></path><path d="M 308.320,117.219 C 317.195,108.852 317.437,108.903 327.496,102.030" stroke-width="4.500" stroke="black" fill="none" stroke-linecap="round"></path><path d="M 327.496,102.030 C 333.816,97.712 333.962,97.124 341.079,94.836" stroke-width="4.500" stroke="black" fill="none" stroke-linecap="round"></path><path d="M 341.079,94.836 C 345.148,93.527 345.896,93.667 349.868,94.836" stroke-width="5.227" stroke="black" fill="none" stroke-linecap="round"></path><path d="M 349.868,94.836 C 352.688,95.665 352.896,96.403 354.662,98.833" stroke-width="6.672" stroke="black" fill="none" stroke-linecap="round"></path><path d="M 354.662,98.833 C 356.092,100.800 355.887,101.146 356.260,103.629" stroke-width="6.788" stroke="black" fill="none" stroke-linecap="round"></path><path d="M 356.260,103.629 C 357.086,109.140 357.059,109.219 357.059,114.821" stroke-width="5.770" stroke="black" fill="none" stroke-linecap="round"></path><path d="M 357.059,114.821 C 357.059,124.008 356.903,124.030 356.260,133.207" stroke-width="4.674" stroke="black" fill="none" stroke-linecap="round"></path><path d="M 356.260,133.207 C 355.305,146.813 355.061,146.797 353.863,160.387" stroke-width="4.500" stroke="black" fill="none" stroke-linecap="round"></path><path d="M 353.863,160.387 C 352.664,173.976 352.496,173.964 351.466,187.566" stroke-width="4.500" stroke="black" fill="none" stroke-linecap="round"></path><path d="M 351.466,187.566 C 350.498,200.344 350.881,200.374 349.868,213.147" stroke-width="4.500" stroke="black" fill="none" stroke-linecap="round"></path><path d="M 349.868,213.147 C 348.883,225.555 348.709,225.542 347.471,237.929" stroke-width="4.500" stroke="black" fill="none" stroke-linecap="round"></path><path d="M 347.471,237.929 C 346.312,249.524 345.770,249.494 345.074,261.111" stroke-width="4.500" stroke="black" fill="none" stroke-linecap="round"></path><path d="M 345.074,261.111 C 344.572,269.479 345.074,269.505 345.074,277.899" stroke-width="4.500" stroke="black" fill="none" stroke-linecap="round"></path><path d="M 345.074,277.899 C 345.074,282.695 343.401,283.666 345.074,287.492" stroke-width="5.127" stroke="black" fill="none" stroke-linecap="round"></path><path d="M 345.074,287.492 C 346.197,290.061 347.992,291.046 350.667,290.689" stroke-width="6.602" stroke="black" fill="none" stroke-linecap="round"></path><path d="M 350.667,290.689 C 353.984,290.247 353.905,288.347 357.059,285.893" stroke-width="6.259" stroke="black" fill="none" stroke-linecap="round"></path><path d="M 357.059,285.893 C 371.883,274.357 372.159,274.691 386.622,262.710" stroke-width="4.500" stroke="black" fill="none" stroke-linecap="round"></path><path d="M 386.622,262.710 C 409.313,243.914 409.555,244.131 431.366,224.339" stroke-width="4.500" stroke="black" fill="none" stroke-linecap="round"></path><path d="M 431.366,224.339 C 443.912,212.954 444.658,213.289 455.336,200.357" stroke-width="4.500" stroke="black" fill="none" stroke-linecap="round"></path><path d="M 455.336,200.357 C 459.839,194.903 458.953,194.128 461.728,187.566" stroke-width="4.500" stroke="black" fill="none" stroke-linecap="round"></path><path d="M 461.728,187.566 C 463.347,183.736 464.373,180.811 464.125,179.572" stroke-width="5.194" stroke="black" fill="none" stroke-linecap="round"></path><path d="M 464.125,179.572 C 463.973,178.813 462.710,181.735 460.929,183.569" stroke-width="7.059" stroke="black" fill="none" stroke-linecap="round"></path><path d="M 460.929,183.569 C 449.127,195.724 449.084,195.703 436.959,207.551" stroke-width="4.500" stroke="black" fill="none" stroke-linecap="round"></path><path d="M 436.959,207.551 C 414.727,229.278 414.182,228.741 392.215,250.719" stroke-width="4.500" stroke="black" fill="none" stroke-linecap="round"></path><path d="M 392.215,250.719 C 383.021,259.918 383.051,260.001 374.637,269.905" stroke-width="4.500" stroke="black" fill="none" stroke-linecap="round"></path><path d="M 374.637,269.905 C 369.468,275.989 369.472,276.057 365.049,282.695" stroke-width="4.500" stroke="black" fill="none" stroke-linecap="round"></path><path d="M 365.049,282.695 C 361.482,288.048 361.641,288.186 358.657,293.887" stroke-width="4.613" stroke="black" fill="none" stroke-linecap="round"></path><path d="M 358.657,293.887 C 357.247,296.580 355.483,300.843 356.260,299.483" stroke-width="5.860" stroke="black" fill="none" stroke-linecap="round"></path></svg>