<svg xmlns="http://www.w3.org/2000/svg" xmlns:xlink="http://www.w3.org/1999/xlink" viewBox="0 0 576 416" width="576" height="416"><circle r="3" cx="104.57427978515625" cy="138.35498046875" fill="black"></circle><path d="M 109.368,133.559 C 109.368,137.955 109.368,137.955 109.368,142.352" stroke-width="8.568" stroke="black" fill="none" stroke-linecap="round"></path><path d="M 109.368,142.352 C 109.368,150.346 109.519,150.348 109.368,158.340" stroke-width="5.249" stroke="black" fill="none" stroke-linecap="round"></path><path d="M 109.368,158.340 C 109.120,171.533 109.177,171.540 108.569,184.720" stroke-width="4.500" stroke="black" fill="none" stroke-linecap="round"></path><path d="M 108.569,184.720 C 107.979,197.521 107.823,197.514 106.971,210.301" stroke-width="4.500" stroke="black" fill="none" stroke-linecap="round"></path><path d="M 106.971,210.301 C 106.225,221.496 106.461,221.525 105.373,232.685" stroke-width="4.500" stroke="black" fill="none" stroke-linecap="round"></path><path d="M 105.373,232.685 C 104.863,237.913 104.461,237.865 103.775,243.077" stroke-width="4.998" stroke="black" fill="none" stroke-linecap="round"></path><path d="M 103.775,243.077 C 102.463,253.054 103.002,253.137 101.378,263.062" stroke-width="4.500" stroke="black" fill="none" stroke-linecap="round"></path><path d="M 101.378,263.062 C 99.406,275.121 99.481,275.186 96.584,287.044" stroke-width="4.500" stroke="black" fill="none" stroke-linecap="round"></path><path d="M 96.584,287.044 C 95.087,293.172 94.782,293.113 92.589,299.035" stroke-width="4.645" stroke="black" fill="none" stroke-linecap="round"></path><path d="M 92.589,299.035 C 90.787,303.904 91.165,304.184 88.594,308.628" stroke-width="5.266" stroke="black" fill="none" stroke-linecap="round"></path><path d="M 88.594,308.628 C 86.771,311.779 86.832,313.718 83.800,314.224" stroke-width="5.936" stroke="black" fill="none" stroke-linecap="round"></path><path d="M 83.800,314.224 C 79.641,314.917 77.570,314.386 74.212,311.026" stroke-width="6.603" stroke="black" fill="none" stroke-linecap="round"></path><path d="M 74.212,311.026 C 68.382,305.193 69.078,303.786 65.423,295.837" stroke-width="4.914" stroke="black" fill="none" stroke-linecap="round"></path><path d="M 65.423,295.837 C 59.889,283.801 59.312,283.810 55.835,271.056" stroke-width="4.500" stroke="black" fill="none" stroke-linecap="round"></path><path d="M 55.835,271.056 C 52.121,257.430 52.410,257.168 51.041,243.077" stroke-width="4.500" stroke="black" fill="none" stroke-linecap="round"></path><path d="M 51.041,243.077 C 49.614,228.389 50.031,228.278 50.242,213.499" stroke-width="4.500" stroke="black" fill="none" stroke-linecap="round"></path><path d="M 50.242,213.499 C 50.431,200.299 50.706,200.279 51.840,187.119" stroke-width="4.500" stroke="black" fill="none" stroke-linecap="round"></path><path d="M 51.840,187.119 C 52.704,177.096 53.184,177.140 54.237,167.134" stroke-width="4.500" stroke="black" fill="none" stroke-linecap="round"></path><path d="M 54.237,167.134 C 54.782,161.952 55.963,157.901 55.036,156.741" stroke-width="4.904" stroke="black" fill="none" stroke-linecap="round"></path><path d="M 55.036,156.741 C 54.365,155.902 52.869,159.844 51.041,163.136" stroke-width="6.782" stroke="black" fill="none" stroke-linecap="round"></path><path d="M 51.041,163.136 C 48.874,167.039 49.044,167.134 47.046,171.131" stroke-width="6.044" stroke="black" fill="none" stroke-linecap="round"></path><path d="M 47.046,171.131 C 45.049,175.128 44.863,175.046 43.051,179.125" stroke-width="5.942" stroke="black" fill="none" stroke-linecap="round"></path><path d="M 43.051,179.125 C 41.667,182.241 40.308,182.403 40.654,185.520" stroke-width="6.269" stroke="black" fill="none" stroke-linecap="round"></path><path d="M 40.654,185.520 C 41.107,189.598 41.039,192.125 44.649,193.514" stroke-width="6.846" stroke="black" fill="none" stroke-linecap="round"></path><path d="M 44.649,193.514 C 51.427,196.122 53.048,193.854 61.428,193.514" stroke-width="5.041" stroke="black" fill="none" stroke-linecap="round"></path><path d="M 61.428,193.514 C 82.611,192.655 82.602,192.321 103.775,191.116" stroke-width="4.500" stroke="black" fill="none" stroke-linecap="round"></path><path d="M 103.775,191.116 C 131.741,189.523 131.718,188.884 159.705,187.918" stroke-width="4.500" stroke="black" fill="none" stroke-linecap="round"></path><path d="M 159.705,187.918 C 189.646,186.885 189.671,187.699 219.630,187.119" stroke-width="4.500" stroke="black" fill="none" stroke-linecap="round"></path><path d="M 219.630,187.119 C 251.594,186.500 251.587,186.135 283.551,185.520" stroke-width="4.500" stroke="black" fill="none" stroke-linecap="round"></path><path d="M 283.551,185.520 C 313.909,184.936 313.927,185.541 344.275,184.720" stroke-width="4.500" stroke="black" fill="none" stroke-linecap="round"></path><path d="M 344.275,184.720 C 358.272,184.342 358.275,184.178 372.240,183.122" stroke-width="4.500" stroke="black" fill="none" stroke-linecap="round"></path><path d="M 372.240,183.122 C 405.816,180.581 405.889,181.050 439.356,177.526" stroke-width="4.500" stroke="black" fill="none" stroke-linecap="round"></path><path d="M 439.356,177.526 C 451.432,176.254 451.326,175.424 463.326,173.529" stroke-width="4.500" stroke="black" fill="none" stroke-linecap="round"></path><path d="M 463.326,173.529 C 466.507,173.026 471.140,172.401 469.718,172.729" stroke-width="4.799" stroke="black" fill="none" stroke-linecap="round"></path><path d="M 469.718,172.729 C 465.947,173.600 461.040,173.273 452.939,175.927" stroke-width="5.575" stroke="black" fill="none" stroke-linecap="round"></path><path d="M 452.939,175.927 C 415.897,188.062 416.423,189.827 379.431,202.307" stroke-width="4.500" stroke="black" fill="none" stroke-linecap="round"></path><path d="M 379.431,202.307 C 347.709,213.010 347.613,212.784 315.511,222.292" stroke-width="4.500" stroke="black" fill="none" stroke-linecap="round"></path><path d="M 315.511,222.292 C 286.889,230.770 286.966,231.183 257.983,238.280" stroke-width="4.500" stroke="black" fill="none" stroke-linecap="round"></path><path d="M 257.983,238.280 C 229.837,245.173 229.863,246.116 201.253,250.271" stroke-width="4.500" stroke="black" fill="none" stroke-linecap="round"></path><path d="M 201.253,250.271 C 180.325,253.311 179.957,253.210 158.906,252.670" stroke-width="4.500" stroke="black" fill="none" stroke-linecap="round"></path><path d="M 158.906,252.670 C 148.796,252.410 138.779,254.322 138.931,248.673" stroke-width="4.500" stroke="black" fill="none" stroke-linecap="round"></path><path d="M 138.931,248.673 C 139.178,239.533 147.236,233.658 159.705,223.092" stroke-width="4.500" stroke="black" fill="none" stroke-linecap="round"></path><path d="M 159.705,223.092 C 186.387,200.483 188.076,202.125 217.233,182.322" stroke-width="4.500" stroke="black" fill="none" stroke-linecap="round"></path><path d="M 217.233,182.322 C 242.807,164.953 243.774,166.354 269.169,148.747" stroke-width="4.500" stroke="black" fill="none" stroke-linecap="round"></path><path d="M 269.169,148.747 C 289.317,134.778 289.819,135.144 308.320,119.169" stroke-width="4.500" stroke="black" fill="none" stroke-linecap="round"></path><path d="M 308.320,119.169 C 318.982,109.963 319.635,109.775 327.496,98.385" stroke-width="4.500" stroke="black" fill="none" stroke-linecap="round"></path><path d="M 327.496,98.385 C 331.220,92.988 331.719,91.770 331.491,85.594" stroke-width="4.500" stroke="black" fill="none" stroke-linecap="round"></path><path d="M 331.491,85.594 C 331.320,80.978 329.507,80.910 326.697,76.801" stroke-width="5.771" stroke="black" fill="none" stroke-linecap="round"></path><path d="M 326.697,76.801 C 324.313,73.315 323.992,73.518 321.104,70.406" stroke-width="5.930" stroke="black" fill="none" stroke-linecap="round"></path><path d="M 321.104,70.406 C 318.798,67.922 317.524,64.029 316.310,65.609" stroke-width="6.274" stroke="black" fill="none" stroke-linecap="round"></path><path d="M 316.310,65.609 C 313.529,69.225 312.996,73.118 313.114,80.798" stroke-width="6.678" stroke="black" fill="none" stroke-linecap="round"></path><path d="M 313.114,80.798 C 313.395,99.099 315.132,99.182 317.109,117.570" stroke-width="4.500" stroke="black" fill="none" stroke-linecap="round"></path><path d="M 317.109,117.570 C 319.127,136.354 319.717,136.311 321.104,155.142" stroke-width="4.500" stroke="black" fill="none" stroke-linecap="round"></path><path d="M 321.104,155.142 C 322.513,174.283 322.076,174.323 322.702,193.514" stroke-width="4.500" stroke="black" fill="none" stroke-linecap="round"></path><path d="M 322.702,193.514 C 323.275,211.095 322.842,211.111 323.501,228.688" stroke-width="4.500" stroke="black" fill="none" stroke-linecap="round"></path><path d="M 323.501,228.688 C 324.040,243.087 323.776,243.127 325.099,257.466" stroke-width="4.500" stroke="black" fill="none" stroke-linecap="round"></path><path d="M 325.099,257.466 C 326.173,269.108 326.734,269.052 328.295,280.649" stroke-width="4.500" stroke="black" fill="none" stroke-linecap="round"></path><path d="M 328.295,280.649 C 329.531,289.837 329.169,289.897 330.692,299.035" stroke-width="4.500" stroke="black" fill="none" stroke-linecap="round"></path><path d="M 330.692,299.035 C 331.966,306.685 332.290,306.629 333.888,314.224" stroke-width="4.500" stroke="black" fill="none" stroke-linecap="round"></path></svg>