<svg xmlns="http://www.w3.org/2000/svg" xmlns:xlink="http://www.w3.org/1999/xlink" viewBox="0 0 576 416" width="576" height="416"><path d="M 241.203,413.716 C 238.407,409.320 238.729,409.083 235.611,404.923" stroke-width="8.532" stroke="black" fill="none" stroke-linecap="round"></path><path d="M 235.611,404.923 C 231.538,399.490 231.154,399.778 226.822,394.531" stroke-width="5.583" stroke="black" fill="none" stroke-linecap="round"></path><path d="M 226.822,394.531 C 223.563,390.585 223.850,390.339 220.429,386.537" stroke-width="5.690" stroke="black" fill="none" stroke-linecap="round"></path><path d="M 220.429,386.537 C 209.468,374.351 209.186,374.598 198.057,362.555" stroke-width="4.500" stroke="black" fill="none" stroke-linecap="round"></path><path d="M 198.057,362.555 C 189.611,353.414 189.867,353.171 181.278,344.168" stroke-width="4.500" stroke="black" fill="none" stroke-linecap="round"></path><path d="M 181.278,344.168 C 173.088,335.584 172.889,335.775 164.499,327.381" stroke-width="4.500" stroke="black" fill="none" stroke-linecap="round"></path><path d="M 164.499,327.381 C 157.308,320.186 157.606,319.860 150.117,312.992" stroke-width="4.500" stroke="black" fill="none" stroke-linecap="round"></path><path d="M 150.117,312.992 C 143.224,306.670 142.842,307.095 135.735,301.000" stroke-width="4.500" stroke="black" fill="none" stroke-linecap="round"></path><path d="M 135.735,301.000 C 128.859,295.104 129.012,294.926 122.152,289.009" stroke-width="4.500" stroke="black" fill="none" stroke-linecap="round"></path><path d="M 122.152,289.009 C 117.426,284.933 117.453,284.894 112.564,281.015" stroke-width="4.890" stroke="black" fill="none" stroke-linecap="round"></path><path d="M 112.564,281.015 C 105.867,275.701 105.696,275.916 98.981,270.623" stroke-width="4.600" stroke="black" fill="none" stroke-linecap="round"></path><path d="M 98.981,270.623 C 92.513,265.524 92.804,265.135 86.197,260.231" stroke-width="4.579" stroke="black" fill="none" stroke-linecap="round"></path><path d="M 86.197,260.231 C 80.420,255.942 80.133,256.338 74.212,252.237" stroke-width="4.780" stroke="black" fill="none" stroke-linecap="round"></path><path d="M 74.212,252.237 C 69.745,249.143 70.003,248.735 65.423,245.842" stroke-width="5.256" stroke="black" fill="none" stroke-linecap="round"></path><path d="M 65.423,245.842 C 62.412,243.939 60.824,241.971 59.031,242.644" stroke-width="5.968" stroke="black" fill="none" stroke-linecap="round"></path><path d="M 59.031,242.644 C 57.628,243.171 57.751,245.891 59.031,248.240" stroke-width="7.322" stroke="black" fill="none" stroke-linecap="round"></path><path d="M 59.031,248.240 C 62.545,254.684 63.656,254.378 68.619,260.231" stroke-width="5.291" stroke="black" fill="none" stroke-linecap="round"></path><path d="M 68.619,260.231 C 74.842,267.568 74.611,267.824 81.403,274.620" stroke-width="4.500" stroke="black" fill="none" stroke-linecap="round"></path><path d="M 81.403,274.620 C 88.593,281.814 88.987,281.423 96.584,288.210" stroke-width="4.500" stroke="black" fill="none" stroke-linecap="round"></path><path d="M 96.584,288.210 C 100.173,291.416 99.850,291.838 103.775,294.605" stroke-width="5.244" stroke="black" fill="none" stroke-linecap="round"></path><path d="M 103.775,294.605 C 117.428,304.229 117.448,304.318 131.740,312.992" stroke-width="4.500" stroke="black" fill="none" stroke-linecap="round"></path><path d="M 131.740,312.992 C 141.817,319.107 141.930,318.988 152.514,324.183" stroke-width="4.500" stroke="black" fill="none" stroke-linecap="round"></path><path d="M 152.514,324.183 C 163.104,329.381 163.149,329.356 174.087,333.776" stroke-width="4.500" stroke="black" fill="none" stroke-linecap="round"></path><path d="M 174.087,333.776 C 183.923,337.750 183.897,337.979 194.062,340.971" stroke-width="4.500" stroke="black" fill="none" stroke-linecap="round"></path><path d="M 194.062,340.971 C 204.271,343.975 204.349,343.951 214.836,345.767" stroke-width="4.500" stroke="black" fill="none" stroke-linecap="round"></path><path d="M 214.836,345.767 C 225.123,347.548 225.210,347.103 235.611,348.165" stroke-width="4.500" stroke="black" fill="none" stroke-linecap="round"></path><path d="M 235.611,348.165 C 244.785,349.102 244.788,349.550 253.988,349.764" stroke-width="4.500" stroke="black" fill="none" stroke-linecap="round"></path><path d="M 253.988,349.764 C 261.967,349.950 262.007,349.667 269.968,348.965" stroke-width="4.504" stroke="black" fill="none" stroke-linecap="round"></path><path d="M 269.968,348.965 C 275.590,348.468 275.654,348.562 281.154,347.366" stroke-width="5.100" stroke="black" fill="none" stroke-linecap="round"></path><path d="M 281.154,347.366 C 284.843,346.563 285.244,346.877 288.345,344.968" stroke-width="5.838" stroke="black" fill="none" stroke-linecap="round"></path><path d="M 288.345,344.968 C 290.438,343.679 291.884,342.862 291.541,340.971" stroke-width="7.099" stroke="black" fill="none" stroke-linecap="round"></path><path d="M 291.541,340.971 C 291.085,338.465 289.278,338.425 286.747,336.174" stroke-width="6.620" stroke="black" fill="none" stroke-linecap="round"></path><path d="M 286.747,336.174 C 282.087,332.030 282.165,331.896 277.159,328.180" stroke-width="5.549" stroke="black" fill="none" stroke-linecap="round"></path><path d="M 277.159,328.180 C 269.780,322.703 269.801,322.605 261.978,317.788" stroke-width="4.629" stroke="black" fill="none" stroke-linecap="round"></path><path d="M 261.978,317.788 C 254.221,313.012 253.914,313.520 245.998,308.994" stroke-width="4.500" stroke="black" fill="none" stroke-linecap="round"></path><path d="M 245.998,308.994 C 237.135,303.928 237.224,303.773 228.419,298.602" stroke-width="4.500" stroke="black" fill="none" stroke-linecap="round"></path><path d="M 228.419,298.602 C 218.847,292.981 218.652,293.294 209.243,287.411" stroke-width="4.500" stroke="black" fill="none" stroke-linecap="round"></path><path d="M 209.243,287.411 C 199.476,281.303 199.440,281.318 190.067,274.620" stroke-width="4.500" stroke="black" fill="none" stroke-linecap="round"></path><path d="M 190.067,274.620 C 179.864,267.328 179.823,267.342 170.092,259.431" stroke-width="4.500" stroke="black" fill="none" stroke-linecap="round"></path><path d="M 170.092,259.431 C 160.647,251.753 160.533,251.824 151.715,243.443" stroke-width="4.500" stroke="black" fill="none" stroke-linecap="round"></path><path d="M 151.715,243.443 C 144.553,236.635 145.121,236.047 138.132,229.054" stroke-width="4.500" stroke="black" fill="none" stroke-linecap="round"></path><path d="M 138.132,229.054 C 134.335,225.255 130.928,223.956 130.142,221.860" stroke-width="4.955" stroke="black" fill="none" stroke-linecap="round"></path><path d="M 130.142,221.860 C 129.729,220.758 133.212,221.577 135.735,222.659" stroke-width="6.907" stroke="black" fill="none" stroke-linecap="round"></path><path d="M 135.735,222.659 C 138.805,223.975 138.532,224.657 141.328,226.656" stroke-width="6.550" stroke="black" fill="none" stroke-linecap="round"></path><path d="M 141.328,226.656 C 144.125,228.654 144.096,228.696 146.921,230.653" stroke-width="6.450" stroke="black" fill="none" stroke-linecap="round"></path><path d="M 146.921,230.653 C 149.290,232.293 149.388,233.851 151.715,233.851" stroke-width="6.638" stroke="black" fill="none" stroke-linecap="round"></path><path d="M 151.715,233.851 C 153.782,233.851 153.643,232.157 155.710,230.653" stroke-width="7.943" stroke="black" fill="none" stroke-linecap="round"></path><path d="M 155.710,230.653 C 158.038,228.959 157.811,228.204 160.504,227.455" stroke-width="8.337" stroke="black" fill="none" stroke-linecap="round"></path><path d="M 160.504,227.455 C 165.002,226.206 165.400,226.209 170.092,226.656" stroke-width="7.786" stroke="black" fill="none" stroke-linecap="round"></path><path d="M 170.092,226.656 C 173.789,227.008 173.769,227.648 177.283,229.054" stroke-width="6.623" stroke="black" fill="none" stroke-linecap="round"></path><path d="M 177.283,229.054 C 181.759,230.845 181.757,230.893 186.072,233.051" stroke-width="5.979" stroke="black" fill="none" stroke-linecap="round"></path><path d="M 186.072,233.051 C 191.345,235.689 191.444,235.559 196.459,238.647" stroke-width="5.497" stroke="black" fill="none" stroke-linecap="round"></path><path d="M 196.459,238.647 C 201.831,241.954 201.653,242.244 206.846,245.842" stroke-width="5.259" stroke="black" fill="none" stroke-linecap="round"></path><path d="M 206.846,245.842 C 212.040,249.439 212.108,249.344 217.233,253.036" stroke-width="5.191" stroke="black" fill="none" stroke-linecap="round"></path><path d="M 217.233,253.036 C 222.096,256.539 221.877,256.858 226.822,260.231" stroke-width="5.252" stroke="black" fill="none" stroke-linecap="round"></path><path d="M 226.822,260.231 C 230.666,262.853 230.732,262.783 234.811,265.027" stroke-width="5.633" stroke="black" fill="none" stroke-linecap="round"></path><path d="M 234.811,265.027 C 238.722,267.179 238.695,267.294 242.802,269.024" stroke-width="5.817" stroke="black" fill="none" stroke-linecap="round"></path><path d="M 242.802,269.024 C 246.286,270.492 246.346,270.409 249.993,271.423" stroke-width="6.096" stroke="black" fill="none" stroke-linecap="round"></path><path d="M 249.993,271.423 C 253.537,272.407 257.341,274.283 257.184,273.021" stroke-width="6.952" stroke="black" fill="none" stroke-linecap="round"></path><path d="M 257.184,273.021 C 256.942,271.085 253.362,268.836 249.194,265.027" stroke-width="7.238" stroke="black" fill="none" stroke-linecap="round"></path><path d="M 249.194,265.027 C 244.174,260.442 244.080,260.533 238.806,256.234" stroke-width="5.510" stroke="black" fill="none" stroke-linecap="round"></path><path d="M 238.806,256.234 C 233.293,251.739 233.334,251.675 227.620,247.440" stroke-width="5.068" stroke="black" fill="none" stroke-linecap="round"></path><path d="M 227.620,247.440 C 222.547,243.680 222.340,243.962 217.233,240.246" stroke-width="5.134" stroke="black" fill="none" stroke-linecap="round"></path><path d="M 217.233,240.246 C 213.551,237.566 213.686,237.384 210.042,234.650" stroke-width="5.621" stroke="black" fill="none" stroke-linecap="round"></path><path d="M 210.042,234.650 C 207.294,232.587 203.754,231.174 204.449,230.653" stroke-width="6.150" stroke="black" fill="none" stroke-linecap="round"></path><path d="M 204.449,230.653 C 205.353,229.975 208.870,231.332 213.238,232.252" stroke-width="7.498" stroke="black" fill="none" stroke-linecap="round"></path><path d="M 213.238,232.252 C 216.461,232.930 216.404,233.205 219.630,233.851" stroke-width="6.760" stroke="black" fill="none" stroke-linecap="round"></path><path d="M 219.630,233.851 C 222.397,234.404 222.457,234.835 225.223,234.650" stroke-width="6.756" stroke="black" fill="none" stroke-linecap="round"></path><path d="M 225.223,234.650 C 228.450,234.435 228.855,234.676 231.615,233.051" stroke-width="6.565" stroke="black" fill="none" stroke-linecap="round"></path><path d="M 231.615,233.051 C 235.647,230.679 236.181,230.596 238.806,226.656" stroke-width="5.970" stroke="black" fill="none" stroke-linecap="round"></path><path d="M 238.806,226.656 C 244.171,218.605 244.159,218.239 247.596,209.069" stroke-width="4.588" stroke="black" fill="none" stroke-linecap="round"></path><path d="M 247.596,209.069 C 252.548,195.856 251.845,195.549 255.586,181.889" stroke-width="4.500" stroke="black" fill="none" stroke-linecap="round"></path><path d="M 255.586,181.889 C 259.835,166.371 258.624,165.989 263.576,150.713" stroke-width="4.500" stroke="black" fill="none" stroke-linecap="round"></path><path d="M 263.576,150.713 C 268.212,136.411 269.060,136.678 274.762,122.734" stroke-width="4.500" stroke="black" fill="none" stroke-linecap="round"></path><path d="M 274.762,122.734 C 279.846,110.298 279.159,109.937 285.149,97.952" stroke-width="4.500" stroke="black" fill="none" stroke-linecap="round"></path><path d="M 285.149,97.952 C 289.946,88.353 290.216,88.380 296.335,79.566" stroke-width="4.500" stroke="black" fill="none" stroke-linecap="round"></path><path d="M 296.335,79.566 C 300.204,73.991 300.147,73.629 305.124,69.173" stroke-width="4.560" stroke="black" fill="none" stroke-linecap="round"></path><path d="M 305.124,69.173 C 307.737,66.834 309.005,65.519 311.516,65.976" stroke-width="5.673" stroke="black" fill="none" stroke-linecap="round"></path><path d="M 311.516,65.976 C 313.399,66.318 314.033,68.240 313.913,70.772" stroke-width="6.997" stroke="black" fill="none" stroke-linecap="round"></path><path d="M 313.913,70.772 C 313.634,76.633 312.676,76.882 310.717,82.763" stroke-width="5.636" stroke="black" fill="none" stroke-linecap="round"></path><path d="M 310.717,82.763 C 306.684,94.869 306.410,94.787 301.928,106.745" stroke-width="4.500" stroke="black" fill="none" stroke-linecap="round"></path><path d="M 301.928,106.745 C 295.623,123.566 295.910,123.685 289.144,140.320" stroke-width="4.500" stroke="black" fill="none" stroke-linecap="round"></path><path d="M 289.144,140.320 C 281.928,158.059 281.720,157.981 273.963,175.494" stroke-width="4.500" stroke="black" fill="none" stroke-linecap="round"></path><path d="M 273.963,175.494 C 266.140,193.155 266.391,193.282 257.983,210.668" stroke-width="4.500" stroke="black" fill="none" stroke-linecap="round"></path><path d="M 257.983,210.668 C 248.413,230.455 248.585,230.579 238.008,249.839" stroke-width="4.500" stroke="black" fill="none" stroke-linecap="round"></path><path d="M 238.008,249.839 C 228.610,266.951 228.694,267.072 218.032,283.414" stroke-width="4.500" stroke="black" fill="none" stroke-linecap="round"></path><path d="M 218.032,283.414 C 209.918,295.851 210.192,296.262 200.454,307.396" stroke-width="4.500" stroke="black" fill="none" stroke-linecap="round"></path><path d="M 200.454,307.396 C 193.413,315.448 193.279,315.839 184.474,321.785" stroke-width="4.500" stroke="black" fill="none" stroke-linecap="round"></path><path d="M 184.474,321.785 C 177.299,326.631 176.833,326.685 168.494,328.980" stroke-width="4.500" stroke="black" fill="none" stroke-linecap="round"></path><path d="M 168.494,328.980 C 160.853,331.082 160.364,331.521 152.514,330.578" stroke-width="4.500" stroke="black" fill="none" stroke-linecap="round"></path><path d="M 152.514,330.578 C 140.389,329.123 139.997,328.727 128.544,324.183" stroke-width="5.001" stroke="black" fill="none" stroke-linecap="round"></path><path d="M 128.544,324.183 C 116.826,319.534 116.645,319.245 106.172,312.192" stroke-width="4.500" stroke="black" fill="none" stroke-linecap="round"></path><path d="M 106.172,312.192 C 95.871,305.255 96.344,304.469 86.996,296.204" stroke-width="4.500" stroke="black" fill="none" stroke-linecap="round"></path><path d="M 86.996,296.204 C 79.165,289.280 79.560,288.837 71.815,281.815" stroke-width="4.500" stroke="black" fill="none" stroke-linecap="round"></path><path d="M 71.815,281.815 C 66.776,277.246 66.803,277.177 61.428,273.021" stroke-width="4.621" stroke="black" fill="none" stroke-linecap="round"></path><path d="M 61.428,273.021 C 58.014,270.382 52.919,268.372 54.237,268.225" stroke-width="5.487" stroke="black" fill="none" stroke-linecap="round"></path><path d="M 54.237,268.225 C 56.514,267.972 61.400,270.330 68.619,272.222" stroke-width="6.844" stroke="black" fill="none" stroke-linecap="round"></path><path d="M 68.619,272.222 C 78.179,274.727 78.219,274.576 87.795,277.018" stroke-width="4.716" stroke="black" fill="none" stroke-linecap="round"></path><path d="M 87.795,277.018 C 98.593,279.772 98.442,280.541 109.368,282.614" stroke-width="4.500" stroke="black" fill="none" stroke-linecap="round"></path><path d="M 109.368,282.614 C 121.613,284.938 121.704,284.825 134.137,285.812" stroke-width="4.500" stroke="black" fill="none" stroke-linecap="round"></path><path d="M 134.137,285.812 C 146.872,286.823 146.958,287.166 159.705,286.611" stroke-width="4.500" stroke="black" fill="none" stroke-linecap="round"></path><path d="M 159.705,286.611 C 174.523,285.967 174.761,286.391 189.268,283.414" stroke-width="4.500" stroke="black" fill="none" stroke-linecap="round"></path><path d="M 189.268,283.414 C 205.922,279.996 206.171,279.968 222.027,273.821" stroke-width="4.500" stroke="black" fill="none" stroke-linecap="round"></path><path d="M 222.027,273.821 C 238.131,267.578 238.509,267.686 253.189,258.632" stroke-width="4.500" stroke="black" fill="none" stroke-linecap="round"></path><path d="M 253.189,258.632 C 267.673,249.699 267.550,249.129 280.355,237.848" stroke-width="4.500" stroke="black" fill="none" stroke-linecap="round"></path><path d="M 280.355,237.848 C 294.317,225.546 294.606,225.576 306.722,211.467" stroke-width="4.500" stroke="black" fill="none" stroke-linecap="round"></path><path d="M 306.722,211.467 C 318.976,197.197 318.886,196.910 329.094,181.090" stroke-width="4.500" stroke="black" fill="none" stroke-linecap="round"></path><path d="M 329.094,181.090 C 339.261,165.333 338.507,164.824 347.471,148.314" stroke-width="4.500" stroke="black" fill="none" stroke-linecap="round"></path><path d="M 347.471,148.314 C 356.085,132.448 356.180,132.485 364.250,116.338" stroke-width="4.500" stroke="black" fill="none" stroke-linecap="round"></path><path d="M 364.250,116.338 C 370.962,102.908 370.895,102.860 377.034,89.159" stroke-width="4.500" stroke="black" fill="none" stroke-linecap="round"></path><path d="M 377.034,89.159 C 381.282,79.678 381.122,79.603 385.024,69.973" stroke-width="4.500" stroke="black" fill="none" stroke-linecap="round"></path><path d="M 385.024,69.973 C 387.114,64.814 390.035,60.394 389.019,59.581" stroke-width="4.776" stroke="black" fill="none" stroke-linecap="round"></path><path d="M 389.019,59.581 C 388.037,58.795 384.148,62.447 381.029,66.775" stroke-width="6.541" stroke="black" fill="none" stroke-linecap="round"></path><path d="M 381.029,66.775 C 371.763,79.634 372.089,80.052 364.250,93.955" stroke-width="4.500" stroke="black" fill="none" stroke-linecap="round"></path><path d="M 364.250,93.955 C 354.511,111.229 354.252,111.164 345.873,129.129" stroke-width="4.500" stroke="black" fill="none" stroke-linecap="round"></path><path d="M 345.873,129.129 C 337.473,147.137 338.212,147.486 330.692,165.901" stroke-width="4.500" stroke="black" fill="none" stroke-linecap="round"></path><path d="M 330.692,165.901 C 323.031,184.659 323.101,184.687 315.511,203.473" stroke-width="4.500" stroke="black" fill="none" stroke-linecap="round"></path><path d="M 315.511,203.473 C 307.920,222.259 308.061,222.317 300.330,241.045" stroke-width="4.500" stroke="black" fill="none" stroke-linecap="round"></path><path d="M 300.330,241.045 C 292.880,259.090 292.913,259.108 285.149,277.018" stroke-width="4.500" stroke="black" fill="none" stroke-linecap="round"></path><path d="M 285.149,277.018 C 278.531,292.283 279.172,292.637 271.566,307.396" stroke-width="4.500" stroke="black" fill="none" stroke-linecap="round"></path><path d="M 271.566,307.396 C 265.988,318.218 265.847,318.284 258.782,328.180" stroke-width="4.500" stroke="black" fill="none" stroke-linecap="round"></path><path d="M 258.782,328.180 C 253.862,335.071 253.562,335.001 247.596,340.971" stroke-width="4.500" stroke="black" fill="none" stroke-linecap="round"></path><path d="M 247.596,340.971 C 245.572,342.995 245.315,342.771 242.802,344.168" stroke-width="5.646" stroke="black" fill="none" stroke-linecap="round"></path><path d="M 242.802,344.168 C 238.124,346.768 238.101,346.791 233.214,348.965" stroke-width="5.557" stroke="black" fill="none" stroke-linecap="round"></path><circle r="3" cx="234.01251220703125" cy="118.73648071289062" fill="black"></circle></svg>