<svg xmlns="http://www.w3.org/2000/svg" xmlns:xlink="http://www.w3.org/1999/xlink" viewBox="0 0 576 416" width="576" height="416"><path d="M 78.207,273.499 C 77.009,267.903 76.641,267.961 75.810,262.307" stroke-width="7.874" stroke="black" fill="none" stroke-linecap="round"></path><path d="M 75.810,262.307 C 74.644,254.371 74.645,254.331 74.212,246.319" stroke-width="6.454" stroke="black" fill="none" stroke-linecap="round"></path><path d="M 74.212,246.319 C 73.846,239.542 74.212,239.524 74.212,232.729" stroke-width="5.254" stroke="black" fill="none" stroke-linecap="round"></path><path d="M 74.212,232.729 C 74.212,221.538 74.212,221.538 74.212,210.346" stroke-width="4.500" stroke="black" fill="none" stroke-linecap="round"></path><path d="M 74.212,210.346 C 74.212,203.551 74.212,203.551 74.212,196.756" stroke-width="4.694" stroke="black" fill="none" stroke-linecap="round"></path><path d="M 74.212,196.756 C 74.212,190.361 73.984,190.351 74.212,183.966" stroke-width="4.995" stroke="black" fill="none" stroke-linecap="round"></path><path d="M 74.212,183.966 C 74.384,179.160 74.555,179.164 75.011,174.373" stroke-width="5.498" stroke="black" fill="none" stroke-linecap="round"></path><path d="M 75.011,174.373 C 75.354,170.770 75.105,170.708 75.810,167.178" stroke-width="6.112" stroke="black" fill="none" stroke-linecap="round"></path><path d="M 75.810,167.178 C 76.303,164.713 75.586,162.662 77.408,162.382" stroke-width="6.667" stroke="black" fill="none" stroke-linecap="round"></path><path d="M 77.408,162.382 C 80.779,161.863 82.904,162.631 86.197,165.579" stroke-width="7.282" stroke="black" fill="none" stroke-linecap="round"></path><path d="M 86.197,165.579 C 90.494,169.426 89.871,170.532 92.589,175.972" stroke-width="5.824" stroke="black" fill="none" stroke-linecap="round"></path><path d="M 92.589,175.972 C 95.863,182.523 95.865,182.606 98.182,189.562" stroke-width="5.088" stroke="black" fill="none" stroke-linecap="round"></path><path d="M 98.182,189.562 C 100.659,196.995 99.942,197.227 102.177,204.750" stroke-width="4.794" stroke="black" fill="none" stroke-linecap="round"></path><path d="M 102.177,204.750 C 104.336,212.016 104.574,211.945 106.971,219.139" stroke-width="4.768" stroke="black" fill="none" stroke-linecap="round"></path><path d="M 106.971,219.139 C 108.969,225.135 108.774,225.208 110.966,231.131" stroke-width="5.037" stroke="black" fill="none" stroke-linecap="round"></path><path d="M 110.966,231.131 C 112.769,236.000 112.742,236.036 114.961,240.723" stroke-width="5.409" stroke="black" fill="none" stroke-linecap="round"></path><path d="M 114.961,240.723 C 116.338,243.630 115.976,244.137 118.157,246.319" stroke-width="6.077" stroke="black" fill="none" stroke-linecap="round"></path><path d="M 118.157,246.319 C 119.971,248.134 121.454,250.100 122.951,248.717" stroke-width="7.208" stroke="black" fill="none" stroke-linecap="round"></path><path d="M 122.951,248.717 C 126.647,245.304 126.352,242.940 128.544,236.726" stroke-width="6.682" stroke="black" fill="none" stroke-linecap="round"></path><path d="M 128.544,236.726 C 131.146,229.350 130.409,229.095 132.539,221.538" stroke-width="5.025" stroke="black" fill="none" stroke-linecap="round"></path><path d="M 132.539,221.538 C 134.803,213.506 135.359,213.647 137.333,205.550" stroke-width="4.574" stroke="black" fill="none" stroke-linecap="round"></path><path d="M 137.333,205.550 C 139.354,197.259 139.092,197.183 140.529,188.762" stroke-width="4.604" stroke="black" fill="none" stroke-linecap="round"></path><path d="M 140.529,188.762 C 141.889,180.795 141.633,180.753 142.926,172.774" stroke-width="4.610" stroke="black" fill="none" stroke-linecap="round"></path><path d="M 142.926,172.774 C 144.030,165.964 144.090,165.973 145.323,159.184" stroke-width="4.763" stroke="black" fill="none" stroke-linecap="round"></path><path d="M 145.323,159.184 C 146.487,152.783 146.358,152.753 147.720,146.394" stroke-width="4.993" stroke="black" fill="none" stroke-linecap="round"></path><path d="M 147.720,146.394 C 148.755,141.562 148.860,141.582 150.117,136.801" stroke-width="5.537" stroke="black" fill="none" stroke-linecap="round"></path><path d="M 150.117,136.801 C 150.857,133.987 150.916,134.003 151.715,131.205" stroke-width="6.240" stroke="black" fill="none" stroke-linecap="round"></path><path d="M 167.695,210.346 C 169.693,206.749 169.092,206.271 171.690,203.151" stroke-width="8.333" stroke="black" fill="none" stroke-linecap="round"></path><path d="M 171.690,203.151 C 175.085,199.076 175.456,199.264 179.680,195.957" stroke-width="6.136" stroke="black" fill="none" stroke-linecap="round"></path><path d="M 179.680,195.957 C 184.645,192.070 184.647,191.976 190.067,188.762" stroke-width="5.421" stroke="black" fill="none" stroke-linecap="round"></path><path d="M 190.067,188.762 C 195.433,185.581 195.482,185.519 201.253,183.166" stroke-width="5.157" stroke="black" fill="none" stroke-linecap="round"></path><path d="M 201.253,183.166 C 206.268,181.122 206.356,181.118 211.640,179.969" stroke-width="5.386" stroke="black" fill="none" stroke-linecap="round"></path><path d="M 211.640,179.969 C 215.545,179.120 215.862,178.504 219.630,179.169" stroke-width="5.875" stroke="black" fill="none" stroke-linecap="round"></path><path d="M 219.630,179.169 C 222.654,179.703 223.209,180.127 225.223,182.367" stroke-width="6.965" stroke="black" fill="none" stroke-linecap="round"></path><path d="M 225.223,182.367 C 226.804,184.124 227.441,184.995 226.822,187.163" stroke-width="6.945" stroke="black" fill="none" stroke-linecap="round"></path><path d="M 226.822,187.163 C 225.843,190.591 224.570,190.479 222.027,193.559" stroke-width="6.348" stroke="black" fill="none" stroke-linecap="round"></path><path d="M 222.027,193.559 C 216.980,199.672 217.317,200.042 211.640,205.550" stroke-width="4.947" stroke="black" fill="none" stroke-linecap="round"></path><path d="M 211.640,205.550 C 204.134,212.832 204.191,213.191 195.660,219.139" stroke-width="4.500" stroke="black" fill="none" stroke-linecap="round"></path><path d="M 195.660,219.139 C 191.008,222.384 190.640,222.068 185.273,223.936" stroke-width="5.029" stroke="black" fill="none" stroke-linecap="round"></path><path d="M 185.273,223.936 C 181.451,225.266 181.299,225.311 177.283,225.535" stroke-width="5.792" stroke="black" fill="none" stroke-linecap="round"></path><path d="M 177.283,225.535 C 174.108,225.711 173.290,226.262 170.891,224.735" stroke-width="6.216" stroke="black" fill="none" stroke-linecap="round"></path><path d="M 170.891,224.735 C 168.895,223.464 168.796,222.506 168.494,219.939" stroke-width="7.249" stroke="black" fill="none" stroke-linecap="round"></path><path d="M 248.395,193.559 C 254.387,188.362 253.824,187.464 260.380,183.166" stroke-width="8.182" stroke="black" fill="none" stroke-linecap="round"></path><path d="M 260.380,183.166 C 265.409,179.869 265.931,180.666 271.566,178.370" stroke-width="5.878" stroke="black" fill="none" stroke-linecap="round"></path><path d="M 271.566,178.370 C 276.718,176.270 276.615,175.766 281.953,174.373" stroke-width="5.564" stroke="black" fill="none" stroke-linecap="round"></path><path d="M 281.953,174.373 C 285.804,173.368 285.953,173.573 289.943,173.573" stroke-width="5.937" stroke="black" fill="none" stroke-linecap="round"></path><path d="M 289.943,173.573 C 293.144,173.573 293.822,172.826 296.335,174.373" stroke-width="6.338" stroke="black" fill="none" stroke-linecap="round"></path><path d="M 296.335,174.373 C 299.016,176.024 300.330,176.851 300.330,179.969" stroke-width="7.076" stroke="black" fill="none" stroke-linecap="round"></path><path d="M 300.330,179.969 C 300.330,186.044 299.088,186.699 296.335,192.759" stroke-width="6.547" stroke="black" fill="none" stroke-linecap="round"></path><path d="M 296.335,192.759 C 293.095,199.889 292.941,199.999 288.345,206.349" stroke-width="5.109" stroke="black" fill="none" stroke-linecap="round"></path><path d="M 288.345,206.349 C 284.551,211.590 284.404,211.651 279.556,215.942" stroke-width="5.102" stroke="black" fill="none" stroke-linecap="round"></path><path d="M 279.556,215.942 C 274.017,220.844 273.981,221.261 267.571,224.735" stroke-width="5.144" stroke="black" fill="none" stroke-linecap="round"></path><path d="M 267.571,224.735 C 264.393,226.457 263.951,226.334 260.380,226.334" stroke-width="5.817" stroke="black" fill="none" stroke-linecap="round"></path><path d="M 260.380,226.334 C 257.559,226.334 256.875,226.504 254.787,224.735" stroke-width="6.412" stroke="black" fill="none" stroke-linecap="round"></path><path d="M 254.787,224.735 C 251.682,222.107 251.908,221.373 249.993,217.541" stroke-width="6.955" stroke="black" fill="none" stroke-linecap="round"></path><path d="M 249.993,217.541 C 248.312,214.179 248.512,214.015 247.596,210.346" stroke-width="6.426" stroke="black" fill="none" stroke-linecap="round"></path><path d="M 247.596,210.346 C 246.515,206.021 246.208,205.973 245.998,201.553" stroke-width="6.048" stroke="black" fill="none" stroke-linecap="round"></path><path d="M 245.998,201.553 C 245.808,197.579 245.685,197.372 246.797,193.559" stroke-width="6.092" stroke="black" fill="none" stroke-linecap="round"></path><path d="M 246.797,193.559 C 248.481,187.779 249.250,187.986 251.591,182.367" stroke-width="5.370" stroke="black" fill="none" stroke-linecap="round"></path><path d="M 251.591,182.367 C 253.245,178.393 253.189,178.370 254.787,174.373" stroke-width="5.853" stroke="black" fill="none" stroke-linecap="round"></path><path d="M 374.637,108.822 C 368.644,106.424 368.784,105.699 362.652,104.025" stroke-width="8.211" stroke="black" fill="none" stroke-linecap="round"></path><path d="M 362.652,104.025 C 359.995,103.300 359.855,104.025 357.059,104.025" stroke-width="7.148" stroke="black" fill="none" stroke-linecap="round"></path><path d="M 357.059,104.025 C 353.463,104.025 353.408,103.542 349.868,104.025" stroke-width="6.551" stroke="black" fill="none" stroke-linecap="round"></path><path d="M 349.868,104.025 C 344.619,104.741 344.480,104.684 339.481,106.424" stroke-width="5.802" stroke="black" fill="none" stroke-linecap="round"></path><path d="M 339.481,106.424 C 335.291,107.882 335.391,108.253 331.491,110.421" stroke-width="5.783" stroke="black" fill="none" stroke-linecap="round"></path><path d="M 331.491,110.421 C 328.200,112.250 327.813,111.895 325.099,114.418" stroke-width="6.092" stroke="black" fill="none" stroke-linecap="round"></path><path d="M 325.099,114.418 C 322.220,117.092 322.379,117.416 320.305,120.813" stroke-width="6.113" stroke="black" fill="none" stroke-linecap="round"></path><path d="M 320.305,120.813 C 317.985,124.611 317.827,124.632 316.310,128.807" stroke-width="5.962" stroke="black" fill="none" stroke-linecap="round"></path><path d="M 316.310,128.807 C 314.631,133.426 314.497,133.528 313.913,138.400" stroke-width="5.769" stroke="black" fill="none" stroke-linecap="round"></path><path d="M 313.913,138.400 C 313.298,143.520 313.568,143.616 313.913,148.792" stroke-width="5.639" stroke="black" fill="none" stroke-linecap="round"></path><path d="M 313.913,148.792 C 314.367,155.607 314.595,155.602 315.511,162.382" stroke-width="5.166" stroke="black" fill="none" stroke-linecap="round"></path><path d="M 315.511,162.382 C 316.592,170.391 316.854,170.357 317.908,178.370" stroke-width="4.766" stroke="black" fill="none" stroke-linecap="round"></path><path d="M 317.908,178.370 C 318.851,185.546 318.905,185.548 319.506,192.759" stroke-width="4.832" stroke="black" fill="none" stroke-linecap="round"></path><path d="M 319.506,192.759 C 320.103,199.937 320.087,199.949 320.305,207.148" stroke-width="4.859" stroke="black" fill="none" stroke-linecap="round"></path><path d="M 320.305,207.148 C 320.486,213.139 320.535,213.154 320.305,219.139" stroke-width="5.055" stroke="black" fill="none" stroke-linecap="round"></path><path d="M 320.305,219.139 C 320.135,223.547 320.229,223.588 319.506,227.933" stroke-width="5.633" stroke="black" fill="none" stroke-linecap="round"></path><path d="M 319.506,227.933 C 318.631,233.181 318.307,233.129 317.109,238.325" stroke-width="5.561" stroke="black" fill="none" stroke-linecap="round"></path><path d="M 309.918,210.346 C 315.511,209.946 315.506,209.867 321.104,209.547" stroke-width="8.395" stroke="black" fill="none" stroke-linecap="round"></path><path d="M 321.104,209.547 C 329.488,209.067 329.488,208.919 337.883,208.747" stroke-width="5.253" stroke="black" fill="none" stroke-linecap="round"></path><path d="M 337.883,208.747 C 349.063,208.519 349.069,208.747 360.255,208.747" stroke-width="4.500" stroke="black" fill="none" stroke-linecap="round"></path><path d="M 412.989,209.547 C 407.396,209.547 407.390,209.360 401.803,209.547" stroke-width="7.878" stroke="black" fill="none" stroke-linecap="round"></path><path d="M 401.803,209.547 C 395.405,209.760 395.415,210.034 389.019,210.346" stroke-width="5.614" stroke="black" fill="none" stroke-linecap="round"></path><path d="M 389.019,210.346 C 379.036,210.833 379.014,210.465 369.044,211.145" stroke-width="4.500" stroke="black" fill="none" stroke-linecap="round"></path><path d="M 369.044,211.145 C 343.858,212.863 343.892,213.377 318.707,215.142" stroke-width="4.500" stroke="black" fill="none" stroke-linecap="round"></path><path d="M 318.707,215.142 C 281.170,217.774 281.128,217.204 243.601,219.939" stroke-width="4.500" stroke="black" fill="none" stroke-linecap="round"></path><path d="M 243.601,219.939 C 220.803,221.600 220.852,222.247 198.057,223.936" stroke-width="4.500" stroke="black" fill="none" stroke-linecap="round"></path><path d="M 198.057,223.936 C 177.706,225.444 177.662,224.849 157.308,226.334" stroke-width="4.500" stroke="black" fill="none" stroke-linecap="round"></path><path d="M 157.308,226.334 C 139.310,227.647 139.274,227.463 121.353,229.532" stroke-width="4.500" stroke="black" fill="none" stroke-linecap="round"></path><path d="M 121.353,229.532 C 108.113,231.060 108.098,231.129 94.986,233.529" stroke-width="4.500" stroke="black" fill="none" stroke-linecap="round"></path><path d="M 94.986,233.529 C 75.339,237.124 75.335,237.187 55.835,241.523" stroke-width="4.500" stroke="black" fill="none" stroke-linecap="round"></path><path d="M 55.835,241.523 C 39.380,245.181 39.447,245.485 23.076,249.517" stroke-width="4.500" stroke="black" fill="none" stroke-linecap="round"></path><path d="M 23.076,249.517 C 13.480,251.880 13.551,252.265 3.900,254.313" stroke-width="4.500" stroke="black" fill="none" stroke-linecap="round"></path><path d="M 3.900,254.313 C 0.368,255.063 -3.995,256.239 -3.291,255.113" stroke-width="5.082" stroke="black" fill="none" stroke-linecap="round"></path><path d="M -3.291,255.113 C -1.997,253.042 2.119,251.208 7.895,247.918" stroke-width="5.912" stroke="black" fill="none" stroke-linecap="round"></path><path d="M 7.895,247.918 C 28.087,236.419 28.117,236.440 48.644,225.535" stroke-width="4.500" stroke="black" fill="none" stroke-linecap="round"></path><path d="M 48.644,225.535 C 73.260,212.457 72.998,211.869 98.182,199.954" stroke-width="4.500" stroke="black" fill="none" stroke-linecap="round"></path><path d="M 98.182,199.954 C 124.534,187.487 124.571,187.398 151.715,176.771" stroke-width="4.500" stroke="black" fill="none" stroke-linecap="round"></path><path d="M 151.715,176.771 C 179.702,165.814 179.901,166.238 208.444,156.786" stroke-width="4.500" stroke="black" fill="none" stroke-linecap="round"></path><path d="M 208.444,156.786 C 236.630,147.452 236.682,147.558 265.174,139.199" stroke-width="4.500" stroke="black" fill="none" stroke-linecap="round"></path><path d="M 265.174,139.199 C 289.816,131.970 289.975,132.521 314.712,125.609" stroke-width="4.500" stroke="black" fill="none" stroke-linecap="round"></path><path d="M 314.712,125.609 C 334.320,120.130 334.316,120.111 353.863,114.418" stroke-width="4.500" stroke="black" fill="none" stroke-linecap="round"></path><path d="M 353.863,114.418 C 365.876,110.918 365.867,110.881 377.833,107.223" stroke-width="4.500" stroke="black" fill="none" stroke-linecap="round"></path><path d="M 377.833,107.223 C 380.249,106.484 383.595,105.382 382.627,105.624" stroke-width="5.132" stroke="black" fill="none" stroke-linecap="round"></path><path d="M 382.627,105.624 C 380.399,106.181 377.034,107.223 371.441,108.822" stroke-width="6.141" stroke="black" fill="none" stroke-linecap="round"></path><path d="M 371.441,108.822 C 351.865,114.418 351.724,113.960 332.290,120.013" stroke-width="4.500" stroke="black" fill="none" stroke-linecap="round"></path><path d="M 332.290,120.013 C 309.377,127.150 309.136,126.619 286.747,135.202" stroke-width="4.500" stroke="black" fill="none" stroke-linecap="round"></path><path d="M 286.747,135.202 C 266.390,143.006 266.283,143.041 246.797,152.789" stroke-width="4.500" stroke="black" fill="none" stroke-linecap="round"></path><path d="M 246.797,152.789 C 232.725,159.828 232.393,159.691 219.630,168.777" stroke-width="4.500" stroke="black" fill="none" stroke-linecap="round"></path><path d="M 219.630,168.777 C 211.619,174.480 211.050,174.628 205.248,182.367" stroke-width="4.500" stroke="black" fill="none" stroke-linecap="round"></path><path d="M 205.248,182.367 C 201.462,187.418 201.560,188.165 200.454,194.358" stroke-width="4.587" stroke="black" fill="none" stroke-linecap="round"></path><path d="M 200.454,194.358 C 199.562,199.357 199.863,199.880 201.253,204.750" stroke-width="5.159" stroke="black" fill="none" stroke-linecap="round"></path><circle r="3" cx="244.39950561523438" cy="289.48699951171875" fill="black"></circle></svg>