<svg xmlns="http://www.w3.org/2000/svg" xmlns:xlink="http://www.w3.org/1999/xlink" viewBox="0 0 576 416" width="576" height="416"><path d="M 90.991,196.419 C 93.788,199.617 93.908,199.519 96.584,202.814" stroke-width="8.504" stroke="black" fill="none" stroke-linecap="round"></path><path d="M 96.584,202.814 C 99.102,205.914 99.347,205.781 101.378,209.210" stroke-width="6.583" stroke="black" fill="none" stroke-linecap="round"></path><path d="M 101.378,209.210 C 105.739,216.573 105.613,216.687 109.368,224.398" stroke-width="4.954" stroke="black" fill="none" stroke-linecap="round"></path><path d="M 109.368,224.398 C 113.204,232.275 113.037,232.360 116.559,240.386" stroke-width="4.576" stroke="black" fill="none" stroke-linecap="round"></path><path d="M 116.559,240.386 C 120.228,248.748 120.132,248.790 123.750,257.174" stroke-width="4.500" stroke="black" fill="none" stroke-linecap="round"></path><path d="M 123.750,257.174 C 127.722,266.377 127.768,266.357 131.740,275.560" stroke-width="4.500" stroke="black" fill="none" stroke-linecap="round"></path><path d="M 131.740,275.560 C 135.359,283.944 135.262,283.986 138.931,292.348" stroke-width="4.500" stroke="black" fill="none" stroke-linecap="round"></path><path d="M 138.931,292.348 C 142.453,300.374 142.464,300.370 146.122,308.336" stroke-width="4.500" stroke="black" fill="none" stroke-linecap="round"></path><path d="M 146.122,308.336 C 149.256,315.159 149.340,315.120 152.514,321.926" stroke-width="4.523" stroke="black" fill="none" stroke-linecap="round"></path><path d="M 152.514,321.926 C 154.933,327.112 155.028,327.071 157.308,332.318" stroke-width="5.007" stroke="black" fill="none" stroke-linecap="round"></path><path d="M 157.308,332.318 C 159.023,336.265 158.666,336.429 160.504,340.312" stroke-width="5.570" stroke="black" fill="none" stroke-linecap="round"></path><path d="M 160.504,340.312 C 162.262,344.023 162.575,343.870 164.499,347.507" stroke-width="5.826" stroke="black" fill="none" stroke-linecap="round"></path><path d="M 142.926,206.012 C 146.522,214.406 146.308,214.505 150.117,222.800" stroke-width="7.881" stroke="black" fill="none" stroke-linecap="round"></path><path d="M 150.117,222.800 C 153.100,229.294 153.313,229.195 156.509,235.590" stroke-width="5.517" stroke="black" fill="none" stroke-linecap="round"></path><path d="M 156.509,235.590 C 160.105,242.785 159.949,242.867 163.700,249.979" stroke-width="4.860" stroke="black" fill="none" stroke-linecap="round"></path><path d="M 163.700,249.979 C 167.539,257.256 167.586,257.237 171.690,264.369" stroke-width="4.655" stroke="black" fill="none" stroke-linecap="round"></path><path d="M 171.690,264.369 C 175.177,270.427 175.055,270.516 178.881,276.360" stroke-width="4.850" stroke="black" fill="none" stroke-linecap="round"></path><path d="M 178.881,276.360 C 182.645,282.107 182.930,281.918 186.871,287.551" stroke-width="4.937" stroke="black" fill="none" stroke-linecap="round"></path><path d="M 186.871,287.551 C 188.523,289.912 188.441,289.969 190.067,292.348" stroke-width="6.004" stroke="black" fill="none" stroke-linecap="round"></path><path d="M 190.067,292.348 C 193.634,297.563 193.568,297.612 197.258,302.740" stroke-width="5.389" stroke="black" fill="none" stroke-linecap="round"></path><path d="M 197.258,302.740 C 200.759,307.605 200.888,307.511 204.449,312.333" stroke-width="5.216" stroke="black" fill="none" stroke-linecap="round"></path><path d="M 204.449,312.333 C 207.679,316.705 207.683,316.703 210.841,321.126" stroke-width="5.404" stroke="black" fill="none" stroke-linecap="round"></path><path d="M 210.841,321.126 C 213.676,325.096 213.688,325.089 216.434,329.120" stroke-width="5.620" stroke="black" fill="none" stroke-linecap="round"></path><path d="M 216.434,329.120 C 219.680,333.883 219.524,333.992 222.826,338.713" stroke-width="5.607" stroke="black" fill="none" stroke-linecap="round"></path><path d="M 146.921,303.539 C 154.112,301.941 154.107,301.917 161.303,300.342" stroke-width="8.304" stroke="black" fill="none" stroke-linecap="round"></path><path d="M 161.303,300.342 C 166.891,299.119 166.910,299.204 172.489,297.944" stroke-width="5.899" stroke="black" fill="none" stroke-linecap="round"></path><path d="M 172.489,297.944 C 179.295,296.406 179.330,296.531 186.072,294.746" stroke-width="5.293" stroke="black" fill="none" stroke-linecap="round"></path><path d="M 186.072,294.746 C 192.913,292.934 192.900,292.861 199.655,290.749" stroke-width="5.019" stroke="black" fill="none" stroke-linecap="round"></path><path d="M 199.655,290.749 C 205.684,288.864 205.770,289.059 211.640,286.752" stroke-width="5.119" stroke="black" fill="none" stroke-linecap="round"></path><path d="M 211.640,286.752 C 216.956,284.662 217.059,284.717 222.027,281.955" stroke-width="5.208" stroke="black" fill="none" stroke-linecap="round"></path><path d="M 222.027,281.955 C 224.250,280.720 224.070,280.411 226.022,278.758" stroke-width="6.298" stroke="black" fill="none" stroke-linecap="round"></path><path d="M 226.022,278.758 C 229.264,276.014 229.419,276.159 232.415,273.162" stroke-width="5.901" stroke="black" fill="none" stroke-linecap="round"></path><path d="M 232.415,273.162 C 235.012,270.563 234.851,270.397 237.208,267.566" stroke-width="6.160" stroke="black" fill="none" stroke-linecap="round"></path><path d="M 237.208,267.566 C 238.846,265.600 240.114,265.898 240.405,263.569" stroke-width="6.607" stroke="black" fill="none" stroke-linecap="round"></path><path d="M 240.405,263.569 C 240.913,259.502 240.688,258.541 238.806,254.776" stroke-width="7.044" stroke="black" fill="none" stroke-linecap="round"></path><path d="M 238.806,254.776 C 237.492,252.146 236.598,252.503 234.013,250.779" stroke-width="6.715" stroke="black" fill="none" stroke-linecap="round"></path><path d="M 234.013,250.779 C 230.605,248.506 230.497,248.620 226.822,246.782" stroke-width="6.246" stroke="black" fill="none" stroke-linecap="round"></path><path d="M 226.822,246.782 C 223.306,245.023 223.267,245.082 219.630,243.584" stroke-width="6.180" stroke="black" fill="none" stroke-linecap="round"></path><path d="M 219.630,243.584 C 216.476,242.284 216.542,241.973 213.238,241.186" stroke-width="6.347" stroke="black" fill="none" stroke-linecap="round"></path><path d="M 213.238,241.186 C 208.153,239.974 207.419,238.781 202.851,239.587" stroke-width="6.708" stroke="black" fill="none" stroke-linecap="round"></path><path d="M 202.851,239.587 C 200.627,239.980 199.293,241.408 199.655,243.584" stroke-width="7.451" stroke="black" fill="none" stroke-linecap="round"></path><path d="M 199.655,243.584 C 200.491,248.603 202.162,248.958 205.248,253.976" stroke-width="6.895" stroke="black" fill="none" stroke-linecap="round"></path><path d="M 205.248,253.976 C 208.554,259.350 208.527,259.424 212.439,264.369" stroke-width="5.685" stroke="black" fill="none" stroke-linecap="round"></path><path d="M 212.439,264.369 C 216.118,269.017 216.137,269.082 220.429,273.162" stroke-width="5.311" stroke="black" fill="none" stroke-linecap="round"></path><path d="M 220.429,273.162 C 224.127,276.676 224.238,276.628 228.419,279.557" stroke-width="5.522" stroke="black" fill="none" stroke-linecap="round"></path><path d="M 228.419,279.557 C 232.228,282.224 232.434,281.923 236.410,284.354" stroke-width="5.723" stroke="black" fill="none" stroke-linecap="round"></path><path d="M 236.410,284.354 C 239.625,286.320 239.419,286.771 242.802,288.351" stroke-width="6.072" stroke="black" fill="none" stroke-linecap="round"></path><path d="M 242.802,288.351 C 245.411,289.569 245.531,289.631 248.395,289.949" stroke-width="6.502" stroke="black" fill="none" stroke-linecap="round"></path><path d="M 248.395,289.949 C 252.722,290.431 254.216,291.777 257.184,289.949" stroke-width="6.943" stroke="black" fill="none" stroke-linecap="round"></path><path d="M 257.184,289.949 C 259.409,288.579 258.376,286.800 258.782,283.554" stroke-width="7.631" stroke="black" fill="none" stroke-linecap="round"></path><path d="M 258.782,283.554 C 259.175,280.405 258.969,280.346 258.782,277.159" stroke-width="6.833" stroke="black" fill="none" stroke-linecap="round"></path><path d="M 258.782,277.159 C 258.569,273.551 258.361,273.564 257.983,269.964" stroke-width="6.460" stroke="black" fill="none" stroke-linecap="round"></path><path d="M 257.983,269.964 C 257.562,265.970 257.406,265.976 257.184,261.970" stroke-width="6.212" stroke="black" fill="none" stroke-linecap="round"></path><path d="M 257.184,261.970 C 257.007,258.782 257.383,258.760 257.184,255.575" stroke-width="6.438" stroke="black" fill="none" stroke-linecap="round"></path><path d="M 257.184,255.575 C 256.983,252.365 256.385,252.380 256.385,249.180" stroke-width="6.499" stroke="black" fill="none" stroke-linecap="round"></path><path d="M 256.385,249.180 C 256.385,245.585 254.949,243.533 257.184,241.985" stroke-width="7.118" stroke="black" fill="none" stroke-linecap="round"></path><path d="M 257.184,241.985 C 260.143,239.935 262.222,240.951 266.772,241.985" stroke-width="7.432" stroke="black" fill="none" stroke-linecap="round"></path><path d="M 266.772,241.985 C 271.011,242.949 270.889,243.768 274.762,245.982" stroke-width="6.289" stroke="black" fill="none" stroke-linecap="round"></path><path d="M 274.762,245.982 C 279.278,248.565 279.543,248.298 283.551,251.578" stroke-width="5.775" stroke="black" fill="none" stroke-linecap="round"></path><path d="M 283.551,251.578 C 288.332,255.492 287.945,255.975 292.340,260.372" stroke-width="5.359" stroke="black" fill="none" stroke-linecap="round"></path><path d="M 292.340,260.372 C 296.734,264.768 296.844,264.664 301.129,269.165" stroke-width="5.334" stroke="black" fill="none" stroke-linecap="round"></path><path d="M 301.129,269.165 C 304.834,273.058 304.749,273.140 308.320,277.159" stroke-width="5.368" stroke="black" fill="none" stroke-linecap="round"></path><path d="M 308.320,277.159 C 311.141,280.335 311.034,280.434 313.913,283.554" stroke-width="5.796" stroke="black" fill="none" stroke-linecap="round"></path><path d="M 313.913,283.554 C 315.828,285.630 316.021,285.454 317.908,287.551" stroke-width="6.435" stroke="black" fill="none" stroke-linecap="round"></path><path d="M 317.908,287.551 C 319.616,289.451 320.277,292.513 321.104,291.548" stroke-width="7.347" stroke="black" fill="none" stroke-linecap="round"></path><path d="M 321.104,291.548 C 322.674,289.715 322.194,286.776 322.702,281.955" stroke-width="7.708" stroke="black" fill="none" stroke-linecap="round"></path><path d="M 322.702,281.955 C 322.993,279.182 322.516,279.146 322.702,276.360" stroke-width="7.027" stroke="black" fill="none" stroke-linecap="round"></path><path d="M 322.702,276.360 C 322.915,273.150 322.908,273.126 323.501,269.964" stroke-width="6.669" stroke="black" fill="none" stroke-linecap="round"></path><path d="M 323.501,269.964 C 324.107,266.731 324.493,266.803 325.099,263.569" stroke-width="6.612" stroke="black" fill="none" stroke-linecap="round"></path><path d="M 325.099,263.569 C 325.691,260.408 325.226,260.310 325.898,257.174" stroke-width="6.473" stroke="black" fill="none" stroke-linecap="round"></path><path d="M 325.898,257.174 C 326.425,254.714 326.503,254.695 327.496,252.377" stroke-width="6.791" stroke="black" fill="none" stroke-linecap="round"></path><path d="M 327.496,252.377 C 328.900,249.100 328.226,247.776 330.692,245.982" stroke-width="7.230" stroke="black" fill="none" stroke-linecap="round"></path><path d="M 330.692,245.982 C 332.621,244.579 333.990,244.939 336.285,245.982" stroke-width="7.825" stroke="black" fill="none" stroke-linecap="round"></path><path d="M 336.285,245.982 C 338.384,246.937 337.995,247.899 339.481,249.979" stroke-width="7.167" stroke="black" fill="none" stroke-linecap="round"></path><path d="M 339.481,249.979 C 341.990,253.494 341.878,253.577 344.275,257.174" stroke-width="6.282" stroke="black" fill="none" stroke-linecap="round"></path><path d="M 344.275,257.174 C 346.672,260.771 346.817,260.683 349.069,264.369" stroke-width="6.057" stroke="black" fill="none" stroke-linecap="round"></path><path d="M 349.069,264.369 C 351.212,267.877 350.900,268.067 353.064,271.563" stroke-width="6.062" stroke="black" fill="none" stroke-linecap="round"></path><path d="M 353.064,271.563 C 356.094,276.461 356.044,276.523 359.456,281.156" stroke-width="6.509" stroke="black" fill="none" stroke-linecap="round"></path><path d="M 359.456,281.156 C 361.637,284.117 362.008,283.836 364.250,286.752" stroke-width="7.106" stroke="black" fill="none" stroke-linecap="round"></path><path d="M 406.597,269.964 C 403.800,273.562 400.161,277.328 401.004,277.159" stroke-width="8.657" stroke="black" fill="none" stroke-linecap="round"></path><path d="M 401.004,277.159 C 402.158,276.928 407.284,274.129 410.592,269.165" stroke-width="7.892" stroke="black" fill="none" stroke-linecap="round"></path><path d="M 410.592,269.165 C 413.676,264.536 412.895,263.688 413.788,257.973" stroke-width="5.916" stroke="black" fill="none" stroke-linecap="round"></path><path d="M 413.788,257.973 C 414.893,250.897 414.892,250.762 414.587,243.584" stroke-width="5.143" stroke="black" fill="none" stroke-linecap="round"></path><path d="M 414.587,243.584 C 414.093,231.976 414.013,231.896 412.190,220.401" stroke-width="4.500" stroke="black" fill="none" stroke-linecap="round"></path><path d="M 412.190,220.401 C 410.018,206.715 409.830,206.699 406.597,193.222" stroke-width="4.500" stroke="black" fill="none" stroke-linecap="round"></path><path d="M 406.597,193.222 C 405.036,186.714 404.889,186.724 402.602,180.431" stroke-width="4.500" stroke="black" fill="none" stroke-linecap="round"></path><path d="M 402.602,180.431 C 398.497,169.138 398.616,169.061 393.813,158.048" stroke-width="4.500" stroke="black" fill="none" stroke-linecap="round"></path><path d="M 393.813,158.048 C 389.028,147.078 388.779,147.176 383.426,136.464" stroke-width="4.500" stroke="black" fill="none" stroke-linecap="round"></path><path d="M 383.426,136.464 C 377.993,125.592 378.085,125.533 372.240,114.880" stroke-width="4.500" stroke="black" fill="none" stroke-linecap="round"></path><path d="M 372.240,114.880 C 366.899,105.148 366.540,105.348 361.054,95.694" stroke-width="4.500" stroke="black" fill="none" stroke-linecap="round"></path><path d="M 361.054,95.694 C 354.955,84.963 355.159,84.846 349.069,74.111" stroke-width="4.500" stroke="black" fill="none" stroke-linecap="round"></path><path d="M 349.069,74.111 C 346.769,70.057 344.520,64.152 344.275,66.117" stroke-width="5.082" stroke="black" fill="none" stroke-linecap="round"></path><path d="M 344.275,66.117 C 343.721,70.548 344.557,76.861 347.471,86.901" stroke-width="6.217" stroke="black" fill="none" stroke-linecap="round"></path><path d="M 347.471,86.901 C 351.748,101.642 352.224,101.673 358.657,115.680" stroke-width="4.500" stroke="black" fill="none" stroke-linecap="round"></path><path d="M 358.657,115.680 C 365.807,131.251 365.500,131.601 374.637,146.057" stroke-width="4.500" stroke="black" fill="none" stroke-linecap="round"></path><path d="M 374.637,146.057 C 382.679,158.781 382.799,159.002 393.014,170.039" stroke-width="4.500" stroke="black" fill="none" stroke-linecap="round"></path><path d="M 393.014,170.039 C 402.774,180.585 402.798,181.091 414.587,189.225" stroke-width="4.500" stroke="black" fill="none" stroke-linecap="round"></path><path d="M 414.587,189.225 C 425.969,197.079 426.535,196.654 439.356,202.015" stroke-width="4.500" stroke="black" fill="none" stroke-linecap="round"></path><path d="M 439.356,202.015 C 453.301,207.846 453.550,207.471 468.120,211.608" stroke-width="4.500" stroke="black" fill="none" stroke-linecap="round"></path><path d="M 468.120,211.608 C 483.113,215.865 483.240,215.487 498.482,218.803" stroke-width="4.500" stroke="black" fill="none" stroke-linecap="round"></path><path d="M 498.482,218.803 C 510.806,221.483 510.904,221.025 523.251,223.599" stroke-width="4.500" stroke="black" fill="none" stroke-linecap="round"></path><path d="M 523.251,223.599 C 530.080,225.022 539.005,225.168 536.834,226.797" stroke-width="4.500" stroke="black" fill="none" stroke-linecap="round"></path><path d="M 536.834,226.797 C 532.613,229.964 523.826,230.907 510.467,233.192" stroke-width="5.299" stroke="black" fill="none" stroke-linecap="round"></path><path d="M 510.467,233.192 C 477.084,238.901 476.863,237.687 443.351,242.785" stroke-width="4.500" stroke="black" fill="none" stroke-linecap="round"></path><path d="M 443.351,242.785 C 408.548,248.079 408.538,248.054 373.838,253.976" stroke-width="4.500" stroke="black" fill="none" stroke-linecap="round"></path><path d="M 373.838,253.976 C 340.623,259.645 340.504,259.126 307.521,265.967" stroke-width="4.500" stroke="black" fill="none" stroke-linecap="round"></path><path d="M 307.521,265.967 C 274.985,272.716 275.082,273.242 242.802,281.156" stroke-width="4.500" stroke="black" fill="none" stroke-linecap="round"></path><path d="M 242.802,281.156 C 214.758,288.031 214.741,287.998 186.871,295.545" stroke-width="4.500" stroke="black" fill="none" stroke-linecap="round"></path><path d="M 186.871,295.545 C 161.607,302.387 161.734,302.852 136.534,309.935" stroke-width="4.500" stroke="black" fill="none" stroke-linecap="round"></path><path d="M 136.534,309.935 C 126.179,312.845 126.037,312.367 115.760,315.530" stroke-width="4.500" stroke="black" fill="none" stroke-linecap="round"></path><path d="M 115.760,315.530 C 100.070,320.361 99.711,319.642 84.599,325.923" stroke-width="4.500" stroke="black" fill="none" stroke-linecap="round"></path><path d="M 84.599,325.923 C 73.744,330.434 66.731,332.886 63.825,337.114" stroke-width="4.500" stroke="black" fill="none" stroke-linecap="round"></path><path d="M 63.825,337.114 C 62.336,339.281 69.789,338.939 75.810,338.713" stroke-width="5.503" stroke="black" fill="none" stroke-linecap="round"></path><path d="M 75.810,338.713 C 101.749,337.740 101.877,337.630 127.745,334.716" stroke-width="4.500" stroke="black" fill="none" stroke-linecap="round"></path><path d="M 127.745,334.716 C 162.201,330.835 162.052,329.526 196.459,325.123" stroke-width="4.500" stroke="black" fill="none" stroke-linecap="round"></path><path d="M 196.459,325.123 C 230.766,320.733 230.819,321.149 265.174,317.129" stroke-width="4.500" stroke="black" fill="none" stroke-linecap="round"></path><path d="M 265.174,317.129 C 299.134,313.155 299.058,312.359 333.089,309.135" stroke-width="4.500" stroke="black" fill="none" stroke-linecap="round"></path><path d="M 333.089,309.135 C 366.574,305.963 366.612,306.040 400.205,304.339" stroke-width="4.500" stroke="black" fill="none" stroke-linecap="round"></path><path d="M 400.205,304.339 C 429.734,302.843 429.765,303.433 459.331,302.740" stroke-width="4.500" stroke="black" fill="none" stroke-linecap="round"></path><path d="M 459.331,302.740 C 480.902,302.234 480.907,301.940 502.477,301.940" stroke-width="4.500" stroke="black" fill="none" stroke-linecap="round"></path><path d="M 502.477,301.940 C 514.066,301.940 514.393,301.176 525.648,302.740" stroke-width="4.500" stroke="black" fill="none" stroke-linecap="round"></path><path d="M 525.648,302.740 C 528.775,303.174 532.535,304.643 531.241,305.938" stroke-width="4.949" stroke="black" fill="none" stroke-linecap="round"></path><path d="M 531.241,305.938 C 528.141,309.039 524.248,309.352 516.859,311.533" stroke-width="5.757" stroke="black" fill="none" stroke-linecap="round"></path><path d="M 516.859,311.533 C 499.878,316.547 499.592,315.610 482.502,320.327" stroke-width="4.500" stroke="black" fill="none" stroke-linecap="round"></path><path d="M 482.502,320.327 C 464.836,325.203 464.770,325.053 447.346,330.719" stroke-width="4.500" stroke="black" fill="none" stroke-linecap="round"></path><path d="M 447.346,330.719 C 432.810,335.446 432.750,335.395 418.582,341.111" stroke-width="4.500" stroke="black" fill="none" stroke-linecap="round"></path><path d="M 418.582,341.111 C 407.981,345.388 407.737,345.131 397.808,350.704" stroke-width="4.500" stroke="black" fill="none" stroke-linecap="round"></path><path d="M 397.808,350.704 C 391.357,354.324 389.720,354.039 385.823,359.498" stroke-width="4.500" stroke="black" fill="none" stroke-linecap="round"></path><path d="M 385.823,359.498 C 383.727,362.433 385.823,363.495 385.823,367.492" stroke-width="5.457" stroke="black" fill="none" stroke-linecap="round"></path><circle r="3" cx="509.66790771484375" cy="322.7250061035156" fill="black"></circle></svg>