<svg xmlns="http://www.w3.org/2000/svg" xmlns:xlink="http://www.w3.org/1999/xlink" viewBox="0 0 576 416" width="576" height="416"><path d="M 234.013,30.057 C 230.816,35.253 230.579,35.121 227.620,40.449" stroke-width="8.279" stroke="black" fill="none" stroke-linecap="round"></path><path d="M 227.620,40.449 C 224.587,45.913 225.197,46.275 222.027,51.641" stroke-width="6.924" stroke="black" fill="none" stroke-linecap="round"></path><path d="M 222.027,51.641 C 220.003,55.069 219.630,54.838 217.233,58.036" stroke-width="6.252" stroke="black" fill="none" stroke-linecap="round"></path><path d="M 217.233,58.036 C 213.638,62.833 213.682,62.867 210.042,67.629" stroke-width="6.456" stroke="black" fill="none" stroke-linecap="round"></path><circle r="3" cx="214.03744506835938" cy="0.47906494140625" fill="black"></circle><path d="M 185.273,53.240 C 178.482,56.837 178.559,56.998 171.690,60.434" stroke-width="8.312" stroke="black" fill="none" stroke-linecap="round"></path><path d="M 171.690,60.434 C 168.971,61.795 169.001,61.978 166.097,62.833" stroke-width="7.057" stroke="black" fill="none" stroke-linecap="round"></path><path d="M 166.097,62.833 C 162.209,63.977 160.229,65.917 158.107,64.431" stroke-width="7.225" stroke="black" fill="none" stroke-linecap="round"></path><path d="M 158.107,64.431 C 156.234,63.119 157.019,60.504 158.107,57.237" stroke-width="7.883" stroke="black" fill="none" stroke-linecap="round"></path><path d="M 158.107,57.237 C 159.416,53.310 162.399,53.557 162.901,50.042" stroke-width="7.405" stroke="black" fill="none" stroke-linecap="round"></path><path d="M 162.901,50.042 C 163.198,47.961 161.947,46.419 159.705,46.045" stroke-width="7.940" stroke="black" fill="none" stroke-linecap="round"></path><path d="M 159.705,46.045 C 154.756,45.220 154.086,46.689 148.519,47.644" stroke-width="5.979" stroke="black" fill="none" stroke-linecap="round"></path><path d="M 148.519,47.644 C 140.104,49.087 140.098,49.091 131.740,50.841" stroke-width="4.852" stroke="black" fill="none" stroke-linecap="round"></path><path d="M 131.740,50.841 C 122.920,52.689 122.917,52.702 114.162,54.838" stroke-width="4.598" stroke="black" fill="none" stroke-linecap="round"></path><path d="M 114.162,54.838 C 106.538,56.699 106.595,56.931 98.981,58.836" stroke-width="4.559" stroke="black" fill="none" stroke-linecap="round"></path><path d="M 98.981,58.836 C 92.213,60.528 92.235,60.665 85.398,62.033" stroke-width="4.821" stroke="black" fill="none" stroke-linecap="round"></path><path d="M 85.398,62.033 C 80.250,63.063 80.234,63.214 75.011,63.632" stroke-width="5.317" stroke="black" fill="none" stroke-linecap="round"></path><path d="M 75.011,63.632 C 70.246,64.013 70.217,63.632 65.423,63.632" stroke-width="5.616" stroke="black" fill="none" stroke-linecap="round"></path><path d="M 65.423,63.632 C 62.627,63.632 60.138,65.171 59.830,63.632" stroke-width="6.378" stroke="black" fill="none" stroke-linecap="round"></path><path d="M 59.830,63.632 C 59.339,61.173 60.417,58.225 63.825,55.638" stroke-width="7.223" stroke="black" fill="none" stroke-linecap="round"></path><path d="M 63.825,55.638 C 72.003,49.431 73.200,50.366 83.001,46.045" stroke-width="4.600" stroke="black" fill="none" stroke-linecap="round"></path><path d="M 83.001,46.045 C 96.770,39.974 96.751,39.784 110.966,34.853" stroke-width="4.500" stroke="black" fill="none" stroke-linecap="round"></path><path d="M 110.966,34.853 C 126.714,29.391 126.777,29.398 142.926,25.261" stroke-width="4.500" stroke="black" fill="none" stroke-linecap="round"></path><path d="M 142.926,25.261 C 159.536,21.005 159.602,21.082 176.484,18.066" stroke-width="4.500" stroke="black" fill="none" stroke-linecap="round"></path><path d="M 176.484,18.066 C 193.160,15.087 193.188,14.875 210.042,13.269" stroke-width="4.500" stroke="black" fill="none" stroke-linecap="round"></path><path d="M 210.042,13.269 C 226.746,11.678 226.815,11.878 243.601,11.671" stroke-width="4.500" stroke="black" fill="none" stroke-linecap="round"></path><path d="M 243.601,11.671 C 259.175,11.478 259.253,11.212 274.762,12.470" stroke-width="4.500" stroke="black" fill="none" stroke-linecap="round"></path><path d="M 274.762,12.470 C 288.816,13.610 289.022,13.320 302.727,16.467" stroke-width="4.500" stroke="black" fill="none" stroke-linecap="round"></path><path d="M 302.727,16.467 C 313.392,18.916 313.488,19.264 323.501,23.662" stroke-width="4.500" stroke="black" fill="none" stroke-linecap="round"></path><path d="M 323.501,23.662 C 329.867,26.458 331.196,26.060 335.486,30.856" stroke-width="4.567" stroke="black" fill="none" stroke-linecap="round"></path><path d="M 335.486,30.856 C 337.987,33.654 339.481,36.452 337.084,38.850" stroke-width="5.462" stroke="black" fill="none" stroke-linecap="round"></path><path d="M 337.084,38.850 C 331.092,44.845 328.248,44.159 318.707,47.644" stroke-width="5.577" stroke="black" fill="none" stroke-linecap="round"></path><path d="M 318.707,47.644 C 303.079,53.352 302.976,53.476 286.747,57.237" stroke-width="4.500" stroke="black" fill="none" stroke-linecap="round"></path><path d="M 286.747,57.237 C 265.023,62.270 264.868,61.849 242.802,65.231" stroke-width="4.500" stroke="black" fill="none" stroke-linecap="round"></path><path d="M 242.802,65.231 C 220.524,68.644 220.416,67.927 198.057,70.827" stroke-width="4.500" stroke="black" fill="none" stroke-linecap="round"></path><path d="M 198.057,70.827 C 177.270,73.523 177.349,74.273 156.509,76.422" stroke-width="4.500" stroke="black" fill="none" stroke-linecap="round"></path><path d="M 156.509,76.422 C 138.597,78.270 138.535,77.667 120.554,78.821" stroke-width="4.500" stroke="black" fill="none" stroke-linecap="round"></path><path d="M 120.554,78.821 C 107.374,79.666 107.320,80.672 94.187,80.419" stroke-width="4.500" stroke="black" fill="none" stroke-linecap="round"></path><path d="M 94.187,80.419 C 86.546,80.272 86.103,80.388 79.006,78.021" stroke-width="4.500" stroke="black" fill="none" stroke-linecap="round"></path><path d="M 79.006,78.021 C 75.316,76.791 73.801,76.391 72.614,73.225" stroke-width="5.365" stroke="black" fill="none" stroke-linecap="round"></path><path d="M 72.614,73.225 C 71.404,69.995 72.074,68.511 74.212,65.231" stroke-width="5.920" stroke="black" fill="none" stroke-linecap="round"></path><path d="M 74.212,65.231 C 78.066,59.318 79.071,59.656 84.599,54.838" stroke-width="6.132" stroke="black" fill="none" stroke-linecap="round"></path><path d="M 84.599,54.838 C 91.456,48.864 91.672,49.084 98.981,43.647" stroke-width="4.760" stroke="black" fill="none" stroke-linecap="round"></path><path d="M 98.981,43.647 C 107.253,37.493 107.080,37.199 115.760,31.656" stroke-width="4.500" stroke="black" fill="none" stroke-linecap="round"></path><path d="M 115.760,31.656 C 125.856,25.208 126.044,25.475 136.534,19.665" stroke-width="4.500" stroke="black" fill="none" stroke-linecap="round"></path><path d="M 136.534,19.665 C 148.416,13.084 148.468,13.169 160.504,6.874" stroke-width="4.500" stroke="black" fill="none" stroke-linecap="round"></path><path d="M 160.504,6.874 C 166.046,3.976 165.722,3.001 171.690,1.278" stroke-width="4.538" stroke="black" fill="none" stroke-linecap="round"></path><path d="M 171.690,1.278 C 186.496,-2.995 186.871,-1.919 202.052,-5.117" stroke-width="4.500" stroke="black" fill="none" stroke-linecap="round"></path><path d="M 202.052,-5.117 C 217.233,-8.314 229.609,-11.746 232.415,-11.512" stroke-width="4.500" stroke="black" fill="none" stroke-linecap="round"></path><path d="M 232.415,-11.512 C 234.403,-11.346 221.421,-9.096 211.640,-4.317" stroke-width="4.500" stroke="black" fill="none" stroke-linecap="round"></path><path d="M 211.640,-4.317 C 204.243,-0.703 205.143,0.953 198.057,5.275" stroke-width="5.431" stroke="black" fill="none" stroke-linecap="round"></path><path d="M 198.057,5.275 C 188.764,10.945 188.524,10.576 178.881,15.668" stroke-width="4.500" stroke="black" fill="none" stroke-linecap="round"></path><circle r="3" cx="146.92137145996094" cy="76.42236328125" fill="black"></circle><circle r="3" cx="138.13235473632812" cy="132.380615234375" fill="black"></circle></svg>