<svg xmlns="http://www.w3.org/2000/svg" xmlns:xlink="http://www.w3.org/1999/xlink" viewBox="0 0 576 416" width="576" height="416"><path d="M 67.820,341.439 C 71.016,336.642 70.760,336.451 74.212,331.846" stroke-width="8.045" stroke="black" fill="none" stroke-linecap="round"></path><path d="M 74.212,331.846 C 77.951,326.858 78.408,327.205 82.202,322.253" stroke-width="5.690" stroke="black" fill="none" stroke-linecap="round"></path><path d="M 82.202,322.253 C 87.596,315.214 87.406,315.066 92.589,307.864" stroke-width="4.724" stroke="black" fill="none" stroke-linecap="round"></path><path d="M 92.589,307.864 C 101.788,295.081 102.019,295.239 110.966,282.283" stroke-width="4.500" stroke="black" fill="none" stroke-linecap="round"></path><path d="M 110.966,282.283 C 117.200,273.255 117.405,273.351 122.951,263.896" stroke-width="4.500" stroke="black" fill="none" stroke-linecap="round"></path><path d="M 122.951,263.896 C 128.192,254.964 127.826,254.745 132.539,245.510" stroke-width="4.500" stroke="black" fill="none" stroke-linecap="round"></path><path d="M 132.539,245.510 C 137.414,235.959 137.249,235.874 142.127,226.324" stroke-width="4.500" stroke="black" fill="none" stroke-linecap="round"></path><path d="M 142.127,226.324 C 146.437,217.888 146.766,218.049 150.916,209.537" stroke-width="4.500" stroke="black" fill="none" stroke-linecap="round"></path><path d="M 150.916,209.537 C 154.756,201.662 154.436,201.508 158.107,193.549" stroke-width="4.500" stroke="black" fill="none" stroke-linecap="round"></path><path d="M 158.107,193.549 C 161.627,185.920 162.042,186.097 165.298,178.360" stroke-width="4.500" stroke="black" fill="none" stroke-linecap="round"></path><path d="M 165.298,178.360 C 168.434,170.909 167.960,170.713 170.891,163.172" stroke-width="4.561" stroke="black" fill="none" stroke-linecap="round"></path><path d="M 170.891,163.172 C 173.553,156.324 174.032,156.496 176.484,149.582" stroke-width="4.744" stroke="black" fill="none" stroke-linecap="round"></path><path d="M 176.484,149.582 C 178.427,144.106 178.221,144.022 179.680,138.390" stroke-width="5.148" stroke="black" fill="none" stroke-linecap="round"></path><path d="M 179.680,138.390 C 181.018,133.230 180.896,133.198 182.077,127.998" stroke-width="5.490" stroke="black" fill="none" stroke-linecap="round"></path><path d="M 182.077,127.998 C 182.894,124.404 182.997,124.423 183.675,120.803" stroke-width="5.944" stroke="black" fill="none" stroke-linecap="round"></path><path d="M 183.675,120.803 C 184.196,118.027 184.274,118.019 184.474,115.207" stroke-width="6.489" stroke="black" fill="none" stroke-linecap="round"></path><path d="M 184.474,115.207 C 184.673,112.424 185.878,110.138 184.474,109.612" stroke-width="7.309" stroke="black" fill="none" stroke-linecap="round"></path><path d="M 184.474,109.612 C 182.682,108.939 180.927,110.722 178.082,112.809" stroke-width="7.874" stroke="black" fill="none" stroke-linecap="round"></path><path d="M 178.082,112.809 C 174.934,115.119 175.286,115.607 172.489,118.405" stroke-width="6.576" stroke="black" fill="none" stroke-linecap="round"></path><path d="M 172.489,118.405 C 168.894,122.002 168.894,122.002 165.298,125.600" stroke-width="5.884" stroke="black" fill="none" stroke-linecap="round"></path><path d="M 165.298,125.600 C 161.303,129.597 161.094,129.407 157.308,133.594" stroke-width="5.541" stroke="black" fill="none" stroke-linecap="round"></path><path d="M 157.308,133.594 C 153.504,137.801 153.690,137.972 150.117,142.387" stroke-width="5.525" stroke="black" fill="none" stroke-linecap="round"></path><path d="M 150.117,142.387 C 146.898,146.366 146.944,146.403 143.725,150.381" stroke-width="5.500" stroke="black" fill="none" stroke-linecap="round"></path><path d="M 143.725,150.381 C 140.153,154.797 139.795,154.538 136.534,159.175" stroke-width="5.426" stroke="black" fill="none" stroke-linecap="round"></path><path d="M 136.534,159.175 C 132.205,165.330 132.365,165.467 128.544,171.965" stroke-width="4.949" stroke="black" fill="none" stroke-linecap="round"></path><path d="M 128.544,171.965 C 124.375,179.057 124.385,179.073 120.554,186.354" stroke-width="4.679" stroke="black" fill="none" stroke-linecap="round"></path><path d="M 120.554,186.354 C 116.395,194.262 116.476,194.308 112.564,202.342" stroke-width="4.500" stroke="black" fill="none" stroke-linecap="round"></path><path d="M 112.564,202.342 C 108.886,209.896 108.523,209.758 105.373,217.531" stroke-width="4.598" stroke="black" fill="none" stroke-linecap="round"></path><path d="M 105.373,217.531 C 102.531,224.547 102.717,224.650 100.579,231.920" stroke-width="4.614" stroke="black" fill="none" stroke-linecap="round"></path><path d="M 100.579,231.920 C 98.722,238.240 98.396,238.225 97.383,244.711" stroke-width="4.923" stroke="black" fill="none" stroke-linecap="round"></path><path d="M 97.383,244.711 C 96.399,251.015 96.791,251.100 96.584,257.501" stroke-width="5.067" stroke="black" fill="none" stroke-linecap="round"></path><path d="M 96.584,257.501 C 96.391,263.491 96.046,263.572 96.584,269.492" stroke-width="5.213" stroke="black" fill="none" stroke-linecap="round"></path><path d="M 96.584,269.492 C 96.845,272.366 97.263,272.329 98.182,275.088" stroke-width="6.175" stroke="black" fill="none" stroke-linecap="round"></path><path d="M 98.182,275.088 C 99.660,279.524 99.714,279.510 101.378,283.882" stroke-width="5.995" stroke="black" fill="none" stroke-linecap="round"></path><path d="M 101.378,283.882 C 102.910,287.904 102.736,287.993 104.574,291.876" stroke-width="5.894" stroke="black" fill="none" stroke-linecap="round"></path><path d="M 104.574,291.876 C 106.331,295.587 106.340,295.623 108.569,299.070" stroke-width="6.012" stroke="black" fill="none" stroke-linecap="round"></path><path d="M 108.569,299.070 C 110.734,302.418 110.770,302.438 113.363,305.466" stroke-width="6.089" stroke="black" fill="none" stroke-linecap="round"></path><path d="M 113.363,305.466 C 115.564,308.034 115.509,308.180 118.157,310.262" stroke-width="6.326" stroke="black" fill="none" stroke-linecap="round"></path><path d="M 118.157,310.262 C 121.102,312.577 121.192,312.579 124.549,314.259" stroke-width="6.262" stroke="black" fill="none" stroke-linecap="round"></path><path d="M 124.549,314.259 C 128.383,316.176 128.412,316.330 132.539,317.457" stroke-width="6.140" stroke="black" fill="none" stroke-linecap="round"></path><path d="M 132.539,317.457 C 137.201,318.729 137.337,319.329 142.127,319.055" stroke-width="5.751" stroke="black" fill="none" stroke-linecap="round"></path><path d="M 142.127,319.055 C 151.320,318.530 151.566,318.389 160.504,315.858" stroke-width="4.645" stroke="black" fill="none" stroke-linecap="round"></path><path d="M 160.504,315.858 C 172.739,312.393 172.855,312.276 184.474,307.064" stroke-width="4.500" stroke="black" fill="none" stroke-linecap="round"></path><path d="M 184.474,307.064 C 196.026,301.883 195.978,301.598 206.846,295.073" stroke-width="4.500" stroke="black" fill="none" stroke-linecap="round"></path><path d="M 206.846,295.073 C 217.950,288.408 218.013,288.389 228.419,280.684" stroke-width="4.500" stroke="black" fill="none" stroke-linecap="round"></path><path d="M 228.419,280.684 C 237.988,273.600 237.883,273.400 246.797,265.495" stroke-width="4.500" stroke="black" fill="none" stroke-linecap="round"></path><path d="M 246.797,265.495 C 255.461,257.811 255.504,257.807 263.576,249.507" stroke-width="4.500" stroke="black" fill="none" stroke-linecap="round"></path><path d="M 263.576,249.507 C 269.886,243.018 269.722,242.841 275.561,235.917" stroke-width="4.500" stroke="black" fill="none" stroke-linecap="round"></path><path d="M 275.561,235.917 C 280.508,230.051 280.857,230.254 285.149,223.926" stroke-width="4.535" stroke="black" fill="none" stroke-linecap="round"></path><path d="M 285.149,223.926 C 288.447,219.062 288.013,218.766 290.742,213.534" stroke-width="5.053" stroke="black" fill="none" stroke-linecap="round"></path><path d="M 290.742,213.534 C 292.807,209.573 293.412,209.736 294.737,205.540" stroke-width="5.617" stroke="black" fill="none" stroke-linecap="round"></path><path d="M 294.737,205.540 C 295.809,202.141 295.536,201.936 295.536,198.345" stroke-width="6.155" stroke="black" fill="none" stroke-linecap="round"></path><path d="M 295.536,198.345 C 295.536,195.541 295.935,195.148 294.737,192.750" stroke-width="6.563" stroke="black" fill="none" stroke-linecap="round"></path><path d="M 294.737,192.750 C 293.538,190.352 293.285,189.288 290.742,188.753" stroke-width="7.560" stroke="black" fill="none" stroke-linecap="round"></path><path d="M 290.742,188.753 C 285.694,187.689 284.955,188.378 279.556,189.552" stroke-width="7.431" stroke="black" fill="none" stroke-linecap="round"></path><path d="M 279.556,189.552 C 275.766,190.376 275.880,190.991 272.365,192.750" stroke-width="6.487" stroke="black" fill="none" stroke-linecap="round"></path><path d="M 272.365,192.750 C 268.689,194.588 268.586,194.471 265.174,196.747" stroke-width="6.186" stroke="black" fill="none" stroke-linecap="round"></path><path d="M 265.174,196.747 C 261.395,199.267 261.404,199.347 257.983,202.342" stroke-width="5.954" stroke="black" fill="none" stroke-linecap="round"></path><path d="M 257.983,202.342 C 255.012,204.943 255.086,205.047 252.390,207.938" stroke-width="6.084" stroke="black" fill="none" stroke-linecap="round"></path><path d="M 252.390,207.938 C 249.493,211.043 249.180,210.848 246.797,214.333" stroke-width="6.105" stroke="black" fill="none" stroke-linecap="round"></path><path d="M 246.797,214.333 C 243.987,218.442 244.312,218.684 242.003,223.127" stroke-width="5.695" stroke="black" fill="none" stroke-linecap="round"></path><path d="M 242.003,223.127 C 239.118,228.677 238.965,228.615 236.410,234.319" stroke-width="5.328" stroke="black" fill="none" stroke-linecap="round"></path><path d="M 236.410,234.319 C 233.772,240.206 233.975,240.300 231.615,246.310" stroke-width="5.177" stroke="black" fill="none" stroke-linecap="round"></path><path d="M 231.615,246.310 C 229.581,251.491 229.505,251.465 227.620,256.702" stroke-width="5.357" stroke="black" fill="none" stroke-linecap="round"></path><path d="M 227.620,256.702 C 225.909,261.458 225.811,261.440 224.425,266.295" stroke-width="5.554" stroke="black" fill="none" stroke-linecap="round"></path><path d="M 224.425,266.295 C 223.414,269.833 223.000,269.850 222.826,273.489" stroke-width="6.111" stroke="black" fill="none" stroke-linecap="round"></path><path d="M 222.826,273.489 C 222.600,278.243 221.929,278.960 223.625,283.082" stroke-width="6.686" stroke="black" fill="none" stroke-linecap="round"></path><path d="M 223.625,283.082 C 224.725,285.755 225.647,286.559 228.419,287.079" stroke-width="7.566" stroke="black" fill="none" stroke-linecap="round"></path><path d="M 228.419,287.079 C 232.039,287.758 232.737,287.140 236.410,285.480" stroke-width="6.552" stroke="black" fill="none" stroke-linecap="round"></path><path d="M 236.410,285.480 C 245.121,281.544 245.318,281.435 253.189,275.888" stroke-width="4.597" stroke="black" fill="none" stroke-linecap="round"></path><path d="M 253.189,275.888 C 262.897,269.044 263.068,268.999 271.566,260.699" stroke-width="4.500" stroke="black" fill="none" stroke-linecap="round"></path><path d="M 271.566,260.699 C 279.847,252.611 279.658,252.291 286.747,243.112" stroke-width="4.500" stroke="black" fill="none" stroke-linecap="round"></path><path d="M 286.747,243.112 C 293.241,234.704 293.024,234.499 298.732,225.525" stroke-width="4.500" stroke="black" fill="none" stroke-linecap="round"></path><path d="M 298.732,225.525 C 304.210,216.912 304.475,217.008 309.119,207.938" stroke-width="4.500" stroke="black" fill="none" stroke-linecap="round"></path><path d="M 309.119,207.938 C 312.865,200.621 312.452,200.399 315.511,192.750" stroke-width="4.500" stroke="black" fill="none" stroke-linecap="round"></path><path d="M 315.511,192.750 C 318.046,186.409 318.080,186.413 320.305,179.959" stroke-width="4.737" stroke="black" fill="none" stroke-linecap="round"></path><path d="M 320.305,179.959 C 322.075,174.822 322.072,174.808 323.501,169.567" stroke-width="5.240" stroke="black" fill="none" stroke-linecap="round"></path><path d="M 323.501,169.567 C 324.469,166.014 324.420,165.992 325.099,162.372" stroke-width="5.926" stroke="black" fill="none" stroke-linecap="round"></path><path d="M 325.099,162.372 C 325.619,159.596 326.482,155.723 325.898,156.776" stroke-width="7.075" stroke="black" fill="none" stroke-linecap="round"></path><path d="M 325.898,156.776 C 324.485,159.321 323.045,163.033 321.104,169.567" stroke-width="7.364" stroke="black" fill="none" stroke-linecap="round"></path><path d="M 321.104,169.567 C 318.651,177.822 319.246,177.996 317.109,186.354" stroke-width="5.064" stroke="black" fill="none" stroke-linecap="round"></path><path d="M 317.109,186.354 C 314.851,195.183 314.712,195.148 312.315,203.941" stroke-width="4.537" stroke="black" fill="none" stroke-linecap="round"></path><path d="M 312.315,203.941 C 309.918,212.735 309.730,212.688 307.521,221.528" stroke-width="4.500" stroke="black" fill="none" stroke-linecap="round"></path><path d="M 307.521,221.528 C 305.335,230.275 305.458,230.307 303.526,239.115" stroke-width="4.550" stroke="black" fill="none" stroke-linecap="round"></path><path d="M 303.526,239.115 C 301.863,246.695 301.771,246.680 300.330,254.304" stroke-width="4.563" stroke="black" fill="none" stroke-linecap="round"></path><path d="M 300.330,254.304 C 298.975,261.469 299.308,261.535 297.933,268.693" stroke-width="4.756" stroke="black" fill="none" stroke-linecap="round"></path><path d="M 297.933,268.693 C 297.311,271.927 296.726,271.828 296.335,275.088" stroke-width="5.847" stroke="black" fill="none" stroke-linecap="round"></path><path d="M 296.335,275.088 C 295.527,281.821 295.748,281.878 295.536,288.678" stroke-width="5.226" stroke="black" fill="none" stroke-linecap="round"></path><path d="M 295.536,288.678 C 295.349,294.668 294.922,294.738 295.536,300.669" stroke-width="5.169" stroke="black" fill="none" stroke-linecap="round"></path><path d="M 295.536,300.669 C 296.121,306.330 297.933,313.835 297.933,311.861" stroke-width="5.314" stroke="black" fill="none" stroke-linecap="round"></path><path d="M 370.642,95.222 C 370.642,102.017 370.642,102.017 370.642,108.812" stroke-width="8.157" stroke="black" fill="none" stroke-linecap="round"></path><path d="M 370.642,108.812 C 370.642,114.808 370.642,114.808 370.642,120.803" stroke-width="5.903" stroke="black" fill="none" stroke-linecap="round"></path><path d="M 370.642,120.803 C 370.642,127.998 370.457,128.002 370.642,135.193" stroke-width="5.242" stroke="black" fill="none" stroke-linecap="round"></path><path d="M 370.642,135.193 C 370.857,143.591 371.246,143.581 371.441,151.980" stroke-width="4.614" stroke="black" fill="none" stroke-linecap="round"></path><path d="M 371.441,151.980 C 371.645,160.769 371.441,160.773 371.441,169.567" stroke-width="4.571" stroke="black" fill="none" stroke-linecap="round"></path><path d="M 371.441,169.567 C 371.441,178.360 371.441,178.360 371.441,187.154" stroke-width="4.500" stroke="black" fill="none" stroke-linecap="round"></path><path d="M 371.441,187.154 C 371.441,191.550 371.441,191.550 371.441,195.947" stroke-width="5.328" stroke="black" fill="none" stroke-linecap="round"></path><path d="M 371.441,195.947 C 371.441,204.341 371.241,204.346 371.441,212.735" stroke-width="4.636" stroke="black" fill="none" stroke-linecap="round"></path><path d="M 371.441,212.735 C 371.641,221.133 371.849,221.128 372.240,229.522" stroke-width="4.558" stroke="black" fill="none" stroke-linecap="round"></path><path d="M 372.240,229.522 C 372.648,238.315 372.824,238.311 373.039,247.109" stroke-width="4.500" stroke="black" fill="none" stroke-linecap="round"></path><path d="M 373.039,247.109 C 373.224,254.699 372.709,254.716 373.039,262.298" stroke-width="4.629" stroke="black" fill="none" stroke-linecap="round"></path><path d="M 373.039,262.298 C 373.508,273.102 374.110,273.080 374.637,283.882" stroke-width="4.500" stroke="black" fill="none" stroke-linecap="round"></path><path d="M 374.637,283.882 C 374.909,289.467 374.637,289.477 374.637,295.073" stroke-width="5.115" stroke="black" fill="none" stroke-linecap="round"></path><path d="M 374.637,295.073 C 374.637,299.470 374.637,299.470 374.637,303.867" stroke-width="5.581" stroke="black" fill="none" stroke-linecap="round"></path><path d="M 374.637,303.867 C 374.637,306.665 374.637,306.665 374.637,309.462" stroke-width="6.422" stroke="black" fill="none" stroke-linecap="round"></path><path d="M 344.275,241.513 C 350.267,239.914 350.259,239.882 356.260,238.316" stroke-width="8.424" stroke="black" fill="none" stroke-linecap="round"></path><path d="M 356.260,238.316 C 359.447,237.484 359.426,237.362 362.652,236.717" stroke-width="6.967" stroke="black" fill="none" stroke-linecap="round"></path><path d="M 362.652,236.717 C 365.418,236.163 365.489,236.508 368.245,235.917" stroke-width="6.817" stroke="black" fill="none" stroke-linecap="round"></path><path d="M 368.245,235.917 C 371.082,235.309 371.081,235.238 373.838,234.319" stroke-width="6.739" stroke="black" fill="none" stroke-linecap="round"></path><path d="M 373.838,234.319 C 377.073,233.239 377.107,233.287 380.230,231.920" stroke-width="7.226" stroke="black" fill="none" stroke-linecap="round"></path><path d="M 380.230,231.920 C 383.499,230.489 383.318,230.045 386.622,228.723" stroke-width="7.317" stroke="black" fill="none" stroke-linecap="round"></path><path d="M 386.622,228.723 C 389.311,227.647 389.418,227.923 392.215,227.124" stroke-width="7.614" stroke="black" fill="none" stroke-linecap="round"></path><path d="M 424.974,217.531 C 424.974,224.326 425.225,224.339 424.974,231.121" stroke-width="8.354" stroke="black" fill="none" stroke-linecap="round"></path><path d="M 424.974,231.121 C 424.825,235.130 424.366,235.108 424.175,239.115" stroke-width="6.647" stroke="black" fill="none" stroke-linecap="round"></path><path d="M 424.175,239.115 C 423.966,243.501 424.175,243.512 424.175,247.908" stroke-width="6.130" stroke="black" fill="none" stroke-linecap="round"></path><path d="M 424.175,247.908 C 424.175,252.305 424.175,252.305 424.175,256.702" stroke-width="5.990" stroke="black" fill="none" stroke-linecap="round"></path><path d="M 424.175,256.702 C 424.175,260.699 424.175,260.699 424.175,264.696" stroke-width="6.157" stroke="black" fill="none" stroke-linecap="round"></path><path d="M 424.175,264.696 C 424.175,268.293 424.175,268.293 424.175,271.891" stroke-width="6.193" stroke="black" fill="none" stroke-linecap="round"></path><path d="M 424.175,271.891 C 424.175,276.687 424.175,276.687 424.175,281.483" stroke-width="6.719" stroke="black" fill="none" stroke-linecap="round"></path><path d="M 424.175,281.483 C 424.175,284.281 424.175,288.371 424.175,287.079" stroke-width="7.374" stroke="black" fill="none" stroke-linecap="round"></path><circle r="3" cx="428.96881103515625" cy="162.37225341796875" fill="black"></circle><path d="M 522.452,96.821 C 517.658,100.019 517.494,99.803 512.864,103.216" stroke-width="8.374" stroke="black" fill="none" stroke-linecap="round"></path><path d="M 512.864,103.216 C 509.904,105.399 509.956,105.494 507.271,108.013" stroke-width="6.876" stroke="black" fill="none" stroke-linecap="round"></path><path d="M 507.271,108.013 C 503.564,111.490 503.581,111.520 500.080,115.207" stroke-width="5.954" stroke="black" fill="none" stroke-linecap="round"></path><path d="M 500.080,115.207 C 495.991,119.514 496.151,119.667 492.090,124.001" stroke-width="5.479" stroke="black" fill="none" stroke-linecap="round"></path><path d="M 492.090,124.001 C 490.158,126.062 489.739,125.713 488.095,127.998" stroke-width="6.314" stroke="black" fill="none" stroke-linecap="round"></path><path d="M 488.095,127.998 C 482.548,135.706 482.784,135.920 477.708,143.986" stroke-width="4.588" stroke="black" fill="none" stroke-linecap="round"></path><path d="M 477.708,143.986 C 475.992,146.712 475.830,146.651 474.512,149.582" stroke-width="5.731" stroke="black" fill="none" stroke-linecap="round"></path><path d="M 474.512,149.582 C 472.235,154.645 472.514,154.778 470.517,159.974" stroke-width="5.523" stroke="black" fill="none" stroke-linecap="round"></path><path d="M 470.517,159.974 C 468.519,165.170 467.864,164.995 466.522,170.366" stroke-width="5.463" stroke="black" fill="none" stroke-linecap="round"></path><path d="M 466.522,170.366 C 464.668,177.785 465.022,177.927 464.125,185.555" stroke-width="4.925" stroke="black" fill="none" stroke-linecap="round"></path><path d="M 464.125,185.555 C 463.424,191.517 463.839,191.560 463.326,197.546" stroke-width="5.073" stroke="black" fill="none" stroke-linecap="round"></path><path d="M 463.326,197.546 C 462.640,205.549 462.328,205.525 461.728,213.534" stroke-width="4.846" stroke="black" fill="none" stroke-linecap="round"></path><path d="M 461.728,213.534 C 461.130,221.513 461.542,221.545 460.929,229.522" stroke-width="4.598" stroke="black" fill="none" stroke-linecap="round"></path><path d="M 460.929,229.522 C 460.344,237.133 460.130,237.116 459.331,244.711" stroke-width="4.784" stroke="black" fill="none" stroke-linecap="round"></path><path d="M 459.331,244.711 C 458.532,252.305 458.576,252.310 457.733,259.899" stroke-width="4.754" stroke="black" fill="none" stroke-linecap="round"></path><path d="M 457.733,259.899 C 456.978,266.699 456.983,266.701 456.135,273.489" stroke-width="4.914" stroke="black" fill="none" stroke-linecap="round"></path><path d="M 456.135,273.489 C 455.385,279.491 455.306,279.481 454.537,285.480" stroke-width="5.150" stroke="black" fill="none" stroke-linecap="round"></path><path d="M 454.537,285.480 C 453.308,295.069 453.069,295.056 452.140,304.666" stroke-width="5.548" stroke="black" fill="none" stroke-linecap="round"></path><path d="M 452.140,304.666 C 451.871,307.447 452.140,307.464 452.140,310.262" stroke-width="6.351" stroke="black" fill="none" stroke-linecap="round"></path><path d="M 454.537,231.920 C 458.532,230.322 458.532,230.322 462.527,228.723" stroke-width="8.671" stroke="black" fill="none" stroke-linecap="round"></path><path d="M 462.527,228.723 C 466.522,227.124 466.507,227.085 470.517,225.525" stroke-width="7.572" stroke="black" fill="none" stroke-linecap="round"></path><path d="M 470.517,225.525 C 473.698,224.287 473.695,224.275 476.909,223.127" stroke-width="7.491" stroke="black" fill="none" stroke-linecap="round"></path><path d="M 526.447,238.316 C 520.854,243.112 520.582,242.838 515.261,247.908" stroke-width="8.496" stroke="black" fill="none" stroke-linecap="round"></path><path d="M 515.261,247.908 C 512.193,250.832 512.478,251.118 509.668,254.304" stroke-width="6.676" stroke="black" fill="none" stroke-linecap="round"></path><path d="M 509.668,254.304 C 506.485,257.913 506.472,257.901 503.276,261.498" stroke-width="5.900" stroke="black" fill="none" stroke-linecap="round"></path><path d="M 503.276,261.498 C 500.080,265.096 499.830,264.903 496.884,268.693" stroke-width="5.792" stroke="black" fill="none" stroke-linecap="round"></path><path d="M 496.884,268.693 C 494.237,272.098 494.277,272.168 492.090,275.888" stroke-width="5.913" stroke="black" fill="none" stroke-linecap="round"></path><path d="M 492.090,275.888 C 490.282,278.963 490.184,278.963 488.894,282.283" stroke-width="6.202" stroke="black" fill="none" stroke-linecap="round"></path><path d="M 488.894,282.283 C 487.388,286.158 487.214,286.209 486.497,290.277" stroke-width="6.885" stroke="black" fill="none" stroke-linecap="round"></path><path d="M 486.497,290.277 C 486.016,293.004 486.130,293.120 486.497,295.873" stroke-width="6.732" stroke="black" fill="none" stroke-linecap="round"></path><path d="M 486.497,295.873 C 486.929,299.115 486.286,300.005 488.095,302.268" stroke-width="7.253" stroke="black" fill="none" stroke-linecap="round"></path><path d="M 488.095,302.268 C 489.482,304.002 490.563,304.061 492.889,303.867" stroke-width="7.689" stroke="black" fill="none" stroke-linecap="round"></path><path d="M 492.889,303.867 C 495.357,303.661 495.376,302.826 497.683,301.468" stroke-width="7.145" stroke="black" fill="none" stroke-linecap="round"></path><path d="M 497.683,301.468 C 502.167,298.829 502.448,299.132 506.472,295.873" stroke-width="5.868" stroke="black" fill="none" stroke-linecap="round"></path><path d="M 506.472,295.873 C 510.837,292.337 510.796,292.157 514.462,287.879" stroke-width="5.537" stroke="black" fill="none" stroke-linecap="round"></path><path d="M 514.462,287.879 C 517.988,283.763 517.594,283.434 520.854,279.085" stroke-width="5.504" stroke="black" fill="none" stroke-linecap="round"></path><path d="M 520.854,279.085 C 524.785,273.841 525.270,274.162 528.844,268.693" stroke-width="5.457" stroke="black" fill="none" stroke-linecap="round"></path><path d="M 528.844,268.693 C 532.062,263.769 531.970,263.648 534.437,258.301" stroke-width="5.260" stroke="black" fill="none" stroke-linecap="round"></path><path d="M 534.437,258.301 C 536.764,253.256 536.739,253.201 538.432,247.908" stroke-width="5.293" stroke="black" fill="none" stroke-linecap="round"></path><path d="M 538.432,247.908 C 539.935,243.208 539.947,243.167 540.829,238.316" stroke-width="5.565" stroke="black" fill="none" stroke-linecap="round"></path><path d="M 540.829,238.316 C 541.545,234.374 541.159,234.310 541.628,230.322" stroke-width="5.937" stroke="black" fill="none" stroke-linecap="round"></path><path d="M 541.628,230.322 C 541.958,227.515 542.226,227.538 542.427,224.726" stroke-width="6.486" stroke="black" fill="none" stroke-linecap="round"></path><path d="M 542.427,224.726 C 542.626,221.942 542.626,219.130 542.427,219.130" stroke-width="7.308" stroke="black" fill="none" stroke-linecap="round"></path><path d="M 542.427,219.130 C 542.226,219.130 542.311,221.991 541.628,224.726" stroke-width="8.065" stroke="black" fill="none" stroke-linecap="round"></path><path d="M 541.628,224.726 C 540.314,229.985 539.705,229.842 538.432,235.118" stroke-width="6.071" stroke="black" fill="none" stroke-linecap="round"></path><path d="M 538.432,235.118 C 536.908,241.433 537.466,241.566 536.035,247.908" stroke-width="5.251" stroke="black" fill="none" stroke-linecap="round"></path><path d="M 536.035,247.908 C 534.670,253.957 534.093,253.834 532.839,259.899" stroke-width="5.304" stroke="black" fill="none" stroke-linecap="round"></path><path d="M 532.839,259.899 C 531.696,265.425 532.133,265.510 531.241,271.091" stroke-width="5.375" stroke="black" fill="none" stroke-linecap="round"></path><path d="M 531.241,271.091 C 530.535,275.503 530.046,275.452 529.643,279.885" stroke-width="5.807" stroke="black" fill="none" stroke-linecap="round"></path><path d="M 529.643,279.885 C 529.247,284.246 529.424,284.293 529.643,288.678" stroke-width="5.894" stroke="black" fill="none" stroke-linecap="round"></path><path d="M 529.643,288.678 C 529.823,292.287 529.993,292.282 530.442,295.873" stroke-width="6.181" stroke="black" fill="none" stroke-linecap="round"></path><path d="M 530.442,295.873 C 530.792,298.677 530.891,298.664 531.241,301.468" stroke-width="6.502" stroke="black" fill="none" stroke-linecap="round"></path><path d="M 531.241,301.468 C 531.690,305.060 535.120,309.020 532.040,308.663" stroke-width="7.119" stroke="black" fill="none" stroke-linecap="round"></path><path d="M 532.040,308.663 C 507.554,305.823 503.957,302.306 476.110,295.073" stroke-width="6.105" stroke="black" fill="none" stroke-linecap="round"></path><path d="M 476.110,295.073 C 462.409,291.515 462.653,290.566 448.944,287.079" stroke-width="4.500" stroke="black" fill="none" stroke-linecap="round"></path><path d="M 448.944,287.079 C 439.082,284.571 439.071,284.248 428.969,283.082" stroke-width="4.500" stroke="black" fill="none" stroke-linecap="round"></path><path d="M 428.969,283.082 C 407.910,280.651 407.802,281.383 386.622,279.885" stroke-width="4.500" stroke="black" fill="none" stroke-linecap="round"></path><path d="M 386.622,279.885 C 368.252,278.585 368.241,278.745 349.868,277.486" stroke-width="4.500" stroke="black" fill="none" stroke-linecap="round"></path><path d="M 349.868,277.486 C 339.077,276.747 339.099,276.030 328.295,275.888" stroke-width="4.500" stroke="black" fill="none" stroke-linecap="round"></path><path d="M 328.295,275.888 C 308.737,275.630 308.699,275.791 289.144,276.687" stroke-width="4.500" stroke="black" fill="none" stroke-linecap="round"></path><path d="M 289.144,276.687 C 256.364,278.189 256.397,278.958 223.625,280.684" stroke-width="4.500" stroke="black" fill="none" stroke-linecap="round"></path><path d="M 223.625,280.684 C 210.854,281.357 210.790,280.595 198.057,281.483" stroke-width="4.500" stroke="black" fill="none" stroke-linecap="round"></path><path d="M 198.057,281.483 C 193.611,281.794 193.648,282.206 189.268,283.082" stroke-width="4.517" stroke="black" fill="none" stroke-linecap="round"></path><path d="M 189.268,283.082 C 161.688,288.601 161.679,288.564 134.137,294.274" stroke-width="4.500" stroke="black" fill="none" stroke-linecap="round"></path><path d="M 134.137,294.274 C 117.335,297.757 117.393,298.047 100.579,301.468" stroke-width="4.500" stroke="black" fill="none" stroke-linecap="round"></path><path d="M 100.579,301.468 C 93.822,302.843 93.738,302.436 86.996,303.867" stroke-width="4.500" stroke="black" fill="none" stroke-linecap="round"></path><path d="M 86.996,303.867 C 80.555,305.234 80.691,306.019 74.212,307.064" stroke-width="4.710" stroke="black" fill="none" stroke-linecap="round"></path><path d="M 74.212,307.064 C 68.307,308.017 68.225,307.633 62.227,307.864" stroke-width="5.890" stroke="black" fill="none" stroke-linecap="round"></path><path d="M 62.227,307.864 C 57.838,308.033 54.098,310.173 53.438,307.864" stroke-width="6.720" stroke="black" fill="none" stroke-linecap="round"></path><path d="M 53.438,307.864 C 52.500,304.577 54.773,301.130 59.031,296.672" stroke-width="6.657" stroke="black" fill="none" stroke-linecap="round"></path><path d="M 59.031,296.672 C 71.952,283.144 72.757,283.437 87.795,271.891" stroke-width="4.500" stroke="black" fill="none" stroke-linecap="round"></path><path d="M 87.795,271.891 C 107.114,257.057 107.637,257.707 127.745,243.911" stroke-width="4.500" stroke="black" fill="none" stroke-linecap="round"></path><path d="M 127.745,243.911 C 149.585,228.928 149.278,228.423 171.690,214.333" stroke-width="4.500" stroke="black" fill="none" stroke-linecap="round"></path><path d="M 171.690,214.333 C 194.421,200.044 194.966,200.919 218.032,187.154" stroke-width="4.500" stroke="black" fill="none" stroke-linecap="round"></path><path d="M 218.032,187.154 C 240.509,173.740 240.657,173.962 262.777,159.974" stroke-width="4.500" stroke="black" fill="none" stroke-linecap="round"></path><path d="M 262.777,159.974 C 283.004,147.182 282.846,146.925 302.727,133.594" stroke-width="4.500" stroke="black" fill="none" stroke-linecap="round"></path><path d="M 302.727,133.594 C 320.399,121.743 320.339,121.653 337.883,109.612" stroke-width="4.500" stroke="black" fill="none" stroke-linecap="round"></path><path d="M 337.883,109.612 C 354.696,98.071 354.851,98.285 371.441,86.429" stroke-width="4.500" stroke="black" fill="none" stroke-linecap="round"></path><path d="M 371.441,86.429 C 385.613,76.301 385.471,76.101 399.406,65.644" stroke-width="4.500" stroke="black" fill="none" stroke-linecap="round"></path><path d="M 399.406,65.644 C 411.039,56.915 411.144,57.045 422.577,48.058" stroke-width="4.500" stroke="black" fill="none" stroke-linecap="round"></path><path d="M 422.577,48.058 C 433.516,39.458 433.637,39.567 444.150,30.471" stroke-width="4.500" stroke="black" fill="none" stroke-linecap="round"></path><path d="M 444.150,30.471 C 448.419,26.777 448.414,26.718 452.140,22.477" stroke-width="4.555" stroke="black" fill="none" stroke-linecap="round"></path><path d="M 452.140,22.477 C 460.000,13.528 459.691,13.251 467.321,4.090" stroke-width="4.500" stroke="black" fill="none" stroke-linecap="round"></path><path d="M 467.321,4.090 C 469.679,1.260 472.586,-2.135 472.115,-1.505" stroke-width="5.339" stroke="black" fill="none" stroke-linecap="round"></path><path d="M 472.115,-1.505 C 471.388,-0.536 468.628,2.984 464.924,7.288" stroke-width="6.927" stroke="black" fill="none" stroke-linecap="round"></path><path d="M 464.924,7.288 C 456.244,17.373 456.032,17.192 447.346,27.273" stroke-width="4.500" stroke="black" fill="none" stroke-linecap="round"></path><path d="M 447.346,27.273 C 436.057,40.375 436.023,40.350 424.974,53.653" stroke-width="4.500" stroke="black" fill="none" stroke-linecap="round"></path><path d="M 424.974,53.653 C 412.453,68.729 412.343,68.648 400.205,84.031" stroke-width="4.500" stroke="black" fill="none" stroke-linecap="round"></path><path d="M 400.205,84.031 C 388.373,99.025 388.166,98.894 377.034,114.408" stroke-width="4.500" stroke="black" fill="none" stroke-linecap="round"></path><path d="M 377.034,114.408 C 365.794,130.071 365.821,130.125 355.461,146.384" stroke-width="4.500" stroke="black" fill="none" stroke-linecap="round"></path><path d="M 355.461,146.384 C 345.446,162.101 345.724,162.285 336.285,178.360" stroke-width="4.500" stroke="black" fill="none" stroke-linecap="round"></path><path d="M 336.285,178.360 C 326.948,194.261 327.119,194.362 317.908,210.336" stroke-width="4.500" stroke="black" fill="none" stroke-linecap="round"></path><path d="M 317.908,210.336 C 309.142,225.538 308.919,225.413 300.330,240.714" stroke-width="4.500" stroke="black" fill="none" stroke-linecap="round"></path><path d="M 300.330,240.714 C 292.539,254.591 292.433,254.546 285.149,268.693" stroke-width="4.500" stroke="black" fill="none" stroke-linecap="round"></path><path d="M 285.149,268.693 C 278.850,280.926 278.603,280.848 273.164,293.474" stroke-width="4.500" stroke="black" fill="none" stroke-linecap="round"></path><path d="M 273.164,293.474 C 268.616,304.031 268.951,304.192 265.174,315.058" stroke-width="4.500" stroke="black" fill="none" stroke-linecap="round"></path><path d="M 265.174,315.058 C 262.559,322.578 261.929,322.495 260.380,330.247" stroke-width="4.500" stroke="black" fill="none" stroke-linecap="round"></path><path d="M 260.380,330.247 C 259.133,336.484 259.809,336.637 259.581,343.037" stroke-width="4.776" stroke="black" fill="none" stroke-linecap="round"></path><path d="M 259.581,343.037 C 259.410,347.829 259.581,347.834 259.581,352.630" stroke-width="5.421" stroke="black" fill="none" stroke-linecap="round"></path><circle r="3" cx="227.6204833984375" cy="382.2082214355469" fill="black"></circle><path d="M 57.433,374.214 C 54.637,378.211 54.314,378.019 51.840,382.208" stroke-width="8.430" stroke="black" fill="none" stroke-linecap="round"></path><path d="M 51.840,382.208 C 49.121,386.813 49.340,386.957 47.046,391.801" stroke-width="7.172" stroke="black" fill="none" stroke-linecap="round"></path><path d="M 47.046,391.801 C 45.744,394.551 45.740,394.558 44.649,397.397" stroke-width="6.702" stroke="black" fill="none" stroke-linecap="round"></path><path d="M 44.649,397.397 C 43.743,399.754 42.677,403.067 43.051,402.193" stroke-width="6.797" stroke="black" fill="none" stroke-linecap="round"></path><path d="M 51.041,374.214 C 55.436,379.011 55.494,378.959 59.830,383.807" stroke-width="8.461" stroke="black" fill="none" stroke-linecap="round"></path><path d="M 59.830,383.807 C 62.286,386.553 62.026,386.804 64.624,389.403" stroke-width="6.805" stroke="black" fill="none" stroke-linecap="round"></path><path d="M 64.624,389.403 C 67.619,392.399 67.913,392.101 71.016,394.999" stroke-width="6.306" stroke="black" fill="none" stroke-linecap="round"></path><path d="M 71.016,394.999 C 73.906,397.697 73.920,397.697 76.609,400.594" stroke-width="6.268" stroke="black" fill="none" stroke-linecap="round"></path><path d="M 76.609,400.594 C 79.114,403.293 79.006,403.392 81.403,406.190" stroke-width="6.350" stroke="black" fill="none" stroke-linecap="round"></path><path d="M 81.403,406.190 C 83.800,408.988 86.996,412.719 86.197,411.786" stroke-width="6.996" stroke="black" fill="none" stroke-linecap="round"></path><path d="M 108.569,359.825 C 104.574,365.820 104.393,365.710 100.579,371.816" stroke-width="8.218" stroke="black" fill="none" stroke-linecap="round"></path><path d="M 100.579,371.816 C 98.401,375.303 98.499,375.370 96.584,379.011" stroke-width="6.582" stroke="black" fill="none" stroke-linecap="round"></path><path d="M 96.584,379.011 C 94.504,382.964 94.421,382.933 92.589,387.005" stroke-width="6.088" stroke="black" fill="none" stroke-linecap="round"></path><path d="M 92.589,387.005 C 90.825,390.927 91.031,391.018 89.393,394.999" stroke-width="6.008" stroke="black" fill="none" stroke-linecap="round"></path><path d="M 89.393,394.999 C 88.235,397.813 88.195,397.797 86.996,400.594" stroke-width="6.428" stroke="black" fill="none" stroke-linecap="round"></path><path d="M 131.740,370.217 C 128.544,374.614 128.291,374.460 125.348,379.011" stroke-width="8.548" stroke="black" fill="none" stroke-linecap="round"></path><path d="M 125.348,379.011 C 123.897,381.255 123.839,381.290 122.951,383.807" stroke-width="7.278" stroke="black" fill="none" stroke-linecap="round"></path><path d="M 122.951,383.807 C 121.442,388.085 121.022,388.152 120.554,392.600" stroke-width="7.181" stroke="black" fill="none" stroke-linecap="round"></path><path d="M 120.554,392.600 C 120.223,395.746 120.136,396.153 121.353,398.996" stroke-width="7.421" stroke="black" fill="none" stroke-linecap="round"></path><path d="M 121.353,398.996 C 122.533,401.749 122.867,402.137 125.348,403.792" stroke-width="7.818" stroke="black" fill="none" stroke-linecap="round"></path><path d="M 125.348,403.792 C 127.661,405.335 128.131,405.391 130.941,405.391" stroke-width="7.701" stroke="black" fill="none" stroke-linecap="round"></path><path d="M 130.941,405.391 C 134.124,405.391 134.504,405.302 137.333,403.792" stroke-width="7.635" stroke="black" fill="none" stroke-linecap="round"></path><path d="M 137.333,403.792 C 140.497,402.104 140.918,401.899 142.926,398.996" stroke-width="7.807" stroke="black" fill="none" stroke-linecap="round"></path><path d="M 142.926,398.996 C 144.513,396.703 144.117,396.253 144.524,393.400" stroke-width="7.984" stroke="black" fill="none" stroke-linecap="round"></path><path d="M 144.524,393.400 C 144.916,390.657 145.608,390.153 144.524,387.804" stroke-width="8.082" stroke="black" fill="none" stroke-linecap="round"></path><path d="M 144.524,387.804 C 143.211,384.957 142.567,384.629 139.730,383.008" stroke-width="7.972" stroke="black" fill="none" stroke-linecap="round"></path><path d="M 198.057,374.214 C 193.663,374.214 193.652,374.005 189.268,374.214" stroke-width="8.621" stroke="black" fill="none" stroke-linecap="round"></path><path d="M 189.268,374.214 C 185.263,374.405 185.083,373.956 181.278,375.014" stroke-width="7.604" stroke="black" fill="none" stroke-linecap="round"></path><path d="M 181.278,375.014 C 177.892,375.955 177.872,376.291 174.886,378.211" stroke-width="7.486" stroke="black" fill="none" stroke-linecap="round"></path><path d="M 174.886,378.211 C 172.279,379.888 170.919,379.726 170.092,382.208" stroke-width="7.592" stroke="black" fill="none" stroke-linecap="round"></path><path d="M 170.092,382.208 C 169.321,384.522 169.897,385.831 171.690,387.804" stroke-width="8.147" stroke="black" fill="none" stroke-linecap="round"></path><path d="M 171.690,387.804 C 173.892,390.227 175.056,389.138 178.082,391.002" stroke-width="7.664" stroke="black" fill="none" stroke-linecap="round"></path><path d="M 178.082,391.002 C 180.249,392.336 180.080,392.600 182.077,394.199" stroke-width="7.774" stroke="black" fill="none" stroke-linecap="round"></path><path d="M 182.077,394.199 C 184.075,395.798 184.613,395.389 186.072,397.397" stroke-width="7.808" stroke="black" fill="none" stroke-linecap="round"></path><path d="M 186.072,397.397 C 187.809,399.786 189.460,400.845 188.469,402.993" stroke-width="8.126" stroke="black" fill="none" stroke-linecap="round"></path><path d="M 188.469,402.993 C 187.063,406.042 185.060,405.771 181.278,407.789" stroke-width="8.017" stroke="black" fill="none" stroke-linecap="round"></path><path d="M 181.278,407.789 C 179.068,408.969 178.881,408.589 176.484,409.388" stroke-width="7.230" stroke="black" fill="none" stroke-linecap="round"></path><path d="M 176.484,409.388 C 174.087,410.187 174.149,410.460 171.690,410.987" stroke-width="7.023" stroke="black" fill="none" stroke-linecap="round"></path><path d="M 171.690,410.987 C 168.556,411.659 168.473,411.257 165.298,411.786" stroke-width="6.742" stroke="black" fill="none" stroke-linecap="round"></path><path d="M 212.439,402.993 C 218.432,401.394 218.528,401.672 224.425,399.795" stroke-width="8.424" stroke="black" fill="none" stroke-linecap="round"></path><path d="M 224.425,399.795 C 227.317,398.874 227.256,398.672 230.017,397.397" stroke-width="7.081" stroke="black" fill="none" stroke-linecap="round"></path><path d="M 230.017,397.397 C 232.450,396.274 232.414,396.198 234.811,394.999" stroke-width="6.912" stroke="black" fill="none" stroke-linecap="round"></path><path d="M 234.811,394.999 C 237.208,393.800 237.281,393.929 239.605,392.600" stroke-width="6.863" stroke="black" fill="none" stroke-linecap="round"></path><path d="M 239.605,392.600 C 242.874,390.732 243.156,391.009 245.998,388.603" stroke-width="7.208" stroke="black" fill="none" stroke-linecap="round"></path><path d="M 245.998,388.603 C 248.350,386.612 249.993,386.003 249.993,383.807" stroke-width="7.734" stroke="black" fill="none" stroke-linecap="round"></path><path d="M 249.993,383.807 C 249.993,382.006 248.337,381.234 245.998,380.609" stroke-width="8.255" stroke="black" fill="none" stroke-linecap="round"></path><path d="M 245.998,380.609 C 242.345,379.635 241.938,380.147 238.008,380.609" stroke-width="7.932" stroke="black" fill="none" stroke-linecap="round"></path><path d="M 238.008,380.609 C 235.146,380.946 235.194,381.353 232.415,382.208" stroke-width="7.733" stroke="black" fill="none" stroke-linecap="round"></path><path d="M 232.415,382.208 C 230.000,382.952 229.695,382.486 227.620,383.807" stroke-width="7.804" stroke="black" fill="none" stroke-linecap="round"></path><path d="M 227.620,383.807 C 225.301,385.284 225.164,385.495 223.625,387.804" stroke-width="8.011" stroke="black" fill="none" stroke-linecap="round"></path><path d="M 223.625,387.804 C 221.968,390.291 221.643,390.498 221.228,393.400" stroke-width="8.031" stroke="black" fill="none" stroke-linecap="round"></path><path d="M 221.228,393.400 C 220.844,396.094 220.813,396.566 222.027,398.996" stroke-width="8.081" stroke="black" fill="none" stroke-linecap="round"></path><path d="M 222.027,398.996 C 223.610,402.162 223.924,402.465 226.822,404.592" stroke-width="7.928" stroke="black" fill="none" stroke-linecap="round"></path><path d="M 226.822,404.592 C 229.916,406.862 230.240,406.805 234.013,407.789" stroke-width="7.513" stroke="black" fill="none" stroke-linecap="round"></path><path d="M 234.013,407.789 C 239.429,409.203 239.583,408.899 245.199,409.388" stroke-width="6.928" stroke="black" fill="none" stroke-linecap="round"></path><path d="M 245.199,409.388 C 248.772,409.699 248.794,409.388 252.390,409.388" stroke-width="6.494" stroke="black" fill="none" stroke-linecap="round"></path><path d="M 252.390,409.388 C 256.385,409.388 256.385,409.388 260.380,409.388" stroke-width="6.229" stroke="black" fill="none" stroke-linecap="round"></path><path d="M 260.380,409.388 C 264.375,409.388 264.375,409.388 268.370,409.388" stroke-width="6.154" stroke="black" fill="none" stroke-linecap="round"></path><path d="M 268.370,409.388 C 272.365,409.388 272.365,409.388 276.360,409.388" stroke-width="6.209" stroke="black" fill="none" stroke-linecap="round"></path><path d="M 276.360,409.388 C 279.955,409.388 279.955,409.388 283.551,409.388" stroke-width="6.209" stroke="black" fill="none" stroke-linecap="round"></path><path d="M 283.551,409.388 C 286.347,409.388 286.355,409.552 289.144,409.388" stroke-width="6.593" stroke="black" fill="none" stroke-linecap="round"></path><path d="M 289.144,409.388 C 293.147,409.152 293.211,409.324 297.134,408.588" stroke-width="7.060" stroke="black" fill="none" stroke-linecap="round"></path><path d="M 341.878,354.229 C 337.483,352.231 337.668,351.378 333.089,350.232" stroke-width="8.580" stroke="black" fill="none" stroke-linecap="round"></path><path d="M 333.089,350.232 C 329.678,349.379 329.468,349.907 325.898,350.232" stroke-width="7.740" stroke="black" fill="none" stroke-linecap="round"></path><path d="M 325.898,350.232 C 320.679,350.707 320.537,350.507 315.511,351.831" stroke-width="7.114" stroke="black" fill="none" stroke-linecap="round"></path><path d="M 315.511,351.831 C 312.947,352.506 313.027,352.881 310.717,354.229" stroke-width="7.282" stroke="black" fill="none" stroke-linecap="round"></path><path d="M 310.717,354.229 C 308.233,355.679 308.202,355.673 305.923,357.427" stroke-width="6.880" stroke="black" fill="none" stroke-linecap="round"></path><path d="M 305.923,357.427 C 303.008,359.670 302.479,359.304 300.330,362.223" stroke-width="7.207" stroke="black" fill="none" stroke-linecap="round"></path><path d="M 300.330,362.223 C 296.886,366.899 297.254,367.299 294.737,372.615" stroke-width="6.793" stroke="black" fill="none" stroke-linecap="round"></path><path d="M 294.737,372.615 C 293.658,374.893 293.551,374.934 293.139,377.412" stroke-width="6.825" stroke="black" fill="none" stroke-linecap="round"></path><path d="M 293.139,377.412 C 292.353,382.129 292.843,382.220 292.340,387.005" stroke-width="6.855" stroke="black" fill="none" stroke-linecap="round"></path><path d="M 292.340,387.005 C 292.044,389.814 292.031,389.818 291.541,392.600" stroke-width="6.710" stroke="black" fill="none" stroke-linecap="round"></path><path d="M 291.541,392.600 C 290.833,396.613 290.930,396.644 289.943,400.594" stroke-width="6.341" stroke="black" fill="none" stroke-linecap="round"></path><path d="M 289.943,400.594 C 288.932,404.638 288.662,404.569 287.546,408.588" stroke-width="6.036" stroke="black" fill="none" stroke-linecap="round"></path><path d="M 287.546,408.588 C 286.664,411.763 286.747,411.786 285.948,414.984" stroke-width="6.344" stroke="black" fill="none" stroke-linecap="round"></path><path d="M 269.169,391.002 C 274.362,390.602 274.357,390.462 279.556,390.202" stroke-width="8.440" stroke="black" fill="none" stroke-linecap="round"></path><path d="M 279.556,390.202 C 282.347,390.063 282.362,390.377 285.149,390.202" stroke-width="7.199" stroke="black" fill="none" stroke-linecap="round"></path><path d="M 285.149,390.202 C 288.754,389.977 288.827,390.214 292.340,389.403" stroke-width="7.353" stroke="black" fill="none" stroke-linecap="round"></path><path d="M 292.340,389.403 C 299.214,387.816 299.163,387.505 305.923,385.406" stroke-width="6.665" stroke="black" fill="none" stroke-linecap="round"></path><path d="M 305.923,385.406 C 310.748,383.907 310.717,383.807 315.511,382.208" stroke-width="6.821" stroke="black" fill="none" stroke-linecap="round"></path><path d="M 315.511,382.208 C 319.106,381.009 320.065,379.091 322.702,379.810" stroke-width="7.133" stroke="black" fill="none" stroke-linecap="round"></path><path d="M 322.702,379.810 C 324.460,380.290 324.024,382.123 324.300,384.606" stroke-width="8.038" stroke="black" fill="none" stroke-linecap="round"></path><path d="M 324.300,384.606 C 324.823,389.318 324.300,389.403 324.300,394.199" stroke-width="7.297" stroke="black" fill="none" stroke-linecap="round"></path><circle r="3" cx="320.3046569824219" cy="368.6183776855469" fill="black"></circle><path d="M 365.049,337.442 C 362.652,343.837 362.340,343.740 360.255,350.232" stroke-width="8.268" stroke="black" fill="none" stroke-linecap="round"></path><path d="M 360.255,350.232 C 358.745,354.932 359.056,355.029 357.858,359.825" stroke-width="6.277" stroke="black" fill="none" stroke-linecap="round"></path><path d="M 357.858,359.825 C 356.659,364.621 356.271,364.552 355.461,369.418" stroke-width="5.855" stroke="black" fill="none" stroke-linecap="round"></path><path d="M 355.461,369.418 C 354.274,376.543 354.819,376.634 353.863,383.807" stroke-width="6.130" stroke="black" fill="none" stroke-linecap="round"></path><path d="M 353.863,383.807 C 353.221,388.625 352.684,388.572 352.265,393.400" stroke-width="6.005" stroke="black" fill="none" stroke-linecap="round"></path><path d="M 352.265,393.400 C 351.885,397.765 352.265,397.797 352.265,402.193" stroke-width="5.866" stroke="black" fill="none" stroke-linecap="round"></path><path d="M 352.265,402.193 C 352.265,406.590 352.265,412.452 352.265,410.987" stroke-width="5.825" stroke="black" fill="none" stroke-linecap="round"></path><path d="M 377.034,335.843 C 377.034,342.638 377.276,342.649 377.034,349.433" stroke-width="8.427" stroke="black" fill="none" stroke-linecap="round"></path><path d="M 377.034,349.433 C 376.876,353.840 376.617,353.828 376.235,358.226" stroke-width="6.503" stroke="black" fill="none" stroke-linecap="round"></path><path d="M 376.235,358.226 C 375.818,363.021 375.819,363.021 375.436,367.819" stroke-width="5.954" stroke="black" fill="none" stroke-linecap="round"></path><path d="M 375.436,367.819 C 375.020,373.014 375.052,373.016 374.637,378.211" stroke-width="5.687" stroke="black" fill="none" stroke-linecap="round"></path><path d="M 374.637,378.211 C 374.253,383.009 374.273,383.011 373.838,387.804" stroke-width="6.132" stroke="black" fill="none" stroke-linecap="round"></path><path d="M 373.838,387.804 C 373.474,391.804 373.438,391.801 373.039,395.798" stroke-width="6.118" stroke="black" fill="none" stroke-linecap="round"></path><path d="M 373.039,395.798 C 372.639,399.795 372.475,399.787 372.240,403.792" stroke-width="6.114" stroke="black" fill="none" stroke-linecap="round"></path><path d="M 372.240,403.792 C 372.076,406.582 372.240,406.590 372.240,409.388" stroke-width="6.491" stroke="black" fill="none" stroke-linecap="round"></path><path d="M 396.210,400.594 C 400.604,398.596 400.783,398.917 404.999,396.597" stroke-width="8.549" stroke="black" fill="none" stroke-linecap="round"></path><path d="M 404.999,396.597 C 408.773,394.521 408.966,394.623 412.190,391.801" stroke-width="7.505" stroke="black" fill="none" stroke-linecap="round"></path><path d="M 412.190,391.801 C 415.358,389.027 415.396,388.879 417.783,385.406" stroke-width="7.347" stroke="black" fill="none" stroke-linecap="round"></path><path d="M 417.783,385.406 C 419.791,382.483 420.310,382.359 420.979,379.011" stroke-width="7.409" stroke="black" fill="none" stroke-linecap="round"></path><path d="M 420.979,379.011 C 421.508,376.363 421.860,374.909 420.180,373.415" stroke-width="7.859" stroke="black" fill="none" stroke-linecap="round"></path><path d="M 420.180,373.415 C 418.265,371.712 416.641,371.723 413.788,372.615" stroke-width="8.109" stroke="black" fill="none" stroke-linecap="round"></path><path d="M 413.788,372.615 C 410.249,373.722 410.192,374.614 407.396,377.412" stroke-width="7.516" stroke="black" fill="none" stroke-linecap="round"></path><path d="M 407.396,377.412 C 404.599,380.210 404.282,380.259 402.602,383.807" stroke-width="7.383" stroke="black" fill="none" stroke-linecap="round"></path><path d="M 402.602,383.807 C 400.686,387.853 400.815,388.125 400.205,392.600" stroke-width="7.181" stroke="black" fill="none" stroke-linecap="round"></path><path d="M 400.205,392.600 C 399.616,396.918 399.697,397.079 400.205,401.394" stroke-width="7.128" stroke="black" fill="none" stroke-linecap="round"></path><path d="M 400.205,401.394 C 400.496,403.874 400.612,404.005 401.803,406.190" stroke-width="7.057" stroke="black" fill="none" stroke-linecap="round"></path><path d="M 401.803,406.190 C 403.009,408.402 402.962,408.732 404.999,410.187" stroke-width="6.959" stroke="black" fill="none" stroke-linecap="round"></path><path d="M 404.999,410.187 C 408.555,412.729 408.828,412.715 412.989,414.184" stroke-width="7.045" stroke="black" fill="none" stroke-linecap="round"></path><path d="M 412.989,414.184 C 415.620,415.113 415.815,415.168 418.582,414.984" stroke-width="6.839" stroke="black" fill="none" stroke-linecap="round"></path><path d="M 418.582,414.984 C 421.808,414.769 421.879,414.478 424.974,413.385" stroke-width="6.662" stroke="black" fill="none" stroke-linecap="round"></path><path d="M 424.974,413.385 C 428.670,412.080 428.696,412.025 432.165,410.187" stroke-width="6.297" stroke="black" fill="none" stroke-linecap="round"></path><path d="M 432.165,410.187 C 435.488,408.427 435.526,408.414 438.557,406.190" stroke-width="6.253" stroke="black" fill="none" stroke-linecap="round"></path><path d="M 438.557,406.190 C 441.519,404.017 441.338,403.774 444.150,401.394" stroke-width="6.271" stroke="black" fill="none" stroke-linecap="round"></path><path d="M 444.150,401.394 C 446.532,399.377 446.637,399.495 448.944,397.397" stroke-width="6.486" stroke="black" fill="none" stroke-linecap="round"></path><path d="M 448.944,397.397 C 451.032,395.498 451.299,395.656 452.939,393.400" stroke-width="6.672" stroke="black" fill="none" stroke-linecap="round"></path><path d="M 452.939,393.400 C 454.495,391.259 454.343,391.087 455.336,388.603" stroke-width="6.720" stroke="black" fill="none" stroke-linecap="round"></path><path d="M 455.336,388.603 C 456.740,385.091 457.275,385.073 457.733,381.409" stroke-width="7.155" stroke="black" fill="none" stroke-linecap="round"></path><path d="M 457.733,381.409 C 458.074,378.678 458.540,377.219 456.934,375.813" stroke-width="7.792" stroke="black" fill="none" stroke-linecap="round"></path><path d="M 456.934,375.813 C 455.344,374.421 454.137,375.813 451.341,375.813" stroke-width="8.152" stroke="black" fill="none" stroke-linecap="round"></path><path d="M 451.341,375.813 C 448.544,375.813 445.748,376.012 445.748,375.813" stroke-width="8.272" stroke="black" fill="none" stroke-linecap="round"></path><path d="M 445.748,375.813 C 445.748,375.612 448.536,375.014 451.341,375.014" stroke-width="8.469" stroke="black" fill="none" stroke-linecap="round"></path><path d="M 451.341,375.014 C 455.327,375.014 455.381,375.154 459.331,375.813" stroke-width="7.601" stroke="black" fill="none" stroke-linecap="round"></path><path d="M 459.331,375.813 C 462.572,376.353 462.790,376.043 465.723,377.412" stroke-width="7.504" stroke="black" fill="none" stroke-linecap="round"></path><path d="M 465.723,377.412 C 468.783,378.840 469.071,378.939 471.316,381.409" stroke-width="7.492" stroke="black" fill="none" stroke-linecap="round"></path><path d="M 471.316,381.409 C 473.067,383.335 473.166,383.653 473.713,386.205" stroke-width="7.665" stroke="black" fill="none" stroke-linecap="round"></path><path d="M 473.713,386.205 C 474.365,389.249 474.162,389.454 473.713,392.600" stroke-width="7.602" stroke="black" fill="none" stroke-linecap="round"></path><path d="M 473.713,392.600 C 472.964,397.848 472.671,397.841 471.316,402.993" stroke-width="7.024" stroke="black" fill="none" stroke-linecap="round"></path><path d="M 471.316,402.993 C 470.673,405.435 470.517,405.391 469.718,407.789" stroke-width="6.893" stroke="black" fill="none" stroke-linecap="round"></path><path d="M 469.718,407.789 C 468.919,410.187 468.732,410.138 468.120,412.586" stroke-width="6.924" stroke="black" fill="none" stroke-linecap="round"></path><path d="M 468.120,412.586 C 467.134,416.533 465.814,417.039 466.522,420.580" stroke-width="7.155" stroke="black" fill="none" stroke-linecap="round"></path><path d="M 466.522,420.580 C 467.013,423.034 467.935,423.989 470.517,424.577" stroke-width="7.772" stroke="black" fill="none" stroke-linecap="round"></path><path d="M 470.517,424.577 C 476.724,425.988 477.343,425.027 484.100,424.577" stroke-width="6.782" stroke="black" fill="none" stroke-linecap="round"></path><path d="M 484.100,424.577 C 489.328,424.228 489.340,424.008 494.487,422.978" stroke-width="5.777" stroke="black" fill="none" stroke-linecap="round"></path><path d="M 494.487,422.978 C 499.327,422.009 499.234,421.548 504.075,420.580" stroke-width="5.800" stroke="black" fill="none" stroke-linecap="round"></path><path d="M 504.075,420.580 C 509.222,419.550 509.326,420.051 514.462,418.981" stroke-width="5.631" stroke="black" fill="none" stroke-linecap="round"></path><path d="M 514.462,418.981 C 518.914,418.053 518.856,417.782 523.251,416.582" stroke-width="5.703" stroke="black" fill="none" stroke-linecap="round"></path></svg>