<svg xmlns="http://www.w3.org/2000/svg" xmlns:xlink="http://www.w3.org/1999/xlink" viewBox="0 0 576 416" width="576" height="416"><path d="M 119.755,110.011 C 118.956,115.607 119.185,115.649 118.157,121.203" stroke-width="8.452" stroke="black" fill="none" stroke-linecap="round"></path><path d="M 118.157,121.203 C 117.188,126.441 116.766,126.362 115.760,131.595" stroke-width="6.056" stroke="black" fill="none" stroke-linecap="round"></path><path d="M 115.760,131.595 C 114.769,136.754 115.055,136.807 114.162,141.987" stroke-width="5.789" stroke="black" fill="none" stroke-linecap="round"></path><path d="M 114.162,141.987 C 113.057,148.398 112.834,148.361 111.765,154.778" stroke-width="5.185" stroke="black" fill="none" stroke-linecap="round"></path><path d="M 111.765,154.778 C 110.837,160.352 110.729,160.349 110.167,165.969" stroke-width="5.420" stroke="black" fill="none" stroke-linecap="round"></path><path d="M 110.167,165.969 C 109.531,172.340 109.781,172.365 109.368,178.760" stroke-width="5.215" stroke="black" fill="none" stroke-linecap="round"></path><path d="M 109.368,178.760 C 108.982,184.756 108.769,184.749 108.569,190.751" stroke-width="5.255" stroke="black" fill="none" stroke-linecap="round"></path><path d="M 108.569,190.751 C 108.370,196.740 108.569,196.746 108.569,202.742" stroke-width="5.271" stroke="black" fill="none" stroke-linecap="round"></path><path d="M 108.569,202.742 C 108.569,209.137 108.569,209.137 108.569,215.532" stroke-width="5.176" stroke="black" fill="none" stroke-linecap="round"></path><path d="M 108.569,215.532 C 108.569,221.528 108.569,221.528 108.569,227.523" stroke-width="5.247" stroke="black" fill="none" stroke-linecap="round"></path><path d="M 108.569,227.523 C 108.569,232.719 108.569,232.719 108.569,237.916" stroke-width="5.560" stroke="black" fill="none" stroke-linecap="round"></path><path d="M 108.569,237.916 C 108.569,242.312 108.569,242.312 108.569,246.709" stroke-width="5.731" stroke="black" fill="none" stroke-linecap="round"></path><path d="M 108.569,246.709 C 108.569,249.907 108.569,249.907 108.569,253.104" stroke-width="6.274" stroke="black" fill="none" stroke-linecap="round"></path><path d="M 108.569,253.104 C 108.569,256.702 108.725,261.080 108.569,260.299" stroke-width="7.040" stroke="black" fill="none" stroke-linecap="round"></path><path d="M 108.569,260.299 C 108.326,259.081 108.217,254.699 107.770,249.107" stroke-width="7.653" stroke="black" fill="none" stroke-linecap="round"></path><path d="M 107.770,249.107 C 107.418,244.707 107.354,244.712 106.971,240.314" stroke-width="6.446" stroke="black" fill="none" stroke-linecap="round"></path><path d="M 106.971,240.314 C 106.555,235.519 106.572,235.517 106.172,230.721" stroke-width="5.940" stroke="black" fill="none" stroke-linecap="round"></path><path d="M 106.172,230.721 C 105.773,225.925 105.742,225.927 105.373,221.128" stroke-width="5.803" stroke="black" fill="none" stroke-linecap="round"></path><path d="M 105.373,221.128 C 104.943,215.535 104.974,215.532 104.574,209.936" stroke-width="5.434" stroke="black" fill="none" stroke-linecap="round"></path><path d="M 104.574,209.936 C 104.175,204.341 103.975,204.348 103.775,198.745" stroke-width="5.425" stroke="black" fill="none" stroke-linecap="round"></path><path d="M 103.775,198.745 C 103.576,193.156 103.775,193.149 103.775,187.553" stroke-width="5.427" stroke="black" fill="none" stroke-linecap="round"></path><path d="M 103.775,187.553 C 103.775,181.957 103.568,181.949 103.775,176.362" stroke-width="5.427" stroke="black" fill="none" stroke-linecap="round"></path><path d="M 103.775,176.362 C 103.968,171.157 103.999,171.146 104.574,165.969" stroke-width="5.533" stroke="black" fill="none" stroke-linecap="round"></path><path d="M 104.574,165.969 C 105.198,160.354 105.180,160.339 106.172,154.778" stroke-width="5.529" stroke="black" fill="none" stroke-linecap="round"></path><path d="M 106.172,154.778 C 107.177,149.147 107.183,149.135 108.569,143.586" stroke-width="5.328" stroke="black" fill="none" stroke-linecap="round"></path><path d="M 108.569,143.586 C 109.979,137.943 109.618,137.765 111.765,132.394" stroke-width="5.338" stroke="black" fill="none" stroke-linecap="round"></path><path d="M 111.765,132.394 C 113.613,127.773 114.162,127.998 116.559,123.601" stroke-width="5.562" stroke="black" fill="none" stroke-linecap="round"></path><path d="M 116.559,123.601 C 118.956,119.204 118.543,118.916 121.353,114.807" stroke-width="5.633" stroke="black" fill="none" stroke-linecap="round"></path><path d="M 121.353,114.807 C 123.737,111.322 123.951,111.409 126.946,108.412" stroke-width="5.885" stroke="black" fill="none" stroke-linecap="round"></path><path d="M 126.946,108.412 C 129.544,105.813 129.376,105.304 132.539,103.616" stroke-width="6.227" stroke="black" fill="none" stroke-linecap="round"></path><path d="M 132.539,103.616 C 135.368,102.106 135.699,102.219 138.931,102.017" stroke-width="6.330" stroke="black" fill="none" stroke-linecap="round"></path><path d="M 138.931,102.017 C 142.091,101.819 142.576,101.370 145.323,102.816" stroke-width="6.466" stroke="black" fill="none" stroke-linecap="round"></path><path d="M 145.323,102.816 C 150.167,105.367 150.503,105.763 154.112,110.011" stroke-width="6.660" stroke="black" fill="none" stroke-linecap="round"></path><path d="M 154.112,110.011 C 157.295,113.757 156.897,114.234 158.906,118.804" stroke-width="5.930" stroke="black" fill="none" stroke-linecap="round"></path><path d="M 158.906,118.804 C 161.291,124.227 161.273,124.295 162.901,129.996" stroke-width="5.472" stroke="black" fill="none" stroke-linecap="round"></path><path d="M 162.901,129.996 C 164.469,135.487 164.177,135.577 165.298,141.188" stroke-width="5.406" stroke="black" fill="none" stroke-linecap="round"></path><path d="M 165.298,141.188 C 166.574,147.568 166.497,147.583 167.695,153.978" stroke-width="5.187" stroke="black" fill="none" stroke-linecap="round"></path><path d="M 167.695,153.978 C 168.894,160.373 169.262,160.327 170.092,166.769" stroke-width="5.124" stroke="black" fill="none" stroke-linecap="round"></path><path d="M 170.092,166.769 C 170.860,172.718 170.492,172.764 170.891,178.760" stroke-width="5.227" stroke="black" fill="none" stroke-linecap="round"></path><path d="M 170.891,178.760 C 171.291,184.755 171.690,184.756 171.690,190.751" stroke-width="5.259" stroke="black" fill="none" stroke-linecap="round"></path><path d="M 171.690,190.751 C 171.690,196.348 171.252,196.344 170.891,201.942" stroke-width="5.455" stroke="black" fill="none" stroke-linecap="round"></path><path d="M 170.891,201.942 C 170.453,208.735 170.886,208.784 170.092,215.532" stroke-width="5.027" stroke="black" fill="none" stroke-linecap="round"></path><path d="M 170.092,215.532 C 169.288,222.373 169.454,222.474 167.695,229.122" stroke-width="4.985" stroke="black" fill="none" stroke-linecap="round"></path><path d="M 167.695,229.122 C 165.859,236.064 165.363,235.940 162.901,242.712" stroke-width="4.905" stroke="black" fill="none" stroke-linecap="round"></path><path d="M 162.901,242.712 C 160.569,249.131 160.985,249.333 158.107,255.502" stroke-width="4.964" stroke="black" fill="none" stroke-linecap="round"></path><path d="M 158.107,255.502 C 155.392,261.324 155.029,261.169 151.715,266.694" stroke-width="5.072" stroke="black" fill="none" stroke-linecap="round"></path><path d="M 151.715,266.694 C 149.036,271.162 149.331,271.421 146.122,275.488" stroke-width="5.496" stroke="black" fill="none" stroke-linecap="round"></path><path d="M 146.122,275.488 C 143.338,279.016 143.216,279.049 139.730,281.883" stroke-width="5.672" stroke="black" fill="none" stroke-linecap="round"></path><path d="M 139.730,281.883 C 136.824,284.245 136.764,284.509 133.338,285.880" stroke-width="6.055" stroke="black" fill="none" stroke-linecap="round"></path><path d="M 133.338,285.880 C 130.771,286.907 130.142,287.478 127.745,286.679" stroke-width="6.528" stroke="black" fill="none" stroke-linecap="round"></path><path d="M 127.745,286.679 C 125.348,285.880 125.390,284.938 123.750,282.682" stroke-width="7.318" stroke="black" fill="none" stroke-linecap="round"></path><path d="M 123.750,282.682 C 122.194,280.542 122.249,280.396 121.353,277.886" stroke-width="7.045" stroke="black" fill="none" stroke-linecap="round"></path><path d="M 121.353,277.886 C 120.252,274.800 120.361,274.724 119.755,271.491" stroke-width="6.561" stroke="black" fill="none" stroke-linecap="round"></path><path d="M 119.755,271.491 C 119.163,268.329 118.956,268.289 118.956,265.095" stroke-width="6.537" stroke="black" fill="none" stroke-linecap="round"></path><path d="M 118.956,265.095 C 118.956,262.294 119.202,262.267 119.755,259.499" stroke-width="6.687" stroke="black" fill="none" stroke-linecap="round"></path><path d="M 119.755,259.499 C 120.401,256.272 120.074,256.090 121.353,253.104" stroke-width="6.545" stroke="black" fill="none" stroke-linecap="round"></path><path d="M 121.353,253.104 C 122.471,250.494 122.856,250.637 124.549,248.308" stroke-width="6.733" stroke="black" fill="none" stroke-linecap="round"></path><path d="M 124.549,248.308 C 126.052,246.240 125.588,245.390 127.745,244.311" stroke-width="6.979" stroke="black" fill="none" stroke-linecap="round"></path><path d="M 127.745,244.311 C 131.181,242.592 131.849,242.323 135.735,242.712" stroke-width="7.144" stroke="black" fill="none" stroke-linecap="round"></path><path d="M 135.735,242.712 C 139.839,243.123 139.897,243.994 143.725,245.910" stroke-width="7.171" stroke="black" fill="none" stroke-linecap="round"></path><path d="M 143.725,245.910 C 146.289,247.192 146.240,247.353 148.519,249.107" stroke-width="6.689" stroke="black" fill="none" stroke-linecap="round"></path><path d="M 148.519,249.107 C 151.434,251.350 151.329,251.490 154.112,253.904" stroke-width="6.474" stroke="black" fill="none" stroke-linecap="round"></path><path d="M 154.112,253.904 C 157.322,256.686 157.211,256.822 160.504,259.499" stroke-width="6.045" stroke="black" fill="none" stroke-linecap="round"></path><path d="M 160.504,259.499 C 163.603,262.018 163.550,262.129 166.896,264.296" stroke-width="6.099" stroke="black" fill="none" stroke-linecap="round"></path><path d="M 166.896,264.296 C 170.342,266.526 170.412,266.454 174.087,268.293" stroke-width="6.075" stroke="black" fill="none" stroke-linecap="round"></path><path d="M 174.087,268.293 C 177.603,270.052 177.549,270.312 181.278,271.491" stroke-width="6.129" stroke="black" fill="none" stroke-linecap="round"></path><path d="M 181.278,271.491 C 185.140,272.710 185.222,272.810 189.268,273.089" stroke-width="6.097" stroke="black" fill="none" stroke-linecap="round"></path><path d="M 189.268,273.089 C 196.807,273.610 196.939,273.794 204.449,273.089" stroke-width="6.184" stroke="black" fill="none" stroke-linecap="round"></path><path d="M 204.449,273.089 C 209.723,272.595 209.778,272.311 214.836,270.691" stroke-width="5.712" stroke="black" fill="none" stroke-linecap="round"></path><path d="M 214.836,270.691 C 219.766,269.113 219.934,269.233 224.425,266.694" stroke-width="5.624" stroke="black" fill="none" stroke-linecap="round"></path><path d="M 224.425,266.694 C 229.123,264.037 228.976,263.691 233.214,260.299" stroke-width="5.529" stroke="black" fill="none" stroke-linecap="round"></path><path d="M 233.214,260.299 C 236.966,257.296 237.390,257.566 240.405,253.904" stroke-width="5.680" stroke="black" fill="none" stroke-linecap="round"></path><path d="M 240.405,253.904 C 242.983,250.772 242.736,250.453 244.400,246.709" stroke-width="6.018" stroke="black" fill="none" stroke-linecap="round"></path><path d="M 244.400,246.709 C 245.932,243.259 245.979,243.195 246.797,239.514" stroke-width="6.079" stroke="black" fill="none" stroke-linecap="round"></path><path d="M 246.797,239.514 C 247.577,236.001 247.817,235.865 247.596,232.320" stroke-width="6.241" stroke="black" fill="none" stroke-linecap="round"></path><path d="M 247.596,232.320 C 247.417,229.470 247.016,229.442 245.998,226.724" stroke-width="6.558" stroke="black" fill="none" stroke-linecap="round"></path><path d="M 245.998,226.724 C 244.619,223.047 245.108,220.683 242.802,219.529" stroke-width="7.066" stroke="black" fill="none" stroke-linecap="round"></path><path d="M 242.802,219.529 C 241.113,218.685 238.428,220.343 238.008,222.727" stroke-width="8.066" stroke="black" fill="none" stroke-linecap="round"></path><path d="M 238.008,222.727 C 237.229,227.138 238.879,228.030 240.405,233.119" stroke-width="7.137" stroke="black" fill="none" stroke-linecap="round"></path><path d="M 240.405,233.119 C 241.276,236.024 241.443,235.997 242.802,238.715" stroke-width="6.772" stroke="black" fill="none" stroke-linecap="round"></path><path d="M 242.802,238.715 C 244.240,241.592 244.025,241.799 245.998,244.311" stroke-width="6.598" stroke="black" fill="none" stroke-linecap="round"></path><path d="M 245.998,244.311 C 248.419,247.395 248.522,247.451 251.591,249.907" stroke-width="6.272" stroke="black" fill="none" stroke-linecap="round"></path><path d="M 251.591,249.907 C 254.514,252.247 254.660,252.144 257.983,253.904" stroke-width="6.322" stroke="black" fill="none" stroke-linecap="round"></path><path d="M 257.983,253.904 C 261.451,255.741 261.416,256.112 265.174,257.101" stroke-width="6.117" stroke="black" fill="none" stroke-linecap="round"></path><path d="M 265.174,257.101 C 269.007,258.111 269.158,257.710 273.164,257.901" stroke-width="6.114" stroke="black" fill="none" stroke-linecap="round"></path><path d="M 273.164,257.901 C 277.548,258.110 277.714,258.709 281.953,257.901" stroke-width="5.986" stroke="black" fill="none" stroke-linecap="round"></path><path d="M 281.953,257.901 C 286.103,257.110 285.989,256.398 289.943,254.703" stroke-width="5.978" stroke="black" fill="none" stroke-linecap="round"></path><path d="M 289.943,254.703 C 294.378,252.801 294.621,253.174 298.732,250.706" stroke-width="5.809" stroke="black" fill="none" stroke-linecap="round"></path><path d="M 298.732,250.706 C 302.611,248.377 302.408,248.006 305.923,245.110" stroke-width="5.925" stroke="black" fill="none" stroke-linecap="round"></path><path d="M 305.923,245.110 C 309.200,242.410 309.444,242.607 312.315,239.514" stroke-width="5.892" stroke="black" fill="none" stroke-linecap="round"></path><path d="M 312.315,239.514 C 314.638,237.011 314.706,236.926 316.310,233.919" stroke-width="6.244" stroke="black" fill="none" stroke-linecap="round"></path><path d="M 316.310,233.919 C 317.902,230.931 317.884,230.814 318.707,227.523" stroke-width="6.367" stroke="black" fill="none" stroke-linecap="round"></path><path d="M 318.707,227.523 C 319.482,224.418 319.506,224.322 319.506,221.128" stroke-width="6.477" stroke="black" fill="none" stroke-linecap="round"></path><path d="M 319.506,221.128 C 319.506,218.327 319.527,218.199 318.707,215.532" stroke-width="6.669" stroke="black" fill="none" stroke-linecap="round"></path><path d="M 318.707,215.532 C 317.929,213.003 318.296,212.226 316.310,210.736" stroke-width="7.406" stroke="black" fill="none" stroke-linecap="round"></path><path d="M 316.310,210.736 C 313.502,208.629 312.798,208.747 309.119,208.338" stroke-width="7.373" stroke="black" fill="none" stroke-linecap="round"></path><path d="M 309.119,208.338 C 305.607,207.947 305.456,208.431 301.928,209.137" stroke-width="7.406" stroke="black" fill="none" stroke-linecap="round"></path><path d="M 301.928,209.137 C 299.463,209.630 298.521,209.001 297.134,210.736" stroke-width="7.702" stroke="black" fill="none" stroke-linecap="round"></path><path d="M 297.134,210.736 C 295.325,212.998 295.171,214.034 295.536,217.131" stroke-width="7.887" stroke="black" fill="none" stroke-linecap="round"></path><path d="M 295.536,217.131 C 295.970,220.829 296.585,221.105 298.732,224.326" stroke-width="7.473" stroke="black" fill="none" stroke-linecap="round"></path><path d="M 298.732,224.326 C 300.580,227.100 300.958,226.920 303.526,229.122" stroke-width="6.714" stroke="black" fill="none" stroke-linecap="round"></path><path d="M 303.526,229.122 C 306.551,231.717 306.628,231.656 309.918,233.919" stroke-width="6.288" stroke="black" fill="none" stroke-linecap="round"></path><path d="M 309.918,233.919 C 313.020,236.053 312.955,236.238 316.310,237.916" stroke-width="6.251" stroke="black" fill="none" stroke-linecap="round"></path><path d="M 316.310,237.916 C 319.347,239.435 319.449,239.297 322.702,240.314" stroke-width="6.369" stroke="black" fill="none" stroke-linecap="round"></path><path d="M 322.702,240.314 C 325.841,241.295 325.849,241.742 329.094,241.913" stroke-width="6.451" stroke="black" fill="none" stroke-linecap="round"></path><path d="M 329.094,241.913 C 333.440,242.141 334.452,243.132 337.883,241.113" stroke-width="6.922" stroke="black" fill="none" stroke-linecap="round"></path><path d="M 337.883,241.113 C 341.243,239.135 340.766,237.741 342.677,233.919" stroke-width="7.097" stroke="black" fill="none" stroke-linecap="round"></path><path d="M 342.677,233.919 C 343.962,231.346 343.867,231.175 344.275,228.323" stroke-width="6.818" stroke="black" fill="none" stroke-linecap="round"></path><path d="M 344.275,228.323 C 344.666,225.580 344.089,225.513 344.275,222.727" stroke-width="6.785" stroke="black" fill="none" stroke-linecap="round"></path><path d="M 344.275,222.727 C 344.489,219.518 344.913,219.544 345.074,216.332" stroke-width="6.674" stroke="black" fill="none" stroke-linecap="round"></path><path d="M 345.074,216.332 C 345.313,211.550 345.074,211.535 345.074,206.739" stroke-width="6.880" stroke="black" fill="none" stroke-linecap="round"></path><path d="M 345.074,206.739 C 345.074,203.541 343.770,201.431 345.074,200.344" stroke-width="7.352" stroke="black" fill="none" stroke-linecap="round"></path><path d="M 345.074,200.344 C 346.167,199.432 348.070,200.943 349.868,202.742" stroke-width="8.018" stroke="black" fill="none" stroke-linecap="round"></path><path d="M 349.868,202.742 C 351.666,204.541 351.066,205.140 352.265,207.538" stroke-width="7.157" stroke="black" fill="none" stroke-linecap="round"></path><path d="M 352.265,207.538 C 353.863,210.736 353.780,210.780 355.461,213.934" stroke-width="6.561" stroke="black" fill="none" stroke-linecap="round"></path><path d="M 355.461,213.934 C 356.976,216.776 357.314,216.618 358.657,219.529" stroke-width="6.537" stroke="black" fill="none" stroke-linecap="round"></path><path d="M 358.657,219.529 C 359.711,221.814 359.317,221.981 360.255,224.326" stroke-width="6.872" stroke="black" fill="none" stroke-linecap="round"></path><path d="M 360.255,224.326 C 361.714,227.977 363.225,231.070 363.451,231.520" stroke-width="7.171" stroke="black" fill="none" stroke-linecap="round"></path><path d="M 363.451,231.520 C 363.625,231.869 362.183,228.750 361.054,225.924" stroke-width="7.988" stroke="black" fill="none" stroke-linecap="round"></path><path d="M 361.054,225.924 C 359.786,222.755 359.617,222.797 358.657,219.529" stroke-width="6.733" stroke="black" fill="none" stroke-linecap="round"></path><path d="M 358.657,219.529 C 357.620,216.003 357.663,215.964 357.059,212.335" stroke-width="6.408" stroke="black" fill="none" stroke-linecap="round"></path><path d="M 357.059,212.335 C 356.465,208.770 356.460,208.748 356.260,205.140" stroke-width="6.341" stroke="black" fill="none" stroke-linecap="round"></path><path d="M 356.260,205.140 C 356.061,201.554 355.818,201.481 356.260,197.945" stroke-width="6.329" stroke="black" fill="none" stroke-linecap="round"></path><path d="M 356.260,197.945 C 356.617,195.086 357.003,195.130 357.858,192.350" stroke-width="6.652" stroke="black" fill="none" stroke-linecap="round"></path><path d="M 357.858,192.350 C 358.601,189.934 357.932,189.416 359.456,187.553" stroke-width="6.849" stroke="black" fill="none" stroke-linecap="round"></path><path d="M 359.456,187.553 C 361.528,185.020 361.989,184.168 365.049,183.556" stroke-width="7.258" stroke="black" fill="none" stroke-linecap="round"></path><path d="M 365.049,183.556 C 367.981,182.969 368.774,183.513 371.441,185.155" stroke-width="7.452" stroke="black" fill="none" stroke-linecap="round"></path><path d="M 371.441,185.155 C 373.967,186.711 373.667,187.395 375.436,189.951" stroke-width="6.896" stroke="black" fill="none" stroke-linecap="round"></path><path d="M 375.436,189.951 C 377.262,192.591 376.975,192.784 378.632,195.547" stroke-width="6.706" stroke="black" fill="none" stroke-linecap="round"></path><path d="M 378.632,195.547 C 380.570,198.780 380.781,198.660 382.627,201.942" stroke-width="6.283" stroke="black" fill="none" stroke-linecap="round"></path><path d="M 382.627,201.942 C 384.377,205.055 383.990,205.281 385.823,208.338" stroke-width="6.239" stroke="black" fill="none" stroke-linecap="round"></path><path d="M 385.823,208.338 C 387.585,211.277 387.605,211.318 389.818,213.934" stroke-width="6.356" stroke="black" fill="none" stroke-linecap="round"></path><path d="M 389.818,213.934 C 392.000,216.514 392.020,216.569 394.612,218.730" stroke-width="6.410" stroke="black" fill="none" stroke-linecap="round"></path><path d="M 394.612,218.730 C 396.814,220.566 396.821,220.734 399.406,221.928" stroke-width="6.690" stroke="black" fill="none" stroke-linecap="round"></path><path d="M 399.406,221.928 C 402.015,223.132 402.220,223.526 404.999,223.526" stroke-width="6.701" stroke="black" fill="none" stroke-linecap="round"></path><path d="M 404.999,223.526 C 407.413,223.526 407.804,223.387 409.793,221.928" stroke-width="6.797" stroke="black" fill="none" stroke-linecap="round"></path><path d="M 409.793,221.928 C 413.796,218.990 414.188,218.801 416.984,214.733" stroke-width="6.888" stroke="black" fill="none" stroke-linecap="round"></path><path d="M 416.984,214.733 C 418.583,212.406 417.783,211.935 418.582,209.137" stroke-width="6.759" stroke="black" fill="none" stroke-linecap="round"></path><path d="M 418.582,209.137 C 419.381,206.339 419.990,206.386 420.180,203.541" stroke-width="6.788" stroke="black" fill="none" stroke-linecap="round"></path><path d="M 420.180,203.541 C 420.390,200.391 420.011,200.300 419.381,197.146" stroke-width="6.602" stroke="black" fill="none" stroke-linecap="round"></path><path d="M 419.381,197.146 C 418.413,192.306 418.538,192.218 416.984,187.553" stroke-width="6.825" stroke="black" fill="none" stroke-linecap="round"></path><path d="M 416.984,187.553 C 416.141,185.023 416.174,184.875 414.587,182.757" stroke-width="6.837" stroke="black" fill="none" stroke-linecap="round"></path><path d="M 414.587,182.757 C 412.579,180.078 410.618,176.969 409.793,177.960" stroke-width="7.290" stroke="black" fill="none" stroke-linecap="round"></path><path d="M 409.793,177.960 C 408.621,179.367 409.657,182.877 410.592,187.553" stroke-width="7.920" stroke="black" fill="none" stroke-linecap="round"></path><path d="M 410.592,187.553 C 411.255,190.871 411.721,190.778 412.989,193.948" stroke-width="6.888" stroke="black" fill="none" stroke-linecap="round"></path><path d="M 412.989,193.948 C 414.118,196.774 413.949,196.875 415.386,199.544" stroke-width="6.626" stroke="black" fill="none" stroke-linecap="round"></path><path d="M 415.386,199.544 C 416.746,202.071 416.677,202.223 418.582,204.341" stroke-width="6.692" stroke="black" fill="none" stroke-linecap="round"></path><path d="M 418.582,204.341 C 420.273,206.220 420.268,206.827 422.577,207.538" stroke-width="6.849" stroke="black" fill="none" stroke-linecap="round"></path><path d="M 422.577,207.538 C 425.461,208.426 426.582,208.932 428.969,207.538" stroke-width="7.364" stroke="black" fill="none" stroke-linecap="round"></path><path d="M 428.969,207.538 C 431.376,206.134 431.209,204.969 432.165,201.942" stroke-width="7.479" stroke="black" fill="none" stroke-linecap="round"></path><path d="M 432.165,201.942 C 433.606,197.375 433.304,197.174 433.763,192.350" stroke-width="7.136" stroke="black" fill="none" stroke-linecap="round"></path><path d="M 433.763,192.350 C 434.103,188.780 432.189,187.179 433.763,185.155" stroke-width="7.363" stroke="black" fill="none" stroke-linecap="round"></path><path d="M 433.763,185.155 C 434.986,183.582 436.977,184.044 439.356,185.155" stroke-width="8.142" stroke="black" fill="none" stroke-linecap="round"></path><path d="M 439.356,185.155 C 442.969,186.842 442.651,187.846 445.748,190.751" stroke-width="6.608" stroke="black" fill="none" stroke-linecap="round"></path><path d="M 445.748,190.751 C 449.043,193.842 449.171,193.751 452.140,197.146" stroke-width="5.983" stroke="black" fill="none" stroke-linecap="round"></path><path d="M 452.140,197.146 C 454.764,200.147 454.571,200.318 456.934,203.541" stroke-width="6.080" stroke="black" fill="none" stroke-linecap="round"></path><path d="M 456.934,203.541 C 458.966,206.314 459.414,206.106 460.929,209.137" stroke-width="6.306" stroke="black" fill="none" stroke-linecap="round"></path><path d="M 460.929,209.137 C 462.211,211.702 463.673,212.439 462.527,214.733" stroke-width="6.580" stroke="black" fill="none" stroke-linecap="round"></path><path d="M 462.527,214.733 C 460.078,219.634 458.835,220.126 453.738,223.526" stroke-width="6.623" stroke="black" fill="none" stroke-linecap="round"></path><path d="M 453.738,223.526 C 446.850,228.120 446.364,227.673 438.557,230.721" stroke-width="4.884" stroke="black" fill="none" stroke-linecap="round"></path><path d="M 438.557,230.721 C 429.984,234.068 429.844,233.783 420.979,236.317" stroke-width="4.500" stroke="black" fill="none" stroke-linecap="round"></path><path d="M 420.979,236.317 C 410.268,239.378 410.257,239.392 399.406,241.913" stroke-width="4.500" stroke="black" fill="none" stroke-linecap="round"></path><path d="M 399.406,241.913 C 387.885,244.588 387.892,244.732 376.235,246.709" stroke-width="4.500" stroke="black" fill="none" stroke-linecap="round"></path><path d="M 376.235,246.709 C 364.321,248.729 364.250,248.308 352.265,249.907" stroke-width="4.500" stroke="black" fill="none" stroke-linecap="round"></path><path d="M 352.265,249.907 C 340.280,251.505 340.316,251.860 328.295,253.104" stroke-width="4.500" stroke="black" fill="none" stroke-linecap="round"></path><path d="M 328.295,253.104 C 317.145,254.258 317.108,253.889 305.923,254.703" stroke-width="4.500" stroke="black" fill="none" stroke-linecap="round"></path><path d="M 305.923,254.703 C 295.135,255.488 295.136,255.502 284.350,256.302" stroke-width="4.500" stroke="black" fill="none" stroke-linecap="round"></path><path d="M 284.350,256.302 C 273.563,257.101 273.574,257.301 262.777,257.901" stroke-width="4.500" stroke="black" fill="none" stroke-linecap="round"></path><path d="M 262.777,257.901 C 252.001,258.500 251.956,257.873 241.203,258.700" stroke-width="4.500" stroke="black" fill="none" stroke-linecap="round"></path><path d="M 241.203,258.700 C 231.182,259.471 231.230,260.034 221.228,261.098" stroke-width="4.500" stroke="black" fill="none" stroke-linecap="round"></path><path d="M 221.228,261.098 C 212.454,262.032 212.426,261.773 203.650,262.697" stroke-width="4.500" stroke="black" fill="none" stroke-linecap="round"></path><path d="M 203.650,262.697 C 197.245,263.372 197.279,263.821 190.866,264.296" stroke-width="4.791" stroke="black" fill="none" stroke-linecap="round"></path><path d="M 190.866,264.296 C 186.492,264.620 184.621,266.147 182.077,264.296" stroke-width="5.537" stroke="black" fill="none" stroke-linecap="round"></path><path d="M 182.077,264.296 C 180.227,262.949 179.950,259.836 182.077,257.901" stroke-width="7.066" stroke="black" fill="none" stroke-linecap="round"></path><path d="M 182.077,257.901 C 188.739,251.842 190.704,252.786 199.655,248.308" stroke-width="4.720" stroke="black" fill="none" stroke-linecap="round"></path><path d="M 199.655,248.308 C 213.875,241.194 213.747,240.819 228.419,234.718" stroke-width="4.500" stroke="black" fill="none" stroke-linecap="round"></path><path d="M 228.419,234.718 C 244.509,228.028 244.776,228.659 261.179,222.727" stroke-width="4.500" stroke="black" fill="none" stroke-linecap="round"></path><path d="M 261.179,222.727 C 277.934,216.668 277.685,215.813 294.737,210.736" stroke-width="4.500" stroke="black" fill="none" stroke-linecap="round"></path><path d="M 294.737,210.736 C 311.243,205.821 311.434,206.357 328.295,202.742" stroke-width="4.500" stroke="black" fill="none" stroke-linecap="round"></path><path d="M 328.295,202.742 C 344.992,199.162 345.030,199.292 361.853,196.347" stroke-width="4.500" stroke="black" fill="none" stroke-linecap="round"></path><path d="M 361.853,196.347 C 376.990,193.696 377.027,193.904 392.215,191.550" stroke-width="4.500" stroke="black" fill="none" stroke-linecap="round"></path><path d="M 392.215,191.550 C 405.391,189.508 405.386,189.470 418.582,187.553" stroke-width="4.500" stroke="black" fill="none" stroke-linecap="round"></path><path d="M 418.582,187.553 C 430.155,185.872 430.138,185.696 441.753,184.356" stroke-width="4.500" stroke="black" fill="none" stroke-linecap="round"></path><path d="M 441.753,184.356 C 450.912,183.298 450.933,183.447 460.130,182.757" stroke-width="4.500" stroke="black" fill="none" stroke-linecap="round"></path><path d="M 460.130,182.757 C 466.913,182.248 466.974,182.735 473.713,181.957" stroke-width="4.685" stroke="black" fill="none" stroke-linecap="round"></path><path d="M 473.713,181.957 C 477.361,181.536 477.308,181.158 480.904,180.359" stroke-width="5.759" stroke="black" fill="none" stroke-linecap="round"></path><circle r="3" cx="497.68292236328125" cy="133.99310302734375" fill="black"></circle></svg>