<svg xmlns="http://www.w3.org/2000/svg" xmlns:xlink="http://www.w3.org/1999/xlink" viewBox="0 0 576 416" width="576" height="416"><path d="M 49.443,271.491 C 48.644,266.694 48.352,266.718 47.845,261.898" stroke-width="7.921" stroke="black" fill="none" stroke-linecap="round"></path><path d="M 47.845,261.898 C 47.553,259.124 47.845,259.100 47.845,256.302" stroke-width="7.000" stroke="black" fill="none" stroke-linecap="round"></path><path d="M 47.845,256.302 C 47.845,248.708 47.845,248.708 47.845,241.113" stroke-width="5.142" stroke="black" fill="none" stroke-linecap="round"></path><path d="M 47.845,241.113 C 47.845,230.721 48.005,230.719 47.845,220.329" stroke-width="4.500" stroke="black" fill="none" stroke-linecap="round"></path><path d="M 47.845,220.329 C 47.605,204.738 47.787,204.722 47.046,189.152" stroke-width="4.500" stroke="black" fill="none" stroke-linecap="round"></path><path d="M 47.046,189.152 C 46.589,179.541 46.282,179.556 45.448,169.966" stroke-width="4.500" stroke="black" fill="none" stroke-linecap="round"></path><path d="M 45.448,169.966 C 44.684,161.170 44.302,161.189 43.850,152.379" stroke-width="4.500" stroke="black" fill="none" stroke-linecap="round"></path><path d="M 43.850,152.379 C 43.503,145.600 43.850,145.584 43.850,138.790" stroke-width="4.819" stroke="black" fill="none" stroke-linecap="round"></path><path d="M 43.850,138.790 C 43.850,133.993 43.850,133.993 43.850,129.197" stroke-width="5.510" stroke="black" fill="none" stroke-linecap="round"></path><path d="M 43.850,129.197 C 43.850,126.399 42.692,123.601 43.850,123.601" stroke-width="6.273" stroke="black" fill="none" stroke-linecap="round"></path><path d="M 43.850,123.601 C 45.488,123.601 47.602,125.797 49.443,129.197" stroke-width="7.238" stroke="black" fill="none" stroke-linecap="round"></path><path d="M 49.443,129.197 C 52.796,135.390 52.109,135.907 54.237,142.787" stroke-width="5.401" stroke="black" fill="none" stroke-linecap="round"></path><path d="M 54.237,142.787 C 57.302,152.694 56.671,152.895 59.830,162.772" stroke-width="4.500" stroke="black" fill="none" stroke-linecap="round"></path><path d="M 59.830,162.772 C 63.063,172.880 63.477,172.746 67.021,182.757" stroke-width="4.500" stroke="black" fill="none" stroke-linecap="round"></path><path d="M 67.021,182.757 C 70.269,191.932 70.021,192.023 73.413,201.143" stroke-width="4.500" stroke="black" fill="none" stroke-linecap="round"></path><path d="M 73.413,201.143 C 76.413,209.210 75.974,209.464 79.805,217.131" stroke-width="4.500" stroke="black" fill="none" stroke-linecap="round"></path><path d="M 79.805,217.131 C 82.765,223.054 82.852,223.200 86.996,228.323" stroke-width="4.826" stroke="black" fill="none" stroke-linecap="round"></path><path d="M 86.996,228.323 C 89.643,231.594 89.692,232.686 93.388,233.919" stroke-width="5.593" stroke="black" fill="none" stroke-linecap="round"></path><path d="M 93.388,233.919 C 96.883,235.084 98.045,234.787 101.378,233.119" stroke-width="5.947" stroke="black" fill="none" stroke-linecap="round"></path><path d="M 101.378,233.119 C 104.437,231.589 104.399,230.717 106.172,227.523" stroke-width="6.175" stroke="black" fill="none" stroke-linecap="round"></path><path d="M 106.172,227.523 C 110.391,219.925 110.605,219.815 113.363,211.535" stroke-width="4.841" stroke="black" fill="none" stroke-linecap="round"></path><path d="M 113.363,211.535 C 116.597,201.829 116.794,201.684 118.157,191.550" stroke-width="4.500" stroke="black" fill="none" stroke-linecap="round"></path><path d="M 118.157,191.550 C 119.590,180.900 119.172,180.743 118.956,169.966" stroke-width="4.500" stroke="black" fill="none" stroke-linecap="round"></path><path d="M 118.956,169.966 C 118.772,160.758 118.550,160.722 117.358,151.580" stroke-width="4.500" stroke="black" fill="none" stroke-linecap="round"></path><path d="M 117.358,151.580 C 116.153,142.336 115.831,142.374 114.162,133.194" stroke-width="4.500" stroke="black" fill="none" stroke-linecap="round"></path><path d="M 114.162,133.194 C 112.635,124.787 112.108,124.857 110.966,116.406" stroke-width="4.500" stroke="black" fill="none" stroke-linecap="round"></path><path d="M 110.966,116.406 C 110.110,110.069 110.640,110.005 110.167,103.616" stroke-width="4.809" stroke="black" fill="none" stroke-linecap="round"></path><path d="M 110.167,103.616 C 109.841,99.213 108.918,99.104 109.368,94.822" stroke-width="5.608" stroke="black" fill="none" stroke-linecap="round"></path><path d="M 109.368,94.822 C 109.717,91.510 110.567,91.625 111.765,88.427" stroke-width="6.153" stroke="black" fill="none" stroke-linecap="round"></path><path d="M 152.514,156.376 C 153.313,151.180 152.475,150.897 154.112,145.984" stroke-width="7.903" stroke="black" fill="none" stroke-linecap="round"></path><path d="M 154.112,145.984 C 155.672,141.304 155.724,140.937 158.906,137.191" stroke-width="6.190" stroke="black" fill="none" stroke-linecap="round"></path><path d="M 158.906,137.191 C 162.515,132.943 162.919,132.983 167.695,129.996" stroke-width="5.704" stroke="black" fill="none" stroke-linecap="round"></path><path d="M 167.695,129.996 C 172.507,126.987 172.646,126.664 178.082,125.200" stroke-width="5.377" stroke="black" fill="none" stroke-linecap="round"></path><path d="M 178.082,125.200 C 183.033,123.866 183.321,124.166 188.469,124.400" stroke-width="5.518" stroke="black" fill="none" stroke-linecap="round"></path><path d="M 188.469,124.400 C 192.110,124.566 192.844,123.923 195.660,125.999" stroke-width="6.098" stroke="black" fill="none" stroke-linecap="round"></path><path d="M 195.660,125.999 C 200.434,129.518 202.126,130.062 203.650,135.592" stroke-width="6.357" stroke="black" fill="none" stroke-linecap="round"></path><path d="M 203.650,135.592 C 205.322,141.653 204.187,142.774 202.052,149.182" stroke-width="5.331" stroke="black" fill="none" stroke-linecap="round"></path><path d="M 202.052,149.182 C 198.594,159.562 198.476,159.957 192.464,169.167" stroke-width="4.500" stroke="black" fill="none" stroke-linecap="round"></path><path d="M 192.464,169.167 C 185.692,179.542 185.994,180.622 176.484,188.353" stroke-width="4.500" stroke="black" fill="none" stroke-linecap="round"></path><path d="M 176.484,188.353 C 166.818,196.211 165.773,196.545 154.112,200.344" stroke-width="4.500" stroke="black" fill="none" stroke-linecap="round"></path><path d="M 154.112,200.344 C 148.594,202.141 147.561,201.175 142.127,199.544" stroke-width="4.738" stroke="black" fill="none" stroke-linecap="round"></path><path d="M 142.127,199.544 C 139.571,198.777 139.557,197.923 138.132,195.547" stroke-width="5.990" stroke="black" fill="none" stroke-linecap="round"></path><path d="M 138.132,195.547 C 135.962,191.928 136.092,191.682 134.936,187.553" stroke-width="6.058" stroke="black" fill="none" stroke-linecap="round"></path><path d="M 134.936,187.553 C 133.295,181.689 132.734,181.594 132.539,175.562" stroke-width="5.457" stroke="black" fill="none" stroke-linecap="round"></path><path d="M 132.539,175.562 C 132.334,169.204 132.230,168.844 134.137,162.772" stroke-width="5.216" stroke="black" fill="none" stroke-linecap="round"></path><path d="M 134.137,162.772 C 136.624,154.855 136.715,154.507 141.328,147.583" stroke-width="4.713" stroke="black" fill="none" stroke-linecap="round"></path><path d="M 141.328,147.583 C 146.303,140.118 147.321,140.788 153.313,133.993" stroke-width="4.500" stroke="black" fill="none" stroke-linecap="round"></path><path d="M 209.243,140.388 C 211.241,135.992 210.452,135.467 213.238,131.595" stroke-width="7.726" stroke="black" fill="none" stroke-linecap="round"></path><path d="M 213.238,131.595 C 217.643,125.474 217.957,125.467 223.625,120.403" stroke-width="5.363" stroke="black" fill="none" stroke-linecap="round"></path><path d="M 223.625,120.403 C 229.143,115.474 229.084,114.974 235.611,111.610" stroke-width="4.957" stroke="black" fill="none" stroke-linecap="round"></path><path d="M 235.611,111.610 C 242.267,108.179 242.671,108.697 249.993,106.813" stroke-width="4.816" stroke="black" fill="none" stroke-linecap="round"></path><path d="M 249.993,106.813 C 256.654,105.100 256.784,104.415 263.576,104.415" stroke-width="4.922" stroke="black" fill="none" stroke-linecap="round"></path><path d="M 263.576,104.415 C 270.367,104.415 270.739,104.599 277.159,106.813" stroke-width="4.954" stroke="black" fill="none" stroke-linecap="round"></path><path d="M 277.159,106.813 C 282.325,108.596 282.827,108.684 286.747,112.409" stroke-width="5.288" stroke="black" fill="none" stroke-linecap="round"></path><path d="M 286.747,112.409 C 290.817,116.278 291.378,116.718 293.139,122.002" stroke-width="5.340" stroke="black" fill="none" stroke-linecap="round"></path><path d="M 293.139,122.002 C 294.974,127.510 295.483,128.372 293.938,133.993" stroke-width="5.293" stroke="black" fill="none" stroke-linecap="round"></path><path d="M 293.938,133.993 C 291.088,144.360 290.477,144.881 284.350,153.978" stroke-width="4.500" stroke="black" fill="none" stroke-linecap="round"></path><path d="M 284.350,153.978 C 278.093,163.267 277.619,163.368 269.169,170.766" stroke-width="4.500" stroke="black" fill="none" stroke-linecap="round"></path><path d="M 269.169,170.766 C 261.639,177.358 261.294,177.394 252.390,181.957" stroke-width="4.500" stroke="black" fill="none" stroke-linecap="round"></path><path d="M 252.390,181.957 C 244.914,185.788 244.539,185.384 236.410,187.553" stroke-width="4.500" stroke="black" fill="none" stroke-linecap="round"></path><path d="M 236.410,187.553 C 232.554,188.582 232.405,188.512 228.419,188.353" stroke-width="5.459" stroke="black" fill="none" stroke-linecap="round"></path><path d="M 228.419,188.353 C 222.418,188.112 221.446,189.261 216.434,186.754" stroke-width="5.318" stroke="black" fill="none" stroke-linecap="round"></path><path d="M 216.434,186.754 C 212.657,184.864 212.446,183.662 210.841,179.559" stroke-width="5.685" stroke="black" fill="none" stroke-linecap="round"></path><path d="M 210.841,179.559 C 208.851,174.469 209.074,173.956 209.243,168.367" stroke-width="5.486" stroke="black" fill="none" stroke-linecap="round"></path><path d="M 209.243,168.367 C 209.474,160.766 209.339,160.442 211.640,153.179" stroke-width="4.931" stroke="black" fill="none" stroke-linecap="round"></path><path d="M 211.640,153.179 C 214.532,144.054 214.381,143.567 219.630,135.592" stroke-width="4.500" stroke="black" fill="none" stroke-linecap="round"></path><path d="M 219.630,135.592 C 225.168,127.179 225.584,127.032 233.214,120.403" stroke-width="4.500" stroke="black" fill="none" stroke-linecap="round"></path><path d="M 233.214,120.403 C 240.765,113.842 241.206,114.096 249.993,109.212" stroke-width="4.500" stroke="black" fill="none" stroke-linecap="round"></path><path d="M 249.993,109.212 C 259.183,104.103 259.412,104.402 269.169,100.418" stroke-width="4.500" stroke="black" fill="none" stroke-linecap="round"></path><path d="M 269.169,100.418 C 278.988,96.408 279.205,96.952 289.144,93.224" stroke-width="4.500" stroke="black" fill="none" stroke-linecap="round"></path><path d="M 289.144,93.224 C 298.381,89.758 298.457,89.915 307.521,86.029" stroke-width="4.500" stroke="black" fill="none" stroke-linecap="round"></path><path d="M 307.521,86.029 C 315.236,82.721 315.452,83.011 322.702,78.834" stroke-width="4.500" stroke="black" fill="none" stroke-linecap="round"></path><path d="M 322.702,78.834 C 328.635,75.416 329.107,75.623 333.888,70.840" stroke-width="4.786" stroke="black" fill="none" stroke-linecap="round"></path><path d="M 333.888,70.840 C 337.896,66.830 337.997,66.438 340.280,61.247" stroke-width="5.176" stroke="black" fill="none" stroke-linecap="round"></path><path d="M 340.280,61.247 C 342.392,56.445 342.273,56.111 342.677,50.855" stroke-width="5.500" stroke="black" fill="none" stroke-linecap="round"></path><path d="M 342.677,50.855 C 343.072,45.719 342.972,45.498 341.878,40.463" stroke-width="5.465" stroke="black" fill="none" stroke-linecap="round"></path><path d="M 341.878,40.463 C 340.974,36.304 340.681,36.247 338.682,32.469" stroke-width="6.563" stroke="black" fill="none" stroke-linecap="round"></path><path d="M 338.682,32.469 C 337.085,29.452 337.295,27.432 334.687,26.873" stroke-width="7.183" stroke="black" fill="none" stroke-linecap="round"></path><path d="M 334.687,26.873 C 331.702,26.233 330.439,27.617 327.496,30.071" stroke-width="7.270" stroke="black" fill="none" stroke-linecap="round"></path><path d="M 327.496,30.071 C 323.248,33.612 323.617,34.262 320.305,38.864" stroke-width="5.848" stroke="black" fill="none" stroke-linecap="round"></path><path d="M 320.305,38.864 C 316.426,44.254 315.648,44.010 313.114,50.056" stroke-width="5.161" stroke="black" fill="none" stroke-linecap="round"></path><path d="M 313.114,50.056 C 310.454,56.401 310.663,56.752 309.918,63.646" stroke-width="5.006" stroke="black" fill="none" stroke-linecap="round"></path><path d="M 309.918,63.646 C 309.065,71.541 308.869,71.764 309.918,79.634" stroke-width="4.836" stroke="black" fill="none" stroke-linecap="round"></path><path d="M 309.918,79.634 C 311.266,89.750 311.839,89.766 314.712,99.619" stroke-width="4.500" stroke="black" fill="none" stroke-linecap="round"></path><path d="M 314.712,99.619 C 317.432,108.951 317.600,108.931 321.104,118.005" stroke-width="4.500" stroke="black" fill="none" stroke-linecap="round"></path><path d="M 321.104,118.005 C 324.391,126.518 324.568,126.458 328.295,134.793" stroke-width="4.500" stroke="black" fill="none" stroke-linecap="round"></path><path d="M 328.295,134.793 C 331.359,141.646 331.331,141.668 334.687,148.382" stroke-width="4.628" stroke="black" fill="none" stroke-linecap="round"></path><path d="M 334.687,148.382 C 337.324,153.659 337.124,153.813 340.280,158.775" stroke-width="5.087" stroke="black" fill="none" stroke-linecap="round"></path><path d="M 340.280,158.775 C 342.717,162.606 342.514,163.057 345.873,165.969" stroke-width="5.604" stroke="black" fill="none" stroke-linecap="round"></path><path d="M 345.873,165.969 C 348.507,168.253 349.002,167.716 352.265,169.167" stroke-width="6.022" stroke="black" fill="none" stroke-linecap="round"></path><path d="M 398.607,121.203 C 389.418,120.403 389.313,118.640 380.230,119.604" stroke-width="7.903" stroke="black" fill="none" stroke-linecap="round"></path><path d="M 380.230,119.604 C 362.946,121.438 362.912,122.627 345.873,126.798" stroke-width="4.500" stroke="black" fill="none" stroke-linecap="round"></path><path d="M 345.873,126.798 C 325.359,131.820 325.417,132.113 305.124,137.990" stroke-width="4.500" stroke="black" fill="none" stroke-linecap="round"></path><path d="M 305.124,137.990 C 279.874,145.303 279.840,145.221 254.787,153.179" stroke-width="4.500" stroke="black" fill="none" stroke-linecap="round"></path><path d="M 254.787,153.179 C 229.503,161.209 229.478,161.173 204.449,169.966" stroke-width="4.500" stroke="black" fill="none" stroke-linecap="round"></path><path d="M 204.449,169.966 C 177.143,179.560 177.110,179.509 150.117,189.951" stroke-width="4.500" stroke="black" fill="none" stroke-linecap="round"></path><path d="M 150.117,189.951 C 117.185,202.692 116.929,202.167 84.599,216.332" stroke-width="4.500" stroke="black" fill="none" stroke-linecap="round"></path><path d="M 84.599,216.332 C 55.806,228.947 55.766,229.024 27.870,243.511" stroke-width="4.500" stroke="black" fill="none" stroke-linecap="round"></path><path d="M 27.870,243.511 C 3.431,256.204 3.384,256.292 -20.070,270.691" stroke-width="4.500" stroke="black" fill="none" stroke-linecap="round"></path><path d="M -20.070,270.691 C -31.773,277.876 -31.075,278.986 -42.442,286.679" stroke-width="4.500" stroke="black" fill="none" stroke-linecap="round"></path><path d="M -42.442,286.679 C -44.658,288.179 -47.606,290.189 -47.236,289.077" stroke-width="4.823" stroke="black" fill="none" stroke-linecap="round"></path><path d="M -47.236,289.077 C -46.408,286.592 -44.494,283.459 -40.045,279.485" stroke-width="5.973" stroke="black" fill="none" stroke-linecap="round"></path><path d="M -40.045,279.485 C -22.122,263.474 -21.682,263.754 -2.492,249.107" stroke-width="4.500" stroke="black" fill="none" stroke-linecap="round"></path><path d="M -2.492,249.107 C 17.070,234.177 17.097,234.152 37.458,220.329" stroke-width="4.500" stroke="black" fill="none" stroke-linecap="round"></path><path d="M 37.458,220.329 C 61.841,203.775 61.922,203.848 86.996,188.353" stroke-width="4.500" stroke="black" fill="none" stroke-linecap="round"></path><path d="M 86.996,188.353 C 116.254,170.273 116.467,170.608 146.122,153.179" stroke-width="4.500" stroke="black" fill="none" stroke-linecap="round"></path><path d="M 146.122,153.179 C 173.595,137.033 173.679,137.175 201.253,121.203" stroke-width="4.500" stroke="black" fill="none" stroke-linecap="round"></path><path d="M 201.253,121.203 C 226.812,106.398 226.918,106.578 252.390,91.625" stroke-width="4.500" stroke="black" fill="none" stroke-linecap="round"></path><path d="M 252.390,91.625 C 275.258,78.199 275.507,78.580 297.933,64.445" stroke-width="4.500" stroke="black" fill="none" stroke-linecap="round"></path><path d="M 297.933,64.445 C 315.457,53.399 315.202,52.986 332.290,41.262" stroke-width="4.500" stroke="black" fill="none" stroke-linecap="round"></path><path d="M 332.290,41.262 C 343.167,33.800 343.671,34.342 353.863,26.074" stroke-width="4.500" stroke="black" fill="none" stroke-linecap="round"></path><path d="M 353.863,26.074 C 358.452,22.350 361.604,19.764 361.853,17.280" stroke-width="4.500" stroke="black" fill="none" stroke-linecap="round"></path><path d="M 361.853,17.280 C 362.004,15.767 358.054,16.864 354.662,18.080" stroke-width="6.139" stroke="black" fill="none" stroke-linecap="round"></path><path d="M 354.662,18.080 C 331.287,26.457 331.279,26.767 308.320,36.466" stroke-width="4.500" stroke="black" fill="none" stroke-linecap="round"></path><path d="M 308.320,36.466 C 277.346,49.550 277.302,49.507 246.797,63.646" stroke-width="4.500" stroke="black" fill="none" stroke-linecap="round"></path><path d="M 246.797,63.646 C 222.970,74.688 222.445,73.900 199.655,86.828" stroke-width="4.500" stroke="black" fill="none" stroke-linecap="round"></path><path d="M 199.655,86.828 C 183.693,95.884 183.918,96.513 169.293,107.613" stroke-width="4.500" stroke="black" fill="none" stroke-linecap="round"></path><path d="M 169.293,107.613 C 160.747,114.100 160.733,114.303 153.313,122.002" stroke-width="4.500" stroke="black" fill="none" stroke-linecap="round"></path><path d="M 153.313,122.002 C 149.947,125.495 149.238,125.694 147.720,129.996" stroke-width="4.762" stroke="black" fill="none" stroke-linecap="round"></path><path d="M 147.720,129.996 C 146.841,132.489 146.974,133.401 148.519,135.592" stroke-width="6.001" stroke="black" fill="none" stroke-linecap="round"></path><path d="M 148.519,135.592 C 151.768,140.196 152.434,140.242 157.308,143.586" stroke-width="6.486" stroke="black" fill="none" stroke-linecap="round"></path><path d="M 157.308,143.586 C 166.417,149.835 166.603,149.748 176.484,154.778" stroke-width="4.500" stroke="black" fill="none" stroke-linecap="round"></path><path d="M 176.484,154.778 C 189.375,161.339 189.909,160.294 202.851,166.769" stroke-width="4.500" stroke="black" fill="none" stroke-linecap="round"></path><path d="M 202.851,166.769 C 214.678,172.685 214.437,173.164 226.022,179.559" stroke-width="4.500" stroke="black" fill="none" stroke-linecap="round"></path><circle r="3" cx="254.78652954101562" cy="249.10723876953125" fill="black"></circle></svg>