<svg xmlns="http://www.w3.org/2000/svg" xmlns:xlink="http://www.w3.org/1999/xlink" viewBox="0 0 576 416" width="576" height="416"><path d="M 97.383,107.213 C 97.383,113.209 97.597,113.217 97.383,119.204" stroke-width="8.412" stroke="black" fill="none" stroke-linecap="round"></path><path d="M 97.383,119.204 C 97.198,124.409 96.711,124.390 96.584,129.597" stroke-width="6.093" stroke="black" fill="none" stroke-linecap="round"></path><path d="M 96.584,129.597 C 96.312,140.778 96.584,140.788 96.584,151.980" stroke-width="5.611" stroke="black" fill="none" stroke-linecap="round"></path><path d="M 96.584,151.980 C 96.584,154.778 96.404,154.785 96.584,157.576" stroke-width="6.434" stroke="black" fill="none" stroke-linecap="round"></path><path d="M 96.584,157.576 C 97.203,167.176 97.425,167.165 98.182,176.762" stroke-width="4.587" stroke="black" fill="none" stroke-linecap="round"></path><path d="M 98.182,176.762 C 98.624,182.354 98.582,182.357 98.981,187.953" stroke-width="5.141" stroke="black" fill="none" stroke-linecap="round"></path><path d="M 98.981,187.953 C 99.381,193.549 99.556,193.543 99.780,199.145" stroke-width="5.417" stroke="black" fill="none" stroke-linecap="round"></path><path d="M 99.780,199.145 C 99.956,203.535 99.780,203.542 99.780,207.938" stroke-width="5.767" stroke="black" fill="none" stroke-linecap="round"></path><path d="M 99.780,207.938 C 99.780,211.935 99.780,211.935 99.780,215.932" stroke-width="6.011" stroke="black" fill="none" stroke-linecap="round"></path><path d="M 99.780,215.932 C 99.780,218.730 99.954,218.740 99.780,221.528" stroke-width="6.585" stroke="black" fill="none" stroke-linecap="round"></path><path d="M 99.780,221.528 C 99.555,225.135 99.575,228.723 98.981,228.723" stroke-width="7.123" stroke="black" fill="none" stroke-linecap="round"></path><path d="M 98.981,228.723 C 98.377,228.723 97.811,225.166 97.383,221.528" stroke-width="7.967" stroke="black" fill="none" stroke-linecap="round"></path><path d="M 97.383,221.528 C 97.012,218.371 97.571,218.320 97.383,215.133" stroke-width="6.911" stroke="black" fill="none" stroke-linecap="round"></path><path d="M 97.383,215.133 C 97.171,211.525 96.944,211.540 96.584,207.938" stroke-width="6.481" stroke="black" fill="none" stroke-linecap="round"></path><path d="M 96.584,207.938 C 96.145,203.546 95.985,203.551 95.785,199.145" stroke-width="6.080" stroke="black" fill="none" stroke-linecap="round"></path><path d="M 95.785,199.145 C 95.586,194.757 95.785,194.748 95.785,190.351" stroke-width="6.056" stroke="black" fill="none" stroke-linecap="round"></path><path d="M 95.785,190.351 C 95.785,185.555 95.785,185.555 95.785,180.759" stroke-width="5.749" stroke="black" fill="none" stroke-linecap="round"></path><path d="M 95.785,180.759 C 95.785,176.362 95.785,176.362 95.785,171.965" stroke-width="5.790" stroke="black" fill="none" stroke-linecap="round"></path><path d="M 95.785,171.965 C 95.785,167.568 95.566,167.556 95.785,163.172" stroke-width="5.967" stroke="black" fill="none" stroke-linecap="round"></path><path d="M 95.785,163.172 C 95.966,159.562 96.372,159.585 96.584,155.977" stroke-width="6.205" stroke="black" fill="none" stroke-linecap="round"></path><path d="M 96.584,155.977 C 96.772,152.790 96.385,152.767 96.584,149.582" stroke-width="6.435" stroke="black" fill="none" stroke-linecap="round"></path><path d="M 96.584,149.582 C 96.785,146.372 96.753,146.337 97.383,143.187" stroke-width="6.499" stroke="black" fill="none" stroke-linecap="round"></path><path d="M 97.383,143.187 C 97.952,140.342 98.203,140.394 98.981,137.591" stroke-width="6.642" stroke="black" fill="none" stroke-linecap="round"></path><path d="M 98.981,137.591 C 100.200,133.200 99.463,132.843 101.378,128.797" stroke-width="6.954" stroke="black" fill="none" stroke-linecap="round"></path><path d="M 101.378,128.797 C 103.058,125.249 103.297,125.058 106.172,122.402" stroke-width="7.184" stroke="black" fill="none" stroke-linecap="round"></path><path d="M 106.172,122.402 C 108.490,120.261 108.767,120.263 111.765,119.204" stroke-width="7.423" stroke="black" fill="none" stroke-linecap="round"></path><path d="M 111.765,119.204 C 115.558,117.865 115.731,117.807 119.755,117.606" stroke-width="7.337" stroke="black" fill="none" stroke-linecap="round"></path><path d="M 119.755,117.606 C 123.721,117.407 123.963,117.270 127.745,118.405" stroke-width="7.297" stroke="black" fill="none" stroke-linecap="round"></path><path d="M 127.745,118.405 C 131.953,119.668 132.274,119.708 135.735,122.402" stroke-width="7.236" stroke="black" fill="none" stroke-linecap="round"></path><path d="M 135.735,122.402 C 139.465,125.304 139.557,125.622 142.127,129.597" stroke-width="7.011" stroke="black" fill="none" stroke-linecap="round"></path><path d="M 142.127,129.597 C 143.951,132.417 143.389,132.772 144.524,135.992" stroke-width="6.503" stroke="black" fill="none" stroke-linecap="round"></path><path d="M 144.524,135.992 C 145.786,139.567 146.440,139.456 146.921,143.187" stroke-width="6.383" stroke="black" fill="none" stroke-linecap="round"></path><path d="M 146.921,143.187 C 148.038,151.847 147.720,151.984 147.720,160.773" stroke-width="6.059" stroke="black" fill="none" stroke-linecap="round"></path><path d="M 147.720,160.773 C 147.720,166.773 147.539,166.792 146.921,172.764" stroke-width="5.486" stroke="black" fill="none" stroke-linecap="round"></path><path d="M 146.921,172.764 C 146.340,178.383 146.182,178.370 145.323,183.956" stroke-width="5.429" stroke="black" fill="none" stroke-linecap="round"></path><path d="M 145.323,183.956 C 144.584,188.762 144.716,188.792 143.725,193.549" stroke-width="5.633" stroke="black" fill="none" stroke-linecap="round"></path><path d="M 143.725,193.549 C 142.718,198.385 142.685,198.391 141.328,203.142" stroke-width="5.673" stroke="black" fill="none" stroke-linecap="round"></path><path d="M 141.328,203.142 C 140.288,206.785 140.062,206.718 138.931,210.336" stroke-width="6.048" stroke="black" fill="none" stroke-linecap="round"></path><path d="M 138.931,210.336 C 138.064,213.113 138.373,213.228 137.333,215.932" stroke-width="6.424" stroke="black" fill="none" stroke-linecap="round"></path><path d="M 137.333,215.932 C 136.375,218.424 136.451,218.540 134.936,220.729" stroke-width="6.773" stroke="black" fill="none" stroke-linecap="round"></path><path d="M 134.936,220.729 C 132.855,223.736 132.832,223.857 130.142,226.324" stroke-width="7.198" stroke="black" fill="none" stroke-linecap="round"></path><path d="M 130.142,226.324 C 128.038,228.254 127.936,229.350 125.348,229.522" stroke-width="7.539" stroke="black" fill="none" stroke-linecap="round"></path><path d="M 125.348,229.522 C 121.944,229.749 120.705,229.477 118.157,227.124" stroke-width="8.026" stroke="black" fill="none" stroke-linecap="round"></path><path d="M 118.157,227.124 C 115.511,224.680 116.002,223.677 114.961,219.929" stroke-width="7.510" stroke="black" fill="none" stroke-linecap="round"></path><path d="M 114.961,219.929 C 114.004,216.483 113.559,216.153 114.162,212.735" stroke-width="7.447" stroke="black" fill="none" stroke-linecap="round"></path><path d="M 114.162,212.735 C 114.758,209.358 115.047,208.862 117.358,206.339" stroke-width="7.465" stroke="black" fill="none" stroke-linecap="round"></path><path d="M 117.358,206.339 C 119.441,204.066 120.015,203.325 122.951,203.142" stroke-width="7.536" stroke="black" fill="none" stroke-linecap="round"></path><path d="M 122.951,203.142 C 126.407,202.926 127.104,203.513 130.142,205.540" stroke-width="7.743" stroke="black" fill="none" stroke-linecap="round"></path><path d="M 130.142,205.540 C 133.096,207.510 132.524,208.351 134.936,211.136" stroke-width="7.497" stroke="black" fill="none" stroke-linecap="round"></path><path d="M 134.936,211.136 C 137.718,214.347 137.537,214.538 140.529,217.531" stroke-width="7.287" stroke="black" fill="none" stroke-linecap="round"></path><path d="M 140.529,217.531 C 142.331,219.334 142.457,219.225 144.524,220.729" stroke-width="6.953" stroke="black" fill="none" stroke-linecap="round"></path><path d="M 144.524,220.729 C 146.852,222.422 146.835,222.477 149.318,223.926" stroke-width="6.858" stroke="black" fill="none" stroke-linecap="round"></path><path d="M 149.318,223.926 C 151.629,225.275 151.645,225.296 154.112,226.324" stroke-width="6.847" stroke="black" fill="none" stroke-linecap="round"></path><path d="M 154.112,226.324 C 156.439,227.294 156.437,227.570 158.906,227.923" stroke-width="6.972" stroke="black" fill="none" stroke-linecap="round"></path><path d="M 158.906,227.923 C 162.030,228.370 162.102,227.923 165.298,227.923" stroke-width="6.664" stroke="black" fill="none" stroke-linecap="round"></path><path d="M 165.298,227.923 C 168.095,227.923 168.166,228.405 170.891,227.923" stroke-width="6.667" stroke="black" fill="none" stroke-linecap="round"></path><path d="M 170.891,227.923 C 174.957,227.205 175.104,227.205 178.881,225.525" stroke-width="7.049" stroke="black" fill="none" stroke-linecap="round"></path><path d="M 178.881,225.525 C 182.295,224.007 182.432,223.933 185.273,221.528" stroke-width="7.295" stroke="black" fill="none" stroke-linecap="round"></path><path d="M 185.273,221.528 C 187.626,219.537 188.215,219.472 189.268,216.732" stroke-width="7.594" stroke="black" fill="none" stroke-linecap="round"></path><path d="M 189.268,216.732 C 190.213,214.275 190.528,213.026 189.268,211.136" stroke-width="7.926" stroke="black" fill="none" stroke-linecap="round"></path><path d="M 189.268,211.136 C 188.131,209.429 186.459,208.941 184.474,209.537" stroke-width="8.361" stroke="black" fill="none" stroke-linecap="round"></path><path d="M 184.474,209.537 C 182.464,210.140 182.106,211.216 181.278,213.534" stroke-width="8.367" stroke="black" fill="none" stroke-linecap="round"></path><path d="M 181.278,213.534 C 180.108,216.812 180.270,217.172 180.479,220.729" stroke-width="8.021" stroke="black" fill="none" stroke-linecap="round"></path><path d="M 180.479,220.729 C 180.670,223.967 181.096,223.983 182.077,227.124" stroke-width="7.650" stroke="black" fill="none" stroke-linecap="round"></path><path d="M 182.077,227.124 C 183.094,230.378 182.396,230.960 184.474,233.519" stroke-width="7.566" stroke="black" fill="none" stroke-linecap="round"></path><path d="M 184.474,233.519 C 187.589,237.355 188.134,237.366 192.464,239.914" stroke-width="7.100" stroke="black" fill="none" stroke-linecap="round"></path><path d="M 192.464,239.914 C 194.926,241.363 195.214,240.944 198.057,241.513" stroke-width="6.819" stroke="black" fill="none" stroke-linecap="round"></path><path d="M 198.057,241.513 C 201.206,242.143 201.257,241.887 204.449,242.313" stroke-width="6.612" stroke="black" fill="none" stroke-linecap="round"></path><path d="M 204.449,242.313 C 207.249,242.686 207.256,243.267 210.042,243.112" stroke-width="6.711" stroke="black" fill="none" stroke-linecap="round"></path><path d="M 210.042,243.112 C 214.448,242.867 214.529,242.646 218.832,241.513" stroke-width="6.997" stroke="black" fill="none" stroke-linecap="round"></path><path d="M 218.832,241.513 C 222.120,240.647 222.418,240.920 225.223,239.115" stroke-width="7.338" stroke="black" fill="none" stroke-linecap="round"></path><path d="M 225.223,239.115 C 228.011,237.322 228.010,236.997 230.017,234.319" stroke-width="7.453" stroke="black" fill="none" stroke-linecap="round"></path><path d="M 230.017,234.319 C 231.605,232.201 231.735,232.073 232.415,229.522" stroke-width="7.675" stroke="black" fill="none" stroke-linecap="round"></path><path d="M 232.415,229.522 C 233.333,226.078 234.390,224.917 233.214,222.328" stroke-width="7.844" stroke="black" fill="none" stroke-linecap="round"></path><path d="M 233.214,222.328 C 232.392,220.520 229.740,219.785 228.419,220.729" stroke-width="8.449" stroke="black" fill="none" stroke-linecap="round"></path><path d="M 228.419,220.729 C 226.943,221.784 227.457,223.542 227.620,226.324" stroke-width="8.438" stroke="black" fill="none" stroke-linecap="round"></path><path d="M 227.620,226.324 C 227.856,230.337 227.941,230.485 229.218,234.319" stroke-width="7.936" stroke="black" fill="none" stroke-linecap="round"></path><path d="M 229.218,234.319 C 230.338,237.680 230.282,237.940 232.415,240.714" stroke-width="7.892" stroke="black" fill="none" stroke-linecap="round"></path><path d="M 232.415,240.714 C 234.277,243.136 234.579,243.092 237.208,244.711" stroke-width="7.663" stroke="black" fill="none" stroke-linecap="round"></path><path d="M 237.208,244.711 C 239.772,246.289 239.867,246.457 242.802,247.109" stroke-width="7.113" stroke="black" fill="none" stroke-linecap="round"></path><path d="M 242.802,247.109 C 247.058,248.055 247.365,248.406 251.591,247.908" stroke-width="7.104" stroke="black" fill="none" stroke-linecap="round"></path><path d="M 251.591,247.908 C 254.157,247.606 254.197,247.025 256.385,245.510" stroke-width="7.560" stroke="black" fill="none" stroke-linecap="round"></path><path d="M 256.385,245.510 C 259.391,243.428 259.486,243.398 261.978,240.714" stroke-width="7.498" stroke="black" fill="none" stroke-linecap="round"></path><path d="M 261.978,240.714 C 264.680,237.802 264.663,237.694 266.772,234.319" stroke-width="7.319" stroke="black" fill="none" stroke-linecap="round"></path><path d="M 266.772,234.319 C 268.658,231.299 268.457,231.162 269.968,227.923" stroke-width="7.401" stroke="black" fill="none" stroke-linecap="round"></path><path d="M 269.968,227.923 C 271.254,225.166 271.846,221.809 272.365,222.328" stroke-width="7.837" stroke="black" fill="none" stroke-linecap="round"></path><path d="M 272.365,222.328 C 273.045,223.008 272.365,226.325 272.365,230.322" stroke-width="8.355" stroke="black" fill="none" stroke-linecap="round"></path><path d="M 272.365,230.322 C 272.365,234.718 272.365,234.718 272.365,239.115" stroke-width="7.440" stroke="black" fill="none" stroke-linecap="round"></path><path d="M 272.365,239.115 C 272.365,243.512 272.365,243.512 272.365,247.908" stroke-width="7.235" stroke="black" fill="none" stroke-linecap="round"></path><path d="M 272.365,247.908 C 272.365,251.506 271.923,254.661 272.365,255.103" stroke-width="7.667" stroke="black" fill="none" stroke-linecap="round"></path><path d="M 272.365,255.103 C 272.722,255.461 273.297,252.337 273.963,249.507" stroke-width="8.284" stroke="black" fill="none" stroke-linecap="round"></path><path d="M 273.963,249.507 C 274.895,245.543 274.226,245.327 275.561,241.513" stroke-width="7.570" stroke="black" fill="none" stroke-linecap="round"></path><path d="M 275.561,241.513 C 277.023,237.333 276.863,236.983 279.556,233.519" stroke-width="7.254" stroke="black" fill="none" stroke-linecap="round"></path><path d="M 279.556,233.519 C 282.456,229.789 282.724,229.583 286.747,227.124" stroke-width="7.085" stroke="black" fill="none" stroke-linecap="round"></path><path d="M 286.747,227.124 C 289.915,225.187 290.392,224.726 293.938,224.726" stroke-width="7.275" stroke="black" fill="none" stroke-linecap="round"></path><path d="M 293.938,224.726 C 296.784,224.726 297.493,225.085 299.531,227.124" stroke-width="7.522" stroke="black" fill="none" stroke-linecap="round"></path><path d="M 299.531,227.124 C 302.287,229.881 302.121,230.504 303.526,234.319" stroke-width="7.680" stroke="black" fill="none" stroke-linecap="round"></path><path d="M 303.526,234.319 C 304.917,238.098 304.520,238.286 305.124,242.313" stroke-width="7.381" stroke="black" fill="none" stroke-linecap="round"></path><path d="M 305.124,242.313 C 305.718,246.280 305.502,246.312 305.923,250.307" stroke-width="7.338" stroke="black" fill="none" stroke-linecap="round"></path><path d="M 305.923,250.307 C 306.301,253.906 306.057,253.956 306.722,257.501" stroke-width="7.368" stroke="black" fill="none" stroke-linecap="round"></path><path d="M 306.722,257.501 C 307.256,260.351 306.733,260.804 308.320,263.097" stroke-width="7.587" stroke="black" fill="none" stroke-linecap="round"></path><path d="M 308.320,263.097 C 310.328,266.000 310.678,266.680 313.913,267.894" stroke-width="7.779" stroke="black" fill="none" stroke-linecap="round"></path><path d="M 313.913,267.894 C 317.070,269.078 317.648,268.621 321.104,267.894" stroke-width="7.530" stroke="black" fill="none" stroke-linecap="round"></path><path d="M 321.104,267.894 C 325.239,267.023 325.365,266.768 329.094,264.696" stroke-width="7.313" stroke="black" fill="none" stroke-linecap="round"></path><path d="M 329.094,264.696 C 332.556,262.771 333.178,262.978 335.486,259.899" stroke-width="7.266" stroke="black" fill="none" stroke-linecap="round"></path><path d="M 335.486,259.899 C 337.972,256.583 337.390,255.997 338.682,251.905" stroke-width="7.207" stroke="black" fill="none" stroke-linecap="round"></path><path d="M 338.682,251.905 C 339.787,248.403 340.066,248.336 340.280,244.711" stroke-width="7.339" stroke="black" fill="none" stroke-linecap="round"></path><path d="M 340.280,244.711 C 340.466,241.541 340.479,238.515 339.481,238.316" stroke-width="7.783" stroke="black" fill="none" stroke-linecap="round"></path><path d="M 339.481,238.316 C 338.482,238.116 337.174,240.887 336.285,243.911" stroke-width="8.296" stroke="black" fill="none" stroke-linecap="round"></path><path d="M 336.285,243.911 C 335.176,247.682 335.696,247.899 335.486,251.905" stroke-width="7.558" stroke="black" fill="none" stroke-linecap="round"></path><path d="M 335.486,251.905 C 335.297,255.493 335.275,255.516 335.486,259.100" stroke-width="7.467" stroke="black" fill="none" stroke-linecap="round"></path><path d="M 335.486,259.100 C 335.674,262.311 334.922,265.106 336.285,265.495" stroke-width="7.826" stroke="black" fill="none" stroke-linecap="round"></path><path d="M 336.285,265.495 C 337.718,265.905 339.287,263.487 341.079,260.699" stroke-width="8.175" stroke="black" fill="none" stroke-linecap="round"></path><path d="M 341.079,260.699 C 342.883,257.891 342.459,257.558 343.476,254.304" stroke-width="7.687" stroke="black" fill="none" stroke-linecap="round"></path><path d="M 343.476,254.304 C 344.457,251.163 344.642,251.151 345.074,247.908" stroke-width="7.582" stroke="black" fill="none" stroke-linecap="round"></path><path d="M 345.074,247.908 C 345.441,245.156 343.819,242.671 345.074,242.313" stroke-width="7.974" stroke="black" fill="none" stroke-linecap="round"></path><path d="M 345.074,242.313 C 346.615,241.872 348.165,243.986 350.667,246.310" stroke-width="8.278" stroke="black" fill="none" stroke-linecap="round"></path><path d="M 350.667,246.310 C 353.758,249.182 353.372,249.593 356.260,252.705" stroke-width="7.493" stroke="black" fill="none" stroke-linecap="round"></path><path d="M 356.260,252.705 C 358.565,255.189 358.557,255.212 361.054,257.501" stroke-width="6.719" stroke="black" fill="none" stroke-linecap="round"></path><path d="M 361.054,257.501 C 363.351,259.608 363.433,259.522 365.848,261.498" stroke-width="6.623" stroke="black" fill="none" stroke-linecap="round"></path><path d="M 365.848,261.498 C 367.827,263.119 367.797,263.161 369.843,264.696" stroke-width="6.827" stroke="black" fill="none" stroke-linecap="round"></path><path d="M 369.843,264.696 C 372.591,266.758 375.436,267.591 375.436,268.693" stroke-width="7.275" stroke="black" fill="none" stroke-linecap="round"></path><path d="M 375.436,268.693 C 375.436,269.589 372.586,269.126 369.843,268.693" stroke-width="8.056" stroke="black" fill="none" stroke-linecap="round"></path><path d="M 369.843,268.693 C 364.995,267.927 365.039,267.530 360.255,266.295" stroke-width="6.241" stroke="black" fill="none" stroke-linecap="round"></path><path d="M 360.255,266.295 C 352.655,264.332 352.678,264.244 345.074,262.298" stroke-width="5.059" stroke="black" fill="none" stroke-linecap="round"></path><path d="M 345.074,262.298 C 335.499,259.847 335.520,259.754 325.898,257.501" stroke-width="4.500" stroke="black" fill="none" stroke-linecap="round"></path><path d="M 325.898,257.501 C 316.743,255.358 316.726,255.423 307.521,253.504" stroke-width="4.500" stroke="black" fill="none" stroke-linecap="round"></path><path d="M 307.521,253.504 C 297.550,251.426 297.568,251.312 287.546,249.507" stroke-width="4.500" stroke="black" fill="none" stroke-linecap="round"></path><path d="M 287.546,249.507 C 277.593,247.715 277.558,247.908 267.571,246.310" stroke-width="4.500" stroke="black" fill="none" stroke-linecap="round"></path><path d="M 267.571,246.310 C 257.583,244.711 257.583,244.711 247.596,243.112" stroke-width="4.500" stroke="black" fill="none" stroke-linecap="round"></path><path d="M 247.596,243.112 C 237.608,241.513 237.597,241.578 227.620,239.914" stroke-width="4.500" stroke="black" fill="none" stroke-linecap="round"></path><path d="M 227.620,239.914 C 218.421,238.380 218.432,238.316 209.243,236.717" stroke-width="4.500" stroke="black" fill="none" stroke-linecap="round"></path><path d="M 209.243,236.717 C 200.055,235.118 200.049,235.152 190.866,233.519" stroke-width="4.500" stroke="black" fill="none" stroke-linecap="round"></path><path d="M 190.866,233.519 C 182.071,231.955 182.108,231.725 173.288,230.322" stroke-width="4.500" stroke="black" fill="none" stroke-linecap="round"></path><path d="M 173.288,230.322 C 164.530,228.927 164.512,229.024 155.710,227.923" stroke-width="4.500" stroke="black" fill="none" stroke-linecap="round"></path><path d="M 155.710,227.923 C 148.532,227.026 148.507,227.222 141.328,226.324" stroke-width="4.709" stroke="black" fill="none" stroke-linecap="round"></path><path d="M 141.328,226.324 C 135.723,225.623 135.747,225.427 130.142,224.726" stroke-width="5.255" stroke="black" fill="none" stroke-linecap="round"></path><path d="M 130.142,224.726 C 126.159,224.228 126.156,224.162 122.152,223.926" stroke-width="5.827" stroke="black" fill="none" stroke-linecap="round"></path><path d="M 122.152,223.926 C 119.364,223.762 115.329,223.926 116.559,223.926" stroke-width="7.020" stroke="black" fill="none" stroke-linecap="round"></path><path d="M 116.559,223.926 C 119.723,223.926 123.750,223.926 130.941,223.926" stroke-width="7.020" stroke="black" fill="none" stroke-linecap="round"></path><path d="M 130.941,223.926 C 143.725,223.926 143.725,223.926 156.509,223.926" stroke-width="4.500" stroke="black" fill="none" stroke-linecap="round"></path><path d="M 156.509,223.926 C 172.489,223.926 172.491,223.743 188.469,223.926" stroke-width="4.500" stroke="black" fill="none" stroke-linecap="round"></path><path d="M 188.469,223.926 C 207.248,224.142 207.253,224.120 226.022,224.726" stroke-width="4.500" stroke="black" fill="none" stroke-linecap="round"></path><path d="M 226.022,224.726 C 244.406,225.319 244.413,225.292 262.777,226.324" stroke-width="4.500" stroke="black" fill="none" stroke-linecap="round"></path><path d="M 262.777,226.324 C 279.968,227.291 279.959,227.465 297.134,228.723" stroke-width="4.500" stroke="black" fill="none" stroke-linecap="round"></path><path d="M 297.134,228.723 C 312.718,229.864 312.706,230.038 328.295,231.121" stroke-width="4.500" stroke="black" fill="none" stroke-linecap="round"></path><path d="M 328.295,231.121 C 341.470,232.036 341.506,231.604 354.662,232.720" stroke-width="4.500" stroke="black" fill="none" stroke-linecap="round"></path><path d="M 354.662,232.720 C 365.076,233.603 365.026,234.192 375.436,235.118" stroke-width="4.500" stroke="black" fill="none" stroke-linecap="round"></path><path d="M 375.436,235.118 C 383.003,235.791 383.022,235.664 390.617,235.917" stroke-width="4.500" stroke="black" fill="none" stroke-linecap="round"></path><path d="M 390.617,235.917 C 395.007,236.064 395.029,235.674 399.406,235.917" stroke-width="5.373" stroke="black" fill="none" stroke-linecap="round"></path><circle r="3" cx="460.12982177734375" cy="239.11495971679688" fill="black"></circle></svg>