<svg xmlns="http://www.w3.org/2000/svg" xmlns:xlink="http://www.w3.org/1999/xlink" viewBox="0 0 576 416" width="576" height="416"><path d="M 349.069,307.464 C 348.270,297.871 348.025,297.885 347.471,288.278" stroke-width="8.105" stroke="black" fill="none" stroke-linecap="round"></path><path d="M 347.471,288.278 C 346.826,277.101 346.672,277.089 346.672,265.895" stroke-width="4.603" stroke="black" fill="none" stroke-linecap="round"></path><path d="M 346.672,265.895 C 346.672,247.511 346.260,247.459 347.471,229.122" stroke-width="4.500" stroke="black" fill="none" stroke-linecap="round"></path><path d="M 347.471,229.122 C 349.057,205.091 348.666,204.958 352.265,181.158" stroke-width="4.500" stroke="black" fill="none" stroke-linecap="round"></path><path d="M 352.265,181.158 C 355.857,157.394 355.560,157.153 361.853,133.993" stroke-width="4.500" stroke="black" fill="none" stroke-linecap="round"></path><path d="M 361.853,133.993 C 366.746,115.984 367.404,116.037 374.637,98.819" stroke-width="4.500" stroke="black" fill="none" stroke-linecap="round"></path><path d="M 374.637,98.819 C 378.990,88.457 378.833,88.125 385.024,78.834" stroke-width="4.500" stroke="black" fill="none" stroke-linecap="round"></path><path d="M 385.024,78.834 C 389.220,72.536 389.561,72.412 395.411,67.643" stroke-width="4.500" stroke="black" fill="none" stroke-linecap="round"></path><path d="M 395.411,67.643 C 400.347,63.618 400.719,63.736 406.597,61.247" stroke-width="4.895" stroke="black" fill="none" stroke-linecap="round"></path><path d="M 406.597,61.247 C 411.106,59.339 411.459,58.849 416.185,58.849" stroke-width="5.344" stroke="black" fill="none" stroke-linecap="round"></path><path d="M 416.185,58.849 C 419.449,58.849 421.219,58.919 422.577,61.247" stroke-width="6.708" stroke="black" fill="none" stroke-linecap="round"></path><path d="M 422.577,61.247 C 424.016,63.716 422.813,64.991 421.778,68.442" stroke-width="6.341" stroke="black" fill="none" stroke-linecap="round"></path><path d="M 421.778,68.442 C 418.019,80.979 417.866,81.025 412.989,93.224" stroke-width="4.500" stroke="black" fill="none" stroke-linecap="round"></path><path d="M 412.989,93.224 C 407.479,107.005 407.392,107.002 401.004,120.403" stroke-width="4.500" stroke="black" fill="none" stroke-linecap="round"></path><path d="M 401.004,120.403 C 395.007,132.983 394.800,132.895 388.220,145.185" stroke-width="4.500" stroke="black" fill="none" stroke-linecap="round"></path><path d="M 388.220,145.185 C 382.815,155.279 382.855,155.313 377.034,165.170" stroke-width="4.500" stroke="black" fill="none" stroke-linecap="round"></path><path d="M 377.034,165.170 C 372.468,172.900 372.136,172.701 367.446,180.359" stroke-width="4.500" stroke="black" fill="none" stroke-linecap="round"></path><path d="M 367.446,180.359 C 364.546,185.092 364.455,185.050 361.853,189.951" stroke-width="4.913" stroke="black" fill="none" stroke-linecap="round"></path><path d="M 361.853,189.951 C 357.664,197.841 357.775,197.905 353.863,205.939" stroke-width="4.533" stroke="black" fill="none" stroke-linecap="round"></path><path d="M 353.863,205.939 C 350.184,213.493 350.178,213.493 346.672,221.128" stroke-width="4.528" stroke="black" fill="none" stroke-linecap="round"></path><path d="M 346.672,221.128 C 343.386,228.282 343.434,228.304 340.280,235.517" stroke-width="4.628" stroke="black" fill="none" stroke-linecap="round"></path><path d="M 340.280,235.517 C 337.841,241.095 338.108,241.224 335.486,246.709" stroke-width="5.123" stroke="black" fill="none" stroke-linecap="round"></path><path d="M 335.486,246.709 C 333.713,250.417 333.426,250.274 331.491,253.904" stroke-width="5.747" stroke="black" fill="none" stroke-linecap="round"></path><path d="M 331.491,253.904 C 330.230,256.269 328.883,259.967 329.094,258.700" stroke-width="6.409" stroke="black" fill="none" stroke-linecap="round"></path><path d="M 329.094,258.700 C 329.682,255.171 330.245,251.172 333.089,244.311" stroke-width="7.059" stroke="black" fill="none" stroke-linecap="round"></path><path d="M 333.089,244.311 C 337.037,234.784 337.539,234.920 342.677,225.924" stroke-width="4.765" stroke="black" fill="none" stroke-linecap="round"></path><path d="M 342.677,225.924 C 347.127,218.133 347.287,218.207 352.265,210.736" stroke-width="4.500" stroke="black" fill="none" stroke-linecap="round"></path><path d="M 352.265,210.736 C 356.076,205.016 356.260,205.140 360.255,199.544" stroke-width="4.782" stroke="black" fill="none" stroke-linecap="round"></path><path d="M 360.255,199.544 C 362.252,196.746 364.767,193.776 364.250,193.948" stroke-width="5.815" stroke="black" fill="none" stroke-linecap="round"></path><path d="M 364.250,193.948 C 363.569,194.175 360.823,196.937 357.858,200.344" stroke-width="6.691" stroke="black" fill="none" stroke-linecap="round"></path><path d="M 357.858,200.344 C 350.037,209.327 350.447,209.690 342.677,218.730" stroke-width="4.500" stroke="black" fill="none" stroke-linecap="round"></path><path d="M 342.677,218.730 C 333.268,229.676 333.155,229.581 323.501,240.314" stroke-width="4.500" stroke="black" fill="none" stroke-linecap="round"></path><path d="M 323.501,240.314 C 315.177,249.567 314.945,249.361 306.722,258.700" stroke-width="4.500" stroke="black" fill="none" stroke-linecap="round"></path><path d="M 306.722,258.700 C 300.163,266.149 300.314,266.282 293.938,273.889" stroke-width="4.500" stroke="black" fill="none" stroke-linecap="round"></path><path d="M 293.938,273.889 C 289.927,278.673 287.648,281.497 285.948,283.482" stroke-width="4.757" stroke="black" fill="none" stroke-linecap="round"></path><path d="M 285.948,283.482 C 285.251,284.295 287.752,281.627 289.144,279.485" stroke-width="6.713" stroke="black" fill="none" stroke-linecap="round"></path><path d="M 289.144,279.485 C 292.946,273.632 292.672,273.448 296.335,267.494" stroke-width="5.364" stroke="black" fill="none" stroke-linecap="round"></path><path d="M 296.335,267.494 C 299.064,263.056 299.146,263.106 301.928,258.700" stroke-width="5.513" stroke="black" fill="none" stroke-linecap="round"></path><path d="M 301.928,258.700 C 303.940,255.512 306.770,252.305 305.923,252.305" stroke-width="5.999" stroke="black" fill="none" stroke-linecap="round"></path><path d="M 305.923,252.305 C 304.773,252.305 301.626,255.180 297.933,258.700" stroke-width="6.974" stroke="black" fill="none" stroke-linecap="round"></path><path d="M 297.933,258.700 C 293.237,263.174 293.409,263.385 289.144,268.293" stroke-width="5.546" stroke="black" fill="none" stroke-linecap="round"></path><path d="M 289.144,268.293 C 285.419,272.578 285.720,272.845 281.953,277.086" stroke-width="5.439" stroke="black" fill="none" stroke-linecap="round"></path><path d="M 281.953,277.086 C 279.328,280.040 276.241,284.464 276.360,282.682" stroke-width="5.913" stroke="black" fill="none" stroke-linecap="round"></path><path d="M 276.360,282.682 C 276.640,278.468 278.945,273.608 282.752,265.095" stroke-width="6.670" stroke="black" fill="none" stroke-linecap="round"></path><path d="M 282.752,265.095 C 285.736,258.420 286.359,258.707 289.943,252.305" stroke-width="5.266" stroke="black" fill="none" stroke-linecap="round"></path><path d="M 289.943,252.305 C 291.952,248.714 292.205,248.824 293.938,245.110" stroke-width="5.801" stroke="black" fill="none" stroke-linecap="round"></path><path d="M 293.938,245.110 C 295.002,242.829 296.609,239.837 295.536,240.314" stroke-width="6.608" stroke="black" fill="none" stroke-linecap="round"></path><path d="M 295.536,240.314 C 293.013,241.435 291.354,244.576 286.747,248.308" stroke-width="7.077" stroke="black" fill="none" stroke-linecap="round"></path><path d="M 286.747,248.308 C 282.964,251.371 282.709,251.047 278.757,253.904" stroke-width="5.967" stroke="black" fill="none" stroke-linecap="round"></path><path d="M 278.757,253.904 C 275.518,256.244 275.833,256.849 272.365,258.700" stroke-width="6.075" stroke="black" fill="none" stroke-linecap="round"></path><path d="M 272.365,258.700 C 269.840,260.047 267.072,261.651 266.772,260.299" stroke-width="7.138" stroke="black" fill="none" stroke-linecap="round"></path><path d="M 266.772,260.299 C 266.273,258.054 268.711,255.875 270.767,251.505" stroke-width="7.014" stroke="black" fill="none" stroke-linecap="round"></path><path d="M 270.767,251.505 C 271.907,249.080 272.109,249.170 273.164,246.709" stroke-width="6.893" stroke="black" fill="none" stroke-linecap="round"></path><path d="M 273.164,246.709 C 274.506,243.574 276.743,240.652 275.561,240.314" stroke-width="7.327" stroke="black" fill="none" stroke-linecap="round"></path><path d="M 275.561,240.314 C 273.947,239.853 271.383,242.440 267.571,245.110" stroke-width="7.108" stroke="black" fill="none" stroke-linecap="round"></path><path d="M 267.571,245.110 C 259.398,250.834 259.462,250.954 251.591,257.101" stroke-width="4.731" stroke="black" fill="none" stroke-linecap="round"></path><path d="M 251.591,257.101 C 243.083,263.745 243.201,263.896 234.811,270.691" stroke-width="4.500" stroke="black" fill="none" stroke-linecap="round"></path><path d="M 234.811,270.691 C 226.422,277.486 226.504,277.590 218.032,284.281" stroke-width="4.500" stroke="black" fill="none" stroke-linecap="round"></path><path d="M 218.032,284.281 C 211.323,289.581 210.944,289.138 204.449,294.673" stroke-width="4.500" stroke="black" fill="none" stroke-linecap="round"></path><path d="M 204.449,294.673 C 200.157,298.331 200.320,298.547 196.459,302.667" stroke-width="5.107" stroke="black" fill="none" stroke-linecap="round"></path><path d="M 196.459,302.667 C 194.327,304.943 191.023,306.677 192.464,307.464" stroke-width="5.993" stroke="black" fill="none" stroke-linecap="round"></path><path d="M 192.464,307.464 C 195.417,309.075 199.293,309.411 205.248,307.464" stroke-width="6.787" stroke="black" fill="none" stroke-linecap="round"></path><path d="M 205.248,307.464 C 220.067,302.617 219.826,301.058 234.013,293.874" stroke-width="4.500" stroke="black" fill="none" stroke-linecap="round"></path><path d="M 234.013,293.874 C 252.186,284.670 252.089,284.462 269.968,274.688" stroke-width="4.500" stroke="black" fill="none" stroke-linecap="round"></path><path d="M 269.968,274.688 C 290.840,263.278 290.704,263.029 311.516,251.505" stroke-width="4.500" stroke="black" fill="none" stroke-linecap="round"></path><path d="M 311.516,251.505 C 331.852,240.246 332.126,240.723 352.265,229.122" stroke-width="4.500" stroke="black" fill="none" stroke-linecap="round"></path><path d="M 352.265,229.122 C 371.677,217.940 371.545,217.699 390.617,205.939" stroke-width="4.500" stroke="black" fill="none" stroke-linecap="round"></path><path d="M 390.617,205.939 C 405.902,196.515 406.162,196.872 420.979,186.754" stroke-width="4.500" stroke="black" fill="none" stroke-linecap="round"></path><path d="M 420.979,186.754 C 431.331,179.685 431.138,179.372 440.954,171.565" stroke-width="4.500" stroke="black" fill="none" stroke-linecap="round"></path><path d="M 440.954,171.565 C 446.718,166.981 454.227,163.096 452.140,161.972" stroke-width="4.500" stroke="black" fill="none" stroke-linecap="round"></path><path d="M 452.140,161.972 C 449.033,160.299 440.661,161.906 430.567,165.969" stroke-width="5.504" stroke="black" fill="none" stroke-linecap="round"></path><path d="M 430.567,165.969 C 405.905,175.896 406.428,177.634 382.627,189.951" stroke-width="4.500" stroke="black" fill="none" stroke-linecap="round"></path><path d="M 382.627,189.951 C 360.086,201.616 360.333,202.090 337.883,213.934" stroke-width="4.500" stroke="black" fill="none" stroke-linecap="round"></path><path d="M 337.883,213.934 C 316.388,225.273 316.207,224.932 294.737,236.317" stroke-width="4.500" stroke="black" fill="none" stroke-linecap="round"></path><path d="M 294.737,236.317 C 276.257,246.116 276.327,246.251 257.983,256.302" stroke-width="4.500" stroke="black" fill="none" stroke-linecap="round"></path><path d="M 257.983,256.302 C 242.769,264.637 242.783,264.662 227.620,273.089" stroke-width="4.500" stroke="black" fill="none" stroke-linecap="round"></path><path d="M 227.620,273.089 C 217.614,278.651 217.814,279.057 207.645,284.281" stroke-width="4.500" stroke="black" fill="none" stroke-linecap="round"></path><path d="M 207.645,284.281 C 203.032,286.651 196.714,291.219 198.057,288.278" stroke-width="4.717" stroke="black" fill="none" stroke-linecap="round"></path><path d="M 198.057,288.278 C 203.106,277.229 208.183,271.448 220.429,256.302" stroke-width="4.978" stroke="black" fill="none" stroke-linecap="round"></path><path d="M 220.429,256.302 C 236.947,235.874 237.742,236.471 255.586,217.131" stroke-width="4.500" stroke="black" fill="none" stroke-linecap="round"></path><path d="M 255.586,217.131 C 271.300,200.098 271.921,200.667 287.546,183.556" stroke-width="4.500" stroke="black" fill="none" stroke-linecap="round"></path><path d="M 287.546,183.556 C 301.484,168.292 301.644,168.384 314.712,152.379" stroke-width="4.500" stroke="black" fill="none" stroke-linecap="round"></path><path d="M 314.712,152.379 C 324.815,140.006 325.619,140.337 333.888,126.798" stroke-width="4.500" stroke="black" fill="none" stroke-linecap="round"></path><path d="M 333.888,126.798 C 338.802,118.753 339.620,118.210 341.079,109.212" stroke-width="4.500" stroke="black" fill="none" stroke-linecap="round"></path><path d="M 341.079,109.212 C 342.017,103.421 342.487,99.215 338.682,97.221" stroke-width="4.690" stroke="black" fill="none" stroke-linecap="round"></path><path d="M 338.682,97.221 C 334.097,94.818 330.919,97.268 324.300,100.418" stroke-width="5.700" stroke="black" fill="none" stroke-linecap="round"></path><path d="M 324.300,100.418 C 289.770,116.853 289.104,116.454 256.385,136.391" stroke-width="4.500" stroke="black" fill="none" stroke-linecap="round"></path><path d="M 256.385,136.391 C 235.971,148.830 236.455,149.885 218.032,165.170" stroke-width="4.500" stroke="black" fill="none" stroke-linecap="round"></path><path d="M 218.032,165.170 C 203.696,177.065 202.994,176.751 190.866,190.751" stroke-width="4.500" stroke="black" fill="none" stroke-linecap="round"></path><path d="M 190.866,190.751 C 182.220,200.733 182.676,201.432 176.484,213.134" stroke-width="4.500" stroke="black" fill="none" stroke-linecap="round"></path><path d="M 176.484,213.134 C 171.890,221.817 170.611,222.071 169.293,231.520" stroke-width="4.500" stroke="black" fill="none" stroke-linecap="round"></path><path d="M 169.293,231.520 C 168.214,239.258 167.873,241.077 171.690,247.508" stroke-width="4.500" stroke="black" fill="none" stroke-linecap="round"></path><path d="M 171.690,247.508 C 175.464,253.867 177.537,253.266 184.474,257.101" stroke-width="5.477" stroke="black" fill="none" stroke-linecap="round"></path><path d="M 184.474,257.101 C 192.718,261.659 193.120,261.092 202.052,264.296" stroke-width="4.557" stroke="black" fill="none" stroke-linecap="round"></path><path d="M 202.052,264.296 C 214.293,268.686 214.558,267.948 226.822,272.290" stroke-width="4.500" stroke="black" fill="none" stroke-linecap="round"></path><path d="M 226.822,272.290 C 240.526,277.142 240.394,277.514 253.988,282.682" stroke-width="4.500" stroke="black" fill="none" stroke-linecap="round"></path><path d="M 253.988,282.682 C 260.369,285.108 261.331,283.449 266.772,287.479" stroke-width="4.500" stroke="black" fill="none" stroke-linecap="round"></path><path d="M 266.772,287.479 C 292.092,306.232 291.141,307.863 315.511,328.248" stroke-width="4.500" stroke="black" fill="none" stroke-linecap="round"></path><circle r="3" cx="349.06866455078125" cy="341.0386962890625" fill="black"></circle></svg>