<svg xmlns="http://www.w3.org/2000/svg" xmlns:xlink="http://www.w3.org/1999/xlink" viewBox="0 0 576 416" width="576" height="416"><circle r="3" cx="10.292137145996094" cy="201.94241333007812" fill="black"></circle><path d="M 106.971,315.458 C 108.170,310.661 107.757,310.522 109.368,305.865" stroke-width="8.180" stroke="black" fill="none" stroke-linecap="round"></path><path d="M 109.368,305.865 C 111.352,300.130 111.990,300.357 114.162,294.673" stroke-width="5.877" stroke="black" fill="none" stroke-linecap="round"></path><path d="M 114.162,294.673 C 117.184,286.767 116.783,286.614 119.755,278.685" stroke-width="4.847" stroke="black" fill="none" stroke-linecap="round"></path><path d="M 119.755,278.685 C 125.173,264.231 125.725,264.429 130.941,249.907" stroke-width="4.500" stroke="black" fill="none" stroke-linecap="round"></path><path d="M 130.941,249.907 C 134.913,238.848 134.531,238.713 138.132,227.523" stroke-width="4.500" stroke="black" fill="none" stroke-linecap="round"></path><path d="M 138.132,227.523 C 142.121,215.131 142.310,215.189 146.122,202.742" stroke-width="4.500" stroke="black" fill="none" stroke-linecap="round"></path><path d="M 146.122,202.742 C 149.900,190.407 149.771,190.366 153.313,177.960" stroke-width="4.500" stroke="black" fill="none" stroke-linecap="round"></path><path d="M 153.313,177.960 C 156.962,165.185 156.828,165.146 160.504,152.379" stroke-width="4.500" stroke="black" fill="none" stroke-linecap="round"></path><path d="M 160.504,152.379 C 163.619,141.564 163.919,141.647 166.896,130.796" stroke-width="4.500" stroke="black" fill="none" stroke-linecap="round"></path><path d="M 166.896,130.796 C 169.512,121.262 169.452,121.239 171.690,111.610" stroke-width="4.500" stroke="black" fill="none" stroke-linecap="round"></path><path d="M 171.690,111.610 C 173.447,104.052 173.322,104.022 174.886,96.421" stroke-width="4.500" stroke="black" fill="none" stroke-linecap="round"></path><path d="M 174.886,96.421 C 176.119,90.433 175.986,90.403 177.283,84.430" stroke-width="4.981" stroke="black" fill="none" stroke-linecap="round"></path><path d="M 177.283,84.430 C 177.983,81.210 178.025,76.811 178.881,78.035" stroke-width="5.946" stroke="black" fill="none" stroke-linecap="round"></path><path d="M 178.881,78.035 C 180.822,80.808 181.574,85.095 182.876,92.424" stroke-width="6.882" stroke="black" fill="none" stroke-linecap="round"></path><path d="M 182.876,92.424 C 184.770,103.082 184.211,103.203 185.273,114.008" stroke-width="4.530" stroke="black" fill="none" stroke-linecap="round"></path><path d="M 185.273,114.008 C 186.608,127.584 186.538,127.592 187.670,141.188" stroke-width="4.500" stroke="black" fill="none" stroke-linecap="round"></path><path d="M 187.670,141.188 C 188.935,156.371 188.948,156.371 190.067,171.565" stroke-width="4.500" stroke="black" fill="none" stroke-linecap="round"></path><path d="M 190.067,171.565 C 191.745,194.342 191.765,194.342 193.263,217.131" stroke-width="4.500" stroke="black" fill="none" stroke-linecap="round"></path><path d="M 193.263,217.131 C 193.762,224.719 193.656,224.726 194.062,232.320" stroke-width="4.500" stroke="black" fill="none" stroke-linecap="round"></path><path d="M 194.062,232.320 C 194.854,247.109 194.839,247.110 195.660,261.898" stroke-width="4.500" stroke="black" fill="none" stroke-linecap="round"></path><path d="M 195.660,261.898 C 196.437,275.888 196.398,275.891 197.258,289.877" stroke-width="4.500" stroke="black" fill="none" stroke-linecap="round"></path><path d="M 197.258,289.877 C 197.996,301.872 198.001,301.872 198.856,313.859" stroke-width="4.500" stroke="black" fill="none" stroke-linecap="round"></path><path d="M 198.856,313.859 C 199.599,324.255 199.490,324.267 200.454,334.643" stroke-width="4.500" stroke="black" fill="none" stroke-linecap="round"></path><path d="M 200.454,334.643 C 201.088,341.454 201.014,341.479 202.052,348.233" stroke-width="4.506" stroke="black" fill="none" stroke-linecap="round"></path><path d="M 202.052,348.233 C 202.612,351.871 201.745,355.255 203.650,355.428" stroke-width="5.550" stroke="black" fill="none" stroke-linecap="round"></path><path d="M 203.650,355.428 C 206.139,355.654 208.233,352.828 210.841,349.033" stroke-width="6.798" stroke="black" fill="none" stroke-linecap="round"></path><path d="M 210.841,349.033 C 212.628,346.433 211.659,345.840 212.439,342.637" stroke-width="6.576" stroke="black" fill="none" stroke-linecap="round"></path><path d="M 212.439,342.637 C 215.654,329.452 216.390,329.580 218.832,316.257" stroke-width="4.500" stroke="black" fill="none" stroke-linecap="round"></path><path d="M 218.832,316.257 C 220.785,305.598 220.442,305.495 221.228,294.673" stroke-width="4.500" stroke="black" fill="none" stroke-linecap="round"></path><path d="M 221.228,294.673 C 222.040,283.512 222.027,283.481 222.027,272.290" stroke-width="4.500" stroke="black" fill="none" stroke-linecap="round"></path><path d="M 222.027,272.290 C 222.027,261.498 222.222,261.443 221.228,250.706" stroke-width="4.500" stroke="black" fill="none" stroke-linecap="round"></path><path d="M 221.228,250.706 C 220.225,239.859 220.128,239.815 218.032,229.122" stroke-width="4.500" stroke="black" fill="none" stroke-linecap="round"></path><path d="M 218.032,229.122 C 216.133,219.431 216.354,219.287 213.238,209.936" stroke-width="4.500" stroke="black" fill="none" stroke-linecap="round"></path><path d="M 213.238,209.936 C 210.361,201.301 210.205,201.249 206.047,193.149" stroke-width="4.500" stroke="black" fill="none" stroke-linecap="round"></path><path d="M 206.047,193.149 C 202.614,186.460 202.625,186.299 198.057,180.359" stroke-width="4.601" stroke="black" fill="none" stroke-linecap="round"></path><path d="M 198.057,180.359 C 194.635,175.907 194.707,175.319 190.067,172.365" stroke-width="5.136" stroke="black" fill="none" stroke-linecap="round"></path><path d="M 190.067,172.365 C 185.918,169.723 185.403,169.735 180.479,169.167" stroke-width="5.396" stroke="black" fill="none" stroke-linecap="round"></path><path d="M 180.479,169.167 C 175.016,168.536 174.718,168.836 169.293,169.966" stroke-width="5.322" stroke="black" fill="none" stroke-linecap="round"></path><path d="M 169.293,169.966 C 165.130,170.834 165.021,171.038 161.303,173.164" stroke-width="5.763" stroke="black" fill="none" stroke-linecap="round"></path><path d="M 161.303,173.164 C 153.835,177.434 153.454,177.182 146.921,182.757" stroke-width="4.786" stroke="black" fill="none" stroke-linecap="round"></path><path d="M 146.921,182.757 C 139.871,188.773 140.075,189.177 134.137,196.347" stroke-width="4.500" stroke="black" fill="none" stroke-linecap="round"></path><path d="M 134.137,196.347 C 128.490,203.166 128.100,203.067 123.750,210.736" stroke-width="4.500" stroke="black" fill="none" stroke-linecap="round"></path><path d="M 123.750,210.736 C 119.711,217.856 119.432,218.042 117.358,225.924" stroke-width="4.521" stroke="black" fill="none" stroke-linecap="round"></path><path d="M 117.358,225.924 C 115.437,233.230 115.966,233.504 115.760,241.113" stroke-width="4.579" stroke="black" fill="none" stroke-linecap="round"></path><path d="M 115.760,241.113 C 115.566,248.293 114.986,248.680 116.559,255.502" stroke-width="4.865" stroke="black" fill="none" stroke-linecap="round"></path><path d="M 116.559,255.502 C 117.383,259.072 117.991,259.190 120.554,261.898" stroke-width="5.749" stroke="black" fill="none" stroke-linecap="round"></path><path d="M 120.554,261.898 C 125.182,266.784 125.019,267.639 130.941,270.691" stroke-width="5.202" stroke="black" fill="none" stroke-linecap="round"></path><path d="M 130.941,270.691 C 138.202,274.433 138.747,274.346 146.921,275.488" stroke-width="4.722" stroke="black" fill="none" stroke-linecap="round"></path><path d="M 146.921,275.488 C 155.925,276.745 156.263,276.728 165.298,275.488" stroke-width="4.500" stroke="black" fill="none" stroke-linecap="round"></path><path d="M 165.298,275.488 C 176.637,273.930 176.769,273.527 187.670,269.892" stroke-width="4.500" stroke="black" fill="none" stroke-linecap="round"></path><path d="M 187.670,269.892 C 197.144,266.732 197.314,266.703 206.047,261.898" stroke-width="4.500" stroke="black" fill="none" stroke-linecap="round"></path><path d="M 206.047,261.898 C 213.294,257.910 213.369,257.705 219.630,252.305" stroke-width="4.500" stroke="black" fill="none" stroke-linecap="round"></path><path d="M 219.630,252.305 C 224.955,247.713 224.849,247.435 229.218,241.913" stroke-width="4.750" stroke="black" fill="none" stroke-linecap="round"></path><path d="M 229.218,241.913 C 232.439,237.842 232.133,237.586 234.811,233.119" stroke-width="5.302" stroke="black" fill="none" stroke-linecap="round"></path><path d="M 234.811,233.119 C 236.927,229.592 237.331,229.720 238.806,225.924" stroke-width="5.813" stroke="black" fill="none" stroke-linecap="round"></path><path d="M 238.806,225.924 C 240.128,222.525 239.103,218.241 240.405,218.730" stroke-width="6.838" stroke="black" fill="none" stroke-linecap="round"></path><path d="M 240.405,218.730 C 242.299,219.441 241.754,224.471 245.199,228.323" stroke-width="7.600" stroke="black" fill="none" stroke-linecap="round"></path><path d="M 245.199,228.323 C 248.545,232.065 249.269,231.841 253.988,233.919" stroke-width="6.063" stroke="black" fill="none" stroke-linecap="round"></path><path d="M 253.988,233.919 C 259.256,236.238 259.463,236.354 265.174,237.116" stroke-width="5.541" stroke="black" fill="none" stroke-linecap="round"></path><path d="M 265.174,237.116 C 271.448,237.953 271.585,237.480 277.958,237.116" stroke-width="5.343" stroke="black" fill="none" stroke-linecap="round"></path><path d="M 277.958,237.116 C 285.567,236.681 285.677,236.969 293.139,235.517" stroke-width="4.908" stroke="black" fill="none" stroke-linecap="round"></path><path d="M 293.139,235.517 C 300.059,234.171 300.184,234.137 306.722,231.520" stroke-width="4.909" stroke="black" fill="none" stroke-linecap="round"></path><path d="M 306.722,231.520 C 312.169,229.340 311.880,228.654 317.109,225.924" stroke-width="5.096" stroke="black" fill="none" stroke-linecap="round"></path><path d="M 317.109,225.924 C 321.068,223.858 321.213,224.114 325.099,221.928" stroke-width="5.706" stroke="black" fill="none" stroke-linecap="round"></path><path d="M 325.099,221.928 C 327.605,220.517 327.396,220.157 329.893,218.730" stroke-width="6.381" stroke="black" fill="none" stroke-linecap="round"></path><path d="M 329.893,218.730 C 332.989,216.960 333.299,215.319 336.285,215.532" stroke-width="7.085" stroke="black" fill="none" stroke-linecap="round"></path><path d="M 336.285,215.532 C 338.892,215.719 338.626,217.601 341.079,219.529" stroke-width="7.441" stroke="black" fill="none" stroke-linecap="round"></path><path d="M 341.079,219.529 C 344.219,221.998 344.208,222.022 347.471,224.326" stroke-width="6.372" stroke="black" fill="none" stroke-linecap="round"></path><path d="M 347.471,224.326 C 351.000,226.818 350.858,227.119 354.662,229.122" stroke-width="6.165" stroke="black" fill="none" stroke-linecap="round"></path><path d="M 354.662,229.122 C 358.449,231.116 358.495,231.416 362.652,232.320" stroke-width="6.111" stroke="black" fill="none" stroke-linecap="round"></path><path d="M 362.652,232.320 C 367.683,233.414 367.864,233.311 373.039,233.119" stroke-width="5.634" stroke="black" fill="none" stroke-linecap="round"></path><path d="M 373.039,233.119 C 378.651,232.911 378.821,233.041 384.225,231.520" stroke-width="5.473" stroke="black" fill="none" stroke-linecap="round"></path><path d="M 384.225,231.520 C 391.605,229.444 391.846,229.518 398.607,225.924" stroke-width="4.817" stroke="black" fill="none" stroke-linecap="round"></path><path d="M 398.607,225.924 C 404.630,222.723 404.761,222.527 409.793,217.931" stroke-width="5.013" stroke="black" fill="none" stroke-linecap="round"></path><path d="M 409.793,217.931 C 413.950,214.133 414.063,213.938 416.984,209.137" stroke-width="5.275" stroke="black" fill="none" stroke-linecap="round"></path><path d="M 416.984,209.137 C 419.656,204.745 419.627,204.504 420.979,199.544" stroke-width="5.489" stroke="black" fill="none" stroke-linecap="round"></path><path d="M 420.979,199.544 C 422.024,195.710 422.534,195.335 421.778,191.550" stroke-width="5.910" stroke="black" fill="none" stroke-linecap="round"></path><path d="M 421.778,191.550 C 420.936,187.341 420.281,187.192 417.783,183.556" stroke-width="6.712" stroke="black" fill="none" stroke-linecap="round"></path><path d="M 417.783,183.556 C 415.887,180.797 415.696,180.746 412.989,178.760" stroke-width="6.515" stroke="black" fill="none" stroke-linecap="round"></path><path d="M 412.989,178.760 C 409.704,176.350 409.568,176.380 405.798,174.763" stroke-width="6.193" stroke="black" fill="none" stroke-linecap="round"></path><path d="M 405.798,174.763 C 398.382,171.583 398.350,171.516 390.617,169.167" stroke-width="5.099" stroke="black" fill="none" stroke-linecap="round"></path><path d="M 390.617,169.167 C 375.978,164.721 375.835,165.170 361.054,161.173" stroke-width="4.500" stroke="black" fill="none" stroke-linecap="round"></path><circle r="3" cx="325.8976745605469" cy="136.391357421875" fill="black"></circle></svg>