<svg xmlns="http://www.w3.org/2000/svg" xmlns:xlink="http://www.w3.org/1999/xlink" viewBox="0 0 576 416" width="576" height="416"><path d="M 320.305,176.155 C 316.310,177.354 316.121,176.898 312.315,178.554" stroke-width="8.479" stroke="black" fill="none" stroke-linecap="round"></path><path d="M 312.315,178.554 C 306.932,180.895 307.106,181.323 301.928,184.149" stroke-width="5.865" stroke="black" fill="none" stroke-linecap="round"></path><path d="M 301.928,184.149 C 298.317,186.120 298.414,186.307 294.737,188.146" stroke-width="6.003" stroke="black" fill="none" stroke-linecap="round"></path><path d="M 294.737,188.146 C 287.228,191.903 287.133,191.716 279.556,195.341" stroke-width="4.887" stroke="black" fill="none" stroke-linecap="round"></path><path d="M 279.556,195.341 C 268.756,200.509 268.577,200.181 257.983,205.733" stroke-width="4.500" stroke="black" fill="none" stroke-linecap="round"></path><path d="M 257.983,205.733 C 251.798,208.974 251.804,209.055 245.998,212.928" stroke-width="5.149" stroke="black" fill="none" stroke-linecap="round"></path><path d="M 245.998,212.928 C 241.018,216.249 241.043,216.330 236.410,220.123" stroke-width="5.239" stroke="black" fill="none" stroke-linecap="round"></path><path d="M 236.410,220.123 C 232.254,223.524 232.214,223.521 228.419,227.317" stroke-width="5.339" stroke="black" fill="none" stroke-linecap="round"></path><path d="M 228.419,227.317 C 225.023,230.715 225.083,230.800 222.027,234.512" stroke-width="5.618" stroke="black" fill="none" stroke-linecap="round"></path><path d="M 222.027,234.512 C 219.490,237.595 219.191,237.479 217.233,240.907" stroke-width="5.961" stroke="black" fill="none" stroke-linecap="round"></path><path d="M 217.233,240.907 C 215.995,243.075 215.635,243.275 215.635,245.704" stroke-width="6.550" stroke="black" fill="none" stroke-linecap="round"></path><path d="M 215.635,245.704 C 215.635,248.870 214.960,250.961 217.233,252.099" stroke-width="6.757" stroke="black" fill="none" stroke-linecap="round"></path><path d="M 217.233,252.099 C 220.553,253.759 222.048,251.878 226.822,251.299" stroke-width="6.935" stroke="black" fill="none" stroke-linecap="round"></path><path d="M 226.822,251.299 C 235.231,250.279 235.264,250.402 243.601,248.901" stroke-width="4.916" stroke="black" fill="none" stroke-linecap="round"></path><path d="M 243.601,248.901 C 255.239,246.805 255.171,246.426 266.772,244.105" stroke-width="4.500" stroke="black" fill="none" stroke-linecap="round"></path><path d="M 266.772,244.105 C 279.141,241.630 279.098,241.349 291.541,239.308" stroke-width="4.500" stroke="black" fill="none" stroke-linecap="round"></path><path d="M 291.541,239.308 C 303.467,237.352 303.489,237.355 315.511,236.111" stroke-width="4.500" stroke="black" fill="none" stroke-linecap="round"></path><path d="M 315.511,236.111 C 326.660,234.957 326.683,234.919 337.883,234.512" stroke-width="4.500" stroke="black" fill="none" stroke-linecap="round"></path><path d="M 337.883,234.512 C 348.655,234.120 348.687,234.089 359.456,234.512" stroke-width="4.500" stroke="black" fill="none" stroke-linecap="round"></path><path d="M 359.456,234.512 C 369.061,234.889 369.161,234.603 378.632,236.111" stroke-width="4.500" stroke="black" fill="none" stroke-linecap="round"></path><path d="M 378.632,236.111 C 386.739,237.401 386.857,237.447 394.612,240.108" stroke-width="4.500" stroke="black" fill="none" stroke-linecap="round"></path><path d="M 394.612,240.108 C 400.839,242.244 401.308,241.955 406.597,245.704" stroke-width="4.854" stroke="black" fill="none" stroke-linecap="round"></path><path d="M 406.597,245.704 C 410.896,248.750 411.680,249.058 413.788,253.698" stroke-width="5.297" stroke="black" fill="none" stroke-linecap="round"></path><path d="M 413.788,253.698 C 415.675,257.851 415.246,258.673 414.587,263.290" stroke-width="5.604" stroke="black" fill="none" stroke-linecap="round"></path><path d="M 414.587,263.290 C 414.048,267.067 413.668,267.321 411.391,270.485" stroke-width="5.976" stroke="black" fill="none" stroke-linecap="round"></path><path d="M 411.391,270.485 C 406.477,277.314 406.521,277.678 400.205,283.275" stroke-width="4.861" stroke="black" fill="none" stroke-linecap="round"></path><path d="M 400.205,283.275 C 392.539,290.069 392.240,289.976 383.426,295.267" stroke-width="4.500" stroke="black" fill="none" stroke-linecap="round"></path><path d="M 383.426,295.267 C 374.262,300.767 374.161,300.893 364.250,304.859" stroke-width="4.500" stroke="black" fill="none" stroke-linecap="round"></path><path d="M 364.250,304.859 C 356.183,308.088 356.006,308.123 347.471,309.656" stroke-width="4.500" stroke="black" fill="none" stroke-linecap="round"></path><path d="M 347.471,309.656 C 340.426,310.921 340.110,311.017 333.089,310.455" stroke-width="4.632" stroke="black" fill="none" stroke-linecap="round"></path><path d="M 333.089,310.455 C 330.122,310.218 329.952,309.758 327.496,308.057" stroke-width="5.869" stroke="black" fill="none" stroke-linecap="round"></path><path d="M 327.496,308.057 C 324.758,306.161 324.598,306.020 322.702,303.261" stroke-width="6.253" stroke="black" fill="none" stroke-linecap="round"></path><path d="M 322.702,303.261 C 320.203,299.624 320.046,299.477 318.707,295.267" stroke-width="6.001" stroke="black" fill="none" stroke-linecap="round"></path><path d="M 318.707,295.267 C 317.249,290.684 317.281,290.502 317.109,285.674" stroke-width="5.805" stroke="black" fill="none" stroke-linecap="round"></path><path d="M 317.109,285.674 C 316.881,279.311 317.416,279.272 317.908,272.883" stroke-width="5.497" stroke="black" fill="none" stroke-linecap="round"></path><path d="M 317.908,272.883 C 318.615,263.683 316.843,263.102 319.506,254.497" stroke-width="4.503" stroke="black" fill="none" stroke-linecap="round"></path><path d="M 319.506,254.497 C 322.037,246.315 323.300,246.478 328.295,239.308" stroke-width="4.500" stroke="black" fill="none" stroke-linecap="round"></path><path d="M 328.295,239.308 C 332.489,233.287 332.692,233.310 337.883,228.117" stroke-width="4.670" stroke="black" fill="none" stroke-linecap="round"></path><path d="M 337.883,228.117 C 342.280,223.717 342.372,223.671 347.471,220.123" stroke-width="5.022" stroke="black" fill="none" stroke-linecap="round"></path><path d="M 347.471,220.123 C 351.560,217.276 351.588,216.813 356.260,215.326" stroke-width="5.455" stroke="black" fill="none" stroke-linecap="round"></path><path d="M 356.260,215.326 C 360.377,214.015 360.681,214.328 365.049,214.527" stroke-width="5.851" stroke="black" fill="none" stroke-linecap="round"></path><path d="M 365.049,214.527 C 369.470,214.728 369.643,214.727 373.838,216.126" stroke-width="5.798" stroke="black" fill="none" stroke-linecap="round"></path><path d="M 373.838,216.126 C 378.033,217.525 378.018,217.835 381.828,220.123" stroke-width="6.669" stroke="black" fill="none" stroke-linecap="round"></path><path d="M 381.828,220.123 C 384.010,221.433 383.640,222.010 385.823,223.320" stroke-width="6.841" stroke="black" fill="none" stroke-linecap="round"></path><path d="M 385.823,223.320 C 389.633,225.607 389.653,226.660 393.813,227.317" stroke-width="7.068" stroke="black" fill="none" stroke-linecap="round"></path><path d="M 393.813,227.317 C 397.243,227.859 397.760,227.233 401.004,225.718" stroke-width="7.268" stroke="black" fill="none" stroke-linecap="round"></path><path d="M 401.004,225.718 C 403.752,224.435 403.808,224.075 405.798,221.721" stroke-width="6.775" stroke="black" fill="none" stroke-linecap="round"></path><path d="M 405.798,221.721 C 408.202,218.879 408.034,218.650 409.793,215.326" stroke-width="6.387" stroke="black" fill="none" stroke-linecap="round"></path><path d="M 409.793,215.326 C 411.629,211.856 411.849,211.878 412.989,208.132" stroke-width="6.220" stroke="black" fill="none" stroke-linecap="round"></path><path d="M 412.989,208.132 C 414.646,202.685 414.062,202.504 415.386,196.940" stroke-width="6.537" stroke="black" fill="none" stroke-linecap="round"></path><path d="M 415.386,196.940 C 416.059,194.111 415.635,191.537 416.984,191.344" stroke-width="7.544" stroke="black" fill="none" stroke-linecap="round"></path><path d="M 416.984,191.344 C 418.431,191.137 418.626,194.149 420.979,196.141" stroke-width="7.870" stroke="black" fill="none" stroke-linecap="round"></path><path d="M 420.979,196.141 C 423.820,198.546 423.897,198.857 427.371,200.137" stroke-width="6.649" stroke="black" fill="none" stroke-linecap="round"></path><path d="M 427.371,200.137 C 431.487,201.655 431.728,201.351 436.160,201.736" stroke-width="6.106" stroke="black" fill="none" stroke-linecap="round"></path><path d="M 436.160,201.736 C 440.916,202.150 441.081,202.570 445.748,201.736" stroke-width="5.856" stroke="black" fill="none" stroke-linecap="round"></path><path d="M 445.748,201.736 C 452.267,200.572 452.348,200.253 458.532,197.739" stroke-width="5.255" stroke="black" fill="none" stroke-linecap="round"></path><path d="M 458.532,197.739 C 465.132,195.057 465.020,194.719 471.316,191.344" stroke-width="5.086" stroke="black" fill="none" stroke-linecap="round"></path><path d="M 471.316,191.344 C 476.206,188.723 476.226,188.727 480.904,185.748" stroke-width="5.332" stroke="black" fill="none" stroke-linecap="round"></path><path d="M 480.904,185.748 C 485.015,183.131 484.996,183.077 488.894,180.152" stroke-width="5.597" stroke="black" fill="none" stroke-linecap="round"></path><path d="M 488.894,180.152 C 491.388,178.281 491.382,178.253 493.688,176.155" stroke-width="6.252" stroke="black" fill="none" stroke-linecap="round"></path><path d="M 493.688,176.155 C 495.776,174.256 499.053,171.427 497.683,172.158" stroke-width="7.211" stroke="black" fill="none" stroke-linecap="round"></path><path d="M 497.683,172.158 C 493.061,174.625 490.063,178.000 481.703,182.551" stroke-width="7.083" stroke="black" fill="none" stroke-linecap="round"></path><path d="M 481.703,182.551 C 462.896,192.789 462.560,192.210 443.351,201.736" stroke-width="4.500" stroke="black" fill="none" stroke-linecap="round"></path><path d="M 443.351,201.736 C 416.618,214.993 416.807,215.398 389.818,228.117" stroke-width="4.500" stroke="black" fill="none" stroke-linecap="round"></path><path d="M 389.818,228.117 C 361.676,241.379 361.306,240.590 333.089,253.698" stroke-width="4.500" stroke="black" fill="none" stroke-linecap="round"></path><path d="M 333.089,253.698 C 305.376,266.571 305.555,266.956 277.958,280.078" stroke-width="4.500" stroke="black" fill="none" stroke-linecap="round"></path><path d="M 277.958,280.078 C 265.206,286.141 265.243,286.224 252.390,292.069" stroke-width="4.500" stroke="black" fill="none" stroke-linecap="round"></path><path d="M 252.390,292.069 C 221.297,306.209 221.575,306.936 190.067,320.048" stroke-width="4.500" stroke="black" fill="none" stroke-linecap="round"></path><path d="M 190.067,320.048 C 176.432,325.722 176.251,325.447 162.102,329.641" stroke-width="4.500" stroke="black" fill="none" stroke-linecap="round"></path><path d="M 162.102,329.641 C 154.678,331.842 154.382,332.551 146.921,332.838" stroke-width="4.500" stroke="black" fill="none" stroke-linecap="round"></path><path d="M 146.921,332.838 C 143.995,332.951 142.002,332.631 141.328,330.440" stroke-width="5.468" stroke="black" fill="none" stroke-linecap="round"></path><path d="M 141.328,330.440 C 140.404,327.435 141.379,325.782 143.725,322.446" stroke-width="6.590" stroke="black" fill="none" stroke-linecap="round"></path><path d="M 143.725,322.446 C 148.970,314.990 149.848,315.382 156.509,308.856" stroke-width="4.792" stroke="black" fill="none" stroke-linecap="round"></path><path d="M 156.509,308.856 C 169.024,296.596 168.465,295.845 182.077,284.874" stroke-width="4.500" stroke="black" fill="none" stroke-linecap="round"></path><path d="M 182.077,284.874 C 197.229,272.663 197.703,273.141 214.037,262.491" stroke-width="4.500" stroke="black" fill="none" stroke-linecap="round"></path><path d="M 214.037,262.491 C 233.258,249.959 233.543,250.384 253.189,238.509" stroke-width="4.500" stroke="black" fill="none" stroke-linecap="round"></path><path d="M 253.189,238.509 C 271.895,227.201 271.792,227.017 290.742,216.126" stroke-width="4.500" stroke="black" fill="none" stroke-linecap="round"></path><path d="M 290.742,216.126 C 309.345,205.433 309.241,205.194 328.295,195.341" stroke-width="4.500" stroke="black" fill="none" stroke-linecap="round"></path><path d="M 328.295,195.341 C 344.796,186.808 345.066,187.331 361.853,179.353" stroke-width="4.500" stroke="black" fill="none" stroke-linecap="round"></path><path d="M 361.853,179.353 C 377.026,172.142 376.779,171.550 392.215,164.964" stroke-width="4.500" stroke="black" fill="none" stroke-linecap="round"></path><path d="M 392.215,164.964 C 403.945,159.959 404.084,160.206 416.185,156.170" stroke-width="4.500" stroke="black" fill="none" stroke-linecap="round"></path><path d="M 416.185,156.170 C 423.260,153.811 423.302,153.627 430.567,152.173" stroke-width="4.500" stroke="black" fill="none" stroke-linecap="round"></path><path d="M 430.567,152.173 C 433.289,151.629 435.482,150.646 436.160,152.173" stroke-width="5.797" stroke="black" fill="none" stroke-linecap="round"></path><path d="M 436.160,152.173 C 437.080,154.244 435.741,156.179 433.763,159.368" stroke-width="6.784" stroke="black" fill="none" stroke-linecap="round"></path><path d="M 433.763,159.368 C 428.550,167.770 427.770,167.362 421.778,175.356" stroke-width="4.686" stroke="black" fill="none" stroke-linecap="round"></path><path d="M 421.778,175.356 C 413.388,186.548 412.984,186.267 404.999,197.739" stroke-width="4.500" stroke="black" fill="none" stroke-linecap="round"></path><path d="M 404.999,197.739 C 397.404,208.650 397.228,208.601 390.617,220.123" stroke-width="4.500" stroke="black" fill="none" stroke-linecap="round"></path><path d="M 390.617,220.123 C 384.843,230.185 384.437,230.150 380.230,240.907" stroke-width="4.500" stroke="black" fill="none" stroke-linecap="round"></path><path d="M 380.230,240.907 C 377.246,248.536 376.946,248.835 376.235,256.895" stroke-width="4.500" stroke="black" fill="none" stroke-linecap="round"></path><path d="M 376.235,256.895 C 375.747,262.425 375.205,263.705 377.833,268.087" stroke-width="4.995" stroke="black" fill="none" stroke-linecap="round"></path><path d="M 377.833,268.087 C 379.999,271.699 381.531,271.380 385.823,272.883" stroke-width="6.283" stroke="black" fill="none" stroke-linecap="round"></path><path d="M 385.823,272.883 C 389.521,274.178 389.813,273.335 393.813,273.683" stroke-width="6.163" stroke="black" fill="none" stroke-linecap="round"></path><path d="M 393.813,273.683 C 399.002,274.134 399.018,273.964 404.200,274.482" stroke-width="5.832" stroke="black" fill="none" stroke-linecap="round"></path><path d="M 404.200,274.482 C 411.003,275.163 411.109,274.706 417.783,276.081" stroke-width="5.110" stroke="black" fill="none" stroke-linecap="round"></path><path d="M 417.783,276.081 C 424.692,277.504 424.654,277.840 431.366,280.078" stroke-width="4.968" stroke="black" fill="none" stroke-linecap="round"></path><path d="M 431.366,280.078 C 437.838,282.236 437.935,282.087 444.150,284.874" stroke-width="4.984" stroke="black" fill="none" stroke-linecap="round"></path><path d="M 444.150,284.874 C 449.520,287.283 449.418,287.544 454.537,290.470" stroke-width="5.210" stroke="black" fill="none" stroke-linecap="round"></path><path d="M 454.537,290.470 C 457.808,292.340 457.733,292.469 460.929,294.467" stroke-width="5.887" stroke="black" fill="none" stroke-linecap="round"></path></svg>