<svg xmlns="http://www.w3.org/2000/svg" xmlns:xlink="http://www.w3.org/1999/xlink" viewBox="0 0 576 416" width="576" height="416"><path d="M 27.071,133.993 C 27.071,138.390 27.071,138.390 27.071,142.787" stroke-width="8.680" stroke="black" fill="none" stroke-linecap="round"></path><path d="M 27.071,142.787 C 27.071,145.984 27.223,145.990 27.071,149.182" stroke-width="7.062" stroke="black" fill="none" stroke-linecap="round"></path><path d="M 27.071,149.182 C 26.824,154.384 26.458,154.370 26.272,159.574" stroke-width="6.940" stroke="black" fill="none" stroke-linecap="round"></path><path d="M 26.272,159.574 C 26.058,165.561 26.272,165.570 26.272,171.565" stroke-width="5.686" stroke="black" fill="none" stroke-linecap="round"></path><path d="M 26.272,171.565 C 26.272,174.763 26.440,174.770 26.272,177.960" stroke-width="6.258" stroke="black" fill="none" stroke-linecap="round"></path><path d="M 26.272,177.960 C 26.040,182.365 25.718,182.350 25.473,186.754" stroke-width="6.853" stroke="black" fill="none" stroke-linecap="round"></path><path d="M 25.473,186.754 C 25.318,189.545 26.467,191.952 25.473,192.350" stroke-width="7.443" stroke="black" fill="none" stroke-linecap="round"></path><path d="M 25.473,192.350 C 24.469,192.751 22.954,190.673 21.478,188.353" stroke-width="8.287" stroke="black" fill="none" stroke-linecap="round"></path><path d="M 21.478,188.353 C 20.158,186.276 20.446,186.009 19.880,183.556" stroke-width="7.293" stroke="black" fill="none" stroke-linecap="round"></path><path d="M 19.880,183.556 C 19.247,180.813 19.454,180.762 19.081,177.960" stroke-width="6.907" stroke="black" fill="none" stroke-linecap="round"></path><path d="M 19.081,177.960 C 18.655,174.766 18.483,174.775 18.282,171.565" stroke-width="6.636" stroke="black" fill="none" stroke-linecap="round"></path><path d="M 18.282,171.565 C 18.083,168.380 18.282,168.367 18.282,165.170" stroke-width="6.568" stroke="black" fill="none" stroke-linecap="round"></path><path d="M 18.282,165.170 C 18.282,160.773 18.052,160.759 18.282,156.376" stroke-width="6.936" stroke="black" fill="none" stroke-linecap="round"></path><path d="M 18.282,156.376 C 18.451,153.164 18.682,153.179 19.081,149.981" stroke-width="6.563" stroke="black" fill="none" stroke-linecap="round"></path><path d="M 19.081,149.981 C 19.481,146.784 19.058,146.669 19.880,143.586" stroke-width="6.537" stroke="black" fill="none" stroke-linecap="round"></path><path d="M 19.880,143.586 C 20.656,140.674 20.850,140.668 22.277,137.990" stroke-width="6.525" stroke="black" fill="none" stroke-linecap="round"></path><path d="M 22.277,137.990 C 24.046,134.673 24.130,134.690 26.272,131.595" stroke-width="6.533" stroke="black" fill="none" stroke-linecap="round"></path><path d="M 26.272,131.595 C 27.726,129.494 27.666,129.401 29.468,127.598" stroke-width="6.797" stroke="black" fill="none" stroke-linecap="round"></path><path d="M 29.468,127.598 C 32.460,124.605 32.452,124.503 35.860,122.002" stroke-width="7.103" stroke="black" fill="none" stroke-linecap="round"></path><path d="M 35.860,122.002 C 38.445,120.106 38.491,119.990 41.453,118.804" stroke-width="7.396" stroke="black" fill="none" stroke-linecap="round"></path><path d="M 41.453,118.804 C 44.483,117.592 45.147,116.531 47.845,117.206" stroke-width="7.789" stroke="black" fill="none" stroke-linecap="round"></path><path d="M 47.845,117.206 C 49.941,117.730 50.575,118.870 51.041,121.203" stroke-width="8.320" stroke="black" fill="none" stroke-linecap="round"></path><path d="M 51.041,121.203 C 51.773,124.865 51.201,125.361 50.242,129.197" stroke-width="7.931" stroke="black" fill="none" stroke-linecap="round"></path><path d="M 50.242,129.197 C 49.603,131.757 49.115,131.633 47.845,133.993" stroke-width="7.136" stroke="black" fill="none" stroke-linecap="round"></path><path d="M 47.845,133.993 C 46.319,136.829 46.476,136.950 44.649,139.589" stroke-width="6.698" stroke="black" fill="none" stroke-linecap="round"></path><path d="M 44.649,139.589 C 42.880,142.146 42.630,141.969 40.654,144.385" stroke-width="6.617" stroke="black" fill="none" stroke-linecap="round"></path><path d="M 40.654,144.385 C 39.034,146.366 39.184,146.498 37.458,148.382" stroke-width="6.886" stroke="black" fill="none" stroke-linecap="round"></path><path d="M 37.458,148.382 C 34.790,151.295 33.084,150.808 31.865,153.978" stroke-width="7.143" stroke="black" fill="none" stroke-linecap="round"></path><path d="M 31.865,153.978 C 31.086,156.004 31.865,157.176 33.463,158.775" stroke-width="8.125" stroke="black" fill="none" stroke-linecap="round"></path><path d="M 33.463,158.775 C 35.061,160.373 35.860,159.574 38.257,160.373" stroke-width="7.324" stroke="black" fill="none" stroke-linecap="round"></path><path d="M 38.257,160.373 C 40.654,161.173 40.725,161.002 43.051,161.972" stroke-width="7.049" stroke="black" fill="none" stroke-linecap="round"></path><path d="M 43.051,161.972 C 45.519,163.001 45.600,162.926 47.845,164.370" stroke-width="6.903" stroke="black" fill="none" stroke-linecap="round"></path><path d="M 47.845,164.370 C 51.193,166.524 51.446,166.374 54.237,169.167" stroke-width="7.139" stroke="black" fill="none" stroke-linecap="round"></path><path d="M 54.237,169.167 C 56.639,171.570 56.376,171.874 58.232,174.763" stroke-width="7.379" stroke="black" fill="none" stroke-linecap="round"></path><path d="M 58.232,174.763 C 59.972,177.470 59.689,177.651 61.428,180.359" stroke-width="7.533" stroke="black" fill="none" stroke-linecap="round"></path><path d="M 61.428,180.359 C 63.284,183.247 63.467,183.128 65.423,185.954" stroke-width="7.473" stroke="black" fill="none" stroke-linecap="round"></path><path d="M 65.423,185.954 C 67.063,188.324 66.701,188.640 68.619,190.751" stroke-width="7.627" stroke="black" fill="none" stroke-linecap="round"></path><path d="M 68.619,190.751 C 70.696,193.037 70.834,194.318 73.413,194.748" stroke-width="7.897" stroke="black" fill="none" stroke-linecap="round"></path><path d="M 73.413,194.748 C 75.628,195.117 75.959,193.781 78.207,192.350" stroke-width="8.068" stroke="black" fill="none" stroke-linecap="round"></path><path d="M 78.207,192.350 C 80.353,190.983 80.403,190.953 82.202,189.152" stroke-width="7.916" stroke="black" fill="none" stroke-linecap="round"></path><path d="M 82.202,189.152 C 84.398,186.955 84.222,186.772 86.197,184.356" stroke-width="7.975" stroke="black" fill="none" stroke-linecap="round"></path><path d="M 86.197,184.356 C 87.817,182.375 88.346,179.834 89.393,180.359" stroke-width="8.328" stroke="black" fill="none" stroke-linecap="round"></path><path d="M 89.393,180.359 C 90.743,181.034 89.857,183.673 90.991,186.754" stroke-width="8.345" stroke="black" fill="none" stroke-linecap="round"></path><path d="M 90.991,186.754 C 92.653,191.267 91.438,193.240 94.986,195.547" stroke-width="7.785" stroke="black" fill="none" stroke-linecap="round"></path><path d="M 94.986,195.547 C 99.428,198.436 101.024,197.146 106.971,197.146" stroke-width="7.421" stroke="black" fill="none" stroke-linecap="round"></path><path d="M 106.971,197.146 C 110.212,197.146 110.181,196.396 113.363,195.547" stroke-width="6.741" stroke="black" fill="none" stroke-linecap="round"></path><path d="M 113.363,195.547 C 116.173,194.798 116.160,194.748 118.956,193.948" stroke-width="6.716" stroke="black" fill="none" stroke-linecap="round"></path><path d="M 118.956,193.948 C 121.753,193.149 121.871,193.453 124.549,192.350" stroke-width="6.709" stroke="black" fill="none" stroke-linecap="round"></path><path d="M 124.549,192.350 C 128.663,190.655 128.654,190.539 132.539,188.353" stroke-width="7.025" stroke="black" fill="none" stroke-linecap="round"></path><path d="M 132.539,188.353 C 135.046,186.942 134.749,185.553 137.333,185.155" stroke-width="7.459" stroke="black" fill="none" stroke-linecap="round"></path><path d="M 137.333,185.155 C 139.942,184.753 140.528,185.277 142.926,186.754" stroke-width="7.882" stroke="black" fill="none" stroke-linecap="round"></path><path d="M 142.926,186.754 C 145.722,188.475 145.216,189.272 147.720,191.550" stroke-width="7.613" stroke="black" fill="none" stroke-linecap="round"></path><path d="M 147.720,191.550 C 149.610,193.269 149.437,193.798 151.715,194.748" stroke-width="7.759" stroke="black" fill="none" stroke-linecap="round"></path><path d="M 151.715,194.748 C 154.231,195.796 154.506,195.547 157.308,195.547" stroke-width="7.996" stroke="black" fill="none" stroke-linecap="round"></path><path d="M 157.308,195.547 C 160.898,195.547 160.892,194.928 164.499,194.748" stroke-width="7.585" stroke="black" fill="none" stroke-linecap="round"></path><path d="M 164.499,194.748 C 168.882,194.529 168.894,194.748 173.288,194.748" stroke-width="7.276" stroke="black" fill="none" stroke-linecap="round"></path><path d="M 173.288,194.748 C 176.484,194.748 176.495,194.560 179.680,194.748" stroke-width="6.745" stroke="black" fill="none" stroke-linecap="round"></path><path d="M 179.680,194.748 C 183.286,194.960 183.265,195.347 186.871,195.547" stroke-width="6.514" stroke="black" fill="none" stroke-linecap="round"></path><path d="M 186.871,195.547 C 190.456,195.746 190.476,195.358 194.062,195.547" stroke-width="6.298" stroke="black" fill="none" stroke-linecap="round"></path><path d="M 194.062,195.547 C 198.067,195.758 198.056,195.966 202.052,196.347" stroke-width="6.167" stroke="black" fill="none" stroke-linecap="round"></path><path d="M 202.052,196.347 C 206.445,196.765 206.438,196.946 210.841,197.146" stroke-width="5.995" stroke="black" fill="none" stroke-linecap="round"></path><path d="M 210.841,197.146 C 215.227,197.345 215.246,197.355 219.630,197.146" stroke-width="5.951" stroke="black" fill="none" stroke-linecap="round"></path><path d="M 219.630,197.146 C 223.636,196.955 223.624,196.727 227.620,196.347" stroke-width="6.063" stroke="black" fill="none" stroke-linecap="round"></path><path d="M 227.620,196.347 C 232.013,195.928 232.047,196.171 236.410,195.547" stroke-width="6.046" stroke="black" fill="none" stroke-linecap="round"></path><path d="M 236.410,195.547 C 240.437,194.972 240.512,195.092 244.400,193.948" stroke-width="5.988" stroke="black" fill="none" stroke-linecap="round"></path><path d="M 244.400,193.948 C 247.303,193.094 247.155,192.642 249.993,191.550" stroke-width="6.422" stroke="black" fill="none" stroke-linecap="round"></path><path d="M 249.993,191.550 C 252.349,190.644 252.586,191.137 254.787,189.951" stroke-width="6.774" stroke="black" fill="none" stroke-linecap="round"></path><path d="M 254.787,189.951 C 257.780,188.339 259.229,188.488 260.380,185.954" stroke-width="7.281" stroke="black" fill="none" stroke-linecap="round"></path><path d="M 260.380,185.954 C 261.226,184.091 260.479,182.102 258.782,181.158" stroke-width="8.010" stroke="black" fill="none" stroke-linecap="round"></path><path d="M 258.782,181.158 C 256.884,180.103 253.189,181.367 253.189,181.957" stroke-width="8.306" stroke="black" fill="none" stroke-linecap="round"></path><path d="M 253.189,181.957 C 253.189,182.566 256.048,183.751 258.782,183.556" stroke-width="8.558" stroke="black" fill="none" stroke-linecap="round"></path><path d="M 258.782,183.556 C 261.641,183.352 261.447,181.503 264.375,181.158" stroke-width="8.446" stroke="black" fill="none" stroke-linecap="round"></path><path d="M 264.375,181.158 C 268.238,180.703 268.364,181.624 272.365,181.957" stroke-width="6.665" stroke="black" fill="none" stroke-linecap="round"></path><path d="M 272.365,181.957 C 277.952,182.423 277.965,182.271 283.551,182.757" stroke-width="5.744" stroke="black" fill="none" stroke-linecap="round"></path><path d="M 283.551,182.757 C 287.154,183.070 287.146,183.156 290.742,183.556" stroke-width="6.131" stroke="black" fill="none" stroke-linecap="round"></path><circle r="3" cx="100.57928466796875" cy="137.99014282226562" fill="black"></circle><path d="M 303.526,156.376 C 304.325,162.372 303.872,162.464 305.124,168.367" stroke-width="8.416" stroke="black" fill="none" stroke-linecap="round"></path><path d="M 305.124,168.367 C 306.669,175.655 307.246,175.531 309.119,182.757" stroke-width="6.776" stroke="black" fill="none" stroke-linecap="round"></path><path d="M 309.119,182.757 C 310.043,186.323 310.717,190.610 310.717,189.951" stroke-width="7.224" stroke="black" fill="none" stroke-linecap="round"></path><path d="M 310.717,189.951 C 310.717,189.011 309.828,184.767 309.119,179.559" stroke-width="7.868" stroke="black" fill="none" stroke-linecap="round"></path><path d="M 309.119,179.559 C 308.630,175.974 308.913,175.930 308.320,172.365" stroke-width="6.710" stroke="black" fill="none" stroke-linecap="round"></path><path d="M 308.320,172.365 C 307.715,168.735 307.400,168.789 306.722,165.170" stroke-width="6.317" stroke="black" fill="none" stroke-linecap="round"></path><path d="M 306.722,165.170 C 306.201,162.394 306.513,162.331 305.923,159.574" stroke-width="6.617" stroke="black" fill="none" stroke-linecap="round"></path><path d="M 305.923,159.574 C 305.315,156.735 303.443,154.155 304.325,153.978" stroke-width="7.330" stroke="black" fill="none" stroke-linecap="round"></path><path d="M 304.325,153.978 C 305.441,153.755 307.426,156.091 309.918,158.775" stroke-width="7.708" stroke="black" fill="none" stroke-linecap="round"></path><path d="M 309.918,158.775 C 312.620,161.686 312.315,161.972 314.712,165.170" stroke-width="6.429" stroke="black" fill="none" stroke-linecap="round"></path><path d="M 314.712,165.170 C 317.109,168.367 316.803,168.653 319.506,171.565" stroke-width="6.211" stroke="black" fill="none" stroke-linecap="round"></path><path d="M 319.506,171.565 C 321.997,174.249 322.386,173.873 325.099,176.362" stroke-width="6.258" stroke="black" fill="none" stroke-linecap="round"></path><path d="M 325.099,176.362 C 327.180,178.270 327.096,178.360 329.094,180.359" stroke-width="6.598" stroke="black" fill="none" stroke-linecap="round"></path><path d="M 329.094,180.359 C 331.890,183.156 331.591,185.001 334.687,185.954" stroke-width="7.047" stroke="black" fill="none" stroke-linecap="round"></path><path d="M 334.687,185.954 C 336.784,186.600 338.047,185.528 339.481,183.556" stroke-width="7.901" stroke="black" fill="none" stroke-linecap="round"></path><path d="M 339.481,183.556 C 341.243,181.131 340.507,180.399 341.079,177.161" stroke-width="6.766" stroke="black" fill="none" stroke-linecap="round"></path><path d="M 341.079,177.161 C 341.706,173.605 341.697,173.576 341.878,169.966" stroke-width="6.442" stroke="black" fill="none" stroke-linecap="round"></path><path d="M 341.878,169.966 C 342.097,165.582 341.878,165.570 341.878,161.173" stroke-width="6.076" stroke="black" fill="none" stroke-linecap="round"></path><path d="M 341.878,161.173 C 341.878,157.176 341.678,157.166 341.878,153.179" stroke-width="6.185" stroke="black" fill="none" stroke-linecap="round"></path><path d="M 341.878,153.179 C 342.078,149.172 342.256,149.180 342.677,145.185" stroke-width="6.133" stroke="black" fill="none" stroke-linecap="round"></path><path d="M 342.677,145.185 C 343.055,141.585 343.304,141.600 343.476,137.990" stroke-width="6.330" stroke="black" fill="none" stroke-linecap="round"></path><path d="M 367.446,186.754 C 369.443,182.757 370.212,182.938 371.441,178.760" stroke-width="8.716" stroke="black" fill="none" stroke-linecap="round"></path><path d="M 371.441,178.760 C 372.210,176.143 372.435,173.562 371.441,173.164" stroke-width="8.271" stroke="black" fill="none" stroke-linecap="round"></path><path d="M 371.441,173.164 C 370.437,172.762 367.830,174.852 367.446,177.161" stroke-width="8.449" stroke="black" fill="none" stroke-linecap="round"></path><path d="M 367.446,177.161 C 367.031,179.648 367.602,181.156 369.843,182.757" stroke-width="8.159" stroke="black" fill="none" stroke-linecap="round"></path><path d="M 369.843,182.757 C 373.195,185.153 379.109,186.270 378.632,185.155" stroke-width="7.316" stroke="black" fill="none" stroke-linecap="round"></path><path d="M 412.989,169.167 C 408.195,168.767 407.765,167.276 403.401,168.367" stroke-width="8.742" stroke="black" fill="none" stroke-linecap="round"></path><path d="M 403.401,168.367 C 399.775,169.274 399.639,170.293 397.009,173.164" stroke-width="7.670" stroke="black" fill="none" stroke-linecap="round"></path><path d="M 397.009,173.164 C 395.244,175.090 395.390,175.431 394.612,177.960" stroke-width="7.071" stroke="black" fill="none" stroke-linecap="round"></path><path d="M 394.612,177.960 C 393.792,180.627 392.658,181.631 393.813,183.556" stroke-width="7.511" stroke="black" fill="none" stroke-linecap="round"></path><path d="M 393.813,183.556 C 395.055,185.628 396.754,186.544 399.406,185.954" stroke-width="7.851" stroke="black" fill="none" stroke-linecap="round"></path><path d="M 399.406,185.954 C 403.945,184.945 404.623,183.932 408.195,180.359" stroke-width="7.252" stroke="black" fill="none" stroke-linecap="round"></path><path d="M 408.195,180.359 C 411.016,177.536 410.769,176.955 412.190,173.164" stroke-width="7.218" stroke="black" fill="none" stroke-linecap="round"></path><path d="M 412.190,173.164 C 413.166,170.560 412.137,166.595 412.989,167.568" stroke-width="7.581" stroke="black" fill="none" stroke-linecap="round"></path><path d="M 412.989,167.568 C 414.934,169.792 415.936,173.400 417.783,179.559" stroke-width="7.742" stroke="black" fill="none" stroke-linecap="round"></path><path d="M 417.783,179.559 C 419.532,185.391 418.874,185.578 420.180,191.550" stroke-width="5.683" stroke="black" fill="none" stroke-linecap="round"></path><path d="M 420.180,191.550 C 421.671,198.368 421.969,198.306 423.376,205.140" stroke-width="5.239" stroke="black" fill="none" stroke-linecap="round"></path><path d="M 423.376,205.140 C 424.766,211.896 424.919,211.893 425.773,218.730" stroke-width="5.046" stroke="black" fill="none" stroke-linecap="round"></path><path d="M 425.773,218.730 C 426.517,224.684 426.778,224.748 426.572,230.721" stroke-width="5.203" stroke="black" fill="none" stroke-linecap="round"></path><path d="M 426.572,230.721 C 426.378,236.340 426.335,236.467 424.974,241.913" stroke-width="5.343" stroke="black" fill="none" stroke-linecap="round"></path><path d="M 424.974,241.913 C 423.938,246.060 423.948,246.231 421.778,249.907" stroke-width="5.770" stroke="black" fill="none" stroke-linecap="round"></path><path d="M 421.778,249.907 C 418.755,255.025 418.697,255.192 414.587,259.499" stroke-width="5.416" stroke="black" fill="none" stroke-linecap="round"></path><path d="M 414.587,259.499 C 410.307,263.985 410.378,264.524 404.999,267.494" stroke-width="5.255" stroke="black" fill="none" stroke-linecap="round"></path><path d="M 404.999,267.494 C 398.792,270.920 398.328,270.314 391.416,272.290" stroke-width="4.981" stroke="black" fill="none" stroke-linecap="round"></path><path d="M 391.416,272.290 C 384.346,274.311 384.314,274.700 377.034,275.488" stroke-width="4.868" stroke="black" fill="none" stroke-linecap="round"></path><path d="M 377.034,275.488 C 369.532,276.299 369.443,275.488 361.853,275.488" stroke-width="4.690" stroke="black" fill="none" stroke-linecap="round"></path><path d="M 361.853,275.488 C 357.458,275.488 357.458,275.488 353.064,275.488" stroke-width="5.564" stroke="black" fill="none" stroke-linecap="round"></path><path d="M 440.954,185.155 C 442.152,179.559 441.433,179.293 443.351,173.963" stroke-width="8.716" stroke="black" fill="none" stroke-linecap="round"></path><path d="M 443.351,173.963 C 445.029,169.300 446.007,169.685 448.145,165.170" stroke-width="6.328" stroke="black" fill="none" stroke-linecap="round"></path><path d="M 448.145,165.170 C 449.603,162.091 449.343,161.972 450.542,158.775" stroke-width="6.393" stroke="black" fill="none" stroke-linecap="round"></path><path d="M 480.904,157.176 C 476.509,161.173 476.046,160.774 472.115,165.170" stroke-width="8.373" stroke="black" fill="none" stroke-linecap="round"></path><path d="M 472.115,165.170 C 469.254,168.369 469.150,168.500 467.321,172.365" stroke-width="6.529" stroke="black" fill="none" stroke-linecap="round"></path><path d="M 467.321,172.365 C 465.555,176.095 465.888,176.305 464.924,180.359" stroke-width="6.176" stroke="black" fill="none" stroke-linecap="round"></path><path d="M 464.924,180.359 C 463.891,184.699 463.326,184.781 463.326,189.152" stroke-width="5.979" stroke="black" fill="none" stroke-linecap="round"></path><path d="M 463.326,189.152 C 463.326,192.376 463.161,193.122 464.924,195.547" stroke-width="6.325" stroke="black" fill="none" stroke-linecap="round"></path><path d="M 464.924,195.547 C 466.357,197.519 467.162,197.803 469.718,197.945" stroke-width="6.796" stroke="black" fill="none" stroke-linecap="round"></path><path d="M 469.718,197.945 C 474.353,198.203 474.921,198.101 479.306,196.347" stroke-width="6.904" stroke="black" fill="none" stroke-linecap="round"></path><path d="M 479.306,196.347 C 482.911,194.904 482.600,194.069 485.698,191.550" stroke-width="6.338" stroke="black" fill="none" stroke-linecap="round"></path><path d="M 485.698,191.550 C 488.992,188.873 489.339,189.131 492.090,185.954" stroke-width="6.009" stroke="black" fill="none" stroke-linecap="round"></path><path d="M 492.090,185.954 C 494.532,183.135 494.741,183.016 496.085,179.559" stroke-width="6.084" stroke="black" fill="none" stroke-linecap="round"></path><path d="M 496.085,179.559 C 497.538,175.822 498.555,175.056 497.683,171.565" stroke-width="6.083" stroke="black" fill="none" stroke-linecap="round"></path><path d="M 497.683,171.565 C 496.957,168.661 495.868,167.762 492.889,166.769" stroke-width="6.989" stroke="black" fill="none" stroke-linecap="round"></path><path d="M 492.889,166.769 C 488.677,165.364 488.001,166.127 483.301,166.769" stroke-width="7.011" stroke="black" fill="none" stroke-linecap="round"></path><path d="M 483.301,166.769 C 479.212,167.327 475.762,168.716 475.311,169.167" stroke-width="7.189" stroke="black" fill="none" stroke-linecap="round"></path><path d="M 475.311,169.167 C 474.963,169.515 478.707,169.367 481.703,168.367" stroke-width="7.882" stroke="black" fill="none" stroke-linecap="round"></path><path d="M 481.703,168.367 C 484.699,167.368 484.976,167.280 487.296,165.170" stroke-width="6.882" stroke="black" fill="none" stroke-linecap="round"></path><path d="M 487.296,165.170 C 489.371,163.283 491.223,162.020 490.492,160.373" stroke-width="7.432" stroke="black" fill="none" stroke-linecap="round"></path><path d="M 490.492,160.373 C 489.625,158.423 487.413,158.749 484.100,157.975" stroke-width="6.694" stroke="black" fill="none" stroke-linecap="round"></path><path d="M 484.100,157.975 C 475.428,155.951 475.368,155.969 466.522,154.778" stroke-width="4.894" stroke="black" fill="none" stroke-linecap="round"></path><path d="M 466.522,154.778 C 454.594,153.171 454.537,153.579 442.552,152.379" stroke-width="4.500" stroke="black" fill="none" stroke-linecap="round"></path><path d="M 442.552,152.379 C 430.567,151.180 430.558,151.265 418.582,149.981" stroke-width="4.500" stroke="black" fill="none" stroke-linecap="round"></path><path d="M 418.582,149.981 C 408.186,148.867 407.963,149.792 397.808,147.583" stroke-width="4.500" stroke="black" fill="none" stroke-linecap="round"></path><path d="M 397.808,147.583 C 389.586,145.795 389.435,145.569 381.828,141.987" stroke-width="4.500" stroke="black" fill="none" stroke-linecap="round"></path><path d="M 381.828,141.987 C 375.852,139.174 375.087,139.452 370.642,134.793" stroke-width="4.787" stroke="black" fill="none" stroke-linecap="round"></path><path d="M 370.642,134.793 C 366.697,130.658 366.185,129.859 365.049,124.400" stroke-width="5.143" stroke="black" fill="none" stroke-linecap="round"></path><path d="M 365.049,124.400 C 364.188,120.266 364.639,119.499 366.647,115.607" stroke-width="5.650" stroke="black" fill="none" stroke-linecap="round"></path><path d="M 366.647,115.607 C 371.031,107.109 371.091,106.536 377.833,99.619" stroke-width="4.542" stroke="black" fill="none" stroke-linecap="round"></path><path d="M 377.833,99.619 C 386.672,90.548 386.934,90.116 397.808,83.631" stroke-width="4.500" stroke="black" fill="none" stroke-linecap="round"></path><path d="M 397.808,83.631 C 407.708,77.725 408.219,77.517 419.381,74.837" stroke-width="4.500" stroke="black" fill="none" stroke-linecap="round"></path><path d="M 419.381,74.837 C 428.194,72.721 428.796,72.917 437.758,74.038" stroke-width="4.500" stroke="black" fill="none" stroke-linecap="round"></path><path d="M 437.758,74.038 C 444.776,74.916 445.093,75.573 451.341,78.834" stroke-width="4.632" stroke="black" fill="none" stroke-linecap="round"></path><path d="M 451.341,78.834 C 454.282,80.370 454.471,80.756 456.135,83.631" stroke-width="5.761" stroke="black" fill="none" stroke-linecap="round"></path><path d="M 456.135,83.631 C 458.866,88.350 459.051,88.628 460.130,94.023" stroke-width="5.531" stroke="black" fill="none" stroke-linecap="round"></path><path d="M 460.130,94.023 C 461.448,100.619 462.033,100.987 460.929,107.613" stroke-width="5.147" stroke="black" fill="none" stroke-linecap="round"></path><path d="M 460.929,107.613 C 458.837,120.172 458.769,120.592 453.738,132.394" stroke-width="4.500" stroke="black" fill="none" stroke-linecap="round"></path><path d="M 453.738,132.394 C 447.183,147.771 446.697,147.779 437.758,161.972" stroke-width="4.500" stroke="black" fill="none" stroke-linecap="round"></path><path d="M 437.758,161.972 C 428.320,176.957 427.979,176.844 416.984,190.751" stroke-width="4.500" stroke="black" fill="none" stroke-linecap="round"></path><path d="M 416.984,190.751 C 406.805,203.624 406.348,203.276 395.411,215.532" stroke-width="4.500" stroke="black" fill="none" stroke-linecap="round"></path><path d="M 395.411,215.532 C 386.373,225.660 385.779,225.156 377.034,235.517" stroke-width="4.500" stroke="black" fill="none" stroke-linecap="round"></path><path d="M 377.034,235.517 C 370.598,243.143 370.089,243.013 365.049,251.505" stroke-width="4.500" stroke="black" fill="none" stroke-linecap="round"></path><path d="M 365.049,251.505 C 362.498,255.803 361.853,256.415 361.853,261.098" stroke-width="4.964" stroke="black" fill="none" stroke-linecap="round"></path><path d="M 361.853,261.098 C 361.853,264.409 361.844,267.494 365.049,267.494" stroke-width="5.781" stroke="black" fill="none" stroke-linecap="round"></path><path d="M 365.049,267.494 C 381.419,267.494 383.123,264.776 401.004,261.098" stroke-width="4.690" stroke="black" fill="none" stroke-linecap="round"></path><path d="M 401.004,261.098 C 425.870,255.983 425.712,255.215 450.542,249.907" stroke-width="4.500" stroke="black" fill="none" stroke-linecap="round"></path><path d="M 450.542,249.907 C 472.453,245.222 472.363,244.410 494.487,241.113" stroke-width="4.500" stroke="black" fill="none" stroke-linecap="round"></path><path d="M 494.487,241.113 C 509.916,238.814 510.067,239.914 525.648,238.715" stroke-width="4.500" stroke="black" fill="none" stroke-linecap="round"></path></svg>