<svg xmlns="http://www.w3.org/2000/svg" xmlns:xlink="http://www.w3.org/1999/xlink" viewBox="0 0 576 416" width="576" height="416"><path d="M 170.891,245.110 C 167.695,250.706 166.904,250.397 164.499,256.302" stroke-width="8.269" stroke="black" fill="none" stroke-linecap="round"></path><path d="M 164.499,256.302 C 162.510,261.188 163.395,261.522 162.102,266.694" stroke-width="7.184" stroke="black" fill="none" stroke-linecap="round"></path><path d="M 162.102,266.694 C 161.397,269.516 161.283,269.486 160.504,272.290" stroke-width="6.679" stroke="black" fill="none" stroke-linecap="round"></path><path d="M 160.504,272.290 C 159.285,276.681 157.938,281.760 158.107,281.083" stroke-width="6.904" stroke="black" fill="none" stroke-linecap="round"></path><path d="M 158.107,281.083 C 158.338,280.162 159.691,275.084 161.303,269.092" stroke-width="7.592" stroke="black" fill="none" stroke-linecap="round"></path><path d="M 161.303,269.092 C 162.488,264.692 162.351,264.650 163.700,260.299" stroke-width="6.290" stroke="black" fill="none" stroke-linecap="round"></path><path d="M 163.700,260.299 C 165.946,253.059 166.265,253.157 168.494,245.910" stroke-width="5.132" stroke="black" fill="none" stroke-linecap="round"></path><path d="M 168.494,245.910 C 174.255,227.177 174.657,227.258 179.680,208.338" stroke-width="4.500" stroke="black" fill="none" stroke-linecap="round"></path><path d="M 179.680,208.338 C 181.449,201.677 181.013,201.563 182.077,194.748" stroke-width="4.500" stroke="black" fill="none" stroke-linecap="round"></path><path d="M 182.077,194.748 C 183.011,188.773 182.614,188.705 183.675,182.757" stroke-width="4.953" stroke="black" fill="none" stroke-linecap="round"></path><path d="M 183.675,182.757 C 184.611,177.513 184.583,177.474 186.072,172.365" stroke-width="5.343" stroke="black" fill="none" stroke-linecap="round"></path><path d="M 186.072,172.365 C 187.379,167.882 187.457,167.876 189.268,163.571" stroke-width="5.658" stroke="black" fill="none" stroke-linecap="round"></path><path d="M 189.268,163.571 C 190.653,160.282 190.695,160.274 192.464,157.176" stroke-width="6.116" stroke="black" fill="none" stroke-linecap="round"></path><path d="M 192.464,157.176 C 193.891,154.678 193.848,151.821 195.660,152.379" stroke-width="7.142" stroke="black" fill="none" stroke-linecap="round"></path><path d="M 195.660,152.379 C 199.042,153.420 199.642,156.091 202.851,160.373" stroke-width="7.708" stroke="black" fill="none" stroke-linecap="round"></path><path d="M 202.851,160.373 C 205.634,164.085 205.145,164.436 207.645,168.367" stroke-width="6.370" stroke="black" fill="none" stroke-linecap="round"></path><path d="M 207.645,168.367 C 210.738,173.229 210.884,173.136 214.037,177.960" stroke-width="5.630" stroke="black" fill="none" stroke-linecap="round"></path><path d="M 214.037,177.960 C 217.676,183.528 217.496,183.649 221.228,189.152" stroke-width="5.109" stroke="black" fill="none" stroke-linecap="round"></path><path d="M 221.228,189.152 C 225.087,194.840 225.096,194.844 229.218,200.344" stroke-width="5.104" stroke="black" fill="none" stroke-linecap="round"></path><path d="M 229.218,200.344 C 233.485,206.035 233.539,206.000 238.008,211.535" stroke-width="4.959" stroke="black" fill="none" stroke-linecap="round"></path><path d="M 238.008,211.535 C 241.928,216.392 241.705,216.618 245.998,221.128" stroke-width="5.026" stroke="black" fill="none" stroke-linecap="round"></path><path d="M 245.998,221.128 C 249.695,225.012 249.982,224.737 253.988,228.323" stroke-width="5.357" stroke="black" fill="none" stroke-linecap="round"></path><path d="M 253.988,228.323 C 257.573,231.532 257.468,231.661 261.179,234.718" stroke-width="5.624" stroke="black" fill="none" stroke-linecap="round"></path><path d="M 261.179,234.718 C 264.260,237.257 264.223,237.361 267.571,239.514" stroke-width="5.964" stroke="black" fill="none" stroke-linecap="round"></path><path d="M 267.571,239.514 C 269.816,240.959 269.968,240.713 272.365,241.913" stroke-width="6.612" stroke="black" fill="none" stroke-linecap="round"></path><path d="M 272.365,241.913 C 274.762,243.112 274.668,243.352 277.159,244.311" stroke-width="6.772" stroke="black" fill="none" stroke-linecap="round"></path><path d="M 277.159,244.311 C 279.861,245.351 283.759,246.288 282.752,245.910" stroke-width="7.364" stroke="black" fill="none" stroke-linecap="round"></path><path d="M 282.752,245.910 C 280.563,245.089 276.847,243.591 270.767,241.913" stroke-width="7.809" stroke="black" fill="none" stroke-linecap="round"></path><path d="M 270.767,241.913 C 265.261,240.393 265.213,240.486 259.581,239.514" stroke-width="5.821" stroke="black" fill="none" stroke-linecap="round"></path><path d="M 259.581,239.514 C 253.628,238.488 253.617,238.281 247.596,237.916" stroke-width="5.416" stroke="black" fill="none" stroke-linecap="round"></path><path d="M 247.596,237.916 C 240.433,237.481 240.399,237.716 233.214,237.916" stroke-width="5.026" stroke="black" fill="none" stroke-linecap="round"></path><path d="M 233.214,237.916 C 226.017,238.116 225.974,237.898 218.832,238.715" stroke-width="5.007" stroke="black" fill="none" stroke-linecap="round"></path><path d="M 218.832,238.715 C 211.992,239.497 212.026,239.842 205.248,241.113" stroke-width="4.884" stroke="black" fill="none" stroke-linecap="round"></path><path d="M 205.248,241.113 C 199.242,242.240 199.118,241.838 193.263,243.511" stroke-width="5.125" stroke="black" fill="none" stroke-linecap="round"></path><path d="M 193.263,243.511 C 187.932,245.035 188.058,245.480 182.876,247.508" stroke-width="5.423" stroke="black" fill="none" stroke-linecap="round"></path><path d="M 182.876,247.508 C 178.870,249.077 178.504,248.535 174.886,250.706" stroke-width="5.716" stroke="black" fill="none" stroke-linecap="round"></path><path d="M 174.886,250.706 C 172.511,252.132 168.943,254.773 170.891,254.703" stroke-width="6.984" stroke="black" fill="none" stroke-linecap="round"></path><path d="M 170.891,254.703 C 180.129,254.373 184.151,252.675 197.258,249.907" stroke-width="5.493" stroke="black" fill="none" stroke-linecap="round"></path><path d="M 197.258,249.907 C 220.106,245.081 220.272,245.637 242.802,239.514" stroke-width="4.500" stroke="black" fill="none" stroke-linecap="round"></path><path d="M 242.802,239.514 C 284.991,228.050 284.588,226.504 326.697,214.733" stroke-width="4.500" stroke="black" fill="none" stroke-linecap="round"></path><path d="M 326.697,214.733 C 338.920,211.316 339.090,211.972 351.466,209.137" stroke-width="4.500" stroke="black" fill="none" stroke-linecap="round"></path><path d="M 351.466,209.137 C 372.248,204.377 372.187,204.095 393.014,199.544" stroke-width="4.500" stroke="black" fill="none" stroke-linecap="round"></path><path d="M 393.014,199.544 C 406.943,196.501 407.016,196.839 420.979,193.948" stroke-width="4.500" stroke="black" fill="none" stroke-linecap="round"></path><path d="M 420.979,193.948 C 430.187,192.042 430.170,191.962 439.356,189.951" stroke-width="4.500" stroke="black" fill="none" stroke-linecap="round"></path><path d="M 439.356,189.951 C 442.954,189.164 446.333,188.781 446.547,188.353" stroke-width="5.219" stroke="black" fill="none" stroke-linecap="round"></path><path d="M 446.547,188.353 C 446.732,187.981 443.348,188.238 440.155,188.353" stroke-width="6.079" stroke="black" fill="none" stroke-linecap="round"></path><path d="M 440.155,188.353 C 432.162,188.638 432.142,188.442 424.175,189.152" stroke-width="4.992" stroke="black" fill="none" stroke-linecap="round"></path><path d="M 424.175,189.152 C 391.792,192.039 391.848,192.729 359.456,195.547" stroke-width="4.500" stroke="black" fill="none" stroke-linecap="round"></path><path d="M 359.456,195.547 C 327.529,198.325 327.516,199.653 295.536,200.344" stroke-width="4.500" stroke="black" fill="none" stroke-linecap="round"></path><path d="M 295.536,200.344 C 271.986,200.852 271.723,200.767 248.395,197.945" stroke-width="4.500" stroke="black" fill="none" stroke-linecap="round"></path><path d="M 248.395,197.945 C 235.369,196.370 235.138,195.847 222.826,191.550" stroke-width="4.500" stroke="black" fill="none" stroke-linecap="round"></path><path d="M 222.826,191.550 C 217.959,189.852 210.145,188.255 214.037,185.954" stroke-width="4.500" stroke="black" fill="none" stroke-linecap="round"></path><path d="M 214.037,185.954 C 254.090,162.275 261.124,159.436 310.717,139.589" stroke-width="4.500" stroke="black" fill="none" stroke-linecap="round"></path><path d="M 310.717,139.589 C 341.024,127.460 342.145,130.284 373.838,122.002" stroke-width="4.500" stroke="black" fill="none" stroke-linecap="round"></path><path d="M 373.838,122.002 C 395.679,116.295 395.653,115.936 417.783,111.610" stroke-width="4.500" stroke="black" fill="none" stroke-linecap="round"></path><path d="M 417.783,111.610 C 430.410,109.141 430.588,110.154 443.351,108.412" stroke-width="4.500" stroke="black" fill="none" stroke-linecap="round"></path><path d="M 443.351,108.412 C 448.166,107.755 451.671,107.321 452.939,106.813" stroke-width="4.560" stroke="black" fill="none" stroke-linecap="round"></path><path d="M 452.939,106.813 C 453.668,106.521 450.142,106.813 447.346,106.813" stroke-width="6.396" stroke="black" fill="none" stroke-linecap="round"></path><path d="M 447.346,106.813 C 438.956,106.813 438.928,106.203 430.567,106.813" stroke-width="4.848" stroke="black" fill="none" stroke-linecap="round"></path><path d="M 430.567,106.813 C 400.576,109.001 400.493,108.730 370.642,112.409" stroke-width="4.500" stroke="black" fill="none" stroke-linecap="round"></path><path d="M 370.642,112.409 C 345.362,115.525 345.068,114.703 320.305,120.403" stroke-width="4.500" stroke="black" fill="none" stroke-linecap="round"></path><path d="M 320.305,120.403 C 299.924,125.095 299.736,125.390 280.355,133.194" stroke-width="4.500" stroke="black" fill="none" stroke-linecap="round"></path><path d="M 280.355,133.194 C 266.976,138.580 265.327,137.676 254.787,146.784" stroke-width="4.500" stroke="black" fill="none" stroke-linecap="round"></path><path d="M 254.787,146.784 C 247.749,152.865 246.534,154.603 245.199,163.571" stroke-width="4.500" stroke="black" fill="none" stroke-linecap="round"></path><path d="M 245.199,163.571 C 243.737,173.389 244.623,175.209 249.194,184.356" stroke-width="4.500" stroke="black" fill="none" stroke-linecap="round"></path><path d="M 249.194,184.356 C 254.211,194.395 256.175,193.739 264.375,201.942" stroke-width="4.500" stroke="black" fill="none" stroke-linecap="round"></path><path d="M 264.375,201.942 C 278.547,216.122 279.641,215.045 293.938,229.122" stroke-width="4.500" stroke="black" fill="none" stroke-linecap="round"></path><path d="M 293.938,229.122 C 304.809,239.827 305.955,239.293 314.712,251.505" stroke-width="4.500" stroke="black" fill="none" stroke-linecap="round"></path><path d="M 314.712,251.505 C 319.138,257.679 320.911,259.020 320.305,265.895" stroke-width="4.500" stroke="black" fill="none" stroke-linecap="round"></path><path d="M 320.305,265.895 C 319.712,272.610 317.973,274.263 312.315,278.685" stroke-width="4.500" stroke="black" fill="none" stroke-linecap="round"></path><path d="M 312.315,278.685 C 305.189,284.255 303.872,283.350 294.737,285.880" stroke-width="4.500" stroke="black" fill="none" stroke-linecap="round"></path><path d="M 294.737,285.880 C 259.128,295.741 258.820,294.836 222.826,303.467" stroke-width="4.500" stroke="black" fill="none" stroke-linecap="round"></path><path d="M 222.826,303.467 C 210.480,306.427 210.390,306.049 198.057,309.063" stroke-width="4.500" stroke="black" fill="none" stroke-linecap="round"></path><path d="M 198.057,309.063 C 176.033,314.443 175.999,314.342 154.112,320.254" stroke-width="4.500" stroke="black" fill="none" stroke-linecap="round"></path><path d="M 154.112,320.254 C 136.049,325.134 136.030,325.112 118.157,330.646" stroke-width="4.500" stroke="black" fill="none" stroke-linecap="round"></path><path d="M 118.157,330.646 C 102.471,335.504 102.265,335.061 86.996,341.039" stroke-width="4.500" stroke="black" fill="none" stroke-linecap="round"></path><path d="M 86.996,341.039 C 74.700,345.853 75.011,346.634 63.026,352.230" stroke-width="4.500" stroke="black" fill="none" stroke-linecap="round"></path><circle r="3" cx="206.04745483398438" cy="333.0445556640625" fill="black"></circle></svg>