<svg xmlns="http://www.w3.org/2000/svg" xmlns:xlink="http://www.w3.org/1999/xlink" viewBox="0 0 576 416" width="576" height="416"><circle r="3" cx="122.95132446289062" cy="285.9422607421875" fill="black"></circle><path d="M 444.150,205.203 C 435.361,209.999 435.117,209.614 426.572,214.795" stroke-width="8.072" stroke="black" fill="none" stroke-linecap="round"></path><path d="M 426.572,214.795 C 421.933,217.608 422.192,218.014 417.783,221.191" stroke-width="5.960" stroke="black" fill="none" stroke-linecap="round"></path><path d="M 417.783,221.191 C 412.205,225.209 412.155,225.140 406.597,229.185" stroke-width="5.333" stroke="black" fill="none" stroke-linecap="round"></path><path d="M 406.597,229.185 C 403.366,231.535 403.401,231.583 400.205,233.981" stroke-width="5.784" stroke="black" fill="none" stroke-linecap="round"></path><circle r="3" cx="459.33087158203125" cy="173.22640991210938" fill="black"></circle><path d="M 402.602,206.801 C 396.609,209.599 396.636,209.660 390.617,212.397" stroke-width="8.185" stroke="black" fill="none" stroke-linecap="round"></path><path d="M 390.617,212.397 C 387.847,213.657 387.820,213.596 385.024,214.795" stroke-width="6.944" stroke="black" fill="none" stroke-linecap="round"></path><path d="M 385.024,214.795 C 382.227,215.994 382.268,216.102 379.431,217.194" stroke-width="6.719" stroke="black" fill="none" stroke-linecap="round"></path><path d="M 379.431,217.194 C 377.075,218.100 376.993,217.886 374.637,218.792" stroke-width="6.871" stroke="black" fill="none" stroke-linecap="round"></path><path d="M 374.637,218.792 C 371.799,219.884 371.008,221.846 369.044,221.191" stroke-width="7.259" stroke="black" fill="none" stroke-linecap="round"></path><path d="M 369.044,221.191 C 367.412,220.646 366.990,218.676 367.446,216.394" stroke-width="8.012" stroke="black" fill="none" stroke-linecap="round"></path><path d="M 367.446,216.394 C 368.188,212.680 369.224,212.650 371.441,209.200" stroke-width="7.460" stroke="black" fill="none" stroke-linecap="round"></path><path d="M 371.441,209.200 C 372.819,207.054 375.347,206.091 374.637,205.203" stroke-width="7.710" stroke="black" fill="none" stroke-linecap="round"></path><path d="M 374.637,205.203 C 373.749,204.093 371.315,204.588 368.245,205.203" stroke-width="8.072" stroke="black" fill="none" stroke-linecap="round"></path><path d="M 368.245,205.203 C 365.322,205.787 365.476,206.471 362.652,207.601" stroke-width="7.080" stroke="black" fill="none" stroke-linecap="round"></path><path d="M 362.652,207.601 C 359.483,208.869 359.428,208.731 356.260,209.999" stroke-width="6.522" stroke="black" fill="none" stroke-linecap="round"></path><path d="M 356.260,209.999 C 353.436,211.129 353.480,211.238 350.667,212.397" stroke-width="6.595" stroke="black" fill="none" stroke-linecap="round"></path><path d="M 350.667,212.397 C 346.688,214.036 346.704,214.084 342.677,215.595" stroke-width="6.995" stroke="black" fill="none" stroke-linecap="round"></path><path d="M 342.677,215.595 C 340.312,216.482 340.348,216.814 337.883,217.194" stroke-width="7.563" stroke="black" fill="none" stroke-linecap="round"></path><path d="M 337.883,217.194 C 335.154,217.614 334.965,216.564 332.290,217.194" stroke-width="8.375" stroke="black" fill="none" stroke-linecap="round"></path><path d="M 332.290,217.194 C 328.173,218.163 328.327,218.880 324.300,220.391" stroke-width="7.534" stroke="black" fill="none" stroke-linecap="round"></path><path d="M 324.300,220.391 C 321.935,221.278 321.920,221.247 319.506,221.990" stroke-width="7.034" stroke="black" fill="none" stroke-linecap="round"></path><path d="M 319.506,221.990 C 316.727,222.846 316.688,222.721 313.913,223.589" stroke-width="6.801" stroke="black" fill="none" stroke-linecap="round"></path><path d="M 313.913,223.589 C 310.296,224.720 310.389,225.070 306.722,225.987" stroke-width="7.155" stroke="black" fill="none" stroke-linecap="round"></path><path d="M 306.722,225.987 C 302.399,227.068 302.355,227.094 297.933,227.586" stroke-width="7.136" stroke="black" fill="none" stroke-linecap="round"></path><path d="M 297.933,227.586 C 295.164,227.894 294.381,228.948 292.340,227.586" stroke-width="7.519" stroke="black" fill="none" stroke-linecap="round"></path><path d="M 292.340,227.586 C 289.587,225.750 290.212,224.461 288.345,221.191" stroke-width="7.741" stroke="black" fill="none" stroke-linecap="round"></path><path d="M 288.345,221.191 C 287.016,218.865 286.905,218.886 285.948,216.394" stroke-width="7.805" stroke="black" fill="none" stroke-linecap="round"></path><path d="M 285.948,216.394 C 284.908,213.690 283.924,213.350 284.350,210.798" stroke-width="7.983" stroke="black" fill="none" stroke-linecap="round"></path><path d="M 284.350,210.798 C 284.723,208.554 285.394,207.795 287.546,206.801" stroke-width="8.464" stroke="black" fill="none" stroke-linecap="round"></path><path d="M 287.546,206.801 C 290.588,205.397 294.737,204.447 294.737,206.002" stroke-width="8.004" stroke="black" fill="none" stroke-linecap="round"></path><path d="M 294.737,206.002 C 294.737,208.444 291.716,211.086 287.546,214.795" stroke-width="8.047" stroke="black" fill="none" stroke-linecap="round"></path><path d="M 287.546,214.795 C 284.525,217.482 283.899,216.707 280.355,218.792" stroke-width="6.549" stroke="black" fill="none" stroke-linecap="round"></path><path d="M 280.355,218.792 C 277.107,220.704 277.133,220.751 273.963,222.789" stroke-width="6.326" stroke="black" fill="none" stroke-linecap="round"></path><path d="M 273.963,222.789 C 271.540,224.348 271.652,224.537 269.169,225.987" stroke-width="6.598" stroke="black" fill="none" stroke-linecap="round"></path><path d="M 269.169,225.987 C 266.858,227.335 266.842,227.357 264.375,228.385" stroke-width="6.767" stroke="black" fill="none" stroke-linecap="round"></path><path d="M 264.375,228.385 C 262.048,229.355 261.781,230.492 259.581,229.984" stroke-width="7.481" stroke="black" fill="none" stroke-linecap="round"></path><path d="M 259.581,229.984 C 256.587,229.293 256.736,228.049 253.988,225.987" stroke-width="8.209" stroke="black" fill="none" stroke-linecap="round"></path><path d="M 253.988,225.987 C 251.942,224.452 251.978,222.169 249.993,222.789" stroke-width="7.956" stroke="black" fill="none" stroke-linecap="round"></path><path d="M 249.993,222.789 C 245.586,224.167 245.565,226.347 241.203,229.984" stroke-width="8.353" stroke="black" fill="none" stroke-linecap="round"></path><path d="M 241.203,229.984 C 238.374,232.343 238.422,232.400 235.611,234.780" stroke-width="6.689" stroke="black" fill="none" stroke-linecap="round"></path><path d="M 235.611,234.780 C 233.229,236.797 233.309,236.907 230.816,238.777" stroke-width="6.537" stroke="black" fill="none" stroke-linecap="round"></path><path d="M 230.816,238.777 C 228.515,240.504 228.475,240.465 226.022,241.975" stroke-width="6.593" stroke="black" fill="none" stroke-linecap="round"></path><path d="M 226.022,241.975 C 223.281,243.663 223.438,244.370 220.429,245.173" stroke-width="7.197" stroke="black" fill="none" stroke-linecap="round"></path><path d="M 220.429,245.173 C 217.445,245.969 217.175,245.591 214.037,245.173" stroke-width="8.264" stroke="black" fill="none" stroke-linecap="round"></path><path d="M 214.037,245.173 C 211.182,244.792 211.053,244.779 208.444,243.574" stroke-width="8.133" stroke="black" fill="none" stroke-linecap="round"></path><path d="M 208.444,243.574 C 205.860,242.380 204.028,242.452 203.650,240.376" stroke-width="8.234" stroke="black" fill="none" stroke-linecap="round"></path><path d="M 203.650,240.376 C 203.229,238.055 204.931,237.336 206.846,234.780" stroke-width="8.239" stroke="black" fill="none" stroke-linecap="round"></path><path d="M 206.846,234.780 C 208.526,232.539 211.433,230.340 210.841,230.783" stroke-width="7.843" stroke="black" fill="none" stroke-linecap="round"></path><path d="M 210.841,230.783 C 209.835,231.539 207.285,234.027 203.650,237.179" stroke-width="7.882" stroke="black" fill="none" stroke-linecap="round"></path><path d="M 203.650,237.179 C 201.293,239.223 201.349,239.305 198.856,241.176" stroke-width="6.925" stroke="black" fill="none" stroke-linecap="round"></path><path d="M 198.856,241.176 C 196.555,242.903 196.531,242.892 194.062,244.373" stroke-width="6.781" stroke="black" fill="none" stroke-linecap="round"></path><path d="M 194.062,244.373 C 190.538,246.489 190.396,246.255 186.871,248.370" stroke-width="7.100" stroke="black" fill="none" stroke-linecap="round"></path><path d="M 186.871,248.370 C 184.403,249.852 184.558,250.108 182.077,251.568" stroke-width="7.507" stroke="black" fill="none" stroke-linecap="round"></path><path d="M 182.077,251.568 C 177.767,254.105 177.674,253.951 173.288,256.364" stroke-width="7.740" stroke="black" fill="none" stroke-linecap="round"></path><path d="M 173.288,256.364 C 169.684,258.348 169.656,258.300 166.097,260.361" stroke-width="6.575" stroke="black" fill="none" stroke-linecap="round"></path><path d="M 166.097,260.361 C 162.066,262.697 162.195,262.927 158.107,265.158" stroke-width="5.928" stroke="black" fill="none" stroke-linecap="round"></path><path d="M 158.107,265.158 C 153.405,267.724 153.179,267.319 148.519,269.954" stroke-width="5.636" stroke="black" fill="none" stroke-linecap="round"></path><path d="M 148.519,269.954 C 143.991,272.515 144.125,272.752 139.730,275.550" stroke-width="5.597" stroke="black" fill="none" stroke-linecap="round"></path><path d="M 139.730,275.550 C 135.336,278.348 135.243,278.212 130.941,281.146" stroke-width="5.585" stroke="black" fill="none" stroke-linecap="round"></path><path d="M 130.941,281.146 C 126.454,284.207 126.644,284.485 122.152,287.541" stroke-width="5.518" stroke="black" fill="none" stroke-linecap="round"></path><path d="M 122.152,287.541 C 116.656,291.280 116.498,291.046 110.966,294.736" stroke-width="5.274" stroke="black" fill="none" stroke-linecap="round"></path><path d="M 110.966,294.736 C 105.711,298.241 105.834,298.425 100.579,301.930" stroke-width="5.100" stroke="black" fill="none" stroke-linecap="round"></path><path d="M 100.579,301.930 C 96.246,304.821 96.123,304.636 91.790,307.526" stroke-width="5.427" stroke="black" fill="none" stroke-linecap="round"></path><path d="M 91.790,307.526 C 88.932,309.433 88.919,309.428 86.197,311.523" stroke-width="6.079" stroke="black" fill="none" stroke-linecap="round"></path><path d="M 86.197,311.523 C 83.726,313.425 81.207,315.324 81.403,315.520" stroke-width="7.072" stroke="black" fill="none" stroke-linecap="round"></path><path d="M 81.403,315.520 C 81.606,315.723 84.206,313.933 86.996,312.323" stroke-width="7.411" stroke="black" fill="none" stroke-linecap="round"></path><path d="M 86.996,312.323 C 94.593,307.937 94.835,308.313 102.177,303.529" stroke-width="5.037" stroke="black" fill="none" stroke-linecap="round"></path><path d="M 102.177,303.529 C 112.014,297.121 112.032,297.083 121.353,289.939" stroke-width="4.500" stroke="black" fill="none" stroke-linecap="round"></path><path d="M 121.353,289.939 C 130.809,282.693 130.442,282.221 139.730,274.751" stroke-width="4.500" stroke="black" fill="none" stroke-linecap="round"></path><path d="M 139.730,274.751 C 150.817,265.834 150.916,265.957 162.102,257.164" stroke-width="4.500" stroke="black" fill="none" stroke-linecap="round"></path><path d="M 162.102,257.164 C 167.695,252.767 167.610,252.656 173.288,248.370" stroke-width="4.500" stroke="black" fill="none" stroke-linecap="round"></path><path d="M 173.288,248.370 C 190.382,235.469 190.371,235.448 207.645,222.789" stroke-width="4.500" stroke="black" fill="none" stroke-linecap="round"></path><path d="M 207.645,222.789 C 218.735,214.663 218.976,214.991 230.017,206.801" stroke-width="4.500" stroke="black" fill="none" stroke-linecap="round"></path><path d="M 230.017,206.801 C 242.147,197.804 241.832,197.376 253.988,188.415" stroke-width="4.500" stroke="black" fill="none" stroke-linecap="round"></path><path d="M 253.988,188.415 C 264.604,180.589 264.934,181.038 275.561,173.226" stroke-width="4.500" stroke="black" fill="none" stroke-linecap="round"></path><path d="M 275.561,173.226 C 284.510,166.648 284.722,166.854 293.139,159.637" stroke-width="4.500" stroke="black" fill="none" stroke-linecap="round"></path><path d="M 293.139,159.637 C 298.704,154.863 298.824,154.844 303.526,149.244" stroke-width="4.519" stroke="black" fill="none" stroke-linecap="round"></path><path d="M 303.526,149.244 C 307.214,144.851 306.598,144.357 309.918,139.651" stroke-width="4.995" stroke="black" fill="none" stroke-linecap="round"></path><path d="M 309.918,139.651 C 311.392,137.562 312.230,138.012 313.114,135.654" stroke-width="6.202" stroke="black" fill="none" stroke-linecap="round"></path><path d="M 313.114,135.654 C 315.825,128.419 315.260,128.096 317.109,120.466" stroke-width="5.050" stroke="black" fill="none" stroke-linecap="round"></path><path d="M 317.109,120.466 C 318.456,114.905 318.527,114.906 319.506,109.274" stroke-width="5.276" stroke="black" fill="none" stroke-linecap="round"></path><path d="M 319.506,109.274 C 320.125,105.712 320.695,105.593 320.305,102.079" stroke-width="5.961" stroke="black" fill="none" stroke-linecap="round"></path><path d="M 320.305,102.079 C 319.896,98.399 320.068,95.965 317.908,94.885" stroke-width="6.875" stroke="black" fill="none" stroke-linecap="round"></path><path d="M 317.908,94.885 C 316.073,93.967 314.512,95.884 312.315,98.082" stroke-width="7.765" stroke="black" fill="none" stroke-linecap="round"></path><path d="M 312.315,98.082 C 310.117,100.281 310.422,100.744 309.119,103.678" stroke-width="6.932" stroke="black" fill="none" stroke-linecap="round"></path><path d="M 309.119,103.678 C 307.226,107.939 307.506,108.070 305.923,112.472" stroke-width="6.005" stroke="black" fill="none" stroke-linecap="round"></path><path d="M 305.923,112.472 C 303.911,118.062 303.406,117.930 301.928,123.663" stroke-width="5.491" stroke="black" fill="none" stroke-linecap="round"></path><path d="M 301.928,123.663 C 300.210,130.321 300.813,130.474 299.531,137.253" stroke-width="5.114" stroke="black" fill="none" stroke-linecap="round"></path><path d="M 299.531,137.253 C 298.016,145.263 297.614,145.196 296.335,153.241" stroke-width="4.739" stroke="black" fill="none" stroke-linecap="round"></path><path d="M 296.335,153.241 C 294.817,162.782 295.045,162.824 293.938,172.427" stroke-width="4.500" stroke="black" fill="none" stroke-linecap="round"></path><path d="M 293.938,172.427 C 292.648,183.608 292.541,183.601 291.541,194.810" stroke-width="4.500" stroke="black" fill="none" stroke-linecap="round"></path><path d="M 291.541,194.810 C 290.543,205.984 290.329,205.987 289.943,217.194" stroke-width="4.500" stroke="black" fill="none" stroke-linecap="round"></path><path d="M 289.943,217.194 C 289.530,229.170 289.943,229.185 289.943,241.176" stroke-width="4.500" stroke="black" fill="none" stroke-linecap="round"></path><path d="M 354.662,297.134 C 361.853,294.336 362.001,294.670 369.044,291.538" stroke-width="7.627" stroke="black" fill="none" stroke-linecap="round"></path><path d="M 369.044,291.538 C 376.383,288.275 376.286,288.038 383.426,284.344" stroke-width="5.121" stroke="black" fill="none" stroke-linecap="round"></path><path d="M 383.426,284.344 C 387.871,282.043 387.820,281.945 392.215,279.547" stroke-width="5.567" stroke="black" fill="none" stroke-linecap="round"></path><circle r="3" cx="381.8277282714844" cy="158.837158203125" fill="black"></circle><circle r="3" cx="258.7815246582031" cy="314.7208251953125" fill="black"></circle></svg>