<svg xmlns="http://www.w3.org/2000/svg" xmlns:xlink="http://www.w3.org/1999/xlink" viewBox="0 0 576 416" width="576" height="416"><path d="M 441.753,217.531 C 437.358,217.131 437.277,217.554 432.964,216.732" stroke-width="8.250" stroke="black" fill="none" stroke-linecap="round"></path><path d="M 432.964,216.732 C 428.887,215.955 427.117,216.716 424.974,214.333" stroke-width="7.474" stroke="black" fill="none" stroke-linecap="round"></path><path d="M 424.974,214.333 C 423.522,212.719 424.337,210.789 425.773,208.738" stroke-width="7.704" stroke="black" fill="none" stroke-linecap="round"></path><path d="M 425.773,208.738 C 427.134,206.792 428.027,207.066 430.567,206.339" stroke-width="7.080" stroke="black" fill="none" stroke-linecap="round"></path><path d="M 430.567,206.339 C 433.620,205.467 433.751,205.754 436.959,205.540" stroke-width="6.683" stroke="black" fill="none" stroke-linecap="round"></path><path d="M 436.959,205.540 C 439.744,205.354 439.900,204.928 442.552,205.540" stroke-width="6.745" stroke="black" fill="none" stroke-linecap="round"></path><path d="M 442.552,205.540 C 445.093,206.127 446.148,205.840 447.346,207.938" stroke-width="6.813" stroke="black" fill="none" stroke-linecap="round"></path><path d="M 447.346,207.938 C 449.344,211.436 449.866,212.672 448.944,216.732" stroke-width="7.030" stroke="black" fill="none" stroke-linecap="round"></path><path d="M 448.944,216.732 C 447.869,221.465 446.754,221.634 443.351,225.525" stroke-width="5.948" stroke="black" fill="none" stroke-linecap="round"></path><path d="M 443.351,225.525 C 438.365,231.227 438.424,231.681 432.165,235.917" stroke-width="5.049" stroke="black" fill="none" stroke-linecap="round"></path><path d="M 432.165,235.917 C 424.841,240.875 424.408,240.467 416.185,243.911" stroke-width="4.567" stroke="black" fill="none" stroke-linecap="round"></path><path d="M 416.185,243.911 C 407.230,247.662 407.180,247.806 397.808,250.307" stroke-width="4.500" stroke="black" fill="none" stroke-linecap="round"></path><path d="M 397.808,250.307 C 389.202,252.603 389.079,252.424 380.230,253.504" stroke-width="4.500" stroke="black" fill="none" stroke-linecap="round"></path><path d="M 380.230,253.504 C 372.700,254.423 372.529,254.964 365.049,254.304" stroke-width="4.627" stroke="black" fill="none" stroke-linecap="round"></path><path d="M 365.049,254.304 C 358.945,253.765 358.709,253.496 353.064,251.106" stroke-width="5.016" stroke="black" fill="none" stroke-linecap="round"></path><path d="M 353.064,251.106 C 348.322,249.099 347.977,248.968 344.275,245.510" stroke-width="5.398" stroke="black" fill="none" stroke-linecap="round"></path><path d="M 344.275,245.510 C 341.985,243.372 342.182,242.911 341.079,239.914" stroke-width="6.203" stroke="black" fill="none" stroke-linecap="round"></path><path d="M 341.079,239.914 C 339.386,235.317 339.274,235.207 338.682,230.322" stroke-width="5.740" stroke="black" fill="none" stroke-linecap="round"></path><path d="M 338.682,230.322 C 337.676,222.017 338.058,221.933 337.883,213.534" stroke-width="4.833" stroke="black" fill="none" stroke-linecap="round"></path><path d="M 337.883,213.534 C 337.658,202.747 337.517,202.731 337.883,191.950" stroke-width="4.500" stroke="black" fill="none" stroke-linecap="round"></path><path d="M 337.883,191.950 C 338.316,179.148 339.061,179.172 339.481,166.369" stroke-width="4.500" stroke="black" fill="none" stroke-linecap="round"></path><path d="M 339.481,166.369 C 339.860,154.790 339.688,154.774 339.481,143.187" stroke-width="4.500" stroke="black" fill="none" stroke-linecap="round"></path><path d="M 339.481,143.187 C 339.288,132.391 339.122,132.393 338.682,121.603" stroke-width="4.500" stroke="black" fill="none" stroke-linecap="round"></path><path d="M 338.682,121.603 C 338.323,112.808 338.333,112.807 337.883,104.016" stroke-width="4.500" stroke="black" fill="none" stroke-linecap="round"></path><path d="M 337.883,104.016 C 337.534,97.218 337.807,97.182 337.084,90.426" stroke-width="4.749" stroke="black" fill="none" stroke-linecap="round"></path><path d="M 337.084,90.426 C 336.609,85.990 335.907,86.063 335.486,81.633" stroke-width="5.499" stroke="black" fill="none" stroke-linecap="round"></path><circle r="3" cx="436.95880126953125" cy="162.37225341796875" fill="black"></circle><path d="M 223.625,265.495 C 222.826,259.100 222.648,259.117 222.027,252.705" stroke-width="7.998" stroke="black" fill="none" stroke-linecap="round"></path><path d="M 222.027,252.705 C 221.449,246.726 221.395,246.717 221.228,240.714" stroke-width="5.873" stroke="black" fill="none" stroke-linecap="round"></path><path d="M 221.228,240.714 C 220.996,232.328 221.228,232.320 221.228,223.926" stroke-width="4.862" stroke="black" fill="none" stroke-linecap="round"></path><path d="M 221.228,223.926 C 221.228,219.130 220.852,219.108 221.228,214.333" stroke-width="5.454" stroke="black" fill="none" stroke-linecap="round"></path><path d="M 221.228,214.333 C 222.050,203.920 221.975,203.868 223.625,193.549" stroke-width="4.500" stroke="black" fill="none" stroke-linecap="round"></path><path d="M 223.625,193.549 C 225.171,183.883 225.247,183.861 227.620,174.363" stroke-width="4.500" stroke="black" fill="none" stroke-linecap="round"></path><path d="M 227.620,174.363 C 229.642,166.274 229.586,166.211 232.415,158.375" stroke-width="4.500" stroke="black" fill="none" stroke-linecap="round"></path><path d="M 232.415,158.375 C 234.780,151.822 234.977,151.866 238.008,145.585" stroke-width="4.856" stroke="black" fill="none" stroke-linecap="round"></path><path d="M 238.008,145.585 C 240.570,140.275 239.742,139.439 243.601,135.193" stroke-width="5.078" stroke="black" fill="none" stroke-linecap="round"></path><path d="M 243.601,135.193 C 247.732,130.646 248.473,130.888 253.988,127.998" stroke-width="5.303" stroke="black" fill="none" stroke-linecap="round"></path><path d="M 253.988,127.998 C 256.863,126.491 259.847,125.155 260.380,126.399" stroke-width="6.692" stroke="black" fill="none" stroke-linecap="round"></path><path d="M 260.380,126.399 C 261.045,127.953 258.715,130.212 256.385,133.594" stroke-width="7.098" stroke="black" fill="none" stroke-linecap="round"></path><path d="M 256.385,133.594 C 250.725,141.804 250.850,141.969 244.400,149.582" stroke-width="4.605" stroke="black" fill="none" stroke-linecap="round"></path><path d="M 244.400,149.582 C 235.270,160.356 234.702,159.875 225.223,170.366" stroke-width="4.500" stroke="black" fill="none" stroke-linecap="round"></path><path d="M 225.223,170.366 C 215.925,180.659 215.312,180.202 206.846,191.151" stroke-width="4.500" stroke="black" fill="none" stroke-linecap="round"></path><path d="M 206.846,191.151 C 198.932,201.386 198.852,201.495 192.464,212.735" stroke-width="4.500" stroke="black" fill="none" stroke-linecap="round"></path><path d="M 192.464,212.735 C 187.267,221.880 186.461,221.932 183.675,231.920" stroke-width="4.500" stroke="black" fill="none" stroke-linecap="round"></path><path d="M 183.675,231.920 C 181.667,239.119 181.776,239.952 182.876,247.109" stroke-width="4.521" stroke="black" fill="none" stroke-linecap="round"></path><path d="M 182.876,247.109 C 183.374,250.344 184.164,250.702 186.871,252.705" stroke-width="5.632" stroke="black" fill="none" stroke-linecap="round"></path><path d="M 186.871,252.705 C 193.352,257.497 193.539,258.126 201.253,260.699" stroke-width="4.847" stroke="black" fill="none" stroke-linecap="round"></path><path d="M 201.253,260.699 C 212.715,264.521 213.122,264.106 225.223,265.495" stroke-width="4.500" stroke="black" fill="none" stroke-linecap="round"></path><path d="M 225.223,265.495 C 237.492,266.904 237.610,265.836 249.993,266.295" stroke-width="4.500" stroke="black" fill="none" stroke-linecap="round"></path><path d="M 249.993,266.295 C 259.183,266.635 259.179,266.788 268.370,267.094" stroke-width="4.500" stroke="black" fill="none" stroke-linecap="round"></path><path d="M 268.370,267.094 C 271.164,267.187 271.176,266.920 273.963,267.094" stroke-width="5.730" stroke="black" fill="none" stroke-linecap="round"></path><path d="M 273.963,267.094 C 277.568,267.320 282.164,267.749 281.154,267.894" stroke-width="6.049" stroke="black" fill="none" stroke-linecap="round"></path><path d="M 281.154,267.894 C 279.368,268.149 274.759,268.036 268.370,267.894" stroke-width="6.385" stroke="black" fill="none" stroke-linecap="round"></path><path d="M 268.370,267.894 C 256.782,267.636 256.652,268.573 245.199,267.094" stroke-width="4.500" stroke="black" fill="none" stroke-linecap="round"></path><path d="M 245.199,267.094 C 231.883,265.375 231.713,265.301 218.832,261.498" stroke-width="4.500" stroke="black" fill="none" stroke-linecap="round"></path><path d="M 218.832,261.498 C 207.344,258.107 206.689,258.725 196.459,252.705" stroke-width="4.500" stroke="black" fill="none" stroke-linecap="round"></path><path d="M 196.459,252.705 C 186.314,246.734 186.117,246.173 178.082,237.516" stroke-width="4.500" stroke="black" fill="none" stroke-linecap="round"></path><path d="M 178.082,237.516 C 170.536,229.385 170.421,228.986 165.298,219.130" stroke-width="4.500" stroke="black" fill="none" stroke-linecap="round"></path><path d="M 165.298,219.130 C 160.034,209.001 160.644,208.539 157.308,197.546" stroke-width="4.500" stroke="black" fill="none" stroke-linecap="round"></path><path d="M 157.308,197.546 C 153.852,186.156 154.457,185.968 151.715,174.363" stroke-width="4.500" stroke="black" fill="none" stroke-linecap="round"></path><path d="M 151.715,174.363 C 149.263,163.984 149.760,163.847 146.921,153.579" stroke-width="4.500" stroke="black" fill="none" stroke-linecap="round"></path><path d="M 146.921,153.579 C 144.567,145.061 145.150,144.663 141.328,136.791" stroke-width="4.500" stroke="black" fill="none" stroke-linecap="round"></path><path d="M 141.328,136.791 C 138.358,130.674 138.550,129.611 133.338,125.600" stroke-width="4.734" stroke="black" fill="none" stroke-linecap="round"></path><path d="M 133.338,125.600 C 128.163,121.617 127.182,121.699 120.554,120.803" stroke-width="4.911" stroke="black" fill="none" stroke-linecap="round"></path><path d="M 120.554,120.803 C 112.401,119.701 112.013,120.301 103.775,121.603" stroke-width="4.636" stroke="black" fill="none" stroke-linecap="round"></path><path d="M 103.775,121.603 C 96.832,122.700 96.640,122.768 90.192,125.600" stroke-width="4.825" stroke="black" fill="none" stroke-linecap="round"></path><path d="M 90.192,125.600 C 80.260,129.962 80.120,130.061 71.016,135.992" stroke-width="4.500" stroke="black" fill="none" stroke-linecap="round"></path><path d="M 71.016,135.992 C 62.942,141.253 62.865,141.404 55.835,147.983" stroke-width="4.500" stroke="black" fill="none" stroke-linecap="round"></path><path d="M 55.835,147.983 C 50.480,152.995 49.950,153.001 46.247,159.175" stroke-width="4.558" stroke="black" fill="none" stroke-linecap="round"></path><path d="M 46.247,159.175 C 43.957,162.993 43.413,163.812 43.850,167.968" stroke-width="5.397" stroke="black" fill="none" stroke-linecap="round"></path><path d="M 43.850,167.968 C 44.212,171.406 44.793,172.917 47.845,174.363" stroke-width="5.957" stroke="black" fill="none" stroke-linecap="round"></path><path d="M 47.845,174.363 C 52.384,176.514 53.440,175.417 59.031,175.163" stroke-width="5.573" stroke="black" fill="none" stroke-linecap="round"></path><path d="M 59.031,175.163 C 79.807,174.218 80.004,175.021 100.579,171.965" stroke-width="4.500" stroke="black" fill="none" stroke-linecap="round"></path><path d="M 100.579,171.965 C 131.141,167.426 131.086,166.629 161.303,159.974" stroke-width="4.500" stroke="black" fill="none" stroke-linecap="round"></path><path d="M 161.303,159.974 C 194.606,152.639 194.629,152.615 227.620,143.986" stroke-width="4.500" stroke="black" fill="none" stroke-linecap="round"></path><path d="M 227.620,143.986 C 255.753,136.627 255.498,135.671 283.551,127.998" stroke-width="4.500" stroke="black" fill="none" stroke-linecap="round"></path><path d="M 283.551,127.998 C 311.028,120.482 311.046,120.521 338.682,113.609" stroke-width="4.500" stroke="black" fill="none" stroke-linecap="round"></path><path d="M 338.682,113.609 C 360.584,108.130 360.654,108.413 382.627,103.216" stroke-width="4.500" stroke="black" fill="none" stroke-linecap="round"></path><path d="M 212.439,44.061 C 213.638,56.451 213.971,56.426 214.836,68.842" stroke-width="6.921" stroke="black" fill="none" stroke-linecap="round"></path><path d="M 214.836,68.842 C 216.368,90.800 218.187,90.868 217.233,112.809" stroke-width="4.500" stroke="black" fill="none" stroke-linecap="round"></path><path d="M 217.233,112.809 C 215.390,155.220 213.238,155.178 209.243,197.546" stroke-width="4.500" stroke="black" fill="none" stroke-linecap="round"></path></svg>