<svg xmlns="http://www.w3.org/2000/svg" xmlns:xlink="http://www.w3.org/1999/xlink" viewBox="0 0 576 416" width="576" height="416"><path d="M 269.169,333.844 C 268.370,329.847 268.108,329.886 267.571,325.850" stroke-width="8.528" stroke="black" fill="none" stroke-linecap="round"></path><path d="M 267.571,325.850 C 266.510,317.895 267.134,317.803 265.973,309.862" stroke-width="6.524" stroke="black" fill="none" stroke-linecap="round"></path><path d="M 265.973,309.862 C 264.737,301.416 264.498,301.442 262.777,293.074" stroke-width="4.835" stroke="black" fill="none" stroke-linecap="round"></path><path d="M 262.777,293.074 C 261.702,287.852 261.591,287.875 260.380,282.682" stroke-width="5.302" stroke="black" fill="none" stroke-linecap="round"></path><path d="M 260.380,282.682 C 255.998,263.893 256.824,263.655 251.591,245.110" stroke-width="4.500" stroke="black" fill="none" stroke-linecap="round"></path><path d="M 251.591,245.110 C 247.236,229.681 246.277,229.961 241.203,214.733" stroke-width="4.500" stroke="black" fill="none" stroke-linecap="round"></path><path d="M 241.203,214.733 C 236.290,199.984 236.274,199.986 231.615,185.155" stroke-width="4.500" stroke="black" fill="none" stroke-linecap="round"></path><path d="M 231.615,185.155 C 227.485,172.007 227.913,171.868 223.625,158.775" stroke-width="4.500" stroke="black" fill="none" stroke-linecap="round"></path><path d="M 223.625,158.775 C 220.322,148.685 219.859,148.840 216.434,138.790" stroke-width="4.500" stroke="black" fill="none" stroke-linecap="round"></path><path d="M 216.434,138.790 C 213.866,131.253 214.157,131.155 211.640,123.601" stroke-width="4.500" stroke="black" fill="none" stroke-linecap="round"></path><path d="M 211.640,123.601 C 209.763,117.965 209.444,118.065 207.645,112.409" stroke-width="4.919" stroke="black" fill="none" stroke-linecap="round"></path><path d="M 207.645,112.409 C 206.648,109.272 205.432,106.425 206.047,106.014" stroke-width="5.855" stroke="black" fill="none" stroke-linecap="round"></path><path d="M 206.047,106.014 C 206.630,105.625 208.464,108.138 210.042,110.810" stroke-width="7.461" stroke="black" fill="none" stroke-linecap="round"></path><path d="M 210.042,110.810 C 213.658,116.932 213.582,117.053 216.434,123.601" stroke-width="5.334" stroke="black" fill="none" stroke-linecap="round"></path><path d="M 216.434,123.601 C 220.373,132.641 219.604,132.983 223.625,141.987" stroke-width="4.500" stroke="black" fill="none" stroke-linecap="round"></path><path d="M 223.625,141.987 C 227.994,151.769 228.582,151.502 233.214,161.173" stroke-width="4.500" stroke="black" fill="none" stroke-linecap="round"></path><path d="M 233.214,161.173 C 237.771,170.688 237.453,170.840 242.003,180.359" stroke-width="4.500" stroke="black" fill="none" stroke-linecap="round"></path><path d="M 242.003,180.359 C 246.242,189.226 246.286,189.211 250.792,197.945" stroke-width="4.500" stroke="black" fill="none" stroke-linecap="round"></path><path d="M 250.792,197.945 C 252.678,201.601 252.746,201.567 254.787,205.140" stroke-width="5.434" stroke="black" fill="none" stroke-linecap="round"></path><path d="M 254.787,205.140 C 260.736,215.557 260.264,215.888 266.772,225.924" stroke-width="4.500" stroke="black" fill="none" stroke-linecap="round"></path><path d="M 266.772,225.924 C 269.852,230.677 270.181,230.489 273.963,234.718" stroke-width="4.773" stroke="black" fill="none" stroke-linecap="round"></path><path d="M 273.963,234.718 C 276.973,238.084 276.767,238.549 280.355,241.113" stroke-width="5.495" stroke="black" fill="none" stroke-linecap="round"></path><path d="M 280.355,241.113 C 282.360,242.546 283.587,243.806 285.149,242.712" stroke-width="6.431" stroke="black" fill="none" stroke-linecap="round"></path><path d="M 285.149,242.712 C 287.582,241.008 287.685,239.314 288.345,235.517" stroke-width="7.046" stroke="black" fill="none" stroke-linecap="round"></path><path d="M 288.345,235.517 C 289.283,230.121 288.509,229.917 288.345,224.326" stroke-width="5.722" stroke="black" fill="none" stroke-linecap="round"></path><path d="M 288.345,224.326 C 288.109,216.328 288.269,216.303 287.546,208.338" stroke-width="4.915" stroke="black" fill="none" stroke-linecap="round"></path><path d="M 287.546,208.338 C 286.671,198.716 286.837,198.656 285.149,189.152" stroke-width="4.500" stroke="black" fill="none" stroke-linecap="round"></path><path d="M 285.149,189.152 C 283.641,180.670 283.348,180.706 281.154,172.365" stroke-width="4.500" stroke="black" fill="none" stroke-linecap="round"></path><path d="M 281.154,172.365 C 279.353,165.517 279.132,165.576 277.159,158.775" stroke-width="4.761" stroke="black" fill="none" stroke-linecap="round"></path><path d="M 277.159,158.775 C 275.537,153.186 275.725,153.125 273.963,147.583" stroke-width="5.233" stroke="black" fill="none" stroke-linecap="round"></path><path d="M 273.963,147.583 C 272.928,144.331 271.109,142.102 271.566,141.188" stroke-width="5.942" stroke="black" fill="none" stroke-linecap="round"></path><path d="M 271.566,141.188 C 271.908,140.503 274.062,142.351 275.561,144.385" stroke-width="7.525" stroke="black" fill="none" stroke-linecap="round"></path><path d="M 275.561,144.385 C 279.655,149.945 278.879,150.565 282.752,156.376" stroke-width="5.388" stroke="black" fill="none" stroke-linecap="round"></path><path d="M 282.752,156.376 C 286.869,162.556 287.050,162.445 291.541,168.367" stroke-width="4.963" stroke="black" fill="none" stroke-linecap="round"></path><path d="M 291.541,168.367 C 295.839,174.036 295.861,174.023 300.330,179.559" stroke-width="4.918" stroke="black" fill="none" stroke-linecap="round"></path><path d="M 300.330,179.559 C 304.250,184.416 304.126,184.537 308.320,189.152" stroke-width="5.105" stroke="black" fill="none" stroke-linecap="round"></path><path d="M 308.320,189.152 C 312.116,193.330 312.198,193.275 316.310,197.146" stroke-width="5.312" stroke="black" fill="none" stroke-linecap="round"></path><path d="M 316.310,197.146 C 318.990,199.670 318.777,200.156 321.903,201.942" stroke-width="6.021" stroke="black" fill="none" stroke-linecap="round"></path><path d="M 321.903,201.942 C 324.370,203.353 326.359,204.679 327.496,203.541" stroke-width="7.076" stroke="black" fill="none" stroke-linecap="round"></path><path d="M 327.496,203.541 C 328.756,202.281 327.474,200.258 326.697,197.146" stroke-width="7.412" stroke="black" fill="none" stroke-linecap="round"></path><path d="M 326.697,197.146 C 325.477,192.264 325.161,192.328 323.501,187.553" stroke-width="6.079" stroke="black" fill="none" stroke-linecap="round"></path><path d="M 323.501,187.553 C 321.965,183.135 321.783,183.196 320.305,178.760" stroke-width="5.968" stroke="black" fill="none" stroke-linecap="round"></path><path d="M 320.305,178.760 C 318.986,174.802 319.226,174.722 317.908,170.766" stroke-width="5.931" stroke="black" fill="none" stroke-linecap="round"></path><path d="M 317.908,170.766 C 316.829,167.528 316.709,167.568 315.511,164.370" stroke-width="6.265" stroke="black" fill="none" stroke-linecap="round"></path><path d="M 315.511,164.370 C 314.312,161.173 312.373,158.160 313.114,157.975" stroke-width="7.078" stroke="black" fill="none" stroke-linecap="round"></path><path d="M 313.114,157.975 C 313.971,157.761 315.987,160.699 318.707,163.571" stroke-width="7.576" stroke="black" fill="none" stroke-linecap="round"></path><path d="M 318.707,163.571 C 323.178,168.294 323.064,168.402 327.496,173.164" stroke-width="5.653" stroke="black" fill="none" stroke-linecap="round"></path><path d="M 327.496,173.164 C 333.851,179.993 333.791,180.052 340.280,186.754" stroke-width="4.625" stroke="black" fill="none" stroke-linecap="round"></path><path d="M 340.280,186.754 C 346.176,192.843 346.169,192.856 352.265,198.745" stroke-width="4.500" stroke="black" fill="none" stroke-linecap="round"></path><path d="M 352.265,198.745 C 357.755,204.048 357.825,203.977 363.451,209.137" stroke-width="4.733" stroke="black" fill="none" stroke-linecap="round"></path><path d="M 363.451,209.137 C 367.413,212.771 367.298,212.918 371.441,216.332" stroke-width="5.330" stroke="black" fill="none" stroke-linecap="round"></path><path d="M 371.441,216.332 C 374.089,218.514 375.612,221.593 377.034,220.329" stroke-width="5.892" stroke="black" fill="none" stroke-linecap="round"></path><path d="M 377.034,220.329 C 379.208,218.395 379.159,215.033 378.632,209.936" stroke-width="6.910" stroke="black" fill="none" stroke-linecap="round"></path><path d="M 378.632,209.936 C 377.960,203.441 376.939,203.429 374.637,197.146" stroke-width="5.584" stroke="black" fill="none" stroke-linecap="round"></path><path d="M 374.637,197.146 C 372.545,191.438 372.559,191.390 369.843,185.954" stroke-width="5.342" stroke="black" fill="none" stroke-linecap="round"></path><path d="M 369.843,185.954 C 367.365,180.997 367.003,181.182 364.250,176.362" stroke-width="5.321" stroke="black" fill="none" stroke-linecap="round"></path><path d="M 364.250,176.362 C 362.209,172.789 362.339,172.713 360.255,169.167" stroke-width="5.821" stroke="black" fill="none" stroke-linecap="round"></path><path d="M 360.255,169.167 C 358.344,165.918 355.154,162.772 356.260,162.772" stroke-width="6.846" stroke="black" fill="none" stroke-linecap="round"></path><path d="M 356.260,162.772 C 357.950,162.772 361.192,165.780 365.848,169.167" stroke-width="7.409" stroke="black" fill="none" stroke-linecap="round"></path><path d="M 365.848,169.167 C 369.981,172.175 369.809,172.408 373.838,175.562" stroke-width="6.057" stroke="black" fill="none" stroke-linecap="round"></path><path d="M 373.838,175.562 C 378.997,179.602 378.910,179.728 384.225,183.556" stroke-width="5.340" stroke="black" fill="none" stroke-linecap="round"></path><path d="M 384.225,183.556 C 388.898,186.922 388.905,186.950 393.813,189.951" stroke-width="5.356" stroke="black" fill="none" stroke-linecap="round"></path><path d="M 393.813,189.951 C 396.096,191.347 396.231,191.109 398.607,192.350" stroke-width="6.372" stroke="black" fill="none" stroke-linecap="round"></path><path d="M 398.607,192.350 C 405.419,195.906 405.274,196.223 412.190,199.544" stroke-width="5.010" stroke="black" fill="none" stroke-linecap="round"></path><path d="M 412.190,199.544 C 415.262,201.019 415.346,201.727 418.582,201.942" stroke-width="5.921" stroke="black" fill="none" stroke-linecap="round"></path><path d="M 418.582,201.942 C 421.339,202.126 422.554,202.168 424.175,200.344" stroke-width="7.055" stroke="black" fill="none" stroke-linecap="round"></path><path d="M 424.175,200.344 C 425.750,198.571 425.201,197.549 424.974,194.748" stroke-width="6.842" stroke="black" fill="none" stroke-linecap="round"></path><path d="M 424.974,194.748 C 424.002,182.760 423.917,182.653 421.778,170.766" stroke-width="5.651" stroke="black" fill="none" stroke-linecap="round"></path><path d="M 421.778,170.766 C 420.321,162.668 420.380,162.572 417.783,154.778" stroke-width="4.848" stroke="black" fill="none" stroke-linecap="round"></path><path d="M 417.783,154.778 C 415.186,146.984 414.735,147.117 411.391,139.589" stroke-width="4.650" stroke="black" fill="none" stroke-linecap="round"></path><path d="M 411.391,139.589 C 408.343,132.728 408.707,132.491 404.999,125.999" stroke-width="4.739" stroke="black" fill="none" stroke-linecap="round"></path><path d="M 404.999,125.999 C 402.315,121.300 401.830,121.582 398.607,117.206" stroke-width="5.241" stroke="black" fill="none" stroke-linecap="round"></path><path d="M 398.607,117.206 C 396.237,113.988 396.387,113.854 393.813,110.810" stroke-width="5.898" stroke="black" fill="none" stroke-linecap="round"></path><path d="M 393.813,110.810 C 391.993,108.658 389.471,106.640 389.818,106.813" stroke-width="6.405" stroke="black" fill="none" stroke-linecap="round"></path><path d="M 389.818,106.813 C 390.270,107.040 392.266,109.751 395.411,111.610" stroke-width="7.618" stroke="black" fill="none" stroke-linecap="round"></path><path d="M 395.411,111.610 C 401.055,114.947 401.320,114.600 407.396,117.206" stroke-width="5.511" stroke="black" fill="none" stroke-linecap="round"></path><path d="M 407.396,117.206 C 415.302,120.596 415.298,120.644 423.376,123.601" stroke-width="4.740" stroke="black" fill="none" stroke-linecap="round"></path><path d="M 423.376,123.601 C 431.677,126.639 431.709,126.581 440.155,129.197" stroke-width="4.505" stroke="black" fill="none" stroke-linecap="round"></path><path d="M 440.155,129.197 C 448.488,131.777 448.464,131.926 456.934,133.993" stroke-width="4.500" stroke="black" fill="none" stroke-linecap="round"></path><path d="M 456.934,133.993 C 464.843,135.923 464.901,135.714 472.914,137.191" stroke-width="4.554" stroke="black" fill="none" stroke-linecap="round"></path><path d="M 472.914,137.191 C 480.082,138.512 480.089,138.496 487.296,139.589" stroke-width="4.839" stroke="black" fill="none" stroke-linecap="round"></path><path d="M 487.296,139.589 C 493.272,140.495 493.267,140.706 499.281,141.188" stroke-width="5.036" stroke="black" fill="none" stroke-linecap="round"></path><path d="M 499.281,141.188 C 503.255,141.506 503.341,141.650 507.271,141.188" stroke-width="5.750" stroke="black" fill="none" stroke-linecap="round"></path><path d="M 507.271,141.188 C 510.132,140.851 513.054,139.970 512.864,139.589" stroke-width="6.981" stroke="black" fill="none" stroke-linecap="round"></path><path d="M 512.864,139.589 C 512.655,139.170 509.656,139.353 506.472,139.589" stroke-width="7.410" stroke="black" fill="none" stroke-linecap="round"></path><path d="M 506.472,139.589 C 498.869,140.152 498.834,140.049 491.291,141.188" stroke-width="5.196" stroke="black" fill="none" stroke-linecap="round"></path><path d="M 491.291,141.188 C 477.660,143.246 477.574,142.974 464.125,145.984" stroke-width="4.500" stroke="black" fill="none" stroke-linecap="round"></path><path d="M 464.125,145.984 C 447.212,149.769 447.226,149.963 430.567,154.778" stroke-width="4.500" stroke="black" fill="none" stroke-linecap="round"></path><path d="M 430.567,154.778 C 411.271,160.355 411.207,160.237 392.215,166.769" stroke-width="4.500" stroke="black" fill="none" stroke-linecap="round"></path><path d="M 392.215,166.769 C 372.854,173.427 373.039,173.963 353.863,181.158" stroke-width="4.500" stroke="black" fill="none" stroke-linecap="round"></path><path d="M 353.863,181.158 C 344.275,184.755 344.212,184.594 334.687,188.353" stroke-width="4.500" stroke="black" fill="none" stroke-linecap="round"></path><path d="M 334.687,188.353 C 315.847,195.786 315.559,195.162 297.134,203.541" stroke-width="4.500" stroke="black" fill="none" stroke-linecap="round"></path><path d="M 297.134,203.541 C 271.614,215.147 271.722,215.468 246.797,228.323" stroke-width="4.500" stroke="black" fill="none" stroke-linecap="round"></path><path d="M 246.797,228.323 C 232.970,235.453 233.363,236.199 219.630,243.511" stroke-width="4.500" stroke="black" fill="none" stroke-linecap="round"></path><path d="M 219.630,243.511 C 208.594,249.389 208.396,249.013 197.258,254.703" stroke-width="4.500" stroke="black" fill="none" stroke-linecap="round"></path><path d="M 197.258,254.703 C 189.620,258.606 189.699,258.761 182.077,262.697" stroke-width="4.500" stroke="black" fill="none" stroke-linecap="round"></path><path d="M 182.077,262.697 C 177.315,265.156 177.377,265.320 172.489,267.494" stroke-width="5.001" stroke="black" fill="none" stroke-linecap="round"></path></svg>