<svg xmlns="http://www.w3.org/2000/svg" xmlns:xlink="http://www.w3.org/1999/xlink" viewBox="0 0 576 416" width="576" height="416"><path d="M 389.019,169.966 C 385.423,166.769 383.230,167.312 381.828,163.571" stroke-width="8.767" stroke="black" fill="none" stroke-linecap="round"></path><path d="M 381.828,163.571 C 380.833,160.916 382.038,159.145 384.225,157.176" stroke-width="8.457" stroke="black" fill="none" stroke-linecap="round"></path><path d="M 384.225,157.176 C 386.033,155.547 387.051,156.192 389.818,156.376" stroke-width="8.217" stroke="black" fill="none" stroke-linecap="round"></path><path d="M 389.818,156.376 C 393.044,156.592 393.414,156.469 396.210,157.975" stroke-width="8.193" stroke="black" fill="none" stroke-linecap="round"></path><path d="M 396.210,157.975 C 398.608,159.267 399.085,159.545 400.205,161.972" stroke-width="8.118" stroke="black" fill="none" stroke-linecap="round"></path><path d="M 400.205,161.972 C 401.482,164.741 401.004,165.173 401.004,168.367" stroke-width="8.052" stroke="black" fill="none" stroke-linecap="round"></path><path d="M 401.004,168.367 C 401.004,171.169 400.725,171.187 400.205,173.963" stroke-width="7.837" stroke="black" fill="none" stroke-linecap="round"></path><path d="M 400.205,173.963 C 399.526,177.583 399.766,177.679 398.607,181.158" stroke-width="7.495" stroke="black" fill="none" stroke-linecap="round"></path><path d="M 398.607,181.158 C 397.369,184.874 397.247,184.882 395.411,188.353" stroke-width="7.363" stroke="black" fill="none" stroke-linecap="round"></path><path d="M 395.411,188.353 C 393.652,191.677 393.558,191.652 391.416,194.748" stroke-width="7.392" stroke="black" fill="none" stroke-linecap="round"></path><path d="M 391.416,194.748 C 389.962,196.849 390.171,197.183 388.220,198.745" stroke-width="7.667" stroke="black" fill="none" stroke-linecap="round"></path><path d="M 388.220,198.745 C 386.176,200.381 385.950,200.301 383.426,201.143" stroke-width="8.134" stroke="black" fill="none" stroke-linecap="round"></path><path d="M 383.426,201.143 C 379.957,202.300 379.789,201.794 376.235,202.742" stroke-width="8.116" stroke="black" fill="none" stroke-linecap="round"></path><path d="M 376.235,202.742 C 373.796,203.392 373.681,203.220 371.441,204.341" stroke-width="7.918" stroke="black" fill="none" stroke-linecap="round"></path><path d="M 371.441,204.341 C 368.887,205.618 368.763,205.633 366.647,207.538" stroke-width="8.046" stroke="black" fill="none" stroke-linecap="round"></path><path d="M 366.647,207.538 C 364.768,209.230 364.514,209.256 363.451,211.535" stroke-width="8.139" stroke="black" fill="none" stroke-linecap="round"></path><path d="M 363.451,211.535 C 361.717,215.252 362.440,215.600 361.054,219.529" stroke-width="7.851" stroke="black" fill="none" stroke-linecap="round"></path><path d="M 361.054,219.529 C 360.043,222.395 360.176,222.519 358.657,225.125" stroke-width="7.697" stroke="black" fill="none" stroke-linecap="round"></path><path d="M 358.657,225.125 C 357.379,227.316 357.468,228.757 355.461,229.122" stroke-width="7.805" stroke="black" fill="none" stroke-linecap="round"></path><path d="M 355.461,229.122 C 353.074,229.556 352.432,228.303 349.868,226.724" stroke-width="8.112" stroke="black" fill="none" stroke-linecap="round"></path><path d="M 349.868,226.724 C 347.238,225.105 347.271,224.925 345.074,222.727" stroke-width="8.046" stroke="black" fill="none" stroke-linecap="round"></path><path d="M 345.074,222.727 C 342.876,220.528 343.175,220.238 341.079,217.931" stroke-width="8.015" stroke="black" fill="none" stroke-linecap="round"></path><path d="M 341.079,217.931 C 339.180,215.841 339.180,215.821 337.084,213.934" stroke-width="8.087" stroke="black" fill="none" stroke-linecap="round"></path><path d="M 337.084,213.934 C 335.185,212.224 335.388,211.621 333.089,210.736" stroke-width="8.283" stroke="black" fill="none" stroke-linecap="round"></path><path d="M 333.089,210.736 C 330.194,209.622 329.830,209.588 326.697,209.936" stroke-width="8.341" stroke="black" fill="none" stroke-linecap="round"></path><path d="M 326.697,209.936 C 322.639,210.388 322.627,210.923 318.707,212.335" stroke-width="6.583" stroke="black" fill="none" stroke-linecap="round"></path><path d="M 318.707,212.335 C 312.640,214.520 312.673,214.634 306.722,217.131" stroke-width="5.373" stroke="black" fill="none" stroke-linecap="round"></path><path d="M 306.722,217.131 C 300.288,219.830 300.425,220.170 293.938,222.727" stroke-width="5.157" stroke="black" fill="none" stroke-linecap="round"></path><path d="M 293.938,222.727 C 287.241,225.366 287.128,225.076 280.355,227.523" stroke-width="4.954" stroke="black" fill="none" stroke-linecap="round"></path><path d="M 280.355,227.523 C 272.746,230.272 272.696,230.148 265.174,233.119" stroke-width="4.709" stroke="black" fill="none" stroke-linecap="round"></path><path d="M 265.174,233.119 C 257.515,236.144 257.552,236.244 249.993,239.514" stroke-width="4.611" stroke="black" fill="none" stroke-linecap="round"></path><path d="M 249.993,239.514 C 242.770,242.639 242.802,242.712 235.611,245.910" stroke-width="4.655" stroke="black" fill="none" stroke-linecap="round"></path><path d="M 235.611,245.910 C 228.419,249.107 228.509,249.337 221.228,252.305" stroke-width="4.668" stroke="black" fill="none" stroke-linecap="round"></path><path d="M 221.228,252.305 C 217.722,253.734 217.539,253.261 214.037,254.703" stroke-width="5.658" stroke="black" fill="none" stroke-linecap="round"></path><path d="M 214.037,254.703 C 203.956,258.856 204.152,259.355 194.062,263.496" stroke-width="4.500" stroke="black" fill="none" stroke-linecap="round"></path><path d="M 194.062,263.496 C 188.571,265.750 188.445,265.430 182.876,267.494" stroke-width="4.967" stroke="black" fill="none" stroke-linecap="round"></path><path d="M 182.876,267.494 C 177.659,269.427 177.577,269.251 172.489,271.491" stroke-width="5.288" stroke="black" fill="none" stroke-linecap="round"></path><path d="M 172.489,271.491 C 167.589,273.648 167.736,273.974 162.901,276.287" stroke-width="5.448" stroke="black" fill="none" stroke-linecap="round"></path><path d="M 162.901,276.287 C 158.547,278.370 158.470,278.208 154.112,280.284" stroke-width="5.649" stroke="black" fill="none" stroke-linecap="round"></path><path d="M 154.112,280.284 C 150.080,282.205 150.192,282.449 146.122,284.281" stroke-width="5.900" stroke="black" fill="none" stroke-linecap="round"></path><path d="M 146.122,284.281 C 142.202,286.046 142.111,285.840 138.132,287.479" stroke-width="5.867" stroke="black" fill="none" stroke-linecap="round"></path><path d="M 138.132,287.479 C 135.319,288.638 135.301,288.602 132.539,289.877" stroke-width="6.379" stroke="black" fill="none" stroke-linecap="round"></path><path d="M 132.539,289.877 C 130.107,291.000 130.254,291.379 127.745,292.275" stroke-width="6.697" stroke="black" fill="none" stroke-linecap="round"></path><path d="M 127.745,292.275 C 124.661,293.377 124.149,292.368 121.353,293.874" stroke-width="7.265" stroke="black" fill="none" stroke-linecap="round"></path><path d="M 121.353,293.874 C 118.955,295.166 118.572,295.442 117.358,297.871" stroke-width="8.200" stroke="black" fill="none" stroke-linecap="round"></path><path d="M 117.358,297.871 C 115.775,301.038 117.900,303.139 115.760,305.066" stroke-width="7.947" stroke="black" fill="none" stroke-linecap="round"></path><path d="M 115.760,305.066 C 113.905,306.736 112.253,305.954 109.368,305.066" stroke-width="8.148" stroke="black" fill="none" stroke-linecap="round"></path><path d="M 109.368,305.066 C 107.059,304.355 107.064,303.748 105.373,301.868" stroke-width="7.246" stroke="black" fill="none" stroke-linecap="round"></path><path d="M 105.373,301.868 C 103.469,299.751 103.626,299.556 102.177,297.071" stroke-width="6.870" stroke="black" fill="none" stroke-linecap="round"></path><path d="M 102.177,297.071 C 100.830,294.760 100.927,294.698 99.780,292.275" stroke-width="6.850" stroke="black" fill="none" stroke-linecap="round"></path><path d="M 99.780,292.275 C 97.332,287.104 97.203,287.150 94.986,281.883" stroke-width="6.768" stroke="black" fill="none" stroke-linecap="round"></path><path d="M 94.986,281.883 C 94.007,279.556 94.131,279.502 93.388,277.086" stroke-width="6.885" stroke="black" fill="none" stroke-linecap="round"></path><path d="M 93.388,277.086 C 92.533,274.306 92.589,274.288 91.790,271.491" stroke-width="6.758" stroke="black" fill="none" stroke-linecap="round"></path><path d="M 91.790,271.491 C 90.991,268.693 90.761,268.740 90.192,265.895" stroke-width="6.721" stroke="black" fill="none" stroke-linecap="round"></path><path d="M 90.192,265.895 C 89.562,262.744 89.607,262.709 89.393,259.499" stroke-width="6.583" stroke="black" fill="none" stroke-linecap="round"></path><path d="M 89.393,259.499 C 89.208,256.713 88.624,256.520 89.393,253.904" stroke-width="6.778" stroke="black" fill="none" stroke-linecap="round"></path><path d="M 89.393,253.904 C 90.622,249.725 90.801,249.440 93.388,245.910" stroke-width="6.988" stroke="black" fill="none" stroke-linecap="round"></path><path d="M 93.388,245.910 C 95.195,243.444 95.627,243.683 98.182,241.913" stroke-width="6.700" stroke="black" fill="none" stroke-linecap="round"></path><path d="M 98.182,241.913 C 100.820,240.085 100.793,239.834 103.775,238.715" stroke-width="6.578" stroke="black" fill="none" stroke-linecap="round"></path><path d="M 103.775,238.715 C 107.185,237.436 107.327,237.521 110.966,237.116" stroke-width="6.366" stroke="black" fill="none" stroke-linecap="round"></path><path d="M 110.966,237.116 C 114.518,236.721 114.575,236.905 118.157,237.116" stroke-width="6.411" stroke="black" fill="none" stroke-linecap="round"></path><path d="M 118.157,237.116 C 121.366,237.305 121.389,237.323 124.549,237.916" stroke-width="6.415" stroke="black" fill="none" stroke-linecap="round"></path><path d="M 124.549,237.916 C 127.781,238.522 127.776,238.610 130.941,239.514" stroke-width="6.465" stroke="black" fill="none" stroke-linecap="round"></path><path d="M 130.941,239.514 C 133.369,240.208 133.688,239.748 135.735,241.113" stroke-width="6.789" stroke="black" fill="none" stroke-linecap="round"></path><path d="M 135.735,241.113 C 138.482,242.945 141.185,243.779 140.529,245.910" stroke-width="7.274" stroke="black" fill="none" stroke-linecap="round"></path><path d="M 140.529,245.910 C 139.587,248.975 136.840,249.481 132.539,251.505" stroke-width="7.452" stroke="black" fill="none" stroke-linecap="round"></path><path d="M 132.539,251.505 C 130.048,252.678 129.638,251.513 126.946,252.305" stroke-width="7.020" stroke="black" fill="none" stroke-linecap="round"></path><path d="M 126.946,252.305 C 122.846,253.511 122.732,253.503 118.956,255.502" stroke-width="7.102" stroke="black" fill="none" stroke-linecap="round"></path><path d="M 118.956,255.502 C 115.940,257.100 115.994,257.306 113.363,259.499" stroke-width="7.391" stroke="black" fill="none" stroke-linecap="round"></path><path d="M 113.363,259.499 C 111.200,261.303 109.959,261.133 109.368,263.496" stroke-width="7.617" stroke="black" fill="none" stroke-linecap="round"></path><path d="M 109.368,263.496 C 108.760,265.930 109.001,267.841 110.966,269.092" stroke-width="7.945" stroke="black" fill="none" stroke-linecap="round"></path><path d="M 110.966,269.092 C 113.395,270.639 114.662,269.829 118.157,269.092" stroke-width="6.645" stroke="black" fill="none" stroke-linecap="round"></path><path d="M 118.157,269.092 C 129.843,266.631 130.104,266.908 141.328,262.697" stroke-width="4.500" stroke="black" fill="none" stroke-linecap="round"></path><path d="M 141.328,262.697 C 158.869,256.116 158.864,255.829 175.685,247.508" stroke-width="4.500" stroke="black" fill="none" stroke-linecap="round"></path><path d="M 175.685,247.508 C 194.420,238.242 193.892,237.189 212.439,227.523" stroke-width="4.500" stroke="black" fill="none" stroke-linecap="round"></path><path d="M 212.439,227.523 C 232.244,217.203 232.414,217.531 252.390,207.538" stroke-width="4.500" stroke="black" fill="none" stroke-linecap="round"></path><path d="M 252.390,207.538 C 270.767,198.345 270.408,197.532 289.144,189.152" stroke-width="4.500" stroke="black" fill="none" stroke-linecap="round"></path><path d="M 289.144,189.152 C 304.365,182.343 304.684,183.050 320.305,177.161" stroke-width="4.500" stroke="black" fill="none" stroke-linecap="round"></path><path d="M 320.305,177.161 C 332.250,172.658 332.027,171.807 344.275,168.367" stroke-width="4.500" stroke="black" fill="none" stroke-linecap="round"></path><path d="M 344.275,168.367 C 354.799,165.412 355.092,166.523 365.848,164.370" stroke-width="4.500" stroke="black" fill="none" stroke-linecap="round"></path><path d="M 365.848,164.370 C 375.067,162.526 375.016,161.186 384.225,160.373" stroke-width="4.500" stroke="black" fill="none" stroke-linecap="round"></path><path d="M 384.225,160.373 C 388.599,159.987 395.593,159.872 393.014,161.972" stroke-width="5.212" stroke="black" fill="none" stroke-linecap="round"></path><path d="M 393.014,161.972 C 378.414,173.862 372.408,177.003 349.868,188.353" stroke-width="4.500" stroke="black" fill="none" stroke-linecap="round"></path><path d="M 349.868,188.353 C 311.284,207.780 310.015,205.295 270.767,223.526" stroke-width="4.500" stroke="black" fill="none" stroke-linecap="round"></path><path d="M 270.767,223.526 C 242.899,236.471 243.555,237.914 215.635,250.706" stroke-width="4.500" stroke="black" fill="none" stroke-linecap="round"></path><path d="M 215.635,250.706 C 200.808,257.500 200.724,257.739 185.273,262.697" stroke-width="4.500" stroke="black" fill="none" stroke-linecap="round"></path><path d="M 185.273,262.697 C 179.551,264.534 175.926,266.495 173.288,264.296" stroke-width="4.500" stroke="black" fill="none" stroke-linecap="round"></path><path d="M 173.288,264.296 C 171.132,262.498 171.711,257.395 175.685,254.703" stroke-width="5.717" stroke="black" fill="none" stroke-linecap="round"></path><path d="M 175.685,254.703 C 210.063,231.415 212.015,231.895 249.993,212.335" stroke-width="4.500" stroke="black" fill="none" stroke-linecap="round"></path><path d="M 249.993,212.335 C 279.531,197.121 279.991,197.842 310.717,185.155" stroke-width="4.500" stroke="black" fill="none" stroke-linecap="round"></path><path d="M 310.717,185.155 C 330.328,177.057 330.587,177.646 350.667,170.766" stroke-width="4.500" stroke="black" fill="none" stroke-linecap="round"></path><path d="M 211.640,201.143 C 220.429,196.746 220.429,196.746 229.218,192.350" stroke-width="7.298" stroke="black" fill="none" stroke-linecap="round"></path></svg>