<svg xmlns="http://www.w3.org/2000/svg" xmlns:xlink="http://www.w3.org/1999/xlink" viewBox="0 0 576 416" width="576" height="416"><path d="M 361.853,141.978 C 359.456,151.171 358.028,150.988 357.059,160.365" stroke-width="7.934" stroke="black" fill="none" stroke-linecap="round"></path><path d="M 357.059,160.365 C 355.631,174.171 357.059,174.354 357.059,188.344" stroke-width="4.500" stroke="black" fill="none" stroke-linecap="round"></path><path d="M 357.059,188.344 C 357.059,198.736 357.416,198.747 357.059,209.128" stroke-width="4.500" stroke="black" fill="none" stroke-linecap="round"></path><path d="M 357.059,209.128 C 356.617,221.930 355.935,221.908 355.461,234.709" stroke-width="4.500" stroke="black" fill="none" stroke-linecap="round"></path><path d="M 355.461,234.709 C 355.136,243.492 355.461,243.503 355.461,252.296" stroke-width="4.500" stroke="black" fill="none" stroke-linecap="round"></path><path d="M 355.461,252.296 C 355.461,260.290 355.916,260.320 355.461,268.284" stroke-width="4.579" stroke="black" fill="none" stroke-linecap="round"></path><path d="M 355.461,268.284 C 355.117,274.310 354.583,274.270 353.863,280.275" stroke-width="4.948" stroke="black" fill="none" stroke-linecap="round"></path><path d="M 353.863,280.275 C 353.384,284.263 353.286,284.263 353.064,288.269" stroke-width="5.709" stroke="black" fill="none" stroke-linecap="round"></path><path d="M 353.064,288.269 C 352.887,291.458 353.064,291.467 353.064,294.664" stroke-width="6.266" stroke="black" fill="none" stroke-linecap="round"></path><path d="M 196.459,291.467 C 197.658,281.874 196.767,281.686 198.856,272.281" stroke-width="7.592" stroke="black" fill="none" stroke-linecap="round"></path><path d="M 198.856,272.281 C 201.561,260.102 201.972,260.124 206.047,248.299" stroke-width="4.500" stroke="black" fill="none" stroke-linecap="round"></path><path d="M 206.047,248.299 C 209.962,236.941 210.201,237.006 214.836,225.916" stroke-width="4.500" stroke="black" fill="none" stroke-linecap="round"></path><path d="M 214.836,225.916 C 219.389,215.023 219.671,215.141 224.425,204.332" stroke-width="4.500" stroke="black" fill="none" stroke-linecap="round"></path><path d="M 224.425,204.332 C 228.460,195.156 228.191,195.032 232.415,185.945" stroke-width="4.500" stroke="black" fill="none" stroke-linecap="round"></path><path d="M 232.415,185.945 C 236.180,177.844 236.522,178.004 240.405,169.957" stroke-width="4.500" stroke="black" fill="none" stroke-linecap="round"></path><path d="M 240.405,169.957 C 242.115,166.413 241.783,166.249 243.601,162.763" stroke-width="5.369" stroke="black" fill="none" stroke-linecap="round"></path><path d="M 243.601,162.763 C 246.577,157.056 246.251,156.770 249.993,151.571" stroke-width="5.191" stroke="black" fill="none" stroke-linecap="round"></path><path d="M 249.993,151.571 C 253.442,146.778 253.513,146.611 257.983,142.778" stroke-width="5.173" stroke="black" fill="none" stroke-linecap="round"></path><path d="M 257.983,142.778 C 261.902,139.416 262.040,139.119 266.772,137.182" stroke-width="5.451" stroke="black" fill="none" stroke-linecap="round"></path><path d="M 266.772,137.182 C 270.829,135.521 271.125,135.416 275.561,135.583" stroke-width="5.758" stroke="black" fill="none" stroke-linecap="round"></path><path d="M 275.561,135.583 C 292.298,136.215 292.552,135.923 309.119,138.781" stroke-width="4.500" stroke="black" fill="none" stroke-linecap="round"></path><path d="M 309.119,138.781 C 327.309,141.918 327.581,141.740 345.074,147.574" stroke-width="4.500" stroke="black" fill="none" stroke-linecap="round"></path><path d="M 345.074,147.574 C 361.139,152.932 361.010,153.658 376.235,161.164" stroke-width="4.500" stroke="black" fill="none" stroke-linecap="round"></path><path d="M 376.235,161.164 C 388.575,167.248 388.877,167.037 400.205,174.754" stroke-width="4.500" stroke="black" fill="none" stroke-linecap="round"></path><path d="M 400.205,174.754 C 407.653,179.828 408.545,179.750 413.788,186.745" stroke-width="4.500" stroke="black" fill="none" stroke-linecap="round"></path><path d="M 413.788,186.745 C 416.934,190.942 417.506,192.696 416.984,197.137" stroke-width="4.914" stroke="black" fill="none" stroke-linecap="round"></path><path d="M 416.984,197.137 C 416.707,199.491 414.873,199.337 412.190,200.335" stroke-width="6.054" stroke="black" fill="none" stroke-linecap="round"></path><path d="M 412.190,200.335 C 400.891,204.534 400.881,205.185 389.019,207.529" stroke-width="4.500" stroke="black" fill="none" stroke-linecap="round"></path><path d="M 389.019,207.529 C 368.522,211.580 368.332,211.278 347.471,213.125" stroke-width="4.500" stroke="black" fill="none" stroke-linecap="round"></path><path d="M 347.471,213.125 C 323.188,215.275 323.117,214.952 298.732,215.523" stroke-width="4.500" stroke="black" fill="none" stroke-linecap="round"></path><path d="M 298.732,215.523 C 271.980,216.151 271.964,215.723 245.199,215.523" stroke-width="4.500" stroke="black" fill="none" stroke-linecap="round"></path><path d="M 245.199,215.523 C 218.430,215.323 218.433,214.927 191.665,214.724" stroke-width="4.500" stroke="black" fill="none" stroke-linecap="round"></path><path d="M 191.665,214.724 C 165.699,214.527 165.698,214.724 139.730,214.724" stroke-width="4.500" stroke="black" fill="none" stroke-linecap="round"></path><path d="M 139.730,214.724 C 116.559,214.724 116.550,214.291 93.388,214.724" stroke-width="4.500" stroke="black" fill="none" stroke-linecap="round"></path><path d="M 93.388,214.724 C 73.804,215.090 73.791,215.172 54.237,216.323" stroke-width="4.500" stroke="black" fill="none" stroke-linecap="round"></path><path d="M 54.237,216.323 C 39.833,217.170 39.830,217.285 25.473,218.721" stroke-width="4.500" stroke="black" fill="none" stroke-linecap="round"></path><path d="M 25.473,218.721 C 15.860,219.683 15.833,219.613 6.297,221.119" stroke-width="4.500" stroke="black" fill="none" stroke-linecap="round"></path><path d="M 6.297,221.119 C 0.652,222.011 0.128,221.259 -4.889,223.517" stroke-width="4.768" stroke="black" fill="none" stroke-linecap="round"></path><circle r="3" cx="281.153564453125" cy="284.2720947265625" fill="black"></circle><path d="M 28.669,325.841 C 28.669,330.637 28.669,330.637 28.669,335.434" stroke-width="8.530" stroke="black" fill="none" stroke-linecap="round"></path><path d="M 28.669,335.434 C 28.669,340.230 28.669,340.230 28.669,345.027" stroke-width="6.376" stroke="black" fill="none" stroke-linecap="round"></path><path d="M 28.669,345.027 C 28.669,350.623 28.462,350.630 28.669,356.218" stroke-width="5.681" stroke="black" fill="none" stroke-linecap="round"></path><path d="M 28.669,356.218 C 28.862,361.422 29.053,361.416 29.468,366.611" stroke-width="5.609" stroke="black" fill="none" stroke-linecap="round"></path><path d="M 29.468,366.611 C 29.852,371.408 29.618,371.442 30.267,376.203" stroke-width="5.785" stroke="black" fill="none" stroke-linecap="round"></path><path d="M 30.267,376.203 C 30.817,380.236 31.196,380.179 31.865,384.197" stroke-width="5.908" stroke="black" fill="none" stroke-linecap="round"></path><path d="M 31.865,384.197 C 32.394,387.374 32.288,387.392 32.664,390.593" stroke-width="6.327" stroke="black" fill="none" stroke-linecap="round"></path><path d="M 32.664,390.593 C 33.087,394.187 33.760,398.679 33.463,397.787" stroke-width="7.055" stroke="black" fill="none" stroke-linecap="round"></path><path d="M 33.463,397.787 C 32.961,396.281 32.104,391.819 31.066,385.796" stroke-width="7.613" stroke="black" fill="none" stroke-linecap="round"></path><path d="M 31.066,385.796 C 30.107,380.228 30.428,380.173 29.468,374.605" stroke-width="5.809" stroke="black" fill="none" stroke-linecap="round"></path><path d="M 29.468,374.605 C 28.430,368.582 28.109,368.637 27.071,362.614" stroke-width="5.395" stroke="black" fill="none" stroke-linecap="round"></path><path d="M 27.071,362.614 C 26.112,357.045 26.075,357.039 25.473,351.422" stroke-width="5.487" stroke="black" fill="none" stroke-linecap="round"></path><path d="M 25.473,351.422 C 24.876,345.847 24.890,345.833 24.674,340.230" stroke-width="5.348" stroke="black" fill="none" stroke-linecap="round"></path><path d="M 24.674,340.230 C 24.490,335.440 24.674,335.434 24.674,330.637" stroke-width="5.625" stroke="black" fill="none" stroke-linecap="round"></path><path d="M 24.674,330.637 C 24.674,326.241 24.455,326.229 24.674,321.844" stroke-width="5.836" stroke="black" fill="none" stroke-linecap="round"></path><path d="M 24.674,321.844 C 24.855,318.235 24.809,318.195 25.473,314.649" stroke-width="6.232" stroke="black" fill="none" stroke-linecap="round"></path><path d="M 25.473,314.649 C 26.007,311.799 25.447,311.328 27.071,309.054" stroke-width="6.485" stroke="black" fill="none" stroke-linecap="round"></path><path d="M 27.071,309.054 C 29.442,305.733 29.938,304.080 33.463,303.458" stroke-width="6.970" stroke="black" fill="none" stroke-linecap="round"></path><path d="M 33.463,303.458 C 36.729,302.881 37.299,304.641 40.654,306.655" stroke-width="7.203" stroke="black" fill="none" stroke-linecap="round"></path><path d="M 40.654,306.655 C 45.289,309.437 45.261,309.594 49.443,313.051" stroke-width="5.912" stroke="black" fill="none" stroke-linecap="round"></path><path d="M 49.443,313.051 C 54.449,317.188 54.633,317.077 59.031,321.844" stroke-width="5.318" stroke="black" fill="none" stroke-linecap="round"></path><path d="M 59.031,321.844 C 64.221,327.469 63.727,327.921 68.619,333.835" stroke-width="4.987" stroke="black" fill="none" stroke-linecap="round"></path><path d="M 68.619,333.835 C 73.315,339.512 73.533,339.333 78.207,345.027" stroke-width="4.869" stroke="black" fill="none" stroke-linecap="round"></path><path d="M 78.207,345.027 C 82.721,350.525 82.527,350.683 86.996,356.218" stroke-width="4.795" stroke="black" fill="none" stroke-linecap="round"></path><path d="M 86.996,356.218 C 90.917,361.075 91.142,360.897 94.986,365.811" stroke-width="5.064" stroke="black" fill="none" stroke-linecap="round"></path><path d="M 94.986,365.811 C 98.333,370.090 97.910,370.440 101.378,374.605" stroke-width="5.355" stroke="black" fill="none" stroke-linecap="round"></path><path d="M 101.378,374.605 C 103.902,377.635 103.917,377.717 106.971,380.200" stroke-width="5.882" stroke="black" fill="none" stroke-linecap="round"></path><path d="M 106.971,380.200 C 110.309,382.913 111.669,385.450 114.162,384.997" stroke-width="6.732" stroke="black" fill="none" stroke-linecap="round"></path><path d="M 114.162,384.997 C 116.064,384.651 115.580,381.844 115.760,378.602" stroke-width="7.699" stroke="black" fill="none" stroke-linecap="round"></path><path d="M 115.760,378.602 C 115.980,374.650 115.459,374.593 114.961,370.608" stroke-width="6.603" stroke="black" fill="none" stroke-linecap="round"></path><path d="M 114.961,370.608 C 114.261,365.000 114.110,365.019 113.363,359.416" stroke-width="5.716" stroke="black" fill="none" stroke-linecap="round"></path><path d="M 113.363,359.416 C 112.512,353.028 112.823,352.977 111.765,346.625" stroke-width="5.184" stroke="black" fill="none" stroke-linecap="round"></path><path d="M 111.765,346.625 C 110.826,340.986 110.373,341.064 109.368,335.434" stroke-width="5.319" stroke="black" fill="none" stroke-linecap="round"></path><path d="M 109.368,335.434 C 108.376,329.873 108.629,329.829 107.770,324.242" stroke-width="5.379" stroke="black" fill="none" stroke-linecap="round"></path><path d="M 107.770,324.242 C 107.031,319.436 106.971,319.446 106.172,314.649" stroke-width="5.617" stroke="black" fill="none" stroke-linecap="round"></path><path d="M 106.172,314.649 C 105.373,309.853 105.261,309.868 104.574,305.057" stroke-width="5.773" stroke="black" fill="none" stroke-linecap="round"></path><path d="M 104.574,305.057 C 104.063,301.475 104.481,301.392 103.775,297.862" stroke-width="6.063" stroke="black" fill="none" stroke-linecap="round"></path><path d="M 103.775,297.862 C 103.282,295.397 102.487,295.543 102.177,293.066" stroke-width="6.650" stroke="black" fill="none" stroke-linecap="round"></path><path d="M 162.901,342.629 C 157.308,345.426 156.896,344.855 151.715,348.224" stroke-width="8.474" stroke="black" fill="none" stroke-linecap="round"></path><path d="M 151.715,348.224 C 148.906,350.051 149.210,350.523 146.921,353.021" stroke-width="6.934" stroke="black" fill="none" stroke-linecap="round"></path><path d="M 146.921,353.021 C 144.815,355.320 144.544,355.187 142.926,357.817" stroke-width="6.606" stroke="black" fill="none" stroke-linecap="round"></path><path d="M 142.926,357.817 C 141.348,360.383 141.551,360.552 140.529,363.413" stroke-width="6.689" stroke="black" fill="none" stroke-linecap="round"></path><path d="M 140.529,363.413 C 139.553,366.148 139.109,366.159 138.931,369.009" stroke-width="6.626" stroke="black" fill="none" stroke-linecap="round"></path><path d="M 138.931,369.009 C 138.710,372.554 138.384,373.061 139.730,376.203" stroke-width="7.445" stroke="black" fill="none" stroke-linecap="round"></path><path d="M 139.730,376.203 C 140.781,378.657 141.328,378.909 143.725,380.200" stroke-width="7.634" stroke="black" fill="none" stroke-linecap="round"></path><path d="M 143.725,380.200 C 146.521,381.707 146.978,381.996 150.117,381.799" stroke-width="7.592" stroke="black" fill="none" stroke-linecap="round"></path><path d="M 150.117,381.799 C 153.370,381.596 153.541,381.000 156.509,379.401" stroke-width="7.524" stroke="black" fill="none" stroke-linecap="round"></path><path d="M 156.509,379.401 C 158.734,378.202 158.707,378.002 160.504,376.203" stroke-width="7.089" stroke="black" fill="none" stroke-linecap="round"></path><path d="M 160.504,376.203 C 162.302,374.405 162.102,374.205 163.700,372.206" stroke-width="7.032" stroke="black" fill="none" stroke-linecap="round"></path><path d="M 163.700,372.206 C 165.298,370.208 165.619,370.400 166.896,368.209" stroke-width="6.881" stroke="black" fill="none" stroke-linecap="round"></path><path d="M 166.896,368.209 C 168.416,365.604 168.465,365.515 169.293,362.614" stroke-width="6.701" stroke="black" fill="none" stroke-linecap="round"></path><path d="M 169.293,362.614 C 170.063,359.919 169.693,359.816 170.092,357.018" stroke-width="6.738" stroke="black" fill="none" stroke-linecap="round"></path><path d="M 170.092,357.018 C 170.492,354.220 171.038,354.214 170.891,351.422" stroke-width="6.749" stroke="black" fill="none" stroke-linecap="round"></path><path d="M 170.891,351.422 C 170.639,346.619 171.212,346.096 169.293,341.829" stroke-width="6.952" stroke="black" fill="none" stroke-linecap="round"></path><path d="M 169.293,341.829 C 167.617,338.102 167.289,337.050 163.700,335.434" stroke-width="7.095" stroke="black" fill="none" stroke-linecap="round"></path><path d="M 163.700,335.434 C 159.299,333.452 158.480,334.428 153.313,334.634" stroke-width="6.983" stroke="black" fill="none" stroke-linecap="round"></path><path d="M 245.998,329.838 C 238.807,331.437 238.758,331.249 231.615,333.036" stroke-width="8.399" stroke="black" fill="none" stroke-linecap="round"></path><path d="M 231.615,333.036 C 227.572,334.047 227.498,333.927 223.625,335.434" stroke-width="6.593" stroke="black" fill="none" stroke-linecap="round"></path><path d="M 223.625,335.434 C 220.307,336.725 220.385,336.950 217.233,338.631" stroke-width="6.411" stroke="black" fill="none" stroke-linecap="round"></path><path d="M 217.233,338.631 C 214.393,340.147 214.090,339.824 211.640,341.829" stroke-width="6.492" stroke="black" fill="none" stroke-linecap="round"></path><path d="M 211.640,341.829 C 209.695,343.422 209.810,343.679 208.444,345.826" stroke-width="6.784" stroke="black" fill="none" stroke-linecap="round"></path><path d="M 208.444,345.826 C 207.014,348.076 206.253,348.154 206.047,350.622" stroke-width="7.448" stroke="black" fill="none" stroke-linecap="round"></path><path d="M 206.047,350.622 C 205.854,352.950 206.024,353.649 207.645,355.419" stroke-width="7.715" stroke="black" fill="none" stroke-linecap="round"></path><path d="M 207.645,355.419 C 210.418,358.445 211.209,357.867 214.836,360.215" stroke-width="7.360" stroke="black" fill="none" stroke-linecap="round"></path><path d="M 214.836,360.215 C 218.000,362.264 218.032,362.214 221.228,364.212" stroke-width="6.535" stroke="black" fill="none" stroke-linecap="round"></path><path d="M 221.228,364.212 C 224.425,366.211 225.315,365.483 227.620,368.209" stroke-width="7.096" stroke="black" fill="none" stroke-linecap="round"></path><path d="M 227.620,368.209 C 229.709,370.679 230.877,371.853 230.017,374.605" stroke-width="7.664" stroke="black" fill="none" stroke-linecap="round"></path><path d="M 230.017,374.605 C 228.880,378.248 227.125,378.199 223.625,381.000" stroke-width="7.618" stroke="black" fill="none" stroke-linecap="round"></path><path d="M 223.625,381.000 C 221.132,382.995 220.829,382.599 218.032,384.197" stroke-width="6.897" stroke="black" fill="none" stroke-linecap="round"></path><path d="M 218.032,384.197 C 215.236,385.796 215.316,385.956 212.439,387.395" stroke-width="6.633" stroke="black" fill="none" stroke-linecap="round"></path><path d="M 212.439,387.395 C 209.723,388.754 209.671,388.663 206.846,389.793" stroke-width="6.629" stroke="black" fill="none" stroke-linecap="round"></path><path d="M 206.846,389.793 C 203.678,391.061 203.706,391.164 200.454,392.192" stroke-width="6.482" stroke="black" fill="none" stroke-linecap="round"></path><path d="M 253.988,368.209 C 257.583,366.211 257.654,366.328 261.179,364.212" stroke-width="8.610" stroke="black" fill="none" stroke-linecap="round"></path><path d="M 261.179,364.212 C 263.647,362.731 263.975,363.013 265.973,361.015" stroke-width="7.973" stroke="black" fill="none" stroke-linecap="round"></path><path d="M 265.973,361.015 C 267.970,359.016 267.809,358.745 269.169,356.218" stroke-width="7.777" stroke="black" fill="none" stroke-linecap="round"></path><path d="M 269.169,356.218 C 270.605,353.549 271.566,353.385 271.566,350.622" stroke-width="7.959" stroke="black" fill="none" stroke-linecap="round"></path><path d="M 271.566,350.622 C 271.566,348.189 271.140,346.543 269.169,345.826" stroke-width="8.211" stroke="black" fill="none" stroke-linecap="round"></path><path d="M 269.169,345.826 C 266.746,344.945 264.961,345.422 262.777,347.425" stroke-width="8.214" stroke="black" fill="none" stroke-linecap="round"></path><path d="M 262.777,347.425 C 260.167,349.818 260.621,350.871 259.581,354.620" stroke-width="7.932" stroke="black" fill="none" stroke-linecap="round"></path><path d="M 259.581,354.620 C 258.624,358.066 258.603,358.237 258.782,361.814" stroke-width="7.567" stroke="black" fill="none" stroke-linecap="round"></path><path d="M 258.782,361.814 C 259.002,366.231 258.924,366.446 260.380,370.608" stroke-width="7.253" stroke="black" fill="none" stroke-linecap="round"></path><path d="M 260.380,370.608 C 261.720,374.440 261.632,374.876 264.375,377.802" stroke-width="7.218" stroke="black" fill="none" stroke-linecap="round"></path><path d="M 264.375,377.802 C 267.625,381.271 268.154,381.028 272.365,383.398" stroke-width="7.091" stroke="black" fill="none" stroke-linecap="round"></path><path d="M 272.365,383.398 C 274.546,384.626 274.693,384.617 277.159,384.997" stroke-width="6.983" stroke="black" fill="none" stroke-linecap="round"></path><path d="M 277.159,384.997 C 279.887,385.417 279.955,384.997 282.752,384.997" stroke-width="6.834" stroke="black" fill="none" stroke-linecap="round"></path><path d="M 282.752,384.997 C 285.948,384.997 285.982,385.348 289.144,384.997" stroke-width="6.547" stroke="black" fill="none" stroke-linecap="round"></path><path d="M 289.144,384.997 C 293.173,384.549 293.118,384.068 297.134,383.398" stroke-width="6.297" stroke="black" fill="none" stroke-linecap="round"></path><path d="M 297.134,383.398 C 300.309,382.869 300.330,382.998 303.526,382.599" stroke-width="6.456" stroke="black" fill="none" stroke-linecap="round"></path><path d="M 409.793,302.658 C 402.202,302.658 402.191,302.406 394.612,302.658" stroke-width="8.305" stroke="black" fill="none" stroke-linecap="round"></path><path d="M 394.612,302.658 C 390.206,302.805 390.217,303.058 385.823,303.458" stroke-width="6.482" stroke="black" fill="none" stroke-linecap="round"></path><path d="M 385.823,303.458 C 381.428,303.857 381.424,303.818 377.034,304.257" stroke-width="6.081" stroke="black" fill="none" stroke-linecap="round"></path><path d="M 377.034,304.257 C 373.434,304.617 373.355,304.276 369.843,305.057" stroke-width="6.242" stroke="black" fill="none" stroke-linecap="round"></path><path d="M 369.843,305.057 C 366.163,305.875 366.162,306.050 362.652,307.455" stroke-width="6.230" stroke="black" fill="none" stroke-linecap="round"></path><path d="M 362.652,307.455 C 360.169,308.448 360.077,308.372 357.858,309.853" stroke-width="6.646" stroke="black" fill="none" stroke-linecap="round"></path><path d="M 357.858,309.853 C 354.085,312.369 353.848,312.266 350.667,315.449" stroke-width="6.956" stroke="black" fill="none" stroke-linecap="round"></path><path d="M 350.667,315.449 C 348.654,317.462 348.831,317.718 347.471,320.245" stroke-width="6.790" stroke="black" fill="none" stroke-linecap="round"></path><path d="M 347.471,320.245 C 346.034,322.914 345.902,322.939 345.074,325.841" stroke-width="6.675" stroke="black" fill="none" stroke-linecap="round"></path><path d="M 345.074,325.841 C 344.304,328.535 344.409,328.620 344.275,331.437" stroke-width="6.796" stroke="black" fill="none" stroke-linecap="round"></path><path d="M 344.275,331.437 C 344.009,337.014 344.032,337.046 344.275,342.629" stroke-width="5.776" stroke="black" fill="none" stroke-linecap="round"></path><path d="M 344.275,342.629 C 344.432,346.239 344.884,346.214 345.074,349.823" stroke-width="6.141" stroke="black" fill="none" stroke-linecap="round"></path><path d="M 345.074,349.823 C 345.283,353.809 344.864,353.832 345.074,357.817" stroke-width="6.127" stroke="black" fill="none" stroke-linecap="round"></path><path d="M 345.074,357.817 C 345.264,361.426 345.450,361.417 345.873,365.012" stroke-width="6.256" stroke="black" fill="none" stroke-linecap="round"></path><path d="M 345.873,365.012 C 346.249,368.212 346.483,368.196 346.672,371.407" stroke-width="6.367" stroke="black" fill="none" stroke-linecap="round"></path><path d="M 346.672,371.407 C 346.882,374.991 346.448,375.020 346.672,378.602" stroke-width="6.337" stroke="black" fill="none" stroke-linecap="round"></path><path d="M 346.672,378.602 C 346.847,381.415 347.305,381.383 347.471,384.197" stroke-width="6.623" stroke="black" fill="none" stroke-linecap="round"></path><path d="M 323.501,362.614 C 328.694,362.214 328.701,362.286 333.888,361.814" stroke-width="8.511" stroke="black" fill="none" stroke-linecap="round"></path><path d="M 333.888,361.814 C 337.490,361.487 337.515,361.609 341.079,361.015" stroke-width="6.843" stroke="black" fill="none" stroke-linecap="round"></path><path d="M 341.079,361.015 C 344.707,360.410 344.685,360.260 348.270,359.416" stroke-width="6.438" stroke="black" fill="none" stroke-linecap="round"></path><path d="M 348.270,359.416 C 351.476,358.661 351.479,358.666 354.662,357.817" stroke-width="6.472" stroke="black" fill="none" stroke-linecap="round"></path><path d="M 354.662,357.817 C 357.472,357.067 357.552,357.258 360.255,356.218" stroke-width="6.634" stroke="black" fill="none" stroke-linecap="round"></path><path d="M 360.255,356.218 C 362.745,355.260 362.652,355.019 365.049,353.820" stroke-width="6.778" stroke="black" fill="none" stroke-linecap="round"></path><path d="M 365.049,353.820 C 367.446,352.621 367.446,352.621 369.843,351.422" stroke-width="7.404" stroke="black" fill="none" stroke-linecap="round"></path><path d="M 369.843,351.422 C 372.240,350.223 373.636,347.737 374.637,349.024" stroke-width="7.907" stroke="black" fill="none" stroke-linecap="round"></path><path d="M 374.637,349.024 C 376.433,351.334 375.436,353.828 375.436,358.617" stroke-width="8.037" stroke="black" fill="none" stroke-linecap="round"></path><path d="M 375.436,358.617 C 375.436,361.822 374.837,361.802 374.637,365.012" stroke-width="6.916" stroke="black" fill="none" stroke-linecap="round"></path><path d="M 374.637,365.012 C 374.438,368.197 374.438,368.222 374.637,371.407" stroke-width="6.648" stroke="black" fill="none" stroke-linecap="round"></path><path d="M 374.637,371.407 C 374.837,374.617 375.247,374.592 375.436,377.802" stroke-width="6.633" stroke="black" fill="none" stroke-linecap="round"></path><path d="M 375.436,377.802 C 375.646,381.386 374.994,381.461 375.436,384.997" stroke-width="6.490" stroke="black" fill="none" stroke-linecap="round"></path><path d="M 375.436,384.997 C 375.793,387.857 376.235,387.795 377.034,390.593" stroke-width="6.566" stroke="black" fill="none" stroke-linecap="round"></path><circle r="3" cx="380.229736328125" cy="325.0416259765625" fill="black"></circle><path d="M 434.562,282.673 C 433.363,288.669 433.277,288.653 432.165,294.664" stroke-width="8.419" stroke="black" fill="none" stroke-linecap="round"></path><path d="M 432.165,294.664 C 431.280,299.445 431.306,299.451 430.567,304.257" stroke-width="6.333" stroke="black" fill="none" stroke-linecap="round"></path><path d="M 430.567,304.257 C 429.708,309.844 429.706,309.845 428.969,315.449" stroke-width="5.654" stroke="black" fill="none" stroke-linecap="round"></path><path d="M 428.969,315.449 C 427.708,325.033 427.557,325.021 426.572,334.634" stroke-width="5.361" stroke="black" fill="none" stroke-linecap="round"></path><path d="M 426.572,334.634 C 425.959,340.610 426.370,340.650 425.773,346.625" stroke-width="5.204" stroke="black" fill="none" stroke-linecap="round"></path><path d="M 425.773,346.625 C 425.172,352.641 425.001,352.625 424.175,358.617" stroke-width="5.671" stroke="black" fill="none" stroke-linecap="round"></path><path d="M 424.175,358.617 C 423.403,364.216 423.200,364.193 422.577,369.808" stroke-width="5.482" stroke="black" fill="none" stroke-linecap="round"></path><path d="M 422.577,369.808 C 422.002,374.985 422.353,375.024 421.778,380.200" stroke-width="5.460" stroke="black" fill="none" stroke-linecap="round"></path><path d="M 421.778,380.200 C 421.154,385.816 420.648,385.773 420.180,391.392" stroke-width="5.660" stroke="black" fill="none" stroke-linecap="round"></path><path d="M 446.547,272.281 C 446.547,276.678 446.784,276.687 446.547,281.074" stroke-width="8.574" stroke="black" fill="none" stroke-linecap="round"></path><path d="M 446.547,281.074 C 445.985,291.476 445.871,291.478 444.949,301.859" stroke-width="6.232" stroke="black" fill="none" stroke-linecap="round"></path><path d="M 444.949,301.859 C 444.273,309.464 443.762,309.433 443.351,317.048" stroke-width="5.108" stroke="black" fill="none" stroke-linecap="round"></path><path d="M 443.351,317.048 C 442.963,324.222 443.569,324.249 443.351,331.437" stroke-width="5.033" stroke="black" fill="none" stroke-linecap="round"></path><path d="M 443.351,331.437 C 443.169,337.440 442.759,337.426 442.552,343.428" stroke-width="5.107" stroke="black" fill="none" stroke-linecap="round"></path><path d="M 442.552,343.428 C 442.359,349.017 442.726,349.029 442.552,354.620" stroke-width="5.327" stroke="black" fill="none" stroke-linecap="round"></path><path d="M 442.552,354.620 C 442.327,361.819 442.010,361.810 441.753,369.009" stroke-width="5.950" stroke="black" fill="none" stroke-linecap="round"></path><path d="M 441.753,369.009 C 441.610,373.002 441.648,378.895 441.753,377.003" stroke-width="5.986" stroke="black" fill="none" stroke-linecap="round"></path><path d="M 452.939,372.206 C 456.534,368.609 456.647,368.714 460.130,365.012" stroke-width="8.644" stroke="black" fill="none" stroke-linecap="round"></path><path d="M 460.130,365.012 C 463.039,361.919 463.336,362.089 465.723,358.617" stroke-width="7.580" stroke="black" fill="none" stroke-linecap="round"></path><path d="M 465.723,358.617 C 467.731,355.694 467.597,355.526 468.919,352.221" stroke-width="7.451" stroke="black" fill="none" stroke-linecap="round"></path><path d="M 468.919,352.221 C 469.994,349.531 470.327,349.470 470.517,346.625" stroke-width="7.656" stroke="black" fill="none" stroke-linecap="round"></path><path d="M 470.517,346.625 C 470.727,343.475 471.421,341.721 469.718,340.230" stroke-width="7.862" stroke="black" fill="none" stroke-linecap="round"></path><path d="M 469.718,340.230 C 468.225,338.923 466.065,339.442 464.125,341.030" stroke-width="8.361" stroke="black" fill="none" stroke-linecap="round"></path><path d="M 464.125,341.030 C 461.670,343.039 461.994,344.050 460.929,347.425" stroke-width="7.662" stroke="black" fill="none" stroke-linecap="round"></path><path d="M 460.929,347.425 C 459.597,351.644 459.753,351.788 459.331,356.218" stroke-width="7.340" stroke="black" fill="none" stroke-linecap="round"></path><path d="M 459.331,356.218 C 458.954,360.181 458.526,360.386 459.331,364.212" stroke-width="7.273" stroke="black" fill="none" stroke-linecap="round"></path><path d="M 459.331,364.212 C 460.124,367.980 460.381,368.186 462.527,371.407" stroke-width="7.297" stroke="black" fill="none" stroke-linecap="round"></path><path d="M 462.527,371.407 C 464.376,374.182 464.534,374.411 467.321,376.203" stroke-width="7.465" stroke="black" fill="none" stroke-linecap="round"></path><path d="M 467.321,376.203 C 470.127,378.008 470.424,378.190 473.713,378.602" stroke-width="7.460" stroke="black" fill="none" stroke-linecap="round"></path><path d="M 473.713,378.602 C 476.816,378.990 477.245,379.074 480.105,377.802" stroke-width="7.534" stroke="black" fill="none" stroke-linecap="round"></path><path d="M 480.105,377.802 C 484.436,375.876 484.441,375.375 488.095,372.206" stroke-width="7.180" stroke="black" fill="none" stroke-linecap="round"></path><path d="M 488.095,372.206 C 490.433,370.179 490.221,369.904 492.090,367.410" stroke-width="6.671" stroke="black" fill="none" stroke-linecap="round"></path><path d="M 492.090,367.410 C 493.816,365.107 493.926,365.141 495.286,362.614" stroke-width="6.706" stroke="black" fill="none" stroke-linecap="round"></path><path d="M 495.286,362.614 C 496.722,359.944 496.592,359.856 497.683,357.018" stroke-width="6.650" stroke="black" fill="none" stroke-linecap="round"></path><path d="M 497.683,357.018 C 498.589,354.660 498.482,354.620 499.281,352.221" stroke-width="6.848" stroke="black" fill="none" stroke-linecap="round"></path><path d="M 499.281,352.221 C 500.080,349.823 500.352,349.885 500.879,347.425" stroke-width="6.972" stroke="black" fill="none" stroke-linecap="round"></path><path d="M 500.879,347.425 C 501.551,344.289 501.678,344.224 501.678,341.030" stroke-width="7.353" stroke="black" fill="none" stroke-linecap="round"></path><path d="M 501.678,341.030 C 501.678,338.228 502.477,336.633 500.879,335.434" stroke-width="7.862" stroke="black" fill="none" stroke-linecap="round"></path><path d="M 500.879,335.434 C 499.281,334.235 496.883,334.635 495.286,336.233" stroke-width="8.257" stroke="black" fill="none" stroke-linecap="round"></path><path d="M 495.286,336.233 C 493.688,337.832 493.579,339.467 494.487,341.829" stroke-width="8.294" stroke="black" fill="none" stroke-linecap="round"></path><path d="M 494.487,341.829 C 495.576,344.663 496.444,345.004 499.281,346.625" stroke-width="8.046" stroke="black" fill="none" stroke-linecap="round"></path><path d="M 499.281,346.625 C 502.037,348.201 502.558,347.185 505.673,348.224" stroke-width="7.710" stroke="black" fill="none" stroke-linecap="round"></path><path d="M 505.673,348.224 C 508.550,349.184 508.429,349.531 511.266,350.622" stroke-width="7.632" stroke="black" fill="none" stroke-linecap="round"></path><path d="M 511.266,350.622 C 513.622,351.529 514.315,350.670 516.060,352.221" stroke-width="7.773" stroke="black" fill="none" stroke-linecap="round"></path><path d="M 516.060,352.221 C 517.911,353.867 518.094,354.476 518.457,357.018" stroke-width="8.029" stroke="black" fill="none" stroke-linecap="round"></path><path d="M 518.457,357.018 C 518.893,360.072 518.330,360.277 517.658,363.413" stroke-width="8.002" stroke="black" fill="none" stroke-linecap="round"></path><path d="M 517.658,363.413 C 517.131,365.873 516.859,365.811 516.060,368.209" stroke-width="7.884" stroke="black" fill="none" stroke-linecap="round"></path><path d="M 516.060,368.209 C 515.261,370.608 515.028,370.553 514.462,373.006" stroke-width="7.850" stroke="black" fill="none" stroke-linecap="round"></path><path d="M 514.462,373.006 C 513.829,375.749 513.034,376.084 513.663,378.602" stroke-width="8.025" stroke="black" fill="none" stroke-linecap="round"></path><path d="M 513.663,378.602 C 514.233,380.881 514.727,381.710 516.859,382.599" stroke-width="8.344" stroke="black" fill="none" stroke-linecap="round"></path><path d="M 516.859,382.599 C 519.521,383.709 520.113,383.070 523.251,382.599" stroke-width="7.816" stroke="black" fill="none" stroke-linecap="round"></path><path d="M 523.251,382.599 C 528.103,381.870 528.045,381.400 532.839,380.200" stroke-width="6.197" stroke="black" fill="none" stroke-linecap="round"></path></svg>