<svg xmlns="http://www.w3.org/2000/svg" xmlns:xlink="http://www.w3.org/1999/xlink" viewBox="0 0 576 416" width="576" height="416"><path d="M 87.795,413.385 C 86.996,408.189 86.762,408.217 86.197,402.993" stroke-width="7.685" stroke="black" fill="none" stroke-linecap="round"></path><path d="M 86.197,402.993 C 85.164,393.428 85.412,393.399 84.599,383.807" stroke-width="4.753" stroke="black" fill="none" stroke-linecap="round"></path><path d="M 84.599,383.807 C 83.414,369.816 83.279,369.827 82.202,355.828" stroke-width="4.500" stroke="black" fill="none" stroke-linecap="round"></path><path d="M 82.202,355.828 C 80.882,338.650 81.106,338.633 79.805,321.454" stroke-width="4.500" stroke="black" fill="none" stroke-linecap="round"></path><path d="M 79.805,321.454 C 79.109,312.252 79.058,312.256 78.207,303.067" stroke-width="4.500" stroke="black" fill="none" stroke-linecap="round"></path><path d="M 78.207,303.067 C 75.063,269.088 74.781,269.112 71.815,235.118" stroke-width="4.500" stroke="black" fill="none" stroke-linecap="round"></path><path d="M 71.815,235.118 C 70.387,218.749 71.052,218.686 69.418,202.342" stroke-width="4.500" stroke="black" fill="none" stroke-linecap="round"></path><path d="M 69.418,202.342 C 67.856,186.710 67.702,186.713 65.423,171.166" stroke-width="4.500" stroke="black" fill="none" stroke-linecap="round"></path><path d="M 65.423,171.166 C 63.308,156.735 62.991,156.782 60.629,142.387" stroke-width="4.500" stroke="black" fill="none" stroke-linecap="round"></path><path d="M 60.629,142.387 C 58.597,130.002 58.971,129.931 56.634,117.606" stroke-width="4.500" stroke="black" fill="none" stroke-linecap="round"></path><path d="M 56.634,117.606 C 54.576,106.749 54.582,106.718 51.840,96.022" stroke-width="4.500" stroke="black" fill="none" stroke-linecap="round"></path><path d="M 51.840,96.022 C 50.587,91.130 50.109,91.266 48.644,86.429" stroke-width="4.838" stroke="black" fill="none" stroke-linecap="round"></path><path d="M 48.644,86.429 C 46.114,78.076 46.022,78.091 43.850,69.641" stroke-width="4.500" stroke="black" fill="none" stroke-linecap="round"></path><path d="M 43.850,69.641 C 42.426,64.102 42.954,63.957 41.453,58.450" stroke-width="5.062" stroke="black" fill="none" stroke-linecap="round"></path><path d="M 41.453,58.450 C 40.557,55.164 39.056,52.055 39.056,52.055" stroke-width="6.530" stroke="black" fill="none" stroke-linecap="round"></path><path d="M 39.056,52.055 C 39.056,52.055 40.297,55.237 41.453,58.450" stroke-width="7.242" stroke="black" fill="none" stroke-linecap="round"></path><path d="M 41.453,58.450 C 43.893,65.229 43.970,65.204 46.247,72.040" stroke-width="5.284" stroke="black" fill="none" stroke-linecap="round"></path><path d="M 46.247,72.040 C 49.563,81.992 49.627,81.978 52.639,92.025" stroke-width="4.500" stroke="black" fill="none" stroke-linecap="round"></path><path d="M 52.639,92.025 C 54.421,97.966 54.131,98.050 55.835,104.016" stroke-width="4.948" stroke="black" fill="none" stroke-linecap="round"></path><path d="M 55.835,104.016 C 62.121,126.029 62.110,126.034 68.619,147.983" stroke-width="4.500" stroke="black" fill="none" stroke-linecap="round"></path><path d="M 68.619,147.983 C 72.897,162.407 72.899,162.408 77.408,176.762" stroke-width="4.500" stroke="black" fill="none" stroke-linecap="round"></path><path d="M 77.408,176.762 C 81.688,190.387 81.744,190.371 86.197,203.941" stroke-width="4.500" stroke="black" fill="none" stroke-linecap="round"></path><path d="M 86.197,203.941 C 90.533,217.151 90.273,217.247 94.986,230.322" stroke-width="4.500" stroke="black" fill="none" stroke-linecap="round"></path><path d="M 94.986,230.322 C 99.062,241.629 99.461,241.482 103.775,252.705" stroke-width="4.500" stroke="black" fill="none" stroke-linecap="round"></path><path d="M 103.775,252.705 C 107.451,262.267 106.858,262.528 110.966,271.891" stroke-width="4.500" stroke="black" fill="none" stroke-linecap="round"></path><path d="M 110.966,271.891 C 114.049,278.916 114.144,278.955 118.157,285.480" stroke-width="4.500" stroke="black" fill="none" stroke-linecap="round"></path><path d="M 118.157,285.480 C 120.536,289.348 120.680,289.347 123.750,292.675" stroke-width="5.329" stroke="black" fill="none" stroke-linecap="round"></path><path d="M 123.750,292.675 C 125.474,294.544 125.766,296.053 127.745,295.873" stroke-width="6.350" stroke="black" fill="none" stroke-linecap="round"></path><path d="M 127.745,295.873 C 130.160,295.653 131.271,294.556 132.539,291.876" stroke-width="7.179" stroke="black" fill="none" stroke-linecap="round"></path><path d="M 132.539,291.876 C 134.866,286.961 134.045,286.332 134.936,280.684" stroke-width="5.916" stroke="black" fill="none" stroke-linecap="round"></path><path d="M 134.936,280.684 C 136.442,271.143 136.286,271.108 137.333,261.498" stroke-width="4.500" stroke="black" fill="none" stroke-linecap="round"></path><path d="M 137.333,261.498 C 138.683,249.124 138.967,249.135 139.730,236.717" stroke-width="4.500" stroke="black" fill="none" stroke-linecap="round"></path><path d="M 139.730,236.717 C 140.565,223.154 140.152,223.128 140.529,209.537" stroke-width="4.500" stroke="black" fill="none" stroke-linecap="round"></path><path d="M 140.529,209.537 C 140.951,194.349 141.126,194.351 141.328,179.160" stroke-width="4.500" stroke="black" fill="none" stroke-linecap="round"></path><path d="M 141.328,179.160 C 141.525,164.373 141.328,164.371 141.328,149.582" stroke-width="4.500" stroke="black" fill="none" stroke-linecap="round"></path><path d="M 141.328,149.582 C 141.328,141.987 141.548,141.983 141.328,134.393" stroke-width="4.500" stroke="black" fill="none" stroke-linecap="round"></path><path d="M 141.328,134.393 C 140.749,114.404 140.741,114.396 139.730,94.423" stroke-width="4.500" stroke="black" fill="none" stroke-linecap="round"></path><path d="M 139.730,94.423 C 139.143,82.820 139.223,82.803 138.132,71.240" stroke-width="4.500" stroke="black" fill="none" stroke-linecap="round"></path><path d="M 138.132,71.240 C 137.225,61.619 136.457,61.677 135.735,52.055" stroke-width="4.500" stroke="black" fill="none" stroke-linecap="round"></path><path d="M 135.735,52.055 C 135.258,45.689 135.735,45.659 135.735,39.264" stroke-width="4.717" stroke="black" fill="none" stroke-linecap="round"></path><path d="M 135.735,39.264 C 135.735,34.867 133.866,30.641 135.735,30.471" stroke-width="5.506" stroke="black" fill="none" stroke-linecap="round"></path><path d="M 135.735,30.471 C 138.261,30.241 141.777,33.426 144.524,38.465" stroke-width="6.856" stroke="black" fill="none" stroke-linecap="round"></path><path d="M 144.524,38.465 C 148.968,46.616 147.903,47.513 150.117,56.851" stroke-width="4.774" stroke="black" fill="none" stroke-linecap="round"></path><path d="M 150.117,56.851 C 153.496,71.096 153.397,71.162 155.710,85.630" stroke-width="4.500" stroke="black" fill="none" stroke-linecap="round"></path><path d="M 155.710,85.630 C 158.191,101.140 158.052,101.181 159.705,116.806" stroke-width="4.500" stroke="black" fill="none" stroke-linecap="round"></path><path d="M 159.705,116.806 C 161.647,135.156 161.517,135.176 162.901,153.579" stroke-width="4.500" stroke="black" fill="none" stroke-linecap="round"></path><path d="M 162.901,153.579 C 164.313,172.349 164.087,172.366 165.298,191.151" stroke-width="4.500" stroke="black" fill="none" stroke-linecap="round"></path><path d="M 165.298,191.151 C 166.484,209.538 166.707,209.526 167.695,227.923" stroke-width="4.500" stroke="black" fill="none" stroke-linecap="round"></path><path d="M 167.695,227.923 C 168.704,246.698 168.459,246.711 169.293,265.495" stroke-width="4.500" stroke="black" fill="none" stroke-linecap="round"></path><path d="M 169.293,265.495 C 170.057,282.684 169.845,282.698 170.891,299.870" stroke-width="4.500" stroke="black" fill="none" stroke-linecap="round"></path><path d="M 170.891,299.870 C 171.842,315.473 172.008,315.465 173.288,331.046" stroke-width="4.500" stroke="black" fill="none" stroke-linecap="round"></path><path d="M 173.288,331.046 C 174.405,344.643 174.180,344.671 175.685,358.226" stroke-width="4.500" stroke="black" fill="none" stroke-linecap="round"></path><path d="M 175.685,358.226 C 176.977,369.852 177.515,369.791 178.881,381.409" stroke-width="4.500" stroke="black" fill="none" stroke-linecap="round"></path><path d="M 178.881,381.409 C 179.912,390.176 179.352,390.253 180.479,398.996" stroke-width="4.500" stroke="black" fill="none" stroke-linecap="round"></path><path d="M 180.479,398.996 C 180.950,402.644 181.650,402.552 182.077,406.190" stroke-width="5.437" stroke="black" fill="none" stroke-linecap="round"></path><path d="M 202.851,123.202 C 203.251,131.196 203.317,131.193 203.650,139.190" stroke-width="7.521" stroke="black" fill="none" stroke-linecap="round"></path><path d="M 203.650,139.190 C 204.116,150.378 204.094,150.380 204.449,161.573" stroke-width="4.543" stroke="black" fill="none" stroke-linecap="round"></path><path d="M 204.449,161.573 C 204.893,175.561 204.865,175.562 205.248,189.552" stroke-width="4.500" stroke="black" fill="none" stroke-linecap="round"></path><path d="M 205.248,189.552 C 205.664,204.740 205.855,204.738 206.047,219.929" stroke-width="4.500" stroke="black" fill="none" stroke-linecap="round"></path><path d="M 206.047,219.929 C 206.255,236.314 206.047,236.317 206.047,252.705" stroke-width="4.500" stroke="black" fill="none" stroke-linecap="round"></path><path d="M 206.047,252.705 C 206.047,268.693 206.047,268.693 206.047,284.681" stroke-width="4.500" stroke="black" fill="none" stroke-linecap="round"></path><path d="M 206.047,284.681 C 206.047,291.876 206.047,291.876 206.047,299.070" stroke-width="4.500" stroke="black" fill="none" stroke-linecap="round"></path><path d="M 206.047,299.070 C 206.047,312.660 205.825,312.664 206.047,326.250" stroke-width="4.500" stroke="black" fill="none" stroke-linecap="round"></path><path d="M 206.047,326.250 C 206.224,337.046 205.951,337.086 206.846,347.834" stroke-width="4.500" stroke="black" fill="none" stroke-linecap="round"></path><path d="M 206.846,347.834 C 207.549,356.272 208.224,356.207 209.243,364.621" stroke-width="4.500" stroke="black" fill="none" stroke-linecap="round"></path><path d="M 209.243,364.621 C 209.822,369.397 210.304,372.642 210.042,374.214" stroke-width="5.201" stroke="black" fill="none" stroke-linecap="round"></path><path d="M 210.042,374.214 C 209.905,375.040 208.872,371.901 208.444,369.418" stroke-width="6.992" stroke="black" fill="none" stroke-linecap="round"></path><path d="M 208.444,369.418 C 206.875,360.310 206.695,360.268 206.047,351.031" stroke-width="4.866" stroke="black" fill="none" stroke-linecap="round"></path><path d="M 206.047,351.031 C 205.097,337.485 205.799,337.436 205.248,323.852" stroke-width="4.500" stroke="black" fill="none" stroke-linecap="round"></path><path d="M 205.248,323.852 C 204.600,307.858 204.449,307.864 203.650,291.876" stroke-width="4.500" stroke="black" fill="none" stroke-linecap="round"></path><path d="M 203.650,291.876 C 202.851,275.888 203.396,275.842 202.052,259.899" stroke-width="4.500" stroke="black" fill="none" stroke-linecap="round"></path><path d="M 202.052,259.899 C 200.600,242.667 200.329,242.676 198.057,225.525" stroke-width="4.500" stroke="black" fill="none" stroke-linecap="round"></path><path d="M 198.057,225.525 C 195.935,209.501 195.690,209.533 193.263,193.549" stroke-width="4.500" stroke="black" fill="none" stroke-linecap="round"></path><path d="M 193.263,193.549 C 190.896,177.956 190.960,177.946 188.469,162.372" stroke-width="4.500" stroke="black" fill="none" stroke-linecap="round"></path><path d="M 188.469,162.372 C 186.166,147.968 185.796,148.023 183.675,133.594" stroke-width="4.500" stroke="black" fill="none" stroke-linecap="round"></path><path d="M 183.675,133.594 C 181.801,120.844 181.782,120.833 180.479,108.013" stroke-width="4.500" stroke="black" fill="none" stroke-linecap="round"></path><path d="M 180.479,108.013 C 179.385,97.250 179.529,97.230 178.881,86.429" stroke-width="4.500" stroke="black" fill="none" stroke-linecap="round"></path><path d="M 178.881,86.429 C 178.331,77.245 178.082,77.232 178.082,68.043" stroke-width="4.500" stroke="black" fill="none" stroke-linecap="round"></path><path d="M 178.082,68.043 C 178.082,61.644 178.350,61.635 178.881,55.252" stroke-width="4.712" stroke="black" fill="none" stroke-linecap="round"></path><path d="M 178.881,55.252 C 179.149,52.042 177.694,49.685 179.680,48.857" stroke-width="5.907" stroke="black" fill="none" stroke-linecap="round"></path><path d="M 179.680,48.857 C 182.488,47.686 185.134,48.498 188.469,51.255" stroke-width="7.006" stroke="black" fill="none" stroke-linecap="round"></path><path d="M 188.469,51.255 C 194.322,56.093 193.630,57.401 198.057,64.046" stroke-width="5.162" stroke="black" fill="none" stroke-linecap="round"></path><path d="M 198.057,64.046 C 204.816,74.189 204.892,74.188 210.841,84.830" stroke-width="4.500" stroke="black" fill="none" stroke-linecap="round"></path><path d="M 210.841,84.830 C 218.076,97.771 217.947,97.867 224.425,111.210" stroke-width="4.500" stroke="black" fill="none" stroke-linecap="round"></path><path d="M 224.425,111.210 C 231.530,125.847 231.203,126.005 238.008,140.788" stroke-width="4.500" stroke="black" fill="none" stroke-linecap="round"></path><path d="M 238.008,140.788 C 245.186,156.383 244.876,156.534 252.390,171.965" stroke-width="4.500" stroke="black" fill="none" stroke-linecap="round"></path><path d="M 252.390,171.965 C 260.057,187.711 260.131,187.686 268.370,203.142" stroke-width="4.500" stroke="black" fill="none" stroke-linecap="round"></path><path d="M 268.370,203.142 C 276.111,217.664 275.860,217.833 284.350,231.920" stroke-width="4.500" stroke="black" fill="none" stroke-linecap="round"></path><path d="M 284.350,231.920 C 292.240,245.013 292.406,244.943 301.129,257.501" stroke-width="4.500" stroke="black" fill="none" stroke-linecap="round"></path><path d="M 301.129,257.501 C 308.786,268.525 308.987,268.393 317.109,279.085" stroke-width="4.500" stroke="black" fill="none" stroke-linecap="round"></path><path d="M 317.109,279.085 C 324.168,288.378 324.202,288.356 331.491,297.471" stroke-width="4.500" stroke="black" fill="none" stroke-linecap="round"></path><path d="M 331.491,297.471 C 336.986,304.344 337.092,304.259 342.677,311.061" stroke-width="4.500" stroke="black" fill="none" stroke-linecap="round"></path><path d="M 342.677,311.061 C 346.281,315.451 346.258,315.470 349.868,319.855" stroke-width="4.944" stroke="black" fill="none" stroke-linecap="round"></path><path d="M 154.911,291.876 C 150.517,291.476 150.502,291.611 146.122,291.076" stroke-width="7.217" stroke="black" fill="none" stroke-linecap="round"></path><path d="M 146.122,291.076 C 134.122,289.612 134.108,289.673 122.152,287.879" stroke-width="4.500" stroke="black" fill="none" stroke-linecap="round"></path><path d="M 122.152,287.879 C 110.138,286.076 110.135,286.056 98.182,283.882" stroke-width="4.500" stroke="black" fill="none" stroke-linecap="round"></path><path d="M 98.182,283.882 C 88.163,282.059 87.952,282.701 78.207,279.885" stroke-width="4.500" stroke="black" fill="none" stroke-linecap="round"></path><path d="M 78.207,279.885 C 69.974,277.505 70.161,276.818 62.227,273.489" stroke-width="4.500" stroke="black" fill="none" stroke-linecap="round"></path><path d="M 62.227,273.489 C 57.777,271.622 57.616,271.844 53.438,269.492" stroke-width="5.228" stroke="black" fill="none" stroke-linecap="round"></path><path d="M 53.438,269.492 C 51.224,268.246 48.315,267.800 49.443,266.295" stroke-width="6.306" stroke="black" fill="none" stroke-linecap="round"></path><path d="M 49.443,266.295 C 53.109,261.404 55.953,261.057 63.026,256.702" stroke-width="6.120" stroke="black" fill="none" stroke-linecap="round"></path><path d="M 63.026,256.702 C 76.727,248.266 76.897,248.507 90.991,240.714" stroke-width="4.500" stroke="black" fill="none" stroke-linecap="round"></path><path d="M 90.991,240.714 C 107.259,231.719 107.416,232.004 123.750,223.127" stroke-width="4.500" stroke="black" fill="none" stroke-linecap="round"></path><path d="M 123.750,223.127 C 139.776,214.417 139.700,214.277 155.710,205.540" stroke-width="4.500" stroke="black" fill="none" stroke-linecap="round"></path><path d="M 155.710,205.540 C 170.461,197.490 170.689,197.890 185.273,189.552" stroke-width="4.500" stroke="black" fill="none" stroke-linecap="round"></path><path d="M 185.273,189.552 C 198.654,181.902 198.793,182.064 211.640,173.564" stroke-width="4.500" stroke="black" fill="none" stroke-linecap="round"></path><path d="M 211.640,173.564 C 223.562,165.676 223.722,165.778 234.811,156.776" stroke-width="4.500" stroke="black" fill="none" stroke-linecap="round"></path><path d="M 234.811,156.776 C 244.896,148.591 245.268,148.764 253.988,139.190" stroke-width="4.500" stroke="black" fill="none" stroke-linecap="round"></path><path d="M 253.988,139.190 C 261.648,130.778 262.365,130.820 267.571,120.803" stroke-width="4.500" stroke="black" fill="none" stroke-linecap="round"></path><path d="M 267.571,120.803 C 272.752,110.835 271.962,110.209 274.762,99.219" stroke-width="4.500" stroke="black" fill="none" stroke-linecap="round"></path><path d="M 274.762,99.219 C 277.155,89.824 277.757,89.655 277.958,80.034" stroke-width="4.500" stroke="black" fill="none" stroke-linecap="round"></path><path d="M 277.958,80.034 C 278.157,70.469 277.190,70.356 275.561,60.848" stroke-width="4.500" stroke="black" fill="none" stroke-linecap="round"></path><path d="M 275.561,60.848 C 274.793,56.366 274.348,56.455 273.164,52.055" stroke-width="5.223" stroke="black" fill="none" stroke-linecap="round"></path><path d="M 273.164,52.055 C 271.551,46.063 271.671,46.029 269.968,40.064" stroke-width="5.209" stroke="black" fill="none" stroke-linecap="round"></path><path d="M 269.968,40.064 C 268.475,34.837 268.419,34.852 266.772,29.671" stroke-width="5.402" stroke="black" fill="none" stroke-linecap="round"></path><path d="M 266.772,29.671 C 265.622,26.058 263.415,22.157 264.375,22.477" stroke-width="5.952" stroke="black" fill="none" stroke-linecap="round"></path><path d="M 264.375,22.477 C 265.812,22.956 268.850,26.330 271.566,31.270" stroke-width="7.084" stroke="black" fill="none" stroke-linecap="round"></path><path d="M 271.566,31.270 C 277.639,42.318 277.271,42.655 281.953,54.453" stroke-width="4.500" stroke="black" fill="none" stroke-linecap="round"></path><path d="M 281.953,54.453 C 288.057,69.835 287.512,70.053 293.139,85.630" stroke-width="4.500" stroke="black" fill="none" stroke-linecap="round"></path><path d="M 293.139,85.630 C 299.497,103.229 300.067,103.039 305.923,120.803" stroke-width="4.500" stroke="black" fill="none" stroke-linecap="round"></path><path d="M 305.923,120.803 C 312.452,140.611 312.422,140.650 317.908,160.773" stroke-width="4.500" stroke="black" fill="none" stroke-linecap="round"></path><path d="M 317.908,160.773 C 323.209,180.221 322.949,180.302 327.496,199.944" stroke-width="4.500" stroke="black" fill="none" stroke-linecap="round"></path><path d="M 327.496,199.944 C 331.738,218.273 331.429,218.344 335.486,236.717" stroke-width="4.500" stroke="black" fill="none" stroke-linecap="round"></path><path d="M 335.486,236.717 C 339.019,252.719 339.215,252.676 342.677,268.693" stroke-width="4.500" stroke="black" fill="none" stroke-linecap="round"></path><path d="M 342.677,268.693 C 345.607,282.254 345.686,282.243 348.270,295.873" stroke-width="4.500" stroke="black" fill="none" stroke-linecap="round"></path><path d="M 348.270,295.873 C 350.081,305.426 350.059,305.438 351.466,315.058" stroke-width="4.500" stroke="black" fill="none" stroke-linecap="round"></path><path d="M 351.466,315.058 C 352.456,321.826 352.497,321.840 353.064,328.648" stroke-width="4.588" stroke="black" fill="none" stroke-linecap="round"></path><path d="M 353.064,328.648 C 353.296,331.432 354.319,333.885 353.064,334.244" stroke-width="5.926" stroke="black" fill="none" stroke-linecap="round"></path><path d="M 353.064,334.244 C 351.522,334.685 349.761,332.768 347.471,330.247" stroke-width="6.938" stroke="black" fill="none" stroke-linecap="round"></path><path d="M 347.471,330.247 C 341.771,323.974 341.821,323.766 337.084,316.657" stroke-width="5.018" stroke="black" fill="none" stroke-linecap="round"></path><path d="M 337.084,316.657 C 328.238,303.381 328.221,303.338 320.305,289.477" stroke-width="4.500" stroke="black" fill="none" stroke-linecap="round"></path><path d="M 320.305,289.477 C 312.241,275.359 312.615,275.140 305.124,260.699" stroke-width="4.500" stroke="black" fill="none" stroke-linecap="round"></path><path d="M 305.124,260.699 C 296.235,243.563 295.926,243.708 287.546,226.324" stroke-width="4.500" stroke="black" fill="none" stroke-linecap="round"></path><path d="M 287.546,226.324 C 279.547,209.734 279.788,209.611 272.365,192.750" stroke-width="4.500" stroke="black" fill="none" stroke-linecap="round"></path><path d="M 272.365,192.750 C 265.006,176.036 264.863,176.089 257.983,159.175" stroke-width="4.500" stroke="black" fill="none" stroke-linecap="round"></path><path d="M 257.983,159.175 C 250.880,141.714 250.538,141.812 244.400,124.001" stroke-width="4.500" stroke="black" fill="none" stroke-linecap="round"></path><path d="M 244.400,124.001 C 238.553,107.038 238.161,107.060 234.013,89.627" stroke-width="4.500" stroke="black" fill="none" stroke-linecap="round"></path><path d="M 234.013,89.627 C 230.171,73.485 230.321,73.339 228.419,56.851" stroke-width="4.500" stroke="black" fill="none" stroke-linecap="round"></path><path d="M 228.419,56.851 C 226.725,42.162 226.173,41.985 226.822,27.273" stroke-width="4.500" stroke="black" fill="none" stroke-linecap="round"></path><path d="M 226.822,27.273 C 227.371,14.806 227.641,14.565 230.816,2.492" stroke-width="4.500" stroke="black" fill="none" stroke-linecap="round"></path><path d="M 230.816,2.492 C 233.633,-8.218 233.016,-9.067 238.806,-18.293" stroke-width="4.500" stroke="black" fill="none" stroke-linecap="round"></path><path d="M 238.806,-18.293 C 243.803,-26.254 244.619,-26.500 252.390,-31.883" stroke-width="4.500" stroke="black" fill="none" stroke-linecap="round"></path><path d="M 252.390,-31.883 C 260.199,-37.292 260.783,-37.280 269.968,-39.877" stroke-width="4.500" stroke="black" fill="none" stroke-linecap="round"></path><path d="M 269.968,-39.877 C 279.160,-42.476 279.575,-42.009 289.144,-42.275" stroke-width="4.500" stroke="black" fill="none" stroke-linecap="round"></path><path d="M 289.144,-42.275 C 293.957,-42.409 294.117,-42.134 298.732,-40.676" stroke-width="5.128" stroke="black" fill="none" stroke-linecap="round"></path><path d="M 298.732,-40.676 C 309.298,-37.338 309.642,-37.713 319.506,-32.682" stroke-width="4.500" stroke="black" fill="none" stroke-linecap="round"></path><path d="M 319.506,-32.682 C 330.016,-27.321 330.601,-27.565 339.481,-19.892" stroke-width="4.500" stroke="black" fill="none" stroke-linecap="round"></path><path d="M 339.481,-19.892 C 348.179,-12.376 348.270,-11.897 354.662,-2.305" stroke-width="4.500" stroke="black" fill="none" stroke-linecap="round"></path><path d="M 354.662,-2.305 C 361.054,7.289 361.546,7.555 365.049,18.480" stroke-width="4.500" stroke="black" fill="none" stroke-linecap="round"></path><path d="M 365.049,18.480 C 368.338,28.739 368.020,29.268 368.245,40.064" stroke-width="4.500" stroke="black" fill="none" stroke-linecap="round"></path><path d="M 368.245,40.064 C 368.419,48.454 368.545,48.914 365.848,56.851" stroke-width="4.500" stroke="black" fill="none" stroke-linecap="round"></path><path d="M 365.848,56.851 C 361.753,68.899 361.732,69.422 354.662,80.034" stroke-width="4.500" stroke="black" fill="none" stroke-linecap="round"></path><path d="M 354.662,80.034 C 347.350,91.006 347.154,91.555 337.084,100.019" stroke-width="4.500" stroke="black" fill="none" stroke-linecap="round"></path><path d="M 337.084,100.019 C 327.179,108.343 326.264,107.567 314.712,113.609" stroke-width="4.500" stroke="black" fill="none" stroke-linecap="round"></path><path d="M 314.712,113.609 C 308.686,116.760 308.524,116.702 301.928,118.405" stroke-width="4.585" stroke="black" fill="none" stroke-linecap="round"></path><path d="M 301.928,118.405 C 283.755,123.097 283.601,124.796 265.174,126.399" stroke-width="4.500" stroke="black" fill="none" stroke-linecap="round"></path><path d="M 265.174,126.399 C 256.035,127.194 255.112,126.668 246.797,123.202" stroke-width="4.500" stroke="black" fill="none" stroke-linecap="round"></path><path d="M 246.797,123.202 C 240.730,120.672 240.304,119.740 236.410,114.408" stroke-width="4.553" stroke="black" fill="none" stroke-linecap="round"></path><path d="M 236.410,114.408 C 232.714,109.348 233.112,108.619 231.615,102.417" stroke-width="4.844" stroke="black" fill="none" stroke-linecap="round"></path><path d="M 231.615,102.417 C 230.315,97.028 229.070,96.079 230.816,91.225" stroke-width="5.234" stroke="black" fill="none" stroke-linecap="round"></path><path d="M 230.816,91.225 C 232.666,86.086 233.892,85.417 238.806,82.432" stroke-width="6.131" stroke="black" fill="none" stroke-linecap="round"></path><path d="M 238.806,82.432 C 245.078,78.622 245.788,78.900 253.189,77.635" stroke-width="4.990" stroke="black" fill="none" stroke-linecap="round"></path><path d="M 253.189,77.635 C 262.168,76.102 262.416,76.327 271.566,76.836" stroke-width="4.503" stroke="black" fill="none" stroke-linecap="round"></path><path d="M 271.566,76.836 C 283.989,77.527 284.295,76.980 296.335,80.034" stroke-width="4.500" stroke="black" fill="none" stroke-linecap="round"></path><path d="M 296.335,80.034 C 312.659,84.174 313.272,83.710 328.295,91.225" stroke-width="4.500" stroke="black" fill="none" stroke-linecap="round"></path><path d="M 328.295,91.225 C 343.634,98.899 343.506,99.757 357.059,110.411" stroke-width="4.500" stroke="black" fill="none" stroke-linecap="round"></path><path d="M 357.059,110.411 C 371.472,121.741 371.445,122.019 384.225,135.193" stroke-width="4.500" stroke="black" fill="none" stroke-linecap="round"></path><path d="M 384.225,135.193 C 397.812,149.199 397.344,149.704 409.793,164.770" stroke-width="4.500" stroke="black" fill="none" stroke-linecap="round"></path><path d="M 409.793,164.770 C 422.113,179.682 421.752,179.979 433.763,195.148" stroke-width="4.500" stroke="black" fill="none" stroke-linecap="round"></path><path d="M 433.763,195.148 C 446.122,210.756 445.930,210.914 458.532,226.324" stroke-width="4.500" stroke="black" fill="none" stroke-linecap="round"></path><path d="M 458.532,226.324 C 471.098,241.691 470.798,241.982 484.100,256.702" stroke-width="4.500" stroke="black" fill="none" stroke-linecap="round"></path><path d="M 484.100,256.702 C 497.165,271.160 497.802,270.578 511.266,284.681" stroke-width="4.500" stroke="black" fill="none" stroke-linecap="round"></path><path d="M 511.266,284.681 C 523.370,297.358 523.251,297.471 535.236,310.262" stroke-width="4.500" stroke="black" fill="none" stroke-linecap="round"></path></svg>