<svg xmlns="http://www.w3.org/2000/svg" xmlns:xlink="http://www.w3.org/1999/xlink" viewBox="0 0 576 416" width="576" height="416"><path d="M 377.833,170.366 C 381.428,167.568 381.353,167.464 385.024,164.770" stroke-width="8.779" stroke="black" fill="none" stroke-linecap="round"></path><path d="M 385.024,164.770 C 387.345,163.067 387.349,163.055 389.818,161.573" stroke-width="7.230" stroke="black" fill="none" stroke-linecap="round"></path><path d="M 389.818,161.573 C 393.342,159.457 393.380,159.512 397.009,157.576" stroke-width="7.241" stroke="black" fill="none" stroke-linecap="round"></path><path d="M 397.009,157.576 C 399.373,156.314 403.073,154.451 401.803,155.178" stroke-width="7.606" stroke="black" fill="none" stroke-linecap="round"></path><path d="M 401.803,155.178 C 397.480,157.649 394.060,160.073 385.823,163.971" stroke-width="7.445" stroke="black" fill="none" stroke-linecap="round"></path><path d="M 385.823,163.971 C 364.497,174.063 364.340,173.772 342.677,183.157" stroke-width="4.500" stroke="black" fill="none" stroke-linecap="round"></path><path d="M 342.677,183.157 C 325.588,190.560 325.491,190.335 308.320,197.546" stroke-width="4.500" stroke="black" fill="none" stroke-linecap="round"></path><path d="M 308.320,197.546 C 293.132,203.924 293.143,203.951 277.958,210.336" stroke-width="4.500" stroke="black" fill="none" stroke-linecap="round"></path><path d="M 277.958,210.336 C 265.577,215.542 265.495,215.356 253.189,220.729" stroke-width="4.500" stroke="black" fill="none" stroke-linecap="round"></path><path d="M 253.189,220.729 C 243.523,224.949 243.678,225.307 234.013,229.522" stroke-width="4.500" stroke="black" fill="none" stroke-linecap="round"></path><path d="M 234.013,229.522 C 228.098,232.102 227.984,231.835 222.027,234.319" stroke-width="4.583" stroke="black" fill="none" stroke-linecap="round"></path><path d="M 222.027,234.319 C 218.396,235.832 218.396,235.840 214.836,237.516" stroke-width="5.579" stroke="black" fill="none" stroke-linecap="round"></path><path d="M 332.290,183.157 C 338.682,181.158 338.722,181.278 345.074,179.160" stroke-width="8.256" stroke="black" fill="none" stroke-linecap="round"></path><path d="M 345.074,179.160 C 351.905,176.881 351.960,177.003 358.657,174.363" stroke-width="5.555" stroke="black" fill="none" stroke-linecap="round"></path><path d="M 358.657,174.363 C 365.144,171.806 365.083,171.640 371.441,168.767" stroke-width="5.112" stroke="black" fill="none" stroke-linecap="round"></path><path d="M 371.441,168.767 C 377.467,166.044 377.465,166.034 383.426,163.172" stroke-width="5.077" stroke="black" fill="none" stroke-linecap="round"></path><path d="M 383.426,163.172 C 387.452,161.238 387.470,161.265 391.416,159.175" stroke-width="5.626" stroke="black" fill="none" stroke-linecap="round"></path><path d="M 391.416,159.175 C 394.261,157.667 394.689,158.087 397.009,155.977" stroke-width="6.292" stroke="black" fill="none" stroke-linecap="round"></path><path d="M 397.009,155.977 C 399.084,154.090 402.063,150.609 400.205,151.181" stroke-width="7.429" stroke="black" fill="none" stroke-linecap="round"></path><path d="M 400.205,151.181 C 391.676,153.806 388.058,156.457 376.235,162.372" stroke-width="6.340" stroke="black" fill="none" stroke-linecap="round"></path><path d="M 376.235,162.372 C 367.284,166.850 367.572,167.414 358.657,171.965" stroke-width="4.614" stroke="black" fill="none" stroke-linecap="round"></path><path d="M 358.657,171.965 C 347.996,177.407 347.790,177.001 337.084,182.357" stroke-width="4.500" stroke="black" fill="none" stroke-linecap="round"></path><path d="M 337.084,182.357 C 326.217,187.793 326.377,188.113 315.511,193.549" stroke-width="4.500" stroke="black" fill="none" stroke-linecap="round"></path><path d="M 315.511,193.549 C 305.603,198.505 305.530,198.360 295.536,203.142" stroke-width="4.500" stroke="black" fill="none" stroke-linecap="round"></path><path d="M 295.536,203.142 C 287.153,207.153 287.199,207.255 278.757,211.136" stroke-width="4.500" stroke="black" fill="none" stroke-linecap="round"></path><path d="M 278.757,211.136 C 272.418,214.050 272.348,213.897 265.973,216.732" stroke-width="4.710" stroke="black" fill="none" stroke-linecap="round"></path><path d="M 265.973,216.732 C 261.562,218.693 261.578,218.730 257.184,220.729" stroke-width="5.308" stroke="black" fill="none" stroke-linecap="round"></path><path d="M 319.506,129.597 C 323.501,134.393 323.965,134.067 327.496,139.190" stroke-width="8.332" stroke="black" fill="none" stroke-linecap="round"></path><path d="M 327.496,139.190 C 331.955,145.658 331.895,145.774 335.486,152.779" stroke-width="5.379" stroke="black" fill="none" stroke-linecap="round"></path><path d="M 335.486,152.779 C 339.885,161.363 339.627,161.509 343.476,170.366" stroke-width="4.506" stroke="black" fill="none" stroke-linecap="round"></path><path d="M 343.476,170.366 C 347.617,179.896 347.374,180.001 351.466,189.552" stroke-width="4.500" stroke="black" fill="none" stroke-linecap="round"></path><path d="M 351.466,189.552 C 353.367,193.991 353.542,193.914 355.461,198.345" stroke-width="5.160" stroke="black" fill="none" stroke-linecap="round"></path><path d="M 355.461,198.345 C 358.735,205.905 358.795,205.886 361.853,213.534" stroke-width="4.629" stroke="black" fill="none" stroke-linecap="round"></path><path d="M 361.853,213.534 C 363.589,217.877 365.899,224.347 365.049,222.328" stroke-width="5.317" stroke="black" fill="none" stroke-linecap="round"></path><path d="M 293.938,132.794 C 299.131,141.188 299.560,140.956 304.325,149.582" stroke-width="7.996" stroke="black" fill="none" stroke-linecap="round"></path><path d="M 304.325,149.582 C 307.949,156.144 307.934,156.211 310.717,163.172" stroke-width="5.435" stroke="black" fill="none" stroke-linecap="round"></path><path d="M 310.717,163.172 C 313.527,170.201 313.296,170.311 315.511,177.561" stroke-width="4.941" stroke="black" fill="none" stroke-linecap="round"></path><path d="M 315.511,177.561 C 317.691,184.700 317.485,184.762 319.506,191.950" stroke-width="4.835" stroke="black" fill="none" stroke-linecap="round"></path><path d="M 319.506,191.950 C 321.080,197.553 321.442,197.472 322.702,203.142" stroke-width="5.260" stroke="black" fill="none" stroke-linecap="round"></path><path d="M 322.702,203.142 C 323.839,208.264 323.913,208.306 324.300,213.534" stroke-width="5.548" stroke="black" fill="none" stroke-linecap="round"></path><path d="M 324.300,213.534 C 324.712,219.098 324.986,219.231 324.300,224.726" stroke-width="6.287" stroke="black" fill="none" stroke-linecap="round"></path><path d="M 324.300,224.726 C 323.788,228.823 324.445,231.993 321.903,232.720" stroke-width="6.889" stroke="black" fill="none" stroke-linecap="round"></path><path d="M 321.903,232.720 C 318.852,233.592 316.890,231.035 313.114,227.923" stroke-width="7.337" stroke="black" fill="none" stroke-linecap="round"></path><path d="M 313.114,227.923 C 310.099,225.439 310.574,224.824 308.320,221.528" stroke-width="6.442" stroke="black" fill="none" stroke-linecap="round"></path><path d="M 308.320,221.528 C 305.380,217.230 305.434,217.185 302.727,212.735" stroke-width="5.813" stroke="black" fill="none" stroke-linecap="round"></path><path d="M 302.727,212.735 C 299.841,207.992 300.019,207.884 297.134,203.142" stroke-width="5.550" stroke="black" fill="none" stroke-linecap="round"></path><path d="M 297.134,203.142 C 294.426,198.691 294.282,198.779 291.541,194.348" stroke-width="5.571" stroke="black" fill="none" stroke-linecap="round"></path><path d="M 291.541,194.348 C 289.089,190.385 289.176,190.332 286.747,186.354" stroke-width="5.817" stroke="black" fill="none" stroke-linecap="round"></path><path d="M 286.747,186.354 C 284.781,183.137 284.789,183.131 282.752,179.959" stroke-width="6.024" stroke="black" fill="none" stroke-linecap="round"></path><path d="M 282.752,179.959 C 281.194,177.535 281.154,177.561 279.556,175.163" stroke-width="6.496" stroke="black" fill="none" stroke-linecap="round"></path><path d="M 279.556,175.163 C 277.958,172.764 275.614,171.858 276.360,170.366" stroke-width="7.291" stroke="black" fill="none" stroke-linecap="round"></path><path d="M 276.360,170.366 C 277.212,168.661 279.956,168.122 282.752,168.767" stroke-width="8.068" stroke="black" fill="none" stroke-linecap="round"></path><path d="M 282.752,168.767 C 285.149,169.321 286.362,170.455 286.747,172.764" stroke-width="8.236" stroke="black" fill="none" stroke-linecap="round"></path><path d="M 286.747,172.764 C 287.161,175.252 286.197,176.102 284.350,178.360" stroke-width="8.353" stroke="black" fill="none" stroke-linecap="round"></path><path d="M 284.350,178.360 C 282.601,180.498 281.418,179.487 279.556,181.558" stroke-width="8.468" stroke="black" fill="none" stroke-linecap="round"></path><path d="M 279.556,181.558 C 277.823,183.484 278.357,183.956 277.159,186.354" stroke-width="7.947" stroke="black" fill="none" stroke-linecap="round"></path><path d="M 277.159,186.354 C 275.960,188.753 276.707,189.788 274.762,191.151" stroke-width="7.825" stroke="black" fill="none" stroke-linecap="round"></path><path d="M 274.762,191.151 C 272.712,192.586 271.740,190.961 269.169,191.950" stroke-width="8.158" stroke="black" fill="none" stroke-linecap="round"></path><path d="M 249.194,132.794 C 249.993,137.990 250.317,137.966 250.792,143.187" stroke-width="8.562" stroke="black" fill="none" stroke-linecap="round"></path><path d="M 250.792,143.187 C 251.116,146.759 251.959,147.345 250.792,150.381" stroke-width="7.736" stroke="black" fill="none" stroke-linecap="round"></path><path d="M 250.792,150.381 C 249.961,152.541 248.919,153.579 246.797,153.579" stroke-width="8.041" stroke="black" fill="none" stroke-linecap="round"></path><path d="M 246.797,153.579 C 244.125,153.579 244.038,151.908 241.203,150.381" stroke-width="8.159" stroke="black" fill="none" stroke-linecap="round"></path><path d="M 241.203,150.381 C 238.845,149.111 237.503,147.072 236.410,147.983" stroke-width="8.432" stroke="black" fill="none" stroke-linecap="round"></path><path d="M 236.410,147.983 C 235.106,149.070 236.058,151.215 236.410,154.378" stroke-width="8.287" stroke="black" fill="none" stroke-linecap="round"></path><path d="M 236.410,154.378 C 236.857,158.410 236.938,158.447 238.008,162.372" stroke-width="6.610" stroke="black" fill="none" stroke-linecap="round"></path><path d="M 238.008,162.372 C 239.335,167.241 239.657,167.152 241.203,171.965" stroke-width="5.902" stroke="black" fill="none" stroke-linecap="round"></path><path d="M 241.203,171.965 C 243.253,178.344 242.750,178.536 245.199,184.756" stroke-width="5.362" stroke="black" fill="none" stroke-linecap="round"></path><path d="M 245.199,184.756 C 247.943,191.726 248.385,191.555 251.591,198.345" stroke-width="4.940" stroke="black" fill="none" stroke-linecap="round"></path><path d="M 251.591,198.345 C 255.177,205.944 255.275,205.899 258.782,213.534" stroke-width="4.541" stroke="black" fill="none" stroke-linecap="round"></path><path d="M 258.782,213.534 C 262.067,220.688 261.743,220.843 265.174,227.923" stroke-width="4.632" stroke="black" fill="none" stroke-linecap="round"></path><path d="M 265.174,227.923 C 268.135,234.033 268.616,233.801 271.566,239.914" stroke-width="4.885" stroke="black" fill="none" stroke-linecap="round"></path><path d="M 271.566,239.914 C 274.209,245.392 274.064,245.469 276.360,251.106" stroke-width="5.131" stroke="black" fill="none" stroke-linecap="round"></path><path d="M 276.360,251.106 C 278.459,256.261 278.862,256.165 280.355,261.498" stroke-width="5.424" stroke="black" fill="none" stroke-linecap="round"></path><path d="M 280.355,261.498 C 281.658,266.157 281.953,266.290 281.953,271.091" stroke-width="5.631" stroke="black" fill="none" stroke-linecap="round"></path><path d="M 281.953,271.091 C 281.953,276.282 283.071,281.144 280.355,281.483" stroke-width="6.799" stroke="black" fill="none" stroke-linecap="round"></path><path d="M 280.355,281.483 C 276.679,281.943 274.465,277.421 269.169,272.690" stroke-width="6.474" stroke="black" fill="none" stroke-linecap="round"></path><path d="M 269.169,272.690 C 263.279,267.428 263.576,267.094 257.983,261.498" stroke-width="4.974" stroke="black" fill="none" stroke-linecap="round"></path><path d="M 257.983,261.498 C 251.591,255.103 251.690,255.000 245.199,248.708" stroke-width="4.528" stroke="black" fill="none" stroke-linecap="round"></path><path d="M 245.199,248.708 C 238.906,242.609 239.180,242.255 232.415,236.717" stroke-width="4.500" stroke="black" fill="none" stroke-linecap="round"></path><path d="M 232.415,236.717 C 225.996,231.463 225.836,231.584 218.832,227.124" stroke-width="4.522" stroke="black" fill="none" stroke-linecap="round"></path><path d="M 218.832,227.124 C 212.652,223.190 212.842,222.401 206.047,219.929" stroke-width="4.734" stroke="black" fill="none" stroke-linecap="round"></path><path d="M 206.047,219.929 C 199.659,217.605 199.300,218.360 192.464,217.531" stroke-width="4.981" stroke="black" fill="none" stroke-linecap="round"></path><path d="M 192.464,217.531 C 186.117,216.761 186.004,216.295 179.680,216.732" stroke-width="5.086" stroke="black" fill="none" stroke-linecap="round"></path><path d="M 179.680,216.732 C 174.418,217.095 174.491,217.948 169.293,219.130" stroke-width="5.303" stroke="black" fill="none" stroke-linecap="round"></path><path d="M 169.293,219.130 C 165.702,219.947 165.571,219.572 162.102,220.729" stroke-width="5.950" stroke="black" fill="none" stroke-linecap="round"></path><path d="M 162.102,220.729 C 159.578,221.570 156.399,223.387 157.308,223.127" stroke-width="7.120" stroke="black" fill="none" stroke-linecap="round"></path><path d="M 157.308,223.127 C 159.196,222.587 162.604,221.371 167.695,219.130" stroke-width="6.913" stroke="black" fill="none" stroke-linecap="round"></path><path d="M 167.695,219.130 C 182.579,212.578 182.609,212.610 197.258,205.540" stroke-width="4.500" stroke="black" fill="none" stroke-linecap="round"></path><path d="M 197.258,205.540 C 216.566,196.222 216.519,196.113 235.611,186.354" stroke-width="4.500" stroke="black" fill="none" stroke-linecap="round"></path><path d="M 235.611,186.354 C 253.273,177.327 252.987,176.750 270.767,167.968" stroke-width="4.500" stroke="black" fill="none" stroke-linecap="round"></path><path d="M 270.767,167.968 C 284.548,161.161 284.665,161.380 298.732,155.178" stroke-width="4.500" stroke="black" fill="none" stroke-linecap="round"></path><path d="M 298.732,155.178 C 308.235,150.987 308.396,151.347 317.908,147.184" stroke-width="4.500" stroke="black" fill="none" stroke-linecap="round"></path><path d="M 317.908,147.184 C 321.180,145.751 320.886,144.799 324.300,143.986" stroke-width="5.255" stroke="black" fill="none" stroke-linecap="round"></path><path d="M 324.300,143.986 C 329.275,142.801 332.465,141.705 334.687,143.187" stroke-width="5.479" stroke="black" fill="none" stroke-linecap="round"></path><path d="M 334.687,143.187 C 336.061,144.103 334.094,147.046 331.491,148.782" stroke-width="6.790" stroke="black" fill="none" stroke-linecap="round"></path><path d="M 331.491,148.782 C 322.109,155.040 321.315,154.444 310.717,159.175" stroke-width="4.500" stroke="black" fill="none" stroke-linecap="round"></path><path d="M 310.717,159.175 C 295.348,166.035 295.384,166.264 279.556,171.965" stroke-width="4.500" stroke="black" fill="none" stroke-linecap="round"></path><path d="M 279.556,171.965 C 265.421,177.056 265.376,177.221 250.792,180.759" stroke-width="4.500" stroke="black" fill="none" stroke-linecap="round"></path><path d="M 250.792,180.759 C 239.009,183.616 238.873,183.846 226.822,184.756" stroke-width="4.500" stroke="black" fill="none" stroke-linecap="round"></path><path d="M 226.822,184.756 C 217.699,185.444 217.550,184.867 208.444,183.956" stroke-width="4.500" stroke="black" fill="none" stroke-linecap="round"></path><path d="M 208.444,183.956 C 205.565,183.668 205.264,183.882 202.851,182.357" stroke-width="5.546" stroke="black" fill="none" stroke-linecap="round"></path><path d="M 202.851,182.357 C 197.674,179.085 197.244,179.070 193.263,174.363" stroke-width="5.193" stroke="black" fill="none" stroke-linecap="round"></path><path d="M 193.263,174.363 C 188.455,168.678 188.328,168.403 185.273,161.573" stroke-width="5.069" stroke="black" fill="none" stroke-linecap="round"></path><path d="M 185.273,161.573 C 181.536,153.214 182.239,152.848 179.680,143.986" stroke-width="4.517" stroke="black" fill="none" stroke-linecap="round"></path><path d="M 179.680,143.986 C 177.046,134.862 176.786,134.893 174.886,125.600" stroke-width="4.500" stroke="black" fill="none" stroke-linecap="round"></path><path d="M 174.886,125.600 C 173.191,117.306 173.624,117.214 172.489,108.812" stroke-width="4.500" stroke="black" fill="none" stroke-linecap="round"></path><path d="M 172.489,108.812 C 171.627,102.425 171.630,102.424 170.891,96.022" stroke-width="4.898" stroke="black" fill="none" stroke-linecap="round"></path><path d="M 170.891,96.022 C 170.431,92.032 168.866,89.991 170.092,88.028" stroke-width="5.689" stroke="black" fill="none" stroke-linecap="round"></path><path d="M 170.092,88.028 C 170.864,86.793 173.561,87.637 174.886,89.627" stroke-width="7.218" stroke="black" fill="none" stroke-linecap="round"></path><path d="M 174.886,89.627 C 179.953,97.230 178.931,98.398 182.876,107.213" stroke-width="4.814" stroke="black" fill="none" stroke-linecap="round"></path><path d="M 182.876,107.213 C 190.916,125.178 191.179,125.067 198.856,143.187" stroke-width="4.500" stroke="black" fill="none" stroke-linecap="round"></path><path d="M 198.856,143.187 C 206.760,161.840 206.551,161.931 214.037,180.759" stroke-width="4.500" stroke="black" fill="none" stroke-linecap="round"></path><path d="M 214.037,180.759 C 221.332,199.104 221.236,199.142 228.419,217.531" stroke-width="4.500" stroke="black" fill="none" stroke-linecap="round"></path><path d="M 228.419,217.531 C 234.819,233.916 234.962,233.862 241.203,250.307" stroke-width="4.500" stroke="black" fill="none" stroke-linecap="round"></path><path d="M 241.203,250.307 C 246.947,265.438 246.837,265.481 252.390,280.684" stroke-width="4.500" stroke="black" fill="none" stroke-linecap="round"></path><path d="M 252.390,280.684 C 254.428,286.265 254.387,286.280 256.385,291.876" stroke-width="4.500" stroke="black" fill="none" stroke-linecap="round"></path><path d="M 214.037,110.411 C 223.226,108.413 223.196,108.259 232.415,106.414" stroke-width="7.873" stroke="black" fill="none" stroke-linecap="round"></path><path d="M 206.846,307.864 C 210.841,306.665 210.804,306.527 214.836,305.466" stroke-width="8.177" stroke="black" fill="none" stroke-linecap="round"></path><path d="M 214.836,305.466 C 225.985,302.530 226.022,302.668 237.208,299.870" stroke-width="4.546" stroke="black" fill="none" stroke-linecap="round"></path><path d="M 356.260,259.899 C 357.858,255.902 356.416,254.721 359.456,251.905" stroke-width="7.795" stroke="black" fill="none" stroke-linecap="round"></path><path d="M 359.456,251.905 C 367.203,244.729 367.707,243.732 377.833,239.914" stroke-width="4.616" stroke="black" fill="none" stroke-linecap="round"></path><path d="M 377.833,239.914 C 395.272,233.340 396.210,235.518 414.587,231.121" stroke-width="4.500" stroke="black" fill="none" stroke-linecap="round"></path></svg>