<svg xmlns="http://www.w3.org/2000/svg" xmlns:xlink="http://www.w3.org/1999/xlink" viewBox="0 0 576 416" width="576" height="416"><path d="M 102.976,144.536 C 114.961,141.738 114.872,141.284 126.946,138.940" stroke-width="6.727" stroke="black" fill="none" stroke-linecap="round"></path><path d="M 126.946,138.940 C 141.638,136.088 141.769,136.777 156.509,134.144" stroke-width="4.500" stroke="black" fill="none" stroke-linecap="round"></path><path d="M 156.509,134.144 C 175.328,130.782 175.287,130.554 194.062,126.949" stroke-width="4.500" stroke="black" fill="none" stroke-linecap="round"></path><path d="M 194.062,126.949 C 214.838,122.960 214.823,122.879 235.611,118.955" stroke-width="4.500" stroke="black" fill="none" stroke-linecap="round"></path><path d="M 235.611,118.955 C 257.170,114.885 257.057,114.063 278.757,110.961" stroke-width="4.500" stroke="black" fill="none" stroke-linecap="round"></path><path d="M 278.757,110.961 C 299.004,108.067 299.102,108.597 319.506,106.964" stroke-width="4.500" stroke="black" fill="none" stroke-linecap="round"></path><path d="M 319.506,106.964 C 339.052,105.400 339.067,105.418 358.657,104.566" stroke-width="4.500" stroke="black" fill="none" stroke-linecap="round"></path><path d="M 358.657,104.566 C 375.821,103.819 375.833,103.990 393.014,103.766" stroke-width="4.500" stroke="black" fill="none" stroke-linecap="round"></path><path d="M 393.014,103.766 C 406.595,103.590 406.602,103.532 420.180,103.766" stroke-width="4.500" stroke="black" fill="none" stroke-linecap="round"></path><path d="M 420.180,103.766 C 429.773,103.932 429.814,103.748 439.356,104.566" stroke-width="4.500" stroke="black" fill="none" stroke-linecap="round"></path><path d="M 439.356,104.566 C 443.797,104.947 447.707,105.288 448.145,106.165" stroke-width="4.989" stroke="black" fill="none" stroke-linecap="round"></path><path d="M 448.145,106.165 C 448.506,106.887 444.582,107.138 440.954,107.763" stroke-width="6.462" stroke="black" fill="none" stroke-linecap="round"></path><path d="M 440.954,107.763 C 432.996,109.136 432.943,108.833 424.974,110.162" stroke-width="5.154" stroke="black" fill="none" stroke-linecap="round"></path><path d="M 424.974,110.162 C 408.973,112.830 408.960,112.777 393.014,115.758" stroke-width="4.500" stroke="black" fill="none" stroke-linecap="round"></path><path d="M 393.014,115.758 C 372.605,119.572 372.631,119.715 352.265,123.752" stroke-width="4.500" stroke="black" fill="none" stroke-linecap="round"></path><path d="M 352.265,123.752 C 330.284,128.108 330.284,128.109 308.320,132.545" stroke-width="4.500" stroke="black" fill="none" stroke-linecap="round"></path><path d="M 308.320,132.545 C 286.739,136.903 286.879,137.754 265.174,141.338" stroke-width="4.500" stroke="black" fill="none" stroke-linecap="round"></path><path d="M 265.174,141.338 C 245.730,144.549 245.622,143.956 226.022,146.135" stroke-width="4.500" stroke="black" fill="none" stroke-linecap="round"></path><path d="M 226.022,146.135 C 209.667,147.953 209.641,147.717 193.263,149.332" stroke-width="4.500" stroke="black" fill="none" stroke-linecap="round"></path><path d="M 193.263,149.332 C 181.277,150.515 181.302,151.010 169.293,151.731" stroke-width="4.500" stroke="black" fill="none" stroke-linecap="round"></path><path d="M 169.293,151.731 C 161.327,152.209 161.262,152.228 153.313,151.731" stroke-width="4.500" stroke="black" fill="none" stroke-linecap="round"></path><path d="M 153.313,151.731 C 148.478,151.428 146.356,152.764 143.725,150.132" stroke-width="5.164" stroke="black" fill="none" stroke-linecap="round"></path><path d="M 143.725,150.132 C 141.562,147.967 143.182,146.078 143.725,142.138" stroke-width="6.464" stroke="black" fill="none" stroke-linecap="round"></path><path d="M 143.725,142.138 C 144.780,134.487 144.748,134.379 146.921,126.949" stroke-width="5.229" stroke="black" fill="none" stroke-linecap="round"></path><path d="M 146.921,126.949 C 149.542,117.991 150.052,118.131 153.313,109.362" stroke-width="4.530" stroke="black" fill="none" stroke-linecap="round"></path><path d="M 153.313,109.362 C 156.444,100.944 156.673,101.027 159.705,92.575" stroke-width="4.500" stroke="black" fill="none" stroke-linecap="round"></path><path d="M 159.705,92.575 C 162.266,85.439 162.362,85.456 164.499,78.186" stroke-width="4.651" stroke="black" fill="none" stroke-linecap="round"></path><path d="M 164.499,78.186 C 166.357,71.866 166.362,71.844 167.695,65.395" stroke-width="4.936" stroke="black" fill="none" stroke-linecap="round"></path><path d="M 167.695,65.395 C 168.759,60.252 168.550,60.207 169.293,55.003" stroke-width="5.357" stroke="black" fill="none" stroke-linecap="round"></path><path d="M 169.293,55.003 C 169.749,51.813 170.244,47.848 170.092,48.608" stroke-width="6.125" stroke="black" fill="none" stroke-linecap="round"></path><path d="M 170.092,48.608 C 169.845,49.847 169.500,53.842 168.494,59.000" stroke-width="7.205" stroke="black" fill="none" stroke-linecap="round"></path><path d="M 168.494,59.000 C 166.304,70.230 166.515,70.296 163.700,81.383" stroke-width="4.500" stroke="black" fill="none" stroke-linecap="round"></path><path d="M 163.700,81.383 C 160.123,95.477 159.986,95.459 155.710,109.362" stroke-width="4.500" stroke="black" fill="none" stroke-linecap="round"></path><path d="M 155.710,109.362 C 151.996,121.440 152.176,121.530 147.720,133.344" stroke-width="4.500" stroke="black" fill="none" stroke-linecap="round"></path><path d="M 147.720,133.344 C 144.186,142.714 143.822,142.581 139.730,151.731" stroke-width="4.500" stroke="black" fill="none" stroke-linecap="round"></path><path d="M 139.730,151.731 C 137.030,157.770 136.800,157.668 134.137,163.722" stroke-width="4.671" stroke="black" fill="none" stroke-linecap="round"></path><path d="M 134.137,163.722 C 132.405,167.661 132.372,167.661 130.941,171.716" stroke-width="5.513" stroke="black" fill="none" stroke-linecap="round"></path><path d="M 200.454,66.194 C 196.459,72.989 196.518,73.025 192.464,79.784" stroke-width="8.186" stroke="black" fill="none" stroke-linecap="round"></path><path d="M 192.464,79.784 C 188.129,87.014 188.070,86.979 183.675,94.174" stroke-width="5.220" stroke="black" fill="none" stroke-linecap="round"></path><path d="M 183.675,94.174 C 179.281,101.368 179.512,101.520 174.886,108.563" stroke-width="4.708" stroke="black" fill="none" stroke-linecap="round"></path><path d="M 174.886,108.563 C 170.324,115.510 170.282,115.505 165.298,122.153" stroke-width="4.596" stroke="black" fill="none" stroke-linecap="round"></path><path d="M 165.298,122.153 C 163.091,125.098 162.877,124.930 160.504,127.749" stroke-width="5.517" stroke="black" fill="none" stroke-linecap="round"></path><path d="M 160.504,127.749 C 156.485,132.524 156.509,132.545 152.514,137.341" stroke-width="5.283" stroke="black" fill="none" stroke-linecap="round"></path><path d="M 152.514,137.341 C 150.517,139.740 148.100,141.089 148.519,142.138" stroke-width="6.191" stroke="black" fill="none" stroke-linecap="round"></path><path d="M 148.519,142.138 C 148.899,143.087 151.338,141.165 154.112,141.338" stroke-width="7.610" stroke="black" fill="none" stroke-linecap="round"></path><path d="M 154.112,141.338 C 157.730,141.565 158.074,141.266 161.303,142.937" stroke-width="6.710" stroke="black" fill="none" stroke-linecap="round"></path><path d="M 161.303,142.937 C 169.660,147.262 169.312,148.104 177.283,153.329" stroke-width="5.973" stroke="black" fill="none" stroke-linecap="round"></path><path d="M 177.283,153.329 C 180.898,155.699 180.757,155.938 184.474,158.126" stroke-width="5.968" stroke="black" fill="none" stroke-linecap="round"></path><path d="M 184.474,158.126 C 187.548,159.935 187.505,160.272 190.866,161.324" stroke-width="6.292" stroke="black" fill="none" stroke-linecap="round"></path><path d="M 190.866,161.324 C 193.897,162.271 194.124,162.347 197.258,162.123" stroke-width="6.455" stroke="black" fill="none" stroke-linecap="round"></path><path d="M 197.258,162.123 C 199.717,161.947 199.961,161.878 202.052,160.524" stroke-width="6.785" stroke="black" fill="none" stroke-linecap="round"></path><path d="M 202.052,160.524 C 206.753,157.481 206.947,157.412 210.841,153.329" stroke-width="5.749" stroke="black" fill="none" stroke-linecap="round"></path><path d="M 210.841,153.329 C 215.336,148.618 215.116,148.327 218.832,142.937" stroke-width="5.265" stroke="black" fill="none" stroke-linecap="round"></path><path d="M 218.832,142.937 C 223.106,136.736 222.827,136.542 226.822,130.147" stroke-width="4.908" stroke="black" fill="none" stroke-linecap="round"></path><path d="M 226.822,130.147 C 230.817,123.752 230.934,123.822 234.811,117.356" stroke-width="4.810" stroke="black" fill="none" stroke-linecap="round"></path><path d="M 234.811,117.356 C 238.125,111.831 238.120,111.821 241.203,106.165" stroke-width="5.022" stroke="black" fill="none" stroke-linecap="round"></path><path d="M 241.203,106.165 C 242.914,103.027 244.206,99.575 244.400,99.769" stroke-width="5.938" stroke="black" fill="none" stroke-linecap="round"></path><path d="M 244.400,99.769 C 244.605,99.975 243.477,103.477 242.003,106.964" stroke-width="7.294" stroke="black" fill="none" stroke-linecap="round"></path><path d="M 242.003,106.964 C 239.083,113.869 238.966,113.839 235.611,120.554" stroke-width="5.330" stroke="black" fill="none" stroke-linecap="round"></path><path d="M 235.611,120.554 C 232.574,126.629 232.153,126.428 229.218,132.545" stroke-width="5.096" stroke="black" fill="none" stroke-linecap="round"></path><path d="M 229.218,132.545 C 227.359,136.420 227.453,136.485 226.022,140.539" stroke-width="5.681" stroke="black" fill="none" stroke-linecap="round"></path><path d="M 226.022,140.539 C 225.056,143.280 222.996,144.864 224.425,146.135" stroke-width="6.361" stroke="black" fill="none" stroke-linecap="round"></path><path d="M 224.425,146.135 C 226.591,148.062 229.169,148.190 233.214,146.934" stroke-width="7.225" stroke="black" fill="none" stroke-linecap="round"></path><path d="M 233.214,146.934 C 240.754,144.593 240.941,143.696 247.596,138.940" stroke-width="5.252" stroke="black" fill="none" stroke-linecap="round"></path><path d="M 247.596,138.940 C 254.923,133.703 254.678,133.243 261.179,126.949" stroke-width="4.500" stroke="black" fill="none" stroke-linecap="round"></path><path d="M 261.179,126.949 C 267.062,121.252 267.057,121.192 272.365,114.958" stroke-width="4.552" stroke="black" fill="none" stroke-linecap="round"></path><path d="M 272.365,114.958 C 276.245,110.400 276.001,110.192 279.556,105.365" stroke-width="5.037" stroke="black" fill="none" stroke-linecap="round"></path><path d="M 279.556,105.365 C 281.594,102.597 282.036,102.800 283.551,99.769" stroke-width="5.924" stroke="black" fill="none" stroke-linecap="round"></path><path d="M 283.551,99.769 C 284.832,97.204 285.757,94.579 285.149,94.174" stroke-width="7.056" stroke="black" fill="none" stroke-linecap="round"></path><path d="M 285.149,94.174 C 284.558,93.780 282.930,95.983 281.154,98.171" stroke-width="7.506" stroke="black" fill="none" stroke-linecap="round"></path><path d="M 281.154,98.171 C 277.736,102.378 277.816,102.470 274.762,106.964" stroke-width="5.971" stroke="black" fill="none" stroke-linecap="round"></path><path d="M 274.762,106.964 C 271.024,112.463 271.020,112.471 267.571,118.156" stroke-width="5.294" stroke="black" fill="none" stroke-linecap="round"></path><path d="M 267.571,118.156 C 264.228,123.663 264.054,123.594 261.179,129.347" stroke-width="5.170" stroke="black" fill="none" stroke-linecap="round"></path><path d="M 261.179,129.347 C 258.860,133.986 258.820,134.029 257.184,138.940" stroke-width="5.454" stroke="black" fill="none" stroke-linecap="round"></path><path d="M 257.184,138.940 C 256.023,142.423 255.114,142.832 255.586,146.135" stroke-width="6.006" stroke="black" fill="none" stroke-linecap="round"></path><path d="M 255.586,146.135 C 255.913,148.428 256.745,150.132 258.782,150.132" stroke-width="7.172" stroke="black" fill="none" stroke-linecap="round"></path><path d="M 258.782,150.132 C 262.338,150.132 262.960,148.450 266.772,146.135" stroke-width="6.231" stroke="black" fill="none" stroke-linecap="round"></path><path d="M 266.772,146.135 C 274.146,141.655 274.348,141.838 281.154,136.542" stroke-width="4.878" stroke="black" fill="none" stroke-linecap="round"></path><path d="M 281.154,136.542 C 288.730,130.646 288.533,130.346 295.536,123.752" stroke-width="4.500" stroke="black" fill="none" stroke-linecap="round"></path><path d="M 295.536,123.752 C 302.116,117.556 301.928,117.356 308.320,110.961" stroke-width="4.500" stroke="black" fill="none" stroke-linecap="round"></path><path d="M 308.320,110.961 C 313.114,106.165 313.234,106.278 317.908,101.368" stroke-width="4.797" stroke="black" fill="none" stroke-linecap="round"></path><path d="M 317.908,101.368 C 321.224,97.884 324.986,92.801 324.300,94.174" stroke-width="5.425" stroke="black" fill="none" stroke-linecap="round"></path><path d="M 324.300,94.174 C 322.988,96.798 318.701,101.523 313.913,109.362" stroke-width="6.670" stroke="black" fill="none" stroke-linecap="round"></path><path d="M 313.913,109.362 C 309.912,115.912 309.979,116.001 306.722,122.952" stroke-width="5.179" stroke="black" fill="none" stroke-linecap="round"></path><path d="M 306.722,122.952 C 303.986,128.791 304.363,128.963 301.928,134.943" stroke-width="5.134" stroke="black" fill="none" stroke-linecap="round"></path><path d="M 301.928,134.943 C 299.968,139.755 299.412,139.602 297.933,144.536" stroke-width="5.442" stroke="black" fill="none" stroke-linecap="round"></path><path d="M 297.933,144.536 C 297.015,147.596 295.349,150.336 297.134,150.931" stroke-width="6.158" stroke="black" fill="none" stroke-linecap="round"></path><path d="M 297.134,150.931 C 300.143,151.935 303.313,150.852 307.521,147.734" stroke-width="6.990" stroke="black" fill="none" stroke-linecap="round"></path><path d="M 307.521,147.734 C 314.099,142.858 313.592,141.705 318.707,134.943" stroke-width="5.039" stroke="black" fill="none" stroke-linecap="round"></path><path d="M 318.707,134.943 C 324.778,126.916 324.406,126.618 329.893,118.156" stroke-width="4.500" stroke="black" fill="none" stroke-linecap="round"></path><path d="M 329.893,118.156 C 333.994,111.829 334.042,111.850 337.883,105.365" stroke-width="4.637" stroke="black" fill="none" stroke-linecap="round"></path><path d="M 337.883,105.365 C 340.434,101.058 340.335,100.997 342.677,96.572" stroke-width="5.384" stroke="black" fill="none" stroke-linecap="round"></path><path d="M 342.677,96.572 C 343.930,94.202 346.092,91.096 345.074,91.775" stroke-width="6.267" stroke="black" fill="none" stroke-linecap="round"></path><path d="M 345.074,91.775 C 342.497,93.494 339.955,96.287 335.486,101.368" stroke-width="7.095" stroke="black" fill="none" stroke-linecap="round"></path><path d="M 335.486,101.368 C 331.166,106.279 331.360,106.469 327.496,111.760" stroke-width="5.555" stroke="black" fill="none" stroke-linecap="round"></path><path d="M 327.496,111.760 C 323.770,116.861 323.374,116.669 320.305,122.153" stroke-width="5.175" stroke="black" fill="none" stroke-linecap="round"></path><path d="M 320.305,122.153 C 317.781,126.662 317.554,126.766 316.310,131.746" stroke-width="5.456" stroke="black" fill="none" stroke-linecap="round"></path><path d="M 316.310,131.746 C 315.157,136.359 314.793,136.789 315.511,141.338" stroke-width="5.656" stroke="black" fill="none" stroke-linecap="round"></path><path d="M 315.511,141.338 C 315.991,144.384 316.446,144.878 318.707,146.934" stroke-width="6.238" stroke="black" fill="none" stroke-linecap="round"></path><path d="M 318.707,146.934 C 320.841,148.875 321.462,149.114 324.300,149.332" stroke-width="6.572" stroke="black" fill="none" stroke-linecap="round"></path><path d="M 324.300,149.332 C 326.656,149.514 326.768,148.713 329.094,147.734" stroke-width="6.824" stroke="black" fill="none" stroke-linecap="round"></path><path d="M 329.094,147.734 C 334.359,145.516 334.529,145.768 339.481,142.937" stroke-width="5.638" stroke="black" fill="none" stroke-linecap="round"></path><path d="M 339.481,142.937 C 345.715,139.373 345.738,139.290 351.466,134.943" stroke-width="5.079" stroke="black" fill="none" stroke-linecap="round"></path><path d="M 351.466,134.943 C 357.324,130.497 357.059,130.147 362.652,125.350" stroke-width="4.896" stroke="black" fill="none" stroke-linecap="round"></path><path d="M 362.652,125.350 C 368.245,120.554 368.751,121.043 373.838,115.758" stroke-width="4.843" stroke="black" fill="none" stroke-linecap="round"></path><path d="M 373.838,115.758 C 379.138,110.251 378.992,110.017 383.426,103.766" stroke-width="4.853" stroke="black" fill="none" stroke-linecap="round"></path><path d="M 383.426,103.766 C 387.781,97.626 387.575,97.461 391.416,90.976" stroke-width="4.794" stroke="black" fill="none" stroke-linecap="round"></path><path d="M 391.416,90.976 C 393.967,86.669 394.282,86.762 396.210,82.182" stroke-width="5.290" stroke="black" fill="none" stroke-linecap="round"></path><path d="M 396.210,82.182 C 397.478,79.168 398.028,78.873 397.808,75.787" stroke-width="6.074" stroke="black" fill="none" stroke-linecap="round"></path><path d="M 397.808,75.787 C 397.629,73.277 395.546,70.046 395.411,70.991" stroke-width="7.172" stroke="black" fill="none" stroke-linecap="round"></path><path d="M 395.411,70.991 C 395.146,72.844 395.582,76.387 397.009,81.383" stroke-width="7.738" stroke="black" fill="none" stroke-linecap="round"></path><path d="M 397.009,81.383 C 397.979,84.781 398.914,84.459 400.205,87.778" stroke-width="6.700" stroke="black" fill="none" stroke-linecap="round"></path><path d="M 400.205,87.778 C 401.711,91.653 401.679,91.711 402.602,95.772" stroke-width="6.221" stroke="black" fill="none" stroke-linecap="round"></path><path d="M 402.602,95.772 C 403.677,100.505 403.999,100.544 404.200,105.365" stroke-width="5.865" stroke="black" fill="none" stroke-linecap="round"></path><path d="M 404.200,105.365 C 404.398,110.137 404.636,110.370 403.401,114.958" stroke-width="5.781" stroke="black" fill="none" stroke-linecap="round"></path><path d="M 403.401,114.958 C 401.839,120.762 400.947,120.530 398.607,126.150" stroke-width="5.395" stroke="black" fill="none" stroke-linecap="round"></path><path d="M 398.607,126.150 C 396.952,130.123 397.009,130.147 395.411,134.144" stroke-width="5.788" stroke="black" fill="none" stroke-linecap="round"></path></svg>