<svg xmlns="http://www.w3.org/2000/svg" xmlns:xlink="http://www.w3.org/1999/xlink" viewBox="0 0 576 416" width="576" height="416"><path d="M 345.074,108.412 C 349.868,115.607 351.184,115.096 354.662,122.802" stroke-width="8.254" stroke="black" fill="none" stroke-linecap="round"></path><path d="M 354.662,122.802 C 356.777,127.487 356.059,127.975 356.260,133.194" stroke-width="6.052" stroke="black" fill="none" stroke-linecap="round"></path><path d="M 356.260,133.194 C 356.459,138.367 356.081,138.417 355.461,143.586" stroke-width="5.801" stroke="black" fill="none" stroke-linecap="round"></path><path d="M 355.461,143.586 C 354.882,148.409 355.091,148.508 353.863,153.179" stroke-width="5.748" stroke="black" fill="none" stroke-linecap="round"></path><path d="M 353.863,153.179 C 353.094,156.103 353.247,156.336 351.466,158.775" stroke-width="6.336" stroke="black" fill="none" stroke-linecap="round"></path><path d="M 351.466,158.775 C 345.656,166.728 345.670,166.972 338.682,173.963" stroke-width="4.512" stroke="black" fill="none" stroke-linecap="round"></path><path d="M 338.682,173.963 C 332.486,180.162 332.289,180.141 325.099,185.155" stroke-width="4.500" stroke="black" fill="none" stroke-linecap="round"></path><path d="M 325.099,185.155 C 319.105,189.334 318.970,189.365 312.315,192.350" stroke-width="4.794" stroke="black" fill="none" stroke-linecap="round"></path><path d="M 312.315,192.350 C 307.384,194.561 307.231,194.935 301.928,195.547" stroke-width="5.176" stroke="black" fill="none" stroke-linecap="round"></path><path d="M 301.928,195.547 C 296.844,196.134 296.095,196.356 291.541,194.748" stroke-width="5.606" stroke="black" fill="none" stroke-linecap="round"></path><path d="M 291.541,194.748 C 289.303,193.958 288.784,193.097 288.345,190.751" stroke-width="6.993" stroke="black" fill="none" stroke-linecap="round"></path><path d="M 288.345,190.751 C 287.586,186.702 287.903,186.095 289.144,181.957" stroke-width="7.098" stroke="black" fill="none" stroke-linecap="round"></path><path d="M 289.144,181.957 C 290.300,178.101 293.139,175.995 293.139,174.763" stroke-width="7.201" stroke="black" fill="none" stroke-linecap="round"></path><path d="M 293.139,174.763 C 293.139,173.996 291.163,176.389 289.144,177.960" stroke-width="8.108" stroke="black" fill="none" stroke-linecap="round"></path><path d="M 289.144,177.960 C 283.972,181.985 283.950,181.957 278.757,185.954" stroke-width="5.723" stroke="black" fill="none" stroke-linecap="round"></path><path d="M 278.757,185.954 C 273.563,189.951 273.711,190.163 268.370,193.948" stroke-width="5.258" stroke="black" fill="none" stroke-linecap="round"></path><path d="M 268.370,193.948 C 264.123,196.958 264.009,196.801 259.581,199.544" stroke-width="5.560" stroke="black" fill="none" stroke-linecap="round"></path><path d="M 259.581,199.544 C 255.620,201.997 255.776,202.357 251.591,204.341" stroke-width="5.735" stroke="black" fill="none" stroke-linecap="round"></path><path d="M 251.591,204.341 C 248.186,205.954 248.033,205.670 244.400,206.739" stroke-width="6.069" stroke="black" fill="none" stroke-linecap="round"></path><path d="M 244.400,206.739 C 241.241,207.668 241.190,208.338 238.008,208.338" stroke-width="6.355" stroke="black" fill="none" stroke-linecap="round"></path><path d="M 238.008,208.338 C 235.198,208.338 234.727,208.281 232.415,206.739" stroke-width="7.461" stroke="black" fill="none" stroke-linecap="round"></path><path d="M 232.415,206.739 C 229.933,205.084 230.864,201.799 228.419,201.942" stroke-width="7.992" stroke="black" fill="none" stroke-linecap="round"></path><path d="M 228.419,201.942 C 224.072,202.198 223.062,204.042 218.832,207.538" stroke-width="8.079" stroke="black" fill="none" stroke-linecap="round"></path><path d="M 218.832,207.538 C 213.874,211.636 214.351,212.258 210.042,217.131" stroke-width="5.733" stroke="black" fill="none" stroke-linecap="round"></path><path d="M 210.042,217.131 C 205.162,222.651 205.150,222.646 200.454,228.323" stroke-width="5.062" stroke="black" fill="none" stroke-linecap="round"></path><path d="M 200.454,228.323 C 195.562,234.237 195.607,234.277 190.866,240.314" stroke-width="4.824" stroke="black" fill="none" stroke-linecap="round"></path><path d="M 190.866,240.314 C 186.818,245.468 186.841,245.487 182.876,250.706" stroke-width="5.002" stroke="black" fill="none" stroke-linecap="round"></path><path d="M 182.876,250.706 C 179.251,255.479 179.119,255.391 175.685,260.299" stroke-width="5.192" stroke="black" fill="none" stroke-linecap="round"></path><path d="M 175.685,260.299 C 173.526,263.385 173.832,263.599 171.690,266.694" stroke-width="5.880" stroke="black" fill="none" stroke-linecap="round"></path><path d="M 171.690,266.694 C 170.237,268.795 169.860,268.544 168.494,270.691" stroke-width="6.678" stroke="black" fill="none" stroke-linecap="round"></path><path d="M 168.494,270.691 C 167.064,272.941 167.733,273.442 166.097,275.488" stroke-width="7.367" stroke="black" fill="none" stroke-linecap="round"></path><path d="M 166.097,275.488 C 164.537,277.439 164.055,277.032 162.102,278.685" stroke-width="7.918" stroke="black" fill="none" stroke-linecap="round"></path><path d="M 162.102,278.685 C 158.861,281.429 159.040,281.651 155.710,284.281" stroke-width="6.471" stroke="black" fill="none" stroke-linecap="round"></path><path d="M 155.710,284.281 C 151.450,287.646 151.268,287.415 146.921,290.676" stroke-width="5.751" stroke="black" fill="none" stroke-linecap="round"></path><path d="M 146.921,290.676 C 141.680,294.609 141.751,294.704 136.534,298.670" stroke-width="5.266" stroke="black" fill="none" stroke-linecap="round"></path><path d="M 136.534,298.670 C 131.763,302.298 132.008,302.700 126.946,305.865" stroke-width="5.274" stroke="black" fill="none" stroke-linecap="round"></path><path d="M 126.946,305.865 C 122.420,308.695 122.347,308.789 117.358,310.661" stroke-width="5.444" stroke="black" fill="none" stroke-linecap="round"></path><path d="M 117.358,310.661 C 112.759,312.387 112.620,312.177 107.770,313.060" stroke-width="5.615" stroke="black" fill="none" stroke-linecap="round"></path><path d="M 107.770,313.060 C 103.830,313.776 103.735,314.189 99.780,313.859" stroke-width="5.954" stroke="black" fill="none" stroke-linecap="round"></path><path d="M 99.780,313.859 C 94.147,313.389 94.139,312.848 88.594,311.461" stroke-width="6.480" stroke="black" fill="none" stroke-linecap="round"></path><path d="M 88.594,311.461 C 84.551,310.449 84.614,310.209 80.604,309.063" stroke-width="6.164" stroke="black" fill="none" stroke-linecap="round"></path><path d="M 80.604,309.063 C 76.225,307.811 76.108,308.158 71.815,306.664" stroke-width="5.948" stroke="black" fill="none" stroke-linecap="round"></path><path d="M 71.815,306.664 C 66.920,304.961 66.815,305.062 62.227,302.667" stroke-width="5.690" stroke="black" fill="none" stroke-linecap="round"></path><path d="M 62.227,302.667 C 57.626,300.265 57.370,300.415 53.438,297.071" stroke-width="5.613" stroke="black" fill="none" stroke-linecap="round"></path><path d="M 53.438,297.071 C 49.380,293.620 48.808,293.689 46.247,289.077" stroke-width="5.543" stroke="black" fill="none" stroke-linecap="round"></path><path d="M 46.247,289.077 C 42.815,282.897 42.712,282.504 41.453,275.488" stroke-width="5.055" stroke="black" fill="none" stroke-linecap="round"></path><path d="M 41.453,275.488 C 39.915,266.916 39.876,266.618 40.654,257.901" stroke-width="4.594" stroke="black" fill="none" stroke-linecap="round"></path><path d="M 40.654,257.901 C 41.874,244.235 41.332,243.793 45.448,230.721" stroke-width="4.500" stroke="black" fill="none" stroke-linecap="round"></path><path d="M 45.448,230.721 C 50.520,214.614 50.766,214.311 59.031,199.544" stroke-width="4.500" stroke="black" fill="none" stroke-linecap="round"></path><path d="M 59.031,199.544 C 67.545,184.333 67.731,184.061 79.006,170.766" stroke-width="4.500" stroke="black" fill="none" stroke-linecap="round"></path><path d="M 79.006,170.766 C 90.103,157.681 90.177,157.188 103.775,146.784" stroke-width="4.500" stroke="black" fill="none" stroke-linecap="round"></path><path d="M 103.775,146.784 C 117.343,136.403 117.962,136.791 133.338,129.197" stroke-width="4.500" stroke="black" fill="none" stroke-linecap="round"></path><path d="M 133.338,129.197 C 149.522,121.203 149.682,121.014 166.896,115.607" stroke-width="4.500" stroke="black" fill="none" stroke-linecap="round"></path><path d="M 166.896,115.607 C 184.039,110.222 184.266,109.943 202.052,107.613" stroke-width="4.500" stroke="black" fill="none" stroke-linecap="round"></path><path d="M 202.052,107.613 C 217.824,105.546 218.203,105.597 234.013,106.813" stroke-width="4.500" stroke="black" fill="none" stroke-linecap="round"></path><path d="M 234.013,106.813 C 244.171,107.595 244.251,108.422 253.988,111.610" stroke-width="4.500" stroke="black" fill="none" stroke-linecap="round"></path><path d="M 253.988,111.610 C 266.224,115.617 266.695,115.074 277.958,121.203" stroke-width="4.500" stroke="black" fill="none" stroke-linecap="round"></path><path d="M 277.958,121.203 C 289.467,127.465 289.292,128.118 299.531,136.391" stroke-width="4.500" stroke="black" fill="none" stroke-linecap="round"></path><path d="M 299.531,136.391 C 310.066,144.905 309.816,145.281 319.506,154.778" stroke-width="4.500" stroke="black" fill="none" stroke-linecap="round"></path><path d="M 319.506,154.778 C 329.391,164.466 329.651,164.291 338.682,174.763" stroke-width="4.500" stroke="black" fill="none" stroke-linecap="round"></path><path d="M 338.682,174.763 C 347.229,184.675 346.708,185.127 354.662,195.547" stroke-width="4.500" stroke="black" fill="none" stroke-linecap="round"></path><path d="M 354.662,195.547 C 363.487,207.111 363.469,207.125 372.240,218.730" stroke-width="4.500" stroke="black" fill="none" stroke-linecap="round"></path><path d="M 372.240,218.730 C 375.854,223.512 375.835,223.526 379.431,228.323" stroke-width="4.514" stroke="black" fill="none" stroke-linecap="round"></path><circle r="3" cx="286.74658203125" cy="102.81640625" fill="black"></circle></svg>