<svg xmlns="http://www.w3.org/2000/svg" xmlns:xlink="http://www.w3.org/1999/xlink" viewBox="0 0 576 416" width="576" height="416"><path d="M 216.434,370.845 C 220.829,366.448 222.100,367.261 225.223,362.052" stroke-width="8.612" stroke="black" fill="none" stroke-linecap="round"></path><path d="M 225.223,362.052 C 229.291,355.270 228.464,354.596 230.816,346.863" stroke-width="5.228" stroke="black" fill="none" stroke-linecap="round"></path><path d="M 230.816,346.863 C 234.057,336.210 233.847,336.126 236.410,325.279" stroke-width="4.500" stroke="black" fill="none" stroke-linecap="round"></path><path d="M 236.410,325.279 C 239.040,314.143 238.847,314.096 241.203,302.896" stroke-width="4.500" stroke="black" fill="none" stroke-linecap="round"></path><path d="M 241.203,302.896 C 243.641,291.313 243.519,291.287 245.998,279.713" stroke-width="4.500" stroke="black" fill="none" stroke-linecap="round"></path><path d="M 245.998,279.713 C 248.313,268.904 248.626,268.964 250.792,258.129" stroke-width="4.500" stroke="black" fill="none" stroke-linecap="round"></path><path d="M 250.792,258.129 C 251.822,252.976 251.489,252.916 252.390,247.737" stroke-width="4.975" stroke="black" fill="none" stroke-linecap="round"></path><path d="M 252.390,247.737 C 254.685,234.530 254.941,234.572 257.184,221.357" stroke-width="4.500" stroke="black" fill="none" stroke-linecap="round"></path><path d="M 257.184,221.357 C 258.536,213.388 258.713,213.397 259.581,205.369" stroke-width="4.500" stroke="black" fill="none" stroke-linecap="round"></path><path d="M 259.581,205.369 C 260.311,198.608 260.167,198.579 260.380,191.779" stroke-width="4.768" stroke="black" fill="none" stroke-linecap="round"></path><path d="M 260.380,191.779 C 260.567,185.789 260.821,185.747 260.380,179.788" stroke-width="5.113" stroke="black" fill="none" stroke-linecap="round"></path><path d="M 260.380,179.788 C 260.022,174.955 259.581,174.991 258.782,170.195" stroke-width="5.527" stroke="black" fill="none" stroke-linecap="round"></path><path d="M 258.782,170.195 C 257.983,165.398 258.016,165.392 257.184,160.602" stroke-width="5.744" stroke="black" fill="none" stroke-linecap="round"></path><path d="M 257.184,160.602 C 256.418,156.199 256.606,156.148 255.586,151.809" stroke-width="6.620" stroke="black" fill="none" stroke-linecap="round"></path><path d="M 255.586,151.809 C 255.008,149.354 254.787,149.410 253.988,147.012" stroke-width="6.839" stroke="black" fill="none" stroke-linecap="round"></path><path d="M 253.988,147.012 C 253.189,144.614 253.443,144.500 252.390,142.216" stroke-width="6.907" stroke="black" fill="none" stroke-linecap="round"></path><path d="M 252.390,142.216 C 251.046,139.304 251.391,137.219 249.194,136.620" stroke-width="7.356" stroke="black" fill="none" stroke-linecap="round"></path><path d="M 249.194,136.620 C 246.997,136.020 245.358,137.327 243.601,139.817" stroke-width="7.502" stroke="black" fill="none" stroke-linecap="round"></path><path d="M 243.601,139.817 C 240.564,144.122 241.263,144.904 239.605,150.210" stroke-width="5.927" stroke="black" fill="none" stroke-linecap="round"></path><path d="M 239.605,150.210 C 237.268,157.694 237.111,157.705 235.611,165.398" stroke-width="4.994" stroke="black" fill="none" stroke-linecap="round"></path><path d="M 235.611,165.398 C 233.915,174.093 233.949,174.151 233.214,182.985" stroke-width="4.565" stroke="black" fill="none" stroke-linecap="round"></path><path d="M 233.214,182.985 C 232.351,193.337 232.415,193.376 232.415,203.770" stroke-width="4.500" stroke="black" fill="none" stroke-linecap="round"></path><path d="M 232.415,203.770 C 232.415,215.760 232.466,215.782 233.214,227.752" stroke-width="4.500" stroke="black" fill="none" stroke-linecap="round"></path><path d="M 233.214,227.752 C 234.064,241.363 233.770,241.430 235.611,254.932" stroke-width="4.500" stroke="black" fill="none" stroke-linecap="round"></path><path d="M 235.611,254.932 C 237.366,267.810 237.694,267.789 240.405,280.513" stroke-width="4.500" stroke="black" fill="none" stroke-linecap="round"></path><path d="M 240.405,280.513 C 242.888,292.171 242.501,292.324 245.998,303.695" stroke-width="4.500" stroke="black" fill="none" stroke-linecap="round"></path><path d="M 245.998,303.695 C 248.893,313.109 249.561,312.901 253.189,322.081" stroke-width="4.500" stroke="black" fill="none" stroke-linecap="round"></path><path d="M 253.189,322.081 C 256.352,330.088 255.925,330.297 259.581,338.069" stroke-width="4.500" stroke="black" fill="none" stroke-linecap="round"></path><path d="M 259.581,338.069 C 262.317,343.887 262.505,343.841 265.973,349.261" stroke-width="4.850" stroke="black" fill="none" stroke-linecap="round"></path><path d="M 265.973,349.261 C 268.897,353.833 268.793,354.005 272.365,358.055" stroke-width="5.281" stroke="black" fill="none" stroke-linecap="round"></path><path d="M 272.365,358.055 C 274.785,360.799 274.877,360.954 277.958,362.851" stroke-width="5.942" stroke="black" fill="none" stroke-linecap="round"></path><path d="M 277.958,362.851 C 280.070,364.152 280.469,364.801 282.752,364.450" stroke-width="6.606" stroke="black" fill="none" stroke-linecap="round"></path><path d="M 282.752,364.450 C 285.662,364.002 286.757,363.722 288.345,361.252" stroke-width="7.272" stroke="black" fill="none" stroke-linecap="round"></path><path d="M 288.345,361.252 C 290.353,358.127 289.386,357.292 289.943,353.258" stroke-width="6.303" stroke="black" fill="none" stroke-linecap="round"></path><path d="M 289.943,353.258 C 290.984,345.701 291.186,345.687 291.541,338.069" stroke-width="5.122" stroke="black" fill="none" stroke-linecap="round"></path><path d="M 291.541,338.069 C 291.985,328.500 291.541,328.477 291.541,318.884" stroke-width="4.500" stroke="black" fill="none" stroke-linecap="round"></path><path d="M 291.541,318.884 C 291.541,308.092 291.730,308.089 291.541,297.300" stroke-width="4.500" stroke="black" fill="none" stroke-linecap="round"></path><path d="M 291.541,297.300 C 291.330,285.306 291.331,285.300 290.742,273.318" stroke-width="4.500" stroke="black" fill="none" stroke-linecap="round"></path><path d="M 290.742,273.318 C 290.132,260.918 289.557,260.939 289.144,248.536" stroke-width="4.500" stroke="black" fill="none" stroke-linecap="round"></path><path d="M 289.144,248.536 C 288.758,236.957 289.354,236.941 289.144,225.354" stroke-width="4.500" stroke="black" fill="none" stroke-linecap="round"></path><path d="M 289.144,225.354 C 288.955,214.957 288.566,214.965 288.345,204.569" stroke-width="4.500" stroke="black" fill="none" stroke-linecap="round"></path><path d="M 288.345,204.569 C 288.166,196.179 288.836,196.138 288.345,187.782" stroke-width="4.500" stroke="black" fill="none" stroke-linecap="round"></path><path d="M 288.345,187.782 C 288.037,182.548 288.012,182.452 286.747,177.389" stroke-width="5.126" stroke="black" fill="none" stroke-linecap="round"></path><path d="M 286.747,177.389 C 286.014,174.458 285.055,170.499 284.350,171.794" stroke-width="6.674" stroke="black" fill="none" stroke-linecap="round"></path><path d="M 284.350,171.794 C 282.658,174.896 282.834,178.948 281.953,186.183" stroke-width="6.365" stroke="black" fill="none" stroke-linecap="round"></path><path d="M 281.953,186.183 C 280.837,195.336 280.738,195.358 280.355,204.569" stroke-width="4.777" stroke="black" fill="none" stroke-linecap="round"></path><path d="M 280.355,204.569 C 279.939,214.544 279.811,214.589 280.355,224.554" stroke-width="4.500" stroke="black" fill="none" stroke-linecap="round"></path><path d="M 280.355,224.554 C 281.010,236.572 280.938,236.639 282.752,248.536" stroke-width="4.500" stroke="black" fill="none" stroke-linecap="round"></path><path d="M 282.752,248.536 C 284.533,260.222 284.778,260.218 287.546,271.719" stroke-width="4.500" stroke="black" fill="none" stroke-linecap="round"></path><path d="M 287.546,271.719 C 289.972,281.802 289.621,281.974 293.139,291.704" stroke-width="4.500" stroke="black" fill="none" stroke-linecap="round"></path><path d="M 293.139,291.704 C 296.413,300.760 297.083,300.521 301.129,309.291" stroke-width="4.500" stroke="black" fill="none" stroke-linecap="round"></path><path d="M 301.129,309.291 C 304.274,316.109 303.654,316.509 307.521,322.881" stroke-width="4.566" stroke="black" fill="none" stroke-linecap="round"></path><path d="M 307.521,322.881 C 310.445,327.700 310.730,327.690 314.712,331.674" stroke-width="5.116" stroke="black" fill="none" stroke-linecap="round"></path><path d="M 314.712,331.674 C 317.122,334.085 317.798,336.057 320.305,335.671" stroke-width="5.957" stroke="black" fill="none" stroke-linecap="round"></path><path d="M 320.305,335.671 C 322.991,335.258 324.287,333.460 325.099,330.076" stroke-width="6.897" stroke="black" fill="none" stroke-linecap="round"></path><path d="M 325.099,330.076 C 326.684,323.467 325.099,322.881 325.099,315.686" stroke-width="5.344" stroke="black" fill="none" stroke-linecap="round"></path><path d="M 325.099,315.686 C 325.099,303.695 325.504,303.681 325.099,291.704" stroke-width="4.500" stroke="black" fill="none" stroke-linecap="round"></path><path d="M 325.099,291.704 C 324.705,280.099 324.169,280.120 323.501,268.521" stroke-width="4.500" stroke="black" fill="none" stroke-linecap="round"></path><path d="M 323.501,268.521 C 322.971,259.336 322.937,259.332 322.702,250.135" stroke-width="4.500" stroke="black" fill="none" stroke-linecap="round"></path><path d="M 322.702,250.135 C 322.538,243.743 322.702,243.740 322.702,237.345" stroke-width="4.807" stroke="black" fill="none" stroke-linecap="round"></path><path d="M 322.702,237.345 C 322.702,234.147 322.330,230.764 322.702,230.949" stroke-width="5.902" stroke="black" fill="none" stroke-linecap="round"></path><path d="M 322.702,230.949 C 323.129,231.163 323.879,234.494 324.300,238.144" stroke-width="7.297" stroke="black" fill="none" stroke-linecap="round"></path><path d="M 324.300,238.144 C 325.077,244.886 324.464,244.962 325.099,251.734" stroke-width="5.627" stroke="black" fill="none" stroke-linecap="round"></path><path d="M 325.099,251.734 C 325.663,257.752 325.670,257.769 326.697,263.725" stroke-width="5.266" stroke="black" fill="none" stroke-linecap="round"></path><path d="M 326.697,263.725 C 327.668,269.360 327.707,269.369 329.094,274.917" stroke-width="5.344" stroke="black" fill="none" stroke-linecap="round"></path><path d="M 329.094,274.917 C 330.104,278.962 329.364,279.600 331.491,282.911" stroke-width="5.811" stroke="black" fill="none" stroke-linecap="round"></path><path d="M 331.491,282.911 C 332.959,285.196 334.862,287.531 336.285,286.108" stroke-width="7.013" stroke="black" fill="none" stroke-linecap="round"></path><path d="M 336.285,286.108 C 339.656,282.735 338.708,279.723 341.079,273.318" stroke-width="6.588" stroke="black" fill="none" stroke-linecap="round"></path><path d="M 341.079,273.318 C 342.703,268.931 342.730,268.940 344.275,264.524" stroke-width="6.020" stroke="black" fill="none" stroke-linecap="round"></path><path d="M 344.275,264.524 C 345.527,260.946 345.473,260.927 346.672,257.330" stroke-width="6.161" stroke="black" fill="none" stroke-linecap="round"></path><path d="M 346.672,257.330 C 347.471,254.932 347.420,254.914 348.270,252.533" stroke-width="6.684" stroke="black" fill="none" stroke-linecap="round"></path><path d="M 348.270,252.533 C 349.418,249.318 349.324,246.586 350.667,246.138" stroke-width="7.232" stroke="black" fill="none" stroke-linecap="round"></path><path d="M 350.667,246.138 C 351.721,245.786 352.222,248.410 353.064,250.935" stroke-width="7.975" stroke="black" fill="none" stroke-linecap="round"></path><path d="M 353.064,250.935 C 354.220,254.405 353.625,254.602 354.662,258.129" stroke-width="6.706" stroke="black" fill="none" stroke-linecap="round"></path><path d="M 354.662,258.129 C 355.622,261.397 355.980,261.287 357.059,264.524" stroke-width="6.504" stroke="black" fill="none" stroke-linecap="round"></path><path d="M 357.059,264.524 C 357.978,267.283 357.452,267.510 358.657,270.120" stroke-width="6.643" stroke="black" fill="none" stroke-linecap="round"></path><path d="M 358.657,270.120 C 359.849,272.706 359.516,273.748 361.853,274.917" stroke-width="6.698" stroke="black" fill="none" stroke-linecap="round"></path><path d="M 361.853,274.917 C 365.109,276.545 366.377,276.800 369.843,275.716" stroke-width="7.095" stroke="black" fill="none" stroke-linecap="round"></path><path d="M 369.843,275.716 C 372.769,274.801 372.038,273.086 374.637,270.920" stroke-width="6.619" stroke="black" fill="none" stroke-linecap="round"></path><path d="M 374.637,270.920 C 379.229,267.090 379.495,267.405 384.225,263.725" stroke-width="5.620" stroke="black" fill="none" stroke-linecap="round"></path><path d="M 384.225,263.725 C 390.282,259.012 390.121,258.803 396.210,254.132" stroke-width="4.965" stroke="black" fill="none" stroke-linecap="round"></path><path d="M 396.210,254.132 C 402.106,249.610 402.275,249.832 408.195,245.339" stroke-width="4.850" stroke="black" fill="none" stroke-linecap="round"></path><path d="M 408.195,245.339 C 413.861,241.038 413.668,240.779 419.381,236.545" stroke-width="4.884" stroke="black" fill="none" stroke-linecap="round"></path><path d="M 419.381,236.545 C 424.454,232.785 424.545,232.904 429.768,229.351" stroke-width="5.076" stroke="black" fill="none" stroke-linecap="round"></path><path d="M 429.768,229.351 C 434.532,226.109 434.461,225.987 439.356,222.955" stroke-width="5.274" stroke="black" fill="none" stroke-linecap="round"></path><path d="M 439.356,222.955 C 442.850,220.791 443.099,221.176 446.547,218.958" stroke-width="5.875" stroke="black" fill="none" stroke-linecap="round"></path><path d="M 446.547,218.958 C 448.692,217.579 451.976,214.873 450.542,215.761" stroke-width="6.506" stroke="black" fill="none" stroke-linecap="round"></path><path d="M 450.542,215.761 C 443.586,220.069 440.362,222.892 429.768,229.351" stroke-width="6.182" stroke="black" fill="none" stroke-linecap="round"></path><path d="M 429.768,229.351 C 414.794,238.480 414.801,238.536 399.406,246.938" stroke-width="4.500" stroke="black" fill="none" stroke-linecap="round"></path><path d="M 399.406,246.938 C 384.039,255.324 384.156,255.654 368.245,262.926" stroke-width="4.500" stroke="black" fill="none" stroke-linecap="round"></path><path d="M 368.245,262.926 C 351.796,270.443 351.688,270.330 334.687,276.515" stroke-width="4.500" stroke="black" fill="none" stroke-linecap="round"></path><path d="M 334.687,276.515 C 316.532,283.120 316.367,282.693 297.933,288.506" stroke-width="4.500" stroke="black" fill="none" stroke-linecap="round"></path><path d="M 297.933,288.506 C 279.613,294.284 279.646,294.419 261.179,299.698" stroke-width="4.500" stroke="black" fill="none" stroke-linecap="round"></path><path d="M 261.179,299.698 C 243.291,304.811 243.183,304.429 225.223,309.291" stroke-width="4.500" stroke="black" fill="none" stroke-linecap="round"></path><path d="M 225.223,309.291 C 209.226,313.622 209.465,314.888 193.263,318.084" stroke-width="4.500" stroke="black" fill="none" stroke-linecap="round"></path><path d="M 193.263,318.084 C 181.100,320.484 180.847,320.483 168.494,320.483" stroke-width="4.500" stroke="black" fill="none" stroke-linecap="round"></path><path d="M 168.494,320.483 C 160.473,320.483 159.796,320.513 152.514,318.084" stroke-width="4.500" stroke="black" fill="none" stroke-linecap="round"></path><path d="M 152.514,318.084 C 150.208,317.315 150.401,316.373 149.318,314.087" stroke-width="5.752" stroke="black" fill="none" stroke-linecap="round"></path><path d="M 149.318,314.087 C 146.805,308.779 146.217,308.706 145.323,302.896" stroke-width="5.426" stroke="black" fill="none" stroke-linecap="round"></path><path d="M 145.323,302.896 C 143.820,293.117 144.524,292.905 144.524,282.911" stroke-width="4.500" stroke="black" fill="none" stroke-linecap="round"></path><path d="M 144.524,282.911 C 144.524,270.521 144.471,270.488 145.323,258.129" stroke-width="4.500" stroke="black" fill="none" stroke-linecap="round"></path><path d="M 145.323,258.129 C 146.069,247.305 146.572,247.343 147.720,236.545" stroke-width="4.500" stroke="black" fill="none" stroke-linecap="round"></path><path d="M 147.720,236.545 C 148.570,228.557 148.633,228.561 149.318,220.557" stroke-width="4.500" stroke="black" fill="none" stroke-linecap="round"></path><path d="M 149.318,220.557 C 149.831,214.571 149.877,214.567 150.117,208.566" stroke-width="4.952" stroke="black" fill="none" stroke-linecap="round"></path><path d="M 150.117,208.566 C 150.277,204.574 149.628,204.490 150.117,200.572" stroke-width="5.716" stroke="black" fill="none" stroke-linecap="round"></path><path d="M 150.117,200.572 C 150.427,198.094 150.591,195.213 151.715,195.776" stroke-width="7.051" stroke="black" fill="none" stroke-linecap="round"></path><path d="M 151.715,195.776 C 153.788,196.812 154.430,199.608 156.509,203.770" stroke-width="7.060" stroke="black" fill="none" stroke-linecap="round"></path><path d="M 156.509,203.770 C 160.023,210.800 159.923,210.874 162.901,218.159" stroke-width="5.200" stroke="black" fill="none" stroke-linecap="round"></path><path d="M 162.901,218.159 C 167.114,228.461 166.626,228.663 170.891,238.943" stroke-width="4.500" stroke="black" fill="none" stroke-linecap="round"></path><path d="M 170.891,238.943 C 175.415,249.847 175.595,249.776 180.479,260.527" stroke-width="4.500" stroke="black" fill="none" stroke-linecap="round"></path><path d="M 180.479,260.527 C 185.583,271.760 185.041,272.058 190.866,282.911" stroke-width="4.500" stroke="black" fill="none" stroke-linecap="round"></path><path d="M 190.866,282.911 C 196.627,293.642 196.488,293.867 203.650,303.695" stroke-width="4.500" stroke="black" fill="none" stroke-linecap="round"></path><path d="M 203.650,303.695 C 210.470,313.053 210.459,313.314 218.832,321.282" stroke-width="4.500" stroke="black" fill="none" stroke-linecap="round"></path><path d="M 218.832,321.282 C 226.839,328.902 226.913,329.295 236.410,334.872" stroke-width="4.500" stroke="black" fill="none" stroke-linecap="round"></path><path d="M 236.410,334.872 C 245.290,340.087 245.604,340.516 255.586,342.866" stroke-width="4.500" stroke="black" fill="none" stroke-linecap="round"></path><path d="M 255.586,342.866 C 265.979,345.313 266.432,344.894 277.159,344.465" stroke-width="4.500" stroke="black" fill="none" stroke-linecap="round"></path><path d="M 277.159,344.465 C 286.408,344.095 286.558,343.703 295.536,341.267" stroke-width="4.500" stroke="black" fill="none" stroke-linecap="round"></path><path d="M 295.536,341.267 C 310.129,337.308 310.341,337.493 324.300,331.674" stroke-width="4.500" stroke="black" fill="none" stroke-linecap="round"></path><path d="M 324.300,331.674 C 339.105,325.502 339.084,325.190 353.064,317.285" stroke-width="4.500" stroke="black" fill="none" stroke-linecap="round"></path><path d="M 353.064,317.285 C 366.650,309.602 366.531,309.306 379.431,300.498" stroke-width="4.500" stroke="black" fill="none" stroke-linecap="round"></path><path d="M 379.431,300.498 C 391.700,292.119 391.562,291.896 403.401,282.911" stroke-width="4.500" stroke="black" fill="none" stroke-linecap="round"></path><path d="M 403.401,282.911 C 414.733,274.310 414.602,274.136 425.773,265.324" stroke-width="4.500" stroke="black" fill="none" stroke-linecap="round"></path><path d="M 425.773,265.324 C 435.376,257.748 435.273,257.616 444.949,250.135" stroke-width="4.500" stroke="black" fill="none" stroke-linecap="round"></path><path d="M 444.949,250.135 C 452.851,244.026 452.996,244.214 460.929,238.144" stroke-width="4.500" stroke="black" fill="none" stroke-linecap="round"></path><path d="M 460.929,238.144 C 466.579,233.821 466.370,233.531 472.115,229.351" stroke-width="4.570" stroke="black" fill="none" stroke-linecap="round"></path><path d="M 472.115,229.351 C 475.159,227.136 479.649,223.900 478.507,225.354" stroke-width="5.621" stroke="black" fill="none" stroke-linecap="round"></path><path d="M 478.507,225.354 C 475.254,229.495 471.221,233.275 463.326,240.542" stroke-width="6.437" stroke="black" fill="none" stroke-linecap="round"></path><path d="M 463.326,240.542 C 451.246,251.661 451.336,251.822 438.557,262.126" stroke-width="4.500" stroke="black" fill="none" stroke-linecap="round"></path><path d="M 438.557,262.126 C 424.569,273.405 424.469,273.334 409.793,283.710" stroke-width="4.500" stroke="black" fill="none" stroke-linecap="round"></path><path d="M 409.793,283.710 C 394.506,294.518 394.621,294.775 378.632,304.495" stroke-width="4.500" stroke="black" fill="none" stroke-linecap="round"></path><path d="M 378.632,304.495 C 363.060,313.961 362.935,313.847 346.672,322.081" stroke-width="4.500" stroke="black" fill="none" stroke-linecap="round"></path><path d="M 346.672,322.081 C 329.777,330.635 329.740,330.655 312.315,338.069" stroke-width="4.500" stroke="black" fill="none" stroke-linecap="round"></path><path d="M 312.315,338.069 C 294.983,345.444 294.726,344.836 277.159,351.659" stroke-width="4.500" stroke="black" fill="none" stroke-linecap="round"></path><path d="M 277.159,351.659 C 260.768,358.026 260.980,358.633 244.400,364.450" stroke-width="4.500" stroke="black" fill="none" stroke-linecap="round"></path><path d="M 244.400,364.450 C 230.218,369.425 230.108,369.171 215.635,373.243" stroke-width="4.500" stroke="black" fill="none" stroke-linecap="round"></path><path d="M 215.635,373.243 C 204.540,376.366 204.539,376.489 193.263,378.839" stroke-width="4.500" stroke="black" fill="none" stroke-linecap="round"></path><path d="M 193.263,378.839 C 185.363,380.486 185.299,380.265 177.283,381.237" stroke-width="4.500" stroke="black" fill="none" stroke-linecap="round"></path><path d="M 177.283,381.237 C 172.116,381.864 172.036,382.282 166.896,382.037" stroke-width="5.099" stroke="black" fill="none" stroke-linecap="round"></path><path d="M 28.669,193.377 C 30.667,198.574 30.507,198.644 32.664,203.770" stroke-width="8.587" stroke="black" fill="none" stroke-linecap="round"></path><path d="M 32.664,203.770 C 33.703,206.238 33.863,206.168 35.061,208.566" stroke-width="7.286" stroke="black" fill="none" stroke-linecap="round"></path><path d="M 35.061,208.566 C 36.260,210.964 36.188,211.003 37.458,213.363" stroke-width="6.969" stroke="black" fill="none" stroke-linecap="round"></path><path d="M 37.458,213.363 C 38.985,216.199 38.915,216.251 40.654,218.958" stroke-width="7.377" stroke="black" fill="none" stroke-linecap="round"></path><path d="M 40.654,218.958 C 42.510,221.847 44.649,224.918 44.649,224.554" stroke-width="7.427" stroke="black" fill="none" stroke-linecap="round"></path><path d="M 44.649,224.554 C 44.649,224.119 42.831,220.844 40.654,217.360" stroke-width="8.035" stroke="black" fill="none" stroke-linecap="round"></path><path d="M 40.654,217.360 C 38.836,214.449 38.503,214.662 36.659,211.764" stroke-width="6.732" stroke="black" fill="none" stroke-linecap="round"></path><path d="M 36.659,211.764 C 32.910,205.869 33.023,205.792 29.468,199.773" stroke-width="6.480" stroke="black" fill="none" stroke-linecap="round"></path><path d="M 29.468,199.773 C 27.830,196.998 27.870,196.975 26.272,194.177" stroke-width="6.512" stroke="black" fill="none" stroke-linecap="round"></path><path d="M 26.272,194.177 C 24.674,191.379 24.336,191.521 23.076,188.581" stroke-width="6.522" stroke="black" fill="none" stroke-linecap="round"></path><path d="M 23.076,188.581 C 21.939,185.926 22.333,185.766 21.478,182.985" stroke-width="6.649" stroke="black" fill="none" stroke-linecap="round"></path><path d="M 21.478,182.985 C 20.735,180.570 20.343,180.659 19.880,178.189" stroke-width="6.848" stroke="black" fill="none" stroke-linecap="round"></path><path d="M 19.880,178.189 C 19.145,174.264 18.476,174.030 19.081,170.195" stroke-width="7.172" stroke="black" fill="none" stroke-linecap="round"></path><path d="M 19.081,170.195 C 19.674,166.436 20.184,166.258 22.277,163.000" stroke-width="7.598" stroke="black" fill="none" stroke-linecap="round"></path><path d="M 22.277,163.000 C 23.780,160.662 24.275,161.002 26.272,159.003" stroke-width="6.987" stroke="black" fill="none" stroke-linecap="round"></path><path d="M 26.272,159.003 C 29.069,156.205 28.976,156.106 31.865,153.407" stroke-width="6.373" stroke="black" fill="none" stroke-linecap="round"></path><path d="M 31.865,153.407 C 34.968,150.510 35.061,150.609 38.257,147.811" stroke-width="6.108" stroke="black" fill="none" stroke-linecap="round"></path><path d="M 38.257,147.811 C 41.453,145.014 41.440,144.998 44.649,142.216" stroke-width="5.946" stroke="black" fill="none" stroke-linecap="round"></path><path d="M 44.649,142.216 C 47.433,139.802 47.431,139.799 50.242,137.419" stroke-width="6.175" stroke="black" fill="none" stroke-linecap="round"></path><path d="M 50.242,137.419 C 52.624,135.403 52.584,135.350 55.036,133.422" stroke-width="6.455" stroke="black" fill="none" stroke-linecap="round"></path><path d="M 43.850,202.171 C 48.644,198.174 48.543,198.043 53.438,194.177" stroke-width="8.326" stroke="black" fill="none" stroke-linecap="round"></path><path d="M 53.438,194.177 C 56.134,192.048 56.200,192.128 59.031,190.180" stroke-width="6.884" stroke="black" fill="none" stroke-linecap="round"></path><path d="M 80.604,156.605 C 76.609,160.202 75.660,159.581 72.614,163.800" stroke-width="8.493" stroke="black" fill="none" stroke-linecap="round"></path><path d="M 72.614,163.800 C 70.466,166.775 70.867,167.308 70.217,170.994" stroke-width="7.666" stroke="black" fill="none" stroke-linecap="round"></path><path d="M 70.217,170.994 C 69.669,174.103 69.421,174.403 70.217,177.389" stroke-width="7.602" stroke="black" fill="none" stroke-linecap="round"></path><path d="M 70.217,177.389 C 71.019,180.399 71.384,180.549 73.413,182.985" stroke-width="7.551" stroke="black" fill="none" stroke-linecap="round"></path><path d="M 73.413,182.985 C 75.379,185.345 75.459,185.699 78.207,186.982" stroke-width="7.588" stroke="black" fill="none" stroke-linecap="round"></path><path d="M 78.207,186.982 C 81.451,188.497 81.767,188.390 85.398,188.581" stroke-width="7.454" stroke="black" fill="none" stroke-linecap="round"></path><path d="M 85.398,188.581 C 89.357,188.790 90.285,189.556 93.388,187.782" stroke-width="7.332" stroke="black" fill="none" stroke-linecap="round"></path><path d="M 93.388,187.782 C 95.878,186.358 95.520,185.167 96.584,182.186" stroke-width="7.781" stroke="black" fill="none" stroke-linecap="round"></path><path d="M 96.584,182.186 C 97.518,179.571 97.557,179.366 97.383,176.590" stroke-width="7.736" stroke="black" fill="none" stroke-linecap="round"></path><path d="M 97.383,176.590 C 97.157,172.971 97.168,172.754 95.785,169.395" stroke-width="7.495" stroke="black" fill="none" stroke-linecap="round"></path><path d="M 95.785,169.395 C 94.371,165.959 94.527,165.347 91.790,163.000" stroke-width="7.405" stroke="black" fill="none" stroke-linecap="round"></path><path d="M 91.790,163.000 C 88.934,160.551 88.347,160.685 84.599,159.803" stroke-width="7.337" stroke="black" fill="none" stroke-linecap="round"></path><path d="M 98.182,147.583 C 98.582,142.387 97.232,141.691 98.981,137.191" stroke-width="8.646" stroke="black" fill="none" stroke-linecap="round"></path><path d="M 98.981,137.191 C 100.029,134.496 101.012,134.181 103.775,133.194" stroke-width="8.197" stroke="black" fill="none" stroke-linecap="round"></path><path d="M 103.775,133.194 C 106.605,132.183 107.044,132.747 110.167,133.194" stroke-width="8.056" stroke="black" fill="none" stroke-linecap="round"></path><path d="M 110.167,133.194 C 112.637,133.547 112.848,133.492 114.961,134.793" stroke-width="7.900" stroke="black" fill="none" stroke-linecap="round"></path><path d="M 114.961,134.793 C 118.042,136.689 117.959,136.992 120.554,139.589" stroke-width="7.861" stroke="black" fill="none" stroke-linecap="round"></path><path d="M 120.554,139.589 C 122.753,141.789 122.830,141.805 124.549,144.385" stroke-width="7.654" stroke="black" fill="none" stroke-linecap="round"></path><path d="M 124.549,144.385 C 126.026,146.602 126.492,149.939 126.946,149.182" stroke-width="7.759" stroke="black" fill="none" stroke-linecap="round"></path><path d="M 126.946,149.182 C 127.691,147.940 127.190,144.768 126.946,140.388" stroke-width="8.301" stroke="black" fill="none" stroke-linecap="round"></path><path d="M 126.946,140.388 C 126.790,137.573 126.335,137.606 126.147,134.793" stroke-width="7.154" stroke="black" fill="none" stroke-linecap="round"></path><path d="M 126.147,134.793 C 125.935,131.610 126.359,131.580 126.147,128.397" stroke-width="6.713" stroke="black" fill="none" stroke-linecap="round"></path><path d="M 126.147,128.397 C 125.960,125.584 125.549,125.614 125.348,122.802" stroke-width="6.742" stroke="black" fill="none" stroke-linecap="round"></path><path d="M 125.348,122.802 C 125.150,120.018 125.512,119.995 125.348,117.206" stroke-width="6.828" stroke="black" fill="none" stroke-linecap="round"></path><path d="M 125.348,117.206 C 125.113,113.200 124.785,113.217 124.549,109.212" stroke-width="7.165" stroke="black" fill="none" stroke-linecap="round"></path><path d="M 146.122,106.813 C 149.718,110.810 149.647,110.877 153.313,114.807" stroke-width="8.694" stroke="black" fill="none" stroke-linecap="round"></path><path d="M 153.313,114.807 C 155.240,116.873 157.141,119.473 157.308,118.804" stroke-width="8.271" stroke="black" fill="none" stroke-linecap="round"></path><path d="M 157.308,118.804 C 157.541,117.874 155.639,115.237 154.112,111.610" stroke-width="8.469" stroke="black" fill="none" stroke-linecap="round"></path><path d="M 154.112,111.610 C 152.443,107.643 152.347,107.670 150.916,103.616" stroke-width="7.525" stroke="black" fill="none" stroke-linecap="round"></path><path d="M 150.916,103.616 C 149.950,100.875 149.926,100.859 149.318,98.020" stroke-width="7.636" stroke="black" fill="none" stroke-linecap="round"></path><path d="M 149.318,98.020 C 148.728,95.263 148.323,95.181 148.519,92.424" stroke-width="7.645" stroke="black" fill="none" stroke-linecap="round"></path><path d="M 148.519,92.424 C 148.722,89.586 148.407,87.898 150.117,86.828" stroke-width="7.954" stroke="black" fill="none" stroke-linecap="round"></path><path d="M 150.117,86.828 C 151.603,85.899 152.631,87.362 154.911,88.427" stroke-width="8.127" stroke="black" fill="none" stroke-linecap="round"></path><path d="M 154.911,88.427 C 158.624,90.160 158.654,90.206 162.102,92.424" stroke-width="7.458" stroke="black" fill="none" stroke-linecap="round"></path><path d="M 162.102,92.424 C 164.247,93.804 164.086,94.041 166.097,95.622" stroke-width="7.071" stroke="black" fill="none" stroke-linecap="round"></path><path d="M 166.097,95.622 C 169.679,98.437 169.732,98.371 173.288,101.218" stroke-width="7.090" stroke="black" fill="none" stroke-linecap="round"></path><path d="M 173.288,101.218 C 175.725,103.167 177.458,106.308 178.082,105.215" stroke-width="7.465" stroke="black" fill="none" stroke-linecap="round"></path><path d="M 178.082,105.215 C 179.056,103.510 177.536,100.356 176.484,95.622" stroke-width="8.095" stroke="black" fill="none" stroke-linecap="round"></path><path d="M 176.484,95.622 C 175.938,93.161 175.685,93.224 174.886,90.825" stroke-width="7.173" stroke="black" fill="none" stroke-linecap="round"></path><path d="M 174.886,90.825 C 174.087,88.427 173.964,88.463 173.288,86.029" stroke-width="7.006" stroke="black" fill="none" stroke-linecap="round"></path><path d="M 173.288,86.029 C 171.967,81.268 171.859,81.276 170.891,76.436" stroke-width="6.982" stroke="black" fill="none" stroke-linecap="round"></path><path d="M 170.891,76.436 C 170.261,73.282 169.078,72.681 170.092,70.041" stroke-width="7.381" stroke="black" fill="none" stroke-linecap="round"></path><path d="M 170.092,70.041 C 171.075,67.484 172.322,65.884 174.886,66.044" stroke-width="8.118" stroke="black" fill="none" stroke-linecap="round"></path><path d="M 174.886,66.044 C 178.714,66.283 178.973,68.302 182.876,70.840" stroke-width="7.350" stroke="black" fill="none" stroke-linecap="round"></path><path d="M 182.876,70.840 C 186.963,73.498 187.135,73.325 190.866,76.436" stroke-width="7.129" stroke="black" fill="none" stroke-linecap="round"></path><path d="M 190.866,76.436 C 194.326,79.320 194.197,79.513 197.258,82.831" stroke-width="7.084" stroke="black" fill="none" stroke-linecap="round"></path><path d="M 197.258,82.831 C 198.991,84.709 199.038,84.703 200.454,86.828" stroke-width="6.967" stroke="black" fill="none" stroke-linecap="round"></path><path d="M 200.454,86.828 C 203.033,90.699 202.780,90.871 205.248,94.822" stroke-width="7.064" stroke="black" fill="none" stroke-linecap="round"></path><path d="M 222.826,46.858 C 217.633,47.258 217.415,46.472 212.439,47.658" stroke-width="8.557" stroke="black" fill="none" stroke-linecap="round"></path><path d="M 212.439,47.658 C 209.026,48.471 208.841,48.759 206.047,50.855" stroke-width="7.741" stroke="black" fill="none" stroke-linecap="round"></path><path d="M 206.047,50.855 C 204.047,52.356 203.736,52.552 202.851,54.852" stroke-width="7.798" stroke="black" fill="none" stroke-linecap="round"></path><path d="M 202.851,54.852 C 201.738,57.748 201.453,58.249 202.052,61.247" stroke-width="7.906" stroke="black" fill="none" stroke-linecap="round"></path><path d="M 202.052,61.247 C 202.652,64.245 203.333,64.288 205.248,66.843" stroke-width="7.665" stroke="black" fill="none" stroke-linecap="round"></path><path d="M 205.248,66.843 C 206.928,69.084 206.950,69.252 209.243,70.840" stroke-width="7.140" stroke="black" fill="none" stroke-linecap="round"></path><path d="M 209.243,70.840 C 212.144,72.849 212.289,72.922 215.635,74.038" stroke-width="7.345" stroke="black" fill="none" stroke-linecap="round"></path><path d="M 215.635,74.038 C 218.281,74.920 218.923,75.676 221.228,74.837" stroke-width="7.602" stroke="black" fill="none" stroke-linecap="round"></path><path d="M 221.228,74.837 C 223.317,74.077 223.894,73.140 224.425,70.840" stroke-width="8.129" stroke="black" fill="none" stroke-linecap="round"></path><path d="M 224.425,70.840 C 225.093,67.944 224.255,67.596 223.625,64.445" stroke-width="8.031" stroke="black" fill="none" stroke-linecap="round"></path><path d="M 223.625,64.445 C 223.057,61.600 223.004,61.584 222.027,58.849" stroke-width="7.786" stroke="black" fill="none" stroke-linecap="round"></path><path d="M 222.027,58.849 C 221.006,55.988 218.532,54.536 219.630,53.253" stroke-width="7.962" stroke="black" fill="none" stroke-linecap="round"></path><path d="M 219.630,53.253 C 220.929,51.738 223.436,52.362 226.822,53.253" stroke-width="8.365" stroke="black" fill="none" stroke-linecap="round"></path><path d="M 226.822,53.253 C 231.027,54.361 230.860,55.170 234.811,57.250" stroke-width="7.424" stroke="black" fill="none" stroke-linecap="round"></path><path d="M 234.811,57.250 C 238.450,59.167 238.327,59.409 242.003,61.247" stroke-width="7.269" stroke="black" fill="none" stroke-linecap="round"></path><path d="M 242.003,61.247 C 245.518,63.006 245.544,62.985 249.194,64.445" stroke-width="7.324" stroke="black" fill="none" stroke-linecap="round"></path><path d="M 219.630,30.870 C 224.824,31.670 225.064,30.982 230.017,32.469" stroke-width="8.713" stroke="black" fill="none" stroke-linecap="round"></path><path d="M 230.017,32.469 C 233.054,33.380 232.905,33.926 235.611,35.667" stroke-width="7.877" stroke="black" fill="none" stroke-linecap="round"></path><path d="M 235.611,35.667 C 238.498,37.523 238.481,37.569 241.203,39.664" stroke-width="7.599" stroke="black" fill="none" stroke-linecap="round"></path><path d="M 241.203,39.664 C 243.675,41.566 243.691,41.563 245.998,43.661" stroke-width="7.603" stroke="black" fill="none" stroke-linecap="round"></path><path d="M 245.998,43.661 C 248.086,45.560 248.281,45.432 249.993,47.658" stroke-width="7.683" stroke="black" fill="none" stroke-linecap="round"></path><path d="M 249.993,47.658 C 252.276,50.628 252.219,50.735 253.988,54.053" stroke-width="7.779" stroke="black" fill="none" stroke-linecap="round"></path><path d="M 253.988,54.053 C 255.415,56.731 255.425,56.770 256.385,59.649" stroke-width="7.960" stroke="black" fill="none" stroke-linecap="round"></path><path d="M 256.385,59.649 C 257.423,62.766 257.377,62.810 257.983,66.044" stroke-width="7.979" stroke="black" fill="none" stroke-linecap="round"></path><path d="M 257.983,66.044 C 258.575,69.205 258.782,69.241 258.782,72.439" stroke-width="7.987" stroke="black" fill="none" stroke-linecap="round"></path><path d="M 258.782,72.439 C 258.782,75.637 258.804,75.751 257.983,78.834" stroke-width="7.989" stroke="black" fill="none" stroke-linecap="round"></path><path d="M 257.983,78.834 C 257.206,81.747 256.860,81.667 255.586,84.430" stroke-width="7.712" stroke="black" fill="none" stroke-linecap="round"></path><path d="M 255.586,84.430 C 254.463,86.864 254.459,86.867 253.189,89.227" stroke-width="7.776" stroke="black" fill="none" stroke-linecap="round"></path></svg>