<svg xmlns="http://www.w3.org/2000/svg" xmlns:xlink="http://www.w3.org/1999/xlink" viewBox="0 0 576 416" width="576" height="416"><path d="M 26.272,140.388 C 26.672,145.984 26.252,146.047 27.071,151.580" stroke-width="8.332" stroke="black" fill="none" stroke-linecap="round"></path><path d="M 27.071,151.580 C 27.850,156.839 28.052,156.835 29.468,161.972" stroke-width="6.151" stroke="black" fill="none" stroke-linecap="round"></path><path d="M 29.468,161.972 C 31.248,168.427 31.797,168.281 33.463,174.763" stroke-width="5.323" stroke="black" fill="none" stroke-linecap="round"></path><path d="M 33.463,174.763 C 35.393,182.271 35.323,182.311 36.659,189.951" stroke-width="4.875" stroke="black" fill="none" stroke-linecap="round"></path><path d="M 36.659,189.951 C 38.119,198.299 38.100,198.317 39.056,206.739" stroke-width="4.509" stroke="black" fill="none" stroke-linecap="round"></path><path d="M 39.056,206.739 C 40.097,215.904 40.054,215.919 40.654,225.125" stroke-width="4.838" stroke="black" fill="none" stroke-linecap="round"></path><path d="M 40.654,225.125 C 41.253,234.305 41.249,234.314 41.453,243.511" stroke-width="4.500" stroke="black" fill="none" stroke-linecap="round"></path><path d="M 41.453,243.511 C 41.648,252.301 41.036,252.326 41.453,261.098" stroke-width="4.500" stroke="black" fill="none" stroke-linecap="round"></path><path d="M 41.453,261.098 C 41.835,269.113 42.402,269.080 43.051,277.086" stroke-width="4.558" stroke="black" fill="none" stroke-linecap="round"></path><path d="M 43.051,277.086 C 43.601,283.869 43.008,283.933 43.850,290.676" stroke-width="4.767" stroke="black" fill="none" stroke-linecap="round"></path><path d="M 43.850,290.676 C 45.005,299.921 45.650,299.842 47.046,309.063" stroke-width="4.606" stroke="black" fill="none" stroke-linecap="round"></path><path d="M 47.046,309.063 C 47.647,313.032 47.023,313.150 47.845,317.057" stroke-width="5.630" stroke="black" fill="none" stroke-linecap="round"></path><path d="M 47.845,317.057 C 48.621,320.744 49.504,324.621 50.242,324.251" stroke-width="6.738" stroke="black" fill="none" stroke-linecap="round"></path><path d="M 50.242,324.251 C 51.102,323.821 50.388,319.815 51.041,315.458" stroke-width="7.750" stroke="black" fill="none" stroke-linecap="round"></path><path d="M 51.041,315.458 C 51.586,311.821 51.746,311.837 52.639,308.263" stroke-width="6.657" stroke="black" fill="none" stroke-linecap="round"></path><path d="M 52.639,308.263 C 53.744,303.843 53.710,303.828 55.036,299.470" stroke-width="6.078" stroke="black" fill="none" stroke-linecap="round"></path><path d="M 55.036,299.470 C 56.507,294.635 56.358,294.564 58.232,289.877" stroke-width="5.767" stroke="black" fill="none" stroke-linecap="round"></path><path d="M 58.232,289.877 C 60.353,284.571 60.799,284.752 63.026,279.485" stroke-width="5.490" stroke="black" fill="none" stroke-linecap="round"></path><path d="M 63.026,279.485 C 65.193,274.360 64.621,274.095 67.021,269.092" stroke-width="5.454" stroke="black" fill="none" stroke-linecap="round"></path><path d="M 67.021,269.092 C 69.415,264.103 69.972,264.379 72.614,259.499" stroke-width="5.447" stroke="black" fill="none" stroke-linecap="round"></path><path d="M 72.614,259.499 C 75.166,254.787 74.774,254.569 77.408,249.907" stroke-width="5.497" stroke="black" fill="none" stroke-linecap="round"></path><path d="M 77.408,249.907 C 79.968,245.376 80.205,245.510 83.001,241.113" stroke-width="5.555" stroke="black" fill="none" stroke-linecap="round"></path><path d="M 83.001,241.113 C 85.798,236.716 85.756,236.689 88.594,232.320" stroke-width="5.572" stroke="black" fill="none" stroke-linecap="round"></path><path d="M 88.594,232.320 C 90.949,228.695 90.676,228.464 93.388,225.125" stroke-width="5.842" stroke="black" fill="none" stroke-linecap="round"></path><path d="M 93.388,225.125 C 95.870,222.069 96.085,222.220 98.981,219.529" stroke-width="6.049" stroke="black" fill="none" stroke-linecap="round"></path><path d="M 98.981,219.529 C 101.678,217.024 101.681,217.007 104.574,214.733" stroke-width="6.208" stroke="black" fill="none" stroke-linecap="round"></path><path d="M 104.574,214.733 C 107.274,212.611 107.258,212.555 110.167,210.736" stroke-width="6.347" stroke="black" fill="none" stroke-linecap="round"></path><path d="M 110.167,210.736 C 113.650,208.558 116.127,206.739 117.358,206.739" stroke-width="6.951" stroke="black" fill="none" stroke-linecap="round"></path><path d="M 117.358,206.739 C 118.124,206.739 116.154,209.203 114.162,210.736" stroke-width="7.961" stroke="black" fill="none" stroke-linecap="round"></path><path d="M 114.162,210.736 C 110.960,213.200 110.530,212.671 106.971,214.733" stroke-width="6.531" stroke="black" fill="none" stroke-linecap="round"></path><path d="M 106.971,214.733 C 102.940,217.068 102.853,216.947 98.981,219.529" stroke-width="6.012" stroke="black" fill="none" stroke-linecap="round"></path><path d="M 98.981,219.529 C 95.662,221.744 95.707,221.830 92.589,224.326" stroke-width="6.165" stroke="black" fill="none" stroke-linecap="round"></path><path d="M 92.589,224.326 C 89.715,226.627 89.593,226.524 86.996,229.122" stroke-width="6.163" stroke="black" fill="none" stroke-linecap="round"></path><path d="M 86.996,229.122 C 84.399,231.720 84.171,231.654 82.202,234.718" stroke-width="6.243" stroke="black" fill="none" stroke-linecap="round"></path><path d="M 82.202,234.718 C 80.576,237.250 80.581,237.402 79.805,240.314" stroke-width="6.507" stroke="black" fill="none" stroke-linecap="round"></path><path d="M 79.805,240.314 C 78.983,243.397 79.207,243.499 79.006,246.709" stroke-width="6.520" stroke="black" fill="none" stroke-linecap="round"></path><path d="M 79.006,246.709 C 78.807,249.894 78.387,250.007 79.006,253.104" stroke-width="6.604" stroke="black" fill="none" stroke-linecap="round"></path><path d="M 79.006,253.104 C 79.985,258.001 80.476,257.948 82.202,262.697" stroke-width="6.801" stroke="black" fill="none" stroke-linecap="round"></path><path d="M 82.202,262.697 C 83.672,266.741 83.634,266.769 85.398,270.691" stroke-width="6.201" stroke="black" fill="none" stroke-linecap="round"></path><path d="M 85.398,270.691 C 87.230,274.763 87.396,274.688 89.393,278.685" stroke-width="5.986" stroke="black" fill="none" stroke-linecap="round"></path><path d="M 89.393,278.685 C 91.391,282.682 91.468,282.645 93.388,286.679" stroke-width="5.837" stroke="black" fill="none" stroke-linecap="round"></path><path d="M 93.388,286.679 C 95.463,291.039 95.386,291.076 97.383,295.473" stroke-width="5.927" stroke="black" fill="none" stroke-linecap="round"></path><path d="M 97.383,295.473 C 99.381,299.869 99.303,299.906 101.378,304.266" stroke-width="5.703" stroke="black" fill="none" stroke-linecap="round"></path><path d="M 101.378,304.266 C 103.298,308.300 103.293,308.306 105.373,312.260" stroke-width="5.753" stroke="black" fill="none" stroke-linecap="round"></path><path d="M 105.373,312.260 C 107.288,315.901 107.444,315.819 109.368,319.455" stroke-width="6.043" stroke="black" fill="none" stroke-linecap="round"></path><path d="M 109.368,319.455 C 111.040,322.614 110.795,322.752 112.564,325.850" stroke-width="6.245" stroke="black" fill="none" stroke-linecap="round"></path><path d="M 112.564,325.850 C 113.991,328.348 114.334,328.149 115.760,330.646" stroke-width="6.500" stroke="black" fill="none" stroke-linecap="round"></path><path d="M 129.343,153.978 C 130.542,158.775 130.500,158.785 131.740,163.571" stroke-width="8.201" stroke="black" fill="none" stroke-linecap="round"></path><path d="M 131.740,163.571 C 133.297,169.577 133.392,169.553 134.936,175.562" stroke-width="5.843" stroke="black" fill="none" stroke-linecap="round"></path><path d="M 134.936,175.562 C 136.987,183.542 137.066,183.525 138.931,191.550" stroke-width="4.992" stroke="black" fill="none" stroke-linecap="round"></path><path d="M 138.931,191.550 C 141.061,200.712 141.009,200.727 142.926,209.936" stroke-width="4.500" stroke="black" fill="none" stroke-linecap="round"></path><path d="M 142.926,209.936 C 145.004,219.912 144.924,219.929 146.921,229.922" stroke-width="4.500" stroke="black" fill="none" stroke-linecap="round"></path><path d="M 146.921,229.922 C 148.919,239.914 149.023,239.895 150.916,249.907" stroke-width="4.500" stroke="black" fill="none" stroke-linecap="round"></path><path d="M 150.916,249.907 C 151.820,254.684 151.846,254.684 152.514,259.499" stroke-width="5.268" stroke="black" fill="none" stroke-linecap="round"></path><path d="M 152.514,259.499 C 153.843,269.073 153.662,269.099 154.911,278.685" stroke-width="4.500" stroke="black" fill="none" stroke-linecap="round"></path><path d="M 154.911,278.685 C 156.059,287.485 156.054,287.487 157.308,296.272" stroke-width="4.500" stroke="black" fill="none" stroke-linecap="round"></path><path d="M 157.308,296.272 C 158.451,304.274 158.594,304.254 159.705,312.260" stroke-width="4.555" stroke="black" fill="none" stroke-linecap="round"></path><path d="M 159.705,312.260 C 160.591,318.643 160.572,318.648 161.303,325.051" stroke-width="4.847" stroke="black" fill="none" stroke-linecap="round"></path><path d="M 161.303,325.051 C 162.170,332.637 162.059,332.650 162.901,340.239" stroke-width="4.772" stroke="black" fill="none" stroke-linecap="round"></path><path d="M 162.901,340.239 C 163.257,343.442 163.700,346.421 163.700,346.634" stroke-width="5.878" stroke="black" fill="none" stroke-linecap="round"></path><path d="M 163.700,346.634 C 163.700,346.821 163.077,343.852 162.901,341.039" stroke-width="7.543" stroke="black" fill="none" stroke-linecap="round"></path><path d="M 162.901,341.039 C 162.678,337.457 162.713,337.432 162.901,333.844" stroke-width="6.728" stroke="black" fill="none" stroke-linecap="round"></path><path d="M 162.901,333.844 C 163.112,329.838 163.133,329.823 163.700,325.850" stroke-width="6.195" stroke="black" fill="none" stroke-linecap="round"></path><path d="M 163.700,325.850 C 164.332,321.430 164.309,321.410 165.298,317.057" stroke-width="5.985" stroke="black" fill="none" stroke-linecap="round"></path><path d="M 165.298,317.057 C 166.307,312.617 166.257,312.580 167.695,308.263" stroke-width="5.896" stroke="black" fill="none" stroke-linecap="round"></path><path d="M 167.695,308.263 C 169.054,304.186 169.222,304.236 170.891,300.269" stroke-width="5.951" stroke="black" fill="none" stroke-linecap="round"></path><path d="M 170.891,300.269 C 172.418,296.642 172.082,296.418 174.087,293.074" stroke-width="6.090" stroke="black" fill="none" stroke-linecap="round"></path><path d="M 174.087,293.074 C 175.678,290.423 175.797,290.356 178.082,288.278" stroke-width="6.427" stroke="black" fill="none" stroke-linecap="round"></path><path d="M 178.082,288.278 C 180.192,286.359 180.322,286.358 182.876,285.080" stroke-width="6.630" stroke="black" fill="none" stroke-linecap="round"></path><path d="M 182.876,285.080 C 185.116,283.960 185.205,283.861 187.670,283.482" stroke-width="6.843" stroke="black" fill="none" stroke-linecap="round"></path><path d="M 187.670,283.482 C 190.399,283.062 190.752,282.504 193.263,283.482" stroke-width="6.793" stroke="black" fill="none" stroke-linecap="round"></path><path d="M 193.263,283.482 C 197.943,285.302 197.939,285.930 202.052,289.077" stroke-width="6.860" stroke="black" fill="none" stroke-linecap="round"></path><path d="M 202.052,289.077 C 204.730,291.126 204.828,291.181 206.846,293.874" stroke-width="6.631" stroke="black" fill="none" stroke-linecap="round"></path><path d="M 206.846,293.874 C 209.622,297.576 209.482,297.746 211.640,301.868" stroke-width="5.941" stroke="black" fill="none" stroke-linecap="round"></path><path d="M 211.640,301.868 C 213.877,306.139 214.056,306.119 215.635,310.661" stroke-width="5.798" stroke="black" fill="none" stroke-linecap="round"></path><path d="M 215.635,310.661 C 217.252,315.312 216.879,315.447 218.032,320.254" stroke-width="5.722" stroke="black" fill="none" stroke-linecap="round"></path><path d="M 218.032,320.254 C 219.276,325.439 219.186,325.461 220.429,330.646" stroke-width="5.587" stroke="black" fill="none" stroke-linecap="round"></path><path d="M 220.429,330.646 C 221.583,335.454 221.945,335.388 222.826,340.239" stroke-width="5.740" stroke="black" fill="none" stroke-linecap="round"></path><path d="M 222.826,340.239 C 223.543,344.181 222.842,344.312 223.625,348.233" stroke-width="5.995" stroke="black" fill="none" stroke-linecap="round"></path><path d="M 223.625,348.233 C 224.440,352.306 224.779,352.245 226.022,356.227" stroke-width="5.939" stroke="black" fill="none" stroke-linecap="round"></path><path d="M 226.022,356.227 C 226.776,358.640 226.821,358.626 227.620,361.024" stroke-width="6.604" stroke="black" fill="none" stroke-linecap="round"></path><path d="M 230.816,285.880 C 233.613,290.676 234.025,290.483 236.410,295.473" stroke-width="8.539" stroke="black" fill="none" stroke-linecap="round"></path><path d="M 236.410,295.473 C 238.419,299.676 238.008,299.869 239.605,304.266" stroke-width="6.422" stroke="black" fill="none" stroke-linecap="round"></path><path d="M 239.605,304.266 C 241.203,308.663 240.872,308.812 242.802,313.060" stroke-width="5.977" stroke="black" fill="none" stroke-linecap="round"></path><path d="M 242.802,313.060 C 244.867,317.606 245.050,317.544 247.596,321.853" stroke-width="5.840" stroke="black" fill="none" stroke-linecap="round"></path><path d="M 247.596,321.853 C 250.244,326.337 249.890,326.652 253.189,330.646" stroke-width="5.459" stroke="black" fill="none" stroke-linecap="round"></path><path d="M 253.189,330.646 C 257.481,335.845 257.555,336.010 262.777,340.239" stroke-width="6.072" stroke="black" fill="none" stroke-linecap="round"></path><path d="M 262.777,340.239 C 265.944,342.805 266.196,342.683 269.968,344.236" stroke-width="6.067" stroke="black" fill="none" stroke-linecap="round"></path><path d="M 269.968,344.236 C 272.988,345.480 273.118,345.403 276.360,345.835" stroke-width="6.279" stroke="black" fill="none" stroke-linecap="round"></path><path d="M 276.360,345.835 C 279.111,346.202 279.444,346.732 281.953,345.835" stroke-width="6.679" stroke="black" fill="none" stroke-linecap="round"></path><path d="M 281.953,345.835 C 285.037,344.733 285.767,344.588 287.546,341.838" stroke-width="7.248" stroke="black" fill="none" stroke-linecap="round"></path><path d="M 287.546,341.838 C 290.162,337.793 289.763,337.142 290.742,332.245" stroke-width="7.027" stroke="black" fill="none" stroke-linecap="round"></path><path d="M 290.742,332.245 C 291.361,329.148 290.742,329.048 290.742,325.850" stroke-width="6.679" stroke="black" fill="none" stroke-linecap="round"></path><path d="M 290.742,325.850 C 290.742,323.052 290.742,323.052 290.742,320.254" stroke-width="6.808" stroke="black" fill="none" stroke-linecap="round"></path><path d="M 290.742,320.254 C 290.742,317.456 290.742,317.456 290.742,314.658" stroke-width="6.848" stroke="black" fill="none" stroke-linecap="round"></path><path d="M 290.742,314.658 C 290.742,311.860 290.916,311.851 290.742,309.063" stroke-width="6.860" stroke="black" fill="none" stroke-linecap="round"></path><path d="M 290.742,309.063 C 290.516,305.456 289.195,301.868 289.943,301.868" stroke-width="7.189" stroke="black" fill="none" stroke-linecap="round"></path><path d="M 289.943,301.868 C 290.793,301.868 292.351,305.292 293.938,309.063" stroke-width="7.872" stroke="black" fill="none" stroke-linecap="round"></path><path d="M 293.938,309.063 C 295.547,312.886 295.120,313.064 296.335,317.057" stroke-width="6.490" stroke="black" fill="none" stroke-linecap="round"></path><path d="M 296.335,317.057 C 297.917,322.258 297.933,322.253 299.531,327.449" stroke-width="5.756" stroke="black" fill="none" stroke-linecap="round"></path><path d="M 299.531,327.449 C 301.129,332.645 301.129,332.645 302.727,337.841" stroke-width="5.654" stroke="black" fill="none" stroke-linecap="round"></path><path d="M 302.727,337.841 C 304.325,343.037 304.084,343.124 305.923,348.233" stroke-width="5.538" stroke="black" fill="none" stroke-linecap="round"></path><path d="M 305.923,348.233 C 307.680,353.117 307.680,353.145 309.918,357.826" stroke-width="5.480" stroke="black" fill="none" stroke-linecap="round"></path><path d="M 309.918,357.826 C 312.074,362.338 312.176,362.307 314.712,366.620" stroke-width="5.607" stroke="black" fill="none" stroke-linecap="round"></path><path d="M 314.712,366.620 C 316.171,369.102 316.310,369.018 317.908,371.416" stroke-width="6.343" stroke="black" fill="none" stroke-linecap="round"></path><path d="M 303.526,185.155 C 305.923,194.348 306.065,194.313 308.320,203.541" stroke-width="7.580" stroke="black" fill="none" stroke-linecap="round"></path><path d="M 308.320,203.541 C 310.460,212.300 310.089,212.392 312.315,221.128" stroke-width="5.121" stroke="black" fill="none" stroke-linecap="round"></path><path d="M 312.315,221.128 C 315.282,232.777 315.746,232.660 318.707,244.311" stroke-width="4.500" stroke="black" fill="none" stroke-linecap="round"></path><path d="M 318.707,244.311 C 321.738,256.242 321.315,256.349 324.300,268.293" stroke-width="4.500" stroke="black" fill="none" stroke-linecap="round"></path><path d="M 324.300,268.293 C 327.707,281.930 327.178,282.116 331.491,295.473" stroke-width="4.500" stroke="black" fill="none" stroke-linecap="round"></path><path d="M 331.491,295.473 C 335.567,308.096 336.011,307.980 341.079,320.254" stroke-width="4.500" stroke="black" fill="none" stroke-linecap="round"></path><path d="M 341.079,320.254 C 343.602,326.366 343.655,326.360 346.672,332.245" stroke-width="4.500" stroke="black" fill="none" stroke-linecap="round"></path><path d="M 346.672,332.245 C 351.645,341.949 351.970,341.784 357.059,351.431" stroke-width="4.500" stroke="black" fill="none" stroke-linecap="round"></path><path d="M 357.059,351.431 C 359.560,356.173 363.140,363.402 361.853,361.024" stroke-width="4.945" stroke="black" fill="none" stroke-linecap="round"></path><path d="M 398.607,269.892 C 396.210,275.488 395.434,275.291 393.813,281.083" stroke-width="8.347" stroke="black" fill="none" stroke-linecap="round"></path><path d="M 393.813,281.083 C 392.637,285.284 393.380,285.477 393.014,289.877" stroke-width="6.489" stroke="black" fill="none" stroke-linecap="round"></path><path d="M 393.014,289.877 C 392.581,295.070 391.834,295.125 392.215,300.269" stroke-width="5.915" stroke="black" fill="none" stroke-linecap="round"></path><path d="M 392.215,300.269 C 392.633,305.917 392.870,306.038 394.612,311.461" stroke-width="5.431" stroke="black" fill="none" stroke-linecap="round"></path><path d="M 394.612,311.461 C 396.465,317.229 396.451,317.373 399.406,322.652" stroke-width="5.387" stroke="black" fill="none" stroke-linecap="round"></path><path d="M 399.406,322.652 C 402.044,327.366 401.994,327.640 405.798,331.446" stroke-width="5.542" stroke="black" fill="none" stroke-linecap="round"></path><path d="M 405.798,331.446 C 410.384,336.034 410.560,336.492 416.185,339.440" stroke-width="6.106" stroke="black" fill="none" stroke-linecap="round"></path><path d="M 416.185,339.440 C 418.949,340.889 419.625,340.872 422.577,340.239" stroke-width="6.320" stroke="black" fill="none" stroke-linecap="round"></path><path d="M 422.577,340.239 C 425.218,339.673 426.305,339.353 427.371,337.042" stroke-width="7.203" stroke="black" fill="none" stroke-linecap="round"></path><path d="M 427.371,337.042 C 428.702,334.156 428.007,333.349 427.371,329.847" stroke-width="6.846" stroke="black" fill="none" stroke-linecap="round"></path><path d="M 427.371,329.847 C 426.409,324.555 426.518,324.311 424.175,319.455" stroke-width="5.619" stroke="black" fill="none" stroke-linecap="round"></path><path d="M 424.175,319.455 C 420.925,312.719 420.864,312.516 416.185,306.664" stroke-width="5.093" stroke="black" fill="none" stroke-linecap="round"></path><path d="M 416.185,306.664 C 411.276,300.525 411.122,300.413 404.999,295.473" stroke-width="4.783" stroke="black" fill="none" stroke-linecap="round"></path><path d="M 404.999,295.473 C 398.737,290.421 398.348,290.841 391.416,286.679" stroke-width="4.661" stroke="black" fill="none" stroke-linecap="round"></path><path d="M 391.416,286.679 C 384.366,282.447 384.283,282.571 377.034,278.685" stroke-width="4.599" stroke="black" fill="none" stroke-linecap="round"></path><path d="M 377.034,278.685 C 373.097,276.575 373.039,276.687 369.044,274.688" stroke-width="5.506" stroke="black" fill="none" stroke-linecap="round"></path><path d="M 475.311,323.452 C 469.718,317.856 470.402,316.782 464.125,312.260" stroke-width="7.855" stroke="black" fill="none" stroke-linecap="round"></path><path d="M 464.125,312.260 C 460.415,309.587 459.831,310.289 455.336,309.063" stroke-width="6.299" stroke="black" fill="none" stroke-linecap="round"></path><path d="M 455.336,309.063 C 451.042,307.891 450.977,307.867 446.547,307.464" stroke-width="6.014" stroke="black" fill="none" stroke-linecap="round"></path><path d="M 446.547,307.464 C 442.188,307.067 442.007,306.755 437.758,307.464" stroke-width="5.957" stroke="black" fill="none" stroke-linecap="round"></path><path d="M 437.758,307.464 C 434.816,307.954 434.651,308.204 432.165,309.862" stroke-width="6.411" stroke="black" fill="none" stroke-linecap="round"></path><path d="M 432.165,309.862 C 429.856,311.402 429.672,311.521 428.170,313.859" stroke-width="6.648" stroke="black" fill="none" stroke-linecap="round"></path><path d="M 428.170,313.859 C 426.077,317.116 425.908,317.315 424.974,321.054" stroke-width="7.069" stroke="black" fill="none" stroke-linecap="round"></path><path d="M 424.974,321.054 C 424.310,323.711 424.231,324.049 424.974,326.649" stroke-width="6.783" stroke="black" fill="none" stroke-linecap="round"></path><path d="M 424.974,326.649 C 425.829,329.644 426.043,329.924 428.170,332.245" stroke-width="6.522" stroke="black" fill="none" stroke-linecap="round"></path><path d="M 428.170,332.245 C 430.438,334.721 430.740,334.650 433.763,336.242" stroke-width="6.515" stroke="black" fill="none" stroke-linecap="round"></path><path d="M 433.763,336.242 C 438.331,338.647 438.501,339.777 443.351,340.239" stroke-width="6.012" stroke="black" fill="none" stroke-linecap="round"></path><path d="M 443.351,340.239 C 446.890,340.576 448.617,340.467 450.542,337.841" stroke-width="6.895" stroke="black" fill="none" stroke-linecap="round"></path><path d="M 450.542,337.841 C 453.011,334.472 451.911,333.060 452.140,328.248" stroke-width="6.967" stroke="black" fill="none" stroke-linecap="round"></path><path d="M 452.140,328.248 C 452.310,324.666 452.005,324.599 451.341,321.054" stroke-width="6.495" stroke="black" fill="none" stroke-linecap="round"></path><path d="M 451.341,321.054 C 450.807,318.204 450.542,318.256 449.743,315.458" stroke-width="6.641" stroke="black" fill="none" stroke-linecap="round"></path><path d="M 499.281,225.125 C 500.080,232.320 499.856,232.352 500.879,239.514" stroke-width="7.941" stroke="black" fill="none" stroke-linecap="round"></path><path d="M 500.879,239.514 C 501.854,246.341 501.798,246.369 503.276,253.104" stroke-width="5.596" stroke="black" fill="none" stroke-linecap="round"></path><path d="M 503.276,253.104 C 505.394,262.757 505.181,262.847 508.070,272.290" stroke-width="4.507" stroke="black" fill="none" stroke-linecap="round"></path><path d="M 508.070,272.290 C 511.173,282.432 511.782,282.242 515.261,292.275" stroke-width="4.500" stroke="black" fill="none" stroke-linecap="round"></path><path d="M 515.261,292.275 C 518.573,301.828 518.651,301.808 521.653,311.461" stroke-width="4.500" stroke="black" fill="none" stroke-linecap="round"></path><path d="M 521.653,311.461 C 524.244,319.794 523.940,319.888 526.447,328.248" stroke-width="4.500" stroke="black" fill="none" stroke-linecap="round"></path><path d="M 526.447,328.248 C 527.536,331.879 527.730,331.819 528.844,335.443" stroke-width="5.441" stroke="black" fill="none" stroke-linecap="round"></path><path d="M 528.844,335.443 C 530.926,342.211 530.957,342.206 532.839,349.033" stroke-width="5.058" stroke="black" fill="none" stroke-linecap="round"></path><path d="M 532.839,349.033 C 534.153,353.798 533.818,353.897 535.236,358.625" stroke-width="5.401" stroke="black" fill="none" stroke-linecap="round"></path><path d="M 535.236,358.625 C 536.215,361.891 536.759,361.740 537.633,365.021" stroke-width="6.076" stroke="black" fill="none" stroke-linecap="round"></path><path d="M 537.633,365.021 C 538.357,367.736 538.970,371.424 538.432,370.617" stroke-width="7.176" stroke="black" fill="none" stroke-linecap="round"></path><path d="M 538.432,370.617 C 537.372,369.026 536.503,365.393 534.437,360.224" stroke-width="7.322" stroke="black" fill="none" stroke-linecap="round"></path><path d="M 534.437,360.224 C 532.508,355.400 532.687,355.310 530.442,350.631" stroke-width="6.014" stroke="black" fill="none" stroke-linecap="round"></path><path d="M 530.442,350.631 C 527.893,345.318 527.819,345.334 524.849,340.239" stroke-width="5.505" stroke="black" fill="none" stroke-linecap="round"></path><path d="M 524.849,340.239 C 522.226,335.741 522.371,335.602 519.256,331.446" stroke-width="5.557" stroke="black" fill="none" stroke-linecap="round"></path><path d="M 519.256,331.446 C 516.379,327.608 516.353,327.536 512.864,324.251" stroke-width="5.688" stroke="black" fill="none" stroke-linecap="round"></path><path d="M 512.864,324.251 C 509.561,321.141 509.506,321.077 505.673,318.655" stroke-width="5.886" stroke="black" fill="none" stroke-linecap="round"></path><path d="M 505.673,318.655 C 501.915,316.281 501.862,316.122 497.683,314.658" stroke-width="5.808" stroke="black" fill="none" stroke-linecap="round"></path><path d="M 497.683,314.658 C 493.872,313.324 493.727,313.463 489.693,313.060" stroke-width="5.998" stroke="black" fill="none" stroke-linecap="round"></path><path d="M 489.693,313.060 C 485.737,312.664 485.618,312.570 481.703,313.060" stroke-width="6.085" stroke="black" fill="none" stroke-linecap="round"></path><path d="M 481.703,313.060 C 479.226,313.369 479.092,313.467 476.909,314.658" stroke-width="6.658" stroke="black" fill="none" stroke-linecap="round"></path><path d="M 476.909,314.658 C 474.698,315.865 473.793,315.656 472.914,317.856" stroke-width="6.838" stroke="black" fill="none" stroke-linecap="round"></path><path d="M 472.914,317.856 C 471.396,321.652 470.862,322.708 472.115,326.649" stroke-width="7.050" stroke="black" fill="none" stroke-linecap="round"></path><path d="M 472.115,326.649 C 473.658,331.502 474.703,331.637 478.507,335.443" stroke-width="5.880" stroke="black" fill="none" stroke-linecap="round"></path><path d="M 478.507,335.443 C 483.093,340.031 483.455,339.809 488.894,343.437" stroke-width="5.298" stroke="black" fill="none" stroke-linecap="round"></path><path d="M 488.894,343.437 C 494.241,347.003 494.460,346.683 500.080,349.832" stroke-width="5.172" stroke="black" fill="none" stroke-linecap="round"></path><path d="M 500.080,349.832 C 504.447,352.279 504.266,352.786 508.869,354.629" stroke-width="5.507" stroke="black" fill="none" stroke-linecap="round"></path><path d="M 508.869,354.629 C 512.256,355.984 512.506,355.279 516.060,356.227" stroke-width="6.094" stroke="black" fill="none" stroke-linecap="round"></path><path d="M 516.060,356.227 C 518.498,356.878 518.606,356.702 520.854,357.826" stroke-width="6.598" stroke="black" fill="none" stroke-linecap="round"></path><path d="M 529.643,386.605 C 524.449,388.203 524.537,388.583 519.256,389.802" stroke-width="8.423" stroke="black" fill="none" stroke-linecap="round"></path><path d="M 519.256,389.802 C 514.150,390.981 514.100,391.093 508.869,391.401" stroke-width="6.193" stroke="black" fill="none" stroke-linecap="round"></path><path d="M 508.869,391.401 C 500.517,391.893 500.479,391.401 492.090,391.401" stroke-width="4.926" stroke="black" fill="none" stroke-linecap="round"></path><path d="M 492.090,391.401 C 481.703,391.401 481.700,391.580 471.316,391.401" stroke-width="4.500" stroke="black" fill="none" stroke-linecap="round"></path><path d="M 471.316,391.401 C 458.529,391.180 458.498,391.500 445.748,390.602" stroke-width="4.500" stroke="black" fill="none" stroke-linecap="round"></path><path d="M 445.748,390.602 C 430.134,389.502 430.171,388.963 414.587,387.404" stroke-width="4.500" stroke="black" fill="none" stroke-linecap="round"></path><path d="M 414.587,387.404 C 406.201,386.565 406.209,386.462 397.808,385.805" stroke-width="4.500" stroke="black" fill="none" stroke-linecap="round"></path><path d="M 397.808,385.805 C 380.641,384.463 380.606,384.883 363.451,383.407" stroke-width="4.500" stroke="black" fill="none" stroke-linecap="round"></path><path d="M 363.451,383.407 C 343.452,381.686 343.481,381.351 323.501,379.410" stroke-width="4.500" stroke="black" fill="none" stroke-linecap="round"></path><path d="M 323.501,379.410 C 302.333,377.354 302.357,377.014 281.154,375.413" stroke-width="4.500" stroke="black" fill="none" stroke-linecap="round"></path><path d="M 281.154,375.413 C 260.010,373.816 259.996,373.818 238.806,373.015" stroke-width="4.500" stroke="black" fill="none" stroke-linecap="round"></path><path d="M 238.806,373.015 C 207.262,371.819 207.248,372.134 175.685,371.416" stroke-width="4.500" stroke="black" fill="none" stroke-linecap="round"></path><path d="M 175.685,371.416 C 154.514,370.935 154.512,371.032 133.338,370.617" stroke-width="4.500" stroke="black" fill="none" stroke-linecap="round"></path><path d="M 133.338,370.617 C 113.762,370.233 113.765,370.028 94.187,369.817" stroke-width="4.500" stroke="black" fill="none" stroke-linecap="round"></path><path d="M 94.187,369.817 C 76.611,369.628 76.607,369.608 59.031,369.817" stroke-width="4.500" stroke="black" fill="none" stroke-linecap="round"></path><path d="M 59.031,369.817 C 43.049,370.008 43.050,370.166 27.071,370.617" stroke-width="4.500" stroke="black" fill="none" stroke-linecap="round"></path><path d="M 27.071,370.617 C 14.685,370.966 14.645,370.501 2.302,371.416" stroke-width="4.500" stroke="black" fill="none" stroke-linecap="round"></path><path d="M 2.302,371.416 C -6.928,372.100 -6.927,372.369 -16.075,373.814" stroke-width="4.500" stroke="black" fill="none" stroke-linecap="round"></path><path d="M -16.075,373.814 C -22.108,374.767 -22.228,374.545 -28.060,376.212" stroke-width="4.747" stroke="black" fill="none" stroke-linecap="round"></path><path d="M -28.060,376.212 C -30.618,376.943 -34.162,377.704 -32.854,378.611" stroke-width="6.042" stroke="black" fill="none" stroke-linecap="round"></path><path d="M -32.854,378.611 C -28.969,381.302 -25.470,382.030 -17.673,383.407" stroke-width="6.592" stroke="black" fill="none" stroke-linecap="round"></path><path d="M -17.673,383.407 C -5.096,385.628 -4.872,384.443 7.895,385.805" stroke-width="4.500" stroke="black" fill="none" stroke-linecap="round"></path><path d="M 7.895,385.805 C 25.091,387.640 25.062,387.912 42.252,389.802" stroke-width="4.500" stroke="black" fill="none" stroke-linecap="round"></path><path d="M 42.252,389.802 C 61.416,391.909 61.447,391.629 80.604,393.799" stroke-width="4.500" stroke="black" fill="none" stroke-linecap="round"></path><path d="M 80.604,393.799 C 103.795,396.426 103.838,396.150 126.946,399.395" stroke-width="4.500" stroke="black" fill="none" stroke-linecap="round"></path><path d="M 126.946,399.395 C 149.381,402.545 149.318,402.992 171.690,406.590" stroke-width="4.500" stroke="black" fill="none" stroke-linecap="round"></path><path d="M 171.690,406.590 C 194.062,410.187 194.114,409.892 216.434,413.784" stroke-width="4.500" stroke="black" fill="none" stroke-linecap="round"></path><path d="M 216.434,413.784 C 237.660,417.486 237.716,417.277 258.782,421.778" stroke-width="4.500" stroke="black" fill="none" stroke-linecap="round"></path><path d="M 258.782,421.778 C 278.865,426.070 278.757,426.575 298.732,431.371" stroke-width="4.500" stroke="black" fill="none" stroke-linecap="round"></path></svg>