<svg xmlns="http://www.w3.org/2000/svg" xmlns:xlink="http://www.w3.org/1999/xlink" viewBox="0 0 576 416" width="576" height="416"><path d="M 164.499,133.993 C 158.107,134.393 158.056,134.031 151.715,134.793" stroke-width="8.266" stroke="black" fill="none" stroke-linecap="round"></path><path d="M 151.715,134.793 C 148.069,135.230 148.108,135.542 144.524,136.391" stroke-width="6.767" stroke="black" fill="none" stroke-linecap="round"></path><path d="M 144.524,136.391 C 132.927,139.139 132.880,138.962 121.353,141.987" stroke-width="4.500" stroke="black" fill="none" stroke-linecap="round"></path><path d="M 121.353,141.987 C 108.510,145.358 108.441,145.183 95.785,149.182" stroke-width="4.500" stroke="black" fill="none" stroke-linecap="round"></path><path d="M 95.785,149.182 C 85.669,152.378 85.572,152.253 75.810,156.376" stroke-width="4.500" stroke="black" fill="none" stroke-linecap="round"></path><path d="M 75.810,156.376 C 67.595,159.847 67.553,159.922 59.830,164.370" stroke-width="4.500" stroke="black" fill="none" stroke-linecap="round"></path><path d="M 59.830,164.370 C 54.369,167.516 53.950,167.293 49.443,171.565" stroke-width="4.722" stroke="black" fill="none" stroke-linecap="round"></path><path d="M 49.443,171.565 C 46.360,174.488 45.895,174.814 44.649,178.760" stroke-width="5.529" stroke="black" fill="none" stroke-linecap="round"></path><path d="M 44.649,178.760 C 43.498,182.408 43.479,183.241 44.649,186.754" stroke-width="5.764" stroke="black" fill="none" stroke-linecap="round"></path><path d="M 44.649,186.754 C 45.476,189.237 46.415,189.027 48.644,190.751" stroke-width="6.357" stroke="black" fill="none" stroke-linecap="round"></path><path d="M 48.644,190.751 C 55.204,195.822 55.100,196.099 62.227,200.344" stroke-width="4.859" stroke="black" fill="none" stroke-linecap="round"></path><path d="M 62.227,200.344 C 71.879,206.091 72.385,205.235 82.202,210.736" stroke-width="4.500" stroke="black" fill="none" stroke-linecap="round"></path><path d="M 82.202,210.736 C 92.360,216.427 92.429,216.366 102.177,222.727" stroke-width="4.500" stroke="black" fill="none" stroke-linecap="round"></path><path d="M 102.177,222.727 C 110.806,228.357 110.945,228.261 118.956,234.718" stroke-width="4.500" stroke="black" fill="none" stroke-linecap="round"></path><path d="M 118.956,234.718 C 125.327,239.852 125.526,239.815 130.941,245.910" stroke-width="4.500" stroke="black" fill="none" stroke-linecap="round"></path><path d="M 130.941,245.910 C 135.114,250.607 135.347,250.729 138.132,256.302" stroke-width="4.747" stroke="black" fill="none" stroke-linecap="round"></path><path d="M 138.132,256.302 C 140.141,260.321 140.529,260.714 140.529,265.095" stroke-width="5.397" stroke="black" fill="none" stroke-linecap="round"></path><path d="M 140.529,265.095 C 140.529,269.107 140.038,269.515 138.132,273.089" stroke-width="5.749" stroke="black" fill="none" stroke-linecap="round"></path><path d="M 138.132,273.089 C 136.842,275.510 136.414,275.441 134.137,277.086" stroke-width="6.418" stroke="black" fill="none" stroke-linecap="round"></path><path d="M 134.137,277.086 C 129.223,280.637 129.187,280.762 123.750,283.482" stroke-width="5.545" stroke="black" fill="none" stroke-linecap="round"></path><path d="M 123.750,283.482 C 117.202,286.757 117.103,286.698 110.167,289.077" stroke-width="4.919" stroke="black" fill="none" stroke-linecap="round"></path><path d="M 110.167,289.077 C 103.120,291.495 103.100,291.820 95.785,293.074" stroke-width="4.732" stroke="black" fill="none" stroke-linecap="round"></path><path d="M 95.785,293.074 C 89.118,294.218 88.999,293.661 82.202,293.874" stroke-width="4.916" stroke="black" fill="none" stroke-linecap="round"></path><path d="M 82.202,293.874 C 76.215,294.061 76.155,294.369 70.217,293.874" stroke-width="5.164" stroke="black" fill="none" stroke-linecap="round"></path><path d="M 70.217,293.874 C 66.567,293.570 66.586,293.212 63.026,292.275" stroke-width="5.897" stroke="black" fill="none" stroke-linecap="round"></path><path d="M 63.026,292.275 C 58.995,291.214 58.969,291.254 55.036,289.877" stroke-width="5.995" stroke="black" fill="none" stroke-linecap="round"></path><path d="M 55.036,289.877 C 50.979,288.456 50.975,288.426 47.046,286.679" stroke-width="5.894" stroke="black" fill="none" stroke-linecap="round"></path><path d="M 47.046,286.679 C 43.784,285.228 43.751,285.252 40.654,283.482" stroke-width="6.197" stroke="black" fill="none" stroke-linecap="round"></path><path d="M 40.654,283.482 C 38.158,282.054 38.203,281.959 35.860,280.284" stroke-width="6.555" stroke="black" fill="none" stroke-linecap="round"></path><path d="M 214.037,241.913 C 210.442,238.315 211.217,236.239 206.846,234.718" stroke-width="8.340" stroke="black" fill="none" stroke-linecap="round"></path><path d="M 206.846,234.718 C 202.028,233.041 201.197,234.762 195.660,235.517" stroke-width="7.173" stroke="black" fill="none" stroke-linecap="round"></path><path d="M 195.660,235.517 C 192.408,235.961 192.298,235.904 189.268,237.116" stroke-width="6.678" stroke="black" fill="none" stroke-linecap="round"></path><path d="M 189.268,237.116 C 186.306,238.302 186.206,238.367 183.675,240.314" stroke-width="6.571" stroke="black" fill="none" stroke-linecap="round"></path><path d="M 183.675,240.314 C 181.012,242.364 180.962,242.461 178.881,245.110" stroke-width="6.394" stroke="black" fill="none" stroke-linecap="round"></path><path d="M 178.881,245.110 C 176.568,248.056 176.566,248.144 174.886,251.505" stroke-width="6.428" stroke="black" fill="none" stroke-linecap="round"></path><path d="M 174.886,251.505 C 172.571,256.138 172.072,256.139 170.891,261.098" stroke-width="6.680" stroke="black" fill="none" stroke-linecap="round"></path><path d="M 170.891,261.098 C 170.074,264.532 170.450,264.757 170.891,268.293" stroke-width="6.427" stroke="black" fill="none" stroke-linecap="round"></path><path d="M 170.891,268.293 C 171.249,271.153 171.071,271.455 172.489,273.889" stroke-width="6.547" stroke="black" fill="none" stroke-linecap="round"></path><path d="M 172.489,273.889 C 173.867,276.252 174.078,276.492 176.484,277.886" stroke-width="6.619" stroke="black" fill="none" stroke-linecap="round"></path><path d="M 176.484,277.886 C 181.668,280.888 181.882,281.234 187.670,282.682" stroke-width="5.867" stroke="black" fill="none" stroke-linecap="round"></path><path d="M 187.670,282.682 C 191.470,283.633 191.783,283.329 195.660,282.682" stroke-width="5.961" stroke="black" fill="none" stroke-linecap="round"></path><path d="M 195.660,282.682 C 198.974,282.130 198.884,281.552 202.052,280.284" stroke-width="6.276" stroke="black" fill="none" stroke-linecap="round"></path><path d="M 202.052,280.284 C 204.877,279.154 205.279,279.662 207.645,277.886" stroke-width="6.518" stroke="black" fill="none" stroke-linecap="round"></path><path d="M 207.645,277.886 C 210.073,276.064 210.022,275.720 211.640,273.089" stroke-width="6.632" stroke="black" fill="none" stroke-linecap="round"></path><path d="M 211.640,273.089 C 213.218,270.524 213.634,270.455 214.037,267.494" stroke-width="6.629" stroke="black" fill="none" stroke-linecap="round"></path><path d="M 214.037,267.494 C 214.832,261.661 214.268,261.488 214.037,255.502" stroke-width="6.646" stroke="black" fill="none" stroke-linecap="round"></path><path d="M 214.037,255.502 C 213.868,251.095 213.726,251.096 213.238,246.709" stroke-width="6.987" stroke="black" fill="none" stroke-linecap="round"></path><path d="M 213.238,246.709 C 212.927,243.901 211.445,240.687 212.439,241.113" stroke-width="7.742" stroke="black" fill="none" stroke-linecap="round"></path><path d="M 212.439,241.113 C 214.241,241.886 215.841,244.965 218.832,249.107" stroke-width="7.788" stroke="black" fill="none" stroke-linecap="round"></path><path d="M 218.832,249.107 C 221.035,252.159 220.779,252.337 222.826,255.502" stroke-width="6.631" stroke="black" fill="none" stroke-linecap="round"></path><path d="M 222.826,255.502 C 225.174,259.132 225.223,259.100 227.620,262.697" stroke-width="6.151" stroke="black" fill="none" stroke-linecap="round"></path><path d="M 227.620,262.697 C 230.017,266.294 230.163,266.206 232.415,269.892" stroke-width="6.020" stroke="black" fill="none" stroke-linecap="round"></path><path d="M 232.415,269.892 C 234.558,273.400 234.233,273.602 236.410,277.086" stroke-width="6.129" stroke="black" fill="none" stroke-linecap="round"></path><path d="M 236.410,277.086 C 238.228,279.997 238.609,279.763 240.405,282.682" stroke-width="6.244" stroke="black" fill="none" stroke-linecap="round"></path><path d="M 240.405,282.682 C 241.805,284.959 241.473,285.153 242.802,287.479" stroke-width="6.651" stroke="black" fill="none" stroke-linecap="round"></path><path d="M 242.802,287.479 C 244.669,290.749 245.122,290.524 246.797,293.874" stroke-width="7.136" stroke="black" fill="none" stroke-linecap="round"></path><path d="M 246.797,293.874 C 247.919,296.120 247.652,296.255 248.395,298.670" stroke-width="8.149" stroke="black" fill="none" stroke-linecap="round"></path><path d="M 248.395,298.670 C 249.250,301.451 248.953,301.562 249.993,304.266" stroke-width="8.088" stroke="black" fill="none" stroke-linecap="round"></path><path d="M 249.993,304.266 C 250.950,306.758 251.042,306.751 252.390,309.063" stroke-width="7.887" stroke="black" fill="none" stroke-linecap="round"></path><path d="M 252.390,309.063 C 253.838,311.547 254.393,314.058 255.586,313.859" stroke-width="8.025" stroke="black" fill="none" stroke-linecap="round"></path><path d="M 255.586,313.859 C 256.790,313.658 256.585,311.106 257.184,308.263" stroke-width="8.051" stroke="black" fill="none" stroke-linecap="round"></path><path d="M 257.184,308.263 C 258.183,303.512 258.118,303.486 258.782,298.670" stroke-width="6.367" stroke="black" fill="none" stroke-linecap="round"></path><path d="M 258.782,298.670 C 259.716,291.895 259.256,291.822 260.380,285.080" stroke-width="5.224" stroke="black" fill="none" stroke-linecap="round"></path><path d="M 260.380,285.080 C 261.653,277.433 262.171,277.522 263.576,269.892" stroke-width="4.944" stroke="black" fill="none" stroke-linecap="round"></path><path d="M 263.576,269.892 C 264.967,262.333 264.430,262.227 265.973,254.703" stroke-width="4.789" stroke="black" fill="none" stroke-linecap="round"></path><path d="M 265.973,254.703 C 267.626,246.639 267.032,246.351 269.968,238.715" stroke-width="4.634" stroke="black" fill="none" stroke-linecap="round"></path><path d="M 269.968,238.715 C 273.025,230.763 273.707,230.969 277.958,223.526" stroke-width="4.524" stroke="black" fill="none" stroke-linecap="round"></path><path d="M 277.958,223.526 C 280.099,219.777 280.031,219.682 282.752,216.332" stroke-width="5.511" stroke="black" fill="none" stroke-linecap="round"></path><path d="M 282.752,216.332 C 290.418,206.892 289.946,206.219 298.732,197.945" stroke-width="4.500" stroke="black" fill="none" stroke-linecap="round"></path><path d="M 298.732,197.945 C 303.529,193.428 304.119,193.974 309.918,190.751" stroke-width="4.677" stroke="black" fill="none" stroke-linecap="round"></path><path d="M 309.918,190.751 C 314.906,187.978 314.978,188.004 320.305,185.954" stroke-width="5.062" stroke="black" fill="none" stroke-linecap="round"></path><path d="M 320.305,185.954 C 325.365,184.007 325.420,184.023 330.692,182.757" stroke-width="5.354" stroke="black" fill="none" stroke-linecap="round"></path><path d="M 330.692,182.757 C 335.407,181.624 335.464,181.786 340.280,181.158" stroke-width="5.688" stroke="black" fill="none" stroke-linecap="round"></path><path d="M 340.280,181.158 C 344.652,180.587 344.665,180.559 349.069,180.359" stroke-width="5.851" stroke="black" fill="none" stroke-linecap="round"></path><path d="M 349.069,180.359 C 353.454,180.159 353.463,180.359 357.858,180.359" stroke-width="5.908" stroke="black" fill="none" stroke-linecap="round"></path><path d="M 357.858,180.359 C 361.054,180.359 361.054,180.359 364.250,180.359" stroke-width="6.337" stroke="black" fill="none" stroke-linecap="round"></path><path d="M 364.250,180.359 C 367.446,180.359 372.034,179.716 370.642,180.359" stroke-width="7.156" stroke="black" fill="none" stroke-linecap="round"></path><path d="M 370.642,180.359 C 366.840,182.114 361.950,182.008 353.863,185.155" stroke-width="7.518" stroke="black" fill="none" stroke-linecap="round"></path><path d="M 353.863,185.155 C 347.568,187.604 347.659,188.005 341.878,191.550" stroke-width="5.561" stroke="black" fill="none" stroke-linecap="round"></path><path d="M 341.878,191.550 C 335.274,195.599 334.933,195.307 329.094,200.344" stroke-width="4.827" stroke="black" fill="none" stroke-linecap="round"></path><path d="M 329.094,200.344 C 323.347,205.300 323.434,205.572 318.707,211.535" stroke-width="4.857" stroke="black" fill="none" stroke-linecap="round"></path><path d="M 318.707,211.535 C 314.245,217.163 314.257,217.275 310.717,223.526" stroke-width="4.867" stroke="black" fill="none" stroke-linecap="round"></path><path d="M 310.717,223.526 C 307.466,229.266 307.200,229.286 305.124,235.517" stroke-width="5.001" stroke="black" fill="none" stroke-linecap="round"></path><path d="M 305.124,235.517 C 303.205,241.277 303.352,241.456 302.727,247.508" stroke-width="5.162" stroke="black" fill="none" stroke-linecap="round"></path><path d="M 302.727,247.508 C 302.154,253.048 302.012,253.220 302.727,258.700" stroke-width="5.345" stroke="black" fill="none" stroke-linecap="round"></path><path d="M 302.727,258.700 C 303.211,262.413 303.511,262.488 305.124,265.895" stroke-width="5.931" stroke="black" fill="none" stroke-linecap="round"></path><path d="M 305.124,265.895 C 307.106,270.082 306.871,270.459 309.918,273.889" stroke-width="5.848" stroke="black" fill="none" stroke-linecap="round"></path><path d="M 309.918,273.889 C 313.263,277.654 313.407,278.130 317.908,280.284" stroke-width="5.685" stroke="black" fill="none" stroke-linecap="round"></path><path d="M 317.908,280.284 C 322.596,282.527 323.029,282.118 328.295,282.682" stroke-width="5.577" stroke="black" fill="none" stroke-linecap="round"></path><path d="M 328.295,282.682 C 334.215,283.317 334.409,283.572 340.280,282.682" stroke-width="5.365" stroke="black" fill="none" stroke-linecap="round"></path><path d="M 340.280,282.682 C 347.592,281.574 347.691,281.276 354.662,278.685" stroke-width="4.951" stroke="black" fill="none" stroke-linecap="round"></path><path d="M 354.662,278.685 C 361.673,276.080 361.846,276.131 368.245,272.290" stroke-width="4.829" stroke="black" fill="none" stroke-linecap="round"></path><path d="M 368.245,272.290 C 373.831,268.936 374.041,268.889 378.632,264.296" stroke-width="5.003" stroke="black" fill="none" stroke-linecap="round"></path><path d="M 378.632,264.296 C 382.830,260.095 382.923,259.884 385.823,254.703" stroke-width="5.192" stroke="black" fill="none" stroke-linecap="round"></path><path d="M 385.823,254.703 C 388.516,249.892 388.477,249.675 389.818,244.311" stroke-width="5.362" stroke="black" fill="none" stroke-linecap="round"></path><path d="M 389.818,244.311 C 391.274,238.483 390.970,238.339 391.416,232.320" stroke-width="5.289" stroke="black" fill="none" stroke-linecap="round"></path><path d="M 391.416,232.320 C 391.769,227.547 391.624,227.514 391.416,222.727" stroke-width="5.606" stroke="black" fill="none" stroke-linecap="round"></path><path d="M 391.416,222.727 C 391.224,218.321 391.079,218.323 390.617,213.934" stroke-width="5.824" stroke="black" fill="none" stroke-linecap="round"></path><path d="M 390.617,213.934 C 390.280,210.729 390.489,210.674 389.818,207.538" stroke-width="6.298" stroke="black" fill="none" stroke-linecap="round"></path><path d="M 389.818,207.538 C 389.291,205.078 388.468,201.747 388.220,202.742" stroke-width="7.301" stroke="black" fill="none" stroke-linecap="round"></path><path d="M 388.220,202.742 C 387.669,204.944 388.220,208.338 388.220,213.934" stroke-width="7.595" stroke="black" fill="none" stroke-linecap="round"></path><path d="M 388.220,213.934 C 388.220,219.130 388.052,219.134 388.220,224.326" stroke-width="6.067" stroke="black" fill="none" stroke-linecap="round"></path><path d="M 388.220,224.326 C 388.452,231.525 388.386,231.541 389.019,238.715" stroke-width="5.177" stroke="black" fill="none" stroke-linecap="round"></path><path d="M 389.019,238.715 C 389.585,245.131 389.432,245.182 390.617,251.505" stroke-width="5.136" stroke="black" fill="none" stroke-linecap="round"></path><path d="M 390.617,251.505 C 391.829,257.973 391.977,257.970 393.813,264.296" stroke-width="5.089" stroke="black" fill="none" stroke-linecap="round"></path><path d="M 393.813,264.296 C 395.573,270.361 395.180,270.591 397.808,276.287" stroke-width="5.140" stroke="black" fill="none" stroke-linecap="round"></path><path d="M 397.808,276.287 C 399.974,280.983 400.192,281.014 403.401,285.080" stroke-width="5.520" stroke="black" fill="none" stroke-linecap="round"></path><path d="M 403.401,285.080 C 406.185,288.608 406.162,288.911 409.793,291.476" stroke-width="5.679" stroke="black" fill="none" stroke-linecap="round"></path><path d="M 409.793,291.476 C 412.953,293.708 413.227,293.684 416.984,294.673" stroke-width="6.002" stroke="black" fill="none" stroke-linecap="round"></path><path d="M 416.984,294.673 C 420.817,295.682 421.026,295.816 424.974,295.473" stroke-width="6.079" stroke="black" fill="none" stroke-linecap="round"></path><path d="M 424.974,295.473 C 430.215,295.017 430.601,295.297 435.361,293.074" stroke-width="5.685" stroke="black" fill="none" stroke-linecap="round"></path><path d="M 435.361,293.074 C 442.586,289.701 442.892,289.528 448.944,284.281" stroke-width="4.888" stroke="black" fill="none" stroke-linecap="round"></path><path d="M 448.944,284.281 C 454.877,279.136 455.245,278.979 459.331,272.290" stroke-width="4.723" stroke="black" fill="none" stroke-linecap="round"></path><path d="M 459.331,272.290 C 464.034,264.590 463.879,264.192 466.522,255.502" stroke-width="4.500" stroke="black" fill="none" stroke-linecap="round"></path><path d="M 466.522,255.502 C 469.472,245.806 469.375,245.610 470.517,235.517" stroke-width="4.500" stroke="black" fill="none" stroke-linecap="round"></path><path d="M 470.517,235.517 C 471.772,224.426 471.519,224.314 471.316,213.134" stroke-width="4.500" stroke="black" fill="none" stroke-linecap="round"></path><path d="M 471.316,213.134 C 471.120,202.331 470.934,202.295 469.718,191.550" stroke-width="4.500" stroke="black" fill="none" stroke-linecap="round"></path><path d="M 469.718,191.550 C 468.537,181.111 468.182,181.148 466.522,170.766" stroke-width="4.500" stroke="black" fill="none" stroke-linecap="round"></path><path d="M 466.522,170.766 C 464.986,161.163 465.064,161.147 463.326,151.580" stroke-width="4.500" stroke="black" fill="none" stroke-linecap="round"></path><path d="M 463.326,151.580 C 461.868,143.560 461.773,143.577 460.130,135.592" stroke-width="4.500" stroke="black" fill="none" stroke-linecap="round"></path><path d="M 460.130,135.592 C 458.976,129.987 459.000,129.980 457.733,124.400" stroke-width="5.036" stroke="black" fill="none" stroke-linecap="round"></path><path d="M 457.733,124.400 C 457.003,121.187 456.741,118.005 456.135,118.005" stroke-width="5.970" stroke="black" fill="none" stroke-linecap="round"></path><path d="M 456.135,118.005 C 455.542,118.005 455.046,121.214 455.336,124.400" stroke-width="7.385" stroke="black" fill="none" stroke-linecap="round"></path><path d="M 455.336,124.400 C 456.245,134.405 456.784,134.419 458.532,144.385" stroke-width="4.739" stroke="black" fill="none" stroke-linecap="round"></path><path d="M 458.532,144.385 C 460.779,157.202 460.698,157.224 463.326,169.966" stroke-width="4.500" stroke="black" fill="none" stroke-linecap="round"></path><path d="M 463.326,169.966 C 465.891,182.405 466.354,182.309 468.919,194.748" stroke-width="4.500" stroke="black" fill="none" stroke-linecap="round"></path><path d="M 468.919,194.748 C 471.547,207.491 471.044,207.595 473.713,220.329" stroke-width="4.500" stroke="black" fill="none" stroke-linecap="round"></path><path d="M 473.713,220.329 C 476.238,232.377 477.359,232.189 479.306,244.311" stroke-width="4.500" stroke="black" fill="none" stroke-linecap="round"></path><path d="M 479.306,244.311 C 480.954,254.572 481.317,254.757 480.904,265.095" stroke-width="4.500" stroke="black" fill="none" stroke-linecap="round"></path><path d="M 480.904,265.095 C 480.518,274.742 481.882,275.929 477.708,284.281" stroke-width="4.500" stroke="black" fill="none" stroke-linecap="round"></path><path d="M 477.708,284.281 C 473.093,293.516 472.312,294.846 463.326,300.269" stroke-width="4.500" stroke="black" fill="none" stroke-linecap="round"></path><path d="M 463.326,300.269 C 447.143,310.035 445.781,309.010 427.371,314.658" stroke-width="4.500" stroke="black" fill="none" stroke-linecap="round"></path><path d="M 427.371,314.658 C 415.819,318.203 415.513,318.113 403.401,318.655" stroke-width="4.500" stroke="black" fill="none" stroke-linecap="round"></path><path d="M 403.401,318.655 C 361.980,320.511 361.789,320.779 320.305,319.455" stroke-width="4.500" stroke="black" fill="none" stroke-linecap="round"></path><path d="M 320.305,319.455 C 286.683,318.381 286.633,317.647 253.189,313.859" stroke-width="4.500" stroke="black" fill="none" stroke-linecap="round"></path><path d="M 253.189,313.859 C 223.112,310.452 223.074,310.317 193.263,305.066" stroke-width="4.500" stroke="black" fill="none" stroke-linecap="round"></path><path d="M 193.263,305.066 C 166.345,300.324 166.004,301.200 139.730,293.874" stroke-width="4.500" stroke="black" fill="none" stroke-linecap="round"></path><path d="M 139.730,293.874 C 117.265,287.610 116.742,287.903 95.785,277.886" stroke-width="4.500" stroke="black" fill="none" stroke-linecap="round"></path><path d="M 95.785,277.886 C 80.787,270.716 79.604,270.826 67.820,259.499" stroke-width="4.500" stroke="black" fill="none" stroke-linecap="round"></path><path d="M 67.820,259.499 C 59.229,251.241 58.615,249.903 55.036,238.715" stroke-width="4.500" stroke="black" fill="none" stroke-linecap="round"></path><path d="M 55.036,238.715 C 52.223,229.918 53.098,228.394 55.036,219.529" stroke-width="4.500" stroke="black" fill="none" stroke-linecap="round"></path><path d="M 55.036,219.529 C 55.894,215.604 57.001,215.231 60.629,213.134" stroke-width="5.178" stroke="black" fill="none" stroke-linecap="round"></path><path d="M 60.629,213.134 C 74.978,204.839 75.141,204.031 90.991,198.745" stroke-width="4.500" stroke="black" fill="none" stroke-linecap="round"></path><path d="M 90.991,198.745 C 112.294,191.640 112.648,191.021 134.936,188.353" stroke-width="4.500" stroke="black" fill="none" stroke-linecap="round"></path><path d="M 134.936,188.353 C 159.390,185.425 159.764,186.462 184.474,187.553" stroke-width="4.500" stroke="black" fill="none" stroke-linecap="round"></path><path d="M 184.474,187.553 C 214.096,188.861 214.311,188.609 243.601,193.149" stroke-width="4.500" stroke="black" fill="none" stroke-linecap="round"></path><path d="M 243.601,193.149 C 271.040,197.402 271.301,197.369 297.933,205.140" stroke-width="4.500" stroke="black" fill="none" stroke-linecap="round"></path><path d="M 297.933,205.140 C 319.241,211.358 319.927,210.975 339.481,221.128" stroke-width="4.500" stroke="black" fill="none" stroke-linecap="round"></path><path d="M 339.481,221.128 C 351.487,227.363 354.594,227.298 361.054,237.916" stroke-width="4.500" stroke="black" fill="none" stroke-linecap="round"></path><path d="M 361.054,237.916 C 365.780,245.684 365.139,249.572 361.853,257.901" stroke-width="4.500" stroke="black" fill="none" stroke-linecap="round"></path><path d="M 361.853,257.901 C 359.146,264.761 356.151,264.244 349.069,268.293" stroke-width="4.500" stroke="black" fill="none" stroke-linecap="round"></path><path d="M 349.069,268.293 C 339.372,273.837 338.964,273.451 328.295,277.086" stroke-width="4.500" stroke="black" fill="none" stroke-linecap="round"></path><path d="M 328.295,277.086 C 283.833,292.237 283.721,292.038 238.806,305.865" stroke-width="4.500" stroke="black" fill="none" stroke-linecap="round"></path><path d="M 238.806,305.865 C 211.012,314.421 210.320,312.393 182.876,321.853" stroke-width="4.500" stroke="black" fill="none" stroke-linecap="round"></path><path d="M 182.876,321.853 C 162.779,328.781 161.626,327.842 143.725,338.640" stroke-width="4.500" stroke="black" fill="none" stroke-linecap="round"></path><path d="M 143.725,338.640 C 134.460,344.229 130.495,345.738 128.544,354.629" stroke-width="4.500" stroke="black" fill="none" stroke-linecap="round"></path><path d="M 128.544,354.629 C 126.899,362.126 130.022,365.605 136.534,371.416" stroke-width="4.500" stroke="black" fill="none" stroke-linecap="round"></path><path d="M 136.534,371.416 C 144.804,378.795 146.874,377.460 158.107,381.009" stroke-width="4.500" stroke="black" fill="none" stroke-linecap="round"></path><path d="M 158.107,381.009 C 192.417,391.849 192.513,392.154 227.620,400.194" stroke-width="4.500" stroke="black" fill="none" stroke-linecap="round"></path><path d="M 227.620,400.194 C 258.830,407.342 259.133,406.078 290.742,411.386" stroke-width="4.500" stroke="black" fill="none" stroke-linecap="round"></path><path d="M 290.742,411.386 C 316.262,415.671 316.251,415.819 341.878,419.380" stroke-width="4.500" stroke="black" fill="none" stroke-linecap="round"></path><path d="M 341.878,419.380 C 359.397,421.815 359.483,422.436 377.034,423.377" stroke-width="4.500" stroke="black" fill="none" stroke-linecap="round"></path><path d="M 377.034,423.377 C 381.855,423.636 381.828,422.578 386.622,421.778" stroke-width="4.500" stroke="black" fill="none" stroke-linecap="round"></path><circle r="3" cx="353.0636901855469" cy="381.8082275390625" fill="black"></circle></svg>