<svg xmlns="http://www.w3.org/2000/svg" xmlns:xlink="http://www.w3.org/1999/xlink" viewBox="0 0 576 416" width="576" height="416"><path d="M 111.765,250.706 C 121.353,249.107 121.387,249.287 130.941,247.508" stroke-width="8.083" stroke="black" fill="none" stroke-linecap="round"></path><path d="M 130.941,247.508 C 138.566,246.089 138.517,245.833 146.122,244.311" stroke-width="5.380" stroke="black" fill="none" stroke-linecap="round"></path><path d="M 146.122,244.311 C 152.499,243.035 152.505,243.056 158.906,241.913" stroke-width="5.180" stroke="black" fill="none" stroke-linecap="round"></path><path d="M 158.906,241.913 C 163.691,241.058 163.694,241.072 168.494,240.314" stroke-width="5.466" stroke="black" fill="none" stroke-linecap="round"></path><path d="M 168.494,240.314 C 171.285,239.873 172.038,238.489 174.087,239.514" stroke-width="6.366" stroke="black" fill="none" stroke-linecap="round"></path><path d="M 174.087,239.514 C 176.033,240.488 177.005,241.968 176.484,244.311" stroke-width="7.271" stroke="black" fill="none" stroke-linecap="round"></path><path d="M 176.484,244.311 C 175.407,249.163 173.844,249.204 170.891,253.904" stroke-width="5.987" stroke="black" fill="none" stroke-linecap="round"></path><path d="M 170.891,253.904 C 165.055,263.193 165.295,263.380 158.906,272.290" stroke-width="4.500" stroke="black" fill="none" stroke-linecap="round"></path><path d="M 158.906,272.290 C 152.111,281.766 151.647,281.431 144.524,290.676" stroke-width="4.500" stroke="black" fill="none" stroke-linecap="round"></path><path d="M 144.524,290.676 C 136.866,300.616 136.939,300.673 129.343,310.661" stroke-width="4.500" stroke="black" fill="none" stroke-linecap="round"></path><path d="M 129.343,310.661 C 122.957,319.059 122.852,318.982 116.559,327.449" stroke-width="4.500" stroke="black" fill="none" stroke-linecap="round"></path><path d="M 116.559,327.449 C 111.267,334.570 111.087,334.462 106.172,341.838" stroke-width="4.500" stroke="black" fill="none" stroke-linecap="round"></path><path d="M 106.172,341.838 C 103.097,346.453 103.160,346.526 100.579,351.431" stroke-width="5.010" stroke="black" fill="none" stroke-linecap="round"></path><path d="M 100.579,351.431 C 99.165,354.120 96.973,355.817 98.182,357.027" stroke-width="6.042" stroke="black" fill="none" stroke-linecap="round"></path><path d="M 98.182,357.027 C 99.769,358.615 102.373,358.040 106.172,357.027" stroke-width="7.163" stroke="black" fill="none" stroke-linecap="round"></path><path d="M 106.172,357.027 C 114.358,354.843 114.204,353.929 122.152,350.631" stroke-width="5.040" stroke="black" fill="none" stroke-linecap="round"></path><path d="M 122.152,350.631 C 130.583,347.134 130.395,346.639 138.931,343.437" stroke-width="4.528" stroke="black" fill="none" stroke-linecap="round"></path><path d="M 138.931,343.437 C 146.375,340.644 146.406,340.568 154.112,338.640" stroke-width="4.611" stroke="black" fill="none" stroke-linecap="round"></path><path d="M 154.112,338.640 C 160.788,336.971 160.904,337.441 167.695,336.242" stroke-width="4.856" stroke="black" fill="none" stroke-linecap="round"></path><path d="M 222.027,289.077 C 217.233,289.477 216.613,287.963 212.439,289.877" stroke-width="8.267" stroke="black" fill="none" stroke-linecap="round"></path><path d="M 212.439,289.877 C 207.025,292.360 207.351,293.565 202.851,297.871" stroke-width="5.842" stroke="black" fill="none" stroke-linecap="round"></path><path d="M 202.851,297.871 C 198.162,302.358 197.980,302.307 194.062,307.464" stroke-width="5.301" stroke="black" fill="none" stroke-linecap="round"></path><path d="M 194.062,307.464 C 190.389,312.299 190.280,312.397 187.670,317.856" stroke-width="5.258" stroke="black" fill="none" stroke-linecap="round"></path><path d="M 187.670,317.856 C 185.885,321.590 184.146,323.369 185.273,325.850" stroke-width="5.780" stroke="black" fill="none" stroke-linecap="round"></path><path d="M 185.273,325.850 C 186.144,327.765 188.926,327.895 191.665,326.649" stroke-width="7.158" stroke="black" fill="none" stroke-linecap="round"></path><path d="M 191.665,326.649 C 197.715,323.898 197.976,322.937 202.851,317.856" stroke-width="5.295" stroke="black" fill="none" stroke-linecap="round"></path><path d="M 202.851,317.856 C 207.564,312.945 207.285,312.524 210.841,306.664" stroke-width="4.968" stroke="black" fill="none" stroke-linecap="round"></path><path d="M 210.841,306.664 C 214.077,301.333 213.729,301.112 216.434,295.473" stroke-width="5.118" stroke="black" fill="none" stroke-linecap="round"></path><path d="M 216.434,295.473 C 218.523,291.119 218.917,287.688 220.429,286.679" stroke-width="5.748" stroke="black" fill="none" stroke-linecap="round"></path><path d="M 220.429,286.679 C 221.314,286.089 220.738,289.493 221.228,292.275" stroke-width="7.330" stroke="black" fill="none" stroke-linecap="round"></path><path d="M 221.228,292.275 C 221.936,296.288 222.064,296.265 222.826,300.269" stroke-width="6.410" stroke="black" fill="none" stroke-linecap="round"></path><path d="M 222.826,300.269 C 223.662,304.659 223.080,304.836 224.425,309.063" stroke-width="6.043" stroke="black" fill="none" stroke-linecap="round"></path><path d="M 224.425,309.063 C 225.877,313.630 226.353,313.492 228.419,317.856" stroke-width="5.827" stroke="black" fill="none" stroke-linecap="round"></path><path d="M 228.419,317.856 C 229.949,321.086 229.846,321.153 231.615,324.251" stroke-width="6.244" stroke="black" fill="none" stroke-linecap="round"></path><path d="M 231.615,324.251 C 233.042,326.749 233.213,326.649 234.811,329.048" stroke-width="6.500" stroke="black" fill="none" stroke-linecap="round"></path><path d="M 226.822,241.113 C 230.417,243.911 230.805,243.500 234.013,246.709" stroke-width="8.422" stroke="black" fill="none" stroke-linecap="round"></path><path d="M 234.013,246.709 C 239.994,252.693 240.055,252.756 245.199,259.499" stroke-width="5.232" stroke="black" fill="none" stroke-linecap="round"></path><path d="M 245.199,259.499 C 251.641,267.945 251.476,268.112 257.184,277.086" stroke-width="4.500" stroke="black" fill="none" stroke-linecap="round"></path><path d="M 257.184,277.086 C 262.662,285.699 262.506,285.806 267.571,294.673" stroke-width="4.500" stroke="black" fill="none" stroke-linecap="round"></path><path d="M 267.571,294.673 C 272.094,302.594 272.196,302.549 276.360,310.661" stroke-width="4.500" stroke="black" fill="none" stroke-linecap="round"></path><path d="M 276.360,310.661 C 279.787,317.338 279.763,317.373 282.752,324.251" stroke-width="4.618" stroke="black" fill="none" stroke-linecap="round"></path><path d="M 282.752,324.251 C 283.758,326.566 283.380,326.720 284.350,329.048" stroke-width="5.977" stroke="black" fill="none" stroke-linecap="round"></path><path d="M 284.350,329.048 C 285.378,331.516 286.541,333.844 286.747,333.844" stroke-width="6.557" stroke="black" fill="none" stroke-linecap="round"></path><path d="M 286.747,333.844 C 286.940,333.844 285.813,331.485 285.149,329.048" stroke-width="7.383" stroke="black" fill="none" stroke-linecap="round"></path><path d="M 285.149,329.048 C 283.416,322.692 283.272,322.712 281.953,316.257" stroke-width="5.479" stroke="black" fill="none" stroke-linecap="round"></path><path d="M 281.953,316.257 C 279.677,305.125 279.825,305.085 277.958,293.874" stroke-width="4.526" stroke="black" fill="none" stroke-linecap="round"></path><path d="M 277.958,293.874 C 277.428,290.696 277.305,290.692 277.159,287.479" stroke-width="5.762" stroke="black" fill="none" stroke-linecap="round"></path><path d="M 277.159,287.479 C 276.905,281.899 275.576,281.036 277.159,276.287" stroke-width="5.523" stroke="black" fill="none" stroke-linecap="round"></path><path d="M 277.159,276.287 C 277.973,273.842 279.510,272.784 281.953,273.089" stroke-width="6.884" stroke="black" fill="none" stroke-linecap="round"></path><path d="M 281.953,273.089 C 285.902,273.583 286.094,275.267 289.943,277.886" stroke-width="6.098" stroke="black" fill="none" stroke-linecap="round"></path><path d="M 289.943,277.886 C 296.081,282.062 295.983,282.219 301.928,286.679" stroke-width="5.129" stroke="black" fill="none" stroke-linecap="round"></path><path d="M 301.928,286.679 C 308.767,291.811 308.878,291.680 315.511,297.071" stroke-width="4.758" stroke="black" fill="none" stroke-linecap="round"></path><path d="M 315.511,297.071 C 321.662,302.072 321.672,302.086 327.496,307.464" stroke-width="4.588" stroke="black" fill="none" stroke-linecap="round"></path><path d="M 327.496,307.464 C 332.060,311.679 332.020,311.740 336.285,316.257" stroke-width="4.999" stroke="black" fill="none" stroke-linecap="round"></path><path d="M 336.285,316.257 C 338.812,318.934 338.682,319.055 341.079,321.853" stroke-width="5.831" stroke="black" fill="none" stroke-linecap="round"></path><path d="M 326.697,272.290 C 333.888,277.086 333.817,277.196 341.079,281.883" stroke-width="7.974" stroke="black" fill="none" stroke-linecap="round"></path><path d="M 341.079,281.883 C 346.202,285.190 346.257,285.106 351.466,288.278" stroke-width="5.841" stroke="black" fill="none" stroke-linecap="round"></path><path d="M 351.466,288.278 C 355.445,290.702 355.211,291.576 359.456,293.074" stroke-width="5.821" stroke="black" fill="none" stroke-linecap="round"></path><path d="M 359.456,293.074 C 362.003,293.974 364.524,294.911 365.049,293.074" stroke-width="7.037" stroke="black" fill="none" stroke-linecap="round"></path><path d="M 365.049,293.074 C 366.122,289.315 363.591,287.519 362.652,281.883" stroke-width="6.822" stroke="black" fill="none" stroke-linecap="round"></path><path d="M 362.652,281.883 C 361.993,277.926 362.273,277.884 361.853,273.889" stroke-width="6.309" stroke="black" fill="none" stroke-linecap="round"></path><path d="M 361.853,273.889 C 361.474,270.289 360.451,270.113 361.054,266.694" stroke-width="6.311" stroke="black" fill="none" stroke-linecap="round"></path><path d="M 361.054,266.694 C 361.649,263.318 361.797,262.548 364.250,260.299" stroke-width="7.059" stroke="black" fill="none" stroke-linecap="round"></path><path d="M 364.250,260.299 C 366.591,258.151 367.391,258.935 370.642,257.901" stroke-width="6.600" stroke="black" fill="none" stroke-linecap="round"></path><path d="M 370.642,257.901 C 376.180,256.137 376.221,256.251 381.828,254.703" stroke-width="5.667" stroke="black" fill="none" stroke-linecap="round"></path><path d="M 381.828,254.703 C 387.806,253.053 387.942,253.463 393.813,251.505" stroke-width="5.334" stroke="black" fill="none" stroke-linecap="round"></path><path d="M 393.813,251.505 C 398.729,249.866 398.667,249.640 403.401,247.508" stroke-width="5.508" stroke="black" fill="none" stroke-linecap="round"></path><path d="M 403.401,247.508 C 406.657,246.042 406.516,245.716 409.793,244.311" stroke-width="6.063" stroke="black" fill="none" stroke-linecap="round"></path><path d="M 409.793,244.311 C 412.109,243.317 416.157,242.165 414.587,242.712" stroke-width="7.204" stroke="black" fill="none" stroke-linecap="round"></path><path d="M 414.587,242.712 C 406.969,245.363 403.244,247.569 391.416,250.706" stroke-width="5.698" stroke="black" fill="none" stroke-linecap="round"></path><path d="M 391.416,250.706 C 370.086,256.363 369.999,256.346 348.270,260.299" stroke-width="4.500" stroke="black" fill="none" stroke-linecap="round"></path><path d="M 348.270,260.299 C 321.660,265.140 321.489,264.204 294.737,268.293" stroke-width="4.500" stroke="black" fill="none" stroke-linecap="round"></path><path d="M 294.737,268.293 C 263.961,272.997 263.670,271.624 233.214,277.886" stroke-width="4.500" stroke="black" fill="none" stroke-linecap="round"></path><path d="M 233.214,277.886 C 205.343,283.615 205.475,284.475 178.082,292.275" stroke-width="4.500" stroke="black" fill="none" stroke-linecap="round"></path><path d="M 178.082,292.275 C 153.540,299.264 153.451,299.123 129.343,307.464" stroke-width="4.500" stroke="black" fill="none" stroke-linecap="round"></path><path d="M 129.343,307.464 C 110.704,313.912 111.103,315.043 92.589,321.853" stroke-width="4.500" stroke="black" fill="none" stroke-linecap="round"></path><path d="M 92.589,321.853 C 83.937,325.036 76.445,329.293 75.011,327.449" stroke-width="4.500" stroke="black" fill="none" stroke-linecap="round"></path><path d="M 75.011,327.449 C 73.649,325.696 79.992,319.883 86.996,314.658" stroke-width="4.948" stroke="black" fill="none" stroke-linecap="round"></path><path d="M 86.996,314.658 C 123.937,287.107 124.363,287.389 162.901,261.898" stroke-width="4.500" stroke="black" fill="none" stroke-linecap="round"></path><path d="M 162.901,261.898 C 196.273,239.824 196.096,239.380 230.816,219.529" stroke-width="4.500" stroke="black" fill="none" stroke-linecap="round"></path><path d="M 230.816,219.529 C 266.009,199.409 265.980,199.011 302.727,181.957" stroke-width="4.500" stroke="black" fill="none" stroke-linecap="round"></path><path d="M 302.727,181.957 C 332.297,168.234 332.277,166.887 363.451,157.975" stroke-width="4.500" stroke="black" fill="none" stroke-linecap="round"></path><path d="M 363.451,157.975 C 385.410,151.698 386.284,152.091 408.994,151.580" stroke-width="4.500" stroke="black" fill="none" stroke-linecap="round"></path><path d="M 408.994,151.580 C 421.840,151.291 424.114,150.652 434.562,156.376" stroke-width="4.500" stroke="black" fill="none" stroke-linecap="round"></path><path d="M 434.562,156.376 C 440.893,159.845 441.201,163.207 442.552,169.966" stroke-width="4.500" stroke="black" fill="none" stroke-linecap="round"></path><path d="M 442.552,169.966 C 443.198,173.199 441.025,173.519 438.557,176.362" stroke-width="5.393" stroke="black" fill="none" stroke-linecap="round"></path><path d="M 438.557,176.362 C 419.851,197.901 421.320,199.609 400.205,218.730" stroke-width="4.500" stroke="black" fill="none" stroke-linecap="round"></path><path d="M 400.205,218.730 C 366.588,249.172 365.058,247.637 329.094,275.488" stroke-width="4.500" stroke="black" fill="none" stroke-linecap="round"></path><path d="M 329.094,275.488 C 294.346,302.396 293.717,301.579 258.782,328.248" stroke-width="4.500" stroke="black" fill="none" stroke-linecap="round"></path><path d="M 258.782,328.248 C 224.603,354.339 224.062,353.711 190.866,381.009" stroke-width="4.500" stroke="black" fill="none" stroke-linecap="round"></path><path d="M 190.866,381.009 C 165.735,401.675 165.052,401.240 142.127,424.177" stroke-width="4.500" stroke="black" fill="none" stroke-linecap="round"></path><path d="M 142.127,424.177 C 131.094,435.215 132.539,436.567 122.951,448.958" stroke-width="4.500" stroke="black" fill="none" stroke-linecap="round"></path></svg>