<svg xmlns="http://www.w3.org/2000/svg" xmlns:xlink="http://www.w3.org/1999/xlink" viewBox="0 0 576 416" width="576" height="416"><path d="M 344.275,199.944 C 339.880,199.145 339.841,198.345 335.486,198.345" stroke-width="8.651" stroke="black" fill="none" stroke-linecap="round"></path><path d="M 335.486,198.345 C 332.650,198.345 332.672,199.089 329.893,199.944" stroke-width="7.976" stroke="black" fill="none" stroke-linecap="round"></path><path d="M 329.893,199.944 C 327.478,200.687 327.084,200.153 325.099,201.543" stroke-width="7.855" stroke="black" fill="none" stroke-linecap="round"></path><path d="M 325.099,201.543 C 323.089,202.951 322.613,203.230 321.903,205.540" stroke-width="7.832" stroke="black" fill="none" stroke-linecap="round"></path><path d="M 321.903,205.540 C 321.015,208.426 320.793,209.271 321.903,211.935" stroke-width="8.104" stroke="black" fill="none" stroke-linecap="round"></path><path d="M 321.903,211.935 C 322.791,214.067 323.694,213.873 325.898,215.133" stroke-width="7.905" stroke="black" fill="none" stroke-linecap="round"></path><path d="M 325.898,215.133 C 329.287,217.071 329.529,216.655 333.089,218.331" stroke-width="7.507" stroke="black" fill="none" stroke-linecap="round"></path><path d="M 333.089,218.331 C 336.321,219.852 339.677,220.347 339.481,221.528" stroke-width="7.430" stroke="black" fill="none" stroke-linecap="round"></path><path d="M 339.481,221.528 C 339.278,222.745 335.935,222.780 332.290,223.127" stroke-width="8.079" stroke="black" fill="none" stroke-linecap="round"></path><path d="M 332.290,223.127 C 327.545,223.579 327.489,223.311 322.702,223.127" stroke-width="6.298" stroke="black" fill="none" stroke-linecap="round"></path><path d="M 322.702,223.127 C 317.102,222.911 317.109,222.727 311.516,222.328" stroke-width="5.659" stroke="black" fill="none" stroke-linecap="round"></path><path d="M 311.516,222.328 C 305.923,221.928 305.929,221.744 300.330,221.528" stroke-width="5.491" stroke="black" fill="none" stroke-linecap="round"></path><path d="M 300.330,221.528 C 295.542,221.344 295.525,221.746 290.742,221.528" stroke-width="5.752" stroke="black" fill="none" stroke-linecap="round"></path><path d="M 290.742,221.528 C 286.736,221.346 286.744,221.149 282.752,220.729" stroke-width="6.000" stroke="black" fill="none" stroke-linecap="round"></path><path d="M 282.752,220.729 C 279.154,220.350 279.089,220.635 275.561,219.929" stroke-width="6.137" stroke="black" fill="none" stroke-linecap="round"></path><path d="M 275.561,219.929 C 273.096,219.436 273.194,219.024 270.767,218.331" stroke-width="6.676" stroke="black" fill="none" stroke-linecap="round"></path><path d="M 270.767,218.331 C 267.601,217.426 266.797,215.850 264.375,216.732" stroke-width="7.258" stroke="black" fill="none" stroke-linecap="round"></path><path d="M 264.375,216.732 C 262.403,217.449 263.408,219.278 261.978,221.528" stroke-width="8.157" stroke="black" fill="none" stroke-linecap="round"></path><path d="M 261.978,221.528 C 260.612,223.675 260.908,224.309 258.782,225.525" stroke-width="8.299" stroke="black" fill="none" stroke-linecap="round"></path><path d="M 258.782,225.525 C 255.315,227.507 254.683,226.463 250.792,227.923" stroke-width="8.108" stroke="black" fill="none" stroke-linecap="round"></path><path d="M 250.792,227.923 C 248.291,228.861 248.465,229.293 245.998,230.322" stroke-width="7.250" stroke="black" fill="none" stroke-linecap="round"></path><path d="M 245.998,230.322 C 243.671,231.291 243.568,231.033 241.203,231.920" stroke-width="6.958" stroke="black" fill="none" stroke-linecap="round"></path><circle r="3" cx="242.00253295898438" cy="247.90841674804688" fill="black"></circle><path d="M 244.400,135.193 C 246.797,145.185 246.867,145.169 249.194,155.178" stroke-width="7.748" stroke="black" fill="none" stroke-linecap="round"></path><path d="M 249.194,155.178 C 250.862,162.356 251.321,162.297 252.390,169.567" stroke-width="5.315" stroke="black" fill="none" stroke-linecap="round"></path><path d="M 252.390,169.567 C 253.319,175.887 252.776,175.963 253.189,182.357" stroke-width="5.185" stroke="black" fill="none" stroke-linecap="round"></path><path d="M 253.189,182.357 C 253.575,188.354 255.108,191.265 253.988,194.348" stroke-width="6.066" stroke="black" fill="none" stroke-linecap="round"></path><path d="M 253.988,194.348 C 253.510,195.661 251.361,193.205 249.993,191.151" stroke-width="7.514" stroke="black" fill="none" stroke-linecap="round"></path><path d="M 249.993,191.151 C 248.165,188.409 248.743,187.971 247.596,184.756" stroke-width="6.865" stroke="black" fill="none" stroke-linecap="round"></path><path d="M 247.596,184.756 C 246.746,182.375 246.377,179.769 245.998,179.959" stroke-width="7.516" stroke="black" fill="none" stroke-linecap="round"></path><path d="M 245.998,179.959 C 245.578,180.169 245.799,182.771 245.998,185.555" stroke-width="8.243" stroke="black" fill="none" stroke-linecap="round"></path><path d="M 245.998,185.555 C 246.198,188.367 246.164,188.408 246.797,191.151" stroke-width="8.144" stroke="black" fill="none" stroke-linecap="round"></path><path d="M 246.797,191.151 C 247.362,193.604 249.241,195.778 248.395,195.947" stroke-width="8.175" stroke="black" fill="none" stroke-linecap="round"></path><path d="M 248.395,195.947 C 247.243,196.178 245.887,193.301 242.802,191.950" stroke-width="8.280" stroke="black" fill="none" stroke-linecap="round"></path><path d="M 242.802,191.950 C 239.495,190.503 239.253,190.827 235.611,190.351" stroke-width="6.770" stroke="black" fill="none" stroke-linecap="round"></path><path d="M 235.611,190.351 C 230.065,189.628 230.014,189.405 224.425,189.552" stroke-width="5.767" stroke="black" fill="none" stroke-linecap="round"></path><path d="M 224.425,189.552 C 214.833,189.804 214.802,190.048 205.248,191.151" stroke-width="4.591" stroke="black" fill="none" stroke-linecap="round"></path><path d="M 205.248,191.151 C 194.028,192.446 193.968,192.255 182.876,194.348" stroke-width="4.500" stroke="black" fill="none" stroke-linecap="round"></path><path d="M 182.876,194.348 C 172.794,196.252 172.776,196.353 162.901,199.145" stroke-width="4.500" stroke="black" fill="none" stroke-linecap="round"></path><path d="M 162.901,199.145 C 154.399,201.549 154.487,201.871 146.122,204.741" stroke-width="4.500" stroke="black" fill="none" stroke-linecap="round"></path><path d="M 146.122,204.741 C 140.505,206.668 140.250,206.206 134.936,208.738" stroke-width="4.954" stroke="black" fill="none" stroke-linecap="round"></path><path d="M 134.936,208.738 C 131.861,210.203 129.536,210.420 129.343,212.735" stroke-width="5.890" stroke="black" fill="none" stroke-linecap="round"></path><path d="M 129.343,212.735 C 129.137,215.216 130.817,217.259 134.137,218.331" stroke-width="6.870" stroke="black" fill="none" stroke-linecap="round"></path><path d="M 134.137,218.331 C 143.202,221.256 144.093,219.869 154.112,220.729" stroke-width="4.561" stroke="black" fill="none" stroke-linecap="round"></path><path d="M 154.112,220.729 C 172.058,222.268 172.083,222.047 190.067,223.127" stroke-width="4.500" stroke="black" fill="none" stroke-linecap="round"></path><path d="M 190.067,223.127 C 212.033,224.446 212.070,223.914 234.013,225.525" stroke-width="4.500" stroke="black" fill="none" stroke-linecap="round"></path><path d="M 234.013,225.525 C 255.616,227.111 255.572,227.688 277.159,229.522" stroke-width="4.500" stroke="black" fill="none" stroke-linecap="round"></path><path d="M 277.159,229.522 C 297.919,231.286 297.992,230.561 318.707,232.720" stroke-width="4.500" stroke="black" fill="none" stroke-linecap="round"></path><path d="M 318.707,232.720 C 336.344,234.558 336.287,235.098 353.863,237.516" stroke-width="4.500" stroke="black" fill="none" stroke-linecap="round"></path><path d="M 353.863,237.516 C 368.247,239.495 368.312,239.126 382.627,241.513" stroke-width="4.500" stroke="black" fill="none" stroke-linecap="round"></path><path d="M 382.627,241.513 C 392.282,243.123 392.169,243.809 401.803,245.510" stroke-width="4.500" stroke="black" fill="none" stroke-linecap="round"></path><path d="M 401.803,245.510 C 405.752,246.208 405.798,245.910 409.793,246.310" stroke-width="5.139" stroke="black" fill="none" stroke-linecap="round"></path><path d="M 247.596,218.331 C 237.209,216.732 237.261,216.199 226.822,215.133" stroke-width="7.473" stroke="black" fill="none" stroke-linecap="round"></path><path d="M 226.822,215.133 C 217.685,214.200 217.637,214.529 208.444,214.333" stroke-width="4.949" stroke="black" fill="none" stroke-linecap="round"></path><path d="M 208.444,214.333 C 198.861,214.130 198.841,213.943 189.268,214.333" stroke-width="4.500" stroke="black" fill="none" stroke-linecap="round"></path><path d="M 189.268,214.333 C 179.265,214.742 179.278,215.100 169.293,215.932" stroke-width="4.500" stroke="black" fill="none" stroke-linecap="round"></path><path d="M 169.293,215.932 C 160.102,216.699 160.014,216.166 150.916,217.531" stroke-width="4.500" stroke="black" fill="none" stroke-linecap="round"></path><path d="M 150.916,217.531 C 144.034,218.564 144.100,219.036 137.333,220.729" stroke-width="4.757" stroke="black" fill="none" stroke-linecap="round"></path><path d="M 137.333,220.729 C 134.512,221.434 134.479,221.360 131.740,222.328" stroke-width="5.972" stroke="black" fill="none" stroke-linecap="round"></path><path d="M 131.740,222.328 C 127.688,223.759 125.920,222.871 123.750,225.525" stroke-width="6.053" stroke="black" fill="none" stroke-linecap="round"></path><path d="M 123.750,225.525 C 122.325,227.268 122.513,229.975 124.549,231.121" stroke-width="7.088" stroke="black" fill="none" stroke-linecap="round"></path><path d="M 124.549,231.121 C 128.905,233.572 130.516,232.160 136.534,232.720" stroke-width="5.701" stroke="black" fill="none" stroke-linecap="round"></path><path d="M 136.534,232.720 C 164.873,235.357 164.859,235.794 193.263,237.516" stroke-width="4.500" stroke="black" fill="none" stroke-linecap="round"></path><path d="M 193.263,237.516 C 217.593,238.991 217.651,237.936 242.003,239.115" stroke-width="4.500" stroke="black" fill="none" stroke-linecap="round"></path><path d="M 242.003,239.115 C 267.189,240.334 267.164,240.831 292.340,242.313" stroke-width="4.500" stroke="black" fill="none" stroke-linecap="round"></path><path d="M 292.340,242.313 C 314.705,243.629 314.745,243.081 337.084,244.711" stroke-width="4.500" stroke="black" fill="none" stroke-linecap="round"></path><path d="M 337.084,244.711 C 353.097,245.879 353.041,246.617 369.044,247.908" stroke-width="4.500" stroke="black" fill="none" stroke-linecap="round"></path><path d="M 369.044,247.908 C 377.810,248.616 377.892,247.863 386.622,248.708" stroke-width="4.500" stroke="black" fill="none" stroke-linecap="round"></path><path d="M 224.425,230.322 C 226.422,222.327 226.766,222.398 228.419,214.333" stroke-width="7.800" stroke="black" fill="none" stroke-linecap="round"></path><path d="M 228.419,214.333 C 229.962,206.809 229.909,206.775 230.816,199.145" stroke-width="5.359" stroke="black" fill="none" stroke-linecap="round"></path><path d="M 230.816,199.145 C 231.906,189.987 232.005,189.969 232.415,180.759" stroke-width="4.583" stroke="black" fill="none" stroke-linecap="round"></path><path d="M 232.415,180.759 C 232.804,171.982 232.415,171.965 232.415,163.172" stroke-width="4.500" stroke="black" fill="none" stroke-linecap="round"></path><path d="M 232.415,163.172 C 232.415,155.577 232.638,155.570 232.415,147.983" stroke-width="4.665" stroke="black" fill="none" stroke-linecap="round"></path><path d="M 232.415,147.983 C 232.238,141.980 232.233,141.965 231.615,135.992" stroke-width="5.074" stroke="black" fill="none" stroke-linecap="round"></path><path d="M 231.615,135.992 C 231.035,130.373 231.239,125.004 230.017,124.800" stroke-width="6.084" stroke="black" fill="none" stroke-linecap="round"></path><path d="M 230.017,124.800 C 228.842,124.604 227.415,129.845 226.822,135.193" stroke-width="7.176" stroke="black" fill="none" stroke-linecap="round"></path><path d="M 226.822,135.193 C 225.817,144.235 226.822,144.386 226.822,153.579" stroke-width="5.024" stroke="black" fill="none" stroke-linecap="round"></path><path d="M 226.822,153.579 C 226.822,159.175 226.542,159.184 226.822,164.770" stroke-width="5.300" stroke="black" fill="none" stroke-linecap="round"></path><path d="M 226.822,164.770 C 227.741,183.166 228.055,183.155 229.218,201.543" stroke-width="4.500" stroke="black" fill="none" stroke-linecap="round"></path><path d="M 229.218,201.543 C 230.053,214.731 229.804,214.750 230.816,227.923" stroke-width="4.500" stroke="black" fill="none" stroke-linecap="round"></path><path d="M 230.816,227.923 C 231.801,240.730 232.374,240.691 233.214,253.504" stroke-width="4.500" stroke="black" fill="none" stroke-linecap="round"></path><path d="M 233.214,253.504 C 233.972,265.073 233.794,265.092 234.013,276.687" stroke-width="4.500" stroke="black" fill="none" stroke-linecap="round"></path><path d="M 234.013,276.687 C 234.193,286.277 234.013,286.280 234.013,295.873" stroke-width="4.500" stroke="black" fill="none" stroke-linecap="round"></path><path d="M 234.013,295.873 C 234.013,302.668 234.264,302.680 234.013,309.462" stroke-width="4.790" stroke="black" fill="none" stroke-linecap="round"></path><path d="M 234.013,309.462 C 233.864,313.472 233.613,313.460 233.214,317.457" stroke-width="5.645" stroke="black" fill="none" stroke-linecap="round"></path><circle r="3" cx="285.9476013183594" cy="301.4684753417969" fill="black"></circle><circle r="3" cx="157.30838012695312" cy="147.18359375" fill="black"></circle></svg>