<svg xmlns="http://www.w3.org/2000/svg" xmlns:xlink="http://www.w3.org/1999/xlink" viewBox="0 0 576 416" width="576" height="416"><path d="M 401.803,215.532 C 404.599,220.329 404.919,220.170 407.396,225.125" stroke-width="8.238" stroke="black" fill="none" stroke-linecap="round"></path><path d="M 407.396,225.125 C 409.713,229.762 409.949,229.749 411.391,234.718" stroke-width="6.183" stroke="black" fill="none" stroke-linecap="round"></path><path d="M 411.391,234.718 C 413.544,242.140 413.870,242.255 414.587,249.907" stroke-width="5.357" stroke="black" fill="none" stroke-linecap="round"></path><path d="M 414.587,249.907 C 415.068,255.045 414.988,255.295 413.788,260.299" stroke-width="5.422" stroke="black" fill="none" stroke-linecap="round"></path><path d="M 413.788,260.299 C 412.591,265.288 412.915,265.875 409.793,269.892" stroke-width="5.618" stroke="black" fill="none" stroke-linecap="round"></path><path d="M 409.793,269.892 C 404.526,276.667 404.214,277.077 397.009,281.883" stroke-width="4.731" stroke="black" fill="none" stroke-linecap="round"></path><path d="M 397.009,281.883 C 388.634,287.469 387.966,286.616 378.632,290.676" stroke-width="4.500" stroke="black" fill="none" stroke-linecap="round"></path><path d="M 378.632,290.676 C 369.589,294.610 369.501,294.429 360.255,297.871" stroke-width="4.500" stroke="black" fill="none" stroke-linecap="round"></path><path d="M 360.255,297.871 C 352.322,300.824 352.325,300.855 344.275,303.467" stroke-width="4.500" stroke="black" fill="none" stroke-linecap="round"></path><path d="M 344.275,303.467 C 337.543,305.651 337.524,305.623 330.692,307.464" stroke-width="4.749" stroke="black" fill="none" stroke-linecap="round"></path><path d="M 330.692,307.464 C 327.137,308.421 327.096,308.263 323.501,309.063" stroke-width="5.726" stroke="black" fill="none" stroke-linecap="round"></path><path d="M 329.094,255.502 C 324.699,260.699 323.943,260.295 320.305,265.895" stroke-width="7.997" stroke="black" fill="none" stroke-linecap="round"></path><path d="M 320.305,265.895 C 318.749,268.289 318.909,268.652 318.707,271.491" stroke-width="7.046" stroke="black" fill="none" stroke-linecap="round"></path><path d="M 318.707,271.491 C 318.510,274.248 318.952,274.319 319.506,277.086" stroke-width="6.839" stroke="black" fill="none" stroke-linecap="round"></path><path d="M 319.506,277.086 C 320.151,280.314 320.011,280.385 321.104,283.482" stroke-width="6.588" stroke="black" fill="none" stroke-linecap="round"></path><path d="M 321.104,283.482 C 322.408,287.180 322.702,287.079 324.300,290.676" stroke-width="6.276" stroke="black" fill="none" stroke-linecap="round"></path><path d="M 324.300,290.676 C 325.898,294.274 326.741,294.095 327.496,297.871" stroke-width="6.188" stroke="black" fill="none" stroke-linecap="round"></path><path d="M 327.496,297.871 C 328.339,302.089 327.976,302.335 327.496,306.664" stroke-width="6.804" stroke="black" fill="none" stroke-linecap="round"></path><path d="M 327.496,306.664 C 327.177,309.529 325.898,313.521 325.898,312.260" stroke-width="6.659" stroke="black" fill="none" stroke-linecap="round"></path><path d="M 283.551,276.287 C 275.561,279.485 275.205,278.774 267.571,282.682" stroke-width="7.452" stroke="black" fill="none" stroke-linecap="round"></path><path d="M 267.571,282.682 C 258.027,287.568 258.075,287.824 249.194,293.874" stroke-width="4.739" stroke="black" fill="none" stroke-linecap="round"></path><path d="M 249.194,293.874 C 239.298,300.615 239.325,300.725 230.017,308.263" stroke-width="4.500" stroke="black" fill="none" stroke-linecap="round"></path><path d="M 230.017,308.263 C 222.546,314.315 222.160,314.060 215.635,321.054" stroke-width="4.500" stroke="black" fill="none" stroke-linecap="round"></path><path d="M 215.635,321.054 C 210.974,326.051 210.419,326.190 207.645,332.245" stroke-width="4.695" stroke="black" fill="none" stroke-linecap="round"></path><path d="M 207.645,332.245 C 206.025,335.783 204.315,339.173 206.846,340.239" stroke-width="5.604" stroke="black" fill="none" stroke-linecap="round"></path><path d="M 206.846,340.239 C 211.906,342.371 215.216,340.974 222.826,338.640" stroke-width="5.951" stroke="black" fill="none" stroke-linecap="round"></path><path d="M 222.826,338.640 C 239.985,333.380 239.898,332.493 256.385,325.051" stroke-width="4.500" stroke="black" fill="none" stroke-linecap="round"></path><path d="M 256.385,325.051 C 272.657,317.704 272.580,317.461 288.345,309.063" stroke-width="4.500" stroke="black" fill="none" stroke-linecap="round"></path><path d="M 288.345,309.063 C 303.342,301.073 303.376,301.080 317.908,292.275" stroke-width="4.500" stroke="black" fill="none" stroke-linecap="round"></path><path d="M 317.908,292.275 C 331.740,283.893 331.479,283.463 345.074,274.688" stroke-width="4.500" stroke="black" fill="none" stroke-linecap="round"></path><path d="M 345.074,274.688 C 356.248,267.475 356.268,267.506 367.446,260.299" stroke-width="4.500" stroke="black" fill="none" stroke-linecap="round"></path><path d="M 367.446,260.299 C 374.245,255.915 374.127,255.709 381.029,251.505" stroke-width="4.500" stroke="black" fill="none" stroke-linecap="round"></path><path d="M 381.029,251.505 C 383.315,250.113 387.762,248.018 385.823,249.107" stroke-width="5.772" stroke="black" fill="none" stroke-linecap="round"></path><path d="M 385.823,249.107 C 364.990,260.809 360.259,262.424 335.486,277.086" stroke-width="4.500" stroke="black" fill="none" stroke-linecap="round"></path><path d="M 335.486,277.086 C 303.530,295.999 303.064,295.415 272.365,316.257" stroke-width="4.500" stroke="black" fill="none" stroke-linecap="round"></path><path d="M 272.365,316.257 C 247.134,333.387 245.930,332.447 223.625,353.030" stroke-width="4.500" stroke="black" fill="none" stroke-linecap="round"></path><path d="M 223.625,353.030 C 204.782,370.418 206.846,372.615 190.067,392.200" stroke-width="4.500" stroke="black" fill="none" stroke-linecap="round"></path></svg>