<svg xmlns="http://www.w3.org/2000/svg" xmlns:xlink="http://www.w3.org/1999/xlink" viewBox="0 0 576 416" width="576" height="416"><path d="M 429.768,203.541 C 424.974,206.339 424.884,206.195 420.180,209.137" stroke-width="8.089" stroke="black" fill="none" stroke-linecap="round"></path><path d="M 420.180,209.137 C 415.296,212.191 415.623,212.755 410.592,215.532" stroke-width="6.073" stroke="black" fill="none" stroke-linecap="round"></path><path d="M 410.592,215.532 C 404.038,219.150 403.895,218.948 397.009,221.928" stroke-width="4.996" stroke="black" fill="none" stroke-linecap="round"></path><path d="M 397.009,221.928 C 389.114,225.343 389.128,225.429 381.029,228.323" stroke-width="4.713" stroke="black" fill="none" stroke-linecap="round"></path><path d="M 381.029,228.323 C 372.349,231.424 372.380,231.685 363.451,233.919" stroke-width="4.500" stroke="black" fill="none" stroke-linecap="round"></path><path d="M 363.451,233.919 C 354.802,236.082 354.709,235.853 345.873,237.116" stroke-width="4.500" stroke="black" fill="none" stroke-linecap="round"></path><path d="M 345.873,237.116 C 337.930,238.251 337.878,238.715 329.893,238.715" stroke-width="4.547" stroke="black" fill="none" stroke-linecap="round"></path><path d="M 329.893,238.715 C 322.697,238.715 322.548,238.573 315.511,237.116" stroke-width="4.848" stroke="black" fill="none" stroke-linecap="round"></path><path d="M 315.511,237.116 C 310.962,236.175 310.923,235.929 306.722,233.919" stroke-width="5.481" stroke="black" fill="none" stroke-linecap="round"></path><path d="M 306.722,233.919 C 301.735,231.532 301.598,231.572 297.134,228.323" stroke-width="5.363" stroke="black" fill="none" stroke-linecap="round"></path><path d="M 297.134,228.323 C 292.809,225.176 292.088,225.448 289.144,221.128" stroke-width="5.467" stroke="black" fill="none" stroke-linecap="round"></path><path d="M 289.144,221.128 C 286.095,216.655 286.110,216.124 285.149,210.736" stroke-width="5.447" stroke="black" fill="none" stroke-linecap="round"></path><path d="M 285.149,210.736 C 284.113,204.933 284.514,204.668 285.149,198.745" stroke-width="5.327" stroke="black" fill="none" stroke-linecap="round"></path><path d="M 285.149,198.745 C 285.713,193.476 285.627,193.258 287.546,188.353" stroke-width="5.550" stroke="black" fill="none" stroke-linecap="round"></path><path d="M 287.546,188.353 C 289.222,184.065 289.439,183.930 292.340,180.359" stroke-width="5.645" stroke="black" fill="none" stroke-linecap="round"></path><path d="M 292.340,180.359 C 294.632,177.535 294.708,176.974 297.933,175.562" stroke-width="6.074" stroke="black" fill="none" stroke-linecap="round"></path><path d="M 297.933,175.562 C 301.100,174.176 301.701,174.078 305.124,174.763" stroke-width="6.239" stroke="black" fill="none" stroke-linecap="round"></path><path d="M 305.124,174.763 C 309.691,175.677 311.353,175.285 313.913,178.760" stroke-width="6.759" stroke="black" fill="none" stroke-linecap="round"></path><path d="M 313.913,178.760 C 316.946,182.879 317.249,184.687 316.310,189.951" stroke-width="6.741" stroke="black" fill="none" stroke-linecap="round"></path><path d="M 316.310,189.951 C 315.252,195.879 314.058,196.286 309.918,201.143" stroke-width="5.517" stroke="black" fill="none" stroke-linecap="round"></path><path d="M 309.918,201.143 C 302.472,209.876 302.331,210.186 293.139,217.131" stroke-width="4.500" stroke="black" fill="none" stroke-linecap="round"></path><path d="M 293.139,217.131 C 282.756,224.975 282.325,224.635 270.767,230.721" stroke-width="4.500" stroke="black" fill="none" stroke-linecap="round"></path><path d="M 270.767,230.721 C 259.553,236.626 259.445,236.616 247.596,241.113" stroke-width="4.500" stroke="black" fill="none" stroke-linecap="round"></path><path d="M 247.596,241.113 C 236.274,245.410 236.173,245.369 224.425,248.308" stroke-width="4.500" stroke="black" fill="none" stroke-linecap="round"></path><path d="M 224.425,248.308 C 213.801,250.965 213.720,251.195 202.851,252.305" stroke-width="4.500" stroke="black" fill="none" stroke-linecap="round"></path><path d="M 202.851,252.305 C 194.144,253.194 193.818,253.655 185.273,252.305" stroke-width="4.500" stroke="black" fill="none" stroke-linecap="round"></path><path d="M 185.273,252.305 C 178.637,251.256 177.253,251.594 172.489,247.508" stroke-width="4.708" stroke="black" fill="none" stroke-linecap="round"></path><path d="M 172.489,247.508 C 168.864,244.399 168.713,242.725 168.494,237.916" stroke-width="5.290" stroke="black" fill="none" stroke-linecap="round"></path><path d="M 168.494,237.916 C 168.313,233.931 169.996,233.877 171.690,229.922" stroke-width="5.751" stroke="black" fill="none" stroke-linecap="round"></path><path d="M 171.690,229.922 C 173.591,225.484 172.937,225.070 175.685,221.128" stroke-width="5.825" stroke="black" fill="none" stroke-linecap="round"></path><path d="M 175.685,221.128 C 184.922,207.883 184.700,207.335 195.660,195.547" stroke-width="4.500" stroke="black" fill="none" stroke-linecap="round"></path><path d="M 195.660,195.547 C 200.680,190.148 201.205,190.223 207.645,186.754" stroke-width="4.500" stroke="black" fill="none" stroke-linecap="round"></path><path d="M 207.645,186.754 C 211.592,184.627 212.030,184.588 216.434,184.356" stroke-width="5.290" stroke="black" fill="none" stroke-linecap="round"></path><path d="M 216.434,184.356 C 219.620,184.188 220.891,184.018 222.826,185.954" stroke-width="6.074" stroke="black" fill="none" stroke-linecap="round"></path><path d="M 222.826,185.954 C 224.487,187.615 224.100,188.823 223.625,191.550" stroke-width="7.157" stroke="black" fill="none" stroke-linecap="round"></path><path d="M 223.625,191.550 C 222.502,198.016 222.432,198.292 219.630,204.341" stroke-width="5.410" stroke="black" fill="none" stroke-linecap="round"></path><path d="M 219.630,204.341 C 214.842,214.679 214.899,214.916 208.444,224.326" stroke-width="4.500" stroke="black" fill="none" stroke-linecap="round"></path><path d="M 208.444,224.326 C 200.916,235.301 200.765,235.386 191.665,245.110" stroke-width="4.500" stroke="black" fill="none" stroke-linecap="round"></path><path d="M 191.665,245.110 C 183.187,254.172 182.726,253.804 173.288,261.898" stroke-width="4.500" stroke="black" fill="none" stroke-linecap="round"></path><path d="M 173.288,261.898 C 168.743,265.795 168.311,265.267 163.700,269.092" stroke-width="4.661" stroke="black" fill="none" stroke-linecap="round"></path><path d="M 163.700,269.092 C 151.931,278.857 152.056,279.017 140.529,289.077" stroke-width="4.500" stroke="black" fill="none" stroke-linecap="round"></path></svg>