<svg xmlns="http://www.w3.org/2000/svg" xmlns:xlink="http://www.w3.org/1999/xlink" viewBox="0 0 576 416" width="576" height="416"><path d="M 41.453,27.672 C 41.054,33.268 40.654,33.274 40.654,38.864" stroke-width="8.395" stroke="black" fill="none" stroke-linecap="round"></path><path d="M 40.654,38.864 C 40.654,42.867 41.262,42.851 41.453,46.858" stroke-width="6.655" stroke="black" fill="none" stroke-linecap="round"></path><path d="M 41.453,46.858 C 41.662,51.244 41.254,51.264 41.453,55.652" stroke-width="6.132" stroke="black" fill="none" stroke-linecap="round"></path><path d="M 41.453,55.652 C 41.653,60.057 41.834,60.050 42.252,64.445" stroke-width="5.984" stroke="black" fill="none" stroke-linecap="round"></path><path d="M 42.252,64.445 C 42.633,68.444 42.688,68.439 43.051,72.439" stroke-width="6.073" stroke="black" fill="none" stroke-linecap="round"></path><path d="M 43.051,72.439 C 43.487,77.232 43.347,77.247 43.850,82.032" stroke-width="6.641" stroke="black" fill="none" stroke-linecap="round"></path><path d="M 43.850,82.032 C 44.146,84.842 44.757,88.923 44.649,87.628" stroke-width="6.720" stroke="black" fill="none" stroke-linecap="round"></path><path d="M 33.463,47.658 C 42.652,44.860 42.629,44.784 51.840,42.062" stroke-width="8.028" stroke="black" fill="none" stroke-linecap="round"></path><path d="M 51.840,42.062 C 60.208,39.588 60.193,39.527 68.619,37.265" stroke-width="5.128" stroke="black" fill="none" stroke-linecap="round"></path><path d="M 68.619,37.265 C 76.573,35.130 76.597,35.216 84.599,33.268" stroke-width="4.725" stroke="black" fill="none" stroke-linecap="round"></path><path d="M 84.599,33.268 C 91.378,31.619 91.400,31.709 98.182,30.071" stroke-width="4.782" stroke="black" fill="none" stroke-linecap="round"></path><path d="M 98.182,30.071 C 102.986,28.911 102.953,28.768 107.770,27.672" stroke-width="5.384" stroke="black" fill="none" stroke-linecap="round"></path><path d="M 107.770,27.672 C 111.742,26.769 111.765,26.873 115.760,26.074" stroke-width="5.928" stroke="black" fill="none" stroke-linecap="round"></path><path d="M 47.046,63.646 C 53.039,62.447 53.011,62.286 59.031,61.247" stroke-width="8.089" stroke="black" fill="none" stroke-linecap="round"></path><path d="M 59.031,61.247 C 64.597,60.287 64.652,60.609 70.217,59.649" stroke-width="6.004" stroke="black" fill="none" stroke-linecap="round"></path><path d="M 70.217,59.649 C 76.237,58.610 76.218,58.489 82.202,57.250" stroke-width="5.445" stroke="black" fill="none" stroke-linecap="round"></path><path d="M 82.202,57.250 C 87.803,56.091 87.787,56.012 93.388,54.852" stroke-width="5.399" stroke="black" fill="none" stroke-linecap="round"></path><path d="M 93.388,54.852 C 99.373,53.613 99.438,53.868 105.373,52.454" stroke-width="6.199" stroke="black" fill="none" stroke-linecap="round"></path><path d="M 105.373,52.454 C 107.827,51.869 107.770,51.655 110.167,50.855" stroke-width="6.698" stroke="black" fill="none" stroke-linecap="round"></path><path d="M 110.167,50.855 C 112.564,50.056 115.683,49.256 114.961,49.256" stroke-width="7.436" stroke="black" fill="none" stroke-linecap="round"></path><path d="M 114.961,49.256 C 113.686,49.256 110.495,49.774 106.172,50.855" stroke-width="7.606" stroke="black" fill="none" stroke-linecap="round"></path><path d="M 106.172,50.855 C 102.505,51.773 102.555,51.992 98.981,53.253" stroke-width="6.583" stroke="black" fill="none" stroke-linecap="round"></path><path d="M 98.981,53.253 C 95.763,54.390 95.785,54.453 92.589,55.652" stroke-width="6.469" stroke="black" fill="none" stroke-linecap="round"></path><path d="M 92.589,55.652 C 89.393,56.851 89.230,56.533 86.197,58.050" stroke-width="6.435" stroke="black" fill="none" stroke-linecap="round"></path><path d="M 86.197,58.050 C 83.637,59.330 83.622,59.431 81.403,61.247" stroke-width="6.633" stroke="black" fill="none" stroke-linecap="round"></path><path d="M 81.403,61.247 C 79.227,63.029 78.833,62.868 77.408,65.244" stroke-width="6.718" stroke="black" fill="none" stroke-linecap="round"></path><path d="M 77.408,65.244 C 75.238,68.864 74.212,69.478 74.212,73.238" stroke-width="7.036" stroke="black" fill="none" stroke-linecap="round"></path><path d="M 74.212,73.238 C 74.212,75.474 75.398,75.828 77.408,77.236" stroke-width="7.569" stroke="black" fill="none" stroke-linecap="round"></path><path d="M 77.408,77.236 C 79.393,78.626 79.775,78.140 82.202,78.834" stroke-width="7.116" stroke="black" fill="none" stroke-linecap="round"></path><path d="M 82.202,78.834 C 85.368,79.739 85.357,79.862 88.594,80.433" stroke-width="6.663" stroke="black" fill="none" stroke-linecap="round"></path><path d="M 88.594,80.433 C 92.149,81.061 92.179,81.032 95.785,81.233" stroke-width="6.414" stroke="black" fill="none" stroke-linecap="round"></path><path d="M 95.785,81.233 C 99.370,81.432 99.394,81.443 102.976,81.233" stroke-width="6.351" stroke="black" fill="none" stroke-linecap="round"></path><path d="M 102.976,81.233 C 106.185,81.044 106.176,80.859 109.368,80.433" stroke-width="6.473" stroke="black" fill="none" stroke-linecap="round"></path><path d="M 109.368,80.433 C 112.168,80.060 112.330,80.563 114.961,79.634" stroke-width="6.668" stroke="black" fill="none" stroke-linecap="round"></path><path d="M 114.961,79.634 C 119.122,78.165 119.188,77.990 122.951,75.637" stroke-width="6.983" stroke="black" fill="none" stroke-linecap="round"></path><path d="M 122.951,75.637 C 125.580,73.993 126.091,74.122 127.745,71.640" stroke-width="7.406" stroke="black" fill="none" stroke-linecap="round"></path><path d="M 127.745,71.640 C 129.287,69.325 129.343,68.842 129.343,66.044" stroke-width="7.621" stroke="black" fill="none" stroke-linecap="round"></path><path d="M 129.343,66.044 C 129.343,63.246 129.156,62.917 127.745,60.448" stroke-width="7.924" stroke="black" fill="none" stroke-linecap="round"></path><path d="M 127.745,60.448 C 125.960,57.321 125.548,57.450 122.951,54.852" stroke-width="7.575" stroke="black" fill="none" stroke-linecap="round"></path><path d="M 122.951,54.852 C 120.355,52.254 120.273,52.299 117.358,50.056" stroke-width="7.421" stroke="black" fill="none" stroke-linecap="round"></path><path d="M 117.358,50.056 C 115.079,48.302 114.961,48.457 112.564,46.858" stroke-width="7.611" stroke="black" fill="none" stroke-linecap="round"></path><path d="M 112.564,46.858 C 110.167,45.259 107.447,45.438 107.770,43.661" stroke-width="7.938" stroke="black" fill="none" stroke-linecap="round"></path><path d="M 107.770,43.661 C 108.246,41.041 110.953,40.847 114.162,38.065" stroke-width="7.407" stroke="black" fill="none" stroke-linecap="round"></path><path d="M 114.162,38.065 C 116.946,35.651 116.972,35.682 119.755,33.268" stroke-width="6.579" stroke="black" fill="none" stroke-linecap="round"></path><path d="M 119.755,33.268 C 122.965,30.486 123.152,30.669 126.147,27.672" stroke-width="6.164" stroke="black" fill="none" stroke-linecap="round"></path><path d="M 126.147,27.672 C 128.745,25.073 128.454,24.791 130.941,22.077" stroke-width="6.244" stroke="black" fill="none" stroke-linecap="round"></path><path d="M 130.941,22.077 C 132.849,19.995 132.939,20.078 134.936,18.080" stroke-width="6.593" stroke="black" fill="none" stroke-linecap="round"></path><path d="M 134.936,18.080 C 137.333,15.681 137.722,13.283 139.730,13.283" stroke-width="7.205" stroke="black" fill="none" stroke-linecap="round"></path><path d="M 139.730,13.283 C 141.318,13.283 141.611,15.495 142.127,18.080" stroke-width="8.135" stroke="black" fill="none" stroke-linecap="round"></path><path d="M 142.127,18.080 C 143.209,23.489 142.419,23.686 142.926,29.271" stroke-width="7.127" stroke="black" fill="none" stroke-linecap="round"></path><path d="M 142.926,29.271 C 143.218,32.479 143.349,32.466 143.725,35.667" stroke-width="6.769" stroke="black" fill="none" stroke-linecap="round"></path><path d="M 143.725,35.667 C 144.148,39.261 144.164,39.260 144.524,42.861" stroke-width="6.443" stroke="black" fill="none" stroke-linecap="round"></path><path d="M 144.524,42.861 C 144.963,47.254 145.114,47.249 145.323,51.655" stroke-width="5.979" stroke="black" fill="none" stroke-linecap="round"></path><path d="M 145.323,51.655 C 145.513,55.643 145.124,55.662 145.323,59.649" stroke-width="6.078" stroke="black" fill="none" stroke-linecap="round"></path><path d="M 145.323,59.649 C 145.524,63.656 145.723,63.646 146.122,67.643" stroke-width="6.102" stroke="black" fill="none" stroke-linecap="round"></path><path d="M 146.122,67.643 C 146.522,71.640 146.452,71.648 146.921,75.637" stroke-width="6.109" stroke="black" fill="none" stroke-linecap="round"></path><path d="M 146.921,75.637 C 147.251,78.443 147.390,78.426 147.720,81.233" stroke-width="6.609" stroke="black" fill="none" stroke-linecap="round"></path><path d="M 137.333,59.649 C 144.524,58.450 144.540,58.532 151.715,57.250" stroke-width="8.210" stroke="black" fill="none" stroke-linecap="round"></path><path d="M 151.715,57.250 C 155.726,56.534 155.793,56.739 159.705,55.652" stroke-width="6.596" stroke="black" fill="none" stroke-linecap="round"></path><path d="M 159.705,55.652 C 162.984,54.741 162.818,54.128 166.097,53.253" stroke-width="6.473" stroke="black" fill="none" stroke-linecap="round"></path><path d="M 166.097,53.253 C 168.811,52.529 168.977,53.178 171.690,52.454" stroke-width="6.668" stroke="black" fill="none" stroke-linecap="round"></path><path d="M 171.690,52.454 C 174.969,51.579 178.436,49.879 178.082,50.056" stroke-width="7.249" stroke="black" fill="none" stroke-linecap="round"></path><path d="M 178.082,50.056 C 177.637,50.279 173.407,50.767 170.092,53.253" stroke-width="8.057" stroke="black" fill="none" stroke-linecap="round"></path><path d="M 170.092,53.253 C 167.015,55.563 167.237,56.200 165.298,59.649" stroke-width="7.502" stroke="black" fill="none" stroke-linecap="round"></path><path d="M 165.298,59.649 C 163.642,62.595 162.901,62.824 162.901,66.044" stroke-width="7.497" stroke="black" fill="none" stroke-linecap="round"></path><path d="M 162.901,66.044 C 162.901,69.619 162.901,70.840 165.298,73.238" stroke-width="7.730" stroke="black" fill="none" stroke-linecap="round"></path><path d="M 165.298,73.238 C 167.695,75.636 168.831,75.444 172.489,75.637" stroke-width="7.817" stroke="black" fill="none" stroke-linecap="round"></path><path d="M 172.489,75.637 C 176.422,75.844 176.618,75.258 180.479,74.038" stroke-width="7.388" stroke="black" fill="none" stroke-linecap="round"></path><path d="M 180.479,74.038 C 184.209,72.860 184.576,73.111 187.670,70.840" stroke-width="7.332" stroke="black" fill="none" stroke-linecap="round"></path><path d="M 187.670,70.840 C 190.568,68.714 190.679,68.371 192.464,65.244" stroke-width="7.404" stroke="black" fill="none" stroke-linecap="round"></path><path d="M 192.464,65.244 C 193.875,62.775 193.860,62.487 194.062,59.649" stroke-width="7.575" stroke="black" fill="none" stroke-linecap="round"></path><path d="M 194.062,59.649 C 194.259,56.891 194.477,56.482 193.263,54.053" stroke-width="7.674" stroke="black" fill="none" stroke-linecap="round"></path><path d="M 193.263,54.053 C 191.681,50.886 191.466,50.256 188.469,48.457" stroke-width="7.806" stroke="black" fill="none" stroke-linecap="round"></path><path d="M 214.037,38.864 C 213.238,43.661 213.197,43.654 212.439,48.457" stroke-width="8.594" stroke="black" fill="none" stroke-linecap="round"></path><path d="M 212.439,48.457 C 211.999,51.249 211.841,51.241 211.640,54.053" stroke-width="7.134" stroke="black" fill="none" stroke-linecap="round"></path><path d="M 211.640,54.053 C 211.442,56.837 211.795,56.858 211.640,59.649" stroke-width="6.876" stroke="black" fill="none" stroke-linecap="round"></path><path d="M 211.640,59.649 C 211.396,64.052 211.086,64.038 210.841,68.442" stroke-width="7.062" stroke="black" fill="none" stroke-linecap="round"></path><path d="M 210.841,68.442 C 210.686,71.233 210.656,74.224 210.841,74.038" stroke-width="7.536" stroke="black" fill="none" stroke-linecap="round"></path><path d="M 210.841,74.038 C 211.055,73.824 211.215,70.837 211.640,67.643" stroke-width="8.160" stroke="black" fill="none" stroke-linecap="round"></path><path d="M 211.640,67.643 C 212.014,64.841 211.807,64.790 212.439,62.047" stroke-width="7.122" stroke="black" fill="none" stroke-linecap="round"></path><path d="M 212.439,62.047 C 213.005,59.594 212.973,59.532 214.037,57.250" stroke-width="6.992" stroke="black" fill="none" stroke-linecap="round"></path><path d="M 214.037,57.250 C 215.770,53.536 215.398,53.097 218.032,50.056" stroke-width="7.168" stroke="black" fill="none" stroke-linecap="round"></path><path d="M 218.032,50.056 C 220.591,47.102 220.899,46.670 224.425,45.259" stroke-width="7.251" stroke="black" fill="none" stroke-linecap="round"></path><path d="M 224.425,45.259 C 226.892,44.272 227.508,44.363 230.017,45.259" stroke-width="7.579" stroke="black" fill="none" stroke-linecap="round"></path><path d="M 230.017,45.259 C 233.101,46.361 233.342,46.781 235.611,49.256" stroke-width="7.822" stroke="black" fill="none" stroke-linecap="round"></path><path d="M 235.611,49.256 C 237.737,51.577 237.688,51.869 238.806,54.852" stroke-width="6.946" stroke="black" fill="none" stroke-linecap="round"></path><path d="M 238.806,54.852 C 240.085,58.264 240.000,58.406 240.405,62.047" stroke-width="7.229" stroke="black" fill="none" stroke-linecap="round"></path><path d="M 274.762,44.460 C 269.568,44.460 269.381,43.669 264.375,44.460" stroke-width="8.647" stroke="black" fill="none" stroke-linecap="round"></path><path d="M 264.375,44.460 C 261.791,44.868 261.506,45.125 259.581,46.858" stroke-width="8.017" stroke="black" fill="none" stroke-linecap="round"></path><path d="M 259.581,46.858 C 257.511,48.722 257.328,49.013 256.385,51.655" stroke-width="7.789" stroke="black" fill="none" stroke-linecap="round"></path><path d="M 256.385,51.655 C 255.330,54.609 255.388,54.888 255.586,58.050" stroke-width="7.656" stroke="black" fill="none" stroke-linecap="round"></path><path d="M 255.586,58.050 C 255.788,61.283 255.424,61.901 257.184,64.445" stroke-width="7.834" stroke="black" fill="none" stroke-linecap="round"></path><path d="M 257.184,64.445 C 259.019,67.098 259.889,68.236 262.777,68.442" stroke-width="7.926" stroke="black" fill="none" stroke-linecap="round"></path><path d="M 262.777,68.442 C 265.482,68.635 266.355,67.484 268.370,65.244" stroke-width="8.130" stroke="black" fill="none" stroke-linecap="round"></path><path d="M 268.370,65.244 C 269.950,63.487 269.061,62.805 269.968,60.448" stroke-width="7.921" stroke="black" fill="none" stroke-linecap="round"></path><path d="M 269.968,60.448 C 271.059,57.609 271.235,57.678 272.365,54.852" stroke-width="7.717" stroke="black" fill="none" stroke-linecap="round"></path><path d="M 272.365,54.852 C 273.632,51.682 273.626,48.268 274.762,48.457" stroke-width="7.870" stroke="black" fill="none" stroke-linecap="round"></path><path d="M 274.762,48.457 C 276.023,48.667 276.196,51.992 277.159,55.652" stroke-width="8.352" stroke="black" fill="none" stroke-linecap="round"></path><path d="M 277.159,55.652 C 278.193,59.586 277.873,59.668 278.757,63.646" stroke-width="7.524" stroke="black" fill="none" stroke-linecap="round"></path><path d="M 278.757,63.646 C 279.471,66.862 279.253,66.955 280.355,70.041" stroke-width="7.534" stroke="black" fill="none" stroke-linecap="round"></path><path d="M 280.355,70.041 C 281.251,72.551 281.019,72.911 282.752,74.837" stroke-width="7.721" stroke="black" fill="none" stroke-linecap="round"></path><path d="M 282.752,74.837 C 284.614,76.908 284.923,77.429 287.546,78.035" stroke-width="8.109" stroke="black" fill="none" stroke-linecap="round"></path><circle r="3" cx="325.8976745605469" cy="57.250396728515625" fill="black"></circle><path d="M 547.221,196.347 C 545.224,199.944 545.134,199.897 543.226,203.541" stroke-width="7.464" stroke="black" fill="none" stroke-linecap="round"></path><path d="M 543.226,203.541 C 540.740,208.291 540.829,208.338 538.432,213.134" stroke-width="5.987" stroke="black" fill="none" stroke-linecap="round"></path><path d="M 538.432,213.134 C 536.035,217.931 536.203,218.023 533.638,222.727" stroke-width="6.148" stroke="black" fill="none" stroke-linecap="round"></path><path d="M 533.638,222.727 C 531.409,226.816 530.919,226.569 528.844,230.721" stroke-width="5.910" stroke="black" fill="none" stroke-linecap="round"></path><path d="M 528.844,230.721 C 527.324,233.763 528.176,234.232 526.447,237.116" stroke-width="6.327" stroke="black" fill="none" stroke-linecap="round"></path><path d="M 526.447,237.116 C 524.581,240.228 523.734,242.481 521.653,242.712" stroke-width="6.368" stroke="black" fill="none" stroke-linecap="round"></path><path d="M 521.653,242.712 C 520.139,242.880 519.982,240.457 519.256,237.916" stroke-width="7.638" stroke="black" fill="none" stroke-linecap="round"></path><path d="M 519.256,237.916 C 518.384,234.861 520.062,231.877 518.457,231.520" stroke-width="7.881" stroke="black" fill="none" stroke-linecap="round"></path><path d="M 518.457,231.520 C 516.467,231.078 514.857,233.524 512.065,236.317" stroke-width="8.001" stroke="black" fill="none" stroke-linecap="round"></path><path d="M 512.065,236.317 C 509.663,238.720 510.191,239.212 508.070,241.913" stroke-width="6.815" stroke="black" fill="none" stroke-linecap="round"></path><path d="M 508.070,241.913 C 505.797,244.807 505.655,244.695 503.276,247.508" stroke-width="6.430" stroke="black" fill="none" stroke-linecap="round"></path><path d="M 503.276,247.508 C 501.261,249.891 501.395,250.013 499.281,252.305" stroke-width="6.536" stroke="black" fill="none" stroke-linecap="round"></path><path d="M 499.281,252.305 C 496.601,255.209 496.784,256.948 493.688,257.901" stroke-width="7.079" stroke="black" fill="none" stroke-linecap="round"></path><path d="M 493.688,257.901 C 491.590,258.546 490.542,257.451 488.894,255.502" stroke-width="7.783" stroke="black" fill="none" stroke-linecap="round"></path><path d="M 488.894,255.502 C 486.147,252.254 486.628,251.617 484.899,247.508" stroke-width="7.312" stroke="black" fill="none" stroke-linecap="round"></path><path d="M 484.899,247.508 C 483.432,244.022 484.091,243.720 482.502,240.314" stroke-width="7.345" stroke="black" fill="none" stroke-linecap="round"></path><path d="M 482.502,240.314 C 481.294,237.725 481.501,235.855 479.306,235.517" stroke-width="7.848" stroke="black" fill="none" stroke-linecap="round"></path><path d="M 479.306,235.517 C 476.308,235.056 475.574,236.869 472.115,238.715" stroke-width="8.117" stroke="black" fill="none" stroke-linecap="round"></path><path d="M 472.115,238.715 C 469.582,240.067 469.523,240.076 467.321,241.913" stroke-width="7.087" stroke="black" fill="none" stroke-linecap="round"></path><path d="M 467.321,241.913 C 464.729,244.073 464.924,244.311 462.527,246.709" stroke-width="6.617" stroke="black" fill="none" stroke-linecap="round"></path><path d="M 462.527,246.709 C 460.130,249.107 460.021,249.008 457.733,251.505" stroke-width="6.561" stroke="black" fill="none" stroke-linecap="round"></path><path d="M 457.733,251.505 C 455.627,253.804 455.714,253.886 453.738,256.302" stroke-width="6.500" stroke="black" fill="none" stroke-linecap="round"></path><path d="M 453.738,256.302 C 452.118,258.283 451.875,258.131 450.542,260.299" stroke-width="6.787" stroke="black" fill="none" stroke-linecap="round"></path><path d="M 450.542,260.299 C 448.679,263.327 449.980,265.000 447.346,266.694" stroke-width="7.229" stroke="black" fill="none" stroke-linecap="round"></path><path d="M 447.346,266.694 C 444.387,268.597 443.315,267.702 439.356,267.494" stroke-width="8.133" stroke="black" fill="none" stroke-linecap="round"></path><path d="M 439.356,267.494 C 435.724,267.302 435.788,266.534 432.165,265.895" stroke-width="6.740" stroke="black" fill="none" stroke-linecap="round"></path><path d="M 432.165,265.895 C 428.996,265.335 428.972,265.472 425.773,265.095" stroke-width="6.589" stroke="black" fill="none" stroke-linecap="round"></path><path d="M 425.773,265.095 C 422.180,264.672 422.175,264.296 418.582,264.296" stroke-width="6.394" stroke="black" fill="none" stroke-linecap="round"></path><path d="M 418.582,264.296 C 415.383,264.296 415.343,264.464 412.190,265.095" stroke-width="6.486" stroke="black" fill="none" stroke-linecap="round"></path><path d="M 412.190,265.095 C 407.353,266.063 407.009,265.534 402.602,267.494" stroke-width="6.819" stroke="black" fill="none" stroke-linecap="round"></path><path d="M 402.602,267.494 C 399.818,268.731 399.670,269.069 397.808,271.491" stroke-width="7.350" stroke="black" fill="none" stroke-linecap="round"></path><path d="M 397.808,271.491 C 395.675,274.265 396.210,274.688 394.612,277.886" stroke-width="7.735" stroke="black" fill="none" stroke-linecap="round"></path><path d="M 394.612,277.886 C 393.413,280.284 393.476,280.317 392.215,282.682" stroke-width="7.011" stroke="black" fill="none" stroke-linecap="round"></path><path d="M 392.215,282.682 C 390.280,286.312 390.534,286.492 388.220,289.877" stroke-width="6.320" stroke="black" fill="none" stroke-linecap="round"></path><path d="M 388.220,289.877 C 385.341,294.086 385.140,293.972 381.828,297.871" stroke-width="5.812" stroke="black" fill="none" stroke-linecap="round"></path><path d="M 381.828,297.871 C 378.348,301.966 378.426,302.073 374.637,305.865" stroke-width="5.599" stroke="black" fill="none" stroke-linecap="round"></path><path d="M 374.637,305.865 C 372.833,307.669 372.639,307.464 370.642,309.063" stroke-width="6.461" stroke="black" fill="none" stroke-linecap="round"></path><path d="M 370.642,309.063 C 364.649,313.859 365.033,314.484 358.657,318.655" stroke-width="5.248" stroke="black" fill="none" stroke-linecap="round"></path><path d="M 358.657,318.655 C 354.646,321.279 354.332,320.825 349.868,322.652" stroke-width="5.498" stroke="black" fill="none" stroke-linecap="round"></path><path d="M 349.868,322.652 C 345.543,324.422 345.466,324.233 341.079,325.850" stroke-width="5.710" stroke="black" fill="none" stroke-linecap="round"></path><path d="M 341.079,325.850 C 337.876,327.031 337.883,327.049 334.687,328.248" stroke-width="6.190" stroke="black" fill="none" stroke-linecap="round"></path><path d="M 344.275,180.359 C 340.679,183.156 338.874,182.193 337.084,185.954" stroke-width="8.618" stroke="black" fill="none" stroke-linecap="round"></path><path d="M 337.084,185.954 C 334.879,190.586 336.634,191.547 336.285,197.146" stroke-width="6.100" stroke="black" fill="none" stroke-linecap="round"></path><path d="M 336.285,197.146 C 335.835,204.337 335.691,204.335 335.486,211.535" stroke-width="5.184" stroke="black" fill="none" stroke-linecap="round"></path><path d="M 335.486,211.535 C 335.292,218.325 335.302,218.335 335.486,225.125" stroke-width="5.145" stroke="black" fill="none" stroke-linecap="round"></path><path d="M 335.486,225.125 C 335.702,233.124 335.639,233.140 336.285,241.113" stroke-width="4.675" stroke="black" fill="none" stroke-linecap="round"></path><path d="M 336.285,241.113 C 336.837,247.929 337.035,247.915 337.883,254.703" stroke-width="4.889" stroke="black" fill="none" stroke-linecap="round"></path><path d="M 337.883,254.703 C 338.233,257.507 338.282,257.501 338.682,260.299" stroke-width="6.060" stroke="black" fill="none" stroke-linecap="round"></path><path d="M 338.682,260.299 C 339.481,265.895 339.387,265.910 340.280,271.491" stroke-width="5.487" stroke="black" fill="none" stroke-linecap="round"></path><path d="M 340.280,271.491 C 340.985,275.902 341.181,275.872 341.878,280.284" stroke-width="5.685" stroke="black" fill="none" stroke-linecap="round"></path><path d="M 341.878,280.284 C 342.380,283.466 342.913,287.978 342.677,286.679" stroke-width="6.249" stroke="black" fill="none" stroke-linecap="round"></path><path d="M 307.521,230.721 C 305.124,235.118 304.003,234.915 302.727,239.514" stroke-width="8.585" stroke="black" fill="none" stroke-linecap="round"></path><path d="M 302.727,239.514 C 302.006,242.110 303.175,242.306 303.526,245.110" stroke-width="7.216" stroke="black" fill="none" stroke-linecap="round"></path><path d="M 303.526,245.110 C 303.974,248.701 303.761,248.733 304.325,252.305" stroke-width="6.559" stroke="black" fill="none" stroke-linecap="round"></path><path d="M 304.325,252.305 C 304.959,256.327 305.319,256.273 305.923,260.299" stroke-width="6.218" stroke="black" fill="none" stroke-linecap="round"></path><path d="M 305.923,260.299 C 306.517,264.267 306.722,264.294 306.722,268.293" stroke-width="6.221" stroke="black" fill="none" stroke-linecap="round"></path><path d="M 306.722,268.293 C 306.722,272.688 306.824,272.804 305.923,277.086" stroke-width="6.010" stroke="black" fill="none" stroke-linecap="round"></path><path d="M 305.923,277.086 C 305.226,280.399 304.968,280.390 303.526,283.482" stroke-width="6.424" stroke="black" fill="none" stroke-linecap="round"></path><path d="M 303.526,283.482 C 299.375,292.381 300.104,292.914 294.737,301.068" stroke-width="4.544" stroke="black" fill="none" stroke-linecap="round"></path><path d="M 294.737,301.068 C 289.317,309.302 288.749,309.045 281.953,316.257" stroke-width="4.500" stroke="black" fill="none" stroke-linecap="round"></path><path d="M 281.953,316.257 C 275.565,323.035 275.383,322.908 268.370,329.048" stroke-width="4.500" stroke="black" fill="none" stroke-linecap="round"></path><path d="M 268.370,329.048 C 262.599,334.099 262.240,333.683 256.385,338.640" stroke-width="4.575" stroke="black" fill="none" stroke-linecap="round"></path><path d="M 256.385,338.640 C 251.853,342.477 251.784,342.444 247.596,346.634" stroke-width="4.973" stroke="black" fill="none" stroke-linecap="round"></path><circle r="3" cx="376.2347106933594" cy="325.8499755859375" fill="black"></circle><path d="M 245.998,198.745 C 247.196,207.139 247.056,207.161 248.395,215.532" stroke-width="8.094" stroke="black" fill="none" stroke-linecap="round"></path><path d="M 248.395,215.532 C 250.252,227.146 250.392,227.124 252.390,238.715" stroke-width="4.500" stroke="black" fill="none" stroke-linecap="round"></path><path d="M 233.214,349.832 C 230.417,346.634 229.808,347.032 227.620,343.437" stroke-width="7.884" stroke="black" fill="none" stroke-linecap="round"></path><path d="M 227.620,343.437 C 224.214,337.838 224.510,337.571 222.027,331.446" stroke-width="5.551" stroke="black" fill="none" stroke-linecap="round"></path><path d="M 222.027,331.446 C 218.517,322.782 218.025,322.872 215.635,313.859" stroke-width="4.702" stroke="black" fill="none" stroke-linecap="round"></path><path d="M 215.635,313.859 C 212.832,303.286 213.218,303.128 211.640,292.275" stroke-width="4.500" stroke="black" fill="none" stroke-linecap="round"></path><path d="M 211.640,292.275 C 210.022,281.145 209.630,281.113 209.243,269.892" stroke-width="4.500" stroke="black" fill="none" stroke-linecap="round"></path><path d="M 209.243,269.892 C 208.831,257.930 208.440,257.737 210.042,245.910" stroke-width="4.500" stroke="black" fill="none" stroke-linecap="round"></path><path d="M 210.042,245.910 C 211.636,234.155 211.127,233.628 215.635,222.727" stroke-width="4.500" stroke="black" fill="none" stroke-linecap="round"></path><path d="M 215.635,222.727 C 220.715,210.445 220.884,209.921 229.218,199.544" stroke-width="4.500" stroke="black" fill="none" stroke-linecap="round"></path><path d="M 229.218,199.544 C 238.861,187.538 238.920,186.653 251.591,177.960" stroke-width="4.500" stroke="black" fill="none" stroke-linecap="round"></path><path d="M 251.591,177.960 C 266.885,167.468 267.764,168.054 285.149,161.173" stroke-width="4.500" stroke="black" fill="none" stroke-linecap="round"></path><path d="M 285.149,161.173 C 304.119,153.664 304.530,154.456 324.300,149.182" stroke-width="4.500" stroke="black" fill="none" stroke-linecap="round"></path><path d="M 324.300,149.182 C 346.478,143.265 346.503,143.095 369.044,138.790" stroke-width="4.500" stroke="black" fill="none" stroke-linecap="round"></path><path d="M 369.044,138.790 C 390.448,134.701 390.577,135.292 412.190,132.394" stroke-width="4.500" stroke="black" fill="none" stroke-linecap="round"></path><path d="M 412.190,132.394 C 429.329,130.096 429.323,129.611 446.547,128.397" stroke-width="4.500" stroke="black" fill="none" stroke-linecap="round"></path><path d="M 446.547,128.397 C 457.687,127.612 458.239,126.527 468.919,128.397" stroke-width="4.500" stroke="black" fill="none" stroke-linecap="round"></path><path d="M 468.919,128.397 C 474.219,129.325 475.086,130.114 478.507,133.993" stroke-width="4.661" stroke="black" fill="none" stroke-linecap="round"></path><path d="M 478.507,133.993 C 481.079,136.909 481.140,138.204 480.904,141.987" stroke-width="5.545" stroke="black" fill="none" stroke-linecap="round"></path><path d="M 480.904,141.987 C 480.741,144.600 479.707,144.721 477.708,146.784" stroke-width="6.319" stroke="black" fill="none" stroke-linecap="round"></path><path d="M 477.708,146.784 C 466.923,157.911 467.642,158.979 455.336,168.367" stroke-width="4.500" stroke="black" fill="none" stroke-linecap="round"></path><path d="M 455.336,168.367 C 435.682,183.361 435.168,182.987 413.788,195.547" stroke-width="4.500" stroke="black" fill="none" stroke-linecap="round"></path><path d="M 413.788,195.547 C 391.623,208.568 391.294,208.099 368.245,219.529" stroke-width="4.500" stroke="black" fill="none" stroke-linecap="round"></path><path d="M 368.245,219.529 C 345.352,230.882 345.090,230.357 321.903,241.113" stroke-width="4.500" stroke="black" fill="none" stroke-linecap="round"></path><path d="M 321.903,241.113 C 301.145,250.742 301.211,250.888 280.355,260.299" stroke-width="4.500" stroke="black" fill="none" stroke-linecap="round"></path><path d="M 280.355,260.299 C 260.462,269.275 260.428,269.204 240.405,277.886" stroke-width="4.500" stroke="black" fill="none" stroke-linecap="round"></path><path d="M 240.405,277.886 C 224.473,284.793 224.367,284.549 208.444,291.476" stroke-width="4.500" stroke="black" fill="none" stroke-linecap="round"></path><path d="M 208.444,291.476 C 196.802,296.540 196.916,296.804 185.273,301.868" stroke-width="4.500" stroke="black" fill="none" stroke-linecap="round"></path><path d="M 185.273,301.868 C 178.539,304.798 178.209,306.574 171.690,307.464" stroke-width="4.500" stroke="black" fill="none" stroke-linecap="round"></path><path d="M 171.690,307.464 C 169.420,307.773 167.695,305.976 167.695,304.266" stroke-width="6.246" stroke="black" fill="none" stroke-linecap="round"></path><path d="M 167.695,304.266 C 167.695,302.378 169.547,302.107 171.690,300.269" stroke-width="6.594" stroke="black" fill="none" stroke-linecap="round"></path><path d="M 171.690,300.269 C 183.529,290.116 183.315,289.813 195.660,280.284" stroke-width="4.500" stroke="black" fill="none" stroke-linecap="round"></path><path d="M 195.660,280.284 C 211.280,268.229 211.374,268.304 227.620,257.101" stroke-width="4.500" stroke="black" fill="none" stroke-linecap="round"></path><path d="M 227.620,257.101 C 240.937,247.919 241.289,248.437 254.787,239.514" stroke-width="4.500" stroke="black" fill="none" stroke-linecap="round"></path><path d="M 254.787,239.514 C 263.661,233.648 263.291,232.970 272.365,227.523" stroke-width="4.500" stroke="black" fill="none" stroke-linecap="round"></path><path d="M 272.365,227.523 C 275.276,225.776 277.638,224.454 278.757,225.125" stroke-width="5.235" stroke="black" fill="none" stroke-linecap="round"></path><path d="M 278.757,225.125 C 279.635,225.653 278.355,228.277 276.360,229.922" stroke-width="6.265" stroke="black" fill="none" stroke-linecap="round"></path><path d="M 276.360,229.922 C 271.564,233.873 270.762,233.110 265.174,236.317" stroke-width="5.417" stroke="black" fill="none" stroke-linecap="round"></path><path d="M 265.174,236.317 C 243.595,248.699 243.733,248.945 222.027,261.098" stroke-width="4.500" stroke="black" fill="none" stroke-linecap="round"></path><path d="M 222.027,261.098 C 200.188,273.327 200.254,273.471 178.082,285.080" stroke-width="4.500" stroke="black" fill="none" stroke-linecap="round"></path><path d="M 178.082,285.080 C 157.508,295.854 157.308,295.473 136.534,305.865" stroke-width="4.500" stroke="black" fill="none" stroke-linecap="round"></path><path d="M 136.534,305.865 C 118.157,315.058 118.248,315.244 99.780,324.251" stroke-width="4.500" stroke="black" fill="none" stroke-linecap="round"></path><path d="M 99.780,324.251 C 86.287,330.832 86.374,331.068 72.614,337.042" stroke-width="4.500" stroke="black" fill="none" stroke-linecap="round"></path><path d="M 72.614,337.042 C 65.200,340.261 65.148,340.922 57.433,342.637" stroke-width="4.500" stroke="black" fill="none" stroke-linecap="round"></path><path d="M 57.433,342.637 C 54.362,343.320 50.258,343.796 51.041,341.838" stroke-width="5.474" stroke="black" fill="none" stroke-linecap="round"></path><path d="M 51.041,341.838 C 53.454,335.802 57.034,333.878 63.825,326.649" stroke-width="5.659" stroke="black" fill="none" stroke-linecap="round"></path><path d="M 63.825,326.649 C 75.811,313.892 75.640,313.632 88.594,301.868" stroke-width="4.500" stroke="black" fill="none" stroke-linecap="round"></path><path d="M 88.594,301.868 C 101.608,290.049 101.958,290.398 115.760,279.485" stroke-width="4.500" stroke="black" fill="none" stroke-linecap="round"></path><path d="M 115.760,279.485 C 126.727,270.813 126.915,271.049 138.132,262.697" stroke-width="4.500" stroke="black" fill="none" stroke-linecap="round"></path><path d="M 138.132,262.697 C 144.094,258.258 148.852,255.676 150.117,253.904" stroke-width="4.500" stroke="black" fill="none" stroke-linecap="round"></path><path d="M 150.117,253.904 C 150.850,252.878 145.949,255.138 142.127,257.101" stroke-width="6.171" stroke="black" fill="none" stroke-linecap="round"></path><path d="M 142.127,257.101 C 131.167,262.732 131.580,263.577 120.554,269.092" stroke-width="4.500" stroke="black" fill="none" stroke-linecap="round"></path><path d="M 120.554,269.092 C 110.007,274.369 109.806,273.977 98.981,278.685" stroke-width="4.500" stroke="black" fill="none" stroke-linecap="round"></path><path d="M 98.981,278.685 C 91.429,281.971 91.562,282.411 83.800,285.080" stroke-width="4.500" stroke="black" fill="none" stroke-linecap="round"></path><path d="M 83.800,285.080 C 78.778,286.808 78.563,287.207 73.413,287.479" stroke-width="5.110" stroke="black" fill="none" stroke-linecap="round"></path><path d="M 73.413,287.479 C 70.972,287.607 69.848,287.636 68.619,285.880" stroke-width="6.266" stroke="black" fill="none" stroke-linecap="round"></path><path d="M 68.619,285.880 C 67.052,283.639 68.246,282.679 67.820,279.485" stroke-width="7.122" stroke="black" fill="none" stroke-linecap="round"></path><path d="M 67.820,279.485 C 67.447,276.683 68.851,275.579 67.021,273.889" stroke-width="7.528" stroke="black" fill="none" stroke-linecap="round"></path><path d="M 67.021,273.889 C 63.658,270.783 62.322,271.604 57.433,269.892" stroke-width="7.107" stroke="black" fill="none" stroke-linecap="round"></path><path d="M 57.433,269.892 C 54.332,268.806 53.708,269.935 51.041,268.293" stroke-width="6.578" stroke="black" fill="none" stroke-linecap="round"></path><path d="M 51.041,268.293 C 48.515,266.737 47.180,266.306 47.046,263.496" stroke-width="6.581" stroke="black" fill="none" stroke-linecap="round"></path><path d="M 47.046,263.496 C 46.780,257.912 48.738,257.524 50.242,251.505" stroke-width="5.551" stroke="black" fill="none" stroke-linecap="round"></path><path d="M 50.242,251.505 C 51.135,247.931 51.041,247.908 51.840,244.311" stroke-width="6.041" stroke="black" fill="none" stroke-linecap="round"></path><path d="M 148.519,163.571 C 148.919,158.375 148.159,158.204 149.318,153.179" stroke-width="7.668" stroke="black" fill="none" stroke-linecap="round"></path><path d="M 149.318,153.179 C 150.556,147.811 149.992,147.059 153.313,142.787" stroke-width="5.958" stroke="black" fill="none" stroke-linecap="round"></path><path d="M 153.313,142.787 C 158.382,136.267 159.721,137.209 166.097,131.595" stroke-width="4.858" stroke="black" fill="none" stroke-linecap="round"></path><path d="M 166.097,131.595 C 169.709,128.415 169.693,128.397 173.288,125.200" stroke-width="5.448" stroke="black" fill="none" stroke-linecap="round"></path></svg>