<svg xmlns="http://www.w3.org/2000/svg" xmlns:xlink="http://www.w3.org/1999/xlink" viewBox="0 0 576 416" width="576" height="416"><path d="M 141.328,96.022 C 140.529,91.625 141.548,91.092 139.730,87.228" stroke-width="8.199" stroke="black" fill="none" stroke-linecap="round"></path><path d="M 139.730,87.228 C 138.352,84.297 137.871,83.533 134.936,82.432" stroke-width="7.671" stroke="black" fill="none" stroke-linecap="round"></path><path d="M 134.936,82.432 C 131.479,81.135 130.597,81.358 126.946,82.432" stroke-width="7.427" stroke="black" fill="none" stroke-linecap="round"></path><path d="M 126.946,82.432 C 123.805,83.356 123.846,84.091 121.353,86.429" stroke-width="6.684" stroke="black" fill="none" stroke-linecap="round"></path><path d="M 121.353,86.429 C 117.454,90.086 116.996,89.920 114.162,94.423" stroke-width="5.819" stroke="black" fill="none" stroke-linecap="round"></path><path d="M 114.162,94.423 C 110.204,100.712 110.521,101.040 107.770,108.013" stroke-width="5.149" stroke="black" fill="none" stroke-linecap="round"></path><path d="M 107.770,108.013 C 104.529,116.229 104.501,116.277 102.177,124.800" stroke-width="4.503" stroke="black" fill="none" stroke-linecap="round"></path><path d="M 102.177,124.800 C 99.707,133.864 100.139,133.985 98.182,143.187" stroke-width="4.500" stroke="black" fill="none" stroke-linecap="round"></path><path d="M 98.182,143.187 C 96.144,152.771 96.275,152.799 94.187,162.372" stroke-width="4.500" stroke="black" fill="none" stroke-linecap="round"></path><path d="M 94.187,162.372 C 91.481,174.783 92.050,174.950 88.594,187.154" stroke-width="4.500" stroke="black" fill="none" stroke-linecap="round"></path><path d="M 88.594,187.154 C 85.259,198.933 84.739,198.796 80.604,210.336" stroke-width="4.500" stroke="black" fill="none" stroke-linecap="round"></path><path d="M 80.604,210.336 C 77.149,219.980 77.177,219.996 73.413,229.522" stroke-width="4.500" stroke="black" fill="none" stroke-linecap="round"></path><path d="M 73.413,229.522 C 70.386,237.184 70.265,237.137 67.021,244.711" stroke-width="4.500" stroke="black" fill="none" stroke-linecap="round"></path><path d="M 67.021,244.711 C 64.273,251.127 64.111,251.060 61.428,257.501" stroke-width="4.755" stroke="black" fill="none" stroke-linecap="round"></path><path d="M 61.428,257.501 C 60.116,260.653 60.230,260.699 59.031,263.896" stroke-width="5.810" stroke="black" fill="none" stroke-linecap="round"></path><path d="M 79.805,165.570 C 86.996,163.172 86.906,162.855 94.187,160.773" stroke-width="7.113" stroke="black" fill="none" stroke-linecap="round"></path><path d="M 94.187,160.773 C 100.889,158.858 100.939,158.983 107.770,157.576" stroke-width="5.441" stroke="black" fill="none" stroke-linecap="round"></path><path d="M 107.770,157.576 C 114.522,156.185 114.525,156.088 121.353,155.178" stroke-width="5.101" stroke="black" fill="none" stroke-linecap="round"></path><path d="M 121.353,155.178 C 126.510,154.490 126.547,154.778 131.740,154.378" stroke-width="5.427" stroke="black" fill="none" stroke-linecap="round"></path><path d="M 138.132,227.923 C 134.936,224.326 135.475,223.469 131.740,220.729" stroke-width="8.258" stroke="black" fill="none" stroke-linecap="round"></path><path d="M 131.740,220.729 C 129.483,219.072 128.999,219.537 126.147,219.130" stroke-width="7.106" stroke="black" fill="none" stroke-linecap="round"></path><path d="M 126.147,219.130 C 123.406,218.738 123.253,218.590 120.554,219.130" stroke-width="6.869" stroke="black" fill="none" stroke-linecap="round"></path><path d="M 120.554,219.130 C 117.260,219.789 117.148,219.935 114.162,221.528" stroke-width="6.549" stroke="black" fill="none" stroke-linecap="round"></path><path d="M 114.162,221.528 C 111.156,223.132 111.082,223.221 108.569,225.525" stroke-width="6.450" stroke="black" fill="none" stroke-linecap="round"></path><path d="M 108.569,225.525 C 106.288,227.618 105.567,227.507 104.574,230.322" stroke-width="6.542" stroke="black" fill="none" stroke-linecap="round"></path><path d="M 104.574,230.322 C 103.170,234.302 102.469,235.411 103.775,239.115" stroke-width="6.892" stroke="black" fill="none" stroke-linecap="round"></path><path d="M 103.775,239.115 C 104.866,242.206 106.193,244.365 109.368,243.911" stroke-width="7.211" stroke="black" fill="none" stroke-linecap="round"></path><path d="M 109.368,243.911 C 117.379,242.766 118.862,241.263 126.147,235.917" stroke-width="6.311" stroke="black" fill="none" stroke-linecap="round"></path><path d="M 126.147,235.917 C 130.847,232.469 130.241,231.416 133.338,226.324" stroke-width="5.551" stroke="black" fill="none" stroke-linecap="round"></path><path d="M 133.338,226.324 C 135.834,222.223 135.543,222.009 137.333,217.531" stroke-width="5.681" stroke="black" fill="none" stroke-linecap="round"></path><path d="M 137.333,217.531 C 138.739,214.015 139.926,210.336 139.730,210.336" stroke-width="6.050" stroke="black" fill="none" stroke-linecap="round"></path><path d="M 139.730,210.336 C 139.527,210.336 137.099,213.763 136.534,217.531" stroke-width="7.431" stroke="black" fill="none" stroke-linecap="round"></path><path d="M 136.534,217.531 C 135.901,221.757 136.023,222.204 137.333,226.324" stroke-width="6.307" stroke="black" fill="none" stroke-linecap="round"></path><path d="M 137.333,226.324 C 138.820,230.998 139.188,231.127 142.127,235.118" stroke-width="5.842" stroke="black" fill="none" stroke-linecap="round"></path><path d="M 142.127,235.118 C 144.781,238.721 144.738,239.323 148.519,241.513" stroke-width="5.865" stroke="black" fill="none" stroke-linecap="round"></path><path d="M 148.519,241.513 C 152.329,243.720 152.901,243.911 157.308,243.911" stroke-width="5.861" stroke="black" fill="none" stroke-linecap="round"></path><path d="M 157.308,243.911 C 162.090,243.911 162.102,242.712 166.896,241.513" stroke-width="5.741" stroke="black" fill="none" stroke-linecap="round"></path><path d="M 166.896,241.513 C 170.092,240.714 170.092,240.714 173.288,239.914" stroke-width="6.309" stroke="black" fill="none" stroke-linecap="round"></path><path d="M 234.811,110.411 C 235.611,116.007 236.410,115.988 236.410,121.603" stroke-width="8.301" stroke="black" fill="none" stroke-linecap="round"></path><path d="M 236.410,121.603 C 236.410,129.978 236.600,130.187 234.811,138.390" stroke-width="5.234" stroke="black" fill="none" stroke-linecap="round"></path><path d="M 234.811,138.390 C 231.806,152.171 231.354,152.162 226.822,165.570" stroke-width="4.500" stroke="black" fill="none" stroke-linecap="round"></path><path d="M 226.822,165.570 C 222.166,179.341 222.183,179.399 216.434,192.750" stroke-width="4.500" stroke="black" fill="none" stroke-linecap="round"></path><path d="M 216.434,192.750 C 210.996,205.380 210.687,205.265 204.449,217.531" stroke-width="4.500" stroke="black" fill="none" stroke-linecap="round"></path><path d="M 204.449,217.531 C 199.101,228.048 199.199,228.135 193.263,238.316" stroke-width="4.500" stroke="black" fill="none" stroke-linecap="round"></path><path d="M 193.263,238.316 C 190.810,242.524 190.489,242.328 187.670,246.310" stroke-width="4.828" stroke="black" fill="none" stroke-linecap="round"></path><path d="M 187.670,246.310 C 183.698,251.921 184.102,252.296 179.680,257.501" stroke-width="4.930" stroke="black" fill="none" stroke-linecap="round"></path><path d="M 179.680,257.501 C 177.311,260.290 174.876,263.559 174.087,262.298" stroke-width="5.733" stroke="black" fill="none" stroke-linecap="round"></path><path d="M 174.087,262.298 C 172.878,260.362 173.550,256.202 175.685,251.106" stroke-width="6.817" stroke="black" fill="none" stroke-linecap="round"></path><path d="M 175.685,251.106 C 178.743,243.811 179.633,243.975 184.474,237.516" stroke-width="5.106" stroke="black" fill="none" stroke-linecap="round"></path><path d="M 184.474,237.516 C 189.221,231.185 189.174,230.997 194.861,225.525" stroke-width="4.782" stroke="black" fill="none" stroke-linecap="round"></path><path d="M 194.861,225.525 C 199.561,221.004 199.849,221.215 205.248,217.531" stroke-width="4.988" stroke="black" fill="none" stroke-linecap="round"></path><path d="M 205.248,217.531 C 208.638,215.219 208.617,214.659 212.439,213.534" stroke-width="5.696" stroke="black" fill="none" stroke-linecap="round"></path><path d="M 212.439,213.534 C 215.409,212.660 216.449,212.067 218.832,213.534" stroke-width="6.262" stroke="black" fill="none" stroke-linecap="round"></path><path d="M 218.832,213.534 C 221.642,215.265 221.067,216.605 222.826,219.929" stroke-width="6.996" stroke="black" fill="none" stroke-linecap="round"></path><path d="M 222.826,219.929 C 224.663,223.400 224.562,223.471 226.022,227.124" stroke-width="6.465" stroke="black" fill="none" stroke-linecap="round"></path><path d="M 226.022,227.124 C 227.758,231.465 227.379,231.624 229.218,235.917" stroke-width="5.894" stroke="black" fill="none" stroke-linecap="round"></path><path d="M 229.218,235.917 C 230.975,240.018 230.980,240.051 233.214,243.911" stroke-width="5.898" stroke="black" fill="none" stroke-linecap="round"></path><path d="M 233.214,243.911 C 235.374,247.646 235.321,247.746 238.008,251.106" stroke-width="5.945" stroke="black" fill="none" stroke-linecap="round"></path><path d="M 238.008,251.106 C 240.115,253.742 240.078,253.956 242.802,255.902" stroke-width="6.279" stroke="black" fill="none" stroke-linecap="round"></path><path d="M 242.802,255.902 C 245.671,257.953 245.998,257.501 249.194,259.100" stroke-width="6.319" stroke="black" fill="none" stroke-linecap="round"></path><path d="M 291.541,206.339 C 286.347,205.540 286.284,204.374 281.154,204.741" stroke-width="8.002" stroke="black" fill="none" stroke-linecap="round"></path><path d="M 281.154,204.741 C 275.098,205.173 274.676,205.267 269.169,207.938" stroke-width="5.813" stroke="black" fill="none" stroke-linecap="round"></path><path d="M 269.169,207.938 C 261.493,211.662 261.256,211.921 254.787,217.531" stroke-width="4.797" stroke="black" fill="none" stroke-linecap="round"></path><path d="M 254.787,217.531 C 249.271,222.313 249.031,222.545 245.199,228.723" stroke-width="4.814" stroke="black" fill="none" stroke-linecap="round"></path><path d="M 245.199,228.723 C 241.840,234.136 242.055,234.522 240.405,240.714" stroke-width="5.020" stroke="black" fill="none" stroke-linecap="round"></path><path d="M 240.405,240.714 C 238.859,246.514 238.140,246.926 238.806,252.705" stroke-width="5.185" stroke="black" fill="none" stroke-linecap="round"></path><path d="M 238.806,252.705 C 239.339,257.318 239.960,257.780 242.802,261.498" stroke-width="5.561" stroke="black" fill="none" stroke-linecap="round"></path><path d="M 242.802,261.498 C 245.153,264.575 245.568,265.025 249.194,266.295" stroke-width="5.942" stroke="black" fill="none" stroke-linecap="round"></path><path d="M 249.194,266.295 C 253.558,267.823 254.167,267.754 258.782,267.094" stroke-width="5.804" stroke="black" fill="none" stroke-linecap="round"></path><path d="M 258.782,267.094 C 262.556,266.555 262.654,265.972 265.973,263.896" stroke-width="6.043" stroke="black" fill="none" stroke-linecap="round"></path><path d="M 265.973,263.896 C 272.242,259.976 272.650,260.201 277.958,255.103" stroke-width="5.117" stroke="black" fill="none" stroke-linecap="round"></path><path d="M 277.958,255.103 C 282.638,250.608 282.535,250.259 285.948,244.711" stroke-width="5.092" stroke="black" fill="none" stroke-linecap="round"></path><path d="M 285.948,244.711 C 288.927,239.867 289.163,239.734 290.742,234.319" stroke-width="5.290" stroke="black" fill="none" stroke-linecap="round"></path><path d="M 290.742,234.319 C 291.959,230.141 291.769,229.873 291.541,225.525" stroke-width="5.718" stroke="black" fill="none" stroke-linecap="round"></path><path d="M 291.541,225.525 C 291.370,222.279 291.518,221.888 289.943,219.130" stroke-width="6.234" stroke="black" fill="none" stroke-linecap="round"></path><path d="M 289.943,219.130 C 288.322,216.292 286.402,213.236 285.149,214.333" stroke-width="7.072" stroke="black" fill="none" stroke-linecap="round"></path><path d="M 285.149,214.333 C 283.206,216.034 283.751,219.507 283.551,224.726" stroke-width="7.340" stroke="black" fill="none" stroke-linecap="round"></path><path d="M 283.551,224.726 C 283.352,229.899 283.662,229.958 284.350,235.118" stroke-width="6.012" stroke="black" fill="none" stroke-linecap="round"></path><path d="M 284.350,235.118 C 285.260,241.949 285.548,241.913 286.747,248.708" stroke-width="5.339" stroke="black" fill="none" stroke-linecap="round"></path><path d="M 341.079,233.519 C 335.885,232.320 335.813,230.535 330.692,231.121" stroke-width="7.990" stroke="black" fill="none" stroke-linecap="round"></path><path d="M 330.692,231.121 C 321.830,232.134 321.463,232.957 313.114,236.717" stroke-width="5.007" stroke="black" fill="none" stroke-linecap="round"></path><path d="M 313.114,236.717 C 305.483,240.152 305.250,240.293 298.732,245.510" stroke-width="4.655" stroke="black" fill="none" stroke-linecap="round"></path><path d="M 298.732,245.510 C 293.264,249.886 292.870,250.076 289.144,255.902" stroke-width="4.833" stroke="black" fill="none" stroke-linecap="round"></path><path d="M 289.144,255.902 C 286.478,260.069 286.176,260.699 285.948,265.495" stroke-width="5.373" stroke="black" fill="none" stroke-linecap="round"></path><path d="M 285.948,265.495 C 285.776,269.093 285.428,271.761 288.345,272.690" stroke-width="5.942" stroke="black" fill="none" stroke-linecap="round"></path><path d="M 288.345,272.690 C 294.217,274.559 296.581,273.870 303.526,271.091" stroke-width="6.128" stroke="black" fill="none" stroke-linecap="round"></path><path d="M 303.526,271.091 C 316.557,265.876 317.093,265.458 328.295,256.702" stroke-width="4.500" stroke="black" fill="none" stroke-linecap="round"></path><path d="M 328.295,256.702 C 342.661,245.473 342.673,244.945 354.662,231.121" stroke-width="4.500" stroke="black" fill="none" stroke-linecap="round"></path><path d="M 354.662,231.121 C 366.244,217.765 365.699,217.158 375.436,202.342" stroke-width="4.500" stroke="black" fill="none" stroke-linecap="round"></path><path d="M 375.436,202.342 C 384.875,187.980 385.074,187.990 393.014,172.764" stroke-width="4.500" stroke="black" fill="none" stroke-linecap="round"></path><path d="M 393.014,172.764 C 399.456,160.410 399.816,160.343 404.200,147.184" stroke-width="4.500" stroke="black" fill="none" stroke-linecap="round"></path><path d="M 404.200,147.184 C 407.007,138.759 407.883,138.126 407.396,129.597" stroke-width="4.500" stroke="black" fill="none" stroke-linecap="round"></path><path d="M 407.396,129.597 C 407.084,124.136 406.700,121.743 402.602,119.204" stroke-width="4.864" stroke="black" fill="none" stroke-linecap="round"></path><path d="M 402.602,119.204 C 398.310,116.546 396.187,117.811 390.617,119.204" stroke-width="5.147" stroke="black" fill="none" stroke-linecap="round"></path><path d="M 390.617,119.204 C 386.599,120.209 386.419,120.920 383.426,124.001" stroke-width="5.694" stroke="black" fill="none" stroke-linecap="round"></path><path d="M 383.426,124.001 C 372.437,135.309 371.614,134.991 362.652,147.983" stroke-width="4.500" stroke="black" fill="none" stroke-linecap="round"></path><path d="M 362.652,147.983 C 352.038,163.370 352.048,163.732 344.275,180.759" stroke-width="4.500" stroke="black" fill="none" stroke-linecap="round"></path><path d="M 344.275,180.759 C 337.267,196.108 337.227,196.402 333.089,212.735" stroke-width="4.500" stroke="black" fill="none" stroke-linecap="round"></path><path d="M 333.089,212.735 C 330.036,224.781 330.379,225.109 329.893,237.516" stroke-width="4.500" stroke="black" fill="none" stroke-linecap="round"></path><path d="M 329.893,237.516 C 329.580,245.494 329.310,245.988 331.491,253.504" stroke-width="4.500" stroke="black" fill="none" stroke-linecap="round"></path><path d="M 331.491,253.504 C 332.905,258.379 333.130,260.008 337.084,262.298" stroke-width="5.073" stroke="black" fill="none" stroke-linecap="round"></path><path d="M 337.084,262.298 C 340.721,264.405 342.316,263.508 346.672,262.298" stroke-width="5.532" stroke="black" fill="none" stroke-linecap="round"></path><path d="M 346.672,262.298 C 349.507,261.510 349.262,260.505 351.466,258.301" stroke-width="6.228" stroke="black" fill="none" stroke-linecap="round"></path><path d="M 351.466,258.301 C 358.850,250.912 359.167,251.133 365.848,243.112" stroke-width="4.512" stroke="black" fill="none" stroke-linecap="round"></path><path d="M 365.848,243.112 C 373.149,234.346 373.049,234.193 379.431,224.726" stroke-width="4.500" stroke="black" fill="none" stroke-linecap="round"></path><path d="M 379.431,224.726 C 384.635,217.005 384.454,216.857 389.019,208.738" stroke-width="4.500" stroke="black" fill="none" stroke-linecap="round"></path><path d="M 389.019,208.738 C 391.645,204.067 391.641,204.034 393.813,199.145" stroke-width="5.019" stroke="black" fill="none" stroke-linecap="round"></path><path d="M 393.813,199.145 C 394.837,196.840 395.553,193.635 395.411,194.348" stroke-width="6.224" stroke="black" fill="none" stroke-linecap="round"></path><path d="M 395.411,194.348 C 395.154,195.634 393.438,198.681 393.014,203.142" stroke-width="7.163" stroke="black" fill="none" stroke-linecap="round"></path><path d="M 393.014,203.142 C 392.639,207.074 392.724,207.324 393.813,211.136" stroke-width="6.301" stroke="black" fill="none" stroke-linecap="round"></path><path d="M 393.813,211.136 C 395.121,215.718 395.045,216.102 397.808,219.929" stroke-width="5.897" stroke="black" fill="none" stroke-linecap="round"></path><path d="M 397.808,219.929 C 400.238,223.296 400.446,224.211 404.200,225.525" stroke-width="5.969" stroke="black" fill="none" stroke-linecap="round"></path><path d="M 404.200,225.525 C 408.436,227.009 409.375,226.997 413.788,225.525" stroke-width="5.817" stroke="black" fill="none" stroke-linecap="round"></path><path d="M 413.788,225.525 C 421.360,223.000 422.065,222.876 428.170,217.531" stroke-width="4.887" stroke="black" fill="none" stroke-linecap="round"></path><path d="M 428.170,217.531 C 438.045,208.886 438.191,208.402 445.748,197.546" stroke-width="4.500" stroke="black" fill="none" stroke-linecap="round"></path><path d="M 445.748,197.546 C 453.772,186.019 453.518,185.598 459.331,172.764" stroke-width="4.500" stroke="black" fill="none" stroke-linecap="round"></path><path d="M 459.331,172.764 C 465.104,160.017 465.133,159.853 468.919,146.384" stroke-width="4.500" stroke="black" fill="none" stroke-linecap="round"></path><path d="M 468.919,146.384 C 472.324,134.272 472.806,134.074 473.713,121.603" stroke-width="4.500" stroke="black" fill="none" stroke-linecap="round"></path><path d="M 473.713,121.603 C 474.404,112.090 475.023,111.146 472.115,102.417" stroke-width="4.500" stroke="black" fill="none" stroke-linecap="round"></path><path d="M 472.115,102.417 C 470.229,96.757 468.881,95.996 464.125,92.824" stroke-width="4.762" stroke="black" fill="none" stroke-linecap="round"></path><path d="M 464.125,92.824 C 461.690,91.200 460.732,91.853 457.733,92.824" stroke-width="5.939" stroke="black" fill="none" stroke-linecap="round"></path><path d="M 457.733,92.824 C 447.149,96.250 445.419,94.677 436.959,101.618" stroke-width="4.500" stroke="black" fill="none" stroke-linecap="round"></path><path d="M 436.959,101.618 C 425.444,111.065 425.394,112.486 417.783,125.600" stroke-width="4.500" stroke="black" fill="none" stroke-linecap="round"></path><path d="M 417.783,125.600 C 411.012,137.267 410.788,137.991 408.195,151.181" stroke-width="4.500" stroke="black" fill="none" stroke-linecap="round"></path><path d="M 408.195,151.181 C 405.994,162.373 406.845,163.022 408.195,174.363" stroke-width="4.500" stroke="black" fill="none" stroke-linecap="round"></path><path d="M 408.195,174.363 C 408.843,179.810 409.355,180.028 412.190,184.756" stroke-width="4.763" stroke="black" fill="none" stroke-linecap="round"></path><path d="M 412.190,184.756 C 416.546,192.019 416.195,192.958 422.577,198.345" stroke-width="4.658" stroke="black" fill="none" stroke-linecap="round"></path><path d="M 422.577,198.345 C 428.979,203.750 429.734,203.598 437.758,206.339" stroke-width="4.500" stroke="black" fill="none" stroke-linecap="round"></path><path d="M 437.758,206.339 C 446.113,209.194 446.482,208.919 455.336,209.537" stroke-width="4.500" stroke="black" fill="none" stroke-linecap="round"></path><path d="M 455.336,209.537 C 463.660,210.118 463.784,209.639 472.115,208.738" stroke-width="4.500" stroke="black" fill="none" stroke-linecap="round"></path><path d="M 472.115,208.738 C 478.566,208.040 478.781,208.298 484.899,206.339" stroke-width="4.899" stroke="black" fill="none" stroke-linecap="round"></path><path d="M 484.899,206.339 C 488.769,205.101 489.187,205.004 492.090,202.342" stroke-width="5.661" stroke="black" fill="none" stroke-linecap="round"></path><path d="M 492.090,202.342 C 493.982,200.608 495.602,199.219 494.487,197.546" stroke-width="6.496" stroke="black" fill="none" stroke-linecap="round"></path><path d="M 494.487,197.546 C 492.406,194.422 490.550,192.929 485.698,192.750" stroke-width="7.167" stroke="black" fill="none" stroke-linecap="round"></path><path d="M 485.698,192.750 C 468.977,192.130 468.502,194.176 451.341,195.947" stroke-width="4.500" stroke="black" fill="none" stroke-linecap="round"></path><path d="M 451.341,195.947 C 418.165,199.372 418.222,199.952 385.024,203.142" stroke-width="4.500" stroke="black" fill="none" stroke-linecap="round"></path><path d="M 385.024,203.142 C 347.510,206.747 347.472,206.356 309.918,209.537" stroke-width="4.500" stroke="black" fill="none" stroke-linecap="round"></path><path d="M 309.918,209.537 C 271.966,212.751 271.953,212.595 234.013,215.932" stroke-width="4.500" stroke="black" fill="none" stroke-linecap="round"></path><path d="M 234.013,215.932 C 199.244,218.990 199.204,218.648 164.499,222.328" stroke-width="4.500" stroke="black" fill="none" stroke-linecap="round"></path><path d="M 164.499,222.328 C 138.879,225.044 138.876,225.155 113.363,228.723" stroke-width="4.500" stroke="black" fill="none" stroke-linecap="round"></path><path d="M 113.363,228.723 C 101.723,230.351 92.057,231.553 90.192,232.720" stroke-width="4.500" stroke="black" fill="none" stroke-linecap="round"></path><path d="M 90.192,232.720 C 88.861,233.552 98.633,233.577 106.971,232.720" stroke-width="4.661" stroke="black" fill="none" stroke-linecap="round"></path><path d="M 106.971,232.720 C 156.960,227.581 156.822,225.878 206.846,220.729" stroke-width="4.500" stroke="black" fill="none" stroke-linecap="round"></path><path d="M 206.846,220.729 C 253.901,215.885 253.908,214.863 301.129,212.735" stroke-width="4.500" stroke="black" fill="none" stroke-linecap="round"></path><path d="M 301.129,212.735 C 342.598,210.866 342.974,209.843 384.225,212.735" stroke-width="4.500" stroke="black" fill="none" stroke-linecap="round"></path><path d="M 384.225,212.735 C 405.695,214.240 409.938,214.023 426.572,221.528" stroke-width="4.500" stroke="black" fill="none" stroke-linecap="round"></path><path d="M 426.572,221.528 C 430.312,223.216 427.768,227.952 424.974,231.121" stroke-width="4.500" stroke="black" fill="none" stroke-linecap="round"></path><path d="M 424.974,231.121 C 421.776,234.747 419.957,233.669 414.587,235.118" stroke-width="4.869" stroke="black" fill="none" stroke-linecap="round"></path><path d="M 414.587,235.118 C 359.232,250.057 359.225,250.201 303.526,263.896" stroke-width="4.500" stroke="black" fill="none" stroke-linecap="round"></path><path d="M 303.526,263.896 C 264.943,273.384 264.744,272.560 226.022,281.483" stroke-width="4.500" stroke="black" fill="none" stroke-linecap="round"></path><path d="M 226.022,281.483 C 193.633,288.948 193.353,287.999 161.303,296.672" stroke-width="4.500" stroke="black" fill="none" stroke-linecap="round"></path><path d="M 161.303,296.672 C 144.614,301.189 141.320,299.149 128.544,307.864" stroke-width="4.500" stroke="black" fill="none" stroke-linecap="round"></path><path d="M 128.544,307.864 C 123.742,311.140 127.346,314.259 126.147,320.654" stroke-width="4.500" stroke="black" fill="none" stroke-linecap="round"></path></svg>