<svg xmlns="http://www.w3.org/2000/svg" xmlns:xlink="http://www.w3.org/1999/xlink" viewBox="0 0 576 416" width="576" height="416"><path d="M 412.989,168.310 C 406.597,167.111 406.477,165.358 400.205,165.911" stroke-width="8.256" stroke="black" fill="none" stroke-linecap="round"></path><path d="M 400.205,165.911 C 392.894,166.557 392.861,167.941 385.823,170.708" stroke-width="5.778" stroke="black" fill="none" stroke-linecap="round"></path><path d="M 385.823,170.708 C 381.675,172.338 381.718,172.518 377.833,174.705" stroke-width="5.863" stroke="black" fill="none" stroke-linecap="round"></path><path d="M 377.833,174.705 C 375.326,176.115 375.036,175.904 373.039,177.902" stroke-width="6.439" stroke="black" fill="none" stroke-linecap="round"></path><path d="M 373.039,177.902 C 371.041,179.901 369.097,181.207 369.843,182.699" stroke-width="7.290" stroke="black" fill="none" stroke-linecap="round"></path><path d="M 369.843,182.699 C 370.695,184.405 372.994,183.865 376.235,184.298" stroke-width="7.437" stroke="black" fill="none" stroke-linecap="round"></path><path d="M 376.235,184.298 C 378.986,184.665 379.041,184.472 381.828,184.298" stroke-width="6.959" stroke="black" fill="none" stroke-linecap="round"></path><path d="M 381.828,184.298 C 385.433,184.072 385.534,184.370 389.019,183.498" stroke-width="6.494" stroke="black" fill="none" stroke-linecap="round"></path><path d="M 389.019,183.498 C 393.524,182.371 393.655,182.378 397.808,180.301" stroke-width="5.996" stroke="black" fill="none" stroke-linecap="round"></path><path d="M 397.808,180.301 C 401.645,178.381 401.885,178.412 404.999,175.504" stroke-width="6.055" stroke="black" fill="none" stroke-linecap="round"></path><path d="M 404.999,175.504 C 407.878,172.816 408.130,172.644 409.793,169.109" stroke-width="6.018" stroke="black" fill="none" stroke-linecap="round"></path><path d="M 409.793,169.109 C 411.326,165.849 411.598,165.441 411.391,161.914" stroke-width="6.198" stroke="black" fill="none" stroke-linecap="round"></path><path d="M 411.391,161.914 C 411.199,158.646 411.169,157.985 408.994,155.519" stroke-width="6.352" stroke="black" fill="none" stroke-linecap="round"></path><path d="M 408.994,155.519 C 405.176,151.190 404.790,150.681 399.406,148.324" stroke-width="5.560" stroke="black" fill="none" stroke-linecap="round"></path><path d="M 399.406,148.324 C 392.006,145.086 391.546,145.272 383.426,144.328" stroke-width="4.829" stroke="black" fill="none" stroke-linecap="round"></path><path d="M 383.426,144.328 C 374.367,143.274 374.173,143.551 365.049,144.328" stroke-width="4.648" stroke="black" fill="none" stroke-linecap="round"></path><path d="M 365.049,144.328 C 355.396,145.149 355.190,144.947 345.873,147.525" stroke-width="4.500" stroke="black" fill="none" stroke-linecap="round"></path><path d="M 345.873,147.525 C 336.414,150.143 336.218,150.244 327.496,154.720" stroke-width="4.500" stroke="black" fill="none" stroke-linecap="round"></path><path d="M 327.496,154.720 C 320.638,158.238 320.467,158.419 314.712,163.513" stroke-width="4.523" stroke="black" fill="none" stroke-linecap="round"></path><path d="M 314.712,163.513 C 310.080,167.612 309.036,167.633 306.722,173.106" stroke-width="4.970" stroke="black" fill="none" stroke-linecap="round"></path><path d="M 306.722,173.106 C 304.642,178.025 305.161,178.966 305.923,184.298" stroke-width="5.278" stroke="black" fill="none" stroke-linecap="round"></path><path d="M 305.923,184.298 C 306.360,187.360 306.877,187.651 309.119,189.894" stroke-width="6.155" stroke="black" fill="none" stroke-linecap="round"></path><path d="M 309.119,189.894 C 314.068,194.845 314.429,194.705 320.305,198.687" stroke-width="5.110" stroke="black" fill="none" stroke-linecap="round"></path><path d="M 320.305,198.687 C 326.813,203.098 327.047,202.770 333.888,206.681" stroke-width="4.794" stroke="black" fill="none" stroke-linecap="round"></path><path d="M 333.888,206.681 C 341.029,210.764 341.142,210.569 348.270,214.675" stroke-width="4.637" stroke="black" fill="none" stroke-linecap="round"></path><path d="M 348.270,214.675 C 354.325,218.163 354.788,217.643 360.255,221.870" stroke-width="4.844" stroke="black" fill="none" stroke-linecap="round"></path><path d="M 360.255,221.870 C 363.577,224.438 363.929,224.665 365.848,228.265" stroke-width="5.600" stroke="black" fill="none" stroke-linecap="round"></path><path d="M 365.848,228.265 C 367.125,230.660 367.966,231.808 366.647,233.861" stroke-width="6.420" stroke="black" fill="none" stroke-linecap="round"></path><path d="M 366.647,233.861 C 364.370,237.404 363.158,237.672 358.657,239.457" stroke-width="5.816" stroke="black" fill="none" stroke-linecap="round"></path><path d="M 358.657,239.457 C 341.984,246.066 341.857,246.664 324.300,250.648" stroke-width="4.500" stroke="black" fill="none" stroke-linecap="round"></path><path d="M 324.300,250.648 C 303.106,255.457 302.844,255.268 281.154,257.043" stroke-width="4.500" stroke="black" fill="none" stroke-linecap="round"></path><path d="M 281.154,257.043 C 258.899,258.865 258.775,258.054 236.410,257.843" stroke-width="4.500" stroke="black" fill="none" stroke-linecap="round"></path><path d="M 236.410,257.843 C 216.428,257.654 216.273,258.422 196.459,256.244" stroke-width="4.500" stroke="black" fill="none" stroke-linecap="round"></path><path d="M 196.459,256.244 C 179.919,254.425 179.694,254.356 163.700,249.849" stroke-width="4.500" stroke="black" fill="none" stroke-linecap="round"></path><path d="M 163.700,249.849 C 151.329,246.362 151.151,246.091 139.730,240.256" stroke-width="4.500" stroke="black" fill="none" stroke-linecap="round"></path><path d="M 139.730,240.256 C 132.375,236.498 132.193,236.186 126.147,230.663" stroke-width="4.500" stroke="black" fill="none" stroke-linecap="round"></path><path d="M 126.147,230.663 C 123.004,227.792 122.308,227.291 121.353,223.468" stroke-width="5.275" stroke="black" fill="none" stroke-linecap="round"></path><path d="M 121.353,223.468 C 120.710,220.896 120.702,219.340 122.951,217.873" stroke-width="6.740" stroke="black" fill="none" stroke-linecap="round"></path><path d="M 122.951,217.873 C 129.891,213.345 131.280,214.508 139.730,211.477" stroke-width="5.003" stroke="black" fill="none" stroke-linecap="round"></path><path d="M 139.730,211.477 C 152.454,206.914 152.347,206.508 165.298,202.684" stroke-width="4.500" stroke="black" fill="none" stroke-linecap="round"></path><path d="M 165.298,202.684 C 176.717,199.313 176.793,199.425 188.469,197.088" stroke-width="4.500" stroke="black" fill="none" stroke-linecap="round"></path><path d="M 188.469,197.088 C 198.765,195.028 198.820,195.194 209.243,193.891" stroke-width="4.500" stroke="black" fill="none" stroke-linecap="round"></path><path d="M 209.243,193.891 C 217.996,192.796 218.016,192.721 226.822,192.292" stroke-width="4.500" stroke="black" fill="none" stroke-linecap="round"></path><path d="M 226.822,192.292 C 234.395,191.922 234.412,192.292 242.003,192.292" stroke-width="4.654" stroke="black" fill="none" stroke-linecap="round"></path><path d="M 198.856,327.391 C 203.251,327.391 203.255,327.249 207.645,327.391" stroke-width="8.150" stroke="black" fill="none" stroke-linecap="round"></path><path d="M 207.645,327.391 C 215.639,327.649 215.630,328.016 223.625,328.190" stroke-width="5.325" stroke="black" fill="none" stroke-linecap="round"></path><path d="M 223.625,328.190 C 234.007,328.416 234.017,328.394 244.400,328.190" stroke-width="4.500" stroke="black" fill="none" stroke-linecap="round"></path><path d="M 244.400,328.190 C 254.391,327.994 254.388,327.807 264.375,327.391" stroke-width="4.500" stroke="black" fill="none" stroke-linecap="round"></path><path d="M 264.375,327.391 C 273.564,327.008 273.564,327.009 282.752,326.592" stroke-width="4.500" stroke="black" fill="none" stroke-linecap="round"></path><path d="M 282.752,326.592 C 291.142,326.210 291.154,326.351 299.531,325.792" stroke-width="4.500" stroke="black" fill="none" stroke-linecap="round"></path><path d="M 299.531,325.792 C 303.139,325.551 303.117,325.293 306.722,324.993" stroke-width="5.609" stroke="black" fill="none" stroke-linecap="round"></path><path d="M 306.722,324.993 C 312.705,324.494 312.709,324.433 318.707,324.193" stroke-width="5.370" stroke="black" fill="none" stroke-linecap="round"></path><path d="M 318.707,324.193 C 322.696,324.034 328.408,324.079 326.697,324.193" stroke-width="5.876" stroke="black" fill="none" stroke-linecap="round"></path></svg>