<svg xmlns="http://www.w3.org/2000/svg" xmlns:xlink="http://www.w3.org/1999/xlink" viewBox="0 0 576 416" width="576" height="416"><path d="M 415.386,194.976 C 410.592,194.976 410.592,194.976 405.798,194.976" stroke-width="8.181" stroke="black" fill="none" stroke-linecap="round"></path><path d="M 405.798,194.976 C 399.805,194.976 399.805,194.976 393.813,194.976" stroke-width="5.790" stroke="black" fill="none" stroke-linecap="round"></path><path d="M 393.813,194.976 C 386.222,194.976 386.222,194.976 378.632,194.976" stroke-width="5.024" stroke="black" fill="none" stroke-linecap="round"></path><path d="M 378.632,194.976 C 368.644,194.976 368.644,194.976 358.657,194.976" stroke-width="4.500" stroke="black" fill="none" stroke-linecap="round"></path><path d="M 358.657,194.976 C 341.478,194.976 341.478,194.976 324.300,194.976" stroke-width="4.500" stroke="black" fill="none" stroke-linecap="round"></path><path d="M 324.300,194.976 C 312.714,194.976 312.714,194.976 301.129,194.976" stroke-width="4.500" stroke="black" fill="none" stroke-linecap="round"></path><path d="M 301.129,194.976 C 290.342,194.976 290.338,194.776 279.556,194.976" stroke-width="4.500" stroke="black" fill="none" stroke-linecap="round"></path><path d="M 279.556,194.976 C 268.765,195.176 268.768,195.361 257.983,195.776" stroke-width="4.500" stroke="black" fill="none" stroke-linecap="round"></path><path d="M 257.983,195.776 C 247.994,196.160 247.998,196.263 238.008,196.575" stroke-width="4.500" stroke="black" fill="none" stroke-linecap="round"></path><path d="M 238.008,196.575 C 222.430,197.062 222.429,197.135 206.846,197.375" stroke-width="4.500" stroke="black" fill="none" stroke-linecap="round"></path><path d="M 206.846,197.375 C 196.461,197.534 196.459,197.375 186.072,197.375" stroke-width="4.500" stroke="black" fill="none" stroke-linecap="round"></path><path d="M 186.072,197.375 C 176.484,197.375 176.479,197.588 166.896,197.375" stroke-width="4.500" stroke="black" fill="none" stroke-linecap="round"></path><path d="M 166.896,197.375 C 158.502,197.188 158.462,197.410 150.117,196.575" stroke-width="4.500" stroke="black" fill="none" stroke-linecap="round"></path><path d="M 150.117,196.575 C 142.482,195.811 142.516,195.441 134.936,194.177" stroke-width="4.649" stroke="black" fill="none" stroke-linecap="round"></path><path d="M 134.936,194.177 C 128.134,193.043 128.057,193.344 121.353,191.779" stroke-width="4.868" stroke="black" fill="none" stroke-linecap="round"></path><path d="M 121.353,191.779 C 116.072,190.546 116.120,190.300 110.966,188.581" stroke-width="5.288" stroke="black" fill="none" stroke-linecap="round"></path><path d="M 110.966,188.581 C 106.532,187.102 106.380,187.362 102.177,185.383" stroke-width="5.640" stroke="black" fill="none" stroke-linecap="round"></path><path d="M 102.177,185.383 C 99.588,184.164 97.575,184.104 97.383,182.186" stroke-width="6.356" stroke="black" fill="none" stroke-linecap="round"></path><path d="M 97.383,182.186 C 97.176,180.107 98.706,178.490 101.378,177.389" stroke-width="7.652" stroke="black" fill="none" stroke-linecap="round"></path><path d="M 101.378,177.389 C 105.497,175.692 106.166,176.900 110.966,176.590" stroke-width="6.211" stroke="black" fill="none" stroke-linecap="round"></path><path d="M 110.966,176.590 C 118.551,176.100 118.551,175.976 126.147,175.791" stroke-width="5.112" stroke="black" fill="none" stroke-linecap="round"></path><path d="M 126.147,175.791 C 134.931,175.576 134.966,175.254 143.725,175.791" stroke-width="4.611" stroke="black" fill="none" stroke-linecap="round"></path><path d="M 143.725,175.791 C 154.542,176.453 154.570,176.599 165.298,178.189" stroke-width="4.500" stroke="black" fill="none" stroke-linecap="round"></path><path d="M 165.298,178.189 C 176.143,179.796 176.181,179.764 186.871,182.186" stroke-width="4.500" stroke="black" fill="none" stroke-linecap="round"></path><path d="M 186.871,182.186 C 197.354,184.561 197.201,185.218 207.645,187.782" stroke-width="4.500" stroke="black" fill="none" stroke-linecap="round"></path><path d="M 207.645,187.782 C 218.374,190.415 218.442,190.137 229.218,192.578" stroke-width="4.500" stroke="black" fill="none" stroke-linecap="round"></path><path d="M 229.218,192.578 C 239.615,194.933 239.573,195.126 249.993,197.375" stroke-width="4.500" stroke="black" fill="none" stroke-linecap="round"></path><path d="M 249.993,197.375 C 259.948,199.523 259.937,199.626 269.968,201.371" stroke-width="4.500" stroke="black" fill="none" stroke-linecap="round"></path><path d="M 269.968,201.371 C 278.314,202.824 278.324,202.905 286.747,203.770" stroke-width="4.500" stroke="black" fill="none" stroke-linecap="round"></path><path d="M 286.747,203.770 C 293.904,204.504 293.933,204.351 301.129,204.569" stroke-width="4.707" stroke="black" fill="none" stroke-linecap="round"></path><path d="M 301.129,204.569 C 307.116,204.751 307.121,204.569 313.114,204.569" stroke-width="5.093" stroke="black" fill="none" stroke-linecap="round"></path><path d="M 313.114,204.569 C 317.508,204.569 317.631,205.244 321.903,204.569" stroke-width="5.653" stroke="black" fill="none" stroke-linecap="round"></path><path d="M 321.903,204.569 C 325.221,204.045 325.099,203.370 328.295,202.171" stroke-width="6.170" stroke="black" fill="none" stroke-linecap="round"></path><path d="M 328.295,202.171 C 331.491,200.972 332.219,201.862 334.687,199.773" stroke-width="6.344" stroke="black" fill="none" stroke-linecap="round"></path><path d="M 334.687,199.773 C 337.412,197.465 338.039,196.912 338.682,193.377" stroke-width="7.322" stroke="black" fill="none" stroke-linecap="round"></path><path d="M 338.682,193.377 C 339.637,188.118 338.764,187.700 337.883,182.186" stroke-width="6.960" stroke="black" fill="none" stroke-linecap="round"></path><path d="M 337.883,182.186 C 337.166,177.707 337.138,177.616 335.486,173.392" stroke-width="5.947" stroke="black" fill="none" stroke-linecap="round"></path><path d="M 335.486,173.392 C 333.542,168.423 332.995,168.640 330.692,163.800" stroke-width="5.641" stroke="black" fill="none" stroke-linecap="round"></path><path d="M 330.692,163.800 C 329.000,160.246 330.266,159.290 327.496,156.605" stroke-width="5.989" stroke="black" fill="none" stroke-linecap="round"></path><path d="M 327.496,156.605 C 317.482,146.899 316.338,147.775 305.124,139.018" stroke-width="4.500" stroke="black" fill="none" stroke-linecap="round"></path><path d="M 305.124,139.018 C 299.958,134.985 300.166,134.645 294.737,131.024" stroke-width="4.721" stroke="black" fill="none" stroke-linecap="round"></path><path d="M 294.737,131.024 C 291.776,129.049 290.137,127.154 288.345,127.826" stroke-width="5.807" stroke="black" fill="none" stroke-linecap="round"></path><path d="M 288.345,127.826 C 286.941,128.353 288.181,130.632 288.345,133.422" stroke-width="7.362" stroke="black" fill="none" stroke-linecap="round"></path><path d="M 288.345,133.422 C 288.580,137.427 288.646,137.431 289.144,141.416" stroke-width="6.346" stroke="black" fill="none" stroke-linecap="round"></path><path d="M 289.144,141.416 C 289.844,147.024 290.198,146.986 290.742,152.608" stroke-width="5.657" stroke="black" fill="none" stroke-linecap="round"></path><path d="M 290.742,152.608 C 291.396,159.377 291.346,159.397 291.541,166.198" stroke-width="5.076" stroke="black" fill="none" stroke-linecap="round"></path><path d="M 291.541,166.198 C 291.746,173.386 291.908,173.410 291.541,180.587" stroke-width="4.933" stroke="black" fill="none" stroke-linecap="round"></path><path d="M 291.541,180.587 C 291.109,188.998 290.987,189.012 289.943,197.375" stroke-width="4.729" stroke="black" fill="none" stroke-linecap="round"></path><path d="M 289.943,197.375 C 288.990,205.000 288.973,205.012 287.546,212.563" stroke-width="4.630" stroke="black" fill="none" stroke-linecap="round"></path><path d="M 287.546,212.563 C 286.177,219.801 286.135,219.805 284.350,226.952" stroke-width="4.762" stroke="black" fill="none" stroke-linecap="round"></path><path d="M 284.350,226.952 C 282.939,232.596 282.666,232.525 281.154,238.144" stroke-width="5.234" stroke="black" fill="none" stroke-linecap="round"></path><path d="M 281.154,238.144 C 279.869,242.917 280.113,242.986 278.757,247.737" stroke-width="5.545" stroke="black" fill="none" stroke-linecap="round"></path><path d="M 278.757,247.737 C 277.716,251.380 277.275,251.267 276.360,254.932" stroke-width="6.003" stroke="black" fill="none" stroke-linecap="round"></path><path d="M 276.360,254.932 C 275.677,257.663 276.151,257.770 275.561,260.527" stroke-width="6.510" stroke="black" fill="none" stroke-linecap="round"></path></svg>