<svg xmlns="http://www.w3.org/2000/svg" xmlns:xlink="http://www.w3.org/1999/xlink" viewBox="0 0 576 416" width="576" height="416"><path d="M 436.959,206.739 C 412.589,207.139 412.582,206.866 388.220,207.538" stroke-width="5.069" stroke="black" fill="none" stroke-linecap="round"></path><path d="M 388.220,207.538 C 354.655,208.465 354.668,208.960 321.104,209.936" stroke-width="4.500" stroke="black" fill="none" stroke-linecap="round"></path><path d="M 321.104,209.936 C 285.954,210.959 285.937,210.406 250.792,211.535" stroke-width="4.500" stroke="black" fill="none" stroke-linecap="round"></path><path d="M 250.792,211.535 C 198.846,213.204 198.826,212.961 146.921,215.532" stroke-width="4.500" stroke="black" fill="none" stroke-linecap="round"></path><path d="M 146.921,215.532 C 118.126,216.958 118.104,216.960 89.393,219.529" stroke-width="4.500" stroke="black" fill="none" stroke-linecap="round"></path><path d="M 89.393,219.529 C 68.965,221.357 68.995,221.748 48.644,224.326" stroke-width="4.500" stroke="black" fill="none" stroke-linecap="round"></path><path d="M 48.644,224.326 C 37.435,225.745 33.383,229.006 26.272,227.523" stroke-width="4.500" stroke="black" fill="none" stroke-linecap="round"></path><path d="M 26.272,227.523 C 23.795,227.007 26.304,222.351 29.468,220.329" stroke-width="5.295" stroke="black" fill="none" stroke-linecap="round"></path><path d="M 29.468,220.329 C 40.686,213.158 42.101,214.366 55.036,209.137" stroke-width="4.500" stroke="black" fill="none" stroke-linecap="round"></path><path d="M 55.036,209.137 C 81.651,198.378 81.134,196.604 108.569,188.353" stroke-width="4.500" stroke="black" fill="none" stroke-linecap="round"></path><path d="M 108.569,188.353 C 146.253,177.019 146.596,177.190 185.273,169.966" stroke-width="4.500" stroke="black" fill="none" stroke-linecap="round"></path><path d="M 185.273,169.966 C 206.521,165.998 206.812,166.920 228.419,165.969" stroke-width="4.500" stroke="black" fill="none" stroke-linecap="round"></path><path d="M 228.419,165.969 C 243.167,165.321 243.283,165.637 257.983,166.769" stroke-width="4.500" stroke="black" fill="none" stroke-linecap="round"></path><path d="M 257.983,166.769 C 264.058,167.236 268.488,167.687 269.968,169.167" stroke-width="4.500" stroke="black" fill="none" stroke-linecap="round"></path><path d="M 269.968,169.167 C 270.885,170.085 266.455,170.673 262.777,171.565" stroke-width="6.038" stroke="black" fill="none" stroke-linecap="round"></path><path d="M 262.777,171.565 C 253.271,173.871 253.134,173.330 243.601,175.562" stroke-width="4.606" stroke="black" fill="none" stroke-linecap="round"></path><path d="M 243.601,175.562 C 234.357,177.727 234.261,177.503 225.223,180.359" stroke-width="4.500" stroke="black" fill="none" stroke-linecap="round"></path><path d="M 225.223,180.359 C 219.080,182.299 218.914,182.193 213.238,185.155" stroke-width="4.860" stroke="black" fill="none" stroke-linecap="round"></path><path d="M 213.238,185.155 C 209.725,186.989 208.241,186.762 206.846,189.951" stroke-width="5.746" stroke="black" fill="none" stroke-linecap="round"></path><path d="M 361.853,61.247 C 358.257,66.044 358.296,66.073 354.662,70.840" stroke-width="7.789" stroke="black" fill="none" stroke-linecap="round"></path><path d="M 354.662,70.840 C 340.318,89.656 340.888,90.122 325.898,108.412" stroke-width="4.500" stroke="black" fill="none" stroke-linecap="round"></path><path d="M 325.898,108.412 C 308.129,130.092 307.591,129.658 289.144,150.781" stroke-width="4.500" stroke="black" fill="none" stroke-linecap="round"></path><path d="M 289.144,150.781 C 271.636,170.827 271.538,170.741 253.988,190.751" stroke-width="4.500" stroke="black" fill="none" stroke-linecap="round"></path><path d="M 253.988,190.751 C 237.181,209.912 236.858,209.641 220.429,229.122" stroke-width="4.500" stroke="black" fill="none" stroke-linecap="round"></path><path d="M 220.429,229.122 C 204.499,248.013 204.602,248.115 189.268,267.494" stroke-width="4.500" stroke="black" fill="none" stroke-linecap="round"></path><path d="M 189.268,267.494 C 181.830,276.894 181.813,276.896 174.886,286.679" stroke-width="4.500" stroke="black" fill="none" stroke-linecap="round"></path><path d="M 174.886,286.679 C 161.438,305.675 161.635,305.819 148.519,325.051" stroke-width="4.500" stroke="black" fill="none" stroke-linecap="round"></path><path d="M 148.519,325.051 C 138.464,339.794 138.114,339.583 128.544,354.629" stroke-width="4.500" stroke="black" fill="none" stroke-linecap="round"></path><path d="M 128.544,354.629 C 124.131,361.567 116.837,369.858 120.554,369.018" stroke-width="4.500" stroke="black" fill="none" stroke-linecap="round"></path><path d="M 120.554,369.018 C 129.221,367.060 136.733,358.681 153.313,349.033" stroke-width="4.500" stroke="black" fill="none" stroke-linecap="round"></path><path d="M 153.313,349.033 C 175.884,335.898 175.643,335.378 198.856,323.452" stroke-width="4.500" stroke="black" fill="none" stroke-linecap="round"></path><path d="M 198.856,323.452 C 219.988,312.595 220.443,313.489 242.003,303.467" stroke-width="4.500" stroke="black" fill="none" stroke-linecap="round"></path><path d="M 242.003,303.467 C 259.994,295.103 259.980,295.073 277.958,286.679" stroke-width="4.500" stroke="black" fill="none" stroke-linecap="round"></path><path d="M 277.958,286.679 C 289.943,281.083 290.170,281.506 301.928,275.488" stroke-width="4.500" stroke="black" fill="none" stroke-linecap="round"></path><path d="M 301.928,275.488 C 307.349,272.712 310.337,271.919 312.315,269.092" stroke-width="4.500" stroke="black" fill="none" stroke-linecap="round"></path><path d="M 312.315,269.092 C 313.134,267.922 309.970,267.231 307.521,267.494" stroke-width="6.343" stroke="black" fill="none" stroke-linecap="round"></path><path d="M 307.521,267.494 C 298.784,268.430 298.697,269.350 289.943,271.491" stroke-width="4.818" stroke="black" fill="none" stroke-linecap="round"></path><path d="M 289.943,271.491 C 280.719,273.746 280.790,274.042 271.566,276.287" stroke-width="4.502" stroke="black" fill="none" stroke-linecap="round"></path><path d="M 271.566,276.287 C 266.009,277.639 259.527,278.685 260.380,278.685" stroke-width="4.999" stroke="black" fill="none" stroke-linecap="round"></path><path d="M 260.380,278.685 C 261.525,278.685 267.932,277.003 275.561,276.287" stroke-width="6.203" stroke="black" fill="none" stroke-linecap="round"></path><path d="M 275.561,276.287 C 280.716,275.803 281.918,274.523 285.948,276.287" stroke-width="5.758" stroke="black" fill="none" stroke-linecap="round"></path><path d="M 224.425,351.431 C 224.425,359.425 224.425,359.425 224.425,367.419" stroke-width="8.118" stroke="black" fill="none" stroke-linecap="round"></path><path d="M 224.425,367.419 C 224.425,373.414 224.425,373.414 224.425,379.410" stroke-width="6.004" stroke="black" fill="none" stroke-linecap="round"></path><path d="M 224.425,379.410 C 224.425,385.406 224.211,385.414 224.425,391.401" stroke-width="5.476" stroke="black" fill="none" stroke-linecap="round"></path><path d="M 224.425,391.401 C 224.610,396.605 224.808,396.598 225.223,401.793" stroke-width="5.548" stroke="black" fill="none" stroke-linecap="round"></path><path d="M 225.223,401.793 C 225.607,406.591 225.566,406.595 226.022,411.386" stroke-width="5.598" stroke="black" fill="none" stroke-linecap="round"></path><path d="M 226.022,411.386 C 226.365,414.989 226.422,414.983 226.822,418.581" stroke-width="6.148" stroke="black" fill="none" stroke-linecap="round"></path><path d="M 234.013,363.422 C 240.405,361.024 240.405,361.024 246.797,358.625" stroke-width="8.127" stroke="black" fill="none" stroke-linecap="round"></path><path d="M 246.797,358.625 C 249.993,357.426 249.953,357.306 253.189,356.227" stroke-width="6.935" stroke="black" fill="none" stroke-linecap="round"></path><path d="M 253.189,356.227 C 255.945,355.308 256.002,355.484 258.782,354.629" stroke-width="6.773" stroke="black" fill="none" stroke-linecap="round"></path><path d="M 258.782,354.629 C 261.196,353.885 261.179,353.829 263.576,353.030" stroke-width="6.887" stroke="black" fill="none" stroke-linecap="round"></path><path d="M 263.576,353.030 C 267.171,351.831 271.665,350.332 270.767,350.631" stroke-width="7.184" stroke="black" fill="none" stroke-linecap="round"></path><path d="M 206.846,408.188 C 213.238,406.590 213.202,406.420 219.630,404.991" stroke-width="8.298" stroke="black" fill="none" stroke-linecap="round"></path><path d="M 219.630,404.991 C 223.988,404.022 224.094,404.474 228.419,403.392" stroke-width="6.460" stroke="black" fill="none" stroke-linecap="round"></path><path d="M 228.419,403.392 C 233.682,402.076 233.583,401.688 238.806,400.194" stroke-width="5.749" stroke="black" fill="none" stroke-linecap="round"></path><path d="M 238.806,400.194 C 244.769,398.490 244.873,398.834 250.792,396.997" stroke-width="5.356" stroke="black" fill="none" stroke-linecap="round"></path><path d="M 250.792,396.997 C 256.459,395.237 256.409,395.063 261.978,393.000" stroke-width="5.315" stroke="black" fill="none" stroke-linecap="round"></path><path d="M 261.978,393.000 C 267.195,391.066 267.327,391.343 272.365,389.003" stroke-width="5.401" stroke="black" fill="none" stroke-linecap="round"></path><path d="M 272.365,389.003 C 278.513,386.147 278.490,386.027 284.350,382.608" stroke-width="6.116" stroke="black" fill="none" stroke-linecap="round"></path><path d="M 284.350,382.608 C 288.078,380.432 289.776,380.838 291.541,377.811" stroke-width="6.793" stroke="black" fill="none" stroke-linecap="round"></path><path d="M 291.541,377.811 C 292.573,376.041 291.541,373.814 289.943,373.015" stroke-width="8.033" stroke="black" fill="none" stroke-linecap="round"></path><path d="M 289.943,373.015 C 288.345,372.216 286.904,373.032 285.149,374.614" stroke-width="8.131" stroke="black" fill="none" stroke-linecap="round"></path><path d="M 285.149,374.614 C 282.909,376.630 283.479,377.373 281.953,380.209" stroke-width="7.017" stroke="black" fill="none" stroke-linecap="round"></path><path d="M 281.953,380.209 C 280.683,382.569 280.513,382.514 279.556,385.006" stroke-width="6.893" stroke="black" fill="none" stroke-linecap="round"></path><path d="M 279.556,385.006 C 278.516,387.710 278.409,387.740 277.958,390.602" stroke-width="6.760" stroke="black" fill="none" stroke-linecap="round"></path><path d="M 277.958,390.602 C 277.211,395.335 276.645,395.574 277.159,400.194" stroke-width="6.904" stroke="black" fill="none" stroke-linecap="round"></path><path d="M 277.159,400.194 C 277.444,402.768 277.515,403.800 279.556,404.991" stroke-width="7.511" stroke="black" fill="none" stroke-linecap="round"></path><path d="M 279.556,404.991 C 282.309,406.598 283.246,406.291 286.747,405.790" stroke-width="7.448" stroke="black" fill="none" stroke-linecap="round"></path><path d="M 286.747,405.790 C 291.636,405.091 291.719,404.601 296.335,402.593" stroke-width="6.086" stroke="black" fill="none" stroke-linecap="round"></path><path d="M 296.335,402.593 C 300.907,400.604 300.940,400.517 305.124,397.796" stroke-width="5.690" stroke="black" fill="none" stroke-linecap="round"></path><path d="M 305.124,397.796 C 308.930,395.321 308.996,395.284 312.315,392.200" stroke-width="5.808" stroke="black" fill="none" stroke-linecap="round"></path><path d="M 312.315,392.200 C 314.589,390.088 314.720,390.056 316.310,387.404" stroke-width="6.329" stroke="black" fill="none" stroke-linecap="round"></path><path d="M 316.310,387.404 C 318.315,384.060 319.506,383.671 319.506,380.209" stroke-width="7.009" stroke="black" fill="none" stroke-linecap="round"></path><path d="M 319.506,380.209 C 319.506,377.675 318.540,376.630 316.310,375.413" stroke-width="7.857" stroke="black" fill="none" stroke-linecap="round"></path><path d="M 316.310,375.413 C 314.145,374.232 313.475,375.068 310.717,375.413" stroke-width="7.810" stroke="black" fill="none" stroke-linecap="round"></path><path d="M 310.717,375.413 C 307.083,375.867 307.050,375.975 303.526,377.012" stroke-width="7.457" stroke="black" fill="none" stroke-linecap="round"></path><path d="M 331.491,357.826 C 331.890,362.223 331.536,362.283 332.290,366.620" stroke-width="8.655" stroke="black" fill="none" stroke-linecap="round"></path><path d="M 332.290,366.620 C 333.134,371.476 333.592,371.393 334.687,376.212" stroke-width="7.440" stroke="black" fill="none" stroke-linecap="round"></path><path d="M 334.687,376.212 C 335.589,380.186 335.811,380.177 336.285,384.206" stroke-width="7.282" stroke="black" fill="none" stroke-linecap="round"></path><path d="M 336.285,384.206 C 336.610,386.972 336.285,389.989 336.285,389.802" stroke-width="7.976" stroke="black" fill="none" stroke-linecap="round"></path><path d="M 336.285,389.802 C 336.285,389.589 336.618,386.575 336.285,383.407" stroke-width="8.523" stroke="black" fill="none" stroke-linecap="round"></path><path d="M 336.285,383.407 C 335.819,378.980 335.383,379.026 334.687,374.614" stroke-width="7.460" stroke="black" fill="none" stroke-linecap="round"></path><path d="M 334.687,374.614 C 334.185,371.432 334.264,371.419 333.888,368.218" stroke-width="6.781" stroke="black" fill="none" stroke-linecap="round"></path><path d="M 333.888,368.218 C 333.465,364.624 333.638,364.599 333.089,361.024" stroke-width="6.446" stroke="black" fill="none" stroke-linecap="round"></path><path d="M 333.089,361.024 C 332.040,354.207 331.666,354.259 330.692,347.434" stroke-width="6.415" stroke="black" fill="none" stroke-linecap="round"></path><path d="M 330.692,347.434 C 330.068,343.067 330.418,343.022 329.893,338.640" stroke-width="6.063" stroke="black" fill="none" stroke-linecap="round"></path><path d="M 329.893,338.640 C 329.220,333.030 328.856,333.069 328.295,327.449" stroke-width="5.380" stroke="black" fill="none" stroke-linecap="round"></path><path d="M 328.295,327.449 C 327.658,321.078 327.673,321.061 327.496,314.658" stroke-width="5.204" stroke="black" fill="none" stroke-linecap="round"></path><path d="M 327.496,314.658 C 327.274,306.671 327.496,306.664 327.496,298.670" stroke-width="4.978" stroke="black" fill="none" stroke-linecap="round"></path><path d="M 370.642,335.443 C 365.049,338.640 364.838,338.338 359.456,341.838" stroke-width="8.212" stroke="black" fill="none" stroke-linecap="round"></path><path d="M 359.456,341.838 C 356.848,343.534 356.859,343.637 354.662,345.835" stroke-width="7.000" stroke="black" fill="none" stroke-linecap="round"></path><path d="M 354.662,345.835 C 352.464,348.034 352.310,348.001 350.667,350.631" stroke-width="6.703" stroke="black" fill="none" stroke-linecap="round"></path><path d="M 350.667,350.631 C 348.315,354.397 348.140,354.463 346.672,358.625" stroke-width="6.964" stroke="black" fill="none" stroke-linecap="round"></path><path d="M 346.672,358.625 C 345.743,361.258 346.185,361.413 345.873,364.221" stroke-width="6.816" stroke="black" fill="none" stroke-linecap="round"></path><path d="M 345.873,364.221 C 345.386,368.608 344.492,368.745 345.074,373.015" stroke-width="6.947" stroke="black" fill="none" stroke-linecap="round"></path><path d="M 345.074,373.015 C 345.690,377.539 345.530,378.818 348.270,381.808" stroke-width="7.083" stroke="black" fill="none" stroke-linecap="round"></path><path d="M 348.270,381.808 C 349.924,383.614 351.110,382.914 353.863,382.608" stroke-width="7.777" stroke="black" fill="none" stroke-linecap="round"></path><path d="M 353.863,382.608 C 358.301,382.114 358.376,381.719 362.652,380.209" stroke-width="7.256" stroke="black" fill="none" stroke-linecap="round"></path><path d="M 362.652,380.209 C 365.167,379.321 365.197,379.243 367.446,377.811" stroke-width="7.028" stroke="black" fill="none" stroke-linecap="round"></path><path d="M 367.446,377.811 C 369.592,376.445 369.443,376.212 371.441,374.614" stroke-width="6.950" stroke="black" fill="none" stroke-linecap="round"></path><path d="M 371.441,374.614 C 373.438,373.015 373.802,373.348 375.436,371.416" stroke-width="6.858" stroke="black" fill="none" stroke-linecap="round"></path><path d="M 375.436,371.416 C 378.196,368.152 378.314,368.054 380.230,364.221" stroke-width="7.077" stroke="black" fill="none" stroke-linecap="round"></path><path d="M 380.230,364.221 C 381.910,360.859 382.387,360.624 382.627,357.027" stroke-width="7.272" stroke="black" fill="none" stroke-linecap="round"></path><path d="M 382.627,357.027 C 382.787,354.629 382.267,354.398 381.029,352.230" stroke-width="7.657" stroke="black" fill="none" stroke-linecap="round"></path><path d="M 381.029,352.230 C 379.071,348.803 378.946,348.741 376.235,345.835" stroke-width="7.423" stroke="black" fill="none" stroke-linecap="round"></path><path d="M 376.235,345.835 C 373.353,342.746 373.432,342.351 369.843,340.239" stroke-width="7.235" stroke="black" fill="none" stroke-linecap="round"></path><path d="M 369.843,340.239 C 366.640,338.354 366.285,338.910 362.652,337.841" stroke-width="7.322" stroke="black" fill="none" stroke-linecap="round"></path><path d="M 399.406,331.446 C 398.607,336.242 398.290,336.216 397.808,341.039" stroke-width="8.546" stroke="black" fill="none" stroke-linecap="round"></path><path d="M 397.808,341.039 C 397.491,344.210 398.020,344.251 397.808,347.434" stroke-width="7.035" stroke="black" fill="none" stroke-linecap="round"></path><path d="M 397.808,347.434 C 397.620,350.247 397.210,350.218 397.009,353.030" stroke-width="6.836" stroke="black" fill="none" stroke-linecap="round"></path><path d="M 397.009,353.030 C 396.810,355.813 397.009,355.828 397.009,358.625" stroke-width="6.791" stroke="black" fill="none" stroke-linecap="round"></path><path d="M 397.009,358.625 C 397.009,362.622 397.009,366.175 397.009,366.620" stroke-width="7.130" stroke="black" fill="none" stroke-linecap="round"></path><path d="M 397.009,366.620 C 397.009,366.975 396.638,363.381 397.009,360.224" stroke-width="8.060" stroke="black" fill="none" stroke-linecap="round"></path><path d="M 397.009,360.224 C 397.437,356.586 397.622,356.576 398.607,353.030" stroke-width="6.724" stroke="black" fill="none" stroke-linecap="round"></path><path d="M 398.607,353.030 C 399.620,349.381 399.564,349.333 401.004,345.835" stroke-width="6.366" stroke="black" fill="none" stroke-linecap="round"></path><path d="M 401.004,345.835 C 402.361,342.538 402.519,342.593 404.200,339.440" stroke-width="6.345" stroke="black" fill="none" stroke-linecap="round"></path><path d="M 404.200,339.440 C 405.715,336.598 405.287,336.165 407.396,333.844" stroke-width="6.540" stroke="black" fill="none" stroke-linecap="round"></path><path d="M 407.396,333.844 C 409.282,331.768 409.706,332.096 412.190,330.646" stroke-width="6.666" stroke="black" fill="none" stroke-linecap="round"></path><path d="M 412.190,330.646 C 414.500,329.298 414.425,328.760 416.984,328.248" stroke-width="6.789" stroke="black" fill="none" stroke-linecap="round"></path><path d="M 416.984,328.248 C 420.417,327.561 421.197,326.758 424.175,328.248" stroke-width="7.224" stroke="black" fill="none" stroke-linecap="round"></path><path d="M 424.175,328.248 C 428.388,330.356 428.154,331.541 431.366,335.443" stroke-width="7.047" stroke="black" fill="none" stroke-linecap="round"></path><path d="M 431.366,335.443 C 433.747,338.335 434.017,338.381 435.361,341.838" stroke-width="6.369" stroke="black" fill="none" stroke-linecap="round"></path><path d="M 435.361,341.838 C 436.814,345.576 436.120,345.844 436.959,349.832" stroke-width="6.166" stroke="black" fill="none" stroke-linecap="round"></path><path d="M 436.959,349.832 C 437.718,353.438 437.952,353.397 438.557,357.027" stroke-width="6.244" stroke="black" fill="none" stroke-linecap="round"></path><path d="M 438.557,357.027 C 439.151,360.592 439.156,360.613 439.356,364.221" stroke-width="6.292" stroke="black" fill="none" stroke-linecap="round"></path><path d="M 439.356,364.221 C 439.555,367.808 439.356,367.819 439.356,371.416" stroke-width="6.314" stroke="black" fill="none" stroke-linecap="round"></path><path d="M 484.100,338.640 C 479.306,338.241 479.300,337.841 474.512,337.841" stroke-width="8.540" stroke="black" fill="none" stroke-linecap="round"></path><path d="M 474.512,337.841 C 470.911,337.841 470.891,338.076 467.321,338.640" stroke-width="6.849" stroke="black" fill="none" stroke-linecap="round"></path><path d="M 467.321,338.640 C 463.300,339.276 463.263,339.204 459.331,340.239" stroke-width="6.295" stroke="black" fill="none" stroke-linecap="round"></path><path d="M 459.331,340.239 C 455.673,341.202 455.685,341.307 452.140,342.637" stroke-width="6.245" stroke="black" fill="none" stroke-linecap="round"></path><path d="M 452.140,342.637 C 449.293,343.705 449.033,343.378 446.547,345.036" stroke-width="6.508" stroke="black" fill="none" stroke-linecap="round"></path><path d="M 446.547,345.036 C 444.239,346.575 444.192,346.777 442.552,349.033" stroke-width="6.679" stroke="black" fill="none" stroke-linecap="round"></path><path d="M 442.552,349.033 C 440.996,351.173 441.183,351.360 440.155,353.829" stroke-width="6.792" stroke="black" fill="none" stroke-linecap="round"></path><path d="M 440.155,353.829 C 439.185,356.157 438.721,356.160 438.557,358.625" stroke-width="6.893" stroke="black" fill="none" stroke-linecap="round"></path><path d="M 438.557,358.625 C 438.322,362.156 438.069,362.601 439.356,365.820" stroke-width="7.254" stroke="black" fill="none" stroke-linecap="round"></path><path d="M 439.356,365.820 C 440.466,368.596 440.730,369.742 443.351,370.617" stroke-width="7.495" stroke="black" fill="none" stroke-linecap="round"></path><path d="M 443.351,370.617 C 446.722,371.741 447.632,371.054 451.341,369.817" stroke-width="7.344" stroke="black" fill="none" stroke-linecap="round"></path><path d="M 451.341,369.817 C 454.823,368.656 454.809,368.160 457.733,365.820" stroke-width="6.531" stroke="black" fill="none" stroke-linecap="round"></path><path d="M 457.733,365.820 C 460.801,363.364 460.761,363.218 463.326,360.224" stroke-width="6.253" stroke="black" fill="none" stroke-linecap="round"></path><path d="M 463.326,360.224 C 465.555,357.622 465.323,357.426 467.321,354.629" stroke-width="6.361" stroke="black" fill="none" stroke-linecap="round"></path><path d="M 467.321,354.629 C 469.318,351.831 469.621,352.001 471.316,349.033" stroke-width="6.394" stroke="black" fill="none" stroke-linecap="round"></path><path d="M 471.316,349.033 C 472.817,346.405 472.438,346.200 473.713,343.437" stroke-width="6.555" stroke="black" fill="none" stroke-linecap="round"></path><path d="M 473.713,343.437 C 474.835,341.003 474.987,341.074 476.110,338.640" stroke-width="6.753" stroke="black" fill="none" stroke-linecap="round"></path><path d="M 476.110,338.640 C 477.384,335.878 477.308,333.045 478.507,333.045" stroke-width="7.346" stroke="black" fill="none" stroke-linecap="round"></path><path d="M 478.507,333.045 C 479.705,333.045 480.075,335.739 480.904,338.640" stroke-width="8.052" stroke="black" fill="none" stroke-linecap="round"></path><path d="M 480.904,338.640 C 481.673,341.335 481.183,341.460 481.703,344.236" stroke-width="7.097" stroke="black" fill="none" stroke-linecap="round"></path><path d="M 481.703,344.236 C 482.381,347.856 482.264,347.904 483.301,351.431" stroke-width="6.503" stroke="black" fill="none" stroke-linecap="round"></path><path d="M 483.301,351.431 C 484.262,354.699 484.499,354.628 485.698,357.826" stroke-width="6.445" stroke="black" fill="none" stroke-linecap="round"></path><path d="M 485.698,357.826 C 486.896,361.024 486.575,361.179 488.095,364.221" stroke-width="6.428" stroke="black" fill="none" stroke-linecap="round"></path><path d="M 488.095,364.221 C 490.170,368.374 489.582,369.615 492.889,372.215" stroke-width="6.860" stroke="black" fill="none" stroke-linecap="round"></path><path d="M 316.310,329.048 C 328.295,324.651 328.205,324.391 340.280,320.254" stroke-width="7.509" stroke="black" fill="none" stroke-linecap="round"></path><path d="M 340.280,320.254 C 357.368,314.399 357.539,314.894 374.637,309.063" stroke-width="4.500" stroke="black" fill="none" stroke-linecap="round"></path><path d="M 374.637,309.063 C 392.695,302.903 392.614,302.667 410.592,296.272" stroke-width="4.500" stroke="black" fill="none" stroke-linecap="round"></path></svg>