<svg xmlns="http://www.w3.org/2000/svg" xmlns:xlink="http://www.w3.org/1999/xlink" viewBox="0 0 576 416" width="576" height="416"><path d="M 79.805,98.819 C 80.205,107.613 80.761,107.617 80.604,116.406" stroke-width="8.055" stroke="black" fill="none" stroke-linecap="round"></path><path d="M 80.604,116.406 C 80.362,130.000 80.202,130.031 79.006,143.586" stroke-width="4.500" stroke="black" fill="none" stroke-linecap="round"></path><path d="M 79.006,143.586 C 77.805,157.211 77.686,157.214 75.810,170.766" stroke-width="4.500" stroke="black" fill="none" stroke-linecap="round"></path><path d="M 75.810,170.766 C 74.090,183.195 74.058,183.204 71.815,195.547" stroke-width="4.500" stroke="black" fill="none" stroke-linecap="round"></path><path d="M 71.815,195.547 C 70.862,200.791 70.516,200.722 69.418,205.939" stroke-width="4.766" stroke="black" fill="none" stroke-linecap="round"></path><path d="M 69.418,205.939 C 67.320,215.910 66.921,215.860 65.423,225.924" stroke-width="4.500" stroke="black" fill="none" stroke-linecap="round"></path><path d="M 65.423,225.924 C 64.125,234.646 64.520,234.710 63.825,243.511" stroke-width="4.500" stroke="black" fill="none" stroke-linecap="round"></path><path d="M 63.825,243.511 C 63.321,249.899 63.263,249.902 63.026,256.302" stroke-width="4.829" stroke="black" fill="none" stroke-linecap="round"></path><path d="M 63.026,256.302 C 62.864,260.694 62.629,266.552 63.026,265.095" stroke-width="5.551" stroke="black" fill="none" stroke-linecap="round"></path><path d="M 63.026,265.095 C 63.828,262.155 64.591,256.339 65.423,247.508" stroke-width="6.574" stroke="black" fill="none" stroke-linecap="round"></path><path d="M 65.423,247.508 C 66.588,235.154 66.222,235.118 67.021,222.727" stroke-width="4.500" stroke="black" fill="none" stroke-linecap="round"></path><path d="M 67.021,222.727 C 67.820,210.336 68.000,210.345 68.619,197.945" stroke-width="4.500" stroke="black" fill="none" stroke-linecap="round"></path><path d="M 68.619,197.945 C 69.198,186.363 68.989,186.353 69.418,174.763" stroke-width="4.500" stroke="black" fill="none" stroke-linecap="round"></path><path d="M 69.418,174.763 C 69.788,164.769 69.581,164.755 70.217,154.778" stroke-width="4.500" stroke="black" fill="none" stroke-linecap="round"></path><path d="M 70.217,154.778 C 70.779,145.969 70.747,145.951 71.815,137.191" stroke-width="4.500" stroke="black" fill="none" stroke-linecap="round"></path><path d="M 71.815,137.191 C 72.745,129.563 72.989,129.592 74.212,122.002" stroke-width="4.587" stroke="black" fill="none" stroke-linecap="round"></path><path d="M 74.212,122.002 C 74.986,117.202 73.560,115.911 75.810,112.409" stroke-width="5.328" stroke="black" fill="none" stroke-linecap="round"></path><path d="M 75.810,112.409 C 77.156,110.315 79.817,109.110 81.403,110.810" stroke-width="6.785" stroke="black" fill="none" stroke-linecap="round"></path><path d="M 81.403,110.810 C 85.410,115.106 84.930,117.371 86.996,124.400" stroke-width="5.285" stroke="black" fill="none" stroke-linecap="round"></path><path d="M 86.996,124.400 C 90.922,137.756 90.465,137.932 93.388,151.580" stroke-width="4.500" stroke="black" fill="none" stroke-linecap="round"></path><path d="M 93.388,151.580 C 96.458,165.911 96.068,165.993 98.981,180.359" stroke-width="4.500" stroke="black" fill="none" stroke-linecap="round"></path><path d="M 98.981,180.359 C 101.661,193.572 100.854,193.822 104.574,206.739" stroke-width="4.500" stroke="black" fill="none" stroke-linecap="round"></path><path d="M 104.574,206.739 C 107.646,217.405 107.801,217.515 112.564,227.523" stroke-width="4.500" stroke="black" fill="none" stroke-linecap="round"></path><path d="M 112.564,227.523 C 115.791,234.302 115.492,235.019 120.554,240.314" stroke-width="4.500" stroke="black" fill="none" stroke-linecap="round"></path><path d="M 120.554,240.314 C 124.281,244.212 125.124,245.282 130.142,245.910" stroke-width="5.088" stroke="black" fill="none" stroke-linecap="round"></path><path d="M 130.142,245.910 C 134.712,246.481 135.213,244.853 139.730,242.712" stroke-width="5.465" stroke="black" fill="none" stroke-linecap="round"></path><path d="M 139.730,242.712 C 142.803,241.256 143.026,241.233 145.323,238.715" stroke-width="6.158" stroke="black" fill="none" stroke-linecap="round"></path><path d="M 145.323,238.715 C 151.415,232.040 151.589,231.965 156.509,224.326" stroke-width="4.649" stroke="black" fill="none" stroke-linecap="round"></path><path d="M 156.509,224.326 C 163.174,213.978 163.775,214.073 168.494,202.742" stroke-width="4.500" stroke="black" fill="none" stroke-linecap="round"></path><path d="M 168.494,202.742 C 173.763,190.091 173.912,189.825 176.484,176.362" stroke-width="4.500" stroke="black" fill="none" stroke-linecap="round"></path><path d="M 176.484,176.362 C 179.105,162.645 178.684,162.387 178.881,148.382" stroke-width="4.500" stroke="black" fill="none" stroke-linecap="round"></path><path d="M 178.881,148.382 C 179.084,134.008 179.341,133.807 177.283,119.604" stroke-width="4.500" stroke="black" fill="none" stroke-linecap="round"></path><path d="M 177.283,119.604 C 175.346,106.228 174.715,106.231 170.891,93.224" stroke-width="4.500" stroke="black" fill="none" stroke-linecap="round"></path><path d="M 170.891,93.224 C 166.725,79.051 167.249,78.727 161.303,65.244" stroke-width="4.500" stroke="black" fill="none" stroke-linecap="round"></path><path d="M 161.303,65.244 C 155.264,51.548 155.087,51.375 146.921,38.864" stroke-width="4.500" stroke="black" fill="none" stroke-linecap="round"></path><path d="M 146.921,38.864 C 142.303,31.789 141.926,31.729 135.735,26.074" stroke-width="4.500" stroke="black" fill="none" stroke-linecap="round"></path><path d="M 135.735,26.074 C 132.738,23.335 132.068,22.312 128.544,22.077" stroke-width="5.276" stroke="black" fill="none" stroke-linecap="round"></path><path d="M 271.566,156.376 C 264.774,155.577 264.628,153.946 257.983,154.778" stroke-width="7.725" stroke="black" fill="none" stroke-linecap="round"></path><path d="M 257.983,154.778 C 248.648,155.945 248.141,156.195 239.605,160.373" stroke-width="4.890" stroke="black" fill="none" stroke-linecap="round"></path><path d="M 239.605,160.373 C 229.364,165.388 229.342,165.945 220.429,173.164" stroke-width="4.500" stroke="black" fill="none" stroke-linecap="round"></path><path d="M 220.429,173.164 C 212.563,179.535 212.775,179.953 206.047,187.553" stroke-width="4.500" stroke="black" fill="none" stroke-linecap="round"></path><path d="M 206.047,187.553 C 200.391,193.943 200.557,194.144 195.660,201.143" stroke-width="4.500" stroke="black" fill="none" stroke-linecap="round"></path><path d="M 195.660,201.143 C 192.168,206.135 191.862,206.086 189.268,211.535" stroke-width="4.941" stroke="black" fill="none" stroke-linecap="round"></path><path d="M 189.268,211.535 C 187.867,214.480 185.732,218.146 187.670,217.931" stroke-width="6.472" stroke="black" fill="none" stroke-linecap="round"></path><path d="M 187.670,217.931 C 192.923,217.347 196.589,215.271 203.650,209.936" stroke-width="6.582" stroke="black" fill="none" stroke-linecap="round"></path><path d="M 203.650,209.936 C 216.165,200.482 216.348,200.079 226.822,188.353" stroke-width="4.500" stroke="black" fill="none" stroke-linecap="round"></path><path d="M 226.822,188.353 C 233.127,181.293 232.516,180.637 237.208,172.365" stroke-width="4.500" stroke="black" fill="none" stroke-linecap="round"></path><path d="M 237.208,172.365 C 240.905,165.848 240.951,165.764 243.601,158.775" stroke-width="4.549" stroke="black" fill="none" stroke-linecap="round"></path><path d="M 243.601,158.775 C 245.345,154.173 244.676,153.942 245.998,149.182" stroke-width="5.429" stroke="black" fill="none" stroke-linecap="round"></path><path d="M 245.998,149.182 C 246.673,146.748 247.304,143.656 247.596,144.385" stroke-width="6.899" stroke="black" fill="none" stroke-linecap="round"></path><path d="M 247.596,144.385 C 248.103,145.654 247.596,148.782 247.596,153.179" stroke-width="7.073" stroke="black" fill="none" stroke-linecap="round"></path><path d="M 247.596,153.179 C 247.596,159.174 247.414,159.179 247.596,165.170" stroke-width="5.713" stroke="black" fill="none" stroke-linecap="round"></path><path d="M 247.596,165.170 C 247.814,172.370 247.578,172.413 248.395,179.559" stroke-width="5.193" stroke="black" fill="none" stroke-linecap="round"></path><path d="M 248.395,179.559 C 249.176,186.402 249.257,186.430 250.792,193.149" stroke-width="4.935" stroke="black" fill="none" stroke-linecap="round"></path><path d="M 250.792,193.149 C 252.453,200.420 252.067,200.632 254.787,207.538" stroke-width="4.833" stroke="black" fill="none" stroke-linecap="round"></path><path d="M 254.787,207.538 C 257.261,213.822 257.479,213.869 261.179,219.529" stroke-width="4.950" stroke="black" fill="none" stroke-linecap="round"></path><path d="M 261.179,219.529 C 264.271,224.261 264.576,224.105 268.370,228.323" stroke-width="5.253" stroke="black" fill="none" stroke-linecap="round"></path><path d="M 268.370,228.323 C 271.767,232.099 271.660,232.303 275.561,235.517" stroke-width="5.512" stroke="black" fill="none" stroke-linecap="round"></path><path d="M 275.561,235.517 C 278.451,237.899 278.487,238.291 281.953,239.514" stroke-width="6.069" stroke="black" fill="none" stroke-linecap="round"></path><path d="M 281.953,239.514 C 285.279,240.689 285.538,240.102 289.144,240.314" stroke-width="6.158" stroke="black" fill="none" stroke-linecap="round"></path><path d="M 289.144,240.314 C 292.329,240.501 292.340,240.314 295.536,240.314" stroke-width="6.421" stroke="black" fill="none" stroke-linecap="round"></path><path d="M 295.536,240.314 C 298.332,240.314 298.625,241.149 301.129,240.314" stroke-width="6.663" stroke="black" fill="none" stroke-linecap="round"></path><path d="M 301.129,240.314 C 303.419,239.550 303.225,238.826 305.124,237.116" stroke-width="7.434" stroke="black" fill="none" stroke-linecap="round"></path><path d="M 305.124,237.116 C 307.220,235.228 307.492,235.397 309.119,233.119" stroke-width="6.945" stroke="black" fill="none" stroke-linecap="round"></path><path d="M 309.119,233.119 C 311.487,229.802 311.144,229.537 313.114,225.924" stroke-width="6.304" stroke="black" fill="none" stroke-linecap="round"></path><path d="M 313.114,225.924 C 315.938,220.744 316.340,220.914 318.707,215.532" stroke-width="5.575" stroke="black" fill="none" stroke-linecap="round"></path><path d="M 318.707,215.532 C 320.734,210.921 320.432,210.774 321.903,205.939" stroke-width="5.623" stroke="black" fill="none" stroke-linecap="round"></path><path d="M 321.903,205.939 C 323.228,201.581 323.364,201.595 324.300,197.146" stroke-width="5.786" stroke="black" fill="none" stroke-linecap="round"></path><path d="M 324.300,197.146 C 324.962,194.000 324.673,193.945 325.099,190.751" stroke-width="6.285" stroke="black" fill="none" stroke-linecap="round"></path><path d="M 325.099,190.751 C 325.472,187.949 325.457,187.947 325.898,185.155" stroke-width="6.669" stroke="black" fill="none" stroke-linecap="round"></path><path d="M 325.898,185.155 C 326.656,180.352 326.996,180.392 327.496,175.562" stroke-width="6.864" stroke="black" fill="none" stroke-linecap="round"></path><path d="M 327.496,175.562 C 328.195,168.801 327.937,168.769 328.295,161.972" stroke-width="5.442" stroke="black" fill="none" stroke-linecap="round"></path><path d="M 328.295,161.972 C 328.736,153.581 328.898,153.583 329.094,145.185" stroke-width="4.766" stroke="black" fill="none" stroke-linecap="round"></path><path d="M 329.094,145.185 C 329.298,136.396 329.094,136.391 329.094,127.598" stroke-width="4.521" stroke="black" fill="none" stroke-linecap="round"></path><path d="M 329.094,127.598 C 329.094,123.601 329.094,123.601 329.094,119.604" stroke-width="5.534" stroke="black" fill="none" stroke-linecap="round"></path><path d="M 329.094,119.604 C 329.094,110.011 329.367,109.999 329.094,100.418" stroke-width="4.550" stroke="black" fill="none" stroke-linecap="round"></path><path d="M 329.094,100.418 C 328.968,96.009 328.526,96.029 328.295,91.625" stroke-width="5.432" stroke="black" fill="none" stroke-linecap="round"></path><path d="M 328.295,91.625 C 328.127,88.435 328.507,88.412 328.295,85.230" stroke-width="6.163" stroke="black" fill="none" stroke-linecap="round"></path><path d="M 328.295,85.230 C 328.107,82.417 326.958,78.826 327.496,79.634" stroke-width="7.174" stroke="black" fill="none" stroke-linecap="round"></path><path d="M 327.496,79.634 C 328.556,81.224 329.372,84.879 331.491,90.026" stroke-width="7.322" stroke="black" fill="none" stroke-linecap="round"></path><path d="M 331.491,90.026 C 334.965,98.469 334.975,98.469 338.682,106.813" stroke-width="4.943" stroke="black" fill="none" stroke-linecap="round"></path><path d="M 338.682,106.813 C 342.965,116.456 343.091,116.400 347.471,125.999" stroke-width="4.500" stroke="black" fill="none" stroke-linecap="round"></path><path d="M 347.471,125.999 C 351.480,134.786 351.659,134.710 355.461,143.586" stroke-width="4.500" stroke="black" fill="none" stroke-linecap="round"></path><path d="M 355.461,143.586 C 358.850,151.498 359.199,151.405 361.853,159.574" stroke-width="4.500" stroke="black" fill="none" stroke-linecap="round"></path><path d="M 361.853,159.574 C 364.393,167.393 364.741,167.440 365.848,175.562" stroke-width="4.539" stroke="black" fill="none" stroke-linecap="round"></path><path d="M 365.848,175.562 C 367.138,185.027 366.864,185.173 366.647,194.748" stroke-width="4.500" stroke="black" fill="none" stroke-linecap="round"></path><path d="M 366.647,194.748 C 366.465,202.760 366.651,202.898 365.049,210.736" stroke-width="4.529" stroke="black" fill="none" stroke-linecap="round"></path><path d="M 365.049,210.736 C 363.056,220.485 362.877,220.565 359.456,229.922" stroke-width="4.500" stroke="black" fill="none" stroke-linecap="round"></path><path d="M 359.456,229.922 C 356.885,236.953 357.203,237.421 353.064,243.511" stroke-width="4.606" stroke="black" fill="none" stroke-linecap="round"></path><path d="M 353.064,243.511 C 350.411,247.414 350.049,248.235 345.873,249.907" stroke-width="5.349" stroke="black" fill="none" stroke-linecap="round"></path><path d="M 345.873,249.907 C 342.059,251.433 340.898,251.433 337.084,249.907" stroke-width="5.745" stroke="black" fill="none" stroke-linecap="round"></path><path d="M 337.084,249.907 C 332.908,248.235 333.147,247.039 329.893,243.511" stroke-width="5.746" stroke="black" fill="none" stroke-linecap="round"></path><path d="M 329.893,243.511 C 323.559,236.647 323.169,236.816 317.908,229.122" stroke-width="4.637" stroke="black" fill="none" stroke-linecap="round"></path><path d="M 317.908,229.122 C 312.782,221.627 313.024,221.359 309.119,213.134" stroke-width="4.500" stroke="black" fill="none" stroke-linecap="round"></path><path d="M 309.119,213.134 C 305.433,205.371 305.048,205.381 302.727,197.146" stroke-width="4.500" stroke="black" fill="none" stroke-linecap="round"></path><path d="M 302.727,197.146 C 300.654,189.792 300.753,189.590 300.330,181.957" stroke-width="4.642" stroke="black" fill="none" stroke-linecap="round"></path><path d="M 300.330,181.957 C 299.954,175.200 300.102,175.042 301.129,168.367" stroke-width="4.885" stroke="black" fill="none" stroke-linecap="round"></path><path d="M 301.129,168.367 C 301.700,164.650 301.993,164.623 303.526,161.173" stroke-width="5.751" stroke="black" fill="none" stroke-linecap="round"></path><path d="M 303.526,161.173 C 305.189,157.429 304.886,157.020 307.521,153.978" stroke-width="5.967" stroke="black" fill="none" stroke-linecap="round"></path><path d="M 307.521,153.978 C 310.079,151.024 310.373,150.731 313.913,149.182" stroke-width="6.075" stroke="black" fill="none" stroke-linecap="round"></path><path d="M 313.913,149.182 C 316.765,147.933 317.275,147.814 320.305,148.382" stroke-width="6.384" stroke="black" fill="none" stroke-linecap="round"></path><path d="M 320.305,148.382 C 323.667,149.013 323.911,149.412 326.697,151.580" stroke-width="6.425" stroke="black" fill="none" stroke-linecap="round"></path><path d="M 326.697,151.580 C 331.102,155.008 330.881,155.403 334.687,159.574" stroke-width="5.574" stroke="black" fill="none" stroke-linecap="round"></path><path d="M 334.687,159.574 C 339.270,164.596 339.302,164.598 343.476,169.966" stroke-width="5.158" stroke="black" fill="none" stroke-linecap="round"></path><path d="M 343.476,169.966 C 347.692,175.390 347.375,175.633 351.466,181.158" stroke-width="5.029" stroke="black" fill="none" stroke-linecap="round"></path><path d="M 351.466,181.158 C 355.365,186.425 355.363,186.432 359.456,191.550" stroke-width="5.066" stroke="black" fill="none" stroke-linecap="round"></path><path d="M 359.456,191.550 C 363.353,196.425 362.798,197.100 367.446,201.143" stroke-width="5.151" stroke="black" fill="none" stroke-linecap="round"></path><path d="M 367.446,201.143 C 371.987,205.094 372.312,205.083 377.833,207.538" stroke-width="5.299" stroke="black" fill="none" stroke-linecap="round"></path><path d="M 377.833,207.538 C 383.098,209.880 383.314,210.165 389.019,210.736" stroke-width="5.237" stroke="black" fill="none" stroke-linecap="round"></path><path d="M 389.019,210.736 C 395.299,211.364 395.584,211.181 401.803,209.936" stroke-width="5.164" stroke="black" fill="none" stroke-linecap="round"></path><path d="M 401.803,209.936 C 407.569,208.783 407.819,208.725 412.989,205.939" stroke-width="5.257" stroke="black" fill="none" stroke-linecap="round"></path><path d="M 412.989,205.939 C 418.206,203.129 418.586,203.101 422.577,198.745" stroke-width="5.272" stroke="black" fill="none" stroke-linecap="round"></path><path d="M 422.577,198.745 C 427.375,193.508 427.043,192.991 430.567,186.754" stroke-width="4.985" stroke="black" fill="none" stroke-linecap="round"></path><path d="M 430.567,186.754 C 432.237,183.798 432.041,183.642 432.964,180.359" stroke-width="5.910" stroke="black" fill="none" stroke-linecap="round"></path><path d="M 432.964,180.359 C 435.636,170.851 436.741,170.837 437.758,161.173" stroke-width="4.566" stroke="black" fill="none" stroke-linecap="round"></path><path d="M 437.758,161.173 C 438.339,155.648 437.628,155.368 436.160,149.981" stroke-width="5.039" stroke="black" fill="none" stroke-linecap="round"></path><path d="M 436.160,149.981 C 435.231,146.575 434.972,146.488 432.964,143.586" stroke-width="5.945" stroke="black" fill="none" stroke-linecap="round"></path><path d="M 432.964,143.586 C 431.376,141.292 431.321,141.037 428.969,139.589" stroke-width="6.490" stroke="black" fill="none" stroke-linecap="round"></path><path d="M 428.969,139.589 C 426.127,137.840 425.624,136.238 422.577,137.191" stroke-width="6.442" stroke="black" fill="none" stroke-linecap="round"></path><path d="M 422.577,137.191 C 412.840,140.235 411.685,140.862 403.401,147.583" stroke-width="5.739" stroke="black" fill="none" stroke-linecap="round"></path><path d="M 403.401,147.583 C 396.904,152.853 396.941,153.707 393.014,161.173" stroke-width="4.801" stroke="black" fill="none" stroke-linecap="round"></path><path d="M 393.014,161.173 C 388.951,168.896 388.890,169.351 387.421,177.960" stroke-width="4.520" stroke="black" fill="none" stroke-linecap="round"></path><path d="M 387.421,177.960 C 386.093,185.739 386.210,186.196 387.421,193.948" stroke-width="4.602" stroke="black" fill="none" stroke-linecap="round"></path><path d="M 387.421,193.948 C 388.208,198.987 388.589,199.300 391.416,203.541" stroke-width="5.249" stroke="black" fill="none" stroke-linecap="round"></path><path d="M 391.416,203.541 C 394.182,207.693 394.444,208.029 398.607,210.736" stroke-width="5.590" stroke="black" fill="none" stroke-linecap="round"></path><path d="M 398.607,210.736 C 402.434,213.225 402.881,213.557 407.396,213.934" stroke-width="5.653" stroke="black" fill="none" stroke-linecap="round"></path><path d="M 407.396,213.934 C 412.469,214.356 412.982,214.222 417.783,212.335" stroke-width="5.589" stroke="black" fill="none" stroke-linecap="round"></path><path d="M 417.783,212.335 C 424.168,209.825 424.292,209.420 429.768,205.140" stroke-width="5.117" stroke="black" fill="none" stroke-linecap="round"></path><path d="M 429.768,205.140 C 437.076,199.428 437.547,199.564 443.351,192.350" stroke-width="4.509" stroke="black" fill="none" stroke-linecap="round"></path><path d="M 443.351,192.350 C 450.731,183.176 450.138,182.586 456.135,172.365" stroke-width="4.500" stroke="black" fill="none" stroke-linecap="round"></path><path d="M 456.135,172.365 C 460.925,164.200 460.898,164.137 464.924,155.577" stroke-width="4.500" stroke="black" fill="none" stroke-linecap="round"></path><path d="M 464.924,155.577 C 467.290,150.547 467.082,150.435 468.919,145.185" stroke-width="4.937" stroke="black" fill="none" stroke-linecap="round"></path><path d="M 468.919,145.185 C 469.879,142.441 471.708,138.596 470.517,139.589" stroke-width="6.054" stroke="black" fill="none" stroke-linecap="round"></path><path d="M 470.517,139.589 C 466.914,142.593 464.235,145.925 459.331,153.179" stroke-width="6.808" stroke="black" fill="none" stroke-linecap="round"></path><path d="M 459.331,153.179 C 455.047,159.515 455.329,159.788 452.140,166.769" stroke-width="4.961" stroke="black" fill="none" stroke-linecap="round"></path><path d="M 452.140,166.769 C 448.937,173.778 448.451,173.729 446.547,181.158" stroke-width="4.787" stroke="black" fill="none" stroke-linecap="round"></path><path d="M 446.547,181.158 C 444.456,189.318 444.355,189.531 444.150,197.945" stroke-width="4.587" stroke="black" fill="none" stroke-linecap="round"></path><path d="M 444.150,197.945 C 443.955,205.918 444.050,206.121 445.748,213.934" stroke-width="4.615" stroke="black" fill="none" stroke-linecap="round"></path><path d="M 445.748,213.934 C 448.045,224.507 447.981,224.731 452.140,234.718" stroke-width="4.500" stroke="black" fill="none" stroke-linecap="round"></path><path d="M 452.140,234.718 C 455.971,243.917 455.729,244.441 461.728,252.305" stroke-width="4.500" stroke="black" fill="none" stroke-linecap="round"></path><path d="M 461.728,252.305 C 467.315,259.630 468.519,258.700 475.311,265.095" stroke-width="4.500" stroke="black" fill="none" stroke-linecap="round"></path></svg>