<svg xmlns="http://www.w3.org/2000/svg" xmlns:xlink="http://www.w3.org/1999/xlink" viewBox="0 0 576 416" width="576" height="416"><path d="M 105.373,347.434 C 108.569,342.637 108.988,342.842 111.765,337.841" stroke-width="8.635" stroke="black" fill="none" stroke-linecap="round"></path><path d="M 111.765,337.841 C 112.983,335.648 112.564,335.443 113.363,333.045" stroke-width="7.294" stroke="black" fill="none" stroke-linecap="round"></path><path d="M 113.363,333.045 C 114.162,330.646 114.582,330.714 114.961,328.248" stroke-width="7.105" stroke="black" fill="none" stroke-linecap="round"></path><path d="M 114.961,328.248 C 115.381,325.518 115.287,325.418 114.961,322.652" stroke-width="6.793" stroke="black" fill="none" stroke-linecap="round"></path><path d="M 114.961,322.652 C 114.488,318.623 114.507,318.548 113.363,314.658" stroke-width="7.113" stroke="black" fill="none" stroke-linecap="round"></path><path d="M 113.363,314.658 C 112.509,311.753 111.457,308.408 110.966,309.063" stroke-width="7.469" stroke="black" fill="none" stroke-linecap="round"></path><path d="M 110.966,309.063 C 110.258,310.007 110.532,313.507 110.966,317.856" stroke-width="8.023" stroke="black" fill="none" stroke-linecap="round"></path><path d="M 110.966,317.856 C 111.331,321.501 111.628,321.489 112.564,325.051" stroke-width="6.716" stroke="black" fill="none" stroke-linecap="round"></path><path d="M 112.564,325.051 C 113.625,329.083 113.697,329.068 114.961,333.045" stroke-width="6.134" stroke="black" fill="none" stroke-linecap="round"></path><path d="M 114.961,333.045 C 116.493,337.862 116.743,337.787 118.157,342.637" stroke-width="5.782" stroke="black" fill="none" stroke-linecap="round"></path><path d="M 118.157,342.637 C 119.540,347.380 119.547,347.394 120.554,352.230" stroke-width="5.801" stroke="black" fill="none" stroke-linecap="round"></path><path d="M 120.554,352.230 C 121.545,356.987 121.524,357.005 122.152,361.823" stroke-width="5.748" stroke="black" fill="none" stroke-linecap="round"></path><path d="M 122.152,361.823 C 122.723,366.198 122.720,366.212 122.951,370.617" stroke-width="5.784" stroke="black" fill="none" stroke-linecap="round"></path><path d="M 122.951,370.617 C 123.119,373.807 123.446,373.880 122.951,377.012" stroke-width="6.358" stroke="black" fill="none" stroke-linecap="round"></path><path d="M 122.951,377.012 C 122.247,381.475 122.345,381.710 120.554,385.805" stroke-width="6.829" stroke="black" fill="none" stroke-linecap="round"></path><path d="M 120.554,385.805 C 119.549,388.105 119.158,388.002 117.358,389.802" stroke-width="7.514" stroke="black" fill="none" stroke-linecap="round"></path><path d="M 117.358,389.802 C 115.163,391.998 111.863,392.923 112.564,393.799" stroke-width="7.849" stroke="black" fill="none" stroke-linecap="round"></path><path d="M 112.564,393.799 C 113.461,394.921 116.571,394.009 120.554,393.799" stroke-width="8.311" stroke="black" fill="none" stroke-linecap="round"></path><path d="M 120.554,393.799 C 124.161,393.609 124.191,393.627 127.745,393.000" stroke-width="6.804" stroke="black" fill="none" stroke-linecap="round"></path><path d="M 127.745,393.000 C 130.982,392.428 130.905,392.007 134.137,391.401" stroke-width="6.578" stroke="black" fill="none" stroke-linecap="round"></path><path d="M 134.137,391.401 C 137.297,390.808 137.322,390.816 140.529,390.602" stroke-width="6.464" stroke="black" fill="none" stroke-linecap="round"></path><path d="M 140.529,390.602 C 143.314,390.416 143.371,390.969 146.122,390.602" stroke-width="6.677" stroke="black" fill="none" stroke-linecap="round"></path><path d="M 146.122,390.602 C 149.364,390.169 149.288,389.648 152.514,389.003" stroke-width="7.258" stroke="black" fill="none" stroke-linecap="round"></path><circle r="3" cx="125.34831237792969" cy="361.02374267578125" fill="black"></circle><path d="M 207.645,347.434 C 204.449,343.437 204.931,342.874 201.253,339.440" stroke-width="8.329" stroke="black" fill="none" stroke-linecap="round"></path><path d="M 201.253,339.440 C 198.939,337.278 198.597,337.528 195.660,336.242" stroke-width="6.891" stroke="black" fill="none" stroke-linecap="round"></path><path d="M 195.660,336.242 C 192.205,334.730 192.083,334.986 188.469,333.844" stroke-width="6.411" stroke="black" fill="none" stroke-linecap="round"></path><path d="M 188.469,333.844 C 184.493,332.588 184.565,332.157 180.479,331.446" stroke-width="6.226" stroke="black" fill="none" stroke-linecap="round"></path><path d="M 180.479,331.446 C 175.377,330.558 175.195,330.202 170.092,330.646" stroke-width="6.610" stroke="black" fill="none" stroke-linecap="round"></path><path d="M 170.092,330.646 C 166.006,331.002 165.467,330.866 162.102,333.045" stroke-width="7.002" stroke="black" fill="none" stroke-linecap="round"></path><path d="M 162.102,333.045 C 158.676,335.263 157.354,335.850 156.509,339.440" stroke-width="7.195" stroke="black" fill="none" stroke-linecap="round"></path><path d="M 156.509,339.440 C 155.756,342.644 156.594,344.110 158.906,346.634" stroke-width="7.644" stroke="black" fill="none" stroke-linecap="round"></path><path d="M 158.906,346.634 C 160.988,348.907 161.988,348.684 165.298,349.033" stroke-width="7.512" stroke="black" fill="none" stroke-linecap="round"></path><path d="M 165.298,349.033 C 169.578,349.483 169.769,348.996 174.087,348.233" stroke-width="7.282" stroke="black" fill="none" stroke-linecap="round"></path><path d="M 174.087,348.233 C 176.560,347.797 176.737,347.886 178.881,346.634" stroke-width="6.967" stroke="black" fill="none" stroke-linecap="round"></path><path d="M 178.881,346.634 C 181.531,345.088 181.261,344.614 183.675,342.637" stroke-width="6.765" stroke="black" fill="none" stroke-linecap="round"></path><path d="M 183.675,342.637 C 185.655,341.017 186.110,341.392 187.670,339.440" stroke-width="6.803" stroke="black" fill="none" stroke-linecap="round"></path><path d="M 187.670,339.440 C 189.306,337.395 188.994,337.098 190.067,334.643" stroke-width="6.830" stroke="black" fill="none" stroke-linecap="round"></path><path d="M 190.067,334.643 C 191.791,330.703 192.058,330.751 193.263,326.649" stroke-width="7.101" stroke="black" fill="none" stroke-linecap="round"></path><path d="M 193.263,326.649 C 194.055,323.956 194.473,321.259 194.062,321.054" stroke-width="7.521" stroke="black" fill="none" stroke-linecap="round"></path><path d="M 194.062,321.054 C 193.674,320.859 192.623,323.358 191.665,325.850" stroke-width="8.158" stroke="black" fill="none" stroke-linecap="round"></path><path d="M 191.665,325.850 C 190.626,328.554 190.425,328.586 190.067,331.446" stroke-width="7.083" stroke="black" fill="none" stroke-linecap="round"></path><path d="M 190.067,331.446 C 189.626,334.981 189.857,335.056 190.067,338.640" stroke-width="6.447" stroke="black" fill="none" stroke-linecap="round"></path><path d="M 190.067,338.640 C 190.256,341.851 190.307,341.866 190.866,345.036" stroke-width="6.502" stroke="black" fill="none" stroke-linecap="round"></path><path d="M 190.866,345.036 C 191.506,348.661 191.082,348.872 192.464,352.230" stroke-width="6.420" stroke="black" fill="none" stroke-linecap="round"></path><path d="M 192.464,352.230 C 193.879,355.667 194.055,355.783 196.459,358.625" stroke-width="6.289" stroke="black" fill="none" stroke-linecap="round"></path><path d="M 196.459,358.625 C 198.450,360.979 198.761,360.752 201.253,362.622" stroke-width="6.492" stroke="black" fill="none" stroke-linecap="round"></path><path d="M 201.253,362.622 C 203.555,364.349 203.493,364.542 206.047,365.820" stroke-width="6.651" stroke="black" fill="none" stroke-linecap="round"></path><path d="M 206.047,365.820 C 208.287,366.941 208.372,367.066 210.841,367.419" stroke-width="6.849" stroke="black" fill="none" stroke-linecap="round"></path><path d="M 227.620,274.688 C 227.221,279.085 227.204,279.083 226.822,283.482" stroke-width="8.504" stroke="black" fill="none" stroke-linecap="round"></path><path d="M 226.822,283.482 C 226.405,288.276 226.215,288.269 226.022,293.074" stroke-width="6.366" stroke="black" fill="none" stroke-linecap="round"></path><path d="M 226.022,293.074 C 225.815,298.262 226.022,298.271 226.022,303.467" stroke-width="5.799" stroke="black" fill="none" stroke-linecap="round"></path><path d="M 226.022,303.467 C 226.022,308.663 226.022,308.663 226.022,313.859" stroke-width="5.648" stroke="black" fill="none" stroke-linecap="round"></path><path d="M 226.022,313.859 C 226.022,319.055 225.815,319.064 226.022,324.251" stroke-width="5.512" stroke="black" fill="none" stroke-linecap="round"></path><path d="M 226.022,324.251 C 226.215,329.056 226.091,329.097 226.822,333.844" stroke-width="5.827" stroke="black" fill="none" stroke-linecap="round"></path><path d="M 226.822,333.844 C 227.689,339.489 227.951,339.456 229.218,345.036" stroke-width="6.401" stroke="black" fill="none" stroke-linecap="round"></path><path d="M 229.218,345.036 C 229.948,348.249 230.171,348.203 230.816,351.431" stroke-width="6.460" stroke="black" fill="none" stroke-linecap="round"></path><path d="M 230.816,351.431 C 231.370,354.199 230.970,354.283 231.615,357.027" stroke-width="6.592" stroke="black" fill="none" stroke-linecap="round"></path><path d="M 202.052,318.655 C 210.841,318.655 210.851,318.404 219.630,318.655" stroke-width="8.169" stroke="black" fill="none" stroke-linecap="round"></path><path d="M 219.630,318.655 C 224.834,318.804 224.817,319.247 230.017,319.455" stroke-width="6.167" stroke="black" fill="none" stroke-linecap="round"></path><path d="M 230.017,319.455 C 234.804,319.646 234.811,319.455 239.605,319.455" stroke-width="5.872" stroke="black" fill="none" stroke-linecap="round"></path><path d="M 239.605,319.455 C 243.601,319.455 243.601,319.455 247.596,319.455" stroke-width="6.045" stroke="black" fill="none" stroke-linecap="round"></path><path d="M 247.596,319.455 C 252.390,319.455 258.594,319.455 257.184,319.455" stroke-width="6.667" stroke="black" fill="none" stroke-linecap="round"></path><path d="M 255.586,329.847 C 262.377,327.848 262.430,328.007 269.169,325.850" stroke-width="8.324" stroke="black" fill="none" stroke-linecap="round"></path><path d="M 269.169,325.850 C 272.418,324.810 272.477,324.891 275.561,323.452" stroke-width="6.894" stroke="black" fill="none" stroke-linecap="round"></path><path d="M 275.561,323.452 C 278.470,322.093 278.482,322.036 281.154,320.254" stroke-width="6.633" stroke="black" fill="none" stroke-linecap="round"></path><path d="M 281.154,320.254 C 283.276,318.839 283.533,318.996 285.149,317.057" stroke-width="6.830" stroke="black" fill="none" stroke-linecap="round"></path><path d="M 285.149,317.057 C 287.529,314.199 289.362,313.504 289.144,310.661" stroke-width="7.197" stroke="black" fill="none" stroke-linecap="round"></path><path d="M 289.144,310.661 C 288.963,308.308 287.163,307.327 284.350,306.664" stroke-width="7.742" stroke="black" fill="none" stroke-linecap="round"></path><path d="M 284.350,306.664 C 280.372,305.728 279.758,306.318 275.561,307.464" stroke-width="7.314" stroke="black" fill="none" stroke-linecap="round"></path><path d="M 275.561,307.464 C 270.969,308.717 270.804,308.939 266.772,311.461" stroke-width="6.316" stroke="black" fill="none" stroke-linecap="round"></path><path d="M 266.772,311.461 C 264.412,312.936 264.557,313.281 262.777,315.458" stroke-width="6.547" stroke="black" fill="none" stroke-linecap="round"></path><path d="M 262.777,315.458 C 260.961,317.678 260.857,317.699 259.581,320.254" stroke-width="6.734" stroke="black" fill="none" stroke-linecap="round"></path><path d="M 259.581,320.254 C 258.460,322.495 258.171,322.597 257.983,325.051" stroke-width="6.875" stroke="black" fill="none" stroke-linecap="round"></path><path d="M 257.983,325.051 C 257.772,327.793 257.505,328.251 258.782,330.646" stroke-width="6.716" stroke="black" fill="none" stroke-linecap="round"></path><path d="M 258.782,330.646 C 260.701,334.247 261.190,334.346 264.375,337.042" stroke-width="7.076" stroke="black" fill="none" stroke-linecap="round"></path><path d="M 264.375,337.042 C 266.384,338.743 266.640,338.661 269.169,339.440" stroke-width="6.911" stroke="black" fill="none" stroke-linecap="round"></path><path d="M 269.169,339.440 C 271.834,340.260 271.965,339.839 274.762,340.239" stroke-width="6.801" stroke="black" fill="none" stroke-linecap="round"></path><path d="M 274.762,340.239 C 277.558,340.639 277.540,340.890 280.355,341.039" stroke-width="6.769" stroke="black" fill="none" stroke-linecap="round"></path><path d="M 280.355,341.039 C 285.131,341.290 285.149,341.039 289.943,341.039" stroke-width="6.973" stroke="black" fill="none" stroke-linecap="round"></path><path d="M 309.119,307.464 C 310.717,313.459 310.971,313.404 312.315,319.455" stroke-width="8.531" stroke="black" fill="none" stroke-linecap="round"></path><path d="M 312.315,319.455 C 313.368,324.196 313.453,324.223 313.913,329.048" stroke-width="7.432" stroke="black" fill="none" stroke-linecap="round"></path><path d="M 313.913,329.048 C 314.252,332.617 313.218,336.590 313.913,336.242" stroke-width="7.402" stroke="black" fill="none" stroke-linecap="round"></path><path d="M 313.913,336.242 C 314.816,335.790 315.312,331.764 317.109,327.449" stroke-width="8.027" stroke="black" fill="none" stroke-linecap="round"></path><path d="M 317.109,327.449 C 319.307,322.171 319.444,322.223 321.903,317.057" stroke-width="6.173" stroke="black" fill="none" stroke-linecap="round"></path><path d="M 321.903,317.057 C 323.439,313.829 323.418,313.815 325.099,310.661" stroke-width="6.286" stroke="black" fill="none" stroke-linecap="round"></path><path d="M 325.099,310.661 C 326.614,307.819 326.291,307.516 328.295,305.066" stroke-width="6.584" stroke="black" fill="none" stroke-linecap="round"></path><path d="M 328.295,305.066 C 329.886,303.120 330.055,303.060 332.290,301.868" stroke-width="6.814" stroke="black" fill="none" stroke-linecap="round"></path><path d="M 332.290,301.868 C 336.048,299.863 336.575,298.439 340.280,298.670" stroke-width="7.038" stroke="black" fill="none" stroke-linecap="round"></path><path d="M 340.280,298.670 C 342.967,298.838 343.688,300.067 345.074,302.667" stroke-width="7.697" stroke="black" fill="none" stroke-linecap="round"></path><path d="M 345.074,302.667 C 346.884,306.063 346.068,306.635 346.672,310.661" stroke-width="7.385" stroke="black" fill="none" stroke-linecap="round"></path><path d="M 346.672,310.661 C 347.267,314.629 347.248,314.649 347.471,318.655" stroke-width="7.311" stroke="black" fill="none" stroke-linecap="round"></path><path d="M 347.471,318.655 C 347.648,321.844 347.024,324.604 347.471,325.051" stroke-width="7.518" stroke="black" fill="none" stroke-linecap="round"></path><path d="M 347.471,325.051 C 347.823,325.403 348.162,322.612 349.069,320.254" stroke-width="8.225" stroke="black" fill="none" stroke-linecap="round"></path><path d="M 349.069,320.254 C 350.160,317.415 350.107,317.377 351.466,314.658" stroke-width="7.037" stroke="black" fill="none" stroke-linecap="round"></path><path d="M 351.466,314.658 C 352.904,311.781 352.746,311.618 354.662,309.063" stroke-width="6.671" stroke="black" fill="none" stroke-linecap="round"></path><path d="M 354.662,309.063 C 356.342,306.822 356.481,306.847 358.657,305.066" stroke-width="6.729" stroke="black" fill="none" stroke-linecap="round"></path><path d="M 358.657,305.066 C 360.875,303.249 360.828,302.877 363.451,301.868" stroke-width="6.724" stroke="black" fill="none" stroke-linecap="round"></path><path d="M 363.451,301.868 C 366.022,300.878 366.258,300.914 369.044,301.068" stroke-width="6.746" stroke="black" fill="none" stroke-linecap="round"></path><path d="M 369.044,301.068 C 373.449,301.313 373.835,301.020 377.833,302.667" stroke-width="7.008" stroke="black" fill="none" stroke-linecap="round"></path><path d="M 377.833,302.667 C 380.626,303.818 380.765,304.242 382.627,306.664" stroke-width="6.705" stroke="black" fill="none" stroke-linecap="round"></path><path d="M 382.627,306.664 C 384.760,309.438 384.466,309.762 385.823,313.060" stroke-width="6.442" stroke="black" fill="none" stroke-linecap="round"></path><path d="M 385.823,313.060 C 387.262,316.557 387.021,316.657 388.220,320.254" stroke-width="6.288" stroke="black" fill="none" stroke-linecap="round"></path><path d="M 388.220,320.254 C 389.418,323.852 389.753,323.776 390.617,327.449" stroke-width="6.243" stroke="black" fill="none" stroke-linecap="round"></path><path d="M 390.617,327.449 C 391.351,330.571 390.744,330.708 391.416,333.844" stroke-width="6.507" stroke="black" fill="none" stroke-linecap="round"></path><path d="M 391.416,333.844 C 391.943,336.304 392.487,336.181 393.014,338.640" stroke-width="6.736" stroke="black" fill="none" stroke-linecap="round"></path><path d="M 393.014,338.640 C 393.685,341.776 392.940,341.981 393.813,345.036" stroke-width="7.296" stroke="black" fill="none" stroke-linecap="round"></path><path d="M 449.743,325.051 C 446.147,322.253 446.453,321.650 442.552,319.455" stroke-width="8.610" stroke="black" fill="none" stroke-linecap="round"></path><path d="M 442.552,319.455 C 440.061,318.053 439.779,318.561 436.959,317.856" stroke-width="7.182" stroke="black" fill="none" stroke-linecap="round"></path><path d="M 436.959,317.856 C 433.387,316.963 433.404,316.685 429.768,316.257" stroke-width="6.525" stroke="black" fill="none" stroke-linecap="round"></path><path d="M 429.768,316.257 C 426.613,315.886 426.523,315.864 423.376,316.257" stroke-width="6.606" stroke="black" fill="none" stroke-linecap="round"></path><path d="M 423.376,316.257 C 420.131,316.663 420.099,316.817 416.984,317.856" stroke-width="6.522" stroke="black" fill="none" stroke-linecap="round"></path><path d="M 416.984,317.856 C 414.107,318.815 413.921,318.627 411.391,320.254" stroke-width="6.521" stroke="black" fill="none" stroke-linecap="round"></path><path d="M 411.391,320.254 C 408.328,322.224 407.606,322.110 405.798,325.051" stroke-width="7.057" stroke="black" fill="none" stroke-linecap="round"></path><path d="M 405.798,325.051 C 404.410,327.306 403.605,328.788 404.999,330.646" stroke-width="7.507" stroke="black" fill="none" stroke-linecap="round"></path><path d="M 404.999,330.646 C 407.201,333.584 408.781,333.801 412.989,334.643" stroke-width="7.297" stroke="black" fill="none" stroke-linecap="round"></path><path d="M 412.989,334.643 C 416.771,335.400 417.112,334.811 420.979,333.844" stroke-width="6.426" stroke="black" fill="none" stroke-linecap="round"></path><path d="M 420.979,333.844 C 426.700,332.413 426.640,332.019 432.165,329.847" stroke-width="5.592" stroke="black" fill="none" stroke-linecap="round"></path><path d="M 432.165,329.847 C 437.826,327.622 437.970,327.850 443.351,325.051" stroke-width="5.345" stroke="black" fill="none" stroke-linecap="round"></path><path d="M 443.351,325.051 C 447.957,322.654 447.844,322.395 452.140,319.455" stroke-width="5.507" stroke="black" fill="none" stroke-linecap="round"></path><path d="M 452.140,319.455 C 455.435,317.199 455.336,317.057 458.532,314.658" stroke-width="5.924" stroke="black" fill="none" stroke-linecap="round"></path><path d="M 458.532,314.658 C 461.728,312.260 464.693,311.713 464.924,309.862" stroke-width="6.816" stroke="black" fill="none" stroke-linecap="round"></path><path d="M 464.924,309.862 C 465.092,308.515 462.202,308.383 459.331,308.263" stroke-width="7.786" stroke="black" fill="none" stroke-linecap="round"></path><path d="M 459.331,308.263 C 452.614,307.983 452.536,308.610 445.748,309.063" stroke-width="5.600" stroke="black" fill="none" stroke-linecap="round"></path><path d="M 445.748,309.063 C 434.558,309.809 434.561,309.850 423.376,310.661" stroke-width="4.500" stroke="black" fill="none" stroke-linecap="round"></path><path d="M 423.376,310.661 C 406.995,311.849 407.012,312.138 390.617,313.060" stroke-width="4.500" stroke="black" fill="none" stroke-linecap="round"></path><path d="M 390.617,313.060 C 371.457,314.136 371.444,313.948 352.265,314.658" stroke-width="4.500" stroke="black" fill="none" stroke-linecap="round"></path><path d="M 352.265,314.658 C 328.298,315.546 328.287,315.275 304.325,316.257" stroke-width="4.500" stroke="black" fill="none" stroke-linecap="round"></path><path d="M 304.325,316.257 C 279.548,317.273 279.529,317.045 254.787,318.655" stroke-width="4.500" stroke="black" fill="none" stroke-linecap="round"></path><path d="M 254.787,318.655 C 230.390,320.243 230.410,320.569 206.047,322.652" stroke-width="4.500" stroke="black" fill="none" stroke-linecap="round"></path><path d="M 206.047,322.652 C 183.668,324.566 183.665,324.539 161.303,326.649" stroke-width="4.500" stroke="black" fill="none" stroke-linecap="round"></path><path d="M 161.303,326.649 C 141.318,328.536 141.274,328.210 121.353,330.646" stroke-width="4.500" stroke="black" fill="none" stroke-linecap="round"></path><path d="M 121.353,330.646 C 105.319,332.607 105.415,333.439 89.393,335.443" stroke-width="4.500" stroke="black" fill="none" stroke-linecap="round"></path><path d="M 89.393,335.443 C 83.043,336.237 82.984,335.649 76.609,336.242" stroke-width="4.500" stroke="black" fill="none" stroke-linecap="round"></path><path d="M 76.609,336.242 C 65.806,337.248 65.814,338.006 55.036,338.640" stroke-width="4.500" stroke="black" fill="none" stroke-linecap="round"></path><path d="M 55.036,338.640 C 52.231,338.806 48.216,338.288 49.443,337.841" stroke-width="5.986" stroke="black" fill="none" stroke-linecap="round"></path><path d="M 49.443,337.841 C 52.610,336.689 56.683,336.896 63.825,335.443" stroke-width="6.202" stroke="black" fill="none" stroke-linecap="round"></path><path d="M 63.825,335.443 C 80.254,332.100 80.080,331.151 96.584,328.248" stroke-width="4.500" stroke="black" fill="none" stroke-linecap="round"></path><path d="M 96.584,328.248 C 116.435,324.756 116.512,325.064 136.534,322.652" stroke-width="4.500" stroke="black" fill="none" stroke-linecap="round"></path><path d="M 136.534,322.652 C 159.658,319.867 159.656,319.598 182.876,317.856" stroke-width="4.500" stroke="black" fill="none" stroke-linecap="round"></path><path d="M 182.876,317.856 C 207.596,316.001 207.633,316.271 232.415,315.458" stroke-width="4.500" stroke="black" fill="none" stroke-linecap="round"></path><path d="M 232.415,315.458 C 256.372,314.672 256.391,314.448 280.355,314.658" stroke-width="4.500" stroke="black" fill="none" stroke-linecap="round"></path><path d="M 280.355,314.658 C 301.934,314.848 301.979,314.750 323.501,316.257" stroke-width="4.500" stroke="black" fill="none" stroke-linecap="round"></path><path d="M 323.501,316.257 C 341.929,317.548 341.920,317.932 360.255,320.254" stroke-width="4.500" stroke="black" fill="none" stroke-linecap="round"></path><path d="M 360.255,320.254 C 373.480,321.929 373.671,321.317 386.622,324.251" stroke-width="4.500" stroke="black" fill="none" stroke-linecap="round"></path><path d="M 386.622,324.251 C 394.844,326.114 395.250,326.033 402.602,329.847" stroke-width="4.500" stroke="black" fill="none" stroke-linecap="round"></path><path d="M 402.602,329.847 C 406.037,331.629 409.923,333.713 408.195,335.443" stroke-width="5.294" stroke="black" fill="none" stroke-linecap="round"></path><path d="M 408.195,335.443 C 404.330,339.309 400.019,339.082 391.416,341.039" stroke-width="5.717" stroke="black" fill="none" stroke-linecap="round"></path><path d="M 391.416,341.039 C 373.652,345.078 373.519,344.777 355.461,347.434" stroke-width="4.500" stroke="black" fill="none" stroke-linecap="round"></path><path d="M 355.461,347.434 C 332.770,350.772 332.714,350.451 309.918,353.030" stroke-width="4.500" stroke="black" fill="none" stroke-linecap="round"></path><path d="M 309.918,353.030 C 286.771,355.648 286.756,355.528 263.576,357.826" stroke-width="4.500" stroke="black" fill="none" stroke-linecap="round"></path><path d="M 263.576,357.826 C 242.412,359.924 242.356,359.426 221.228,361.823" stroke-width="4.500" stroke="black" fill="none" stroke-linecap="round"></path><path d="M 221.228,361.823 C 203.604,363.823 203.536,363.591 186.072,366.620" stroke-width="4.500" stroke="black" fill="none" stroke-linecap="round"></path><path d="M 186.072,366.620 C 173.574,368.787 173.354,368.448 161.303,372.215" stroke-width="4.500" stroke="black" fill="none" stroke-linecap="round"></path><path d="M 161.303,372.215 C 154.178,374.443 153.397,374.222 147.720,378.611" stroke-width="4.500" stroke="black" fill="none" stroke-linecap="round"></path><path d="M 147.720,378.611 C 144.608,381.016 145.723,382.208 143.725,385.805" stroke-width="5.362" stroke="black" fill="none" stroke-linecap="round"></path></svg>