<svg xmlns="http://www.w3.org/2000/svg" xmlns:xlink="http://www.w3.org/1999/xlink" viewBox="0 0 576 416" width="576" height="416"><path d="M 101.378,344.419 C 102.177,336.824 102.052,336.809 102.976,329.230" stroke-width="8.353" stroke="black" fill="none" stroke-linecap="round"></path><path d="M 102.976,329.230 C 104.050,320.422 104.273,320.449 105.373,311.643" stroke-width="5.131" stroke="black" fill="none" stroke-linecap="round"></path><path d="M 105.373,311.643 C 106.670,301.263 106.262,301.205 107.770,290.859" stroke-width="4.500" stroke="black" fill="none" stroke-linecap="round"></path><path d="M 107.770,290.859 C 109.059,282.019 109.256,282.043 110.966,273.272" stroke-width="4.500" stroke="black" fill="none" stroke-linecap="round"></path><path d="M 110.966,273.272 C 112.452,265.655 112.553,265.675 114.162,258.083" stroke-width="4.533" stroke="black" fill="none" stroke-linecap="round"></path><path d="M 114.162,258.083 C 115.349,252.485 115.058,252.399 116.559,246.892" stroke-width="5.094" stroke="black" fill="none" stroke-linecap="round"></path><path d="M 116.559,246.892 C 117.455,243.605 118.038,239.315 118.956,240.496" stroke-width="6.017" stroke="black" fill="none" stroke-linecap="round"></path><path d="M 118.956,240.496 C 120.834,242.912 120.942,247.223 122.152,254.086" stroke-width="6.952" stroke="black" fill="none" stroke-linecap="round"></path><path d="M 122.152,254.086 C 123.339,260.813 122.902,260.887 123.750,267.676" stroke-width="5.554" stroke="black" fill="none" stroke-linecap="round"></path><path d="M 123.750,267.676 C 124.500,273.678 124.209,273.740 125.348,279.667" stroke-width="5.247" stroke="black" fill="none" stroke-linecap="round"></path><path d="M 125.348,279.667 C 126.207,284.133 126.107,284.246 127.745,288.461" stroke-width="5.661" stroke="black" fill="none" stroke-linecap="round"></path><path d="M 127.745,288.461 C 128.904,291.441 128.544,292.857 130.941,294.056" stroke-width="6.240" stroke="black" fill="none" stroke-linecap="round"></path><path d="M 130.941,294.056 C 133.338,295.255 134.388,294.362 137.333,293.257" stroke-width="6.507" stroke="black" fill="none" stroke-linecap="round"></path><path d="M 137.333,293.257 C 140.780,291.964 140.697,291.492 143.725,289.260" stroke-width="6.229" stroke="black" fill="none" stroke-linecap="round"></path><path d="M 143.725,289.260 C 148.288,285.897 148.205,285.761 152.514,282.065" stroke-width="5.621" stroke="black" fill="none" stroke-linecap="round"></path><path d="M 152.514,282.065 C 156.594,278.567 156.258,278.120 160.504,274.871" stroke-width="5.545" stroke="black" fill="none" stroke-linecap="round"></path><path d="M 160.504,274.871 C 163.049,272.924 163.089,272.476 166.097,271.673" stroke-width="6.197" stroke="black" fill="none" stroke-linecap="round"></path><path d="M 166.097,271.673 C 169.082,270.877 170.634,270.002 172.489,271.673" stroke-width="7.102" stroke="black" fill="none" stroke-linecap="round"></path><path d="M 172.489,271.673 C 174.629,273.600 172.993,275.365 174.087,278.868" stroke-width="7.619" stroke="black" fill="none" stroke-linecap="round"></path><path d="M 174.087,278.868 C 174.991,281.761 174.748,282.075 176.484,284.464" stroke-width="7.629" stroke="black" fill="none" stroke-linecap="round"></path><path d="M 176.484,284.464 C 177.944,286.471 178.189,286.897 180.479,287.661" stroke-width="8.006" stroke="black" fill="none" stroke-linecap="round"></path><path d="M 180.479,287.661 C 182.983,288.496 183.899,286.254 186.072,287.661" stroke-width="8.221" stroke="black" fill="none" stroke-linecap="round"></path><path d="M 186.072,287.661 C 190.690,290.651 189.773,292.368 194.062,296.455" stroke-width="7.070" stroke="black" fill="none" stroke-linecap="round"></path><path d="M 194.062,296.455 C 198.163,300.362 198.011,300.780 202.851,303.649" stroke-width="5.808" stroke="black" fill="none" stroke-linecap="round"></path><path d="M 202.851,303.649 C 208.798,307.175 208.958,307.336 215.635,309.245" stroke-width="5.174" stroke="black" fill="none" stroke-linecap="round"></path><path d="M 215.635,309.245 C 228.533,312.932 228.680,313.015 242.003,314.841" stroke-width="4.500" stroke="black" fill="none" stroke-linecap="round"></path><path d="M 242.003,314.841 C 257.844,317.012 257.962,316.449 273.963,317.239" stroke-width="4.500" stroke="black" fill="none" stroke-linecap="round"></path><path d="M 273.963,317.239 C 290.322,318.047 290.340,317.839 306.722,318.038" stroke-width="4.500" stroke="black" fill="none" stroke-linecap="round"></path><path d="M 306.722,318.038 C 323.099,318.238 323.104,318.254 339.481,318.038" stroke-width="4.500" stroke="black" fill="none" stroke-linecap="round"></path><path d="M 339.481,318.038 C 353.466,317.854 353.461,317.468 367.446,317.239" stroke-width="4.500" stroke="black" fill="none" stroke-linecap="round"></path><path d="M 367.446,317.239 C 377.830,317.069 377.861,316.757 388.220,317.239" stroke-width="4.500" stroke="black" fill="none" stroke-linecap="round"></path><path d="M 388.220,317.239 C 395.040,317.556 395.076,317.716 401.803,318.838" stroke-width="4.552" stroke="black" fill="none" stroke-linecap="round"></path><path d="M 401.803,318.838 C 404.664,319.315 408.439,320.306 407.396,320.437" stroke-width="5.872" stroke="black" fill="none" stroke-linecap="round"></path><path d="M 407.396,320.437 C 405.243,320.706 401.385,320.235 395.411,319.637" stroke-width="7.012" stroke="black" fill="none" stroke-linecap="round"></path><path d="M 395.411,319.637 C 385.405,318.636 385.446,318.202 375.436,317.239" stroke-width="4.704" stroke="black" fill="none" stroke-linecap="round"></path><path d="M 375.436,317.239 C 364.672,316.204 364.612,316.793 353.863,315.640" stroke-width="4.500" stroke="black" fill="none" stroke-linecap="round"></path><path d="M 353.863,315.640 C 342.240,314.394 342.284,313.989 330.692,312.443" stroke-width="4.500" stroke="black" fill="none" stroke-linecap="round"></path><path d="M 330.692,312.443 C 318.314,310.792 318.348,310.410 305.923,309.245" stroke-width="4.500" stroke="black" fill="none" stroke-linecap="round"></path><path d="M 305.923,309.245 C 292.780,308.012 292.740,308.422 279.556,307.646" stroke-width="4.500" stroke="black" fill="none" stroke-linecap="round"></path><path d="M 279.556,307.646 C 265.574,306.823 265.582,306.647 251.591,306.047" stroke-width="4.500" stroke="black" fill="none" stroke-linecap="round"></path><path d="M 251.591,306.047 C 237.617,305.448 237.611,305.451 223.625,305.248" stroke-width="4.500" stroke="black" fill="none" stroke-linecap="round"></path><path d="M 223.625,305.248 C 210.045,305.051 210.042,305.248 196.459,305.248" stroke-width="4.500" stroke="black" fill="none" stroke-linecap="round"></path><path d="M 196.459,305.248 C 185.273,305.248 185.269,305.463 174.087,305.248" stroke-width="4.500" stroke="black" fill="none" stroke-linecap="round"></path><path d="M 174.087,305.248 C 164.495,305.063 164.503,304.657 154.911,304.449" stroke-width="4.500" stroke="black" fill="none" stroke-linecap="round"></path><path d="M 154.911,304.449 C 146.126,304.258 146.122,304.449 137.333,304.449" stroke-width="4.500" stroke="black" fill="none" stroke-linecap="round"></path><path d="M 137.333,304.449 C 129.743,304.449 129.743,304.449 122.152,304.449" stroke-width="4.603" stroke="black" fill="none" stroke-linecap="round"></path><path d="M 122.152,304.449 C 117.758,304.449 117.758,304.449 113.363,304.449" stroke-width="5.460" stroke="black" fill="none" stroke-linecap="round"></path><path d="M 113.363,304.449 C 108.969,304.449 108.969,304.449 104.574,304.449" stroke-width="5.782" stroke="black" fill="none" stroke-linecap="round"></path><path d="M 104.574,304.449 C 97.783,304.449 97.766,304.720 90.991,304.449" stroke-width="6.222" stroke="black" fill="none" stroke-linecap="round"></path><path d="M 90.991,304.449 C 87.778,304.320 87.652,303.213 84.599,303.649" stroke-width="7.106" stroke="black" fill="none" stroke-linecap="round"></path></svg>