<svg xmlns="http://www.w3.org/2000/svg" xmlns:xlink="http://www.w3.org/1999/xlink" viewBox="0 0 576 416" width="576" height="416"><path d="M 397.009,240.714 C 393.014,239.115 392.678,239.670 389.019,237.516" stroke-width="8.503" stroke="black" fill="none" stroke-linecap="round"></path><path d="M 389.019,237.516 C 385.886,235.673 384.301,235.565 383.426,232.720" stroke-width="8.016" stroke="black" fill="none" stroke-linecap="round"></path><path d="M 383.426,232.720 C 382.703,230.369 386.198,227.124 385.823,227.124" stroke-width="8.179" stroke="black" fill="none" stroke-linecap="round"></path><path d="M 385.823,227.124 C 385.399,227.124 384.614,231.016 381.828,232.720" stroke-width="8.271" stroke="black" fill="none" stroke-linecap="round"></path><path d="M 381.828,232.720 C 377.423,235.413 376.715,234.644 371.441,235.917" stroke-width="5.992" stroke="black" fill="none" stroke-linecap="round"></path><path d="M 371.441,235.917 C 365.129,237.442 365.079,237.312 358.657,238.316" stroke-width="5.234" stroke="black" fill="none" stroke-linecap="round"></path><path d="M 358.657,238.316 C 352.295,239.310 352.287,239.472 345.873,239.914" stroke-width="5.057" stroke="black" fill="none" stroke-linecap="round"></path><path d="M 345.873,239.914 C 340.701,240.271 340.669,240.131 335.486,239.914" stroke-width="5.331" stroke="black" fill="none" stroke-linecap="round"></path><path d="M 335.486,239.914 C 331.081,239.731 331.015,239.877 326.697,239.115" stroke-width="5.651" stroke="black" fill="none" stroke-linecap="round"></path><path d="M 326.697,239.115 C 324.224,238.678 324.229,238.486 321.903,237.516" stroke-width="6.494" stroke="black" fill="none" stroke-linecap="round"></path><path d="M 321.903,237.516 C 319.435,236.487 319.248,236.675 317.109,235.118" stroke-width="6.665" stroke="black" fill="none" stroke-linecap="round"></path><path d="M 317.109,235.118 C 314.853,233.477 314.794,233.362 313.114,231.121" stroke-width="6.655" stroke="black" fill="none" stroke-linecap="round"></path><path d="M 313.114,231.121 C 311.198,228.566 310.922,228.539 309.918,225.525" stroke-width="6.486" stroke="black" fill="none" stroke-linecap="round"></path><path d="M 309.918,225.525 C 308.525,221.345 308.705,221.166 308.320,216.732" stroke-width="5.971" stroke="black" fill="none" stroke-linecap="round"></path><path d="M 308.320,216.732 C 307.906,211.973 308.320,211.935 308.320,207.139" stroke-width="5.817" stroke="black" fill="none" stroke-linecap="round"></path><path d="M 308.320,207.139 C 308.320,201.943 308.320,201.943 308.320,196.747" stroke-width="5.818" stroke="black" fill="none" stroke-linecap="round"></path><path d="M 308.320,196.747 C 308.320,191.550 308.320,191.550 308.320,186.354" stroke-width="5.560" stroke="black" fill="none" stroke-linecap="round"></path><path d="M 308.320,186.354 C 308.320,181.558 308.135,181.551 308.320,176.762" stroke-width="5.606" stroke="black" fill="none" stroke-linecap="round"></path><path d="M 308.320,176.762 C 308.535,171.159 308.733,171.167 309.119,165.570" stroke-width="5.476" stroke="black" fill="none" stroke-linecap="round"></path><path d="M 309.119,165.570 C 309.532,159.575 309.300,159.552 309.918,153.579" stroke-width="5.332" stroke="black" fill="none" stroke-linecap="round"></path><path d="M 309.918,153.579 C 310.499,147.960 310.688,147.979 311.516,142.387" stroke-width="5.383" stroke="black" fill="none" stroke-linecap="round"></path><path d="M 311.516,142.387 C 312.286,137.187 312.214,137.173 313.114,131.995" stroke-width="5.588" stroke="black" fill="none" stroke-linecap="round"></path><path d="M 313.114,131.995 C 313.812,127.980 314.042,128.019 314.712,124.001" stroke-width="5.845" stroke="black" fill="none" stroke-linecap="round"></path><path d="M 314.712,124.001 C 315.241,120.824 314.881,120.756 315.511,117.606" stroke-width="6.306" stroke="black" fill="none" stroke-linecap="round"></path><circle r="3" cx="390.61676025390625" cy="188.7525634765625" fill="black"></circle><path d="M 204.449,269.492 C 204.849,263.897 204.509,263.853 205.248,258.301" stroke-width="8.270" stroke="black" fill="none" stroke-linecap="round"></path><path d="M 205.248,258.301 C 206.107,251.862 206.437,251.903 207.645,245.510" stroke-width="5.761" stroke="black" fill="none" stroke-linecap="round"></path><path d="M 207.645,245.510 C 209.233,237.115 209.524,237.156 210.841,228.723" stroke-width="4.807" stroke="black" fill="none" stroke-linecap="round"></path><path d="M 210.841,228.723 C 211.522,224.365 211.076,224.306 211.640,219.929" stroke-width="5.377" stroke="black" fill="none" stroke-linecap="round"></path><path d="M 211.640,219.929 C 212.674,211.915 212.984,211.954 214.037,203.941" stroke-width="4.818" stroke="black" fill="none" stroke-linecap="round"></path><path d="M 214.037,203.941 C 214.981,196.765 214.520,196.695 215.635,189.552" stroke-width="4.649" stroke="black" fill="none" stroke-linecap="round"></path><path d="M 215.635,189.552 C 216.517,183.905 216.866,183.963 218.032,178.360" stroke-width="5.353" stroke="black" fill="none" stroke-linecap="round"></path><path d="M 218.032,178.360 C 218.863,174.370 217.613,173.596 219.630,170.366" stroke-width="5.765" stroke="black" fill="none" stroke-linecap="round"></path><path d="M 219.630,170.366 C 221.608,167.201 224.987,164.362 226.022,165.570" stroke-width="6.799" stroke="black" fill="none" stroke-linecap="round"></path><path d="M 226.022,165.570 C 227.384,167.160 226.470,171.240 224.425,175.962" stroke-width="7.266" stroke="black" fill="none" stroke-linecap="round"></path><path d="M 224.425,175.962 C 221.276,183.231 220.562,183.162 215.635,189.552" stroke-width="5.057" stroke="black" fill="none" stroke-linecap="round"></path><path d="M 215.635,189.552 C 209.776,197.152 209.129,196.648 202.851,203.941" stroke-width="4.500" stroke="black" fill="none" stroke-linecap="round"></path><path d="M 202.851,203.941 C 196.744,211.037 196.686,210.999 190.866,218.331" stroke-width="4.500" stroke="black" fill="none" stroke-linecap="round"></path><path d="M 190.866,218.331 C 185.899,224.589 185.071,224.201 181.278,231.121" stroke-width="4.541" stroke="black" fill="none" stroke-linecap="round"></path><path d="M 181.278,231.121 C 178.280,236.592 178.103,236.965 177.283,243.112" stroke-width="4.959" stroke="black" fill="none" stroke-linecap="round"></path><path d="M 177.283,243.112 C 176.505,248.956 176.403,249.582 178.082,255.103" stroke-width="5.257" stroke="black" fill="none" stroke-linecap="round"></path><path d="M 178.082,255.103 C 179.199,258.775 179.777,259.102 182.876,261.498" stroke-width="5.757" stroke="black" fill="none" stroke-linecap="round"></path><path d="M 182.876,261.498 C 188.566,265.897 188.932,265.888 195.660,268.693" stroke-width="5.076" stroke="black" fill="none" stroke-linecap="round"></path><path d="M 195.660,268.693 C 203.314,271.883 203.621,271.197 211.640,273.489" stroke-width="4.690" stroke="black" fill="none" stroke-linecap="round"></path><path d="M 211.640,273.489 C 217.603,275.194 217.674,274.950 223.625,276.687" stroke-width="5.038" stroke="black" fill="none" stroke-linecap="round"></path><path d="M 223.625,276.687 C 227.262,277.748 232.445,278.969 230.816,279.085" stroke-width="5.814" stroke="black" fill="none" stroke-linecap="round"></path><path d="M 230.816,279.085 C 226.852,279.368 221.478,279.161 212.439,277.486" stroke-width="6.349" stroke="black" fill="none" stroke-linecap="round"></path><path d="M 212.439,277.486 C 199.905,275.164 199.955,274.633 187.670,271.091" stroke-width="4.500" stroke="black" fill="none" stroke-linecap="round"></path><path d="M 187.670,271.091 C 176.385,267.838 176.073,268.457 165.298,263.896" stroke-width="4.500" stroke="black" fill="none" stroke-linecap="round"></path><path d="M 165.298,263.896 C 155.299,259.664 155.116,259.573 146.122,253.504" stroke-width="4.500" stroke="black" fill="none" stroke-linecap="round"></path><path d="M 146.122,253.504 C 137.937,247.981 137.814,247.799 130.941,240.714" stroke-width="4.500" stroke="black" fill="none" stroke-linecap="round"></path><path d="M 130.941,240.714 C 124.631,234.209 124.693,233.941 119.755,226.324" stroke-width="4.500" stroke="black" fill="none" stroke-linecap="round"></path><path d="M 119.755,226.324 C 115.105,219.152 115.857,218.677 111.765,211.136" stroke-width="4.500" stroke="black" fill="none" stroke-linecap="round"></path><path d="M 111.765,211.136 C 108.267,204.688 108.627,204.428 104.574,198.345" stroke-width="4.689" stroke="black" fill="none" stroke-linecap="round"></path><path d="M 104.574,198.345 C 101.436,193.636 101.548,193.322 97.383,189.552" stroke-width="5.162" stroke="black" fill="none" stroke-linecap="round"></path><path d="M 97.383,189.552 C 93.158,185.727 93.077,185.044 87.795,183.157" stroke-width="5.302" stroke="black" fill="none" stroke-linecap="round"></path><path d="M 87.795,183.157 C 81.891,181.047 81.392,181.558 75.011,181.558" stroke-width="5.262" stroke="black" fill="none" stroke-linecap="round"></path><path d="M 75.011,181.558 C 69.806,181.558 69.739,181.987 64.624,183.157" stroke-width="5.380" stroke="black" fill="none" stroke-linecap="round"></path><path d="M 64.624,183.157 C 55.756,185.185 55.497,184.701 47.046,187.953" stroke-width="4.610" stroke="black" fill="none" stroke-linecap="round"></path><path d="M 47.046,187.953 C 39.917,190.697 39.851,190.969 33.463,195.148" stroke-width="4.691" stroke="black" fill="none" stroke-linecap="round"></path><path d="M 33.463,195.148 C 29.464,197.764 28.330,197.655 26.272,201.543" stroke-width="5.383" stroke="black" fill="none" stroke-linecap="round"></path><path d="M 26.272,201.543 C 24.734,204.450 24.396,206.348 26.272,208.738" stroke-width="6.009" stroke="black" fill="none" stroke-linecap="round"></path><path d="M 26.272,208.738 C 28.790,211.944 30.384,211.655 35.061,212.735" stroke-width="5.902" stroke="black" fill="none" stroke-linecap="round"></path><path d="M 35.061,212.735 C 51.159,216.451 51.313,216.695 67.820,218.331" stroke-width="4.500" stroke="black" fill="none" stroke-linecap="round"></path><path d="M 67.820,218.331 C 91.662,220.692 91.786,220.729 115.760,220.729" stroke-width="4.500" stroke="black" fill="none" stroke-linecap="round"></path><path d="M 115.760,220.729 C 144.120,220.729 144.168,220.195 172.489,218.331" stroke-width="4.500" stroke="black" fill="none" stroke-linecap="round"></path><path d="M 172.489,218.331 C 204.892,216.198 204.879,215.845 237.208,212.735" stroke-width="4.500" stroke="black" fill="none" stroke-linecap="round"></path><path d="M 237.208,212.735 C 267.201,209.849 267.194,209.739 297.134,206.339" stroke-width="4.500" stroke="black" fill="none" stroke-linecap="round"></path><path d="M 297.134,206.339 C 323.524,203.343 323.517,203.267 349.868,199.944" stroke-width="4.500" stroke="black" fill="none" stroke-linecap="round"></path><path d="M 349.868,199.944 C 371.057,197.272 371.041,197.142 392.215,194.348" stroke-width="4.500" stroke="black" fill="none" stroke-linecap="round"></path><path d="M 392.215,194.348 C 407.395,192.346 407.396,192.350 422.577,190.351" stroke-width="4.500" stroke="black" fill="none" stroke-linecap="round"></path><path d="M 202.052,113.609 C 203.251,124.401 203.479,124.379 204.449,135.193" stroke-width="7.516" stroke="black" fill="none" stroke-linecap="round"></path><path d="M 204.449,135.193 C 206.276,155.556 205.948,155.586 207.645,175.962" stroke-width="4.500" stroke="black" fill="none" stroke-linecap="round"></path><path d="M 207.645,175.962 C 208.345,184.364 208.444,184.356 209.243,192.750" stroke-width="4.500" stroke="black" fill="none" stroke-linecap="round"></path></svg>