<svg xmlns="http://www.w3.org/2000/svg" xmlns:xlink="http://www.w3.org/1999/xlink" viewBox="0 0 576 416" width="576" height="416"><path d="M 163.700,401.793 C 164.899,397.397 164.614,397.303 166.097,393.000" stroke-width="8.549" stroke="black" fill="none" stroke-linecap="round"></path><path d="M 166.097,393.000 C 168.609,385.711 169.956,386.071 171.690,378.611" stroke-width="6.649" stroke="black" fill="none" stroke-linecap="round"></path><path d="M 171.690,378.611 C 173.951,368.884 173.372,368.647 174.087,358.625" stroke-width="4.530" stroke="black" fill="none" stroke-linecap="round"></path><path d="M 174.087,358.625 C 174.570,351.859 174.197,351.829 174.087,345.036" stroke-width="4.850" stroke="black" fill="none" stroke-linecap="round"></path><path d="M 174.087,345.036 C 173.797,327.048 174.621,326.990 173.288,309.063" stroke-width="4.500" stroke="black" fill="none" stroke-linecap="round"></path><path d="M 173.288,309.063 C 171.026,278.626 170.713,278.602 166.896,248.308" stroke-width="4.500" stroke="black" fill="none" stroke-linecap="round"></path><path d="M 166.896,248.308 C 164.721,231.038 164.583,231.030 161.303,213.934" stroke-width="4.500" stroke="black" fill="none" stroke-linecap="round"></path><path d="M 161.303,213.934 C 156.992,191.459 157.472,191.189 151.715,169.167" stroke-width="4.500" stroke="black" fill="none" stroke-linecap="round"></path><path d="M 151.715,169.167 C 150.681,165.208 148.534,159.836 147.720,161.972" stroke-width="4.887" stroke="black" fill="none" stroke-linecap="round"></path><path d="M 147.720,161.972 C 145.338,168.229 145.185,173.944 145.323,185.954" stroke-width="5.661" stroke="black" fill="none" stroke-linecap="round"></path><path d="M 145.323,185.954 C 145.585,208.718 145.692,208.892 148.519,231.520" stroke-width="4.500" stroke="black" fill="none" stroke-linecap="round"></path><path d="M 148.519,231.520 C 151.285,253.658 151.307,253.800 156.509,275.488" stroke-width="4.500" stroke="black" fill="none" stroke-linecap="round"></path><path d="M 156.509,275.488 C 160.895,293.770 160.808,294.004 167.695,311.461" stroke-width="4.500" stroke="black" fill="none" stroke-linecap="round"></path><path d="M 167.695,311.461 C 172.793,324.382 172.400,325.157 180.479,336.242" stroke-width="4.500" stroke="black" fill="none" stroke-linecap="round"></path><path d="M 180.479,336.242 C 186.383,344.342 187.591,343.777 195.660,349.832" stroke-width="4.500" stroke="black" fill="none" stroke-linecap="round"></path><path d="M 195.660,349.832 C 198.777,352.171 199.063,352.894 202.851,353.030" stroke-width="5.107" stroke="black" fill="none" stroke-linecap="round"></path><path d="M 202.851,353.030 C 210.249,353.294 211.910,354.415 218.032,350.631" stroke-width="4.835" stroke="black" fill="none" stroke-linecap="round"></path><path d="M 218.032,350.631 C 225.493,346.021 225.769,344.428 230.017,336.242" stroke-width="4.500" stroke="black" fill="none" stroke-linecap="round"></path><path d="M 230.017,336.242 C 236.556,323.644 236.172,322.994 239.605,309.063" stroke-width="4.500" stroke="black" fill="none" stroke-linecap="round"></path><path d="M 239.605,309.063 C 243.363,293.816 243.028,293.565 244.400,277.886" stroke-width="4.500" stroke="black" fill="none" stroke-linecap="round"></path><path d="M 244.400,277.886 C 245.825,261.589 245.199,261.497 245.199,245.110" stroke-width="4.500" stroke="black" fill="none" stroke-linecap="round"></path><path d="M 245.199,245.110 C 245.199,230.321 245.114,230.304 244.400,215.532" stroke-width="4.500" stroke="black" fill="none" stroke-linecap="round"></path><path d="M 244.400,215.532 C 243.915,205.523 243.850,205.511 242.802,195.547" stroke-width="4.500" stroke="black" fill="none" stroke-linecap="round"></path><path d="M 242.802,195.547 C 242.252,190.322 241.709,184.312 241.203,185.155" stroke-width="4.882" stroke="black" fill="none" stroke-linecap="round"></path><path d="M 241.203,185.155 C 240.511,186.310 239.956,192.372 240.405,199.544" stroke-width="6.203" stroke="black" fill="none" stroke-linecap="round"></path><path d="M 240.405,199.544 C 241.554,217.953 241.639,218.048 244.400,236.317" stroke-width="4.500" stroke="black" fill="none" stroke-linecap="round"></path><path d="M 244.400,236.317 C 246.833,252.422 246.957,252.466 250.792,268.293" stroke-width="4.500" stroke="black" fill="none" stroke-linecap="round"></path><path d="M 250.792,268.293 C 253.349,278.847 253.170,279.039 257.184,289.077" stroke-width="4.500" stroke="black" fill="none" stroke-linecap="round"></path><path d="M 257.184,289.077 C 259.562,295.027 259.314,296.272 263.576,300.269" stroke-width="4.580" stroke="black" fill="none" stroke-linecap="round"></path><path d="M 263.576,300.269 C 265.706,302.267 268.715,303.232 269.968,301.068" stroke-width="5.789" stroke="black" fill="none" stroke-linecap="round"></path><path d="M 269.968,301.068 C 273.110,295.638 271.862,293.126 272.365,285.080" stroke-width="6.003" stroke="black" fill="none" stroke-linecap="round"></path><path d="M 272.365,285.080 C 273.060,273.941 272.593,273.883 272.365,262.697" stroke-width="4.500" stroke="black" fill="none" stroke-linecap="round"></path><path d="M 272.365,262.697 C 272.193,254.298 271.566,254.293 271.566,245.910" stroke-width="4.500" stroke="black" fill="none" stroke-linecap="round"></path><path d="M 271.566,245.910 C 271.566,241.902 270.791,237.200 272.365,237.916" stroke-width="5.505" stroke="black" fill="none" stroke-linecap="round"></path><path d="M 272.365,237.916 C 275.186,239.199 276.616,243.762 280.355,249.907" stroke-width="6.052" stroke="black" fill="none" stroke-linecap="round"></path><path d="M 280.355,249.907 C 282.209,252.955 281.680,253.260 283.551,256.302" stroke-width="6.169" stroke="black" fill="none" stroke-linecap="round"></path><path d="M 283.551,256.302 C 291.268,268.848 290.691,269.378 299.531,281.083" stroke-width="4.500" stroke="black" fill="none" stroke-linecap="round"></path><path d="M 299.531,281.083 C 304.274,287.365 304.346,288.557 310.717,292.275" stroke-width="4.500" stroke="black" fill="none" stroke-linecap="round"></path><path d="M 310.717,292.275 C 313.934,294.153 316.867,294.975 318.707,292.275" stroke-width="5.420" stroke="black" fill="none" stroke-linecap="round"></path><path d="M 318.707,292.275 C 322.859,286.181 321.713,283.595 322.702,274.688" stroke-width="5.773" stroke="black" fill="none" stroke-linecap="round"></path><path d="M 322.702,274.688 C 323.710,265.608 322.232,265.466 322.702,256.302" stroke-width="4.676" stroke="black" fill="none" stroke-linecap="round"></path><path d="M 322.702,256.302 C 323.031,249.877 323.283,249.869 324.300,243.511" stroke-width="4.977" stroke="black" fill="none" stroke-linecap="round"></path><path d="M 324.300,243.511 C 324.881,239.876 323.781,236.846 325.898,236.317" stroke-width="5.822" stroke="black" fill="none" stroke-linecap="round"></path><path d="M 325.898,236.317 C 328.575,235.647 330.200,238.302 333.888,241.113" stroke-width="6.666" stroke="black" fill="none" stroke-linecap="round"></path><path d="M 333.888,241.113 C 338.589,244.697 337.907,245.637 342.677,249.107" stroke-width="5.539" stroke="black" fill="none" stroke-linecap="round"></path><path d="M 342.677,249.107 C 346.696,252.032 346.821,252.214 351.466,253.904" stroke-width="5.626" stroke="black" fill="none" stroke-linecap="round"></path><path d="M 351.466,253.904 C 355.610,255.411 356.191,256.180 360.255,255.502" stroke-width="5.730" stroke="black" fill="none" stroke-linecap="round"></path><path d="M 360.255,255.502 C 363.382,254.981 363.966,254.267 365.848,251.505" stroke-width="6.256" stroke="black" fill="none" stroke-linecap="round"></path><path d="M 365.848,251.505 C 369.959,245.473 370.541,245.138 372.240,237.916" stroke-width="5.143" stroke="black" fill="none" stroke-linecap="round"></path><path d="M 372.240,237.916 C 375.335,224.754 375.261,224.361 375.436,210.736" stroke-width="4.500" stroke="black" fill="none" stroke-linecap="round"></path><path d="M 375.436,210.736 C 375.661,193.184 374.769,193.095 373.039,175.562" stroke-width="4.500" stroke="black" fill="none" stroke-linecap="round"></path><path d="M 373.039,175.562 C 371.573,160.719 371.772,160.625 369.044,145.984" stroke-width="4.500" stroke="black" fill="none" stroke-linecap="round"></path><path d="M 369.044,145.984 C 367.377,137.042 366.716,137.171 364.250,128.397" stroke-width="4.500" stroke="black" fill="none" stroke-linecap="round"></path><path d="M 364.250,128.397 C 363.121,124.380 361.264,120.600 361.853,120.403" stroke-width="5.204" stroke="black" fill="none" stroke-linecap="round"></path><path d="M 361.853,120.403 C 362.463,120.200 363.394,125.157 366.647,127.598" stroke-width="6.881" stroke="black" fill="none" stroke-linecap="round"></path><path d="M 366.647,127.598 C 369.786,129.953 370.555,129.625 374.637,129.996" stroke-width="6.268" stroke="black" fill="none" stroke-linecap="round"></path><path d="M 374.637,129.996 C 379.344,130.424 379.865,130.874 384.225,129.197" stroke-width="5.894" stroke="black" fill="none" stroke-linecap="round"></path><path d="M 384.225,129.197 C 390.252,126.877 390.407,126.218 395.411,122.002" stroke-width="5.173" stroke="black" fill="none" stroke-linecap="round"></path><path d="M 395.411,122.002 C 397.997,119.823 397.992,119.518 399.406,116.406" stroke-width="6.100" stroke="black" fill="none" stroke-linecap="round"></path><path d="M 399.406,116.406 C 403.984,106.328 405.325,106.241 407.396,95.622" stroke-width="4.500" stroke="black" fill="none" stroke-linecap="round"></path><path d="M 407.396,95.622 C 408.521,89.853 408.032,88.847 405.798,83.631" stroke-width="4.910" stroke="black" fill="none" stroke-linecap="round"></path><path d="M 405.798,83.631 C 404.437,80.453 403.117,78.172 400.205,78.834" stroke-width="5.794" stroke="black" fill="none" stroke-linecap="round"></path><path d="M 400.205,78.834 C 394.328,80.171 392.991,82.001 388.220,87.628" stroke-width="5.062" stroke="black" fill="none" stroke-linecap="round"></path><path d="M 388.220,87.628 C 370.619,108.381 371.462,109.345 355.461,131.595" stroke-width="4.500" stroke="black" fill="none" stroke-linecap="round"></path><path d="M 355.461,131.595 C 347.891,142.120 348.066,142.255 341.079,153.179" stroke-width="4.500" stroke="black" fill="none" stroke-linecap="round"></path><path d="M 341.079,153.179 C 322.498,182.225 325.093,184.363 304.325,211.535" stroke-width="4.500" stroke="black" fill="none" stroke-linecap="round"></path><path d="M 304.325,211.535 C 293.932,225.133 292.660,224.720 278.757,234.718" stroke-width="4.500" stroke="black" fill="none" stroke-linecap="round"></path><path d="M 278.757,234.718 C 267.092,243.106 266.702,243.801 253.189,248.308" stroke-width="4.500" stroke="black" fill="none" stroke-linecap="round"></path><path d="M 253.189,248.308 C 241.533,252.195 240.739,251.225 228.419,251.505" stroke-width="4.500" stroke="black" fill="none" stroke-linecap="round"></path><path d="M 228.419,251.505 C 223.161,251.625 223.194,250.435 218.032,249.107" stroke-width="4.683" stroke="black" fill="none" stroke-linecap="round"></path><path d="M 218.032,249.107 C 209.211,246.838 209.388,245.801 200.454,244.311" stroke-width="4.534" stroke="black" fill="none" stroke-linecap="round"></path><path d="M 200.454,244.311 C 192.609,243.003 192.270,242.594 184.474,243.511" stroke-width="4.510" stroke="black" fill="none" stroke-linecap="round"></path><path d="M 184.474,243.511 C 178.687,244.193 177.749,243.857 173.288,247.508" stroke-width="5.034" stroke="black" fill="none" stroke-linecap="round"></path><path d="M 173.288,247.508 C 164.565,254.649 165.025,255.801 158.107,265.095" stroke-width="4.500" stroke="black" fill="none" stroke-linecap="round"></path><path d="M 158.107,265.095 C 151.043,274.587 151.948,275.245 145.323,285.080" stroke-width="4.500" stroke="black" fill="none" stroke-linecap="round"></path><path d="M 145.323,285.080 C 139.564,293.631 140.129,294.197 133.338,301.868" stroke-width="4.500" stroke="black" fill="none" stroke-linecap="round"></path><path d="M 133.338,301.868 C 127.745,308.187 127.857,309.204 120.554,313.060" stroke-width="4.500" stroke="black" fill="none" stroke-linecap="round"></path><path d="M 120.554,313.060 C 113.475,316.798 112.598,316.851 104.574,317.057" stroke-width="4.500" stroke="black" fill="none" stroke-linecap="round"></path><path d="M 104.574,317.057 C 97.017,317.250 96.384,316.884 89.393,313.859" stroke-width="4.620" stroke="black" fill="none" stroke-linecap="round"></path><path d="M 89.393,313.859 C 81.603,310.488 80.962,310.373 75.011,304.266" stroke-width="4.508" stroke="black" fill="none" stroke-linecap="round"></path><path d="M 75.011,304.266 C 65.382,294.385 64.379,294.182 58.232,281.883" stroke-width="4.500" stroke="black" fill="none" stroke-linecap="round"></path><path d="M 58.232,281.883 C 52.394,270.200 52.695,269.328 51.041,256.302" stroke-width="4.500" stroke="black" fill="none" stroke-linecap="round"></path><path d="M 51.041,256.302 C 49.499,244.147 50.452,243.746 51.840,231.520" stroke-width="4.500" stroke="black" fill="none" stroke-linecap="round"></path><path d="M 51.840,231.520 C 52.449,226.159 51.954,225.487 55.036,221.128" stroke-width="4.758" stroke="black" fill="none" stroke-linecap="round"></path><path d="M 55.036,221.128 C 63.540,209.100 63.743,208.225 75.011,198.745" stroke-width="4.500" stroke="black" fill="none" stroke-linecap="round"></path><path d="M 75.011,198.745 C 81.321,193.436 82.264,193.974 90.192,191.550" stroke-width="4.500" stroke="black" fill="none" stroke-linecap="round"></path><path d="M 90.192,191.550 C 96.646,189.577 97.394,189.153 103.775,189.951" stroke-width="4.722" stroke="black" fill="none" stroke-linecap="round"></path><path d="M 103.775,189.951 C 106.983,190.352 107.421,191.351 109.368,193.948" stroke-width="5.788" stroke="black" fill="none" stroke-linecap="round"></path><path d="M 109.368,193.948 C 111.017,196.147 110.874,196.647 110.966,199.544" stroke-width="6.462" stroke="black" fill="none" stroke-linecap="round"></path><path d="M 110.966,199.544 C 111.673,221.829 114.172,222.294 110.966,244.311" stroke-width="4.500" stroke="black" fill="none" stroke-linecap="round"></path><path d="M 110.966,244.311 C 105.383,282.649 102.299,282.311 93.388,320.254" stroke-width="4.500" stroke="black" fill="none" stroke-linecap="round"></path><path d="M 93.388,320.254 C 85.121,355.457 84.385,355.293 76.609,390.602" stroke-width="4.500" stroke="black" fill="none" stroke-linecap="round"></path><path d="M 76.609,390.602 C 68.805,426.040 69.418,426.175 62.227,461.749" stroke-width="4.500" stroke="black" fill="none" stroke-linecap="round"></path></svg>