<svg xmlns="http://www.w3.org/2000/svg" xmlns:xlink="http://www.w3.org/1999/xlink" viewBox="0 0 576 416" width="576" height="416"><path d="M 35.061,122.802 C 37.858,129.197 38.212,129.076 40.654,135.592" stroke-width="8.343" stroke="black" fill="none" stroke-linecap="round"></path><path d="M 40.654,135.592 C 41.807,138.669 41.538,138.771 42.252,141.987" stroke-width="6.860" stroke="black" fill="none" stroke-linecap="round"></path><path d="M 42.252,141.987 C 43.136,145.965 43.121,145.971 43.850,149.981" stroke-width="6.297" stroke="black" fill="none" stroke-linecap="round"></path><path d="M 43.850,149.981 C 44.719,154.765 44.495,154.808 45.448,159.574" stroke-width="5.885" stroke="black" fill="none" stroke-linecap="round"></path><path d="M 45.448,159.574 C 46.493,164.801 46.729,164.753 47.845,169.966" stroke-width="5.720" stroke="black" fill="none" stroke-linecap="round"></path><path d="M 47.845,169.966 C 49.126,175.944 49.149,175.944 50.242,181.957" stroke-width="5.272" stroke="black" fill="none" stroke-linecap="round"></path><path d="M 50.242,181.957 C 50.747,184.737 50.469,184.787 51.041,187.553" stroke-width="6.229" stroke="black" fill="none" stroke-linecap="round"></path><path d="M 51.041,187.553 C 52.866,196.378 53.317,196.295 55.036,205.140" stroke-width="4.905" stroke="black" fill="none" stroke-linecap="round"></path><path d="M 55.036,205.140 C 56.114,210.684 55.569,210.788 56.634,216.332" stroke-width="5.245" stroke="black" fill="none" stroke-linecap="round"></path><path d="M 56.634,216.332 C 57.566,221.180 57.982,221.096 59.031,225.924" stroke-width="5.549" stroke="black" fill="none" stroke-linecap="round"></path><path d="M 59.031,225.924 C 59.980,230.289 59.794,230.328 60.629,234.718" stroke-width="5.866" stroke="black" fill="none" stroke-linecap="round"></path><path d="M 60.629,234.718 C 61.391,238.722 61.558,238.694 62.227,242.712" stroke-width="5.933" stroke="black" fill="none" stroke-linecap="round"></path><path d="M 62.227,242.712 C 62.756,245.889 62.601,245.913 63.026,249.107" stroke-width="6.336" stroke="black" fill="none" stroke-linecap="round"></path><path d="M 63.026,249.107 C 63.400,251.909 63.361,251.916 63.825,254.703" stroke-width="6.623" stroke="black" fill="none" stroke-linecap="round"></path><path d="M 63.825,254.703 C 64.559,259.110 64.403,259.157 65.423,263.496" stroke-width="6.968" stroke="black" fill="none" stroke-linecap="round"></path><path d="M 65.423,263.496 C 66.001,265.951 66.115,268.474 67.021,268.293" stroke-width="7.779" stroke="black" fill="none" stroke-linecap="round"></path><path d="M 67.021,268.293 C 68.112,268.075 68.260,265.512 69.418,262.697" stroke-width="8.320" stroke="black" fill="none" stroke-linecap="round"></path><path d="M 69.418,262.697 C 71.056,258.717 70.891,258.644 72.614,254.703" stroke-width="7.421" stroke="black" fill="none" stroke-linecap="round"></path><path d="M 72.614,254.703 C 73.688,252.249 73.813,252.305 75.011,249.907" stroke-width="7.006" stroke="black" fill="none" stroke-linecap="round"></path><path d="M 75.011,249.907 C 76.609,246.709 76.374,246.568 78.207,243.511" stroke-width="6.437" stroke="black" fill="none" stroke-linecap="round"></path><path d="M 78.207,243.511 C 79.970,240.572 80.297,240.775 82.202,237.916" stroke-width="6.337" stroke="black" fill="none" stroke-linecap="round"></path><path d="M 82.202,237.916 C 84.292,234.780 84.200,234.718 86.197,231.520" stroke-width="6.265" stroke="black" fill="none" stroke-linecap="round"></path><path d="M 86.197,231.520 C 88.195,228.323 88.195,228.323 90.192,225.125" stroke-width="6.244" stroke="black" fill="none" stroke-linecap="round"></path><path d="M 90.192,225.125 C 92.190,221.928 92.098,221.866 94.187,218.730" stroke-width="6.237" stroke="black" fill="none" stroke-linecap="round"></path><path d="M 94.187,218.730 C 96.093,215.870 96.226,215.961 98.182,213.134" stroke-width="6.356" stroke="black" fill="none" stroke-linecap="round"></path><path d="M 98.182,213.134 C 99.822,210.765 99.780,210.736 101.378,208.338" stroke-width="6.607" stroke="black" fill="none" stroke-linecap="round"></path><path d="M 101.378,208.338 C 102.976,205.939 102.976,205.939 104.574,203.541" stroke-width="6.687" stroke="black" fill="none" stroke-linecap="round"></path><path d="M 104.574,203.541 C 106.172,201.143 106.044,201.047 107.770,198.745" stroke-width="6.711" stroke="black" fill="none" stroke-linecap="round"></path><path d="M 107.770,198.745 C 109.640,196.251 109.669,196.256 111.765,193.948" stroke-width="6.621" stroke="black" fill="none" stroke-linecap="round"></path><path d="M 111.765,193.948 C 113.664,191.859 113.862,192.040 115.760,189.951" stroke-width="6.714" stroke="black" fill="none" stroke-linecap="round"></path><path d="M 115.760,189.951 C 117.857,187.644 117.780,187.571 119.755,185.155" stroke-width="6.622" stroke="black" fill="none" stroke-linecap="round"></path><path d="M 119.755,185.155 C 121.375,183.174 121.243,183.057 122.951,181.158" stroke-width="6.826" stroke="black" fill="none" stroke-linecap="round"></path><path d="M 122.951,181.158 C 124.838,179.060 124.865,179.069 126.946,177.161" stroke-width="6.776" stroke="black" fill="none" stroke-linecap="round"></path><path d="M 126.946,177.161 C 129.659,174.673 129.826,174.853 132.539,172.365" stroke-width="7.173" stroke="black" fill="none" stroke-linecap="round"></path><path d="M 132.539,172.365 C 134.620,170.456 136.358,167.838 136.534,168.367" stroke-width="7.566" stroke="black" fill="none" stroke-linecap="round"></path><path d="M 136.534,168.367 C 136.757,169.037 135.650,172.240 133.338,174.763" stroke-width="8.190" stroke="black" fill="none" stroke-linecap="round"></path><path d="M 133.338,174.763 C 131.255,177.036 130.451,176.220 127.745,177.960" stroke-width="6.950" stroke="black" fill="none" stroke-linecap="round"></path><path d="M 127.745,177.960 C 124.858,179.817 124.767,179.744 122.152,181.957" stroke-width="6.562" stroke="black" fill="none" stroke-linecap="round"></path><path d="M 122.152,181.957 C 119.573,184.141 119.937,184.570 117.358,186.754" stroke-width="6.472" stroke="black" fill="none" stroke-linecap="round"></path><path d="M 117.358,186.754 C 114.744,188.967 114.396,188.557 111.765,190.751" stroke-width="6.427" stroke="black" fill="none" stroke-linecap="round"></path><path d="M 111.765,190.751 C 109.602,192.554 109.657,192.650 107.770,194.748" stroke-width="6.717" stroke="black" fill="none" stroke-linecap="round"></path><path d="M 107.770,194.748 C 106.062,196.647 105.940,196.598 104.574,198.745" stroke-width="6.788" stroke="black" fill="none" stroke-linecap="round"></path><path d="M 104.574,198.745 C 103.143,200.994 102.781,200.974 102.177,203.541" stroke-width="6.755" stroke="black" fill="none" stroke-linecap="round"></path><path d="M 102.177,203.541 C 101.183,207.769 101.378,207.942 101.378,212.335" stroke-width="7.052" stroke="black" fill="none" stroke-linecap="round"></path><path d="M 101.378,212.335 C 101.378,215.936 101.355,216.033 102.177,219.529" stroke-width="7.306" stroke="black" fill="none" stroke-linecap="round"></path><path d="M 102.177,219.529 C 102.953,222.828 103.055,222.885 104.574,225.924" stroke-width="6.663" stroke="black" fill="none" stroke-linecap="round"></path><path d="M 104.574,225.924 C 106.251,229.280 106.741,229.027 108.569,232.320" stroke-width="6.271" stroke="black" fill="none" stroke-linecap="round"></path><path d="M 108.569,232.320 C 110.736,236.222 110.567,236.317 112.564,240.314" stroke-width="6.006" stroke="black" fill="none" stroke-linecap="round"></path><path d="M 112.564,240.314 C 114.562,244.311 114.487,244.350 116.559,248.308" stroke-width="6.012" stroke="black" fill="none" stroke-linecap="round"></path><path d="M 116.559,248.308 C 118.882,252.744 119.031,252.666 121.353,257.101" stroke-width="5.764" stroke="black" fill="none" stroke-linecap="round"></path><path d="M 121.353,257.101 C 123.426,261.059 123.268,261.142 125.348,265.095" stroke-width="5.858" stroke="black" fill="none" stroke-linecap="round"></path><path d="M 125.348,265.095 C 127.264,268.736 127.259,268.744 129.343,272.290" stroke-width="6.001" stroke="black" fill="none" stroke-linecap="round"></path><path d="M 129.343,272.290 C 131.254,275.539 131.400,275.452 133.338,278.685" stroke-width="6.163" stroke="black" fill="none" stroke-linecap="round"></path><path d="M 133.338,278.685 C 134.995,281.448 134.751,281.605 136.534,284.281" stroke-width="6.413" stroke="black" fill="none" stroke-linecap="round"></path><path d="M 136.534,284.281 C 138.746,287.600 139.067,290.676 141.328,290.676" stroke-width="7.001" stroke="black" fill="none" stroke-linecap="round"></path><path d="M 141.328,290.676 C 143.462,290.676 143.745,287.665 145.323,284.281" stroke-width="8.004" stroke="black" fill="none" stroke-linecap="round"></path><path d="M 145.323,284.281 C 146.541,281.669 146.002,281.444 146.921,278.685" stroke-width="7.048" stroke="black" fill="none" stroke-linecap="round"></path><path d="M 146.921,278.685 C 148.000,275.448 148.183,275.510 149.318,272.290" stroke-width="6.513" stroke="black" fill="none" stroke-linecap="round"></path><path d="M 149.318,272.290 C 150.580,268.715 150.406,268.652 151.715,265.095" stroke-width="6.308" stroke="black" fill="none" stroke-linecap="round"></path><path d="M 151.715,265.095 C 153.202,261.058 153.217,261.057 154.911,257.101" stroke-width="6.152" stroke="black" fill="none" stroke-linecap="round"></path><path d="M 154.911,257.101 C 156.812,252.663 157.327,252.850 158.906,248.308" stroke-width="5.857" stroke="black" fill="none" stroke-linecap="round"></path><path d="M 158.906,248.308 C 160.523,243.657 160.105,243.511 161.303,238.715" stroke-width="5.823" stroke="black" fill="none" stroke-linecap="round"></path><path d="M 161.303,238.715 C 162.502,233.919 162.732,233.965 163.700,229.122" stroke-width="5.638" stroke="black" fill="none" stroke-linecap="round"></path><path d="M 163.700,229.122 C 164.730,223.972 164.897,223.956 165.298,218.730" stroke-width="5.584" stroke="black" fill="none" stroke-linecap="round"></path><path d="M 165.298,218.730 C 165.696,213.564 165.298,213.534 165.298,208.338" stroke-width="5.585" stroke="black" fill="none" stroke-linecap="round"></path><path d="M 165.298,208.338 C 165.298,203.142 165.490,203.135 165.298,197.945" stroke-width="5.585" stroke="black" fill="none" stroke-linecap="round"></path><path d="M 165.298,197.945 C 165.091,192.343 165.096,192.328 164.499,186.754" stroke-width="5.470" stroke="black" fill="none" stroke-linecap="round"></path><path d="M 164.499,186.754 C 163.898,181.137 163.929,181.115 162.901,175.562" stroke-width="5.425" stroke="black" fill="none" stroke-linecap="round"></path><path d="M 162.901,175.562 C 161.932,170.323 161.748,170.355 160.504,165.170" stroke-width="5.498" stroke="black" fill="none" stroke-linecap="round"></path><path d="M 160.504,165.170 C 159.351,160.363 159.114,160.413 158.107,155.577" stroke-width="5.631" stroke="black" fill="none" stroke-linecap="round"></path><path d="M 158.107,155.577 C 157.117,150.820 157.541,150.730 156.509,145.984" stroke-width="5.697" stroke="black" fill="none" stroke-linecap="round"></path><path d="M 156.509,145.984 C 155.543,141.537 155.217,141.611 154.112,137.191" stroke-width="5.809" stroke="black" fill="none" stroke-linecap="round"></path><path d="M 154.112,137.191 C 153.219,133.617 153.358,133.583 152.514,129.996" stroke-width="6.130" stroke="black" fill="none" stroke-linecap="round"></path><path d="M 152.514,129.996 C 151.760,126.788 151.562,126.829 150.916,123.601" stroke-width="6.374" stroke="black" fill="none" stroke-linecap="round"></path><path d="M 150.916,123.601 C 150.363,120.833 150.491,120.806 150.117,118.005" stroke-width="6.636" stroke="black" fill="none" stroke-linecap="round"></path><path d="M 150.117,118.005 C 149.692,114.811 148.242,111.789 149.318,111.610" stroke-width="7.260" stroke="black" fill="none" stroke-linecap="round"></path><path d="M 149.318,111.610 C 150.639,111.390 152.660,114.015 154.911,117.206" stroke-width="7.915" stroke="black" fill="none" stroke-linecap="round"></path><path d="M 154.911,117.206 C 157.454,120.810 156.979,121.169 158.906,125.200" stroke-width="6.387" stroke="black" fill="none" stroke-linecap="round"></path><path d="M 158.906,125.200 C 161.374,130.362 161.612,130.274 163.700,135.592" stroke-width="5.646" stroke="black" fill="none" stroke-linecap="round"></path><path d="M 163.700,135.592 C 166.007,141.465 165.881,141.533 167.695,147.583" stroke-width="5.298" stroke="black" fill="none" stroke-linecap="round"></path><path d="M 167.695,147.583 C 169.477,153.524 169.716,153.496 170.891,159.574" stroke-width="5.319" stroke="black" fill="none" stroke-linecap="round"></path><path d="M 170.891,159.574 C 172.113,165.887 171.665,165.973 172.489,172.365" stroke-width="5.177" stroke="black" fill="none" stroke-linecap="round"></path><path d="M 172.489,172.365 C 173.263,178.363 173.486,178.340 174.087,184.356" stroke-width="5.234" stroke="black" fill="none" stroke-linecap="round"></path><path d="M 174.087,184.356 C 174.685,190.331 174.473,190.352 174.886,196.347" stroke-width="5.167" stroke="black" fill="none" stroke-linecap="round"></path><path d="M 174.886,196.347 C 175.272,201.943 175.478,201.936 175.685,207.538" stroke-width="5.253" stroke="black" fill="none" stroke-linecap="round"></path><path d="M 175.685,207.538 C 175.878,212.728 175.685,212.734 175.685,217.931" stroke-width="5.562" stroke="black" fill="none" stroke-linecap="round"></path><path d="M 175.685,217.931 C 175.685,222.727 175.477,222.736 175.685,227.523" stroke-width="5.695" stroke="black" fill="none" stroke-linecap="round"></path><path d="M 175.685,227.523 C 175.877,231.929 176.275,231.911 176.484,236.317" stroke-width="5.853" stroke="black" fill="none" stroke-linecap="round"></path><path d="M 176.484,236.317 C 176.674,240.305 176.275,240.325 176.484,244.311" stroke-width="6.038" stroke="black" fill="none" stroke-linecap="round"></path><path d="M 176.484,244.311 C 176.674,247.920 176.835,247.914 177.283,251.505" stroke-width="6.227" stroke="black" fill="none" stroke-linecap="round"></path><path d="M 177.283,251.505 C 177.634,254.310 177.752,254.295 178.082,257.101" stroke-width="6.587" stroke="black" fill="none" stroke-linecap="round"></path><path d="M 178.082,257.101 C 178.551,261.090 178.412,261.107 178.881,265.095" stroke-width="7.083" stroke="black" fill="none" stroke-linecap="round"></path><path d="M 178.881,265.095 C 179.211,267.902 178.653,270.862 179.680,270.691" stroke-width="7.981" stroke="black" fill="none" stroke-linecap="round"></path><path d="M 179.680,270.691 C 181.050,270.463 181.907,267.613 183.675,264.296" stroke-width="8.437" stroke="black" fill="none" stroke-linecap="round"></path><path d="M 183.675,264.296 C 185.103,261.618 184.786,261.457 186.072,258.700" stroke-width="7.083" stroke="black" fill="none" stroke-linecap="round"></path><path d="M 186.072,258.700 C 187.583,255.462 187.670,255.502 189.268,252.305" stroke-width="6.543" stroke="black" fill="none" stroke-linecap="round"></path><path d="M 189.268,252.305 C 190.866,249.107 190.866,249.107 192.464,245.910" stroke-width="6.396" stroke="black" fill="none" stroke-linecap="round"></path><path d="M 192.464,245.910 C 194.062,242.712 193.996,242.678 195.660,239.514" stroke-width="6.428" stroke="black" fill="none" stroke-linecap="round"></path><path d="M 195.660,239.514 C 197.991,235.083 197.645,234.809 200.454,230.721" stroke-width="6.721" stroke="black" fill="none" stroke-linecap="round"></path><path d="M 200.454,230.721 C 202.040,228.414 202.452,228.722 204.449,226.724" stroke-width="6.672" stroke="black" fill="none" stroke-linecap="round"></path><path d="M 204.449,226.724 C 206.846,224.326 206.652,222.360 209.243,221.928" stroke-width="7.208" stroke="black" fill="none" stroke-linecap="round"></path><path d="M 209.243,221.928 C 211.446,221.560 212.432,222.850 214.037,225.125" stroke-width="7.604" stroke="black" fill="none" stroke-linecap="round"></path><path d="M 214.037,225.125 C 217.226,229.645 216.669,230.228 218.832,235.517" stroke-width="6.935" stroke="black" fill="none" stroke-linecap="round"></path><path d="M 218.832,235.517 C 220.264,239.022 220.215,239.063 221.228,242.712" stroke-width="6.502" stroke="black" fill="none" stroke-linecap="round"></path><path d="M 221.228,242.712 C 222.213,246.258 221.790,246.380 222.826,249.907" stroke-width="6.344" stroke="black" fill="none" stroke-linecap="round"></path><path d="M 222.826,249.907 C 223.787,253.175 224.145,253.065 225.223,256.302" stroke-width="6.397" stroke="black" fill="none" stroke-linecap="round"></path><path d="M 225.223,256.302 C 226.142,259.060 225.782,259.193 226.822,261.898" stroke-width="6.609" stroke="black" fill="none" stroke-linecap="round"></path><path d="M 226.822,261.898 C 227.779,264.389 227.871,264.382 229.218,266.694" stroke-width="6.771" stroke="black" fill="none" stroke-linecap="round"></path><path d="M 229.218,266.694 C 230.667,269.179 230.741,269.146 232.415,271.491" stroke-width="6.736" stroke="black" fill="none" stroke-linecap="round"></path><path d="M 232.415,271.491 C 234.736,274.742 234.423,275.099 237.208,277.886" stroke-width="7.112" stroke="black" fill="none" stroke-linecap="round"></path><path d="M 237.208,277.886 C 239.217,279.895 239.999,281.630 242.003,281.083" stroke-width="7.511" stroke="black" fill="none" stroke-linecap="round"></path><path d="M 242.003,281.083 C 244.393,280.431 244.782,278.616 245.998,275.488" stroke-width="7.800" stroke="black" fill="none" stroke-linecap="round"></path><path d="M 245.998,275.488 C 247.578,271.421 246.861,271.101 247.596,266.694" stroke-width="7.316" stroke="black" fill="none" stroke-linecap="round"></path><path d="M 247.596,266.694 C 248.060,263.907 248.021,263.900 248.395,261.098" stroke-width="6.913" stroke="black" fill="none" stroke-linecap="round"></path><path d="M 248.395,261.098 C 248.820,257.904 248.980,257.912 249.194,254.703" stroke-width="6.638" stroke="black" fill="none" stroke-linecap="round"></path><path d="M 249.194,254.703 C 249.379,251.917 249.039,251.898 249.194,249.107" stroke-width="6.731" stroke="black" fill="none" stroke-linecap="round"></path><path d="M 249.194,249.107 C 249.438,244.704 249.505,244.700 249.993,240.314" stroke-width="7.044" stroke="black" fill="none" stroke-linecap="round"></path><path d="M 249.993,240.314 C 250.304,237.506 250.635,234.092 250.792,234.718" stroke-width="7.480" stroke="black" fill="none" stroke-linecap="round"></path><path d="M 250.792,234.718 C 251.035,235.691 250.561,239.129 250.792,243.511" stroke-width="7.947" stroke="black" fill="none" stroke-linecap="round"></path><path d="M 250.792,243.511 C 250.961,246.723 251.165,246.713 251.591,249.907" stroke-width="6.809" stroke="black" fill="none" stroke-linecap="round"></path><path d="M 251.591,249.907 C 251.964,252.708 251.869,252.727 252.390,255.502" stroke-width="6.771" stroke="black" fill="none" stroke-linecap="round"></path><path d="M 252.390,255.502 C 253.068,259.122 252.894,259.195 253.988,262.697" stroke-width="6.418" stroke="black" fill="none" stroke-linecap="round"></path><path d="M 253.988,262.697 C 254.891,265.590 255.186,265.495 256.385,268.293" stroke-width="6.563" stroke="black" fill="none" stroke-linecap="round"></path><path d="M 256.385,268.293 C 257.583,271.091 257.507,271.126 258.782,273.889" stroke-width="6.676" stroke="black" fill="none" stroke-linecap="round"></path><path d="M 258.782,273.889 C 259.904,276.322 259.748,276.436 261.179,278.685" stroke-width="6.791" stroke="black" fill="none" stroke-linecap="round"></path><path d="M 261.179,278.685 C 262.544,280.832 262.577,280.883 264.375,282.682" stroke-width="6.811" stroke="black" fill="none" stroke-linecap="round"></path><path d="M 264.375,282.682 C 266.172,284.481 266.187,284.570 268.370,285.880" stroke-width="6.885" stroke="black" fill="none" stroke-linecap="round"></path><path d="M 268.370,285.880 C 272.180,288.167 272.166,288.993 276.360,289.877" stroke-width="7.053" stroke="black" fill="none" stroke-linecap="round"></path><path d="M 276.360,289.877 C 279.756,290.592 280.497,290.685 283.551,289.077" stroke-width="7.332" stroke="black" fill="none" stroke-linecap="round"></path><path d="M 283.551,289.077 C 288.088,286.688 287.899,285.786 291.541,281.883" stroke-width="6.943" stroke="black" fill="none" stroke-linecap="round"></path><path d="M 291.541,281.883 C 293.492,279.790 293.377,279.613 294.737,277.086" stroke-width="6.786" stroke="black" fill="none" stroke-linecap="round"></path><path d="M 294.737,277.086 C 296.173,274.417 295.859,274.253 297.134,271.491" stroke-width="6.674" stroke="black" fill="none" stroke-linecap="round"></path><path d="M 297.134,271.491 C 298.256,269.057 298.502,269.163 299.531,266.694" stroke-width="6.791" stroke="black" fill="none" stroke-linecap="round"></path><path d="M 299.531,266.694 C 300.500,264.366 300.279,264.278 301.129,261.898" stroke-width="6.892" stroke="black" fill="none" stroke-linecap="round"></path><path d="M 301.129,261.898 C 302.276,258.682 303.138,255.308 303.526,255.502" stroke-width="7.303" stroke="black" fill="none" stroke-linecap="round"></path><path d="M 303.526,255.502 C 303.937,255.708 303.175,259.106 302.727,262.697" stroke-width="8.040" stroke="black" fill="none" stroke-linecap="round"></path><path d="M 302.727,262.697 C 302.376,265.501 302.115,265.480 301.928,268.293" stroke-width="7.095" stroke="black" fill="none" stroke-linecap="round"></path><path d="M 301.928,268.293 C 301.716,271.475 301.928,271.491 301.928,274.688" stroke-width="6.697" stroke="black" fill="none" stroke-linecap="round"></path><path d="M 301.928,274.688 C 301.928,277.486 301.729,277.500 301.928,280.284" stroke-width="6.749" stroke="black" fill="none" stroke-linecap="round"></path><path d="M 301.928,280.284 C 302.128,283.096 302.327,283.082 302.727,285.880" stroke-width="6.879" stroke="black" fill="none" stroke-linecap="round"></path><path d="M 302.727,285.880 C 303.126,288.678 302.367,288.992 303.526,291.476" stroke-width="6.717" stroke="black" fill="none" stroke-linecap="round"></path><path d="M 303.526,291.476 C 305.164,294.988 305.092,296.161 308.320,297.871" stroke-width="7.078" stroke="black" fill="none" stroke-linecap="round"></path><path d="M 308.320,297.871 C 311.884,299.759 312.852,299.143 317.109,298.670" stroke-width="7.125" stroke="black" fill="none" stroke-linecap="round"></path><path d="M 317.109,298.670 C 320.043,298.344 320.172,297.899 322.702,296.272" stroke-width="6.841" stroke="black" fill="none" stroke-linecap="round"></path><path d="M 322.702,296.272 C 325.765,294.302 325.696,294.075 328.295,291.476" stroke-width="6.351" stroke="black" fill="none" stroke-linecap="round"></path><path d="M 328.295,291.476 C 331.689,288.080 331.946,288.198 334.687,284.281" stroke-width="5.916" stroke="black" fill="none" stroke-linecap="round"></path><path d="M 334.687,284.281 C 337.539,280.204 337.243,279.965 339.481,275.488" stroke-width="5.737" stroke="black" fill="none" stroke-linecap="round"></path><path d="M 339.481,275.488 C 342.037,270.372 342.294,270.446 344.275,265.095" stroke-width="5.481" stroke="black" fill="none" stroke-linecap="round"></path><path d="M 344.275,265.095 C 346.289,259.654 345.924,259.514 347.471,253.904" stroke-width="5.383" stroke="black" fill="none" stroke-linecap="round"></path><path d="M 347.471,253.904 C 349.120,247.922 349.069,247.908 350.667,241.913" stroke-width="5.255" stroke="black" fill="none" stroke-linecap="round"></path><path d="M 350.667,241.913 C 352.265,235.917 352.687,235.999 353.863,229.922" stroke-width="5.218" stroke="black" fill="none" stroke-linecap="round"></path><path d="M 353.863,229.922 C 355.084,223.609 354.662,223.526 355.461,217.131" stroke-width="5.148" stroke="black" fill="none" stroke-linecap="round"></path><path d="M 355.461,217.131 C 356.260,210.736 356.658,210.761 357.059,204.341" stroke-width="5.128" stroke="black" fill="none" stroke-linecap="round"></path><path d="M 357.059,204.341 C 357.457,197.970 357.059,197.945 357.059,191.550" stroke-width="5.133" stroke="black" fill="none" stroke-linecap="round"></path><path d="M 357.059,191.550 C 357.059,185.555 357.265,185.547 357.059,179.559" stroke-width="5.233" stroke="black" fill="none" stroke-linecap="round"></path><path d="M 357.059,179.559 C 356.866,173.956 356.707,173.959 356.260,168.367" stroke-width="5.364" stroke="black" fill="none" stroke-linecap="round"></path><path d="M 356.260,168.367 C 355.908,163.967 356.147,163.922 355.461,159.574" stroke-width="5.744" stroke="black" fill="none" stroke-linecap="round"></path><path d="M 355.461,159.574 C 354.948,156.328 354.964,156.265 353.863,153.179" stroke-width="6.243" stroke="black" fill="none" stroke-linecap="round"></path><path d="M 353.863,153.179 C 352.967,150.669 352.757,147.443 351.466,148.382" stroke-width="7.241" stroke="black" fill="none" stroke-linecap="round"></path><path d="M 351.466,148.382 C 348.362,150.641 347.401,153.646 345.074,159.574" stroke-width="7.201" stroke="black" fill="none" stroke-linecap="round"></path><path d="M 345.074,159.574 C 343.007,164.838 343.643,165.128 342.677,170.766" stroke-width="5.821" stroke="black" fill="none" stroke-linecap="round"></path><path d="M 342.677,170.766 C 341.246,179.118 341.064,179.120 340.280,187.553" stroke-width="4.833" stroke="black" fill="none" stroke-linecap="round"></path><path d="M 340.280,187.553 C 339.466,196.308 339.690,196.342 339.481,205.140" stroke-width="4.537" stroke="black" fill="none" stroke-linecap="round"></path><path d="M 339.481,205.140 C 339.291,213.130 339.061,213.157 339.481,221.128" stroke-width="4.695" stroke="black" fill="none" stroke-linecap="round"></path><path d="M 339.481,221.128 C 339.860,228.346 340.257,228.325 341.079,235.517" stroke-width="4.716" stroke="black" fill="none" stroke-linecap="round"></path><path d="M 341.079,235.517 C 341.855,242.315 341.490,242.380 342.677,249.107" stroke-width="4.902" stroke="black" fill="none" stroke-linecap="round"></path><path d="M 342.677,249.107 C 343.887,255.970 344.382,255.879 345.873,262.697" stroke-width="4.930" stroke="black" fill="none" stroke-linecap="round"></path><path d="M 345.873,262.697 C 347.178,268.669 346.597,268.830 348.270,274.688" stroke-width="5.139" stroke="black" fill="none" stroke-linecap="round"></path><path d="M 348.270,274.688 C 349.793,280.022 349.951,280.030 352.265,285.080" stroke-width="5.345" stroke="black" fill="none" stroke-linecap="round"></path><path d="M 352.265,285.080 C 354.346,289.623 354.392,289.650 357.059,293.874" stroke-width="5.644" stroke="black" fill="none" stroke-linecap="round"></path><path d="M 357.059,293.874 C 359.186,297.244 358.977,297.613 361.853,300.269" stroke-width="5.970" stroke="black" fill="none" stroke-linecap="round"></path><path d="M 361.853,300.269 C 364.171,302.410 364.438,302.664 367.446,303.467" stroke-width="6.276" stroke="black" fill="none" stroke-linecap="round"></path><path d="M 367.446,303.467 C 370.430,304.263 370.831,304.326 373.838,303.467" stroke-width="6.459" stroke="black" fill="none" stroke-linecap="round"></path><path d="M 373.838,303.467 C 379.220,301.928 379.410,301.652 384.225,298.670" stroke-width="6.649" stroke="black" fill="none" stroke-linecap="round"></path><path d="M 384.225,298.670 C 387.800,296.456 387.514,295.972 390.617,293.074" stroke-width="6.265" stroke="black" fill="none" stroke-linecap="round"></path><path d="M 390.617,293.074 C 393.506,290.376 393.521,290.376 396.210,287.479" stroke-width="6.093" stroke="black" fill="none" stroke-linecap="round"></path><path d="M 396.210,287.479 C 398.714,284.780 398.873,284.868 401.004,281.883" stroke-width="6.222" stroke="black" fill="none" stroke-linecap="round"></path><path d="M 401.004,281.883 C 402.868,279.272 402.673,279.123 404.200,276.287" stroke-width="6.432" stroke="black" fill="none" stroke-linecap="round"></path><path d="M 404.200,276.287 C 405.470,273.927 405.701,274.001 406.597,271.491" stroke-width="6.714" stroke="black" fill="none" stroke-linecap="round"></path><path d="M 406.597,271.491 C 407.698,268.405 409.704,265.934 408.195,265.095" stroke-width="7.270" stroke="black" fill="none" stroke-linecap="round"></path><path d="M 408.195,265.095 C 406.109,263.936 402.916,265.152 399.406,267.494" stroke-width="7.724" stroke="black" fill="none" stroke-linecap="round"></path><path d="M 399.406,267.494 C 396.923,269.149 397.567,270.179 396.210,273.089" stroke-width="6.845" stroke="black" fill="none" stroke-linecap="round"></path><path d="M 396.210,273.089 C 394.771,276.174 394.589,276.186 393.813,279.485" stroke-width="6.542" stroke="black" fill="none" stroke-linecap="round"></path><path d="M 393.813,279.485 C 392.990,282.981 393.226,283.072 393.014,286.679" stroke-width="6.455" stroke="black" fill="none" stroke-linecap="round"></path><path d="M 393.014,286.679 C 392.826,289.866 392.434,289.982 393.014,293.074" stroke-width="6.438" stroke="black" fill="none" stroke-linecap="round"></path><path d="M 393.014,293.074 C 393.633,296.377 393.741,296.546 395.411,299.470" stroke-width="6.426" stroke="black" fill="none" stroke-linecap="round"></path><path d="M 395.411,299.470 C 396.937,302.142 397.128,302.163 399.406,304.266" stroke-width="6.535" stroke="black" fill="none" stroke-linecap="round"></path><path d="M 399.406,304.266 C 402.322,306.959 402.312,307.216 405.798,309.063" stroke-width="6.240" stroke="black" fill="none" stroke-linecap="round"></path><path d="M 405.798,309.063 C 409.104,310.814 409.303,310.684 412.989,311.461" stroke-width="6.305" stroke="black" fill="none" stroke-linecap="round"></path><path d="M 412.989,311.461 C 416.893,312.283 416.984,312.260 420.979,312.260" stroke-width="6.169" stroke="black" fill="none" stroke-linecap="round"></path><path d="M 420.979,312.260 C 424.974,312.260 425.019,312.119 428.969,311.461" stroke-width="6.044" stroke="black" fill="none" stroke-linecap="round"></path><path d="M 428.969,311.461 C 432.210,310.920 432.331,311.075 435.361,309.862" stroke-width="6.347" stroke="black" fill="none" stroke-linecap="round"></path><path d="M 435.361,309.862 C 438.323,308.676 438.400,308.581 440.954,306.664" stroke-width="6.472" stroke="black" fill="none" stroke-linecap="round"></path><path d="M 440.954,306.664 C 443.194,304.983 443.169,304.844 444.949,302.667" stroke-width="6.667" stroke="black" fill="none" stroke-linecap="round"></path><path d="M 444.949,302.667 C 446.764,300.447 447.136,300.494 448.145,297.871" stroke-width="6.771" stroke="black" fill="none" stroke-linecap="round"></path><path d="M 448.145,297.871 C 449.134,295.298 448.743,295.087 448.944,292.275" stroke-width="6.759" stroke="black" fill="none" stroke-linecap="round"></path><path d="M 448.944,292.275 C 449.143,289.491 449.843,289.228 448.944,286.679" stroke-width="6.695" stroke="black" fill="none" stroke-linecap="round"></path><path d="M 448.944,286.679 C 447.446,282.433 447.112,282.143 444.150,278.685" stroke-width="6.949" stroke="black" fill="none" stroke-linecap="round"></path><path d="M 444.150,278.685 C 442.318,276.547 441.940,276.681 439.356,275.488" stroke-width="6.788" stroke="black" fill="none" stroke-linecap="round"></path><path d="M 439.356,275.488 C 436.747,274.283 436.614,274.296 433.763,273.889" stroke-width="6.798" stroke="black" fill="none" stroke-linecap="round"></path><path d="M 433.763,273.889 C 431.021,273.497 430.913,273.455 428.170,273.889" stroke-width="6.780" stroke="black" fill="none" stroke-linecap="round"></path><path d="M 428.170,273.889 C 423.322,274.655 422.531,273.792 418.582,276.287" stroke-width="6.881" stroke="black" fill="none" stroke-linecap="round"></path><path d="M 418.582,276.287 C 414.940,278.588 414.263,279.445 412.989,283.482" stroke-width="7.031" stroke="black" fill="none" stroke-linecap="round"></path><path d="M 412.989,283.482 C 411.866,287.040 412.329,287.931 413.788,291.476" stroke-width="7.231" stroke="black" fill="none" stroke-linecap="round"></path><path d="M 413.788,291.476 C 415.126,294.726 415.759,294.777 418.582,297.071" stroke-width="6.448" stroke="black" fill="none" stroke-linecap="round"></path><path d="M 418.582,297.071 C 422.151,299.973 422.451,299.708 426.572,301.868" stroke-width="5.990" stroke="black" fill="none" stroke-linecap="round"></path><path d="M 426.572,301.868 C 430.841,304.105 430.790,304.401 435.361,305.865" stroke-width="5.813" stroke="black" fill="none" stroke-linecap="round"></path><path d="M 435.361,305.865 C 440.777,307.599 440.974,306.976 446.547,308.263" stroke-width="5.503" stroke="black" fill="none" stroke-linecap="round"></path><path d="M 446.547,308.263 C 451.361,309.375 451.268,310.053 456.135,310.661" stroke-width="5.714" stroke="black" fill="none" stroke-linecap="round"></path><path d="M 456.135,310.661 C 460.856,311.252 460.929,310.661 465.723,310.661" stroke-width="5.742" stroke="black" fill="none" stroke-linecap="round"></path><path d="M 465.723,310.661 C 470.117,310.661 470.135,310.905 474.512,310.661" stroke-width="5.789" stroke="black" fill="none" stroke-linecap="round"></path><path d="M 474.512,310.661 C 477.326,310.505 477.440,310.682 480.105,309.862" stroke-width="6.433" stroke="black" fill="none" stroke-linecap="round"></path><path d="M 480.105,309.862 C 482.633,309.084 483.318,309.397 484.899,307.464" stroke-width="6.714" stroke="black" fill="none" stroke-linecap="round"></path><path d="M 484.899,307.464 C 486.913,305.000 487.733,303.912 487.296,301.068" stroke-width="7.242" stroke="black" fill="none" stroke-linecap="round"></path><path d="M 487.296,301.068 C 486.934,298.716 485.755,298.217 483.301,297.071" stroke-width="7.568" stroke="black" fill="none" stroke-linecap="round"></path><path d="M 483.301,297.071 C 479.762,295.419 479.234,295.116 475.311,295.473" stroke-width="7.350" stroke="black" fill="none" stroke-linecap="round"></path><path d="M 475.311,295.473 C 470.445,295.915 469.714,295.938 465.723,298.670" stroke-width="7.056" stroke="black" fill="none" stroke-linecap="round"></path><path d="M 465.723,298.670 C 462.124,301.134 461.773,301.872 460.130,305.865" stroke-width="7.085" stroke="black" fill="none" stroke-linecap="round"></path><path d="M 460.130,305.865 C 458.977,308.667 459.016,309.474 460.130,312.260" stroke-width="7.421" stroke="black" fill="none" stroke-linecap="round"></path><path d="M 460.130,312.260 C 461.413,315.470 461.805,316.469 464.924,317.856" stroke-width="7.404" stroke="black" fill="none" stroke-linecap="round"></path><path d="M 464.924,317.856 C 468.996,319.667 469.747,318.863 474.512,318.655" stroke-width="7.127" stroke="black" fill="none" stroke-linecap="round"></path><path d="M 474.512,318.655 C 478.936,318.463 479.345,318.837 483.301,317.057" stroke-width="7.127" stroke="black" fill="none" stroke-linecap="round"></path><path d="M 483.301,317.057 C 487.335,315.240 487.474,314.732 490.492,311.461" stroke-width="7.137" stroke="black" fill="none" stroke-linecap="round"></path><path d="M 490.492,311.461 C 492.268,309.536 491.835,309.125 492.889,306.664" stroke-width="6.928" stroke="black" fill="none" stroke-linecap="round"></path><path d="M 492.889,306.664 C 494.232,303.530 494.325,303.537 495.286,300.269" stroke-width="6.482" stroke="black" fill="none" stroke-linecap="round"></path><path d="M 495.286,300.269 C 496.323,296.742 496.162,296.687 496.884,293.074" stroke-width="6.338" stroke="black" fill="none" stroke-linecap="round"></path><path d="M 496.884,293.074 C 497.760,288.693 497.879,288.704 498.482,284.281" stroke-width="6.024" stroke="black" fill="none" stroke-linecap="round"></path><path d="M 498.482,284.281 C 499.078,279.911 499.081,279.893 499.281,275.488" stroke-width="5.953" stroke="black" fill="none" stroke-linecap="round"></path><path d="M 499.281,275.488 C 499.480,271.100 499.281,271.091 499.281,266.694" stroke-width="5.938" stroke="black" fill="none" stroke-linecap="round"></path><path d="M 499.281,266.694 C 499.281,261.898 499.678,261.865 499.281,257.101" stroke-width="5.891" stroke="black" fill="none" stroke-linecap="round"></path><path d="M 499.281,257.101 C 498.879,252.272 498.516,252.299 497.683,247.508" stroke-width="5.683" stroke="black" fill="none" stroke-linecap="round"></path><path d="M 497.683,247.508 C 496.918,243.106 497.359,242.965 496.085,238.715" stroke-width="5.832" stroke="black" fill="none" stroke-linecap="round"></path><path d="M 496.085,238.715 C 494.962,234.971 494.734,234.982 492.889,231.520" stroke-width="6.052" stroke="black" fill="none" stroke-linecap="round"></path><path d="M 492.889,231.520 C 491.538,228.986 491.936,228.278 489.693,226.724" stroke-width="6.505" stroke="black" fill="none" stroke-linecap="round"></path><path d="M 489.693,226.724 C 486.743,224.680 485.310,223.623 482.502,224.326" stroke-width="7.105" stroke="black" fill="none" stroke-linecap="round"></path><path d="M 482.502,224.326 C 480.516,224.823 480.831,226.581 480.105,229.122" stroke-width="7.539" stroke="black" fill="none" stroke-linecap="round"></path><path d="M 480.105,229.122 C 479.233,232.177 479.495,232.307 479.306,235.517" stroke-width="6.800" stroke="black" fill="none" stroke-linecap="round"></path><path d="M 479.306,235.517 C 479.095,239.102 478.950,239.147 479.306,242.712" stroke-width="6.459" stroke="black" fill="none" stroke-linecap="round"></path><path d="M 479.306,242.712 C 479.749,247.141 479.569,247.257 480.904,251.505" stroke-width="6.057" stroke="black" fill="none" stroke-linecap="round"></path><path d="M 480.904,251.505 C 483.964,261.246 483.976,261.351 488.095,270.691" stroke-width="5.741" stroke="black" fill="none" stroke-linecap="round"></path><path d="M 488.095,270.691 C 489.969,274.940 490.402,274.745 492.889,278.685" stroke-width="5.791" stroke="black" fill="none" stroke-linecap="round"></path><path d="M 492.889,278.685 C 495.196,282.340 495.376,282.225 497.683,285.880" stroke-width="5.912" stroke="black" fill="none" stroke-linecap="round"></path><path d="M 497.683,285.880 C 500.170,289.820 500.025,289.911 502.477,293.874" stroke-width="5.842" stroke="black" fill="none" stroke-linecap="round"></path><path d="M 502.477,293.874 C 505.218,298.305 505.181,298.332 508.070,302.667" stroke-width="5.742" stroke="black" fill="none" stroke-linecap="round"></path><path d="M 508.070,302.667 C 510.774,306.726 510.910,306.635 513.663,310.661" stroke-width="5.635" stroke="black" fill="none" stroke-linecap="round"></path><path d="M 513.663,310.661 C 516.103,314.229 516.366,314.090 518.457,317.856" stroke-width="5.863" stroke="black" fill="none" stroke-linecap="round"></path><path d="M 518.457,317.856 C 520.361,321.285 519.978,321.490 521.653,325.051" stroke-width="6.062" stroke="black" fill="none" stroke-linecap="round"></path><path d="M 521.653,325.051 C 523.174,328.284 523.528,328.141 524.849,331.446" stroke-width="6.251" stroke="black" fill="none" stroke-linecap="round"></path><path d="M 524.849,331.446 C 525.925,334.136 525.592,334.261 526.447,337.042" stroke-width="6.562" stroke="black" fill="none" stroke-linecap="round"></path><path d="M 526.447,337.042 C 527.190,339.457 527.433,339.390 528.045,341.838" stroke-width="6.820" stroke="black" fill="none" stroke-linecap="round"></path><path d="M 528.045,341.838 C 529.031,345.785 528.974,345.814 529.643,349.832" stroke-width="7.122" stroke="black" fill="none" stroke-linecap="round"></path><path d="M 529.643,349.832 C 530.172,353.009 531.719,354.310 530.442,356.227" stroke-width="7.427" stroke="black" fill="none" stroke-linecap="round"></path><path d="M 530.442,356.227 C 529.322,357.908 525.903,355.550 524.849,357.027" stroke-width="8.341" stroke="black" fill="none" stroke-linecap="round"></path><path d="M 524.849,357.027 C 523.906,358.348 527.978,360.880 526.447,361.823" stroke-width="8.631" stroke="black" fill="none" stroke-linecap="round"></path><path d="M 526.447,361.823 C 522.785,364.078 520.473,363.422 514.462,363.422" stroke-width="8.082" stroke="black" fill="none" stroke-linecap="round"></path><path d="M 514.462,363.422 C 505.292,363.422 505.238,362.928 496.085,361.823" stroke-width="4.888" stroke="black" fill="none" stroke-linecap="round"></path><path d="M 496.085,361.823 C 482.067,360.130 482.088,359.922 468.120,357.826" stroke-width="4.500" stroke="black" fill="none" stroke-linecap="round"></path><path d="M 468.120,357.826 C 442.138,353.927 442.175,353.676 416.185,349.832" stroke-width="4.500" stroke="black" fill="none" stroke-linecap="round"></path><path d="M 416.185,349.832 C 396.232,346.881 396.194,347.144 376.235,344.236" stroke-width="4.500" stroke="black" fill="none" stroke-linecap="round"></path><path d="M 376.235,344.236 C 355.045,341.149 355.085,340.871 333.888,337.841" stroke-width="4.500" stroke="black" fill="none" stroke-linecap="round"></path><path d="M 333.888,337.841 C 313.138,334.875 313.157,334.672 292.340,332.245" stroke-width="4.500" stroke="black" fill="none" stroke-linecap="round"></path><path d="M 292.340,332.245 C 272.008,329.875 271.992,329.914 251.591,328.248" stroke-width="4.500" stroke="black" fill="none" stroke-linecap="round"></path><path d="M 251.591,328.248 C 232.841,326.717 232.821,326.930 214.037,325.850" stroke-width="4.500" stroke="black" fill="none" stroke-linecap="round"></path><path d="M 214.037,325.850 C 198.064,324.932 198.066,324.708 182.077,324.251" stroke-width="4.500" stroke="black" fill="none" stroke-linecap="round"></path><path d="M 182.077,324.251 C 170.101,323.909 170.067,323.763 158.107,324.251" stroke-width="4.500" stroke="black" fill="none" stroke-linecap="round"></path><path d="M 158.107,324.251 C 150.491,324.562 150.507,324.975 142.926,325.850" stroke-width="4.500" stroke="black" fill="none" stroke-linecap="round"></path><path d="M 142.926,325.850 C 140.120,326.174 137.157,325.767 137.333,326.649" stroke-width="5.802" stroke="black" fill="none" stroke-linecap="round"></path><path d="M 137.333,326.649 C 137.556,327.766 140.295,328.961 143.725,329.847" stroke-width="6.834" stroke="black" fill="none" stroke-linecap="round"></path><path d="M 143.725,329.847 C 152.679,332.159 152.872,331.725 162.102,333.045" stroke-width="4.831" stroke="black" fill="none" stroke-linecap="round"></path><path d="M 162.102,333.045 C 178.041,335.323 178.107,334.865 194.062,337.042" stroke-width="4.500" stroke="black" fill="none" stroke-linecap="round"></path><path d="M 194.062,337.042 C 213.263,339.661 213.234,339.868 232.415,342.637" stroke-width="4.500" stroke="black" fill="none" stroke-linecap="round"></path><path d="M 232.415,342.637 C 251.986,345.464 252.078,344.919 271.566,348.233" stroke-width="4.500" stroke="black" fill="none" stroke-linecap="round"></path><path d="M 271.566,348.233 C 292.028,351.714 291.997,351.958 312.315,356.227" stroke-width="4.500" stroke="black" fill="none" stroke-linecap="round"></path><path d="M 312.315,356.227 C 331.947,360.352 332.008,360.154 351.466,365.021" stroke-width="4.500" stroke="black" fill="none" stroke-linecap="round"></path><path d="M 351.466,365.021 C 370.360,369.747 370.427,369.626 389.019,375.413" stroke-width="4.500" stroke="black" fill="none" stroke-linecap="round"></path><path d="M 389.019,375.413 C 406.382,380.818 406.197,381.408 423.376,387.404" stroke-width="4.500" stroke="black" fill="none" stroke-linecap="round"></path></svg>