<svg xmlns="http://www.w3.org/2000/svg" xmlns:xlink="http://www.w3.org/1999/xlink" viewBox="0 0 576 416" width="576" height="416"><path d="M 220.429,123.601 C 212.439,123.201 212.417,122.462 204.449,122.802" stroke-width="7.500" stroke="black" fill="none" stroke-linecap="round"></path><path d="M 204.449,122.802 C 193.640,123.262 193.575,123.445 182.876,125.200" stroke-width="4.500" stroke="black" fill="none" stroke-linecap="round"></path><path d="M 182.876,125.200 C 169.205,127.442 169.123,127.339 155.710,130.796" stroke-width="4.500" stroke="black" fill="none" stroke-linecap="round"></path><path d="M 155.710,130.796 C 142.756,134.134 142.617,133.975 130.142,138.790" stroke-width="4.500" stroke="black" fill="none" stroke-linecap="round"></path><path d="M 130.142,138.790 C 114.652,144.767 114.628,144.952 99.780,152.379" stroke-width="4.500" stroke="black" fill="none" stroke-linecap="round"></path><path d="M 99.780,152.379 C 92.256,156.143 91.984,156.048 85.398,161.173" stroke-width="4.500" stroke="black" fill="none" stroke-linecap="round"></path><path d="M 85.398,161.173 C 81.198,164.442 80.705,164.669 78.207,169.167" stroke-width="5.002" stroke="black" fill="none" stroke-linecap="round"></path><path d="M 78.207,169.167 C 76.710,171.863 75.610,173.625 77.408,175.562" stroke-width="5.980" stroke="black" fill="none" stroke-linecap="round"></path><path d="M 77.408,175.562 C 80.804,179.221 82.709,179.020 88.594,180.359" stroke-width="6.419" stroke="black" fill="none" stroke-linecap="round"></path><path d="M 88.594,180.359 C 100.287,183.017 100.526,182.538 112.564,183.556" stroke-width="4.500" stroke="black" fill="none" stroke-linecap="round"></path><path d="M 112.564,183.556 C 128.891,184.937 128.941,184.410 145.323,185.155" stroke-width="4.500" stroke="black" fill="none" stroke-linecap="round"></path><path d="M 145.323,185.155 C 164.097,186.009 164.128,185.530 182.876,186.754" stroke-width="4.500" stroke="black" fill="none" stroke-linecap="round"></path><path d="M 182.876,186.754 C 200.882,187.929 200.911,187.867 218.832,189.951" stroke-width="4.500" stroke="black" fill="none" stroke-linecap="round"></path><path d="M 218.832,189.951 C 235.268,191.864 235.342,191.672 251.591,194.748" stroke-width="4.500" stroke="black" fill="none" stroke-linecap="round"></path><path d="M 251.591,194.748 C 264.905,197.268 265.010,197.191 277.958,201.143" stroke-width="4.500" stroke="black" fill="none" stroke-linecap="round"></path><path d="M 277.958,201.143 C 288.580,204.385 288.729,204.361 298.732,209.137" stroke-width="4.500" stroke="black" fill="none" stroke-linecap="round"></path><path d="M 298.732,209.137 C 306.307,212.754 306.116,213.263 313.114,217.931" stroke-width="4.500" stroke="black" fill="none" stroke-linecap="round"></path><path d="M 313.114,217.931 C 315.704,219.659 317.013,219.132 317.908,221.928" stroke-width="5.697" stroke="black" fill="none" stroke-linecap="round"></path><path d="M 317.908,221.928 C 320.209,229.124 322.672,231.766 319.506,237.916" stroke-width="5.479" stroke="black" fill="none" stroke-linecap="round"></path><path d="M 319.506,237.916 C 315.880,244.956 312.407,244.006 304.325,248.308" stroke-width="5.685" stroke="black" fill="none" stroke-linecap="round"></path><path d="M 304.325,248.308 C 293.631,253.999 293.458,254.064 281.953,257.901" stroke-width="4.500" stroke="black" fill="none" stroke-linecap="round"></path><path d="M 281.953,257.901 C 270.686,261.658 270.491,261.404 258.782,263.496" stroke-width="4.500" stroke="black" fill="none" stroke-linecap="round"></path><path d="M 258.782,263.496 C 248.119,265.401 247.987,265.895 237.208,265.895" stroke-width="4.500" stroke="black" fill="none" stroke-linecap="round"></path><path d="M 237.208,265.895 C 227.612,265.895 227.167,266.035 218.032,263.496" stroke-width="4.500" stroke="black" fill="none" stroke-linecap="round"></path><path d="M 218.032,263.496 C 212.785,262.038 211.897,261.983 208.444,257.901" stroke-width="4.835" stroke="black" fill="none" stroke-linecap="round"></path><path d="M 208.444,257.901 C 203.108,251.590 202.441,250.844 200.454,242.712" stroke-width="4.580" stroke="black" fill="none" stroke-linecap="round"></path><path d="M 200.454,242.712 C 198.047,232.857 198.462,232.166 199.655,221.928" stroke-width="4.500" stroke="black" fill="none" stroke-linecap="round"></path><path d="M 199.655,221.928 C 201.258,208.184 201.719,207.957 206.047,194.748" stroke-width="4.500" stroke="black" fill="none" stroke-linecap="round"></path><path d="M 206.047,194.748 C 209.709,183.575 210.274,183.658 215.635,173.164" stroke-width="4.500" stroke="black" fill="none" stroke-linecap="round"></path><path d="M 215.635,173.164 C 219.463,165.672 219.810,165.822 224.425,158.775" stroke-width="4.500" stroke="black" fill="none" stroke-linecap="round"></path><path d="M 224.425,158.775 C 227.400,154.231 226.913,153.366 230.816,149.981" stroke-width="5.037" stroke="black" fill="none" stroke-linecap="round"></path><path d="M 230.816,149.981 C 232.905,148.170 233.613,148.382 236.410,148.382" stroke-width="6.100" stroke="black" fill="none" stroke-linecap="round"></path><path d="M 236.410,148.382 C 239.206,148.382 239.913,148.190 242.003,149.981" stroke-width="6.511" stroke="black" fill="none" stroke-linecap="round"></path><path d="M 242.003,149.981 C 245.506,152.986 244.428,154.319 247.596,157.975" stroke-width="7.208" stroke="black" fill="none" stroke-linecap="round"></path><path d="M 247.596,157.975 C 249.622,160.314 249.918,160.070 252.390,161.972" stroke-width="6.759" stroke="black" fill="none" stroke-linecap="round"></path><path d="M 252.390,161.972 C 255.112,164.067 254.953,164.454 257.983,165.969" stroke-width="6.510" stroke="black" fill="none" stroke-linecap="round"></path><path d="M 257.983,165.969 C 260.546,167.252 260.732,166.999 263.576,167.568" stroke-width="6.646" stroke="black" fill="none" stroke-linecap="round"></path><path d="M 263.576,167.568 C 266.724,168.198 266.889,168.881 269.968,168.367" stroke-width="6.562" stroke="black" fill="none" stroke-linecap="round"></path><path d="M 269.968,168.367 C 274.080,167.682 274.759,167.684 277.958,165.170" stroke-width="6.984" stroke="black" fill="none" stroke-linecap="round"></path><path d="M 277.958,165.170 C 280.352,163.287 279.238,162.129 281.154,159.574" stroke-width="7.381" stroke="black" fill="none" stroke-linecap="round"></path><path d="M 281.154,159.574 C 282.833,157.333 282.702,155.577 285.149,155.577" stroke-width="7.872" stroke="black" fill="none" stroke-linecap="round"></path><path d="M 285.149,155.577 C 290.292,155.577 290.585,158.232 296.335,159.574" stroke-width="7.462" stroke="black" fill="none" stroke-linecap="round"></path><path d="M 296.335,159.574 C 302.570,161.030 302.703,160.638 309.119,161.173" stroke-width="5.652" stroke="black" fill="none" stroke-linecap="round"></path><path d="M 309.119,161.173 C 317.086,161.837 317.125,162.285 325.099,161.972" stroke-width="4.901" stroke="black" fill="none" stroke-linecap="round"></path><path d="M 325.099,161.972 C 337.500,161.486 337.645,161.709 349.868,159.574" stroke-width="4.500" stroke="black" fill="none" stroke-linecap="round"></path><path d="M 349.868,159.574 C 362.813,157.313 362.924,157.210 375.436,153.179" stroke-width="4.500" stroke="black" fill="none" stroke-linecap="round"></path><path d="M 375.436,153.179 C 386.495,149.616 386.373,149.115 397.009,144.385" stroke-width="4.500" stroke="black" fill="none" stroke-linecap="round"></path><path d="M 397.009,144.385 C 404.351,141.121 404.319,141.001 411.391,137.191" stroke-width="4.500" stroke="black" fill="none" stroke-linecap="round"></path><path d="M 411.391,137.191 C 414.706,135.405 417.304,134.869 417.783,133.194" stroke-width="5.479" stroke="black" fill="none" stroke-linecap="round"></path><path d="M 417.783,133.194 C 418.103,132.071 415.485,131.684 412.989,131.595" stroke-width="6.478" stroke="black" fill="none" stroke-linecap="round"></path><path d="M 412.989,131.595 C 404.299,131.284 404.147,131.395 395.411,132.394" stroke-width="4.888" stroke="black" fill="none" stroke-linecap="round"></path><path d="M 395.411,132.394 C 362.199,136.192 362.127,135.989 329.094,141.188" stroke-width="4.500" stroke="black" fill="none" stroke-linecap="round"></path><path d="M 329.094,141.188 C 291.016,147.181 290.853,146.646 253.189,154.778" stroke-width="4.500" stroke="black" fill="none" stroke-linecap="round"></path><path d="M 253.189,154.778 C 214.948,163.034 214.989,163.484 177.283,173.963" stroke-width="4.500" stroke="black" fill="none" stroke-linecap="round"></path><path d="M 177.283,173.963 C 143.078,183.469 143.067,183.584 109.368,194.748" stroke-width="4.500" stroke="black" fill="none" stroke-linecap="round"></path><path d="M 109.368,194.748 C 82.743,203.569 82.847,203.943 56.634,213.934" stroke-width="4.500" stroke="black" fill="none" stroke-linecap="round"></path><path d="M 56.634,213.934 C 40.900,219.931 41.180,220.680 25.473,226.724" stroke-width="4.500" stroke="black" fill="none" stroke-linecap="round"></path><path d="M 25.473,226.724 C 20.406,228.674 14.196,231.257 15.086,229.922" stroke-width="4.500" stroke="black" fill="none" stroke-linecap="round"></path><path d="M 15.086,229.922 C 16.593,227.660 22.316,224.140 30.267,219.529" stroke-width="5.174" stroke="black" fill="none" stroke-linecap="round"></path><path d="M 30.267,219.529 C 57.472,203.755 57.308,203.301 85.398,189.152" stroke-width="4.500" stroke="black" fill="none" stroke-linecap="round"></path><path d="M 85.398,189.152 C 115.235,174.123 115.274,174.002 146.122,161.173" stroke-width="4.500" stroke="black" fill="none" stroke-linecap="round"></path><path d="M 146.122,161.173 C 181.591,146.422 181.680,146.407 218.032,133.993" stroke-width="4.500" stroke="black" fill="none" stroke-linecap="round"></path><path d="M 218.032,133.993 C 248.397,123.624 248.531,123.775 279.556,115.607" stroke-width="4.500" stroke="black" fill="none" stroke-linecap="round"></path><path d="M 279.556,115.607 C 301.665,109.786 301.796,110.017 324.300,106.014" stroke-width="4.500" stroke="black" fill="none" stroke-linecap="round"></path><path d="M 324.300,106.014 C 337.751,103.621 338.015,103.129 351.466,102.816" stroke-width="4.500" stroke="black" fill="none" stroke-linecap="round"></path><path d="M 351.466,102.816 C 355.193,102.730 360.340,103.353 358.657,105.215" stroke-width="4.674" stroke="black" fill="none" stroke-linecap="round"></path><path d="M 358.657,105.215 C 352.750,111.747 347.992,113.339 336.285,119.604" stroke-width="4.931" stroke="black" fill="none" stroke-linecap="round"></path><path d="M 336.285,119.604 C 313.635,131.725 313.158,130.888 289.943,141.987" stroke-width="4.500" stroke="black" fill="none" stroke-linecap="round"></path><path d="M 289.943,141.987 C 268.014,152.472 267.680,151.811 245.998,162.772" stroke-width="4.500" stroke="black" fill="none" stroke-linecap="round"></path><path d="M 245.998,162.772 C 229.727,170.997 229.489,170.763 214.037,180.359" stroke-width="4.500" stroke="black" fill="none" stroke-linecap="round"></path><path d="M 214.037,180.359 C 206.318,185.152 204.865,184.774 199.655,191.550" stroke-width="4.500" stroke="black" fill="none" stroke-linecap="round"></path><path d="M 199.655,191.550 C 196.875,195.166 195.066,198.495 198.057,201.143" stroke-width="4.907" stroke="black" fill="none" stroke-linecap="round"></path><path d="M 198.057,201.143 C 205.453,207.688 208.955,206.474 220.429,209.936" stroke-width="5.157" stroke="black" fill="none" stroke-linecap="round"></path><path d="M 220.429,209.936 C 234.123,214.068 234.310,213.690 248.395,216.332" stroke-width="4.500" stroke="black" fill="none" stroke-linecap="round"></path><path d="M 248.395,216.332 C 259.878,218.486 259.941,218.343 271.566,219.529" stroke-width="4.500" stroke="black" fill="none" stroke-linecap="round"></path><path d="M 271.566,219.529 C 279.517,220.341 279.564,219.813 287.546,220.329" stroke-width="4.500" stroke="black" fill="none" stroke-linecap="round"></path><path d="M 287.546,220.329 C 291.948,220.613 294.565,219.610 296.335,221.128" stroke-width="5.328" stroke="black" fill="none" stroke-linecap="round"></path><path d="M 296.335,221.128 C 297.361,222.008 293.708,222.846 293.139,225.125" stroke-width="7.276" stroke="black" fill="none" stroke-linecap="round"></path></svg>