<svg xmlns="http://www.w3.org/2000/svg" xmlns:xlink="http://www.w3.org/1999/xlink" viewBox="0 0 576 416" width="576" height="416"><path d="M 167.695,75.683 C 160.105,74.884 160.114,74.315 152.514,74.084" stroke-width="7.793" stroke="black" fill="none" stroke-linecap="round"></path><path d="M 152.514,74.084 C 146.931,73.915 146.860,74.045 141.328,74.884" stroke-width="5.967" stroke="black" fill="none" stroke-linecap="round"></path><path d="M 141.328,74.884 C 133.676,76.044 133.554,75.858 126.147,78.081" stroke-width="4.915" stroke="black" fill="none" stroke-linecap="round"></path><path d="M 126.147,78.081 C 117.574,80.655 117.540,80.797 109.368,84.477" stroke-width="4.525" stroke="black" fill="none" stroke-linecap="round"></path><path d="M 109.368,84.477 C 101.560,87.992 101.390,87.867 94.187,92.471" stroke-width="4.744" stroke="black" fill="none" stroke-linecap="round"></path><path d="M 94.187,92.471 C 87.008,97.060 87.037,97.257 80.604,102.863" stroke-width="4.561" stroke="black" fill="none" stroke-linecap="round"></path><path d="M 80.604,102.863 C 74.653,108.049 74.548,108.067 69.418,114.055" stroke-width="4.631" stroke="black" fill="none" stroke-linecap="round"></path><path d="M 69.418,114.055 C 64.960,119.258 64.284,119.124 61.428,125.246" stroke-width="4.867" stroke="black" fill="none" stroke-linecap="round"></path><path d="M 61.428,125.246 C 58.691,131.115 59.348,131.563 58.232,138.037" stroke-width="4.914" stroke="black" fill="none" stroke-linecap="round"></path><path d="M 58.232,138.037 C 57.350,143.155 56.604,143.450 57.433,148.429" stroke-width="5.361" stroke="black" fill="none" stroke-linecap="round"></path><path d="M 57.433,148.429 C 58.202,153.043 58.443,153.777 61.428,157.222" stroke-width="5.771" stroke="black" fill="none" stroke-linecap="round"></path><path d="M 61.428,157.222 C 63.637,159.772 64.424,159.449 67.820,160.420" stroke-width="6.155" stroke="black" fill="none" stroke-linecap="round"></path><path d="M 67.820,160.420 C 72.814,161.847 72.991,161.522 78.207,162.019" stroke-width="5.727" stroke="black" fill="none" stroke-linecap="round"></path><path d="M 78.207,162.019 C 81.380,162.321 81.420,162.315 84.599,162.019" stroke-width="6.338" stroke="black" fill="none" stroke-linecap="round"></path><path d="M 84.599,162.019 C 98.599,160.716 98.666,160.942 112.564,158.821" stroke-width="4.500" stroke="black" fill="none" stroke-linecap="round"></path><path d="M 112.564,158.821 C 122.236,157.345 122.181,156.950 131.740,154.824" stroke-width="4.500" stroke="black" fill="none" stroke-linecap="round"></path><path d="M 131.740,154.824 C 140.158,152.953 140.069,152.518 148.519,150.827" stroke-width="4.500" stroke="black" fill="none" stroke-linecap="round"></path><path d="M 148.519,150.827 C 156.049,149.320 156.069,149.103 163.700,148.429" stroke-width="4.603" stroke="black" fill="none" stroke-linecap="round"></path><path d="M 163.700,148.429 C 169.652,147.904 169.812,147.695 175.685,148.429" stroke-width="5.056" stroke="black" fill="none" stroke-linecap="round"></path><path d="M 175.685,148.429 C 179.400,148.894 179.672,148.995 182.876,150.827" stroke-width="5.887" stroke="black" fill="none" stroke-linecap="round"></path><path d="M 182.876,150.827 C 185.265,152.193 186.607,152.314 186.871,154.824" stroke-width="6.402" stroke="black" fill="none" stroke-linecap="round"></path><path d="M 186.871,154.824 C 187.406,159.908 186.042,160.525 184.474,166.016" stroke-width="6.630" stroke="black" fill="none" stroke-linecap="round"></path><path d="M 184.474,166.016 C 182.846,171.717 182.415,171.590 180.479,177.207" stroke-width="5.637" stroke="black" fill="none" stroke-linecap="round"></path><path d="M 180.479,177.207 C 178.420,183.182 178.278,183.144 176.484,189.198" stroke-width="5.296" stroke="black" fill="none" stroke-linecap="round"></path><path d="M 176.484,189.198 C 175.082,193.935 174.969,193.940 174.087,198.791" stroke-width="5.645" stroke="black" fill="none" stroke-linecap="round"></path><path d="M 174.087,198.791 C 173.371,202.733 173.043,202.860 173.288,206.785" stroke-width="5.883" stroke="black" fill="none" stroke-linecap="round"></path><path d="M 173.288,206.785 C 173.443,209.255 173.288,209.983 174.886,211.582" stroke-width="6.583" stroke="black" fill="none" stroke-linecap="round"></path><path d="M 174.886,211.582 C 176.484,213.180 177.228,212.992 179.680,213.181" stroke-width="6.827" stroke="black" fill="none" stroke-linecap="round"></path><path d="M 179.680,213.181 C 182.422,213.392 182.721,213.505 185.273,212.381" stroke-width="6.777" stroke="black" fill="none" stroke-linecap="round"></path><path d="M 185.273,212.381 C 192.708,209.108 192.636,208.669 199.655,204.387" stroke-width="5.068" stroke="black" fill="none" stroke-linecap="round"></path><path d="M 199.655,204.387 C 209.016,198.677 209.379,199.086 218.032,192.396" stroke-width="4.500" stroke="black" fill="none" stroke-linecap="round"></path><path d="M 218.032,192.396 C 226.957,185.496 226.298,184.660 234.811,177.207" stroke-width="4.500" stroke="black" fill="none" stroke-linecap="round"></path><path d="M 234.811,177.207 C 242.278,170.671 242.554,170.984 249.993,164.417" stroke-width="4.500" stroke="black" fill="none" stroke-linecap="round"></path><path d="M 249.993,164.417 C 256.137,158.993 255.945,158.778 261.978,153.225" stroke-width="4.500" stroke="black" fill="none" stroke-linecap="round"></path><path d="M 261.978,153.225 C 265.933,149.585 265.806,149.414 269.968,146.031" stroke-width="5.130" stroke="black" fill="none" stroke-linecap="round"></path><path d="M 269.968,146.031 C 272.198,144.218 274.272,141.854 274.762,142.833" stroke-width="6.149" stroke="black" fill="none" stroke-linecap="round"></path><path d="M 274.762,142.833 C 275.471,144.252 273.943,146.993 272.365,150.827" stroke-width="7.179" stroke="black" fill="none" stroke-linecap="round"></path><path d="M 272.365,150.827 C 271.146,153.788 270.512,153.511 269.169,156.423" stroke-width="6.709" stroke="black" fill="none" stroke-linecap="round"></path><path d="M 269.169,156.423 C 268.115,158.707 266.446,161.936 267.571,161.219" stroke-width="6.867" stroke="black" fill="none" stroke-linecap="round"></path><path d="M 267.571,161.219 C 270.840,159.138 272.857,156.113 277.958,150.827" stroke-width="7.232" stroke="black" fill="none" stroke-linecap="round"></path><path d="M 277.958,150.827 C 284.043,144.522 283.957,144.438 289.943,138.037" stroke-width="5.014" stroke="black" fill="none" stroke-linecap="round"></path><path d="M 289.943,138.037 C 295.542,132.048 295.440,131.948 301.129,126.046" stroke-width="4.703" stroke="black" fill="none" stroke-linecap="round"></path><path d="M 301.129,126.046 C 306.226,120.757 306.100,120.601 311.516,115.653" stroke-width="4.789" stroke="black" fill="none" stroke-linecap="round"></path><path d="M 311.516,115.653 C 315.288,112.207 315.247,112.015 319.506,109.258" stroke-width="5.416" stroke="black" fill="none" stroke-linecap="round"></path><path d="M 319.506,109.258 C 322.038,107.619 323.472,105.775 325.099,106.860" stroke-width="6.144" stroke="black" fill="none" stroke-linecap="round"></path><path d="M 325.099,106.860 C 327.068,108.174 326.483,110.430 326.697,114.055" stroke-width="7.255" stroke="black" fill="none" stroke-linecap="round"></path><path d="M 326.697,114.055 C 326.883,117.225 324.494,119.923 325.898,120.450" stroke-width="7.493" stroke="black" fill="none" stroke-linecap="round"></path><path d="M 325.898,120.450 C 327.690,121.122 329.891,118.978 333.089,116.453" stroke-width="7.656" stroke="black" fill="none" stroke-linecap="round"></path><path d="M 333.089,116.453 C 337.482,112.983 337.189,112.555 341.079,108.459" stroke-width="5.929" stroke="black" fill="none" stroke-linecap="round"></path><path d="M 341.079,108.459 C 344.779,104.561 344.832,104.592 348.270,100.465" stroke-width="5.631" stroke="black" fill="none" stroke-linecap="round"></path><path d="M 348.270,100.465 C 350.825,97.397 350.278,96.857 353.064,94.069" stroke-width="6.039" stroke="black" fill="none" stroke-linecap="round"></path><path d="M 353.064,94.069 C 355.072,92.060 356.849,90.267 357.858,90.872" stroke-width="7.090" stroke="black" fill="none" stroke-linecap="round"></path><path d="M 357.858,90.872 C 358.847,91.466 357.432,93.666 357.059,96.468" stroke-width="7.518" stroke="black" fill="none" stroke-linecap="round"></path><path d="M 357.059,96.468 C 356.633,99.662 356.438,99.652 356.260,102.863" stroke-width="6.795" stroke="black" fill="none" stroke-linecap="round"></path><path d="M 356.260,102.863 C 356.038,106.846 355.822,110.419 356.260,110.857" stroke-width="7.132" stroke="black" fill="none" stroke-linecap="round"></path><path d="M 356.260,110.857 C 356.621,111.218 357.476,107.711 357.858,104.462" stroke-width="7.850" stroke="black" fill="none" stroke-linecap="round"></path><path d="M 357.858,104.462 C 358.275,100.916 358.522,100.757 357.858,97.267" stroke-width="6.715" stroke="black" fill="none" stroke-linecap="round"></path><path d="M 357.858,97.267 C 356.924,92.363 356.669,92.293 354.662,87.674" stroke-width="5.927" stroke="black" fill="none" stroke-linecap="round"></path><path d="M 354.662,87.674 C 352.674,83.100 352.676,83.001 349.868,78.881" stroke-width="5.740" stroke="black" fill="none" stroke-linecap="round"></path><path d="M 349.868,78.881 C 346.683,74.208 346.670,74.082 342.677,70.087" stroke-width="5.494" stroke="black" fill="none" stroke-linecap="round"></path><path d="M 342.677,70.087 C 339.079,66.488 338.927,66.521 334.687,63.692" stroke-width="5.580" stroke="black" fill="none" stroke-linecap="round"></path><path d="M 334.687,63.692 C 330.538,60.925 330.602,60.409 325.898,58.896" stroke-width="5.639" stroke="black" fill="none" stroke-linecap="round"></path><path d="M 325.898,58.896 C 319.416,56.811 317.470,54.950 312.315,56.498" stroke-width="6.153" stroke="black" fill="none" stroke-linecap="round"></path><path d="M 312.315,56.498 C 309.480,57.348 309.534,60.242 309.918,63.692" stroke-width="7.241" stroke="black" fill="none" stroke-linecap="round"></path><path d="M 309.918,63.692 C 310.333,67.436 311.242,67.858 313.913,70.887" stroke-width="6.375" stroke="black" fill="none" stroke-linecap="round"></path><path d="M 313.913,70.887 C 317.234,74.653 317.523,74.726 321.903,77.282" stroke-width="5.915" stroke="black" fill="none" stroke-linecap="round"></path><path d="M 321.903,77.282 C 327.111,80.322 327.267,80.525 333.089,82.078" stroke-width="5.329" stroke="black" fill="none" stroke-linecap="round"></path><path d="M 333.089,82.078 C 339.252,83.723 339.478,83.677 345.873,83.677" stroke-width="5.181" stroke="black" fill="none" stroke-linecap="round"></path><path d="M 345.873,83.677 C 352.661,83.677 352.727,83.256 359.456,82.078" stroke-width="5.044" stroke="black" fill="none" stroke-linecap="round"></path><path d="M 359.456,82.078 C 368.708,80.459 368.793,80.605 377.833,78.081" stroke-width="4.500" stroke="black" fill="none" stroke-linecap="round"></path><path d="M 377.833,78.081 C 385.971,75.809 385.898,75.482 393.813,72.486" stroke-width="4.500" stroke="black" fill="none" stroke-linecap="round"></path><path d="M 393.813,72.486 C 400.680,69.886 400.548,69.542 407.396,66.890" stroke-width="4.725" stroke="black" fill="none" stroke-linecap="round"></path><path d="M 407.396,66.890 C 412.933,64.745 413.022,64.979 418.582,62.893" stroke-width="5.112" stroke="black" fill="none" stroke-linecap="round"></path><path d="M 418.582,62.893 C 422.610,61.381 422.545,61.206 426.572,59.695" stroke-width="5.687" stroke="black" fill="none" stroke-linecap="round"></path></svg>