<svg xmlns="http://www.w3.org/2000/svg" xmlns:xlink="http://www.w3.org/1999/xlink" viewBox="0 0 576 416" width="576" height="416"><path d="M 118.956,203.142 C 122.951,209.137 122.951,209.137 126.946,215.133" stroke-width="8.307" stroke="black" fill="none" stroke-linecap="round"></path><path d="M 126.946,215.133 C 130.142,219.929 130.320,219.819 133.338,224.726" stroke-width="6.001" stroke="black" fill="none" stroke-linecap="round"></path><path d="M 133.338,224.726 C 136.712,230.212 136.773,230.198 139.730,235.917" stroke-width="5.355" stroke="black" fill="none" stroke-linecap="round"></path><path d="M 139.730,235.917 C 142.766,241.789 142.449,241.951 145.323,247.908" stroke-width="5.146" stroke="black" fill="none" stroke-linecap="round"></path><path d="M 145.323,247.908 C 148.042,253.542 147.818,253.676 150.916,259.100" stroke-width="5.259" stroke="black" fill="none" stroke-linecap="round"></path><path d="M 150.916,259.100 C 154.210,264.867 154.325,264.826 158.107,270.292" stroke-width="5.013" stroke="black" fill="none" stroke-linecap="round"></path><path d="M 158.107,270.292 C 161.516,275.218 161.744,275.058 165.298,279.885" stroke-width="5.195" stroke="black" fill="none" stroke-linecap="round"></path><path d="M 165.298,279.885 C 167.337,282.652 167.296,282.682 169.293,285.480" stroke-width="5.989" stroke="black" fill="none" stroke-linecap="round"></path><path d="M 181.278,182.357 C 177.683,185.955 176.692,185.342 174.087,189.552" stroke-width="8.579" stroke="black" fill="none" stroke-linecap="round"></path><path d="M 174.087,189.552 C 171.498,193.736 172.342,194.306 170.891,199.145" stroke-width="7.322" stroke="black" fill="none" stroke-linecap="round"></path><path d="M 170.891,199.145 C 169.945,202.300 170.198,202.372 169.293,205.540" stroke-width="6.792" stroke="black" fill="none" stroke-linecap="round"></path><path d="M 169.293,205.540 C 167.801,210.766 167.745,210.752 166.097,215.932" stroke-width="6.572" stroke="black" fill="none" stroke-linecap="round"></path><path d="M 166.097,215.932 C 164.948,219.545 165.030,219.579 163.700,223.127" stroke-width="6.324" stroke="black" fill="none" stroke-linecap="round"></path><path d="M 163.700,223.127 C 162.633,225.975 162.523,225.934 161.303,228.723" stroke-width="6.716" stroke="black" fill="none" stroke-linecap="round"></path><path d="M 161.303,228.723 C 159.726,232.329 159.567,232.266 158.107,235.917" stroke-width="7.120" stroke="black" fill="none" stroke-linecap="round"></path><path d="M 158.107,235.917 C 157.170,238.262 155.229,239.177 156.509,240.714" stroke-width="7.643" stroke="black" fill="none" stroke-linecap="round"></path><path d="M 156.509,240.714 C 159.224,243.973 161.149,243.530 166.097,245.510" stroke-width="8.165" stroke="black" fill="none" stroke-linecap="round"></path><path d="M 166.097,245.510 C 169.139,246.727 169.423,245.959 172.489,247.109" stroke-width="6.912" stroke="black" fill="none" stroke-linecap="round"></path><path d="M 172.489,247.109 C 175.815,248.357 175.586,248.949 178.881,250.307" stroke-width="6.499" stroke="black" fill="none" stroke-linecap="round"></path><path d="M 178.881,250.307 C 182.377,251.747 182.439,251.636 186.072,252.705" stroke-width="6.382" stroke="black" fill="none" stroke-linecap="round"></path><path d="M 186.072,252.705 C 189.231,253.634 189.325,253.322 192.464,254.304" stroke-width="6.454" stroke="black" fill="none" stroke-linecap="round"></path><path d="M 192.464,254.304 C 195.717,255.321 195.621,255.623 198.856,256.702" stroke-width="6.351" stroke="black" fill="none" stroke-linecap="round"></path><path d="M 198.856,256.702 C 201.613,257.621 201.747,257.261 204.449,258.301" stroke-width="6.595" stroke="black" fill="none" stroke-linecap="round"></path><path d="M 204.449,258.301 C 206.940,259.259 206.734,259.802 209.243,260.699" stroke-width="6.766" stroke="black" fill="none" stroke-linecap="round"></path><path d="M 209.243,260.699 C 212.327,261.801 214.099,263.835 215.635,262.298" stroke-width="7.312" stroke="black" fill="none" stroke-linecap="round"></path><path d="M 215.635,262.298 C 217.694,260.238 216.675,257.841 216.434,253.504" stroke-width="7.875" stroke="black" fill="none" stroke-linecap="round"></path><path d="M 216.434,253.504 C 216.276,250.646 215.444,250.747 214.836,247.908" stroke-width="7.091" stroke="black" fill="none" stroke-linecap="round"></path><path d="M 214.836,247.908 C 214.246,245.151 214.591,245.080 214.037,242.313" stroke-width="6.852" stroke="black" fill="none" stroke-linecap="round"></path><path d="M 214.037,242.313 C 213.392,239.085 213.238,239.115 212.439,235.917" stroke-width="6.510" stroke="black" fill="none" stroke-linecap="round"></path><path d="M 212.439,235.917 C 211.640,232.720 211.690,232.706 210.841,229.522" stroke-width="6.493" stroke="black" fill="none" stroke-linecap="round"></path><path d="M 210.841,229.522 C 210.092,226.711 209.851,226.765 209.243,223.926" stroke-width="6.640" stroke="black" fill="none" stroke-linecap="round"></path><path d="M 209.243,223.926 C 208.653,221.169 209.077,221.073 208.444,218.331" stroke-width="6.719" stroke="black" fill="none" stroke-linecap="round"></path><path d="M 208.444,218.331 C 207.879,215.877 207.589,215.950 206.846,213.534" stroke-width="6.931" stroke="black" fill="none" stroke-linecap="round"></path><path d="M 206.846,213.534 C 205.991,210.754 205.989,210.752 205.248,207.938" stroke-width="6.771" stroke="black" fill="none" stroke-linecap="round"></path><path d="M 205.248,207.938 C 203.991,203.158 204.406,203.010 202.851,198.345" stroke-width="6.878" stroke="black" fill="none" stroke-linecap="round"></path><path d="M 202.851,198.345 C 202.009,195.816 201.577,195.982 200.454,193.549" stroke-width="6.853" stroke="black" fill="none" stroke-linecap="round"></path><path d="M 200.454,193.549 C 199.180,190.786 199.332,190.716 198.057,187.953" stroke-width="6.693" stroke="black" fill="none" stroke-linecap="round"></path><path d="M 198.057,187.953 C 196.935,185.520 196.859,185.555 195.660,183.157" stroke-width="6.860" stroke="black" fill="none" stroke-linecap="round"></path><path d="M 195.660,183.157 C 194.462,180.759 194.462,180.759 193.263,178.360" stroke-width="6.847" stroke="black" fill="none" stroke-linecap="round"></path><path d="M 193.263,178.360 C 191.665,175.163 188.947,173.086 190.067,171.965" stroke-width="7.223" stroke="black" fill="none" stroke-linecap="round"></path><path d="M 190.067,171.965 C 191.344,170.688 194.374,172.012 198.057,173.564" stroke-width="7.889" stroke="black" fill="none" stroke-linecap="round"></path><path d="M 198.057,173.564 C 201.965,175.210 201.959,175.589 205.248,178.360" stroke-width="6.437" stroke="black" fill="none" stroke-linecap="round"></path><path d="M 205.248,178.360 C 209.550,181.984 209.349,182.258 213.238,186.354" stroke-width="5.679" stroke="black" fill="none" stroke-linecap="round"></path><path d="M 213.238,186.354 C 216.939,190.252 216.970,190.238 220.429,194.348" stroke-width="5.562" stroke="black" fill="none" stroke-linecap="round"></path><path d="M 220.429,194.348 C 223.362,197.832 223.399,197.825 226.022,201.543" stroke-width="5.845" stroke="black" fill="none" stroke-linecap="round"></path><path d="M 226.022,201.543 C 228.193,204.620 228.647,204.511 230.017,207.938" stroke-width="6.033" stroke="black" fill="none" stroke-linecap="round"></path><path d="M 230.017,207.938 C 231.044,210.507 231.501,210.965 230.816,213.534" stroke-width="6.520" stroke="black" fill="none" stroke-linecap="round"></path><path d="M 230.816,213.534 C 229.903,216.961 229.558,217.410 226.822,219.929" stroke-width="6.318" stroke="black" fill="none" stroke-linecap="round"></path><path d="M 226.822,219.929 C 219.571,226.603 219.061,226.255 210.841,231.920" stroke-width="4.615" stroke="black" fill="none" stroke-linecap="round"></path><path d="M 210.841,231.920 C 201.083,238.646 201.201,238.927 190.866,244.711" stroke-width="4.500" stroke="black" fill="none" stroke-linecap="round"></path><path d="M 190.866,244.711 C 177.631,252.117 177.202,251.348 163.700,258.301" stroke-width="4.500" stroke="black" fill="none" stroke-linecap="round"></path><path d="M 163.700,258.301 C 150.036,265.337 150.196,265.648 136.534,272.690" stroke-width="4.500" stroke="black" fill="none" stroke-linecap="round"></path><path d="M 136.534,272.690 C 123.829,279.238 123.913,279.436 110.966,285.480" stroke-width="4.500" stroke="black" fill="none" stroke-linecap="round"></path><path d="M 110.966,285.480 C 99.943,290.627 99.743,290.193 88.594,295.073" stroke-width="4.500" stroke="black" fill="none" stroke-linecap="round"></path><path d="M 88.594,295.073 C 80.567,298.587 80.599,298.660 72.614,302.268" stroke-width="4.500" stroke="black" fill="none" stroke-linecap="round"></path><path d="M 72.614,302.268 C 68.215,304.256 61.288,307.228 63.825,306.265" stroke-width="5.069" stroke="black" fill="none" stroke-linecap="round"></path><path d="M 63.825,306.265 C 72.873,302.831 80.081,300.495 95.785,293.474" stroke-width="6.022" stroke="black" fill="none" stroke-linecap="round"></path><path d="M 95.785,293.474 C 117.634,283.707 117.401,283.169 138.931,272.690" stroke-width="4.500" stroke="black" fill="none" stroke-linecap="round"></path><path d="M 138.931,272.690 C 161.745,261.586 161.742,261.578 184.474,250.307" stroke-width="4.500" stroke="black" fill="none" stroke-linecap="round"></path><path d="M 184.474,250.307 C 206.886,239.194 206.651,238.704 229.218,227.923" stroke-width="4.500" stroke="black" fill="none" stroke-linecap="round"></path><path d="M 229.218,227.923 C 250.995,217.520 251.322,218.209 273.164,207.938" stroke-width="4.500" stroke="black" fill="none" stroke-linecap="round"></path><path d="M 273.164,207.938 C 291.272,199.423 290.925,198.666 309.119,190.351" stroke-width="4.500" stroke="black" fill="none" stroke-linecap="round"></path><path d="M 309.119,190.351 C 323.284,183.877 323.537,184.442 337.883,178.360" stroke-width="4.500" stroke="black" fill="none" stroke-linecap="round"></path><path d="M 337.883,178.360 C 347.108,174.449 346.922,173.939 356.260,170.366" stroke-width="4.500" stroke="black" fill="none" stroke-linecap="round"></path><circle r="3" cx="461.72784423828125" cy="215.13284301757812" fill="black"></circle></svg>