<svg xmlns="http://www.w3.org/2000/svg" xmlns:xlink="http://www.w3.org/1999/xlink" viewBox="0 0 576 416" width="576" height="416"><path d="M 369.843,177.960 C 360.654,176.761 360.701,175.694 351.466,175.562" stroke-width="6.218" stroke="black" fill="none" stroke-linecap="round"></path><path d="M 351.466,175.562 C 332.736,175.294 332.622,175.601 313.913,177.161" stroke-width="4.500" stroke="black" fill="none" stroke-linecap="round"></path><path d="M 313.913,177.161 C 299.064,178.399 299.075,178.809 284.350,181.158" stroke-width="4.500" stroke="black" fill="none" stroke-linecap="round"></path><path d="M 284.350,181.158 C 271.509,183.206 271.367,182.733 258.782,185.954" stroke-width="4.500" stroke="black" fill="none" stroke-linecap="round"></path><path d="M 258.782,185.954 C 237.010,191.527 237.070,191.921 215.635,198.745" stroke-width="4.500" stroke="black" fill="none" stroke-linecap="round"></path><path d="M 215.635,198.745 C 201.914,203.113 188.469,209.865 188.469,208.338" stroke-width="4.500" stroke="black" fill="none" stroke-linecap="round"></path><path d="M 188.469,208.338 C 188.469,206.667 201.570,199.435 215.635,192.350" stroke-width="4.500" stroke="black" fill="none" stroke-linecap="round"></path><path d="M 215.635,192.350 C 258.698,170.657 258.749,170.602 302.727,150.781" stroke-width="4.500" stroke="black" fill="none" stroke-linecap="round"></path><path d="M 302.727,150.781 C 339.449,134.229 339.954,135.365 377.034,119.604" stroke-width="4.500" stroke="black" fill="none" stroke-linecap="round"></path><path d="M 377.034,119.604 C 401.077,109.384 400.835,108.781 424.974,98.819" stroke-width="4.500" stroke="black" fill="none" stroke-linecap="round"></path><path d="M 424.974,98.819 C 432.795,95.591 440.954,93.835 440.954,93.224" stroke-width="4.500" stroke="black" fill="none" stroke-linecap="round"></path><path d="M 440.954,93.224 C 440.954,92.635 432.958,94.794 424.974,96.421" stroke-width="4.500" stroke="black" fill="none" stroke-linecap="round"></path><path d="M 424.974,96.421 C 411.385,99.191 411.361,99.080 397.808,102.017" stroke-width="4.500" stroke="black" fill="none" stroke-linecap="round"></path><path d="M 397.808,102.017 C 348.640,112.670 348.469,111.975 299.531,123.601" stroke-width="4.500" stroke="black" fill="none" stroke-linecap="round"></path><path d="M 299.531,123.601 C 260.978,132.759 260.816,132.381 222.826,143.586" stroke-width="4.500" stroke="black" fill="none" stroke-linecap="round"></path><path d="M 222.826,143.586 C 191.703,152.766 191.372,152.337 161.303,164.370" stroke-width="4.500" stroke="black" fill="none" stroke-linecap="round"></path><path d="M 161.303,164.370 C 143.432,171.523 142.517,171.572 126.946,181.957" stroke-width="4.500" stroke="black" fill="none" stroke-linecap="round"></path><path d="M 126.946,181.957 C 123.341,184.362 122.255,187.396 122.951,189.951" stroke-width="4.500" stroke="black" fill="none" stroke-linecap="round"></path><path d="M 122.951,189.951 C 123.453,191.793 126.138,190.985 129.343,190.751" stroke-width="5.524" stroke="black" fill="none" stroke-linecap="round"></path><path d="M 129.343,190.751 C 158.897,188.587 159.047,189.069 188.469,185.155" stroke-width="4.500" stroke="black" fill="none" stroke-linecap="round"></path><path d="M 188.469,185.155 C 234.153,179.077 233.853,176.680 279.556,170.766" stroke-width="4.500" stroke="black" fill="none" stroke-linecap="round"></path><path d="M 279.556,170.766 C 314.152,166.288 314.343,164.604 349.069,164.370" stroke-width="4.500" stroke="black" fill="none" stroke-linecap="round"></path><path d="M 349.069,164.370 C 373.868,164.204 374.588,164.566 398.607,169.966" stroke-width="4.500" stroke="black" fill="none" stroke-linecap="round"></path><path d="M 398.607,169.966 C 410.144,172.560 413.687,172.823 420.180,180.359" stroke-width="4.500" stroke="black" fill="none" stroke-linecap="round"></path><path d="M 420.180,180.359 C 423.675,184.415 421.635,188.348 418.582,193.149" stroke-width="4.500" stroke="black" fill="none" stroke-linecap="round"></path><path d="M 418.582,193.149 C 416.042,197.142 414.087,196.328 408.994,197.945" stroke-width="5.052" stroke="black" fill="none" stroke-linecap="round"></path><path d="M 408.994,197.945 C 388.918,204.322 388.860,204.614 368.245,209.137" stroke-width="4.500" stroke="black" fill="none" stroke-linecap="round"></path><path d="M 368.245,209.137 C 343.317,214.607 343.159,214.073 317.908,217.931" stroke-width="4.500" stroke="black" fill="none" stroke-linecap="round"></path><path d="M 317.908,217.931 C 290.824,222.067 290.496,220.209 263.576,225.125" stroke-width="4.500" stroke="black" fill="none" stroke-linecap="round"></path><path d="M 263.576,225.125 C 240.159,229.402 239.647,228.615 217.233,236.317" stroke-width="4.500" stroke="black" fill="none" stroke-linecap="round"></path><path d="M 217.233,236.317 C 200.096,242.205 197.803,240.845 184.474,252.305" stroke-width="4.500" stroke="black" fill="none" stroke-linecap="round"></path><path d="M 184.474,252.305 C 172.235,262.829 175.286,266.294 166.097,280.284" stroke-width="4.500" stroke="black" fill="none" stroke-linecap="round"></path></svg>