<svg xmlns="http://www.w3.org/2000/svg" xmlns:xlink="http://www.w3.org/1999/xlink" viewBox="0 0 576 416" width="576" height="416"><path d="M 43.850,276.287 C 43.451,283.482 43.318,283.478 43.051,290.676" stroke-width="8.119" stroke="black" fill="none" stroke-linecap="round"></path><path d="M 43.051,290.676 C 42.918,294.270 42.945,294.276 43.051,297.871" stroke-width="6.773" stroke="black" fill="none" stroke-linecap="round"></path><path d="M 43.051,297.871 C 43.345,307.865 43.363,307.868 43.850,317.856" stroke-width="4.682" stroke="black" fill="none" stroke-linecap="round"></path><path d="M 43.850,317.856 C 44.162,324.256 44.307,324.248 44.649,330.646" stroke-width="4.988" stroke="black" fill="none" stroke-linecap="round"></path><path d="M 44.649,330.646 C 45.505,346.631 45.376,346.639 46.247,362.622" stroke-width="4.500" stroke="black" fill="none" stroke-linecap="round"></path><path d="M 46.247,362.622 C 46.574,368.622 47.218,378.042 47.046,374.614" stroke-width="4.500" stroke="black" fill="none" stroke-linecap="round"></path><path d="M 20.679,361.823 C 27.471,353.429 26.972,352.913 34.262,345.036" stroke-width="7.730" stroke="black" fill="none" stroke-linecap="round"></path><path d="M 34.262,345.036 C 36.960,342.121 37.612,342.815 40.654,340.239" stroke-width="6.530" stroke="black" fill="none" stroke-linecap="round"></path><path d="M 40.654,340.239 C 42.805,338.418 42.792,338.371 44.649,336.242" stroke-width="6.685" stroke="black" fill="none" stroke-linecap="round"></path><path d="M 44.649,336.242 C 61.968,316.387 63.254,317.184 79.006,296.272" stroke-width="4.500" stroke="black" fill="none" stroke-linecap="round"></path><path d="M 79.006,296.272 C 84.029,289.605 83.887,288.884 86.197,281.083" stroke-width="4.500" stroke="black" fill="none" stroke-linecap="round"></path><path d="M 86.197,281.083 C 87.083,278.092 87.101,276.605 85.398,274.688" stroke-width="5.696" stroke="black" fill="none" stroke-linecap="round"></path><path d="M 85.398,274.688 C 83.905,273.008 81.641,272.553 79.805,273.889" stroke-width="7.182" stroke="black" fill="none" stroke-linecap="round"></path><path d="M 79.805,273.889 C 77.247,275.750 77.899,277.374 76.609,281.083" stroke-width="6.428" stroke="black" fill="none" stroke-linecap="round"></path><path d="M 76.609,281.083 C 74.703,286.567 74.213,286.539 73.413,292.275" stroke-width="5.524" stroke="black" fill="none" stroke-linecap="round"></path><path d="M 73.413,292.275 C 71.816,303.726 71.815,303.874 71.815,315.458" stroke-width="4.500" stroke="black" fill="none" stroke-linecap="round"></path><path d="M 71.815,315.458 C 71.815,324.658 72.221,324.702 73.413,333.844" stroke-width="4.500" stroke="black" fill="none" stroke-linecap="round"></path><path d="M 73.413,333.844 C 74.618,343.088 74.657,343.114 76.609,352.230" stroke-width="4.500" stroke="black" fill="none" stroke-linecap="round"></path><path d="M 76.609,352.230 C 78.252,359.902 78.330,359.910 80.604,367.419" stroke-width="4.644" stroke="black" fill="none" stroke-linecap="round"></path><path d="M 80.604,367.419 C 82.325,373.100 82.155,373.231 84.599,378.611" stroke-width="5.083" stroke="black" fill="none" stroke-linecap="round"></path><path d="M 84.599,378.611 C 86.150,382.024 85.854,382.949 88.594,385.006" stroke-width="5.838" stroke="black" fill="none" stroke-linecap="round"></path><path d="M 88.594,385.006 C 90.648,386.547 92.592,387.946 94.187,385.805" stroke-width="7.038" stroke="black" fill="none" stroke-linecap="round"></path><path d="M 94.187,385.805 C 108.972,365.963 108.378,363.757 121.353,341.039" stroke-width="4.993" stroke="black" fill="none" stroke-linecap="round"></path><path d="M 121.353,341.039 C 127.554,330.182 127.496,330.075 132.539,318.655" stroke-width="4.500" stroke="black" fill="none" stroke-linecap="round"></path><path d="M 132.539,318.655 C 135.087,312.887 135.747,312.706 136.534,306.664" stroke-width="4.806" stroke="black" fill="none" stroke-linecap="round"></path><path d="M 136.534,306.664 C 136.945,303.513 136.965,301.892 134.936,300.269" stroke-width="5.806" stroke="black" fill="none" stroke-linecap="round"></path><path d="M 134.936,300.269 C 132.970,298.695 130.990,298.686 128.544,300.269" stroke-width="6.301" stroke="black" fill="none" stroke-linecap="round"></path><path d="M 128.544,300.269 C 124.198,303.083 124.491,304.353 121.353,309.063" stroke-width="6.606" stroke="black" fill="none" stroke-linecap="round"></path><path d="M 121.353,309.063 C 117.300,315.145 117.202,315.201 114.162,321.853" stroke-width="5.254" stroke="black" fill="none" stroke-linecap="round"></path><path d="M 114.162,321.853 C 110.810,329.191 110.869,329.301 108.569,337.042" stroke-width="4.883" stroke="black" fill="none" stroke-linecap="round"></path><path d="M 108.569,337.042 C 106.475,344.090 106.282,344.161 105.373,351.431" stroke-width="4.742" stroke="black" fill="none" stroke-linecap="round"></path><path d="M 105.373,351.431 C 104.684,356.951 104.435,357.226 105.373,362.622" stroke-width="5.202" stroke="black" fill="none" stroke-linecap="round"></path><path d="M 105.373,362.622 C 106.033,366.419 105.855,367.937 108.569,369.817" stroke-width="5.832" stroke="black" fill="none" stroke-linecap="round"></path><path d="M 108.569,369.817 C 111.049,371.534 112.445,370.793 115.760,369.817" stroke-width="6.168" stroke="black" fill="none" stroke-linecap="round"></path><path d="M 115.760,369.817 C 119.236,368.794 119.436,368.329 122.152,365.820" stroke-width="6.215" stroke="black" fill="none" stroke-linecap="round"></path><path d="M 122.152,365.820 C 124.630,363.532 124.281,363.110 126.147,360.224" stroke-width="6.420" stroke="black" fill="none" stroke-linecap="round"></path><path d="M 126.147,360.224 C 133.070,349.520 134.200,349.970 139.730,338.640" stroke-width="4.500" stroke="black" fill="none" stroke-linecap="round"></path><path d="M 139.730,338.640 C 142.589,332.783 141.685,332.307 142.926,325.850" stroke-width="4.703" stroke="black" fill="none" stroke-linecap="round"></path><path d="M 142.926,325.850 C 143.683,321.915 144.923,320.973 143.725,317.856" stroke-width="5.608" stroke="black" fill="none" stroke-linecap="round"></path><path d="M 143.725,317.856 C 142.926,315.776 140.766,314.540 138.931,315.458" stroke-width="6.967" stroke="black" fill="none" stroke-linecap="round"></path><path d="M 138.931,315.458 C 135.972,316.938 136.002,318.778 134.137,322.652" stroke-width="6.321" stroke="black" fill="none" stroke-linecap="round"></path><path d="M 134.137,322.652 C 130.808,329.570 130.496,329.622 128.544,337.042" stroke-width="4.993" stroke="black" fill="none" stroke-linecap="round"></path><path d="M 128.544,337.042 C 126.501,344.811 126.559,344.998 126.147,353.030" stroke-width="4.721" stroke="black" fill="none" stroke-linecap="round"></path><path d="M 126.147,353.030 C 125.760,360.586 125.393,360.892 126.946,368.218" stroke-width="4.741" stroke="black" fill="none" stroke-linecap="round"></path><path d="M 126.946,368.218 C 128.190,374.083 128.426,374.435 131.740,379.410" stroke-width="5.082" stroke="black" fill="none" stroke-linecap="round"></path><path d="M 131.740,379.410 C 134.818,384.028 134.889,385.273 139.730,387.404" stroke-width="5.305" stroke="black" fill="none" stroke-linecap="round"></path><path d="M 139.730,387.404 C 144.876,389.669 145.902,389.112 151.715,388.203" stroke-width="5.370" stroke="black" fill="none" stroke-linecap="round"></path><path d="M 151.715,388.203 C 158.686,387.114 159.306,387.209 165.298,383.407" stroke-width="4.910" stroke="black" fill="none" stroke-linecap="round"></path><path d="M 165.298,383.407 C 175.685,376.817 176.372,376.712 184.474,367.419" stroke-width="4.500" stroke="black" fill="none" stroke-linecap="round"></path><path d="M 184.474,367.419 C 192.751,357.926 192.996,357.381 198.057,345.835" stroke-width="4.500" stroke="black" fill="none" stroke-linecap="round"></path><path d="M 198.057,345.835 C 202.983,334.598 202.621,334.046 204.449,321.853" stroke-width="4.500" stroke="black" fill="none" stroke-linecap="round"></path><path d="M 204.449,321.853 C 206.217,310.064 205.248,309.861 205.248,297.871" stroke-width="4.500" stroke="black" fill="none" stroke-linecap="round"></path><path d="M 205.248,297.871 C 205.248,287.478 205.141,287.458 204.449,277.086" stroke-width="4.500" stroke="black" fill="none" stroke-linecap="round"></path><path d="M 204.449,277.086 C 203.942,269.471 204.102,269.407 202.851,261.898" stroke-width="4.500" stroke="black" fill="none" stroke-linecap="round"></path><path d="M 202.851,261.898 C 202.105,257.416 202.860,254.417 200.454,253.104" stroke-width="5.335" stroke="black" fill="none" stroke-linecap="round"></path><path d="M 200.454,253.104 C 198.465,252.019 195.530,253.920 194.062,257.101" stroke-width="6.872" stroke="black" fill="none" stroke-linecap="round"></path><path d="M 194.062,257.101 C 190.736,264.312 192.005,265.429 190.866,273.889" stroke-width="5.121" stroke="black" fill="none" stroke-linecap="round"></path><path d="M 190.866,273.889 C 189.208,286.214 189.687,286.281 188.469,298.670" stroke-width="4.500" stroke="black" fill="none" stroke-linecap="round"></path><path d="M 188.469,298.670 C 187.290,310.663 187.463,310.686 186.072,322.652" stroke-width="4.500" stroke="black" fill="none" stroke-linecap="round"></path><path d="M 186.072,322.652 C 185.466,327.873 185.233,327.842 184.474,333.045" stroke-width="4.867" stroke="black" fill="none" stroke-linecap="round"></path><path d="M 184.474,333.045 C 182.436,347.028 182.710,347.074 180.479,361.024" stroke-width="4.500" stroke="black" fill="none" stroke-linecap="round"></path><path d="M 180.479,361.024 C 179.514,367.059 179.380,367.042 178.082,373.015" stroke-width="4.665" stroke="black" fill="none" stroke-linecap="round"></path><path d="M 178.082,373.015 C 177.383,376.235 175.385,379.567 176.484,379.410" stroke-width="5.863" stroke="black" fill="none" stroke-linecap="round"></path><path d="M 176.484,379.410 C 178.181,379.168 180.161,375.891 183.675,372.215" stroke-width="6.907" stroke="black" fill="none" stroke-linecap="round"></path><path d="M 183.675,372.215 C 188.950,366.698 188.993,366.730 194.062,361.024" stroke-width="5.234" stroke="black" fill="none" stroke-linecap="round"></path><path d="M 194.062,361.024 C 198.581,355.938 198.544,355.898 202.851,350.631" stroke-width="5.067" stroke="black" fill="none" stroke-linecap="round"></path><path d="M 202.851,350.631 C 205.735,347.105 208.811,343.253 208.444,343.437" stroke-width="5.597" stroke="black" fill="none" stroke-linecap="round"></path><path d="M 208.444,343.437 C 208.012,343.653 204.713,347.320 201.253,351.431" stroke-width="6.960" stroke="black" fill="none" stroke-linecap="round"></path><path d="M 201.253,351.431 C 198.321,354.915 198.055,354.791 195.660,358.625" stroke-width="6.151" stroke="black" fill="none" stroke-linecap="round"></path><path d="M 195.660,358.625 C 194.060,361.187 192.849,361.734 193.263,364.221" stroke-width="6.477" stroke="black" fill="none" stroke-linecap="round"></path><path d="M 193.263,364.221 C 193.648,366.530 194.735,368.218 197.258,368.218" stroke-width="7.318" stroke="black" fill="none" stroke-linecap="round"></path><path d="M 197.258,368.218 C 203.924,368.218 204.773,367.059 211.640,364.221" stroke-width="5.346" stroke="black" fill="none" stroke-linecap="round"></path><path d="M 211.640,364.221 C 223.150,359.465 223.442,359.614 234.013,353.030" stroke-width="4.500" stroke="black" fill="none" stroke-linecap="round"></path><path d="M 234.013,353.030 C 244.616,346.424 244.663,346.178 253.988,337.841" stroke-width="4.500" stroke="black" fill="none" stroke-linecap="round"></path><path d="M 253.988,337.841 C 263.440,329.390 263.445,329.204 271.566,319.455" stroke-width="4.500" stroke="black" fill="none" stroke-linecap="round"></path><path d="M 271.566,319.455 C 279.425,310.018 279.480,309.907 285.948,299.470" stroke-width="4.500" stroke="black" fill="none" stroke-linecap="round"></path><path d="M 285.948,299.470 C 291.864,289.922 292.263,289.895 296.335,279.485" stroke-width="4.500" stroke="black" fill="none" stroke-linecap="round"></path><path d="M 296.335,279.485 C 299.454,271.509 299.118,271.183 300.330,262.697" stroke-width="4.500" stroke="black" fill="none" stroke-linecap="round"></path><path d="M 300.330,262.697 C 301.115,257.194 301.868,256.381 300.330,251.505" stroke-width="4.997" stroke="black" fill="none" stroke-linecap="round"></path><path d="M 300.330,251.505 C 299.471,248.786 298.004,246.723 295.536,247.508" stroke-width="6.011" stroke="black" fill="none" stroke-linecap="round"></path><path d="M 295.536,247.508 C 289.215,249.521 287.743,251.075 282.752,257.101" stroke-width="6.127" stroke="black" fill="none" stroke-linecap="round"></path><path d="M 282.752,257.101 C 276.157,265.064 276.670,265.894 272.365,275.488" stroke-width="4.500" stroke="black" fill="none" stroke-linecap="round"></path><path d="M 272.365,275.488 C 267.881,285.479 267.878,285.656 265.174,296.272" stroke-width="4.500" stroke="black" fill="none" stroke-linecap="round"></path><path d="M 265.174,296.272 C 262.685,306.041 262.647,306.214 261.978,316.257" stroke-width="4.500" stroke="black" fill="none" stroke-linecap="round"></path><path d="M 261.978,316.257 C 261.448,324.201 260.890,324.693 262.777,332.245" stroke-width="4.500" stroke="black" fill="none" stroke-linecap="round"></path><path d="M 262.777,332.245 C 264.086,337.484 264.379,338.444 268.370,341.838" stroke-width="5.179" stroke="black" fill="none" stroke-linecap="round"></path><path d="M 268.370,341.838 C 272.369,345.239 273.425,345.195 278.757,345.835" stroke-width="5.269" stroke="black" fill="none" stroke-linecap="round"></path><path d="M 278.757,345.835 C 283.413,346.394 283.619,345.349 288.345,344.236" stroke-width="5.581" stroke="black" fill="none" stroke-linecap="round"></path><path d="M 288.345,344.236 C 297.202,342.151 297.381,342.508 305.923,339.440" stroke-width="4.653" stroke="black" fill="none" stroke-linecap="round"></path><path d="M 305.923,339.440 C 312.961,336.912 312.967,336.679 319.506,333.045" stroke-width="4.741" stroke="black" fill="none" stroke-linecap="round"></path><path d="M 319.506,333.045 C 323.754,330.683 328.786,328.417 327.496,327.449" stroke-width="5.385" stroke="black" fill="none" stroke-linecap="round"></path><path d="M 327.496,327.449 C 325.590,326.019 320.013,326.624 313.114,328.248" stroke-width="6.433" stroke="black" fill="none" stroke-linecap="round"></path><path d="M 313.114,328.248 C 306.430,329.822 306.656,330.905 300.330,333.844" stroke-width="5.312" stroke="black" fill="none" stroke-linecap="round"></path><path d="M 300.330,333.844 C 295.470,336.102 295.287,335.862 290.742,338.640" stroke-width="5.455" stroke="black" fill="none" stroke-linecap="round"></path><path d="M 290.742,338.640 C 288.096,340.258 285.004,341.694 285.948,342.637" stroke-width="6.199" stroke="black" fill="none" stroke-linecap="round"></path><path d="M 285.948,342.637 C 287.401,344.092 290.774,343.834 295.536,343.437" stroke-width="6.748" stroke="black" fill="none" stroke-linecap="round"></path><path d="M 295.536,343.437 C 305.156,342.635 305.124,341.838 314.712,340.239" stroke-width="4.735" stroke="black" fill="none" stroke-linecap="round"></path><path d="M 314.712,340.239 C 324.300,338.640 324.300,338.640 333.888,337.042" stroke-width="4.500" stroke="black" fill="none" stroke-linecap="round"></path><path d="M 333.888,337.042 C 341.079,335.843 341.066,335.752 348.270,334.643" stroke-width="4.684" stroke="black" fill="none" stroke-linecap="round"></path><path d="M 348.270,334.643 C 351.453,334.154 353.994,333.176 354.662,333.844" stroke-width="5.838" stroke="black" fill="none" stroke-linecap="round"></path><path d="M 354.662,333.844 C 355.192,334.375 352.811,335.662 350.667,337.042" stroke-width="7.115" stroke="black" fill="none" stroke-linecap="round"></path><path d="M 350.667,337.042 C 347.218,339.260 341.558,341.745 343.476,341.039" stroke-width="7.177" stroke="black" fill="none" stroke-linecap="round"></path><path d="M 343.476,341.039 C 349.149,338.948 354.837,336.620 365.848,331.446" stroke-width="6.382" stroke="black" fill="none" stroke-linecap="round"></path><path d="M 365.848,331.446 C 381.204,324.229 381.388,324.496 396.210,316.257" stroke-width="4.500" stroke="black" fill="none" stroke-linecap="round"></path><path d="M 396.210,316.257 C 410.152,308.508 409.779,307.841 423.376,299.470" stroke-width="4.500" stroke="black" fill="none" stroke-linecap="round"></path><path d="M 423.376,299.470 C 435.747,291.853 435.930,292.137 448.145,284.281" stroke-width="4.500" stroke="black" fill="none" stroke-linecap="round"></path><path d="M 448.145,284.281 C 458.302,277.748 458.381,277.820 468.120,270.691" stroke-width="4.500" stroke="black" fill="none" stroke-linecap="round"></path><path d="M 468.120,270.691 C 474.761,265.829 474.696,265.699 480.904,260.299" stroke-width="4.500" stroke="black" fill="none" stroke-linecap="round"></path><path d="M 480.904,260.299 C 483.885,257.705 487.247,255.642 486.497,254.703" stroke-width="5.462" stroke="black" fill="none" stroke-linecap="round"></path><path d="M 486.497,254.703 C 485.649,253.643 482.012,255.128 477.708,256.302" stroke-width="6.504" stroke="black" fill="none" stroke-linecap="round"></path><path d="M 477.708,256.302 C 464.434,259.924 464.540,260.349 451.341,264.296" stroke-width="4.500" stroke="black" fill="none" stroke-linecap="round"></path><path d="M 451.341,264.296 C 429.783,270.742 429.699,270.466 408.195,277.086" stroke-width="4.500" stroke="black" fill="none" stroke-linecap="round"></path><path d="M 408.195,277.086 C 382.957,284.856 383.157,285.518 357.858,293.074" stroke-width="4.500" stroke="black" fill="none" stroke-linecap="round"></path><path d="M 357.858,293.074 C 329.624,301.506 329.659,301.737 301.129,309.063" stroke-width="4.500" stroke="black" fill="none" stroke-linecap="round"></path><path d="M 301.129,309.063 C 284.515,313.328 284.389,312.853 267.571,316.257" stroke-width="4.500" stroke="black" fill="none" stroke-linecap="round"></path><path d="M 267.571,316.257 C 215.276,326.842 215.418,327.712 162.901,337.042" stroke-width="4.500" stroke="black" fill="none" stroke-linecap="round"></path><path d="M 162.901,337.042 C 129.925,342.900 129.847,342.745 96.584,346.634" stroke-width="4.500" stroke="black" fill="none" stroke-linecap="round"></path><path d="M 96.584,346.634 C 68.324,349.939 68.220,349.033 39.855,351.431" stroke-width="4.500" stroke="black" fill="none" stroke-linecap="round"></path></svg>