<svg xmlns="http://www.w3.org/2000/svg" xmlns:xlink="http://www.w3.org/1999/xlink" viewBox="0 0 576 416" width="576" height="416"><path d="M 220.429,164.370 C 222.027,156.776 221.505,156.607 223.625,149.182" stroke-width="7.250" stroke="black" fill="none" stroke-linecap="round"></path><path d="M 223.625,149.182 C 224.701,145.416 225.362,145.638 226.822,141.987" stroke-width="7.261" stroke="black" fill="none" stroke-linecap="round"></path><path d="M 226.822,141.987 C 227.759,139.643 228.869,136.179 228.419,137.191" stroke-width="7.095" stroke="black" fill="none" stroke-linecap="round"></path><path d="M 22.277,163.571 C 25.074,167.568 25.461,167.347 27.870,171.565" stroke-width="8.611" stroke="black" fill="none" stroke-linecap="round"></path><path d="M 27.870,171.565 C 30.255,175.741 30.455,175.773 31.865,180.359" stroke-width="6.377" stroke="black" fill="none" stroke-linecap="round"></path><path d="M 31.865,180.359 C 33.651,186.165 33.136,186.340 34.262,192.350" stroke-width="5.629" stroke="black" fill="none" stroke-linecap="round"></path><path d="M 34.262,192.350 C 35.533,199.131 35.684,199.112 36.659,205.939" stroke-width="5.047" stroke="black" fill="none" stroke-linecap="round"></path><path d="M 36.659,205.939 C 37.682,213.102 37.480,213.132 38.257,220.329" stroke-width="5.005" stroke="black" fill="none" stroke-linecap="round"></path><path d="M 38.257,220.329 C 39.078,227.921 38.860,227.949 39.855,235.517" stroke-width="4.817" stroke="black" fill="none" stroke-linecap="round"></path><path d="M 39.855,235.517 C 40.857,243.138 41.223,243.089 42.252,250.706" stroke-width="4.753" stroke="black" fill="none" stroke-linecap="round"></path><path d="M 42.252,250.706 C 43.221,257.878 43.250,257.884 43.850,265.095" stroke-width="4.828" stroke="black" fill="none" stroke-linecap="round"></path><path d="M 43.850,265.095 C 44.448,272.273 44.034,272.309 44.649,279.485" stroke-width="4.946" stroke="black" fill="none" stroke-linecap="round"></path><path d="M 44.649,279.485 C 45.233,286.298 45.424,286.282 46.247,293.074" stroke-width="4.879" stroke="black" fill="none" stroke-linecap="round"></path><path d="M 46.247,293.074 C 47.022,299.473 47.225,299.453 47.845,305.865" stroke-width="5.044" stroke="black" fill="none" stroke-linecap="round"></path><path d="M 47.845,305.865 C 48.423,311.843 47.957,311.896 48.644,317.856" stroke-width="5.111" stroke="black" fill="none" stroke-linecap="round"></path><path d="M 48.644,317.856 C 49.155,322.288 49.546,322.237 50.242,326.649" stroke-width="5.638" stroke="black" fill="none" stroke-linecap="round"></path><path d="M 68.619,150.781 C 69.418,157.176 69.274,157.198 70.217,163.571" stroke-width="8.549" stroke="black" fill="none" stroke-linecap="round"></path><path d="M 70.217,163.571 C 70.872,167.990 71.081,167.957 71.815,172.365" stroke-width="6.601" stroke="black" fill="none" stroke-linecap="round"></path><path d="M 71.815,172.365 C 72.679,177.550 72.415,177.598 73.413,182.757" stroke-width="5.736" stroke="black" fill="none" stroke-linecap="round"></path><path d="M 73.413,182.757 C 74.812,189.989 74.987,189.957 76.609,197.146" stroke-width="6.067" stroke="black" fill="none" stroke-linecap="round"></path><path d="M 76.609,197.146 C 77.783,202.348 77.714,202.366 79.006,207.538" stroke-width="5.681" stroke="black" fill="none" stroke-linecap="round"></path><path d="M 79.006,207.538 C 79.711,210.360 79.899,210.312 80.604,213.134" stroke-width="6.294" stroke="black" fill="none" stroke-linecap="round"></path><path d="M 80.604,213.134 C 82.296,219.905 82.485,219.880 83.800,226.724" stroke-width="6.275" stroke="black" fill="none" stroke-linecap="round"></path><path d="M 83.800,226.724 C 84.482,230.273 84.131,230.330 84.599,233.919" stroke-width="6.220" stroke="black" fill="none" stroke-linecap="round"></path><path d="M 84.599,233.919 C 85.330,239.523 85.550,239.497 86.197,245.110" stroke-width="5.526" stroke="black" fill="none" stroke-linecap="round"></path><path d="M 86.197,245.110 C 86.748,249.890 86.744,249.901 86.996,254.703" stroke-width="6.432" stroke="black" fill="none" stroke-linecap="round"></path><path d="M 86.996,254.703 C 87.143,257.495 88.367,259.319 86.996,260.299" stroke-width="7.267" stroke="black" fill="none" stroke-linecap="round"></path><path d="M 86.996,260.299 C 85.571,261.318 84.051,259.859 81.403,258.700" stroke-width="8.004" stroke="black" fill="none" stroke-linecap="round"></path><path d="M 81.403,258.700 C 77.659,257.061 77.847,256.628 74.212,254.703" stroke-width="7.458" stroke="black" fill="none" stroke-linecap="round"></path><path d="M 74.212,254.703 C 71.055,253.031 71.116,252.863 67.820,251.505" stroke-width="7.443" stroke="black" fill="none" stroke-linecap="round"></path><path d="M 67.820,251.505 C 64.325,250.065 64.287,249.300 60.629,249.107" stroke-width="7.384" stroke="black" fill="none" stroke-linecap="round"></path><path d="M 60.629,249.107 C 56.697,248.900 56.600,249.762 52.639,250.706" stroke-width="7.297" stroke="black" fill="none" stroke-linecap="round"></path><path d="M 52.639,250.706 C 48.211,251.761 48.104,251.536 43.850,253.104" stroke-width="7.157" stroke="black" fill="none" stroke-linecap="round"></path><path d="M 43.850,253.104 C 40.513,254.334 36.546,256.302 37.458,256.302" stroke-width="7.350" stroke="black" fill="none" stroke-linecap="round"></path><path d="M 37.458,256.302 C 38.943,256.302 43.425,255.529 48.644,253.104" stroke-width="7.738" stroke="black" fill="none" stroke-linecap="round"></path><path d="M 48.644,253.104 C 54.611,250.333 54.237,249.507 59.830,245.910" stroke-width="5.637" stroke="black" fill="none" stroke-linecap="round"></path><path d="M 59.830,245.910 C 65.423,242.312 65.685,242.666 71.016,238.715" stroke-width="5.306" stroke="black" fill="none" stroke-linecap="round"></path><path d="M 71.016,238.715 C 76.471,234.672 76.384,234.507 81.403,229.922" stroke-width="4.988" stroke="black" fill="none" stroke-linecap="round"></path><path d="M 81.403,229.922 C 85.572,226.113 85.509,226.029 89.393,221.928" stroke-width="5.273" stroke="black" fill="none" stroke-linecap="round"></path><path d="M 89.393,221.928 C 92.700,218.435 92.618,218.355 95.785,214.733" stroke-width="5.596" stroke="black" fill="none" stroke-linecap="round"></path><path d="M 95.785,214.733 C 98.211,211.960 97.982,211.735 100.579,209.137" stroke-width="6.057" stroke="black" fill="none" stroke-linecap="round"></path><path d="M 100.579,209.137 C 103.176,206.539 103.692,204.134 106.172,204.341" stroke-width="6.960" stroke="black" fill="none" stroke-linecap="round"></path><path d="M 106.172,204.341 C 108.486,204.534 109.066,206.851 110.167,209.936" stroke-width="7.859" stroke="black" fill="none" stroke-linecap="round"></path><path d="M 110.167,209.936 C 111.064,212.447 108.700,213.880 110.167,215.532" stroke-width="7.767" stroke="black" fill="none" stroke-linecap="round"></path><path d="M 110.167,215.532 C 111.896,217.478 113.803,215.555 116.559,217.131" stroke-width="8.409" stroke="black" fill="none" stroke-linecap="round"></path><path d="M 116.559,217.131 C 119.396,218.753 118.566,221.330 121.353,221.928" stroke-width="8.078" stroke="black" fill="none" stroke-linecap="round"></path><path d="M 121.353,221.928 C 124.159,222.529 124.824,221.200 127.745,219.529" stroke-width="7.992" stroke="black" fill="none" stroke-linecap="round"></path><path d="M 127.745,219.529 C 130.417,218.002 129.851,216.153 132.539,215.532" stroke-width="7.986" stroke="black" fill="none" stroke-linecap="round"></path><path d="M 132.539,215.532 C 135.045,214.954 135.795,215.643 138.132,217.131" stroke-width="8.203" stroke="black" fill="none" stroke-linecap="round"></path><path d="M 138.132,217.131 C 140.189,218.441 139.963,218.981 141.328,221.128" stroke-width="7.933" stroke="black" fill="none" stroke-linecap="round"></path><path d="M 141.328,221.128 C 142.759,223.378 142.671,223.463 143.725,225.924" stroke-width="7.821" stroke="black" fill="none" stroke-linecap="round"></path><path d="M 143.725,225.924 C 145.068,229.059 144.756,229.195 146.122,232.320" stroke-width="6.785" stroke="black" fill="none" stroke-linecap="round"></path><path d="M 146.122,232.320 C 147.553,235.590 148.112,235.363 149.318,238.715" stroke-width="6.380" stroke="black" fill="none" stroke-linecap="round"></path><path d="M 149.318,238.715 C 151.708,245.356 152.525,245.469 153.313,252.305" stroke-width="6.399" stroke="black" fill="none" stroke-linecap="round"></path><path d="M 153.313,252.305 C 153.724,255.861 153.380,258.875 151.715,259.499" stroke-width="7.090" stroke="black" fill="none" stroke-linecap="round"></path><path d="M 151.715,259.499 C 150.184,260.074 148.447,257.537 146.921,254.703" stroke-width="7.655" stroke="black" fill="none" stroke-linecap="round"></path><path d="M 146.921,254.703 C 145.650,252.341 146.496,251.909 146.122,249.107" stroke-width="7.001" stroke="black" fill="none" stroke-linecap="round"></path><path d="M 146.122,249.107 C 145.697,245.913 145.524,245.922 145.323,242.712" stroke-width="6.735" stroke="black" fill="none" stroke-linecap="round"></path><path d="M 145.323,242.712 C 145.124,239.527 145.156,239.507 145.323,236.317" stroke-width="6.597" stroke="black" fill="none" stroke-linecap="round"></path><path d="M 145.323,236.317 C 145.555,231.912 145.400,231.860 146.122,227.523" stroke-width="6.941" stroke="black" fill="none" stroke-linecap="round"></path><path d="M 146.122,227.523 C 146.598,224.665 146.057,224.008 147.720,221.928" stroke-width="7.446" stroke="black" fill="none" stroke-linecap="round"></path><path d="M 147.720,221.928 C 149.253,220.011 149.974,220.255 152.514,219.529" stroke-width="8.132" stroke="black" fill="none" stroke-linecap="round"></path><path d="M 152.514,219.529 C 155.567,218.657 155.811,219.545 158.906,218.730" stroke-width="8.294" stroke="black" fill="none" stroke-linecap="round"></path><path d="M 158.906,218.730 C 163.401,217.546 163.383,217.330 167.695,215.532" stroke-width="6.478" stroke="black" fill="none" stroke-linecap="round"></path><path d="M 167.695,215.532 C 172.971,213.333 173.064,213.455 178.082,210.736" stroke-width="5.565" stroke="black" fill="none" stroke-linecap="round"></path><path d="M 178.082,210.736 C 182.652,208.259 182.609,208.125 186.871,205.140" stroke-width="5.575" stroke="black" fill="none" stroke-linecap="round"></path><path d="M 186.871,205.140 C 190.599,202.529 190.627,202.523 194.062,199.544" stroke-width="5.849" stroke="black" fill="none" stroke-linecap="round"></path><path d="M 194.062,199.544 C 196.619,197.327 196.367,197.047 198.856,194.748" stroke-width="6.246" stroke="black" fill="none" stroke-linecap="round"></path><path d="M 198.856,194.748 C 201.561,192.250 202.317,189.951 204.449,189.951" stroke-width="6.985" stroke="black" fill="none" stroke-linecap="round"></path><path d="M 204.449,189.951 C 205.913,189.951 205.738,192.270 206.047,194.748" stroke-width="8.027" stroke="black" fill="none" stroke-linecap="round"></path><path d="M 206.047,194.748 C 206.537,198.665 205.610,198.799 206.047,202.742" stroke-width="7.494" stroke="black" fill="none" stroke-linecap="round"></path><path d="M 206.047,202.742 C 206.409,205.993 205.782,206.713 207.645,209.137" stroke-width="7.550" stroke="black" fill="none" stroke-linecap="round"></path><path d="M 207.645,209.137 C 209.777,211.909 210.591,211.841 214.037,213.134" stroke-width="7.392" stroke="black" fill="none" stroke-linecap="round"></path><path d="M 214.037,213.134 C 216.983,214.239 217.663,214.785 220.429,213.934" stroke-width="7.513" stroke="black" fill="none" stroke-linecap="round"></path><path d="M 220.429,213.934 C 222.856,213.186 222.745,212.177 224.425,209.936" stroke-width="7.677" stroke="black" fill="none" stroke-linecap="round"></path><path d="M 224.425,209.936 C 226.340,207.381 225.347,206.425 227.620,204.341" stroke-width="7.881" stroke="black" fill="none" stroke-linecap="round"></path><path d="M 227.620,204.341 C 230.141,202.029 230.816,202.742 234.013,201.143" stroke-width="8.298" stroke="black" fill="none" stroke-linecap="round"></path><path d="M 234.013,201.143 C 236.410,199.944 236.379,199.878 238.806,198.745" stroke-width="7.222" stroke="black" fill="none" stroke-linecap="round"></path><path d="M 238.806,198.745 C 242.371,197.081 242.837,197.779 245.998,195.547" stroke-width="6.522" stroke="black" fill="none" stroke-linecap="round"></path><path d="M 245.998,195.547 C 249.629,192.983 249.194,192.350 252.390,189.152" stroke-width="6.055" stroke="black" fill="none" stroke-linecap="round"></path><path d="M 252.390,189.152 C 255.586,185.954 255.831,186.162 258.782,182.757" stroke-width="5.839" stroke="black" fill="none" stroke-linecap="round"></path><path d="M 258.782,182.757 C 261.025,180.167 260.584,179.794 262.777,177.161" stroke-width="6.226" stroke="black" fill="none" stroke-linecap="round"></path><path d="M 262.777,177.161 C 264.579,174.997 264.774,175.162 266.772,173.164" stroke-width="6.587" stroke="black" fill="none" stroke-linecap="round"></path><path d="M 266.772,173.164 C 268.769,171.165 268.880,169.167 270.767,169.167" stroke-width="7.339" stroke="black" fill="none" stroke-linecap="round"></path><path d="M 270.767,169.167 C 272.475,169.167 272.757,170.952 273.963,173.164" stroke-width="8.108" stroke="black" fill="none" stroke-linecap="round"></path><path d="M 273.963,173.164 C 275.154,175.349 275.372,175.507 275.561,177.960" stroke-width="7.936" stroke="black" fill="none" stroke-linecap="round"></path><path d="M 275.561,177.960 C 275.771,180.703 275.315,180.788 274.762,183.556" stroke-width="7.758" stroke="black" fill="none" stroke-linecap="round"></path><path d="M 274.762,183.556 C 274.116,186.784 271.208,188.777 273.164,189.951" stroke-width="7.917" stroke="black" fill="none" stroke-linecap="round"></path><path d="M 273.164,189.951 C 277.200,192.375 280.069,191.493 286.747,190.751" stroke-width="7.607" stroke="black" fill="none" stroke-linecap="round"></path><path d="M 286.747,190.751 C 294.451,189.894 294.337,188.752 301.928,186.754" stroke-width="5.290" stroke="black" fill="none" stroke-linecap="round"></path><path d="M 301.928,186.754 C 309.518,184.755 309.547,184.858 317.109,182.757" stroke-width="4.847" stroke="black" fill="none" stroke-linecap="round"></path><path d="M 317.109,182.757 C 323.929,180.861 323.957,180.933 330.692,178.760" stroke-width="4.979" stroke="black" fill="none" stroke-linecap="round"></path><path d="M 330.692,178.760 C 336.342,176.936 336.245,176.641 341.878,174.763" stroke-width="5.108" stroke="black" fill="none" stroke-linecap="round"></path><path d="M 341.878,174.763 C 345.833,173.444 345.837,173.426 349.868,172.365" stroke-width="5.725" stroke="black" fill="none" stroke-linecap="round"></path><path d="M 349.868,172.365 C 353.427,171.427 356.410,170.117 357.059,170.766" stroke-width="6.801" stroke="black" fill="none" stroke-linecap="round"></path><path d="M 357.059,170.766 C 357.608,171.316 354.571,172.665 352.265,174.763" stroke-width="7.837" stroke="black" fill="none" stroke-linecap="round"></path><path d="M 352.265,174.763 C 350.177,176.662 350.168,176.671 348.270,178.760" stroke-width="7.047" stroke="black" fill="none" stroke-linecap="round"></path><path d="M 348.270,178.760 C 346.173,181.067 345.893,180.925 344.275,183.556" stroke-width="6.715" stroke="black" fill="none" stroke-linecap="round"></path><path d="M 344.275,183.556 C 342.697,186.122 342.837,186.273 341.878,189.152" stroke-width="6.722" stroke="black" fill="none" stroke-linecap="round"></path><path d="M 341.878,189.152 C 340.839,192.269 340.280,192.380 340.280,195.547" stroke-width="6.475" stroke="black" fill="none" stroke-linecap="round"></path><path d="M 340.280,195.547 C 340.280,197.976 340.024,199.916 341.878,200.344" stroke-width="7.370" stroke="black" fill="none" stroke-linecap="round"></path><path d="M 341.878,200.344 C 345.218,201.115 346.400,199.498 350.667,197.945" stroke-width="7.178" stroke="black" fill="none" stroke-linecap="round"></path><path d="M 350.667,197.945 C 355.189,196.300 355.345,196.416 359.456,193.948" stroke-width="6.200" stroke="black" fill="none" stroke-linecap="round"></path><path d="M 359.456,193.948 C 363.335,191.620 362.841,190.817 366.647,188.353" stroke-width="5.867" stroke="black" fill="none" stroke-linecap="round"></path><path d="M 366.647,188.353 C 369.632,186.420 370.012,187.018 373.039,185.155" stroke-width="6.188" stroke="black" fill="none" stroke-linecap="round"></path><path d="M 373.039,185.155 C 375.206,183.821 374.888,183.324 377.034,181.957" stroke-width="6.681" stroke="black" fill="none" stroke-linecap="round"></path><path d="M 377.034,181.957 C 379.282,180.526 379.255,180.131 381.828,179.559" stroke-width="7.411" stroke="black" fill="none" stroke-linecap="round"></path><path d="M 381.828,179.559 C 386.446,178.532 386.776,179.815 391.416,178.760" stroke-width="7.962" stroke="black" fill="none" stroke-linecap="round"></path><path d="M 391.416,178.760 C 395.565,177.816 395.619,177.556 399.406,175.562" stroke-width="6.459" stroke="black" fill="none" stroke-linecap="round"></path><path d="M 399.406,175.562 C 403.209,173.559 403.001,173.164 406.597,170.766" stroke-width="6.106" stroke="black" fill="none" stroke-linecap="round"></path><path d="M 406.597,170.766 C 408.994,169.167 408.894,168.995 411.391,167.568" stroke-width="6.587" stroke="black" fill="none" stroke-linecap="round"></path><path d="M 411.391,167.568 C 414.487,165.798 414.506,164.839 417.783,164.370" stroke-width="7.160" stroke="black" fill="none" stroke-linecap="round"></path><path d="M 417.783,164.370 C 420.099,164.039 420.198,165.119 422.577,165.969" stroke-width="8.093" stroke="black" fill="none" stroke-linecap="round"></path><path d="M 422.577,165.969 C 425.791,167.118 425.643,167.702 428.969,168.367" stroke-width="6.845" stroke="black" fill="none" stroke-linecap="round"></path><path d="M 428.969,168.367 C 435.631,169.701 435.742,169.382 442.552,169.966" stroke-width="5.430" stroke="black" fill="none" stroke-linecap="round"></path><path d="M 442.552,169.966 C 449.724,170.581 449.743,170.766 456.934,170.766" stroke-width="5.027" stroke="black" fill="none" stroke-linecap="round"></path><path d="M 456.934,170.766 C 463.726,170.766 463.755,170.643 470.517,169.966" stroke-width="5.177" stroke="black" fill="none" stroke-linecap="round"></path><path d="M 470.517,169.966 C 475.740,169.444 475.937,169.880 480.904,168.367" stroke-width="5.440" stroke="black" fill="none" stroke-linecap="round"></path><path d="M 480.904,168.367 C 485.126,167.082 484.899,166.369 488.894,164.370" stroke-width="5.754" stroke="black" fill="none" stroke-linecap="round"></path></svg>