<svg xmlns="http://www.w3.org/2000/svg" xmlns:xlink="http://www.w3.org/1999/xlink" viewBox="0 0 576 416" width="576" height="416"><path d="M 299.531,154.778 C 301.129,149.582 305.861,146.215 302.727,144.385" stroke-width="7.972" stroke="black" fill="none" stroke-linecap="round"></path><path d="M 302.727,144.385 C 296.273,140.619 291.299,141.829 280.355,143.586" stroke-width="6.002" stroke="black" fill="none" stroke-linecap="round"></path><path d="M 280.355,143.586 C 258.940,147.025 258.718,147.804 238.008,154.778" stroke-width="4.500" stroke="black" fill="none" stroke-linecap="round"></path><path d="M 238.008,154.778 C 217.170,161.794 217.266,162.374 197.258,171.565" stroke-width="4.500" stroke="black" fill="none" stroke-linecap="round"></path><path d="M 197.258,171.565 C 178.114,180.360 178.206,180.654 159.705,190.751" stroke-width="4.500" stroke="black" fill="none" stroke-linecap="round"></path><path d="M 159.705,190.751 C 143.050,199.840 143.111,200.006 126.946,209.936" stroke-width="4.500" stroke="black" fill="none" stroke-linecap="round"></path><path d="M 126.946,209.936 C 120.340,213.995 120.159,213.835 114.162,218.730" stroke-width="4.500" stroke="black" fill="none" stroke-linecap="round"></path><path d="M 114.162,218.730 C 104.978,226.226 104.253,225.908 96.584,234.718" stroke-width="4.500" stroke="black" fill="none" stroke-linecap="round"></path><path d="M 96.584,234.718 C 93.467,238.299 91.726,240.058 92.589,243.511" stroke-width="4.920" stroke="black" fill="none" stroke-linecap="round"></path><path d="M 92.589,243.511 C 93.324,246.453 95.780,247.638 99.780,247.508" stroke-width="6.299" stroke="black" fill="none" stroke-linecap="round"></path><path d="M 99.780,247.508 C 120.549,246.838 121.352,246.509 142.127,241.913" stroke-width="4.500" stroke="black" fill="none" stroke-linecap="round"></path><path d="M 142.127,241.913 C 162.900,237.316 163.012,236.829 182.876,229.122" stroke-width="4.500" stroke="black" fill="none" stroke-linecap="round"></path><path d="M 182.876,229.122 C 202.163,221.640 202.032,221.056 220.429,211.535" stroke-width="4.500" stroke="black" fill="none" stroke-linecap="round"></path><path d="M 220.429,211.535 C 236.788,203.070 236.707,202.821 252.390,193.149" stroke-width="4.500" stroke="black" fill="none" stroke-linecap="round"></path><path d="M 252.390,193.149 C 265.870,184.835 266.047,184.981 278.757,175.562" stroke-width="4.500" stroke="black" fill="none" stroke-linecap="round"></path><path d="M 278.757,175.562 C 287.620,168.993 287.619,168.829 295.536,161.173" stroke-width="4.500" stroke="black" fill="none" stroke-linecap="round"></path><path d="M 295.536,161.173 C 299.604,157.238 301.098,156.995 302.727,152.379" stroke-width="4.755" stroke="black" fill="none" stroke-linecap="round"></path><path d="M 302.727,152.379 C 303.495,150.200 302.719,147.350 300.330,147.583" stroke-width="6.046" stroke="black" fill="none" stroke-linecap="round"></path><path d="M 300.330,147.583 C 286.339,148.949 284.875,150.725 269.968,155.577" stroke-width="4.965" stroke="black" fill="none" stroke-linecap="round"></path><path d="M 269.968,155.577 C 251.717,161.517 251.657,161.601 234.013,169.167" stroke-width="4.500" stroke="black" fill="none" stroke-linecap="round"></path><path d="M 234.013,169.167 C 218.099,175.990 218.126,176.191 202.851,184.356" stroke-width="4.500" stroke="black" fill="none" stroke-linecap="round"></path><path d="M 202.851,184.356 C 188.962,191.779 188.886,191.771 175.685,200.344" stroke-width="4.500" stroke="black" fill="none" stroke-linecap="round"></path><path d="M 175.685,200.344 C 166.114,206.560 165.822,206.418 157.308,213.934" stroke-width="4.500" stroke="black" fill="none" stroke-linecap="round"></path><path d="M 157.308,213.934 C 152.239,218.409 150.484,218.991 148.519,224.326" stroke-width="4.500" stroke="black" fill="none" stroke-linecap="round"></path><path d="M 148.519,224.326 C 147.687,226.585 149.210,228.913 151.715,229.122" stroke-width="6.307" stroke="black" fill="none" stroke-linecap="round"></path><path d="M 151.715,229.122 C 158.798,229.713 159.868,228.143 167.695,225.924" stroke-width="5.002" stroke="black" fill="none" stroke-linecap="round"></path><path d="M 167.695,225.924 C 183.838,221.349 183.819,221.136 199.655,215.532" stroke-width="4.500" stroke="black" fill="none" stroke-linecap="round"></path><path d="M 199.655,215.532 C 216.578,209.544 216.667,209.691 233.214,202.742" stroke-width="4.500" stroke="black" fill="none" stroke-linecap="round"></path><path d="M 233.214,202.742 C 249.027,196.101 248.761,195.474 264.375,188.353" stroke-width="4.500" stroke="black" fill="none" stroke-linecap="round"></path><path d="M 264.375,188.353 C 275.927,183.083 275.988,183.217 287.546,177.960" stroke-width="4.500" stroke="black" fill="none" stroke-linecap="round"></path><path d="M 287.546,177.960 C 293.566,175.223 297.114,170.551 299.531,172.365" stroke-width="4.500" stroke="black" fill="none" stroke-linecap="round"></path><path d="M 299.531,172.365 C 301.908,174.148 299.643,179.248 297.134,185.155" stroke-width="6.021" stroke="black" fill="none" stroke-linecap="round"></path><path d="M 297.134,185.155 C 292.851,195.236 291.319,194.626 285.948,204.341" stroke-width="4.500" stroke="black" fill="none" stroke-linecap="round"></path><path d="M 285.948,204.341 C 280.932,213.412 281.099,213.506 276.360,222.727" stroke-width="4.500" stroke="black" fill="none" stroke-linecap="round"></path><path d="M 276.360,222.727 C 273.908,227.496 273.963,227.523 271.566,232.320" stroke-width="5.018" stroke="black" fill="none" stroke-linecap="round"></path></svg>