<svg xmlns="http://www.w3.org/2000/svg" xmlns:xlink="http://www.w3.org/1999/xlink" viewBox="0 0 576 416" width="576" height="416"><path d="M 186.072,377.811 C 175.286,375.413 174.647,376.938 164.499,373.015" stroke-width="7.835" stroke="black" fill="none" stroke-linecap="round"></path><path d="M 164.499,373.015 C 157.069,370.143 156.712,369.773 150.916,364.221" stroke-width="5.001" stroke="black" fill="none" stroke-linecap="round"></path><path d="M 150.916,364.221 C 137.936,351.787 137.886,351.408 126.946,337.042" stroke-width="4.500" stroke="black" fill="none" stroke-linecap="round"></path><path d="M 126.946,337.042 C 118.710,326.227 119.447,325.623 112.564,313.859" stroke-width="4.500" stroke="black" fill="none" stroke-linecap="round"></path><path d="M 112.564,313.859 C 109.859,309.235 109.575,309.296 107.770,304.266" stroke-width="4.538" stroke="black" fill="none" stroke-linecap="round"></path><path d="M 107.770,304.266 C 103.982,293.708 104.173,293.558 101.378,282.682" stroke-width="4.500" stroke="black" fill="none" stroke-linecap="round"></path><path d="M 101.378,282.682 C 100.578,279.568 100.186,279.437 100.579,276.287" stroke-width="5.457" stroke="black" fill="none" stroke-linecap="round"></path><path d="M 100.579,276.287 C 101.384,269.844 100.725,268.837 103.775,263.496" stroke-width="5.080" stroke="black" fill="none" stroke-linecap="round"></path><path d="M 103.775,263.496 C 105.519,260.443 106.676,260.470 110.167,259.499" stroke-width="5.764" stroke="black" fill="none" stroke-linecap="round"></path><path d="M 110.167,259.499 C 113.867,258.471 114.385,258.556 118.157,259.499" stroke-width="6.010" stroke="black" fill="none" stroke-linecap="round"></path><path d="M 118.157,259.499 C 122.375,260.554 122.328,261.204 126.147,263.496" stroke-width="6.723" stroke="black" fill="none" stroke-linecap="round"></path><path d="M 126.147,263.496 C 130.318,266.000 130.238,266.167 134.137,269.092" stroke-width="5.987" stroke="black" fill="none" stroke-linecap="round"></path><path d="M 134.137,269.092 C 138.228,272.162 138.297,272.106 142.127,275.488" stroke-width="5.526" stroke="black" fill="none" stroke-linecap="round"></path><path d="M 142.127,275.488 C 145.088,278.102 145.031,278.186 147.720,281.083" stroke-width="5.864" stroke="black" fill="none" stroke-linecap="round"></path><path d="M 147.720,281.083 C 150.225,283.782 149.828,284.198 152.514,286.679" stroke-width="6.070" stroke="black" fill="none" stroke-linecap="round"></path><path d="M 152.514,286.679 C 155.021,288.994 155.507,291.048 158.107,290.676" stroke-width="6.973" stroke="black" fill="none" stroke-linecap="round"></path><path d="M 158.107,290.676 C 161.100,290.248 160.632,287.536 163.700,285.080" stroke-width="7.499" stroke="black" fill="none" stroke-linecap="round"></path><path d="M 163.700,285.080 C 166.624,282.740 166.655,281.445 170.092,281.083" stroke-width="7.406" stroke="black" fill="none" stroke-linecap="round"></path><path d="M 170.092,281.083 C 174.246,280.646 175.005,281.289 178.881,283.482" stroke-width="7.219" stroke="black" fill="none" stroke-linecap="round"></path><path d="M 178.881,283.482 C 184.193,286.485 184.561,286.715 188.469,291.476" stroke-width="5.555" stroke="black" fill="none" stroke-linecap="round"></path><path d="M 188.469,291.476 C 193.749,297.906 193.420,298.386 197.258,305.865" stroke-width="4.786" stroke="black" fill="none" stroke-linecap="round"></path><path d="M 197.258,305.865 C 201.010,313.175 200.991,313.277 203.650,321.054" stroke-width="4.633" stroke="black" fill="none" stroke-linecap="round"></path><path d="M 203.650,321.054 C 206.185,328.465 206.190,328.547 207.645,336.242" stroke-width="4.664" stroke="black" fill="none" stroke-linecap="round"></path><path d="M 207.645,336.242 C 208.987,343.336 208.793,343.418 209.243,350.631" stroke-width="4.800" stroke="black" fill="none" stroke-linecap="round"></path><path d="M 209.243,350.631 C 209.592,356.208 210.114,356.381 209.243,361.823" stroke-width="5.301" stroke="black" fill="none" stroke-linecap="round"></path><path d="M 209.243,361.823 C 208.516,366.373 208.289,366.630 206.047,370.617" stroke-width="5.560" stroke="black" fill="none" stroke-linecap="round"></path><path d="M 206.047,370.617 C 204.694,373.025 204.050,372.615 202.052,374.614" stroke-width="6.346" stroke="black" fill="none" stroke-linecap="round"></path><path d="M 177.283,221.128 C 181.678,227.923 181.482,228.059 186.072,234.718" stroke-width="8.247" stroke="black" fill="none" stroke-linecap="round"></path><path d="M 186.072,234.718 C 189.473,239.651 189.373,239.770 193.263,244.311" stroke-width="5.917" stroke="black" fill="none" stroke-linecap="round"></path><path d="M 193.263,244.311 C 196.564,248.164 196.859,247.908 200.454,251.505" stroke-width="5.714" stroke="black" fill="none" stroke-linecap="round"></path><path d="M 200.454,251.505 C 203.251,254.303 203.043,254.557 206.047,257.101" stroke-width="6.007" stroke="black" fill="none" stroke-linecap="round"></path><path d="M 206.047,257.101 C 208.236,258.954 208.287,259.021 210.841,260.299" stroke-width="6.552" stroke="black" fill="none" stroke-linecap="round"></path><path d="M 210.841,260.299 C 213.081,261.419 215.323,262.992 215.635,261.898" stroke-width="7.600" stroke="black" fill="none" stroke-linecap="round"></path><path d="M 215.635,261.898 C 216.122,260.194 214.453,258.061 212.439,254.703" stroke-width="7.393" stroke="black" fill="none" stroke-linecap="round"></path><path d="M 212.439,254.703 C 209.659,250.067 209.369,250.210 206.047,245.910" stroke-width="6.048" stroke="black" fill="none" stroke-linecap="round"></path><path d="M 206.047,245.910 C 202.577,241.416 202.591,241.387 198.856,237.116" stroke-width="5.576" stroke="black" fill="none" stroke-linecap="round"></path><path d="M 198.856,237.116 C 196.998,234.992 195.352,232.301 194.861,233.119" stroke-width="6.352" stroke="black" fill="none" stroke-linecap="round"></path><path d="M 194.861,233.119 C 194.154,234.299 194.331,238.131 196.459,241.113" stroke-width="7.620" stroke="black" fill="none" stroke-linecap="round"></path><path d="M 196.459,241.113 C 198.326,243.727 200.058,244.544 202.851,244.311" stroke-width="7.491" stroke="black" fill="none" stroke-linecap="round"></path><path d="M 202.851,244.311 C 204.852,244.144 205.757,242.642 206.047,240.314" stroke-width="7.740" stroke="black" fill="none" stroke-linecap="round"></path><path d="M 206.047,240.314 C 206.556,236.247 205.574,235.834 204.449,231.520" stroke-width="6.251" stroke="black" fill="none" stroke-linecap="round"></path><path d="M 204.449,231.520 C 203.177,226.641 202.785,226.745 201.253,221.928" stroke-width="5.813" stroke="black" fill="none" stroke-linecap="round"></path><path d="M 201.253,221.928 C 199.989,217.951 200.100,217.916 198.856,213.934" stroke-width="5.968" stroke="black" fill="none" stroke-linecap="round"></path><path d="M 198.856,213.934 C 198.103,211.521 196.483,210.883 197.258,209.137" stroke-width="6.615" stroke="black" fill="none" stroke-linecap="round"></path><path d="M 197.258,209.137 C 198.081,207.286 199.620,206.739 202.052,206.739" stroke-width="7.736" stroke="black" fill="none" stroke-linecap="round"></path><path d="M 202.052,206.739 C 204.814,206.739 204.781,208.126 207.645,209.137" stroke-width="6.925" stroke="black" fill="none" stroke-linecap="round"></path><path d="M 207.645,209.137 C 211.572,210.524 211.605,210.474 215.635,211.535" stroke-width="6.279" stroke="black" fill="none" stroke-linecap="round"></path><path d="M 215.635,211.535 C 219.195,212.472 219.209,212.908 222.826,213.134" stroke-width="6.279" stroke="black" fill="none" stroke-linecap="round"></path><path d="M 222.826,213.134 C 225.601,213.308 226.948,214.134 228.419,212.335" stroke-width="6.668" stroke="black" fill="none" stroke-linecap="round"></path><path d="M 228.419,212.335 C 230.543,209.738 230.334,208.302 230.017,204.341" stroke-width="7.043" stroke="black" fill="none" stroke-linecap="round"></path><path d="M 230.017,204.341 C 229.535,198.310 228.948,198.153 226.822,192.350" stroke-width="5.645" stroke="black" fill="none" stroke-linecap="round"></path><path d="M 226.822,192.350 C 224.554,186.162 224.431,186.126 221.228,180.359" stroke-width="5.223" stroke="black" fill="none" stroke-linecap="round"></path><path d="M 221.228,180.359 C 218.438,175.334 218.419,175.246 214.836,170.766" stroke-width="5.320" stroke="black" fill="none" stroke-linecap="round"></path><path d="M 214.836,170.766 C 212.027,167.252 211.746,167.454 208.444,164.370" stroke-width="5.773" stroke="black" fill="none" stroke-linecap="round"></path><path d="M 208.444,164.370 C 205.754,161.858 205.942,161.507 202.851,159.574" stroke-width="6.118" stroke="black" fill="none" stroke-linecap="round"></path><path d="M 202.851,159.574 C 199.550,157.510 196.552,155.931 195.660,156.376" stroke-width="6.879" stroke="black" fill="none" stroke-linecap="round"></path><path d="M 195.660,156.376 C 194.954,156.730 196.993,159.639 199.655,161.173" stroke-width="7.650" stroke="black" fill="none" stroke-linecap="round"></path><path d="M 199.655,161.173 C 210.177,167.234 210.786,166.493 222.027,171.565" stroke-width="5.710" stroke="black" fill="none" stroke-linecap="round"></path><path d="M 222.027,171.565 C 231.160,175.686 231.257,175.470 240.405,179.559" stroke-width="4.610" stroke="black" fill="none" stroke-linecap="round"></path><path d="M 240.405,179.559 C 250.034,183.864 250.233,183.490 259.581,188.353" stroke-width="4.500" stroke="black" fill="none" stroke-linecap="round"></path><path d="M 259.581,188.353 C 270.208,193.882 270.300,193.834 280.355,200.344" stroke-width="4.500" stroke="black" fill="none" stroke-linecap="round"></path><path d="M 280.355,200.344 C 290.674,207.024 290.775,207.004 300.330,214.733" stroke-width="4.500" stroke="black" fill="none" stroke-linecap="round"></path><path d="M 300.330,214.733 C 309.552,222.193 309.100,222.748 317.908,230.721" stroke-width="4.500" stroke="black" fill="none" stroke-linecap="round"></path><path d="M 317.908,230.721 C 325.879,237.937 326.075,237.728 333.888,245.110" stroke-width="4.500" stroke="black" fill="none" stroke-linecap="round"></path><path d="M 333.888,245.110 C 340.457,251.318 340.527,251.280 346.672,257.901" stroke-width="4.500" stroke="black" fill="none" stroke-linecap="round"></path><path d="M 346.672,257.901 C 350.914,262.471 350.601,262.754 354.662,267.494" stroke-width="4.839" stroke="black" fill="none" stroke-linecap="round"></path><path d="M 354.662,267.494 C 357.792,271.147 357.924,271.035 361.054,274.688" stroke-width="5.440" stroke="black" fill="none" stroke-linecap="round"></path><path d="M 361.054,274.688 C 362.718,276.631 365.174,278.223 364.250,278.685" stroke-width="6.450" stroke="black" fill="none" stroke-linecap="round"></path><path d="M 364.250,278.685 C 362.777,279.422 359.849,278.882 356.260,277.086" stroke-width="7.477" stroke="black" fill="none" stroke-linecap="round"></path><path d="M 356.260,277.086 C 347.864,272.886 347.912,272.377 340.280,266.694" stroke-width="4.875" stroke="black" fill="none" stroke-linecap="round"></path><path d="M 340.280,266.694 C 330.734,259.586 330.607,259.620 321.903,251.505" stroke-width="4.500" stroke="black" fill="none" stroke-linecap="round"></path><path d="M 321.903,251.505 C 313.029,243.232 313.420,242.799 305.124,233.919" stroke-width="4.500" stroke="black" fill="none" stroke-linecap="round"></path><path d="M 305.124,233.919 C 296.242,224.412 295.624,224.888 287.546,214.733" stroke-width="4.500" stroke="black" fill="none" stroke-linecap="round"></path><path d="M 287.546,214.733 C 280.044,205.302 280.706,204.772 273.963,194.748" stroke-width="4.500" stroke="black" fill="none" stroke-linecap="round"></path><path d="M 273.963,194.748 C 266.724,183.988 266.724,183.987 259.581,173.164" stroke-width="4.500" stroke="black" fill="none" stroke-linecap="round"></path><path d="M 259.581,173.164 C 252.742,162.803 253.165,162.504 245.998,152.379" stroke-width="4.500" stroke="black" fill="none" stroke-linecap="round"></path><path d="M 245.998,152.379 C 239.582,143.318 239.214,143.580 232.415,134.793" stroke-width="4.500" stroke="black" fill="none" stroke-linecap="round"></path><path d="M 232.415,134.793 C 229.626,131.189 229.750,131.086 226.822,127.598" stroke-width="5.049" stroke="black" fill="none" stroke-linecap="round"></path><path d="M 226.822,127.598 C 221.361,121.094 221.813,120.399 215.635,114.807" stroke-width="4.653" stroke="black" fill="none" stroke-linecap="round"></path><path d="M 215.635,114.807 C 213.423,112.805 212.299,111.793 210.042,112.409" stroke-width="5.879" stroke="black" fill="none" stroke-linecap="round"></path><path d="M 210.042,112.409 C 207.905,112.992 207.244,114.620 206.846,117.206" stroke-width="7.391" stroke="black" fill="none" stroke-linecap="round"></path><path d="M 206.846,117.206 C 206.445,119.816 207.468,120.067 208.444,122.802" stroke-width="6.819" stroke="black" fill="none" stroke-linecap="round"></path><path d="M 208.444,122.802 C 209.466,125.662 209.287,125.805 210.841,128.397" stroke-width="6.683" stroke="black" fill="none" stroke-linecap="round"></path><path d="M 210.841,128.397 C 212.882,131.801 213.168,134.344 215.635,134.793" stroke-width="7.095" stroke="black" fill="none" stroke-linecap="round"></path><path d="M 215.635,134.793 C 217.563,135.143 218.774,132.854 219.630,129.996" stroke-width="7.466" stroke="black" fill="none" stroke-linecap="round"></path><path d="M 219.630,129.996 C 221.171,124.860 220.243,124.408 220.429,118.804" stroke-width="5.797" stroke="black" fill="none" stroke-linecap="round"></path><path d="M 220.429,118.804 C 220.642,112.417 220.429,112.409 220.429,106.014" stroke-width="5.318" stroke="black" fill="none" stroke-linecap="round"></path><path d="M 220.429,106.014 C 220.429,100.018 220.199,100.008 220.429,94.023" stroke-width="5.290" stroke="black" fill="none" stroke-linecap="round"></path><path d="M 220.429,94.023 C 220.599,89.616 219.711,89.025 221.228,85.230" stroke-width="5.718" stroke="black" fill="none" stroke-linecap="round"></path><path d="M 221.228,85.230 C 222.108,83.030 223.426,81.832 225.223,82.032" stroke-width="7.061" stroke="black" fill="none" stroke-linecap="round"></path><path d="M 225.223,82.032 C 227.021,82.232 226.437,86.171 228.419,86.029" stroke-width="7.557" stroke="black" fill="none" stroke-linecap="round"></path><path d="M 228.419,86.029 C 232.030,85.771 233.103,84.304 236.410,81.233" stroke-width="7.936" stroke="black" fill="none" stroke-linecap="round"></path><path d="M 236.410,81.233 C 238.696,79.108 238.262,78.548 239.605,75.637" stroke-width="6.894" stroke="black" fill="none" stroke-linecap="round"></path><path d="M 239.605,75.637 C 240.659,73.352 240.317,70.249 241.203,70.840" stroke-width="6.924" stroke="black" fill="none" stroke-linecap="round"></path><path d="M 241.203,70.840 C 242.714,71.848 244.400,74.626 244.400,78.834" stroke-width="7.636" stroke="black" fill="none" stroke-linecap="round"></path><path d="M 244.400,78.834 C 244.400,92.213 243.344,92.507 241.203,106.014" stroke-width="4.500" stroke="black" fill="none" stroke-linecap="round"></path><path d="M 241.203,106.014 C 238.150,125.282 238.163,125.320 234.013,144.385" stroke-width="4.500" stroke="black" fill="none" stroke-linecap="round"></path><path d="M 234.013,144.385 C 229.374,165.690 228.815,165.569 223.625,186.754" stroke-width="4.500" stroke="black" fill="none" stroke-linecap="round"></path><path d="M 223.625,186.754 C 218.828,206.338 218.990,206.380 214.037,225.924" stroke-width="4.500" stroke="black" fill="none" stroke-linecap="round"></path><path d="M 214.037,225.924 C 211.799,234.759 211.966,234.816 209.243,243.511" stroke-width="4.500" stroke="black" fill="none" stroke-linecap="round"></path><path d="M 209.243,243.511 C 201.579,267.991 201.527,267.988 193.263,292.275" stroke-width="4.500" stroke="black" fill="none" stroke-linecap="round"></path><path d="M 193.263,292.275 C 188.743,305.560 188.576,305.505 183.675,318.655" stroke-width="4.500" stroke="black" fill="none" stroke-linecap="round"></path><path d="M 183.675,318.655 C 179.787,329.088 179.268,328.910 175.685,339.440" stroke-width="4.500" stroke="black" fill="none" stroke-linecap="round"></path><path d="M 175.685,339.440 C 172.876,347.696 173.378,347.860 170.891,356.227" stroke-width="4.500" stroke="black" fill="none" stroke-linecap="round"></path><path d="M 170.891,356.227 C 168.983,362.649 168.937,362.637 166.896,369.018" stroke-width="4.807" stroke="black" fill="none" stroke-linecap="round"></path><path d="M 166.896,369.018 C 165.741,372.629 165.698,372.615 164.499,376.212" stroke-width="5.718" stroke="black" fill="none" stroke-linecap="round"></path><path d="M 51.041,40.463 C 51.041,47.658 51.041,47.658 51.041,54.852" stroke-width="8.441" stroke="black" fill="none" stroke-linecap="round"></path><path d="M 51.041,54.852 C 51.041,59.249 51.250,59.259 51.041,63.646" stroke-width="7.424" stroke="black" fill="none" stroke-linecap="round"></path><path d="M 51.041,63.646 C 50.850,67.653 50.442,67.633 50.242,71.640" stroke-width="6.360" stroke="black" fill="none" stroke-linecap="round"></path><path d="M 50.242,71.640 C 50.043,75.627 50.452,75.648 50.242,79.634" stroke-width="6.105" stroke="black" fill="none" stroke-linecap="round"></path><path d="M 50.242,79.634 C 50.052,83.243 49.822,83.229 49.443,86.828" stroke-width="6.248" stroke="black" fill="none" stroke-linecap="round"></path><path d="M 49.443,86.828 C 49.023,90.823 49.065,90.828 48.644,94.822" stroke-width="6.066" stroke="black" fill="none" stroke-linecap="round"></path><path d="M 48.644,94.822 C 48.265,98.422 47.717,103.302 47.845,102.017" stroke-width="6.930" stroke="black" fill="none" stroke-linecap="round"></path><path d="M 18.282,54.852 C 21.878,51.655 21.637,51.336 25.473,48.457" stroke-width="8.462" stroke="black" fill="none" stroke-linecap="round"></path><path d="M 25.473,48.457 C 29.627,45.340 29.845,45.623 34.262,42.861" stroke-width="6.102" stroke="black" fill="none" stroke-linecap="round"></path><path d="M 34.262,42.861 C 39.433,39.628 39.494,39.723 44.649,36.466" stroke-width="5.472" stroke="black" fill="none" stroke-linecap="round"></path><path d="M 44.649,36.466 C 47.085,34.927 47.090,34.930 49.443,33.268" stroke-width="6.226" stroke="black" fill="none" stroke-linecap="round"></path><path d="M 49.443,33.268 C 53.882,30.134 53.911,30.167 58.232,26.873" stroke-width="5.692" stroke="black" fill="none" stroke-linecap="round"></path><path d="M 58.232,26.873 C 62.301,23.772 62.014,23.358 66.222,20.478" stroke-width="5.640" stroke="black" fill="none" stroke-linecap="round"></path><path d="M 66.222,20.478 C 69.605,18.162 70.006,18.754 73.413,16.481" stroke-width="6.651" stroke="black" fill="none" stroke-linecap="round"></path><path d="M 73.413,16.481 C 75.998,14.757 75.557,14.075 78.207,12.484" stroke-width="6.441" stroke="black" fill="none" stroke-linecap="round"></path><path d="M 78.207,12.484 C 81.549,10.478 86.262,8.566 85.398,9.286" stroke-width="6.970" stroke="black" fill="none" stroke-linecap="round"></path><path d="M 74.212,102.816 C 77.408,97.620 77.558,97.707 80.604,92.424" stroke-width="8.416" stroke="black" fill="none" stroke-linecap="round"></path><path d="M 80.604,92.424 C 83.551,87.314 83.476,87.267 86.197,82.032" stroke-width="5.973" stroke="black" fill="none" stroke-linecap="round"></path><path d="M 86.197,82.032 C 88.670,77.275 88.835,77.342 90.991,72.439" stroke-width="5.648" stroke="black" fill="none" stroke-linecap="round"></path><path d="M 90.991,72.439 C 93.230,67.349 93.229,67.322 94.986,62.047" stroke-width="5.499" stroke="black" fill="none" stroke-linecap="round"></path><path d="M 94.986,62.047 C 96.425,57.729 96.132,57.635 97.383,53.253" stroke-width="5.895" stroke="black" fill="none" stroke-linecap="round"></path><path d="M 97.383,53.253 C 98.529,49.241 98.816,49.313 99.780,45.259" stroke-width="5.993" stroke="black" fill="none" stroke-linecap="round"></path><path d="M 99.780,45.259 C 100.813,40.919 101.134,40.873 101.378,36.466" stroke-width="6.686" stroke="black" fill="none" stroke-linecap="round"></path><path d="M 101.378,36.466 C 101.533,33.679 102.178,32.469 100.579,30.870" stroke-width="7.376" stroke="black" fill="none" stroke-linecap="round"></path><path d="M 100.579,30.870 C 98.982,29.272 97.509,29.349 94.986,30.071" stroke-width="7.870" stroke="black" fill="none" stroke-linecap="round"></path><path d="M 94.986,30.071 C 91.916,30.948 91.795,31.665 89.393,34.068" stroke-width="7.597" stroke="black" fill="none" stroke-linecap="round"></path><path d="M 89.393,34.068 C 86.601,36.861 86.751,37.114 84.599,40.463" stroke-width="7.406" stroke="black" fill="none" stroke-linecap="round"></path><path d="M 84.599,40.463 C 83.156,42.710 81.182,44.409 82.202,45.259" stroke-width="7.660" stroke="black" fill="none" stroke-linecap="round"></path><path d="M 82.202,45.259 C 83.579,46.407 85.865,45.166 89.393,44.460" stroke-width="7.986" stroke="black" fill="none" stroke-linecap="round"></path><path d="M 89.393,44.460 C 91.858,43.967 91.790,43.661 94.187,42.861" stroke-width="7.147" stroke="black" fill="none" stroke-linecap="round"></path><path d="M 94.187,42.861 C 96.584,42.062 96.512,41.726 98.981,41.262" stroke-width="6.999" stroke="black" fill="none" stroke-linecap="round"></path><path d="M 98.981,41.262 C 102.904,40.526 103.430,39.421 106.971,40.463" stroke-width="7.194" stroke="black" fill="none" stroke-linecap="round"></path><path d="M 106.971,40.463 C 110.221,41.419 110.952,42.235 112.564,45.259" stroke-width="7.663" stroke="black" fill="none" stroke-linecap="round"></path><path d="M 112.564,45.259 C 114.148,48.231 112.800,48.882 113.363,52.454" stroke-width="7.491" stroke="black" fill="none" stroke-linecap="round"></path><path d="M 113.363,52.454 C 113.998,56.476 113.818,56.558 114.961,60.448" stroke-width="7.297" stroke="black" fill="none" stroke-linecap="round"></path><path d="M 114.961,60.448 C 115.815,63.353 115.315,64.204 117.358,66.044" stroke-width="7.529" stroke="black" fill="none" stroke-linecap="round"></path><path d="M 117.358,66.044 C 119.310,67.802 120.227,68.073 122.951,67.643" stroke-width="7.638" stroke="black" fill="none" stroke-linecap="round"></path><path d="M 122.951,67.643 C 127.817,66.874 128.023,66.131 132.539,63.646" stroke-width="7.101" stroke="black" fill="none" stroke-linecap="round"></path><path d="M 132.539,63.646 C 136.013,61.734 135.813,61.345 138.931,58.849" stroke-width="6.470" stroke="black" fill="none" stroke-linecap="round"></path><path d="M 138.931,58.849 C 141.806,56.548 142.044,56.741 144.524,54.053" stroke-width="6.252" stroke="black" fill="none" stroke-linecap="round"></path><path d="M 144.524,54.053 C 146.838,51.545 146.425,51.180 148.519,48.457" stroke-width="6.360" stroke="black" fill="none" stroke-linecap="round"></path><path d="M 148.519,48.457 C 150.420,45.984 150.705,46.195 152.514,43.661" stroke-width="6.514" stroke="black" fill="none" stroke-linecap="round"></path><path d="M 152.514,43.661 C 154.700,40.599 155.648,37.265 156.509,37.265" stroke-width="7.088" stroke="black" fill="none" stroke-linecap="round"></path><path d="M 156.509,37.265 C 157.246,37.265 156.270,40.491 155.710,43.661" stroke-width="7.999" stroke="black" fill="none" stroke-linecap="round"></path><path d="M 155.710,43.661 C 155.071,47.285 154.871,47.249 154.112,50.855" stroke-width="6.797" stroke="black" fill="none" stroke-linecap="round"></path><path d="M 154.112,50.855 C 153.273,54.844 153.149,54.827 152.514,58.849" stroke-width="6.190" stroke="black" fill="none" stroke-linecap="round"></path><path d="M 152.514,58.849 C 151.951,62.421 151.916,62.436 151.715,66.044" stroke-width="6.275" stroke="black" fill="none" stroke-linecap="round"></path><path d="M 151.715,66.044 C 151.516,69.630 151.492,69.657 151.715,73.238" stroke-width="6.309" stroke="black" fill="none" stroke-linecap="round"></path><path d="M 151.715,73.238 C 151.891,76.052 151.433,76.310 152.514,78.834" stroke-width="6.614" stroke="black" fill="none" stroke-linecap="round"></path><path d="M 152.514,78.834 C 153.830,81.905 154.119,82.038 156.509,84.430" stroke-width="7.225" stroke="black" fill="none" stroke-linecap="round"></path><path d="M 162.102,12.484 C 160.504,16.881 159.616,16.780 158.906,21.277" stroke-width="8.559" stroke="black" fill="none" stroke-linecap="round"></path><path d="M 158.906,21.277 C 158.418,24.375 158.214,27.299 159.705,27.672" stroke-width="8.153" stroke="black" fill="none" stroke-linecap="round"></path><path d="M 159.705,27.672 C 161.410,28.099 163.594,25.861 165.298,22.876" stroke-width="8.130" stroke="black" fill="none" stroke-linecap="round"></path><path d="M 165.298,22.876 C 166.790,20.265 166.534,19.535 166.097,16.481" stroke-width="7.727" stroke="black" fill="none" stroke-linecap="round"></path><path d="M 166.097,16.481 C 165.735,13.940 163.829,10.656 163.700,11.684" stroke-width="7.981" stroke="black" fill="none" stroke-linecap="round"></path><path d="M 215.635,22.876 C 211.241,22.476 211.181,21.836 206.846,22.077" stroke-width="8.573" stroke="black" fill="none" stroke-linecap="round"></path><path d="M 206.846,22.077 C 203.990,22.235 204.050,22.876 201.253,23.675" stroke-width="7.174" stroke="black" fill="none" stroke-linecap="round"></path><path d="M 201.253,23.675 C 198.457,24.475 198.349,24.198 195.660,25.274" stroke-width="6.840" stroke="black" fill="none" stroke-linecap="round"></path><path d="M 195.660,25.274 C 192.357,26.596 192.323,26.638 189.268,28.472" stroke-width="6.479" stroke="black" fill="none" stroke-linecap="round"></path><path d="M 189.268,28.472 C 186.330,30.236 186.188,30.165 183.675,32.469" stroke-width="6.569" stroke="black" fill="none" stroke-linecap="round"></path><path d="M 183.675,32.469 C 181.394,34.561 181.271,34.614 179.680,37.265" stroke-width="6.502" stroke="black" fill="none" stroke-linecap="round"></path><path d="M 179.680,37.265 C 177.675,40.609 177.418,40.722 176.484,44.460" stroke-width="7.019" stroke="black" fill="none" stroke-linecap="round"></path><path d="M 176.484,44.460 C 175.820,47.117 175.497,47.587 176.484,50.056" stroke-width="6.844" stroke="black" fill="none" stroke-linecap="round"></path><path d="M 176.484,50.056 C 177.894,53.582 178.034,54.647 181.278,56.451" stroke-width="7.148" stroke="black" fill="none" stroke-linecap="round"></path><path d="M 181.278,56.451 C 185.225,58.644 186.041,57.630 190.866,58.050" stroke-width="6.089" stroke="black" fill="none" stroke-linecap="round"></path><path d="M 190.866,58.050 C 195.230,58.429 195.368,58.765 199.655,58.050" stroke-width="5.979" stroke="black" fill="none" stroke-linecap="round"></path><path d="M 199.655,58.050 C 204.957,57.166 205.062,56.960 210.042,54.852" stroke-width="5.628" stroke="black" fill="none" stroke-linecap="round"></path><path d="M 210.042,54.852 C 215.449,52.564 215.470,52.414 220.429,49.256" stroke-width="5.404" stroke="black" fill="none" stroke-linecap="round"></path><path d="M 220.429,49.256 C 224.259,46.818 224.307,46.754 227.620,43.661" stroke-width="5.715" stroke="black" fill="none" stroke-linecap="round"></path><path d="M 227.620,43.661 C 230.300,41.159 230.141,40.959 232.415,38.065" stroke-width="6.169" stroke="black" fill="none" stroke-linecap="round"></path><path d="M 232.415,38.065 C 234.536,35.364 235.130,35.578 236.410,32.469" stroke-width="6.334" stroke="black" fill="none" stroke-linecap="round"></path><path d="M 236.410,32.469 C 237.927,28.783 238.994,27.436 238.008,24.475" stroke-width="6.927" stroke="black" fill="none" stroke-linecap="round"></path><path d="M 238.008,24.475 C 237.396,22.639 235.530,22.545 233.214,22.876" stroke-width="7.882" stroke="black" fill="none" stroke-linecap="round"></path><path d="M 233.214,22.876 C 229.937,23.344 229.249,23.645 226.822,26.074" stroke-width="7.565" stroke="black" fill="none" stroke-linecap="round"></path><path d="M 226.822,26.074 C 223.656,29.241 223.464,29.757 222.027,34.068" stroke-width="7.207" stroke="black" fill="none" stroke-linecap="round"></path><path d="M 222.027,34.068 C 220.667,38.151 220.217,39.065 221.228,42.861" stroke-width="7.193" stroke="black" fill="none" stroke-linecap="round"></path><path d="M 221.228,42.861 C 221.815,45.061 223.334,46.403 225.223,46.059" stroke-width="7.846" stroke="black" fill="none" stroke-linecap="round"></path><path d="M 225.223,46.059 C 227.728,45.603 228.032,43.971 230.017,41.262" stroke-width="7.629" stroke="black" fill="none" stroke-linecap="round"></path><path d="M 230.017,41.262 C 232.427,37.975 232.175,37.745 234.013,34.068" stroke-width="7.326" stroke="black" fill="none" stroke-linecap="round"></path><path d="M 234.013,34.068 C 235.770,30.550 235.451,30.390 237.208,26.873" stroke-width="7.341" stroke="black" fill="none" stroke-linecap="round"></path><path d="M 237.208,26.873 C 238.647,23.994 238.207,23.476 240.405,21.277" stroke-width="7.497" stroke="black" fill="none" stroke-linecap="round"></path><path d="M 240.405,21.277 C 242.601,19.079 242.984,18.415 245.998,18.080" stroke-width="7.545" stroke="black" fill="none" stroke-linecap="round"></path><path d="M 245.998,18.080 C 250.175,17.615 250.723,18.097 254.787,19.678" stroke-width="7.215" stroke="black" fill="none" stroke-linecap="round"></path><path d="M 254.787,19.678 C 257.914,20.895 257.699,21.530 260.380,23.675" stroke-width="6.631" stroke="black" fill="none" stroke-linecap="round"></path><path d="M 260.380,23.675 C 263.692,26.327 263.890,26.182 266.772,29.271" stroke-width="6.261" stroke="black" fill="none" stroke-linecap="round"></path><path d="M 266.772,29.271 C 269.483,32.178 269.354,32.347 271.566,35.667" stroke-width="6.077" stroke="black" fill="none" stroke-linecap="round"></path><path d="M 271.566,35.667 C 273.349,38.343 273.502,38.322 274.762,41.262" stroke-width="6.385" stroke="black" fill="none" stroke-linecap="round"></path><path d="M 274.762,41.262 C 275.899,43.918 276.002,43.998 276.360,46.858" stroke-width="6.605" stroke="black" fill="none" stroke-linecap="round"></path><path d="M 276.360,46.858 C 276.801,50.394 277.293,50.783 276.360,54.053" stroke-width="7.161" stroke="black" fill="none" stroke-linecap="round"></path><path d="M 276.360,54.053 C 275.695,56.379 273.857,59.021 273.164,58.050" stroke-width="7.611" stroke="black" fill="none" stroke-linecap="round"></path><path d="M 273.164,58.050 C 271.859,56.223 271.732,53.099 272.365,48.457" stroke-width="7.800" stroke="black" fill="none" stroke-linecap="round"></path><path d="M 272.365,48.457 C 272.930,44.305 273.714,44.343 275.561,40.463" stroke-width="6.517" stroke="black" fill="none" stroke-linecap="round"></path><path d="M 275.561,40.463 C 277.709,35.949 277.942,36.058 280.355,31.669" stroke-width="5.797" stroke="black" fill="none" stroke-linecap="round"></path><path d="M 280.355,31.669 C 282.337,28.064 282.265,28.021 284.350,24.475" stroke-width="5.982" stroke="black" fill="none" stroke-linecap="round"></path><path d="M 284.350,24.475 C 286.260,21.226 286.159,21.141 288.345,18.080" stroke-width="6.230" stroke="black" fill="none" stroke-linecap="round"></path><path d="M 288.345,18.080 C 290.154,15.545 290.364,15.699 292.340,13.283" stroke-width="6.399" stroke="black" fill="none" stroke-linecap="round"></path><path d="M 292.340,13.283 C 293.959,11.302 293.938,11.285 295.536,9.286" stroke-width="6.753" stroke="black" fill="none" stroke-linecap="round"></path><path d="M 295.536,9.286 C 297.134,7.288 297.658,4.349 298.732,5.289" stroke-width="7.468" stroke="black" fill="none" stroke-linecap="round"></path><path d="M 298.732,5.289 C 300.854,7.147 300.904,9.968 301.928,14.882" stroke-width="8.028" stroke="black" fill="none" stroke-linecap="round"></path><path d="M 301.928,14.882 C 302.902,19.561 302.542,19.670 302.727,24.475" stroke-width="6.282" stroke="black" fill="none" stroke-linecap="round"></path><path d="M 302.727,24.475 C 302.941,30.062 302.727,30.071 302.727,35.667" stroke-width="5.658" stroke="black" fill="none" stroke-linecap="round"></path><path d="M 302.727,35.667 C 302.727,41.662 302.540,41.668 302.727,47.658" stroke-width="5.386" stroke="black" fill="none" stroke-linecap="round"></path><path d="M 302.727,47.658 C 302.939,54.458 303.101,54.454 303.526,61.247" stroke-width="5.200" stroke="black" fill="none" stroke-linecap="round"></path><path d="M 303.526,61.247 C 303.900,67.244 303.925,67.243 304.325,73.238" stroke-width="5.158" stroke="black" fill="none" stroke-linecap="round"></path><path d="M 304.325,73.238 C 304.724,79.234 304.506,79.257 305.124,85.230" stroke-width="5.238" stroke="black" fill="none" stroke-linecap="round"></path><path d="M 305.124,85.230 C 305.705,90.848 305.829,90.841 306.722,96.421" stroke-width="5.354" stroke="black" fill="none" stroke-linecap="round"></path><path d="M 306.722,96.421 C 307.427,100.833 307.287,100.874 308.320,105.215" stroke-width="5.799" stroke="black" fill="none" stroke-linecap="round"></path><path d="M 308.320,105.215 C 309.284,109.268 309.540,109.205 310.717,113.209" stroke-width="5.880" stroke="black" fill="none" stroke-linecap="round"></path><path d="M 310.717,113.209 C 311.537,116.000 310.904,116.335 312.315,118.804" stroke-width="6.552" stroke="black" fill="none" stroke-linecap="round"></path><path d="M 312.315,118.804 C 314.100,121.931 314.265,122.266 317.109,124.400" stroke-width="7.121" stroke="black" fill="none" stroke-linecap="round"></path><path d="M 313.913,83.631 C 318.707,78.435 318.158,77.792 323.501,73.238" stroke-width="8.421" stroke="black" fill="none" stroke-linecap="round"></path><path d="M 323.501,73.238 C 328.944,68.599 329.434,69.150 335.486,65.244" stroke-width="5.452" stroke="black" fill="none" stroke-linecap="round"></path><path d="M 335.486,65.244 C 341.819,61.156 341.808,61.129 348.270,57.250" stroke-width="4.956" stroke="black" fill="none" stroke-linecap="round"></path><path d="M 348.270,57.250 C 351.796,55.134 351.865,55.252 355.461,53.253" stroke-width="5.752" stroke="black" fill="none" stroke-linecap="round"></path></svg>