<svg xmlns="http://www.w3.org/2000/svg" xmlns:xlink="http://www.w3.org/1999/xlink" viewBox="0 0 576 416" width="576" height="416"><path d="M 67.820,176.237 C 66.222,181.033 66.146,181.009 64.624,185.829" stroke-width="8.427" stroke="black" fill="none" stroke-linecap="round"></path><path d="M 64.624,185.829 C 63.749,188.604 63.946,188.666 63.026,191.425" stroke-width="7.059" stroke="black" fill="none" stroke-linecap="round"></path><path d="M 63.026,191.425 C 61.149,197.060 61.145,197.066 59.031,202.617" stroke-width="5.617" stroke="black" fill="none" stroke-linecap="round"></path><path d="M 59.031,202.617 C 57.949,205.460 57.651,205.346 56.634,208.213" stroke-width="6.288" stroke="black" fill="none" stroke-linecap="round"></path><path d="M 56.634,208.213 C 53.256,217.736 53.656,217.885 50.242,227.398" stroke-width="4.500" stroke="black" fill="none" stroke-linecap="round"></path><path d="M 50.242,227.398 C 48.062,233.473 47.990,233.456 45.448,239.389" stroke-width="4.902" stroke="black" fill="none" stroke-linecap="round"></path><path d="M 45.448,239.389 C 43.196,244.648 42.852,244.504 40.654,249.782" stroke-width="5.138" stroke="black" fill="none" stroke-linecap="round"></path><path d="M 40.654,249.782 C 38.857,254.096 39.152,254.216 37.458,258.575" stroke-width="5.505" stroke="black" fill="none" stroke-linecap="round"></path><path d="M 37.458,258.575 C 36.356,261.411 34.856,263.966 35.061,264.171" stroke-width="6.178" stroke="black" fill="none" stroke-linecap="round"></path><path d="M 35.061,264.171 C 35.255,264.365 36.741,261.825 38.257,259.374" stroke-width="7.480" stroke="black" fill="none" stroke-linecap="round"></path><path d="M 38.257,259.374 C 41.935,253.431 41.880,253.395 45.448,247.383" stroke-width="5.381" stroke="black" fill="none" stroke-linecap="round"></path><path d="M 45.448,247.383 C 49.471,240.605 49.507,240.625 53.438,233.794" stroke-width="4.862" stroke="black" fill="none" stroke-linecap="round"></path><path d="M 53.438,233.794 C 57.097,227.435 57.103,227.436 60.629,221.003" stroke-width="4.840" stroke="black" fill="none" stroke-linecap="round"></path><path d="M 60.629,221.003 C 63.895,215.046 63.901,215.047 67.021,209.012" stroke-width="4.952" stroke="black" fill="none" stroke-linecap="round"></path><path d="M 67.021,209.012 C 69.894,203.456 69.638,203.318 72.614,197.820" stroke-width="5.113" stroke="black" fill="none" stroke-linecap="round"></path><path d="M 72.614,197.820 C 74.832,193.725 74.979,193.804 77.408,189.826" stroke-width="5.658" stroke="black" fill="none" stroke-linecap="round"></path><path d="M 77.408,189.826 C 79.373,186.609 79.261,186.526 81.403,183.431" stroke-width="5.972" stroke="black" fill="none" stroke-linecap="round"></path><path d="M 81.403,183.431 C 82.857,181.330 82.543,180.744 84.599,179.434" stroke-width="6.604" stroke="black" fill="none" stroke-linecap="round"></path><path d="M 84.599,179.434 C 86.937,177.946 87.880,177.064 90.192,177.835" stroke-width="7.325" stroke="black" fill="none" stroke-linecap="round"></path><path d="M 90.192,177.835 C 92.674,178.663 92.318,180.138 94.187,182.632" stroke-width="7.945" stroke="black" fill="none" stroke-linecap="round"></path><path d="M 94.187,182.632 C 95.913,184.934 96.032,184.894 97.383,187.428" stroke-width="7.047" stroke="black" fill="none" stroke-linecap="round"></path><path d="M 97.383,187.428 C 99.228,190.890 98.981,191.025 100.579,194.623" stroke-width="6.395" stroke="black" fill="none" stroke-linecap="round"></path><path d="M 100.579,194.623 C 102.177,198.220 102.100,198.256 103.775,201.817" stroke-width="6.223" stroke="black" fill="none" stroke-linecap="round"></path><path d="M 103.775,201.817 C 105.296,205.051 105.221,205.100 106.971,208.213" stroke-width="6.374" stroke="black" fill="none" stroke-linecap="round"></path><path d="M 106.971,208.213 C 108.817,211.495 109.028,211.375 110.966,214.608" stroke-width="6.192" stroke="black" fill="none" stroke-linecap="round"></path><path d="M 110.966,214.608 C 112.623,217.371 112.381,217.530 114.162,220.204" stroke-width="6.422" stroke="black" fill="none" stroke-linecap="round"></path><path d="M 114.162,220.204 C 115.577,222.327 115.558,222.400 117.358,224.201" stroke-width="6.761" stroke="black" fill="none" stroke-linecap="round"></path><path d="M 117.358,224.201 C 119.553,226.397 119.660,227.990 122.152,228.198" stroke-width="7.330" stroke="black" fill="none" stroke-linecap="round"></path><path d="M 122.152,228.198 C 124.454,228.390 124.938,227.010 126.946,225.000" stroke-width="7.582" stroke="black" fill="none" stroke-linecap="round"></path><path d="M 126.946,225.000 C 129.732,222.213 129.450,221.878 131.740,218.605" stroke-width="6.497" stroke="black" fill="none" stroke-linecap="round"></path><path d="M 131.740,218.605 C 135.043,213.884 135.171,213.950 138.132,209.012" stroke-width="5.660" stroke="black" fill="none" stroke-linecap="round"></path><path d="M 138.132,209.012 C 141.164,203.957 141.010,203.858 143.725,198.620" stroke-width="5.412" stroke="black" fill="none" stroke-linecap="round"></path><path d="M 143.725,198.620 C 146.603,193.066 146.934,193.194 149.318,187.428" stroke-width="5.251" stroke="black" fill="none" stroke-linecap="round"></path><path d="M 149.318,187.428 C 151.728,181.603 151.007,181.310 153.313,175.437" stroke-width="5.188" stroke="black" fill="none" stroke-linecap="round"></path><path d="M 153.313,175.437 C 155.402,170.119 155.710,170.241 158.107,165.045" stroke-width="5.320" stroke="black" fill="none" stroke-linecap="round"></path><path d="M 158.107,165.045 C 160.504,159.849 160.434,159.815 162.901,154.653" stroke-width="5.361" stroke="black" fill="none" stroke-linecap="round"></path><path d="M 162.901,154.653 C 164.828,150.622 164.807,150.607 166.896,146.659" stroke-width="5.727" stroke="black" fill="none" stroke-linecap="round"></path><path d="M 166.896,146.659 C 168.403,143.812 168.266,143.702 170.092,141.063" stroke-width="6.264" stroke="black" fill="none" stroke-linecap="round"></path><path d="M 202.851,168.242 C 199.655,172.239 199.387,172.053 196.459,176.237" stroke-width="8.454" stroke="black" fill="none" stroke-linecap="round"></path><path d="M 196.459,176.237 C 193.794,180.047 193.976,180.184 191.665,184.231" stroke-width="6.414" stroke="black" fill="none" stroke-linecap="round"></path><path d="M 191.665,184.231 C 189.182,188.578 189.268,188.627 186.871,193.024" stroke-width="5.870" stroke="black" fill="none" stroke-linecap="round"></path><path d="M 186.871,193.024 C 184.474,197.421 184.039,197.239 182.077,201.817" stroke-width="5.724" stroke="black" fill="none" stroke-linecap="round"></path><path d="M 182.077,201.817 C 180.443,205.633 180.999,205.855 179.680,209.811" stroke-width="5.939" stroke="black" fill="none" stroke-linecap="round"></path><path d="M 179.680,209.811 C 178.602,213.049 177.902,212.904 177.283,216.207" stroke-width="6.268" stroke="black" fill="none" stroke-linecap="round"></path><path d="M 177.283,216.207 C 176.704,219.299 175.914,223.516 177.283,222.602" stroke-width="7.150" stroke="black" fill="none" stroke-linecap="round"></path><path d="M 177.283,222.602 C 180.708,220.318 182.107,216.229 186.871,209.811" stroke-width="6.866" stroke="black" fill="none" stroke-linecap="round"></path><path d="M 186.871,209.811 C 192.494,202.239 192.445,202.203 198.057,194.623" stroke-width="5.033" stroke="black" fill="none" stroke-linecap="round"></path><path d="M 198.057,194.623 C 200.435,191.411 200.357,191.347 202.851,188.228" stroke-width="5.749" stroke="black" fill="none" stroke-linecap="round"></path><path d="M 202.851,188.228 C 205.151,185.352 206.698,182.869 207.645,182.632" stroke-width="6.811" stroke="black" fill="none" stroke-linecap="round"></path><path d="M 207.645,182.632 C 208.296,182.469 207.040,185.110 206.047,187.428" stroke-width="7.837" stroke="black" fill="none" stroke-linecap="round"></path><path d="M 206.047,187.428 C 204.643,190.706 204.032,190.478 202.851,193.823" stroke-width="6.722" stroke="black" fill="none" stroke-linecap="round"></path><path d="M 202.851,193.823 C 201.635,197.272 202.097,197.431 201.253,201.018" stroke-width="6.405" stroke="black" fill="none" stroke-linecap="round"></path><path d="M 201.253,201.018 C 200.499,204.226 200.301,204.186 199.655,207.413" stroke-width="6.461" stroke="black" fill="none" stroke-linecap="round"></path><path d="M 199.655,207.413 C 199.102,210.181 198.660,210.252 198.856,213.009" stroke-width="6.663" stroke="black" fill="none" stroke-linecap="round"></path><path d="M 198.856,213.009 C 199.059,215.848 198.365,219.003 200.454,218.605" stroke-width="7.367" stroke="black" fill="none" stroke-linecap="round"></path><path d="M 200.454,218.605 C 206.754,217.404 208.704,215.065 215.635,209.811" stroke-width="6.256" stroke="black" fill="none" stroke-linecap="round"></path><path d="M 215.635,209.811 C 221.887,205.073 221.550,204.503 226.822,198.620" stroke-width="5.047" stroke="black" fill="none" stroke-linecap="round"></path><path d="M 226.822,198.620 C 231.937,192.912 231.616,192.624 236.410,186.629" stroke-width="4.820" stroke="black" fill="none" stroke-linecap="round"></path><path d="M 236.410,186.629 C 239.606,182.632 239.695,182.699 242.802,178.635" stroke-width="5.352" stroke="black" fill="none" stroke-linecap="round"></path><path d="M 242.802,178.635 C 244.888,175.904 245.581,172.344 246.797,173.039" stroke-width="6.115" stroke="black" fill="none" stroke-linecap="round"></path><path d="M 246.797,173.039 C 248.377,173.943 248.717,177.472 248.395,181.832" stroke-width="7.406" stroke="black" fill="none" stroke-linecap="round"></path><path d="M 248.395,181.832 C 247.918,188.264 247.090,188.316 245.199,194.623" stroke-width="5.483" stroke="black" fill="none" stroke-linecap="round"></path><path d="M 245.199,194.623 C 243.494,200.307 243.266,200.243 241.203,205.814" stroke-width="5.352" stroke="black" fill="none" stroke-linecap="round"></path><path d="M 241.203,205.814 C 239.271,211.035 239.189,211.004 237.208,216.207" stroke-width="5.412" stroke="black" fill="none" stroke-linecap="round"></path><path d="M 237.208,216.207 C 235.993,219.398 235.634,219.312 234.811,222.602" stroke-width="6.081" stroke="black" fill="none" stroke-linecap="round"></path><path d="M 234.811,222.602 C 234.036,225.707 233.239,228.804 234.013,228.997" stroke-width="7.049" stroke="black" fill="none" stroke-linecap="round"></path><path d="M 234.013,228.997 C 234.837,229.203 235.925,226.136 238.008,223.401" stroke-width="7.349" stroke="black" fill="none" stroke-linecap="round"></path><path d="M 238.008,223.401 C 242.317,217.742 242.603,217.951 246.797,212.210" stroke-width="5.444" stroke="black" fill="none" stroke-linecap="round"></path><path d="M 246.797,212.210 C 250.194,207.559 249.842,207.305 253.189,202.617" stroke-width="5.387" stroke="black" fill="none" stroke-linecap="round"></path><path d="M 253.189,202.617 C 255.834,198.911 255.823,198.876 258.782,195.422" stroke-width="5.709" stroke="black" fill="none" stroke-linecap="round"></path><path d="M 258.782,195.422 C 260.617,193.280 261.839,190.863 262.777,191.425" stroke-width="6.403" stroke="black" fill="none" stroke-linecap="round"></path><path d="M 262.777,191.425 C 263.837,192.062 263.391,194.749 262.777,197.820" stroke-width="7.721" stroke="black" fill="none" stroke-linecap="round"></path><path d="M 262.777,197.820 C 262.192,200.744 259.420,203.416 260.380,203.416" stroke-width="7.660" stroke="black" fill="none" stroke-linecap="round"></path><path d="M 260.380,203.416 C 261.816,203.416 264.478,201.136 267.571,197.820" stroke-width="7.289" stroke="black" fill="none" stroke-linecap="round"></path><path d="M 267.571,197.820 C 275.664,189.145 275.282,188.725 282.752,179.434" stroke-width="4.500" stroke="black" fill="none" stroke-linecap="round"></path><path d="M 282.752,179.434 C 290.064,170.339 290.249,170.462 297.134,161.048" stroke-width="4.500" stroke="black" fill="none" stroke-linecap="round"></path><path d="M 297.134,161.048 C 302.234,154.074 302.168,153.999 306.722,146.659" stroke-width="4.500" stroke="black" fill="none" stroke-linecap="round"></path><path d="M 306.722,146.659 C 309.359,142.407 309.174,142.291 311.516,137.865" stroke-width="5.165" stroke="black" fill="none" stroke-linecap="round"></path><path d="M 311.516,137.865 C 312.769,135.496 314.279,132.091 313.913,133.069" stroke-width="6.235" stroke="black" fill="none" stroke-linecap="round"></path><path d="M 313.913,133.069 C 313.081,135.289 310.980,138.488 309.119,144.260" stroke-width="7.398" stroke="black" fill="none" stroke-linecap="round"></path><path d="M 309.119,144.260 C 306.985,150.879 307.531,151.058 305.923,157.850" stroke-width="5.488" stroke="black" fill="none" stroke-linecap="round"></path><path d="M 305.923,157.850 C 303.935,166.246 304.019,166.267 301.928,174.638" stroke-width="4.731" stroke="black" fill="none" stroke-linecap="round"></path><path d="M 301.928,174.638 C 299.625,183.854 299.531,183.831 297.134,193.024" stroke-width="4.500" stroke="black" fill="none" stroke-linecap="round"></path><path d="M 297.134,193.024 C 294.737,202.217 295.085,202.323 292.340,211.410" stroke-width="4.500" stroke="black" fill="none" stroke-linecap="round"></path><path d="M 292.340,211.410 C 289.892,219.511 289.294,219.326 286.747,227.398" stroke-width="4.500" stroke="black" fill="none" stroke-linecap="round"></path><path d="M 286.747,227.398 C 284.500,234.515 284.736,234.589 282.752,241.788" stroke-width="4.680" stroke="black" fill="none" stroke-linecap="round"></path><path d="M 282.752,241.788 C 281.540,246.181 281.341,246.140 280.355,250.581" stroke-width="5.447" stroke="black" fill="none" stroke-linecap="round"></path><path d="M 280.355,250.581 C 279.743,253.335 279.164,257.092 279.556,256.177" stroke-width="6.860" stroke="black" fill="none" stroke-linecap="round"></path><path d="M 279.556,256.177 C 280.362,254.294 281.209,250.596 282.752,244.985" stroke-width="6.750" stroke="black" fill="none" stroke-linecap="round"></path><path d="M 282.752,244.985 C 285.604,234.608 285.828,234.661 288.345,224.201" stroke-width="4.531" stroke="black" fill="none" stroke-linecap="round"></path><path d="M 288.345,224.201 C 291.021,213.077 291.293,213.099 293.139,201.817" stroke-width="4.500" stroke="black" fill="none" stroke-linecap="round"></path><path d="M 293.139,201.817 C 294.889,191.115 294.704,191.053 295.536,180.234" stroke-width="4.500" stroke="black" fill="none" stroke-linecap="round"></path><path d="M 295.536,180.234 C 296.302,170.269 296.126,170.245 296.335,160.248" stroke-width="4.500" stroke="black" fill="none" stroke-linecap="round"></path><path d="M 296.335,160.248 C 296.526,151.059 296.335,151.055 296.335,141.862" stroke-width="4.500" stroke="black" fill="none" stroke-linecap="round"></path><path d="M 296.335,141.862 C 296.335,133.468 296.544,133.463 296.335,125.075" stroke-width="4.500" stroke="black" fill="none" stroke-linecap="round"></path><path d="M 296.335,125.075 C 296.145,117.475 296.223,117.452 295.536,109.886" stroke-width="4.652" stroke="black" fill="none" stroke-linecap="round"></path><path d="M 295.536,109.886 C 295.025,104.262 294.905,104.260 293.938,98.694" stroke-width="5.232" stroke="black" fill="none" stroke-linecap="round"></path><path d="M 293.938,98.694 C 293.307,95.066 290.895,91.211 292.340,91.500" stroke-width="5.850" stroke="black" fill="none" stroke-linecap="round"></path><path d="M 292.340,91.500 C 294.890,92.010 297.332,95.696 301.928,100.293" stroke-width="7.195" stroke="black" fill="none" stroke-linecap="round"></path><path d="M 301.928,100.293 C 308.119,106.488 307.814,106.791 313.913,113.084" stroke-width="5.008" stroke="black" fill="none" stroke-linecap="round"></path><path d="M 313.913,113.084 C 320.598,119.981 320.319,120.314 327.496,126.673" stroke-width="4.500" stroke="black" fill="none" stroke-linecap="round"></path><path d="M 327.496,126.673 C 334.302,132.705 334.591,132.397 341.878,137.865" stroke-width="4.500" stroke="black" fill="none" stroke-linecap="round"></path><path d="M 341.878,137.865 C 348.973,143.189 348.946,143.240 356.260,148.257" stroke-width="4.500" stroke="black" fill="none" stroke-linecap="round"></path><path d="M 356.260,148.257 C 362.929,152.833 362.928,152.858 369.843,157.051" stroke-width="4.544" stroke="black" fill="none" stroke-linecap="round"></path><path d="M 369.843,157.051 C 376.112,160.852 376.301,160.535 382.627,164.245" stroke-width="4.741" stroke="black" fill="none" stroke-linecap="round"></path><path d="M 382.627,164.245 C 387.887,167.330 387.734,167.593 393.014,170.641" stroke-width="5.080" stroke="black" fill="none" stroke-linecap="round"></path><path d="M 393.014,170.641 C 398.121,173.589 398.282,173.310 403.401,176.237" stroke-width="5.241" stroke="black" fill="none" stroke-linecap="round"></path><path d="M 403.401,176.237 C 406.672,178.106 406.824,177.949 409.793,180.234" stroke-width="5.899" stroke="black" fill="none" stroke-linecap="round"></path><path d="M 409.793,180.234 C 412.018,181.946 414.881,183.000 413.788,184.231" stroke-width="7.083" stroke="black" fill="none" stroke-linecap="round"></path><path d="M 413.788,184.231 C 411.685,186.597 408.675,186.138 403.401,187.428" stroke-width="6.861" stroke="black" fill="none" stroke-linecap="round"></path><path d="M 403.401,187.428 C 390.698,190.535 390.722,190.818 377.833,193.024" stroke-width="4.500" stroke="black" fill="none" stroke-linecap="round"></path><path d="M 377.833,193.024 C 360.360,196.014 360.285,195.667 342.677,197.820" stroke-width="4.500" stroke="black" fill="none" stroke-linecap="round"></path><path d="M 342.677,197.820 C 324.330,200.064 324.321,200.036 305.923,201.817" stroke-width="4.500" stroke="black" fill="none" stroke-linecap="round"></path><path d="M 305.923,201.817 C 287.167,203.633 287.178,204.014 268.370,205.015" stroke-width="4.500" stroke="black" fill="none" stroke-linecap="round"></path><path d="M 268.370,205.015 C 249.625,206.013 249.586,205.195 230.816,205.814" stroke-width="4.500" stroke="black" fill="none" stroke-linecap="round"></path><path d="M 230.816,205.814 C 213.231,206.394 213.238,206.595 195.660,207.413" stroke-width="4.500" stroke="black" fill="none" stroke-linecap="round"></path><path d="M 195.660,207.413 C 178.881,208.194 178.879,208.173 162.102,209.012" stroke-width="4.500" stroke="black" fill="none" stroke-linecap="round"></path><path d="M 162.102,209.012 C 146.919,209.772 146.902,209.543 131.740,210.611" stroke-width="4.500" stroke="black" fill="none" stroke-linecap="round"></path><path d="M 131.740,210.611 C 118.538,211.541 118.542,211.669 105.373,213.009" stroke-width="4.500" stroke="black" fill="none" stroke-linecap="round"></path><path d="M 105.373,213.009 C 94.972,214.067 94.994,214.277 84.599,215.407" stroke-width="4.500" stroke="black" fill="none" stroke-linecap="round"></path><path d="M 84.599,215.407 C 76.617,216.275 76.625,216.521 68.619,217.006" stroke-width="4.500" stroke="black" fill="none" stroke-linecap="round"></path><path d="M 68.619,217.006 C 63.441,217.320 63.426,217.006 58.232,217.006" stroke-width="5.125" stroke="black" fill="none" stroke-linecap="round"></path></svg>