<svg xmlns="http://www.w3.org/2000/svg" xmlns:xlink="http://www.w3.org/1999/xlink" viewBox="0 0 576 416" width="576" height="416"><path d="M 157.308,50.056 C 157.708,56.451 157.634,56.457 158.107,62.846" stroke-width="8.132" stroke="black" fill="none" stroke-linecap="round"></path><path d="M 158.107,62.846 C 158.433,67.249 158.706,67.234 158.906,71.640" stroke-width="6.449" stroke="black" fill="none" stroke-linecap="round"></path><path d="M 158.906,71.640 C 159.106,76.027 158.989,76.037 158.906,80.433" stroke-width="5.886" stroke="black" fill="none" stroke-linecap="round"></path><path d="M 158.906,80.433 C 158.590,97.222 158.787,97.233 158.107,114.008" stroke-width="4.500" stroke="black" fill="none" stroke-linecap="round"></path><path d="M 158.107,114.008 C 157.589,126.811 157.523,126.816 156.509,139.589" stroke-width="4.500" stroke="black" fill="none" stroke-linecap="round"></path><path d="M 156.509,139.589 C 155.525,151.997 155.783,152.045 154.112,164.370" stroke-width="4.500" stroke="black" fill="none" stroke-linecap="round"></path><path d="M 154.112,164.370 C 152.587,175.627 152.550,175.667 150.117,186.754" stroke-width="4.500" stroke="black" fill="none" stroke-linecap="round"></path><path d="M 150.117,186.754 C 148.954,192.055 148.577,191.968 146.921,197.146" stroke-width="4.829" stroke="black" fill="none" stroke-linecap="round"></path><path d="M 146.921,197.146 C 142.185,211.953 142.406,212.034 137.333,226.724" stroke-width="4.500" stroke="black" fill="none" stroke-linecap="round"></path><path d="M 137.333,226.724 C 134.815,234.018 135.423,234.435 131.740,241.113" stroke-width="4.500" stroke="black" fill="none" stroke-linecap="round"></path><path d="M 131.740,241.113 C 129.031,246.027 128.632,246.063 124.549,249.907" stroke-width="4.856" stroke="black" fill="none" stroke-linecap="round"></path><path d="M 124.549,249.907 C 121.840,252.458 121.473,253.461 118.157,253.904" stroke-width="5.675" stroke="black" fill="none" stroke-linecap="round"></path><path d="M 118.157,253.904 C 115.481,254.261 114.561,253.504 112.564,251.505" stroke-width="6.241" stroke="black" fill="none" stroke-linecap="round"></path><path d="M 112.564,251.505 C 110.566,249.507 110.462,248.857 110.167,245.910" stroke-width="7.133" stroke="black" fill="none" stroke-linecap="round"></path><path d="M 110.167,245.910 C 109.663,240.863 110.231,240.670 110.966,235.517" stroke-width="5.865" stroke="black" fill="none" stroke-linecap="round"></path><path d="M 110.966,235.517 C 112.228,226.681 111.625,226.454 114.162,217.931" stroke-width="4.633" stroke="black" fill="none" stroke-linecap="round"></path><path d="M 114.162,217.931 C 117.218,207.668 117.600,207.676 122.152,197.945" stroke-width="4.500" stroke="black" fill="none" stroke-linecap="round"></path><path d="M 122.152,197.945 C 126.389,188.890 126.717,189.014 131.740,180.359" stroke-width="4.500" stroke="black" fill="none" stroke-linecap="round"></path><path d="M 131.740,180.359 C 133.908,176.623 133.683,176.389 136.534,173.164" stroke-width="5.265" stroke="black" fill="none" stroke-linecap="round"></path><path d="M 136.534,173.164 C 142.871,165.997 142.481,164.758 150.117,159.574" stroke-width="4.500" stroke="black" fill="none" stroke-linecap="round"></path><path d="M 150.117,159.574 C 153.668,157.164 154.485,158.176 158.906,157.975" stroke-width="5.345" stroke="black" fill="none" stroke-linecap="round"></path><path d="M 158.906,157.975 C 163.274,157.777 164.294,156.626 167.695,158.775" stroke-width="5.738" stroke="black" fill="none" stroke-linecap="round"></path><path d="M 167.695,158.775 C 171.885,161.422 171.691,162.772 174.087,167.568" stroke-width="6.454" stroke="black" fill="none" stroke-linecap="round"></path><path d="M 174.087,167.568 C 176.485,172.365 176.335,172.644 177.283,177.960" stroke-width="5.840" stroke="black" fill="none" stroke-linecap="round"></path><path d="M 177.283,177.960 C 178.332,183.836 178.082,183.954 178.082,189.951" stroke-width="5.331" stroke="black" fill="none" stroke-linecap="round"></path><path d="M 178.082,189.951 C 178.082,196.745 178.179,196.818 177.283,203.541" stroke-width="5.093" stroke="black" fill="none" stroke-linecap="round"></path><path d="M 177.283,203.541 C 176.581,208.809 176.019,208.723 174.886,213.934" stroke-width="5.392" stroke="black" fill="none" stroke-linecap="round"></path><path d="M 174.886,213.934 C 174.021,217.916 172.006,221.561 173.288,221.928" stroke-width="5.858" stroke="black" fill="none" stroke-linecap="round"></path><path d="M 173.288,221.928 C 174.802,222.360 177.013,218.867 180.479,215.532" stroke-width="6.960" stroke="black" fill="none" stroke-linecap="round"></path><path d="M 180.479,215.532 C 187.400,208.874 187.072,208.525 194.062,201.942" stroke-width="4.790" stroke="black" fill="none" stroke-linecap="round"></path><path d="M 194.062,201.942 C 200.655,195.735 200.360,195.252 207.645,189.951" stroke-width="4.500" stroke="black" fill="none" stroke-linecap="round"></path><path d="M 207.645,189.951 C 213.544,185.659 213.774,185.742 220.429,182.757" stroke-width="4.720" stroke="black" fill="none" stroke-linecap="round"></path><path d="M 220.429,182.757 C 225.360,180.545 225.521,180.481 230.816,179.559" stroke-width="5.234" stroke="black" fill="none" stroke-linecap="round"></path><path d="M 230.816,179.559 C 234.710,178.882 235.615,177.734 238.806,179.559" stroke-width="5.895" stroke="black" fill="none" stroke-linecap="round"></path><path d="M 238.806,179.559 C 244.004,182.531 244.460,183.615 247.596,189.152" stroke-width="6.276" stroke="black" fill="none" stroke-linecap="round"></path><path d="M 247.596,189.152 C 251.251,195.606 251.013,196.139 252.390,203.541" stroke-width="5.129" stroke="black" fill="none" stroke-linecap="round"></path><path d="M 252.390,203.541 C 254.209,213.326 254.485,213.574 253.988,223.526" stroke-width="4.500" stroke="black" fill="none" stroke-linecap="round"></path><path d="M 253.988,223.526 C 253.286,237.556 252.399,237.593 249.993,251.505" stroke-width="4.500" stroke="black" fill="none" stroke-linecap="round"></path><path d="M 249.993,251.505 C 248.804,258.378 248.413,258.305 246.797,265.095" stroke-width="4.500" stroke="black" fill="none" stroke-linecap="round"></path><path d="M 246.797,265.095 C 242.420,283.486 242.590,283.530 238.008,301.868" stroke-width="4.500" stroke="black" fill="none" stroke-linecap="round"></path><path d="M 238.008,301.868 C 236.198,309.111 235.953,309.047 234.013,316.257" stroke-width="4.500" stroke="black" fill="none" stroke-linecap="round"></path><path d="M 234.013,316.257 C 233.156,319.440 231.740,321.752 232.415,322.652" stroke-width="5.544" stroke="black" fill="none" stroke-linecap="round"></path><path d="M 232.415,322.652 C 232.938,323.351 234.603,321.263 236.410,319.455" stroke-width="6.964" stroke="black" fill="none" stroke-linecap="round"></path><path d="M 236.410,319.455 C 247.786,308.072 247.217,307.475 258.782,296.272" stroke-width="4.500" stroke="black" fill="none" stroke-linecap="round"></path><path d="M 258.782,296.272 C 272.386,283.093 272.849,283.573 286.747,270.691" stroke-width="4.500" stroke="black" fill="none" stroke-linecap="round"></path><path d="M 286.747,270.691 C 300.015,258.392 299.622,257.954 313.114,245.910" stroke-width="4.500" stroke="black" fill="none" stroke-linecap="round"></path><path d="M 313.114,245.910 C 325.589,234.772 326.082,235.327 338.682,224.326" stroke-width="4.500" stroke="black" fill="none" stroke-linecap="round"></path><path d="M 338.682,224.326 C 348.054,216.142 347.787,215.838 357.059,207.538" stroke-width="4.500" stroke="black" fill="none" stroke-linecap="round"></path><path d="M 357.059,207.538 C 362.968,202.248 364.017,203.014 369.044,197.146" stroke-width="4.500" stroke="black" fill="none" stroke-linecap="round"></path><path d="M 369.044,197.146 C 371.208,194.620 373.379,192.326 371.441,190.751" stroke-width="5.543" stroke="black" fill="none" stroke-linecap="round"></path><path d="M 371.441,190.751 C 366.987,187.130 364.022,187.130 356.260,186.754" stroke-width="6.417" stroke="black" fill="none" stroke-linecap="round"></path><path d="M 356.260,186.754 C 339.253,185.930 339.011,186.738 321.903,188.353" stroke-width="4.500" stroke="black" fill="none" stroke-linecap="round"></path><path d="M 321.903,188.353 C 296.663,190.735 296.709,191.365 271.566,194.748" stroke-width="4.500" stroke="black" fill="none" stroke-linecap="round"></path><path d="M 271.566,194.748 C 249.169,197.761 249.189,197.917 226.822,201.143" stroke-width="4.500" stroke="black" fill="none" stroke-linecap="round"></path><path d="M 226.822,201.143 C 204.845,204.312 204.694,203.512 182.876,207.538" stroke-width="4.500" stroke="black" fill="none" stroke-linecap="round"></path><path d="M 182.876,207.538 C 163.545,211.106 163.578,211.460 144.524,216.332" stroke-width="4.500" stroke="black" fill="none" stroke-linecap="round"></path><path d="M 144.524,216.332 C 127.623,220.653 127.440,220.219 110.966,225.924" stroke-width="4.500" stroke="black" fill="none" stroke-linecap="round"></path><path d="M 110.966,225.924 C 85.892,234.608 86.197,235.517 61.428,245.110" stroke-width="4.500" stroke="black" fill="none" stroke-linecap="round"></path></svg>