<svg xmlns="http://www.w3.org/2000/svg" xmlns:xlink="http://www.w3.org/1999/xlink" viewBox="0 0 576 416" width="576" height="416"><path d="M 69.418,37.940 C 64.225,37.540 64.170,36.895 59.031,37.140" stroke-width="8.674" stroke="black" fill="none" stroke-linecap="round"></path><path d="M 59.031,37.140 C 55.781,37.295 55.659,37.495 52.639,38.739" stroke-width="7.819" stroke="black" fill="none" stroke-linecap="round"></path><path d="M 52.639,38.739 C 48.868,40.293 48.820,40.417 45.448,42.736" stroke-width="7.409" stroke="black" fill="none" stroke-linecap="round"></path><path d="M 45.448,42.736 C 42.428,44.813 42.224,44.767 39.855,47.533" stroke-width="7.401" stroke="black" fill="none" stroke-linecap="round"></path><path d="M 39.855,47.533 C 37.430,50.363 36.466,50.491 35.860,53.928" stroke-width="7.690" stroke="black" fill="none" stroke-linecap="round"></path><path d="M 35.860,53.928 C 35.268,57.286 35.382,58.478 37.458,61.122" stroke-width="7.837" stroke="black" fill="none" stroke-linecap="round"></path><path d="M 37.458,61.122 C 39.776,64.074 40.878,63.566 44.649,65.119" stroke-width="7.776" stroke="black" fill="none" stroke-linecap="round"></path><path d="M 44.649,65.119 C 47.669,66.364 47.845,65.919 51.041,66.718" stroke-width="7.608" stroke="black" fill="none" stroke-linecap="round"></path><path d="M 51.041,66.718 C 54.237,67.518 54.251,67.468 57.433,68.317" stroke-width="7.560" stroke="black" fill="none" stroke-linecap="round"></path><path d="M 57.433,68.317 C 60.243,69.067 60.521,68.566 63.026,69.916" stroke-width="7.647" stroke="black" fill="none" stroke-linecap="round"></path><path d="M 63.026,69.916 C 65.714,71.364 65.886,71.548 67.820,73.913" stroke-width="7.915" stroke="black" fill="none" stroke-linecap="round"></path><path d="M 67.820,73.913 C 69.482,75.945 70.771,76.678 70.217,78.709" stroke-width="8.203" stroke="black" fill="none" stroke-linecap="round"></path><path d="M 70.217,78.709 C 69.573,81.074 68.184,81.406 65.423,82.706" stroke-width="8.073" stroke="black" fill="none" stroke-linecap="round"></path><path d="M 65.423,82.706 C 61.393,84.604 61.003,83.819 56.634,85.105" stroke-width="7.365" stroke="black" fill="none" stroke-linecap="round"></path><path d="M 56.634,85.105 C 54.211,85.818 54.255,85.960 51.840,86.703" stroke-width="7.061" stroke="black" fill="none" stroke-linecap="round"></path><path d="M 51.840,86.703 C 49.061,87.559 49.084,87.694 46.247,88.302" stroke-width="6.808" stroke="black" fill="none" stroke-linecap="round"></path><path d="M 46.247,88.302 C 43.491,88.893 43.410,88.511 40.654,89.102" stroke-width="6.837" stroke="black" fill="none" stroke-linecap="round"></path><path d="M 40.654,89.102 C 37.817,89.710 37.890,90.034 35.061,90.700" stroke-width="6.670" stroke="black" fill="none" stroke-linecap="round"></path><path d="M 35.061,90.700 C 31.099,91.633 31.034,91.366 27.071,92.299" stroke-width="7.072" stroke="black" fill="none" stroke-linecap="round"></path><path d="M 111.765,47.533 C 107.770,49.931 107.209,49.298 103.775,52.329" stroke-width="8.703" stroke="black" fill="none" stroke-linecap="round"></path><path d="M 103.775,52.329 C 100.418,55.293 100.540,55.664 98.182,59.524" stroke-width="7.478" stroke="black" fill="none" stroke-linecap="round"></path><path d="M 98.182,59.524 C 96.145,62.858 96.224,63.002 94.986,66.718" stroke-width="7.358" stroke="black" fill="none" stroke-linecap="round"></path><path d="M 94.986,66.718 C 93.827,70.197 93.601,70.288 93.388,73.913" stroke-width="7.411" stroke="black" fill="none" stroke-linecap="round"></path><path d="M 93.388,73.913 C 93.202,77.083 92.910,77.540 94.187,80.308" stroke-width="7.783" stroke="black" fill="none" stroke-linecap="round"></path><path d="M 94.187,80.308 C 95.307,82.736 95.730,83.604 98.182,84.305" stroke-width="8.025" stroke="black" fill="none" stroke-linecap="round"></path><path d="M 98.182,84.305 C 101.323,85.203 101.929,84.463 105.373,83.506" stroke-width="7.910" stroke="black" fill="none" stroke-linecap="round"></path><path d="M 105.373,83.506 C 109.120,82.464 109.298,82.422 112.564,80.308" stroke-width="7.479" stroke="black" fill="none" stroke-linecap="round"></path><path d="M 112.564,80.308 C 116.090,78.026 115.961,77.709 118.956,74.712" stroke-width="7.282" stroke="black" fill="none" stroke-linecap="round"></path><path d="M 118.956,74.712 C 121.554,72.113 121.477,72.011 123.750,69.116" stroke-width="7.362" stroke="black" fill="none" stroke-linecap="round"></path><path d="M 123.750,69.116 C 125.872,66.415 125.684,66.270 127.745,63.521" stroke-width="7.474" stroke="black" fill="none" stroke-linecap="round"></path><path d="M 127.745,63.521 C 129.280,61.474 129.664,61.714 130.941,59.524" stroke-width="7.693" stroke="black" fill="none" stroke-linecap="round"></path><path d="M 130.941,59.524 C 132.461,56.918 132.562,53.734 133.338,53.928" stroke-width="8.082" stroke="black" fill="none" stroke-linecap="round"></path><path d="M 133.338,53.928 C 134.160,54.133 133.761,57.123 134.137,60.323" stroke-width="8.653" stroke="black" fill="none" stroke-linecap="round"></path><path d="M 134.137,60.323 C 134.560,63.918 134.309,63.961 134.936,67.518" stroke-width="8.291" stroke="black" fill="none" stroke-linecap="round"></path><path d="M 134.936,67.518 C 135.508,70.756 135.433,70.827 136.534,73.913" stroke-width="8.051" stroke="black" fill="none" stroke-linecap="round"></path><path d="M 136.534,73.913 C 137.430,76.423 137.015,77.176 138.931,78.709" stroke-width="8.126" stroke="black" fill="none" stroke-linecap="round"></path><path d="M 138.931,78.709 C 141.010,80.373 141.914,80.830 144.524,80.308" stroke-width="8.234" stroke="black" fill="none" stroke-linecap="round"></path><path d="M 144.524,80.308 C 147.907,79.631 148.099,78.754 150.916,76.311" stroke-width="8.141" stroke="black" fill="none" stroke-linecap="round"></path><path d="M 150.916,76.311 C 154.091,73.558 154.074,73.367 156.509,69.916" stroke-width="7.459" stroke="black" fill="none" stroke-linecap="round"></path><path d="M 156.509,69.916 C 158.868,66.573 158.580,66.357 160.504,62.721" stroke-width="7.338" stroke="black" fill="none" stroke-linecap="round"></path><path d="M 160.504,62.721 C 162.176,59.562 162.102,59.524 163.700,56.326" stroke-width="7.379" stroke="black" fill="none" stroke-linecap="round"></path><path d="M 163.700,56.326 C 164.899,53.928 165.458,50.890 166.097,51.530" stroke-width="7.908" stroke="black" fill="none" stroke-linecap="round"></path><path d="M 166.097,51.530 C 167.056,52.488 166.674,55.518 166.896,59.524" stroke-width="8.312" stroke="black" fill="none" stroke-linecap="round"></path><path d="M 166.896,59.524 C 167.073,62.712 166.896,62.721 166.896,65.919" stroke-width="7.755" stroke="black" fill="none" stroke-linecap="round"></path><path d="M 166.896,65.919 C 166.896,68.717 166.711,68.728 166.896,71.515" stroke-width="7.736" stroke="black" fill="none" stroke-linecap="round"></path><path d="M 166.896,71.515 C 167.110,74.724 166.128,75.670 167.695,77.910" stroke-width="7.912" stroke="black" fill="none" stroke-linecap="round"></path><path d="M 167.695,77.910 C 168.924,79.667 170.279,80.099 172.489,79.509" stroke-width="8.315" stroke="black" fill="none" stroke-linecap="round"></path><path d="M 172.489,79.509 C 176.271,78.500 176.377,77.467 179.680,74.712" stroke-width="7.855" stroke="black" fill="none" stroke-linecap="round"></path><path d="M 179.680,74.712 C 183.568,71.471 183.609,71.394 186.871,67.518" stroke-width="7.216" stroke="black" fill="none" stroke-linecap="round"></path><path d="M 186.871,67.518 C 190.001,63.800 190.096,63.736 192.464,59.524" stroke-width="7.025" stroke="black" fill="none" stroke-linecap="round"></path><path d="M 192.464,59.524 C 193.692,57.341 193.263,57.125 194.062,54.727" stroke-width="6.963" stroke="black" fill="none" stroke-linecap="round"></path><path d="M 194.062,54.727 C 194.861,52.329 194.948,52.355 195.660,49.931" stroke-width="6.945" stroke="black" fill="none" stroke-linecap="round"></path><path d="M 195.660,49.931 C 196.945,45.560 196.953,45.557 198.057,41.137" stroke-width="7.081" stroke="black" fill="none" stroke-linecap="round"></path><path d="M 198.057,41.137 C 198.951,37.563 198.977,37.562 199.655,33.943" stroke-width="7.272" stroke="black" fill="none" stroke-linecap="round"></path><path d="M 199.655,33.943 C 200.176,31.167 200.055,31.145 200.454,28.347" stroke-width="7.578" stroke="black" fill="none" stroke-linecap="round"></path><path d="M 200.454,28.347 C 200.854,25.549 201.417,22.260 201.253,22.751" stroke-width="8.075" stroke="black" fill="none" stroke-linecap="round"></path><path d="M 201.253,22.751 C 201.018,23.459 200.558,26.771 199.655,30.745" stroke-width="8.398" stroke="black" fill="none" stroke-linecap="round"></path><path d="M 199.655,30.745 C 198.561,35.565 198.308,35.509 197.258,40.338" stroke-width="7.347" stroke="black" fill="none" stroke-linecap="round"></path><path d="M 197.258,40.338 C 196.310,44.702 196.237,44.705 195.660,49.131" stroke-width="7.191" stroke="black" fill="none" stroke-linecap="round"></path><path d="M 195.660,49.131 C 195.039,53.898 195.062,53.920 194.861,58.724" stroke-width="7.066" stroke="black" fill="none" stroke-linecap="round"></path><path d="M 194.861,58.724 C 194.662,63.512 194.634,63.533 194.861,68.317" stroke-width="7.065" stroke="black" fill="none" stroke-linecap="round"></path><path d="M 194.861,68.317 C 195.033,71.927 194.996,71.966 195.660,75.512" stroke-width="7.283" stroke="black" fill="none" stroke-linecap="round"></path><path d="M 195.660,75.512 C 196.195,78.362 195.716,78.793 197.258,81.108" stroke-width="7.560" stroke="black" fill="none" stroke-linecap="round"></path><path d="M 197.258,81.108 C 198.912,83.590 199.364,84.484 202.052,85.105" stroke-width="7.887" stroke="black" fill="none" stroke-linecap="round"></path><path d="M 202.052,85.105 C 204.558,85.683 205.178,84.916 207.645,83.506" stroke-width="8.009" stroke="black" fill="none" stroke-linecap="round"></path><path d="M 207.645,83.506 C 210.771,81.719 210.641,81.308 213.238,78.709" stroke-width="7.598" stroke="black" fill="none" stroke-linecap="round"></path><path d="M 213.238,78.709 C 216.234,75.712 216.035,75.512 218.832,72.314" stroke-width="7.284" stroke="black" fill="none" stroke-linecap="round"></path><path d="M 218.832,72.314 C 221.628,69.116 221.989,69.370 224.425,65.919" stroke-width="7.226" stroke="black" fill="none" stroke-linecap="round"></path><path d="M 224.425,65.919 C 226.783,62.576 226.582,62.400 228.419,58.724" stroke-width="7.268" stroke="black" fill="none" stroke-linecap="round"></path><path d="M 228.419,58.724 C 229.778,56.005 229.725,55.967 230.816,53.128" stroke-width="7.496" stroke="black" fill="none" stroke-linecap="round"></path><path d="M 230.816,53.128 C 231.723,50.771 231.888,47.981 232.415,48.332" stroke-width="7.730" stroke="black" fill="none" stroke-linecap="round"></path><path d="M 232.415,48.332 C 233.086,48.780 233.381,51.545 233.214,54.727" stroke-width="8.385" stroke="black" fill="none" stroke-linecap="round"></path><path d="M 233.214,54.727 C 232.981,59.140 232.350,59.113 231.615,63.521" stroke-width="7.463" stroke="black" fill="none" stroke-linecap="round"></path><path d="M 231.615,63.521 C 231.151,66.308 231.307,66.334 230.816,69.116" stroke-width="6.952" stroke="black" fill="none" stroke-linecap="round"></path><path d="M 230.816,69.116 C 230.109,73.129 229.862,73.088 229.218,77.111" stroke-width="6.404" stroke="black" fill="none" stroke-linecap="round"></path><path d="M 229.218,77.111 C 228.264,83.080 228.341,83.097 227.620,89.102" stroke-width="6.530" stroke="black" fill="none" stroke-linecap="round"></path><path d="M 227.620,89.102 C 227.142,93.089 227.032,93.089 226.822,97.096" stroke-width="6.232" stroke="black" fill="none" stroke-linecap="round"></path><path d="M 226.822,97.096 C 226.633,100.683 227.021,100.704 226.822,104.290" stroke-width="6.215" stroke="black" fill="none" stroke-linecap="round"></path><path d="M 226.822,104.290 C 226.621,107.899 226.179,107.874 226.022,111.485" stroke-width="6.283" stroke="black" fill="none" stroke-linecap="round"></path><path d="M 226.022,111.485 C 225.780,117.067 226.022,117.081 226.022,122.677" stroke-width="5.836" stroke="black" fill="none" stroke-linecap="round"></path><path d="M 226.022,122.677 C 226.022,125.474 226.187,125.483 226.022,128.272" stroke-width="6.521" stroke="black" fill="none" stroke-linecap="round"></path><path d="M 226.022,128.272 C 225.787,132.278 225.459,132.261 225.223,136.266" stroke-width="7.085" stroke="black" fill="none" stroke-linecap="round"></path><path d="M 225.223,136.266 C 225.059,139.056 225.223,142.356 225.223,141.862" stroke-width="7.752" stroke="black" fill="none" stroke-linecap="round"></path><path d="M 225.223,141.862 C 225.223,141.157 225.050,137.858 225.223,133.868" stroke-width="8.154" stroke="black" fill="none" stroke-linecap="round"></path><path d="M 225.223,133.868 C 225.450,128.665 225.763,128.677 226.022,123.476" stroke-width="7.225" stroke="black" fill="none" stroke-linecap="round"></path><path d="M 226.022,123.476 C 226.162,120.683 225.837,120.666 226.022,117.880" stroke-width="6.901" stroke="black" fill="none" stroke-linecap="round"></path><path d="M 226.022,117.880 C 226.236,114.671 226.422,114.682 226.822,111.485" stroke-width="6.634" stroke="black" fill="none" stroke-linecap="round"></path><path d="M 226.822,111.485 C 227.221,108.287 227.028,108.251 227.620,105.090" stroke-width="6.558" stroke="black" fill="none" stroke-linecap="round"></path><path d="M 227.620,105.090 C 228.226,101.856 228.573,101.922 229.218,98.694" stroke-width="6.428" stroke="black" fill="none" stroke-linecap="round"></path><path d="M 229.218,98.694 C 229.772,95.927 229.427,95.856 230.017,93.099" stroke-width="6.717" stroke="black" fill="none" stroke-linecap="round"></path><path d="M 230.017,93.099 C 230.625,90.260 231.007,90.341 231.615,87.503" stroke-width="6.708" stroke="black" fill="none" stroke-linecap="round"></path><path d="M 231.615,87.503 C 232.206,84.746 232.015,84.705 232.415,81.907" stroke-width="6.668" stroke="black" fill="none" stroke-linecap="round"></path><path d="M 232.415,81.907 C 232.814,79.109 232.623,79.068 233.214,76.311" stroke-width="6.728" stroke="black" fill="none" stroke-linecap="round"></path><path d="M 233.214,76.311 C 233.821,73.472 234.204,73.554 234.811,70.715" stroke-width="6.712" stroke="black" fill="none" stroke-linecap="round"></path><path d="M 234.811,70.715 C 235.402,67.958 235.146,67.907 235.611,65.119" stroke-width="6.741" stroke="black" fill="none" stroke-linecap="round"></path><path d="M 235.611,65.119 C 236.345,60.712 235.877,60.545 237.208,56.326" stroke-width="7.035" stroke="black" fill="none" stroke-linecap="round"></path><path d="M 237.208,56.326 C 238.274,52.951 238.485,52.918 240.405,49.931" stroke-width="7.285" stroke="black" fill="none" stroke-linecap="round"></path><path d="M 240.405,49.931 C 242.080,47.322 242.040,47.101 244.400,45.134" stroke-width="7.505" stroke="black" fill="none" stroke-linecap="round"></path><path d="M 244.400,45.134 C 246.834,43.104 247.053,43.197 249.993,41.937" stroke-width="7.572" stroke="black" fill="none" stroke-linecap="round"></path><path d="M 249.993,41.937 C 252.646,40.799 252.765,40.338 255.586,40.338" stroke-width="7.627" stroke="black" fill="none" stroke-linecap="round"></path><path d="M 255.586,40.338 C 259.157,40.338 259.749,40.206 262.777,41.937" stroke-width="7.792" stroke="black" fill="none" stroke-linecap="round"></path><path d="M 262.777,41.937 C 265.342,43.403 266.110,43.919 266.772,46.733" stroke-width="8.040" stroke="black" fill="none" stroke-linecap="round"></path><path d="M 266.772,46.733 C 267.708,50.714 266.984,51.277 265.973,55.527" stroke-width="7.746" stroke="black" fill="none" stroke-linecap="round"></path><path d="M 265.973,55.527 C 264.986,59.670 264.693,59.685 262.777,63.521" stroke-width="7.310" stroke="black" fill="none" stroke-linecap="round"></path><path d="M 262.777,63.521 C 261.098,66.880 261.065,66.946 258.782,69.916" stroke-width="7.292" stroke="black" fill="none" stroke-linecap="round"></path><path d="M 258.782,69.916 C 257.070,72.142 257.042,72.272 254.787,73.913" stroke-width="7.538" stroke="black" fill="none" stroke-linecap="round"></path><path d="M 254.787,73.913 C 252.647,75.469 252.543,75.631 249.993,76.311" stroke-width="7.680" stroke="black" fill="none" stroke-linecap="round"></path><path d="M 249.993,76.311 C 246.550,77.229 246.407,76.885 242.802,77.111" stroke-width="7.820" stroke="black" fill="none" stroke-linecap="round"></path><path d="M 261.179,71.515 C 263.176,75.512 262.502,76.107 265.174,79.509" stroke-width="8.615" stroke="black" fill="none" stroke-linecap="round"></path><path d="M 265.174,79.509 C 266.896,81.702 267.337,81.654 269.968,82.706" stroke-width="7.950" stroke="black" fill="none" stroke-linecap="round"></path><path d="M 269.968,82.706 C 273.330,84.052 273.614,84.502 277.159,84.305" stroke-width="7.555" stroke="black" fill="none" stroke-linecap="round"></path><path d="M 277.159,84.305 C 280.805,84.102 281.187,83.806 284.350,81.907" stroke-width="7.417" stroke="black" fill="none" stroke-linecap="round"></path><path d="M 284.350,81.907 C 287.179,80.208 286.867,79.616 289.144,77.111" stroke-width="7.423" stroke="black" fill="none" stroke-linecap="round"></path><path d="M 289.144,77.111 C 290.862,75.220 290.974,75.261 292.340,73.113" stroke-width="7.062" stroke="black" fill="none" stroke-linecap="round"></path><path d="M 292.340,73.113 C 293.770,70.864 293.614,70.750 294.737,68.317" stroke-width="6.834" stroke="black" fill="none" stroke-linecap="round"></path><path d="M 294.737,68.317 C 296.011,65.554 296.123,65.587 297.134,62.721" stroke-width="6.688" stroke="black" fill="none" stroke-linecap="round"></path><path d="M 297.134,62.721 C 298.520,58.792 298.354,58.731 299.531,54.727" stroke-width="6.378" stroke="black" fill="none" stroke-linecap="round"></path><path d="M 299.531,54.727 C 300.351,51.936 300.560,51.976 301.129,49.131" stroke-width="6.603" stroke="black" fill="none" stroke-linecap="round"></path><path d="M 301.129,49.131 C 301.758,45.981 301.502,45.930 301.928,42.736" stroke-width="6.549" stroke="black" fill="none" stroke-linecap="round"></path><path d="M 301.928,42.736 C 302.301,39.935 302.286,39.932 302.727,37.140" stroke-width="6.815" stroke="black" fill="none" stroke-linecap="round"></path><path d="M 302.727,37.140 C 303.485,32.338 303.817,32.368 304.325,27.547" stroke-width="6.876" stroke="black" fill="none" stroke-linecap="round"></path><path d="M 304.325,27.547 C 304.616,24.774 304.480,21.331 304.325,21.952" stroke-width="7.451" stroke="black" fill="none" stroke-linecap="round"></path><path d="M 304.325,21.952 C 304.080,22.930 304.096,26.370 303.526,30.745" stroke-width="8.191" stroke="black" fill="none" stroke-linecap="round"></path><path d="M 303.526,30.745 C 302.897,35.563 302.686,35.535 301.928,40.338" stroke-width="7.352" stroke="black" fill="none" stroke-linecap="round"></path><path d="M 301.928,40.338 C 301.487,43.129 301.424,43.124 301.129,45.934" stroke-width="6.923" stroke="black" fill="none" stroke-linecap="round"></path><path d="M 301.129,45.934 C 300.625,50.718 300.530,50.722 300.330,55.527" stroke-width="6.954" stroke="black" fill="none" stroke-linecap="round"></path><path d="M 300.330,55.527 C 300.130,60.315 300.078,60.341 300.330,65.119" stroke-width="7.031" stroke="black" fill="none" stroke-linecap="round"></path><path d="M 300.330,65.119 C 300.478,67.935 300.309,68.049 301.129,70.715" stroke-width="7.475" stroke="black" fill="none" stroke-linecap="round"></path><path d="M 301.129,70.715 C 301.907,73.245 301.728,73.713 303.526,75.512" stroke-width="7.682" stroke="black" fill="none" stroke-linecap="round"></path><path d="M 303.526,75.512 C 305.323,77.310 305.778,77.323 308.320,77.910" stroke-width="8.010" stroke="black" fill="none" stroke-linecap="round"></path><path d="M 308.320,77.910 C 310.972,78.522 311.222,78.508 313.913,77.910" stroke-width="7.811" stroke="black" fill="none" stroke-linecap="round"></path><path d="M 313.913,77.910 C 318.413,76.909 318.570,76.779 322.702,74.712" stroke-width="7.234" stroke="black" fill="none" stroke-linecap="round"></path><path d="M 322.702,74.712 C 324.962,73.581 324.699,73.113 326.697,71.515" stroke-width="7.010" stroke="black" fill="none" stroke-linecap="round"></path><path d="M 326.697,71.515 C 328.694,69.916 328.894,70.116 330.692,68.317" stroke-width="6.945" stroke="black" fill="none" stroke-linecap="round"></path><path d="M 330.692,68.317 C 332.490,66.518 332.290,66.319 333.888,64.320" stroke-width="6.926" stroke="black" fill="none" stroke-linecap="round"></path><path d="M 333.888,64.320 C 335.486,62.322 335.878,62.535 337.084,60.323" stroke-width="6.983" stroke="black" fill="none" stroke-linecap="round"></path><path d="M 337.084,60.323 C 338.275,58.138 337.969,57.951 338.682,55.527" stroke-width="6.882" stroke="black" fill="none" stroke-linecap="round"></path><path d="M 338.682,55.527 C 339.966,51.156 340.374,51.196 341.079,46.733" stroke-width="7.031" stroke="black" fill="none" stroke-linecap="round"></path><path d="M 341.079,46.733 C 341.573,43.602 341.731,43.382 341.079,40.338" stroke-width="7.403" stroke="black" fill="none" stroke-linecap="round"></path><path d="M 341.079,40.338 C 340.532,37.786 340.317,35.951 338.682,35.542" stroke-width="7.907" stroke="black" fill="none" stroke-linecap="round"></path><path d="M 338.682,35.542 C 337.121,35.151 335.748,36.616 334.687,38.739" stroke-width="8.305" stroke="black" fill="none" stroke-linecap="round"></path><path d="M 334.687,38.739 C 333.351,41.413 332.768,42.894 333.888,45.134" stroke-width="8.253" stroke="black" fill="none" stroke-linecap="round"></path><path d="M 333.888,45.134 C 334.766,46.891 336.212,46.380 338.682,46.733" stroke-width="8.334" stroke="black" fill="none" stroke-linecap="round"></path><path d="M 338.682,46.733 C 341.805,47.180 341.950,46.287 345.074,46.733" stroke-width="8.108" stroke="black" fill="none" stroke-linecap="round"></path><path d="M 345.074,46.733 C 347.543,47.086 349.180,46.406 349.868,48.332" stroke-width="8.371" stroke="black" fill="none" stroke-linecap="round"></path><path d="M 349.868,48.332 C 351.178,52.001 349.641,53.149 349.069,57.925" stroke-width="7.795" stroke="black" fill="none" stroke-linecap="round"></path><path d="M 349.069,57.925 C 348.443,63.141 348.073,63.098 347.471,68.317" stroke-width="7.127" stroke="black" fill="none" stroke-linecap="round"></path><path d="M 347.471,68.317 C 346.874,73.490 346.448,73.551 346.672,78.709" stroke-width="6.991" stroke="black" fill="none" stroke-linecap="round"></path><path d="M 346.672,78.709 C 346.847,82.744 346.753,83.017 348.270,86.703" stroke-width="7.148" stroke="black" fill="none" stroke-linecap="round"></path><path d="M 348.270,86.703 C 349.549,89.812 349.539,90.741 352.265,92.299" stroke-width="7.406" stroke="black" fill="none" stroke-linecap="round"></path><path d="M 352.265,92.299 C 355.133,93.939 355.863,93.099 359.456,93.099" stroke-width="7.416" stroke="black" fill="none" stroke-linecap="round"></path><path d="M 359.456,93.099 C 362.654,93.099 362.865,93.352 365.848,92.299" stroke-width="6.846" stroke="black" fill="none" stroke-linecap="round"></path><path d="M 365.848,92.299 C 369.657,90.954 369.532,90.446 373.039,88.302" stroke-width="6.088" stroke="black" fill="none" stroke-linecap="round"></path><path d="M 373.039,88.302 C 376.723,86.049 376.910,86.241 380.230,83.506" stroke-width="6.002" stroke="black" fill="none" stroke-linecap="round"></path><path d="M 380.230,83.506 C 383.702,80.645 383.532,80.408 386.622,77.111" stroke-width="5.994" stroke="black" fill="none" stroke-linecap="round"></path><path d="M 386.622,77.111 C 389.525,74.012 389.641,74.083 392.215,70.715" stroke-width="5.913" stroke="black" fill="none" stroke-linecap="round"></path><path d="M 392.215,70.715 C 394.834,67.288 394.822,67.240 397.009,63.521" stroke-width="6.029" stroke="black" fill="none" stroke-linecap="round"></path><path d="M 397.009,63.521 C 398.817,60.445 398.883,60.431 400.205,57.125" stroke-width="6.312" stroke="black" fill="none" stroke-linecap="round"></path><path d="M 400.205,57.125 C 401.280,54.435 401.485,54.395 401.803,51.530" stroke-width="6.511" stroke="black" fill="none" stroke-linecap="round"></path><path d="M 401.803,51.530 C 402.284,47.200 402.547,46.957 401.803,42.736" stroke-width="6.946" stroke="black" fill="none" stroke-linecap="round"></path><path d="M 401.803,42.736 C 401.349,40.162 401.361,39.114 399.406,37.940" stroke-width="7.506" stroke="black" fill="none" stroke-linecap="round"></path><path d="M 399.406,37.940 C 397.366,36.715 396.197,36.946 393.813,37.940" stroke-width="8.061" stroke="black" fill="none" stroke-linecap="round"></path><path d="M 393.813,37.940 C 391.403,38.944 391.403,39.630 389.818,41.937" stroke-width="7.817" stroke="black" fill="none" stroke-linecap="round"></path><path d="M 389.818,41.937 C 387.008,46.025 387.148,46.215 385.024,50.730" stroke-width="7.155" stroke="black" fill="none" stroke-linecap="round"></path><path d="M 385.024,50.730 C 383.952,53.010 384.169,53.111 383.426,55.527" stroke-width="7.001" stroke="black" fill="none" stroke-linecap="round"></path><path d="M 383.426,55.527 C 382.571,58.307 382.304,58.264 381.828,61.122" stroke-width="6.715" stroke="black" fill="none" stroke-linecap="round"></path><path d="M 381.828,61.122 C 381.105,65.459 381.029,65.526 381.029,69.916" stroke-width="7.039" stroke="black" fill="none" stroke-linecap="round"></path><path d="M 381.029,69.916 C 381.029,73.120 380.184,74.050 381.828,76.311" stroke-width="7.400" stroke="black" fill="none" stroke-linecap="round"></path><path d="M 381.828,76.311 C 383.380,78.446 384.641,79.018 387.421,78.709" stroke-width="7.837" stroke="black" fill="none" stroke-linecap="round"></path><path d="M 387.421,78.709 C 391.832,78.219 392.257,77.349 396.210,74.712" stroke-width="7.239" stroke="black" fill="none" stroke-linecap="round"></path><path d="M 396.210,74.712 C 399.448,72.552 399.219,72.099 401.803,69.116" stroke-width="6.342" stroke="black" fill="none" stroke-linecap="round"></path><path d="M 401.803,69.116 C 404.413,66.103 404.336,66.012 406.597,62.721" stroke-width="6.186" stroke="black" fill="none" stroke-linecap="round"></path><path d="M 406.597,62.721 C 408.730,59.617 408.682,59.575 410.592,56.326" stroke-width="6.220" stroke="black" fill="none" stroke-linecap="round"></path><path d="M 410.592,56.326 C 412.677,52.780 412.840,52.845 414.587,49.131" stroke-width="6.189" stroke="black" fill="none" stroke-linecap="round"></path><path d="M 414.587,49.131 C 416.036,46.050 415.641,45.871 416.984,42.736" stroke-width="6.349" stroke="black" fill="none" stroke-linecap="round"></path><path d="M 416.984,42.736 C 418.038,40.275 418.327,40.401 419.381,37.940" stroke-width="6.686" stroke="black" fill="none" stroke-linecap="round"></path><path d="M 419.381,37.940 C 420.724,34.805 421.429,31.021 421.778,31.544" stroke-width="7.208" stroke="black" fill="none" stroke-linecap="round"></path><path d="M 421.778,31.544 C 422.228,32.221 421.526,35.959 420.979,40.338" stroke-width="8.035" stroke="black" fill="none" stroke-linecap="round"></path><path d="M 420.979,40.338 C 420.327,45.552 420.160,45.531 419.381,50.730" stroke-width="7.221" stroke="black" fill="none" stroke-linecap="round"></path><path d="M 419.381,50.730 C 418.962,53.525 418.783,53.514 418.582,56.326" stroke-width="6.888" stroke="black" fill="none" stroke-linecap="round"></path><path d="M 418.582,56.326 C 418.383,59.110 418.582,59.124 418.582,61.922" stroke-width="6.806" stroke="black" fill="none" stroke-linecap="round"></path><path d="M 418.582,61.922 C 418.582,66.718 418.108,66.777 418.582,71.515" stroke-width="6.922" stroke="black" fill="none" stroke-linecap="round"></path><path d="M 418.582,71.515 C 418.907,74.771 418.674,75.112 420.180,77.910" stroke-width="7.366" stroke="black" fill="none" stroke-linecap="round"></path><path d="M 420.180,77.910 C 421.471,80.308 421.699,81.247 424.175,81.907" stroke-width="7.608" stroke="black" fill="none" stroke-linecap="round"></path><path d="M 424.175,81.907 C 427.692,82.845 428.331,82.117 432.165,81.108" stroke-width="7.346" stroke="black" fill="none" stroke-linecap="round"></path><path d="M 432.165,81.108 C 435.922,80.118 435.840,79.669 439.356,77.910" stroke-width="6.467" stroke="black" fill="none" stroke-linecap="round"></path><path d="M 439.356,77.910 C 443.830,75.672 443.895,75.745 448.145,73.113" stroke-width="5.973" stroke="black" fill="none" stroke-linecap="round"></path><path d="M 448.145,73.113 C 452.285,70.549 452.314,70.536 456.135,67.518" stroke-width="5.700" stroke="black" fill="none" stroke-linecap="round"></path><path d="M 456.135,67.518 C 459.904,64.540 460.043,64.612 463.326,61.122" stroke-width="5.733" stroke="black" fill="none" stroke-linecap="round"></path><path d="M 463.326,61.122 C 466.435,57.817 466.122,57.525 468.919,53.928" stroke-width="5.821" stroke="black" fill="none" stroke-linecap="round"></path><path d="M 296.335,31.544 C 300.729,29.946 300.657,29.722 305.124,28.347" stroke-width="8.240" stroke="black" fill="none" stroke-linecap="round"></path><path d="M 305.124,28.347 C 316.237,24.926 316.310,25.149 327.496,21.952" stroke-width="4.532" stroke="black" fill="none" stroke-linecap="round"></path><path d="M 77.408,351.306 C 78.207,344.511 78.222,344.513 79.006,337.716" stroke-width="7.622" stroke="black" fill="none" stroke-linecap="round"></path><path d="M 79.006,337.716 C 79.421,334.120 79.445,334.123 79.805,330.521" stroke-width="6.465" stroke="black" fill="none" stroke-linecap="round"></path><path d="M 79.805,330.521 C 80.644,322.132 80.585,322.126 81.403,313.734" stroke-width="4.967" stroke="black" fill="none" stroke-linecap="round"></path><path d="M 81.403,313.734 C 82.183,305.738 81.892,305.697 83.001,297.746" stroke-width="4.624" stroke="black" fill="none" stroke-linecap="round"></path><path d="M 83.001,297.746 C 84.289,288.510 84.529,288.540 86.197,279.360" stroke-width="4.646" stroke="black" fill="none" stroke-linecap="round"></path><path d="M 86.197,279.360 C 86.926,275.349 86.323,275.049 87.795,271.366" stroke-width="5.566" stroke="black" fill="none" stroke-linecap="round"></path><path d="M 87.795,271.366 C 88.720,269.053 89.190,267.205 90.991,267.369" stroke-width="6.448" stroke="black" fill="none" stroke-linecap="round"></path><path d="M 90.991,267.369 C 93.585,267.604 94.947,269.038 96.584,272.165" stroke-width="7.108" stroke="black" fill="none" stroke-linecap="round"></path><path d="M 96.584,272.165 C 99.342,277.432 98.436,278.103 99.780,284.156" stroke-width="5.546" stroke="black" fill="none" stroke-linecap="round"></path><path d="M 99.780,284.156 C 101.632,292.492 101.504,292.528 102.976,300.943" stroke-width="4.761" stroke="black" fill="none" stroke-linecap="round"></path><path d="M 102.976,300.943 C 104.301,308.516 104.075,308.555 105.373,316.132" stroke-width="4.736" stroke="black" fill="none" stroke-linecap="round"></path><path d="M 105.373,316.132 C 106.472,322.545 106.586,322.525 107.770,328.923" stroke-width="4.984" stroke="black" fill="none" stroke-linecap="round"></path><path d="M 107.770,328.923 C 108.584,333.317 108.400,333.359 109.368,337.716" stroke-width="5.591" stroke="black" fill="none" stroke-linecap="round"></path><path d="M 109.368,337.716 C 109.998,340.553 110.665,344.066 110.966,343.312" stroke-width="6.927" stroke="black" fill="none" stroke-linecap="round"></path><path d="M 110.966,343.312 C 111.464,342.068 110.825,338.512 110.966,333.719" stroke-width="6.959" stroke="black" fill="none" stroke-linecap="round"></path><path d="M 110.966,333.719 C 111.225,324.922 111.180,324.913 111.765,316.132" stroke-width="4.964" stroke="black" fill="none" stroke-linecap="round"></path><path d="M 111.765,316.132 C 112.379,306.927 112.547,306.937 113.363,297.746" stroke-width="4.500" stroke="black" fill="none" stroke-linecap="round"></path><path d="M 113.363,297.746 C 114.145,288.951 114.411,288.964 114.961,280.159" stroke-width="4.527" stroke="black" fill="none" stroke-linecap="round"></path><path d="M 114.961,280.159 C 115.210,276.173 114.496,276.123 114.961,272.165" stroke-width="5.537" stroke="black" fill="none" stroke-linecap="round"></path><path d="M 114.961,272.165 C 116.094,262.534 116.702,262.592 118.157,252.979" stroke-width="4.500" stroke="black" fill="none" stroke-linecap="round"></path><path d="M 118.157,252.979 C 118.699,249.402 118.557,249.382 118.956,245.785" stroke-width="5.591" stroke="black" fill="none" stroke-linecap="round"></path><path d="M 181.278,236.991 C 181.678,241.788 181.906,241.778 182.077,246.584" stroke-width="8.392" stroke="black" fill="none" stroke-linecap="round"></path><path d="M 182.077,246.584 C 182.305,252.970 182.555,253.009 182.077,259.374" stroke-width="5.812" stroke="black" fill="none" stroke-linecap="round"></path><path d="M 182.077,259.374 C 181.356,268.997 180.809,268.959 179.680,278.560" stroke-width="4.590" stroke="black" fill="none" stroke-linecap="round"></path><path d="M 179.680,278.560 C 178.412,289.344 178.363,289.340 177.283,300.144" stroke-width="4.500" stroke="black" fill="none" stroke-linecap="round"></path><path d="M 177.283,300.144 C 176.366,309.325 176.134,309.322 175.685,318.530" stroke-width="4.500" stroke="black" fill="none" stroke-linecap="round"></path><path d="M 175.685,318.530 C 175.335,325.710 175.685,325.725 175.685,332.920" stroke-width="4.671" stroke="black" fill="none" stroke-linecap="round"></path><path d="M 175.685,332.920 C 175.685,335.717 175.685,335.717 175.685,338.515" stroke-width="5.910" stroke="black" fill="none" stroke-linecap="round"></path><path d="M 175.685,338.515 C 175.685,342.512 175.685,347.546 175.685,346.509" stroke-width="6.056" stroke="black" fill="none" stroke-linecap="round"></path><path d="M 225.223,248.982 C 225.223,254.178 225.357,254.181 225.223,259.374" stroke-width="8.223" stroke="black" fill="none" stroke-linecap="round"></path><path d="M 225.223,259.374 C 224.957,269.769 225.364,269.814 224.425,280.159" stroke-width="4.775" stroke="black" fill="none" stroke-linecap="round"></path><path d="M 224.425,280.159 C 223.367,291.798 223.394,291.860 221.228,303.342" stroke-width="4.500" stroke="black" fill="none" stroke-linecap="round"></path><path d="M 221.228,303.342 C 219.399,313.044 219.148,313.027 216.434,322.527" stroke-width="4.500" stroke="black" fill="none" stroke-linecap="round"></path><path d="M 216.434,322.527 C 214.354,329.814 214.111,329.748 211.640,336.917" stroke-width="4.523" stroke="black" fill="none" stroke-linecap="round"></path><path d="M 211.640,336.917 C 210.116,341.339 210.903,344.592 208.444,345.710" stroke-width="5.419" stroke="black" fill="none" stroke-linecap="round"></path><path d="M 208.444,345.710 C 206.508,346.591 205.196,343.686 202.851,340.914" stroke-width="6.937" stroke="black" fill="none" stroke-linecap="round"></path><path d="M 202.851,340.914 C 200.801,338.489 201.253,338.116 199.655,335.318" stroke-width="6.564" stroke="black" fill="none" stroke-linecap="round"></path><path d="M 199.655,335.318 C 198.057,332.520 198.147,332.465 196.459,329.722" stroke-width="6.608" stroke="black" fill="none" stroke-linecap="round"></path><path d="M 196.459,329.722 C 194.951,327.269 194.614,327.460 193.263,324.926" stroke-width="6.614" stroke="black" fill="none" stroke-linecap="round"></path><path d="M 193.263,324.926 C 191.418,321.464 190.067,321.192 190.067,317.731" stroke-width="7.085" stroke="black" fill="none" stroke-linecap="round"></path><path d="M 190.067,317.731 C 190.067,315.197 191.070,314.659 193.263,312.935" stroke-width="7.502" stroke="black" fill="none" stroke-linecap="round"></path><path d="M 193.263,312.935 C 196.663,310.262 197.138,310.653 201.253,308.938" stroke-width="6.303" stroke="black" fill="none" stroke-linecap="round"></path><path d="M 201.253,308.938 C 206.726,306.656 206.846,306.939 212.439,304.941" stroke-width="5.564" stroke="black" fill="none" stroke-linecap="round"></path><path d="M 212.439,304.941 C 218.032,302.942 217.913,302.482 223.625,300.943" stroke-width="5.279" stroke="black" fill="none" stroke-linecap="round"></path><path d="M 223.625,300.943 C 228.300,299.684 228.465,300.345 233.214,299.345" stroke-width="5.584" stroke="black" fill="none" stroke-linecap="round"></path><path d="M 233.214,299.345 C 236.055,298.746 235.969,298.354 238.806,297.746" stroke-width="6.384" stroke="black" fill="none" stroke-linecap="round"></path><path d="M 238.806,297.746 C 241.562,297.155 243.217,295.320 244.400,296.946" stroke-width="7.242" stroke="black" fill="none" stroke-linecap="round"></path><path d="M 244.400,296.946 C 246.413,299.717 244.998,301.735 245.199,306.539" stroke-width="8.138" stroke="black" fill="none" stroke-linecap="round"></path><path d="M 245.199,306.539 C 245.398,311.327 245.199,311.336 245.199,316.132" stroke-width="7.355" stroke="black" fill="none" stroke-linecap="round"></path><path d="M 245.199,316.132 C 245.199,319.729 245.070,324.610 245.199,323.327" stroke-width="7.379" stroke="black" fill="none" stroke-linecap="round"></path><path d="M 245.199,323.327 C 245.470,320.613 245.022,315.668 245.998,308.138" stroke-width="7.537" stroke="black" fill="none" stroke-linecap="round"></path><path d="M 245.998,308.138 C 247.818,294.084 247.966,294.058 250.792,280.159" stroke-width="4.500" stroke="black" fill="none" stroke-linecap="round"></path><path d="M 250.792,280.159 C 252.760,270.476 252.096,270.162 255.586,260.973" stroke-width="4.500" stroke="black" fill="none" stroke-linecap="round"></path><path d="M 255.586,260.973 C 259.686,250.177 259.674,249.851 265.973,240.189" stroke-width="4.500" stroke="black" fill="none" stroke-linecap="round"></path><path d="M 265.973,240.189 C 271.659,231.465 271.728,230.974 279.556,224.201" stroke-width="4.500" stroke="black" fill="none" stroke-linecap="round"></path><path d="M 279.556,224.201 C 286.510,218.183 287.033,218.098 295.536,214.608" stroke-width="4.500" stroke="black" fill="none" stroke-linecap="round"></path><path d="M 295.536,214.608 C 302.613,211.703 303.156,211.410 310.717,211.410" stroke-width="4.571" stroke="black" fill="none" stroke-linecap="round"></path><path d="M 310.717,211.410 C 317.139,211.410 317.914,211.692 323.501,214.608" stroke-width="4.820" stroke="black" fill="none" stroke-linecap="round"></path><path d="M 323.501,214.608 C 327.102,216.488 327.166,217.321 329.094,221.003" stroke-width="5.590" stroke="black" fill="none" stroke-linecap="round"></path><path d="M 329.094,221.003 C 331.561,225.715 331.924,226.092 332.290,231.395" stroke-width="5.519" stroke="black" fill="none" stroke-linecap="round"></path><path d="M 332.290,231.395 C 332.723,237.683 332.794,238.199 330.692,244.186" stroke-width="5.233" stroke="black" fill="none" stroke-linecap="round"></path><path d="M 330.692,244.186 C 327.601,252.987 327.102,253.171 321.903,260.973" stroke-width="4.609" stroke="black" fill="none" stroke-linecap="round"></path><path d="M 321.903,260.973 C 319.112,265.162 318.930,265.386 314.712,268.168" stroke-width="5.279" stroke="black" fill="none" stroke-linecap="round"></path><path d="M 314.712,268.168 C 301.352,276.977 301.354,277.716 286.747,284.156" stroke-width="4.500" stroke="black" fill="none" stroke-linecap="round"></path><path d="M 286.747,284.156 C 277.783,288.108 277.249,287.016 267.571,288.952" stroke-width="4.500" stroke="black" fill="none" stroke-linecap="round"></path><path d="M 267.571,288.952 C 259.271,290.613 259.198,290.299 250.792,291.351" stroke-width="4.500" stroke="black" fill="none" stroke-linecap="round"></path><path d="M 250.792,291.351 C 246.414,291.898 246.397,291.750 242.003,292.150" stroke-width="5.298" stroke="black" fill="none" stroke-linecap="round"></path><path d="M 300.330,304.941 C 299.531,310.536 298.013,310.857 298.732,316.132" stroke-width="8.476" stroke="black" fill="none" stroke-linecap="round"></path><path d="M 298.732,316.132 C 299.211,319.651 300.443,319.557 302.727,322.527" stroke-width="6.772" stroke="black" fill="none" stroke-linecap="round"></path><path d="M 302.727,322.527 C 304.438,324.753 304.359,325.146 306.722,326.524" stroke-width="6.760" stroke="black" fill="none" stroke-linecap="round"></path><path d="M 306.722,326.524 C 309.153,327.944 310.983,329.266 312.315,328.123" stroke-width="7.382" stroke="black" fill="none" stroke-linecap="round"></path><path d="M 312.315,328.123 C 313.779,326.867 312.138,324.917 312.315,321.728" stroke-width="7.491" stroke="black" fill="none" stroke-linecap="round"></path><path d="M 312.315,321.728 C 312.537,317.722 312.419,317.674 313.114,313.734" stroke-width="7.312" stroke="black" fill="none" stroke-linecap="round"></path><path d="M 313.114,313.734 C 313.617,310.879 313.301,310.607 314.712,308.138" stroke-width="6.798" stroke="black" fill="none" stroke-linecap="round"></path><path d="M 314.712,308.138 C 316.497,305.012 316.566,304.618 319.506,302.542" stroke-width="6.504" stroke="black" fill="none" stroke-linecap="round"></path><path d="M 319.506,302.542 C 323.358,299.822 323.872,300.481 328.295,298.545" stroke-width="5.854" stroke="black" fill="none" stroke-linecap="round"></path><path d="M 328.295,298.545 C 336.656,294.885 336.724,295.036 345.074,291.351" stroke-width="4.908" stroke="black" fill="none" stroke-linecap="round"></path><path d="M 345.074,291.351 C 350.307,289.041 350.544,289.424 355.461,286.554" stroke-width="5.229" stroke="black" fill="none" stroke-linecap="round"></path><path d="M 355.461,286.554 C 360.132,283.828 360.579,284.036 364.250,280.159" stroke-width="5.409" stroke="black" fill="none" stroke-linecap="round"></path><path d="M 364.250,280.159 C 367.770,276.442 367.603,276.034 369.843,271.366" stroke-width="5.609" stroke="black" fill="none" stroke-linecap="round"></path><path d="M 369.843,271.366 C 372.397,266.042 372.605,265.930 373.838,260.174" stroke-width="5.387" stroke="black" fill="none" stroke-linecap="round"></path><path d="M 373.838,260.174 C 375.002,254.739 374.207,254.576 374.637,248.982" stroke-width="5.319" stroke="black" fill="none" stroke-linecap="round"></path><path d="M 374.637,248.982 C 375.006,244.183 375.000,244.183 375.436,239.389" stroke-width="5.611" stroke="black" fill="none" stroke-linecap="round"></path><path d="M 375.436,239.389 C 375.799,235.389 375.999,235.401 376.235,231.395" stroke-width="5.952" stroke="black" fill="none" stroke-linecap="round"></path><path d="M 376.235,231.395 C 376.399,228.606 375.858,224.796 376.235,225.799" stroke-width="6.564" stroke="black" fill="none" stroke-linecap="round"></path><path d="M 376.235,225.799 C 377.057,227.993 378.468,231.740 378.632,237.791" stroke-width="7.263" stroke="black" fill="none" stroke-linecap="round"></path><path d="M 378.632,237.791 C 378.868,246.529 377.833,246.584 377.034,255.377" stroke-width="5.003" stroke="black" fill="none" stroke-linecap="round"></path><path d="M 377.034,255.377 C 376.235,264.171 376.336,264.181 375.436,272.964" stroke-width="4.576" stroke="black" fill="none" stroke-linecap="round"></path><path d="M 375.436,272.964 C 374.738,279.770 374.307,279.740 373.838,286.554" stroke-width="4.856" stroke="black" fill="none" stroke-linecap="round"></path><path d="M 373.838,286.554 C 373.508,291.331 373.838,291.351 373.838,296.147" stroke-width="5.525" stroke="black" fill="none" stroke-linecap="round"></path><path d="M 373.838,296.147 C 373.838,298.945 372.941,301.743 373.838,301.743" stroke-width="6.342" stroke="black" fill="none" stroke-linecap="round"></path><path d="M 373.838,301.743 C 374.939,301.743 376.257,299.187 377.833,296.147" stroke-width="7.102" stroke="black" fill="none" stroke-linecap="round"></path><path d="M 377.833,296.147 C 381.850,288.395 381.616,288.233 385.024,280.159" stroke-width="4.872" stroke="black" fill="none" stroke-linecap="round"></path><path d="M 385.024,280.159 C 389.207,270.246 389.492,270.330 393.014,260.174" stroke-width="4.500" stroke="black" fill="none" stroke-linecap="round"></path><path d="M 393.014,260.174 C 396.284,250.744 395.737,250.559 398.607,240.988" stroke-width="4.500" stroke="black" fill="none" stroke-linecap="round"></path><path d="M 398.607,240.988 C 400.531,234.571 400.561,234.579 402.602,228.198" stroke-width="4.799" stroke="black" fill="none" stroke-linecap="round"></path><path d="M 402.602,228.198 C 403.757,224.586 404.999,219.869 404.999,221.003" stroke-width="5.715" stroke="black" fill="none" stroke-linecap="round"></path><path d="M 404.999,221.003 C 404.999,223.067 404.066,227.853 402.602,234.593" stroke-width="6.571" stroke="black" fill="none" stroke-linecap="round"></path><path d="M 402.602,234.593 C 400.071,246.240 399.227,246.075 397.009,257.776" stroke-width="4.500" stroke="black" fill="none" stroke-linecap="round"></path><path d="M 397.009,257.776 C 394.832,269.258 394.910,269.322 393.813,280.958" stroke-width="4.500" stroke="black" fill="none" stroke-linecap="round"></path><path d="M 393.813,280.958 C 392.912,290.506 392.560,290.604 393.014,300.144" stroke-width="4.500" stroke="black" fill="none" stroke-linecap="round"></path><path d="M 393.014,300.144 C 393.359,307.391 393.153,307.757 395.411,314.533" stroke-width="4.596" stroke="black" fill="none" stroke-linecap="round"></path><path d="M 395.411,314.533 C 396.749,318.549 397.012,320.450 400.205,321.728" stroke-width="5.476" stroke="black" fill="none" stroke-linecap="round"></path><path d="M 400.205,321.728 C 403.004,322.848 404.714,321.629 407.396,319.330" stroke-width="5.979" stroke="black" fill="none" stroke-linecap="round"></path><path d="M 407.396,319.330 C 410.307,316.833 409.923,315.954 411.391,312.135" stroke-width="6.116" stroke="black" fill="none" stroke-linecap="round"></path><path d="M 411.391,312.135 C 413.918,305.562 413.811,305.437 415.386,298.545" stroke-width="5.110" stroke="black" fill="none" stroke-linecap="round"></path><path d="M 415.386,298.545 C 417.007,291.448 416.907,291.388 417.783,284.156" stroke-width="4.921" stroke="black" fill="none" stroke-linecap="round"></path><path d="M 417.783,284.156 C 418.505,278.198 418.351,278.166 418.582,272.165" stroke-width="5.162" stroke="black" fill="none" stroke-linecap="round"></path><path d="M 418.582,272.165 C 418.751,267.774 418.812,267.754 418.582,263.371" stroke-width="5.751" stroke="black" fill="none" stroke-linecap="round"></path><path d="M 418.582,263.371 C 418.413,260.160 417.783,256.213 417.783,256.976" stroke-width="6.911" stroke="black" fill="none" stroke-linecap="round"></path><path d="M 417.783,256.976 C 417.783,258.211 417.694,262.263 418.582,267.369" stroke-width="7.295" stroke="black" fill="none" stroke-linecap="round"></path><path d="M 418.582,267.369 C 419.292,271.456 419.863,271.343 420.979,275.363" stroke-width="6.366" stroke="black" fill="none" stroke-linecap="round"></path><path d="M 420.979,275.363 C 421.860,278.537 421.538,278.641 422.577,281.758" stroke-width="6.449" stroke="black" fill="none" stroke-linecap="round"></path><path d="M 422.577,281.758 C 423.536,284.636 425.298,284.600 424.974,287.354" stroke-width="7.235" stroke="black" fill="none" stroke-linecap="round"></path><path d="M 424.974,287.354 C 424.499,291.395 422.511,291.186 420.979,295.348" stroke-width="7.995" stroke="black" fill="none" stroke-linecap="round"></path><path d="M 420.979,295.348 C 419.715,298.780 420.542,299.057 419.381,302.542" stroke-width="6.710" stroke="black" fill="none" stroke-linecap="round"></path><path d="M 419.381,302.542 C 417.346,308.650 417.900,309.063 414.587,314.533" stroke-width="5.508" stroke="black" fill="none" stroke-linecap="round"></path><path d="M 414.587,314.533 C 409.910,322.253 409.564,322.243 403.401,328.923" stroke-width="4.637" stroke="black" fill="none" stroke-linecap="round"></path><path d="M 403.401,328.923 C 395.182,337.831 395.088,337.882 385.823,345.710" stroke-width="4.500" stroke="black" fill="none" stroke-linecap="round"></path><path d="M 385.823,345.710 C 377.110,353.071 376.586,352.441 367.446,359.300" stroke-width="4.500" stroke="black" fill="none" stroke-linecap="round"></path><path d="M 367.446,359.300 C 360.606,364.432 360.845,364.776 353.863,369.692" stroke-width="4.500" stroke="black" fill="none" stroke-linecap="round"></path><path d="M 353.863,369.692 C 350.058,372.371 345.697,375.191 345.873,374.489" stroke-width="5.275" stroke="black" fill="none" stroke-linecap="round"></path><path d="M 345.873,374.489 C 346.097,373.593 349.847,369.950 354.662,366.495" stroke-width="6.546" stroke="black" fill="none" stroke-linecap="round"></path><path d="M 354.662,366.495 C 368.224,356.760 368.229,356.603 382.627,348.108" stroke-width="4.500" stroke="black" fill="none" stroke-linecap="round"></path><path d="M 382.627,348.108 C 399.390,338.217 399.455,338.189 416.984,329.722" stroke-width="4.500" stroke="black" fill="none" stroke-linecap="round"></path><path d="M 416.984,329.722 C 434.211,321.401 434.330,321.534 452.140,314.533" stroke-width="4.500" stroke="black" fill="none" stroke-linecap="round"></path><path d="M 452.140,314.533 C 467.888,308.343 467.980,308.494 484.100,303.342" stroke-width="4.500" stroke="black" fill="none" stroke-linecap="round"></path><path d="M 484.100,303.342 C 496.744,299.301 496.851,299.620 509.668,296.147" stroke-width="4.500" stroke="black" fill="none" stroke-linecap="round"></path><path d="M 509.668,296.147 C 516.027,294.424 520.763,292.467 522.452,292.949" stroke-width="4.500" stroke="black" fill="none" stroke-linecap="round"></path><path d="M 522.452,292.949 C 523.560,293.266 518.923,295.456 515.261,297.746" stroke-width="6.299" stroke="black" fill="none" stroke-linecap="round"></path><path d="M 515.261,297.746 C 512.531,299.453 512.464,299.345 509.668,300.943" stroke-width="6.457" stroke="black" fill="none" stroke-linecap="round"></path></svg>