<svg xmlns="http://www.w3.org/2000/svg" xmlns:xlink="http://www.w3.org/1999/xlink" viewBox="0 0 576 416" width="576" height="416"><path d="M 168.494,158.760 C 161.703,167.153 161.450,166.961 154.911,175.547" stroke-width="8.001" stroke="black" fill="none" stroke-linecap="round"></path><path d="M 154.911,175.547 C 148.666,183.749 148.399,183.615 142.926,192.335" stroke-width="4.770" stroke="black" fill="none" stroke-linecap="round"></path><path d="M 142.926,192.335 C 137.612,200.802 137.813,200.968 133.338,209.922" stroke-width="4.500" stroke="black" fill="none" stroke-linecap="round"></path><path d="M 133.338,209.922 C 128.624,219.354 128.193,219.242 124.549,229.107" stroke-width="4.500" stroke="black" fill="none" stroke-linecap="round"></path><path d="M 124.549,229.107 C 121.402,237.629 121.661,237.797 119.755,246.694" stroke-width="4.730" stroke="black" fill="none" stroke-linecap="round"></path><path d="M 119.755,246.694 C 118.065,254.585 117.587,254.680 117.358,262.682" stroke-width="4.550" stroke="black" fill="none" stroke-linecap="round"></path><path d="M 117.358,262.682 C 117.187,268.670 115.757,270.343 118.956,274.673" stroke-width="5.102" stroke="black" fill="none" stroke-linecap="round"></path><path d="M 118.956,274.673 C 122.549,279.536 124.510,280.244 130.941,281.068" stroke-width="5.932" stroke="black" fill="none" stroke-linecap="round"></path><path d="M 130.941,281.068 C 140.091,282.242 141.028,281.764 150.117,278.670" stroke-width="4.613" stroke="black" fill="none" stroke-linecap="round"></path><path d="M 150.117,278.670 C 179.779,268.574 179.607,267.383 208.444,254.688" stroke-width="4.500" stroke="black" fill="none" stroke-linecap="round"></path><path d="M 208.444,254.688 C 219.557,249.796 219.352,249.317 230.017,243.496" stroke-width="4.500" stroke="black" fill="none" stroke-linecap="round"></path><path d="M 230.017,243.496 C 250.114,232.529 250.157,232.588 269.968,221.113" stroke-width="4.500" stroke="black" fill="none" stroke-linecap="round"></path><path d="M 269.968,221.113 C 288.110,210.605 287.873,210.200 305.923,199.529" stroke-width="4.500" stroke="black" fill="none" stroke-linecap="round"></path><path d="M 305.923,199.529 C 323.030,189.416 322.913,189.197 340.280,179.544" stroke-width="4.500" stroke="black" fill="none" stroke-linecap="round"></path><path d="M 340.280,179.544 C 355.273,171.211 355.264,171.152 370.642,163.556" stroke-width="4.500" stroke="black" fill="none" stroke-linecap="round"></path><path d="M 370.642,163.556 C 386.824,155.563 386.850,155.511 403.401,148.367" stroke-width="4.500" stroke="black" fill="none" stroke-linecap="round"></path><path d="M 403.401,148.367 C 407.224,146.717 407.436,147.288 411.391,145.969" stroke-width="4.608" stroke="black" fill="none" stroke-linecap="round"></path><path d="M 367.446,122.787 C 366.647,127.183 366.816,127.223 365.848,131.580" stroke-width="8.558" stroke="black" fill="none" stroke-linecap="round"></path><path d="M 365.848,131.580 C 365.218,134.417 365.169,134.417 364.250,137.176" stroke-width="7.902" stroke="black" fill="none" stroke-linecap="round"></path><path d="M 364.250,137.176 C 363.171,140.413 363.677,140.751 361.853,143.571" stroke-width="6.803" stroke="black" fill="none" stroke-linecap="round"></path><path d="M 361.853,143.571 C 359.282,147.545 359.360,148.302 355.461,150.766" stroke-width="6.950" stroke="black" fill="none" stroke-linecap="round"></path><path d="M 355.461,150.766 C 351.769,153.098 351.136,152.352 346.672,153.164" stroke-width="6.989" stroke="black" fill="none" stroke-linecap="round"></path><path d="M 346.672,153.164 C 342.347,153.951 342.217,153.241 337.883,153.963" stroke-width="7.067" stroke="black" fill="none" stroke-linecap="round"></path><path d="M 337.883,153.963 C 335.026,154.440 334.157,153.694 332.290,155.562" stroke-width="7.442" stroke="black" fill="none" stroke-linecap="round"></path><path d="M 332.290,155.562 C 329.762,158.091 330.518,159.092 329.094,162.757" stroke-width="7.658" stroke="black" fill="none" stroke-linecap="round"></path><path d="M 329.094,162.757 C 327.722,166.287 328.026,166.404 326.697,169.951" stroke-width="7.386" stroke="black" fill="none" stroke-linecap="round"></path><path d="M 326.697,169.951 C 325.629,172.799 326.297,173.548 324.300,175.547" stroke-width="7.508" stroke="black" fill="none" stroke-linecap="round"></path><path d="M 324.300,175.547 C 322.303,177.545 321.618,177.557 318.707,177.945" stroke-width="7.850" stroke="black" fill="none" stroke-linecap="round"></path><path d="M 318.707,177.945 C 315.625,178.356 315.367,176.710 312.315,177.146" stroke-width="7.923" stroke="black" fill="none" stroke-linecap="round"></path><path d="M 312.315,177.146 C 309.774,177.509 309.318,177.746 307.521,179.544" stroke-width="8.218" stroke="black" fill="none" stroke-linecap="round"></path><path d="M 307.521,179.544 C 305.723,181.343 306.246,181.907 305.124,184.341" stroke-width="7.902" stroke="black" fill="none" stroke-linecap="round"></path><path d="M 305.124,184.341 C 303.849,187.103 304.486,187.499 302.727,189.936" stroke-width="7.687" stroke="black" fill="none" stroke-linecap="round"></path><path d="M 302.727,189.936 C 299.293,194.694 299.023,194.637 294.737,198.730" stroke-width="6.945" stroke="black" fill="none" stroke-linecap="round"></path><path d="M 294.737,198.730 C 290.233,203.030 290.037,202.845 285.149,206.724" stroke-width="5.717" stroke="black" fill="none" stroke-linecap="round"></path><path d="M 285.149,206.724 C 278.451,212.038 278.556,212.202 271.566,217.116" stroke-width="4.796" stroke="black" fill="none" stroke-linecap="round"></path><path d="M 271.566,217.116 C 263.774,222.594 263.801,222.697 255.586,227.508" stroke-width="4.500" stroke="black" fill="none" stroke-linecap="round"></path><path d="M 255.586,227.508 C 247.421,232.290 247.145,231.810 238.806,236.302" stroke-width="4.500" stroke="black" fill="none" stroke-linecap="round"></path><path d="M 238.806,236.302 C 231.564,240.204 231.688,240.435 224.425,244.296" stroke-width="4.500" stroke="black" fill="none" stroke-linecap="round"></path><path d="M 224.425,244.296 C 218.904,247.230 218.924,247.306 213.238,249.892" stroke-width="4.950" stroke="black" fill="none" stroke-linecap="round"></path><path d="M 213.238,249.892 C 210.135,251.303 206.978,253.996 206.846,252.290" stroke-width="5.957" stroke="black" fill="none" stroke-linecap="round"></path><path d="M 206.846,252.290 C 206.578,248.800 208.329,245.057 212.439,239.499" stroke-width="6.673" stroke="black" fill="none" stroke-linecap="round"></path><path d="M 212.439,239.499 C 223.110,225.072 224.040,225.549 236.410,212.320" stroke-width="4.500" stroke="black" fill="none" stroke-linecap="round"></path><path d="M 236.410,212.320 C 247.211,200.767 247.596,201.128 258.782,189.936" stroke-width="4.500" stroke="black" fill="none" stroke-linecap="round"></path><path d="M 258.782,189.936 C 267.970,180.743 268.227,180.983 277.159,171.550" stroke-width="4.500" stroke="black" fill="none" stroke-linecap="round"></path><path d="M 277.159,171.550 C 282.609,165.794 282.411,165.603 287.546,159.559" stroke-width="4.500" stroke="black" fill="none" stroke-linecap="round"></path><path d="M 287.546,159.559 C 289.202,157.609 290.931,155.562 290.742,155.562" stroke-width="5.736" stroke="black" fill="none" stroke-linecap="round"></path><path d="M 290.742,155.562 C 290.532,155.562 288.744,157.561 286.747,159.559" stroke-width="6.993" stroke="black" fill="none" stroke-linecap="round"></path><path d="M 286.747,159.559 C 278.757,167.553 278.675,167.473 270.767,175.547" stroke-width="4.500" stroke="black" fill="none" stroke-linecap="round"></path><path d="M 270.767,175.547 C 259.100,187.458 259.076,187.439 247.596,199.529" stroke-width="4.500" stroke="black" fill="none" stroke-linecap="round"></path><path d="M 247.596,199.529 C 236.304,211.421 236.605,211.710 225.223,223.511" stroke-width="4.500" stroke="black" fill="none" stroke-linecap="round"></path><path d="M 225.223,223.511 C 214.633,234.493 213.967,233.876 203.650,245.095" stroke-width="4.500" stroke="black" fill="none" stroke-linecap="round"></path><path d="M 203.650,245.095 C 195.590,253.861 196.123,254.342 188.469,263.482" stroke-width="4.500" stroke="black" fill="none" stroke-linecap="round"></path><path d="M 188.469,263.482 C 183.739,269.131 183.626,269.036 178.881,274.673" stroke-width="4.500" stroke="black" fill="none" stroke-linecap="round"></path><path d="M 178.881,274.673 C 177.234,276.631 174.564,280.129 175.685,278.670" stroke-width="5.880" stroke="black" fill="none" stroke-linecap="round"></path><path d="M 175.685,278.670 C 182.554,269.737 185.396,266.372 194.861,253.889" stroke-width="5.663" stroke="black" fill="none" stroke-linecap="round"></path><path d="M 194.861,253.889 C 202.974,243.190 203.355,243.433 210.841,232.305" stroke-width="4.500" stroke="black" fill="none" stroke-linecap="round"></path><path d="M 210.841,232.305 C 217.338,222.649 217.820,222.773 222.826,212.320" stroke-width="4.500" stroke="black" fill="none" stroke-linecap="round"></path><path d="M 222.826,212.320 C 227.008,203.588 226.980,203.340 229.218,193.934" stroke-width="4.500" stroke="black" fill="none" stroke-linecap="round"></path><path d="M 229.218,193.934 C 230.975,186.553 230.816,186.270 230.816,178.745" stroke-width="4.603" stroke="black" fill="none" stroke-linecap="round"></path><path d="M 230.816,178.745 C 230.816,175.877 230.343,175.820 229.218,173.149" stroke-width="5.840" stroke="black" fill="none" stroke-linecap="round"></path><path d="M 229.218,173.149 C 227.147,168.226 227.417,167.960 224.425,163.556" stroke-width="5.698" stroke="black" fill="none" stroke-linecap="round"></path><path d="M 224.425,163.556 C 220.626,157.967 220.142,158.261 215.635,153.164" stroke-width="5.087" stroke="black" fill="none" stroke-linecap="round"></path><path d="M 215.635,153.164 C 210.954,147.869 211.137,147.660 206.047,142.772" stroke-width="4.964" stroke="black" fill="none" stroke-linecap="round"></path><path d="M 206.047,142.772 C 201.149,138.067 200.864,138.363 195.660,133.978" stroke-width="4.988" stroke="black" fill="none" stroke-linecap="round"></path><path d="M 195.660,133.978 C 193.274,131.967 193.344,131.877 190.866,129.981" stroke-width="6.065" stroke="black" fill="none" stroke-linecap="round"></path><path d="M 190.866,129.981 C 186.552,126.680 182.215,121.390 182.077,123.586" stroke-width="5.553" stroke="black" fill="none" stroke-linecap="round"></path><path d="M 182.077,123.586 C 181.815,127.785 185.729,133.336 190.067,142.772" stroke-width="6.640" stroke="black" fill="none" stroke-linecap="round"></path><path d="M 190.067,142.772 C 194.918,153.321 195.337,153.127 200.454,163.556" stroke-width="4.500" stroke="black" fill="none" stroke-linecap="round"></path><path d="M 200.454,163.556 C 206.124,175.110 206.133,175.107 211.640,186.739" stroke-width="4.500" stroke="black" fill="none" stroke-linecap="round"></path><path d="M 211.640,186.739 C 216.920,197.890 217.096,197.816 222.027,209.122" stroke-width="4.500" stroke="black" fill="none" stroke-linecap="round"></path><path d="M 222.027,209.122 C 226.684,219.800 226.307,219.963 230.816,230.706" stroke-width="4.500" stroke="black" fill="none" stroke-linecap="round"></path><path d="M 230.816,230.706 C 234.696,239.948 234.860,239.879 238.806,249.092" stroke-width="4.500" stroke="black" fill="none" stroke-linecap="round"></path><path d="M 238.806,249.092 C 242.051,256.666 241.924,256.721 245.199,264.281" stroke-width="4.500" stroke="black" fill="none" stroke-linecap="round"></path><path d="M 245.199,264.281 C 247.118,268.712 247.196,268.678 249.194,273.074" stroke-width="5.212" stroke="black" fill="none" stroke-linecap="round"></path><circle r="3" cx="269.1685485839844" cy="349.817138671875" fill="black"></circle></svg>