<svg xmlns="http://www.w3.org/2000/svg" xmlns:xlink="http://www.w3.org/1999/xlink" viewBox="0 0 576 416" width="576" height="416"><path d="M 140.529,417.781 C 138.132,410.986 138.012,411.025 135.735,404.192" stroke-width="8.014" stroke="black" fill="none" stroke-linecap="round"></path><path d="M 135.735,404.192 C 134.816,401.432 135.085,401.345 134.137,398.596" stroke-width="6.969" stroke="black" fill="none" stroke-linecap="round"></path><path d="M 134.137,398.596 C 131.090,389.754 131.115,389.735 127.745,381.009" stroke-width="4.722" stroke="black" fill="none" stroke-linecap="round"></path><path d="M 127.745,381.009 C 124.324,372.148 124.481,372.065 120.554,363.422" stroke-width="4.500" stroke="black" fill="none" stroke-linecap="round"></path><path d="M 120.554,363.422 C 116.491,354.478 115.829,354.779 111.765,345.835" stroke-width="4.500" stroke="black" fill="none" stroke-linecap="round"></path><path d="M 111.765,345.835 C 107.839,337.192 108.241,337.012 104.574,328.248" stroke-width="4.500" stroke="black" fill="none" stroke-linecap="round"></path><path d="M 104.574,328.248 C 101.050,319.825 100.925,319.877 97.383,311.461" stroke-width="4.500" stroke="black" fill="none" stroke-linecap="round"></path><path d="M 97.383,311.461 C 94.533,304.688 94.555,304.679 91.790,297.871" stroke-width="4.537" stroke="black" fill="none" stroke-linecap="round"></path><path d="M 91.790,297.871 C 89.361,291.888 89.568,291.797 86.996,285.880" stroke-width="4.838" stroke="black" fill="none" stroke-linecap="round"></path><path d="M 86.996,285.880 C 85.573,282.604 83.070,279.667 83.800,279.485" stroke-width="5.729" stroke="black" fill="none" stroke-linecap="round"></path><path d="M 83.800,279.485 C 84.668,279.268 87.845,281.627 90.192,285.080" stroke-width="7.119" stroke="black" fill="none" stroke-linecap="round"></path><path d="M 90.192,285.080 C 94.637,291.619 93.482,292.444 97.383,299.470" stroke-width="5.048" stroke="black" fill="none" stroke-linecap="round"></path><path d="M 97.383,299.470 C 101.472,306.833 101.547,306.816 106.172,313.859" stroke-width="4.563" stroke="black" fill="none" stroke-linecap="round"></path><path d="M 106.172,313.859 C 110.735,320.806 110.809,320.771 115.760,327.449" stroke-width="4.500" stroke="black" fill="none" stroke-linecap="round"></path><path d="M 115.760,327.449 C 119.997,333.162 119.759,333.412 124.549,338.640" stroke-width="4.667" stroke="black" fill="none" stroke-linecap="round"></path><path d="M 124.549,338.640 C 128.548,343.005 128.257,343.897 133.338,346.634" stroke-width="5.091" stroke="black" fill="none" stroke-linecap="round"></path><path d="M 133.338,346.634 C 138.644,349.493 141.376,351.458 145.323,349.832" stroke-width="6.058" stroke="black" fill="none" stroke-linecap="round"></path><path d="M 145.323,349.832 C 148.167,348.660 146.744,345.469 146.921,341.039" stroke-width="6.768" stroke="black" fill="none" stroke-linecap="round"></path><path d="M 146.921,341.039 C 147.144,335.477 146.893,335.396 146.122,329.847" stroke-width="5.766" stroke="black" fill="none" stroke-linecap="round"></path><path d="M 146.122,329.847 C 144.895,321.007 144.947,320.955 142.926,312.260" stroke-width="4.726" stroke="black" fill="none" stroke-linecap="round"></path><path d="M 142.926,312.260 C 140.952,303.768 140.558,303.858 138.132,295.473" stroke-width="4.522" stroke="black" fill="none" stroke-linecap="round"></path><path d="M 138.132,295.473 C 136.164,288.669 136.442,288.569 134.137,281.883" stroke-width="4.786" stroke="black" fill="none" stroke-linecap="round"></path><path d="M 134.137,281.883 C 132.447,276.978 131.935,277.158 130.142,272.290" stroke-width="5.319" stroke="black" fill="none" stroke-linecap="round"></path><path d="M 130.142,272.290 C 129.138,269.564 128.048,266.363 128.544,266.694" stroke-width="6.219" stroke="black" fill="none" stroke-linecap="round"></path><path d="M 128.544,266.694 C 129.246,267.162 130.701,270.210 132.539,273.889" stroke-width="7.384" stroke="black" fill="none" stroke-linecap="round"></path><path d="M 132.539,273.889 C 136.294,281.401 135.899,281.603 139.730,289.077" stroke-width="5.121" stroke="black" fill="none" stroke-linecap="round"></path><path d="M 139.730,289.077 C 143.889,297.192 143.862,297.229 148.519,305.066" stroke-width="4.549" stroke="black" fill="none" stroke-linecap="round"></path><path d="M 148.519,305.066 C 152.651,312.018 152.773,311.956 157.308,318.655" stroke-width="4.592" stroke="black" fill="none" stroke-linecap="round"></path><path d="M 157.308,318.655 C 161.162,324.347 161.039,324.464 165.298,329.847" stroke-width="4.854" stroke="black" fill="none" stroke-linecap="round"></path><path d="M 165.298,329.847 C 168.629,334.056 168.590,334.184 172.489,337.841" stroke-width="5.297" stroke="black" fill="none" stroke-linecap="round"></path><path d="M 172.489,337.841 C 174.982,340.179 177.010,343.447 178.082,341.838" stroke-width="6.029" stroke="black" fill="none" stroke-linecap="round"></path><path d="M 178.082,341.838 C 180.206,338.651 180.032,334.828 178.881,328.248" stroke-width="6.743" stroke="black" fill="none" stroke-linecap="round"></path><path d="M 178.881,328.248 C 177.236,318.840 175.881,318.982 172.489,309.862" stroke-width="4.732" stroke="black" fill="none" stroke-linecap="round"></path><path d="M 172.489,309.862 C 169.489,301.795 169.634,301.708 166.097,293.874" stroke-width="4.639" stroke="black" fill="none" stroke-linecap="round"></path><path d="M 166.097,293.874 C 164.041,289.317 161.151,283.858 161.303,285.080" stroke-width="5.232" stroke="black" fill="none" stroke-linecap="round"></path><path d="M 161.303,285.080 C 161.550,287.056 162.923,293.365 166.896,300.269" stroke-width="6.509" stroke="black" fill="none" stroke-linecap="round"></path><path d="M 166.896,300.269 C 170.514,306.555 171.387,306.157 176.484,311.461" stroke-width="5.228" stroke="black" fill="none" stroke-linecap="round"></path><path d="M 176.484,311.461 C 181.375,316.549 181.075,317.187 186.871,321.054" stroke-width="5.004" stroke="black" fill="none" stroke-linecap="round"></path><path d="M 186.871,321.054 C 191.861,324.382 192.268,324.228 198.057,325.850" stroke-width="5.170" stroke="black" fill="none" stroke-linecap="round"></path><path d="M 198.057,325.850 C 202.255,327.026 203.245,328.271 206.846,326.649" stroke-width="5.676" stroke="black" fill="none" stroke-linecap="round"></path><path d="M 206.846,326.649 C 211.235,324.674 211.816,323.303 214.037,318.655" stroke-width="6.442" stroke="black" fill="none" stroke-linecap="round"></path><path d="M 214.037,318.655 C 216.210,314.110 215.455,313.487 215.635,308.263" stroke-width="5.799" stroke="black" fill="none" stroke-linecap="round"></path><path d="M 215.635,308.263 C 215.855,301.896 215.851,301.768 214.836,295.473" stroke-width="5.315" stroke="black" fill="none" stroke-linecap="round"></path><path d="M 214.836,295.473 C 213.854,289.377 214.196,289.021 211.640,283.482" stroke-width="5.236" stroke="black" fill="none" stroke-linecap="round"></path><path d="M 211.640,283.482 C 209.402,278.629 209.269,278.075 205.248,274.688" stroke-width="5.411" stroke="black" fill="none" stroke-linecap="round"></path><path d="M 205.248,274.688 C 201.678,271.680 201.070,271.694 196.459,270.691" stroke-width="5.637" stroke="black" fill="none" stroke-linecap="round"></path><path d="M 196.459,270.691 C 191.881,269.695 191.655,270.474 186.871,270.691" stroke-width="5.719" stroke="black" fill="none" stroke-linecap="round"></path><path d="M 186.871,270.691 C 182.866,270.873 182.615,270.245 178.881,271.491" stroke-width="6.063" stroke="black" fill="none" stroke-linecap="round"></path><path d="M 178.881,271.491 C 174.226,273.043 174.276,273.567 170.092,276.287" stroke-width="5.684" stroke="black" fill="none" stroke-linecap="round"></path><path d="M 170.092,276.287 C 166.286,278.763 166.337,278.904 162.901,281.883" stroke-width="5.806" stroke="black" fill="none" stroke-linecap="round"></path><path d="M 162.901,281.883 C 160.344,284.100 159.633,283.845 158.107,286.679" stroke-width="6.231" stroke="black" fill="none" stroke-linecap="round"></path><path d="M 158.107,286.679 C 156.836,289.041 155.981,292.541 157.308,292.275" stroke-width="7.202" stroke="black" fill="none" stroke-linecap="round"></path><path d="M 157.308,292.275 C 159.976,291.741 161.924,288.922 166.097,285.080" stroke-width="6.877" stroke="black" fill="none" stroke-linecap="round"></path><path d="M 166.097,285.080 C 171.911,279.729 172.219,279.930 177.283,273.889" stroke-width="5.160" stroke="black" fill="none" stroke-linecap="round"></path><path d="M 177.283,273.889 C 182.606,267.539 181.886,266.950 186.871,260.299" stroke-width="4.717" stroke="black" fill="none" stroke-linecap="round"></path><path d="M 186.871,260.299 C 191.474,254.159 191.782,254.392 196.459,248.308" stroke-width="4.725" stroke="black" fill="none" stroke-linecap="round"></path><path d="M 196.459,248.308 C 199.772,244.000 199.407,243.699 202.851,239.514" stroke-width="5.236" stroke="black" fill="none" stroke-linecap="round"></path><path d="M 202.851,239.514 C 205.000,236.904 205.141,235.174 207.645,234.718" stroke-width="6.083" stroke="black" fill="none" stroke-linecap="round"></path><path d="M 207.645,234.718 C 209.535,234.374 210.591,235.698 211.640,237.916" stroke-width="7.186" stroke="black" fill="none" stroke-linecap="round"></path><path d="M 211.640,237.916 C 214.186,243.293 213.258,243.906 214.836,249.907" stroke-width="5.672" stroke="black" fill="none" stroke-linecap="round"></path><path d="M 214.836,249.907 C 217.253,259.095 216.941,259.186 219.630,268.293" stroke-width="4.596" stroke="black" fill="none" stroke-linecap="round"></path><path d="M 219.630,268.293 C 222.135,276.773 222.221,276.762 225.223,285.080" stroke-width="4.500" stroke="black" fill="none" stroke-linecap="round"></path><path d="M 225.223,285.080 C 227.415,291.151 227.056,291.393 230.017,297.071" stroke-width="4.981" stroke="black" fill="none" stroke-linecap="round"></path><path d="M 230.017,297.071 C 231.850,300.586 231.769,301.827 234.811,303.467" stroke-width="5.654" stroke="black" fill="none" stroke-linecap="round"></path><path d="M 234.811,303.467 C 236.962,304.625 239.148,304.623 240.405,302.667" stroke-width="6.956" stroke="black" fill="none" stroke-linecap="round"></path><path d="M 240.405,302.667 C 242.743,299.027 241.280,297.482 242.003,292.275" stroke-width="5.917" stroke="black" fill="none" stroke-linecap="round"></path><path d="M 242.003,292.275 C 243.277,283.093 242.911,283.034 244.400,273.889" stroke-width="4.688" stroke="black" fill="none" stroke-linecap="round"></path><path d="M 244.400,273.889 C 245.708,265.847 245.338,265.682 247.596,257.901" stroke-width="4.622" stroke="black" fill="none" stroke-linecap="round"></path><path d="M 247.596,257.901 C 248.933,253.291 248.566,252.133 251.591,249.107" stroke-width="5.351" stroke="black" fill="none" stroke-linecap="round"></path><path d="M 251.591,249.107 C 253.360,247.337 254.716,247.548 257.184,248.308" stroke-width="6.262" stroke="black" fill="none" stroke-linecap="round"></path><path d="M 257.184,248.308 C 259.910,249.147 259.699,250.177 261.978,252.305" stroke-width="6.483" stroke="black" fill="none" stroke-linecap="round"></path><path d="M 261.978,252.305 C 265.691,255.773 265.478,256.002 269.169,259.499" stroke-width="5.862" stroke="black" fill="none" stroke-linecap="round"></path><path d="M 269.169,259.499 C 273.069,263.196 273.050,263.232 277.159,266.694" stroke-width="5.613" stroke="black" fill="none" stroke-linecap="round"></path><path d="M 277.159,266.694 C 280.640,269.628 280.408,271.130 284.350,272.290" stroke-width="5.783" stroke="black" fill="none" stroke-linecap="round"></path><path d="M 284.350,272.290 C 287.200,273.129 289.128,272.951 290.742,270.691" stroke-width="6.910" stroke="black" fill="none" stroke-linecap="round"></path><path d="M 290.742,270.691 C 293.123,267.355 291.804,265.925 292.340,261.098" stroke-width="6.035" stroke="black" fill="none" stroke-linecap="round"></path><path d="M 292.340,261.098 C 293.002,255.133 292.476,255.072 293.139,249.107" stroke-width="5.480" stroke="black" fill="none" stroke-linecap="round"></path><path d="M 293.139,249.107 C 293.675,244.280 292.236,242.698 294.737,239.514" stroke-width="5.649" stroke="black" fill="none" stroke-linecap="round"></path><path d="M 294.737,239.514 C 296.631,237.103 298.763,237.237 301.928,237.916" stroke-width="6.769" stroke="black" fill="none" stroke-linecap="round"></path><path d="M 301.928,237.916 C 304.356,238.436 303.682,240.232 305.923,241.913" stroke-width="6.759" stroke="black" fill="none" stroke-linecap="round"></path><path d="M 305.923,241.913 C 308.476,243.829 308.576,243.850 311.516,245.110" stroke-width="6.595" stroke="black" fill="none" stroke-linecap="round"></path><path d="M 311.516,245.110 C 314.169,246.248 314.406,246.917 317.109,246.709" stroke-width="6.672" stroke="black" fill="none" stroke-linecap="round"></path><path d="M 317.109,246.709 C 319.599,246.517 320.554,246.503 321.903,244.311" stroke-width="6.790" stroke="black" fill="none" stroke-linecap="round"></path><path d="M 321.903,244.311 C 326.946,236.111 326.217,235.240 329.893,225.924" stroke-width="5.959" stroke="black" fill="none" stroke-linecap="round"></path><path d="M 329.893,225.924 C 332.210,220.051 331.358,219.685 333.888,213.934" stroke-width="5.378" stroke="black" fill="none" stroke-linecap="round"></path><path d="M 333.888,213.934 C 335.753,209.692 335.719,209.397 338.682,205.939" stroke-width="5.675" stroke="black" fill="none" stroke-linecap="round"></path><path d="M 338.682,205.939 C 340.513,203.802 340.866,203.861 343.476,202.742" stroke-width="6.369" stroke="black" fill="none" stroke-linecap="round"></path><path d="M 343.476,202.742 C 346.459,201.463 346.702,202.048 349.868,201.143" stroke-width="6.451" stroke="black" fill="none" stroke-linecap="round"></path><path d="M 349.868,201.143 C 352.295,200.449 352.358,200.569 354.662,199.544" stroke-width="6.844" stroke="black" fill="none" stroke-linecap="round"></path><path d="M 354.662,199.544 C 359.549,197.371 359.864,197.774 364.250,194.748" stroke-width="5.859" stroke="black" fill="none" stroke-linecap="round"></path><path d="M 364.250,194.748 C 371.450,189.780 371.339,189.480 377.833,183.556" stroke-width="4.661" stroke="black" fill="none" stroke-linecap="round"></path><path d="M 377.833,183.556 C 384.922,177.089 384.978,177.085 391.416,169.966" stroke-width="4.500" stroke="black" fill="none" stroke-linecap="round"></path><path d="M 391.416,169.966 C 400.159,160.298 399.753,159.929 408.195,149.981" stroke-width="4.500" stroke="black" fill="none" stroke-linecap="round"></path><path d="M 408.195,149.981 C 417.730,138.745 417.783,138.790 427.371,127.598" stroke-width="4.500" stroke="black" fill="none" stroke-linecap="round"></path></svg>