<svg xmlns="http://www.w3.org/2000/svg" xmlns:xlink="http://www.w3.org/1999/xlink" viewBox="0 0 576 416" width="576" height="416"><circle r="3" cx="79.00625610351562" cy="247.10910034179688" fill="black"></circle><path d="M 412.190,226.324 C 415.386,223.527 419.197,219.959 418.582,220.729" stroke-width="8.276" stroke="black" fill="none" stroke-linecap="round"></path><path d="M 418.582,220.729 C 417.599,221.958 414.285,226.110 408.994,230.322" stroke-width="7.423" stroke="black" fill="none" stroke-linecap="round"></path><path d="M 408.994,230.322 C 396.707,240.100 396.487,239.928 383.426,248.708" stroke-width="4.500" stroke="black" fill="none" stroke-linecap="round"></path><path d="M 383.426,248.708 C 370.919,257.115 370.495,256.477 357.858,264.696" stroke-width="4.500" stroke="black" fill="none" stroke-linecap="round"></path><path d="M 357.858,264.696 C 346.525,272.066 346.773,272.447 335.486,279.885" stroke-width="4.500" stroke="black" fill="none" stroke-linecap="round"></path><path d="M 335.486,279.885 C 330.394,283.239 330.317,283.123 325.099,286.280" stroke-width="4.544" stroke="black" fill="none" stroke-linecap="round"></path><path d="M 325.099,286.280 C 313.138,293.515 313.156,293.547 301.129,300.669" stroke-width="4.500" stroke="black" fill="none" stroke-linecap="round"></path><path d="M 367.446,219.929 C 363.850,221.928 363.674,221.646 360.255,223.926" stroke-width="7.315" stroke="black" fill="none" stroke-linecap="round"></path><path d="M 360.255,223.926 C 346.895,232.837 347.199,233.309 333.888,242.313" stroke-width="4.500" stroke="black" fill="none" stroke-linecap="round"></path><path d="M 333.888,242.313 C 318.835,252.494 318.798,252.446 303.526,262.298" stroke-width="4.500" stroke="black" fill="none" stroke-linecap="round"></path><path d="M 303.526,262.298 C 288.436,272.032 288.329,271.866 273.164,281.483" stroke-width="4.500" stroke="black" fill="none" stroke-linecap="round"></path><path d="M 273.164,281.483 C 259.965,289.853 260.171,290.196 246.797,298.271" stroke-width="4.500" stroke="black" fill="none" stroke-linecap="round"></path><path d="M 246.797,298.271 C 237.000,304.186 236.879,304.000 226.822,309.462" stroke-width="4.500" stroke="black" fill="none" stroke-linecap="round"></path><path d="M 226.822,309.462 C 222.897,311.594 222.827,311.461 218.832,313.460" stroke-width="4.940" stroke="black" fill="none" stroke-linecap="round"></path><path d="M 376.235,207.938 C 362.652,215.133 362.560,214.965 349.069,222.328" stroke-width="5.951" stroke="black" fill="none" stroke-linecap="round"></path><path d="M 349.069,222.328 C 327.404,234.150 327.458,234.252 305.923,246.310" stroke-width="4.500" stroke="black" fill="none" stroke-linecap="round"></path><path d="M 305.923,246.310 C 283.913,258.633 284.025,258.836 261.978,271.091" stroke-width="4.500" stroke="black" fill="none" stroke-linecap="round"></path><path d="M 261.978,271.091 C 240.879,282.818 241.159,283.393 219.630,294.274" stroke-width="4.500" stroke="black" fill="none" stroke-linecap="round"></path><path d="M 219.630,294.274 C 202.408,302.978 202.137,302.459 184.474,310.262" stroke-width="4.500" stroke="black" fill="none" stroke-linecap="round"></path><path d="M 184.474,310.262 C 171.375,316.049 171.639,317.023 158.107,321.454" stroke-width="4.500" stroke="black" fill="none" stroke-linecap="round"></path><path d="M 158.107,321.454 C 149.667,324.217 149.157,324.651 140.529,324.651" stroke-width="4.500" stroke="black" fill="none" stroke-linecap="round"></path><path d="M 140.529,324.651 C 136.373,324.651 131.815,324.716 132.539,321.454" stroke-width="5.152" stroke="black" fill="none" stroke-linecap="round"></path><path d="M 132.539,321.454 C 135.011,310.327 138.298,307.653 146.921,295.873" stroke-width="4.970" stroke="black" fill="none" stroke-linecap="round"></path><path d="M 146.921,295.873 C 159.072,279.274 159.136,278.824 174.087,264.696" stroke-width="4.500" stroke="black" fill="none" stroke-linecap="round"></path><path d="M 174.087,264.696 C 187.900,251.644 188.510,251.932 204.449,241.513" stroke-width="4.500" stroke="black" fill="none" stroke-linecap="round"></path><path d="M 204.449,241.513 C 218.473,232.347 218.473,231.488 234.013,225.525" stroke-width="4.500" stroke="black" fill="none" stroke-linecap="round"></path><path d="M 234.013,225.525 C 247.637,220.297 248.270,219.948 262.777,219.130" stroke-width="4.500" stroke="black" fill="none" stroke-linecap="round"></path><path d="M 262.777,219.130 C 276.634,218.349 277.300,218.849 290.742,222.328" stroke-width="4.500" stroke="black" fill="none" stroke-linecap="round"></path><path d="M 290.742,222.328 C 300.471,224.845 300.573,225.654 309.119,231.121" stroke-width="4.500" stroke="black" fill="none" stroke-linecap="round"></path><path d="M 309.119,231.121 C 324.942,241.243 325.423,241.047 339.481,253.504" stroke-width="4.500" stroke="black" fill="none" stroke-linecap="round"></path><path d="M 339.481,253.504 C 353.388,265.828 352.265,267.094 365.049,280.684" stroke-width="4.500" stroke="black" fill="none" stroke-linecap="round"></path></svg>