<svg xmlns="http://www.w3.org/2000/svg" xmlns:xlink="http://www.w3.org/1999/xlink" viewBox="0 0 576 416" width="576" height="416"><path d="M 362.652,259.899 C 357.858,257.901 357.901,256.709 353.064,255.902" stroke-width="8.641" stroke="black" fill="none" stroke-linecap="round"></path><path d="M 353.064,255.902 C 350.710,255.510 347.930,256.651 348.270,257.501" stroke-width="8.330" stroke="black" fill="none" stroke-linecap="round"></path><path d="M 348.270,257.501 C 348.729,258.650 351.383,258.988 354.662,259.899" stroke-width="8.400" stroke="black" fill="none" stroke-linecap="round"></path><path d="M 354.662,259.899 C 358.574,260.987 358.641,260.790 362.652,261.498" stroke-width="7.536" stroke="black" fill="none" stroke-linecap="round"></path><path d="M 362.652,261.498 C 365.433,261.989 368.984,262.002 368.245,262.298" stroke-width="7.684" stroke="black" fill="none" stroke-linecap="round"></path><path d="M 368.245,262.298 C 366.986,262.801 363.458,262.868 358.657,263.097" stroke-width="8.050" stroke="black" fill="none" stroke-linecap="round"></path><path d="M 358.657,263.097 C 355.068,263.268 355.061,263.097 351.466,263.097" stroke-width="6.759" stroke="black" fill="none" stroke-linecap="round"></path><path d="M 351.466,263.097 C 347.870,263.097 347.870,263.097 344.275,263.097" stroke-width="6.449" stroke="black" fill="none" stroke-linecap="round"></path><path d="M 344.275,263.097 C 341.478,263.097 341.478,263.097 338.682,263.097" stroke-width="6.672" stroke="black" fill="none" stroke-linecap="round"></path><path d="M 338.682,263.097 C 335.885,263.097 335.767,263.671 333.089,263.097" stroke-width="6.742" stroke="black" fill="none" stroke-linecap="round"></path><path d="M 333.089,263.097 C 330.174,262.472 329.981,262.357 327.496,260.699" stroke-width="7.342" stroke="black" fill="none" stroke-linecap="round"></path><path d="M 327.496,260.699 C 325.187,259.159 325.726,256.702 323.501,256.702" stroke-width="7.858" stroke="black" fill="none" stroke-linecap="round"></path><path d="M 323.501,256.702 C 320.532,256.702 320.369,258.810 317.109,260.699" stroke-width="8.217" stroke="black" fill="none" stroke-linecap="round"></path><path d="M 317.109,260.699 C 312.778,263.207 312.945,264.614 308.320,265.495" stroke-width="7.289" stroke="black" fill="none" stroke-linecap="round"></path><path d="M 308.320,265.495 C 304.555,266.213 304.217,265.041 300.330,263.896" stroke-width="7.269" stroke="black" fill="none" stroke-linecap="round"></path><path d="M 300.330,263.896 C 297.426,263.042 297.637,262.327 294.737,261.498" stroke-width="7.520" stroke="black" fill="none" stroke-linecap="round"></path><path d="M 294.737,261.498 C 292.044,260.729 291.885,260.488 289.144,260.699" stroke-width="7.919" stroke="black" fill="none" stroke-linecap="round"></path><path d="M 289.144,260.699 C 286.691,260.888 286.666,261.304 284.350,262.298" stroke-width="8.234" stroke="black" fill="none" stroke-linecap="round"></path><path d="M 284.350,262.298 C 281.073,263.703 280.984,263.632 277.958,265.495" stroke-width="7.659" stroke="black" fill="none" stroke-linecap="round"></path><path d="M 277.958,265.495 C 275.791,266.829 275.915,267.040 273.963,268.693" stroke-width="7.125" stroke="black" fill="none" stroke-linecap="round"></path><path d="M 273.963,268.693 C 270.721,271.437 270.767,271.491 267.571,274.289" stroke-width="6.299" stroke="black" fill="none" stroke-linecap="round"></path><circle r="3" cx="307.5205993652344" cy="294.2738342285156" fill="black"></circle><path d="M 303.526,169.567 C 304.325,178.760 304.336,178.759 305.124,187.953" stroke-width="7.848" stroke="black" fill="none" stroke-linecap="round"></path><path d="M 305.124,187.953 C 305.534,192.749 306.034,192.745 305.923,197.546" stroke-width="6.248" stroke="black" fill="none" stroke-linecap="round"></path><path d="M 305.923,197.546 C 305.635,209.932 305.276,209.949 304.325,222.328" stroke-width="4.500" stroke="black" fill="none" stroke-linecap="round"></path><path d="M 304.325,222.328 C 303.678,230.733 303.490,230.718 302.727,239.115" stroke-width="4.500" stroke="black" fill="none" stroke-linecap="round"></path><path d="M 302.727,239.115 C 302.291,243.908 302.327,243.911 301.928,248.708" stroke-width="5.399" stroke="black" fill="none" stroke-linecap="round"></path><path d="M 295.536,170.366 C 294.337,175.163 294.146,175.123 293.139,179.959" stroke-width="8.377" stroke="black" fill="none" stroke-linecap="round"></path><path d="M 293.139,179.959 C 292.148,184.716 292.531,184.795 291.541,189.552" stroke-width="6.326" stroke="black" fill="none" stroke-linecap="round"></path><path d="M 291.541,189.552 C 290.534,194.388 290.342,194.348 289.144,199.145" stroke-width="5.867" stroke="black" fill="none" stroke-linecap="round"></path><path d="M 289.144,199.145 C 287.945,203.941 287.796,203.909 286.747,208.738" stroke-width="5.742" stroke="black" fill="none" stroke-linecap="round"></path><path d="M 286.747,208.738 C 285.798,213.102 285.948,213.134 285.149,217.531" stroke-width="5.851" stroke="black" fill="none" stroke-linecap="round"></path><path d="M 285.149,217.531 C 284.350,221.928 284.815,222.056 283.551,226.324" stroke-width="5.884" stroke="black" fill="none" stroke-linecap="round"></path><path d="M 283.551,226.324 C 281.619,232.848 281.052,232.684 278.757,239.115" stroke-width="6.213" stroke="black" fill="none" stroke-linecap="round"></path><path d="M 278.757,239.115 C 277.057,243.876 277.469,244.040 275.561,248.708" stroke-width="5.803" stroke="black" fill="none" stroke-linecap="round"></path><path d="M 275.561,248.708 C 273.874,252.833 273.377,252.624 271.566,256.702" stroke-width="5.783" stroke="black" fill="none" stroke-linecap="round"></path><path d="M 271.566,256.702 C 270.181,259.818 270.316,259.882 269.169,263.097" stroke-width="6.215" stroke="black" fill="none" stroke-linecap="round"></path><path d="M 269.169,263.097 C 268.319,265.477 268.370,265.495 267.571,267.894" stroke-width="6.863" stroke="black" fill="none" stroke-linecap="round"></path><path d="M 267.571,267.894 C 266.772,270.292 266.161,272.879 265.973,272.690" stroke-width="7.929" stroke="black" fill="none" stroke-linecap="round"></path><path d="M 265.973,272.690 C 265.762,272.479 266.307,269.881 266.772,267.094" stroke-width="8.414" stroke="black" fill="none" stroke-linecap="round"></path><path d="M 266.772,267.094 C 267.506,262.687 267.767,262.724 268.370,258.301" stroke-width="6.480" stroke="black" fill="none" stroke-linecap="round"></path><path d="M 268.370,258.301 C 268.965,253.931 269.169,253.900 269.169,249.507" stroke-width="6.080" stroke="black" fill="none" stroke-linecap="round"></path><path d="M 269.169,249.507 C 269.169,245.906 269.075,245.843 268.370,242.313" stroke-width="6.313" stroke="black" fill="none" stroke-linecap="round"></path><path d="M 268.370,242.313 C 267.877,239.847 268.202,239.484 266.772,237.516" stroke-width="6.672" stroke="black" fill="none" stroke-linecap="round"></path><path d="M 266.772,237.516 C 265.006,235.087 264.730,234.896 261.978,233.519" stroke-width="6.610" stroke="black" fill="none" stroke-linecap="round"></path><path d="M 261.978,233.519 C 256.740,230.899 256.577,230.648 250.792,229.522" stroke-width="5.633" stroke="black" fill="none" stroke-linecap="round"></path><path d="M 250.792,229.522 C 242.195,227.850 242.012,227.923 233.214,227.923" stroke-width="4.722" stroke="black" fill="none" stroke-linecap="round"></path><path d="M 233.214,227.923 C 221.238,227.923 221.205,228.481 209.243,229.522" stroke-width="4.500" stroke="black" fill="none" stroke-linecap="round"></path><path d="M 209.243,229.522 C 202.828,230.080 202.601,229.288 196.459,231.121" stroke-width="4.789" stroke="black" fill="none" stroke-linecap="round"></path><path d="M 196.459,231.121 C 179.830,236.083 179.703,236.288 163.700,243.112" stroke-width="4.500" stroke="black" fill="none" stroke-linecap="round"></path><path d="M 163.700,243.112 C 155.333,246.680 155.509,247.183 147.720,251.905" stroke-width="4.500" stroke="black" fill="none" stroke-linecap="round"></path><path d="M 147.720,251.905 C 142.325,255.177 141.647,254.784 137.333,259.100" stroke-width="4.720" stroke="black" fill="none" stroke-linecap="round"></path><path d="M 137.333,259.100 C 135.255,261.179 134.186,262.443 134.936,264.696" stroke-width="5.911" stroke="black" fill="none" stroke-linecap="round"></path><path d="M 134.936,264.696 C 135.784,267.240 137.245,268.054 140.529,268.693" stroke-width="6.954" stroke="black" fill="none" stroke-linecap="round"></path><path d="M 140.529,268.693 C 151.627,270.852 152.098,269.978 163.700,270.292" stroke-width="4.500" stroke="black" fill="none" stroke-linecap="round"></path><path d="M 163.700,270.292 C 181.661,270.777 181.678,270.292 199.655,270.292" stroke-width="4.500" stroke="black" fill="none" stroke-linecap="round"></path><path d="M 199.655,270.292 C 222.027,270.292 222.030,270.503 244.400,270.292" stroke-width="4.500" stroke="black" fill="none" stroke-linecap="round"></path><path d="M 244.400,270.292 C 264.377,270.103 264.375,269.913 284.350,269.492" stroke-width="4.500" stroke="black" fill="none" stroke-linecap="round"></path><path d="M 284.350,269.492 C 302.328,269.114 302.327,269.102 320.305,268.693" stroke-width="4.500" stroke="black" fill="none" stroke-linecap="round"></path><path d="M 320.305,268.693 C 337.483,268.302 337.484,268.308 354.662,267.894" stroke-width="4.500" stroke="black" fill="none" stroke-linecap="round"></path><path d="M 354.662,267.894 C 370.642,267.508 370.668,267.957 386.622,267.094" stroke-width="4.500" stroke="black" fill="none" stroke-linecap="round"></path><path d="M 386.622,267.094 C 400.231,266.358 400.201,265.853 413.788,264.696" stroke-width="4.500" stroke="black" fill="none" stroke-linecap="round"></path><path d="M 413.788,264.696 C 418.978,264.254 418.981,264.296 424.175,263.896" stroke-width="4.626" stroke="black" fill="none" stroke-linecap="round"></path><path d="M 281.154,271.091 C 276.759,270.292 276.777,269.354 272.365,269.492" stroke-width="8.507" stroke="black" fill="none" stroke-linecap="round"></path><path d="M 272.365,269.492 C 263.993,269.754 263.949,270.528 255.586,271.891" stroke-width="5.247" stroke="black" fill="none" stroke-linecap="round"></path><path d="M 255.586,271.891 C 246.770,273.326 246.800,273.509 238.008,275.088" stroke-width="4.615" stroke="black" fill="none" stroke-linecap="round"></path><path d="M 238.008,275.088 C 231.220,276.307 231.091,275.819 224.425,277.486" stroke-width="4.857" stroke="black" fill="none" stroke-linecap="round"></path><path d="M 224.425,277.486 C 219.905,278.617 219.953,278.905 215.635,280.684" stroke-width="5.484" stroke="black" fill="none" stroke-linecap="round"></path><path d="M 215.635,280.684 C 213.161,281.703 210.490,282.027 210.841,283.082" stroke-width="6.891" stroke="black" fill="none" stroke-linecap="round"></path><path d="M 210.841,283.082 C 211.289,284.426 213.879,285.061 217.233,285.480" stroke-width="7.567" stroke="black" fill="none" stroke-linecap="round"></path><path d="M 217.233,285.480 C 226.663,286.660 226.820,285.924 236.410,286.280" stroke-width="4.873" stroke="black" fill="none" stroke-linecap="round"></path><path d="M 236.410,286.280 C 248.393,286.724 248.393,287.079 260.380,287.079" stroke-width="4.500" stroke="black" fill="none" stroke-linecap="round"></path><path d="M 260.380,287.079 C 276.358,287.079 276.358,286.542 292.340,286.280" stroke-width="4.500" stroke="black" fill="none" stroke-linecap="round"></path><path d="M 292.340,286.280 C 300.727,286.142 300.735,286.495 309.119,286.280" stroke-width="4.500" stroke="black" fill="none" stroke-linecap="round"></path><path d="M 309.119,286.280 C 316.316,286.095 316.312,285.916 323.501,285.480" stroke-width="4.619" stroke="black" fill="none" stroke-linecap="round"></path><path d="M 323.501,285.480 C 329.495,285.117 329.505,285.201 335.486,284.681" stroke-width="5.059" stroke="black" fill="none" stroke-linecap="round"></path><path d="M 335.486,284.681 C 338.693,284.402 338.670,284.161 341.878,283.882" stroke-width="6.004" stroke="black" fill="none" stroke-linecap="round"></path><path d="M 341.878,283.882 C 347.859,283.361 347.864,283.297 353.863,283.082" stroke-width="5.566" stroke="black" fill="none" stroke-linecap="round"></path><path d="M 353.863,283.082 C 359.050,282.897 359.069,283.318 364.250,283.082" stroke-width="5.490" stroke="black" fill="none" stroke-linecap="round"></path><path d="M 248.395,318.256 C 256.784,313.060 257.602,314.092 265.174,307.864" stroke-width="7.292" stroke="black" fill="none" stroke-linecap="round"></path><path d="M 265.174,307.864 C 275.580,299.303 276.156,299.354 284.350,288.678" stroke-width="4.500" stroke="black" fill="none" stroke-linecap="round"></path><path d="M 284.350,288.678 C 293.335,276.971 293.169,276.463 299.531,263.097" stroke-width="4.500" stroke="black" fill="none" stroke-linecap="round"></path><path d="M 299.531,263.097 C 305.154,251.282 305.149,251.004 308.320,238.316" stroke-width="4.500" stroke="black" fill="none" stroke-linecap="round"></path><path d="M 308.320,238.316 C 311.142,227.022 311.077,226.756 311.516,215.133" stroke-width="4.500" stroke="black" fill="none" stroke-linecap="round"></path><path d="M 311.516,215.133 C 311.876,205.571 311.273,205.442 309.918,195.947" stroke-width="4.500" stroke="black" fill="none" stroke-linecap="round"></path><path d="M 309.918,195.947 C 309.276,191.452 309.008,191.454 307.521,187.154" stroke-width="5.098" stroke="black" fill="none" stroke-linecap="round"></path><path d="M 307.521,187.154 C 305.413,181.061 305.511,180.966 302.727,175.163" stroke-width="5.110" stroke="black" fill="none" stroke-linecap="round"></path><path d="M 302.727,175.163 C 300.717,170.974 300.922,170.619 297.933,167.169" stroke-width="5.582" stroke="black" fill="none" stroke-linecap="round"></path><path d="M 297.933,167.169 C 295.728,164.624 292.938,161.375 292.340,163.172" stroke-width="6.746" stroke="black" fill="none" stroke-linecap="round"></path><path d="M 292.340,163.172 C 290.941,167.371 292.731,171.225 293.938,179.160" stroke-width="6.878" stroke="black" fill="none" stroke-linecap="round"></path><path d="M 293.938,179.160 C 295.527,189.611 296.162,189.513 297.933,199.944" stroke-width="4.698" stroke="black" fill="none" stroke-linecap="round"></path><path d="M 297.933,199.944 C 299.758,210.698 299.501,210.741 301.129,221.528" stroke-width="4.500" stroke="black" fill="none" stroke-linecap="round"></path><path d="M 301.129,221.528 C 302.697,231.925 302.868,231.901 304.325,242.313" stroke-width="4.500" stroke="black" fill="none" stroke-linecap="round"></path><path d="M 304.325,242.313 C 305.664,251.886 305.269,251.944 306.722,261.498" stroke-width="4.500" stroke="black" fill="none" stroke-linecap="round"></path><path d="M 306.722,261.498 C 308.065,270.331 308.166,270.323 309.918,279.085" stroke-width="4.500" stroke="black" fill="none" stroke-linecap="round"></path><path d="M 309.918,279.085 C 311.362,286.311 311.797,286.230 313.114,293.474" stroke-width="4.657" stroke="black" fill="none" stroke-linecap="round"></path><path d="M 313.114,293.474 C 314.194,299.420 313.826,299.483 314.712,305.466" stroke-width="5.142" stroke="black" fill="none" stroke-linecap="round"></path><path d="M 314.712,305.466 C 315.424,310.275 315.401,310.283 316.310,315.058" stroke-width="5.453" stroke="black" fill="none" stroke-linecap="round"></path><path d="M 316.310,315.058 C 316.999,318.677 317.560,318.606 317.908,322.253" stroke-width="6.005" stroke="black" fill="none" stroke-linecap="round"></path><circle r="3" cx="333.8876647949219" cy="353.4296569824219" fill="black"></circle><circle r="3" cx="210.84146118164062" cy="200.74359130859375" fill="black"></circle></svg>