<svg xmlns="http://www.w3.org/2000/svg" xmlns:xlink="http://www.w3.org/1999/xlink" viewBox="0 0 576 416" width="576" height="416"><path d="M 118.956,197.546 C 120.554,193.549 120.523,193.536 122.152,189.552" stroke-width="8.277" stroke="black" fill="none" stroke-linecap="round"></path><path d="M 122.152,189.552 C 124.119,184.743 124.038,184.707 126.147,179.959" stroke-width="7.219" stroke="black" fill="none" stroke-linecap="round"></path><path d="M 126.147,179.959 C 130.430,170.318 131.193,170.604 134.936,160.773" stroke-width="4.632" stroke="black" fill="none" stroke-linecap="round"></path><path d="M 134.936,160.773 C 137.585,153.817 137.315,153.663 138.931,146.384" stroke-width="4.648" stroke="black" fill="none" stroke-linecap="round"></path><path d="M 138.931,146.384 C 140.511,139.274 140.725,139.239 141.328,131.995" stroke-width="4.783" stroke="black" fill="none" stroke-linecap="round"></path><path d="M 141.328,131.995 C 141.924,124.850 141.996,124.730 141.328,117.606" stroke-width="4.649" stroke="black" fill="none" stroke-linecap="round"></path><path d="M 141.328,117.606 C 140.797,111.939 140.273,111.975 138.931,106.414" stroke-width="5.137" stroke="black" fill="none" stroke-linecap="round"></path><path d="M 138.931,106.414 C 137.477,100.384 137.631,100.322 135.735,94.423" stroke-width="5.089" stroke="black" fill="none" stroke-linecap="round"></path><path d="M 135.735,94.423 C 134.035,89.130 133.979,89.121 131.740,84.031" stroke-width="5.240" stroke="black" fill="none" stroke-linecap="round"></path><path d="M 131.740,84.031 C 129.584,79.128 129.511,79.142 126.946,74.438" stroke-width="5.432" stroke="black" fill="none" stroke-linecap="round"></path><path d="M 126.946,74.438 C 124.717,70.349 124.830,70.239 122.152,66.444" stroke-width="5.693" stroke="black" fill="none" stroke-linecap="round"></path><path d="M 122.152,66.444 C 120.036,63.444 119.952,63.443 117.358,60.848" stroke-width="6.013" stroke="black" fill="none" stroke-linecap="round"></path><path d="M 117.358,60.848 C 115.557,59.046 115.696,58.428 113.363,57.650" stroke-width="6.619" stroke="black" fill="none" stroke-linecap="round"></path><path d="M 113.363,57.650 C 109.703,56.430 108.331,55.186 105.373,56.851" stroke-width="7.069" stroke="black" fill="none" stroke-linecap="round"></path><path d="M 105.373,56.851 C 101.939,58.784 102.423,60.602 100.579,64.845" stroke-width="6.999" stroke="black" fill="none" stroke-linecap="round"></path><path d="M 100.579,64.845 C 98.428,69.795 98.699,69.970 97.383,75.237" stroke-width="5.764" stroke="black" fill="none" stroke-linecap="round"></path><path d="M 97.383,75.237 C 95.903,81.162 95.742,81.176 94.986,87.228" stroke-width="5.383" stroke="black" fill="none" stroke-linecap="round"></path><path d="M 94.986,87.228 C 94.144,93.966 94.376,94.017 94.187,100.818" stroke-width="5.107" stroke="black" fill="none" stroke-linecap="round"></path><path d="M 94.187,100.818 C 93.977,108.406 93.835,108.427 94.187,116.007" stroke-width="4.854" stroke="black" fill="none" stroke-linecap="round"></path><path d="M 94.187,116.007 C 94.634,125.614 94.828,125.615 95.785,135.193" stroke-width="4.500" stroke="black" fill="none" stroke-linecap="round"></path><path d="M 95.785,135.193 C 96.826,145.600 96.984,145.585 98.182,155.977" stroke-width="4.500" stroke="black" fill="none" stroke-linecap="round"></path><path d="M 98.182,155.977 C 99.381,166.369 99.130,166.405 100.579,176.762" stroke-width="4.500" stroke="black" fill="none" stroke-linecap="round"></path><path d="M 100.579,176.762 C 101.927,186.390 102.209,186.349 103.775,195.947" stroke-width="4.500" stroke="black" fill="none" stroke-linecap="round"></path><path d="M 103.775,195.947 C 105.405,205.935 105.342,205.945 106.971,215.932" stroke-width="4.500" stroke="black" fill="none" stroke-linecap="round"></path><path d="M 106.971,215.932 C 108.538,225.530 108.793,225.493 110.167,235.118" stroke-width="4.500" stroke="black" fill="none" stroke-linecap="round"></path><path d="M 110.167,235.118 C 111.590,245.078 111.522,245.094 112.564,255.103" stroke-width="4.500" stroke="black" fill="none" stroke-linecap="round"></path><path d="M 112.564,255.103 C 113.520,264.280 113.363,264.296 114.162,273.489" stroke-width="4.500" stroke="black" fill="none" stroke-linecap="round"></path><path d="M 114.162,273.489 C 114.961,282.683 115.133,282.671 115.760,291.876" stroke-width="4.500" stroke="black" fill="none" stroke-linecap="round"></path><path d="M 115.760,291.876 C 116.332,300.258 115.899,300.291 116.559,308.663" stroke-width="4.500" stroke="black" fill="none" stroke-linecap="round"></path><path d="M 116.559,308.663 C 117.097,315.480 117.254,315.472 118.157,322.253" stroke-width="4.813" stroke="black" fill="none" stroke-linecap="round"></path><path d="M 118.157,322.253 C 118.852,327.463 119.046,327.437 119.755,332.645" stroke-width="5.313" stroke="black" fill="none" stroke-linecap="round"></path><path d="M 119.755,332.645 C 120.244,336.231 120.155,336.243 120.554,339.840" stroke-width="5.975" stroke="black" fill="none" stroke-linecap="round"></path><path d="M 117.358,295.873 C 121.353,292.275 121.442,292.369 125.348,288.678" stroke-width="8.298" stroke="black" fill="none" stroke-linecap="round"></path><path d="M 125.348,288.678 C 128.633,285.574 128.544,285.480 131.740,282.283" stroke-width="6.439" stroke="black" fill="none" stroke-linecap="round"></path><path d="M 131.740,282.283 C 135.336,278.685 135.442,278.785 138.931,275.088" stroke-width="5.753" stroke="black" fill="none" stroke-linecap="round"></path><path d="M 138.931,275.088 C 142.233,271.590 142.279,271.616 145.323,267.894" stroke-width="5.749" stroke="black" fill="none" stroke-linecap="round"></path><path d="M 145.323,267.894 C 149.470,262.823 149.449,262.792 153.313,257.501" stroke-width="5.265" stroke="black" fill="none" stroke-linecap="round"></path><path d="M 153.313,257.501 C 157.039,252.400 157.065,252.403 160.504,247.109" stroke-width="5.193" stroke="black" fill="none" stroke-linecap="round"></path><path d="M 160.504,247.109 C 162.258,244.409 162.261,244.393 163.700,241.513" stroke-width="6.059" stroke="black" fill="none" stroke-linecap="round"></path><path d="M 163.700,241.513 C 166.256,236.399 166.243,236.378 168.494,231.121" stroke-width="5.467" stroke="black" fill="none" stroke-linecap="round"></path><path d="M 168.494,231.121 C 169.838,227.984 169.931,227.994 170.891,224.726" stroke-width="6.101" stroke="black" fill="none" stroke-linecap="round"></path><path d="M 170.891,224.726 C 171.928,221.199 172.489,216.872 172.489,217.531" stroke-width="6.929" stroke="black" fill="none" stroke-linecap="round"></path><path d="M 172.489,217.531 C 172.489,218.471 171.471,222.703 170.891,227.923" stroke-width="7.326" stroke="black" fill="none" stroke-linecap="round"></path><path d="M 170.891,227.923 C 170.273,233.494 170.092,233.521 170.092,239.115" stroke-width="5.880" stroke="black" fill="none" stroke-linecap="round"></path><path d="M 170.092,239.115 C 170.092,243.914 170.213,243.954 170.891,248.708" stroke-width="5.786" stroke="black" fill="none" stroke-linecap="round"></path><path d="M 170.891,248.708 C 171.411,252.348 171.075,252.600 172.489,255.902" stroke-width="6.122" stroke="black" fill="none" stroke-linecap="round"></path><path d="M 172.489,255.902 C 173.472,258.196 173.592,259.577 175.685,259.899" stroke-width="6.658" stroke="black" fill="none" stroke-linecap="round"></path><path d="M 175.685,259.899 C 178.786,260.377 179.944,259.597 182.876,257.501" stroke-width="7.159" stroke="black" fill="none" stroke-linecap="round"></path><path d="M 182.876,257.501 C 185.537,255.600 185.210,254.897 186.871,251.905" stroke-width="6.616" stroke="black" fill="none" stroke-linecap="round"></path><path d="M 186.871,251.905 C 189.205,247.703 189.350,247.664 190.866,243.112" stroke-width="5.977" stroke="black" fill="none" stroke-linecap="round"></path><path d="M 190.866,243.112 C 192.146,239.270 191.532,239.083 192.464,235.118" stroke-width="6.051" stroke="black" fill="none" stroke-linecap="round"></path><path d="M 192.464,235.118 C 193.130,232.288 193.263,232.320 194.062,229.522" stroke-width="6.494" stroke="black" fill="none" stroke-linecap="round"></path><path d="M 194.062,229.522 C 194.861,226.724 193.882,223.545 195.660,223.926" stroke-width="7.284" stroke="black" fill="none" stroke-linecap="round"></path><path d="M 195.660,223.926 C 199.475,224.744 200.126,228.426 205.248,231.920" stroke-width="7.246" stroke="black" fill="none" stroke-linecap="round"></path><path d="M 205.248,231.920 C 208.915,234.421 209.107,234.264 213.238,235.917" stroke-width="6.248" stroke="black" fill="none" stroke-linecap="round"></path><path d="M 213.238,235.917 C 217.097,237.461 217.157,237.908 221.228,238.316" stroke-width="6.099" stroke="black" fill="none" stroke-linecap="round"></path><path d="M 221.228,238.316 C 225.147,238.708 225.559,238.808 229.218,237.516" stroke-width="6.024" stroke="black" fill="none" stroke-linecap="round"></path><path d="M 229.218,237.516 C 232.351,236.410 232.415,235.917 234.811,233.519" stroke-width="6.358" stroke="black" fill="none" stroke-linecap="round"></path><path d="M 234.811,233.519 C 237.209,231.121 237.044,230.863 238.806,227.923" stroke-width="6.393" stroke="black" fill="none" stroke-linecap="round"></path><path d="M 238.806,227.923 C 240.639,224.867 241.010,224.904 242.003,221.528" stroke-width="6.353" stroke="black" fill="none" stroke-linecap="round"></path><path d="M 242.003,221.528 C 243.008,218.110 242.576,217.940 242.802,214.333" stroke-width="6.324" stroke="black" fill="none" stroke-linecap="round"></path><path d="M 242.802,214.333 C 242.976,211.545 242.802,211.536 242.802,208.738" stroke-width="6.694" stroke="black" fill="none" stroke-linecap="round"></path><path d="M 242.802,208.738 C 242.802,205.940 241.668,203.520 242.802,203.142" stroke-width="7.365" stroke="black" fill="none" stroke-linecap="round"></path><path d="M 242.802,203.142 C 244.065,202.720 244.802,206.646 247.596,207.139" stroke-width="7.958" stroke="black" fill="none" stroke-linecap="round"></path><path d="M 247.596,207.139 C 251.594,207.845 252.612,207.526 256.385,205.540" stroke-width="7.358" stroke="black" fill="none" stroke-linecap="round"></path><path d="M 256.385,205.540 C 260.203,203.529 259.993,202.673 262.777,199.145" stroke-width="6.154" stroke="black" fill="none" stroke-linecap="round"></path><path d="M 262.777,199.145 C 265.985,195.079 265.969,194.955 268.370,190.351" stroke-width="5.829" stroke="black" fill="none" stroke-linecap="round"></path><path d="M 268.370,190.351 C 270.763,185.761 270.797,185.686 272.365,180.759" stroke-width="5.656" stroke="black" fill="none" stroke-linecap="round"></path><path d="M 272.365,180.759 C 273.594,176.893 273.515,176.796 273.963,172.764" stroke-width="6.023" stroke="black" fill="none" stroke-linecap="round"></path><path d="M 273.963,172.764 C 274.314,169.602 273.396,165.519 273.963,166.369" stroke-width="6.302" stroke="black" fill="none" stroke-linecap="round"></path><path d="M 273.963,166.369 C 274.994,167.917 274.316,172.821 277.159,177.561" stroke-width="7.444" stroke="black" fill="none" stroke-linecap="round"></path><path d="M 277.159,177.561 C 279.110,180.815 279.925,181.088 283.551,182.357" stroke-width="6.553" stroke="black" fill="none" stroke-linecap="round"></path><path d="M 283.551,182.357 C 287.915,183.886 288.554,184.106 293.139,183.157" stroke-width="5.967" stroke="black" fill="none" stroke-linecap="round"></path><path d="M 293.139,183.157 C 300.139,181.708 300.481,181.307 306.722,177.561" stroke-width="5.121" stroke="black" fill="none" stroke-linecap="round"></path><path d="M 306.722,177.561 C 314.463,172.914 315.051,173.011 321.104,166.369" stroke-width="4.551" stroke="black" fill="none" stroke-linecap="round"></path><path d="M 321.104,166.369 C 327.436,159.421 327.076,158.774 331.491,150.381" stroke-width="4.500" stroke="black" fill="none" stroke-linecap="round"></path><path d="M 331.491,150.381 C 335.066,143.585 334.721,143.320 337.084,135.992" stroke-width="4.532" stroke="black" fill="none" stroke-linecap="round"></path><path d="M 337.084,135.992 C 338.716,130.929 338.765,130.851 339.481,125.600" stroke-width="5.188" stroke="black" fill="none" stroke-linecap="round"></path><path d="M 339.481,125.600 C 339.963,122.057 340.414,121.675 339.481,118.405" stroke-width="5.934" stroke="black" fill="none" stroke-linecap="round"></path><path d="M 339.481,118.405 C 338.816,116.079 338.236,115.970 336.285,114.408" stroke-width="6.590" stroke="black" fill="none" stroke-linecap="round"></path><path d="M 336.285,114.408 C 334.241,112.772 330.639,112.720 331.491,112.010" stroke-width="7.377" stroke="black" fill="none" stroke-linecap="round"></path><path d="M 331.491,112.010 C 333.036,110.722 336.498,111.939 341.079,110.411" stroke-width="7.718" stroke="black" fill="none" stroke-linecap="round"></path><path d="M 341.079,110.411 C 349.682,107.542 349.629,107.154 357.858,103.216" stroke-width="4.996" stroke="black" fill="none" stroke-linecap="round"></path><path d="M 357.858,103.216 C 368.006,98.360 368.027,98.343 377.833,92.824" stroke-width="4.500" stroke="black" fill="none" stroke-linecap="round"></path><path d="M 377.833,92.824 C 387.203,87.551 387.386,87.745 396.210,81.633" stroke-width="4.500" stroke="black" fill="none" stroke-linecap="round"></path><path d="M 396.210,81.633 C 402.966,76.953 403.223,77.014 408.994,71.240" stroke-width="4.500" stroke="black" fill="none" stroke-linecap="round"></path><path d="M 408.994,71.240 C 412.411,67.821 413.336,67.502 414.587,63.246" stroke-width="5.263" stroke="black" fill="none" stroke-linecap="round"></path><path d="M 414.587,63.246 C 415.333,60.707 414.822,59.077 412.989,57.650" stroke-width="6.195" stroke="black" fill="none" stroke-linecap="round"></path><path d="M 412.989,57.650 C 411.227,56.279 410.186,57.503 407.396,57.650" stroke-width="6.588" stroke="black" fill="none" stroke-linecap="round"></path><path d="M 407.396,57.650 C 402.596,57.903 402.488,57.399 397.808,58.450" stroke-width="6.065" stroke="black" fill="none" stroke-linecap="round"></path><path d="M 397.808,58.450 C 382.912,61.795 382.465,60.882 368.245,66.444" stroke-width="4.500" stroke="black" fill="none" stroke-linecap="round"></path><path d="M 368.245,66.444 C 338.520,78.069 338.459,78.428 309.918,92.824" stroke-width="4.500" stroke="black" fill="none" stroke-linecap="round"></path><path d="M 309.918,92.824 C 290.119,102.810 290.467,103.570 271.566,115.207" stroke-width="4.500" stroke="black" fill="none" stroke-linecap="round"></path><path d="M 271.566,115.207 C 254.112,125.953 254.391,126.406 237.208,137.591" stroke-width="4.500" stroke="black" fill="none" stroke-linecap="round"></path><path d="M 237.208,137.591 C 221.233,147.990 221.138,147.846 205.248,158.375" stroke-width="4.500" stroke="black" fill="none" stroke-linecap="round"></path><path d="M 205.248,158.375 C 190.376,168.231 190.268,168.086 175.685,178.360" stroke-width="4.500" stroke="black" fill="none" stroke-linecap="round"></path><path d="M 175.685,178.360 C 161.903,188.071 162.197,188.484 148.519,198.345" stroke-width="4.500" stroke="black" fill="none" stroke-linecap="round"></path><path d="M 148.519,198.345 C 135.031,208.070 134.954,207.963 121.353,217.531" stroke-width="4.500" stroke="black" fill="none" stroke-linecap="round"></path><path d="M 121.353,217.531 C 109.386,225.950 108.974,225.414 97.383,234.319" stroke-width="4.500" stroke="black" fill="none" stroke-linecap="round"></path><path d="M 97.383,234.319 C 86.602,242.601 86.996,243.112 76.609,251.905" stroke-width="4.500" stroke="black" fill="none" stroke-linecap="round"></path></svg>