<svg xmlns="http://www.w3.org/2000/svg" xmlns:xlink="http://www.w3.org/1999/xlink" viewBox="0 0 576 416" width="576" height="416"><path d="M 79.006,31.669 C 74.612,30.071 74.713,29.698 70.217,28.472" stroke-width="8.552" stroke="black" fill="none" stroke-linecap="round"></path><path d="M 70.217,28.472 C 65.924,27.300 65.854,27.058 61.428,26.873" stroke-width="7.468" stroke="black" fill="none" stroke-linecap="round"></path><path d="M 61.428,26.873 C 56.266,26.658 56.180,26.938 51.041,27.672" stroke-width="7.053" stroke="black" fill="none" stroke-linecap="round"></path><path d="M 51.041,27.672 C 47.791,28.137 47.788,28.290 44.649,29.271" stroke-width="6.646" stroke="black" fill="none" stroke-linecap="round"></path><path d="M 44.649,29.271 C 41.396,30.288 41.380,30.303 38.257,31.669" stroke-width="6.487" stroke="black" fill="none" stroke-linecap="round"></path><path d="M 38.257,31.669 C 34.988,33.100 34.962,33.097 31.865,34.867" stroke-width="6.456" stroke="black" fill="none" stroke-linecap="round"></path><path d="M 31.865,34.867 C 29.369,36.294 29.399,36.371 27.071,38.065" stroke-width="6.639" stroke="black" fill="none" stroke-linecap="round"></path><path d="M 27.071,38.065 C 25.004,39.569 24.975,39.553 23.076,41.262" stroke-width="6.832" stroke="black" fill="none" stroke-linecap="round"></path><path d="M 23.076,41.262 C 20.980,43.150 20.669,42.965 19.081,45.259" stroke-width="6.778" stroke="black" fill="none" stroke-linecap="round"></path><path d="M 19.081,45.259 C 17.073,48.161 16.729,48.279 15.885,51.655" stroke-width="7.200" stroke="black" fill="none" stroke-linecap="round"></path><path d="M 15.885,51.655 C 15.131,54.674 14.492,55.660 15.885,58.050" stroke-width="7.482" stroke="black" fill="none" stroke-linecap="round"></path><path d="M 15.885,58.050 C 17.289,60.457 18.455,60.358 21.478,61.247" stroke-width="7.831" stroke="black" fill="none" stroke-linecap="round"></path><path d="M 21.478,61.247 C 25.246,62.356 25.465,61.811 29.468,62.047" stroke-width="7.437" stroke="black" fill="none" stroke-linecap="round"></path><path d="M 29.468,62.047 C 32.256,62.211 32.265,62.047 35.061,62.047" stroke-width="6.959" stroke="black" fill="none" stroke-linecap="round"></path><path d="M 35.061,62.047 C 37.858,62.047 37.858,62.047 40.654,62.047" stroke-width="6.827" stroke="black" fill="none" stroke-linecap="round"></path><path d="M 40.654,62.047 C 43.850,62.047 43.850,62.047 47.046,62.047" stroke-width="6.624" stroke="black" fill="none" stroke-linecap="round"></path><path d="M 47.046,62.047 C 49.843,62.047 49.843,62.047 52.639,62.047" stroke-width="6.727" stroke="black" fill="none" stroke-linecap="round"></path><path d="M 52.639,62.047 C 57.433,62.047 57.584,61.313 62.227,62.047" stroke-width="6.930" stroke="black" fill="none" stroke-linecap="round"></path><path d="M 62.227,62.047 C 65.174,62.512 65.982,62.402 67.820,64.445" stroke-width="7.408" stroke="black" fill="none" stroke-linecap="round"></path><path d="M 67.820,64.445 C 69.578,66.399 69.891,67.361 69.418,70.041" stroke-width="7.865" stroke="black" fill="none" stroke-linecap="round"></path><path d="M 69.418,70.041 C 68.692,74.156 67.922,74.399 65.423,78.035" stroke-width="7.333" stroke="black" fill="none" stroke-linecap="round"></path><path d="M 65.423,78.035 C 63.527,80.794 63.208,80.648 60.629,82.831" stroke-width="6.679" stroke="black" fill="none" stroke-linecap="round"></path><path d="M 60.629,82.831 C 58.015,85.045 57.974,85.065 55.036,86.828" stroke-width="6.487" stroke="black" fill="none" stroke-linecap="round"></path><path d="M 55.036,86.828 C 51.982,88.662 51.940,88.668 48.644,90.026" stroke-width="6.381" stroke="black" fill="none" stroke-linecap="round"></path><path d="M 48.644,90.026 C 45.149,91.466 45.111,91.461 41.453,92.424" stroke-width="6.186" stroke="black" fill="none" stroke-linecap="round"></path><path d="M 41.453,92.424 C 37.521,93.460 37.458,93.224 33.463,94.023" stroke-width="6.114" stroke="black" fill="none" stroke-linecap="round"></path><path d="M 33.463,94.023 C 29.468,94.822 29.494,94.987 25.473,95.622" stroke-width="6.171" stroke="black" fill="none" stroke-linecap="round"></path><path d="M 25.473,95.622 C 21.903,96.186 21.875,95.998 18.282,96.421" stroke-width="6.270" stroke="black" fill="none" stroke-linecap="round"></path><path d="M 18.282,96.421 C 15.083,96.798 15.083,96.795 11.890,97.221" stroke-width="6.447" stroke="black" fill="none" stroke-linecap="round"></path><path d="M 11.890,97.221 C 9.090,97.594 9.027,97.337 6.297,98.020" stroke-width="6.660" stroke="black" fill="none" stroke-linecap="round"></path><circle r="3" cx="94.18727111816406" cy="73.23846435546875" fill="black"></circle><path d="M 177.283,35.667 C 173.288,34.068 173.429,33.340 169.293,32.469" stroke-width="8.592" stroke="black" fill="none" stroke-linecap="round"></path><path d="M 169.293,32.469 C 165.838,31.741 165.661,32.094 162.102,32.469" stroke-width="6.868" stroke="black" fill="none" stroke-linecap="round"></path><path d="M 162.102,32.469 C 158.070,32.894 158.158,33.779 154.112,34.068" stroke-width="6.300" stroke="black" fill="none" stroke-linecap="round"></path><path d="M 154.112,34.068 C 146.972,34.578 146.910,33.820 139.730,34.068" stroke-width="6.236" stroke="black" fill="none" stroke-linecap="round"></path><path d="M 139.730,34.068 C 135.325,34.220 135.343,34.635 130.941,34.867" stroke-width="5.925" stroke="black" fill="none" stroke-linecap="round"></path><path d="M 130.941,34.867 C 127.753,35.035 127.730,34.655 124.549,34.867" stroke-width="6.409" stroke="black" fill="none" stroke-linecap="round"></path><path d="M 124.549,34.867 C 121.738,35.055 121.628,34.831 118.956,35.667" stroke-width="6.647" stroke="black" fill="none" stroke-linecap="round"></path><path d="M 118.956,35.667 C 115.236,36.830 113.549,36.088 111.765,38.864" stroke-width="7.123" stroke="black" fill="none" stroke-linecap="round"></path><path d="M 111.765,38.864 C 109.953,41.684 111.531,42.878 111.765,46.858" stroke-width="7.584" stroke="black" fill="none" stroke-linecap="round"></path><path d="M 111.765,46.858 C 111.931,49.673 112.044,49.678 112.564,52.454" stroke-width="6.983" stroke="black" fill="none" stroke-linecap="round"></path><path d="M 112.564,52.454 C 113.243,56.073 113.558,56.019 114.162,59.649" stroke-width="6.474" stroke="black" fill="none" stroke-linecap="round"></path><path d="M 114.162,59.649 C 114.756,63.214 114.749,63.236 114.961,66.843" stroke-width="6.360" stroke="black" fill="none" stroke-linecap="round"></path><path d="M 114.961,66.843 C 115.149,70.030 114.961,70.041 114.961,73.238" stroke-width="6.485" stroke="black" fill="none" stroke-linecap="round"></path><path d="M 114.961,73.238 C 114.961,76.436 114.961,76.436 114.961,79.634" stroke-width="6.523" stroke="black" fill="none" stroke-linecap="round"></path><path d="M 114.961,79.634 C 114.961,82.432 115.160,82.446 114.961,85.230" stroke-width="6.695" stroke="black" fill="none" stroke-linecap="round"></path><path d="M 114.961,85.230 C 114.761,88.042 114.562,88.027 114.162,90.825" stroke-width="6.736" stroke="black" fill="none" stroke-linecap="round"></path><path d="M 114.162,90.825 C 113.763,93.623 113.693,93.615 113.363,96.421" stroke-width="6.749" stroke="black" fill="none" stroke-linecap="round"></path><path d="M 113.363,96.421 C 112.894,100.410 113.300,100.490 112.564,104.415" stroke-width="7.112" stroke="black" fill="none" stroke-linecap="round"></path><path d="M 113.363,71.640 C 119.356,71.240 119.359,71.284 125.348,70.840" stroke-width="8.441" stroke="black" fill="none" stroke-linecap="round"></path><path d="M 125.348,70.840 C 130.146,70.485 130.178,70.690 134.936,70.041" stroke-width="6.356" stroke="black" fill="none" stroke-linecap="round"></path><path d="M 134.936,70.041 C 138.967,69.491 138.931,69.241 142.926,68.442" stroke-width="6.163" stroke="black" fill="none" stroke-linecap="round"></path><path d="M 142.926,68.442 C 146.921,67.643 146.930,67.683 150.916,66.843" stroke-width="6.107" stroke="black" fill="none" stroke-linecap="round"></path><path d="M 150.916,66.843 C 154.520,66.084 154.536,66.138 158.107,65.244" stroke-width="6.227" stroke="black" fill="none" stroke-linecap="round"></path><path d="M 158.107,65.244 C 160.928,64.539 162.632,62.399 163.700,63.646" stroke-width="7.160" stroke="black" fill="none" stroke-linecap="round"></path><path d="M 163.700,63.646 C 165.029,65.197 163.773,67.353 162.901,70.840" stroke-width="8.041" stroke="black" fill="none" stroke-linecap="round"></path><path d="M 162.901,70.840 C 161.775,75.347 160.296,75.102 159.705,79.634" stroke-width="7.326" stroke="black" fill="none" stroke-linecap="round"></path><path d="M 159.705,79.634 C 159.098,84.296 159.719,84.509 160.504,89.227" stroke-width="7.105" stroke="black" fill="none" stroke-linecap="round"></path><path d="M 160.504,89.227 C 160.917,91.704 160.819,91.884 162.102,94.023" stroke-width="6.987" stroke="black" fill="none" stroke-linecap="round"></path><path d="M 162.102,94.023 C 164.415,97.879 164.929,97.598 167.695,101.218" stroke-width="7.064" stroke="black" fill="none" stroke-linecap="round"></path><circle r="3" cx="174.08740234375" cy="58.0498046875" fill="black"></circle><path d="M 214.037,18.879 C 212.439,23.675 212.063,23.582 210.841,28.472" stroke-width="8.357" stroke="black" fill="none" stroke-linecap="round"></path><path d="M 210.841,28.472 C 209.666,33.175 209.982,33.259 209.243,38.065" stroke-width="6.322" stroke="black" fill="none" stroke-linecap="round"></path><path d="M 209.243,38.065 C 208.384,43.651 208.325,43.646 207.645,49.256" stroke-width="5.651" stroke="black" fill="none" stroke-linecap="round"></path><path d="M 207.645,49.256 C 206.727,56.836 206.783,56.845 206.047,64.445" stroke-width="5.993" stroke="black" fill="none" stroke-linecap="round"></path><path d="M 206.047,64.445 C 205.584,69.235 205.449,69.233 205.248,74.038" stroke-width="5.818" stroke="black" fill="none" stroke-linecap="round"></path><path d="M 205.248,74.038 C 205.049,78.826 205.248,78.834 205.248,83.631" stroke-width="5.683" stroke="black" fill="none" stroke-linecap="round"></path><path d="M 205.248,83.631 C 205.248,87.628 205.248,87.628 205.248,91.625" stroke-width="5.902" stroke="black" fill="none" stroke-linecap="round"></path><path d="M 205.248,91.625 C 205.248,94.822 205.248,99.250 205.248,98.020" stroke-width="6.400" stroke="black" fill="none" stroke-linecap="round"></path><path d="M 228.419,20.478 C 228.819,26.074 228.524,26.113 229.218,31.669" stroke-width="8.535" stroke="black" fill="none" stroke-linecap="round"></path><path d="M 229.218,31.669 C 229.723,35.706 230.088,35.654 230.816,39.664" stroke-width="6.657" stroke="black" fill="none" stroke-linecap="round"></path><path d="M 230.816,39.664 C 231.686,44.447 231.616,44.460 232.415,49.256" stroke-width="5.976" stroke="black" fill="none" stroke-linecap="round"></path><path d="M 232.415,49.256 C 233.214,54.053 233.214,54.053 234.013,58.849" stroke-width="5.798" stroke="black" fill="none" stroke-linecap="round"></path><path d="M 234.013,58.849 C 234.812,63.646 234.982,63.624 235.611,68.442" stroke-width="5.829" stroke="black" fill="none" stroke-linecap="round"></path><path d="M 235.611,68.442 C 236.181,72.817 235.922,72.848 236.410,77.236" stroke-width="5.808" stroke="black" fill="none" stroke-linecap="round"></path><path d="M 236.410,77.236 C 237.121,83.640 237.209,83.631 238.008,90.026" stroke-width="6.221" stroke="black" fill="none" stroke-linecap="round"></path><path d="M 238.008,90.026 C 238.407,93.224 238.381,93.227 238.806,96.421" stroke-width="6.431" stroke="black" fill="none" stroke-linecap="round"></path><path d="M 238.806,96.421 C 239.180,99.223 239.733,103.035 239.605,102.017" stroke-width="6.583" stroke="black" fill="none" stroke-linecap="round"></path><path d="M 255.586,80.433 C 260.380,78.834 260.457,79.033 265.174,77.236" stroke-width="8.364" stroke="black" fill="none" stroke-linecap="round"></path><path d="M 265.174,77.236 C 268.846,75.836 268.849,75.797 272.365,74.038" stroke-width="6.773" stroke="black" fill="none" stroke-linecap="round"></path><path d="M 272.365,74.038 C 276.040,72.199 276.073,72.218 279.556,70.041" stroke-width="6.261" stroke="black" fill="none" stroke-linecap="round"></path><path d="M 279.556,70.041 C 282.465,68.221 282.534,68.257 285.149,66.044" stroke-width="6.364" stroke="black" fill="none" stroke-linecap="round"></path><path d="M 285.149,66.044 C 287.728,63.860 287.546,63.646 289.943,61.247" stroke-width="6.412" stroke="black" fill="none" stroke-linecap="round"></path><path d="M 289.943,61.247 C 291.940,59.249 292.560,59.613 293.938,57.250" stroke-width="6.648" stroke="black" fill="none" stroke-linecap="round"></path><path d="M 293.938,57.250 C 295.356,54.817 296.339,53.864 295.536,51.655" stroke-width="7.297" stroke="black" fill="none" stroke-linecap="round"></path><path d="M 295.536,51.655 C 294.741,49.467 293.364,49.062 290.742,48.457" stroke-width="7.821" stroke="black" fill="none" stroke-linecap="round"></path><path d="M 290.742,48.457 C 288.170,47.863 287.945,48.857 285.149,49.256" stroke-width="7.241" stroke="black" fill="none" stroke-linecap="round"></path><path d="M 285.149,49.256 C 282.352,49.656 282.269,49.332 279.556,50.056" stroke-width="6.894" stroke="black" fill="none" stroke-linecap="round"></path><path d="M 279.556,50.056 C 276.277,50.931 276.201,50.934 273.164,52.454" stroke-width="6.556" stroke="black" fill="none" stroke-linecap="round"></path><path d="M 273.164,52.454 C 269.809,54.132 269.589,54.008 266.772,56.451" stroke-width="6.328" stroke="black" fill="none" stroke-linecap="round"></path><path d="M 266.772,56.451 C 263.596,59.204 263.718,59.458 261.179,62.846" stroke-width="6.095" stroke="black" fill="none" stroke-linecap="round"></path><path d="M 261.179,62.846 C 258.924,65.853 258.598,65.805 257.184,69.241" stroke-width="6.192" stroke="black" fill="none" stroke-linecap="round"></path><path d="M 257.184,69.241 C 255.801,72.600 255.990,72.795 255.586,76.436" stroke-width="6.252" stroke="black" fill="none" stroke-linecap="round"></path><path d="M 255.586,76.436 C 255.191,79.990 255.116,80.110 255.586,83.631" stroke-width="6.302" stroke="black" fill="none" stroke-linecap="round"></path><path d="M 255.586,83.631 C 255.915,86.105 256.130,86.143 257.184,88.427" stroke-width="6.733" stroke="black" fill="none" stroke-linecap="round"></path><path d="M 257.184,88.427 C 258.527,91.339 258.182,91.824 260.380,94.023" stroke-width="6.587" stroke="black" fill="none" stroke-linecap="round"></path><path d="M 260.380,94.023 C 262.577,96.221 263.063,95.862 265.973,97.221" stroke-width="6.545" stroke="black" fill="none" stroke-linecap="round"></path><path d="M 265.973,97.221 C 269.056,98.660 269.051,99.066 272.365,99.619" stroke-width="6.458" stroke="black" fill="none" stroke-linecap="round"></path><path d="M 272.365,99.619 C 276.242,100.265 276.418,100.133 280.355,99.619" stroke-width="6.219" stroke="black" fill="none" stroke-linecap="round"></path><path d="M 280.355,99.619 C 285.607,98.933 285.750,99.004 290.742,97.221" stroke-width="5.721" stroke="black" fill="none" stroke-linecap="round"></path><path d="M 290.742,97.221 C 296.936,95.007 297.006,94.896 302.727,91.625" stroke-width="5.243" stroke="black" fill="none" stroke-linecap="round"></path><path d="M 302.727,91.625 C 308.192,88.500 308.378,88.550 313.114,84.430" stroke-width="5.187" stroke="black" fill="none" stroke-linecap="round"></path><path d="M 313.114,84.430 C 317.567,80.556 317.374,80.246 321.104,75.637" stroke-width="5.264" stroke="black" fill="none" stroke-linecap="round"></path><path d="M 321.104,75.637 C 324.166,71.852 324.543,71.951 326.697,67.643" stroke-width="5.574" stroke="black" fill="none" stroke-linecap="round"></path><path d="M 326.697,67.643 C 328.538,63.957 328.238,63.715 329.094,59.649" stroke-width="5.890" stroke="black" fill="none" stroke-linecap="round"></path><path d="M 329.094,59.649 C 329.836,56.121 330.114,55.999 329.893,52.454" stroke-width="6.179" stroke="black" fill="none" stroke-linecap="round"></path><path d="M 329.893,52.454 C 329.715,49.604 329.644,49.365 328.295,46.858" stroke-width="6.602" stroke="black" fill="none" stroke-linecap="round"></path><path d="M 328.295,46.858 C 326.847,44.169 326.921,43.285 324.300,42.062" stroke-width="7.250" stroke="black" fill="none" stroke-linecap="round"></path><path d="M 324.300,42.062 C 320.928,40.488 320.248,41.031 316.310,41.262" stroke-width="7.271" stroke="black" fill="none" stroke-linecap="round"></path><path d="M 316.310,41.262 C 313.457,41.430 313.450,41.884 310.717,42.861" stroke-width="6.866" stroke="black" fill="none" stroke-linecap="round"></path><path d="M 310.717,42.861 C 307.857,43.883 307.609,43.601 305.124,45.259" stroke-width="6.697" stroke="black" fill="none" stroke-linecap="round"></path><path d="M 305.124,45.259 C 302.815,46.799 302.676,46.934 301.129,49.256" stroke-width="6.737" stroke="black" fill="none" stroke-linecap="round"></path><path d="M 301.129,49.256 C 298.681,52.929 296.682,53.862 297.134,57.250" stroke-width="7.005" stroke="black" fill="none" stroke-linecap="round"></path><path d="M 297.134,57.250 C 297.481,59.857 299.621,60.212 302.727,61.247" stroke-width="7.629" stroke="black" fill="none" stroke-linecap="round"></path><path d="M 302.727,61.247 C 305.614,62.210 305.953,61.581 309.119,61.247" stroke-width="6.833" stroke="black" fill="none" stroke-linecap="round"></path><path d="M 309.119,61.247 C 313.543,60.781 313.536,60.560 317.908,59.649" stroke-width="6.152" stroke="black" fill="none" stroke-linecap="round"></path><path d="M 317.908,59.649 C 323.124,58.561 323.187,58.741 328.295,57.250" stroke-width="5.704" stroke="black" fill="none" stroke-linecap="round"></path><path d="M 328.295,57.250 C 332.775,55.943 332.671,55.598 337.084,54.053" stroke-width="5.775" stroke="black" fill="none" stroke-linecap="round"></path><path d="M 337.084,54.053 C 340.661,52.800 340.679,52.854 344.275,51.655" stroke-width="6.082" stroke="black" fill="none" stroke-linecap="round"></path><path d="M 344.275,51.655 C 346.672,50.855 346.610,50.583 349.069,50.056" stroke-width="6.657" stroke="black" fill="none" stroke-linecap="round"></path><path d="M 349.069,50.056 C 352.203,49.384 355.134,47.786 355.461,49.256" stroke-width="7.268" stroke="black" fill="none" stroke-linecap="round"></path><path d="M 355.461,49.256 C 355.933,51.384 353.299,53.420 350.667,57.250" stroke-width="7.709" stroke="black" fill="none" stroke-linecap="round"></path><path d="M 350.667,57.250 C 348.904,59.815 348.441,59.490 346.672,62.047" stroke-width="6.885" stroke="black" fill="none" stroke-linecap="round"></path><path d="M 346.672,62.047 C 344.845,64.686 345.074,64.845 343.476,67.643" stroke-width="6.630" stroke="black" fill="none" stroke-linecap="round"></path><path d="M 343.476,67.643 C 341.878,70.441 341.718,70.361 340.280,73.238" stroke-width="6.628" stroke="black" fill="none" stroke-linecap="round"></path><path d="M 340.280,73.238 C 338.921,75.957 338.692,75.919 337.883,78.834" stroke-width="6.552" stroke="black" fill="none" stroke-linecap="round"></path><path d="M 337.883,78.834 C 336.694,83.114 335.019,84.040 336.285,87.628" stroke-width="6.944" stroke="black" fill="none" stroke-linecap="round"></path><path d="M 336.285,87.628 C 337.416,90.835 339.166,90.785 342.677,92.424" stroke-width="7.509" stroke="black" fill="none" stroke-linecap="round"></path><path d="M 342.677,92.424 C 345.159,93.583 345.480,93.370 348.270,93.224" stroke-width="6.965" stroke="black" fill="none" stroke-linecap="round"></path><path d="M 348.270,93.224 C 353.070,92.971 353.101,92.609 357.858,91.625" stroke-width="6.049" stroke="black" fill="none" stroke-linecap="round"></path><path d="M 357.858,91.625 C 364.686,90.211 364.824,90.569 371.441,88.427" stroke-width="5.230" stroke="black" fill="none" stroke-linecap="round"></path><path d="M 371.441,88.427 C 378.407,86.172 378.191,85.524 385.024,82.831" stroke-width="4.942" stroke="black" fill="none" stroke-linecap="round"></path><path d="M 385.024,82.831 C 391.374,80.328 391.504,80.645 397.808,78.035" stroke-width="5.064" stroke="black" fill="none" stroke-linecap="round"></path><path d="M 397.808,78.035 C 403.090,75.848 403.035,75.707 408.195,73.238" stroke-width="5.191" stroke="black" fill="none" stroke-linecap="round"></path><path d="M 408.195,73.238 C 412.224,71.311 412.190,71.240 416.185,69.241" stroke-width="5.668" stroke="black" fill="none" stroke-linecap="round"></path><path d="M 416.185,69.241 C 419.381,67.643 419.425,67.726 422.577,66.044" stroke-width="6.120" stroke="black" fill="none" stroke-linecap="round"></path><path d="M 402.602,6.888 C 410.592,9.286 410.966,8.452 418.582,11.684" stroke-width="8.005" stroke="black" fill="none" stroke-linecap="round"></path><path d="M 418.582,11.684 C 424.150,14.048 424.220,14.319 428.969,18.080" stroke-width="5.846" stroke="black" fill="none" stroke-linecap="round"></path><path d="M 428.969,18.080 C 433.809,21.913 433.927,22.031 437.758,26.873" stroke-width="5.377" stroke="black" fill="none" stroke-linecap="round"></path><path d="M 437.758,26.873 C 441.517,31.624 441.773,31.717 444.150,37.265" stroke-width="5.280" stroke="black" fill="none" stroke-linecap="round"></path><path d="M 444.150,37.265 C 446.567,42.909 446.331,43.165 447.346,49.256" stroke-width="5.225" stroke="black" fill="none" stroke-linecap="round"></path><path d="M 447.346,49.256 C 448.329,55.156 449.238,55.464 448.145,61.247" stroke-width="5.258" stroke="black" fill="none" stroke-linecap="round"></path><path d="M 448.145,61.247 C 446.442,70.253 446.048,70.597 441.753,78.834" stroke-width="5.630" stroke="black" fill="none" stroke-linecap="round"></path><path d="M 441.753,78.834 C 436.460,88.983 436.231,89.140 428.969,98.020" stroke-width="4.500" stroke="black" fill="none" stroke-linecap="round"></path><path d="M 428.969,98.020 C 421.849,106.727 420.542,105.641 412.989,114.008" stroke-width="4.500" stroke="black" fill="none" stroke-linecap="round"></path><path d="M 412.989,114.008 C 409.356,118.032 404.634,124.765 406.597,122.802" stroke-width="4.862" stroke="black" fill="none" stroke-linecap="round"></path><path d="M 488.894,219.529 C 480.904,221.128 480.887,221.047 472.914,222.727" stroke-width="8.133" stroke="black" fill="none" stroke-linecap="round"></path><path d="M 472.914,222.727 C 458.116,225.844 458.109,225.822 443.351,229.122" stroke-width="4.500" stroke="black" fill="none" stroke-linecap="round"></path><path d="M 443.351,229.122 C 424.152,233.416 424.203,233.646 404.999,237.916" stroke-width="4.500" stroke="black" fill="none" stroke-linecap="round"></path><path d="M 404.999,237.916 C 395.439,240.041 395.399,239.859 385.823,241.913" stroke-width="4.500" stroke="black" fill="none" stroke-linecap="round"></path><path d="M 385.823,241.913 C 367.434,245.855 367.406,245.737 349.069,249.907" stroke-width="4.500" stroke="black" fill="none" stroke-linecap="round"></path><path d="M 349.069,249.907 C 332.250,253.731 332.292,253.913 315.511,257.901" stroke-width="4.500" stroke="black" fill="none" stroke-linecap="round"></path><path d="M 315.511,257.901 C 300.332,261.507 300.346,261.570 285.149,265.095" stroke-width="4.500" stroke="black" fill="none" stroke-linecap="round"></path><path d="M 285.149,265.095 C 272.781,267.965 272.817,268.156 260.380,270.691" stroke-width="4.500" stroke="black" fill="none" stroke-linecap="round"></path><path d="M 260.380,270.691 C 251.244,272.553 251.230,272.570 242.003,273.889" stroke-width="4.500" stroke="black" fill="none" stroke-linecap="round"></path><path d="M 242.003,273.889 C 234.451,274.968 234.202,276.015 226.822,275.488" stroke-width="4.618" stroke="black" fill="none" stroke-linecap="round"></path><path d="M 226.822,275.488 C 223.016,275.216 223.360,273.468 219.630,272.290" stroke-width="6.221" stroke="black" fill="none" stroke-linecap="round"></path><path d="M 219.630,272.290 C 215.769,271.070 215.518,269.915 211.640,270.691" stroke-width="7.615" stroke="black" fill="none" stroke-linecap="round"></path><path d="M 211.640,270.691 C 201.536,272.713 201.733,274.528 191.665,277.886" stroke-width="4.666" stroke="black" fill="none" stroke-linecap="round"></path><path d="M 191.665,277.886 C 181.358,281.323 181.278,281.083 170.891,284.281" stroke-width="4.500" stroke="black" fill="none" stroke-linecap="round"></path><path d="M 170.891,284.281 C 160.504,287.479 160.532,287.572 150.117,290.676" stroke-width="4.500" stroke="black" fill="none" stroke-linecap="round"></path><path d="M 150.117,290.676 C 141.756,293.168 141.807,293.411 133.338,295.473" stroke-width="4.500" stroke="black" fill="none" stroke-linecap="round"></path><path d="M 133.338,295.473 C 127.026,297.009 126.983,297.067 120.554,297.871" stroke-width="4.861" stroke="black" fill="none" stroke-linecap="round"></path><path d="M 120.554,297.871 C 117.395,298.266 117.253,298.451 114.162,297.871" stroke-width="5.926" stroke="black" fill="none" stroke-linecap="round"></path><path d="M 114.162,297.871 C 110.861,297.252 110.066,297.539 107.770,295.473" stroke-width="6.921" stroke="black" fill="none" stroke-linecap="round"></path><path d="M 107.770,295.473 C 106.071,293.942 108.134,291.461 106.172,290.676" stroke-width="7.956" stroke="black" fill="none" stroke-linecap="round"></path><path d="M 106.172,290.676 C 102.142,289.063 100.979,290.676 95.785,290.676" stroke-width="7.144" stroke="black" fill="none" stroke-linecap="round"></path><path d="M 95.785,290.676 C 90.991,290.676 90.983,290.876 86.197,290.676" stroke-width="6.111" stroke="black" fill="none" stroke-linecap="round"></path><path d="M 86.197,290.676 C 81.395,290.476 81.339,290.665 76.609,289.877" stroke-width="5.852" stroke="black" fill="none" stroke-linecap="round"></path><path d="M 76.609,289.877 C 71.751,289.067 71.719,288.974 67.021,287.479" stroke-width="5.738" stroke="black" fill="none" stroke-linecap="round"></path><path d="M 67.021,287.479 C 62.930,286.176 62.760,286.354 59.031,284.281" stroke-width="5.902" stroke="black" fill="none" stroke-linecap="round"></path><path d="M 59.031,284.281 C 55.569,282.356 55.436,282.282 52.639,279.485" stroke-width="6.054" stroke="black" fill="none" stroke-linecap="round"></path><path d="M 52.639,279.485 C 49.843,276.686 49.784,276.538 47.845,273.089" stroke-width="6.101" stroke="black" fill="none" stroke-linecap="round"></path><path d="M 47.845,273.089 C 46.188,270.143 46.647,269.892 45.448,266.694" stroke-width="6.392" stroke="black" fill="none" stroke-linecap="round"></path><path d="M 45.448,266.694 C 44.250,263.497 44.394,263.434 43.051,260.299" stroke-width="6.333" stroke="black" fill="none" stroke-linecap="round"></path><path d="M 43.051,260.299 C 41.997,257.838 39.775,257.085 40.654,255.502" stroke-width="6.742" stroke="black" fill="none" stroke-linecap="round"></path><path d="M 40.654,255.502 C 41.773,253.488 43.714,253.802 47.046,253.104" stroke-width="7.844" stroke="black" fill="none" stroke-linecap="round"></path><path d="M 47.046,253.104 C 60.893,250.205 61.224,251.586 75.011,248.308" stroke-width="4.500" stroke="black" fill="none" stroke-linecap="round"></path><path d="M 75.011,248.308 C 101.573,241.993 101.767,242.316 127.745,233.919" stroke-width="4.500" stroke="black" fill="none" stroke-linecap="round"></path><path d="M 127.745,233.919 C 153.702,225.528 153.196,224.001 178.881,214.733" stroke-width="4.500" stroke="black" fill="none" stroke-linecap="round"></path><path d="M 178.881,214.733 C 201.936,206.414 201.995,206.568 225.223,198.745" stroke-width="4.500" stroke="black" fill="none" stroke-linecap="round"></path><path d="M 225.223,198.745 C 242.345,192.978 242.256,192.620 259.581,187.553" stroke-width="4.500" stroke="black" fill="none" stroke-linecap="round"></path><path d="M 259.581,187.553 C 268.224,185.025 273.839,182.534 277.159,183.556" stroke-width="4.500" stroke="black" fill="none" stroke-linecap="round"></path><path d="M 277.159,183.556 C 279.032,184.133 274.496,188.547 269.968,190.751" stroke-width="5.713" stroke="black" fill="none" stroke-linecap="round"></path><path d="M 269.968,190.751 C 244.932,202.936 243.867,201.231 218.032,212.335" stroke-width="4.500" stroke="black" fill="none" stroke-linecap="round"></path><path d="M 218.032,212.335 C 187.137,225.613 187.184,225.731 156.509,239.514" stroke-width="4.500" stroke="black" fill="none" stroke-linecap="round"></path><path d="M 156.509,239.514 C 120.468,255.709 119.281,253.545 84.599,272.290" stroke-width="4.500" stroke="black" fill="none" stroke-linecap="round"></path><path d="M 84.599,272.290 C 49.767,291.117 49.962,291.932 17.483,314.658" stroke-width="4.500" stroke="black" fill="none" stroke-linecap="round"></path><path d="M 17.483,314.658 C -15.157,337.498 -14.033,339.098 -45.638,363.422" stroke-width="4.500" stroke="black" fill="none" stroke-linecap="round"></path><circle r="3" cx="131.74034118652344" cy="286.67919921875" fill="black"></circle></svg>