<svg xmlns="http://www.w3.org/2000/svg" xmlns:xlink="http://www.w3.org/1999/xlink" viewBox="0 0 576 416" width="576" height="416"><path d="M 337.084,222.727 C 339.081,213.534 338.068,213.104 341.079,204.341" stroke-width="7.988" stroke="black" fill="none" stroke-linecap="round"></path><path d="M 341.079,204.341 C 342.462,200.314 342.966,200.262 345.873,197.146" stroke-width="6.456" stroke="black" fill="none" stroke-linecap="round"></path><path d="M 345.873,197.146 C 348.559,194.266 348.779,194.196 352.265,192.350" stroke-width="6.219" stroke="black" fill="none" stroke-linecap="round"></path><path d="M 352.265,192.350 C 355.571,190.598 355.793,190.867 359.456,189.951" stroke-width="6.223" stroke="black" fill="none" stroke-linecap="round"></path><path d="M 359.456,189.951 C 362.185,189.269 362.436,188.592 365.049,189.152" stroke-width="6.586" stroke="black" fill="none" stroke-linecap="round"></path><path d="M 365.049,189.152 C 368.029,189.791 370.102,190.011 370.642,192.350" stroke-width="7.243" stroke="black" fill="none" stroke-linecap="round"></path><path d="M 370.642,192.350 C 371.301,195.207 369.792,196.557 367.446,199.544" stroke-width="7.288" stroke="black" fill="none" stroke-linecap="round"></path><path d="M 367.446,199.544 C 365.397,202.153 364.899,202.017 361.853,203.541" stroke-width="6.649" stroke="black" fill="none" stroke-linecap="round"></path><path d="M 361.853,203.541 C 357.708,205.615 357.531,205.379 353.064,206.739" stroke-width="6.036" stroke="black" fill="none" stroke-linecap="round"></path><path d="M 353.064,206.739 C 348.343,208.176 348.342,208.763 343.476,209.137" stroke-width="5.876" stroke="black" fill="none" stroke-linecap="round"></path><path d="M 343.476,209.137 C 337.954,209.562 337.750,209.462 332.290,208.338" stroke-width="5.454" stroke="black" fill="none" stroke-linecap="round"></path><path d="M 332.290,208.338 C 324.167,206.664 324.044,206.601 316.310,203.541" stroke-width="4.782" stroke="black" fill="none" stroke-linecap="round"></path><path d="M 316.310,203.541 C 306.865,199.806 307.041,199.304 297.933,194.748" stroke-width="4.500" stroke="black" fill="none" stroke-linecap="round"></path><path d="M 297.933,194.748 C 291.061,191.310 291.220,190.990 284.350,187.553" stroke-width="4.666" stroke="black" fill="none" stroke-linecap="round"></path><path d="M 284.350,187.553 C 280.034,185.394 280.097,185.069 275.561,183.556" stroke-width="5.369" stroke="black" fill="none" stroke-linecap="round"></path><path d="M 275.561,183.556 C 272.906,182.671 271.373,181.552 269.968,182.757" stroke-width="6.270" stroke="black" fill="none" stroke-linecap="round"></path><path d="M 269.968,182.757 C 268.576,183.950 269.574,185.596 269.968,188.353" stroke-width="7.204" stroke="black" fill="none" stroke-linecap="round"></path><path d="M 269.968,188.353 C 270.773,193.990 270.818,194.043 272.365,199.544" stroke-width="5.821" stroke="black" fill="none" stroke-linecap="round"></path><path d="M 272.365,199.544 C 274.414,206.834 275.078,206.649 277.159,213.934" stroke-width="5.033" stroke="black" fill="none" stroke-linecap="round"></path><path d="M 277.159,213.934 C 279.073,220.639 279.281,220.650 280.355,227.523" stroke-width="4.969" stroke="black" fill="none" stroke-linecap="round"></path><path d="M 280.355,227.523 C 281.279,233.440 281.878,233.718 281.154,239.514" stroke-width="5.261" stroke="black" fill="none" stroke-linecap="round"></path><path d="M 281.154,239.514 C 280.679,243.311 280.254,243.591 277.958,246.709" stroke-width="5.778" stroke="black" fill="none" stroke-linecap="round"></path><path d="M 277.958,246.709 C 274.661,251.185 274.684,251.872 269.968,254.703" stroke-width="5.512" stroke="black" fill="none" stroke-linecap="round"></path><path d="M 269.968,254.703 C 264.696,257.868 264.152,257.642 257.983,258.700" stroke-width="5.263" stroke="black" fill="none" stroke-linecap="round"></path><path d="M 257.983,258.700 C 250.169,260.040 249.914,260.261 242.003,259.499" stroke-width="4.808" stroke="black" fill="none" stroke-linecap="round"></path><path d="M 242.003,259.499 C 229.140,258.262 228.888,258.263 216.434,254.703" stroke-width="4.500" stroke="black" fill="none" stroke-linecap="round"></path><path d="M 216.434,254.703 C 203.719,251.068 203.758,250.555 191.665,245.110" stroke-width="4.500" stroke="black" fill="none" stroke-linecap="round"></path><path d="M 191.665,245.110 C 179.788,239.763 179.933,239.381 168.494,233.119" stroke-width="4.500" stroke="black" fill="none" stroke-linecap="round"></path><path d="M 168.494,233.119 C 158.760,227.790 159.058,227.243 149.318,221.928" stroke-width="4.500" stroke="black" fill="none" stroke-linecap="round"></path><path d="M 149.318,221.928 C 141.480,217.650 141.230,218.114 133.338,213.934" stroke-width="4.500" stroke="black" fill="none" stroke-linecap="round"></path><path d="M 133.338,213.934 C 127.647,210.919 127.806,210.623 122.152,207.538" stroke-width="4.797" stroke="black" fill="none" stroke-linecap="round"></path><path d="M 122.152,207.538 C 119.017,205.827 114.449,205.891 115.760,204.341" stroke-width="5.780" stroke="black" fill="none" stroke-linecap="round"></path><path d="M 115.760,204.341 C 118.843,200.695 123.016,199.865 130.941,197.146" stroke-width="6.439" stroke="black" fill="none" stroke-linecap="round"></path><path d="M 130.941,197.146 C 150.981,190.272 151.220,190.805 171.690,185.155" stroke-width="4.500" stroke="black" fill="none" stroke-linecap="round"></path><path d="M 171.690,185.155 C 197.562,178.014 197.718,178.581 223.625,171.565" stroke-width="4.500" stroke="black" fill="none" stroke-linecap="round"></path><path d="M 223.625,171.565 C 250.851,164.192 250.638,163.369 277.958,156.376" stroke-width="4.500" stroke="black" fill="none" stroke-linecap="round"></path><path d="M 277.958,156.376 C 302.174,150.178 302.231,150.313 326.697,145.185" stroke-width="4.500" stroke="black" fill="none" stroke-linecap="round"></path><path d="M 326.697,145.185 C 344.179,141.520 344.177,140.901 361.853,138.790" stroke-width="4.500" stroke="black" fill="none" stroke-linecap="round"></path><path d="M 361.853,138.790 C 370.943,137.704 371.767,137.038 380.230,138.790" stroke-width="4.500" stroke="black" fill="none" stroke-linecap="round"></path><path d="M 380.230,138.790 C 383.353,139.436 385.215,141.287 385.024,143.586" stroke-width="5.217" stroke="black" fill="none" stroke-linecap="round"></path><path d="M 385.024,143.586 C 384.816,146.084 382.509,146.367 379.431,148.382" stroke-width="5.918" stroke="black" fill="none" stroke-linecap="round"></path><path d="M 379.431,148.382 C 360.536,160.756 360.612,160.977 341.079,172.365" stroke-width="4.500" stroke="black" fill="none" stroke-linecap="round"></path><path d="M 341.079,172.365 C 309.875,190.555 309.582,190.068 277.958,207.538" stroke-width="4.500" stroke="black" fill="none" stroke-linecap="round"></path><path d="M 277.958,207.538 C 244.464,226.041 243.841,224.970 210.841,244.311" stroke-width="4.500" stroke="black" fill="none" stroke-linecap="round"></path><path d="M 210.841,244.311 C 176.325,264.541 175.884,264.050 142.926,286.679" stroke-width="4.500" stroke="black" fill="none" stroke-linecap="round"></path><path d="M 142.926,286.679 C 114.760,306.019 115.359,306.963 88.594,328.248" stroke-width="4.500" stroke="black" fill="none" stroke-linecap="round"></path><path d="M 88.594,328.248 C 68.618,344.135 66.544,342.488 49.443,361.024" stroke-width="4.500" stroke="black" fill="none" stroke-linecap="round"></path></svg>