<svg xmlns="http://www.w3.org/2000/svg" xmlns:xlink="http://www.w3.org/1999/xlink" viewBox="0 0 576 416" width="576" height="416"><path d="M 203.650,132.794 C 194.062,134.393 193.952,133.911 184.474,135.992" stroke-width="7.931" stroke="black" fill="none" stroke-linecap="round"></path><path d="M 184.474,135.992 C 177.572,137.508 177.606,137.750 170.891,139.989" stroke-width="5.544" stroke="black" fill="none" stroke-linecap="round"></path><path d="M 170.891,139.989 C 153.636,145.744 153.497,145.423 136.534,151.980" stroke-width="4.500" stroke="black" fill="none" stroke-linecap="round"></path><path d="M 136.534,151.980 C 118.341,159.013 118.492,159.425 100.579,167.169" stroke-width="4.500" stroke="black" fill="none" stroke-linecap="round"></path><path d="M 100.579,167.169 C 86.132,173.414 85.972,173.105 71.815,179.959" stroke-width="4.500" stroke="black" fill="none" stroke-linecap="round"></path><path d="M 71.815,179.959 C 61.203,185.097 61.045,184.955 51.041,191.151" stroke-width="4.500" stroke="black" fill="none" stroke-linecap="round"></path><path d="M 51.041,191.151 C 44.266,195.347 43.450,195.029 38.257,200.744" stroke-width="4.500" stroke="black" fill="none" stroke-linecap="round"></path><path d="M 38.257,200.744 C 35.460,203.822 34.631,205.076 35.061,208.738" stroke-width="5.214" stroke="black" fill="none" stroke-linecap="round"></path><path d="M 35.061,208.738 C 35.430,211.871 36.901,212.363 39.855,214.333" stroke-width="5.843" stroke="black" fill="none" stroke-linecap="round"></path><path d="M 39.855,214.333 C 42.894,216.360 43.345,215.952 47.046,216.732" stroke-width="6.025" stroke="black" fill="none" stroke-linecap="round"></path><path d="M 47.046,216.732 C 58.526,219.150 58.560,219.293 70.217,220.729" stroke-width="4.500" stroke="black" fill="none" stroke-linecap="round"></path><path d="M 70.217,220.729 C 84.527,222.491 84.595,221.975 98.981,223.127" stroke-width="4.500" stroke="black" fill="none" stroke-linecap="round"></path><path d="M 98.981,223.127 C 114.558,224.374 114.559,224.370 130.142,225.525" stroke-width="4.500" stroke="black" fill="none" stroke-linecap="round"></path><path d="M 130.142,225.525 C 146.918,226.768 146.968,226.249 163.700,227.923" stroke-width="4.500" stroke="black" fill="none" stroke-linecap="round"></path><path d="M 163.700,227.923 C 182.923,229.847 182.967,229.749 202.052,232.720" stroke-width="4.500" stroke="black" fill="none" stroke-linecap="round"></path><path d="M 202.052,232.720 C 218.922,235.345 219.189,234.634 235.611,239.115" stroke-width="4.500" stroke="black" fill="none" stroke-linecap="round"></path><path d="M 235.611,239.115 C 249.951,243.028 250.119,243.210 263.576,249.507" stroke-width="4.500" stroke="black" fill="none" stroke-linecap="round"></path><path d="M 263.576,249.507 C 274.888,254.801 275.245,254.806 285.149,262.298" stroke-width="4.500" stroke="black" fill="none" stroke-linecap="round"></path><path d="M 285.149,262.298 C 291.624,267.196 292.011,267.559 296.335,274.289" stroke-width="4.500" stroke="black" fill="none" stroke-linecap="round"></path><path d="M 296.335,274.289 C 299.202,278.751 301.621,280.648 299.531,284.681" stroke-width="4.907" stroke="black" fill="none" stroke-linecap="round"></path><path d="M 299.531,284.681 C 296.028,291.440 293.202,291.929 285.149,295.873" stroke-width="5.499" stroke="black" fill="none" stroke-linecap="round"></path><path d="M 285.149,295.873 C 274.426,301.123 273.808,300.625 261.978,303.067" stroke-width="4.500" stroke="black" fill="none" stroke-linecap="round"></path><path d="M 261.978,303.067 C 248.640,305.821 248.438,305.663 234.811,306.265" stroke-width="4.500" stroke="black" fill="none" stroke-linecap="round"></path><path d="M 234.811,306.265 C 221.272,306.862 221.045,307.195 207.645,305.466" stroke-width="4.500" stroke="black" fill="none" stroke-linecap="round"></path><path d="M 207.645,305.466 C 196.276,303.998 195.981,303.887 185.273,299.870" stroke-width="4.500" stroke="black" fill="none" stroke-linecap="round"></path><path d="M 185.273,299.870 C 176.805,296.692 176.250,296.689 169.293,291.076" stroke-width="4.500" stroke="black" fill="none" stroke-linecap="round"></path><path d="M 169.293,291.076 C 163.866,286.697 163.229,286.176 160.504,279.885" stroke-width="4.631" stroke="black" fill="none" stroke-linecap="round"></path><path d="M 160.504,279.885 C 158.036,274.185 158.263,273.313 158.906,267.094" stroke-width="4.962" stroke="black" fill="none" stroke-linecap="round"></path><path d="M 158.906,267.094 C 159.462,261.722 159.849,261.282 162.901,256.702" stroke-width="5.286" stroke="black" fill="none" stroke-linecap="round"></path><path d="M 162.901,256.702 C 169.437,246.893 169.522,246.516 178.082,238.316" stroke-width="4.500" stroke="black" fill="none" stroke-linecap="round"></path><path d="M 178.082,238.316 C 188.299,228.529 188.575,228.444 200.454,220.729" stroke-width="4.500" stroke="black" fill="none" stroke-linecap="round"></path><path d="M 200.454,220.729 C 211.346,213.655 211.608,213.636 223.625,208.738" stroke-width="4.500" stroke="black" fill="none" stroke-linecap="round"></path><path d="M 223.625,208.738 C 233.181,204.843 233.487,205.342 243.601,203.142" stroke-width="4.500" stroke="black" fill="none" stroke-linecap="round"></path><path d="M 243.601,203.142 C 251.864,201.345 251.965,201.225 260.380,200.744" stroke-width="4.500" stroke="black" fill="none" stroke-linecap="round"></path><path d="M 260.380,200.744 C 265.947,200.425 266.237,200.274 271.566,201.543" stroke-width="4.954" stroke="black" fill="none" stroke-linecap="round"></path><path d="M 271.566,201.543 C 274.627,202.272 274.978,202.559 277.159,204.741" stroke-width="5.959" stroke="black" fill="none" stroke-linecap="round"></path><path d="M 277.159,204.741 C 278.973,206.556 278.969,206.994 279.556,209.537" stroke-width="6.486" stroke="black" fill="none" stroke-linecap="round"></path><path d="M 279.556,209.537 C 280.168,212.191 279.556,212.335 279.556,215.133" stroke-width="6.683" stroke="black" fill="none" stroke-linecap="round"></path><path d="M 279.556,215.133 C 279.556,219.130 278.627,222.198 279.556,223.127" stroke-width="7.094" stroke="black" fill="none" stroke-linecap="round"></path><path d="M 279.556,223.127 C 280.225,223.797 281.866,220.988 282.752,218.331" stroke-width="7.761" stroke="black" fill="none" stroke-linecap="round"></path><path d="M 282.752,218.331 C 283.864,214.993 283.151,214.733 283.551,211.136" stroke-width="6.687" stroke="black" fill="none" stroke-linecap="round"></path><path d="M 283.551,211.136 C 283.950,207.539 284.160,207.550 284.350,203.941" stroke-width="6.420" stroke="black" fill="none" stroke-linecap="round"></path><path d="M 284.350,203.941 C 284.559,199.956 284.350,199.944 284.350,195.947" stroke-width="6.208" stroke="black" fill="none" stroke-linecap="round"></path><path d="M 284.350,195.947 C 284.350,193.149 284.350,193.149 284.350,190.351" stroke-width="6.592" stroke="black" fill="none" stroke-linecap="round"></path><path d="M 284.350,190.351 C 284.350,187.154 282.562,183.397 284.350,183.956" stroke-width="7.251" stroke="black" fill="none" stroke-linecap="round"></path><path d="M 284.350,183.956 C 288.954,185.396 290.258,189.886 297.134,194.348" stroke-width="6.931" stroke="black" fill="none" stroke-linecap="round"></path><path d="M 297.134,194.348 C 305.039,199.479 305.141,199.708 313.913,203.142" stroke-width="4.814" stroke="black" fill="none" stroke-linecap="round"></path><path d="M 313.913,203.142 C 323.518,206.902 323.714,207.009 333.888,208.738" stroke-width="4.500" stroke="black" fill="none" stroke-linecap="round"></path><path d="M 333.888,208.738 C 344.888,210.606 345.061,209.888 356.260,210.336" stroke-width="4.500" stroke="black" fill="none" stroke-linecap="round"></path><path d="M 356.260,210.336 C 365.036,210.688 365.087,210.837 373.838,210.336" stroke-width="4.500" stroke="black" fill="none" stroke-linecap="round"></path><path d="M 373.838,210.336 C 379.069,210.037 384.746,210.128 384.225,208.738" stroke-width="5.093" stroke="black" fill="none" stroke-linecap="round"></path><path d="M 384.225,208.738 C 383.547,206.931 378.135,204.946 371.441,203.941" stroke-width="6.365" stroke="black" fill="none" stroke-linecap="round"></path><path d="M 371.441,203.941 C 354.165,201.349 353.883,201.910 336.285,201.543" stroke-width="4.500" stroke="black" fill="none" stroke-linecap="round"></path><path d="M 336.285,201.543 C 315.531,201.110 315.407,200.688 294.737,202.342" stroke-width="4.500" stroke="black" fill="none" stroke-linecap="round"></path><path d="M 294.737,202.342 C 275.457,203.886 275.346,204.101 256.385,207.938" stroke-width="4.500" stroke="black" fill="none" stroke-linecap="round"></path><path d="M 256.385,207.938 C 239.791,211.296 239.506,210.994 223.625,216.732" stroke-width="4.500" stroke="black" fill="none" stroke-linecap="round"></path><path d="M 223.625,216.732 C 210.742,221.387 211.161,222.567 198.856,228.723" stroke-width="4.500" stroke="black" fill="none" stroke-linecap="round"></path><path d="M 198.856,228.723 C 187.990,234.159 187.910,234.033 177.283,239.914" stroke-width="4.500" stroke="black" fill="none" stroke-linecap="round"></path><path d="M 177.283,239.914 C 169.134,244.425 169.560,245.212 161.303,249.507" stroke-width="4.500" stroke="black" fill="none" stroke-linecap="round"></path><path d="M 161.303,249.507 C 149.585,255.604 149.629,255.893 137.333,260.699" stroke-width="4.500" stroke="black" fill="none" stroke-linecap="round"></path><path d="M 137.333,260.699 C 124.061,265.886 123.969,265.942 110.167,269.492" stroke-width="4.500" stroke="black" fill="none" stroke-linecap="round"></path><path d="M 110.167,269.492 C 96.004,273.136 95.895,273.140 81.403,275.088" stroke-width="4.500" stroke="black" fill="none" stroke-linecap="round"></path><path d="M 81.403,275.088 C 69.128,276.738 69.014,276.399 56.634,276.687" stroke-width="4.500" stroke="black" fill="none" stroke-linecap="round"></path><path d="M 56.634,276.687 C 51.835,276.799 51.090,277.992 47.046,275.888" stroke-width="4.910" stroke="black" fill="none" stroke-linecap="round"></path><path d="M 47.046,275.888 C 41.103,272.795 37.267,271.563 36.659,266.295" stroke-width="4.817" stroke="black" fill="none" stroke-linecap="round"></path><path d="M 36.659,266.295 C 36.068,261.171 39.686,259.812 44.649,255.103" stroke-width="4.927" stroke="black" fill="none" stroke-linecap="round"></path><path d="M 44.649,255.103 C 62.857,237.828 62.655,237.115 83.001,222.328" stroke-width="4.500" stroke="black" fill="none" stroke-linecap="round"></path><path d="M 83.001,222.328 C 105.002,206.338 105.570,206.869 129.343,193.549" stroke-width="4.500" stroke="black" fill="none" stroke-linecap="round"></path><path d="M 129.343,193.549 C 155.508,178.890 155.397,178.339 182.876,166.369" stroke-width="4.500" stroke="black" fill="none" stroke-linecap="round"></path><path d="M 182.876,166.369 C 214.124,152.758 214.182,152.216 246.797,142.387" stroke-width="4.500" stroke="black" fill="none" stroke-linecap="round"></path><path d="M 246.797,142.387 C 280.499,132.231 280.856,132.759 315.511,126.399" stroke-width="4.500" stroke="black" fill="none" stroke-linecap="round"></path><path d="M 315.511,126.399 C 348.371,120.368 348.570,120.978 381.828,117.606" stroke-width="4.500" stroke="black" fill="none" stroke-linecap="round"></path><path d="M 381.828,117.606 C 407.696,114.983 407.782,115.188 433.763,114.408" stroke-width="4.500" stroke="black" fill="none" stroke-linecap="round"></path><path d="M 433.763,114.408 C 447.732,113.989 447.982,113.866 461.728,115.207" stroke-width="4.500" stroke="black" fill="none" stroke-linecap="round"></path><path d="M 461.728,115.207 C 464.362,115.465 468.602,116.693 466.522,117.606" stroke-width="4.822" stroke="black" fill="none" stroke-linecap="round"></path><path d="M 466.522,117.606 C 445.831,126.685 441.381,126.478 416.185,135.193" stroke-width="4.500" stroke="black" fill="none" stroke-linecap="round"></path><path d="M 416.185,135.193 C 376.662,148.862 376.221,147.688 337.084,162.372" stroke-width="4.500" stroke="black" fill="none" stroke-linecap="round"></path><path d="M 337.084,162.372 C 302.713,175.268 302.589,175.193 269.169,190.351" stroke-width="4.500" stroke="black" fill="none" stroke-linecap="round"></path><path d="M 269.169,190.351 C 242.664,202.373 241.847,201.499 217.233,216.732" stroke-width="4.500" stroke="black" fill="none" stroke-linecap="round"></path><path d="M 217.233,216.732 C 203.095,225.481 201.471,225.908 191.665,238.316" stroke-width="4.500" stroke="black" fill="none" stroke-linecap="round"></path><path d="M 191.665,238.316 C 187.888,243.095 188.991,245.451 190.067,251.106" stroke-width="4.500" stroke="black" fill="none" stroke-linecap="round"></path><path d="M 190.067,251.106 C 190.589,253.844 192.010,253.899 194.861,255.103" stroke-width="5.492" stroke="black" fill="none" stroke-linecap="round"></path><path d="M 194.861,255.103 C 209.987,261.493 210.129,261.777 226.022,266.295" stroke-width="4.500" stroke="black" fill="none" stroke-linecap="round"></path><path d="M 226.022,266.295 C 245.285,271.770 245.450,271.519 265.174,275.088" stroke-width="4.500" stroke="black" fill="none" stroke-linecap="round"></path><path d="M 265.174,275.088 C 283.003,278.314 283.119,277.765 301.129,279.885" stroke-width="4.500" stroke="black" fill="none" stroke-linecap="round"></path><path d="M 301.129,279.885 C 317.076,281.762 317.111,281.461 333.089,283.082" stroke-width="4.500" stroke="black" fill="none" stroke-linecap="round"></path><path d="M 333.089,283.082 C 344.676,284.258 344.739,283.872 356.260,285.480" stroke-width="4.500" stroke="black" fill="none" stroke-linecap="round"></path><path d="M 356.260,285.480 C 361.918,286.270 361.846,286.711 367.446,287.879" stroke-width="4.618" stroke="black" fill="none" stroke-linecap="round"></path><circle r="3" cx="361.0537109375" cy="315.8576965332031" fill="black"></circle></svg>