<svg xmlns="http://www.w3.org/2000/svg" xmlns:xlink="http://www.w3.org/1999/xlink" viewBox="0 0 576 416" width="576" height="416"><path d="M 127.745,76.037 C 129.343,82.832 129.494,82.800 130.941,89.627" stroke-width="8.409" stroke="black" fill="none" stroke-linecap="round"></path><path d="M 130.941,89.627 C 132.290,95.990 132.270,96.002 133.338,102.417" stroke-width="5.659" stroke="black" fill="none" stroke-linecap="round"></path><path d="M 133.338,102.417 C 133.868,105.594 133.706,105.619 134.137,108.812" stroke-width="6.304" stroke="black" fill="none" stroke-linecap="round"></path><path d="M 134.137,108.812 C 135.704,120.408 135.883,120.386 137.333,131.995" stroke-width="4.500" stroke="black" fill="none" stroke-linecap="round"></path><path d="M 137.333,131.995 C 138.280,139.571 137.712,139.658 138.931,147.184" stroke-width="4.510" stroke="black" fill="none" stroke-linecap="round"></path><path d="M 138.931,147.184 C 140.109,154.447 140.571,154.369 142.127,161.573" stroke-width="4.723" stroke="black" fill="none" stroke-linecap="round"></path><path d="M 142.127,161.573 C 143.767,169.158 143.595,169.197 145.323,176.762" stroke-width="4.799" stroke="black" fill="none" stroke-linecap="round"></path><path d="M 145.323,176.762 C 146.791,183.187 146.628,183.245 148.519,189.552" stroke-width="4.985" stroke="black" fill="none" stroke-linecap="round"></path><path d="M 148.519,189.552 C 150.224,195.236 150.204,195.281 152.514,200.744" stroke-width="5.199" stroke="black" fill="none" stroke-linecap="round"></path><path d="M 152.514,200.744 C 154.599,205.673 154.411,205.876 157.308,210.336" stroke-width="5.500" stroke="black" fill="none" stroke-linecap="round"></path><path d="M 157.308,210.336 C 159.604,213.870 159.810,213.860 162.901,216.732" stroke-width="5.760" stroke="black" fill="none" stroke-linecap="round"></path><path d="M 162.901,216.732 C 165.403,219.056 165.401,219.491 168.494,220.729" stroke-width="6.199" stroke="black" fill="none" stroke-linecap="round"></path><path d="M 168.494,220.729 C 171.393,221.889 171.829,222.068 174.886,221.528" stroke-width="6.425" stroke="black" fill="none" stroke-linecap="round"></path><path d="M 174.886,221.528 C 178.621,220.869 178.688,220.268 182.077,218.331" stroke-width="7.019" stroke="black" fill="none" stroke-linecap="round"></path><path d="M 182.077,218.331 C 184.281,217.071 184.275,216.931 186.072,215.133" stroke-width="6.948" stroke="black" fill="none" stroke-linecap="round"></path><path d="M 186.072,215.133 C 187.870,213.334 188.147,213.380 189.268,211.136" stroke-width="6.927" stroke="black" fill="none" stroke-linecap="round"></path><path d="M 189.268,211.136 C 190.544,208.584 190.011,208.321 190.866,205.540" stroke-width="6.770" stroke="black" fill="none" stroke-linecap="round"></path><path d="M 190.866,205.540 C 191.609,203.124 191.899,203.197 192.464,200.744" stroke-width="6.886" stroke="black" fill="none" stroke-linecap="round"></path><path d="M 192.464,200.744 C 193.097,198.001 193.063,197.960 193.263,195.148" stroke-width="6.719" stroke="black" fill="none" stroke-linecap="round"></path><path d="M 193.263,195.148 C 193.462,192.364 193.263,192.350 193.263,189.552" stroke-width="6.821" stroke="black" fill="none" stroke-linecap="round"></path><path d="M 193.263,189.552 C 193.263,186.354 193.415,186.349 193.263,183.157" stroke-width="6.694" stroke="black" fill="none" stroke-linecap="round"></path><path d="M 193.263,183.157 C 193.016,177.955 193.167,177.916 192.464,172.764" stroke-width="6.829" stroke="black" fill="none" stroke-linecap="round"></path><path d="M 192.464,172.764 C 191.968,169.122 191.506,169.195 190.866,165.570" stroke-width="7.190" stroke="black" fill="none" stroke-linecap="round"></path><path d="M 190.866,165.570 C 190.307,162.400 190.067,159.388 190.067,159.175" stroke-width="7.732" stroke="black" fill="none" stroke-linecap="round"></path><path d="M 190.067,159.175 C 190.067,158.988 190.276,162.013 190.866,164.770" stroke-width="8.214" stroke="black" fill="none" stroke-linecap="round"></path><path d="M 190.866,164.770 C 191.474,167.609 191.665,167.568 192.464,170.366" stroke-width="7.013" stroke="black" fill="none" stroke-linecap="round"></path><path d="M 192.464,170.366 C 193.263,173.164 193.263,173.164 194.062,175.962" stroke-width="6.863" stroke="black" fill="none" stroke-linecap="round"></path><path d="M 194.062,175.962 C 194.861,178.760 194.684,178.823 195.660,181.558" stroke-width="6.677" stroke="black" fill="none" stroke-linecap="round"></path><path d="M 195.660,181.558 C 196.682,184.419 196.783,184.391 198.057,187.154" stroke-width="6.642" stroke="black" fill="none" stroke-linecap="round"></path><path d="M 198.057,187.154 C 199.180,189.587 198.715,189.961 200.454,191.950" stroke-width="6.781" stroke="black" fill="none" stroke-linecap="round"></path><path d="M 200.454,191.950 C 204.308,196.357 204.488,196.508 209.243,199.944" stroke-width="6.737" stroke="black" fill="none" stroke-linecap="round"></path><path d="M 209.243,199.944 C 211.679,201.704 211.925,201.566 214.836,202.342" stroke-width="6.584" stroke="black" fill="none" stroke-linecap="round"></path><path d="M 214.836,202.342 C 217.918,203.165 218.020,202.941 221.228,203.142" stroke-width="6.615" stroke="black" fill="none" stroke-linecap="round"></path><path d="M 221.228,203.142 C 224.412,203.341 224.577,203.858 227.620,203.142" stroke-width="6.563" stroke="black" fill="none" stroke-linecap="round"></path><path d="M 227.620,203.142 C 231.368,202.260 231.956,202.362 234.811,199.944" stroke-width="7.067" stroke="black" fill="none" stroke-linecap="round"></path><path d="M 234.811,199.944 C 237.150,197.965 237.009,197.346 238.008,194.348" stroke-width="7.385" stroke="black" fill="none" stroke-linecap="round"></path><path d="M 238.008,194.348 C 239.006,191.350 238.806,191.151 238.806,187.953" stroke-width="7.534" stroke="black" fill="none" stroke-linecap="round"></path><path d="M 238.806,187.953 C 238.806,184.756 238.510,184.740 238.008,181.558" stroke-width="6.715" stroke="black" fill="none" stroke-linecap="round"></path><path d="M 238.008,181.558 C 237.311,177.145 237.245,177.154 236.410,172.764" stroke-width="6.208" stroke="black" fill="none" stroke-linecap="round"></path><path d="M 236.410,172.764 C 235.647,168.760 235.651,168.759 234.811,164.770" stroke-width="6.034" stroke="black" fill="none" stroke-linecap="round"></path><path d="M 234.811,164.770 C 234.053,161.165 233.892,161.195 233.214,157.576" stroke-width="6.276" stroke="black" fill="none" stroke-linecap="round"></path><path d="M 233.214,157.576 C 232.693,154.800 233.047,154.723 232.415,151.980" stroke-width="6.603" stroke="black" fill="none" stroke-linecap="round"></path><path d="M 232.415,151.980 C 231.849,149.527 230.504,146.715 230.816,147.184" stroke-width="6.833" stroke="black" fill="none" stroke-linecap="round"></path><path d="M 230.816,147.184 C 231.303,147.914 232.415,150.781 234.013,154.378" stroke-width="7.832" stroke="black" fill="none" stroke-linecap="round"></path><path d="M 234.013,154.378 C 235.611,157.976 235.525,158.016 237.208,161.573" stroke-width="6.575" stroke="black" fill="none" stroke-linecap="round"></path><path d="M 237.208,161.573 C 239.120,165.610 239.066,165.646 241.203,169.567" stroke-width="6.087" stroke="black" fill="none" stroke-linecap="round"></path><path d="M 241.203,169.567 C 243.860,174.439 243.911,174.417 246.797,179.160" stroke-width="5.713" stroke="black" fill="none" stroke-linecap="round"></path><path d="M 246.797,179.160 C 249.504,183.610 249.347,183.739 252.390,187.953" stroke-width="5.619" stroke="black" fill="none" stroke-linecap="round"></path><path d="M 252.390,187.953 C 254.541,190.933 254.696,190.834 257.184,193.549" stroke-width="6.065" stroke="black" fill="none" stroke-linecap="round"></path><path d="M 257.184,193.549 C 259.091,195.631 259.082,195.658 261.179,197.546" stroke-width="6.532" stroke="black" fill="none" stroke-linecap="round"></path><path d="M 261.179,197.546 C 263.077,199.255 262.949,199.545 265.174,200.744" stroke-width="6.730" stroke="black" fill="none" stroke-linecap="round"></path><path d="M 265.174,200.744 C 268.142,202.343 269.242,203.987 271.566,203.142" stroke-width="7.248" stroke="black" fill="none" stroke-linecap="round"></path><path d="M 271.566,203.142 C 273.637,202.388 273.618,200.475 273.963,197.546" stroke-width="7.928" stroke="black" fill="none" stroke-linecap="round"></path><path d="M 273.963,197.546 C 274.417,193.680 273.624,193.542 273.164,189.552" stroke-width="6.563" stroke="black" fill="none" stroke-linecap="round"></path><path d="M 273.164,189.552 C 272.425,183.150 272.365,183.157 271.566,176.762" stroke-width="5.481" stroke="black" fill="none" stroke-linecap="round"></path><path d="M 271.566,176.762 C 270.767,170.366 270.993,170.330 269.968,163.971" stroke-width="5.222" stroke="black" fill="none" stroke-linecap="round"></path><path d="M 269.968,163.971 C 268.995,157.939 268.769,157.976 267.571,151.980" stroke-width="5.231" stroke="black" fill="none" stroke-linecap="round"></path><path d="M 267.571,151.980 C 266.372,145.984 266.412,145.976 265.174,139.989" stroke-width="5.234" stroke="black" fill="none" stroke-linecap="round"></path><path d="M 265.174,139.989 C 264.015,134.385 264.017,134.384 262.777,128.797" stroke-width="5.334" stroke="black" fill="none" stroke-linecap="round"></path><path d="M 262.777,128.797 C 261.620,123.592 261.623,123.590 260.380,118.405" stroke-width="5.470" stroke="black" fill="none" stroke-linecap="round"></path><path d="M 260.380,118.405 C 259.226,113.598 259.339,113.563 257.983,108.812" stroke-width="5.622" stroke="black" fill="none" stroke-linecap="round"></path><path d="M 257.983,108.812 C 256.942,105.169 256.654,105.253 255.586,101.618" stroke-width="6.030" stroke="black" fill="none" stroke-linecap="round"></path><path d="M 255.586,101.618 C 254.657,98.458 254.836,98.407 253.988,95.222" stroke-width="6.342" stroke="black" fill="none" stroke-linecap="round"></path><path d="M 253.988,95.222 C 253.238,92.411 253.189,92.424 252.390,89.627" stroke-width="6.592" stroke="black" fill="none" stroke-linecap="round"></path><path d="M 252.390,89.627 C 251.591,86.829 251.128,83.526 250.792,84.031" stroke-width="7.320" stroke="black" fill="none" stroke-linecap="round"></path><path d="M 250.792,84.031 C 250.329,84.725 250.256,88.094 250.792,92.025" stroke-width="8.009" stroke="black" fill="none" stroke-linecap="round"></path><path d="M 250.792,92.025 C 251.454,96.887 251.857,96.858 253.189,101.618" stroke-width="6.232" stroke="black" fill="none" stroke-linecap="round"></path><path d="M 253.189,101.618 C 254.653,106.851 254.722,106.834 256.385,112.010" stroke-width="5.594" stroke="black" fill="none" stroke-linecap="round"></path><path d="M 256.385,112.010 C 258.317,118.026 258.565,117.950 260.380,124.001" stroke-width="5.376" stroke="black" fill="none" stroke-linecap="round"></path><path d="M 260.380,124.001 C 262.161,129.941 261.778,130.056 263.576,135.992" stroke-width="5.342" stroke="black" fill="none" stroke-linecap="round"></path><path d="M 263.576,135.992 C 265.773,143.246 266.097,143.147 268.370,150.381" stroke-width="4.815" stroke="black" fill="none" stroke-linecap="round"></path><path d="M 268.370,150.381 C 270.492,157.137 270.127,157.256 272.365,163.971" stroke-width="4.881" stroke="black" fill="none" stroke-linecap="round"></path><path d="M 272.365,163.971 C 274.522,170.446 274.737,170.375 277.159,176.762" stroke-width="4.957" stroke="black" fill="none" stroke-linecap="round"></path><path d="M 277.159,176.762 C 279.132,181.967 278.677,182.199 281.154,187.154" stroke-width="5.284" stroke="black" fill="none" stroke-linecap="round"></path><path d="M 281.154,187.154 C 283.471,191.792 283.858,191.612 286.747,195.947" stroke-width="5.488" stroke="black" fill="none" stroke-linecap="round"></path><path d="M 286.747,195.947 C 288.652,198.807 288.344,199.145 290.742,201.543" stroke-width="6.101" stroke="black" fill="none" stroke-linecap="round"></path><path d="M 290.742,201.543 C 293.138,203.941 293.416,203.743 296.335,205.540" stroke-width="6.313" stroke="black" fill="none" stroke-linecap="round"></path><path d="M 296.335,205.540 C 298.610,206.941 298.556,207.484 301.129,207.938" stroke-width="6.675" stroke="black" fill="none" stroke-linecap="round"></path><path d="M 301.129,207.938 C 305.347,208.683 306.613,209.702 309.918,207.938" stroke-width="7.001" stroke="black" fill="none" stroke-linecap="round"></path><path d="M 309.918,207.938 C 312.606,206.504 312.121,204.919 313.114,201.543" stroke-width="7.603" stroke="black" fill="none" stroke-linecap="round"></path><path d="M 313.114,201.543 C 314.119,198.124 313.723,197.957 313.913,194.348" stroke-width="6.651" stroke="black" fill="none" stroke-linecap="round"></path><path d="M 313.913,194.348 C 314.122,190.363 314.094,190.344 313.913,186.354" stroke-width="6.271" stroke="black" fill="none" stroke-linecap="round"></path><path d="M 313.913,186.354 C 313.694,181.550 313.549,181.555 313.114,176.762" stroke-width="5.894" stroke="black" fill="none" stroke-linecap="round"></path><path d="M 313.114,176.762 C 312.750,172.761 312.910,172.735 312.315,168.767" stroke-width="6.045" stroke="black" fill="none" stroke-linecap="round"></path><path d="M 312.315,168.767 C 311.711,164.741 311.424,164.786 310.717,160.773" stroke-width="6.071" stroke="black" fill="none" stroke-linecap="round"></path><path d="M 310.717,160.773 C 310.226,157.991 310.408,157.960 309.918,155.178" stroke-width="6.534" stroke="black" fill="none" stroke-linecap="round"></path><path d="M 309.918,155.178 C 309.210,151.165 307.723,147.383 308.320,147.184" stroke-width="7.025" stroke="black" fill="none" stroke-linecap="round"></path><path d="M 308.320,147.184 C 308.922,146.983 310.477,150.701 312.315,154.378" stroke-width="7.812" stroke="black" fill="none" stroke-linecap="round"></path><path d="M 312.315,154.378 C 314.073,157.896 314.021,157.931 315.511,161.573" stroke-width="6.570" stroke="black" fill="none" stroke-linecap="round"></path><path d="M 315.511,161.573 C 317.617,166.724 317.687,166.707 319.506,171.965" stroke-width="5.735" stroke="black" fill="none" stroke-linecap="round"></path><path d="M 319.506,171.965 C 321.282,177.100 321.180,177.139 322.702,182.357" stroke-width="5.561" stroke="black" fill="none" stroke-linecap="round"></path><path d="M 322.702,182.357 C 323.977,186.732 323.719,186.812 325.099,191.151" stroke-width="5.766" stroke="black" fill="none" stroke-linecap="round"></path><path d="M 325.099,191.151 C 326.515,195.605 326.678,195.554 328.295,199.944" stroke-width="5.793" stroke="black" fill="none" stroke-linecap="round"></path><path d="M 328.295,199.944 C 329.475,203.149 329.349,203.205 330.692,206.339" stroke-width="6.219" stroke="black" fill="none" stroke-linecap="round"></path><path d="M 330.692,206.339 C 331.746,208.801 331.658,208.886 333.089,211.136" stroke-width="6.642" stroke="black" fill="none" stroke-linecap="round"></path><path d="M 333.089,211.136 C 334.454,213.283 334.231,213.763 336.285,215.133" stroke-width="6.833" stroke="black" fill="none" stroke-linecap="round"></path><path d="M 336.285,215.133 C 339.025,216.960 339.708,217.760 342.677,217.531" stroke-width="7.283" stroke="black" fill="none" stroke-linecap="round"></path><path d="M 342.677,217.531 C 344.902,217.360 345.457,216.460 346.672,214.333" stroke-width="7.653" stroke="black" fill="none" stroke-linecap="round"></path><path d="M 346.672,214.333 C 348.653,210.865 348.116,210.391 349.069,206.339" stroke-width="7.349" stroke="black" fill="none" stroke-linecap="round"></path><path d="M 349.069,206.339 C 349.714,203.596 349.692,203.557 349.868,200.744" stroke-width="6.922" stroke="black" fill="none" stroke-linecap="round"></path><path d="M 349.868,200.744 C 350.091,197.162 349.868,197.146 349.868,193.549" stroke-width="6.492" stroke="black" fill="none" stroke-linecap="round"></path><path d="M 349.868,193.549 C 349.868,190.351 349.868,190.351 349.868,187.154" stroke-width="6.448" stroke="black" fill="none" stroke-linecap="round"></path><path d="M 349.868,187.154 C 349.868,183.956 350.080,183.941 349.868,180.759" stroke-width="6.582" stroke="black" fill="none" stroke-linecap="round"></path><path d="M 349.868,180.759 C 349.680,177.946 349.234,177.977 349.069,175.163" stroke-width="6.702" stroke="black" fill="none" stroke-linecap="round"></path><path d="M 349.069,175.163 C 348.835,171.182 349.531,171.101 349.069,167.169" stroke-width="7.101" stroke="black" fill="none" stroke-linecap="round"></path><path d="M 349.069,167.169 C 348.732,164.306 347.471,161.573 347.471,161.573" stroke-width="7.758" stroke="black" fill="none" stroke-linecap="round"></path><path d="M 347.471,161.573 C 347.471,161.573 348.092,164.434 349.069,167.169" stroke-width="8.153" stroke="black" fill="none" stroke-linecap="round"></path><path d="M 349.069,167.169 C 350.090,170.030 350.307,169.950 351.466,172.764" stroke-width="6.937" stroke="black" fill="none" stroke-linecap="round"></path><path d="M 351.466,172.764 C 353.104,176.745 353.064,176.762 354.662,180.759" stroke-width="6.140" stroke="black" fill="none" stroke-linecap="round"></path><path d="M 354.662,180.759 C 356.260,184.756 356.188,184.786 357.858,188.753" stroke-width="5.935" stroke="black" fill="none" stroke-linecap="round"></path><path d="M 357.858,188.753 C 359.384,192.380 359.456,192.350 361.054,195.947" stroke-width="6.003" stroke="black" fill="none" stroke-linecap="round"></path><path d="M 361.054,195.947 C 362.652,199.545 362.492,199.625 364.250,203.142" stroke-width="6.023" stroke="black" fill="none" stroke-linecap="round"></path><path d="M 364.250,203.142 C 365.688,206.020 365.759,205.995 367.446,208.738" stroke-width="6.434" stroke="black" fill="none" stroke-linecap="round"></path><path d="M 367.446,208.738 C 368.955,211.191 368.724,211.423 370.642,213.534" stroke-width="6.561" stroke="black" fill="none" stroke-linecap="round"></path><path d="M 370.642,213.534 C 372.719,215.820 373.021,215.554 375.436,217.531" stroke-width="6.576" stroke="black" fill="none" stroke-linecap="round"></path><path d="M 375.436,217.531 C 377.415,219.152 377.220,219.522 379.431,220.729" stroke-width="6.812" stroke="black" fill="none" stroke-linecap="round"></path><path d="M 379.431,220.729 C 381.614,221.920 381.760,221.834 384.225,222.328" stroke-width="6.899" stroke="black" fill="none" stroke-linecap="round"></path><path d="M 384.225,222.328 C 387.753,223.034 387.999,223.730 391.416,223.127" stroke-width="7.256" stroke="black" fill="none" stroke-linecap="round"></path><path d="M 391.416,223.127 C 394.791,222.531 394.907,221.938 397.808,219.929" stroke-width="7.382" stroke="black" fill="none" stroke-linecap="round"></path><path d="M 397.808,219.929 C 400.101,218.341 399.916,218.030 401.803,215.932" stroke-width="6.931" stroke="black" fill="none" stroke-linecap="round"></path><path d="M 401.803,215.932 C 403.511,214.033 403.633,214.082 404.999,211.935" stroke-width="6.922" stroke="black" fill="none" stroke-linecap="round"></path><path d="M 404.999,211.935 C 406.430,209.686 406.197,209.537 407.396,207.139" stroke-width="6.866" stroke="black" fill="none" stroke-linecap="round"></path><path d="M 407.396,207.139 C 408.594,204.741 408.739,204.804 409.793,202.342" stroke-width="6.914" stroke="black" fill="none" stroke-linecap="round"></path><path d="M 409.793,202.342 C 411.136,199.208 411.111,199.184 412.190,195.947" stroke-width="6.478" stroke="black" fill="none" stroke-linecap="round"></path><path d="M 412.190,195.947 C 413.109,193.189 413.039,193.163 413.788,190.351" stroke-width="6.635" stroke="black" fill="none" stroke-linecap="round"></path><path d="M 413.788,190.351 C 414.637,187.167 414.780,187.190 415.386,183.956" stroke-width="6.530" stroke="black" fill="none" stroke-linecap="round"></path><path d="M 415.386,183.956 C 415.978,180.795 415.759,180.755 416.185,177.561" stroke-width="6.527" stroke="black" fill="none" stroke-linecap="round"></path><path d="M 416.185,177.561 C 416.558,174.759 416.672,174.773 416.984,171.965" stroke-width="6.684" stroke="black" fill="none" stroke-linecap="round"></path><path d="M 416.984,171.965 C 417.471,167.579 418.012,163.858 417.783,163.172" stroke-width="7.000" stroke="black" fill="none" stroke-linecap="round"></path><path d="M 417.783,163.172 C 417.612,162.659 416.527,166.313 416.185,169.567" stroke-width="8.004" stroke="black" fill="none" stroke-linecap="round"></path><path d="M 416.185,169.567 C 415.728,173.907 415.994,173.972 416.185,178.360" stroke-width="6.431" stroke="black" fill="none" stroke-linecap="round"></path><path d="M 416.185,178.360 C 416.394,183.165 416.615,183.154 416.984,187.953" stroke-width="5.936" stroke="black" fill="none" stroke-linecap="round"></path><path d="M 416.984,187.953 C 417.414,193.547 416.732,193.679 417.783,199.145" stroke-width="5.566" stroke="black" fill="none" stroke-linecap="round"></path><path d="M 417.783,199.145 C 418.730,204.071 418.997,204.110 420.979,208.738" stroke-width="5.702" stroke="black" fill="none" stroke-linecap="round"></path><path d="M 420.979,208.738 C 422.592,212.504 422.263,213.012 424.974,215.932" stroke-width="5.869" stroke="black" fill="none" stroke-linecap="round"></path><path d="M 424.974,215.932 C 427.457,218.608 427.849,219.050 431.366,219.929" stroke-width="6.120" stroke="black" fill="none" stroke-linecap="round"></path><path d="M 431.366,219.929 C 435.839,221.048 436.311,220.858 440.954,219.929" stroke-width="5.860" stroke="black" fill="none" stroke-linecap="round"></path><path d="M 440.954,219.929 C 448.296,218.460 448.425,218.158 455.336,215.133" stroke-width="5.042" stroke="black" fill="none" stroke-linecap="round"></path><path d="M 455.336,215.133 C 461.209,212.562 461.178,212.302 466.522,208.738" stroke-width="5.096" stroke="black" fill="none" stroke-linecap="round"></path><path d="M 466.522,208.738 C 470.766,205.907 470.927,205.929 474.512,202.342" stroke-width="5.529" stroke="black" fill="none" stroke-linecap="round"></path><path d="M 474.512,202.342 C 476.920,199.933 477.531,199.872 478.507,196.747" stroke-width="6.044" stroke="black" fill="none" stroke-linecap="round"></path><path d="M 478.507,196.747 C 479.528,193.476 480.380,191.614 478.507,189.552" stroke-width="6.951" stroke="black" fill="none" stroke-linecap="round"></path><path d="M 478.507,189.552 C 476.385,187.217 474.547,188.136 470.517,187.953" stroke-width="7.512" stroke="black" fill="none" stroke-linecap="round"></path><path d="M 470.517,187.953 C 465.758,187.737 465.635,187.841 460.929,188.753" stroke-width="6.080" stroke="black" fill="none" stroke-linecap="round"></path><path d="M 460.929,188.753 C 453.250,190.239 453.329,190.715 445.748,192.750" stroke-width="5.026" stroke="black" fill="none" stroke-linecap="round"></path><path d="M 445.748,192.750 C 436.949,195.111 436.904,194.964 428.170,197.546" stroke-width="4.528" stroke="black" fill="none" stroke-linecap="round"></path><path d="M 428.170,197.546 C 419.326,200.160 419.402,200.413 410.592,203.142" stroke-width="4.500" stroke="black" fill="none" stroke-linecap="round"></path><path d="M 410.592,203.142 C 402.623,205.610 402.544,205.364 394.612,207.938" stroke-width="4.500" stroke="black" fill="none" stroke-linecap="round"></path><path d="M 394.612,207.938 C 387.763,210.161 387.928,210.704 381.029,212.735" stroke-width="4.751" stroke="black" fill="none" stroke-linecap="round"></path><path d="M 381.029,212.735 C 374.345,214.701 374.225,214.282 367.446,215.932" stroke-width="4.884" stroke="black" fill="none" stroke-linecap="round"></path><path d="M 367.446,215.932 C 344.662,221.477 344.651,221.434 321.903,227.124" stroke-width="4.500" stroke="black" fill="none" stroke-linecap="round"></path><path d="M 321.903,227.124 C 307.896,230.627 307.915,230.702 293.938,234.319" stroke-width="4.500" stroke="black" fill="none" stroke-linecap="round"></path><path d="M 293.938,234.319 C 284.744,236.697 284.857,237.300 275.561,239.115" stroke-width="4.500" stroke="black" fill="none" stroke-linecap="round"></path><path d="M 275.561,239.115 C 268.478,240.498 268.342,240.714 261.179,240.714" stroke-width="4.508" stroke="black" fill="none" stroke-linecap="round"></path><path d="M 261.179,240.714 C 256.756,240.714 256.692,240.248 252.390,239.115" stroke-width="5.400" stroke="black" fill="none" stroke-linecap="round"></path><path d="M 252.390,239.115 C 249.101,238.249 248.839,238.466 245.998,236.717" stroke-width="6.304" stroke="black" fill="none" stroke-linecap="round"></path><path d="M 245.998,236.717 C 243.645,235.269 243.479,235.040 242.003,232.720" stroke-width="6.613" stroke="black" fill="none" stroke-linecap="round"></path><path d="M 242.003,232.720 C 240.682,230.644 240.714,230.401 240.405,227.923" stroke-width="7.362" stroke="black" fill="none" stroke-linecap="round"></path><path d="M 240.405,227.923 C 239.915,224.006 240.139,223.913 240.405,219.929" stroke-width="6.354" stroke="black" fill="none" stroke-linecap="round"></path><path d="M 240.405,219.929 C 240.938,211.922 241.007,211.911 242.003,203.941" stroke-width="5.143" stroke="black" fill="none" stroke-linecap="round"></path><path d="M 242.003,203.941 C 243.004,195.923 243.372,195.969 244.400,187.953" stroke-width="4.658" stroke="black" fill="none" stroke-linecap="round"></path><path d="M 244.400,187.953 C 245.370,180.381 244.976,180.329 245.998,172.764" stroke-width="4.716" stroke="black" fill="none" stroke-linecap="round"></path><path d="M 245.998,172.764 C 246.973,165.540 247.568,165.612 248.395,158.375" stroke-width="4.805" stroke="black" fill="none" stroke-linecap="round"></path><path d="M 248.395,158.375 C 249.166,151.622 248.756,151.578 249.194,144.785" stroke-width="4.938" stroke="black" fill="none" stroke-linecap="round"></path><path d="M 249.194,144.785 C 249.555,139.187 249.769,139.196 249.993,133.594" stroke-width="5.267" stroke="black" fill="none" stroke-linecap="round"></path><path d="M 249.993,133.594 C 250.168,129.203 249.993,129.197 249.993,124.800" stroke-width="5.715" stroke="black" fill="none" stroke-linecap="round"></path><path d="M 249.993,124.800 C 249.993,122.002 249.993,122.002 249.993,119.204" stroke-width="6.416" stroke="black" fill="none" stroke-linecap="round"></path><path d="M 249.993,119.204 C 249.993,116.407 249.573,113.819 249.993,113.609" stroke-width="7.281" stroke="black" fill="none" stroke-linecap="round"></path><path d="M 249.993,113.609 C 250.372,113.419 250.670,116.052 251.591,118.405" stroke-width="7.660" stroke="black" fill="none" stroke-linecap="round"></path><path d="M 251.591,118.405 C 254.266,125.245 254.507,125.152 257.184,131.995" stroke-width="5.430" stroke="black" fill="none" stroke-linecap="round"></path><path d="M 257.184,131.995 C 261.698,143.539 261.783,143.512 265.973,155.178" stroke-width="4.500" stroke="black" fill="none" stroke-linecap="round"></path><path d="M 265.973,155.178 C 270.971,169.093 270.576,169.235 275.561,183.157" stroke-width="4.500" stroke="black" fill="none" stroke-linecap="round"></path><path d="M 275.561,183.157 C 280.164,196.015 280.712,195.825 285.149,208.738" stroke-width="4.500" stroke="black" fill="none" stroke-linecap="round"></path><path d="M 285.149,208.738 C 289.501,221.405 289.105,221.540 293.139,234.319" stroke-width="4.500" stroke="black" fill="none" stroke-linecap="round"></path><path d="M 293.139,234.319 C 296.296,244.323 296.215,244.352 299.531,254.304" stroke-width="4.500" stroke="black" fill="none" stroke-linecap="round"></path><path d="M 299.531,254.304 C 301.009,258.741 300.872,258.806 302.727,263.097" stroke-width="5.098" stroke="black" fill="none" stroke-linecap="round"></path><path d="M 302.727,263.097 C 307.264,273.595 307.099,273.719 312.315,283.882" stroke-width="4.500" stroke="black" fill="none" stroke-linecap="round"></path><path d="M 312.315,283.882 C 314.689,288.508 315.166,288.244 317.908,292.675" stroke-width="5.004" stroke="black" fill="none" stroke-linecap="round"></path><circle r="3" cx="221.22848510742188" cy="43.2611083984375" fill="black"></circle></svg>