<svg xmlns="http://www.w3.org/2000/svg" xmlns:xlink="http://www.w3.org/1999/xlink" viewBox="0 0 576 416" width="576" height="416"><path d="M 67.820,176.762 C 61.828,175.962 61.842,175.385 55.835,175.163" stroke-width="8.483" stroke="black" fill="none" stroke-linecap="round"></path><path d="M 55.835,175.163 C 51.055,174.986 50.978,175.215 46.247,175.962" stroke-width="7.399" stroke="black" fill="none" stroke-linecap="round"></path><path d="M 46.247,175.962 C 43.387,176.414 43.411,176.641 40.654,177.561" stroke-width="6.971" stroke="black" fill="none" stroke-linecap="round"></path><path d="M 40.654,177.561 C 37.419,178.640 37.248,178.366 34.262,179.959" stroke-width="6.493" stroke="black" fill="none" stroke-linecap="round"></path><path d="M 34.262,179.959 C 31.256,181.563 31.182,181.652 28.669,183.956" stroke-width="6.434" stroke="black" fill="none" stroke-linecap="round"></path><path d="M 28.669,183.956 C 26.388,186.049 26.350,186.144 24.674,188.753" stroke-width="6.537" stroke="black" fill="none" stroke-linecap="round"></path><path d="M 24.674,188.753 C 22.755,191.740 22.658,191.802 21.478,195.148" stroke-width="6.395" stroke="black" fill="none" stroke-linecap="round"></path><path d="M 21.478,195.148 C 20.261,198.597 20.263,198.699 19.880,202.342" stroke-width="6.313" stroke="black" fill="none" stroke-linecap="round"></path><path d="M 19.880,202.342 C 19.464,206.294 19.344,206.405 19.880,210.336" stroke-width="6.256" stroke="black" fill="none" stroke-linecap="round"></path><path d="M 19.880,210.336 C 20.543,215.199 20.491,215.362 22.277,219.929" stroke-width="5.754" stroke="black" fill="none" stroke-linecap="round"></path><path d="M 22.277,219.929 C 24.086,224.555 23.989,224.867 27.071,228.723" stroke-width="5.690" stroke="black" fill="none" stroke-linecap="round"></path><path d="M 27.071,228.723 C 30.381,232.862 30.660,232.915 35.061,235.917" stroke-width="5.565" stroke="black" fill="none" stroke-linecap="round"></path><path d="M 35.061,235.917 C 39.449,238.911 39.580,239.211 44.649,240.714" stroke-width="5.533" stroke="black" fill="none" stroke-linecap="round"></path><path d="M 44.649,240.714 C 50.366,242.409 50.625,241.766 56.634,242.313" stroke-width="5.339" stroke="black" fill="none" stroke-linecap="round"></path><path d="M 56.634,242.313 C 59.414,242.565 59.431,242.313 62.227,242.313" stroke-width="6.323" stroke="black" fill="none" stroke-linecap="round"></path><path d="M 62.227,242.313 C 69.019,242.313 69.019,242.313 75.810,242.313" stroke-width="5.229" stroke="black" fill="none" stroke-linecap="round"></path><path d="M 131.740,135.193 C 131.341,139.989 131.101,139.979 130.941,144.785" stroke-width="8.476" stroke="black" fill="none" stroke-linecap="round"></path><path d="M 130.941,144.785 C 130.702,151.970 130.766,151.984 130.941,159.175" stroke-width="5.586" stroke="black" fill="none" stroke-linecap="round"></path><path d="M 130.941,159.175 C 131.166,168.372 131.536,168.364 131.740,177.561" stroke-width="4.739" stroke="black" fill="none" stroke-linecap="round"></path><path d="M 131.740,177.561 C 131.936,186.350 132.023,186.370 131.740,195.148" stroke-width="4.500" stroke="black" fill="none" stroke-linecap="round"></path><path d="M 131.740,195.148 C 131.624,198.761 131.356,198.747 130.941,202.342" stroke-width="5.527" stroke="black" fill="none" stroke-linecap="round"></path><path d="M 130.941,202.342 C 130.157,209.139 129.962,209.121 129.343,215.932" stroke-width="5.137" stroke="black" fill="none" stroke-linecap="round"></path><path d="M 129.343,215.932 C 128.764,222.311 128.284,230.938 128.544,228.723" stroke-width="5.038" stroke="black" fill="none" stroke-linecap="round"></path><path d="M 190.067,195.947 C 188.869,199.944 188.254,199.854 187.670,203.941" stroke-width="8.610" stroke="black" fill="none" stroke-linecap="round"></path><path d="M 187.670,203.941 C 187.055,208.248 187.214,208.394 187.670,212.735" stroke-width="7.534" stroke="black" fill="none" stroke-linecap="round"></path><path d="M 187.670,212.735 C 188.013,215.988 187.399,216.844 189.268,219.130" stroke-width="7.537" stroke="black" fill="none" stroke-linecap="round"></path><path d="M 189.268,219.130 C 190.994,221.240 191.958,221.357 194.861,221.528" stroke-width="7.628" stroke="black" fill="none" stroke-linecap="round"></path><path d="M 194.861,221.528 C 198.749,221.757 199.984,222.260 202.851,219.929" stroke-width="7.674" stroke="black" fill="none" stroke-linecap="round"></path><path d="M 202.851,219.929 C 206.376,217.064 205.904,215.782 207.645,211.136" stroke-width="7.119" stroke="black" fill="none" stroke-linecap="round"></path><path d="M 207.645,211.136 C 209.500,206.189 209.046,205.976 210.042,200.744" stroke-width="6.024" stroke="black" fill="none" stroke-linecap="round"></path><path d="M 210.042,200.744 C 210.644,197.582 210.249,197.510 210.841,194.348" stroke-width="6.367" stroke="black" fill="none" stroke-linecap="round"></path><path d="M 210.841,194.348 C 211.447,191.115 211.794,191.181 212.439,187.953" stroke-width="6.449" stroke="black" fill="none" stroke-linecap="round"></path><path d="M 212.439,187.953 C 212.993,185.185 212.718,185.133 213.238,182.357" stroke-width="6.660" stroke="black" fill="none" stroke-linecap="round"></path><circle r="3" cx="179.68040466308594" cy="157.5758056640625" fill="black"></circle><path d="M 257.983,110.411 C 256.385,115.607 255.675,115.469 254.787,120.803" stroke-width="8.276" stroke="black" fill="none" stroke-linecap="round"></path><path d="M 254.787,120.803 C 253.278,129.858 253.896,129.989 253.189,139.190" stroke-width="5.039" stroke="black" fill="none" stroke-linecap="round"></path><path d="M 253.189,139.190 C 252.298,150.774 252.217,150.771 251.591,162.372" stroke-width="4.500" stroke="black" fill="none" stroke-linecap="round"></path><path d="M 251.591,162.372 C 250.619,180.349 249.690,202.727 249.993,198.345" stroke-width="4.500" stroke="black" fill="none" stroke-linecap="round"></path><path d="M 317.109,116.806 C 313.114,122.402 312.855,122.247 309.119,127.998" stroke-width="8.164" stroke="black" fill="none" stroke-linecap="round"></path><path d="M 309.119,127.998 C 307.662,130.241 307.714,130.311 306.722,132.794" stroke-width="7.113" stroke="black" fill="none" stroke-linecap="round"></path><path d="M 306.722,132.794 C 305.317,136.306 305.175,136.303 304.325,139.989" stroke-width="6.377" stroke="black" fill="none" stroke-linecap="round"></path><path d="M 304.325,139.989 C 302.778,146.696 302.960,146.759 301.928,153.579" stroke-width="5.320" stroke="black" fill="none" stroke-linecap="round"></path><path d="M 301.928,153.579 C 300.963,159.949 300.719,159.949 300.330,166.369" stroke-width="5.178" stroke="black" fill="none" stroke-linecap="round"></path><path d="M 300.330,166.369 C 299.920,173.139 299.584,173.242 300.330,179.959" stroke-width="4.956" stroke="black" fill="none" stroke-linecap="round"></path><path d="M 300.330,179.959 C 301.182,187.631 301.030,187.906 303.526,195.148" stroke-width="4.678" stroke="black" fill="none" stroke-linecap="round"></path><path d="M 303.526,195.148 C 305.025,199.497 305.137,199.957 308.320,203.142" stroke-width="5.418" stroke="black" fill="none" stroke-linecap="round"></path><path d="M 308.320,203.142 C 311.129,205.953 311.835,205.300 315.511,207.139" stroke-width="5.855" stroke="black" fill="none" stroke-linecap="round"></path><path d="M 315.511,207.139 C 319.026,208.898 318.927,209.581 322.702,210.336" stroke-width="6.060" stroke="black" fill="none" stroke-linecap="round"></path><path d="M 322.702,210.336 C 326.917,211.180 327.252,211.144 331.491,210.336" stroke-width="5.785" stroke="black" fill="none" stroke-linecap="round"></path><path d="M 331.491,210.336 C 335.641,209.545 336.417,209.795 339.481,207.139" stroke-width="5.917" stroke="black" fill="none" stroke-linecap="round"></path><path d="M 339.481,207.139 C 342.410,204.599 342.528,203.735 343.476,199.944" stroke-width="6.813" stroke="black" fill="none" stroke-linecap="round"></path><path d="M 343.476,199.944 C 344.126,197.340 344.061,196.526 342.677,194.348" stroke-width="7.400" stroke="black" fill="none" stroke-linecap="round"></path><path d="M 342.677,194.348 C 341.265,192.129 340.366,191.358 337.883,191.151" stroke-width="7.878" stroke="black" fill="none" stroke-linecap="round"></path><path d="M 337.883,191.151 C 335.572,190.958 335.014,191.816 333.089,193.549" stroke-width="7.783" stroke="black" fill="none" stroke-linecap="round"></path><path d="M 333.089,193.549 C 331.019,195.413 331.085,195.760 329.893,198.345" stroke-width="7.008" stroke="black" fill="none" stroke-linecap="round"></path><path d="M 329.893,198.345 C 328.688,200.956 328.863,201.096 328.295,203.941" stroke-width="6.793" stroke="black" fill="none" stroke-linecap="round"></path><path d="M 328.295,203.941 C 327.665,207.092 327.496,207.142 327.496,210.336" stroke-width="6.604" stroke="black" fill="none" stroke-linecap="round"></path><path d="M 327.496,210.336 C 327.496,213.138 327.571,213.217 328.295,215.932" stroke-width="6.774" stroke="black" fill="none" stroke-linecap="round"></path><path d="M 328.295,215.932 C 329.169,219.213 328.911,219.478 330.692,222.328" stroke-width="6.523" stroke="black" fill="none" stroke-linecap="round"></path><path d="M 330.692,222.328 C 332.906,225.873 333.521,225.497 336.285,228.723" stroke-width="6.058" stroke="black" fill="none" stroke-linecap="round"></path><path d="M 336.285,228.723 C 338.315,231.093 338.282,231.121 340.280,233.519" stroke-width="6.416" stroke="black" fill="none" stroke-linecap="round"></path><path d="M 377.034,166.369 C 375.835,170.366 374.456,170.387 374.637,174.363" stroke-width="8.601" stroke="black" fill="none" stroke-linecap="round"></path><path d="M 374.637,174.363 C 374.856,179.181 375.101,179.962 377.833,183.956" stroke-width="7.364" stroke="black" fill="none" stroke-linecap="round"></path><path d="M 377.833,183.956 C 380.294,187.556 381.032,187.908 385.024,189.552" stroke-width="7.207" stroke="black" fill="none" stroke-linecap="round"></path><path d="M 385.024,189.552 C 387.824,190.705 388.325,190.132 391.416,189.552" stroke-width="6.727" stroke="black" fill="none" stroke-linecap="round"></path><path d="M 391.416,189.552 C 394.717,188.933 395.266,189.273 397.808,187.154" stroke-width="6.510" stroke="black" fill="none" stroke-linecap="round"></path><path d="M 397.808,187.154 C 402.457,183.278 402.488,182.765 405.798,177.561" stroke-width="6.485" stroke="black" fill="none" stroke-linecap="round"></path><path d="M 405.798,177.561 C 408.080,173.972 408.203,173.719 408.994,169.567" stroke-width="6.028" stroke="black" fill="none" stroke-linecap="round"></path><path d="M 408.994,169.567 C 409.801,165.326 409.202,165.160 408.994,160.773" stroke-width="6.041" stroke="black" fill="none" stroke-linecap="round"></path><path d="M 408.994,160.773 C 408.803,156.766 408.854,156.736 408.195,152.779" stroke-width="6.006" stroke="black" fill="none" stroke-linecap="round"></path><path d="M 408.195,152.779 C 407.256,147.143 407.065,147.168 405.798,141.588" stroke-width="5.728" stroke="black" fill="none" stroke-linecap="round"></path><path d="M 405.798,141.588 C 405.068,138.374 405.181,138.333 404.200,135.193" stroke-width="6.238" stroke="black" fill="none" stroke-linecap="round"></path><path d="M 404.200,135.193 C 403.183,131.938 403.040,131.980 401.803,128.797" stroke-width="6.365" stroke="black" fill="none" stroke-linecap="round"></path><circle r="3" cx="349.06866455078125" cy="113.608642578125" fill="black"></circle><path d="M 432.964,97.621 C 428.569,98.020 428.442,97.450 424.175,98.420" stroke-width="8.280" stroke="black" fill="none" stroke-linecap="round"></path><path d="M 424.175,98.420 C 419.653,99.448 419.264,99.135 415.386,101.618" stroke-width="6.378" stroke="black" fill="none" stroke-linecap="round"></path><path d="M 415.386,101.618 C 409.276,105.530 409.235,105.920 404.200,111.210" stroke-width="5.401" stroke="black" fill="none" stroke-linecap="round"></path><path d="M 404.200,111.210 C 401.245,114.314 400.651,114.459 399.406,118.405" stroke-width="5.785" stroke="black" fill="none" stroke-linecap="round"></path><path d="M 399.406,118.405 C 398.254,122.054 398.562,122.601 399.406,126.399" stroke-width="6.016" stroke="black" fill="none" stroke-linecap="round"></path><path d="M 399.406,126.399 C 400.160,129.796 400.435,130.007 402.602,132.794" stroke-width="6.236" stroke="black" fill="none" stroke-linecap="round"></path><path d="M 402.602,132.794 C 406.028,137.201 406.127,137.393 410.592,140.788" stroke-width="5.631" stroke="black" fill="none" stroke-linecap="round"></path><path d="M 410.592,140.788 C 416.114,144.988 416.311,144.943 422.577,147.983" stroke-width="5.223" stroke="black" fill="none" stroke-linecap="round"></path><path d="M 422.577,147.983 C 429.494,151.339 429.704,150.958 436.959,153.579" stroke-width="4.757" stroke="black" fill="none" stroke-linecap="round"></path><path d="M 436.959,153.579 C 444.086,156.154 444.111,156.102 451.341,158.375" stroke-width="4.757" stroke="black" fill="none" stroke-linecap="round"></path><path d="M 451.341,158.375 C 458.093,160.498 458.295,159.940 464.924,162.372" stroke-width="4.863" stroke="black" fill="none" stroke-linecap="round"></path><path d="M 464.924,162.372 C 470.280,164.337 470.151,164.700 475.311,167.169" stroke-width="5.214" stroke="black" fill="none" stroke-linecap="round"></path><path d="M 475.311,167.169 C 479.340,169.097 479.798,168.537 483.301,171.166" stroke-width="5.676" stroke="black" fill="none" stroke-linecap="round"></path><path d="M 483.301,171.166 C 486.190,173.334 486.163,173.670 488.095,176.762" stroke-width="6.155" stroke="black" fill="none" stroke-linecap="round"></path><path d="M 488.095,176.762 C 490.158,180.065 489.794,180.318 491.291,183.956" stroke-width="6.068" stroke="black" fill="none" stroke-linecap="round"></path><path d="M 491.291,183.956 C 492.590,187.113 492.671,187.097 493.688,190.351" stroke-width="6.311" stroke="black" fill="none" stroke-linecap="round"></path><path d="M 493.688,190.351 C 494.669,193.492 494.571,193.530 495.286,196.747" stroke-width="6.502" stroke="black" fill="none" stroke-linecap="round"></path><path d="M 495.286,196.747 C 496.169,200.725 497.256,200.832 496.884,204.741" stroke-width="6.987" stroke="black" fill="none" stroke-linecap="round"></path><path d="M 496.884,204.741 C 496.457,209.226 496.893,210.862 493.688,213.534" stroke-width="7.067" stroke="black" fill="none" stroke-linecap="round"></path><path d="M 493.688,213.534 C 489.702,216.857 488.250,216.242 482.502,216.732" stroke-width="5.657" stroke="black" fill="none" stroke-linecap="round"></path><path d="M 482.502,216.732 C 469.474,217.841 469.286,217.498 456.135,216.732" stroke-width="4.500" stroke="black" fill="none" stroke-linecap="round"></path><path d="M 456.135,216.732 C 428.137,215.100 428.112,214.885 400.205,211.935" stroke-width="4.500" stroke="black" fill="none" stroke-linecap="round"></path><path d="M 400.205,211.935 C 371.383,208.889 371.506,207.704 342.677,204.741" stroke-width="4.500" stroke="black" fill="none" stroke-linecap="round"></path><path d="M 342.677,204.741 C 313.179,201.708 313.151,201.733 283.551,199.944" stroke-width="4.500" stroke="black" fill="none" stroke-linecap="round"></path><path d="M 283.551,199.944 C 253.625,198.136 253.598,197.954 223.625,197.546" stroke-width="4.500" stroke="black" fill="none" stroke-linecap="round"></path><path d="M 223.625,197.546 C 194.872,197.155 194.791,196.717 166.097,198.345" stroke-width="4.500" stroke="black" fill="none" stroke-linecap="round"></path><path d="M 166.097,198.345 C 138.461,199.914 138.355,199.901 110.966,203.941" stroke-width="4.500" stroke="black" fill="none" stroke-linecap="round"></path><path d="M 110.966,203.941 C 76.033,209.094 75.397,207.470 41.453,216.732" stroke-width="4.500" stroke="black" fill="none" stroke-linecap="round"></path><path d="M 41.453,216.732 C 13.874,224.257 14.156,225.957 -12.080,237.516" stroke-width="4.500" stroke="black" fill="none" stroke-linecap="round"></path><path d="M -12.080,237.516 C -29.389,245.142 -29.796,244.992 -45.638,255.103" stroke-width="4.500" stroke="black" fill="none" stroke-linecap="round"></path><path d="M -45.638,255.103 C -52.967,259.781 -54.081,260.579 -58.422,267.094" stroke-width="4.500" stroke="black" fill="none" stroke-linecap="round"></path><path d="M -58.422,267.094 C -59.674,268.973 -58.922,271.971 -56.824,271.891" stroke-width="5.876" stroke="black" fill="none" stroke-linecap="round"></path><path d="M -56.824,271.891 C -48.535,271.572 -47.297,268.869 -37.648,266.295" stroke-width="4.541" stroke="black" fill="none" stroke-linecap="round"></path><path d="M -37.648,266.295 C -17.335,260.875 -17.431,260.384 3.101,255.902" stroke-width="4.500" stroke="black" fill="none" stroke-linecap="round"></path><path d="M 3.101,255.902 C 26.514,250.792 26.725,251.777 50.242,247.109" stroke-width="4.500" stroke="black" fill="none" stroke-linecap="round"></path><path d="M 50.242,247.109 C 77.062,241.785 77.017,241.554 103.775,235.917" stroke-width="4.500" stroke="black" fill="none" stroke-linecap="round"></path><path d="M 103.775,235.917 C 130.151,230.362 130.393,231.310 156.509,224.726" stroke-width="4.500" stroke="black" fill="none" stroke-linecap="round"></path><path d="M 156.509,224.726 C 181.129,218.519 181.509,219.189 205.248,210.336" stroke-width="4.500" stroke="black" fill="none" stroke-linecap="round"></path><path d="M 205.248,210.336 C 225.454,202.802 224.824,201.143 244.400,191.950" stroke-width="4.500" stroke="black" fill="none" stroke-linecap="round"></path><path d="M 250.792,139.190 C 242.003,137.191 242.120,136.141 233.214,135.193" stroke-width="6.921" stroke="black" fill="none" stroke-linecap="round"></path><path d="M 233.214,135.193 C 223.344,134.142 223.226,135.193 213.238,135.193" stroke-width="4.706" stroke="black" fill="none" stroke-linecap="round"></path></svg>