<svg xmlns="http://www.w3.org/2000/svg" xmlns:xlink="http://www.w3.org/1999/xlink" viewBox="0 0 576 416" width="576" height="416"><path d="M 148.519,123.202 C 144.924,138.390 144.964,138.400 141.328,153.579" stroke-width="7.462" stroke="black" fill="none" stroke-linecap="round"></path><path d="M 141.328,153.579 C 133.379,186.764 133.260,186.735 125.348,219.929" stroke-width="4.500" stroke="black" fill="none" stroke-linecap="round"></path><path d="M 125.348,219.929 C 120.875,238.697 121.069,238.743 116.559,257.501" stroke-width="4.500" stroke="black" fill="none" stroke-linecap="round"></path><path d="M 116.559,257.501 C 113.478,270.319 113.493,270.327 110.167,283.082" stroke-width="4.500" stroke="black" fill="none" stroke-linecap="round"></path><path d="M 110.167,283.082 C 108.699,288.713 108.278,295.872 106.971,294.274" stroke-width="4.500" stroke="black" fill="none" stroke-linecap="round"></path><path d="M 106.971,294.274 C 104.683,291.475 103.804,284.397 102.976,274.289" stroke-width="5.909" stroke="black" fill="none" stroke-linecap="round"></path><path d="M 102.976,274.289 C 101.807,260.015 102.976,259.900 102.976,245.510" stroke-width="4.500" stroke="black" fill="none" stroke-linecap="round"></path><path d="M 102.976,245.510 C 102.976,228.723 102.363,228.700 102.976,211.935" stroke-width="4.500" stroke="black" fill="none" stroke-linecap="round"></path><path d="M 102.976,211.935 C 103.562,195.924 103.823,195.912 105.373,179.959" stroke-width="4.500" stroke="black" fill="none" stroke-linecap="round"></path><path d="M 105.373,179.959 C 106.620,167.134 106.187,167.009 108.569,154.378" stroke-width="4.500" stroke="black" fill="none" stroke-linecap="round"></path><path d="M 108.569,154.378 C 110.182,145.825 109.951,145.469 113.363,137.591" stroke-width="4.500" stroke="black" fill="none" stroke-linecap="round"></path><path d="M 113.363,137.591 C 115.144,133.478 115.346,132.096 118.956,130.396" stroke-width="5.171" stroke="black" fill="none" stroke-linecap="round"></path><path d="M 118.956,130.396 C 122.138,128.898 123.646,129.448 126.946,131.195" stroke-width="5.796" stroke="black" fill="none" stroke-linecap="round"></path><path d="M 126.946,131.195 C 130.438,133.045 130.351,133.978 132.539,137.591" stroke-width="5.938" stroke="black" fill="none" stroke-linecap="round"></path><path d="M 132.539,137.591 C 138.341,147.168 138.421,147.273 142.926,157.576" stroke-width="4.500" stroke="black" fill="none" stroke-linecap="round"></path><path d="M 142.926,157.576 C 149.607,172.854 148.391,173.390 154.911,188.753" stroke-width="4.500" stroke="black" fill="none" stroke-linecap="round"></path><path d="M 154.911,188.753 C 160.775,202.568 159.901,203.232 167.695,215.932" stroke-width="4.500" stroke="black" fill="none" stroke-linecap="round"></path><path d="M 167.695,215.932 C 173.883,226.015 173.637,227.496 182.876,234.319" stroke-width="4.500" stroke="black" fill="none" stroke-linecap="round"></path><path d="M 182.876,234.319 C 190.416,239.886 191.945,239.455 201.253,240.714" stroke-width="4.500" stroke="black" fill="none" stroke-linecap="round"></path><path d="M 201.253,240.714 C 206.726,241.454 207.338,240.740 212.439,238.316" stroke-width="4.871" stroke="black" fill="none" stroke-linecap="round"></path><path d="M 212.439,238.316 C 223.318,233.146 223.975,233.318 233.214,225.525" stroke-width="4.500" stroke="black" fill="none" stroke-linecap="round"></path><path d="M 233.214,225.525 C 244.350,216.131 245.085,216.003 253.189,203.941" stroke-width="4.500" stroke="black" fill="none" stroke-linecap="round"></path><path d="M 253.189,203.941 C 261.465,191.622 260.644,190.724 265.973,176.762" stroke-width="4.500" stroke="black" fill="none" stroke-linecap="round"></path><path d="M 265.973,176.762 C 269.034,168.740 269.384,168.544 269.968,159.974" stroke-width="4.500" stroke="black" fill="none" stroke-linecap="round"></path><path d="M 269.968,159.974 C 271.781,133.371 273.256,132.817 270.767,106.414" stroke-width="4.500" stroke="black" fill="none" stroke-linecap="round"></path><path d="M 270.767,106.414 C 269.261,90.448 268.934,89.568 261.978,75.237" stroke-width="4.500" stroke="black" fill="none" stroke-linecap="round"></path><path d="M 261.978,75.237 C 255.351,61.588 254.627,60.851 243.601,50.456" stroke-width="4.500" stroke="black" fill="none" stroke-linecap="round"></path><path d="M 243.601,50.456 C 233.853,41.266 232.773,41.509 220.429,36.066" stroke-width="4.500" stroke="black" fill="none" stroke-linecap="round"></path><path d="M 220.429,36.066 C 209.202,31.116 208.444,32.869 196.459,29.671" stroke-width="4.500" stroke="black" fill="none" stroke-linecap="round"></path><path d="M 367.446,235.118 C 373.838,231.121 374.659,232.001 380.230,227.124" stroke-width="7.157" stroke="black" fill="none" stroke-linecap="round"></path><path d="M 380.230,227.124 C 384.247,223.607 385.246,223.248 386.622,218.331" stroke-width="5.902" stroke="black" fill="none" stroke-linecap="round"></path><path d="M 386.622,218.331 C 388.042,213.255 388.140,211.941 385.823,207.139" stroke-width="5.557" stroke="black" fill="none" stroke-linecap="round"></path><path d="M 385.823,207.139 C 382.547,200.349 381.937,199.329 375.436,195.148" stroke-width="4.894" stroke="black" fill="none" stroke-linecap="round"></path><path d="M 375.436,195.148 C 365.158,188.537 364.322,188.427 352.265,185.555" stroke-width="4.500" stroke="black" fill="none" stroke-linecap="round"></path><path d="M 352.265,185.555 C 339.153,182.432 338.691,183.690 325.099,183.157" stroke-width="4.500" stroke="black" fill="none" stroke-linecap="round"></path><path d="M 325.099,183.157 C 318.317,182.891 318.057,182.320 311.516,183.956" stroke-width="4.500" stroke="black" fill="none" stroke-linecap="round"></path><path d="M 311.516,183.956 C 298.881,187.117 298.151,186.605 286.747,192.750" stroke-width="4.500" stroke="black" fill="none" stroke-linecap="round"></path><path d="M 286.747,192.750 C 277.377,197.797 276.304,198.122 269.968,206.339" stroke-width="4.500" stroke="black" fill="none" stroke-linecap="round"></path><path d="M 269.968,206.339 C 265.517,212.112 266.553,213.369 265.174,220.729" stroke-width="4.500" stroke="black" fill="none" stroke-linecap="round"></path><path d="M 265.174,220.729 C 264.156,226.159 265.174,226.325 265.174,231.920" stroke-width="5.082" stroke="black" fill="none" stroke-linecap="round"></path><path d="M 374.637,188.753 C 371.041,199.145 369.260,198.845 367.446,209.537" stroke-width="7.722" stroke="black" fill="none" stroke-linecap="round"></path><path d="M 367.446,209.537 C 365.665,220.030 366.262,220.459 367.446,231.121" stroke-width="4.643" stroke="black" fill="none" stroke-linecap="round"></path><path d="M 367.446,231.121 C 368.659,242.043 368.835,242.258 372.240,252.705" stroke-width="4.500" stroke="black" fill="none" stroke-linecap="round"></path><path d="M 372.240,252.705 C 374.828,260.645 374.309,261.793 379.431,267.894" stroke-width="4.500" stroke="black" fill="none" stroke-linecap="round"></path><path d="M 379.431,267.894 C 382.698,271.785 384.277,272.191 389.019,272.690" stroke-width="5.124" stroke="black" fill="none" stroke-linecap="round"></path><path d="M 389.019,272.690 C 391.868,272.990 392.614,271.953 394.612,269.492" stroke-width="6.092" stroke="black" fill="none" stroke-linecap="round"></path><path d="M 394.612,269.492 C 403.001,259.163 404.061,259.234 409.793,247.109" stroke-width="4.500" stroke="black" fill="none" stroke-linecap="round"></path><path d="M 409.793,247.109 C 418.044,229.656 416.185,228.723 422.577,210.336" stroke-width="4.500" stroke="black" fill="none" stroke-linecap="round"></path><path d="M 422.577,210.336 C 428.969,191.950 433.230,191.950 435.361,173.564" stroke-width="4.500" stroke="black" fill="none" stroke-linecap="round"></path><path d="M 435.361,173.564 C 436.426,164.371 430.061,164.652 428.969,155.178" stroke-width="4.500" stroke="black" fill="none" stroke-linecap="round"></path><path d="M 428.969,155.178 C 427.664,143.867 429.987,143.594 430.567,131.995" stroke-width="4.500" stroke="black" fill="none" stroke-linecap="round"></path><path d="M 430.567,131.995 C 430.786,127.606 430.132,123.636 430.567,123.202" stroke-width="5.052" stroke="black" fill="none" stroke-linecap="round"></path><path d="M 430.567,123.202 C 430.931,122.837 431.272,126.822 432.165,130.396" stroke-width="6.739" stroke="black" fill="none" stroke-linecap="round"></path><path d="M 432.165,130.396 C 434.468,139.612 434.581,139.584 436.959,148.782" stroke-width="4.892" stroke="black" fill="none" stroke-linecap="round"></path><path d="M 436.959,148.782 C 440.574,162.767 440.418,162.808 444.150,176.762" stroke-width="4.500" stroke="black" fill="none" stroke-linecap="round"></path><path d="M 444.150,176.762 C 448.008,191.187 448.666,191.026 452.140,205.540" stroke-width="4.500" stroke="black" fill="none" stroke-linecap="round"></path><path d="M 452.140,205.540 C 455.458,219.405 455.457,219.446 457.733,233.519" stroke-width="4.500" stroke="black" fill="none" stroke-linecap="round"></path><path d="M 457.733,233.519 C 459.852,246.626 460.481,246.684 460.929,259.899" stroke-width="4.500" stroke="black" fill="none" stroke-linecap="round"></path><path d="M 460.929,259.899 C 461.280,270.267 460.893,270.415 459.331,280.684" stroke-width="4.500" stroke="black" fill="none" stroke-linecap="round"></path><path d="M 459.331,280.684 C 458.096,288.802 458.962,289.657 455.336,296.672" stroke-width="4.500" stroke="black" fill="none" stroke-linecap="round"></path><path d="M 455.336,296.672 C 452.970,301.249 452.019,302.037 447.346,303.867" stroke-width="5.141" stroke="black" fill="none" stroke-linecap="round"></path><path d="M 447.346,303.867 C 442.831,305.634 441.700,305.222 436.959,303.867" stroke-width="5.445" stroke="black" fill="none" stroke-linecap="round"></path><path d="M 436.959,303.867 C 433.311,302.824 433.376,301.881 430.567,299.070" stroke-width="5.902" stroke="black" fill="none" stroke-linecap="round"></path><path d="M 430.567,299.070 C 425.386,293.887 424.990,293.994 420.979,287.879" stroke-width="5.101" stroke="black" fill="none" stroke-linecap="round"></path><path d="M 420.979,287.879 C 416.600,281.204 416.729,280.943 413.788,273.489" stroke-width="4.758" stroke="black" fill="none" stroke-linecap="round"></path><path d="M 413.788,273.489 C 410.736,265.755 410.750,265.628 408.994,257.501" stroke-width="4.604" stroke="black" fill="none" stroke-linecap="round"></path><path d="M 408.994,257.501 C 407.554,250.839 407.900,250.724 407.396,243.911" stroke-width="4.865" stroke="black" fill="none" stroke-linecap="round"></path><path d="M 477.708,245.510 C 478.906,241.513 479.521,241.603 480.105,237.516" stroke-width="8.176" stroke="black" fill="none" stroke-linecap="round"></path><path d="M 480.105,237.516 C 480.720,233.210 482.335,231.512 480.105,228.723" stroke-width="7.430" stroke="black" fill="none" stroke-linecap="round"></path><path d="M 480.105,228.723 C 477.541,225.517 475.383,225.968 470.517,225.525" stroke-width="7.112" stroke="black" fill="none" stroke-linecap="round"></path><path d="M 470.517,225.525 C 466.594,225.168 466.069,225.352 462.527,227.124" stroke-width="6.267" stroke="black" fill="none" stroke-linecap="round"></path><path d="M 462.527,227.124 C 458.079,229.349 458.265,230.055 454.537,233.519" stroke-width="5.798" stroke="black" fill="none" stroke-linecap="round"></path><path d="M 454.537,233.519 C 452.672,235.251 452.074,235.170 451.341,237.516" stroke-width="6.477" stroke="black" fill="none" stroke-linecap="round"></path><path d="M 451.341,237.516 C 450.076,241.565 450.343,241.940 450.542,246.310" stroke-width="6.079" stroke="black" fill="none" stroke-linecap="round"></path><path d="M 450.542,246.310 C 450.743,250.733 450.031,251.516 452.140,255.103" stroke-width="5.863" stroke="black" fill="none" stroke-linecap="round"></path><path d="M 452.140,255.103 C 454.026,258.311 454.891,258.575 458.532,259.899" stroke-width="6.042" stroke="black" fill="none" stroke-linecap="round"></path><path d="M 458.532,259.899 C 463.680,261.772 464.339,262.668 469.718,261.498" stroke-width="5.583" stroke="black" fill="none" stroke-linecap="round"></path><path d="M 469.718,261.498 C 482.716,258.671 483.052,257.790 495.286,251.905" stroke-width="4.500" stroke="black" fill="none" stroke-linecap="round"></path><path d="M 495.286,251.905 C 503.826,247.798 504.185,247.712 511.266,241.513" stroke-width="4.500" stroke="black" fill="none" stroke-linecap="round"></path><path d="M 511.266,241.513 C 516.969,236.520 516.804,235.958 520.854,229.522" stroke-width="4.558" stroke="black" fill="none" stroke-linecap="round"></path><path d="M 520.854,229.522 C 523.595,225.166 523.056,224.797 524.849,219.929" stroke-width="5.232" stroke="black" fill="none" stroke-linecap="round"></path><path d="M 524.849,219.929 C 525.853,217.203 527.363,214.700 526.447,214.333" stroke-width="6.240" stroke="black" fill="none" stroke-linecap="round"></path><path d="M 526.447,214.333 C 525.365,213.901 522.486,215.511 520.854,218.331" stroke-width="7.323" stroke="black" fill="none" stroke-linecap="round"></path><path d="M 520.854,218.331 C 518.091,223.105 518.351,223.800 517.658,229.522" stroke-width="5.916" stroke="black" fill="none" stroke-linecap="round"></path><path d="M 517.658,229.522 C 516.753,236.990 516.702,237.218 517.658,244.711" stroke-width="5.051" stroke="black" fill="none" stroke-linecap="round"></path><path d="M 517.658,244.711 C 519.099,256.004 519.880,255.943 522.452,267.094" stroke-width="4.500" stroke="black" fill="none" stroke-linecap="round"></path><path d="M 522.452,267.094 C 524.674,276.728 525.628,276.569 527.246,286.280" stroke-width="4.500" stroke="black" fill="none" stroke-linecap="round"></path><path d="M 527.246,286.280 C 528.425,293.356 527.646,293.474 528.045,300.669" stroke-width="4.650" stroke="black" fill="none" stroke-linecap="round"></path><path d="M 322.702,178.360 C 323.101,173.564 324.937,172.599 323.501,168.767" stroke-width="8.392" stroke="black" fill="none" stroke-linecap="round"></path><path d="M 323.501,168.767 C 322.540,166.203 320.939,166.284 317.908,165.570" stroke-width="7.074" stroke="black" fill="none" stroke-linecap="round"></path><path d="M 317.908,165.570 C 314.148,164.685 313.699,164.551 309.918,165.570" stroke-width="6.380" stroke="black" fill="none" stroke-linecap="round"></path><path d="M 309.918,165.570 C 303.312,167.349 302.604,167.061 297.134,171.166" stroke-width="5.301" stroke="black" fill="none" stroke-linecap="round"></path><path d="M 297.134,171.166 C 289.820,176.654 289.462,177.083 284.350,184.756" stroke-width="4.500" stroke="black" fill="none" stroke-linecap="round"></path><path d="M 284.350,184.756 C 278.276,193.871 279.282,194.630 274.762,204.741" stroke-width="4.500" stroke="black" fill="none" stroke-linecap="round"></path><path d="M 274.762,204.741 C 272.491,209.819 271.694,209.698 270.767,215.133" stroke-width="4.974" stroke="black" fill="none" stroke-linecap="round"></path><path d="M 270.767,215.133 C 268.897,226.086 268.950,226.354 269.169,237.516" stroke-width="4.500" stroke="black" fill="none" stroke-linecap="round"></path><path d="M 269.169,237.516 C 269.349,246.739 267.984,248.019 271.566,255.902" stroke-width="4.500" stroke="black" fill="none" stroke-linecap="round"></path><path d="M 271.566,255.902 C 273.977,261.210 275.548,261.653 281.154,263.896" stroke-width="4.759" stroke="black" fill="none" stroke-linecap="round"></path><path d="M 281.154,263.896 C 289.530,267.249 290.630,268.802 299.531,267.094" stroke-width="4.500" stroke="black" fill="none" stroke-linecap="round"></path><path d="M 299.531,267.094 C 319.793,263.206 320.932,262.448 339.481,252.705" stroke-width="4.500" stroke="black" fill="none" stroke-linecap="round"></path><path d="M 339.481,252.705 C 352.892,245.660 352.676,244.299 363.451,233.519" stroke-width="4.500" stroke="black" fill="none" stroke-linecap="round"></path><path d="M 363.451,233.519 C 372.651,224.314 373.011,223.975 379.431,212.735" stroke-width="4.500" stroke="black" fill="none" stroke-linecap="round"></path><path d="M 379.431,212.735 C 384.197,204.389 383.941,203.763 385.823,194.348" stroke-width="4.500" stroke="black" fill="none" stroke-linecap="round"></path><path d="M 385.823,194.348 C 387.137,187.775 386.835,187.339 385.823,180.759" stroke-width="4.624" stroke="black" fill="none" stroke-linecap="round"></path><path d="M 385.823,180.759 C 385.237,176.947 385.341,175.444 382.627,173.564" stroke-width="5.660" stroke="black" fill="none" stroke-linecap="round"></path><path d="M 382.627,173.564 C 380.147,171.847 378.704,172.542 375.436,173.564" stroke-width="6.109" stroke="black" fill="none" stroke-linecap="round"></path><path d="M 375.436,173.564 C 372.312,174.541 372.040,174.963 369.843,177.561" stroke-width="6.316" stroke="black" fill="none" stroke-linecap="round"></path><path d="M 369.843,177.561 C 363.251,185.355 362.566,185.253 357.858,194.348" stroke-width="4.553" stroke="black" fill="none" stroke-linecap="round"></path><path d="M 357.858,194.348 C 350.980,207.636 350.611,207.876 346.672,222.328" stroke-width="4.500" stroke="black" fill="none" stroke-linecap="round"></path><path d="M 346.672,222.328 C 342.222,238.653 342.271,239.001 341.079,255.902" stroke-width="4.500" stroke="black" fill="none" stroke-linecap="round"></path><path d="M 341.079,255.902 C 339.874,272.976 341.315,273.096 341.878,290.277" stroke-width="4.500" stroke="black" fill="none" stroke-linecap="round"></path><path d="M 341.878,290.277 C 342.114,297.478 342.277,297.471 342.677,304.666" stroke-width="4.500" stroke="black" fill="none" stroke-linecap="round"></path></svg>