<svg xmlns="http://www.w3.org/2000/svg" xmlns:xlink="http://www.w3.org/1999/xlink" viewBox="0 0 576 416" width="576" height="416"><path d="M 95.785,273.089 C 100.579,273.089 100.612,273.486 105.373,273.089" stroke-width="8.519" stroke="black" fill="none" stroke-linecap="round"></path><path d="M 105.373,273.089 C 110.200,272.687 110.158,272.230 114.961,271.491" stroke-width="6.351" stroke="black" fill="none" stroke-linecap="round"></path><path d="M 114.961,271.491 C 120.545,270.631 120.589,270.885 126.147,269.892" stroke-width="5.752" stroke="black" fill="none" stroke-linecap="round"></path><path d="M 126.147,269.892 C 131.775,268.886 131.706,268.499 137.333,267.494" stroke-width="5.390" stroke="black" fill="none" stroke-linecap="round"></path><path d="M 137.333,267.494 C 142.892,266.500 142.897,266.391 148.519,265.895" stroke-width="5.401" stroke="black" fill="none" stroke-linecap="round"></path><path d="M 148.519,265.895 C 156.480,265.192 156.932,264.187 164.499,265.095" stroke-width="5.885" stroke="black" fill="none" stroke-linecap="round"></path><path d="M 164.499,265.095 C 166.920,265.386 169.854,267.018 168.494,268.293" stroke-width="7.119" stroke="black" fill="none" stroke-linecap="round"></path><path d="M 168.494,268.293 C 163.462,273.013 160.220,272.923 151.715,277.086" stroke-width="6.172" stroke="black" fill="none" stroke-linecap="round"></path><path d="M 151.715,277.086 C 141.443,282.116 141.169,281.563 130.941,286.679" stroke-width="4.500" stroke="black" fill="none" stroke-linecap="round"></path><path d="M 130.941,286.679 C 120.395,291.955 120.310,291.865 110.167,297.871" stroke-width="4.500" stroke="black" fill="none" stroke-linecap="round"></path><path d="M 110.167,297.871 C 100.735,303.456 100.738,303.530 91.790,309.862" stroke-width="4.500" stroke="black" fill="none" stroke-linecap="round"></path><path d="M 91.790,309.862 C 84.359,315.121 84.612,315.474 77.408,321.054" stroke-width="4.500" stroke="black" fill="none" stroke-linecap="round"></path><path d="M 77.408,321.054 C 72.227,325.067 72.004,324.810 67.021,329.048" stroke-width="4.861" stroke="black" fill="none" stroke-linecap="round"></path><path d="M 67.021,329.048 C 64.014,331.605 64.108,331.739 61.428,334.643" stroke-width="5.692" stroke="black" fill="none" stroke-linecap="round"></path><path d="M 61.428,334.643 C 59.314,336.935 56.440,338.281 57.433,339.440" stroke-width="6.887" stroke="black" fill="none" stroke-linecap="round"></path><path d="M 57.433,339.440 C 58.837,341.079 61.824,340.239 66.222,340.239" stroke-width="7.419" stroke="black" fill="none" stroke-linecap="round"></path><path d="M 66.222,340.239 C 71.811,340.239 71.898,340.359 77.408,339.440" stroke-width="6.000" stroke="black" fill="none" stroke-linecap="round"></path><path d="M 77.408,339.440 C 83.883,338.360 83.813,337.889 90.192,336.242" stroke-width="5.213" stroke="black" fill="none" stroke-linecap="round"></path><path d="M 90.192,336.242 C 96.197,334.692 96.358,335.124 102.177,333.045" stroke-width="5.206" stroke="black" fill="none" stroke-linecap="round"></path><path d="M 102.177,333.045 C 107.544,331.127 107.278,330.412 112.564,328.248" stroke-width="5.326" stroke="black" fill="none" stroke-linecap="round"></path><path d="M 112.564,328.248 C 116.067,326.815 116.160,327.049 119.755,325.850" stroke-width="5.925" stroke="black" fill="none" stroke-linecap="round"></path><path d="M 174.886,298.670 C 168.494,303.866 168.369,303.721 162.102,309.063" stroke-width="8.146" stroke="black" fill="none" stroke-linecap="round"></path><path d="M 162.102,309.063 C 157.583,312.914 157.507,312.861 153.313,317.057" stroke-width="5.918" stroke="black" fill="none" stroke-linecap="round"></path><path d="M 153.313,317.057 C 149.916,320.455 149.614,320.313 146.921,324.251" stroke-width="5.797" stroke="black" fill="none" stroke-linecap="round"></path><path d="M 146.921,324.251 C 144.421,327.908 144.620,328.130 142.926,332.245" stroke-width="5.868" stroke="black" fill="none" stroke-linecap="round"></path><path d="M 142.926,332.245 C 141.823,334.925 140.903,335.289 141.328,337.841" stroke-width="6.430" stroke="black" fill="none" stroke-linecap="round"></path><path d="M 141.328,337.841 C 141.702,340.085 142.300,341.445 144.524,341.838" stroke-width="7.380" stroke="black" fill="none" stroke-linecap="round"></path><path d="M 144.524,341.838 C 149.092,342.644 150.089,341.994 154.911,340.239" stroke-width="7.019" stroke="black" fill="none" stroke-linecap="round"></path><path d="M 154.911,340.239 C 158.878,338.796 158.602,337.972 162.102,335.443" stroke-width="6.048" stroke="black" fill="none" stroke-linecap="round"></path><path d="M 162.102,335.443 C 165.793,332.776 165.995,332.964 169.293,329.847" stroke-width="5.825" stroke="black" fill="none" stroke-linecap="round"></path><path d="M 169.293,329.847 C 173.186,326.169 173.237,326.102 176.484,321.853" stroke-width="5.845" stroke="black" fill="none" stroke-linecap="round"></path><path d="M 176.484,321.853 C 178.431,319.307 179.475,316.257 179.680,316.257" stroke-width="6.908" stroke="black" fill="none" stroke-linecap="round"></path><path d="M 179.680,316.257 C 179.874,316.257 177.908,318.937 177.283,321.853" stroke-width="7.674" stroke="black" fill="none" stroke-linecap="round"></path><path d="M 177.283,321.853 C 176.709,324.533 177.109,324.661 177.283,327.449" stroke-width="7.019" stroke="black" fill="none" stroke-linecap="round"></path><path d="M 177.283,327.449 C 177.509,331.056 177.683,331.046 178.082,334.643" stroke-width="6.509" stroke="black" fill="none" stroke-linecap="round"></path><path d="M 178.082,334.643 C 178.482,338.241 178.059,338.342 178.881,341.838" stroke-width="6.370" stroke="black" fill="none" stroke-linecap="round"></path><path d="M 178.881,341.838 C 179.657,345.137 179.979,345.077 181.278,348.233" stroke-width="6.405" stroke="black" fill="none" stroke-linecap="round"></path><path d="M 191.665,244.311 C 192.065,239.914 191.742,239.854 192.464,235.517" stroke-width="7.845" stroke="black" fill="none" stroke-linecap="round"></path><path d="M 192.464,235.517 C 192.941,232.659 193.313,232.733 194.062,229.922" stroke-width="7.011" stroke="black" fill="none" stroke-linecap="round"></path><path d="M 194.062,229.922 C 194.911,226.737 194.756,223.979 195.660,223.526" stroke-width="7.372" stroke="black" fill="none" stroke-linecap="round"></path><path d="M 195.660,223.526 C 196.354,223.179 196.886,225.840 197.258,228.323" stroke-width="7.710" stroke="black" fill="none" stroke-linecap="round"></path><path d="M 197.258,228.323 C 198.085,233.834 197.534,233.930 198.057,239.514" stroke-width="5.952" stroke="black" fill="none" stroke-linecap="round"></path><path d="M 198.057,239.514 C 198.733,246.720 198.898,246.705 199.655,253.904" stroke-width="5.143" stroke="black" fill="none" stroke-linecap="round"></path><path d="M 199.655,253.904 C 200.496,261.893 200.434,261.900 201.253,269.892" stroke-width="4.771" stroke="black" fill="none" stroke-linecap="round"></path><path d="M 201.253,269.892 C 202.032,277.488 201.881,277.508 202.851,285.080" stroke-width="4.750" stroke="black" fill="none" stroke-linecap="round"></path><path d="M 202.851,285.080 C 203.879,293.096 203.786,293.124 205.248,301.068" stroke-width="4.555" stroke="black" fill="none" stroke-linecap="round"></path><path d="M 205.248,301.068 C 206.582,308.312 206.659,308.311 208.444,315.458" stroke-width="4.903" stroke="black" fill="none" stroke-linecap="round"></path><path d="M 208.444,315.458 C 209.855,321.101 210.012,321.063 211.640,326.649" stroke-width="5.202" stroke="black" fill="none" stroke-linecap="round"></path><path d="M 211.640,326.649 C 212.808,330.655 212.531,334.213 214.037,334.643" stroke-width="5.759" stroke="black" fill="none" stroke-linecap="round"></path><path d="M 214.037,334.643 C 215.328,335.012 216.582,331.669 217.233,328.248" stroke-width="7.244" stroke="black" fill="none" stroke-linecap="round"></path><path d="M 217.233,328.248 C 218.180,323.275 216.900,323.034 217.233,317.856" stroke-width="5.997" stroke="black" fill="none" stroke-linecap="round"></path><path d="M 217.233,317.856 C 217.699,310.643 217.716,310.610 218.832,303.467" stroke-width="5.154" stroke="black" fill="none" stroke-linecap="round"></path><path d="M 218.832,303.467 C 219.713,297.820 219.632,297.750 221.228,292.275" stroke-width="5.119" stroke="black" fill="none" stroke-linecap="round"></path><path d="M 221.228,292.275 C 222.429,288.157 221.584,286.920 224.425,284.281" stroke-width="5.689" stroke="black" fill="none" stroke-linecap="round"></path><path d="M 224.425,284.281 C 227.177,281.724 228.889,281.221 232.415,281.883" stroke-width="6.709" stroke="black" fill="none" stroke-linecap="round"></path><path d="M 232.415,281.883 C 235.281,282.420 235.313,283.908 237.208,286.679" stroke-width="6.514" stroke="black" fill="none" stroke-linecap="round"></path><path d="M 237.208,286.679 C 240.507,291.502 240.016,291.869 242.802,297.071" stroke-width="5.623" stroke="black" fill="none" stroke-linecap="round"></path><path d="M 242.802,297.071 C 246.009,303.061 245.998,303.067 249.194,309.063" stroke-width="5.071" stroke="black" fill="none" stroke-linecap="round"></path><path d="M 249.194,309.063 C 252.390,315.058 252.194,315.172 255.586,321.054" stroke-width="5.023" stroke="black" fill="none" stroke-linecap="round"></path><path d="M 255.586,321.054 C 258.187,325.564 258.180,325.597 261.179,329.847" stroke-width="5.400" stroke="black" fill="none" stroke-linecap="round"></path><path d="M 261.179,329.847 C 262.974,332.392 264.518,335.954 265.174,334.643" stroke-width="6.238" stroke="black" fill="none" stroke-linecap="round"></path><path d="M 265.174,334.643 C 266.516,331.957 265.768,328.193 265.174,321.853" stroke-width="6.860" stroke="black" fill="none" stroke-linecap="round"></path><path d="M 265.174,321.853 C 264.569,315.403 264.253,315.392 262.777,309.063" stroke-width="5.524" stroke="black" fill="none" stroke-linecap="round"></path><path d="M 262.777,309.063 C 261.456,303.401 261.545,303.332 259.581,297.871" stroke-width="5.395" stroke="black" fill="none" stroke-linecap="round"></path><path d="M 259.581,297.871 C 257.950,293.339 258.616,292.644 255.586,289.077" stroke-width="5.711" stroke="black" fill="none" stroke-linecap="round"></path><path d="M 255.586,289.077 C 251.824,284.650 251.491,283.944 245.998,281.883" stroke-width="5.303" stroke="black" fill="none" stroke-linecap="round"></path><path d="M 245.998,281.883 C 235.511,277.948 234.949,278.439 223.625,277.086" stroke-width="4.500" stroke="black" fill="none" stroke-linecap="round"></path><path d="M 223.625,277.086 C 208.183,275.241 208.047,275.488 192.464,275.488" stroke-width="4.500" stroke="black" fill="none" stroke-linecap="round"></path><path d="M 192.464,275.488 C 175.288,275.488 175.266,275.986 158.107,277.086" stroke-width="4.500" stroke="black" fill="none" stroke-linecap="round"></path><path d="M 158.107,277.086 C 144.105,277.984 144.140,278.519 130.142,279.485" stroke-width="4.500" stroke="black" fill="none" stroke-linecap="round"></path><path d="M 130.142,279.485 C 120.969,280.118 120.943,280.284 111.765,280.284" stroke-width="4.500" stroke="black" fill="none" stroke-linecap="round"></path><path d="M 111.765,280.284 C 107.759,280.284 101.398,281.112 103.775,279.485" stroke-width="5.228" stroke="black" fill="none" stroke-linecap="round"></path><path d="M 103.775,279.485 C 116.579,270.720 122.202,267.795 142.127,259.499" stroke-width="4.500" stroke="black" fill="none" stroke-linecap="round"></path><path d="M 142.127,259.499 C 181.727,243.013 181.806,242.518 222.826,229.922" stroke-width="4.500" stroke="black" fill="none" stroke-linecap="round"></path><path d="M 222.826,229.922 C 262.505,217.737 262.815,218.124 303.526,209.936" stroke-width="4.500" stroke="black" fill="none" stroke-linecap="round"></path><path d="M 303.526,209.936 C 342.316,202.136 342.459,200.863 381.828,197.945" stroke-width="4.500" stroke="black" fill="none" stroke-linecap="round"></path><path d="M 381.828,197.945 C 417.965,195.267 418.341,196.450 454.537,198.745" stroke-width="4.500" stroke="black" fill="none" stroke-linecap="round"></path><path d="M 454.537,198.745 C 475.070,200.047 475.405,200.478 495.286,205.140" stroke-width="4.500" stroke="black" fill="none" stroke-linecap="round"></path><path d="M 495.286,205.140 C 500.973,206.474 504.793,207.434 505.673,210.736" stroke-width="4.500" stroke="black" fill="none" stroke-linecap="round"></path><path d="M 505.673,210.736 C 506.391,213.429 502.708,215.293 498.482,217.131" stroke-width="4.960" stroke="black" fill="none" stroke-linecap="round"></path><path d="M 498.482,217.131 C 493.520,219.290 492.904,218.044 487.296,218.730" stroke-width="5.176" stroke="black" fill="none" stroke-linecap="round"></path><path d="M 487.296,218.730 C 456.949,222.441 456.793,221.364 426.572,225.924" stroke-width="4.500" stroke="black" fill="none" stroke-linecap="round"></path><path d="M 426.572,225.924 C 385.282,232.156 385.160,231.850 344.275,240.314" stroke-width="4.500" stroke="black" fill="none" stroke-linecap="round"></path><path d="M 344.275,240.314 C 304.062,248.638 304.052,248.887 264.375,259.499" stroke-width="4.500" stroke="black" fill="none" stroke-linecap="round"></path><path d="M 264.375,259.499 C 223.353,270.471 223.119,269.990 182.876,283.482" stroke-width="4.500" stroke="black" fill="none" stroke-linecap="round"></path><path d="M 182.876,283.482 C 146.814,295.571 147.034,296.368 111.765,310.661" stroke-width="4.500" stroke="black" fill="none" stroke-linecap="round"></path><path d="M 111.765,310.661 C 83.913,321.949 83.627,321.519 56.634,334.643" stroke-width="4.500" stroke="black" fill="none" stroke-linecap="round"></path><path d="M 56.634,334.643 C 40.881,342.303 40.856,342.729 26.272,352.230" stroke-width="4.500" stroke="black" fill="none" stroke-linecap="round"></path><path d="M 26.272,352.230 C 23.678,353.921 19.753,357.500 22.277,357.027" stroke-width="4.500" stroke="black" fill="none" stroke-linecap="round"></path><path d="M 22.277,357.027 C 45.321,352.704 49.772,349.550 77.408,342.637" stroke-width="4.500" stroke="black" fill="none" stroke-linecap="round"></path><path d="M 77.408,342.637 C 118.486,332.363 118.219,330.910 159.705,322.652" stroke-width="4.500" stroke="black" fill="none" stroke-linecap="round"></path><path d="M 159.705,322.652 C 194.523,315.722 194.715,314.247 230.017,312.260" stroke-width="4.500" stroke="black" fill="none" stroke-linecap="round"></path><path d="M 230.017,312.260 C 258.635,310.650 259.295,311.231 287.546,315.458" stroke-width="4.500" stroke="black" fill="none" stroke-linecap="round"></path><path d="M 287.546,315.458 C 302.042,317.626 301.528,320.254 315.511,325.051" stroke-width="4.500" stroke="black" fill="none" stroke-linecap="round"></path><path d="M 44.649,12.484 C 42.652,18.080 42.170,17.946 40.654,23.675" stroke-width="8.321" stroke="black" fill="none" stroke-linecap="round"></path><path d="M 40.654,23.675 C 38.574,31.536 39.149,31.689 37.458,39.664" stroke-width="5.642" stroke="black" fill="none" stroke-linecap="round"></path><path d="M 37.458,39.664 C 36.352,44.880 36.305,44.871 35.061,50.056" stroke-width="5.471" stroke="black" fill="none" stroke-linecap="round"></path><path d="M 35.061,50.056 C 33.908,54.863 33.713,54.820 32.664,59.649" stroke-width="5.623" stroke="black" fill="none" stroke-linecap="round"></path><path d="M 32.664,59.649 C 31.716,64.013 31.697,64.022 31.066,68.442" stroke-width="5.813" stroke="black" fill="none" stroke-linecap="round"></path><path d="M 31.066,68.442 C 30.499,72.415 30.736,72.447 30.267,76.436" stroke-width="6.094" stroke="black" fill="none" stroke-linecap="round"></path><path d="M 30.267,76.436 C 29.937,79.242 29.868,79.234 29.468,82.032" stroke-width="6.542" stroke="black" fill="none" stroke-linecap="round"></path><path d="M 74.212,35.667 C 75.011,31.270 74.353,31.004 75.810,26.873" stroke-width="8.577" stroke="black" fill="none" stroke-linecap="round"></path><path d="M 75.810,26.873 C 76.750,24.209 77.088,24.187 79.006,22.077" stroke-width="7.188" stroke="black" fill="none" stroke-linecap="round"></path><path d="M 79.006,22.077 C 81.083,19.791 81.171,19.699 83.800,18.080" stroke-width="6.753" stroke="black" fill="none" stroke-linecap="round"></path><path d="M 83.800,18.080 C 86.364,16.501 86.556,16.773 89.393,15.681" stroke-width="6.665" stroke="black" fill="none" stroke-linecap="round"></path><path d="M 89.393,15.681 C 91.749,14.775 91.790,13.923 94.187,14.083" stroke-width="6.914" stroke="black" fill="none" stroke-linecap="round"></path><path d="M 94.187,14.083 C 97.783,14.322 98.892,14.220 101.378,16.481" stroke-width="7.164" stroke="black" fill="none" stroke-linecap="round"></path><path d="M 101.378,16.481 C 103.287,18.217 102.798,19.227 102.976,22.077" stroke-width="7.498" stroke="black" fill="none" stroke-linecap="round"></path><path d="M 102.976,22.077 C 103.198,25.622 103.011,25.769 102.177,29.271" stroke-width="6.537" stroke="black" fill="none" stroke-linecap="round"></path><path d="M 102.177,29.271 C 101.013,34.163 100.708,34.114 98.981,38.864" stroke-width="5.975" stroke="black" fill="none" stroke-linecap="round"></path><path d="M 98.981,38.864 C 95.914,47.304 96.293,47.500 92.589,55.652" stroke-width="4.962" stroke="black" fill="none" stroke-linecap="round"></path><path d="M 92.589,55.652 C 90.300,60.690 89.916,60.525 86.996,65.244" stroke-width="5.203" stroke="black" fill="none" stroke-linecap="round"></path><path d="M 86.996,65.244 C 84.723,68.919 84.599,68.842 82.202,72.439" stroke-width="5.714" stroke="black" fill="none" stroke-linecap="round"></path><path d="M 82.202,72.439 C 80.604,74.837 80.646,74.866 79.006,77.236" stroke-width="6.444" stroke="black" fill="none" stroke-linecap="round"></path><path d="M 79.006,77.236 C 77.050,80.062 74.410,82.029 75.011,82.831" stroke-width="7.140" stroke="black" fill="none" stroke-linecap="round"></path><path d="M 75.011,82.831 C 75.608,83.628 78.087,81.097 81.403,80.433" stroke-width="7.934" stroke="black" fill="none" stroke-linecap="round"></path><path d="M 81.403,80.433 C 86.077,79.498 86.197,79.634 90.991,79.634" stroke-width="7.267" stroke="black" fill="none" stroke-linecap="round"></path><path d="M 90.991,79.634 C 95.785,79.634 95.810,79.837 100.579,80.433" stroke-width="7.089" stroke="black" fill="none" stroke-linecap="round"></path><path d="M 100.579,80.433 C 105.398,81.036 105.349,81.524 110.167,82.032" stroke-width="7.026" stroke="black" fill="none" stroke-linecap="round"></path><path d="M 110.167,82.032 C 112.940,82.324 113.257,82.867 115.760,82.032" stroke-width="7.503" stroke="black" fill="none" stroke-linecap="round"></path><path d="M 115.760,82.032 C 118.051,81.268 118.051,80.710 119.755,78.834" stroke-width="7.964" stroke="black" fill="none" stroke-linecap="round"></path><path d="M 119.755,78.834 C 122.046,76.314 121.794,76.065 123.750,73.238" stroke-width="7.623" stroke="black" fill="none" stroke-linecap="round"></path><path d="M 172.489,41.262 C 175.286,37.265 178.525,36.366 178.082,33.268" stroke-width="8.478" stroke="black" fill="none" stroke-linecap="round"></path><path d="M 178.082,33.268 C 177.726,30.770 174.541,30.558 170.891,30.071" stroke-width="8.308" stroke="black" fill="none" stroke-linecap="round"></path><path d="M 170.891,30.071 C 168.548,29.758 168.424,30.700 166.097,31.669" stroke-width="7.299" stroke="black" fill="none" stroke-linecap="round"></path><path d="M 166.097,31.669 C 163.630,32.698 163.467,32.521 161.303,34.068" stroke-width="6.973" stroke="black" fill="none" stroke-linecap="round"></path><path d="M 161.303,34.068 C 157.874,36.518 156.838,36.290 154.911,39.664" stroke-width="7.131" stroke="black" fill="none" stroke-linecap="round"></path><path d="M 154.911,39.664 C 153.642,41.886 153.337,43.527 154.911,45.259" stroke-width="7.779" stroke="black" fill="none" stroke-linecap="round"></path><path d="M 154.911,45.259 C 157.332,47.924 158.789,47.314 162.901,48.457" stroke-width="7.739" stroke="black" fill="none" stroke-linecap="round"></path><path d="M 162.901,48.457 C 165.980,49.313 168.423,47.341 169.293,49.256" stroke-width="7.948" stroke="black" fill="none" stroke-linecap="round"></path><path d="M 169.293,49.256 C 170.421,51.738 167.957,53.217 166.896,57.250" stroke-width="7.986" stroke="black" fill="none" stroke-linecap="round"></path><path d="M 166.896,57.250 C 165.960,60.812 165.500,60.815 165.298,64.445" stroke-width="7.564" stroke="black" fill="none" stroke-linecap="round"></path><path d="M 165.298,64.445 C 165.100,68.010 164.181,68.923 166.097,71.640" stroke-width="7.435" stroke="black" fill="none" stroke-linecap="round"></path><path d="M 166.097,71.640 C 168.975,75.718 170.155,75.668 174.886,78.035" stroke-width="6.993" stroke="black" fill="none" stroke-linecap="round"></path><path d="M 174.886,78.035 C 177.346,79.265 177.667,78.658 180.479,78.834" stroke-width="6.825" stroke="black" fill="none" stroke-linecap="round"></path><path d="M 180.479,78.834 C 184.059,79.058 184.086,79.034 187.670,78.834" stroke-width="6.382" stroke="black" fill="none" stroke-linecap="round"></path><path d="M 187.670,78.834 C 191.277,78.634 191.390,78.903 194.861,78.035" stroke-width="6.334" stroke="black" fill="none" stroke-linecap="round"></path><path d="M 194.861,78.035 C 197.782,77.304 197.693,76.912 200.454,75.637" stroke-width="6.537" stroke="black" fill="none" stroke-linecap="round"></path><path d="M 200.454,75.637 C 202.887,74.514 203.132,74.827 205.248,73.238" stroke-width="6.748" stroke="black" fill="none" stroke-linecap="round"></path><path d="M 205.248,73.238 C 207.926,71.229 210.261,69.756 210.042,68.442" stroke-width="7.260" stroke="black" fill="none" stroke-linecap="round"></path><path d="M 210.042,68.442 C 209.862,67.358 206.567,67.030 204.449,68.442" stroke-width="8.050" stroke="black" fill="none" stroke-linecap="round"></path><path d="M 204.449,68.442 C 200.574,71.027 200.813,72.175 198.057,76.436" stroke-width="7.222" stroke="black" fill="none" stroke-linecap="round"></path><path d="M 198.057,76.436 C 196.419,78.970 196.126,79.084 195.660,82.032" stroke-width="6.795" stroke="black" fill="none" stroke-linecap="round"></path><path d="M 195.660,82.032 C 194.927,86.678 194.705,87.082 195.660,91.625" stroke-width="6.951" stroke="black" fill="none" stroke-linecap="round"></path><path d="M 249.993,29.271 C 249.194,34.068 249.115,34.056 248.395,38.864" stroke-width="8.532" stroke="black" fill="none" stroke-linecap="round"></path><path d="M 248.395,38.864 C 247.917,42.050 247.774,42.048 247.596,45.259" stroke-width="7.021" stroke="black" fill="none" stroke-linecap="round"></path><path d="M 247.596,45.259 C 247.374,49.243 247.596,49.256 247.596,53.253" stroke-width="6.366" stroke="black" fill="none" stroke-linecap="round"></path><path d="M 247.596,53.253 C 247.596,57.250 247.374,57.264 247.596,61.247" stroke-width="6.193" stroke="black" fill="none" stroke-linecap="round"></path><path d="M 247.596,61.247 C 247.774,64.459 247.969,64.449 248.395,67.643" stroke-width="6.422" stroke="black" fill="none" stroke-linecap="round"></path><path d="M 248.395,67.643 C 248.768,70.444 249.321,74.257 249.194,73.238" stroke-width="6.651" stroke="black" fill="none" stroke-linecap="round"></path><path d="M 220.429,34.068 C 224.424,31.669 224.118,30.836 228.419,29.271" stroke-width="8.547" stroke="black" fill="none" stroke-linecap="round"></path><path d="M 228.419,29.271 C 232.907,27.639 233.184,28.111 238.008,27.672" stroke-width="7.401" stroke="black" fill="none" stroke-linecap="round"></path><path d="M 238.008,27.672 C 241.973,27.312 242.402,26.473 245.998,27.672" stroke-width="7.349" stroke="black" fill="none" stroke-linecap="round"></path><path d="M 245.998,27.672 C 249.593,28.872 250.078,29.462 252.390,32.469" stroke-width="7.276" stroke="black" fill="none" stroke-linecap="round"></path><path d="M 252.390,32.469 C 254.073,34.658 253.580,35.212 253.988,38.065" stroke-width="7.510" stroke="black" fill="none" stroke-linecap="round"></path><path d="M 253.988,38.065 C 254.379,40.808 254.354,40.908 253.988,43.661" stroke-width="6.977" stroke="black" fill="none" stroke-linecap="round"></path><path d="M 253.988,43.661 C 253.555,46.903 253.318,46.896 252.390,50.056" stroke-width="6.625" stroke="black" fill="none" stroke-linecap="round"></path><path d="M 252.390,50.056 C 251.321,53.691 251.081,53.620 249.993,57.250" stroke-width="6.339" stroke="black" fill="none" stroke-linecap="round"></path><path d="M 249.993,57.250 C 248.684,61.614 249.105,61.766 247.596,66.044" stroke-width="6.157" stroke="black" fill="none" stroke-linecap="round"></path><path d="M 247.596,66.044 C 246.708,68.561 246.253,68.379 245.199,70.840" stroke-width="6.621" stroke="black" fill="none" stroke-linecap="round"></path><path d="M 245.199,70.840 C 243.856,73.975 241.714,76.692 242.802,77.236" stroke-width="7.209" stroke="black" fill="none" stroke-linecap="round"></path><path d="M 242.802,77.236 C 244.111,77.891 246.468,75.354 249.993,73.238" stroke-width="7.879" stroke="black" fill="none" stroke-linecap="round"></path><path d="M 249.993,73.238 C 252.461,71.757 252.202,71.234 254.787,70.041" stroke-width="7.031" stroke="black" fill="none" stroke-linecap="round"></path><path d="M 254.787,70.041 C 257.396,68.836 257.583,69.241 260.380,68.442" stroke-width="6.800" stroke="black" fill="none" stroke-linecap="round"></path><path d="M 260.380,68.442 C 263.176,67.643 263.121,67.251 265.973,66.843" stroke-width="6.801" stroke="black" fill="none" stroke-linecap="round"></path><path d="M 265.973,66.843 C 268.714,66.451 268.793,66.551 271.566,66.843" stroke-width="6.781" stroke="black" fill="none" stroke-linecap="round"></path><path d="M 271.566,66.843 C 276.384,67.351 276.335,67.839 281.154,68.442" stroke-width="6.900" stroke="black" fill="none" stroke-linecap="round"></path><path d="M 281.154,68.442 C 285.923,69.039 286.052,69.805 290.742,69.241" stroke-width="6.980" stroke="black" fill="none" stroke-linecap="round"></path><path d="M 290.742,69.241 C 296.039,68.605 296.168,68.133 301.129,66.044" stroke-width="6.867" stroke="black" fill="none" stroke-linecap="round"></path><path d="M 301.129,66.044 C 303.759,64.936 303.819,64.776 305.923,62.846" stroke-width="6.765" stroke="black" fill="none" stroke-linecap="round"></path><path d="M 305.923,62.846 C 308.613,60.379 308.585,60.236 310.717,57.250" stroke-width="6.417" stroke="black" fill="none" stroke-linecap="round"></path><path d="M 310.717,57.250 C 312.580,54.640 312.555,54.565 313.913,51.655" stroke-width="6.493" stroke="black" fill="none" stroke-linecap="round"></path><path d="M 313.913,51.655 C 315.351,48.570 315.231,48.497 316.310,45.259" stroke-width="6.442" stroke="black" fill="none" stroke-linecap="round"></path><path d="M 316.310,45.259 C 317.229,42.501 317.203,42.485 317.908,39.664" stroke-width="6.689" stroke="black" fill="none" stroke-linecap="round"></path><path d="M 317.908,39.664 C 318.801,36.090 319.815,31.694 319.506,32.469" stroke-width="7.143" stroke="black" fill="none" stroke-linecap="round"></path><path d="M 319.506,32.469 C 319.016,33.693 317.938,38.074 316.310,43.661" stroke-width="7.798" stroke="black" fill="none" stroke-linecap="round"></path><path d="M 316.310,43.661 C 315.142,47.667 315.352,47.747 313.913,51.655" stroke-width="6.269" stroke="black" fill="none" stroke-linecap="round"></path><path d="M 313.913,51.655 C 312.555,55.341 312.392,55.288 310.717,58.849" stroke-width="6.186" stroke="black" fill="none" stroke-linecap="round"></path><path d="M 310.717,58.849 C 309.196,62.083 309.119,62.047 307.521,65.244" stroke-width="6.290" stroke="black" fill="none" stroke-linecap="round"></path><path d="M 307.521,65.244 C 306.322,67.643 306.524,67.764 305.124,70.041" stroke-width="6.599" stroke="black" fill="none" stroke-linecap="round"></path><path d="M 305.124,70.041 C 303.328,72.960 300.517,74.616 301.129,75.637" stroke-width="7.145" stroke="black" fill="none" stroke-linecap="round"></path><path d="M 301.129,75.637 C 301.715,76.615 304.294,74.683 307.521,74.038" stroke-width="7.971" stroke="black" fill="none" stroke-linecap="round"></path><path d="M 307.521,74.038 C 310.287,73.484 310.339,73.759 313.114,73.238" stroke-width="7.079" stroke="black" fill="none" stroke-linecap="round"></path><path d="M 313.114,73.238 C 316.731,72.560 316.673,72.213 320.305,71.640" stroke-width="6.499" stroke="black" fill="none" stroke-linecap="round"></path><path d="M 320.305,71.640 C 324.263,71.014 324.336,71.466 328.295,70.840" stroke-width="6.224" stroke="black" fill="none" stroke-linecap="round"></path><path d="M 328.295,70.840 C 331.926,70.267 331.901,70.085 335.486,69.241" stroke-width="6.181" stroke="black" fill="none" stroke-linecap="round"></path><path d="M 335.486,69.241 C 338.692,68.487 338.762,68.682 341.878,67.643" stroke-width="6.315" stroke="black" fill="none" stroke-linecap="round"></path><path d="M 341.878,67.643 C 344.755,66.683 344.994,66.948 347.471,65.244" stroke-width="6.457" stroke="black" fill="none" stroke-linecap="round"></path><path d="M 347.471,65.244 C 351.386,62.551 352.094,62.702 354.662,58.849" stroke-width="6.774" stroke="black" fill="none" stroke-linecap="round"></path><path d="M 354.662,58.849 C 356.888,55.508 356.582,54.906 357.059,50.855" stroke-width="7.084" stroke="black" fill="none" stroke-linecap="round"></path><path d="M 357.059,50.855 C 357.381,48.111 357.537,45.100 356.260,45.259" stroke-width="7.537" stroke="black" fill="none" stroke-linecap="round"></path><path d="M 356.260,45.259 C 354.341,45.499 352.274,47.903 350.667,51.655" stroke-width="8.056" stroke="black" fill="none" stroke-linecap="round"></path><path d="M 350.667,51.655 C 348.678,56.297 349.648,56.826 349.069,62.047" stroke-width="6.130" stroke="black" fill="none" stroke-linecap="round"></path><path d="M 349.069,62.047 C 348.450,67.618 348.655,67.642 348.270,73.238" stroke-width="5.616" stroke="black" fill="none" stroke-linecap="round"></path><path d="M 348.270,73.238 C 347.856,79.233 347.711,79.229 347.471,85.230" stroke-width="5.371" stroke="black" fill="none" stroke-linecap="round"></path><path d="M 347.471,85.230 C 347.311,89.221 347.471,89.227 347.471,93.224" stroke-width="5.875" stroke="black" fill="none" stroke-linecap="round"></path></svg>