<svg xmlns="http://www.w3.org/2000/svg" xmlns:xlink="http://www.w3.org/1999/xlink" viewBox="0 0 576 416" width="576" height="416"><path d="M 351.466,266.694 C 355.461,264.296 359.849,263.274 359.456,261.898" stroke-width="8.725" stroke="black" fill="none" stroke-linecap="round"></path><path d="M 359.456,261.898 C 359.050,260.476 354.653,261.577 349.868,261.098" stroke-width="8.368" stroke="black" fill="none" stroke-linecap="round"></path><path d="M 349.868,261.098 C 346.663,260.778 346.625,260.929 343.476,260.299" stroke-width="6.988" stroke="black" fill="none" stroke-linecap="round"></path><path d="M 343.476,260.299 C 340.632,259.730 340.530,259.859 337.883,258.700" stroke-width="6.788" stroke="black" fill="none" stroke-linecap="round"></path><path d="M 337.883,258.700 C 334.138,257.061 333.977,257.113 330.692,254.703" stroke-width="7.103" stroke="black" fill="none" stroke-linecap="round"></path><path d="M 330.692,254.703 C 327.984,252.716 328.955,250.274 325.898,249.907" stroke-width="7.646" stroke="black" fill="none" stroke-linecap="round"></path><path d="M 325.898,249.907 C 318.968,249.075 318.188,250.596 310.717,252.305" stroke-width="7.165" stroke="black" fill="none" stroke-linecap="round"></path><path d="M 310.717,252.305 C 304.205,253.794 304.377,254.489 297.933,256.302" stroke-width="5.527" stroke="black" fill="none" stroke-linecap="round"></path><path d="M 297.933,256.302 C 291.593,258.086 291.553,257.953 285.149,259.499" stroke-width="5.099" stroke="black" fill="none" stroke-linecap="round"></path><path d="M 285.149,259.499 C 279.968,260.751 280.002,260.986 274.762,261.898" stroke-width="5.394" stroke="black" fill="none" stroke-linecap="round"></path><path d="M 274.762,261.898 C 270.814,262.585 270.493,263.395 266.772,262.697" stroke-width="5.949" stroke="black" fill="none" stroke-linecap="round"></path><path d="M 266.772,262.697 C 264.101,262.196 262.495,261.743 261.978,259.499" stroke-width="7.073" stroke="black" fill="none" stroke-linecap="round"></path><path d="M 261.978,259.499 C 261.297,256.547 265.399,255.527 264.375,252.305" stroke-width="7.590" stroke="black" fill="none" stroke-linecap="round"></path><path d="M 264.375,252.305 C 262.603,246.734 261.595,245.655 256.385,241.913" stroke-width="6.789" stroke="black" fill="none" stroke-linecap="round"></path><path d="M 256.385,241.913 C 246.014,234.464 245.301,234.691 233.214,229.922" stroke-width="4.500" stroke="black" fill="none" stroke-linecap="round"></path><path d="M 233.214,229.922 C 216.937,223.499 216.567,224.251 199.655,219.529" stroke-width="4.500" stroke="black" fill="none" stroke-linecap="round"></path><path d="M 199.655,219.529 C 182.210,214.658 182.114,214.982 164.499,210.736" stroke-width="4.500" stroke="black" fill="none" stroke-linecap="round"></path><path d="M 164.499,210.736 C 148.955,206.988 148.816,207.530 133.338,203.541" stroke-width="4.500" stroke="black" fill="none" stroke-linecap="round"></path><path d="M 133.338,203.541 C 122.449,200.735 122.198,201.161 111.765,197.146" stroke-width="4.500" stroke="black" fill="none" stroke-linecap="round"></path><path d="M 111.765,197.146 C 106.618,195.165 104.121,195.197 102.177,191.550" stroke-width="4.711" stroke="black" fill="none" stroke-linecap="round"></path><path d="M 102.177,191.550 C 100.925,189.202 102.630,187.183 105.373,185.155" stroke-width="5.742" stroke="black" fill="none" stroke-linecap="round"></path><path d="M 105.373,185.155 C 111.819,180.389 112.705,180.920 120.554,177.960" stroke-width="4.935" stroke="black" fill="none" stroke-linecap="round"></path><path d="M 120.554,177.960 C 140.271,170.527 140.224,170.083 160.504,164.370" stroke-width="4.500" stroke="black" fill="none" stroke-linecap="round"></path><path d="M 160.504,164.370 C 181.372,158.492 181.545,158.885 202.851,154.778" stroke-width="4.500" stroke="black" fill="none" stroke-linecap="round"></path><path d="M 202.851,154.778 C 225.090,150.491 225.133,150.470 247.596,147.583" stroke-width="4.500" stroke="black" fill="none" stroke-linecap="round"></path><path d="M 247.596,147.583 C 268.678,144.874 268.725,144.647 289.943,143.586" stroke-width="4.500" stroke="black" fill="none" stroke-linecap="round"></path><path d="M 289.943,143.586 C 308.675,142.649 308.771,142.672 327.496,143.586" stroke-width="4.500" stroke="black" fill="none" stroke-linecap="round"></path><path d="M 327.496,143.586 C 341.530,144.271 341.612,144.474 355.461,146.784" stroke-width="4.500" stroke="black" fill="none" stroke-linecap="round"></path><path d="M 355.461,146.784 C 363.185,148.072 363.592,147.842 370.642,150.781" stroke-width="4.500" stroke="black" fill="none" stroke-linecap="round"></path><path d="M 370.642,150.781 C 373.180,151.839 376.707,153.882 374.637,154.778" stroke-width="5.627" stroke="black" fill="none" stroke-linecap="round"></path><path d="M 374.637,154.778 C 361.926,160.277 357.980,159.690 341.079,163.571" stroke-width="4.752" stroke="black" fill="none" stroke-linecap="round"></path><path d="M 341.079,163.571 C 309.241,170.882 308.838,169.237 277.159,177.161" stroke-width="4.500" stroke="black" fill="none" stroke-linecap="round"></path><path d="M 277.159,177.161 C 243.320,185.625 242.721,184.365 210.042,196.347" stroke-width="4.500" stroke="black" fill="none" stroke-linecap="round"></path><path d="M 210.042,196.347 C 178.402,207.947 177.092,206.832 148.519,224.326" stroke-width="4.500" stroke="black" fill="none" stroke-linecap="round"></path><path d="M 148.519,224.326 C 123.559,239.608 120.586,239.411 102.976,261.898" stroke-width="4.500" stroke="black" fill="none" stroke-linecap="round"></path><path d="M 102.976,261.898 C 90.224,278.182 89.004,282.040 87.795,301.868" stroke-width="4.500" stroke="black" fill="none" stroke-linecap="round"></path><path d="M 87.795,301.868 C 87.006,314.816 89.417,317.684 98.981,327.449" stroke-width="4.500" stroke="black" fill="none" stroke-linecap="round"></path><path d="M 98.981,327.449 C 128.568,357.655 132.539,354.629 166.097,381.808" stroke-width="4.500" stroke="black" fill="none" stroke-linecap="round"></path></svg>