<svg xmlns="http://www.w3.org/2000/svg" xmlns:xlink="http://www.w3.org/1999/xlink" viewBox="0 0 576 416" width="576" height="416"><path d="M 183.675,100.019 C 176.484,108.812 176.184,108.590 169.293,117.606" stroke-width="7.209" stroke="black" fill="none" stroke-linecap="round"></path><path d="M 169.293,117.606 C 165.797,122.180 165.810,122.227 162.901,127.198" stroke-width="5.809" stroke="black" fill="none" stroke-linecap="round"></path><path d="M 162.901,127.198 C 156.222,138.615 156.354,138.707 150.117,150.381" stroke-width="4.500" stroke="black" fill="none" stroke-linecap="round"></path><path d="M 150.117,150.381 C 143.969,161.890 143.304,161.611 138.132,173.564" stroke-width="4.500" stroke="black" fill="none" stroke-linecap="round"></path><path d="M 138.132,173.564 C 131.718,188.391 131.028,188.483 126.946,203.941" stroke-width="4.500" stroke="black" fill="none" stroke-linecap="round"></path><path d="M 126.946,203.941 C 125.435,209.667 123.620,212.779 126.946,215.932" stroke-width="4.500" stroke="black" fill="none" stroke-linecap="round"></path><path d="M 126.946,215.932 C 131.210,219.974 134.515,218.480 142.127,218.331" stroke-width="5.415" stroke="black" fill="none" stroke-linecap="round"></path><path d="M 142.127,218.331 C 154.890,218.080 154.985,217.184 167.695,215.133" stroke-width="4.500" stroke="black" fill="none" stroke-linecap="round"></path><path d="M 167.695,215.133 C 179.754,213.187 179.581,211.732 191.665,210.336" stroke-width="4.500" stroke="black" fill="none" stroke-linecap="round"></path><path d="M 191.665,210.336 C 200.355,209.333 200.540,209.590 209.243,210.336" stroke-width="4.500" stroke="black" fill="none" stroke-linecap="round"></path><path d="M 209.243,210.336 C 214.522,210.789 215.724,209.976 219.630,212.735" stroke-width="5.033" stroke="black" fill="none" stroke-linecap="round"></path><path d="M 219.630,212.735 C 222.515,214.772 222.129,216.207 222.826,219.929" stroke-width="5.767" stroke="black" fill="none" stroke-linecap="round"></path><path d="M 222.826,219.929 C 223.327,222.602 222.835,222.833 222.027,225.525" stroke-width="6.424" stroke="black" fill="none" stroke-linecap="round"></path><path d="M 222.027,225.525 C 220.438,230.827 220.172,230.781 218.032,235.917" stroke-width="5.794" stroke="black" fill="none" stroke-linecap="round"></path><path d="M 218.032,235.917 C 216.177,240.373 215.624,240.177 214.037,244.711" stroke-width="5.756" stroke="black" fill="none" stroke-linecap="round"></path><path d="M 214.037,244.711 C 212.827,248.171 211.968,248.603 212.439,251.905" stroke-width="6.112" stroke="black" fill="none" stroke-linecap="round"></path><path d="M 212.439,251.905 C 212.767,254.199 213.504,255.014 215.635,255.902" stroke-width="6.654" stroke="black" fill="none" stroke-linecap="round"></path><path d="M 215.635,255.902 C 218.298,257.012 218.894,256.465 222.027,255.902" stroke-width="6.496" stroke="black" fill="none" stroke-linecap="round"></path><path d="M 222.027,255.902 C 234.475,253.667 234.425,253.163 246.797,250.307" stroke-width="4.500" stroke="black" fill="none" stroke-linecap="round"></path><path d="M 246.797,250.307 C 260.393,247.167 260.283,246.604 273.963,243.911" stroke-width="4.500" stroke="black" fill="none" stroke-linecap="round"></path><path d="M 273.963,243.911 C 284.652,241.807 284.709,241.771 295.536,240.714" stroke-width="4.500" stroke="black" fill="none" stroke-linecap="round"></path><path d="M 295.536,240.714 C 301.089,240.172 306.005,238.204 306.722,240.714" stroke-width="4.787" stroke="black" fill="none" stroke-linecap="round"></path><path d="M 306.722,240.714 C 307.603,243.800 303.836,247.422 298.732,251.905" stroke-width="5.817" stroke="black" fill="none" stroke-linecap="round"></path><path d="M 298.732,251.905 C 287.456,261.811 286.448,260.844 273.963,269.492" stroke-width="4.500" stroke="black" fill="none" stroke-linecap="round"></path><path d="M 273.963,269.492 C 260.480,278.831 260.678,279.169 246.797,287.879" stroke-width="4.500" stroke="black" fill="none" stroke-linecap="round"></path><path d="M 246.797,287.879 C 237.107,293.958 237.033,293.962 226.822,299.070" stroke-width="4.500" stroke="black" fill="none" stroke-linecap="round"></path><path d="M 226.822,299.070 C 222.651,301.157 219.470,302.747 218.032,302.268" stroke-width="4.895" stroke="black" fill="none" stroke-linecap="round"></path><path d="M 218.032,302.268 C 217.073,301.948 219.650,299.470 222.027,297.471" stroke-width="5.966" stroke="black" fill="none" stroke-linecap="round"></path><path d="M 222.027,297.471 C 229.637,291.076 229.964,291.404 238.008,285.480" stroke-width="4.556" stroke="black" fill="none" stroke-linecap="round"></path><path d="M 238.008,285.480 C 258.728,270.220 258.428,269.783 279.556,255.103" stroke-width="4.500" stroke="black" fill="none" stroke-linecap="round"></path><path d="M 279.556,255.103 C 301.574,239.805 301.721,239.991 324.300,225.525" stroke-width="4.500" stroke="black" fill="none" stroke-linecap="round"></path><path d="M 324.300,225.525 C 347.264,210.813 348.445,212.477 370.642,196.747" stroke-width="4.500" stroke="black" fill="none" stroke-linecap="round"></path><path d="M 370.642,196.747 C 386.797,185.298 387.882,185.607 401.004,171.166" stroke-width="4.500" stroke="black" fill="none" stroke-linecap="round"></path><path d="M 401.004,171.166 C 407.857,163.623 410.355,161.550 410.592,152.779" stroke-width="4.500" stroke="black" fill="none" stroke-linecap="round"></path><path d="M 410.592,152.779 C 410.754,146.761 407.560,144.170 401.803,141.588" stroke-width="4.500" stroke="black" fill="none" stroke-linecap="round"></path><path d="M 401.803,141.588 C 395.975,138.974 394.453,140.913 387.421,142.387" stroke-width="4.697" stroke="black" fill="none" stroke-linecap="round"></path><path d="M 387.421,142.387 C 352.506,149.706 352.168,149.082 317.908,159.175" stroke-width="4.500" stroke="black" fill="none" stroke-linecap="round"></path><path d="M 317.908,159.175 C 280.258,170.266 280.244,170.640 243.601,184.756" stroke-width="4.500" stroke="black" fill="none" stroke-linecap="round"></path><path d="M 243.601,184.756 C 205.538,199.418 206.041,200.728 168.494,216.732" stroke-width="4.500" stroke="black" fill="none" stroke-linecap="round"></path><path d="M 168.494,216.732 C 138.525,229.506 139.153,231.421 108.569,242.313" stroke-width="4.500" stroke="black" fill="none" stroke-linecap="round"></path><path d="M 108.569,242.313 C 92.012,248.209 91.495,247.219 74.212,250.307" stroke-width="4.500" stroke="black" fill="none" stroke-linecap="round"></path><path d="M 74.212,250.307 C 69.123,251.216 65.337,251.063 63.825,250.307" stroke-width="4.500" stroke="black" fill="none" stroke-linecap="round"></path><path d="M 63.825,250.307 C 62.940,249.864 66.607,249.072 69.418,247.908" stroke-width="5.556" stroke="black" fill="none" stroke-linecap="round"></path><path d="M 69.418,247.908 C 78.192,244.276 78.023,243.812 86.996,240.714" stroke-width="4.573" stroke="black" fill="none" stroke-linecap="round"></path><path d="M 86.996,240.714 C 123.167,228.224 122.801,226.648 159.705,216.732" stroke-width="4.500" stroke="black" fill="none" stroke-linecap="round"></path><path d="M 159.705,216.732 C 192.713,207.862 192.958,207.507 226.822,203.142" stroke-width="4.500" stroke="black" fill="none" stroke-linecap="round"></path><path d="M 226.822,203.142 C 258.076,199.113 258.375,200.426 289.943,199.944" stroke-width="4.500" stroke="black" fill="none" stroke-linecap="round"></path><path d="M 289.943,199.944 C 310.710,199.627 310.892,199.429 331.491,201.543" stroke-width="4.500" stroke="black" fill="none" stroke-linecap="round"></path><path d="M 331.491,201.543 C 342.053,202.627 343.946,201.398 352.265,206.339" stroke-width="4.500" stroke="black" fill="none" stroke-linecap="round"></path></svg>