<svg xmlns="http://www.w3.org/2000/svg" xmlns:xlink="http://www.w3.org/1999/xlink" viewBox="0 0 576 416" width="576" height="416"><path d="M 173.288,214.333 C 168.095,216.732 167.908,216.398 162.901,219.130" stroke-width="8.351" stroke="black" fill="none" stroke-linecap="round"></path><path d="M 162.901,219.130 C 159.119,221.194 159.355,221.606 155.710,223.926" stroke-width="6.525" stroke="black" fill="none" stroke-linecap="round"></path><path d="M 155.710,223.926 C 150.566,227.201 150.484,227.071 145.323,230.322" stroke-width="5.463" stroke="black" fill="none" stroke-linecap="round"></path><path d="M 145.323,230.322 C 128.911,240.661 129.346,241.439 112.564,251.106" stroke-width="4.500" stroke="black" fill="none" stroke-linecap="round"></path><path d="M 112.564,251.106 C 102.979,256.628 102.789,256.427 92.589,260.699" stroke-width="4.500" stroke="black" fill="none" stroke-linecap="round"></path><path d="M 92.589,260.699 C 85.611,263.622 85.520,264.189 78.207,265.495" stroke-width="4.500" stroke="black" fill="none" stroke-linecap="round"></path><path d="M 78.207,265.495 C 74.334,266.187 70.304,267.826 70.217,264.696" stroke-width="5.338" stroke="black" fill="none" stroke-linecap="round"></path><path d="M 70.217,264.696 C 69.905,253.436 71.790,249.927 77.408,236.717" stroke-width="4.844" stroke="black" fill="none" stroke-linecap="round"></path><path d="M 77.408,236.717 C 87.770,212.355 88.527,212.379 102.177,189.552" stroke-width="4.500" stroke="black" fill="none" stroke-linecap="round"></path><path d="M 102.177,189.552 C 116.492,165.614 116.867,165.716 133.338,143.187" stroke-width="4.500" stroke="black" fill="none" stroke-linecap="round"></path><path d="M 133.338,143.187 C 148.428,122.548 148.905,122.855 165.298,103.216" stroke-width="4.500" stroke="black" fill="none" stroke-linecap="round"></path><path d="M 165.298,103.216 C 179.267,86.482 179.610,86.766 194.062,70.441" stroke-width="4.500" stroke="black" fill="none" stroke-linecap="round"></path><path d="M 194.062,70.441 C 204.379,58.787 204.090,58.499 214.836,47.258" stroke-width="4.500" stroke="black" fill="none" stroke-linecap="round"></path><path d="M 214.836,47.258 C 221.668,40.113 221.833,40.237 229.218,33.668" stroke-width="4.500" stroke="black" fill="none" stroke-linecap="round"></path><path d="M 229.218,33.668 C 232.619,30.644 237.429,25.754 236.410,28.072" stroke-width="4.843" stroke="black" fill="none" stroke-linecap="round"></path><path d="M 236.410,28.072 C 233.035,35.747 228.552,40.947 220.429,53.653" stroke-width="5.384" stroke="black" fill="none" stroke-linecap="round"></path><path d="M 220.429,53.653 C 206.579,75.321 206.156,75.054 192.464,96.821" stroke-width="4.500" stroke="black" fill="none" stroke-linecap="round"></path><path d="M 192.464,96.821 C 176.992,121.419 177.107,121.496 162.102,146.384" stroke-width="4.500" stroke="black" fill="none" stroke-linecap="round"></path><path d="M 162.102,146.384 C 146.745,171.859 146.334,171.635 131.740,197.546" stroke-width="4.500" stroke="black" fill="none" stroke-linecap="round"></path><path d="M 131.740,197.546 C 117.969,221.997 118.352,222.221 105.373,247.109" stroke-width="4.500" stroke="black" fill="none" stroke-linecap="round"></path><path d="M 105.373,247.109 C 94.382,268.187 94.516,268.258 83.800,289.477" stroke-width="4.500" stroke="black" fill="none" stroke-linecap="round"></path><path d="M 83.800,289.477 C 75.340,306.229 75.005,306.078 67.021,323.052" stroke-width="4.500" stroke="black" fill="none" stroke-linecap="round"></path><path d="M 67.021,323.052 C 62.221,333.258 62.252,333.319 58.232,343.837" stroke-width="4.500" stroke="black" fill="none" stroke-linecap="round"></path><path d="M 58.232,343.837 C 57.058,346.909 55.762,350.814 56.634,350.232" stroke-width="5.087" stroke="black" fill="none" stroke-linecap="round"></path><path d="M 56.634,350.232 C 58.159,349.215 60.194,345.652 63.026,340.639" stroke-width="6.131" stroke="black" fill="none" stroke-linecap="round"></path><path d="M 63.026,340.639 C 70.581,327.266 70.145,327.011 77.408,313.460" stroke-width="4.500" stroke="black" fill="none" stroke-linecap="round"></path><path d="M 77.408,313.460 C 84.927,299.431 84.790,299.352 92.589,285.480" stroke-width="4.500" stroke="black" fill="none" stroke-linecap="round"></path><path d="M 92.589,285.480 C 99.172,273.771 99.406,273.904 106.172,262.298" stroke-width="4.500" stroke="black" fill="none" stroke-linecap="round"></path><path d="M 106.172,262.298 C 110.592,254.718 110.726,254.789 114.961,247.109" stroke-width="4.500" stroke="black" fill="none" stroke-linecap="round"></path><path d="M 114.961,247.109 C 117.118,243.198 116.499,242.803 118.956,239.115" stroke-width="5.216" stroke="black" fill="none" stroke-linecap="round"></path><path d="M 118.956,239.115 C 121.293,235.609 121.599,235.773 124.549,232.720" stroke-width="6.990" stroke="black" fill="none" stroke-linecap="round"></path><path d="M 124.549,232.720 C 133.184,223.782 133.564,224.143 142.127,215.133" stroke-width="4.500" stroke="black" fill="none" stroke-linecap="round"></path><path d="M 142.127,215.133 C 156.735,199.762 156.719,199.733 170.891,183.956" stroke-width="4.500" stroke="black" fill="none" stroke-linecap="round"></path><path d="M 170.891,183.956 C 185.084,168.157 184.586,167.706 198.856,151.980" stroke-width="4.500" stroke="black" fill="none" stroke-linecap="round"></path><path d="M 198.856,151.980 C 212.151,137.329 212.249,137.406 226.022,123.202" stroke-width="4.500" stroke="black" fill="none" stroke-linecap="round"></path><path d="M 226.022,123.202 C 238.217,110.626 238.524,110.925 250.792,98.420" stroke-width="4.500" stroke="black" fill="none" stroke-linecap="round"></path><path d="M 250.792,98.420 C 259.698,89.341 259.647,89.289 268.370,80.034" stroke-width="4.500" stroke="black" fill="none" stroke-linecap="round"></path><path d="M 268.370,80.034 C 272.831,75.300 276.090,72.579 277.159,70.441" stroke-width="4.500" stroke="black" fill="none" stroke-linecap="round"></path><path d="M 277.159,70.441 C 277.688,69.382 273.974,71.516 271.566,73.638" stroke-width="6.401" stroke="black" fill="none" stroke-linecap="round"></path><path d="M 271.566,73.638 C 257.195,86.305 257.431,86.670 243.601,100.019" stroke-width="4.500" stroke="black" fill="none" stroke-linecap="round"></path><path d="M 243.601,100.019 C 223.473,119.446 223.559,119.537 203.650,139.190" stroke-width="4.500" stroke="black" fill="none" stroke-linecap="round"></path><path d="M 203.650,139.190 C 193.596,149.115 193.148,148.700 183.675,159.175" stroke-width="4.500" stroke="black" fill="none" stroke-linecap="round"></path><path d="M 183.675,159.175 C 155.195,190.669 155.693,191.135 127.745,223.127" stroke-width="4.500" stroke="black" fill="none" stroke-linecap="round"></path><path d="M 127.745,223.127 C 111.348,241.897 111.472,242.006 94.986,260.699" stroke-width="4.500" stroke="black" fill="none" stroke-linecap="round"></path><path d="M 94.986,260.699 C 81.509,275.981 81.113,275.640 67.820,291.076" stroke-width="4.500" stroke="black" fill="none" stroke-linecap="round"></path><path d="M 67.820,291.076 C 58.741,301.620 59.429,302.227 50.242,312.660" stroke-width="4.500" stroke="black" fill="none" stroke-linecap="round"></path><path d="M 50.242,312.660 C 44.647,319.014 44.088,318.511 38.257,324.651" stroke-width="4.500" stroke="black" fill="none" stroke-linecap="round"></path><path d="M 38.257,324.651 C 36.497,326.505 34.368,329.738 35.061,328.648" stroke-width="5.640" stroke="black" fill="none" stroke-linecap="round"></path><path d="M 35.061,328.648 C 37.164,325.342 39.265,322.113 43.850,315.858" stroke-width="6.467" stroke="black" fill="none" stroke-linecap="round"></path><path d="M 43.850,315.858 C 48.054,310.122 48.038,310.092 52.639,304.666" stroke-width="5.386" stroke="black" fill="none" stroke-linecap="round"></path><path d="M 52.639,304.666 C 70.410,283.711 70.031,283.337 88.594,263.097" stroke-width="4.500" stroke="black" fill="none" stroke-linecap="round"></path><path d="M 88.594,263.097 C 101.192,249.362 101.385,249.489 114.961,236.717" stroke-width="4.500" stroke="black" fill="none" stroke-linecap="round"></path><path d="M 114.961,236.717 C 128.152,224.308 128.217,224.332 142.127,212.735" stroke-width="4.500" stroke="black" fill="none" stroke-linecap="round"></path><path d="M 142.127,212.735 C 154.584,202.349 154.971,202.816 167.695,192.750" stroke-width="4.500" stroke="black" fill="none" stroke-linecap="round"></path><path d="M 167.695,192.750 C 172.149,189.226 172.090,189.152 176.484,185.555" stroke-width="4.500" stroke="black" fill="none" stroke-linecap="round"></path><circle r="3" cx="242.00253295898438" cy="155.1776123046875" fill="black"></circle></svg>