<svg xmlns="http://www.w3.org/2000/svg" xmlns:xlink="http://www.w3.org/1999/xlink" viewBox="0 0 576 416" width="576" height="416"><path d="M 49.443,187.553 C 50.642,197.546 50.814,197.529 51.840,207.538" stroke-width="7.733" stroke="black" fill="none" stroke-linecap="round"></path><path d="M 51.840,207.538 C 52.412,213.118 52.396,213.126 52.639,218.730" stroke-width="5.722" stroke="black" fill="none" stroke-linecap="round"></path><path d="M 52.639,218.730 C 53.195,231.512 53.032,231.521 53.438,244.311" stroke-width="4.500" stroke="black" fill="none" stroke-linecap="round"></path><path d="M 53.438,244.311 C 53.831,256.702 53.795,256.703 54.237,269.092" stroke-width="4.500" stroke="black" fill="none" stroke-linecap="round"></path><path d="M 54.237,269.092 C 54.594,279.086 54.341,279.107 55.036,289.077" stroke-width="4.500" stroke="black" fill="none" stroke-linecap="round"></path><path d="M 55.036,289.077 C 55.539,296.294 55.612,296.307 56.634,303.467" stroke-width="4.500" stroke="black" fill="none" stroke-linecap="round"></path><path d="M 56.634,303.467 C 57.210,307.498 58.444,313.367 58.232,311.461" stroke-width="5.462" stroke="black" fill="none" stroke-linecap="round"></path><path d="M 55.835,263.496 C 56.235,258.700 55.198,258.393 56.634,253.904" stroke-width="8.267" stroke="black" fill="none" stroke-linecap="round"></path><path d="M 56.634,253.904 C 58.394,248.400 59.036,248.460 62.227,243.511" stroke-width="5.950" stroke="black" fill="none" stroke-linecap="round"></path><path d="M 62.227,243.511 C 67.026,236.070 67.234,236.175 72.614,229.122" stroke-width="4.881" stroke="black" fill="none" stroke-linecap="round"></path><path d="M 72.614,229.122 C 78.820,220.987 79.176,221.255 85.398,213.134" stroke-width="4.500" stroke="black" fill="none" stroke-linecap="round"></path><path d="M 85.398,213.134 C 88.364,209.264 88.047,209.028 90.991,205.140" stroke-width="5.201" stroke="black" fill="none" stroke-linecap="round"></path><path d="M 90.991,205.140 C 98.035,195.838 98.377,196.087 105.373,186.754" stroke-width="4.500" stroke="black" fill="none" stroke-linecap="round"></path><path d="M 105.373,186.754 C 107.965,183.297 109.590,178.114 110.167,179.559" stroke-width="5.263" stroke="black" fill="none" stroke-linecap="round"></path><path d="M 110.167,179.559 C 111.188,182.111 109.471,187.166 108.569,194.748" stroke-width="6.568" stroke="black" fill="none" stroke-linecap="round"></path><path d="M 108.569,194.748 C 107.474,203.953 106.749,203.901 106.172,213.134" stroke-width="4.801" stroke="black" fill="none" stroke-linecap="round"></path><path d="M 106.172,213.134 C 105.551,223.086 106.172,223.127 106.172,233.119" stroke-width="4.500" stroke="black" fill="none" stroke-linecap="round"></path><path d="M 106.172,233.119 C 106.172,242.312 105.504,242.368 106.172,251.505" stroke-width="4.500" stroke="black" fill="none" stroke-linecap="round"></path><path d="M 106.172,251.505 C 106.702,258.755 106.918,258.813 108.569,265.895" stroke-width="4.674" stroke="black" fill="none" stroke-linecap="round"></path><path d="M 108.569,265.895 C 109.714,270.804 109.730,270.905 111.765,275.488" stroke-width="5.313" stroke="black" fill="none" stroke-linecap="round"></path><path d="M 111.765,275.488 C 112.926,278.100 112.697,279.340 114.961,280.284" stroke-width="6.283" stroke="black" fill="none" stroke-linecap="round"></path><path d="M 114.961,280.284 C 117.491,281.339 118.459,280.598 121.353,279.485" stroke-width="6.376" stroke="black" fill="none" stroke-linecap="round"></path><path d="M 121.353,279.485 C 123.652,278.600 123.491,278.042 125.348,276.287" stroke-width="6.746" stroke="black" fill="none" stroke-linecap="round"></path><path d="M 125.348,276.287 C 130.682,271.247 130.839,271.359 135.735,265.895" stroke-width="5.278" stroke="black" fill="none" stroke-linecap="round"></path><path d="M 135.735,265.895 C 141.226,259.767 141.221,259.714 146.122,253.104" stroke-width="4.762" stroke="black" fill="none" stroke-linecap="round"></path><path d="M 146.122,253.104 C 150.409,247.324 150.461,247.295 154.112,241.113" stroke-width="4.838" stroke="black" fill="none" stroke-linecap="round"></path><path d="M 154.112,241.113 C 155.655,238.502 155.677,238.432 156.509,235.517" stroke-width="5.965" stroke="black" fill="none" stroke-linecap="round"></path><path d="M 156.509,235.517 C 158.074,230.038 161.006,225.663 158.906,224.326" stroke-width="5.542" stroke="black" fill="none" stroke-linecap="round"></path><path d="M 158.906,224.326 C 156.612,222.865 152.422,226.072 147.720,229.922" stroke-width="6.623" stroke="black" fill="none" stroke-linecap="round"></path><path d="M 147.720,229.922 C 143.633,233.267 144.079,234.059 141.328,238.715" stroke-width="5.787" stroke="black" fill="none" stroke-linecap="round"></path><path d="M 141.328,238.715 C 138.885,242.852 138.920,242.974 137.333,247.508" stroke-width="5.836" stroke="black" fill="none" stroke-linecap="round"></path><path d="M 137.333,247.508 C 136.123,250.968 134.600,252.658 135.735,254.703" stroke-width="6.139" stroke="black" fill="none" stroke-linecap="round"></path><path d="M 135.735,254.703 C 136.597,256.255 139.288,256.116 141.328,254.703" stroke-width="7.388" stroke="black" fill="none" stroke-linecap="round"></path><path d="M 141.328,254.703 C 144.482,252.519 144.127,251.320 146.122,247.508" stroke-width="6.332" stroke="black" fill="none" stroke-linecap="round"></path><path d="M 146.122,247.508 C 148.521,242.927 148.345,242.792 150.117,237.916" stroke-width="5.790" stroke="black" fill="none" stroke-linecap="round"></path><path d="M 150.117,237.916 C 151.541,233.999 152.159,229.388 152.514,229.922" stroke-width="5.960" stroke="black" fill="none" stroke-linecap="round"></path><path d="M 152.514,229.922 C 152.958,230.587 150.823,235.315 151.715,240.314" stroke-width="7.265" stroke="black" fill="none" stroke-linecap="round"></path><path d="M 151.715,240.314 C 152.821,246.507 153.402,246.708 156.509,252.305" stroke-width="5.499" stroke="black" fill="none" stroke-linecap="round"></path><path d="M 156.509,252.305 C 159.394,257.500 159.347,257.977 163.700,261.898" stroke-width="5.431" stroke="black" fill="none" stroke-linecap="round"></path><path d="M 163.700,261.898 C 167.337,265.172 167.823,265.360 172.489,266.694" stroke-width="5.592" stroke="black" fill="none" stroke-linecap="round"></path><path d="M 172.489,266.694 C 176.213,267.758 176.838,267.908 180.479,266.694" stroke-width="5.873" stroke="black" fill="none" stroke-linecap="round"></path><path d="M 180.479,266.694 C 185.228,265.111 185.843,264.906 189.268,261.098" stroke-width="5.665" stroke="black" fill="none" stroke-linecap="round"></path><path d="M 189.268,261.098 C 196.630,252.915 196.786,252.523 202.052,242.712" stroke-width="4.500" stroke="black" fill="none" stroke-linecap="round"></path><path d="M 202.052,242.712 C 208.372,230.939 207.792,230.524 212.439,217.931" stroke-width="4.500" stroke="black" fill="none" stroke-linecap="round"></path><path d="M 212.439,217.931 C 217.380,204.543 217.225,204.454 221.228,190.751" stroke-width="4.500" stroke="black" fill="none" stroke-linecap="round"></path><path d="M 221.228,190.751 C 224.815,178.474 224.989,178.476 227.620,165.969" stroke-width="4.500" stroke="black" fill="none" stroke-linecap="round"></path><path d="M 227.620,165.969 C 229.783,155.693 229.575,155.616 230.816,145.185" stroke-width="4.500" stroke="black" fill="none" stroke-linecap="round"></path><path d="M 230.816,145.185 C 231.573,138.828 231.615,138.780 231.615,132.394" stroke-width="4.704" stroke="black" fill="none" stroke-linecap="round"></path><path d="M 231.615,132.394 C 231.615,128.787 231.599,124.025 230.816,125.200" stroke-width="5.725" stroke="black" fill="none" stroke-linecap="round"></path><path d="M 230.816,125.200 C 229.202,127.623 228.044,132.249 226.822,139.589" stroke-width="6.538" stroke="black" fill="none" stroke-linecap="round"></path><path d="M 226.822,139.589 C 224.848,151.435 225.468,151.566 224.425,163.571" stroke-width="4.500" stroke="black" fill="none" stroke-linecap="round"></path><path d="M 224.425,163.571 C 223.071,179.146 223.053,179.148 222.027,194.748" stroke-width="4.500" stroke="black" fill="none" stroke-linecap="round"></path><path d="M 222.027,194.748 C 221.056,209.525 221.312,209.542 220.429,224.326" stroke-width="4.500" stroke="black" fill="none" stroke-linecap="round"></path><path d="M 220.429,224.326 C 219.714,236.322 219.581,236.314 218.832,248.308" stroke-width="4.500" stroke="black" fill="none" stroke-linecap="round"></path><path d="M 218.832,248.308 C 218.382,255.499 218.564,255.513 218.032,262.697" stroke-width="4.500" stroke="black" fill="none" stroke-linecap="round"></path><path d="M 218.032,262.697 C 217.765,266.305 216.297,268.721 217.233,269.892" stroke-width="5.573" stroke="black" fill="none" stroke-linecap="round"></path><path d="M 217.233,269.892 C 217.895,270.719 219.965,268.862 221.228,266.694" stroke-width="6.978" stroke="black" fill="none" stroke-linecap="round"></path><path d="M 221.228,266.694 C 225.558,259.269 225.168,258.840 228.419,250.706" stroke-width="5.088" stroke="black" fill="none" stroke-linecap="round"></path><path d="M 228.419,250.706 C 233.158,238.855 232.928,238.756 237.208,226.724" stroke-width="4.500" stroke="black" fill="none" stroke-linecap="round"></path><path d="M 237.208,226.724 C 241.318,215.173 241.391,215.193 245.199,203.541" stroke-width="4.500" stroke="black" fill="none" stroke-linecap="round"></path><path d="M 245.199,203.541 C 248.183,194.409 247.967,194.339 250.792,185.155" stroke-width="4.500" stroke="black" fill="none" stroke-linecap="round"></path><path d="M 250.792,185.155 C 252.761,178.751 252.589,178.686 254.787,172.365" stroke-width="4.613" stroke="black" fill="none" stroke-linecap="round"></path><path d="M 254.787,172.365 C 255.785,169.493 256.559,166.769 257.184,166.769" stroke-width="5.913" stroke="black" fill="none" stroke-linecap="round"></path><path d="M 257.184,166.769 C 257.758,166.769 257.415,169.580 257.184,172.365" stroke-width="7.095" stroke="black" fill="none" stroke-linecap="round"></path><path d="M 257.184,172.365 C 256.616,179.173 256.530,179.179 255.586,185.954" stroke-width="5.360" stroke="black" fill="none" stroke-linecap="round"></path><path d="M 255.586,185.954 C 254.133,196.366 253.846,196.327 252.390,206.739" stroke-width="4.500" stroke="black" fill="none" stroke-linecap="round"></path><path d="M 252.390,206.739 C 251.050,216.312 250.664,216.299 249.993,225.924" stroke-width="4.500" stroke="black" fill="none" stroke-linecap="round"></path><path d="M 249.993,225.924 C 249.465,233.486 248.973,233.715 249.993,241.113" stroke-width="4.637" stroke="black" fill="none" stroke-linecap="round"></path><path d="M 249.993,241.113 C 250.571,245.307 250.315,246.643 253.189,249.107" stroke-width="5.499" stroke="black" fill="none" stroke-linecap="round"></path><path d="M 253.189,249.107 C 255.908,251.440 257.293,251.095 261.179,250.706" stroke-width="5.816" stroke="black" fill="none" stroke-linecap="round"></path><path d="M 261.179,250.706 C 265.283,250.295 265.558,249.783 269.169,247.508" stroke-width="6.004" stroke="black" fill="none" stroke-linecap="round"></path><path d="M 269.169,247.508 C 276.344,242.988 276.015,242.382 282.752,237.116" stroke-width="4.855" stroke="black" fill="none" stroke-linecap="round"></path><path d="M 282.752,237.116 C 288.799,232.389 289.089,232.683 294.737,227.523" stroke-width="4.766" stroke="black" fill="none" stroke-linecap="round"></path><path d="M 294.737,227.523 C 298.277,224.289 301.129,221.476 301.129,220.329" stroke-width="5.413" stroke="black" fill="none" stroke-linecap="round"></path><path d="M 301.129,220.329 C 301.129,219.477 297.076,221.185 294.737,223.526" stroke-width="7.073" stroke="black" fill="none" stroke-linecap="round"></path><path d="M 294.737,223.526 C 293.081,225.182 291.703,227.670 293.139,228.323" stroke-width="6.977" stroke="black" fill="none" stroke-linecap="round"></path><path d="M 293.139,228.323 C 296.097,229.668 299.152,229.954 303.526,227.523" stroke-width="7.317" stroke="black" fill="none" stroke-linecap="round"></path><path d="M 303.526,227.523 C 313.534,221.960 313.307,220.553 321.903,212.335" stroke-width="4.500" stroke="black" fill="none" stroke-linecap="round"></path><path d="M 321.903,212.335 C 331.284,203.365 331.462,203.340 339.481,193.149" stroke-width="4.500" stroke="black" fill="none" stroke-linecap="round"></path><path d="M 339.481,193.149 C 346.244,184.554 345.933,184.219 351.466,174.763" stroke-width="4.500" stroke="black" fill="none" stroke-linecap="round"></path><path d="M 351.466,174.763 C 355.521,167.832 355.688,167.800 358.657,160.373" stroke-width="4.500" stroke="black" fill="none" stroke-linecap="round"></path><path d="M 358.657,160.373 C 360.482,155.809 359.500,155.446 361.054,150.781" stroke-width="5.219" stroke="black" fill="none" stroke-linecap="round"></path><path d="M 361.054,150.781 C 361.897,148.251 361.193,146.189 363.451,145.984" stroke-width="6.778" stroke="black" fill="none" stroke-linecap="round"></path><path d="M 363.451,145.984 C 369.982,145.390 371.001,147.794 378.632,149.182" stroke-width="6.348" stroke="black" fill="none" stroke-linecap="round"></path><path d="M 378.632,149.182 C 392.974,151.791 393.000,151.667 407.396,153.978" stroke-width="4.500" stroke="black" fill="none" stroke-linecap="round"></path><path d="M 407.396,153.978 C 425.359,156.863 425.388,156.682 443.351,159.574" stroke-width="4.500" stroke="black" fill="none" stroke-linecap="round"></path><path d="M 443.351,159.574 C 460.145,162.278 460.079,162.733 476.909,165.170" stroke-width="4.500" stroke="black" fill="none" stroke-linecap="round"></path><path d="M 476.909,165.170 C 490.441,167.129 490.530,166.507 504.075,168.367" stroke-width="4.500" stroke="black" fill="none" stroke-linecap="round"></path><path d="M 504.075,168.367 C 510.905,169.305 518.213,170.210 517.658,170.766" stroke-width="4.500" stroke="black" fill="none" stroke-linecap="round"></path><path d="M 517.658,170.766 C 517.015,171.409 509.668,170.766 501.678,170.766" stroke-width="5.442" stroke="black" fill="none" stroke-linecap="round"></path><path d="M 501.678,170.766 C 472.914,170.766 472.901,170.112 444.150,170.766" stroke-width="4.500" stroke="black" fill="none" stroke-linecap="round"></path><path d="M 444.150,170.766 C 402.589,171.711 402.512,171.089 361.054,173.963" stroke-width="4.500" stroke="black" fill="none" stroke-linecap="round"></path><path d="M 361.054,173.963 C 321.813,176.684 321.723,176.640 282.752,181.957" stroke-width="4.500" stroke="black" fill="none" stroke-linecap="round"></path><path d="M 282.752,181.957 C 242.622,187.432 242.456,187.149 202.851,195.547" stroke-width="4.500" stroke="black" fill="none" stroke-linecap="round"></path><path d="M 202.851,195.547 C 168.948,202.737 169.217,204.061 135.735,213.134" stroke-width="4.500" stroke="black" fill="none" stroke-linecap="round"></path><path d="M 135.735,213.134 C 111.689,219.650 111.765,219.929 87.795,226.724" stroke-width="4.500" stroke="black" fill="none" stroke-linecap="round"></path></svg>