<svg xmlns="http://www.w3.org/2000/svg" xmlns:xlink="http://www.w3.org/1999/xlink" viewBox="0 0 576 416" width="576" height="416"><path d="M 44.649,265.095 C 49.044,258.300 49.151,258.368 53.438,251.505" stroke-width="6.974" stroke="black" fill="none" stroke-linecap="round"></path><path d="M 53.438,251.505 C 59.139,242.380 59.408,242.513 64.624,233.119" stroke-width="4.500" stroke="black" fill="none" stroke-linecap="round"></path><path d="M 64.624,233.119 C 67.398,228.124 67.248,228.019 69.418,222.727" stroke-width="5.004" stroke="black" fill="none" stroke-linecap="round"></path><path d="M 69.418,222.727 C 73.640,212.431 74.478,212.621 77.408,201.942" stroke-width="4.500" stroke="black" fill="none" stroke-linecap="round"></path><path d="M 77.408,201.942 C 80.071,192.236 80.604,191.967 80.604,181.957" stroke-width="4.500" stroke="black" fill="none" stroke-linecap="round"></path><path d="M 80.604,181.957 C 80.604,170.383 80.744,169.620 77.408,158.775" stroke-width="4.500" stroke="black" fill="none" stroke-linecap="round"></path><path d="M 77.408,158.775 C 75.949,154.031 75.020,153.451 71.016,150.781" stroke-width="4.905" stroke="black" fill="none" stroke-linecap="round"></path><path d="M 71.016,150.781 C 67.829,148.655 66.518,147.872 63.026,149.182" stroke-width="5.675" stroke="black" fill="none" stroke-linecap="round"></path><path d="M 63.026,149.182 C 56.930,151.469 56.146,152.590 51.840,157.975" stroke-width="6.163" stroke="black" fill="none" stroke-linecap="round"></path><path d="M 51.840,157.975 C 48.156,162.583 48.599,163.342 47.046,169.167" stroke-width="5.387" stroke="black" fill="none" stroke-linecap="round"></path><path d="M 47.046,169.167 C 45.403,175.333 44.893,175.661 45.448,181.957" stroke-width="5.196" stroke="black" fill="none" stroke-linecap="round"></path><path d="M 45.448,181.957 C 46.091,189.251 46.214,189.716 49.443,196.347" stroke-width="4.906" stroke="black" fill="none" stroke-linecap="round"></path><path d="M 49.443,196.347 C 53.805,205.304 54.621,205.050 60.629,213.134" stroke-width="4.500" stroke="black" fill="none" stroke-linecap="round"></path><path d="M 60.629,213.134 C 66.207,220.638 66.452,220.478 72.614,227.523" stroke-width="4.500" stroke="black" fill="none" stroke-linecap="round"></path><path d="M 72.614,227.523 C 77.638,233.268 77.844,233.086 83.001,238.715" stroke-width="4.682" stroke="black" fill="none" stroke-linecap="round"></path><path d="M 83.001,238.715 C 86.633,242.679 87.260,242.309 90.192,246.709" stroke-width="5.151" stroke="black" fill="none" stroke-linecap="round"></path><path d="M 90.192,246.709 C 92.054,249.504 92.178,249.814 92.589,253.104" stroke-width="5.979" stroke="black" fill="none" stroke-linecap="round"></path><path d="M 92.589,253.104 C 92.977,256.209 93.575,257.119 91.790,259.499" stroke-width="6.351" stroke="black" fill="none" stroke-linecap="round"></path><path d="M 91.790,259.499 C 88.781,263.514 87.796,263.610 83.001,265.895" stroke-width="6.672" stroke="black" fill="none" stroke-linecap="round"></path><path d="M 83.001,265.895 C 79.407,267.607 79.036,267.292 75.011,267.494" stroke-width="6.331" stroke="black" fill="none" stroke-linecap="round"></path><path d="M 75.011,267.494 C 71.045,267.692 70.405,268.467 67.021,266.694" stroke-width="6.090" stroke="black" fill="none" stroke-linecap="round"></path><path d="M 67.021,266.694 C 62.015,264.071 60.985,263.692 58.232,258.700" stroke-width="5.513" stroke="black" fill="none" stroke-linecap="round"></path><path d="M 58.232,258.700 C 54.593,252.101 54.552,251.239 54.237,243.511" stroke-width="4.901" stroke="black" fill="none" stroke-linecap="round"></path><path d="M 54.237,243.511 C 53.753,231.653 53.840,231.179 56.634,219.529" stroke-width="4.500" stroke="black" fill="none" stroke-linecap="round"></path><path d="M 56.634,219.529 C 61.031,201.202 60.796,200.692 68.619,183.556" stroke-width="4.500" stroke="black" fill="none" stroke-linecap="round"></path><path d="M 68.619,183.556 C 75.577,168.316 76.665,168.650 86.197,154.778" stroke-width="4.500" stroke="black" fill="none" stroke-linecap="round"></path><path d="M 86.197,154.778 C 94.243,143.069 94.088,142.732 103.775,132.394" stroke-width="4.500" stroke="black" fill="none" stroke-linecap="round"></path><path d="M 103.775,132.394 C 112.066,123.546 112.243,123.323 122.152,116.406" stroke-width="4.500" stroke="black" fill="none" stroke-linecap="round"></path><path d="M 122.152,116.406 C 129.421,111.332 129.787,111.113 138.132,108.412" stroke-width="4.500" stroke="black" fill="none" stroke-linecap="round"></path><path d="M 138.132,108.412 C 143.370,106.717 143.950,106.880 149.318,107.613" stroke-width="4.940" stroke="black" fill="none" stroke-linecap="round"></path><path d="M 149.318,107.613 C 152.739,108.080 154.202,108.169 155.710,110.810" stroke-width="5.841" stroke="black" fill="none" stroke-linecap="round"></path><path d="M 155.710,110.810 C 157.398,113.765 156.654,115.030 155.710,118.804" stroke-width="6.109" stroke="black" fill="none" stroke-linecap="round"></path><path d="M 155.710,118.804 C 154.656,123.024 153.909,122.908 151.715,126.798" stroke-width="5.871" stroke="black" fill="none" stroke-linecap="round"></path><path d="M 151.715,126.798 C 145.120,138.496 145.478,138.753 138.132,149.981" stroke-width="4.500" stroke="black" fill="none" stroke-linecap="round"></path><path d="M 138.132,149.981 C 131.096,160.737 130.740,160.525 122.951,170.766" stroke-width="4.500" stroke="black" fill="none" stroke-linecap="round"></path><path d="M 122.951,170.766 C 116.757,178.911 116.591,178.785 110.167,186.754" stroke-width="4.500" stroke="black" fill="none" stroke-linecap="round"></path><path d="M 110.167,186.754 C 106.603,191.176 102.142,193.251 102.976,195.547" stroke-width="4.864" stroke="black" fill="none" stroke-linecap="round"></path><path d="M 102.976,195.547 C 103.740,197.647 108.301,194.737 113.363,195.547" stroke-width="6.713" stroke="black" fill="none" stroke-linecap="round"></path><path d="M 113.363,195.547 C 118.289,196.336 118.252,196.905 122.951,198.745" stroke-width="5.927" stroke="black" fill="none" stroke-linecap="round"></path><path d="M 122.951,198.745 C 127.441,200.502 127.383,200.666 131.740,202.742" stroke-width="5.879" stroke="black" fill="none" stroke-linecap="round"></path><path d="M 131.740,202.742 C 135.772,204.663 135.695,204.826 139.730,206.739" stroke-width="5.806" stroke="black" fill="none" stroke-linecap="round"></path><path d="M 139.730,206.739 C 143.285,208.424 143.225,208.631 146.921,209.936" stroke-width="6.044" stroke="black" fill="none" stroke-linecap="round"></path><path d="M 146.921,209.936 C 150.016,211.029 150.072,210.995 153.313,211.535" stroke-width="6.347" stroke="black" fill="none" stroke-linecap="round"></path><path d="M 153.313,211.535 C 157.263,212.194 157.570,213.224 161.303,212.335" stroke-width="6.181" stroke="black" fill="none" stroke-linecap="round"></path><path d="M 161.303,212.335 C 165.959,211.226 166.425,210.863 170.092,207.538" stroke-width="5.810" stroke="black" fill="none" stroke-linecap="round"></path><path d="M 170.092,207.538 C 179.209,199.272 180.075,199.439 186.871,189.152" stroke-width="4.500" stroke="black" fill="none" stroke-linecap="round"></path><path d="M 186.871,189.152 C 195.656,175.856 195.305,175.251 201.253,160.373" stroke-width="4.500" stroke="black" fill="none" stroke-linecap="round"></path><path d="M 201.253,160.373 C 206.491,147.272 206.350,147.003 209.243,133.194" stroke-width="4.500" stroke="black" fill="none" stroke-linecap="round"></path><path d="M 209.243,133.194 C 211.543,122.221 211.412,122.008 211.640,110.810" stroke-width="4.500" stroke="black" fill="none" stroke-linecap="round"></path><path d="M 211.640,110.810 C 211.812,102.422 211.996,102.086 210.042,94.023" stroke-width="4.500" stroke="black" fill="none" stroke-linecap="round"></path><path d="M 210.042,94.023 C 208.800,88.896 208.533,88.420 205.248,84.430" stroke-width="5.059" stroke="black" fill="none" stroke-linecap="round"></path><path d="M 205.248,84.430 C 202.940,81.625 202.282,81.347 198.856,80.433" stroke-width="5.894" stroke="black" fill="none" stroke-linecap="round"></path><path d="M 198.856,80.433 C 196.289,79.748 195.313,79.797 193.263,81.233" stroke-width="6.405" stroke="black" fill="none" stroke-linecap="round"></path><path d="M 193.263,81.233 C 191.318,82.595 191.409,83.449 190.866,86.029" stroke-width="7.305" stroke="black" fill="none" stroke-linecap="round"></path><path d="M 190.866,86.029 C 189.811,91.044 189.802,91.238 190.067,96.421" stroke-width="6.005" stroke="black" fill="none" stroke-linecap="round"></path><path d="M 190.067,96.421 C 190.601,106.826 190.331,106.992 192.464,117.206" stroke-width="4.500" stroke="black" fill="none" stroke-linecap="round"></path><path d="M 192.464,117.206 C 195.924,133.772 196.076,133.844 201.253,149.981" stroke-width="4.500" stroke="black" fill="none" stroke-linecap="round"></path><path d="M 201.253,149.981 C 206.463,166.220 207.389,165.917 213.238,181.957" stroke-width="4.500" stroke="black" fill="none" stroke-linecap="round"></path><path d="M 213.238,181.957 C 218.175,195.495 218.547,195.390 222.826,209.137" stroke-width="4.500" stroke="black" fill="none" stroke-linecap="round"></path><path d="M 222.826,209.137 C 226.137,219.772 226.720,219.789 228.419,230.721" stroke-width="4.500" stroke="black" fill="none" stroke-linecap="round"></path><path d="M 228.419,230.721 C 229.516,237.776 229.011,238.011 228.419,245.110" stroke-width="4.500" stroke="black" fill="none" stroke-linecap="round"></path><path d="M 228.419,245.110 C 228.212,247.604 228.387,248.005 226.822,249.907" stroke-width="5.934" stroke="black" fill="none" stroke-linecap="round"></path><path d="M 226.822,249.907 C 222.794,254.800 222.542,255.625 217.233,258.700" stroke-width="6.325" stroke="black" fill="none" stroke-linecap="round"></path><path d="M 217.233,258.700 C 214.951,260.022 213.779,260.016 211.640,258.700" stroke-width="6.632" stroke="black" fill="none" stroke-linecap="round"></path><path d="M 211.640,258.700 C 208.585,256.819 207.947,256.048 206.846,252.305" stroke-width="6.266" stroke="black" fill="none" stroke-linecap="round"></path><path d="M 206.846,252.305 C 203.952,242.458 203.349,241.926 203.650,231.520" stroke-width="4.507" stroke="black" fill="none" stroke-linecap="round"></path><path d="M 203.650,231.520 C 204.148,214.346 204.531,213.984 208.444,197.146" stroke-width="4.500" stroke="black" fill="none" stroke-linecap="round"></path><path d="M 208.444,197.146 C 212.521,179.609 212.547,179.308 219.630,162.772" stroke-width="4.500" stroke="black" fill="none" stroke-linecap="round"></path><path d="M 219.630,162.772 C 225.731,148.531 226.211,148.499 234.811,135.592" stroke-width="4.500" stroke="black" fill="none" stroke-linecap="round"></path><path d="M 234.811,135.592 C 242.191,124.517 242.870,124.910 251.591,114.807" stroke-width="4.500" stroke="black" fill="none" stroke-linecap="round"></path><path d="M 251.591,114.807 C 258.051,107.323 258.067,107.275 265.174,100.418" stroke-width="4.500" stroke="black" fill="none" stroke-linecap="round"></path><path d="M 265.174,100.418 C 269.253,96.483 269.160,95.893 273.963,93.224" stroke-width="4.830" stroke="black" fill="none" stroke-linecap="round"></path><path d="M 273.963,93.224 C 276.351,91.896 279.658,90.587 279.556,92.424" stroke-width="6.033" stroke="black" fill="none" stroke-linecap="round"></path><path d="M 279.556,92.424 C 279.258,97.782 277.003,100.341 273.164,107.613" stroke-width="6.552" stroke="black" fill="none" stroke-linecap="round"></path><path d="M 273.164,107.613 C 265.817,121.525 265.200,121.219 257.184,134.793" stroke-width="4.500" stroke="black" fill="none" stroke-linecap="round"></path><path d="M 257.184,134.793 C 249.620,147.599 249.858,147.750 242.003,160.373" stroke-width="4.500" stroke="black" fill="none" stroke-linecap="round"></path><path d="M 242.003,160.373 C 236.675,168.934 236.410,168.767 230.816,177.161" stroke-width="4.500" stroke="black" fill="none" stroke-linecap="round"></path><path d="M 230.816,177.161 C 229.218,179.559 229.047,179.460 227.620,181.957" stroke-width="5.550" stroke="black" fill="none" stroke-linecap="round"></path><path d="M 227.620,181.957 C 225.851,185.055 223.181,187.286 224.425,188.353" stroke-width="6.003" stroke="black" fill="none" stroke-linecap="round"></path><path d="M 224.425,188.353 C 225.978,189.685 228.782,187.139 233.214,186.754" stroke-width="7.073" stroke="black" fill="none" stroke-linecap="round"></path><path d="M 233.214,186.754 C 237.970,186.340 238.012,186.589 242.802,186.754" stroke-width="6.095" stroke="black" fill="none" stroke-linecap="round"></path><path d="M 242.802,186.754 C 249.598,186.988 249.591,187.553 256.385,187.553" stroke-width="5.382" stroke="black" fill="none" stroke-linecap="round"></path><path d="M 256.385,187.553 C 264.373,187.553 264.527,188.118 272.365,186.754" stroke-width="4.733" stroke="black" fill="none" stroke-linecap="round"></path><path d="M 272.365,186.754 C 282.904,184.920 283.268,185.224 293.139,181.158" stroke-width="4.500" stroke="black" fill="none" stroke-linecap="round"></path><path d="M 293.139,181.158 C 303.643,176.830 303.513,176.156 313.114,169.966" stroke-width="4.500" stroke="black" fill="none" stroke-linecap="round"></path><path d="M 313.114,169.966 C 321.491,164.565 321.467,164.401 329.094,157.975" stroke-width="4.500" stroke="black" fill="none" stroke-linecap="round"></path><path d="M 329.094,157.975 C 336.648,151.611 336.710,151.578 343.476,144.385" stroke-width="4.500" stroke="black" fill="none" stroke-linecap="round"></path><path d="M 343.476,144.385 C 349.494,137.988 349.639,137.998 354.662,130.796" stroke-width="4.500" stroke="black" fill="none" stroke-linecap="round"></path><path d="M 354.662,130.796 C 361.624,120.811 361.753,120.770 367.446,110.011" stroke-width="4.500" stroke="black" fill="none" stroke-linecap="round"></path><path d="M 367.446,110.011 C 372.539,100.385 372.801,100.331 376.235,90.026" stroke-width="4.500" stroke="black" fill="none" stroke-linecap="round"></path><path d="M 376.235,90.026 C 379.193,81.145 379.201,80.899 380.230,71.640" stroke-width="4.500" stroke="black" fill="none" stroke-linecap="round"></path><path d="M 380.230,71.640 C 380.799,66.510 380.486,66.262 379.431,61.247" stroke-width="5.052" stroke="black" fill="none" stroke-linecap="round"></path><path d="M 379.431,61.247 C 378.888,58.668 378.232,56.108 377.034,56.451" stroke-width="6.185" stroke="black" fill="none" stroke-linecap="round"></path><path d="M 377.034,56.451 C 375.436,56.908 374.891,59.451 373.838,62.846" stroke-width="7.289" stroke="black" fill="none" stroke-linecap="round"></path><path d="M 373.838,62.846 C 371.295,71.042 370.979,71.105 369.843,79.634" stroke-width="5.053" stroke="black" fill="none" stroke-linecap="round"></path><path d="M 369.843,79.634 C 367.783,95.087 368.189,95.200 367.446,110.810" stroke-width="4.500" stroke="black" fill="none" stroke-linecap="round"></path><path d="M 367.446,110.810 C 366.591,128.774 366.853,128.795 366.647,146.784" stroke-width="4.500" stroke="black" fill="none" stroke-linecap="round"></path><path d="M 366.647,146.784 C 366.454,163.569 367.094,163.585 366.647,180.359" stroke-width="4.500" stroke="black" fill="none" stroke-linecap="round"></path><path d="M 366.647,180.359 C 366.295,193.562 366.406,193.610 365.049,206.739" stroke-width="4.500" stroke="black" fill="none" stroke-linecap="round"></path><path d="M 365.049,206.739 C 364.009,216.793 364.186,216.918 361.853,226.724" stroke-width="4.500" stroke="black" fill="none" stroke-linecap="round"></path><path d="M 361.853,226.724 C 360.191,233.706 360.577,234.279 357.059,240.314" stroke-width="4.500" stroke="black" fill="none" stroke-linecap="round"></path><path d="M 357.059,240.314 C 354.984,243.872 354.334,244.614 350.667,245.910" stroke-width="5.447" stroke="black" fill="none" stroke-linecap="round"></path><path d="M 350.667,245.910 C 347.543,247.013 344.811,247.649 343.476,245.110" stroke-width="6.026" stroke="black" fill="none" stroke-linecap="round"></path><path d="M 343.476,245.110 C 340.816,240.054 341.684,237.796 342.677,230.721" stroke-width="6.266" stroke="black" fill="none" stroke-linecap="round"></path><path d="M 342.677,230.721 C 344.880,215.013 344.778,214.651 349.868,199.544" stroke-width="4.500" stroke="black" fill="none" stroke-linecap="round"></path><path d="M 349.868,199.544 C 356.763,179.077 357.328,179.109 366.647,159.574" stroke-width="4.500" stroke="black" fill="none" stroke-linecap="round"></path><path d="M 366.647,159.574 C 374.107,143.935 374.798,144.248 383.426,129.197" stroke-width="4.500" stroke="black" fill="none" stroke-linecap="round"></path><path d="M 383.426,129.197 C 390.378,117.068 390.421,117.083 397.808,105.215" stroke-width="4.500" stroke="black" fill="none" stroke-linecap="round"></path><path d="M 397.808,105.215 C 403.605,95.899 403.936,96.106 409.793,86.828" stroke-width="4.500" stroke="black" fill="none" stroke-linecap="round"></path><path d="M 409.793,86.828 C 413.524,80.918 413.756,81.002 416.984,74.837" stroke-width="4.518" stroke="black" fill="none" stroke-linecap="round"></path><path d="M 416.984,74.837 C 418.151,72.608 419.295,69.613 418.582,70.041" stroke-width="5.926" stroke="black" fill="none" stroke-linecap="round"></path><path d="M 418.582,70.041 C 417.297,70.812 415.306,73.331 412.989,77.236" stroke-width="7.027" stroke="black" fill="none" stroke-linecap="round"></path><path d="M 412.989,77.236 C 407.716,86.121 408.177,86.419 403.401,95.622" stroke-width="4.760" stroke="black" fill="none" stroke-linecap="round"></path><path d="M 403.401,95.622 C 397.390,107.204 397.330,107.173 391.416,118.804" stroke-width="4.500" stroke="black" fill="none" stroke-linecap="round"></path><path d="M 391.416,118.804 C 385.745,129.956 385.986,130.081 380.230,141.188" stroke-width="4.500" stroke="black" fill="none" stroke-linecap="round"></path><path d="M 380.230,141.188 C 374.800,151.665 374.969,151.776 369.044,161.972" stroke-width="4.500" stroke="black" fill="none" stroke-linecap="round"></path><path d="M 369.044,161.972 C 364.981,168.963 364.855,168.913 360.255,175.562" stroke-width="4.500" stroke="black" fill="none" stroke-linecap="round"></path><path d="M 360.255,175.562 C 357.664,179.306 352.695,181.632 354.662,182.757" stroke-width="5.285" stroke="black" fill="none" stroke-linecap="round"></path><path d="M 354.662,182.757 C 358.288,184.830 363.061,182.504 371.441,181.957" stroke-width="6.670" stroke="black" fill="none" stroke-linecap="round"></path><path d="M 371.441,181.957 C 381.438,181.305 381.736,182.671 391.416,180.359" stroke-width="4.663" stroke="black" fill="none" stroke-linecap="round"></path><path d="M 391.416,180.359 C 408.503,176.276 408.884,176.210 424.974,169.167" stroke-width="4.500" stroke="black" fill="none" stroke-linecap="round"></path><path d="M 424.974,169.167 C 434.452,165.018 434.424,164.459 442.552,157.975" stroke-width="4.500" stroke="black" fill="none" stroke-linecap="round"></path><path d="M 442.552,157.975 C 463.987,140.876 464.314,140.949 484.100,122.002" stroke-width="4.500" stroke="black" fill="none" stroke-linecap="round"></path><path d="M 484.100,122.002 C 492.279,114.169 491.514,113.379 498.482,104.415" stroke-width="4.500" stroke="black" fill="none" stroke-linecap="round"></path><path d="M 498.482,104.415 C 502.700,98.990 506.258,93.651 506.472,93.224" stroke-width="4.500" stroke="black" fill="none" stroke-linecap="round"></path><path d="M 506.472,93.224 C 506.658,92.851 502.659,97.868 499.281,102.816" stroke-width="6.298" stroke="black" fill="none" stroke-linecap="round"></path><path d="M 499.281,102.816 C 491.473,114.255 491.706,114.418 484.100,125.999" stroke-width="4.500" stroke="black" fill="none" stroke-linecap="round"></path><path d="M 484.100,125.999 C 473.329,142.397 473.357,142.416 462.527,158.775" stroke-width="4.500" stroke="black" fill="none" stroke-linecap="round"></path><path d="M 462.527,158.775 C 452.982,173.193 453.432,173.521 443.351,187.553" stroke-width="4.500" stroke="black" fill="none" stroke-linecap="round"></path><path d="M 443.351,187.553 C 435.055,199.102 434.767,198.913 425.773,209.936" stroke-width="4.500" stroke="black" fill="none" stroke-linecap="round"></path><path d="M 425.773,209.936 C 418.787,218.498 418.936,218.672 411.391,226.724" stroke-width="4.500" stroke="black" fill="none" stroke-linecap="round"></path><path d="M 411.391,226.724 C 406.950,231.463 402.560,233.497 401.803,235.517" stroke-width="4.537" stroke="black" fill="none" stroke-linecap="round"></path><path d="M 401.803,235.517 C 401.361,236.695 405.527,234.642 408.994,233.119" stroke-width="6.560" stroke="black" fill="none" stroke-linecap="round"></path><path d="M 408.994,233.119 C 421.907,227.447 421.818,227.209 434.562,221.128" stroke-width="4.500" stroke="black" fill="none" stroke-linecap="round"></path><path d="M 434.562,221.128 C 447.786,214.818 447.967,215.151 460.929,208.338" stroke-width="4.500" stroke="black" fill="none" stroke-linecap="round"></path><path d="M 460.929,208.338 C 471.538,202.761 471.639,202.836 481.703,196.347" stroke-width="4.500" stroke="black" fill="none" stroke-linecap="round"></path><path d="M 481.703,196.347 C 489.616,191.244 490.041,191.494 496.884,185.155" stroke-width="4.500" stroke="black" fill="none" stroke-linecap="round"></path><path d="M 496.884,185.155 C 500.828,181.501 501.019,181.129 503.276,176.362" stroke-width="5.029" stroke="black" fill="none" stroke-linecap="round"></path><path d="M 503.276,176.362 C 504.614,173.535 505.749,171.641 504.075,169.966" stroke-width="6.050" stroke="black" fill="none" stroke-linecap="round"></path><path d="M 504.075,169.966 C 501.754,167.644 499.721,168.267 495.286,168.367" stroke-width="6.766" stroke="black" fill="none" stroke-linecap="round"></path><path d="M 495.286,168.367 C 482.143,168.666 481.972,168.713 468.919,170.766" stroke-width="4.500" stroke="black" fill="none" stroke-linecap="round"></path><path d="M 468.919,170.766 C 454.007,173.110 454.074,173.696 439.356,177.161" stroke-width="4.500" stroke="black" fill="none" stroke-linecap="round"></path><path d="M 439.356,177.161 C 426.908,180.091 426.931,180.211 414.587,183.556" stroke-width="4.500" stroke="black" fill="none" stroke-linecap="round"></path><path d="M 414.587,183.556 C 407.755,185.407 407.669,185.234 401.004,187.553" stroke-width="4.500" stroke="black" fill="none" stroke-linecap="round"></path><path d="M 401.004,187.553 C 398.480,188.431 395.858,189.951 396.210,189.951" stroke-width="5.908" stroke="black" fill="none" stroke-linecap="round"></path><path d="M 396.210,189.951 C 396.657,189.951 399.326,188.502 402.602,187.553" stroke-width="6.914" stroke="black" fill="none" stroke-linecap="round"></path><path d="M 402.602,187.553 C 414.507,184.105 414.884,185.263 426.572,181.158" stroke-width="4.500" stroke="black" fill="none" stroke-linecap="round"></path><path d="M 426.572,181.158 C 452.437,172.073 452.114,171.098 477.708,161.173" stroke-width="4.500" stroke="black" fill="none" stroke-linecap="round"></path><path d="M 477.708,161.173 C 503.649,151.113 503.613,151.015 529.643,141.188" stroke-width="4.500" stroke="black" fill="none" stroke-linecap="round"></path></svg>