<svg xmlns="http://www.w3.org/2000/svg" xmlns:xlink="http://www.w3.org/1999/xlink" viewBox="0 0 576 416" width="576" height="416"><path d="M 86.996,53.653 C 83.800,58.850 83.028,58.484 80.604,64.046" stroke-width="7.910" stroke="black" fill="none" stroke-linecap="round"></path><path d="M 80.604,64.046 C 76.236,74.072 76.522,74.291 73.413,84.830" stroke-width="5.169" stroke="black" fill="none" stroke-linecap="round"></path><path d="M 73.413,84.830 C 69.330,98.673 68.934,98.639 66.222,112.809" stroke-width="4.500" stroke="black" fill="none" stroke-linecap="round"></path><path d="M 66.222,112.809 C 61.743,136.211 62.081,136.326 59.031,159.974" stroke-width="4.500" stroke="black" fill="none" stroke-linecap="round"></path><path d="M 59.031,159.974 C 57.287,173.498 58.240,173.614 56.634,187.154" stroke-width="4.500" stroke="black" fill="none" stroke-linecap="round"></path><path d="M 56.634,187.154 C 55.443,197.197 56.247,197.536 53.438,207.139" stroke-width="4.500" stroke="black" fill="none" stroke-linecap="round"></path><path d="M 53.438,207.139 C 51.453,213.923 50.351,213.592 47.046,219.929" stroke-width="4.515" stroke="black" fill="none" stroke-linecap="round"></path><path d="M 47.046,219.929 C 45.557,222.785 46.092,227.120 43.850,225.525" stroke-width="5.757" stroke="black" fill="none" stroke-linecap="round"></path><path d="M 43.850,225.525 C 28.115,214.330 23.781,212.391 11.091,194.348" stroke-width="4.500" stroke="black" fill="none" stroke-linecap="round"></path><path d="M 11.091,194.348 C 1.010,180.015 1.700,178.147 -1.693,160.773" stroke-width="4.500" stroke="black" fill="none" stroke-linecap="round"></path><path d="M -1.693,160.773 C -5.091,143.373 -4.578,142.424 -2.492,124.800" stroke-width="4.500" stroke="black" fill="none" stroke-linecap="round"></path><path d="M -2.492,124.800 C -0.982,112.047 -0.168,111.654 5.498,100.019" stroke-width="4.500" stroke="black" fill="none" stroke-linecap="round"></path><path d="M 5.498,100.019 C 15.013,80.478 14.259,79.269 27.870,62.447" stroke-width="4.500" stroke="black" fill="none" stroke-linecap="round"></path><path d="M 27.870,62.447 C 41.425,45.694 42.387,45.654 59.830,32.869" stroke-width="4.500" stroke="black" fill="none" stroke-linecap="round"></path><path d="M 59.830,32.869 C 76.744,20.472 77.339,20.428 96.584,12.084" stroke-width="4.500" stroke="black" fill="none" stroke-linecap="round"></path><path d="M 96.584,12.084 C 113.294,4.840 113.836,5.104 131.740,1.692" stroke-width="4.500" stroke="black" fill="none" stroke-linecap="round"></path><path d="M 131.740,1.692 C 147.394,-1.291 147.852,-1.563 163.700,-0.706" stroke-width="4.500" stroke="black" fill="none" stroke-linecap="round"></path><path d="M 163.700,-0.706 C 177.415,0.036 178.121,0.206 190.866,4.890" stroke-width="4.500" stroke="black" fill="none" stroke-linecap="round"></path><path d="M 190.866,4.890 C 197.697,7.400 197.639,8.468 202.851,13.683" stroke-width="4.500" stroke="black" fill="none" stroke-linecap="round"></path><path d="M 202.851,13.683 C 210.423,21.259 211.633,21.062 216.434,30.471" stroke-width="4.500" stroke="black" fill="none" stroke-linecap="round"></path><path d="M 216.434,30.471 C 221.221,39.848 222.770,41.039 222.027,51.255" stroke-width="4.500" stroke="black" fill="none" stroke-linecap="round"></path><path d="M 222.027,51.255 C 221.172,63.023 220.414,64.600 213.238,74.438" stroke-width="4.500" stroke="black" fill="none" stroke-linecap="round"></path><path d="M 213.238,74.438 C 198.841,94.177 197.971,94.766 178.881,110.411" stroke-width="4.500" stroke="black" fill="none" stroke-linecap="round"></path><path d="M 178.881,110.411 C 160.418,125.543 158.953,123.974 138.132,135.992" stroke-width="4.500" stroke="black" fill="none" stroke-linecap="round"></path><path d="M 138.132,135.992 C 117.405,147.956 117.198,147.664 95.785,158.375" stroke-width="4.500" stroke="black" fill="none" stroke-linecap="round"></path><path d="M 95.785,158.375 C 77.248,167.649 76.950,167.045 58.232,175.962" stroke-width="4.500" stroke="black" fill="none" stroke-linecap="round"></path><path d="M 58.232,175.962 C 43.391,183.033 43.318,182.899 28.669,190.351" stroke-width="4.500" stroke="black" fill="none" stroke-linecap="round"></path><path d="M 28.669,190.351 C 19.747,194.890 19.086,194.231 11.091,199.944" stroke-width="4.500" stroke="black" fill="none" stroke-linecap="round"></path><path d="M 11.091,199.944 C 7.900,202.225 4.888,203.943 6.297,206.339" stroke-width="5.073" stroke="black" fill="none" stroke-linecap="round"></path><path d="M 6.297,206.339 C 8.883,210.738 12.286,210.868 19.081,213.534" stroke-width="5.899" stroke="black" fill="none" stroke-linecap="round"></path><path d="M 19.081,213.534 C 32.660,218.862 32.802,219.054 47.046,222.328" stroke-width="4.500" stroke="black" fill="none" stroke-linecap="round"></path><path d="M 47.046,222.328 C 62.365,225.849 62.538,225.886 78.207,227.124" stroke-width="4.500" stroke="black" fill="none" stroke-linecap="round"></path><path d="M 78.207,227.124 C 92.900,228.284 93.042,227.978 107.770,227.124" stroke-width="4.500" stroke="black" fill="none" stroke-linecap="round"></path><path d="M 107.770,227.124 C 120.608,226.379 120.705,226.248 133.338,223.926" stroke-width="4.500" stroke="black" fill="none" stroke-linecap="round"></path><path d="M 133.338,223.926 C 140.280,222.651 140.150,221.991 146.921,219.929" stroke-width="4.500" stroke="black" fill="none" stroke-linecap="round"></path><path d="M 146.921,219.929 C 149.338,219.193 152.483,217.818 151.715,218.331" stroke-width="5.916" stroke="black" fill="none" stroke-linecap="round"></path><path d="M 151.715,218.331 C 150.086,219.417 146.874,220.639 142.127,223.127" stroke-width="6.889" stroke="black" fill="none" stroke-linecap="round"></path><path d="M 142.127,223.127 C 138.485,225.036 138.344,224.851 134.936,227.124" stroke-width="6.291" stroke="black" fill="none" stroke-linecap="round"></path><path d="M 134.936,227.124 C 132.351,228.848 128.539,230.158 130.142,231.121" stroke-width="6.492" stroke="black" fill="none" stroke-linecap="round"></path><path d="M 130.142,231.121 C 134.531,233.756 138.596,235.373 146.921,234.319" stroke-width="6.175" stroke="black" fill="none" stroke-linecap="round"></path><path d="M 146.921,234.319 C 170.157,231.376 170.727,230.643 193.263,223.127" stroke-width="4.500" stroke="black" fill="none" stroke-linecap="round"></path><path d="M 193.263,223.127 C 217.468,215.055 217.464,214.405 240.405,203.142" stroke-width="4.500" stroke="black" fill="none" stroke-linecap="round"></path><path d="M 240.405,203.142 C 260.610,193.221 260.138,192.216 279.556,180.759" stroke-width="4.500" stroke="black" fill="none" stroke-linecap="round"></path><path d="M 279.556,180.759 C 291.299,173.829 291.445,173.988 302.727,166.369" stroke-width="4.500" stroke="black" fill="none" stroke-linecap="round"></path><path d="M 302.727,166.369 C 307.425,163.196 307.922,163.323 311.516,159.175" stroke-width="4.500" stroke="black" fill="none" stroke-linecap="round"></path><path d="M 311.516,159.175 C 313.115,157.328 314.865,153.794 313.114,154.378" stroke-width="6.313" stroke="black" fill="none" stroke-linecap="round"></path><path d="M 313.114,154.378 C 304.078,157.392 300.607,159.011 289.943,166.369" stroke-width="6.028" stroke="black" fill="none" stroke-linecap="round"></path><path d="M 289.943,166.369 C 277.436,174.999 277.560,175.561 266.772,186.354" stroke-width="4.500" stroke="black" fill="none" stroke-linecap="round"></path><path d="M 266.772,186.354 C 255.188,197.944 255.214,198.146 245.199,211.136" stroke-width="4.500" stroke="black" fill="none" stroke-linecap="round"></path><path d="M 245.199,211.136 C 233.641,226.125 233.351,226.096 223.625,242.313" stroke-width="4.500" stroke="black" fill="none" stroke-linecap="round"></path><path d="M 223.625,242.313 C 215.373,256.074 215.530,256.334 209.243,271.091" stroke-width="4.500" stroke="black" fill="none" stroke-linecap="round"></path><path d="M 209.243,271.091 C 205.143,280.716 204.448,280.958 202.851,291.076" stroke-width="4.500" stroke="black" fill="none" stroke-linecap="round"></path><path d="M 202.851,291.076 C 202.051,296.147 201.749,298.091 204.449,301.468" stroke-width="4.806" stroke="black" fill="none" stroke-linecap="round"></path><path d="M 204.449,301.468 C 206.543,304.086 208.624,303.885 212.439,303.067" stroke-width="5.701" stroke="black" fill="none" stroke-linecap="round"></path><path d="M 212.439,303.067 C 219.810,301.487 220.365,301.113 226.822,296.672" stroke-width="4.940" stroke="black" fill="none" stroke-linecap="round"></path><path d="M 226.822,296.672 C 252.325,279.129 253.462,279.927 276.360,259.100" stroke-width="4.500" stroke="black" fill="none" stroke-linecap="round"></path><path d="M 276.360,259.100 C 297.407,239.957 296.233,238.507 314.712,216.732" stroke-width="4.500" stroke="black" fill="none" stroke-linecap="round"></path><path d="M 314.712,216.732 C 332.188,196.138 331.153,195.272 348.270,174.363" stroke-width="4.500" stroke="black" fill="none" stroke-linecap="round"></path><path d="M 348.270,174.363 C 365.511,153.303 366.072,153.764 383.426,132.794" stroke-width="4.500" stroke="black" fill="none" stroke-linecap="round"></path><path d="M 383.426,132.794 C 396.834,116.592 397.192,116.829 409.793,100.019" stroke-width="4.500" stroke="black" fill="none" stroke-linecap="round"></path><path d="M 409.793,100.019 C 416.368,91.248 423.136,82.409 421.778,81.633" stroke-width="4.500" stroke="black" fill="none" stroke-linecap="round"></path><path d="M 421.778,81.633 C 420.340,80.810 412.610,88.820 404.200,96.821" stroke-width="5.143" stroke="black" fill="none" stroke-linecap="round"></path><path d="M 404.200,96.821 C 388.241,112.003 388.178,111.990 373.039,127.998" stroke-width="4.500" stroke="black" fill="none" stroke-linecap="round"></path><path d="M 373.039,127.998 C 353.022,149.162 352.235,148.590 333.888,171.166" stroke-width="4.500" stroke="black" fill="none" stroke-linecap="round"></path><path d="M 333.888,171.166 C 317.478,191.358 316.976,191.341 303.526,213.534" stroke-width="4.500" stroke="black" fill="none" stroke-linecap="round"></path><path d="M 303.526,213.534 C 294.205,228.913 293.561,229.347 288.345,246.310" stroke-width="4.500" stroke="black" fill="none" stroke-linecap="round"></path><path d="M 288.345,246.310 C 285.571,255.327 285.367,256.775 287.546,265.495" stroke-width="4.500" stroke="black" fill="none" stroke-linecap="round"></path><path d="M 287.546,265.495 C 288.962,271.165 290.860,271.511 295.536,275.088" stroke-width="4.574" stroke="black" fill="none" stroke-linecap="round"></path><path d="M 295.536,275.088 C 297.652,276.707 298.310,275.888 301.129,275.888" stroke-width="5.960" stroke="black" fill="none" stroke-linecap="round"></path><path d="M 301.129,275.888 C 314.689,275.888 314.732,275.853 328.295,275.088" stroke-width="4.500" stroke="black" fill="none" stroke-linecap="round"></path><path d="M 328.295,275.088 C 343.096,274.254 343.058,273.443 357.858,272.690" stroke-width="4.500" stroke="black" fill="none" stroke-linecap="round"></path><path d="M 357.858,272.690 C 366.629,272.244 366.701,272.144 375.436,272.690" stroke-width="4.500" stroke="black" fill="none" stroke-linecap="round"></path><path d="M 375.436,272.690 C 379.485,272.943 382.022,272.416 383.426,274.289" stroke-width="5.304" stroke="black" fill="none" stroke-linecap="round"></path><path d="M 383.426,274.289 C 384.419,275.614 382.515,277.561 380.230,279.085" stroke-width="6.760" stroke="black" fill="none" stroke-linecap="round"></path><path d="M 380.230,279.085 C 376.522,281.558 375.908,280.922 371.441,282.283" stroke-width="6.151" stroke="black" fill="none" stroke-linecap="round"></path><path d="M 371.441,282.283 C 366.720,283.720 366.682,283.664 361.853,284.681" stroke-width="5.728" stroke="black" fill="none" stroke-linecap="round"></path><path d="M 361.853,284.681 C 359.092,285.263 357.062,287.221 356.260,285.480" stroke-width="6.410" stroke="black" fill="none" stroke-linecap="round"></path><path d="M 356.260,285.480 C 354.665,282.024 354.067,278.819 357.059,274.289" stroke-width="6.656" stroke="black" fill="none" stroke-linecap="round"></path><path d="M 357.059,274.289 C 368.848,256.436 370.331,256.409 385.823,240.714" stroke-width="4.500" stroke="black" fill="none" stroke-linecap="round"></path><path d="M 385.823,240.714 C 401.892,224.433 402.691,225.158 420.180,210.336" stroke-width="4.500" stroke="black" fill="none" stroke-linecap="round"></path><path d="M 420.180,210.336 C 436.648,196.380 436.795,196.539 453.738,183.157" stroke-width="4.500" stroke="black" fill="none" stroke-linecap="round"></path><path d="M 453.738,183.157 C 467.157,172.557 467.351,172.803 480.904,162.372" stroke-width="4.500" stroke="black" fill="none" stroke-linecap="round"></path><path d="M 480.904,162.372 C 488.125,156.815 493.966,149.482 495.286,151.181" stroke-width="4.500" stroke="black" fill="none" stroke-linecap="round"></path><path d="M 495.286,151.181 C 496.762,153.080 489.931,160.006 486.497,169.567" stroke-width="5.533" stroke="black" fill="none" stroke-linecap="round"></path><path d="M 486.497,169.567 C 480.742,185.587 481.094,185.802 476.909,202.342" stroke-width="4.500" stroke="black" fill="none" stroke-linecap="round"></path><path d="M 476.909,202.342 C 473.104,217.378 472.836,217.408 470.517,232.720" stroke-width="4.500" stroke="black" fill="none" stroke-linecap="round"></path><path d="M 470.517,232.720 C 468.841,243.788 467.510,244.298 468.919,255.103" stroke-width="4.500" stroke="black" fill="none" stroke-linecap="round"></path><path d="M 468.919,255.103 C 469.907,262.684 469.980,264.337 475.311,269.492" stroke-width="4.500" stroke="black" fill="none" stroke-linecap="round"></path><path d="M 475.311,269.492 C 481.965,275.928 484.100,273.889 492.889,278.286" stroke-width="4.500" stroke="black" fill="none" stroke-linecap="round"></path></svg>