<svg xmlns="http://www.w3.org/2000/svg" xmlns:xlink="http://www.w3.org/1999/xlink" viewBox="0 0 576 416" width="576" height="416"><path d="M 154.911,145.984 C 147.321,145.185 147.322,145.171 139.730,144.385" stroke-width="7.793" stroke="black" fill="none" stroke-linecap="round"></path><path d="M 139.730,144.385 C 135.737,143.972 135.749,143.715 131.740,143.586" stroke-width="6.439" stroke="black" fill="none" stroke-linecap="round"></path><path d="M 131.740,143.586 C 123.364,143.316 123.351,143.586 114.961,143.586" stroke-width="4.972" stroke="black" fill="none" stroke-linecap="round"></path><path d="M 114.961,143.586 C 106.572,143.586 106.550,143.167 98.182,143.586" stroke-width="4.835" stroke="black" fill="none" stroke-linecap="round"></path><path d="M 98.182,143.586 C 90.570,143.967 90.551,144.106 83.001,145.185" stroke-width="4.770" stroke="black" fill="none" stroke-linecap="round"></path><path d="M 83.001,145.185 C 76.568,146.104 76.584,146.265 70.217,147.583" stroke-width="4.805" stroke="black" fill="none" stroke-linecap="round"></path><path d="M 70.217,147.583 C 64.999,148.663 64.733,148.062 59.830,149.981" stroke-width="5.291" stroke="black" fill="none" stroke-linecap="round"></path><path d="M 59.830,149.981 C 55.544,151.659 55.289,151.788 51.840,154.778" stroke-width="6.364" stroke="black" fill="none" stroke-linecap="round"></path><path d="M 51.840,154.778 C 49.296,156.984 49.273,157.313 47.845,160.373" stroke-width="6.228" stroke="black" fill="none" stroke-linecap="round"></path><path d="M 47.845,160.373 C 46.476,163.308 46.629,163.520 46.247,166.769" stroke-width="6.406" stroke="black" fill="none" stroke-linecap="round"></path><path d="M 46.247,166.769 C 45.830,170.315 46.247,170.366 46.247,173.963" stroke-width="6.266" stroke="black" fill="none" stroke-linecap="round"></path><path d="M 46.247,173.963 C 46.247,179.959 45.889,179.974 46.247,185.954" stroke-width="5.540" stroke="black" fill="none" stroke-linecap="round"></path><path d="M 46.247,185.954 C 47.087,199.959 47.225,199.967 48.644,213.934" stroke-width="4.500" stroke="black" fill="none" stroke-linecap="round"></path><path d="M 48.644,213.934 C 49.622,223.550 49.944,223.515 51.041,233.119" stroke-width="4.500" stroke="black" fill="none" stroke-linecap="round"></path><path d="M 51.041,233.119 C 51.542,237.505 51.649,237.503 51.840,241.913" stroke-width="5.135" stroke="black" fill="none" stroke-linecap="round"></path><path d="M 51.840,241.913 C 52.448,255.890 52.380,255.900 52.639,269.892" stroke-width="4.500" stroke="black" fill="none" stroke-linecap="round"></path><path d="M 52.639,269.892 C 52.780,277.484 52.639,277.486 52.639,285.080" stroke-width="4.500" stroke="black" fill="none" stroke-linecap="round"></path><path d="M 52.639,285.080 C 52.639,291.875 52.639,291.875 52.639,298.670" stroke-width="4.793" stroke="black" fill="none" stroke-linecap="round"></path><path d="M 52.639,298.670 C 52.639,303.866 52.639,303.866 52.639,309.063" stroke-width="5.239" stroke="black" fill="none" stroke-linecap="round"></path><path d="M 52.639,309.063 C 52.639,312.260 52.639,312.260 52.639,315.458" stroke-width="6.086" stroke="black" fill="none" stroke-linecap="round"></path><path d="M 19.880,245.910 C 24.674,245.510 24.680,245.574 29.468,245.110" stroke-width="8.386" stroke="black" fill="none" stroke-linecap="round"></path><path d="M 29.468,245.110 C 37.065,244.375 37.074,244.436 44.649,243.511" stroke-width="5.453" stroke="black" fill="none" stroke-linecap="round"></path><path d="M 44.649,243.511 C 53.453,242.437 53.418,242.138 62.227,241.113" stroke-width="4.674" stroke="black" fill="none" stroke-linecap="round"></path><path d="M 62.227,241.113 C 70.597,240.139 70.644,240.535 79.006,239.514" stroke-width="4.565" stroke="black" fill="none" stroke-linecap="round"></path><path d="M 79.006,239.514 C 87.023,238.536 86.977,238.170 94.986,237.116" stroke-width="4.599" stroke="black" fill="none" stroke-linecap="round"></path><path d="M 94.986,237.116 C 102.158,236.172 102.177,236.317 109.368,235.517" stroke-width="4.780" stroke="black" fill="none" stroke-linecap="round"></path><path d="M 109.368,235.517 C 112.964,235.118 118.357,234.518 116.559,234.718" stroke-width="5.759" stroke="black" fill="none" stroke-linecap="round"></path><path d="M 178.082,213.934 C 174.087,215.532 173.734,214.913 170.092,217.131" stroke-width="8.447" stroke="black" fill="none" stroke-linecap="round"></path><path d="M 170.092,217.131 C 164.546,220.509 164.783,220.986 159.705,225.125" stroke-width="5.772" stroke="black" fill="none" stroke-linecap="round"></path><path d="M 159.705,225.125 C 153.997,229.779 153.600,229.431 148.519,234.718" stroke-width="5.072" stroke="black" fill="none" stroke-linecap="round"></path><path d="M 148.519,234.718 C 143.613,239.823 143.995,240.220 139.730,245.910" stroke-width="4.950" stroke="black" fill="none" stroke-linecap="round"></path><path d="M 139.730,245.910 C 138.003,248.214 137.761,248.116 136.534,250.706" stroke-width="6.009" stroke="black" fill="none" stroke-linecap="round"></path><path d="M 136.534,250.706 C 134.165,255.710 133.612,255.731 132.539,261.098" stroke-width="5.598" stroke="black" fill="none" stroke-linecap="round"></path><path d="M 132.539,261.098 C 131.615,265.723 131.497,266.260 132.539,270.691" stroke-width="5.618" stroke="black" fill="none" stroke-linecap="round"></path><path d="M 132.539,270.691 C 133.095,273.055 133.385,274.100 135.735,274.688" stroke-width="6.469" stroke="black" fill="none" stroke-linecap="round"></path><path d="M 135.735,274.688 C 144.571,276.898 145.564,277.222 154.911,276.287" stroke-width="6.034" stroke="black" fill="none" stroke-linecap="round"></path><path d="M 154.911,276.287 C 161.544,275.623 161.678,274.604 167.695,271.491" stroke-width="5.264" stroke="black" fill="none" stroke-linecap="round"></path><path d="M 167.695,271.491 C 173.264,268.609 173.232,268.305 178.082,264.296" stroke-width="5.193" stroke="black" fill="none" stroke-linecap="round"></path><path d="M 178.082,264.296 C 182.421,260.710 182.427,260.592 186.072,256.302" stroke-width="5.340" stroke="black" fill="none" stroke-linecap="round"></path><path d="M 186.072,256.302 C 189.219,252.598 189.233,252.511 191.665,248.308" stroke-width="5.599" stroke="black" fill="none" stroke-linecap="round"></path><path d="M 191.665,248.308 C 193.628,244.916 193.364,244.752 194.861,241.113" stroke-width="5.975" stroke="black" fill="none" stroke-linecap="round"></path><path d="M 194.861,241.113 C 196.160,237.957 196.060,237.916 197.258,234.718" stroke-width="6.280" stroke="black" fill="none" stroke-linecap="round"></path><path d="M 197.258,234.718 C 198.457,231.520 198.880,228.129 199.655,228.323" stroke-width="7.084" stroke="black" fill="none" stroke-linecap="round"></path><path d="M 199.655,228.323 C 200.478,228.528 200.274,231.908 200.454,235.517" stroke-width="7.841" stroke="black" fill="none" stroke-linecap="round"></path><path d="M 200.454,235.517 C 200.674,239.902 200.454,239.914 200.454,244.311" stroke-width="6.399" stroke="black" fill="none" stroke-linecap="round"></path><path d="M 200.454,244.311 C 200.454,249.107 200.454,249.107 200.454,253.904" stroke-width="5.838" stroke="black" fill="none" stroke-linecap="round"></path><path d="M 200.454,253.904 C 200.454,258.700 200.454,258.700 200.454,263.496" stroke-width="5.779" stroke="black" fill="none" stroke-linecap="round"></path><path d="M 200.454,263.496 C 200.454,267.493 200.454,267.493 200.454,271.491" stroke-width="6.014" stroke="black" fill="none" stroke-linecap="round"></path><path d="M 200.454,271.491 C 200.454,274.288 200.035,274.357 200.454,277.086" stroke-width="6.457" stroke="black" fill="none" stroke-linecap="round"></path><path d="M 250.792,151.580 C 250.392,157.975 250.510,157.985 249.993,164.370" stroke-width="8.184" stroke="black" fill="none" stroke-linecap="round"></path><path d="M 249.993,164.370 C 249.312,172.774 249.157,172.761 248.395,181.158" stroke-width="5.220" stroke="black" fill="none" stroke-linecap="round"></path><path d="M 248.395,181.158 C 247.559,190.348 247.793,190.373 246.797,199.544" stroke-width="4.552" stroke="black" fill="none" stroke-linecap="round"></path><path d="M 246.797,199.544 C 245.795,208.759 245.219,208.704 244.400,217.931" stroke-width="4.500" stroke="black" fill="none" stroke-linecap="round"></path><path d="M 244.400,217.931 C 243.621,226.691 243.815,226.720 243.601,235.517" stroke-width="4.500" stroke="black" fill="none" stroke-linecap="round"></path><path d="M 243.601,235.517 C 243.416,243.108 243.601,243.112 243.601,250.706" stroke-width="4.580" stroke="black" fill="none" stroke-linecap="round"></path><path d="M 243.601,250.706 C 243.601,253.504 243.309,253.528 243.601,256.302" stroke-width="5.921" stroke="black" fill="none" stroke-linecap="round"></path><path d="M 243.601,256.302 C 244.108,261.122 243.741,261.312 245.199,265.895" stroke-width="5.691" stroke="black" fill="none" stroke-linecap="round"></path><path d="M 245.199,265.895 C 246.538,270.106 246.408,270.637 249.194,273.889" stroke-width="5.749" stroke="black" fill="none" stroke-linecap="round"></path><path d="M 249.194,273.889 C 251.202,276.233 251.778,276.284 254.787,277.086" stroke-width="6.272" stroke="black" fill="none" stroke-linecap="round"></path><path d="M 254.787,277.086 C 257.771,277.883 258.054,277.630 261.179,277.086" stroke-width="6.458" stroke="black" fill="none" stroke-linecap="round"></path><path d="M 261.179,277.086 C 267.242,276.031 267.212,275.625 273.164,273.889" stroke-width="5.714" stroke="black" fill="none" stroke-linecap="round"></path><path d="M 273.164,273.889 C 276.800,272.828 276.759,272.690 280.355,271.491" stroke-width="6.134" stroke="black" fill="none" stroke-linecap="round"></path><path d="M 188.469,224.326 C 198.856,222.727 198.826,222.488 209.243,221.128" stroke-width="7.572" stroke="black" fill="none" stroke-linecap="round"></path><path d="M 209.243,221.128 C 217.203,220.089 217.248,220.457 225.223,219.529" stroke-width="5.239" stroke="black" fill="none" stroke-linecap="round"></path><path d="M 225.223,219.529 C 234.427,218.459 234.395,218.178 243.601,217.131" stroke-width="4.549" stroke="black" fill="none" stroke-linecap="round"></path><path d="M 243.601,217.131 C 251.973,216.179 251.994,216.371 260.380,215.532" stroke-width="4.618" stroke="black" fill="none" stroke-linecap="round"></path><path d="M 260.380,215.532 C 267.974,214.772 267.985,214.852 275.561,213.934" stroke-width="4.609" stroke="black" fill="none" stroke-linecap="round"></path><path d="M 275.561,213.934 C 281.168,213.253 281.125,212.736 286.747,212.335" stroke-width="5.140" stroke="black" fill="none" stroke-linecap="round"></path><path d="M 286.747,212.335 C 292.311,211.937 292.413,211.809 297.933,212.335" stroke-width="6.090" stroke="black" fill="none" stroke-linecap="round"></path><path d="M 297.933,212.335 C 300.803,212.608 301.940,211.994 303.526,213.934" stroke-width="7.105" stroke="black" fill="none" stroke-linecap="round"></path><path d="M 303.526,213.934 C 305.535,216.391 304.696,217.490 305.124,221.128" stroke-width="7.332" stroke="black" fill="none" stroke-linecap="round"></path><path d="M 305.124,221.128 C 305.495,224.285 305.124,224.326 305.124,227.523" stroke-width="6.759" stroke="black" fill="none" stroke-linecap="round"></path><path d="M 305.124,227.523 C 305.124,233.119 304.917,233.127 305.124,238.715" stroke-width="5.864" stroke="black" fill="none" stroke-linecap="round"></path><path d="M 305.124,238.715 C 305.316,243.919 305.715,243.904 305.923,249.107" stroke-width="5.568" stroke="black" fill="none" stroke-linecap="round"></path><path d="M 305.923,249.107 C 306.114,253.896 305.705,253.914 305.923,258.700" stroke-width="5.777" stroke="black" fill="none" stroke-linecap="round"></path><path d="M 305.923,258.700 C 306.105,262.708 306.253,262.706 306.722,266.694" stroke-width="6.007" stroke="black" fill="none" stroke-linecap="round"></path><path d="M 306.722,266.694 C 307.052,269.500 306.967,269.522 307.521,272.290" stroke-width="6.443" stroke="black" fill="none" stroke-linecap="round"></path><circle r="3" cx="305.922607421875" cy="173.96331787109375" fill="black"></circle><path d="M 344.275,229.122 C 344.275,234.318 344.275,234.318 344.275,239.514" stroke-width="8.174" stroke="black" fill="none" stroke-linecap="round"></path><path d="M 344.275,239.514 C 344.275,243.911 344.275,243.911 344.275,248.308" stroke-width="6.558" stroke="black" fill="none" stroke-linecap="round"></path><path d="M 344.275,248.308 C 344.275,252.305 344.456,252.312 344.275,256.302" stroke-width="6.246" stroke="black" fill="none" stroke-linecap="round"></path><path d="M 344.275,256.302 C 344.056,261.106 343.476,266.855 343.476,265.895" stroke-width="6.702" stroke="black" fill="none" stroke-linecap="round"></path><path d="M 343.476,265.895 C 343.476,264.457 343.603,258.673 344.275,251.505" stroke-width="7.376" stroke="black" fill="none" stroke-linecap="round"></path><path d="M 344.275,251.505 C 344.802,245.883 344.561,245.781 345.873,240.314" stroke-width="5.876" stroke="black" fill="none" stroke-linecap="round"></path><path d="M 345.873,240.314 C 346.958,235.789 347.333,235.862 349.069,231.520" stroke-width="5.826" stroke="black" fill="none" stroke-linecap="round"></path><path d="M 349.069,231.520 C 350.529,227.868 350.259,227.670 352.265,224.326" stroke-width="6.050" stroke="black" fill="none" stroke-linecap="round"></path><path d="M 352.265,224.326 C 353.855,221.674 353.630,220.845 356.260,219.529" stroke-width="6.479" stroke="black" fill="none" stroke-linecap="round"></path><path d="M 356.260,219.529 C 360.022,217.647 361.549,216.263 365.049,217.931" stroke-width="6.920" stroke="black" fill="none" stroke-linecap="round"></path><path d="M 365.049,217.931 C 369.939,220.260 369.728,222.319 373.039,227.523" stroke-width="6.642" stroke="black" fill="none" stroke-linecap="round"></path><path d="M 373.039,227.523 C 375.321,231.112 374.876,231.440 376.235,235.517" stroke-width="6.244" stroke="black" fill="none" stroke-linecap="round"></path><path d="M 376.235,235.517 C 377.673,239.834 377.473,239.904 378.632,244.311" stroke-width="5.969" stroke="black" fill="none" stroke-linecap="round"></path><path d="M 378.632,244.311 C 379.470,247.498 379.690,247.463 380.230,250.706" stroke-width="6.247" stroke="black" fill="none" stroke-linecap="round"></path><path d="M 380.230,250.706 C 380.888,254.658 380.120,258.018 381.029,258.700" stroke-width="6.936" stroke="black" fill="none" stroke-linecap="round"></path><path d="M 381.029,258.700 C 381.718,259.217 382.323,255.940 383.426,253.104" stroke-width="7.684" stroke="black" fill="none" stroke-linecap="round"></path><path d="M 383.426,253.104 C 385.120,248.746 384.886,248.653 386.622,244.311" stroke-width="6.161" stroke="black" fill="none" stroke-linecap="round"></path><path d="M 386.622,244.311 C 388.881,238.660 388.700,238.554 391.416,233.119" stroke-width="5.489" stroke="black" fill="none" stroke-linecap="round"></path><path d="M 391.416,233.119 C 393.893,228.162 393.937,228.137 397.009,223.526" stroke-width="5.458" stroke="black" fill="none" stroke-linecap="round"></path><path d="M 397.009,223.526 C 399.530,219.743 399.643,219.786 402.602,216.332" stroke-width="5.810" stroke="black" fill="none" stroke-linecap="round"></path><path d="M 402.602,216.332 C 404.437,214.190 404.277,213.812 406.597,212.335" stroke-width="6.374" stroke="black" fill="none" stroke-linecap="round"></path><path d="M 406.597,212.335 C 408.671,211.014 409.035,210.555 411.391,210.736" stroke-width="6.818" stroke="black" fill="none" stroke-linecap="round"></path><path d="M 411.391,210.736 C 414.228,210.954 414.987,211.136 416.984,213.134" stroke-width="7.346" stroke="black" fill="none" stroke-linecap="round"></path><path d="M 416.984,213.134 C 418.982,215.133 418.278,215.894 419.381,218.730" stroke-width="6.827" stroke="black" fill="none" stroke-linecap="round"></path><path d="M 419.381,218.730 C 421.075,223.089 421.217,223.054 422.577,227.523" stroke-width="6.078" stroke="black" fill="none" stroke-linecap="round"></path><path d="M 422.577,227.523 C 424.014,232.247 423.727,232.332 424.974,237.116" stroke-width="5.801" stroke="black" fill="none" stroke-linecap="round"></path><path d="M 424.974,237.116 C 426.124,241.526 425.933,241.593 427.371,245.910" stroke-width="5.922" stroke="black" fill="none" stroke-linecap="round"></path><path d="M 427.371,245.910 C 428.729,249.987 428.969,249.907 430.567,253.904" stroke-width="5.872" stroke="black" fill="none" stroke-linecap="round"></path><path d="M 484.899,212.335 C 478.906,209.537 478.989,207.173 472.914,206.739" stroke-width="8.160" stroke="black" fill="none" stroke-linecap="round"></path><path d="M 472.914,206.739 C 467.803,206.374 467.335,208.042 462.527,210.736" stroke-width="5.930" stroke="black" fill="none" stroke-linecap="round"></path><path d="M 462.527,210.736 C 457.348,213.638 457.012,213.652 452.939,217.931" stroke-width="5.550" stroke="black" fill="none" stroke-linecap="round"></path><path d="M 452.939,217.931 C 449.022,222.045 449.101,222.413 446.547,227.523" stroke-width="5.323" stroke="black" fill="none" stroke-linecap="round"></path><path d="M 446.547,227.523 C 444.307,232.006 444.206,232.199 443.351,237.116" stroke-width="5.543" stroke="black" fill="none" stroke-linecap="round"></path><path d="M 443.351,237.116 C 442.608,241.392 442.230,241.872 443.351,245.910" stroke-width="5.886" stroke="black" fill="none" stroke-linecap="round"></path><path d="M 443.351,245.910 C 444.227,249.067 444.540,250.277 447.346,251.505" stroke-width="6.899" stroke="black" fill="none" stroke-linecap="round"></path><path d="M 447.346,251.505 C 450.932,253.075 452.095,252.516 456.135,251.505" stroke-width="7.043" stroke="black" fill="none" stroke-linecap="round"></path><path d="M 456.135,251.505 C 458.487,250.917 458.559,250.298 460.130,248.308" stroke-width="6.955" stroke="black" fill="none" stroke-linecap="round"></path><path d="M 460.130,248.308 C 464.552,242.704 464.349,242.448 468.120,236.317" stroke-width="5.459" stroke="black" fill="none" stroke-linecap="round"></path><path d="M 468.120,236.317 C 470.741,232.055 470.766,232.037 472.914,227.523" stroke-width="5.682" stroke="black" fill="none" stroke-linecap="round"></path><path d="M 472.914,227.523 C 474.761,223.643 474.623,223.567 476.110,219.529" stroke-width="5.799" stroke="black" fill="none" stroke-linecap="round"></path><path d="M 476.110,219.529 C 477.420,215.973 477.103,215.847 478.507,212.335" stroke-width="6.090" stroke="black" fill="none" stroke-linecap="round"></path><path d="M 478.507,212.335 C 479.500,209.851 479.763,206.825 480.904,207.538" stroke-width="6.657" stroke="black" fill="none" stroke-linecap="round"></path><path d="M 480.904,207.538 C 482.959,208.823 483.544,211.722 484.899,216.332" stroke-width="7.478" stroke="black" fill="none" stroke-linecap="round"></path><path d="M 484.899,216.332 C 487.539,225.312 486.662,225.582 488.894,234.718" stroke-width="4.902" stroke="black" fill="none" stroke-linecap="round"></path><path d="M 488.894,234.718 C 491.056,243.569 490.876,243.648 493.688,252.305" stroke-width="4.500" stroke="black" fill="none" stroke-linecap="round"></path><path d="M 493.688,252.305 C 496.069,259.636 496.298,259.578 499.281,266.694" stroke-width="4.555" stroke="black" fill="none" stroke-linecap="round"></path><path d="M 499.281,266.694 C 501.492,271.969 501.252,272.144 504.075,277.086" stroke-width="5.102" stroke="black" fill="none" stroke-linecap="round"></path><path d="M 504.075,277.086 C 506.046,280.538 505.826,281.374 508.869,283.482" stroke-width="5.844" stroke="black" fill="none" stroke-linecap="round"></path><path d="M 508.869,283.482 C 511.020,284.971 513.040,286.059 514.462,284.281" stroke-width="7.021" stroke="black" fill="none" stroke-linecap="round"></path><path d="M 514.462,284.281 C 517.834,280.064 517.403,278.030 518.457,271.491" stroke-width="6.616" stroke="black" fill="none" stroke-linecap="round"></path><path d="M 518.457,271.491 C 519.400,265.639 519.784,265.254 518.457,259.499" stroke-width="5.618" stroke="black" fill="none" stroke-linecap="round"></path><path d="M 518.457,259.499 C 516.189,249.666 516.653,248.833 511.266,240.314" stroke-width="4.552" stroke="black" fill="none" stroke-linecap="round"></path><path d="M 511.266,240.314 C 504.268,229.247 503.766,228.848 493.688,220.329" stroke-width="4.500" stroke="black" fill="none" stroke-linecap="round"></path><path d="M 493.688,220.329 C 480.595,209.262 480.402,208.542 464.924,201.143" stroke-width="4.500" stroke="black" fill="none" stroke-linecap="round"></path><path d="M 464.924,201.143 C 444.447,191.355 443.883,191.527 421.778,185.954" stroke-width="4.500" stroke="black" fill="none" stroke-linecap="round"></path><path d="M 421.778,185.954 C 393.146,178.737 392.824,179.052 363.451,175.562" stroke-width="4.500" stroke="black" fill="none" stroke-linecap="round"></path><path d="M 363.451,175.562 C 328.904,171.458 328.723,171.140 293.938,170.766" stroke-width="4.500" stroke="black" fill="none" stroke-linecap="round"></path><path d="M 293.938,170.766 C 254.416,170.340 254.176,170.142 214.836,173.963" stroke-width="4.500" stroke="black" fill="none" stroke-linecap="round"></path><path d="M 214.836,173.963 C 171.879,178.136 171.646,178.204 129.343,186.754" stroke-width="4.500" stroke="black" fill="none" stroke-linecap="round"></path><path d="M 129.343,186.754 C 92.545,194.192 92.401,194.587 56.634,205.939" stroke-width="4.500" stroke="black" fill="none" stroke-linecap="round"></path><path d="M 56.634,205.939 C 34.473,212.973 34.158,213.062 13.488,223.526" stroke-width="4.500" stroke="black" fill="none" stroke-linecap="round"></path><path d="M 13.488,223.526 C 0.999,229.849 -0.647,229.676 -9.683,239.514" stroke-width="4.500" stroke="black" fill="none" stroke-linecap="round"></path><path d="M -9.683,239.514 C -14.230,244.465 -17.770,249.491 -13.678,253.104" stroke-width="4.500" stroke="black" fill="none" stroke-linecap="round"></path><path d="M -13.678,253.104 C -4.187,261.482 1.381,260.880 17.483,263.496" stroke-width="4.500" stroke="black" fill="none" stroke-linecap="round"></path><path d="M 17.483,263.496 C 48.123,268.475 48.594,267.204 79.805,268.293" stroke-width="4.500" stroke="black" fill="none" stroke-linecap="round"></path><path d="M 79.805,268.293 C 117.308,269.602 117.372,269.044 154.911,268.293" stroke-width="4.500" stroke="black" fill="none" stroke-linecap="round"></path><path d="M 154.911,268.293 C 197.273,267.445 197.280,267.141 239.605,265.095" stroke-width="4.500" stroke="black" fill="none" stroke-linecap="round"></path><path d="M 239.605,265.095 C 279.977,263.144 279.937,262.329 320.305,260.299" stroke-width="4.500" stroke="black" fill="none" stroke-linecap="round"></path><path d="M 320.305,260.299 C 359.437,258.331 359.457,257.101 398.607,257.101" stroke-width="4.500" stroke="black" fill="none" stroke-linecap="round"></path><path d="M 398.607,257.101 C 435.762,257.101 435.760,258.700 472.914,260.299" stroke-width="4.500" stroke="black" fill="none" stroke-linecap="round"></path></svg>