<svg xmlns="http://www.w3.org/2000/svg" xmlns:xlink="http://www.w3.org/1999/xlink" viewBox="0 0 576 416" width="576" height="416"><path d="M 444.150,222.727 C 444.549,217.930 444.493,217.925 444.949,213.134" stroke-width="8.432" stroke="black" fill="none" stroke-linecap="round"></path><path d="M 444.949,213.134 C 445.292,209.531 445.748,209.537 445.748,205.939" stroke-width="7.668" stroke="black" fill="none" stroke-linecap="round"></path><path d="M 445.748,205.939 C 445.748,202.342 445.348,202.342 444.949,198.745" stroke-width="6.475" stroke="black" fill="none" stroke-linecap="round"></path><path d="M 444.949,198.745 C 444.549,195.148 444.744,195.115 444.150,191.550" stroke-width="6.278" stroke="black" fill="none" stroke-linecap="round"></path><path d="M 444.150,191.550 C 443.545,187.921 443.230,187.975 442.552,184.356" stroke-width="6.196" stroke="black" fill="none" stroke-linecap="round"></path><path d="M 442.552,184.356 C 442.032,181.580 442.273,181.536 441.753,178.760" stroke-width="6.507" stroke="black" fill="none" stroke-linecap="round"></path><path d="M 441.753,178.760 C 441.075,175.140 440.519,171.201 440.155,171.565" stroke-width="7.105" stroke="black" fill="none" stroke-linecap="round"></path><path d="M 440.155,171.565 C 439.720,172.000 440.155,175.962 440.155,180.359" stroke-width="7.786" stroke="black" fill="none" stroke-linecap="round"></path><path d="M 440.155,180.359 C 440.155,185.155 440.155,185.155 440.155,189.951" stroke-width="6.137" stroke="black" fill="none" stroke-linecap="round"></path><path d="M 440.155,189.951 C 440.155,195.547 440.155,195.547 440.155,201.143" stroke-width="5.523" stroke="black" fill="none" stroke-linecap="round"></path><path d="M 440.155,201.143 C 440.155,207.538 440.348,207.544 440.155,213.934" stroke-width="5.147" stroke="black" fill="none" stroke-linecap="round"></path><path d="M 440.155,213.934 C 439.949,220.734 440.149,220.775 439.356,227.523" stroke-width="4.945" stroke="black" fill="none" stroke-linecap="round"></path><path d="M 439.356,227.523 C 438.551,234.364 438.718,234.465 436.959,241.113" stroke-width="5.049" stroke="black" fill="none" stroke-linecap="round"></path><path d="M 436.959,241.113 C 435.122,248.055 435.194,248.210 432.165,254.703" stroke-width="4.825" stroke="black" fill="none" stroke-linecap="round"></path><path d="M 432.165,254.703 C 429.601,260.201 429.446,260.260 425.773,265.095" stroke-width="5.108" stroke="black" fill="none" stroke-linecap="round"></path><path d="M 425.773,265.095 C 421.856,270.252 421.923,270.537 416.984,274.688" stroke-width="5.101" stroke="black" fill="none" stroke-linecap="round"></path><path d="M 416.984,274.688 C 411.935,278.931 411.646,278.762 405.798,281.883" stroke-width="5.065" stroke="black" fill="none" stroke-linecap="round"></path><path d="M 405.798,281.883 C 399.661,285.157 399.577,285.161 393.014,287.479" stroke-width="4.979" stroke="black" fill="none" stroke-linecap="round"></path><path d="M 393.014,287.479 C 385.994,289.958 385.826,289.490 378.632,291.476" stroke-width="4.937" stroke="black" fill="none" stroke-linecap="round"></path><path d="M 378.632,291.476 C 374.241,292.688 374.237,292.675 369.843,293.874" stroke-width="5.470" stroke="black" fill="none" stroke-linecap="round"></path><path d="M 445.748,309.063 C 438.557,308.663 438.548,308.263 431.366,308.263" stroke-width="7.946" stroke="black" fill="none" stroke-linecap="round"></path><path d="M 431.366,308.263 C 427.362,308.263 427.362,308.593 423.376,309.063" stroke-width="6.567" stroke="black" fill="none" stroke-linecap="round"></path><path d="M 423.376,309.063 C 420.571,309.393 420.143,308.590 417.783,309.862" stroke-width="6.698" stroke="black" fill="none" stroke-linecap="round"></path><path d="M 417.783,309.862 C 414.950,311.388 415.037,311.994 412.989,314.658" stroke-width="7.242" stroke="black" fill="none" stroke-linecap="round"></path><path d="M 412.989,314.658 C 411.042,317.190 412.053,318.198 409.793,320.254" stroke-width="7.466" stroke="black" fill="none" stroke-linecap="round"></path><path d="M 409.793,320.254 C 407.658,322.195 406.987,321.432 404.200,322.652" stroke-width="7.533" stroke="black" fill="none" stroke-linecap="round"></path><path d="M 404.200,322.652 C 400.595,324.230 396.000,326.282 397.009,325.850" stroke-width="6.510" stroke="black" fill="none" stroke-linecap="round"></path><path d="M 393.014,202.742 C 396.210,209.936 396.774,209.757 399.406,217.131" stroke-width="8.260" stroke="black" fill="none" stroke-linecap="round"></path><path d="M 399.406,217.131 C 400.769,220.949 400.600,221.089 401.004,225.125" stroke-width="6.505" stroke="black" fill="none" stroke-linecap="round"></path><path d="M 401.004,225.125 C 401.399,229.083 401.442,229.176 401.004,233.119" stroke-width="6.232" stroke="black" fill="none" stroke-linecap="round"></path><path d="M 401.004,233.119 C 400.643,236.371 400.556,236.447 399.406,239.514" stroke-width="6.407" stroke="black" fill="none" stroke-linecap="round"></path><path d="M 399.406,239.514 C 398.159,242.842 398.260,243.038 396.210,245.910" stroke-width="6.499" stroke="black" fill="none" stroke-linecap="round"></path><path d="M 396.210,245.910 C 394.265,248.634 394.303,249.101 391.416,250.706" stroke-width="6.453" stroke="black" fill="none" stroke-linecap="round"></path><path d="M 391.416,250.706 C 387.112,253.098 386.722,252.924 381.828,253.904" stroke-width="6.719" stroke="black" fill="none" stroke-linecap="round"></path><path d="M 381.828,253.904 C 378.732,254.523 378.543,254.452 375.436,253.904" stroke-width="6.593" stroke="black" fill="none" stroke-linecap="round"></path><path d="M 375.436,253.904 C 371.751,253.253 370.767,253.818 368.245,251.505" stroke-width="7.111" stroke="black" fill="none" stroke-linecap="round"></path><path d="M 368.245,251.505 C 365.973,249.422 367.191,248.245 365.848,245.110" stroke-width="7.375" stroke="black" fill="none" stroke-linecap="round"></path><path d="M 365.848,245.110 C 364.793,242.649 365.562,241.634 363.451,240.314" stroke-width="7.650" stroke="black" fill="none" stroke-linecap="round"></path><path d="M 363.451,240.314 C 359.170,237.637 358.353,238.078 353.064,237.116" stroke-width="7.085" stroke="black" fill="none" stroke-linecap="round"></path><path d="M 353.064,237.116 C 349.564,236.479 349.397,236.587 345.873,237.116" stroke-width="6.535" stroke="black" fill="none" stroke-linecap="round"></path><path d="M 345.873,237.116 C 341.407,237.786 341.237,237.765 337.084,239.514" stroke-width="6.047" stroke="black" fill="none" stroke-linecap="round"></path><path d="M 337.084,239.514 C 333.647,240.962 333.288,240.914 330.692,243.511" stroke-width="6.177" stroke="black" fill="none" stroke-linecap="round"></path><path d="M 330.692,243.511 C 328.095,246.110 327.777,246.446 326.697,249.907" stroke-width="6.217" stroke="black" fill="none" stroke-linecap="round"></path><path d="M 326.697,249.907 C 325.780,252.841 326.485,253.119 326.697,256.302" stroke-width="6.440" stroke="black" fill="none" stroke-linecap="round"></path><path d="M 326.697,256.302 C 326.884,259.115 327.166,259.091 327.496,261.898" stroke-width="6.721" stroke="black" fill="none" stroke-linecap="round"></path><path d="M 327.496,261.898 C 327.965,265.886 330.453,267.899 328.295,269.892" stroke-width="7.075" stroke="black" fill="none" stroke-linecap="round"></path><path d="M 328.295,269.892 C 325.259,272.695 322.686,271.671 317.109,271.491" stroke-width="7.277" stroke="black" fill="none" stroke-linecap="round"></path><path d="M 317.109,271.491 C 310.301,271.271 310.187,270.806 303.526,269.092" stroke-width="5.491" stroke="black" fill="none" stroke-linecap="round"></path><path d="M 303.526,269.092 C 296.204,267.209 296.003,267.415 289.144,264.296" stroke-width="4.956" stroke="black" fill="none" stroke-linecap="round"></path><path d="M 289.144,264.296 C 282.819,261.420 282.773,261.206 277.159,257.101" stroke-width="4.944" stroke="black" fill="none" stroke-linecap="round"></path><path d="M 277.159,257.101 C 272.386,253.612 272.055,253.662 268.370,249.107" stroke-width="5.186" stroke="black" fill="none" stroke-linecap="round"></path><path d="M 268.370,249.107 C 265.263,245.268 265.423,244.935 263.576,240.314" stroke-width="5.511" stroke="black" fill="none" stroke-linecap="round"></path><path d="M 263.576,240.314 C 261.428,234.943 261.397,234.821 260.380,229.122" stroke-width="5.392" stroke="black" fill="none" stroke-linecap="round"></path><path d="M 260.380,229.122 C 259.399,223.629 259.781,223.533 259.581,217.931" stroke-width="5.498" stroke="black" fill="none" stroke-linecap="round"></path><path d="M 259.581,217.931 C 259.381,212.342 259.795,212.326 259.581,206.739" stroke-width="5.355" stroke="black" fill="none" stroke-linecap="round"></path><path d="M 259.581,206.739 C 259.396,201.933 259.238,201.937 258.782,197.146" stroke-width="5.623" stroke="black" fill="none" stroke-linecap="round"></path><path d="M 258.782,197.146 C 258.439,193.543 258.382,193.549 257.983,189.951" stroke-width="6.088" stroke="black" fill="none" stroke-linecap="round"></path><path d="M 329.094,288.278 C 334.687,288.278 334.693,288.471 340.280,288.278" stroke-width="8.407" stroke="black" fill="none" stroke-linecap="round"></path><path d="M 340.280,288.278 C 346.279,288.071 346.272,287.878 352.265,287.479" stroke-width="5.938" stroke="black" fill="none" stroke-linecap="round"></path><path d="M 352.265,287.479 C 358.257,287.079 358.252,286.919 364.250,286.679" stroke-width="5.457" stroke="black" fill="none" stroke-linecap="round"></path><path d="M 364.250,286.679 C 368.239,286.520 368.245,286.679 372.240,286.679" stroke-width="5.906" stroke="black" fill="none" stroke-linecap="round"></path><path d="M 252.390,245.910 C 255.586,249.107 255.899,248.844 258.782,252.305" stroke-width="8.114" stroke="black" fill="none" stroke-linecap="round"></path><path d="M 258.782,252.305 C 261.892,256.039 261.900,256.110 264.375,260.299" stroke-width="6.373" stroke="black" fill="none" stroke-linecap="round"></path><path d="M 264.375,260.299 C 267.094,264.903 267.695,264.837 269.169,269.892" stroke-width="5.750" stroke="black" fill="none" stroke-linecap="round"></path><path d="M 269.169,269.892 C 270.491,274.429 270.184,274.723 269.968,279.485" stroke-width="5.747" stroke="black" fill="none" stroke-linecap="round"></path><path d="M 269.968,279.485 C 269.784,283.517 270.263,284.005 268.370,287.479" stroke-width="5.978" stroke="black" fill="none" stroke-linecap="round"></path><path d="M 268.370,287.479 C 265.469,292.798 264.764,292.685 260.380,297.071" stroke-width="5.403" stroke="black" fill="none" stroke-linecap="round"></path><path d="M 260.380,297.071 C 257.573,299.879 257.415,299.836 253.988,301.868" stroke-width="5.887" stroke="black" fill="none" stroke-linecap="round"></path><path d="M 253.988,301.868 C 246.629,306.231 246.843,307.121 238.806,309.862" stroke-width="4.825" stroke="black" fill="none" stroke-linecap="round"></path><path d="M 238.806,309.862 C 229.265,313.116 228.904,312.476 218.832,313.859" stroke-width="4.500" stroke="black" fill="none" stroke-linecap="round"></path><path d="M 218.832,313.859 C 208.529,315.274 208.443,315.458 198.057,315.458" stroke-width="4.500" stroke="black" fill="none" stroke-linecap="round"></path><path d="M 198.057,315.458 C 188.069,315.458 187.957,315.419 178.082,313.859" stroke-width="4.500" stroke="black" fill="none" stroke-linecap="round"></path><path d="M 178.082,313.859 C 165.185,311.821 165.080,311.783 152.514,308.263" stroke-width="4.500" stroke="black" fill="none" stroke-linecap="round"></path><path d="M 152.514,308.263 C 145.105,306.187 144.993,306.100 138.132,302.667" stroke-width="4.500" stroke="black" fill="none" stroke-linecap="round"></path><path d="M 138.132,302.667 C 133.008,300.104 132.655,300.168 128.544,296.272" stroke-width="5.030" stroke="black" fill="none" stroke-linecap="round"></path><path d="M 128.544,296.272 C 125.064,292.974 124.641,292.624 122.951,288.278" stroke-width="5.493" stroke="black" fill="none" stroke-linecap="round"></path><path d="M 122.951,288.278 C 121.844,285.429 121.842,284.547 122.951,281.883" stroke-width="6.186" stroke="black" fill="none" stroke-linecap="round"></path><path d="M 122.951,281.883 C 123.839,279.751 124.616,279.672 126.946,278.685" stroke-width="6.681" stroke="black" fill="none" stroke-linecap="round"></path><path d="M 126.946,278.685 C 135.003,275.275 135.104,274.814 143.725,273.089" stroke-width="4.911" stroke="black" fill="none" stroke-linecap="round"></path><path d="M 143.725,273.089 C 155.079,270.817 155.284,271.099 166.896,270.691" stroke-width="4.500" stroke="black" fill="none" stroke-linecap="round"></path><path d="M 166.896,270.691 C 178.056,270.299 178.154,270.400 189.268,271.491" stroke-width="4.500" stroke="black" fill="none" stroke-linecap="round"></path><path d="M 189.268,271.491 C 198.529,272.399 198.457,273.089 207.645,274.688" stroke-width="4.500" stroke="black" fill="none" stroke-linecap="round"></path><circle r="3" cx="186.87142944335938" cy="241.1131591796875" fill="black"></circle></svg>