<svg xmlns="http://www.w3.org/2000/svg" xmlns:xlink="http://www.w3.org/1999/xlink" viewBox="0 0 576 416" width="576" height="416"><path d="M 162.901,329.448 C 172.090,321.054 172.301,321.275 181.278,312.660" stroke-width="7.285" stroke="black" fill="none" stroke-linecap="round"></path><path d="M 181.278,312.660 C 191.877,302.489 192.193,302.746 202.052,291.876" stroke-width="4.500" stroke="black" fill="none" stroke-linecap="round"></path><path d="M 202.052,291.876 C 211.769,281.162 211.789,281.090 220.429,269.492" stroke-width="4.500" stroke="black" fill="none" stroke-linecap="round"></path><path d="M 220.429,269.492 C 228.168,259.106 228.150,259.017 234.811,247.908" stroke-width="4.500" stroke="black" fill="none" stroke-linecap="round"></path><path d="M 234.811,247.908 C 241.333,237.034 241.126,236.872 246.797,225.525" stroke-width="4.500" stroke="black" fill="none" stroke-linecap="round"></path><path d="M 246.797,225.525 C 249.516,220.084 249.281,219.966 251.591,214.333" stroke-width="4.560" stroke="black" fill="none" stroke-linecap="round"></path><path d="M 251.591,214.333 C 255.673,204.377 256.120,204.520 259.581,194.348" stroke-width="4.500" stroke="black" fill="none" stroke-linecap="round"></path><path d="M 259.581,194.348 C 262.512,185.734 262.217,185.613 264.375,176.762" stroke-width="4.500" stroke="black" fill="none" stroke-linecap="round"></path><path d="M 264.375,176.762 C 266.212,169.225 266.965,169.244 267.571,161.573" stroke-width="4.500" stroke="black" fill="none" stroke-linecap="round"></path><path d="M 267.571,161.573 C 268.164,154.056 268.266,153.562 266.772,146.384" stroke-width="4.632" stroke="black" fill="none" stroke-linecap="round"></path><path d="M 266.772,146.384 C 266.269,143.969 265.583,142.033 263.576,142.387" stroke-width="6.026" stroke="black" fill="none" stroke-linecap="round"></path><path d="M 263.576,142.387 C 258.791,143.232 257.621,144.751 253.189,148.782" stroke-width="6.858" stroke="black" fill="none" stroke-linecap="round"></path><path d="M 253.189,148.782 C 248.832,152.745 249.181,153.317 245.998,158.375" stroke-width="5.670" stroke="black" fill="none" stroke-linecap="round"></path><path d="M 245.998,158.375 C 242.389,164.109 242.320,164.159 239.605,170.366" stroke-width="5.083" stroke="black" fill="none" stroke-linecap="round"></path><path d="M 239.605,170.366 C 236.727,176.949 236.499,176.994 234.811,183.956" stroke-width="5.023" stroke="black" fill="none" stroke-linecap="round"></path><path d="M 234.811,183.956 C 233.303,190.184 233.414,190.333 233.214,196.747" stroke-width="5.090" stroke="black" fill="none" stroke-linecap="round"></path><path d="M 233.214,196.747 C 233.014,203.123 232.600,203.414 234.013,209.537" stroke-width="5.119" stroke="black" fill="none" stroke-linecap="round"></path><path d="M 234.013,209.537 C 234.997,213.807 235.507,213.875 238.008,217.531" stroke-width="5.641" stroke="black" fill="none" stroke-linecap="round"></path><path d="M 238.008,217.531 C 240.700,221.469 240.352,222.613 244.400,224.726" stroke-width="5.715" stroke="black" fill="none" stroke-linecap="round"></path><path d="M 244.400,224.726 C 249.540,227.409 250.476,227.895 256.385,227.124" stroke-width="5.371" stroke="black" fill="none" stroke-linecap="round"></path><path d="M 256.385,227.124 C 268.853,225.497 269.216,224.669 281.154,219.929" stroke-width="4.500" stroke="black" fill="none" stroke-linecap="round"></path><path d="M 281.154,219.929 C 294.385,214.676 294.567,214.559 306.722,207.139" stroke-width="4.500" stroke="black" fill="none" stroke-linecap="round"></path><path d="M 306.722,207.139 C 318.138,200.170 318.020,199.752 328.295,191.151" stroke-width="4.500" stroke="black" fill="none" stroke-linecap="round"></path><path d="M 328.295,191.151 C 337.595,183.365 337.654,183.272 345.873,174.363" stroke-width="4.500" stroke="black" fill="none" stroke-linecap="round"></path><path d="M 345.873,174.363 C 352.036,167.683 351.747,167.368 357.059,159.974" stroke-width="4.500" stroke="black" fill="none" stroke-linecap="round"></path><path d="M 357.059,159.974 C 360.936,154.577 361.759,154.763 364.250,148.782" stroke-width="4.641" stroke="black" fill="none" stroke-linecap="round"></path><path d="M 364.250,148.782 C 365.754,145.170 366.529,143.750 365.049,140.788" stroke-width="5.645" stroke="black" fill="none" stroke-linecap="round"></path><path d="M 365.049,140.788 C 363.732,138.154 361.297,136.836 358.657,137.591" stroke-width="6.768" stroke="black" fill="none" stroke-linecap="round"></path><path d="M 358.657,137.591 C 355.704,138.435 356.184,140.734 353.863,143.986" stroke-width="7.123" stroke="black" fill="none" stroke-linecap="round"></path><path d="M 353.863,143.986 C 348.194,151.926 347.711,151.637 342.677,159.974" stroke-width="4.781" stroke="black" fill="none" stroke-linecap="round"></path><path d="M 342.677,159.974 C 336.126,170.822 335.551,170.690 330.692,182.357" stroke-width="4.500" stroke="black" fill="none" stroke-linecap="round"></path><path d="M 330.692,182.357 C 325.563,194.672 325.796,194.936 322.702,207.938" stroke-width="4.500" stroke="black" fill="none" stroke-linecap="round"></path><path d="M 322.702,207.938 C 319.803,220.117 319.763,220.254 318.707,232.720" stroke-width="4.500" stroke="black" fill="none" stroke-linecap="round"></path><path d="M 318.707,232.720 C 317.765,243.836 318.051,243.954 318.707,255.103" stroke-width="4.500" stroke="black" fill="none" stroke-linecap="round"></path><path d="M 318.707,255.103 C 319.250,264.339 319.292,264.426 321.104,273.489" stroke-width="4.500" stroke="black" fill="none" stroke-linecap="round"></path><path d="M 321.104,273.489 C 322.488,280.414 322.448,280.570 325.099,287.079" stroke-width="4.675" stroke="black" fill="none" stroke-linecap="round"></path><path d="M 325.099,287.079 C 326.843,291.362 326.904,291.623 329.893,295.073" stroke-width="5.417" stroke="black" fill="none" stroke-linecap="round"></path><path d="M 329.893,295.073 C 332.097,297.618 332.519,298.646 335.486,299.070" stroke-width="6.003" stroke="black" fill="none" stroke-linecap="round"></path><path d="M 335.486,299.070 C 338.112,299.446 340.326,298.744 341.079,296.672" stroke-width="7.288" stroke="black" fill="none" stroke-linecap="round"></path><path d="M 341.079,296.672 C 341.924,294.347 340.879,292.789 338.682,290.277" stroke-width="6.658" stroke="black" fill="none" stroke-linecap="round"></path><path d="M 338.682,290.277 C 332.489,283.196 332.137,282.992 324.300,277.486" stroke-width="4.621" stroke="black" fill="none" stroke-linecap="round"></path><path d="M 324.300,277.486 C 313.361,269.802 313.213,269.654 301.129,263.896" stroke-width="4.500" stroke="black" fill="none" stroke-linecap="round"></path><path d="M 301.129,263.896 C 288.044,257.663 287.795,257.917 273.963,253.504" stroke-width="4.500" stroke="black" fill="none" stroke-linecap="round"></path><path d="M 273.963,253.504 C 260.230,249.123 260.016,249.762 245.998,246.310" stroke-width="4.500" stroke="black" fill="none" stroke-linecap="round"></path><path d="M 245.998,246.310 C 234.048,243.367 234.118,242.913 222.027,240.714" stroke-width="4.500" stroke="black" fill="none" stroke-linecap="round"></path><path d="M 222.027,240.714 C 212.145,238.916 212.052,238.533 202.052,238.316" stroke-width="4.500" stroke="black" fill="none" stroke-linecap="round"></path><path d="M 202.052,238.316 C 193.675,238.133 193.540,238.536 185.273,239.914" stroke-width="4.500" stroke="black" fill="none" stroke-linecap="round"></path><path d="M 185.273,239.914 C 181.555,240.534 181.596,240.906 178.082,242.313" stroke-width="5.494" stroke="black" fill="none" stroke-linecap="round"></path><path d="M 178.082,242.313 C 173.606,244.104 173.556,244.065 169.293,246.310" stroke-width="5.664" stroke="black" fill="none" stroke-linecap="round"></path><path d="M 169.293,246.310 C 165.965,248.062 165.825,247.966 162.901,250.307" stroke-width="6.123" stroke="black" fill="none" stroke-linecap="round"></path><path d="M 162.901,250.307 C 159.833,252.763 159.730,252.819 157.308,255.902" stroke-width="6.052" stroke="black" fill="none" stroke-linecap="round"></path><path d="M 157.308,255.902 C 155.336,258.414 155.627,258.656 154.112,261.498" stroke-width="6.376" stroke="black" fill="none" stroke-linecap="round"></path><path d="M 154.112,261.498 C 152.431,264.652 151.967,264.530 150.916,267.894" stroke-width="6.348" stroke="black" fill="none" stroke-linecap="round"></path><path d="M 150.916,267.894 C 149.969,270.925 150.454,271.084 150.117,274.289" stroke-width="6.471" stroke="black" fill="none" stroke-linecap="round"></path><path d="M 150.117,274.289 C 149.655,278.679 149.172,284.254 149.318,283.082" stroke-width="6.078" stroke="black" fill="none" stroke-linecap="round"></path><circle r="3" cx="81.40324401855469" cy="208.73764038085938" fill="black"></circle></svg>