<svg xmlns="http://www.w3.org/2000/svg" xmlns:xlink="http://www.w3.org/1999/xlink" viewBox="0 0 576 416" width="576" height="416"><circle r="3" cx="464.12493896484375" cy="254.70306396484375" fill="black"></circle><path d="M 455.336,269.092 C 454.537,265.095 454.407,265.116 453.738,261.098" stroke-width="8.659" stroke="black" fill="none" stroke-linecap="round"></path><path d="M 453.738,261.098 C 453.209,257.922 453.355,257.898 452.939,254.703" stroke-width="7.047" stroke="black" fill="none" stroke-linecap="round"></path><path d="M 452.939,254.703 C 452.157,248.705 451.742,248.734 451.341,242.712" stroke-width="5.692" stroke="black" fill="none" stroke-linecap="round"></path><path d="M 451.341,242.712 C 450.943,236.743 451.507,236.713 451.341,230.721" stroke-width="5.395" stroke="black" fill="none" stroke-linecap="round"></path><path d="M 451.341,230.721 C 451.108,222.323 450.961,222.326 450.542,213.934" stroke-width="4.756" stroke="black" fill="none" stroke-linecap="round"></path><path d="M 450.542,213.934 C 450.162,206.338 450.326,206.325 449.743,198.745" stroke-width="4.656" stroke="black" fill="none" stroke-linecap="round"></path><path d="M 449.743,198.745 C 449.127,190.737 448.964,190.749 448.145,182.757" stroke-width="4.635" stroke="black" fill="none" stroke-linecap="round"></path><path d="M 448.145,182.757 C 447.366,175.160 447.163,175.177 446.547,167.568" stroke-width="4.878" stroke="black" fill="none" stroke-linecap="round"></path><path d="M 446.547,167.568 C 445.965,160.388 446.464,160.343 445.748,153.179" stroke-width="4.961" stroke="black" fill="none" stroke-linecap="round"></path><path d="M 445.748,153.179 C 444.866,144.355 444.279,144.412 443.351,135.592" stroke-width="4.825" stroke="black" fill="none" stroke-linecap="round"></path><path d="M 443.351,135.592 C 442.681,129.224 442.830,129.201 442.552,122.802" stroke-width="5.877" stroke="black" fill="none" stroke-linecap="round"></path><path d="M 442.552,122.802 C 442.430,120.007 442.897,116.861 442.552,117.206" stroke-width="6.409" stroke="black" fill="none" stroke-linecap="round"></path><path d="M 442.552,117.206 C 442.098,117.660 441.883,120.836 440.954,124.400" stroke-width="7.683" stroke="black" fill="none" stroke-linecap="round"></path><path d="M 440.954,124.400 C 439.486,130.029 439.482,130.035 437.758,135.592" stroke-width="5.767" stroke="black" fill="none" stroke-linecap="round"></path><path d="M 437.758,135.592 C 435.886,141.626 435.635,141.549 433.763,147.583" stroke-width="5.330" stroke="black" fill="none" stroke-linecap="round"></path><path d="M 433.763,147.583 C 432.039,153.140 431.976,153.133 430.567,158.775" stroke-width="5.339" stroke="black" fill="none" stroke-linecap="round"></path><path d="M 430.567,158.775 C 429.579,162.726 429.393,162.735 428.969,166.769" stroke-width="5.760" stroke="black" fill="none" stroke-linecap="round"></path><path d="M 428.969,166.769 C 428.594,170.329 428.206,170.528 428.969,173.963" stroke-width="6.143" stroke="black" fill="none" stroke-linecap="round"></path><path d="M 428.969,173.963 C 429.804,177.722 429.858,178.158 432.165,181.158" stroke-width="6.861" stroke="black" fill="none" stroke-linecap="round"></path><path d="M 432.165,181.158 C 433.853,183.354 434.420,183.011 436.959,184.356" stroke-width="6.688" stroke="black" fill="none" stroke-linecap="round"></path><path d="M 436.959,184.356 C 441.212,186.608 441.353,186.354 445.748,188.353" stroke-width="5.897" stroke="black" fill="none" stroke-linecap="round"></path><path d="M 445.748,188.353 C 450.142,190.351 450.223,190.192 454.537,192.350" stroke-width="5.870" stroke="black" fill="none" stroke-linecap="round"></path><path d="M 454.537,192.350 C 458.213,194.189 458.356,194.027 461.728,196.347" stroke-width="6.005" stroke="black" fill="none" stroke-linecap="round"></path><path d="M 461.728,196.347 C 464.748,198.424 465.133,198.298 467.321,201.143" stroke-width="6.194" stroke="black" fill="none" stroke-linecap="round"></path><path d="M 467.321,201.143 C 469.128,203.494 469.066,203.803 469.718,206.739" stroke-width="6.491" stroke="black" fill="none" stroke-linecap="round"></path><path d="M 469.718,206.739 C 470.664,210.997 471.198,211.273 470.517,215.532" stroke-width="6.083" stroke="black" fill="none" stroke-linecap="round"></path><path d="M 470.517,215.532 C 469.600,221.265 469.336,221.538 466.522,226.724" stroke-width="5.511" stroke="black" fill="none" stroke-linecap="round"></path><path d="M 466.522,226.724 C 461.745,235.528 461.722,235.767 455.336,243.511" stroke-width="4.500" stroke="black" fill="none" stroke-linecap="round"></path><path d="M 455.336,243.511 C 448.538,251.755 448.059,251.451 440.155,258.700" stroke-width="4.500" stroke="black" fill="none" stroke-linecap="round"></path><path d="M 440.155,258.700 C 433.677,264.641 433.626,264.656 426.572,269.892" stroke-width="4.500" stroke="black" fill="none" stroke-linecap="round"></path><path d="M 426.572,269.892 C 421.241,273.849 421.207,273.932 415.386,277.086" stroke-width="4.717" stroke="black" fill="none" stroke-linecap="round"></path><path d="M 415.386,277.086 C 411.619,279.128 411.496,279.560 407.396,280.284" stroke-width="5.533" stroke="black" fill="none" stroke-linecap="round"></path><path d="M 407.396,280.284 C 404.704,280.759 403.726,281.024 401.803,279.485" stroke-width="6.271" stroke="black" fill="none" stroke-linecap="round"></path><path d="M 401.803,279.485 C 399.731,277.826 400.058,276.825 399.406,273.889" stroke-width="7.145" stroke="black" fill="none" stroke-linecap="round"></path><path d="M 399.406,273.889 C 398.460,269.630 398.945,269.497 398.607,265.095" stroke-width="6.244" stroke="black" fill="none" stroke-linecap="round"></path><path d="M 398.607,265.095 C 398.146,259.105 397.979,259.107 397.808,253.104" stroke-width="5.531" stroke="black" fill="none" stroke-linecap="round"></path><path d="M 397.808,253.104 C 397.580,245.118 398.003,245.106 397.808,237.116" stroke-width="4.874" stroke="black" fill="none" stroke-linecap="round"></path><path d="M 397.808,237.116 C 397.603,228.718 397.533,228.714 397.009,220.329" stroke-width="4.625" stroke="black" fill="none" stroke-linecap="round"></path><path d="M 397.009,220.329 C 396.734,215.923 396.618,215.931 396.210,211.535" stroke-width="5.531" stroke="black" fill="none" stroke-linecap="round"></path><path d="M 396.210,211.535 C 395.020,198.744 395.312,198.707 393.813,185.954" stroke-width="4.500" stroke="black" fill="none" stroke-linecap="round"></path><path d="M 393.813,185.954 C 392.915,178.322 392.714,178.343 391.416,170.766" stroke-width="4.500" stroke="black" fill="none" stroke-linecap="round"></path><path d="M 391.416,170.766 C 390.317,164.353 390.088,164.392 389.019,157.975" stroke-width="4.881" stroke="black" fill="none" stroke-linecap="round"></path><path d="M 389.019,157.975 C 388.090,152.401 388.349,152.357 387.421,146.784" stroke-width="5.237" stroke="black" fill="none" stroke-linecap="round"></path><path d="M 387.421,146.784 C 386.751,142.764 386.458,142.812 385.823,138.790" stroke-width="5.802" stroke="black" fill="none" stroke-linecap="round"></path><path d="M 385.823,138.790 C 385.259,135.218 385.560,131.237 385.024,131.595" stroke-width="6.847" stroke="black" fill="none" stroke-linecap="round"></path><path d="M 385.024,131.595 C 384.362,132.037 384.225,135.992 383.426,140.388" stroke-width="7.712" stroke="black" fill="none" stroke-linecap="round"></path><path d="M 383.426,140.388 C 382.627,144.785 382.776,144.817 381.828,149.182" stroke-width="6.245" stroke="black" fill="none" stroke-linecap="round"></path><path d="M 381.828,149.182 C 380.779,154.010 380.731,154.006 379.431,158.775" stroke-width="5.846" stroke="black" fill="none" stroke-linecap="round"></path><path d="M 379.431,158.775 C 378.334,162.800 378.232,162.772 377.034,166.769" stroke-width="5.978" stroke="black" fill="none" stroke-linecap="round"></path><path d="M 377.034,166.769 C 375.835,170.766 375.697,170.730 374.637,174.763" stroke-width="6.019" stroke="black" fill="none" stroke-linecap="round"></path><path d="M 374.637,174.763 C 373.700,178.324 373.717,178.338 373.039,181.957" stroke-width="6.198" stroke="black" fill="none" stroke-linecap="round"></path><path d="M 373.039,181.957 C 372.519,184.733 372.396,184.738 372.240,187.553" stroke-width="6.640" stroke="black" fill="none" stroke-linecap="round"></path><path d="M 372.240,187.553 C 371.997,191.933 370.977,192.557 372.240,196.347" stroke-width="6.960" stroke="black" fill="none" stroke-linecap="round"></path><path d="M 372.240,196.347 C 372.975,198.552 374.073,198.192 376.235,199.544" stroke-width="7.542" stroke="black" fill="none" stroke-linecap="round"></path><path d="M 376.235,199.544 C 380.465,202.189 380.600,201.998 385.024,204.341" stroke-width="7.185" stroke="black" fill="none" stroke-linecap="round"></path><path d="M 385.024,204.341 C 387.392,205.595 387.484,205.425 389.818,206.739" stroke-width="6.788" stroke="black" fill="none" stroke-linecap="round"></path><path d="M 389.818,206.739 C 393.876,209.023 394.255,208.608 397.808,211.535" stroke-width="6.979" stroke="black" fill="none" stroke-linecap="round"></path><path d="M 397.808,211.535 C 401.047,214.204 401.902,214.183 403.401,217.931" stroke-width="7.133" stroke="black" fill="none" stroke-linecap="round"></path><path d="M 403.401,217.931 C 405.098,222.177 405.026,222.897 404.200,227.523" stroke-width="7.049" stroke="black" fill="none" stroke-linecap="round"></path><path d="M 404.200,227.523 C 403.028,234.088 402.514,234.277 399.406,240.314" stroke-width="5.470" stroke="black" fill="none" stroke-linecap="round"></path><path d="M 399.406,240.314 C 395.723,247.467 395.198,247.237 390.617,253.904" stroke-width="4.839" stroke="black" fill="none" stroke-linecap="round"></path><path d="M 390.617,253.904 C 386.409,260.028 386.633,260.251 381.828,265.895" stroke-width="4.812" stroke="black" fill="none" stroke-linecap="round"></path><path d="M 381.828,265.895 C 377.444,271.043 377.147,270.811 372.240,275.488" stroke-width="4.946" stroke="black" fill="none" stroke-linecap="round"></path><path d="M 372.240,275.488 C 368.758,278.805 368.877,279.010 365.049,281.883" stroke-width="5.555" stroke="black" fill="none" stroke-linecap="round"></path><path d="M 365.049,281.883 C 362.485,283.806 362.466,284.516 359.456,285.080" stroke-width="6.131" stroke="black" fill="none" stroke-linecap="round"></path><path d="M 359.456,285.080 C 356.074,285.715 355.307,285.686 352.265,284.281" stroke-width="6.980" stroke="black" fill="none" stroke-linecap="round"></path><path d="M 352.265,284.281 C 350.113,283.287 350.420,282.447 349.069,280.284" stroke-width="6.936" stroke="black" fill="none" stroke-linecap="round"></path><path d="M 349.069,280.284 C 346.425,276.052 346.369,276.030 344.275,271.491" stroke-width="5.993" stroke="black" fill="none" stroke-linecap="round"></path><path d="M 344.275,271.491 C 341.575,265.638 341.464,265.632 339.481,259.499" stroke-width="5.446" stroke="black" fill="none" stroke-linecap="round"></path><path d="M 339.481,259.499 C 337.069,252.042 337.250,251.959 335.486,244.311" stroke-width="4.780" stroke="black" fill="none" stroke-linecap="round"></path><path d="M 335.486,244.311 C 333.654,236.371 333.850,236.324 332.290,228.323" stroke-width="4.648" stroke="black" fill="none" stroke-linecap="round"></path><path d="M 332.290,228.323 C 330.654,219.936 330.729,219.922 329.094,211.535" stroke-width="4.535" stroke="black" fill="none" stroke-linecap="round"></path><path d="M 329.094,211.535 C 327.533,203.534 327.337,203.570 325.898,195.547" stroke-width="4.576" stroke="black" fill="none" stroke-linecap="round"></path><path d="M 325.898,195.547 C 324.540,187.981 325.006,187.890 323.501,180.359" stroke-width="4.680" stroke="black" fill="none" stroke-linecap="round"></path><path d="M 323.501,180.359 C 322.210,173.901 321.802,173.987 320.305,167.568" stroke-width="5.029" stroke="black" fill="none" stroke-linecap="round"></path><path d="M 320.305,167.568 C 319.005,161.996 319.074,161.979 317.908,156.376" stroke-width="5.179" stroke="black" fill="none" stroke-linecap="round"></path><path d="M 317.908,156.376 C 317.077,152.386 317.296,152.330 316.310,148.382" stroke-width="5.780" stroke="black" fill="none" stroke-linecap="round"></path><path d="M 316.310,148.382 C 315.698,145.934 314.938,142.454 314.712,143.586" stroke-width="6.544" stroke="black" fill="none" stroke-linecap="round"></path><path d="M 314.712,143.586 C 314.139,146.451 314.932,149.990 314.712,156.376" stroke-width="7.533" stroke="black" fill="none" stroke-linecap="round"></path><path d="M 314.712,156.376 C 314.532,161.581 314.105,161.565 313.913,166.769" stroke-width="6.050" stroke="black" fill="none" stroke-linecap="round"></path><path d="M 313.913,166.769 C 313.706,172.357 314.112,172.372 313.913,177.960" stroke-width="5.600" stroke="black" fill="none" stroke-linecap="round"></path><path d="M 313.913,177.960 C 313.713,183.563 313.781,183.590 313.114,189.152" stroke-width="5.380" stroke="black" fill="none" stroke-linecap="round"></path><path d="M 313.114,189.152 C 312.582,193.582 312.147,193.525 311.516,197.945" stroke-width="5.733" stroke="black" fill="none" stroke-linecap="round"></path><path d="M 311.516,197.945 C 310.948,201.919 310.939,201.934 310.717,205.939" stroke-width="5.911" stroke="black" fill="none" stroke-linecap="round"></path><path d="M 310.717,205.939 C 310.540,209.128 310.717,209.137 310.717,212.335" stroke-width="6.265" stroke="black" fill="none" stroke-linecap="round"></path><path d="M 310.717,212.335 C 310.717,215.932 309.150,217.290 310.717,219.529" stroke-width="7.012" stroke="black" fill="none" stroke-linecap="round"></path><path d="M 310.717,219.529 C 311.947,221.287 313.513,220.329 316.310,220.329" stroke-width="7.709" stroke="black" fill="none" stroke-linecap="round"></path><path d="M 316.310,220.329 C 319.106,220.329 319.093,219.810 321.903,219.529" stroke-width="7.015" stroke="black" fill="none" stroke-linecap="round"></path><path d="M 321.903,219.529 C 327.083,219.011 327.179,218.461 332.290,218.730" stroke-width="6.927" stroke="black" fill="none" stroke-linecap="round"></path><path d="M 332.290,218.730 C 334.769,218.860 336.817,218.464 337.084,220.329" stroke-width="7.557" stroke="black" fill="none" stroke-linecap="round"></path><path d="M 337.084,220.329 C 337.616,224.060 336.332,225.545 333.888,229.922" stroke-width="7.077" stroke="black" fill="none" stroke-linecap="round"></path><path d="M 333.888,229.922 C 328.742,239.134 328.617,239.298 321.903,247.508" stroke-width="4.597" stroke="black" fill="none" stroke-linecap="round"></path><path d="M 321.903,247.508 C 314.235,256.885 313.807,256.601 305.124,265.095" stroke-width="4.500" stroke="black" fill="none" stroke-linecap="round"></path><path d="M 305.124,265.095 C 295.829,274.188 295.898,274.320 285.948,282.682" stroke-width="4.500" stroke="black" fill="none" stroke-linecap="round"></path><path d="M 285.948,282.682 C 275.923,291.107 275.577,290.698 265.174,298.670" stroke-width="4.500" stroke="black" fill="none" stroke-linecap="round"></path><path d="M 265.174,298.670 C 256.800,305.087 257.084,305.512 248.395,311.461" stroke-width="4.500" stroke="black" fill="none" stroke-linecap="round"></path><path d="M 248.395,311.461 C 241.903,315.904 241.590,315.436 234.811,319.455" stroke-width="4.500" stroke="black" fill="none" stroke-linecap="round"></path><path d="M 234.811,319.455 C 230.803,321.831 229.419,324.724 226.822,324.251" stroke-width="5.292" stroke="black" fill="none" stroke-linecap="round"></path><path d="M 226.822,324.251 C 225.025,323.924 224.905,320.651 226.022,317.856" stroke-width="7.050" stroke="black" fill="none" stroke-linecap="round"></path><path d="M 226.022,317.856 C 228.101,312.657 229.847,313.216 233.214,308.263" stroke-width="5.708" stroke="black" fill="none" stroke-linecap="round"></path><path d="M 233.214,308.263 C 236.639,303.223 235.934,302.692 239.605,297.871" stroke-width="5.372" stroke="black" fill="none" stroke-linecap="round"></path><path d="M 239.605,297.871 C 242.326,294.298 242.925,294.786 245.998,291.476" stroke-width="5.715" stroke="black" fill="none" stroke-linecap="round"></path><path d="M 245.998,291.476 C 248.119,289.190 250.200,287.095 249.993,286.679" stroke-width="6.417" stroke="black" fill="none" stroke-linecap="round"></path><path d="M 249.993,286.679 C 249.801,286.295 247.289,287.924 245.199,289.877" stroke-width="7.615" stroke="black" fill="none" stroke-linecap="round"></path><path d="M 245.199,289.877 C 241.297,293.520 241.803,294.074 238.008,297.871" stroke-width="6.011" stroke="black" fill="none" stroke-linecap="round"></path><path d="M 238.008,297.871 C 234.212,301.668 233.913,301.363 230.017,305.066" stroke-width="5.654" stroke="black" fill="none" stroke-linecap="round"></path><path d="M 230.017,305.066 C 225.923,308.957 226.433,309.631 222.027,313.060" stroke-width="5.565" stroke="black" fill="none" stroke-linecap="round"></path><path d="M 222.027,313.060 C 219.242,315.227 218.283,316.868 215.635,316.257" stroke-width="6.733" stroke="black" fill="none" stroke-linecap="round"></path><path d="M 215.635,316.257 C 213.089,315.669 213.336,313.629 211.640,310.661" stroke-width="7.540" stroke="black" fill="none" stroke-linecap="round"></path><path d="M 211.640,310.661 C 210.140,308.033 210.373,307.891 209.243,305.066" stroke-width="6.877" stroke="black" fill="none" stroke-linecap="round"></path><path d="M 209.243,305.066 C 207.976,301.896 207.982,301.890 206.846,298.670" stroke-width="6.468" stroke="black" fill="none" stroke-linecap="round"></path><path d="M 206.846,298.670 C 205.585,295.095 205.779,295.023 204.449,291.476" stroke-width="6.372" stroke="black" fill="none" stroke-linecap="round"></path><path d="M 204.449,291.476 C 203.382,288.628 203.251,288.678 202.052,285.880" stroke-width="6.475" stroke="black" fill="none" stroke-linecap="round"></path><path d="M 202.052,285.880 C 200.854,283.082 200.930,283.047 199.655,280.284" stroke-width="6.581" stroke="black" fill="none" stroke-linecap="round"></path><path d="M 199.655,280.284 C 198.533,277.851 198.154,277.998 197.258,275.488" stroke-width="6.824" stroke="black" fill="none" stroke-linecap="round"></path><path d="M 197.258,275.488 C 196.157,272.402 195.475,272.252 195.660,269.092" stroke-width="7.309" stroke="black" fill="none" stroke-linecap="round"></path><path d="M 195.660,269.092 C 195.874,265.457 195.918,264.817 198.057,261.898" stroke-width="7.656" stroke="black" fill="none" stroke-linecap="round"></path><path d="M 198.057,261.898 C 200.312,258.821 201.023,259.060 204.449,257.101" stroke-width="7.423" stroke="black" fill="none" stroke-linecap="round"></path><path d="M 204.449,257.101 C 206.616,255.863 209.243,254.966 209.243,255.502" stroke-width="7.933" stroke="black" fill="none" stroke-linecap="round"></path><path d="M 209.243,255.502 C 209.243,256.165 207.005,257.729 204.449,259.499" stroke-width="7.724" stroke="black" fill="none" stroke-linecap="round"></path><path d="M 204.449,259.499 C 201.812,261.327 201.691,261.170 198.856,262.697" stroke-width="6.845" stroke="black" fill="none" stroke-linecap="round"></path><path d="M 198.856,262.697 C 196.498,263.968 196.591,264.317 194.062,265.095" stroke-width="6.843" stroke="black" fill="none" stroke-linecap="round"></path><path d="M 194.062,265.095 C 191.397,265.916 189.029,267.015 188.469,265.895" stroke-width="7.433" stroke="black" fill="none" stroke-linecap="round"></path><path d="M 188.469,265.895 C 187.831,264.617 192.225,260.485 191.665,260.299" stroke-width="7.814" stroke="black" fill="none" stroke-linecap="round"></path><path d="M 191.665,260.299 C 191.026,260.086 189.056,262.963 186.072,265.095" stroke-width="8.211" stroke="black" fill="none" stroke-linecap="round"></path><path d="M 186.072,265.095 C 183.463,266.960 181.112,268.715 180.479,268.293" stroke-width="7.722" stroke="black" fill="none" stroke-linecap="round"></path><path d="M 180.479,268.293 C 179.913,267.915 181.601,265.450 183.675,263.496" stroke-width="7.703" stroke="black" fill="none" stroke-linecap="round"></path><path d="M 183.675,263.496 C 188.393,259.055 188.921,259.564 194.062,255.502" stroke-width="5.869" stroke="black" fill="none" stroke-linecap="round"></path><path d="M 194.062,255.502 C 196.511,253.568 196.326,253.328 198.856,251.505" stroke-width="6.280" stroke="black" fill="none" stroke-linecap="round"></path><path d="M 198.856,251.505 C 206.314,246.133 206.344,246.146 214.037,241.113" stroke-width="4.652" stroke="black" fill="none" stroke-linecap="round"></path><path d="M 214.037,241.113 C 216.731,239.351 220.597,236.734 219.630,237.916" stroke-width="5.823" stroke="black" fill="none" stroke-linecap="round"></path><path d="M 219.630,237.916 C 217.001,241.131 213.955,244.826 206.846,249.907" stroke-width="6.451" stroke="black" fill="none" stroke-linecap="round"></path><path d="M 206.846,249.907 C 185.990,264.811 185.440,264.160 163.700,277.886" stroke-width="4.500" stroke="black" fill="none" stroke-linecap="round"></path><path d="M 163.700,277.886 C 144.291,290.141 144.457,290.457 124.549,301.868" stroke-width="4.500" stroke="black" fill="none" stroke-linecap="round"></path><path d="M 124.549,301.868 C 106.104,312.441 106.050,312.421 86.996,321.853" stroke-width="4.500" stroke="black" fill="none" stroke-linecap="round"></path><path d="M 86.996,321.853 C 68.098,331.207 68.202,331.613 48.644,339.440" stroke-width="4.500" stroke="black" fill="none" stroke-linecap="round"></path><path d="M 48.644,339.440 C 32.247,346.002 32.254,347.062 15.086,350.631" stroke-width="4.500" stroke="black" fill="none" stroke-linecap="round"></path><path d="M 15.086,350.631 C 1.492,353.458 0.812,353.623 -12.879,352.230" stroke-width="4.500" stroke="black" fill="none" stroke-linecap="round"></path><path d="M -12.879,352.230 C -22.759,351.225 -24.303,351.436 -32.055,345.835" stroke-width="4.500" stroke="black" fill="none" stroke-linecap="round"></path><path d="M -32.055,345.835 C -38.685,341.044 -38.649,339.185 -41.643,331.446" stroke-width="4.500" stroke="black" fill="none" stroke-linecap="round"></path><path d="M -41.643,331.446 C -43.443,326.794 -42.248,326.202 -41.643,321.054" stroke-width="5.064" stroke="black" fill="none" stroke-linecap="round"></path><path d="M -41.643,321.054 C -39.851,305.817 -41.171,305.348 -36.849,290.676" stroke-width="4.500" stroke="black" fill="none" stroke-linecap="round"></path><path d="M -36.849,290.676 C -29.985,267.376 -29.912,266.995 -19.271,245.110" stroke-width="4.500" stroke="black" fill="none" stroke-linecap="round"></path><path d="M -19.271,245.110 C -8.339,222.628 -7.455,222.889 6.297,201.942" stroke-width="4.500" stroke="black" fill="none" stroke-linecap="round"></path><path d="M 6.297,201.942 C 19.312,182.119 19.452,182.093 34.262,163.571" stroke-width="4.500" stroke="black" fill="none" stroke-linecap="round"></path><path d="M 34.262,163.571 C 48.216,146.120 48.903,146.657 63.825,129.996" stroke-width="4.500" stroke="black" fill="none" stroke-linecap="round"></path><path d="M 63.825,129.996 C 76.468,115.880 76.467,115.873 89.393,102.017" stroke-width="4.500" stroke="black" fill="none" stroke-linecap="round"></path><path d="M 89.393,102.017 C 98.839,91.891 98.783,91.823 108.569,82.032" stroke-width="4.500" stroke="black" fill="none" stroke-linecap="round"></path><path d="M 108.569,82.032 C 113.964,76.634 114.235,76.911 119.755,71.640" stroke-width="4.500" stroke="black" fill="none" stroke-linecap="round"></path><path d="M 228.419,189.951 C 228.020,194.748 227.839,199.107 227.620,199.544" stroke-width="8.630" stroke="black" fill="none" stroke-linecap="round"></path><path d="M 227.620,199.544 C 227.439,199.907 227.225,195.508 227.620,191.550" stroke-width="8.343" stroke="black" fill="none" stroke-linecap="round"></path><path d="M 227.620,191.550 C 228.024,187.514 227.500,186.994 229.218,183.556" stroke-width="7.584" stroke="black" fill="none" stroke-linecap="round"></path><path d="M 229.218,183.556 C 230.297,181.398 233.445,179.198 233.214,180.359" stroke-width="8.106" stroke="black" fill="none" stroke-linecap="round"></path></svg>