<svg xmlns="http://www.w3.org/2000/svg" xmlns:xlink="http://www.w3.org/1999/xlink" viewBox="0 0 576 416" width="576" height="416"><path d="M 7.895,16.593 C 7.096,11.797 6.984,11.812 6.297,7.000" stroke-width="8.841" stroke="black" fill="none" stroke-linecap="round"></path><path d="M 6.297,7.000 C 5.786,3.418 6.163,3.351 5.498,-0.194" stroke-width="8.147" stroke="black" fill="none" stroke-linecap="round"></path><path d="M 5.498,-0.194 C 4.964,-3.045 4.508,-2.952 3.900,-5.790" stroke-width="7.818" stroke="black" fill="none" stroke-linecap="round"></path><path d="M 3.900,-5.790 C 3.310,-8.548 3.734,-8.643 3.101,-11.386" stroke-width="7.769" stroke="black" fill="none" stroke-linecap="round"></path><path d="M 3.101,-11.386 C 2.535,-13.839 1.996,-13.717 1.503,-16.183" stroke-width="7.771" stroke="black" fill="none" stroke-linecap="round"></path><path d="M 1.503,-16.183 C 0.797,-19.713 1.410,-19.847 0.704,-23.377" stroke-width="7.861" stroke="black" fill="none" stroke-linecap="round"></path><path d="M 0.704,-23.377 C 0.211,-25.843 -0.095,-25.775 -0.894,-28.174" stroke-width="8.215" stroke="black" fill="none" stroke-linecap="round"></path><path d="M -0.894,-28.174 C -1.693,-30.572 -0.820,-31.483 -2.492,-32.970" stroke-width="8.503" stroke="black" fill="none" stroke-linecap="round"></path><path d="M -2.492,-32.970 C -4.416,-34.681 -5.476,-33.364 -8.085,-34.569" stroke-width="8.747" stroke="black" fill="none" stroke-linecap="round"></path><path d="M -8.085,-34.569 C -10.669,-35.762 -10.763,-35.861 -12.879,-37.766" stroke-width="8.427" stroke="black" fill="none" stroke-linecap="round"></path><path d="M -12.879,-37.766 C -14.758,-39.458 -14.477,-39.765 -16.075,-41.763" stroke-width="8.387" stroke="black" fill="none" stroke-linecap="round"></path><path d="M -16.075,-41.763 C -17.673,-43.762 -17.905,-43.613 -19.271,-45.760" stroke-width="8.514" stroke="black" fill="none" stroke-linecap="round"></path><path d="M -19.271,-45.760 C -20.702,-48.010 -22.211,-51.236 -21.668,-50.557" stroke-width="8.818" stroke="black" fill="none" stroke-linecap="round"></path><path d="M -21.668,-50.557 C -20.613,-49.237 -16.068,-36.594 -16.075,-41.763" stroke-width="9.001" stroke="black" fill="none" stroke-linecap="round"></path><path d="M -16.075,-41.763 C -17.666,-1254.592 -17.296,-1266.128 -24.864,-2486.554" stroke-width="5.379" stroke="black" fill="none" stroke-linecap="round"></path><path d="M -24.864,-2486.554 C -24.886,-2490.122 -28.484,-2487.618 -31.256,-2489.752" stroke-width="6.970" stroke="black" fill="none" stroke-linecap="round"></path><path d="M -31.256,-2489.752 C -33.677,-2491.615 -33.752,-2491.848 -35.251,-2494.548" stroke-width="6.892" stroke="black" fill="none" stroke-linecap="round"></path><path d="M 82.202,242.840 C 85.798,238.443 85.400,238.041 89.393,234.046" stroke-width="8.388" stroke="black" fill="none" stroke-linecap="round"></path><path d="M 89.393,234.046 C 92.991,230.447 93.501,230.981 97.383,227.651" stroke-width="6.236" stroke="black" fill="none" stroke-linecap="round"></path><path d="M 97.383,227.651 C 101.890,223.786 101.599,223.437 106.172,219.657" stroke-width="5.548" stroke="black" fill="none" stroke-linecap="round"></path><path d="M 106.172,219.657 C 110.787,215.843 111.042,216.157 115.760,212.462" stroke-width="5.356" stroke="black" fill="none" stroke-linecap="round"></path><path d="M 115.760,212.462 C 120.231,208.962 119.941,208.561 124.549,205.268" stroke-width="5.384" stroke="black" fill="none" stroke-linecap="round"></path><path d="M 124.549,205.268 C 128.330,202.566 128.452,202.702 132.539,200.471" stroke-width="5.677" stroke="black" fill="none" stroke-linecap="round"></path><path d="M 132.539,200.471 C 137.241,197.905 137.285,196.440 142.127,195.675" stroke-width="6.446" stroke="black" fill="none" stroke-linecap="round"></path><path d="M 142.127,195.675 C 144.876,195.241 147.461,195.735 147.720,198.073" stroke-width="7.234" stroke="black" fill="none" stroke-linecap="round"></path><path d="M 147.720,198.073 C 148.260,202.929 146.022,204.192 143.725,210.064" stroke-width="6.749" stroke="black" fill="none" stroke-linecap="round"></path><path d="M 143.725,210.064 C 142.426,213.386 142.127,213.262 140.529,216.459" stroke-width="6.454" stroke="black" fill="none" stroke-linecap="round"></path><path d="M 140.529,216.459 C 139.331,218.858 139.090,218.764 138.132,221.256" stroke-width="6.721" stroke="black" fill="none" stroke-linecap="round"></path><path d="M 138.132,221.256 C 137.093,223.960 135.221,226.195 136.534,226.852" stroke-width="7.368" stroke="black" fill="none" stroke-linecap="round"></path><path d="M 136.534,226.852 C 138.417,227.793 140.829,226.302 144.524,224.453" stroke-width="7.297" stroke="black" fill="none" stroke-linecap="round"></path><path d="M 144.524,224.453 C 150.417,221.506 150.011,220.680 155.710,217.259" stroke-width="5.448" stroke="black" fill="none" stroke-linecap="round"></path><path d="M 155.710,217.259 C 161.996,213.485 162.153,213.748 168.494,210.064" stroke-width="5.001" stroke="black" fill="none" stroke-linecap="round"></path><path d="M 168.494,210.064 C 174.537,206.554 174.451,206.405 180.479,202.869" stroke-width="4.957" stroke="black" fill="none" stroke-linecap="round"></path><path d="M 180.479,202.869 C 186.036,199.610 185.915,199.351 191.665,196.474" stroke-width="5.070" stroke="black" fill="none" stroke-linecap="round"></path><path d="M 191.665,196.474 C 196.302,194.155 196.403,194.326 201.253,192.477" stroke-width="5.421" stroke="black" fill="none" stroke-linecap="round"></path><path d="M 201.253,192.477 C 204.793,191.128 204.782,190.995 208.444,190.079" stroke-width="6.029" stroke="black" fill="none" stroke-linecap="round"></path><path d="M 208.444,190.079 C 211.174,189.396 211.372,188.869 214.037,189.280" stroke-width="6.451" stroke="black" fill="none" stroke-linecap="round"></path><path d="M 214.037,189.280 C 216.566,189.669 218.032,189.598 218.832,191.678" stroke-width="7.324" stroke="black" fill="none" stroke-linecap="round"></path><path d="M 218.832,191.678 C 220.030,194.794 218.692,195.715 218.032,199.672" stroke-width="7.293" stroke="black" fill="none" stroke-linecap="round"></path><path d="M 218.032,199.672 C 217.094,205.308 217.385,205.438 215.635,210.864" stroke-width="5.939" stroke="black" fill="none" stroke-linecap="round"></path><path d="M 215.635,210.864 C 213.390,217.829 213.006,217.732 210.042,224.453" stroke-width="5.007" stroke="black" fill="none" stroke-linecap="round"></path><path d="M 210.042,224.453 C 207.014,231.322 207.006,231.328 203.650,238.043" stroke-width="4.845" stroke="black" fill="none" stroke-linecap="round"></path><path d="M 203.650,238.043 C 200.215,244.918 200.226,244.934 196.459,251.633" stroke-width="4.761" stroke="black" fill="none" stroke-linecap="round"></path><path d="M 196.459,251.633 C 193.035,257.725 192.802,257.593 189.268,263.624" stroke-width="4.884" stroke="black" fill="none" stroke-linecap="round"></path><path d="M 189.268,263.624 C 186.011,269.184 186.251,269.330 182.876,274.816" stroke-width="5.046" stroke="black" fill="none" stroke-linecap="round"></path><path d="M 182.876,274.816 C 179.859,279.722 179.787,279.688 176.484,284.409" stroke-width="5.346" stroke="black" fill="none" stroke-linecap="round"></path><path d="M 176.484,284.409 C 174.194,287.682 173.902,287.485 171.690,290.804" stroke-width="5.789" stroke="black" fill="none" stroke-linecap="round"></path><path d="M 171.690,290.804 C 169.907,293.480 167.424,295.151 168.494,296.400" stroke-width="6.286" stroke="black" fill="none" stroke-linecap="round"></path><path d="M 168.494,296.400 C 169.821,297.949 172.761,297.464 176.484,296.400" stroke-width="7.529" stroke="black" fill="none" stroke-linecap="round"></path><path d="M 176.484,296.400 C 181.150,295.066 181.065,294.298 185.273,291.603" stroke-width="6.119" stroke="black" fill="none" stroke-linecap="round"></path><path d="M 185.273,291.603 C 191.052,287.903 190.770,287.465 196.459,283.609" stroke-width="5.271" stroke="black" fill="none" stroke-linecap="round"></path><path d="M 196.459,283.609 C 203.155,279.071 203.410,279.441 210.042,274.816" stroke-width="4.791" stroke="black" fill="none" stroke-linecap="round"></path><path d="M 210.042,274.816 C 216.594,270.248 216.611,270.238 222.826,265.223" stroke-width="4.683" stroke="black" fill="none" stroke-linecap="round"></path><path d="M 222.826,265.223 C 228.995,260.245 228.721,259.909 234.811,254.831" stroke-width="4.753" stroke="black" fill="none" stroke-linecap="round"></path><path d="M 234.811,254.831 C 240.706,249.916 240.885,250.132 246.797,245.238" stroke-width="4.640" stroke="black" fill="none" stroke-linecap="round"></path><path d="M 246.797,245.238 C 252.471,240.540 252.359,240.406 257.983,235.645" stroke-width="4.765" stroke="black" fill="none" stroke-linecap="round"></path><path d="M 257.983,235.645 C 262.746,231.612 262.958,231.846 267.571,227.651" stroke-width="5.054" stroke="black" fill="none" stroke-linecap="round"></path><path d="M 267.571,227.651 C 271.747,223.852 271.461,223.543 275.561,219.657" stroke-width="5.295" stroke="black" fill="none" stroke-linecap="round"></path><path d="M 275.561,219.657 C 279.051,216.348 278.943,216.175 282.752,213.262" stroke-width="5.604" stroke="black" fill="none" stroke-linecap="round"></path><path d="M 282.752,213.262 C 285.735,210.979 285.862,211.111 289.144,209.265" stroke-width="6.102" stroke="black" fill="none" stroke-linecap="round"></path><path d="M 289.144,209.265 C 292.254,207.514 293.849,205.223 295.536,206.067" stroke-width="6.955" stroke="black" fill="none" stroke-linecap="round"></path><path d="M 295.536,206.067 C 297.045,206.822 296.297,209.417 295.536,212.462" stroke-width="7.653" stroke="black" fill="none" stroke-linecap="round"></path><path d="M 295.536,212.462 C 294.299,217.411 293.744,217.353 291.541,222.055" stroke-width="6.177" stroke="black" fill="none" stroke-linecap="round"></path><path d="M 291.541,222.055 C 287.751,230.143 288.033,230.329 283.551,238.043" stroke-width="4.690" stroke="black" fill="none" stroke-linecap="round"></path><path d="M 283.551,238.043 C 278.046,247.516 277.817,247.415 271.566,256.430" stroke-width="4.500" stroke="black" fill="none" stroke-linecap="round"></path><path d="M 271.566,256.430 C 264.234,267.001 264.198,266.992 256.385,277.214" stroke-width="4.500" stroke="black" fill="none" stroke-linecap="round"></path><path d="M 256.385,277.214 C 248.617,287.377 248.446,287.248 240.405,297.199" stroke-width="4.500" stroke="black" fill="none" stroke-linecap="round"></path><path d="M 240.405,297.199 C 233.265,306.034 233.271,306.040 226.022,314.786" stroke-width="4.500" stroke="black" fill="none" stroke-linecap="round"></path><path d="M 226.022,314.786 C 219.688,322.428 219.659,322.404 213.238,329.975" stroke-width="4.500" stroke="black" fill="none" stroke-linecap="round"></path><path d="M 213.238,329.975 C 208.473,335.594 208.484,335.605 203.650,341.166" stroke-width="4.554" stroke="black" fill="none" stroke-linecap="round"></path><path d="M 203.650,341.166 C 200.494,344.798 200.388,344.708 197.258,348.361" stroke-width="5.328" stroke="black" fill="none" stroke-linecap="round"></path><path d="M 197.258,348.361 C 195.594,350.304 193.143,353.528 194.062,352.358" stroke-width="6.349" stroke="black" fill="none" stroke-linecap="round"></path><path d="M 194.062,352.358 C 197.538,347.933 199.579,344.341 206.047,337.169" stroke-width="6.795" stroke="black" fill="none" stroke-linecap="round"></path><path d="M 206.047,337.169 C 214.361,327.953 214.745,328.282 223.625,319.582" stroke-width="4.500" stroke="black" fill="none" stroke-linecap="round"></path><path d="M 223.625,319.582 C 233.921,309.496 233.918,309.490 244.400,299.597" stroke-width="4.500" stroke="black" fill="none" stroke-linecap="round"></path><path d="M 244.400,299.597 C 255.092,289.505 254.998,289.394 265.973,279.612" stroke-width="4.500" stroke="black" fill="none" stroke-linecap="round"></path><path d="M 265.973,279.612 C 276.971,269.809 276.944,269.759 288.345,260.427" stroke-width="4.500" stroke="black" fill="none" stroke-linecap="round"></path><path d="M 288.345,260.427 C 303.311,248.175 303.216,247.992 318.707,236.444" stroke-width="4.500" stroke="black" fill="none" stroke-linecap="round"></path><path d="M 318.707,236.444 C 323.590,232.804 323.827,233.123 329.094,230.049" stroke-width="4.500" stroke="black" fill="none" stroke-linecap="round"></path><path d="M 329.094,230.049 C 338.209,224.729 337.972,224.193 347.471,219.657" stroke-width="4.500" stroke="black" fill="none" stroke-linecap="round"></path><path d="M 347.471,219.657 C 355.550,215.799 355.724,216.034 364.250,213.262" stroke-width="4.500" stroke="black" fill="none" stroke-linecap="round"></path><path d="M 364.250,213.262 C 371.704,210.838 371.736,210.623 379.431,209.265" stroke-width="4.500" stroke="black" fill="none" stroke-linecap="round"></path><path d="M 379.431,209.265 C 385.319,208.225 385.498,208.027 391.416,208.465" stroke-width="4.895" stroke="black" fill="none" stroke-linecap="round"></path><path d="M 391.416,208.465 C 396.285,208.826 396.788,208.644 401.004,210.864" stroke-width="5.345" stroke="black" fill="none" stroke-linecap="round"></path><path d="M 401.004,210.864 C 404.379,212.641 405.086,213.059 406.597,216.459" stroke-width="5.801" stroke="black" fill="none" stroke-linecap="round"></path><path d="M 406.597,216.459 C 408.282,220.254 407.893,221.025 407.396,225.253" stroke-width="5.886" stroke="black" fill="none" stroke-linecap="round"></path><path d="M 407.396,225.253 C 407.094,227.820 406.482,227.823 404.999,230.049" stroke-width="6.460" stroke="black" fill="none" stroke-linecap="round"></path><path d="M 404.999,230.049 C 400.090,237.416 399.933,237.339 394.612,244.438" stroke-width="4.751" stroke="black" fill="none" stroke-linecap="round"></path><path d="M 394.612,244.438 C 387.948,253.328 388.175,253.534 381.029,262.025" stroke-width="4.500" stroke="black" fill="none" stroke-linecap="round"></path><path d="M 381.029,262.025 C 375.391,268.723 375.116,268.498 369.044,274.816" stroke-width="4.500" stroke="black" fill="none" stroke-linecap="round"></path><path d="M 369.044,274.816 C 365.128,278.890 364.904,278.683 361.054,282.810" stroke-width="4.985" stroke="black" fill="none" stroke-linecap="round"></path><path d="M 361.054,282.810 C 359.311,284.678 356.922,288.055 357.858,286.807" stroke-width="6.197" stroke="black" fill="none" stroke-linecap="round"></path><path d="M 357.858,286.807 C 361.716,281.660 363.568,277.805 370.642,270.019" stroke-width="6.314" stroke="black" fill="none" stroke-linecap="round"></path><path d="M 370.642,270.019 C 379.548,260.218 379.846,260.388 389.818,251.633" stroke-width="4.500" stroke="black" fill="none" stroke-linecap="round"></path><path d="M 389.818,251.633 C 399.421,243.201 399.765,243.588 409.793,235.645" stroke-width="4.500" stroke="black" fill="none" stroke-linecap="round"></path><path d="M 409.793,235.645 C 418.941,228.399 418.591,227.873 428.170,221.256" stroke-width="4.500" stroke="black" fill="none" stroke-linecap="round"></path><path d="M 428.170,221.256 C 435.370,216.282 435.490,216.276 443.351,212.462" stroke-width="4.500" stroke="black" fill="none" stroke-linecap="round"></path><path d="M 443.351,212.462 C 448.673,209.880 448.826,209.956 454.537,208.465" stroke-width="4.913" stroke="black" fill="none" stroke-linecap="round"></path><path d="M 454.537,208.465 C 458.015,207.558 459.241,206.135 461.728,207.666" stroke-width="5.816" stroke="black" fill="none" stroke-linecap="round"></path><path d="M 461.728,207.666 C 464.434,209.332 465.716,211.533 464.924,214.861" stroke-width="6.786" stroke="black" fill="none" stroke-linecap="round"></path><path d="M 464.924,214.861 C 463.718,219.927 461.623,219.912 457.733,224.453" stroke-width="6.693" stroke="black" fill="none" stroke-linecap="round"></path><path d="M 457.733,224.453 C 454.432,228.306 454.335,228.275 450.542,231.648" stroke-width="5.912" stroke="black" fill="none" stroke-linecap="round"></path><path d="M 450.542,231.648 C 447.144,234.670 447.095,234.668 443.351,237.244" stroke-width="5.875" stroke="black" fill="none" stroke-linecap="round"></path><path d="M 443.351,237.244 C 440.703,239.065 437.758,240.980 437.758,240.441" stroke-width="6.382" stroke="black" fill="none" stroke-linecap="round"></path><path d="M 437.758,240.441 C 437.758,239.781 440.333,237.388 443.351,234.846" stroke-width="7.295" stroke="black" fill="none" stroke-linecap="round"></path><path d="M 443.351,234.846 C 447.923,230.993 447.961,230.971 452.939,227.651" stroke-width="5.755" stroke="black" fill="none" stroke-linecap="round"></path><path d="M 452.939,227.651 C 457.549,224.576 457.613,224.620 462.527,222.055" stroke-width="5.534" stroke="black" fill="none" stroke-linecap="round"></path><path d="M 462.527,222.055 C 466.801,219.824 466.784,219.645 471.316,218.058" stroke-width="5.757" stroke="black" fill="none" stroke-linecap="round"></path><path d="M 471.316,218.058 C 474.774,216.847 474.889,217.138 478.507,216.459" stroke-width="6.035" stroke="black" fill="none" stroke-linecap="round"></path><path d="M 478.507,216.459 C 481.281,215.939 481.529,215.066 484.100,215.660" stroke-width="6.522" stroke="black" fill="none" stroke-linecap="round"></path><path d="M 484.100,215.660 C 486.722,216.265 488.328,216.452 488.894,218.858" stroke-width="7.301" stroke="black" fill="none" stroke-linecap="round"></path><path d="M 488.894,218.858 C 489.926,223.247 488.474,224.141 487.296,229.250" stroke-width="7.031" stroke="black" fill="none" stroke-linecap="round"></path><path d="M 487.296,229.250 C 486.077,234.533 485.592,234.417 484.100,239.642" stroke-width="5.770" stroke="black" fill="none" stroke-linecap="round"></path><path d="M 484.100,239.642 C 483.195,242.810 483.301,242.840 482.502,246.037" stroke-width="6.253" stroke="black" fill="none" stroke-linecap="round"></path></svg>