<svg xmlns="http://www.w3.org/2000/svg" xmlns:xlink="http://www.w3.org/1999/xlink" viewBox="0 0 576 416" width="576" height="416"><path d="M 50.242,225.125 C 54.237,221.128 54.396,221.277 58.232,217.131" stroke-width="8.151" stroke="black" fill="none" stroke-linecap="round"></path><path d="M 58.232,217.131 C 64.383,210.485 64.421,210.500 70.217,203.541" stroke-width="4.934" stroke="black" fill="none" stroke-linecap="round"></path><path d="M 70.217,203.541 C 76.406,196.111 76.856,196.375 82.202,188.353" stroke-width="4.501" stroke="black" fill="none" stroke-linecap="round"></path><path d="M 82.202,188.353 C 87.243,180.787 86.581,180.350 90.991,172.365" stroke-width="4.500" stroke="black" fill="none" stroke-linecap="round"></path><path d="M 90.991,172.365 C 94.970,165.161 95.573,165.434 98.981,157.975" stroke-width="4.516" stroke="black" fill="none" stroke-linecap="round"></path><path d="M 98.981,157.975 C 101.965,151.445 101.843,151.290 103.775,144.385" stroke-width="4.759" stroke="black" fill="none" stroke-linecap="round"></path><path d="M 103.775,144.385 C 104.639,141.297 104.414,141.203 104.574,137.990" stroke-width="5.872" stroke="black" fill="none" stroke-linecap="round"></path><path d="M 104.574,137.990 C 104.813,133.209 105.784,132.756 104.574,128.397" stroke-width="5.788" stroke="black" fill="none" stroke-linecap="round"></path><path d="M 104.574,128.397 C 103.787,125.561 103.099,125.281 100.579,123.601" stroke-width="6.252" stroke="black" fill="none" stroke-linecap="round"></path><path d="M 100.579,123.601 C 97.106,121.284 96.764,120.885 92.589,120.403" stroke-width="6.056" stroke="black" fill="none" stroke-linecap="round"></path><path d="M 92.589,120.403 C 86.376,119.686 85.920,119.593 79.805,121.203" stroke-width="5.379" stroke="black" fill="none" stroke-linecap="round"></path><path d="M 79.805,121.203 C 70.739,123.590 70.292,123.712 62.227,128.397" stroke-width="4.638" stroke="black" fill="none" stroke-linecap="round"></path><path d="M 62.227,128.397 C 57.908,130.907 57.565,131.376 55.036,135.592" stroke-width="5.291" stroke="black" fill="none" stroke-linecap="round"></path><path d="M 55.036,135.592 C 52.771,139.370 52.639,140.004 52.639,144.385" stroke-width="5.676" stroke="black" fill="none" stroke-linecap="round"></path><path d="M 52.639,144.385 C 52.639,148.398 52.941,148.886 55.036,152.379" stroke-width="5.924" stroke="black" fill="none" stroke-linecap="round"></path><path d="M 55.036,152.379 C 57.735,156.880 57.980,157.232 62.227,160.373" stroke-width="5.630" stroke="black" fill="none" stroke-linecap="round"></path><path d="M 62.227,160.373 C 67.168,164.027 67.515,164.283 73.413,165.969" stroke-width="5.311" stroke="black" fill="none" stroke-linecap="round"></path><path d="M 73.413,165.969 C 78.701,167.481 79.098,167.338 84.599,166.769" stroke-width="5.389" stroke="black" fill="none" stroke-linecap="round"></path><path d="M 84.599,166.769 C 90.684,166.139 90.801,165.741 96.584,163.571" stroke-width="5.258" stroke="black" fill="none" stroke-linecap="round"></path><path d="M 96.584,163.571 C 103.585,160.945 103.328,160.266 110.167,157.176" stroke-width="4.913" stroke="black" fill="none" stroke-linecap="round"></path><path d="M 110.167,157.176 C 115.712,154.670 115.641,154.437 121.353,152.379" stroke-width="5.141" stroke="black" fill="none" stroke-linecap="round"></path><path d="M 121.353,152.379 C 125.629,150.839 125.754,150.225 130.142,149.981" stroke-width="5.624" stroke="black" fill="none" stroke-linecap="round"></path><path d="M 130.142,149.981 C 132.945,149.825 135.098,150.092 135.735,151.580" stroke-width="6.924" stroke="black" fill="none" stroke-linecap="round"></path><path d="M 135.735,151.580 C 136.296,152.890 134.223,153.652 132.539,155.577" stroke-width="6.919" stroke="black" fill="none" stroke-linecap="round"></path><path d="M 132.539,155.577 C 128.630,160.047 128.644,160.069 124.549,164.370" stroke-width="5.798" stroke="black" fill="none" stroke-linecap="round"></path><path d="M 124.549,164.370 C 120.654,168.463 119.985,167.929 116.559,172.365" stroke-width="5.421" stroke="black" fill="none" stroke-linecap="round"></path><path d="M 116.559,172.365 C 113.194,176.722 112.311,176.769 110.966,181.957" stroke-width="5.437" stroke="black" fill="none" stroke-linecap="round"></path><path d="M 110.966,181.957 C 109.514,187.560 109.744,188.182 110.966,193.948" stroke-width="5.324" stroke="black" fill="none" stroke-linecap="round"></path><path d="M 110.966,193.948 C 112.540,201.372 113.126,201.467 116.559,208.338" stroke-width="4.884" stroke="black" fill="none" stroke-linecap="round"></path><path d="M 116.559,208.338 C 119.518,214.258 119.307,214.837 123.750,219.529" stroke-width="4.998" stroke="black" fill="none" stroke-linecap="round"></path><path d="M 123.750,219.529 C 126.498,222.431 127.170,222.860 130.941,223.526" stroke-width="5.700" stroke="black" fill="none" stroke-linecap="round"></path><path d="M 130.941,223.526 C 133.962,224.060 135.012,223.940 137.333,221.928" stroke-width="6.228" stroke="black" fill="none" stroke-linecap="round"></path><path d="M 137.333,221.928 C 141.005,218.744 140.667,217.806 142.926,213.134" stroke-width="5.760" stroke="black" fill="none" stroke-linecap="round"></path><path d="M 142.926,213.134 C 146.659,205.415 146.009,205.093 149.318,197.146" stroke-width="4.793" stroke="black" fill="none" stroke-linecap="round"></path><path d="M 149.318,197.146 C 152.001,190.703 152.193,190.784 154.911,184.356" stroke-width="4.896" stroke="black" fill="none" stroke-linecap="round"></path><path d="M 154.911,184.356 C 156.588,180.391 157.139,180.480 158.107,176.362" stroke-width="5.604" stroke="black" fill="none" stroke-linecap="round"></path><path d="M 158.107,176.362 C 158.737,173.685 159.499,172.357 158.107,170.766" stroke-width="6.939" stroke="black" fill="none" stroke-linecap="round"></path><path d="M 158.107,170.766 C 156.702,169.159 155.275,169.676 152.514,169.966" stroke-width="6.809" stroke="black" fill="none" stroke-linecap="round"></path><path d="M 152.514,169.966 C 147.685,170.475 147.202,170.133 142.926,172.365" stroke-width="5.986" stroke="black" fill="none" stroke-linecap="round"></path><path d="M 142.926,172.365 C 138.013,174.929 137.520,175.179 134.137,179.559" stroke-width="5.560" stroke="black" fill="none" stroke-linecap="round"></path><path d="M 134.137,179.559 C 130.729,183.972 131.204,184.572 129.343,189.951" stroke-width="5.432" stroke="black" fill="none" stroke-linecap="round"></path><path d="M 129.343,189.951 C 127.609,194.964 127.366,195.091 126.946,200.344" stroke-width="5.501" stroke="black" fill="none" stroke-linecap="round"></path><path d="M 126.946,200.344 C 126.567,205.084 126.873,205.222 127.745,209.936" stroke-width="5.670" stroke="black" fill="none" stroke-linecap="round"></path><path d="M 127.745,209.936 C 128.870,216.014 128.553,216.279 130.941,221.928" stroke-width="5.334" stroke="black" fill="none" stroke-linecap="round"></path><path d="M 130.941,221.928 C 132.947,226.671 133.190,226.860 136.534,230.721" stroke-width="5.504" stroke="black" fill="none" stroke-linecap="round"></path><path d="M 136.534,230.721 C 138.384,232.856 138.744,233.521 141.328,233.919" stroke-width="6.303" stroke="black" fill="none" stroke-linecap="round"></path><path d="M 141.328,233.919 C 143.937,234.320 145.397,234.607 146.921,232.320" stroke-width="6.580" stroke="black" fill="none" stroke-linecap="round"></path><path d="M 146.921,232.320 C 153.387,222.616 152.422,221.257 157.308,209.936" stroke-width="5.561" stroke="black" fill="none" stroke-linecap="round"></path><path d="M 157.308,209.936 C 160.013,203.670 159.946,203.619 162.102,197.146" stroke-width="5.149" stroke="black" fill="none" stroke-linecap="round"></path><path d="M 162.102,197.146 C 163.541,192.827 163.215,192.723 164.499,188.353" stroke-width="5.626" stroke="black" fill="none" stroke-linecap="round"></path><path d="M 164.499,188.353 C 165.212,185.928 166.553,183.100 166.097,183.556" stroke-width="6.484" stroke="black" fill="none" stroke-linecap="round"></path><path d="M 166.097,183.556 C 165.355,184.299 162.779,186.861 162.102,190.751" stroke-width="7.321" stroke="black" fill="none" stroke-linecap="round"></path><path d="M 162.102,190.751 C 161.181,196.054 162.677,196.340 162.901,201.942" stroke-width="5.879" stroke="black" fill="none" stroke-linecap="round"></path><path d="M 162.901,201.942 C 163.077,206.333 162.445,206.395 162.901,210.736" stroke-width="5.916" stroke="black" fill="none" stroke-linecap="round"></path><path d="M 162.901,210.736 C 163.244,213.990 162.740,217.952 164.499,217.131" stroke-width="6.303" stroke="black" fill="none" stroke-linecap="round"></path><path d="M 164.499,217.131 C 168.733,215.155 170.530,211.678 174.886,205.140" stroke-width="6.686" stroke="black" fill="none" stroke-linecap="round"></path><path d="M 174.886,205.140 C 178.520,199.687 177.724,199.163 180.479,193.149" stroke-width="5.459" stroke="black" fill="none" stroke-linecap="round"></path><path d="M 180.479,193.149 C 182.119,189.570 182.178,186.168 183.675,185.954" stroke-width="5.926" stroke="black" fill="none" stroke-linecap="round"></path><path d="M 183.675,185.954 C 184.974,185.769 185.520,189.035 186.072,192.350" stroke-width="7.341" stroke="black" fill="none" stroke-linecap="round"></path><path d="M 186.072,192.350 C 186.719,196.229 186.072,196.347 186.072,200.344" stroke-width="6.443" stroke="black" fill="none" stroke-linecap="round"></path><path d="M 186.072,200.344 C 186.072,203.142 184.818,203.787 186.072,205.939" stroke-width="6.669" stroke="black" fill="none" stroke-linecap="round"></path><path d="M 186.072,205.939 C 187.614,208.584 189.146,207.645 191.665,209.936" stroke-width="7.812" stroke="black" fill="none" stroke-linecap="round"></path><path d="M 191.665,209.936 C 193.541,211.642 192.854,212.473 194.861,213.934" stroke-width="7.164" stroke="black" fill="none" stroke-linecap="round"></path><path d="M 194.861,213.934 C 197.248,215.670 197.525,215.782 200.454,216.332" stroke-width="6.780" stroke="black" fill="none" stroke-linecap="round"></path><path d="M 200.454,216.332 C 203.917,216.981 204.088,216.777 207.645,216.332" stroke-width="6.455" stroke="black" fill="none" stroke-linecap="round"></path><path d="M 207.645,216.332 C 216.872,215.178 216.765,214.079 226.022,213.134" stroke-width="4.771" stroke="black" fill="none" stroke-linecap="round"></path><path d="M 226.022,213.134 C 236.340,212.081 236.617,210.837 246.797,212.335" stroke-width="4.500" stroke="black" fill="none" stroke-linecap="round"></path><path d="M 246.797,212.335 C 263.783,214.834 264.217,215.004 280.355,221.128" stroke-width="4.500" stroke="black" fill="none" stroke-linecap="round"></path><path d="M 280.355,221.128 C 298.974,228.194 298.547,229.508 316.310,238.715" stroke-width="4.500" stroke="black" fill="none" stroke-linecap="round"></path><path d="M 316.310,238.715 C 331.706,246.695 331.626,246.872 346.672,255.502" stroke-width="4.500" stroke="black" fill="none" stroke-linecap="round"></path><path d="M 346.672,255.502 C 361.589,264.059 361.680,263.936 376.235,273.089" stroke-width="4.500" stroke="black" fill="none" stroke-linecap="round"></path><path d="M 376.235,273.089 C 389.645,281.523 389.864,281.286 402.602,290.676" stroke-width="4.500" stroke="black" fill="none" stroke-linecap="round"></path><path d="M 402.602,290.676 C 412.636,298.073 412.443,298.393 421.778,306.664" stroke-width="4.500" stroke="black" fill="none" stroke-linecap="round"></path><path d="M 421.778,306.664 C 426.426,310.783 429.777,312.825 430.567,315.458" stroke-width="4.504" stroke="black" fill="none" stroke-linecap="round"></path><path d="M 430.567,315.458 C 430.976,316.822 427.181,315.733 424.175,314.658" stroke-width="5.752" stroke="black" fill="none" stroke-linecap="round"></path><path d="M 424.175,314.658 C 415.995,311.736 416.280,310.834 408.195,307.464" stroke-width="4.759" stroke="black" fill="none" stroke-linecap="round"></path><path d="M 408.195,307.464 C 397.104,302.840 397.079,302.884 385.823,298.670" stroke-width="4.500" stroke="black" fill="none" stroke-linecap="round"></path><path d="M 385.823,298.670 C 338.352,280.900 338.476,280.536 290.742,263.496" stroke-width="4.500" stroke="black" fill="none" stroke-linecap="round"></path><path d="M 290.742,263.496 C 258.975,252.157 258.884,252.391 226.822,241.913" stroke-width="4.500" stroke="black" fill="none" stroke-linecap="round"></path><path d="M 226.822,241.913 C 198.959,232.806 198.894,232.998 170.891,224.326" stroke-width="4.500" stroke="black" fill="none" stroke-linecap="round"></path><path d="M 170.891,224.326 C 148.557,217.409 148.316,218.129 126.147,210.736" stroke-width="4.500" stroke="black" fill="none" stroke-linecap="round"></path><path d="M 126.147,210.736 C 111.162,205.738 110.522,206.517 96.584,199.544" stroke-width="4.500" stroke="black" fill="none" stroke-linecap="round"></path><path d="M 96.584,199.544 C 91.346,196.924 87.129,196.218 87.795,191.550" stroke-width="4.500" stroke="black" fill="none" stroke-linecap="round"></path><path d="M 87.795,191.550 C 89.126,182.229 94.375,181.674 100.579,171.565" stroke-width="4.890" stroke="black" fill="none" stroke-linecap="round"></path><path d="M 100.579,171.565 C 108.358,158.891 108.506,158.961 115.760,145.984" stroke-width="4.500" stroke="black" fill="none" stroke-linecap="round"></path><path d="M 115.760,145.984 C 121.689,135.379 122.936,135.578 126.946,124.400" stroke-width="4.500" stroke="black" fill="none" stroke-linecap="round"></path><path d="M 126.946,124.400 C 128.529,119.990 124.337,115.268 126.946,114.807" stroke-width="4.923" stroke="black" fill="none" stroke-linecap="round"></path><path d="M 126.946,114.807 C 131.128,114.069 133.264,119.722 140.529,122.002" stroke-width="6.167" stroke="black" fill="none" stroke-linecap="round"></path><path d="M 140.529,122.002 C 153.639,126.117 154.368,123.864 167.695,127.598" stroke-width="4.500" stroke="black" fill="none" stroke-linecap="round"></path><path d="M 167.695,127.598 C 184.330,132.258 186.544,129.511 200.454,138.790" stroke-width="4.500" stroke="black" fill="none" stroke-linecap="round"></path><path d="M 200.454,138.790 C 214.110,147.898 214.061,150.071 222.826,164.370" stroke-width="4.500" stroke="black" fill="none" stroke-linecap="round"></path><path d="M 222.826,164.370 C 232.438,180.049 231.126,181.190 237.208,198.745" stroke-width="4.500" stroke="black" fill="none" stroke-linecap="round"></path><path d="M 237.208,198.745 C 241.513,211.167 240.466,211.520 243.601,224.326" stroke-width="4.500" stroke="black" fill="none" stroke-linecap="round"></path><path d="M 243.601,224.326 C 245.260,231.106 245.199,231.121 246.797,237.916" stroke-width="4.500" stroke="black" fill="none" stroke-linecap="round"></path></svg>