<svg xmlns="http://www.w3.org/2000/svg" xmlns:xlink="http://www.w3.org/1999/xlink" viewBox="0 0 576 416" width="576" height="416"><path d="M 360.255,273.489 C 358.657,268.293 358.721,268.272 357.059,263.097" stroke-width="8.619" stroke="black" fill="none" stroke-linecap="round"></path><path d="M 357.059,263.097 C 355.126,257.081 355.202,257.050 353.064,251.106" stroke-width="5.868" stroke="black" fill="none" stroke-linecap="round"></path><path d="M 353.064,251.106 C 351.607,247.057 351.309,247.167 349.868,243.112" stroke-width="5.942" stroke="black" fill="none" stroke-linecap="round"></path><path d="M 349.868,243.112 C 344.917,229.181 344.809,229.206 340.280,215.133" stroke-width="4.500" stroke="black" fill="none" stroke-linecap="round"></path><path d="M 340.280,215.133 C 337.219,205.624 337.156,205.623 334.687,195.947" stroke-width="4.500" stroke="black" fill="none" stroke-linecap="round"></path><path d="M 334.687,195.947 C 332.362,186.837 332.373,186.811 330.692,177.561" stroke-width="4.500" stroke="black" fill="none" stroke-linecap="round"></path><path d="M 330.692,177.561 C 329.177,169.224 329.181,169.199 328.295,160.773" stroke-width="4.500" stroke="black" fill="none" stroke-linecap="round"></path><path d="M 328.295,160.773 C 327.583,154.010 327.715,153.984 327.496,147.184" stroke-width="4.833" stroke="black" fill="none" stroke-linecap="round"></path><path d="M 327.496,147.184 C 327.315,141.593 327.033,141.542 327.496,135.992" stroke-width="5.234" stroke="black" fill="none" stroke-linecap="round"></path><path d="M 327.496,135.992 C 327.832,131.949 327.950,131.888 329.094,127.998" stroke-width="5.801" stroke="black" fill="none" stroke-linecap="round"></path><path d="M 329.094,127.998 C 329.948,125.093 329.286,124.136 331.491,122.402" stroke-width="6.355" stroke="black" fill="none" stroke-linecap="round"></path><path d="M 331.491,122.402 C 334.879,119.739 335.743,119.994 340.280,119.204" stroke-width="6.832" stroke="black" fill="none" stroke-linecap="round"></path><path d="M 340.280,119.204 C 344.931,118.395 345.087,118.915 349.868,119.204" stroke-width="6.040" stroke="black" fill="none" stroke-linecap="round"></path><path d="M 349.868,119.204 C 358.271,119.714 358.281,119.799 366.647,120.803" stroke-width="4.889" stroke="black" fill="none" stroke-linecap="round"></path><path d="M 366.647,120.803 C 378.256,122.197 378.265,122.203 389.818,124.001" stroke-width="4.500" stroke="black" fill="none" stroke-linecap="round"></path><path d="M 389.818,124.001 C 396.242,125.001 396.478,124.286 402.602,126.399" stroke-width="4.736" stroke="black" fill="none" stroke-linecap="round"></path><path d="M 402.602,126.399 C 419.649,132.280 419.823,132.283 436.160,139.989" stroke-width="4.500" stroke="black" fill="none" stroke-linecap="round"></path><path d="M 436.160,139.989 C 447.788,145.474 447.666,145.913 458.532,152.779" stroke-width="4.500" stroke="black" fill="none" stroke-linecap="round"></path><path d="M 458.532,152.779 C 462.847,155.506 462.914,155.564 466.522,159.175" stroke-width="4.741" stroke="black" fill="none" stroke-linecap="round"></path><path d="M 466.522,159.175 C 475.298,167.955 476.198,167.613 483.301,177.561" stroke-width="4.500" stroke="black" fill="none" stroke-linecap="round"></path><path d="M 483.301,177.561 C 486.186,181.602 486.497,182.379 486.497,187.154" stroke-width="4.987" stroke="black" fill="none" stroke-linecap="round"></path><path d="M 486.497,187.154 C 486.497,191.572 485.625,192.071 483.301,195.947" stroke-width="5.533" stroke="black" fill="none" stroke-linecap="round"></path><path d="M 483.301,195.947 C 482.030,198.067 481.517,197.880 479.306,199.145" stroke-width="6.435" stroke="black" fill="none" stroke-linecap="round"></path><path d="M 479.306,199.145 C 473.128,202.677 473.120,202.832 466.522,205.540" stroke-width="5.269" stroke="black" fill="none" stroke-linecap="round"></path><path d="M 466.522,205.540 C 457.540,209.227 457.524,209.446 448.145,211.935" stroke-width="4.500" stroke="black" fill="none" stroke-linecap="round"></path><path d="M 448.145,211.935 C 437.948,214.642 437.814,214.293 427.371,215.932" stroke-width="4.500" stroke="black" fill="none" stroke-linecap="round"></path><path d="M 427.371,215.932 C 417.439,217.491 417.418,217.717 407.396,218.331" stroke-width="4.500" stroke="black" fill="none" stroke-linecap="round"></path><path d="M 407.396,218.331 C 397.843,218.916 397.751,219.012 388.220,218.331" stroke-width="4.500" stroke="black" fill="none" stroke-linecap="round"></path><path d="M 388.220,218.331 C 380.972,217.813 380.744,218.005 373.838,215.932" stroke-width="4.631" stroke="black" fill="none" stroke-linecap="round"></path><path d="M 373.838,215.932 C 368.759,214.408 368.369,214.342 364.250,211.136" stroke-width="5.219" stroke="black" fill="none" stroke-linecap="round"></path><path d="M 364.250,211.136 C 361.178,208.746 360.042,208.260 359.456,204.741" stroke-width="5.820" stroke="black" fill="none" stroke-linecap="round"></path><path d="M 359.456,204.741 C 358.844,201.066 359.869,200.275 361.853,196.747" stroke-width="5.970" stroke="black" fill="none" stroke-linecap="round"></path><path d="M 361.853,196.747 C 363.465,193.880 363.819,193.751 366.647,191.950" stroke-width="6.287" stroke="black" fill="none" stroke-linecap="round"></path><path d="M 366.647,191.950 C 372.608,188.155 372.816,188.202 379.431,185.555" stroke-width="5.239" stroke="black" fill="none" stroke-linecap="round"></path><path d="M 379.431,185.555 C 386.798,182.606 386.876,182.479 394.612,180.759" stroke-width="4.810" stroke="black" fill="none" stroke-linecap="round"></path><path d="M 394.612,180.759 C 401.258,179.281 401.394,179.394 408.195,179.160" stroke-width="4.933" stroke="black" fill="none" stroke-linecap="round"></path><path d="M 408.195,179.160 C 412.979,178.995 414.116,178.125 417.783,179.959" stroke-width="5.476" stroke="black" fill="none" stroke-linecap="round"></path><path d="M 417.783,179.959 C 419.709,180.923 420.160,182.730 419.381,184.756" stroke-width="6.423" stroke="black" fill="none" stroke-linecap="round"></path><path d="M 419.381,184.756 C 418.162,187.926 417.062,188.168 413.788,190.351" stroke-width="6.223" stroke="black" fill="none" stroke-linecap="round"></path><path d="M 413.788,190.351 C 401.481,198.560 401.433,198.765 388.220,205.540" stroke-width="4.500" stroke="black" fill="none" stroke-linecap="round"></path><path d="M 388.220,205.540 C 369.473,215.152 369.453,215.370 349.868,223.127" stroke-width="4.500" stroke="black" fill="none" stroke-linecap="round"></path><path d="M 349.868,223.127 C 331.101,230.559 330.916,230.310 311.516,235.917" stroke-width="4.500" stroke="black" fill="none" stroke-linecap="round"></path><path d="M 311.516,235.917 C 294.961,240.702 294.938,241.298 277.958,243.911" stroke-width="4.500" stroke="black" fill="none" stroke-linecap="round"></path><path d="M 277.958,243.911 C 263.777,246.094 263.549,245.735 249.194,245.510" stroke-width="4.500" stroke="black" fill="none" stroke-linecap="round"></path><path d="M 249.194,245.510 C 237.981,245.335 237.475,246.060 226.822,243.112" stroke-width="4.500" stroke="black" fill="none" stroke-linecap="round"></path><path d="M 226.822,243.112 C 218.698,240.864 218.062,240.472 211.640,235.118" stroke-width="4.500" stroke="black" fill="none" stroke-linecap="round"></path><path d="M 211.640,235.118 C 206.076,230.479 205.674,229.785 202.851,223.127" stroke-width="4.570" stroke="black" fill="none" stroke-linecap="round"></path><path d="M 202.851,223.127 C 200.081,216.594 200.740,215.881 200.454,208.738" stroke-width="4.758" stroke="black" fill="none" stroke-linecap="round"></path><path d="M 200.454,208.738 C 200.341,205.888 201.133,205.901 202.052,203.142" stroke-width="6.025" stroke="black" fill="none" stroke-linecap="round"></path><path d="M 202.052,203.142 C 203.530,198.706 203.704,198.764 205.248,194.348" stroke-width="5.779" stroke="black" fill="none" stroke-linecap="round"></path><path d="M 205.248,194.348 C 206.500,190.770 208.532,188.484 207.645,187.154" stroke-width="6.083" stroke="black" fill="none" stroke-linecap="round"></path><path d="M 207.645,187.154 C 206.934,186.086 204.208,187.467 202.052,189.552" stroke-width="7.333" stroke="black" fill="none" stroke-linecap="round"></path><path d="M 202.052,189.552 C 192.223,199.058 192.529,199.666 183.675,210.336" stroke-width="4.500" stroke="black" fill="none" stroke-linecap="round"></path><path d="M 183.675,210.336 C 174.951,220.851 174.874,220.835 166.896,231.920" stroke-width="4.500" stroke="black" fill="none" stroke-linecap="round"></path><path d="M 166.896,231.920 C 160.492,240.820 160.475,240.868 154.911,250.307" stroke-width="4.500" stroke="black" fill="none" stroke-linecap="round"></path><path d="M 154.911,250.307 C 151.287,256.456 150.310,256.443 148.519,263.097" stroke-width="4.503" stroke="black" fill="none" stroke-linecap="round"></path><path d="M 148.519,263.097 C 147.513,266.836 146.512,269.754 149.318,271.091" stroke-width="5.520" stroke="black" fill="none" stroke-linecap="round"></path><path d="M 149.318,271.091 C 154.901,273.751 157.322,271.357 165.298,271.091" stroke-width="5.965" stroke="black" fill="none" stroke-linecap="round"></path><path d="M 165.298,271.091 C 169.307,270.957 169.311,270.830 173.288,270.292" stroke-width="5.984" stroke="black" fill="none" stroke-linecap="round"></path><path d="M 173.288,270.292 C 184.092,268.831 184.109,268.887 194.861,267.094" stroke-width="4.500" stroke="black" fill="none" stroke-linecap="round"></path><path d="M 194.861,267.094 C 200.888,266.089 205.668,262.731 206.846,264.696" stroke-width="4.950" stroke="black" fill="none" stroke-linecap="round"></path><path d="M 206.846,264.696 C 208.065,266.728 204.601,271.350 199.655,275.088" stroke-width="5.978" stroke="black" fill="none" stroke-linecap="round"></path><path d="M 199.655,275.088 C 186.623,284.940 185.503,283.902 170.891,291.876" stroke-width="4.500" stroke="black" fill="none" stroke-linecap="round"></path><path d="M 170.891,291.876 C 154.742,300.689 154.952,301.275 138.132,308.663" stroke-width="4.500" stroke="black" fill="none" stroke-linecap="round"></path><path d="M 138.132,308.663 C 122.193,315.664 122.049,315.671 105.373,320.654" stroke-width="4.500" stroke="black" fill="none" stroke-linecap="round"></path><path d="M 105.373,320.654 C 91.288,324.864 91.145,325.066 76.609,327.049" stroke-width="4.500" stroke="black" fill="none" stroke-linecap="round"></path><path d="M 76.609,327.049 C 64.778,328.664 64.396,329.180 52.639,327.849" stroke-width="4.500" stroke="black" fill="none" stroke-linecap="round"></path><path d="M 52.639,327.849 C 43.222,326.782 42.849,326.133 34.262,322.253" stroke-width="4.500" stroke="black" fill="none" stroke-linecap="round"></path><path d="M 34.262,322.253 C 30.465,320.537 30.517,319.928 27.870,316.657" stroke-width="5.216" stroke="black" fill="none" stroke-linecap="round"></path><path d="M 27.870,316.657 C 23.726,311.535 23.076,311.553 20.679,305.466" stroke-width="5.098" stroke="black" fill="none" stroke-linecap="round"></path><path d="M 20.679,305.466 C 17.883,298.363 18.031,297.957 17.483,290.277" stroke-width="4.816" stroke="black" fill="none" stroke-linecap="round"></path><path d="M 17.483,290.277 C 16.833,281.170 16.493,280.841 18.282,271.891" stroke-width="4.500" stroke="black" fill="none" stroke-linecap="round"></path><path d="M 18.282,271.891 C 20.888,258.857 20.816,258.440 26.272,246.310" stroke-width="4.500" stroke="black" fill="none" stroke-linecap="round"></path><path d="M 26.272,246.310 C 31.603,234.458 32.073,234.376 39.855,223.926" stroke-width="4.500" stroke="black" fill="none" stroke-linecap="round"></path><path d="M 39.855,223.926 C 47.254,213.991 47.142,213.386 56.634,205.540" stroke-width="4.500" stroke="black" fill="none" stroke-linecap="round"></path><path d="M 56.634,205.540 C 65.519,198.197 66.192,198.654 76.609,193.549" stroke-width="4.500" stroke="black" fill="none" stroke-linecap="round"></path><path d="M 76.609,193.549 C 85.767,189.061 85.938,188.924 95.785,186.354" stroke-width="4.500" stroke="black" fill="none" stroke-linecap="round"></path><path d="M 95.785,186.354 C 104.315,184.128 104.549,184.433 113.363,183.956" stroke-width="4.500" stroke="black" fill="none" stroke-linecap="round"></path><path d="M 113.363,183.956 C 119.331,183.633 120.499,182.329 125.348,184.756" stroke-width="4.926" stroke="black" fill="none" stroke-linecap="round"></path><path d="M 125.348,184.756 C 129.288,186.726 130.790,188.346 130.941,192.750" stroke-width="6.211" stroke="black" fill="none" stroke-linecap="round"></path><path d="M 130.941,192.750 C 131.189,199.938 129.961,201.023 126.147,207.938" stroke-width="5.026" stroke="black" fill="none" stroke-linecap="round"></path><path d="M 126.147,207.938 C 117.177,224.205 117.140,224.641 105.373,239.115" stroke-width="4.500" stroke="black" fill="none" stroke-linecap="round"></path><path d="M 105.373,239.115 C 92.770,254.618 91.785,253.909 77.408,267.894" stroke-width="4.500" stroke="black" fill="none" stroke-linecap="round"></path><path d="M 77.408,267.894 C 63.021,281.888 62.961,281.867 47.845,295.073" stroke-width="4.500" stroke="black" fill="none" stroke-linecap="round"></path><path d="M 47.845,295.073 C 34.596,306.649 34.197,306.186 20.679,317.457" stroke-width="4.500" stroke="black" fill="none" stroke-linecap="round"></path><path d="M 20.679,317.457 C 10.227,326.171 10.524,326.544 -0.095,335.043" stroke-width="4.500" stroke="black" fill="none" stroke-linecap="round"></path><path d="M -0.095,335.043 C -7.453,340.933 -7.522,340.885 -15.276,346.235" stroke-width="4.500" stroke="black" fill="none" stroke-linecap="round"></path><path d="M -15.276,346.235 C -19.107,348.879 -22.541,350.306 -23.266,351.031" stroke-width="5.069" stroke="black" fill="none" stroke-linecap="round"></path></svg>