<svg xmlns="http://www.w3.org/2000/svg" xmlns:xlink="http://www.w3.org/1999/xlink" viewBox="0 0 576 416" width="576" height="416"><path d="M 477.708,105.649 C 478.906,78.452 476.486,76.257 480.105,51.255" stroke-width="8.526" stroke="black" fill="none" stroke-linecap="round"></path><path d="M 480.105,51.255 C 480.481,48.661 483.927,49.274 485.698,50.456" stroke-width="8.672" stroke="black" fill="none" stroke-linecap="round"></path><path d="M 485.698,50.456 C 487.522,51.673 487.939,53.479 487.296,56.052" stroke-width="8.248" stroke="black" fill="none" stroke-linecap="round"></path><path d="M 487.296,56.052 C 486.341,59.874 485.230,59.910 482.502,63.246" stroke-width="6.600" stroke="black" fill="none" stroke-linecap="round"></path><path d="M 482.502,63.246 C 478.039,68.703 477.992,68.733 472.914,73.638" stroke-width="5.321" stroke="black" fill="none" stroke-linecap="round"></path><path d="M 472.914,73.638 C 466.407,79.925 466.361,79.927 459.331,85.630" stroke-width="4.500" stroke="black" fill="none" stroke-linecap="round"></path><path d="M 459.331,85.630 C 451.579,91.918 451.187,91.431 443.351,97.621" stroke-width="4.500" stroke="black" fill="none" stroke-linecap="round"></path><path d="M 443.351,97.621 C 436.006,103.422 436.194,103.658 428.969,109.612" stroke-width="4.500" stroke="black" fill="none" stroke-linecap="round"></path><path d="M 428.969,109.612 C 422.611,114.850 422.198,114.403 416.185,120.004" stroke-width="4.500" stroke="black" fill="none" stroke-linecap="round"></path><path d="M 416.185,120.004 C 410.612,125.195 410.607,125.291 405.798,131.195" stroke-width="4.648" stroke="black" fill="none" stroke-linecap="round"></path><path d="M 405.798,131.195 C 401.818,136.083 401.950,136.236 398.607,141.588" stroke-width="4.997" stroke="black" fill="none" stroke-linecap="round"></path><path d="M 398.607,141.588 C 395.957,145.829 395.695,145.777 393.813,150.381" stroke-width="5.270" stroke="black" fill="none" stroke-linecap="round"></path><path d="M 393.813,150.381 C 392.100,154.571 392.086,154.707 391.416,159.175" stroke-width="5.744" stroke="black" fill="none" stroke-linecap="round"></path><path d="M 391.416,159.175 C 390.887,162.701 391.639,162.788 391.416,166.369" stroke-width="6.061" stroke="black" fill="none" stroke-linecap="round"></path><path d="M 391.416,166.369 C 391.240,169.183 390.990,169.164 390.617,171.965" stroke-width="6.530" stroke="black" fill="none" stroke-linecap="round"></path><path d="M 390.617,171.965 C 390.191,175.159 391.167,175.525 389.818,178.360" stroke-width="7.222" stroke="black" fill="none" stroke-linecap="round"></path><path d="M 389.818,178.360 C 387.172,183.919 386.847,184.128 382.627,188.753" stroke-width="6.784" stroke="black" fill="none" stroke-linecap="round"></path><path d="M 382.627,188.753 C 378.458,193.321 377.876,192.803 373.039,196.747" stroke-width="5.474" stroke="black" fill="none" stroke-linecap="round"></path><path d="M 373.039,196.747 C 367.090,201.596 367.213,201.767 361.054,206.339" stroke-width="4.931" stroke="black" fill="none" stroke-linecap="round"></path><path d="M 361.054,206.339 C 354.828,210.961 354.810,210.969 348.270,215.133" stroke-width="4.771" stroke="black" fill="none" stroke-linecap="round"></path><path d="M 348.270,215.133 C 341.626,219.363 341.553,219.263 334.687,223.127" stroke-width="4.700" stroke="black" fill="none" stroke-linecap="round"></path><path d="M 334.687,223.127 C 328.769,226.457 328.688,226.313 322.702,229.522" stroke-width="4.908" stroke="black" fill="none" stroke-linecap="round"></path><path d="M 322.702,229.522 C 317.502,232.309 317.628,232.576 312.315,235.118" stroke-width="5.266" stroke="black" fill="none" stroke-linecap="round"></path><path d="M 312.315,235.118 C 308.439,236.972 308.153,236.400 304.325,238.316" stroke-width="5.663" stroke="black" fill="none" stroke-linecap="round"></path><path d="M 304.325,238.316 C 301.761,239.598 301.928,239.914 299.531,241.513" stroke-width="6.365" stroke="black" fill="none" stroke-linecap="round"></path><path d="M 349.069,122.402 C 349.868,126.799 349.970,126.783 350.667,131.195" stroke-width="8.421" stroke="black" fill="none" stroke-linecap="round"></path><path d="M 350.667,131.195 C 351.169,134.377 351.265,134.381 351.466,137.591" stroke-width="6.909" stroke="black" fill="none" stroke-linecap="round"></path><path d="M 351.466,137.591 C 351.665,140.776 351.625,140.795 351.466,143.986" stroke-width="6.646" stroke="black" fill="none" stroke-linecap="round"></path><path d="M 351.466,143.986 C 351.226,148.789 351.916,149.079 350.667,153.579" stroke-width="6.930" stroke="black" fill="none" stroke-linecap="round"></path><path d="M 350.667,153.579 C 349.919,156.273 349.548,158.202 347.471,158.375" stroke-width="7.449" stroke="black" fill="none" stroke-linecap="round"></path><path d="M 347.471,158.375 C 344.754,158.602 344.213,156.469 341.079,154.378" stroke-width="7.878" stroke="black" fill="none" stroke-linecap="round"></path><path d="M 341.079,154.378 C 337.022,151.673 337.471,150.536 333.089,148.782" stroke-width="7.303" stroke="black" fill="none" stroke-linecap="round"></path><path d="M 333.089,148.782 C 329.481,147.339 328.881,147.226 325.099,147.983" stroke-width="7.258" stroke="black" fill="none" stroke-linecap="round"></path><path d="M 325.099,147.983 C 320.891,148.825 319.988,148.907 317.109,151.980" stroke-width="7.166" stroke="black" fill="none" stroke-linecap="round"></path><path d="M 317.109,151.980 C 313.996,155.302 314.072,156.219 313.114,160.773" stroke-width="7.087" stroke="black" fill="none" stroke-linecap="round"></path><path d="M 313.114,160.773 C 312.474,163.813 313.040,164.114 313.913,167.169" stroke-width="7.391" stroke="black" fill="none" stroke-linecap="round"></path><path d="M 313.913,167.169 C 314.638,169.710 316.463,169.511 316.310,171.965" stroke-width="7.655" stroke="black" fill="none" stroke-linecap="round"></path><path d="M 316.310,171.965 C 316.063,175.906 315.507,176.607 313.114,179.959" stroke-width="7.687" stroke="black" fill="none" stroke-linecap="round"></path><path d="M 313.114,179.959 C 311.512,182.203 310.647,181.463 308.320,183.157" stroke-width="6.985" stroke="black" fill="none" stroke-linecap="round"></path><path d="M 308.320,183.157 C 306.253,184.661 306.677,185.766 304.325,186.354" stroke-width="6.938" stroke="black" fill="none" stroke-linecap="round"></path><path d="M 304.325,186.354 C 300.285,187.365 299.042,188.201 295.536,186.354" stroke-width="7.086" stroke="black" fill="none" stroke-linecap="round"></path><path d="M 295.536,186.354 C 291.452,184.204 291.966,182.596 289.144,178.360" stroke-width="6.967" stroke="black" fill="none" stroke-linecap="round"></path><path d="M 289.144,178.360 C 287.172,175.402 287.629,175.118 285.948,171.965" stroke-width="6.513" stroke="black" fill="none" stroke-linecap="round"></path><path d="M 285.948,171.965 C 284.432,169.123 284.819,168.783 282.752,166.369" stroke-width="6.522" stroke="black" fill="none" stroke-linecap="round"></path><path d="M 282.752,166.369 C 280.025,163.187 279.991,161.119 276.360,160.773" stroke-width="6.983" stroke="black" fill="none" stroke-linecap="round"></path><path d="M 276.360,160.773 C 271.602,160.320 270.848,162.157 265.973,164.770" stroke-width="6.840" stroke="black" fill="none" stroke-linecap="round"></path><path d="M 265.973,164.770 C 259.662,168.153 259.493,168.174 253.988,172.764" stroke-width="5.332" stroke="black" fill="none" stroke-linecap="round"></path><path d="M 253.988,172.764 C 247.508,178.167 247.898,178.666 242.003,184.756" stroke-width="4.726" stroke="black" fill="none" stroke-linecap="round"></path><path d="M 242.003,184.756 C 235.514,191.457 235.199,191.204 229.218,198.345" stroke-width="4.500" stroke="black" fill="none" stroke-linecap="round"></path><path d="M 229.218,198.345 C 222.814,205.993 223.657,206.702 217.233,214.333" stroke-width="4.500" stroke="black" fill="none" stroke-linecap="round"></path><path d="M 217.233,214.333 C 210.873,221.891 210.550,221.633 203.650,228.723" stroke-width="4.500" stroke="black" fill="none" stroke-linecap="round"></path><path d="M 203.650,228.723 C 195.769,236.822 195.994,237.077 187.670,244.711" stroke-width="4.500" stroke="black" fill="none" stroke-linecap="round"></path><path d="M 187.670,244.711 C 176.818,254.664 176.935,254.883 165.298,263.896" stroke-width="4.500" stroke="black" fill="none" stroke-linecap="round"></path><path d="M 165.298,263.896 C 152.166,274.068 152.049,274.001 138.132,283.082" stroke-width="4.500" stroke="black" fill="none" stroke-linecap="round"></path><path d="M 138.132,283.082 C 124.484,291.988 124.309,291.755 110.167,299.870" stroke-width="4.500" stroke="black" fill="none" stroke-linecap="round"></path><path d="M 110.167,299.870 C 97.143,307.343 97.300,307.731 83.800,314.259" stroke-width="4.500" stroke="black" fill="none" stroke-linecap="round"></path><path d="M 83.800,314.259 C 73.330,319.322 73.106,318.906 62.227,323.052" stroke-width="4.500" stroke="black" fill="none" stroke-linecap="round"></path><path d="M 62.227,323.052 C 56.327,325.301 52.506,328.409 50.242,327.049" stroke-width="4.529" stroke="black" fill="none" stroke-linecap="round"></path><path d="M 50.242,327.049 C 48.511,326.010 50.842,321.569 54.237,318.256" stroke-width="6.299" stroke="black" fill="none" stroke-linecap="round"></path><path d="M 54.237,318.256 C 67.222,305.581 68.135,306.015 83.001,295.073" stroke-width="4.500" stroke="black" fill="none" stroke-linecap="round"></path><path d="M 83.001,295.073 C 102.892,280.434 103.137,280.724 123.750,267.094" stroke-width="4.500" stroke="black" fill="none" stroke-linecap="round"></path><path d="M 123.750,267.094 C 149.080,250.346 148.941,250.086 174.886,234.319" stroke-width="4.500" stroke="black" fill="none" stroke-linecap="round"></path><path d="M 174.886,234.319 C 202.873,217.311 203.165,217.780 231.615,201.543" stroke-width="4.500" stroke="black" fill="none" stroke-linecap="round"></path><path d="M 231.615,201.543 C 259.894,185.404 259.568,184.774 288.345,169.567" stroke-width="4.500" stroke="black" fill="none" stroke-linecap="round"></path><path d="M 288.345,169.567 C 316.297,154.796 316.234,154.508 345.074,141.588" stroke-width="4.500" stroke="black" fill="none" stroke-linecap="round"></path><path d="M 345.074,141.588 C 369.767,130.525 370.239,131.586 395.411,121.603" stroke-width="4.500" stroke="black" fill="none" stroke-linecap="round"></path><path d="M 395.411,121.603 C 414.583,113.999 414.344,113.300 433.763,106.414" stroke-width="4.500" stroke="black" fill="none" stroke-linecap="round"></path><path d="M 433.763,106.414 C 445.905,102.108 446.250,103.115 458.532,99.219" stroke-width="4.500" stroke="black" fill="none" stroke-linecap="round"></path><path d="M 458.532,99.219 C 462.630,97.919 467.579,95.871 466.522,96.022" stroke-width="4.669" stroke="black" fill="none" stroke-linecap="round"></path><path d="M 466.522,96.022 C 464.783,96.270 459.665,97.814 452.939,100.019" stroke-width="6.127" stroke="black" fill="none" stroke-linecap="round"></path><path d="M 452.939,100.019 C 436.494,105.409 436.395,105.170 420.180,111.210" stroke-width="4.500" stroke="black" fill="none" stroke-linecap="round"></path><path d="M 420.180,111.210 C 398.842,119.159 398.830,119.182 377.833,127.998" stroke-width="4.500" stroke="black" fill="none" stroke-linecap="round"></path><path d="M 377.833,127.998 C 354.086,137.968 353.788,137.424 330.692,148.782" stroke-width="4.500" stroke="black" fill="none" stroke-linecap="round"></path><path d="M 330.692,148.782 C 306.647,160.607 306.989,161.335 283.551,174.363" stroke-width="4.500" stroke="black" fill="none" stroke-linecap="round"></path><path d="M 283.551,174.363 C 260.248,187.316 260.303,187.421 237.208,200.744" stroke-width="4.500" stroke="black" fill="none" stroke-linecap="round"></path><path d="M 237.208,200.744 C 215.959,213.002 215.894,212.899 194.861,225.525" stroke-width="4.500" stroke="black" fill="none" stroke-linecap="round"></path><path d="M 194.861,225.525 C 177.941,235.682 178.142,236.014 161.303,246.310" stroke-width="4.500" stroke="black" fill="none" stroke-linecap="round"></path><path d="M 161.303,246.310 C 149.378,253.601 149.432,253.705 137.333,260.699" stroke-width="4.500" stroke="black" fill="none" stroke-linecap="round"></path><path d="M 137.333,260.699 C 131.455,264.097 130.678,266.533 125.348,267.094" stroke-width="4.500" stroke="black" fill="none" stroke-linecap="round"></path><path d="M 125.348,267.094 C 123.087,267.332 121.569,264.748 122.152,262.298" stroke-width="6.281" stroke="black" fill="none" stroke-linecap="round"></path><path d="M 122.152,262.298 C 123.567,256.354 125.769,256.315 129.343,250.307" stroke-width="5.378" stroke="black" fill="none" stroke-linecap="round"></path><path d="M 129.343,250.307 C 135.756,239.527 135.972,239.648 142.127,228.723" stroke-width="4.500" stroke="black" fill="none" stroke-linecap="round"></path><path d="M 142.127,228.723 C 148.357,217.665 148.108,217.525 154.112,206.339" stroke-width="4.500" stroke="black" fill="none" stroke-linecap="round"></path><path d="M 154.112,206.339 C 159.694,195.941 159.425,195.785 165.298,185.555" stroke-width="4.500" stroke="black" fill="none" stroke-linecap="round"></path><path d="M 165.298,185.555 C 170.211,176.999 170.540,177.191 175.685,168.767" stroke-width="4.500" stroke="black" fill="none" stroke-linecap="round"></path><path d="M 175.685,168.767 C 179.329,162.801 179.064,162.626 182.876,156.776" stroke-width="4.625" stroke="black" fill="none" stroke-linecap="round"></path><path d="M 182.876,156.776 C 185.056,153.433 184.665,152.695 187.670,150.381" stroke-width="5.644" stroke="black" fill="none" stroke-linecap="round"></path><path d="M 187.670,150.381 C 189.858,148.698 191.311,147.806 193.263,148.782" stroke-width="6.914" stroke="black" fill="none" stroke-linecap="round"></path><path d="M 193.263,148.782 C 195.306,149.804 194.578,151.535 195.660,154.378" stroke-width="7.402" stroke="black" fill="none" stroke-linecap="round"></path><path d="M 195.660,154.378 C 197.774,159.929 197.828,159.918 199.655,165.570" stroke-width="5.791" stroke="black" fill="none" stroke-linecap="round"></path><path d="M 199.655,165.570 C 202.222,173.508 202.337,173.489 204.449,181.558" stroke-width="4.958" stroke="black" fill="none" stroke-linecap="round"></path><path d="M 204.449,181.558 C 206.732,190.276 205.996,190.477 208.444,199.145" stroke-width="4.500" stroke="black" fill="none" stroke-linecap="round"></path><path d="M 208.444,199.145 C 211.190,208.864 211.696,208.719 214.836,218.331" stroke-width="4.500" stroke="black" fill="none" stroke-linecap="round"></path><path d="M 214.836,218.331 C 218.487,229.504 218.373,229.541 222.027,240.714" stroke-width="4.500" stroke="black" fill="none" stroke-linecap="round"></path><path d="M 222.027,240.714 C 225.564,251.525 225.252,251.645 229.218,262.298" stroke-width="4.500" stroke="black" fill="none" stroke-linecap="round"></path><path d="M 229.218,262.298 C 232.842,272.029 232.991,271.990 237.208,281.483" stroke-width="4.500" stroke="black" fill="none" stroke-linecap="round"></path><path d="M 237.208,281.483 C 240.981,289.976 240.960,290.002 245.199,298.271" stroke-width="4.500" stroke="black" fill="none" stroke-linecap="round"></path><path d="M 245.199,298.271 C 248.950,305.591 248.959,305.608 253.189,312.660" stroke-width="4.500" stroke="black" fill="none" stroke-linecap="round"></path><path d="M 253.189,312.660 C 256.150,317.599 256.385,317.457 259.581,322.253" stroke-width="5.029" stroke="black" fill="none" stroke-linecap="round"></path><circle r="3" cx="277.1585693359375" cy="364.6213073730469" fill="black"></circle></svg>