<svg xmlns="http://www.w3.org/2000/svg" xmlns:xlink="http://www.w3.org/1999/xlink" viewBox="0 0 576 416" width="576" height="416"><path d="M 500.080,174.763 C 496.085,176.362 496.132,176.490 492.090,177.960" stroke-width="8.287" stroke="black" fill="none" stroke-linecap="round"></path><path d="M 492.090,177.960 C 487.343,179.687 487.296,179.559 482.502,181.158" stroke-width="6.241" stroke="black" fill="none" stroke-linecap="round"></path><path d="M 482.502,181.158 C 475.311,183.556 475.440,184.036 468.120,185.954" stroke-width="5.226" stroke="black" fill="none" stroke-linecap="round"></path><path d="M 468.120,185.954 C 458.661,188.433 458.571,188.177 448.944,189.951" stroke-width="4.500" stroke="black" fill="none" stroke-linecap="round"></path><path d="M 448.944,189.951 C 443.390,190.975 443.282,190.393 437.758,191.550" stroke-width="5.035" stroke="black" fill="none" stroke-linecap="round"></path><path d="M 437.758,191.550 C 426.104,193.991 426.224,194.581 414.587,197.146" stroke-width="4.500" stroke="black" fill="none" stroke-linecap="round"></path><path d="M 414.587,197.146 C 402.653,199.777 402.631,199.701 390.617,201.942" stroke-width="4.500" stroke="black" fill="none" stroke-linecap="round"></path><path d="M 390.617,201.942 C 379.061,204.098 378.997,203.759 367.446,205.939" stroke-width="4.500" stroke="black" fill="none" stroke-linecap="round"></path><path d="M 367.446,205.939 C 357.823,207.756 357.858,207.938 348.270,209.936" stroke-width="4.500" stroke="black" fill="none" stroke-linecap="round"></path><path d="M 348.270,209.936 C 338.682,211.935 338.660,211.840 329.094,213.934" stroke-width="4.500" stroke="black" fill="none" stroke-linecap="round"></path><path d="M 329.094,213.934 C 325.876,214.638 322.529,216.224 322.702,215.532" stroke-width="5.595" stroke="black" fill="none" stroke-linecap="round"></path><path d="M 322.702,215.532 C 322.928,214.625 326.077,212.728 329.893,210.736" stroke-width="7.085" stroke="black" fill="none" stroke-linecap="round"></path><path d="M 329.893,210.736 C 335.265,207.931 335.430,208.200 341.079,205.939" stroke-width="5.688" stroke="black" fill="none" stroke-linecap="round"></path><path d="M 341.079,205.939 C 347.415,203.403 347.540,203.713 353.863,201.143" stroke-width="5.182" stroke="black" fill="none" stroke-linecap="round"></path><path d="M 353.863,201.143 C 360.324,198.517 360.147,198.065 366.647,195.547" stroke-width="5.012" stroke="black" fill="none" stroke-linecap="round"></path><path d="M 366.647,195.547 C 372.531,193.268 372.762,193.858 378.632,191.550" stroke-width="5.117" stroke="black" fill="none" stroke-linecap="round"></path><path d="M 378.632,191.550 C 383.948,189.461 383.775,189.035 389.019,186.754" stroke-width="5.381" stroke="black" fill="none" stroke-linecap="round"></path><path d="M 389.019,186.754 C 392.963,185.038 393.125,185.385 397.009,183.556" stroke-width="5.702" stroke="black" fill="none" stroke-linecap="round"></path><path d="M 397.009,183.556 C 399.916,182.187 399.840,182.016 402.602,180.359" stroke-width="6.255" stroke="black" fill="none" stroke-linecap="round"></path><path d="M 402.602,180.359 C 405.833,178.419 410.271,176.788 408.994,176.362" stroke-width="6.994" stroke="black" fill="none" stroke-linecap="round"></path><path d="M 408.994,176.362 C 406.676,175.589 402.196,177.112 395.411,177.960" stroke-width="7.336" stroke="black" fill="none" stroke-linecap="round"></path><path d="M 395.411,177.960 C 386.216,179.110 386.214,179.098 377.034,180.359" stroke-width="4.915" stroke="black" fill="none" stroke-linecap="round"></path><path d="M 377.034,180.359 C 365.839,181.896 365.848,181.957 354.662,183.556" stroke-width="4.500" stroke="black" fill="none" stroke-linecap="round"></path><path d="M 354.662,183.556 C 343.476,185.155 343.506,185.449 332.290,186.754" stroke-width="4.500" stroke="black" fill="none" stroke-linecap="round"></path><path d="M 332.290,186.754 C 326.328,187.447 326.258,186.795 320.305,187.553" stroke-width="4.858" stroke="black" fill="none" stroke-linecap="round"></path><path d="M 320.305,187.553 C 304.286,189.593 304.303,189.815 288.345,192.350" stroke-width="4.500" stroke="black" fill="none" stroke-linecap="round"></path><path d="M 288.345,192.350 C 279.134,193.812 279.195,194.228 269.968,195.547" stroke-width="4.500" stroke="black" fill="none" stroke-linecap="round"></path><path d="M 269.968,195.547 C 262.416,196.627 262.387,196.455 254.787,197.146" stroke-width="4.500" stroke="black" fill="none" stroke-linecap="round"></path><path d="M 254.787,197.146 C 249.203,197.654 249.183,197.438 243.601,197.945" stroke-width="5.100" stroke="black" fill="none" stroke-linecap="round"></path><path d="M 243.601,197.945 C 240.394,198.237 238.299,199.835 237.208,198.745" stroke-width="6.022" stroke="black" fill="none" stroke-linecap="round"></path><path d="M 237.208,198.745 C 236.301,197.837 237.573,195.356 239.605,193.948" stroke-width="7.547" stroke="black" fill="none" stroke-linecap="round"></path><path d="M 239.605,193.948 C 242.767,191.759 243.621,192.815 247.596,191.550" stroke-width="6.423" stroke="black" fill="none" stroke-linecap="round"></path><path d="M 247.596,191.550 C 252.410,190.017 252.390,189.951 257.184,188.353" stroke-width="5.857" stroke="black" fill="none" stroke-linecap="round"></path><path d="M 257.184,188.353 C 261.978,186.754 261.978,186.754 266.772,185.155" stroke-width="5.707" stroke="black" fill="none" stroke-linecap="round"></path><path d="M 266.772,185.155 C 271.566,183.556 271.527,183.429 276.360,181.957" stroke-width="5.663" stroke="black" fill="none" stroke-linecap="round"></path><path d="M 276.360,181.957 C 280.716,180.631 280.769,180.811 285.149,179.559" stroke-width="5.799" stroke="black" fill="none" stroke-linecap="round"></path><path d="M 285.149,179.559 C 289.159,178.413 289.121,178.278 293.139,177.161" stroke-width="5.964" stroke="black" fill="none" stroke-linecap="round"></path><path d="M 293.139,177.161 C 296.312,176.279 296.365,176.467 299.531,175.562" stroke-width="6.320" stroke="black" fill="none" stroke-linecap="round"></path><path d="M 299.531,175.562 C 301.958,174.868 305.763,173.484 304.325,173.963" stroke-width="6.740" stroke="black" fill="none" stroke-linecap="round"></path><path d="M 304.325,173.963 C 298.572,175.882 294.962,178.068 285.149,180.359" stroke-width="7.103" stroke="black" fill="none" stroke-linecap="round"></path><path d="M 285.149,180.359 C 270.992,183.663 270.771,182.784 256.385,185.155" stroke-width="4.500" stroke="black" fill="none" stroke-linecap="round"></path><path d="M 256.385,185.155 C 236.814,188.380 236.868,188.772 217.233,191.550" stroke-width="4.500" stroke="black" fill="none" stroke-linecap="round"></path><path d="M 217.233,191.550 C 197.318,194.368 197.269,194.039 177.283,196.347" stroke-width="4.500" stroke="black" fill="none" stroke-linecap="round"></path><path d="M 177.283,196.347 C 155.721,198.836 155.744,199.104 134.137,201.143" stroke-width="4.500" stroke="black" fill="none" stroke-linecap="round"></path><path d="M 134.137,201.143 C 113.397,203.101 113.385,203.105 92.589,204.341" stroke-width="4.500" stroke="black" fill="none" stroke-linecap="round"></path><path d="M 92.589,204.341 C 73.035,205.503 73.018,205.719 53.438,205.939" stroke-width="4.500" stroke="black" fill="none" stroke-linecap="round"></path><path d="M 53.438,205.939 C 37.463,206.119 37.371,206.484 21.478,205.140" stroke-width="4.500" stroke="black" fill="none" stroke-linecap="round"></path><path d="M 21.478,205.140 C 9.006,204.086 8.839,204.120 -3.291,201.143" stroke-width="4.500" stroke="black" fill="none" stroke-linecap="round"></path><path d="M -3.291,201.143 C -12.334,198.924 -12.995,199.382 -20.869,194.748" stroke-width="4.500" stroke="black" fill="none" stroke-linecap="round"></path><path d="M -20.869,194.748 C -26.578,191.388 -27.476,190.933 -30.457,185.155" stroke-width="4.637" stroke="black" fill="none" stroke-linecap="round"></path><path d="M -30.457,185.155 C -33.868,178.542 -33.401,177.521 -33.653,169.966" stroke-width="4.684" stroke="black" fill="none" stroke-linecap="round"></path><path d="M -33.653,169.966 C -33.801,165.530 -33.108,165.315 -31.256,161.173" stroke-width="5.449" stroke="black" fill="none" stroke-linecap="round"></path><path d="M -31.256,161.173 C -26.316,150.126 -26.596,149.801 -20.070,139.589" stroke-width="4.500" stroke="black" fill="none" stroke-linecap="round"></path><path d="M -20.070,139.589 C -11.015,125.419 -10.924,125.298 -0.095,112.409" stroke-width="4.500" stroke="black" fill="none" stroke-linecap="round"></path><path d="M -0.095,112.409 C 12.247,97.719 12.067,97.298 26.272,84.430" stroke-width="4.500" stroke="black" fill="none" stroke-linecap="round"></path><path d="M 26.272,84.430 C 41.630,70.518 41.872,70.492 59.031,58.849" stroke-width="4.500" stroke="black" fill="none" stroke-linecap="round"></path><path d="M 59.031,58.849 C 76.628,46.910 76.935,47.162 95.785,37.265" stroke-width="4.500" stroke="black" fill="none" stroke-linecap="round"></path><path d="M 95.785,37.265 C 117.284,25.978 117.504,26.276 139.730,16.481" stroke-width="4.500" stroke="black" fill="none" stroke-linecap="round"></path><path d="M 139.730,16.481 C 151.062,11.487 150.883,10.573 162.901,7.687" stroke-width="4.500" stroke="black" fill="none" stroke-linecap="round"></path><path d="M 162.901,7.687 C 200.820,-1.418 201.060,-1.155 239.605,-7.501" stroke-width="4.500" stroke="black" fill="none" stroke-linecap="round"></path><path d="M 239.605,-7.501 C 264.181,-11.547 264.316,-12.262 289.144,-13.097" stroke-width="4.500" stroke="black" fill="none" stroke-linecap="round"></path><path d="M 289.144,-13.097 C 311.856,-13.861 312.152,-13.601 334.687,-10.699" stroke-width="4.500" stroke="black" fill="none" stroke-linecap="round"></path><path d="M 334.687,-10.699 C 352.501,-8.405 352.673,-7.990 369.843,-2.705" stroke-width="4.500" stroke="black" fill="none" stroke-linecap="round"></path><path d="M 369.843,-2.705 C 383.835,1.602 384.515,1.121 397.009,8.487" stroke-width="4.500" stroke="black" fill="none" stroke-linecap="round"></path><path d="M 397.009,8.487 C 406.887,14.311 407.607,14.728 414.587,23.675" stroke-width="4.500" stroke="black" fill="none" stroke-linecap="round"></path><path d="M 414.587,23.675 C 420.391,31.116 420.736,32.051 422.577,41.262" stroke-width="4.500" stroke="black" fill="none" stroke-linecap="round"></path><path d="M 422.577,41.262 C 424.331,50.038 423.391,50.770 421.778,59.649" stroke-width="4.500" stroke="black" fill="none" stroke-linecap="round"></path><path d="M 421.778,59.649 C 420.994,63.960 420.463,64.102 417.783,67.643" stroke-width="5.259" stroke="black" fill="none" stroke-linecap="round"></path><path d="M 417.783,67.643 C 410.476,77.293 410.931,78.102 401.803,86.029" stroke-width="4.500" stroke="black" fill="none" stroke-linecap="round"></path><path d="M 401.803,86.029 C 389.757,96.489 389.045,95.938 375.436,104.415" stroke-width="4.500" stroke="black" fill="none" stroke-linecap="round"></path><path d="M 375.436,104.415 C 367.871,109.128 367.704,108.995 359.456,112.409" stroke-width="4.500" stroke="black" fill="none" stroke-linecap="round"></path><path d="M 359.456,112.409 C 332.947,123.384 333.250,124.709 305.923,133.194" stroke-width="4.500" stroke="black" fill="none" stroke-linecap="round"></path><path d="M 305.923,133.194 C 286.908,139.098 286.458,137.839 266.772,141.188" stroke-width="4.500" stroke="black" fill="none" stroke-linecap="round"></path><path d="M 266.772,141.188 C 246.508,144.634 246.483,144.959 226.022,146.784" stroke-width="4.500" stroke="black" fill="none" stroke-linecap="round"></path><path d="M 226.022,146.784 C 206.134,148.557 206.047,148.382 186.072,148.382" stroke-width="4.500" stroke="black" fill="none" stroke-linecap="round"></path><path d="M 186.072,148.382 C 166.896,148.382 166.814,148.482 147.720,146.784" stroke-width="4.500" stroke="black" fill="none" stroke-linecap="round"></path><path d="M 147.720,146.784 C 130.859,145.284 130.705,145.472 114.162,141.987" stroke-width="4.500" stroke="black" fill="none" stroke-linecap="round"></path><path d="M 114.162,141.987 C 100.343,139.076 100.275,138.803 86.996,133.993" stroke-width="4.500" stroke="black" fill="none" stroke-linecap="round"></path><path d="M 86.996,133.993 C 77.104,130.410 76.670,130.704 67.820,125.200" stroke-width="4.500" stroke="black" fill="none" stroke-linecap="round"></path><path d="M 67.820,125.200 C 61.889,121.511 61.158,121.307 57.433,115.607" stroke-width="4.500" stroke="black" fill="none" stroke-linecap="round"></path><path d="M 57.433,115.607 C 54.367,110.915 52.749,109.379 54.237,104.415" stroke-width="5.051" stroke="black" fill="none" stroke-linecap="round"></path><path d="M 54.237,104.415 C 56.344,97.388 58.408,96.887 64.624,91.625" stroke-width="5.754" stroke="black" fill="none" stroke-linecap="round"></path><path d="M 64.624,91.625 C 73.989,83.697 74.361,83.556 85.398,78.035" stroke-width="4.500" stroke="black" fill="none" stroke-linecap="round"></path><path d="M 85.398,78.035 C 98.331,71.565 98.748,72.121 112.564,67.643" stroke-width="4.500" stroke="black" fill="none" stroke-linecap="round"></path><path d="M 112.564,67.643 C 127.112,62.928 127.158,62.726 142.127,59.649" stroke-width="4.500" stroke="black" fill="none" stroke-linecap="round"></path><path d="M 142.127,59.649 C 156.322,56.730 156.448,56.927 170.891,55.652" stroke-width="4.500" stroke="black" fill="none" stroke-linecap="round"></path><path d="M 170.891,55.652 C 183.614,54.528 183.707,54.427 196.459,54.852" stroke-width="4.500" stroke="black" fill="none" stroke-linecap="round"></path><path d="M 196.459,54.852 C 207.677,55.226 207.746,55.486 218.832,57.250" stroke-width="4.500" stroke="black" fill="none" stroke-linecap="round"></path><path d="M 218.832,57.250 C 225.324,58.284 225.359,58.429 231.615,60.448" stroke-width="4.545" stroke="black" fill="none" stroke-linecap="round"></path><path d="M 231.615,60.448 C 237.744,62.426 238.008,62.136 243.601,65.244" stroke-width="4.930" stroke="black" fill="none" stroke-linecap="round"></path><path d="M 243.601,65.244 C 248.794,68.131 249.143,68.167 253.189,72.439" stroke-width="5.169" stroke="black" fill="none" stroke-linecap="round"></path><path d="M 253.189,72.439 C 256.334,75.761 256.749,76.114 257.983,80.433" stroke-width="5.603" stroke="black" fill="none" stroke-linecap="round"></path><path d="M 257.983,80.433 C 259.146,84.508 259.366,85.248 257.983,89.227" stroke-width="5.829" stroke="black" fill="none" stroke-linecap="round"></path><path d="M 257.983,89.227 C 256.170,94.442 255.802,95.027 251.591,98.819" stroke-width="5.585" stroke="black" fill="none" stroke-linecap="round"></path><path d="M 251.591,98.819 C 243.817,105.819 243.345,105.796 234.013,110.810" stroke-width="4.500" stroke="black" fill="none" stroke-linecap="round"></path><path d="M 234.013,110.810 C 221.772,117.388 221.652,117.658 208.444,122.002" stroke-width="4.500" stroke="black" fill="none" stroke-linecap="round"></path><path d="M 208.444,122.002 C 192.488,127.251 192.237,126.915 175.685,129.996" stroke-width="4.500" stroke="black" fill="none" stroke-linecap="round"></path><path d="M 175.685,129.996 C 157.880,133.310 157.756,132.832 139.730,134.793" stroke-width="4.500" stroke="black" fill="none" stroke-linecap="round"></path><path d="M 139.730,134.793 C 121.002,136.829 120.985,136.978 102.177,137.990" stroke-width="4.500" stroke="black" fill="none" stroke-linecap="round"></path><path d="M 102.177,137.990 C 83.832,138.977 83.800,138.790 65.423,138.790" stroke-width="4.500" stroke="black" fill="none" stroke-linecap="round"></path><path d="M 65.423,138.790 C 47.046,138.790 47.039,138.610 28.669,137.990" stroke-width="4.500" stroke="black" fill="none" stroke-linecap="round"></path><path d="M 28.669,137.990 C 11.483,137.411 11.488,137.240 -5.688,136.391" stroke-width="4.500" stroke="black" fill="none" stroke-linecap="round"></path><path d="M -5.688,136.391 C -20.871,135.641 -20.869,135.592 -36.050,134.793" stroke-width="4.500" stroke="black" fill="none" stroke-linecap="round"></path></svg>