<svg xmlns="http://www.w3.org/2000/svg" xmlns:xlink="http://www.w3.org/1999/xlink" viewBox="0 0 576 416" width="576" height="416"><path d="M 102.177,39.664 C 97.783,38.464 97.844,38.008 93.388,37.265" stroke-width="8.556" stroke="black" fill="none" stroke-linecap="round"></path><path d="M 93.388,37.265 C 90.653,36.809 90.592,37.265 87.795,37.265" stroke-width="7.224" stroke="black" fill="none" stroke-linecap="round"></path><path d="M 87.795,37.265 C 84.200,37.265 84.200,37.265 80.604,37.265" stroke-width="6.570" stroke="black" fill="none" stroke-linecap="round"></path><path d="M 80.604,37.265 C 74.612,37.265 74.598,37.016 68.619,37.265" stroke-width="6.554" stroke="black" fill="none" stroke-linecap="round"></path><path d="M 68.619,37.265 C 65.010,37.416 65.033,37.839 61.428,38.065" stroke-width="6.300" stroke="black" fill="none" stroke-linecap="round"></path><path d="M 61.428,38.065 C 58.641,38.239 58.624,37.901 55.835,38.065" stroke-width="7.236" stroke="black" fill="none" stroke-linecap="round"></path><path d="M 55.835,38.065 C 51.832,38.300 51.795,38.205 47.845,38.864" stroke-width="7.175" stroke="black" fill="none" stroke-linecap="round"></path><path d="M 47.845,38.864 C 44.604,39.405 42.525,38.319 41.453,40.463" stroke-width="7.714" stroke="black" fill="none" stroke-linecap="round"></path><path d="M 41.453,40.463 C 40.128,43.115 42.149,44.483 43.051,48.457" stroke-width="7.825" stroke="black" fill="none" stroke-linecap="round"></path><path d="M 43.051,48.457 C 44.146,53.277 44.116,53.291 45.448,58.050" stroke-width="6.198" stroke="black" fill="none" stroke-linecap="round"></path><path d="M 45.448,58.050 C 46.913,63.283 46.926,63.286 48.644,68.442" stroke-width="5.684" stroke="black" fill="none" stroke-linecap="round"></path><path d="M 48.644,68.442 C 50.921,75.277 51.161,75.197 53.438,82.032" stroke-width="4.985" stroke="black" fill="none" stroke-linecap="round"></path><path d="M 53.438,82.032 C 55.556,88.387 55.257,88.488 57.433,94.822" stroke-width="5.018" stroke="black" fill="none" stroke-linecap="round"></path><path d="M 57.433,94.822 C 59.652,101.279 59.945,101.177 62.227,107.613" stroke-width="4.999" stroke="black" fill="none" stroke-linecap="round"></path><path d="M 62.227,107.613 C 64.339,113.568 64.163,113.630 66.222,119.604" stroke-width="5.112" stroke="black" fill="none" stroke-linecap="round"></path><path d="M 66.222,119.604 C 68.158,125.221 68.281,125.178 70.217,130.796" stroke-width="5.324" stroke="black" fill="none" stroke-linecap="round"></path><path d="M 70.217,130.796 C 72.276,136.770 72.039,136.856 74.212,142.787" stroke-width="5.113" stroke="black" fill="none" stroke-linecap="round"></path><path d="M 74.212,142.787 C 76.433,148.847 76.718,148.741 79.006,154.778" stroke-width="5.114" stroke="black" fill="none" stroke-linecap="round"></path><path d="M 79.006,154.778 C 81.112,160.332 80.870,160.425 83.001,165.969" stroke-width="5.241" stroke="black" fill="none" stroke-linecap="round"></path><path d="M 83.001,165.969 C 84.865,170.817 85.174,170.700 86.996,175.562" stroke-width="5.478" stroke="black" fill="none" stroke-linecap="round"></path><path d="M 86.996,175.562 C 88.769,180.293 88.466,180.405 90.192,185.155" stroke-width="5.593" stroke="black" fill="none" stroke-linecap="round"></path><path d="M 90.192,185.155 C 91.662,189.199 91.389,189.371 93.388,193.149" stroke-width="5.930" stroke="black" fill="none" stroke-linecap="round"></path><path d="M 93.388,193.149 C 94.985,196.166 95.588,195.825 97.383,198.745" stroke-width="6.257" stroke="black" fill="none" stroke-linecap="round"></path><path d="M 97.383,198.745 C 98.784,201.022 98.519,201.176 99.780,203.541" stroke-width="6.655" stroke="black" fill="none" stroke-linecap="round"></path><path d="M 99.780,203.541 C 101.715,207.171 101.558,207.286 103.775,210.736" stroke-width="7.030" stroke="black" fill="none" stroke-linecap="round"></path><path d="M 52.639,142.787 C 56.235,140.788 56.245,140.807 59.830,138.790" stroke-width="8.459" stroke="black" fill="none" stroke-linecap="round"></path><path d="M 59.830,138.790 C 62.637,137.210 62.582,137.108 65.423,135.592" stroke-width="7.007" stroke="black" fill="none" stroke-linecap="round"></path><path d="M 65.423,135.592 C 68.575,133.910 68.559,133.861 71.815,132.394" stroke-width="6.523" stroke="black" fill="none" stroke-linecap="round"></path><path d="M 71.815,132.394 C 76.549,130.263 76.544,130.221 81.403,128.397" stroke-width="5.838" stroke="black" fill="none" stroke-linecap="round"></path><path d="M 81.403,128.397 C 86.132,126.623 86.144,126.614 90.991,125.200" stroke-width="5.701" stroke="black" fill="none" stroke-linecap="round"></path><path d="M 90.991,125.200 C 95.732,123.816 95.858,124.239 100.579,122.802" stroke-width="5.694" stroke="black" fill="none" stroke-linecap="round"></path><path d="M 100.579,122.802 C 105.047,121.441 104.916,121.021 109.368,119.604" stroke-width="5.772" stroke="black" fill="none" stroke-linecap="round"></path><path d="M 109.368,119.604 C 113.705,118.223 113.740,118.311 118.157,117.206" stroke-width="5.833" stroke="black" fill="none" stroke-linecap="round"></path><path d="M 118.157,117.206 C 121.730,116.312 121.804,116.592 125.348,115.607" stroke-width="6.138" stroke="black" fill="none" stroke-linecap="round"></path><path d="M 125.348,115.607 C 128.995,114.593 128.923,114.339 132.539,113.209" stroke-width="6.198" stroke="black" fill="none" stroke-linecap="round"></path><path d="M 132.539,113.209 C 135.315,112.341 135.353,112.465 138.132,111.610" stroke-width="6.545" stroke="black" fill="none" stroke-linecap="round"></path><path d="M 138.132,111.610 C 140.547,110.867 140.570,110.918 142.926,110.011" stroke-width="6.815" stroke="black" fill="none" stroke-linecap="round"></path><path d="M 182.876,87.628 C 177.283,88.427 176.982,87.638 171.690,89.227" stroke-width="8.647" stroke="black" fill="none" stroke-linecap="round"></path><path d="M 171.690,89.227 C 168.992,90.037 169.006,90.506 166.896,92.424" stroke-width="7.203" stroke="black" fill="none" stroke-linecap="round"></path><path d="M 166.896,92.424 C 164.611,94.503 164.802,94.748 162.901,97.221" stroke-width="6.757" stroke="black" fill="none" stroke-linecap="round"></path><path d="M 162.901,97.221 C 160.807,99.944 160.669,99.877 158.906,102.816" stroke-width="6.509" stroke="black" fill="none" stroke-linecap="round"></path><path d="M 158.906,102.816 C 157.074,105.873 156.958,105.884 155.710,109.212" stroke-width="6.387" stroke="black" fill="none" stroke-linecap="round"></path><path d="M 155.710,109.212 C 154.560,112.279 154.867,112.399 154.112,115.607" stroke-width="6.455" stroke="black" fill="none" stroke-linecap="round"></path><path d="M 154.112,115.607 C 153.269,119.194 153.154,119.177 152.514,122.802" stroke-width="6.330" stroke="black" fill="none" stroke-linecap="round"></path><path d="M 152.514,122.802 C 151.955,125.971 151.715,125.996 151.715,129.197" stroke-width="6.535" stroke="black" fill="none" stroke-linecap="round"></path><path d="M 151.715,129.197 C 151.715,132.791 151.868,132.836 152.514,136.391" stroke-width="6.294" stroke="black" fill="none" stroke-linecap="round"></path><path d="M 152.514,136.391 C 153.466,141.629 153.385,141.694 154.911,146.784" stroke-width="6.674" stroke="black" fill="none" stroke-linecap="round"></path><path d="M 154.911,146.784 C 155.782,149.688 155.730,149.814 157.308,152.379" stroke-width="6.641" stroke="black" fill="none" stroke-linecap="round"></path><path d="M 157.308,152.379 C 158.926,155.010 159.106,154.977 161.303,157.176" stroke-width="6.600" stroke="black" fill="none" stroke-linecap="round"></path><path d="M 161.303,157.176 C 163.501,159.374 163.605,159.302 166.097,161.173" stroke-width="6.588" stroke="black" fill="none" stroke-linecap="round"></path><path d="M 166.097,161.173 C 168.399,162.900 168.365,163.010 170.891,164.370" stroke-width="6.681" stroke="black" fill="none" stroke-linecap="round"></path><path d="M 170.891,164.370 C 173.559,165.808 173.584,165.940 176.484,166.769" stroke-width="6.643" stroke="black" fill="none" stroke-linecap="round"></path><path d="M 176.484,166.769 C 179.177,167.538 179.277,167.568 182.077,167.568" stroke-width="6.721" stroke="black" fill="none" stroke-linecap="round"></path><path d="M 182.077,167.568 C 185.270,167.568 185.277,167.195 188.469,166.769" stroke-width="6.584" stroke="black" fill="none" stroke-linecap="round"></path><path d="M 188.469,166.769 C 191.269,166.395 191.370,166.739 194.062,165.969" stroke-width="6.703" stroke="black" fill="none" stroke-linecap="round"></path><path d="M 194.062,165.969 C 196.963,165.140 196.900,164.858 199.655,163.571" stroke-width="6.650" stroke="black" fill="none" stroke-linecap="round"></path><path d="M 199.655,163.571 C 202.892,162.060 202.951,162.144 206.047,160.373" stroke-width="6.427" stroke="black" fill="none" stroke-linecap="round"></path><path d="M 206.047,160.373 C 208.544,158.946 208.540,158.903 210.841,157.176" stroke-width="6.630" stroke="black" fill="none" stroke-linecap="round"></path><path d="M 210.841,157.176 C 213.334,155.305 213.544,155.461 215.635,153.179" stroke-width="6.597" stroke="black" fill="none" stroke-linecap="round"></path><path d="M 215.635,153.179 C 217.939,150.665 217.954,150.564 219.630,147.583" stroke-width="6.464" stroke="black" fill="none" stroke-linecap="round"></path><path d="M 219.630,147.583 C 221.550,144.169 221.402,144.053 222.826,140.388" stroke-width="6.242" stroke="black" fill="none" stroke-linecap="round"></path><path d="M 222.826,140.388 C 224.199,136.858 224.261,136.854 225.223,133.194" stroke-width="6.229" stroke="black" fill="none" stroke-linecap="round"></path><path d="M 225.223,133.194 C 226.258,129.259 226.418,129.236 226.822,125.200" stroke-width="6.126" stroke="black" fill="none" stroke-linecap="round"></path><path d="M 226.822,125.200 C 227.217,121.242 227.056,121.186 226.822,117.206" stroke-width="6.123" stroke="black" fill="none" stroke-linecap="round"></path><path d="M 226.822,117.206 C 226.656,114.391 226.613,114.367 226.022,111.610" stroke-width="6.552" stroke="black" fill="none" stroke-linecap="round"></path><path d="M 226.022,111.610 C 225.415,108.771 225.464,108.718 224.425,106.014" stroke-width="6.658" stroke="black" fill="none" stroke-linecap="round"></path><path d="M 224.425,106.014 C 223.467,103.522 223.444,103.486 222.027,101.218" stroke-width="6.786" stroke="black" fill="none" stroke-linecap="round"></path><path d="M 222.027,101.218 C 219.449,97.091 219.716,96.741 216.434,93.224" stroke-width="6.930" stroke="black" fill="none" stroke-linecap="round"></path><path d="M 216.434,93.224 C 214.123,90.745 213.848,90.831 210.841,89.227" stroke-width="6.556" stroke="black" fill="none" stroke-linecap="round"></path><path d="M 210.841,89.227 C 207.856,87.633 207.716,87.790 204.449,86.828" stroke-width="6.461" stroke="black" fill="none" stroke-linecap="round"></path><path d="M 204.449,86.828 C 200.925,85.791 200.897,85.634 197.258,85.230" stroke-width="6.333" stroke="black" fill="none" stroke-linecap="round"></path><path d="M 197.258,85.230 C 193.706,84.835 193.663,85.230 190.067,85.230" stroke-width="6.327" stroke="black" fill="none" stroke-linecap="round"></path><path d="M 190.067,85.230 C 186.871,85.230 186.859,85.030 183.675,85.230" stroke-width="6.475" stroke="black" fill="none" stroke-linecap="round"></path><path d="M 183.675,85.230 C 180.467,85.430 180.452,85.470 177.283,86.029" stroke-width="6.511" stroke="black" fill="none" stroke-linecap="round"></path><path d="M 177.283,86.029 C 173.660,86.669 170.478,85.893 170.092,87.628" stroke-width="7.107" stroke="black" fill="none" stroke-linecap="round"></path><path d="M 170.092,87.628 C 169.679,89.491 172.340,91.451 175.685,93.224" stroke-width="7.860" stroke="black" fill="none" stroke-linecap="round"></path><path d="M 175.685,93.224 C 179.131,95.049 179.645,94.273 183.675,94.822" stroke-width="6.526" stroke="black" fill="none" stroke-linecap="round"></path><path d="M 183.675,94.822 C 188.434,95.472 188.463,95.382 193.263,95.622" stroke-width="5.961" stroke="black" fill="none" stroke-linecap="round"></path><path d="M 193.263,95.622 C 196.453,95.781 196.459,95.622 199.655,95.622" stroke-width="6.355" stroke="black" fill="none" stroke-linecap="round"></path><path d="M 238.008,23.675 C 238.807,31.270 238.629,31.294 239.605,38.864" stroke-width="8.386" stroke="black" fill="none" stroke-linecap="round"></path><path d="M 239.605,38.864 C 240.227,43.685 240.465,43.651 241.203,48.457" stroke-width="6.218" stroke="black" fill="none" stroke-linecap="round"></path><path d="M 241.203,48.457 C 242.063,54.044 242.030,54.049 242.802,59.649" stroke-width="5.626" stroke="black" fill="none" stroke-linecap="round"></path><path d="M 242.802,59.649 C 243.628,65.640 243.626,65.641 244.400,71.640" stroke-width="5.363" stroke="black" fill="none" stroke-linecap="round"></path><path d="M 244.400,71.640 C 245.224,78.032 245.173,78.038 245.998,84.430" stroke-width="5.190" stroke="black" fill="none" stroke-linecap="round"></path><path d="M 245.998,84.430 C 246.771,90.429 246.769,90.429 247.596,96.421" stroke-width="5.144" stroke="black" fill="none" stroke-linecap="round"></path><path d="M 247.596,96.421 C 248.367,102.021 248.395,102.017 249.194,107.613" stroke-width="5.324" stroke="black" fill="none" stroke-linecap="round"></path><path d="M 249.194,107.613 C 249.993,113.209 249.964,113.213 250.792,118.804" stroke-width="5.381" stroke="black" fill="none" stroke-linecap="round"></path><path d="M 250.792,118.804 C 251.562,124.005 251.489,124.018 252.390,129.197" stroke-width="5.505" stroke="black" fill="none" stroke-linecap="round"></path><path d="M 252.390,129.197 C 253.087,133.212 252.953,133.256 253.988,137.191" stroke-width="5.897" stroke="black" fill="none" stroke-linecap="round"></path><path d="M 253.988,137.191 C 254.950,140.851 255.316,140.750 256.385,144.385" stroke-width="6.122" stroke="black" fill="none" stroke-linecap="round"></path><path d="M 256.385,144.385 C 257.313,147.545 256.704,147.795 257.983,150.781" stroke-width="6.372" stroke="black" fill="none" stroke-linecap="round"></path><path d="M 257.983,150.781 C 259.101,153.391 259.486,153.248 261.179,155.577" stroke-width="6.612" stroke="black" fill="none" stroke-linecap="round"></path><path d="M 261.179,155.577 C 262.682,157.645 262.577,157.775 264.375,159.574" stroke-width="6.756" stroke="black" fill="none" stroke-linecap="round"></path><path d="M 264.375,159.574 C 266.172,161.373 266.145,161.573 268.370,162.772" stroke-width="6.930" stroke="black" fill="none" stroke-linecap="round"></path><path d="M 268.370,162.772 C 271.338,164.371 271.434,164.694 274.762,165.170" stroke-width="7.316" stroke="black" fill="none" stroke-linecap="round"></path><path d="M 274.762,165.170 C 279.824,165.893 279.955,165.170 285.149,165.170" stroke-width="6.980" stroke="black" fill="none" stroke-linecap="round"></path><path d="M 285.149,165.170 C 287.945,165.170 287.990,165.537 290.742,165.170" stroke-width="6.900" stroke="black" fill="none" stroke-linecap="round"></path><path d="M 290.742,165.170 C 293.983,164.737 293.902,164.177 297.134,163.571" stroke-width="6.605" stroke="black" fill="none" stroke-linecap="round"></path><path d="M 297.134,163.571 C 300.294,162.978 300.422,163.548 303.526,162.772" stroke-width="6.550" stroke="black" fill="none" stroke-linecap="round"></path><path d="M 303.526,162.772 C 306.814,161.949 306.682,161.453 309.918,160.373" stroke-width="6.459" stroke="black" fill="none" stroke-linecap="round"></path><path d="M 309.918,160.373 C 312.675,159.454 312.714,159.574 315.511,158.775" stroke-width="6.630" stroke="black" fill="none" stroke-linecap="round"></path><path d="M 315.511,158.775 C 318.307,157.975 318.401,158.216 321.104,157.176" stroke-width="6.683" stroke="black" fill="none" stroke-linecap="round"></path><path d="M 321.104,157.176 C 323.594,156.217 323.470,155.911 325.898,154.778" stroke-width="6.724" stroke="black" fill="none" stroke-linecap="round"></path><path d="M 325.898,154.778 C 329.462,153.113 329.524,153.244 333.089,151.580" stroke-width="7.149" stroke="black" fill="none" stroke-linecap="round"></path><path d="M 238.806,127.598 C 242.402,125.200 242.299,125.022 245.998,122.802" stroke-width="8.588" stroke="black" fill="none" stroke-linecap="round"></path><path d="M 245.998,122.802 C 248.291,121.425 248.433,121.674 250.792,120.403" stroke-width="7.287" stroke="black" fill="none" stroke-linecap="round"></path><path d="M 250.792,120.403 C 253.626,118.876 253.643,118.894 256.385,117.206" stroke-width="6.737" stroke="black" fill="none" stroke-linecap="round"></path><path d="M 256.385,117.206 C 258.837,115.696 258.695,115.458 261.179,114.008" stroke-width="6.726" stroke="black" fill="none" stroke-linecap="round"></path><path d="M 261.179,114.008 C 263.489,112.660 263.679,112.987 265.973,111.610" stroke-width="6.807" stroke="black" fill="none" stroke-linecap="round"></path><path d="M 265.973,111.610 C 269.671,109.389 269.501,109.104 273.164,106.813" stroke-width="7.061" stroke="black" fill="none" stroke-linecap="round"></path><path d="M 323.501,82.831 C 320.305,87.228 320.242,87.184 317.109,91.625" stroke-width="8.545" stroke="black" fill="none" stroke-linecap="round"></path><path d="M 317.109,91.625 C 315.448,93.979 315.273,93.894 313.913,96.421" stroke-width="7.181" stroke="black" fill="none" stroke-linecap="round"></path><path d="M 313.913,96.421 C 312.476,99.090 312.475,99.138 311.516,102.017" stroke-width="6.784" stroke="black" fill="none" stroke-linecap="round"></path><path d="M 311.516,102.017 C 310.477,105.134 310.766,105.228 309.918,108.412" stroke-width="6.572" stroke="black" fill="none" stroke-linecap="round"></path><path d="M 309.918,108.412 C 309.168,111.223 308.888,111.163 308.320,114.008" stroke-width="6.664" stroke="black" fill="none" stroke-linecap="round"></path><path d="M 308.320,114.008 C 307.690,117.159 307.690,117.191 307.521,120.403" stroke-width="6.567" stroke="black" fill="none" stroke-linecap="round"></path><path d="M 307.521,120.403 C 307.290,124.786 306.746,124.936 307.521,129.197" stroke-width="6.935" stroke="black" fill="none" stroke-linecap="round"></path><path d="M 307.521,129.197 C 308.344,133.730 308.387,133.995 310.717,137.990" stroke-width="6.989" stroke="black" fill="none" stroke-linecap="round"></path><path d="M 310.717,137.990 C 313.980,143.588 313.883,144.280 318.707,148.382" stroke-width="6.710" stroke="black" fill="none" stroke-linecap="round"></path><path d="M 318.707,148.382 C 321.873,151.075 322.553,150.751 326.697,151.580" stroke-width="7.034" stroke="black" fill="none" stroke-linecap="round"></path><path d="M 326.697,151.580 C 330.543,152.350 330.771,152.070 334.687,151.580" stroke-width="7.209" stroke="black" fill="none" stroke-linecap="round"></path><path d="M 334.687,151.580 C 337.163,151.270 337.154,150.951 339.481,149.981" stroke-width="7.017" stroke="black" fill="none" stroke-linecap="round"></path><path d="M 339.481,149.981 C 341.948,148.953 342.135,149.140 344.275,147.583" stroke-width="6.959" stroke="black" fill="none" stroke-linecap="round"></path><path d="M 344.275,147.583 C 346.530,145.942 346.182,145.485 348.270,143.586" stroke-width="6.815" stroke="black" fill="none" stroke-linecap="round"></path><path d="M 348.270,143.586 C 350.576,141.488 350.987,141.875 353.064,139.589" stroke-width="6.651" stroke="black" fill="none" stroke-linecap="round"></path><path d="M 353.064,139.589 C 354.982,137.478 354.662,137.191 356.260,134.793" stroke-width="6.627" stroke="black" fill="none" stroke-linecap="round"></path><path d="M 356.260,134.793 C 357.858,132.394 358.096,132.523 359.456,129.996" stroke-width="6.759" stroke="black" fill="none" stroke-linecap="round"></path><path d="M 359.456,129.996 C 360.892,127.327 360.761,127.239 361.853,124.400" stroke-width="6.666" stroke="black" fill="none" stroke-linecap="round"></path><path d="M 361.853,124.400 C 362.759,122.043 363.071,122.070 363.451,119.604" stroke-width="6.853" stroke="black" fill="none" stroke-linecap="round"></path><path d="M 363.451,119.604 C 363.870,116.874 363.451,116.806 363.451,114.008" stroke-width="6.796" stroke="black" fill="none" stroke-linecap="round"></path><path d="M 363.451,114.008 C 363.451,110.411 364.338,110.142 363.451,106.813" stroke-width="7.251" stroke="black" fill="none" stroke-linecap="round"></path><path d="M 363.451,106.813 C 362.740,104.147 362.263,104.027 360.255,102.017" stroke-width="7.534" stroke="black" fill="none" stroke-linecap="round"></path><path d="M 360.255,102.017 C 357.469,99.230 357.284,99.234 353.863,97.221" stroke-width="7.388" stroke="black" fill="none" stroke-linecap="round"></path><path d="M 353.863,97.221 C 350.493,95.237 350.386,95.262 346.672,94.023" stroke-width="7.303" stroke="black" fill="none" stroke-linecap="round"></path><path d="M 346.672,94.023 C 343.195,92.863 343.098,92.650 339.481,92.424" stroke-width="7.369" stroke="black" fill="none" stroke-linecap="round"></path><path d="M 339.481,92.424 C 336.706,92.251 336.684,92.824 333.888,93.224" stroke-width="7.609" stroke="black" fill="none" stroke-linecap="round"></path><path d="M 333.888,93.224 C 331.091,93.623 330.866,93.034 328.295,94.023" stroke-width="8.080" stroke="black" fill="none" stroke-linecap="round"></path><path d="M 373.838,100.418 C 375.036,106.414 374.988,106.424 376.235,112.409" stroke-width="8.436" stroke="black" fill="none" stroke-linecap="round"></path><path d="M 376.235,112.409 C 376.986,116.017 377.074,115.998 377.833,119.604" stroke-width="6.800" stroke="black" fill="none" stroke-linecap="round"></path><path d="M 377.833,119.604 C 378.672,123.592 378.591,123.609 379.431,127.598" stroke-width="6.282" stroke="black" fill="none" stroke-linecap="round"></path><path d="M 379.431,127.598 C 380.189,131.204 380.044,131.247 381.029,134.793" stroke-width="6.279" stroke="black" fill="none" stroke-linecap="round"></path><path d="M 381.029,134.793 C 382.042,138.441 382.385,138.344 383.426,141.987" stroke-width="6.450" stroke="black" fill="none" stroke-linecap="round"></path><path d="M 383.426,141.987 C 384.782,146.738 384.565,146.799 385.823,151.580" stroke-width="6.775" stroke="black" fill="none" stroke-linecap="round"></path><path d="M 385.823,151.580 C 386.563,154.394 386.454,154.435 387.421,157.176" stroke-width="6.651" stroke="black" fill="none" stroke-linecap="round"></path><path d="M 387.421,157.176 C 388.851,161.230 390.798,165.532 390.617,165.170" stroke-width="6.985" stroke="black" fill="none" stroke-linecap="round"></path><path d="M 390.617,165.170 C 390.398,164.733 388.333,160.468 386.622,155.577" stroke-width="7.905" stroke="black" fill="none" stroke-linecap="round"></path><path d="M 386.622,155.577 C 385.536,152.474 385.778,152.390 385.024,149.182" stroke-width="6.767" stroke="black" fill="none" stroke-linecap="round"></path><path d="M 385.024,149.182 C 384.180,145.595 384.225,145.584 383.426,141.987" stroke-width="6.332" stroke="black" fill="none" stroke-linecap="round"></path><path d="M 383.426,141.987 C 382.627,138.390 382.586,138.398 381.828,134.793" stroke-width="6.212" stroke="black" fill="none" stroke-linecap="round"></path><path d="M 381.828,134.793 C 380.988,130.804 380.865,130.821 380.230,126.798" stroke-width="6.035" stroke="black" fill="none" stroke-linecap="round"></path><path d="M 380.230,126.798 C 379.666,123.227 379.631,123.212 379.431,119.604" stroke-width="6.147" stroke="black" fill="none" stroke-linecap="round"></path><path d="M 379.431,119.604 C 379.232,116.018 379.654,115.991 379.431,112.409" stroke-width="6.270" stroke="black" fill="none" stroke-linecap="round"></path><path d="M 379.431,112.409 C 379.255,109.595 378.832,109.625 378.632,106.813" stroke-width="6.601" stroke="black" fill="none" stroke-linecap="round"></path><path d="M 378.632,106.813 C 378.433,104.030 378.458,104.006 378.632,101.218" stroke-width="6.719" stroke="black" fill="none" stroke-linecap="round"></path><path d="M 378.632,101.218 C 378.857,97.611 378.725,97.553 379.431,94.023" stroke-width="7.195" stroke="black" fill="none" stroke-linecap="round"></path><path d="M 379.431,94.023 C 379.924,91.558 379.310,89.539 381.029,89.227" stroke-width="7.863" stroke="black" fill="none" stroke-linecap="round"></path><path d="M 381.029,89.227 C 383.704,88.740 384.830,90.486 388.220,92.424" stroke-width="8.201" stroke="black" fill="none" stroke-linecap="round"></path><path d="M 388.220,92.424 C 390.423,93.684 390.316,93.912 392.215,95.622" stroke-width="7.258" stroke="black" fill="none" stroke-linecap="round"></path><path d="M 392.215,95.622 C 394.311,97.510 394.312,97.530 396.210,99.619" stroke-width="6.898" stroke="black" fill="none" stroke-linecap="round"></path><path d="M 396.210,99.619 C 398.307,101.926 398.189,102.032 400.205,104.415" stroke-width="6.674" stroke="black" fill="none" stroke-linecap="round"></path><path d="M 400.205,104.415 C 402.584,107.228 402.602,107.213 404.999,110.011" stroke-width="6.470" stroke="black" fill="none" stroke-linecap="round"></path><path d="M 404.999,110.011 C 407.396,112.809 407.721,112.578 409.793,115.607" stroke-width="6.251" stroke="black" fill="none" stroke-linecap="round"></path><path d="M 409.793,115.607 C 412.915,120.172 412.264,120.635 415.386,125.200" stroke-width="6.546" stroke="black" fill="none" stroke-linecap="round"></path><path d="M 415.386,125.200 C 417.457,128.229 418.008,127.832 420.180,130.796" stroke-width="6.273" stroke="black" fill="none" stroke-linecap="round"></path><path d="M 420.180,130.796 C 422.402,133.828 421.633,134.478 424.175,137.191" stroke-width="6.246" stroke="black" fill="none" stroke-linecap="round"></path><path d="M 424.175,137.191 C 427.625,140.873 428.194,140.358 432.165,143.586" stroke-width="6.038" stroke="black" fill="none" stroke-linecap="round"></path><path d="M 432.165,143.586 C 434.586,145.554 434.380,145.863 436.959,147.583" stroke-width="6.337" stroke="black" fill="none" stroke-linecap="round"></path><path d="M 436.959,147.583 C 439.174,149.060 439.262,149.023 441.753,149.981" stroke-width="6.683" stroke="black" fill="none" stroke-linecap="round"></path><path d="M 441.753,149.981 C 444.456,151.021 444.509,150.972 447.346,151.580" stroke-width="6.766" stroke="black" fill="none" stroke-linecap="round"></path><path d="M 447.346,151.580 C 450.102,152.171 450.128,152.179 452.939,152.379" stroke-width="6.758" stroke="black" fill="none" stroke-linecap="round"></path><path d="M 452.939,152.379 C 455.721,152.578 455.806,152.861 458.532,152.379" stroke-width="6.768" stroke="black" fill="none" stroke-linecap="round"></path><path d="M 458.532,152.379 C 462.598,151.662 462.741,151.636 466.522,149.981" stroke-width="7.083" stroke="black" fill="none" stroke-linecap="round"></path><path d="M 466.522,149.981 C 469.133,148.838 469.015,148.510 471.316,146.784" stroke-width="6.826" stroke="black" fill="none" stroke-linecap="round"></path><path d="M 471.316,146.784 C 473.809,144.913 473.913,144.985 476.110,142.787" stroke-width="6.654" stroke="black" fill="none" stroke-linecap="round"></path><path d="M 476.110,142.787 C 478.307,140.588 478.487,140.621 480.105,137.990" stroke-width="6.604" stroke="black" fill="none" stroke-linecap="round"></path><path d="M 480.105,137.990 C 481.683,135.425 481.543,135.273 482.502,132.394" stroke-width="6.620" stroke="black" fill="none" stroke-linecap="round"></path><path d="M 482.502,132.394 C 483.540,129.277 483.494,129.233 484.100,125.999" stroke-width="6.597" stroke="black" fill="none" stroke-linecap="round"></path><path d="M 484.100,125.999 C 484.692,122.838 484.698,122.814 484.899,119.604" stroke-width="6.469" stroke="black" fill="none" stroke-linecap="round"></path><path d="M 484.899,119.604 C 485.098,116.419 485.580,116.275 484.899,113.209" stroke-width="6.518" stroke="black" fill="none" stroke-linecap="round"></path><path d="M 484.899,113.209 C 483.982,109.081 484.116,108.635 481.703,105.215" stroke-width="6.969" stroke="black" fill="none" stroke-linecap="round"></path><path d="M 481.703,105.215 C 479.322,101.840 479.008,101.263 475.311,99.619" stroke-width="7.130" stroke="black" fill="none" stroke-linecap="round"></path><path d="M 475.311,99.619 C 471.817,98.065 471.089,98.154 467.321,98.819" stroke-width="7.235" stroke="black" fill="none" stroke-linecap="round"></path><path d="M 467.321,98.819 C 464.298,99.353 463.609,99.622 461.728,102.017" stroke-width="7.464" stroke="black" fill="none" stroke-linecap="round"></path><path d="M 461.728,102.017 C 459.214,105.218 459.399,105.846 458.532,110.011" stroke-width="7.294" stroke="black" fill="none" stroke-linecap="round"></path><path d="M 458.532,110.011 C 457.402,115.439 457.256,115.717 457.733,121.203" stroke-width="6.880" stroke="black" fill="none" stroke-linecap="round"></path><path d="M 457.733,121.203 C 458.055,124.910 458.758,124.867 460.130,128.397" stroke-width="6.407" stroke="black" fill="none" stroke-linecap="round"></path><path d="M 460.130,128.397 C 461.554,132.062 461.343,132.220 463.326,135.592" stroke-width="6.226" stroke="black" fill="none" stroke-linecap="round"></path><path d="M 463.326,135.592 C 465.338,139.015 465.323,139.189 468.120,141.987" stroke-width="6.153" stroke="black" fill="none" stroke-linecap="round"></path><path d="M 468.120,141.987 C 470.916,144.785 471.138,144.674 474.512,146.784" stroke-width="6.131" stroke="black" fill="none" stroke-linecap="round"></path><path d="M 474.512,146.784 C 477.530,148.671 477.529,148.988 480.904,149.981" stroke-width="6.273" stroke="black" fill="none" stroke-linecap="round"></path><path d="M 480.904,149.981 C 484.320,150.987 484.488,150.580 488.095,150.781" stroke-width="6.301" stroke="black" fill="none" stroke-linecap="round"></path><path d="M 488.095,150.781 C 491.679,150.980 491.873,151.671 495.286,150.781" stroke-width="6.318" stroke="black" fill="none" stroke-linecap="round"></path><path d="M 495.286,150.781 C 501.062,149.273 501.246,148.972 506.472,145.984" stroke-width="6.531" stroke="black" fill="none" stroke-linecap="round"></path><path d="M 506.472,145.984 C 509.636,144.175 509.585,143.876 512.065,141.188" stroke-width="6.429" stroke="black" fill="none" stroke-linecap="round"></path><path d="M 512.065,141.188 C 514.379,138.680 514.297,138.531 516.060,135.592" stroke-width="6.335" stroke="black" fill="none" stroke-linecap="round"></path><path d="M 516.060,135.592 C 517.893,132.536 517.746,132.435 519.256,129.197" stroke-width="6.335" stroke="black" fill="none" stroke-linecap="round"></path><path d="M 519.256,129.197 C 520.542,126.439 520.844,126.516 521.653,123.601" stroke-width="6.537" stroke="black" fill="none" stroke-linecap="round"></path><path d="M 521.653,123.601 C 522.841,119.321 522.230,119.147 523.251,114.807" stroke-width="6.939" stroke="black" fill="none" stroke-linecap="round"></path><path d="M 523.251,114.807 C 523.828,112.352 523.251,111.610 524.849,110.011" stroke-width="7.543" stroke="black" fill="none" stroke-linecap="round"></path><path d="M 524.849,110.011 C 526.447,108.413 527.476,107.793 529.643,108.412" stroke-width="8.237" stroke="black" fill="none" stroke-linecap="round"></path><path d="M 177.283,374.836 C 173.688,370.439 172.723,370.998 170.092,366.043" stroke-width="7.443" stroke="black" fill="none" stroke-linecap="round"></path><path d="M 170.092,366.043 C 165.932,358.207 165.832,357.937 163.700,349.255" stroke-width="4.993" stroke="black" fill="none" stroke-linecap="round"></path><path d="M 163.700,349.255 C 160.239,335.154 159.543,335.000 158.906,320.477" stroke-width="4.500" stroke="black" fill="none" stroke-linecap="round"></path><path d="M 158.906,320.477 C 157.546,289.434 157.288,289.128 159.705,258.123" stroke-width="4.500" stroke="black" fill="none" stroke-linecap="round"></path><path d="M 159.705,258.123 C 161.682,232.770 163.001,232.808 167.695,207.761" stroke-width="4.500" stroke="black" fill="none" stroke-linecap="round"></path><path d="M 167.695,207.761 C 171.391,188.042 171.918,188.135 176.484,168.590" stroke-width="4.500" stroke="black" fill="none" stroke-linecap="round"></path><path d="M 176.484,168.590 C 179.109,157.358 183.138,145.146 182.077,146.207" stroke-width="4.500" stroke="black" fill="none" stroke-linecap="round"></path><path d="M 182.077,146.207 C 180.740,147.544 175.921,159.479 171.690,173.386" stroke-width="4.816" stroke="black" fill="none" stroke-linecap="round"></path><path d="M 171.690,173.386 C 159.142,214.638 157.708,214.496 148.519,256.524" stroke-width="4.500" stroke="black" fill="none" stroke-linecap="round"></path><path d="M 148.519,256.524 C 143.726,278.449 143.961,278.930 143.725,301.291" stroke-width="4.500" stroke="black" fill="none" stroke-linecap="round"></path><path d="M 143.725,301.291 C 143.561,316.902 143.560,317.639 147.720,332.468" stroke-width="4.500" stroke="black" fill="none" stroke-linecap="round"></path><path d="M 147.720,332.468 C 149.952,340.422 150.364,344.101 156.509,346.857" stroke-width="4.500" stroke="black" fill="none" stroke-linecap="round"></path><path d="M 156.509,346.857 C 161.950,349.297 165.551,347.567 170.891,342.860" stroke-width="4.535" stroke="black" fill="none" stroke-linecap="round"></path><path d="M 170.891,342.860 C 182.330,332.778 181.183,330.558 190.067,317.279" stroke-width="4.500" stroke="black" fill="none" stroke-linecap="round"></path><path d="M 190.067,317.279 C 213.543,282.194 211.989,281.127 235.611,246.132" stroke-width="4.500" stroke="black" fill="none" stroke-linecap="round"></path><path d="M 235.611,246.132 C 253.537,219.573 253.155,219.132 273.164,194.171" stroke-width="4.500" stroke="black" fill="none" stroke-linecap="round"></path><path d="M 273.164,194.171 C 285.515,178.762 285.049,176.717 300.330,165.392" stroke-width="4.500" stroke="black" fill="none" stroke-linecap="round"></path><path d="M 300.330,165.392 C 306.622,160.729 312.521,157.562 316.310,162.195" stroke-width="4.500" stroke="black" fill="none" stroke-linecap="round"></path><path d="M 316.310,162.195 C 323.308,170.752 322.038,176.870 321.903,191.773" stroke-width="4.500" stroke="black" fill="none" stroke-linecap="round"></path><path d="M 321.903,191.773 C 321.639,220.837 319.539,221.068 315.511,250.129" stroke-width="4.500" stroke="black" fill="none" stroke-linecap="round"></path><path d="M 315.511,250.129 C 311.948,275.827 310.802,275.661 306.722,301.291" stroke-width="4.500" stroke="black" fill="none" stroke-linecap="round"></path><path d="M 306.722,301.291 C 303.611,320.827 303.515,320.831 301.129,340.462" stroke-width="4.500" stroke="black" fill="none" stroke-linecap="round"></path><path d="M 301.129,340.462 C 299.919,350.409 299.816,350.459 299.531,360.447" stroke-width="4.500" stroke="black" fill="none" stroke-linecap="round"></path><path d="M 299.531,360.447 C 299.416,364.449 302.050,368.441 300.330,368.441" stroke-width="4.986" stroke="black" fill="none" stroke-linecap="round"></path><path d="M 300.330,368.441 C 297.656,368.441 296.081,363.548 290.742,360.447" stroke-width="6.370" stroke="black" fill="none" stroke-linecap="round"></path><path d="M 290.742,360.447 C 283.696,356.354 283.520,355.238 275.561,354.052" stroke-width="4.994" stroke="black" fill="none" stroke-linecap="round"></path><path d="M 275.561,354.052 C 264.744,352.440 263.954,352.189 253.189,354.851" stroke-width="4.500" stroke="black" fill="none" stroke-linecap="round"></path><path d="M 253.189,354.851 C 228.399,360.982 227.744,360.948 204.449,371.638" stroke-width="4.500" stroke="black" fill="none" stroke-linecap="round"></path><path d="M 204.449,371.638 C 184.198,380.933 184.752,382.451 166.097,394.821" stroke-width="4.500" stroke="black" fill="none" stroke-linecap="round"></path><path d="M 166.097,394.821 C 150.395,405.234 151.333,406.641 135.735,417.204" stroke-width="4.500" stroke="black" fill="none" stroke-linecap="round"></path><path d="M 135.735,417.204 C 125.365,424.228 125.516,425.668 114.162,429.995" stroke-width="4.500" stroke="black" fill="none" stroke-linecap="round"></path><path d="M 114.162,429.995 C 108.737,432.063 104.327,433.681 102.177,429.995" stroke-width="4.500" stroke="black" fill="none" stroke-linecap="round"></path><path d="M 102.177,429.995 C 98.734,424.089 100.507,419.987 102.976,410.809" stroke-width="5.338" stroke="black" fill="none" stroke-linecap="round"></path><path d="M 102.976,410.809 C 108.896,388.810 108.503,387.955 118.956,367.641" stroke-width="4.500" stroke="black" fill="none" stroke-linecap="round"></path><path d="M 118.956,367.641 C 129.277,347.585 129.907,347.299 144.524,330.069" stroke-width="4.500" stroke="black" fill="none" stroke-linecap="round"></path><path d="M 144.524,330.069 C 159.070,312.925 159.344,312.405 177.283,298.893" stroke-width="4.500" stroke="black" fill="none" stroke-linecap="round"></path><path d="M 177.283,298.893 C 194.899,285.625 195.654,286.020 215.635,276.509" stroke-width="4.500" stroke="black" fill="none" stroke-linecap="round"></path><path d="M 215.635,276.509 C 236.803,266.434 237.205,266.854 259.581,259.722" stroke-width="4.500" stroke="black" fill="none" stroke-linecap="round"></path><path d="M 259.581,259.722 C 282.349,252.465 282.579,252.963 305.923,247.731" stroke-width="4.500" stroke="black" fill="none" stroke-linecap="round"></path><path d="M 305.923,247.731 C 332.516,241.771 332.759,242.872 359.456,237.339" stroke-width="4.500" stroke="black" fill="none" stroke-linecap="round"></path><path d="M 359.456,237.339 C 388.689,231.280 388.832,231.790 417.783,224.548" stroke-width="4.500" stroke="black" fill="none" stroke-linecap="round"></path><path d="M 417.783,224.548 C 444.762,217.800 444.549,216.954 471.316,209.360" stroke-width="4.500" stroke="black" fill="none" stroke-linecap="round"></path></svg>