<svg xmlns="http://www.w3.org/2000/svg" xmlns:xlink="http://www.w3.org/1999/xlink" viewBox="0 0 576 416" width="576" height="416"><path d="M 109.368,75.637 C 112.564,81.632 112.392,81.731 115.760,87.628" stroke-width="7.511" stroke="black" fill="none" stroke-linecap="round"></path><path d="M 115.760,87.628 C 118.784,92.922 118.956,92.824 122.152,98.020" stroke-width="5.649" stroke="black" fill="none" stroke-linecap="round"></path><path d="M 122.152,98.020 C 125.348,103.216 125.263,103.270 128.544,108.412" stroke-width="5.258" stroke="black" fill="none" stroke-linecap="round"></path><path d="M 128.544,108.412 C 137.248,122.056 137.325,122.007 146.122,135.592" stroke-width="4.500" stroke="black" fill="none" stroke-linecap="round"></path><path d="M 146.122,135.592 C 155.702,150.386 155.490,150.528 165.298,165.170" stroke-width="4.500" stroke="black" fill="none" stroke-linecap="round"></path><path d="M 165.298,165.170 C 180.658,188.100 181.040,187.845 196.459,210.736" stroke-width="4.500" stroke="black" fill="none" stroke-linecap="round"></path><path d="M 196.459,210.736 C 205.810,224.617 205.703,224.689 214.836,238.715" stroke-width="4.500" stroke="black" fill="none" stroke-linecap="round"></path><path d="M 214.836,238.715 C 222.882,251.070 222.745,251.159 230.816,263.496" stroke-width="4.500" stroke="black" fill="none" stroke-linecap="round"></path><path d="M 230.816,263.496 C 237.127,273.143 236.907,273.307 243.601,282.682" stroke-width="4.500" stroke="black" fill="none" stroke-linecap="round"></path><path d="M 243.601,282.682 C 248.892,290.094 249.286,289.807 254.787,297.071" stroke-width="4.500" stroke="black" fill="none" stroke-linecap="round"></path><path d="M 254.787,297.071 C 259.273,302.997 259.118,303.116 263.576,309.063" stroke-width="4.500" stroke="black" fill="none" stroke-linecap="round"></path><path d="M 263.576,309.063 C 265.110,311.110 265.174,311.061 266.772,313.060" stroke-width="5.889" stroke="black" fill="none" stroke-linecap="round"></path><path d="M 275.561,39.664 C 267.571,50.855 267.034,50.505 259.581,62.047" stroke-width="7.162" stroke="black" fill="none" stroke-linecap="round"></path><path d="M 259.581,62.047 C 250.255,76.486 250.555,76.700 242.003,91.625" stroke-width="4.500" stroke="black" fill="none" stroke-linecap="round"></path><path d="M 242.003,91.625 C 233.376,106.678 233.868,106.960 225.223,122.002" stroke-width="4.500" stroke="black" fill="none" stroke-linecap="round"></path><path d="M 225.223,122.002 C 215.491,138.936 215.295,138.825 205.248,155.577" stroke-width="4.500" stroke="black" fill="none" stroke-linecap="round"></path><path d="M 205.248,155.577 C 194.920,172.799 194.803,172.729 184.474,189.951" stroke-width="4.500" stroke="black" fill="none" stroke-linecap="round"></path><path d="M 184.474,189.951 C 174.428,206.704 174.546,206.774 164.499,223.526" stroke-width="4.500" stroke="black" fill="none" stroke-linecap="round"></path><path d="M 164.499,223.526 C 160.164,230.756 160.068,230.699 155.710,237.916" stroke-width="4.500" stroke="black" fill="none" stroke-linecap="round"></path><path d="M 155.710,237.916 C 148.483,249.885 148.201,249.732 141.328,261.898" stroke-width="4.500" stroke="black" fill="none" stroke-linecap="round"></path><path d="M 141.328,261.898 C 137.814,268.118 131.876,276.328 134.936,274.688" stroke-width="4.500" stroke="black" fill="none" stroke-linecap="round"></path><path d="M 134.936,274.688 C 143.062,270.333 150.216,263.218 163.700,249.907" stroke-width="4.880" stroke="black" fill="none" stroke-linecap="round"></path><path d="M 163.700,249.907 C 180.179,233.640 179.173,232.620 194.861,215.532" stroke-width="4.500" stroke="black" fill="none" stroke-linecap="round"></path><path d="M 194.861,215.532 C 210.733,198.246 210.959,198.453 226.822,181.158" stroke-width="4.500" stroke="black" fill="none" stroke-linecap="round"></path><path d="M 226.822,181.158 C 242.120,164.478 241.795,164.179 257.184,147.583" stroke-width="4.500" stroke="black" fill="none" stroke-linecap="round"></path><path d="M 257.184,147.583 C 272.557,131.003 272.685,131.119 288.345,114.807" stroke-width="4.500" stroke="black" fill="none" stroke-linecap="round"></path><path d="M 288.345,114.807 C 301.848,100.742 301.619,100.503 315.511,86.828" stroke-width="4.500" stroke="black" fill="none" stroke-linecap="round"></path><path d="M 315.511,86.828 C 326.388,76.121 326.503,76.218 337.883,66.044" stroke-width="4.500" stroke="black" fill="none" stroke-linecap="round"></path><path d="M 337.883,66.044 C 345.280,59.430 345.179,59.238 353.064,53.253" stroke-width="4.500" stroke="black" fill="none" stroke-linecap="round"></path><path d="M 353.064,53.253 C 356.765,50.444 362.142,46.884 361.054,48.457" stroke-width="4.981" stroke="black" fill="none" stroke-linecap="round"></path><path d="M 361.054,48.457 C 358.546,52.081 353.972,56.614 345.873,63.646" stroke-width="5.856" stroke="black" fill="none" stroke-linecap="round"></path><path d="M 345.873,63.646 C 326.806,80.197 326.104,79.403 306.722,95.622" stroke-width="4.500" stroke="black" fill="none" stroke-linecap="round"></path><path d="M 306.722,95.622 C 282.159,116.175 281.573,115.556 257.983,137.191" stroke-width="4.500" stroke="black" fill="none" stroke-linecap="round"></path><path d="M 257.983,137.191 C 233.633,159.523 233.910,159.884 210.841,183.556" stroke-width="4.500" stroke="black" fill="none" stroke-linecap="round"></path><path d="M 210.841,183.556 C 187.169,207.848 187.417,208.106 164.499,233.119" stroke-width="4.500" stroke="black" fill="none" stroke-linecap="round"></path><path d="M 164.499,233.119 C 143.472,256.070 143.652,256.237 122.951,279.485" stroke-width="4.500" stroke="black" fill="none" stroke-linecap="round"></path><path d="M 122.951,279.485 C 104.501,300.204 104.763,300.440 86.197,321.054" stroke-width="4.500" stroke="black" fill="none" stroke-linecap="round"></path><path d="M 86.197,321.054 C 72.004,336.812 71.424,336.302 57.433,352.230" stroke-width="4.500" stroke="black" fill="none" stroke-linecap="round"></path><path d="M 57.433,352.230 C 48.252,362.683 48.681,363.052 39.855,373.814" stroke-width="4.500" stroke="black" fill="none" stroke-linecap="round"></path><path d="M 39.855,373.814 C 35.897,378.641 29.835,382.782 31.865,383.407" stroke-width="4.500" stroke="black" fill="none" stroke-linecap="round"></path><path d="M 31.865,383.407 C 35.029,384.381 41.975,381.996 50.242,377.012" stroke-width="5.614" stroke="black" fill="none" stroke-linecap="round"></path><path d="M 50.242,377.012 C 73.136,363.210 72.904,362.326 94.187,345.835" stroke-width="4.500" stroke="black" fill="none" stroke-linecap="round"></path><path d="M 94.187,345.835 C 126.038,321.157 126.362,321.408 156.509,294.673" stroke-width="4.500" stroke="black" fill="none" stroke-linecap="round"></path><path d="M 156.509,294.673 C 196.674,259.055 195.312,257.523 234.811,221.128" stroke-width="4.500" stroke="black" fill="none" stroke-linecap="round"></path><path d="M 234.811,221.128 C 281.204,178.382 279.959,176.870 328.295,136.391" stroke-width="4.500" stroke="black" fill="none" stroke-linecap="round"></path><path d="M 328.295,136.391 C 387.824,86.538 389.337,88.323 450.542,40.463" stroke-width="4.500" stroke="black" fill="none" stroke-linecap="round"></path></svg>