<svg xmlns="http://www.w3.org/2000/svg" xmlns:xlink="http://www.w3.org/1999/xlink" viewBox="0 0 576 416" width="576" height="416"><path d="M 273.164,238.777 C 272.764,234.381 272.852,234.371 272.365,229.984" stroke-width="8.625" stroke="black" fill="none" stroke-linecap="round"></path><path d="M 272.365,229.984 C 272.053,227.176 271.766,227.200 271.566,224.388" stroke-width="7.141" stroke="black" fill="none" stroke-linecap="round"></path><path d="M 271.566,224.388 C 271.367,221.604 271.566,221.590 271.566,218.792" stroke-width="6.803" stroke="black" fill="none" stroke-linecap="round"></path><path d="M 271.566,218.792 C 271.566,215.195 271.409,215.190 271.566,211.598" stroke-width="6.460" stroke="black" fill="none" stroke-linecap="round"></path><path d="M 271.566,211.598 C 271.809,205.996 271.411,205.892 272.365,200.406" stroke-width="6.637" stroke="black" fill="none" stroke-linecap="round"></path><path d="M 272.365,200.406 C 273.009,196.699 273.432,196.759 274.762,193.211" stroke-width="6.342" stroke="black" fill="none" stroke-linecap="round"></path><path d="M 274.762,193.211 C 275.829,190.364 275.581,190.181 277.159,187.616" stroke-width="6.539" stroke="black" fill="none" stroke-linecap="round"></path><path d="M 277.159,187.616 C 278.777,184.985 278.808,184.831 281.154,182.819" stroke-width="6.409" stroke="black" fill="none" stroke-linecap="round"></path><path d="M 281.154,182.819 C 284.401,180.034 284.378,179.466 288.345,178.023" stroke-width="6.175" stroke="black" fill="none" stroke-linecap="round"></path><path d="M 288.345,178.023 C 293.167,176.268 293.765,175.776 298.732,176.424" stroke-width="6.617" stroke="black" fill="none" stroke-linecap="round"></path><path d="M 298.732,176.424 C 302.954,176.975 303.166,177.880 306.722,180.421" stroke-width="6.966" stroke="black" fill="none" stroke-linecap="round"></path><path d="M 306.722,180.421 C 308.759,181.877 308.968,182.139 309.918,184.418" stroke-width="6.932" stroke="black" fill="none" stroke-linecap="round"></path><path d="M 309.918,184.418 C 310.966,186.935 310.717,187.212 310.717,190.014" stroke-width="6.874" stroke="black" fill="none" stroke-linecap="round"></path><path d="M 310.717,190.014 C 310.717,193.208 310.732,193.312 309.918,196.409" stroke-width="6.547" stroke="black" fill="none" stroke-linecap="round"></path><path d="M 309.918,196.409 C 308.735,200.906 308.986,201.157 306.722,205.203" stroke-width="6.009" stroke="black" fill="none" stroke-linecap="round"></path><path d="M 306.722,205.203 C 303.393,211.149 302.673,210.761 298.732,216.394" stroke-width="5.246" stroke="black" fill="none" stroke-linecap="round"></path><path d="M 298.732,216.394 C 294.283,222.752 295.810,224.684 289.943,229.185" stroke-width="4.855" stroke="black" fill="none" stroke-linecap="round"></path><path d="M 289.943,229.185 C 283.825,233.877 282.482,232.404 274.762,234.780" stroke-width="4.682" stroke="black" fill="none" stroke-linecap="round"></path><path d="M 274.762,234.780 C 266.901,237.200 266.891,237.590 258.782,238.777" stroke-width="4.694" stroke="black" fill="none" stroke-linecap="round"></path><path d="M 258.782,238.777 C 250.512,239.988 250.373,239.792 242.003,239.577" stroke-width="4.500" stroke="black" fill="none" stroke-linecap="round"></path><path d="M 242.003,239.577 C 234.792,239.392 234.606,239.683 227.620,237.978" stroke-width="4.740" stroke="black" fill="none" stroke-linecap="round"></path><path d="M 227.620,237.978 C 218.227,235.686 217.748,236.050 209.243,231.583" stroke-width="4.500" stroke="black" fill="none" stroke-linecap="round"></path><path d="M 209.243,231.583 C 201.768,227.656 201.328,227.428 195.660,221.191" stroke-width="4.500" stroke="black" fill="none" stroke-linecap="round"></path><path d="M 195.660,221.191 C 189.343,214.238 189.345,213.737 185.273,205.203" stroke-width="4.500" stroke="black" fill="none" stroke-linecap="round"></path><path d="M 185.273,205.203 C 180.955,196.150 180.587,195.879 178.881,186.017" stroke-width="4.500" stroke="black" fill="none" stroke-linecap="round"></path><path d="M 178.881,186.017 C 176.992,175.094 177.215,174.743 178.082,163.634" stroke-width="4.500" stroke="black" fill="none" stroke-linecap="round"></path><path d="M 178.082,163.634 C 179.212,149.162 178.982,148.845 182.876,134.855" stroke-width="4.500" stroke="black" fill="none" stroke-linecap="round"></path><path d="M 182.876,134.855 C 187.771,117.269 187.512,116.785 195.660,100.481" stroke-width="4.500" stroke="black" fill="none" stroke-linecap="round"></path><path d="M 195.660,100.481 C 203.492,84.809 204.110,84.815 214.836,70.903" stroke-width="4.500" stroke="black" fill="none" stroke-linecap="round"></path><path d="M 214.836,70.903 C 225.683,56.836 225.770,56.578 238.806,44.522" stroke-width="4.500" stroke="black" fill="none" stroke-linecap="round"></path><path d="M 238.806,44.522 C 252.137,32.196 252.482,32.272 267.571,22.139" stroke-width="4.500" stroke="black" fill="none" stroke-linecap="round"></path><path d="M 267.571,22.139 C 281.645,12.687 281.848,12.684 297.134,5.352" stroke-width="4.500" stroke="black" fill="none" stroke-linecap="round"></path><path d="M 297.134,5.352 C 311.011,-1.305 311.183,-1.359 325.898,-5.840" stroke-width="4.500" stroke="black" fill="none" stroke-linecap="round"></path><path d="M 325.898,-5.840 C 338.748,-9.753 338.952,-9.689 352.265,-11.436" stroke-width="4.500" stroke="black" fill="none" stroke-linecap="round"></path><path d="M 352.265,-11.436 C 363.321,-12.887 363.589,-13.156 374.637,-12.235" stroke-width="4.500" stroke="black" fill="none" stroke-linecap="round"></path><path d="M 374.637,-12.235 C 382.766,-11.557 383.156,-11.405 390.617,-8.238" stroke-width="4.500" stroke="black" fill="none" stroke-linecap="round"></path><path d="M 390.617,-8.238 C 396.340,-5.809 397.058,-5.649 401.004,-1.044" stroke-width="4.859" stroke="black" fill="none" stroke-linecap="round"></path><path d="M 401.004,-1.044 C 404.249,2.744 405.932,3.879 404.999,8.549" stroke-width="5.346" stroke="black" fill="none" stroke-linecap="round"></path><path d="M 404.999,8.549 C 403.136,17.869 401.533,18.666 395.411,26.936" stroke-width="5.515" stroke="black" fill="none" stroke-linecap="round"></path><path d="M 395.411,26.936 C 385.553,40.250 385.592,40.855 373.039,51.717" stroke-width="4.500" stroke="black" fill="none" stroke-linecap="round"></path><path d="M 373.039,51.717 C 356.028,66.436 355.549,66.329 336.285,78.097" stroke-width="4.500" stroke="black" fill="none" stroke-linecap="round"></path><path d="M 336.285,78.097 C 310.405,93.908 309.955,93.361 282.752,106.876" stroke-width="4.500" stroke="black" fill="none" stroke-linecap="round"></path><path d="M 282.752,106.876 C 252.027,122.140 251.953,122.109 220.429,135.654" stroke-width="4.500" stroke="black" fill="none" stroke-linecap="round"></path><path d="M 220.429,135.654 C 189.631,148.889 189.458,148.545 158.107,160.436" stroke-width="4.500" stroke="black" fill="none" stroke-linecap="round"></path><path d="M 158.107,160.436 C 128.334,171.728 128.116,171.149 98.182,182.020" stroke-width="4.500" stroke="black" fill="none" stroke-linecap="round"></path><path d="M 98.182,182.020 C 74.184,190.735 74.263,190.955 50.242,199.607" stroke-width="4.500" stroke="black" fill="none" stroke-linecap="round"></path><path d="M 50.242,199.607 C 34.313,205.344 34.247,205.161 18.282,210.798" stroke-width="4.500" stroke="black" fill="none" stroke-linecap="round"></path><path d="M 18.282,210.798 C 13.873,212.355 13.850,212.301 9.493,213.996" stroke-width="4.500" stroke="black" fill="none" stroke-linecap="round"></path><path d="M 9.493,213.996 C 6.659,215.099 3.125,215.929 3.900,216.394" stroke-width="5.699" stroke="black" fill="none" stroke-linecap="round"></path><path d="M 3.900,216.394 C 5.122,217.128 8.696,216.496 13.488,216.394" stroke-width="6.564" stroke="black" fill="none" stroke-linecap="round"></path><path d="M 13.488,216.394 C 27.472,216.097 27.488,216.346 41.453,215.595" stroke-width="4.500" stroke="black" fill="none" stroke-linecap="round"></path><path d="M 41.453,215.595 C 64.641,214.347 64.611,213.773 87.795,212.397" stroke-width="4.500" stroke="black" fill="none" stroke-linecap="round"></path><path d="M 87.795,212.397 C 111.752,210.975 111.752,210.406 135.735,209.999" stroke-width="4.500" stroke="black" fill="none" stroke-linecap="round"></path><path d="M 135.735,209.999 C 158.893,209.606 158.962,209.489 182.077,210.798" stroke-width="4.500" stroke="black" fill="none" stroke-linecap="round"></path><path d="M 182.077,210.798 C 201.309,211.887 201.625,211.079 220.429,214.795" stroke-width="4.500" stroke="black" fill="none" stroke-linecap="round"></path><path d="M 220.429,214.795 C 233.984,217.474 235.171,216.980 246.797,223.589" stroke-width="4.500" stroke="black" fill="none" stroke-linecap="round"></path><path d="M 246.797,223.589 C 252.749,226.972 255.141,229.224 255.586,234.780" stroke-width="4.500" stroke="black" fill="none" stroke-linecap="round"></path><path d="M 255.586,234.780 C 255.940,239.216 252.974,240.301 248.395,243.574" stroke-width="4.967" stroke="black" fill="none" stroke-linecap="round"></path><path d="M 248.395,243.574 C 230.602,256.289 230.399,256.677 210.841,266.757" stroke-width="4.500" stroke="black" fill="none" stroke-linecap="round"></path><path d="M 210.841,266.757 C 190.848,277.061 190.067,275.550 169.293,284.344" stroke-width="4.500" stroke="black" fill="none" stroke-linecap="round"></path></svg>