<svg xmlns="http://www.w3.org/2000/svg" xmlns:xlink="http://www.w3.org/1999/xlink" viewBox="0 0 576 416" width="576" height="416"><path d="M 105.373,157.625 C 106.172,164.020 106.370,164.002 106.971,170.416" stroke-width="7.751" stroke="black" fill="none" stroke-linecap="round"></path><path d="M 106.971,170.416 C 107.569,176.792 107.266,176.819 107.770,183.206" stroke-width="5.711" stroke="black" fill="none" stroke-linecap="round"></path><path d="M 107.770,183.206 C 108.465,192.008 108.604,191.997 109.368,200.793" stroke-width="4.737" stroke="black" fill="none" stroke-linecap="round"></path><path d="M 109.368,200.793 C 110.202,210.383 109.949,210.409 110.966,219.979" stroke-width="4.500" stroke="black" fill="none" stroke-linecap="round"></path><path d="M 110.966,219.979 C 111.946,229.195 112.317,229.155 113.363,238.365" stroke-width="4.500" stroke="black" fill="none" stroke-linecap="round"></path><path d="M 113.363,238.365 C 114.315,246.742 113.803,246.812 114.961,255.152" stroke-width="4.885" stroke="black" fill="none" stroke-linecap="round"></path><path d="M 114.961,255.152 C 115.801,261.201 116.394,261.113 117.358,267.144" stroke-width="5.125" stroke="black" fill="none" stroke-linecap="round"></path><path d="M 117.358,267.144 C 117.992,271.106 119.444,275.853 118.157,275.138" stroke-width="5.910" stroke="black" fill="none" stroke-linecap="round"></path><path d="M 118.157,275.138 C 115.849,273.854 113.617,269.440 110.167,263.146" stroke-width="6.884" stroke="black" fill="none" stroke-linecap="round"></path><path d="M 110.167,263.146 C 106.825,257.049 107.272,256.793 104.574,250.356" stroke-width="5.504" stroke="black" fill="none" stroke-linecap="round"></path><path d="M 104.574,250.356 C 102.079,244.402 102.248,244.331 99.780,238.365" stroke-width="5.226" stroke="black" fill="none" stroke-linecap="round"></path><path d="M 99.780,238.365 C 97.454,232.740 97.097,232.874 94.986,227.173" stroke-width="5.145" stroke="black" fill="none" stroke-linecap="round"></path><path d="M 94.986,227.173 C 93.102,222.082 93.372,221.982 91.790,216.781" stroke-width="5.462" stroke="black" fill="none" stroke-linecap="round"></path><path d="M 91.790,216.781 C 90.576,212.789 90.295,212.847 89.393,208.787" stroke-width="5.852" stroke="black" fill="none" stroke-linecap="round"></path><path d="M 89.393,208.787 C 88.697,205.652 88.384,205.542 88.594,202.392" stroke-width="6.308" stroke="black" fill="none" stroke-linecap="round"></path><path d="M 88.594,202.392 C 88.784,199.547 88.718,196.059 90.192,196.796" stroke-width="7.212" stroke="black" fill="none" stroke-linecap="round"></path><path d="M 90.192,196.796 C 93.512,198.457 94.458,201.806 98.182,207.188" stroke-width="7.175" stroke="black" fill="none" stroke-linecap="round"></path><path d="M 98.182,207.188 C 101.649,212.198 101.437,212.349 104.574,217.581" stroke-width="5.701" stroke="black" fill="none" stroke-linecap="round"></path><path d="M 104.574,217.581 C 107.430,222.342 107.190,222.493 110.167,227.173" stroke-width="5.519" stroke="black" fill="none" stroke-linecap="round"></path><path d="M 110.167,227.173 C 112.783,231.286 112.696,231.395 115.760,235.167" stroke-width="5.737" stroke="black" fill="none" stroke-linecap="round"></path><path d="M 115.760,235.167 C 117.890,237.790 117.877,237.955 120.554,239.964" stroke-width="6.134" stroke="black" fill="none" stroke-linecap="round"></path><path d="M 120.554,239.964 C 122.671,241.552 123.161,242.867 125.348,242.362" stroke-width="6.613" stroke="black" fill="none" stroke-linecap="round"></path><path d="M 125.348,242.362 C 128.355,241.668 129.460,240.695 130.941,237.566" stroke-width="7.442" stroke="black" fill="none" stroke-linecap="round"></path><path d="M 130.941,237.566 C 133.055,233.100 131.907,232.391 132.539,227.173" stroke-width="6.017" stroke="black" fill="none" stroke-linecap="round"></path><path d="M 132.539,227.173 C 133.505,219.200 133.442,219.188 134.137,211.185" stroke-width="4.971" stroke="black" fill="none" stroke-linecap="round"></path><path d="M 134.137,211.185 C 135.040,200.802 134.951,200.794 135.735,190.401" stroke-width="4.500" stroke="black" fill="none" stroke-linecap="round"></path><path d="M 135.735,190.401 C 136.549,179.610 136.918,179.623 137.333,168.817" stroke-width="4.500" stroke="black" fill="none" stroke-linecap="round"></path><path d="M 137.333,168.817 C 137.717,158.839 137.333,158.824 137.333,148.832" stroke-width="4.500" stroke="black" fill="none" stroke-linecap="round"></path><path d="M 137.333,148.832 C 137.333,140.038 137.333,140.038 137.333,131.245" stroke-width="4.500" stroke="black" fill="none" stroke-linecap="round"></path><path d="M 137.333,131.245 C 137.333,124.050 137.551,124.043 137.333,116.856" stroke-width="4.777" stroke="black" fill="none" stroke-linecap="round"></path><path d="M 137.333,116.856 C 137.152,110.853 136.774,110.865 136.534,104.865" stroke-width="5.025" stroke="black" fill="none" stroke-linecap="round"></path><path d="M 136.534,104.865 C 136.375,100.873 136.768,100.851 136.534,96.871" stroke-width="5.745" stroke="black" fill="none" stroke-linecap="round"></path><path d="M 136.534,96.871 C 136.369,94.056 134.908,91.109 135.735,91.275" stroke-width="6.997" stroke="black" fill="none" stroke-linecap="round"></path><path d="M 135.735,91.275 C 136.905,91.509 138.760,94.129 140.529,97.670" stroke-width="7.528" stroke="black" fill="none" stroke-linecap="round"></path><path d="M 140.529,97.670 C 143.554,103.722 143.166,103.984 145.323,110.460" stroke-width="5.552" stroke="black" fill="none" stroke-linecap="round"></path><path d="M 145.323,110.460 C 148.359,119.572 148.032,119.681 150.916,128.847" stroke-width="4.551" stroke="black" fill="none" stroke-linecap="round"></path><path d="M 150.916,128.847 C 154.824,141.265 155.257,141.136 158.906,153.628" stroke-width="4.500" stroke="black" fill="none" stroke-linecap="round"></path><path d="M 158.906,153.628 C 162.847,167.117 162.238,167.293 166.097,180.808" stroke-width="4.500" stroke="black" fill="none" stroke-linecap="round"></path><path d="M 166.097,180.808 C 170.228,195.272 170.676,195.144 174.886,209.586" stroke-width="4.500" stroke="black" fill="none" stroke-linecap="round"></path><path d="M 174.886,209.586 C 179.066,223.922 178.721,224.022 182.876,238.365" stroke-width="4.500" stroke="black" fill="none" stroke-linecap="round"></path><path d="M 182.876,238.365 C 186.711,251.602 186.690,251.613 190.866,264.745" stroke-width="4.500" stroke="black" fill="none" stroke-linecap="round"></path><path d="M 190.866,264.745 C 195.080,277.993 195.389,277.894 199.655,291.126" stroke-width="4.500" stroke="black" fill="none" stroke-linecap="round"></path><path d="M 199.655,291.126 C 203.379,302.676 203.204,302.732 206.846,314.308" stroke-width="4.500" stroke="black" fill="none" stroke-linecap="round"></path><path d="M 206.846,314.308 C 209.995,324.316 210.528,324.169 213.238,334.293" stroke-width="4.500" stroke="black" fill="none" stroke-linecap="round"></path><path d="M 213.238,334.293 C 216.520,346.552 216.217,346.651 218.832,359.075" stroke-width="4.500" stroke="black" fill="none" stroke-linecap="round"></path><path d="M 279.556,165.619 C 275.161,165.220 275.014,164.213 270.767,164.820" stroke-width="8.495" stroke="black" fill="none" stroke-linecap="round"></path><path d="M 270.767,164.820 C 266.625,165.412 266.572,166.029 262.777,168.017" stroke-width="6.559" stroke="black" fill="none" stroke-linecap="round"></path><path d="M 262.777,168.017 C 258.182,170.425 258.145,170.494 253.988,173.613" stroke-width="5.842" stroke="black" fill="none" stroke-linecap="round"></path><path d="M 253.988,173.613 C 248.557,177.688 248.294,177.523 243.601,182.407" stroke-width="5.225" stroke="black" fill="none" stroke-linecap="round"></path><path d="M 243.601,182.407 C 238.306,187.916 238.446,188.147 234.013,194.398" stroke-width="4.868" stroke="black" fill="none" stroke-linecap="round"></path><path d="M 234.013,194.398 C 229.657,200.538 229.462,200.508 226.022,207.188" stroke-width="4.798" stroke="black" fill="none" stroke-linecap="round"></path><path d="M 226.022,207.188 C 222.671,213.698 222.683,213.809 220.429,220.778" stroke-width="4.818" stroke="black" fill="none" stroke-linecap="round"></path><path d="M 220.429,220.778 C 218.289,227.399 218.307,227.494 217.233,234.368" stroke-width="4.904" stroke="black" fill="none" stroke-linecap="round"></path><path d="M 217.233,234.368 C 216.309,240.285 216.434,240.366 216.434,246.359" stroke-width="5.156" stroke="black" fill="none" stroke-linecap="round"></path><path d="M 216.434,246.359 C 216.434,251.557 216.140,251.717 217.233,256.751" stroke-width="5.445" stroke="black" fill="none" stroke-linecap="round"></path><path d="M 217.233,256.751 C 218.137,260.910 218.195,261.168 220.429,264.745" stroke-width="5.805" stroke="black" fill="none" stroke-linecap="round"></path><path d="M 220.429,264.745 C 222.190,267.563 222.344,268.307 225.223,269.542" stroke-width="6.299" stroke="black" fill="none" stroke-linecap="round"></path><path d="M 225.223,269.542 C 227.937,270.705 229.969,271.489 231.615,269.542" stroke-width="7.119" stroke="black" fill="none" stroke-linecap="round"></path><path d="M 231.615,269.542 C 234.363,266.293 233.043,264.388 234.013,259.149" stroke-width="6.929" stroke="black" fill="none" stroke-linecap="round"></path><path d="M 234.013,259.149 C 235.040,253.596 235.209,253.582 235.611,247.958" stroke-width="5.787" stroke="black" fill="none" stroke-linecap="round"></path><path d="M 235.611,247.958 C 236.008,242.390 235.810,242.355 235.611,236.766" stroke-width="5.846" stroke="black" fill="none" stroke-linecap="round"></path><path d="M 235.611,236.766 C 235.410,231.163 235.035,231.177 234.811,225.574" stroke-width="5.542" stroke="black" fill="none" stroke-linecap="round"></path><path d="M 234.811,225.574 C 234.636,221.184 235.031,221.166 234.811,216.781" stroke-width="6.360" stroke="black" fill="none" stroke-linecap="round"></path><path d="M 234.811,216.781 C 234.631,213.172 234.238,213.193 234.013,209.586" stroke-width="6.154" stroke="black" fill="none" stroke-linecap="round"></path><path d="M 234.013,209.586 C 233.838,206.798 232.902,203.832 234.013,203.991" stroke-width="6.505" stroke="black" fill="none" stroke-linecap="round"></path><path d="M 234.013,203.991 C 235.699,204.232 237.741,206.655 239.605,210.386" stroke-width="7.567" stroke="black" fill="none" stroke-linecap="round"></path><path d="M 239.605,210.386 C 242.934,217.047 242.117,217.544 244.400,224.775" stroke-width="5.353" stroke="black" fill="none" stroke-linecap="round"></path><path d="M 244.400,224.775 C 246.911,232.733 246.982,232.718 249.194,240.763" stroke-width="5.111" stroke="black" fill="none" stroke-linecap="round"></path><path d="M 249.194,240.763 C 251.377,248.706 250.786,248.883 253.189,256.751" stroke-width="4.617" stroke="black" fill="none" stroke-linecap="round"></path><path d="M 253.189,256.751 C 255.180,263.273 255.408,263.220 257.983,269.542" stroke-width="4.781" stroke="black" fill="none" stroke-linecap="round"></path><path d="M 257.983,269.542 C 259.803,274.012 259.308,274.450 261.978,278.335" stroke-width="5.334" stroke="black" fill="none" stroke-linecap="round"></path><path d="M 261.978,278.335 C 263.703,280.846 264.083,281.712 266.772,282.332" stroke-width="6.084" stroke="black" fill="none" stroke-linecap="round"></path><path d="M 266.772,282.332 C 269.277,282.911 270.900,282.865 272.365,280.733" stroke-width="7.123" stroke="black" fill="none" stroke-linecap="round"></path><path d="M 272.365,280.733 C 275.295,276.469 274.221,275.201 275.561,269.542" stroke-width="6.055" stroke="black" fill="none" stroke-linecap="round"></path><path d="M 275.561,269.542 C 277.816,260.013 277.854,260.002 279.556,250.356" stroke-width="4.500" stroke="black" fill="none" stroke-linecap="round"></path><path d="M 279.556,250.356 C 281.450,239.617 281.948,239.623 282.752,228.772" stroke-width="4.500" stroke="black" fill="none" stroke-linecap="round"></path><path d="M 282.752,228.772 C 283.546,218.039 282.967,217.976 282.752,207.188" stroke-width="4.500" stroke="black" fill="none" stroke-linecap="round"></path><path d="M 282.752,207.188 C 282.568,197.990 283.246,197.860 281.953,188.802" stroke-width="4.500" stroke="black" fill="none" stroke-linecap="round"></path><path d="M 281.953,188.802 C 280.849,181.072 280.369,181.071 277.958,173.613" stroke-width="4.500" stroke="black" fill="none" stroke-linecap="round"></path><path d="M 277.958,173.613 C 275.975,167.481 276.284,167.197 273.164,161.622" stroke-width="5.066" stroke="black" fill="none" stroke-linecap="round"></path><path d="M 273.164,161.622 C 270.691,157.204 270.677,156.713 266.772,153.628" stroke-width="5.355" stroke="black" fill="none" stroke-linecap="round"></path><path d="M 266.772,153.628 C 263.087,150.718 262.585,150.432 257.983,149.631" stroke-width="5.533" stroke="black" fill="none" stroke-linecap="round"></path><path d="M 257.983,149.631 C 253.396,148.833 252.917,149.138 248.395,150.431" stroke-width="5.681" stroke="black" fill="none" stroke-linecap="round"></path><path d="M 248.395,150.431 C 244.527,151.536 244.454,151.950 241.203,154.428" stroke-width="5.862" stroke="black" fill="none" stroke-linecap="round"></path><path d="M 241.203,154.428 C 236.064,158.345 235.596,158.191 231.615,163.221" stroke-width="5.401" stroke="black" fill="none" stroke-linecap="round"></path><path d="M 231.615,163.221 C 228.005,167.784 228.474,168.262 226.022,173.613" stroke-width="5.505" stroke="black" fill="none" stroke-linecap="round"></path><path d="M 226.022,173.613 C 224.079,177.855 223.057,178.017 222.826,182.407" stroke-width="5.626" stroke="black" fill="none" stroke-linecap="round"></path><path d="M 222.826,182.407 C 222.658,185.611 222.782,186.791 225.223,188.802" stroke-width="6.086" stroke="black" fill="none" stroke-linecap="round"></path><path d="M 225.223,188.802 C 229.574,192.386 230.711,191.487 236.410,193.598" stroke-width="6.420" stroke="black" fill="none" stroke-linecap="round"></path><path d="M 236.410,193.598 C 241.498,195.484 241.643,195.077 246.797,196.796" stroke-width="5.917" stroke="black" fill="none" stroke-linecap="round"></path><path d="M 246.797,196.796 C 252.429,198.675 252.662,198.238 257.983,200.793" stroke-width="5.646" stroke="black" fill="none" stroke-linecap="round"></path><path d="M 257.983,200.793 C 262.649,203.034 262.942,202.961 266.772,206.389" stroke-width="5.508" stroke="black" fill="none" stroke-linecap="round"></path><path d="M 266.772,206.389 C 270.533,209.756 270.586,210.019 273.164,214.383" stroke-width="5.495" stroke="black" fill="none" stroke-linecap="round"></path><path d="M 273.164,214.383 C 275.780,218.813 275.401,219.093 277.159,223.976" stroke-width="5.468" stroke="black" fill="none" stroke-linecap="round"></path><path d="M 277.159,223.976 C 278.997,229.085 278.833,229.150 280.355,234.368" stroke-width="5.483" stroke="black" fill="none" stroke-linecap="round"></path><path d="M 280.355,234.368 C 281.630,238.742 281.381,238.820 282.752,243.161" stroke-width="5.741" stroke="black" fill="none" stroke-linecap="round"></path><path d="M 282.752,243.161 C 283.778,246.414 283.368,246.707 285.149,249.557" stroke-width="6.386" stroke="black" fill="none" stroke-linecap="round"></path><path d="M 285.149,249.557 C 287.363,253.102 287.485,254.448 290.742,255.952" stroke-width="6.907" stroke="black" fill="none" stroke-linecap="round"></path><path d="M 290.742,255.952 C 292.679,256.846 293.948,256.086 295.536,254.353" stroke-width="7.532" stroke="black" fill="none" stroke-linecap="round"></path><path d="M 295.536,254.353 C 298.343,251.289 297.733,250.446 299.531,246.359" stroke-width="6.309" stroke="black" fill="none" stroke-linecap="round"></path><path d="M 299.531,246.359 C 302.128,240.453 302.104,240.428 304.325,234.368" stroke-width="5.696" stroke="black" fill="none" stroke-linecap="round"></path><path d="M 304.325,234.368 C 306.498,228.437 306.586,228.447 308.320,222.377" stroke-width="5.312" stroke="black" fill="none" stroke-linecap="round"></path><path d="M 308.320,222.377 C 309.782,217.255 309.584,217.195 310.717,211.985" stroke-width="5.373" stroke="black" fill="none" stroke-linecap="round"></path><path d="M 310.717,211.985 C 311.582,208.002 311.711,208.017 312.315,203.991" stroke-width="5.772" stroke="black" fill="none" stroke-linecap="round"></path><path d="M 312.315,203.991 C 312.910,200.023 311.649,197.462 313.114,195.997" stroke-width="6.726" stroke="black" fill="none" stroke-linecap="round"></path><path d="M 313.114,195.997 C 314.046,195.063 315.790,197.084 317.109,199.194" stroke-width="7.672" stroke="black" fill="none" stroke-linecap="round"></path><path d="M 317.109,199.194 C 319.785,203.479 319.205,203.952 321.104,208.787" stroke-width="6.358" stroke="black" fill="none" stroke-linecap="round"></path><path d="M 321.104,208.787 C 323.599,215.143 323.329,215.252 325.898,221.578" stroke-width="5.107" stroke="black" fill="none" stroke-linecap="round"></path><path d="M 325.898,221.578 C 328.523,228.042 328.293,228.183 331.491,234.368" stroke-width="4.893" stroke="black" fill="none" stroke-linecap="round"></path><path d="M 331.491,234.368 C 334.285,239.774 334.712,239.549 337.883,244.760" stroke-width="5.488" stroke="black" fill="none" stroke-linecap="round"></path><path d="M 337.883,244.760 C 340.305,248.742 339.941,249.022 342.677,252.754" stroke-width="5.711" stroke="black" fill="none" stroke-linecap="round"></path><path d="M 342.677,252.754 C 344.335,255.017 345.458,257.445 346.672,256.751" stroke-width="6.338" stroke="black" fill="none" stroke-linecap="round"></path><path d="M 346.672,256.751 C 348.255,255.846 347.827,253.208 348.270,249.557" stroke-width="7.296" stroke="black" fill="none" stroke-linecap="round"></path><path d="M 348.270,249.557 C 349.425,240.018 348.997,239.957 349.868,230.371" stroke-width="4.948" stroke="black" fill="none" stroke-linecap="round"></path><path d="M 349.868,230.371 C 350.994,217.974 350.695,217.931 352.265,205.589" stroke-width="4.500" stroke="black" fill="none" stroke-linecap="round"></path><path d="M 352.265,205.589 C 353.491,195.948 354.054,196.024 355.461,186.404" stroke-width="4.500" stroke="black" fill="none" stroke-linecap="round"></path><path d="M 355.461,186.404 C 356.451,179.636 356.304,179.614 357.059,172.814" stroke-width="4.559" stroke="black" fill="none" stroke-linecap="round"></path><path d="M 357.059,172.814 C 357.502,168.822 357.414,168.812 357.858,164.820" stroke-width="5.545" stroke="black" fill="none" stroke-linecap="round"></path><path d="M 357.858,164.820 C 358.213,161.617 359.068,158.630 358.657,158.425" stroke-width="6.840" stroke="black" fill="none" stroke-linecap="round"></path><path d="M 358.657,158.425 C 358.269,158.230 357.276,161.153 356.260,164.020" stroke-width="7.419" stroke="black" fill="none" stroke-linecap="round"></path><path d="M 356.260,164.020 C 352.882,173.544 353.064,173.613 349.868,183.206" stroke-width="5.521" stroke="black" fill="none" stroke-linecap="round"></path><path d="M 349.868,183.206 C 346.672,192.799 346.074,192.643 343.476,202.392" stroke-width="4.500" stroke="black" fill="none" stroke-linecap="round"></path><path d="M 343.476,202.392 C 341.280,210.630 341.194,210.721 340.280,219.179" stroke-width="4.500" stroke="black" fill="none" stroke-linecap="round"></path><path d="M 340.280,219.179 C 339.596,225.510 339.809,225.617 340.280,231.970" stroke-width="4.919" stroke="black" fill="none" stroke-linecap="round"></path><path d="M 340.280,231.970 C 340.608,236.409 340.164,236.845 341.878,240.763" stroke-width="5.637" stroke="black" fill="none" stroke-linecap="round"></path><path d="M 341.878,240.763 C 342.961,243.240 343.579,244.584 345.873,244.760" stroke-width="6.311" stroke="black" fill="none" stroke-linecap="round"></path><path d="M 345.873,244.760 C 348.773,244.983 350.237,244.144 352.265,241.563" stroke-width="7.059" stroke="black" fill="none" stroke-linecap="round"></path><path d="M 352.265,241.563 C 354.632,238.548 353.609,237.604 354.662,233.569" stroke-width="6.311" stroke="black" fill="none" stroke-linecap="round"></path><path d="M 354.662,233.569 C 356.006,228.411 356.123,228.420 357.059,223.176" stroke-width="5.743" stroke="black" fill="none" stroke-linecap="round"></path><path d="M 357.059,223.176 C 358.120,217.228 358.013,217.197 358.657,211.185" stroke-width="5.395" stroke="black" fill="none" stroke-linecap="round"></path><path d="M 358.657,211.185 C 359.211,206.005 359.023,205.986 359.456,200.793" stroke-width="5.523" stroke="black" fill="none" stroke-linecap="round"></path><path d="M 359.456,200.793 C 359.822,196.394 360.010,196.403 360.255,192.000" stroke-width="5.797" stroke="black" fill="none" stroke-linecap="round"></path><path d="M 360.255,192.000 C 360.410,189.209 358.863,187.597 360.255,186.404" stroke-width="6.446" stroke="black" fill="none" stroke-linecap="round"></path><path d="M 360.255,186.404 C 361.660,185.199 364.078,185.433 365.848,187.203" stroke-width="7.647" stroke="black" fill="none" stroke-linecap="round"></path><path d="M 365.848,187.203 C 368.872,190.229 368.086,191.505 369.843,195.997" stroke-width="6.203" stroke="black" fill="none" stroke-linecap="round"></path><path d="M 369.843,195.997 C 371.682,200.698 371.568,200.755 373.039,205.589" stroke-width="5.801" stroke="black" fill="none" stroke-linecap="round"></path><path d="M 373.039,205.589 C 374.364,209.948 374.277,209.976 375.436,214.383" stroke-width="5.841" stroke="black" fill="none" stroke-linecap="round"></path><path d="M 375.436,214.383 C 376.274,217.570 376.463,217.540 377.034,220.778" stroke-width="6.278" stroke="black" fill="none" stroke-linecap="round"></path><path d="M 377.034,220.778 C 377.661,224.335 377.621,227.761 377.833,227.973" stroke-width="7.036" stroke="black" fill="none" stroke-linecap="round"></path><path d="M 377.833,227.973 C 378.020,228.160 377.978,224.770 377.833,221.578" stroke-width="7.405" stroke="black" fill="none" stroke-linecap="round"></path><path d="M 377.833,221.578 C 377.578,215.977 377.034,215.986 377.034,210.386" stroke-width="5.895" stroke="black" fill="none" stroke-linecap="round"></path><path d="M 377.034,210.386 C 377.034,201.997 377.413,201.991 377.833,193.598" stroke-width="4.865" stroke="black" fill="none" stroke-linecap="round"></path><path d="M 377.833,193.598 C 378.212,186.003 377.944,185.976 378.632,178.410" stroke-width="4.784" stroke="black" fill="none" stroke-linecap="round"></path><path d="M 378.632,178.410 C 379.143,172.786 379.220,172.773 380.230,167.218" stroke-width="5.203" stroke="black" fill="none" stroke-linecap="round"></path><path d="M 380.230,167.218 C 380.818,163.979 380.186,163.492 381.828,160.823" stroke-width="6.039" stroke="black" fill="none" stroke-linecap="round"></path><path d="M 381.828,160.823 C 383.382,158.296 384.632,156.283 386.622,156.826" stroke-width="7.055" stroke="black" fill="none" stroke-linecap="round"></path><path d="M 386.622,156.826 C 389.026,157.482 389.337,159.746 390.617,163.221" stroke-width="7.296" stroke="black" fill="none" stroke-linecap="round"></path><path d="M 390.617,163.221 C 392.134,167.340 391.449,167.612 392.215,172.014" stroke-width="6.160" stroke="black" fill="none" stroke-linecap="round"></path><path d="M 392.215,172.014 C 393.047,176.805 393.156,176.792 393.813,181.607" stroke-width="5.849" stroke="black" fill="none" stroke-linecap="round"></path><path d="M 393.813,181.607 C 394.355,185.585 394.143,185.613 394.612,189.601" stroke-width="6.030" stroke="black" fill="none" stroke-linecap="round"></path><path d="M 394.612,189.601 C 394.942,192.408 394.728,195.539 395.411,195.197" stroke-width="6.519" stroke="black" fill="none" stroke-linecap="round"></path><path d="M 395.411,195.197 C 396.326,194.739 396.839,191.665 397.808,188.003" stroke-width="7.549" stroke="black" fill="none" stroke-linecap="round"></path><path d="M 397.808,188.003 C 400.434,178.076 400.061,177.973 402.602,168.017" stroke-width="4.727" stroke="black" fill="none" stroke-linecap="round"></path><path d="M 402.602,168.017 C 404.855,159.187 405.019,159.229 407.396,150.431" stroke-width="4.500" stroke="black" fill="none" stroke-linecap="round"></path><path d="M 407.396,150.431 C 409.014,144.440 408.920,144.414 410.592,138.440" stroke-width="4.952" stroke="black" fill="none" stroke-linecap="round"></path><path d="M 410.592,138.440 C 411.716,134.422 410.744,133.712 412.989,130.445" stroke-width="5.733" stroke="black" fill="none" stroke-linecap="round"></path><path d="M 412.989,130.445 C 415.138,127.317 416.850,125.227 419.381,125.649" stroke-width="6.714" stroke="black" fill="none" stroke-linecap="round"></path><path d="M 419.381,125.649 C 421.644,126.027 421.494,128.660 422.577,132.044" stroke-width="7.204" stroke="black" fill="none" stroke-linecap="round"></path><path d="M 422.577,132.044 C 424.690,138.653 424.572,138.767 425.773,145.634" stroke-width="5.456" stroke="black" fill="none" stroke-linecap="round"></path><path d="M 425.773,145.634 C 427.368,154.755 427.169,154.806 428.170,164.020" stroke-width="4.697" stroke="black" fill="none" stroke-linecap="round"></path><path d="M 428.170,164.020 C 429.166,173.192 428.951,173.215 429.768,182.407" stroke-width="4.500" stroke="black" fill="none" stroke-linecap="round"></path><path d="M 429.768,182.407 C 430.549,191.202 430.465,191.211 431.366,199.994" stroke-width="4.500" stroke="black" fill="none" stroke-linecap="round"></path><path d="M 431.366,199.994 C 432.063,206.799 431.765,206.866 432.964,213.583" stroke-width="4.790" stroke="black" fill="none" stroke-linecap="round"></path><path d="M 432.964,213.583 C 433.762,218.058 434.076,218.006 435.361,222.377" stroke-width="5.491" stroke="black" fill="none" stroke-linecap="round"></path><path d="M 435.361,222.377 C 436.073,224.801 435.617,227.472 436.959,227.173" stroke-width="6.429" stroke="black" fill="none" stroke-linecap="round"></path><path d="M 436.959,227.173 C 439.213,226.672 440.536,224.408 442.552,220.778" stroke-width="7.278" stroke="black" fill="none" stroke-linecap="round"></path><path d="M 442.552,220.778 C 444.532,217.213 444.365,216.871 444.949,212.784" stroke-width="6.362" stroke="black" fill="none" stroke-linecap="round"></path><path d="M 444.949,212.784 C 445.564,208.478 445.430,208.320 444.949,203.991" stroke-width="6.055" stroke="black" fill="none" stroke-linecap="round"></path><path d="M 444.949,203.991 C 444.631,201.125 444.999,200.594 443.351,198.395" stroke-width="6.496" stroke="black" fill="none" stroke-linecap="round"></path><path d="M 443.351,198.395 C 441.404,195.797 440.984,194.914 437.758,194.398" stroke-width="6.508" stroke="black" fill="none" stroke-linecap="round"></path><path d="M 437.758,194.398 C 430.997,193.316 430.235,193.221 423.376,195.197" stroke-width="5.157" stroke="black" fill="none" stroke-linecap="round"></path><path d="M 423.376,195.197 C 403.868,200.816 403.549,200.975 385.024,209.586" stroke-width="4.500" stroke="black" fill="none" stroke-linecap="round"></path><path d="M 385.024,209.586 C 363.998,219.361 363.857,219.540 344.275,231.970" stroke-width="4.500" stroke="black" fill="none" stroke-linecap="round"></path><path d="M 344.275,231.970 C 326.704,243.123 327.639,244.561 310.717,256.751" stroke-width="4.500" stroke="black" fill="none" stroke-linecap="round"></path><path d="M 310.717,256.751 C 297.677,266.145 297.822,266.401 284.350,275.138" stroke-width="4.500" stroke="black" fill="none" stroke-linecap="round"></path><path d="M 284.350,275.138 C 276.249,280.391 276.347,281.163 267.571,284.730" stroke-width="4.500" stroke="black" fill="none" stroke-linecap="round"></path><path d="M 267.571,284.730 C 263.563,286.359 262.245,286.916 258.782,285.530" stroke-width="5.020" stroke="black" fill="none" stroke-linecap="round"></path><path d="M 258.782,285.530 C 256.253,284.518 255.026,282.945 255.586,279.934" stroke-width="5.987" stroke="black" fill="none" stroke-linecap="round"></path><path d="M 255.586,279.934 C 258.222,265.758 260.166,265.470 265.174,251.155" stroke-width="5.069" stroke="black" fill="none" stroke-linecap="round"></path><path d="M 265.174,251.155 C 271.352,233.494 271.861,233.670 277.958,215.982" stroke-width="4.500" stroke="black" fill="none" stroke-linecap="round"></path><path d="M 277.958,215.982 C 283.846,198.896 283.935,198.910 289.144,181.607" stroke-width="4.500" stroke="black" fill="none" stroke-linecap="round"></path><path d="M 289.144,181.607 C 293.922,165.734 294.365,165.799 297.933,149.631" stroke-width="4.500" stroke="black" fill="none" stroke-linecap="round"></path><path d="M 297.933,149.631 C 301.156,135.022 301.196,134.926 302.727,120.053" stroke-width="4.500" stroke="black" fill="none" stroke-linecap="round"></path><path d="M 302.727,120.053 C 303.993,107.746 303.983,107.621 303.526,95.272" stroke-width="4.500" stroke="black" fill="none" stroke-linecap="round"></path><path d="M 303.526,95.272 C 303.184,86.037 303.460,85.749 301.129,76.885" stroke-width="4.500" stroke="black" fill="none" stroke-linecap="round"></path><path d="M 301.129,76.885 C 299.465,70.560 298.942,70.493 295.536,64.894" stroke-width="4.698" stroke="black" fill="none" stroke-linecap="round"></path><path d="M 295.536,64.894 C 293.349,61.300 293.302,60.180 289.943,58.499" stroke-width="5.607" stroke="black" fill="none" stroke-linecap="round"></path><path d="M 289.943,58.499 C 287.709,57.382 285.287,57.188 284.350,59.299" stroke-width="6.916" stroke="black" fill="none" stroke-linecap="round"></path><path d="M 284.350,59.299 C 282.091,64.383 283.409,66.095 283.551,72.888" stroke-width="6.566" stroke="black" fill="none" stroke-linecap="round"></path><path d="M 283.551,72.888 C 283.809,85.281 283.816,85.334 285.149,97.670" stroke-width="4.500" stroke="black" fill="none" stroke-linecap="round"></path><path d="M 285.149,97.670 C 287.012,114.912 286.808,114.992 289.943,132.044" stroke-width="4.500" stroke="black" fill="none" stroke-linecap="round"></path><path d="M 289.943,132.044 C 293.200,149.766 293.418,149.766 297.933,167.218" stroke-width="4.500" stroke="black" fill="none" stroke-linecap="round"></path><path d="M 297.933,167.218 C 302.207,183.741 302.672,183.622 307.521,199.994" stroke-width="4.500" stroke="black" fill="none" stroke-linecap="round"></path><path d="M 307.521,199.994 C 312.260,215.998 312.017,216.077 317.109,231.970" stroke-width="4.500" stroke="black" fill="none" stroke-linecap="round"></path><path d="M 317.109,231.970 C 322.005,247.254 322.607,247.061 327.496,262.347" stroke-width="4.500" stroke="black" fill="none" stroke-linecap="round"></path><path d="M 327.496,262.347 C 332.195,277.039 331.721,277.189 336.285,291.925" stroke-width="4.500" stroke="black" fill="none" stroke-linecap="round"></path><path d="M 336.285,291.925 C 340.510,305.567 340.428,305.602 345.074,319.105" stroke-width="4.500" stroke="black" fill="none" stroke-linecap="round"></path><path d="M 345.074,319.105 C 348.817,329.984 349.087,329.890 353.064,340.689" stroke-width="4.500" stroke="black" fill="none" stroke-linecap="round"></path><path d="M 353.064,340.689 C 354.680,345.079 354.662,345.085 356.260,349.482" stroke-width="4.975" stroke="black" fill="none" stroke-linecap="round"></path><circle r="3" cx="348.2696838378906" cy="68.89144897460938" fill="black"></circle></svg>