<svg xmlns="http://www.w3.org/2000/svg" xmlns:xlink="http://www.w3.org/1999/xlink" viewBox="0 0 576 416" width="576" height="416"><path d="M 101.378,178.760 C 100.979,184.755 100.403,184.766 100.579,190.751" stroke-width="8.486" stroke="black" fill="none" stroke-linecap="round"></path><path d="M 100.579,190.751 C 100.803,198.356 101.577,198.329 102.177,205.939" stroke-width="5.337" stroke="black" fill="none" stroke-linecap="round"></path><path d="M 102.177,205.939 C 102.775,213.518 102.035,213.592 102.976,221.128" stroke-width="5.809" stroke="black" fill="none" stroke-linecap="round"></path><path d="M 102.976,221.128 C 104.831,235.975 105.450,235.905 107.770,250.706" stroke-width="4.500" stroke="black" fill="none" stroke-linecap="round"></path><path d="M 107.770,250.706 C 108.646,256.290 108.440,256.324 109.368,261.898" stroke-width="5.151" stroke="black" fill="none" stroke-linecap="round"></path><path d="M 109.368,261.898 C 110.038,265.917 110.493,265.863 110.966,269.892" stroke-width="5.693" stroke="black" fill="none" stroke-linecap="round"></path><path d="M 110.966,269.892 C 111.292,272.657 111.312,276.641 110.966,275.488" stroke-width="6.961" stroke="black" fill="none" stroke-linecap="round"></path><path d="M 110.966,275.488 C 110.114,272.644 109.788,268.689 108.569,261.898" stroke-width="6.431" stroke="black" fill="none" stroke-linecap="round"></path><path d="M 108.569,261.898 C 106.991,253.101 107.007,253.098 105.373,244.311" stroke-width="4.732" stroke="black" fill="none" stroke-linecap="round"></path><path d="M 105.373,244.311 C 103.811,235.910 104.008,235.866 102.177,227.523" stroke-width="4.559" stroke="black" fill="none" stroke-linecap="round"></path><path d="M 102.177,227.523 C 100.412,219.478 99.922,219.584 98.182,211.535" stroke-width="4.500" stroke="black" fill="none" stroke-linecap="round"></path><path d="M 98.182,211.535 C 96.726,204.795 97.182,204.698 95.785,197.945" stroke-width="4.718" stroke="black" fill="none" stroke-linecap="round"></path><path d="M 95.785,197.945 C 94.785,193.107 94.533,193.162 93.388,188.353" stroke-width="5.432" stroke="black" fill="none" stroke-linecap="round"></path><path d="M 93.388,188.353 C 92.535,184.768 92.016,184.777 91.790,181.158" stroke-width="5.923" stroke="black" fill="none" stroke-linecap="round"></path><path d="M 91.790,181.158 C 91.617,178.382 90.919,176.063 92.589,175.562" stroke-width="7.074" stroke="black" fill="none" stroke-linecap="round"></path><path d="M 92.589,175.562 C 94.914,174.864 96.131,177.299 99.780,178.760" stroke-width="7.578" stroke="black" fill="none" stroke-linecap="round"></path><path d="M 99.780,178.760 C 102.124,179.698 102.122,180.170 104.574,180.359" stroke-width="7.118" stroke="black" fill="none" stroke-linecap="round"></path><path d="M 104.574,180.359 C 107.316,180.570 108.016,181.049 110.167,179.559" stroke-width="6.860" stroke="black" fill="none" stroke-linecap="round"></path><path d="M 110.167,179.559 C 113.210,177.452 112.956,176.603 114.961,173.164" stroke-width="6.326" stroke="black" fill="none" stroke-linecap="round"></path><path d="M 114.961,173.164 C 118.549,167.011 119.162,167.118 121.353,160.373" stroke-width="5.246" stroke="black" fill="none" stroke-linecap="round"></path><path d="M 121.353,160.373 C 124.356,151.130 124.019,150.875 125.348,141.188" stroke-width="4.500" stroke="black" fill="none" stroke-linecap="round"></path><path d="M 125.348,141.188 C 126.816,130.490 126.746,130.407 126.946,119.604" stroke-width="4.500" stroke="black" fill="none" stroke-linecap="round"></path><path d="M 126.946,119.604 C 127.146,108.823 126.757,108.800 126.147,98.020" stroke-width="4.500" stroke="black" fill="none" stroke-linecap="round"></path><path d="M 126.147,98.020 C 125.559,87.616 125.651,87.595 124.549,77.236" stroke-width="4.500" stroke="black" fill="none" stroke-linecap="round"></path><path d="M 124.549,77.236 C 123.653,68.809 123.545,68.809 122.152,60.448" stroke-width="4.500" stroke="black" fill="none" stroke-linecap="round"></path><path d="M 122.152,60.448 C 121.148,54.419 121.180,54.396 119.755,48.457" stroke-width="4.975" stroke="black" fill="none" stroke-linecap="round"></path><path d="M 119.755,48.457 C 118.783,44.404 116.798,39.341 117.358,40.463" stroke-width="5.673" stroke="black" fill="none" stroke-linecap="round"></path><path d="M 117.358,40.463 C 118.396,42.538 120.836,47.446 122.951,54.852" stroke-width="6.742" stroke="black" fill="none" stroke-linecap="round"></path><path d="M 122.951,54.852 C 127.228,69.829 127.051,69.937 130.142,85.230" stroke-width="4.500" stroke="black" fill="none" stroke-linecap="round"></path><path d="M 130.142,85.230 C 134.242,105.510 134.117,105.554 137.333,125.999" stroke-width="4.500" stroke="black" fill="none" stroke-linecap="round"></path><path d="M 137.333,125.999 C 140.908,148.722 140.473,148.790 143.725,171.565" stroke-width="4.500" stroke="black" fill="none" stroke-linecap="round"></path><path d="M 143.725,171.565 C 146.865,193.557 146.696,193.584 150.117,215.532" stroke-width="4.500" stroke="black" fill="none" stroke-linecap="round"></path><path d="M 150.117,215.532 C 153.487,237.151 153.378,237.177 157.308,258.700" stroke-width="4.500" stroke="black" fill="none" stroke-linecap="round"></path><path d="M 157.308,258.700 C 160.969,278.746 160.946,278.764 165.298,298.670" stroke-width="4.500" stroke="black" fill="none" stroke-linecap="round"></path><path d="M 165.298,298.670 C 169.335,317.135 169.405,317.130 174.087,335.443" stroke-width="4.500" stroke="black" fill="none" stroke-linecap="round"></path><path d="M 174.087,335.443 C 178.194,351.505 178.036,351.569 182.876,367.419" stroke-width="4.500" stroke="black" fill="none" stroke-linecap="round"></path><path d="M 182.876,367.419 C 186.825,380.347 187.047,380.292 191.665,393.000" stroke-width="4.500" stroke="black" fill="none" stroke-linecap="round"></path><path d="M 191.665,393.000 C 195.037,402.275 195.063,402.277 198.856,411.386" stroke-width="4.500" stroke="black" fill="none" stroke-linecap="round"></path><path d="M 210.042,182.757 C 207.246,186.354 206.525,185.946 204.449,189.951" stroke-width="8.108" stroke="black" fill="none" stroke-linecap="round"></path><path d="M 204.449,189.951 C 200.932,196.738 200.758,196.903 198.856,204.341" stroke-width="5.393" stroke="black" fill="none" stroke-linecap="round"></path><path d="M 198.856,204.341 C 196.364,214.091 196.609,214.270 195.660,224.326" stroke-width="4.500" stroke="black" fill="none" stroke-linecap="round"></path><path d="M 195.660,224.326 C 194.611,235.454 194.470,235.544 194.861,246.709" stroke-width="4.500" stroke="black" fill="none" stroke-linecap="round"></path><path d="M 194.861,246.709 C 195.269,258.327 195.069,258.500 197.258,269.892" stroke-width="4.500" stroke="black" fill="none" stroke-linecap="round"></path><path d="M 197.258,269.892 C 199.064,279.285 199.464,279.321 202.851,288.278" stroke-width="4.500" stroke="black" fill="none" stroke-linecap="round"></path><path d="M 202.851,288.278 C 205.057,294.109 204.980,294.403 208.444,299.470" stroke-width="4.716" stroke="black" fill="none" stroke-linecap="round"></path><path d="M 208.444,299.470 C 210.173,301.997 211.389,304.700 213.238,303.467" stroke-width="5.884" stroke="black" fill="none" stroke-linecap="round"></path><path d="M 213.238,303.467 C 217.381,300.703 218.073,297.905 220.429,291.476" stroke-width="6.221" stroke="black" fill="none" stroke-linecap="round"></path><path d="M 220.429,291.476 C 222.468,285.913 221.639,285.507 222.027,279.485" stroke-width="5.514" stroke="black" fill="none" stroke-linecap="round"></path><path d="M 222.027,279.485 C 222.438,273.117 222.466,273.056 222.027,266.694" stroke-width="5.335" stroke="black" fill="none" stroke-linecap="round"></path><path d="M 222.027,266.694 C 221.667,261.464 221.499,261.440 220.429,256.302" stroke-width="5.491" stroke="black" fill="none" stroke-linecap="round"></path><path d="M 220.429,256.302 C 219.502,251.848 219.471,251.825 218.032,247.508" stroke-width="5.743" stroke="black" fill="none" stroke-linecap="round"></path><path d="M 218.032,247.508 C 216.674,243.431 216.475,243.495 214.836,239.514" stroke-width="5.980" stroke="black" fill="none" stroke-linecap="round"></path><path d="M 214.836,239.514 C 213.678,236.700 213.638,236.716 212.439,233.919" stroke-width="6.419" stroke="black" fill="none" stroke-linecap="round"></path><path d="M 212.439,233.919 C 211.241,231.121 209.519,227.407 210.042,228.323" stroke-width="7.223" stroke="black" fill="none" stroke-linecap="round"></path><path d="M 210.042,228.323 C 211.117,230.205 212.973,233.855 215.635,239.514" stroke-width="7.226" stroke="black" fill="none" stroke-linecap="round"></path><path d="M 215.635,239.514 C 219.365,247.445 219.076,247.582 222.826,255.502" stroke-width="5.013" stroke="black" fill="none" stroke-linecap="round"></path><path d="M 222.826,255.502 C 226.267,262.770 226.422,262.697 230.017,269.892" stroke-width="4.734" stroke="black" fill="none" stroke-linecap="round"></path><path d="M 230.017,269.892 C 233.214,276.287 232.943,276.440 236.410,282.682" stroke-width="4.841" stroke="black" fill="none" stroke-linecap="round"></path><path d="M 236.410,282.682 C 238.936,287.232 238.960,287.261 242.003,291.476" stroke-width="5.335" stroke="black" fill="none" stroke-linecap="round"></path><path d="M 242.003,291.476 C 244.154,294.456 245.416,298.452 246.797,297.071" stroke-width="5.962" stroke="black" fill="none" stroke-linecap="round"></path><path d="M 246.797,297.071 C 249.411,294.455 249.679,290.378 249.993,283.482" stroke-width="6.941" stroke="black" fill="none" stroke-linecap="round"></path><path d="M 249.993,283.482 C 250.478,272.791 249.546,272.652 248.395,261.898" stroke-width="4.545" stroke="black" fill="none" stroke-linecap="round"></path><path d="M 248.395,261.898 C 247.149,250.269 247.253,250.224 245.199,238.715" stroke-width="4.500" stroke="black" fill="none" stroke-linecap="round"></path><path d="M 245.199,238.715 C 243.258,227.841 242.983,227.879 240.405,217.131" stroke-width="4.500" stroke="black" fill="none" stroke-linecap="round"></path><path d="M 240.405,217.131 C 238.189,207.894 238.218,207.877 235.611,198.745" stroke-width="4.500" stroke="black" fill="none" stroke-linecap="round"></path><path d="M 235.611,198.745 C 233.424,191.090 233.606,190.999 230.816,183.556" stroke-width="4.500" stroke="black" fill="none" stroke-linecap="round"></path><path d="M 230.816,183.556 C 228.812,178.208 229.093,177.890 226.022,173.164" stroke-width="5.076" stroke="black" fill="none" stroke-linecap="round"></path><path d="M 226.022,173.164 C 223.900,169.896 223.653,169.641 220.429,167.568" stroke-width="5.778" stroke="black" fill="none" stroke-linecap="round"></path><path d="M 220.429,167.568 C 218.060,166.044 216.634,164.970 214.836,165.969" stroke-width="6.397" stroke="black" fill="none" stroke-linecap="round"></path><path d="M 214.836,165.969 C 213.038,166.969 212.813,169.013 213.238,171.565" stroke-width="7.478" stroke="black" fill="none" stroke-linecap="round"></path><path d="M 213.238,171.565 C 213.612,173.809 214.369,174.141 216.434,175.562" stroke-width="7.077" stroke="black" fill="none" stroke-linecap="round"></path><path d="M 216.434,175.562 C 220.761,178.538 221.039,178.428 226.022,180.359" stroke-width="6.006" stroke="black" fill="none" stroke-linecap="round"></path><path d="M 226.022,180.359 C 233.423,183.225 233.717,182.466 241.203,185.155" stroke-width="4.986" stroke="black" fill="none" stroke-linecap="round"></path><path d="M 241.203,185.155 C 249.297,188.062 249.565,187.636 257.184,191.550" stroke-width="4.615" stroke="black" fill="none" stroke-linecap="round"></path><path d="M 257.184,191.550 C 264.346,195.230 264.395,195.408 270.767,200.344" stroke-width="4.516" stroke="black" fill="none" stroke-linecap="round"></path><path d="M 270.767,200.344 C 276.779,205.001 277.020,204.978 281.953,210.736" stroke-width="4.758" stroke="black" fill="none" stroke-linecap="round"></path><path d="M 281.953,210.736 C 286.608,216.170 286.661,216.366 289.943,222.727" stroke-width="4.742" stroke="black" fill="none" stroke-linecap="round"></path><path d="M 289.943,222.727 C 293.053,228.757 292.637,229.025 294.737,235.517" stroke-width="4.913" stroke="black" fill="none" stroke-linecap="round"></path><path d="M 294.737,235.517 C 297.032,242.615 296.832,242.686 298.732,249.907" stroke-width="4.827" stroke="black" fill="none" stroke-linecap="round"></path><path d="M 298.732,249.907 C 300.827,257.875 300.324,258.027 302.727,265.895" stroke-width="4.736" stroke="black" fill="none" stroke-linecap="round"></path><path d="M 302.727,265.895 C 304.718,272.416 304.835,272.416 307.521,278.685" stroke-width="4.819" stroke="black" fill="none" stroke-linecap="round"></path><path d="M 307.521,278.685 C 309.629,283.607 309.110,284.155 312.315,288.278" stroke-width="5.366" stroke="black" fill="none" stroke-linecap="round"></path><path d="M 312.315,288.278 C 314.703,291.350 315.155,291.742 318.707,293.074" stroke-width="5.796" stroke="black" fill="none" stroke-linecap="round"></path><path d="M 318.707,293.074 C 321.547,294.140 322.526,294.447 325.099,293.074" stroke-width="6.363" stroke="black" fill="none" stroke-linecap="round"></path><path d="M 325.099,293.074 C 328.518,291.250 328.417,290.236 330.692,286.679" stroke-width="6.016" stroke="black" fill="none" stroke-linecap="round"></path><path d="M 330.692,286.679 C 334.809,280.243 334.693,280.070 337.883,273.089" stroke-width="5.152" stroke="black" fill="none" stroke-linecap="round"></path><path d="M 337.883,273.089 C 341.085,266.080 341.105,266.030 343.476,258.700" stroke-width="4.738" stroke="black" fill="none" stroke-linecap="round"></path><path d="M 343.476,258.700 C 345.500,252.440 345.422,252.371 346.672,245.910" stroke-width="4.965" stroke="black" fill="none" stroke-linecap="round"></path><path d="M 346.672,245.910 C 347.819,239.981 347.824,239.938 348.270,233.919" stroke-width="5.250" stroke="black" fill="none" stroke-linecap="round"></path><path d="M 348.270,233.919 C 348.623,229.146 348.270,229.122 348.270,224.326" stroke-width="5.508" stroke="black" fill="none" stroke-linecap="round"></path><path d="M 348.270,224.326 C 348.270,221.128 348.469,221.116 348.270,217.931" stroke-width="6.255" stroke="black" fill="none" stroke-linecap="round"></path><path d="M 348.270,217.931 C 348.069,214.720 347.155,210.904 347.471,211.535" stroke-width="7.118" stroke="black" fill="none" stroke-linecap="round"></path><path d="M 347.471,211.535 C 347.954,212.503 348.364,216.428 349.868,221.128" stroke-width="7.407" stroke="black" fill="none" stroke-linecap="round"></path><path d="M 349.868,221.128 C 351.560,226.421 351.696,226.396 353.863,231.520" stroke-width="5.910" stroke="black" fill="none" stroke-linecap="round"></path><path d="M 353.863,231.520 C 356.090,236.788 356.189,236.750 358.657,241.913" stroke-width="5.618" stroke="black" fill="none" stroke-linecap="round"></path><path d="M 358.657,241.913 C 360.584,245.944 360.485,246.004 362.652,249.907" stroke-width="5.727" stroke="black" fill="none" stroke-linecap="round"></path><path d="M 362.652,249.907 C 364.480,253.199 364.139,253.584 366.647,256.302" stroke-width="6.073" stroke="black" fill="none" stroke-linecap="round"></path><path d="M 366.647,256.302 C 368.933,258.780 370.859,261.819 372.240,260.299" stroke-width="6.998" stroke="black" fill="none" stroke-linecap="round"></path><path d="M 372.240,260.299 C 374.854,257.422 373.672,253.940 374.637,247.508" stroke-width="6.686" stroke="black" fill="none" stroke-linecap="round"></path><path d="M 374.637,247.508 C 376.069,237.952 375.947,237.928 377.034,228.323" stroke-width="4.616" stroke="black" fill="none" stroke-linecap="round"></path><path d="M 377.034,228.323 C 378.344,216.744 377.726,216.655 379.431,205.140" stroke-width="4.500" stroke="black" fill="none" stroke-linecap="round"></path><path d="M 379.431,205.140 C 380.922,195.071 381.262,195.111 383.426,185.155" stroke-width="4.500" stroke="black" fill="none" stroke-linecap="round"></path><path d="M 383.426,185.155 C 385.257,176.725 384.771,176.543 387.421,168.367" stroke-width="4.500" stroke="black" fill="none" stroke-linecap="round"></path><path d="M 387.421,168.367 C 389.565,161.754 389.816,161.762 393.014,155.577" stroke-width="4.762" stroke="black" fill="none" stroke-linecap="round"></path><path d="M 393.014,155.577 C 395.809,150.171 395.873,150.133 399.406,145.185" stroke-width="5.087" stroke="black" fill="none" stroke-linecap="round"></path><path d="M 399.406,145.185 C 401.866,141.739 402.007,141.783 404.999,138.790" stroke-width="5.694" stroke="black" fill="none" stroke-linecap="round"></path><path d="M 404.999,138.790 C 406.801,136.987 408.001,134.764 408.994,135.592" stroke-width="6.437" stroke="black" fill="none" stroke-linecap="round"></path><path d="M 408.994,135.592 C 410.398,136.763 410.902,139.458 409.793,142.787" stroke-width="7.384" stroke="black" fill="none" stroke-linecap="round"></path><path d="M 409.793,142.787 C 406.507,152.648 404.467,152.146 400.205,161.972" stroke-width="4.738" stroke="black" fill="none" stroke-linecap="round"></path><path d="M 400.205,161.972 C 395.278,173.331 395.330,173.406 391.416,185.155" stroke-width="4.500" stroke="black" fill="none" stroke-linecap="round"></path><path d="M 391.416,185.155 C 388.139,194.990 388.169,195.047 385.823,205.140" stroke-width="4.500" stroke="black" fill="none" stroke-linecap="round"></path><path d="M 385.823,205.140 C 384.174,212.234 383.665,212.335 383.426,219.529" stroke-width="4.548" stroke="black" fill="none" stroke-linecap="round"></path><path d="M 383.426,219.529 C 383.266,224.326 383.255,224.825 385.024,229.122" stroke-width="5.383" stroke="black" fill="none" stroke-linecap="round"></path><path d="M 385.024,229.122 C 386.052,231.620 386.954,233.670 389.019,233.119" stroke-width="6.275" stroke="black" fill="none" stroke-linecap="round"></path><path d="M 389.019,233.119 C 392.947,232.071 393.799,230.150 397.009,225.924" stroke-width="6.659" stroke="black" fill="none" stroke-linecap="round"></path><path d="M 397.009,225.924 C 401.389,220.158 401.085,219.756 404.200,213.134" stroke-width="5.264" stroke="black" fill="none" stroke-linecap="round"></path><path d="M 404.200,213.134 C 407.477,206.167 407.356,206.059 409.793,198.745" stroke-width="4.869" stroke="black" fill="none" stroke-linecap="round"></path><path d="M 409.793,198.745 C 412.150,191.670 412.498,191.669 413.788,184.356" stroke-width="4.814" stroke="black" fill="none" stroke-linecap="round"></path><path d="M 413.788,184.356 C 414.895,178.079 414.130,177.956 414.587,171.565" stroke-width="5.032" stroke="black" fill="none" stroke-linecap="round"></path><path d="M 414.587,171.565 C 414.929,166.765 415.146,166.775 415.386,161.972" stroke-width="5.512" stroke="black" fill="none" stroke-linecap="round"></path><path d="M 415.386,161.972 C 415.545,158.781 414.325,156.214 415.386,155.577" stroke-width="6.193" stroke="black" fill="none" stroke-linecap="round"></path><path d="M 415.386,155.577 C 416.323,155.015 418.284,157.050 419.381,159.574" stroke-width="7.537" stroke="black" fill="none" stroke-linecap="round"></path><path d="M 419.381,159.574 C 422.279,166.243 421.477,166.743 423.376,173.963" stroke-width="5.379" stroke="black" fill="none" stroke-linecap="round"></path><path d="M 423.376,173.963 C 425.472,181.931 425.473,181.934 427.371,189.951" stroke-width="4.680" stroke="black" fill="none" stroke-linecap="round"></path><path d="M 427.371,189.951 C 429.068,197.122 429.210,197.102 430.567,204.341" stroke-width="4.865" stroke="black" fill="none" stroke-linecap="round"></path><path d="M 430.567,204.341 C 431.607,209.892 431.155,209.978 432.165,215.532" stroke-width="5.231" stroke="black" fill="none" stroke-linecap="round"></path><path d="M 432.165,215.532 C 432.753,218.771 433.331,221.711 433.763,221.928" stroke-width="6.050" stroke="black" fill="none" stroke-linecap="round"></path><path d="M 433.763,221.928 C 434.130,222.111 433.875,219.127 433.763,216.332" stroke-width="7.358" stroke="black" fill="none" stroke-linecap="round"></path><path d="M 433.763,216.332 C 433.475,209.134 433.158,209.143 432.964,201.942" stroke-width="5.421" stroke="black" fill="none" stroke-linecap="round"></path><path d="M 432.964,201.942 C 432.759,194.354 432.964,194.348 432.964,186.754" stroke-width="4.936" stroke="black" fill="none" stroke-linecap="round"></path><path d="M 432.964,186.754 C 432.964,179.959 432.730,179.949 432.964,173.164" stroke-width="4.982" stroke="black" fill="none" stroke-linecap="round"></path><path d="M 432.964,173.164 C 433.129,168.358 433.259,168.356 433.763,163.571" stroke-width="5.493" stroke="black" fill="none" stroke-linecap="round"></path><path d="M 433.763,163.571 C 434.058,160.761 432.963,159.175 434.562,157.975" stroke-width="6.319" stroke="black" fill="none" stroke-linecap="round"></path><path d="M 434.562,157.975 C 436.159,156.776 438.542,157.000 440.155,158.775" stroke-width="7.470" stroke="black" fill="none" stroke-linecap="round"></path><path d="M 440.155,158.775 C 442.537,161.396 441.234,162.812 442.552,166.769" stroke-width="7.298" stroke="black" fill="none" stroke-linecap="round"></path><path d="M 442.552,166.769 C 443.631,170.007 443.499,173.345 444.949,173.164" stroke-width="7.434" stroke="black" fill="none" stroke-linecap="round"></path><path d="M 444.949,173.164 C 446.695,172.945 447.312,169.737 448.944,165.969" stroke-width="7.302" stroke="black" fill="none" stroke-linecap="round"></path><path d="M 448.944,165.969 C 452.506,157.746 452.437,157.676 455.336,149.182" stroke-width="4.974" stroke="black" fill="none" stroke-linecap="round"></path><path d="M 455.336,149.182 C 458.030,141.289 457.936,141.242 460.130,133.194" stroke-width="4.663" stroke="black" fill="none" stroke-linecap="round"></path><path d="M 460.130,133.194 C 461.532,128.051 461.292,127.989 462.527,122.802" stroke-width="5.238" stroke="black" fill="none" stroke-linecap="round"></path><path d="M 462.527,122.802 C 463.290,119.595 462.619,119.204 464.125,116.406" stroke-width="6.053" stroke="black" fill="none" stroke-linecap="round"></path><path d="M 464.125,116.406 C 465.416,114.008 466.440,112.036 468.120,112.409" stroke-width="7.129" stroke="black" fill="none" stroke-linecap="round"></path><path d="M 468.120,112.409 C 470.035,112.835 469.718,115.207 471.316,118.005" stroke-width="7.429" stroke="black" fill="none" stroke-linecap="round"></path><path d="M 471.316,118.005 C 474.512,123.601 474.687,123.507 477.708,129.197" stroke-width="5.646" stroke="black" fill="none" stroke-linecap="round"></path><path d="M 477.708,129.197 C 481.478,136.298 481.138,136.479 484.899,143.586" stroke-width="4.890" stroke="black" fill="none" stroke-linecap="round"></path><path d="M 484.899,143.586 C 488.329,150.069 488.286,150.109 492.090,156.376" stroke-width="4.752" stroke="black" fill="none" stroke-linecap="round"></path><path d="M 492.090,156.376 C 495.078,161.300 495.633,160.982 498.482,165.969" stroke-width="5.164" stroke="black" fill="none" stroke-linecap="round"></path><path d="M 498.482,165.969 C 500.427,169.375 500.014,169.597 501.678,173.164" stroke-width="5.886" stroke="black" fill="none" stroke-linecap="round"></path><path d="M 501.678,173.164 C 502.811,175.593 505.545,176.306 504.075,177.960" stroke-width="6.524" stroke="black" fill="none" stroke-linecap="round"></path><path d="M 504.075,177.960 C 499.153,183.501 496.858,183.441 488.894,187.553" stroke-width="6.066" stroke="black" fill="none" stroke-linecap="round"></path><path d="M 488.894,187.553 C 472.089,196.231 471.714,195.544 454.537,203.541" stroke-width="4.500" stroke="black" fill="none" stroke-linecap="round"></path><path d="M 454.537,203.541 C 431.364,214.330 431.251,214.093 408.195,225.125" stroke-width="4.500" stroke="black" fill="none" stroke-linecap="round"></path><path d="M 408.195,225.125 C 385.308,236.076 385.257,235.991 362.652,247.508" stroke-width="4.500" stroke="black" fill="none" stroke-linecap="round"></path><path d="M 362.652,247.508 C 342.111,257.974 342.471,258.687 321.903,269.092" stroke-width="4.500" stroke="black" fill="none" stroke-linecap="round"></path><path d="M 321.903,269.092 C 306.916,276.674 306.973,276.901 291.541,283.482" stroke-width="4.500" stroke="black" fill="none" stroke-linecap="round"></path><path d="M 291.541,283.482 C 282.603,287.293 282.482,287.837 273.164,289.877" stroke-width="4.500" stroke="black" fill="none" stroke-linecap="round"></path><path d="M 273.164,289.877 C 269.698,290.635 267.775,291.082 265.973,289.077" stroke-width="5.156" stroke="black" fill="none" stroke-linecap="round"></path><path d="M 265.973,289.077 C 264.180,287.085 265.010,285.253 265.973,281.883" stroke-width="5.921" stroke="black" fill="none" stroke-linecap="round"></path><path d="M 265.973,281.883 C 267.407,276.859 268.480,277.140 270.767,272.290" stroke-width="5.634" stroke="black" fill="none" stroke-linecap="round"></path><path d="M 270.767,272.290 C 278.468,255.955 278.532,255.981 285.948,239.514" stroke-width="4.500" stroke="black" fill="none" stroke-linecap="round"></path><path d="M 285.948,239.514 C 294.912,219.608 295.595,219.865 303.526,199.544" stroke-width="4.500" stroke="black" fill="none" stroke-linecap="round"></path><path d="M 303.526,199.544 C 311.974,177.897 311.875,177.792 318.707,155.577" stroke-width="4.500" stroke="black" fill="none" stroke-linecap="round"></path><path d="M 318.707,155.577 C 324.659,136.223 325.746,136.279 329.094,116.406" stroke-width="4.500" stroke="black" fill="none" stroke-linecap="round"></path><path d="M 329.094,116.406 C 331.738,100.706 331.128,100.375 330.692,84.430" stroke-width="4.500" stroke="black" fill="none" stroke-linecap="round"></path><path d="M 330.692,84.430 C 330.329,71.196 330.586,70.858 327.496,58.050" stroke-width="4.500" stroke="black" fill="none" stroke-linecap="round"></path><path d="M 327.496,58.050 C 324.993,47.676 324.463,47.535 319.506,38.065" stroke-width="4.500" stroke="black" fill="none" stroke-linecap="round"></path><path d="M 319.506,38.065 C 315.674,30.747 315.668,30.228 309.918,24.475" stroke-width="4.500" stroke="black" fill="none" stroke-linecap="round"></path><path d="M 309.918,24.475 C 306.080,20.635 305.430,20.271 300.330,18.879" stroke-width="5.032" stroke="black" fill="none" stroke-linecap="round"></path><path d="M 300.330,18.879 C 296.641,17.872 294.508,17.076 292.340,19.678" stroke-width="5.743" stroke="black" fill="none" stroke-linecap="round"></path><path d="M 292.340,19.678 C 288.515,24.270 289.338,26.308 288.345,33.268" stroke-width="6.157" stroke="black" fill="none" stroke-linecap="round"></path><path d="M 288.345,33.268 C 286.941,43.096 287.118,43.281 287.546,53.253" stroke-width="4.587" stroke="black" fill="none" stroke-linecap="round"></path><path d="M 287.546,53.253 C 288.317,71.260 288.261,71.356 290.742,89.227" stroke-width="4.500" stroke="black" fill="none" stroke-linecap="round"></path><path d="M 290.742,89.227 C 294.253,114.524 294.404,114.558 299.531,139.589" stroke-width="4.500" stroke="black" fill="none" stroke-linecap="round"></path><path d="M 299.531,139.589 C 304.391,163.322 304.932,163.218 310.717,186.754" stroke-width="4.500" stroke="black" fill="none" stroke-linecap="round"></path><path d="M 310.717,186.754 C 316.917,211.982 317.203,211.911 323.501,237.116" stroke-width="4.500" stroke="black" fill="none" stroke-linecap="round"></path><path d="M 323.501,237.116 C 329.587,261.474 329.682,261.453 335.486,285.880" stroke-width="4.500" stroke="black" fill="none" stroke-linecap="round"></path><path d="M 335.486,285.880 C 341.268,310.217 340.899,310.304 346.672,334.643" stroke-width="4.500" stroke="black" fill="none" stroke-linecap="round"></path><path d="M 346.672,334.643 C 352.085,357.469 351.237,357.729 357.858,380.209" stroke-width="4.500" stroke="black" fill="none" stroke-linecap="round"></path><path d="M 357.858,380.209 C 364.421,402.496 365.448,402.193 373.039,424.177" stroke-width="4.500" stroke="black" fill="none" stroke-linecap="round"></path><circle r="3" cx="365.84771728515625" cy="85.22952270507812" fill="black"></circle></svg>