<svg xmlns="http://www.w3.org/2000/svg" xmlns:xlink="http://www.w3.org/1999/xlink" viewBox="0 0 576 416" width="576" height="416"><path d="M 75.011,245.110 C 83.401,254.303 83.500,254.215 91.790,263.496" stroke-width="6.447" stroke="black" fill="none" stroke-linecap="round"></path><path d="M 91.790,263.496 C 100.279,273.001 100.416,272.893 108.569,282.682" stroke-width="4.500" stroke="black" fill="none" stroke-linecap="round"></path><path d="M 108.569,282.682 C 116.396,292.079 116.257,292.200 123.750,301.868" stroke-width="4.500" stroke="black" fill="none" stroke-linecap="round"></path><path d="M 123.750,301.868 C 131.438,311.785 141.483,325.078 138.931,321.853" stroke-width="4.500" stroke="black" fill="none" stroke-linecap="round"></path><path d="M 62.227,241.113 C 83.001,231.121 83.259,231.630 103.775,221.128" stroke-width="6.292" stroke="black" fill="none" stroke-linecap="round"></path><path d="M 103.775,221.128 C 134.795,205.250 134.442,204.560 165.298,188.353" stroke-width="4.500" stroke="black" fill="none" stroke-linecap="round"></path><path d="M 165.298,188.353 C 198.362,170.985 198.296,170.847 231.615,153.978" stroke-width="4.500" stroke="black" fill="none" stroke-linecap="round"></path><path d="M 231.615,153.978 C 264.613,137.272 264.648,137.330 297.933,121.203" stroke-width="4.500" stroke="black" fill="none" stroke-linecap="round"></path><path d="M 297.933,121.203 C 328.168,106.553 328.069,106.315 358.657,92.424" stroke-width="4.500" stroke="black" fill="none" stroke-linecap="round"></path><path d="M 358.657,92.424 C 384.399,80.734 384.198,80.066 410.592,70.041" stroke-width="4.500" stroke="black" fill="none" stroke-linecap="round"></path><path d="M 410.592,70.041 C 427.344,63.678 427.550,63.358 444.949,59.649" stroke-width="4.500" stroke="black" fill="none" stroke-linecap="round"></path><path d="M 444.949,59.649 C 451.920,58.162 452.140,59.649 459.331,59.649" stroke-width="4.500" stroke="black" fill="none" stroke-linecap="round"></path><path d="M 161.303,282.682 C 168.894,277.886 168.919,277.925 176.484,273.089" stroke-width="7.693" stroke="black" fill="none" stroke-linecap="round"></path><path d="M 176.484,273.089 C 183.301,268.732 183.196,268.563 190.067,264.296" stroke-width="5.241" stroke="black" fill="none" stroke-linecap="round"></path><path d="M 190.067,264.296 C 194.782,261.368 194.922,261.594 199.655,258.700" stroke-width="5.465" stroke="black" fill="none" stroke-linecap="round"></path><path d="M 199.655,258.700 C 202.113,257.198 204.238,255.502 204.449,255.502" stroke-width="6.223" stroke="black" fill="none" stroke-linecap="round"></path><path d="M 204.449,255.502 C 204.637,255.502 202.331,256.967 200.454,258.700" stroke-width="7.475" stroke="black" fill="none" stroke-linecap="round"></path><path d="M 200.454,258.700 C 197.138,261.763 197.031,261.701 194.062,265.095" stroke-width="6.178" stroke="black" fill="none" stroke-linecap="round"></path><path d="M 194.062,265.095 C 191.438,268.096 191.226,268.063 189.268,271.491" stroke-width="6.054" stroke="black" fill="none" stroke-linecap="round"></path><path d="M 189.268,271.491 C 188.030,273.659 186.257,275.901 187.670,276.287" stroke-width="7.199" stroke="black" fill="none" stroke-linecap="round"></path><path d="M 187.670,276.287 C 190.651,277.100 192.875,275.133 198.057,273.889" stroke-width="6.132" stroke="black" fill="none" stroke-linecap="round"></path><path d="M 198.057,273.889 C 202.862,272.735 202.793,272.219 207.645,271.491" stroke-width="5.817" stroke="black" fill="none" stroke-linecap="round"></path><path d="M 207.645,271.491 C 210.783,271.020 212.333,269.999 214.037,271.491" stroke-width="6.305" stroke="black" fill="none" stroke-linecap="round"></path><path d="M 214.037,271.491 C 215.529,272.797 212.639,275.687 214.037,277.086" stroke-width="7.469" stroke="black" fill="none" stroke-linecap="round"></path><path d="M 214.037,277.086 C 215.435,278.485 217.055,278.094 219.630,277.086" stroke-width="7.670" stroke="black" fill="none" stroke-linecap="round"></path><path d="M 219.630,277.086 C 235.433,270.900 236.085,271.438 250.792,262.697" stroke-width="4.500" stroke="black" fill="none" stroke-linecap="round"></path><path d="M 250.792,262.697 C 276.434,247.456 276.781,247.488 300.330,229.122" stroke-width="4.500" stroke="black" fill="none" stroke-linecap="round"></path><path d="M 300.330,229.122 C 327.517,207.918 326.410,206.467 352.265,183.556" stroke-width="4.500" stroke="black" fill="none" stroke-linecap="round"></path><path d="M 352.265,183.556 C 382.341,156.904 381.706,156.168 412.190,129.996" stroke-width="4.500" stroke="black" fill="none" stroke-linecap="round"></path><path d="M 412.190,129.996 C 440.832,105.406 440.063,104.212 470.517,82.032" stroke-width="4.500" stroke="black" fill="none" stroke-linecap="round"></path><path d="M 470.517,82.032 C 494.395,64.641 495.667,66.413 520.854,50.855" stroke-width="4.500" stroke="black" fill="none" stroke-linecap="round"></path></svg>