<svg xmlns="http://www.w3.org/2000/svg" xmlns:xlink="http://www.w3.org/1999/xlink" viewBox="0 0 576 416" width="576" height="416"><path d="M 57.433,203.541 C 57.833,197.945 57.599,197.922 58.232,192.350" stroke-width="8.400" stroke="black" fill="none" stroke-linecap="round"></path><path d="M 58.232,192.350 C 59.597,180.335 59.590,180.321 61.428,168.367" stroke-width="5.923" stroke="black" fill="none" stroke-linecap="round"></path><path d="M 61.428,168.367 C 62.786,159.536 63.391,159.624 64.624,150.781" stroke-width="4.862" stroke="black" fill="none" stroke-linecap="round"></path><path d="M 64.624,150.781 C 65.788,142.437 65.340,142.378 66.222,133.993" stroke-width="4.516" stroke="black" fill="none" stroke-linecap="round"></path><path d="M 66.222,133.993 C 66.938,127.189 67.237,127.217 67.820,120.403" stroke-width="4.835" stroke="black" fill="none" stroke-linecap="round"></path><path d="M 67.820,120.403 C 68.435,113.227 68.067,113.195 68.619,106.014" stroke-width="4.948" stroke="black" fill="none" stroke-linecap="round"></path><path d="M 68.619,106.014 C 68.866,102.803 68.301,98.625 69.418,99.619" stroke-width="6.511" stroke="black" fill="none" stroke-linecap="round"></path><path d="M 69.418,99.619 C 71.897,101.823 73.469,105.694 75.810,112.409" stroke-width="7.268" stroke="black" fill="none" stroke-linecap="round"></path><path d="M 75.810,112.409 C 79.461,122.881 78.270,123.299 81.403,133.993" stroke-width="4.524" stroke="black" fill="none" stroke-linecap="round"></path><path d="M 81.403,133.993 C 85.062,146.482 85.537,146.341 89.393,158.775" stroke-width="4.500" stroke="black" fill="none" stroke-linecap="round"></path><path d="M 89.393,158.775 C 92.728,169.524 92.635,169.553 95.785,180.359" stroke-width="4.500" stroke="black" fill="none" stroke-linecap="round"></path><path d="M 95.785,180.359 C 98.228,188.739 97.824,188.877 100.579,197.146" stroke-width="4.500" stroke="black" fill="none" stroke-linecap="round"></path><path d="M 100.579,197.146 C 102.219,202.068 102.559,201.950 104.574,206.739" stroke-width="5.064" stroke="black" fill="none" stroke-linecap="round"></path><path d="M 104.574,206.739 C 105.755,209.544 105.551,212.808 106.971,212.335" stroke-width="6.002" stroke="black" fill="none" stroke-linecap="round"></path><path d="M 106.971,212.335 C 109.146,211.609 110.703,208.745 111.765,204.341" stroke-width="7.337" stroke="black" fill="none" stroke-linecap="round"></path><path d="M 111.765,204.341 C 113.499,197.154 112.175,196.747 112.564,189.152" stroke-width="5.312" stroke="black" fill="none" stroke-linecap="round"></path><path d="M 112.564,189.152 C 112.974,181.158 112.954,181.157 113.363,173.164" stroke-width="4.819" stroke="black" fill="none" stroke-linecap="round"></path><path d="M 113.363,173.164 C 113.753,165.569 113.763,165.570 114.162,157.975" stroke-width="4.771" stroke="black" fill="none" stroke-linecap="round"></path><path d="M 114.162,157.975 C 114.562,150.381 114.100,150.326 114.961,142.787" stroke-width="4.756" stroke="black" fill="none" stroke-linecap="round"></path><path d="M 114.961,142.787 C 115.698,136.336 116.123,136.384 117.358,129.996" stroke-width="5.074" stroke="black" fill="none" stroke-linecap="round"></path><path d="M 117.358,129.996 C 118.520,123.993 118.430,123.972 119.755,118.005" stroke-width="5.093" stroke="black" fill="none" stroke-linecap="round"></path><path d="M 119.755,118.005 C 120.827,113.180 120.735,113.140 122.152,108.412" stroke-width="5.497" stroke="black" fill="none" stroke-linecap="round"></path><path d="M 122.152,108.412 C 123.132,105.146 123.183,105.141 124.549,102.017" stroke-width="6.112" stroke="black" fill="none" stroke-linecap="round"></path><path d="M 137.333,172.365 C 138.532,167.568 138.313,167.500 139.730,162.772" stroke-width="8.383" stroke="black" fill="none" stroke-linecap="round"></path><path d="M 139.730,162.772 C 140.710,159.506 140.416,159.287 142.127,156.376" stroke-width="7.741" stroke="black" fill="none" stroke-linecap="round"></path><path d="M 142.127,156.376 C 144.411,152.492 144.761,152.636 147.720,149.182" stroke-width="7.651" stroke="black" fill="none" stroke-linecap="round"></path><path d="M 147.720,149.182 C 149.555,147.040 149.438,146.812 151.715,145.185" stroke-width="7.001" stroke="black" fill="none" stroke-linecap="round"></path><path d="M 151.715,145.185 C 155.031,142.815 155.267,143.104 158.906,141.188" stroke-width="6.318" stroke="black" fill="none" stroke-linecap="round"></path><path d="M 158.906,141.188 C 162.858,139.107 162.743,138.774 166.896,137.191" stroke-width="6.019" stroke="black" fill="none" stroke-linecap="round"></path><path d="M 166.896,137.191 C 171.132,135.576 171.221,135.605 175.685,134.793" stroke-width="5.907" stroke="black" fill="none" stroke-linecap="round"></path><path d="M 175.685,134.793 C 180.010,134.006 180.080,133.993 184.474,133.993" stroke-width="5.919" stroke="black" fill="none" stroke-linecap="round"></path><path d="M 184.474,133.993 C 188.869,133.993 188.980,133.861 193.263,134.793" stroke-width="5.923" stroke="black" fill="none" stroke-linecap="round"></path><path d="M 193.263,134.793 C 198.169,135.859 198.593,135.472 202.851,137.990" stroke-width="5.725" stroke="black" fill="none" stroke-linecap="round"></path><path d="M 202.851,137.990 C 207.382,140.669 208.061,140.813 210.841,145.185" stroke-width="5.575" stroke="black" fill="none" stroke-linecap="round"></path><path d="M 210.841,145.185 C 213.654,149.606 213.487,150.257 214.037,155.577" stroke-width="5.515" stroke="black" fill="none" stroke-linecap="round"></path><path d="M 214.037,155.577 C 214.686,161.848 214.253,162.072 213.238,168.367" stroke-width="5.241" stroke="black" fill="none" stroke-linecap="round"></path><path d="M 213.238,168.367 C 212.256,174.463 211.938,174.459 210.042,180.359" stroke-width="5.214" stroke="black" fill="none" stroke-linecap="round"></path><path d="M 210.042,180.359 C 208.342,185.651 208.264,185.651 206.047,190.751" stroke-width="5.369" stroke="black" fill="none" stroke-linecap="round"></path><path d="M 206.047,190.751 C 204.269,194.844 205.175,195.770 202.052,198.745" stroke-width="5.729" stroke="black" fill="none" stroke-linecap="round"></path><path d="M 202.052,198.745 C 196.785,203.764 196.031,204.033 189.268,206.739" stroke-width="6.074" stroke="black" fill="none" stroke-linecap="round"></path><path d="M 189.268,206.739 C 186.043,208.030 185.490,207.630 182.077,206.739" stroke-width="6.247" stroke="black" fill="none" stroke-linecap="round"></path><path d="M 182.077,206.739 C 176.301,205.231 176.146,204.914 170.891,201.942" stroke-width="6.509" stroke="black" fill="none" stroke-linecap="round"></path><path d="M 170.891,201.942 C 166.958,199.718 166.787,199.628 163.700,196.347" stroke-width="6.040" stroke="black" fill="none" stroke-linecap="round"></path><path d="M 163.700,196.347 C 160.395,192.833 159.908,192.756 158.107,188.353" stroke-width="5.811" stroke="black" fill="none" stroke-linecap="round"></path><path d="M 158.107,188.353 C 156.313,183.963 156.509,183.565 156.509,178.760" stroke-width="5.751" stroke="black" fill="none" stroke-linecap="round"></path><path d="M 156.509,178.760 C 156.509,173.173 156.211,172.821 158.107,167.568" stroke-width="5.505" stroke="black" fill="none" stroke-linecap="round"></path><path d="M 158.107,167.568 C 161.405,158.432 162.502,158.775 166.896,149.981" stroke-width="4.500" stroke="black" fill="none" stroke-linecap="round"></path><path d="M 242.078,192.090 C 241.730,186.868 241.382,186.865 241.382,181.645" stroke-width="8.603" stroke="black" fill="none" stroke-linecap="round"></path><path d="M 241.382,181.645 C 241.382,177.464 241.427,177.412 242.078,173.289" stroke-width="7.617" stroke="black" fill="none" stroke-linecap="round"></path><path d="M 242.078,173.289 C 242.471,170.796 242.669,170.817 243.470,168.414" stroke-width="7.052" stroke="black" fill="none" stroke-linecap="round"></path><path d="M 243.470,168.414 C 244.757,164.550 244.519,164.417 246.254,160.754" stroke-width="6.911" stroke="black" fill="none" stroke-linecap="round"></path><path d="M 246.254,160.754 C 247.651,157.802 247.645,157.691 249.734,155.183" stroke-width="6.612" stroke="black" fill="none" stroke-linecap="round"></path><path d="M 249.734,155.183 C 252.865,151.424 252.831,151.206 256.694,148.220" stroke-width="6.978" stroke="black" fill="none" stroke-linecap="round"></path><path d="M 256.694,148.220 C 260.488,145.287 260.621,144.610 265.046,143.345" stroke-width="7.059" stroke="black" fill="none" stroke-linecap="round"></path><path d="M 265.046,143.345 C 267.930,142.521 268.334,143.166 271.310,144.042" stroke-width="7.699" stroke="black" fill="none" stroke-linecap="round"></path><path d="M 271.310,144.042 C 274.250,144.907 274.377,145.020 276.878,146.827" stroke-width="7.634" stroke="black" fill="none" stroke-linecap="round"></path><path d="M 276.878,146.827 C 280.641,149.546 280.666,149.694 283.838,153.094" stroke-width="7.220" stroke="black" fill="none" stroke-linecap="round"></path><path d="M 283.838,153.094 C 285.538,154.917 285.230,155.183 286.622,157.272" stroke-width="7.027" stroke="black" fill="none" stroke-linecap="round"></path><path d="M 286.622,157.272 C 288.014,159.361 288.432,159.177 289.406,161.450" stroke-width="6.972" stroke="black" fill="none" stroke-linecap="round"></path><path d="M 289.406,161.450 C 290.520,164.051 290.466,164.191 290.798,167.021" stroke-width="6.867" stroke="black" fill="none" stroke-linecap="round"></path><path d="M 290.798,167.021 C 291.162,170.110 290.798,170.155 290.798,173.289" stroke-width="6.582" stroke="black" fill="none" stroke-linecap="round"></path><path d="M 290.798,173.289 C 290.798,176.074 291.141,176.116 290.798,178.860" stroke-width="6.718" stroke="black" fill="none" stroke-linecap="round"></path><path d="M 290.798,178.860 C 290.445,181.687 290.352,181.728 289.406,184.430" stroke-width="6.725" stroke="black" fill="none" stroke-linecap="round"></path><path d="M 289.406,184.430 C 287.916,188.691 288.243,188.994 285.926,192.787" stroke-width="6.988" stroke="black" fill="none" stroke-linecap="round"></path><path d="M 285.926,192.787 C 284.415,195.262 284.008,195.083 281.750,196.965" stroke-width="6.769" stroke="black" fill="none" stroke-linecap="round"></path><path d="M 281.750,196.965 C 279.832,198.565 279.775,198.565 277.574,199.750" stroke-width="6.894" stroke="black" fill="none" stroke-linecap="round"></path><path d="M 277.574,199.750 C 275.250,201.002 275.193,200.949 272.702,201.840" stroke-width="6.870" stroke="black" fill="none" stroke-linecap="round"></path><path d="M 272.702,201.840 C 270.321,202.690 270.307,202.737 267.830,203.232" stroke-width="6.914" stroke="black" fill="none" stroke-linecap="round"></path><path d="M 267.830,203.232 C 265.087,203.781 265.059,203.795 262.262,203.929" stroke-width="6.810" stroke="black" fill="none" stroke-linecap="round"></path><path d="M 262.262,203.929 C 257.751,204.144 257.286,205.151 253.214,203.929" stroke-width="7.016" stroke="black" fill="none" stroke-linecap="round"></path><path d="M 253.214,203.929 C 250.325,203.062 250.229,202.268 248.342,199.750" stroke-width="7.395" stroke="black" fill="none" stroke-linecap="round"></path><path d="M 248.342,199.750 C 246.053,196.697 245.634,196.497 244.862,192.787" stroke-width="7.345" stroke="black" fill="none" stroke-linecap="round"></path><path d="M 355.055,109.660 C 350.531,107.919 350.552,107.862 346.007,106.178" stroke-width="8.394" stroke="black" fill="none" stroke-linecap="round"></path><path d="M 346.007,106.178 C 341.156,104.380 341.248,103.989 336.263,102.696" stroke-width="7.289" stroke="black" fill="none" stroke-linecap="round"></path><path d="M 336.263,102.696 C 331.852,101.552 331.752,101.501 327.214,101.303" stroke-width="7.149" stroke="black" fill="none" stroke-linecap="round"></path><path d="M 327.214,101.303 C 323.747,101.153 323.008,100.316 320.254,102.000" stroke-width="7.367" stroke="black" fill="none" stroke-linecap="round"></path><path d="M 320.254,102.000 C 316.744,104.146 317.047,105.224 314.686,108.964" stroke-width="7.168" stroke="black" fill="none" stroke-linecap="round"></path><path d="M 314.686,108.964 C 312.871,111.840 312.982,111.990 311.902,115.231" stroke-width="6.622" stroke="black" fill="none" stroke-linecap="round"></path><path d="M 311.902,115.231 C 310.546,119.301 310.519,119.353 309.814,123.587" stroke-width="6.154" stroke="black" fill="none" stroke-linecap="round"></path><path d="M 309.814,123.587 C 309.127,127.709 309.300,127.758 309.118,131.943" stroke-width="6.065" stroke="black" fill="none" stroke-linecap="round"></path><path d="M 309.118,131.943 C 308.952,135.767 309.118,135.773 309.118,139.603" stroke-width="6.162" stroke="black" fill="none" stroke-linecap="round"></path><path d="M 309.118,139.603 C 309.118,142.737 308.988,142.741 309.118,145.871" stroke-width="6.446" stroke="black" fill="none" stroke-linecap="round"></path><path d="M 309.118,145.871 C 309.336,151.098 309.596,151.089 309.814,156.316" stroke-width="6.745" stroke="black" fill="none" stroke-linecap="round"></path><path d="M 309.814,156.316 C 309.944,159.445 309.641,159.459 309.814,162.583" stroke-width="6.626" stroke="black" fill="none" stroke-linecap="round"></path><path d="M 309.814,162.583 C 309.989,165.727 310.196,165.714 310.510,168.851" stroke-width="6.583" stroke="black" fill="none" stroke-linecap="round"></path><path d="M 310.510,168.851 C 310.892,172.677 310.887,172.678 311.206,176.511" stroke-width="6.308" stroke="black" fill="none" stroke-linecap="round"></path><path d="M 311.206,176.511 C 311.583,181.035 311.525,181.039 311.902,185.563" stroke-width="5.992" stroke="black" fill="none" stroke-linecap="round"></path><path d="M 311.902,185.563 C 312.221,189.396 312.431,189.385 312.598,193.223" stroke-width="6.134" stroke="black" fill="none" stroke-linecap="round"></path><path d="M 312.598,193.223 C 312.779,197.393 312.598,197.402 312.598,201.580" stroke-width="6.064" stroke="black" fill="none" stroke-linecap="round"></path><path d="M 312.598,201.580 C 312.598,205.062 312.598,205.062 312.598,208.543" stroke-width="6.285" stroke="black" fill="none" stroke-linecap="round"></path><path d="M 312.598,208.543 C 312.598,211.677 312.598,211.677 312.598,214.811" stroke-width="6.486" stroke="black" fill="none" stroke-linecap="round"></path><path d="M 312.598,214.811 C 312.598,217.596 312.598,217.596 312.598,220.381" stroke-width="6.688" stroke="black" fill="none" stroke-linecap="round"></path><path d="M 312.598,220.381 C 312.598,223.515 312.213,223.569 312.598,226.649" stroke-width="7.301" stroke="black" fill="none" stroke-linecap="round"></path><path d="M 309.814,173.725 C 313.642,173.029 313.616,172.835 317.470,172.332" stroke-width="8.630" stroke="black" fill="none" stroke-linecap="round"></path><path d="M 317.470,172.332 C 321.621,171.791 321.668,172.156 325.822,171.636" stroke-width="6.628" stroke="black" fill="none" stroke-linecap="round"></path><path d="M 325.822,171.636 C 330.020,171.111 329.979,170.791 334.174,170.243" stroke-width="6.181" stroke="black" fill="none" stroke-linecap="round"></path><path d="M 334.174,170.243 C 337.983,169.746 338.004,169.912 341.831,169.547" stroke-width="6.193" stroke="black" fill="none" stroke-linecap="round"></path><path d="M 341.831,169.547 C 345.312,169.215 345.331,169.345 348.791,168.851" stroke-width="6.320" stroke="black" fill="none" stroke-linecap="round"></path></svg>