<svg xmlns="http://www.w3.org/2000/svg" xmlns:xlink="http://www.w3.org/1999/xlink" viewBox="0 0 576 416" width="576" height="416"><path d="M 407.396,216.332 C 399.406,219.130 399.340,218.954 391.416,221.928" stroke-width="7.992" stroke="black" fill="none" stroke-linecap="round"></path><path d="M 391.416,221.928 C 383.360,224.950 383.476,225.258 375.436,228.323" stroke-width="5.153" stroke="black" fill="none" stroke-linecap="round"></path><path d="M 375.436,228.323 C 366.697,231.653 366.726,231.760 357.858,234.718" stroke-width="4.513" stroke="black" fill="none" stroke-linecap="round"></path><path d="M 357.858,234.718 C 349.947,237.356 349.905,237.249 341.878,239.514" stroke-width="4.533" stroke="black" fill="none" stroke-linecap="round"></path><path d="M 341.878,239.514 C 334.325,241.646 334.269,241.445 326.697,243.511" stroke-width="4.500" stroke="black" fill="none" stroke-linecap="round"></path><path d="M 326.697,243.511 C 321.085,245.043 321.069,244.998 315.511,246.709" stroke-width="4.952" stroke="black" fill="none" stroke-linecap="round"></path><path d="M 315.511,246.709 C 310.682,248.196 310.717,248.308 305.923,249.907" stroke-width="5.417" stroke="black" fill="none" stroke-linecap="round"></path><path d="M 305.923,249.907 C 303.526,250.706 299.930,251.905 301.129,251.505" stroke-width="6.340" stroke="black" fill="none" stroke-linecap="round"></path><path d="M 365.049,209.936 C 353.064,208.737 352.931,206.626 341.079,207.538" stroke-width="8.241" stroke="black" fill="none" stroke-linecap="round"></path><path d="M 341.079,207.538 C 326.964,208.625 326.971,210.264 313.114,213.934" stroke-width="4.500" stroke="black" fill="none" stroke-linecap="round"></path><path d="M 313.114,213.934 C 299.805,217.458 299.810,217.571 286.747,221.928" stroke-width="4.500" stroke="black" fill="none" stroke-linecap="round"></path><path d="M 286.747,221.928 C 273.443,226.364 273.602,226.835 260.380,231.520" stroke-width="4.500" stroke="black" fill="none" stroke-linecap="round"></path><path d="M 260.380,231.520 C 254.426,233.630 254.356,233.430 248.395,235.517" stroke-width="4.500" stroke="black" fill="none" stroke-linecap="round"></path><path d="M 248.395,235.517 C 238.376,239.026 238.303,238.853 228.419,242.712" stroke-width="4.500" stroke="black" fill="none" stroke-linecap="round"></path><path d="M 228.419,242.712 C 221.923,245.248 221.976,245.400 215.635,248.308" stroke-width="4.500" stroke="black" fill="none" stroke-linecap="round"></path><path d="M 215.635,248.308 C 212.388,249.797 207.626,252.214 209.243,251.505" stroke-width="5.574" stroke="black" fill="none" stroke-linecap="round"></path><path d="M 305.923,196.347 C 301.129,196.746 301.103,196.530 296.335,197.146" stroke-width="7.675" stroke="black" fill="none" stroke-linecap="round"></path><path d="M 296.335,197.146 C 288.718,198.129 288.724,198.227 281.154,199.544" stroke-width="5.342" stroke="black" fill="none" stroke-linecap="round"></path><path d="M 281.154,199.544 C 270.347,201.425 270.256,201.062 259.581,203.541" stroke-width="4.500" stroke="black" fill="none" stroke-linecap="round"></path><path d="M 259.581,203.541 C 247.884,206.258 247.957,206.607 236.410,209.936" stroke-width="4.500" stroke="black" fill="none" stroke-linecap="round"></path><path d="M 236.410,209.936 C 224.387,213.402 224.430,213.553 212.439,217.131" stroke-width="4.500" stroke="black" fill="none" stroke-linecap="round"></path><path d="M 212.439,217.131 C 201.659,220.348 201.709,220.543 190.866,223.526" stroke-width="4.500" stroke="black" fill="none" stroke-linecap="round"></path><path d="M 190.866,223.526 C 185.729,224.940 185.641,224.597 180.479,225.924" stroke-width="4.819" stroke="black" fill="none" stroke-linecap="round"></path><path d="M 180.479,225.924 C 171.658,228.194 171.787,228.799 162.901,230.721" stroke-width="4.500" stroke="black" fill="none" stroke-linecap="round"></path><path d="M 162.901,230.721 C 157.005,231.996 156.650,232.841 150.916,232.320" stroke-width="4.997" stroke="black" fill="none" stroke-linecap="round"></path><path d="M 150.916,232.320 C 147.861,232.042 146.921,231.520 145.323,229.122" stroke-width="5.913" stroke="black" fill="none" stroke-linecap="round"></path><path d="M 145.323,229.122 C 143.725,226.724 143.299,225.586 144.524,222.727" stroke-width="6.329" stroke="black" fill="none" stroke-linecap="round"></path><path d="M 144.524,222.727 C 149.292,211.597 150.697,211.800 157.308,201.143" stroke-width="4.500" stroke="black" fill="none" stroke-linecap="round"></path><path d="M 157.308,201.143 C 165.079,188.617 165.710,188.998 173.288,176.362" stroke-width="4.500" stroke="black" fill="none" stroke-linecap="round"></path><path d="M 173.288,176.362 C 180.092,165.016 180.902,165.250 186.072,153.179" stroke-width="4.500" stroke="black" fill="none" stroke-linecap="round"></path><path d="M 186.072,153.179 C 189.291,145.665 189.150,145.143 190.067,137.191" stroke-width="4.500" stroke="black" fill="none" stroke-linecap="round"></path><path d="M 190.067,137.191 C 190.349,134.751 190.496,133.295 188.469,132.394" stroke-width="5.801" stroke="black" fill="none" stroke-linecap="round"></path><path d="M 188.469,132.394 C 183.305,130.098 181.964,129.798 175.685,130.796" stroke-width="5.307" stroke="black" fill="none" stroke-linecap="round"></path><path d="M 175.685,130.796 C 156.796,133.795 156.519,134.382 138.132,140.388" stroke-width="4.500" stroke="black" fill="none" stroke-linecap="round"></path><path d="M 138.132,140.388 C 117.367,147.172 117.536,147.863 97.383,156.376" stroke-width="4.500" stroke="black" fill="none" stroke-linecap="round"></path><path d="M 97.383,156.376 C 81.581,163.052 81.671,163.304 66.222,170.766" stroke-width="4.500" stroke="black" fill="none" stroke-linecap="round"></path><path d="M 66.222,170.766 C 58.500,174.496 51.910,178.760 51.041,178.760" stroke-width="4.500" stroke="black" fill="none" stroke-linecap="round"></path><path d="M 51.041,178.760 C 50.312,178.760 56.772,174.332 63.026,170.766" stroke-width="5.297" stroke="black" fill="none" stroke-linecap="round"></path><path d="M 63.026,170.766 C 93.925,153.148 93.659,152.543 125.348,136.391" stroke-width="4.500" stroke="black" fill="none" stroke-linecap="round"></path><path d="M 125.348,136.391 C 157.180,120.167 157.381,120.468 190.067,106.014" stroke-width="4.500" stroke="black" fill="none" stroke-linecap="round"></path><path d="M 190.067,106.014 C 229.691,88.492 229.274,87.147 269.968,72.439" stroke-width="4.500" stroke="black" fill="none" stroke-linecap="round"></path><path d="M 269.968,72.439 C 305.579,59.568 305.951,60.152 342.677,50.855" stroke-width="4.500" stroke="black" fill="none" stroke-linecap="round"></path><path d="M 342.677,50.855 C 372.268,43.364 372.451,43.578 402.602,38.864" stroke-width="4.500" stroke="black" fill="none" stroke-linecap="round"></path><path d="M 402.602,38.864 C 423.587,35.584 423.892,34.613 444.949,34.867" stroke-width="4.500" stroke="black" fill="none" stroke-linecap="round"></path><path d="M 444.949,34.867 C 457.050,35.013 459.183,34.168 468.919,39.664" stroke-width="4.500" stroke="black" fill="none" stroke-linecap="round"></path><path d="M 468.919,39.664 C 474.763,42.962 474.722,46.066 476.110,52.454" stroke-width="4.500" stroke="black" fill="none" stroke-linecap="round"></path><path d="M 476.110,52.454 C 476.719,55.259 475.073,55.674 472.914,58.050" stroke-width="5.563" stroke="black" fill="none" stroke-linecap="round"></path><path d="M 472.914,58.050 C 459.093,73.261 459.557,73.958 444.150,87.628" stroke-width="4.500" stroke="black" fill="none" stroke-linecap="round"></path><path d="M 444.150,87.628 C 417.210,111.530 416.967,111.438 388.220,133.194" stroke-width="4.500" stroke="black" fill="none" stroke-linecap="round"></path><path d="M 388.220,133.194 C 354.645,158.603 353.995,157.765 319.506,181.957" stroke-width="4.500" stroke="black" fill="none" stroke-linecap="round"></path><path d="M 319.506,181.957 C 280.487,209.326 280.301,209.060 241.203,236.317" stroke-width="4.500" stroke="black" fill="none" stroke-linecap="round"></path><path d="M 241.203,236.317 C 205.195,261.421 205.034,261.198 169.293,286.679" stroke-width="4.500" stroke="black" fill="none" stroke-linecap="round"></path><path d="M 169.293,286.679 C 138.318,308.763 138.137,308.543 107.770,331.446" stroke-width="4.500" stroke="black" fill="none" stroke-linecap="round"></path><path d="M 107.770,331.446 C 86.202,347.713 86.142,347.702 65.423,365.021" stroke-width="4.500" stroke="black" fill="none" stroke-linecap="round"></path><path d="M 65.423,365.021 C 54.582,374.083 50.879,374.234 44.649,384.206" stroke-width="4.500" stroke="black" fill="none" stroke-linecap="round"></path><path d="M 348.270,133.194 C 334.287,137.191 333.261,134.842 320.305,141.188" stroke-width="6.691" stroke="black" fill="none" stroke-linecap="round"></path><path d="M 320.305,141.188 C 294.909,153.627 295.935,155.977 271.566,170.766" stroke-width="4.500" stroke="black" fill="none" stroke-linecap="round"></path></svg>