<svg xmlns="http://www.w3.org/2000/svg" xmlns:xlink="http://www.w3.org/1999/xlink" viewBox="0 0 576 336" width="576" height="336"><path d="M 103.745,21.203 C 95.574,19.781 95.625,18.817 87.404,18.360" stroke-width="7.599" stroke="black" fill="none" stroke-linecap="round"></path><path d="M 87.404,18.360 C 79.640,17.928 79.553,18.572 71.774,19.426" stroke-width="5.293" stroke="black" fill="none" stroke-linecap="round"></path><path d="M 71.774,19.426 C 64.989,20.171 65.003,20.366 58.276,21.558" stroke-width="5.077" stroke="black" fill="none" stroke-linecap="round"></path><path d="M 58.276,21.558 C 50.971,22.853 50.979,22.908 43.711,24.402" stroke-width="4.884" stroke="black" fill="none" stroke-linecap="round"></path><path d="M 43.711,24.402 C 38.013,25.573 38.083,26.274 32.344,26.890" stroke-width="5.277" stroke="black" fill="none" stroke-linecap="round"></path><path d="M 32.344,26.890 C 28.136,27.341 27.891,27.482 23.819,26.534" stroke-width="5.758" stroke="black" fill="none" stroke-linecap="round"></path><path d="M 23.819,26.534 C 20.254,25.705 19.014,22.274 17.069,23.335" stroke-width="6.959" stroke="black" fill="none" stroke-linecap="round"></path><path d="M 17.069,23.335 C 15.107,24.407 15.906,27.095 16.004,30.799" stroke-width="7.799" stroke="black" fill="none" stroke-linecap="round"></path><path d="M 16.004,30.799 C 16.084,33.848 16.896,33.786 17.425,36.841" stroke-width="6.914" stroke="black" fill="none" stroke-linecap="round"></path><path d="M 17.425,36.841 C 18.495,43.026 18.365,43.054 19.201,49.280" stroke-width="5.597" stroke="black" fill="none" stroke-linecap="round"></path><path d="M 19.201,49.280 C 19.963,54.960 19.965,54.961 20.622,60.653" stroke-width="5.440" stroke="black" fill="none" stroke-linecap="round"></path><path d="M 20.622,60.653 C 21.031,64.201 21.041,64.202 21.332,67.761" stroke-width="5.965" stroke="black" fill="none" stroke-linecap="round"></path><path d="M 21.332,67.761 C 21.752,72.909 21.707,72.914 22.043,78.068" stroke-width="5.609" stroke="black" fill="none" stroke-linecap="round"></path><path d="M 22.043,78.068 C 22.240,81.088 22.154,81.095 22.398,84.110" stroke-width="6.291" stroke="black" fill="none" stroke-linecap="round"></path><path d="M 22.398,84.110 C 22.686,87.670 22.835,87.658 23.108,91.218" stroke-width="7.027" stroke="black" fill="none" stroke-linecap="round"></path><path d="M 23.108,91.218 C 23.367,94.589 23.307,94.594 23.464,97.971" stroke-width="6.521" stroke="black" fill="none" stroke-linecap="round"></path><path d="M 23.464,97.971 C 23.662,102.235 23.819,102.238 23.819,106.501" stroke-width="6.050" stroke="black" fill="none" stroke-linecap="round"></path><path d="M 11.741,69.539 C 18.668,68.117 18.625,67.857 25.595,66.695" stroke-width="8.041" stroke="black" fill="none" stroke-linecap="round"></path><path d="M 25.595,66.695 C 32.479,65.547 32.553,66.002 39.449,64.918" stroke-width="5.465" stroke="black" fill="none" stroke-linecap="round"></path><path d="M 39.449,64.918 C 44.986,64.047 44.988,64.003 50.461,62.786" stroke-width="5.521" stroke="black" fill="none" stroke-linecap="round"></path><path d="M 50.461,62.786 C 56.178,61.515 56.164,61.439 61.828,59.942" stroke-width="5.289" stroke="black" fill="none" stroke-linecap="round"></path><path d="M 61.828,59.942 C 65.578,58.951 65.762,59.335 69.288,57.810" stroke-width="5.882" stroke="black" fill="none" stroke-linecap="round"></path><path d="M 69.288,57.810 C 72.334,56.492 75.143,54.342 74.971,54.256" stroke-width="6.917" stroke="black" fill="none" stroke-linecap="round"></path><path d="M 74.971,54.256 C 74.788,54.164 71.723,55.760 68.577,57.455" stroke-width="7.560" stroke="black" fill="none" stroke-linecap="round"></path><path d="M 68.577,57.455 C 64.796,59.491 64.483,59.110 61.117,61.719" stroke-width="6.379" stroke="black" fill="none" stroke-linecap="round"></path><path d="M 61.117,61.719 C 57.378,64.619 57.333,64.764 54.368,68.472" stroke-width="5.935" stroke="black" fill="none" stroke-linecap="round"></path><path d="M 54.368,68.472 C 50.939,72.760 50.990,72.900 48.329,77.713" stroke-width="5.495" stroke="black" fill="none" stroke-linecap="round"></path><path d="M 48.329,77.713 C 46.372,81.253 45.947,81.284 45.132,85.176" stroke-width="5.899" stroke="black" fill="none" stroke-linecap="round"></path><path d="M 45.132,85.176 C 44.348,88.925 44.349,89.271 45.132,92.995" stroke-width="6.800" stroke="black" fill="none" stroke-linecap="round"></path><path d="M 45.132,92.995 C 45.769,96.024 45.879,96.495 47.974,98.682" stroke-width="6.623" stroke="black" fill="none" stroke-linecap="round"></path><path d="M 47.974,98.682 C 49.964,100.760 50.475,100.583 53.302,101.525" stroke-width="6.636" stroke="black" fill="none" stroke-linecap="round"></path><path d="M 53.302,101.525 C 56.337,102.537 56.501,102.727 59.697,102.591" stroke-width="6.551" stroke="black" fill="none" stroke-linecap="round"></path><path d="M 59.697,102.591 C 64.849,102.372 65.178,102.633 69.998,100.815" stroke-width="5.734" stroke="black" fill="none" stroke-linecap="round"></path><path d="M 69.998,100.815 C 76.013,98.546 75.806,97.816 81.365,94.417" stroke-width="5.269" stroke="black" fill="none" stroke-linecap="round"></path><path d="M 81.365,94.417 C 85.397,91.952 85.513,92.042 89.181,89.086" stroke-width="5.618" stroke="black" fill="none" stroke-linecap="round"></path><path d="M 89.181,89.086 C 91.907,86.888 91.936,86.822 94.153,84.110" stroke-width="6.121" stroke="black" fill="none" stroke-linecap="round"></path><path d="M 94.153,84.110 C 96.732,80.957 97.442,81.064 98.772,77.358" stroke-width="6.004" stroke="black" fill="none" stroke-linecap="round"></path><path d="M 98.772,77.358 C 99.928,74.133 100.337,73.351 99.127,70.249" stroke-width="6.238" stroke="black" fill="none" stroke-linecap="round"></path><path d="M 99.127,70.249 C 97.495,66.065 96.713,65.778 93.088,62.786" stroke-width="6.764" stroke="black" fill="none" stroke-linecap="round"></path><path d="M 93.088,62.786 C 89.608,59.914 89.268,59.842 84.918,58.521" stroke-width="6.087" stroke="black" fill="none" stroke-linecap="round"></path><path d="M 84.918,58.521 C 79.321,56.821 79.086,57.124 73.195,56.744" stroke-width="5.609" stroke="black" fill="none" stroke-linecap="round"></path><path d="M 73.195,56.744 C 68.074,56.413 67.956,56.349 62.894,57.099" stroke-width="5.513" stroke="black" fill="none" stroke-linecap="round"></path><path d="M 62.894,57.099 C 58.365,57.771 58.459,58.364 54.013,59.587" stroke-width="5.734" stroke="black" fill="none" stroke-linecap="round"></path><path d="M 54.013,59.587 C 51.354,60.319 47.807,61.360 48.685,61.009" stroke-width="6.438" stroke="black" fill="none" stroke-linecap="round"></path><path d="M 48.685,61.009 C 50.472,60.293 54.148,59.574 59.341,57.455" stroke-width="7.267" stroke="black" fill="none" stroke-linecap="round"></path><path d="M 59.341,57.455 C 67.646,54.065 67.734,54.148 75.682,49.991" stroke-width="4.969" stroke="black" fill="none" stroke-linecap="round"></path><path d="M 75.682,49.991 C 83.364,45.973 83.093,45.465 90.601,41.106" stroke-width="4.500" stroke="black" fill="none" stroke-linecap="round"></path><path d="M 90.601,41.106 C 97.480,37.113 98.021,37.871 104.455,33.287" stroke-width="4.652" stroke="black" fill="none" stroke-linecap="round"></path><path d="M 104.455,33.287 C 109.743,29.519 109.312,28.908 114.046,24.402" stroke-width="4.761" stroke="black" fill="none" stroke-linecap="round"></path><path d="M 114.046,24.402 C 116.594,21.977 116.533,21.914 119.019,19.426" stroke-width="5.781" stroke="black" fill="none" stroke-linecap="round"></path><path d="M 119.019,19.426 C 120.796,17.649 123.243,15.444 122.572,15.872" stroke-width="7.084" stroke="black" fill="none" stroke-linecap="round"></path><path d="M 122.572,15.872 C 121.289,16.688 116.949,17.763 115.112,21.914" stroke-width="7.751" stroke="black" fill="none" stroke-linecap="round"></path><path d="M 115.112,21.914 C 111.443,30.202 112.469,31.244 111.560,40.750" stroke-width="4.898" stroke="black" fill="none" stroke-linecap="round"></path><path d="M 111.560,40.750 C 110.515,51.680 110.835,51.788 111.205,62.786" stroke-width="4.500" stroke="black" fill="none" stroke-linecap="round"></path><path d="M 111.205,62.786 C 111.545,72.934 111.574,72.992 112.981,83.044" stroke-width="4.500" stroke="black" fill="none" stroke-linecap="round"></path><path d="M 112.981,83.044 C 114.061,90.762 114.465,90.711 116.178,98.327" stroke-width="4.535" stroke="black" fill="none" stroke-linecap="round"></path><path d="M 116.178,98.327 C 117.662,104.928 117.549,104.969 119.375,111.477" stroke-width="4.768" stroke="black" fill="none" stroke-linecap="round"></path><path d="M 119.375,111.477 C 120.391,115.098 120.372,115.138 121.861,118.585" stroke-width="5.710" stroke="black" fill="none" stroke-linecap="round"></path><path d="M 121.861,118.585 C 123.213,121.713 123.416,121.630 125.058,124.627" stroke-width="6.188" stroke="black" fill="none" stroke-linecap="round"></path><path d="M 105.166,63.852 C 109.961,61.542 109.833,61.233 114.757,59.232" stroke-width="8.177" stroke="black" fill="none" stroke-linecap="round"></path><path d="M 114.757,59.232 C 121.200,56.613 121.198,56.413 127.900,54.611" stroke-width="5.489" stroke="black" fill="none" stroke-linecap="round"></path><path d="M 127.900,54.611 C 133.098,53.214 133.264,53.894 138.557,52.834" stroke-width="5.499" stroke="black" fill="none" stroke-linecap="round"></path><path d="M 138.557,52.834 C 142.145,52.116 142.165,52.126 145.661,51.057" stroke-width="6.030" stroke="black" fill="none" stroke-linecap="round"></path><path d="M 145.661,51.057 C 148.559,50.171 152.229,48.395 151.345,48.925" stroke-width="7.050" stroke="black" fill="none" stroke-linecap="round"></path><path d="M 151.345,48.925 C 149.564,49.994 145.321,50.862 140.333,54.256" stroke-width="7.433" stroke="black" fill="none" stroke-linecap="round"></path><path d="M 140.333,54.256 C 136.440,56.904 136.666,57.393 133.584,61.009" stroke-width="6.180" stroke="black" fill="none" stroke-linecap="round"></path><path d="M 133.584,61.009 C 131.515,63.435 130.973,63.369 130.032,66.340" stroke-width="6.425" stroke="black" fill="none" stroke-linecap="round"></path><path d="M 130.032,66.340 C 128.664,70.654 128.681,71.022 128.966,75.581" stroke-width="5.987" stroke="black" fill="none" stroke-linecap="round"></path><path d="M 128.966,75.581 C 129.214,79.552 129.411,79.813 131.097,83.399" stroke-width="5.978" stroke="black" fill="none" stroke-linecap="round"></path><path d="M 131.097,83.399 C 132.252,85.855 132.585,85.857 134.649,87.664" stroke-width="6.521" stroke="black" fill="none" stroke-linecap="round"></path><path d="M 134.649,87.664 C 136.848,89.589 136.886,89.880 139.623,90.863" stroke-width="6.696" stroke="black" fill="none" stroke-linecap="round"></path><path d="M 139.623,90.863 C 143.813,92.368 144.020,92.400 148.503,92.640" stroke-width="6.097" stroke="black" fill="none" stroke-linecap="round"></path><path d="M 148.503,92.640 C 153.966,92.933 154.392,93.437 159.515,91.929" stroke-width="5.536" stroke="black" fill="none" stroke-linecap="round"></path><path d="M 159.515,91.929 C 163.450,90.771 163.381,89.994 166.620,87.309" stroke-width="5.932" stroke="black" fill="none" stroke-linecap="round"></path><path d="M 166.620,87.309 C 169.598,84.840 170.331,85.013 171.948,81.622" stroke-width="6.097" stroke="black" fill="none" stroke-linecap="round"></path><path d="M 171.948,81.622 C 174.061,77.194 174.080,76.596 174.080,71.671" stroke-width="5.762" stroke="black" fill="none" stroke-linecap="round"></path><path d="M 174.080,71.671 C 174.080,68.244 173.576,67.984 171.948,64.918" stroke-width="6.088" stroke="black" fill="none" stroke-linecap="round"></path><path d="M 171.948,64.918 C 170.557,62.298 169.986,62.615 168.041,60.298" stroke-width="6.462" stroke="black" fill="none" stroke-linecap="round"></path><path d="M 168.041,60.298 C 166.256,58.173 166.408,58.030 164.489,56.033" stroke-width="6.615" stroke="black" fill="none" stroke-linecap="round"></path><path d="M 164.489,56.033 C 161.968,53.410 161.623,53.726 159.160,51.057" stroke-width="6.467" stroke="black" fill="none" stroke-linecap="round"></path><path d="M 159.160,51.057 C 157.360,49.106 156.968,49.170 155.963,46.792" stroke-width="6.663" stroke="black" fill="none" stroke-linecap="round"></path><path d="M 155.963,46.792 C 155.015,44.550 154.029,43.517 155.252,41.817" stroke-width="7.427" stroke="black" fill="none" stroke-linecap="round"></path><path d="M 155.252,41.817 C 157.226,39.074 158.572,39.108 162.357,37.907" stroke-width="7.253" stroke="black" fill="none" stroke-linecap="round"></path><path d="M 162.357,37.907 C 165.855,36.798 166.166,36.740 169.817,37.197" stroke-width="6.518" stroke="black" fill="none" stroke-linecap="round"></path><path d="M 169.817,37.197 C 174.691,37.806 175.177,37.597 179.408,40.040" stroke-width="5.987" stroke="black" fill="none" stroke-linecap="round"></path><path d="M 179.408,40.040 C 184.413,42.928 184.887,43.179 188.289,47.859" stroke-width="5.394" stroke="black" fill="none" stroke-linecap="round"></path><path d="M 188.289,47.859 C 191.992,52.953 190.894,53.750 193.617,59.587" stroke-width="5.199" stroke="black" fill="none" stroke-linecap="round"></path><path d="M 193.617,59.587 C 195.868,64.412 196.886,64.120 198.235,69.183" stroke-width="5.429" stroke="black" fill="none" stroke-linecap="round"></path><path d="M 198.235,69.183 C 199.727,74.782 198.822,75.043 199.301,80.911" stroke-width="5.350" stroke="black" fill="none" stroke-linecap="round"></path><path d="M 199.301,80.911 C 199.532,83.751 199.471,87.463 199.656,86.598" stroke-width="6.253" stroke="black" fill="none" stroke-linecap="round"></path><path d="M 199.656,86.598 C 200.003,84.976 199.883,81.256 200.366,75.936" stroke-width="7.352" stroke="black" fill="none" stroke-linecap="round"></path><path d="M 200.366,75.936 C 200.949,69.527 200.931,69.519 201.787,63.141" stroke-width="5.520" stroke="black" fill="none" stroke-linecap="round"></path><path d="M 201.787,63.141 C 202.529,57.613 202.044,57.446 203.564,52.124" stroke-width="5.459" stroke="black" fill="none" stroke-linecap="round"></path><path d="M 203.564,52.124 C 204.885,47.494 205.227,47.524 207.471,43.238" stroke-width="5.645" stroke="black" fill="none" stroke-linecap="round"></path><path d="M 207.471,43.238 C 209.134,40.061 208.725,38.932 211.378,37.197" stroke-width="6.762" stroke="black" fill="none" stroke-linecap="round"></path><path d="M 211.378,37.197 C 213.343,35.911 214.414,36.202 216.707,37.197" stroke-width="7.424" stroke="black" fill="none" stroke-linecap="round"></path><path d="M 216.707,37.197 C 219.742,38.512 220.040,38.974 222.035,41.817" stroke-width="6.647" stroke="black" fill="none" stroke-linecap="round"></path><path d="M 222.035,41.817 C 225.902,47.326 225.137,47.911 228.429,53.901" stroke-width="5.392" stroke="black" fill="none" stroke-linecap="round"></path><path d="M 228.429,53.901 C 230.998,58.574 230.983,58.589 233.758,63.141" stroke-width="5.488" stroke="black" fill="none" stroke-linecap="round"></path><path d="M 233.758,63.141 C 235.424,65.875 235.204,66.084 237.310,68.472" stroke-width="6.113" stroke="black" fill="none" stroke-linecap="round"></path><path d="M 237.310,68.472 C 240.532,72.126 240.534,72.290 244.415,75.225" stroke-width="5.824" stroke="black" fill="none" stroke-linecap="round"></path><path d="M 244.415,75.225 C 247.816,77.798 247.913,78.134 251.874,79.490" stroke-width="5.931" stroke="black" fill="none" stroke-linecap="round"></path><path d="M 251.874,79.490 C 254.663,80.444 255.289,80.830 257.913,79.846" stroke-width="6.339" stroke="black" fill="none" stroke-linecap="round"></path><path d="M 257.913,79.846 C 260.973,78.698 260.621,77.584 263.241,75.225" stroke-width="6.428" stroke="black" fill="none" stroke-linecap="round"></path><path d="M 263.241,75.225 C 265.950,72.786 266.136,72.946 268.570,70.249" stroke-width="6.254" stroke="black" fill="none" stroke-linecap="round"></path><path d="M 268.570,70.249 C 271.109,67.437 271.941,67.688 273.188,64.207" stroke-width="6.146" stroke="black" fill="none" stroke-linecap="round"></path><path d="M 273.188,64.207 C 275.315,58.270 275.131,57.828 275.319,51.413" stroke-width="5.378" stroke="black" fill="none" stroke-linecap="round"></path><path d="M 275.319,51.413 C 275.486,45.744 275.057,45.625 273.898,40.040" stroke-width="5.462" stroke="black" fill="none" stroke-linecap="round"></path><path d="M 273.898,40.040 C 273.103,36.206 272.986,36.163 271.412,32.576" stroke-width="5.999" stroke="black" fill="none" stroke-linecap="round"></path><path d="M 271.412,32.576 C 269.789,28.877 269.806,28.772 267.504,25.468" stroke-width="6.064" stroke="black" fill="none" stroke-linecap="round"></path><path d="M 267.504,25.468 C 265.720,22.908 265.976,22.010 263.241,20.848" stroke-width="6.337" stroke="black" fill="none" stroke-linecap="round"></path><path d="M 263.241,20.848 C 258.871,18.989 257.897,18.544 253.295,19.426" stroke-width="6.752" stroke="black" fill="none" stroke-linecap="round"></path><path d="M 253.295,19.426 C 249.549,20.144 249.405,21.186 246.546,24.046" stroke-width="6.174" stroke="black" fill="none" stroke-linecap="round"></path><path d="M 246.546,24.046 C 242.123,28.471 241.268,28.365 238.731,33.998" stroke-width="5.427" stroke="black" fill="none" stroke-linecap="round"></path><path d="M 238.731,33.998 C 235.585,40.982 236.323,41.550 235.178,49.280" stroke-width="4.882" stroke="black" fill="none" stroke-linecap="round"></path><path d="M 235.178,49.280 C 234.192,55.944 234.128,56.096 234.468,62.786" stroke-width="4.973" stroke="black" fill="none" stroke-linecap="round"></path><path d="M 234.468,62.786 C 234.661,66.581 235.061,66.612 236.244,70.249" stroke-width="5.773" stroke="black" fill="none" stroke-linecap="round"></path><path d="M 236.244,70.249 C 237.547,74.254 236.928,75.116 239.441,78.068" stroke-width="5.939" stroke="black" fill="none" stroke-linecap="round"></path><path d="M 239.441,78.068 C 241.013,79.914 242.374,80.941 244.415,79.846" stroke-width="6.559" stroke="black" fill="none" stroke-linecap="round"></path><path d="M 244.415,79.846 C 249.656,77.031 249.709,75.448 254.006,70.249" stroke-width="6.470" stroke="black" fill="none" stroke-linecap="round"></path><path d="M 254.006,70.249 C 257.346,66.208 257.411,66.085 259.689,61.364" stroke-width="5.701" stroke="black" fill="none" stroke-linecap="round"></path><path d="M 259.689,61.364 C 262.384,55.779 261.919,55.534 263.952,49.636" stroke-width="5.425" stroke="black" fill="none" stroke-linecap="round"></path><path d="M 263.952,49.636 C 265.471,45.227 265.350,45.186 266.794,40.750" stroke-width="5.511" stroke="black" fill="none" stroke-linecap="round"></path><path d="M 266.794,40.750 C 267.837,37.544 268.040,37.600 268.925,34.353" stroke-width="6.198" stroke="black" fill="none" stroke-linecap="round"></path><path d="M 268.925,34.353 C 269.639,31.735 269.558,31.704 269.991,29.022" stroke-width="6.553" stroke="black" fill="none" stroke-linecap="round"></path><path d="M 269.991,29.022 C 270.446,26.195 270.482,22.823 270.701,23.335" stroke-width="7.296" stroke="black" fill="none" stroke-linecap="round"></path><path d="M 270.701,23.335 C 271.015,24.067 270.598,27.452 271.057,31.510" stroke-width="7.889" stroke="black" fill="none" stroke-linecap="round"></path><path d="M 271.057,31.510 C 271.663,36.870 271.732,36.884 272.833,42.172" stroke-width="6.051" stroke="black" fill="none" stroke-linecap="round"></path><path d="M 272.833,42.172 C 274.396,49.679 273.975,49.866 276.385,57.099" stroke-width="5.259" stroke="black" fill="none" stroke-linecap="round"></path><path d="M 276.385,57.099 C 277.882,61.595 277.223,63.082 280.648,65.629" stroke-width="5.604" stroke="black" fill="none" stroke-linecap="round"></path><path d="M 280.648,65.629 C 284.150,68.235 285.921,68.846 290.239,67.406" stroke-width="5.595" stroke="black" fill="none" stroke-linecap="round"></path><path d="M 83.852,198.552 C 75.149,199.263 74.950,198.511 66.446,199.973" stroke-width="7.497" stroke="black" fill="none" stroke-linecap="round"></path><path d="M 66.446,199.973 C 63.582,200.466 63.700,201.061 61.117,202.461" stroke-width="6.832" stroke="black" fill="none" stroke-linecap="round"></path><path d="M 61.117,202.461 C 55.175,205.682 55.267,205.857 49.395,209.214" stroke-width="5.648" stroke="black" fill="none" stroke-linecap="round"></path><path d="M 49.395,209.214 C 46.564,210.832 46.296,210.474 43.711,212.413" stroke-width="6.150" stroke="black" fill="none" stroke-linecap="round"></path><path d="M 43.711,212.413 C 41.322,214.205 39.449,214.363 39.449,216.677" stroke-width="7.104" stroke="black" fill="none" stroke-linecap="round"></path><path d="M 39.449,216.677 C 39.449,219.516 41.062,220.230 43.711,222.719" stroke-width="7.329" stroke="black" fill="none" stroke-linecap="round"></path><path d="M 43.711,222.719 C 46.924,225.739 47.428,225.227 51.171,227.695" stroke-width="6.260" stroke="black" fill="none" stroke-linecap="round"></path><path d="M 51.171,227.695 C 55.243,230.380 55.171,230.503 59.341,233.026" stroke-width="5.958" stroke="black" fill="none" stroke-linecap="round"></path><path d="M 59.341,233.026 C 62.808,235.123 62.945,234.893 66.446,236.936" stroke-width="6.052" stroke="black" fill="none" stroke-linecap="round"></path><path d="M 66.446,236.936 C 69.339,238.625 69.600,238.331 72.130,240.490" stroke-width="6.253" stroke="black" fill="none" stroke-linecap="round"></path><path d="M 72.130,240.490 C 75.639,243.484 75.768,243.567 78.524,247.242" stroke-width="6.740" stroke="black" fill="none" stroke-linecap="round"></path><path d="M 78.524,247.242 C 80.031,249.253 80.191,249.407 80.655,251.863" stroke-width="6.931" stroke="black" fill="none" stroke-linecap="round"></path><path d="M 80.655,251.863 C 81.434,255.983 82.581,256.836 81.010,260.393" stroke-width="7.019" stroke="black" fill="none" stroke-linecap="round"></path><path d="M 81.010,260.393 C 79.206,264.477 77.907,264.549 73.906,267.145" stroke-width="6.963" stroke="black" fill="none" stroke-linecap="round"></path><path d="M 73.906,267.145 C 71.336,268.813 70.912,268.136 67.867,268.922" stroke-width="6.754" stroke="black" fill="none" stroke-linecap="round"></path><path d="M 67.867,268.922 C 65.406,269.557 65.410,269.737 62.894,269.989" stroke-width="6.806" stroke="black" fill="none" stroke-linecap="round"></path><path d="M 87.404,192.510 C 90.246,198.729 90.444,198.651 93.088,204.949" stroke-width="7.666" stroke="black" fill="none" stroke-linecap="round"></path><path d="M 93.088,204.949 C 94.174,207.537 94.051,207.591 94.864,210.280" stroke-width="6.933" stroke="black" fill="none" stroke-linecap="round"></path><path d="M 94.864,210.280 C 96.360,215.233 96.576,215.190 97.706,220.232" stroke-width="5.938" stroke="black" fill="none" stroke-linecap="round"></path><path d="M 97.706,220.232 C 98.886,225.497 98.676,225.551 99.482,230.894" stroke-width="5.714" stroke="black" fill="none" stroke-linecap="round"></path><path d="M 99.482,230.894 C 100.097,234.969 100.224,234.967 100.548,239.068" stroke-width="5.870" stroke="black" fill="none" stroke-linecap="round"></path><path d="M 100.548,239.068 C 100.757,241.720 100.636,241.737 100.548,244.399" stroke-width="6.524" stroke="black" fill="none" stroke-linecap="round"></path><path d="M 100.548,244.399 C 100.459,247.068 100.580,247.094 100.192,249.730" stroke-width="6.679" stroke="black" fill="none" stroke-linecap="round"></path><path d="M 100.192,249.730 C 99.692,253.136 99.644,256.801 98.772,256.483" stroke-width="7.196" stroke="black" fill="none" stroke-linecap="round"></path><path d="M 98.772,256.483 C 97.691,256.090 95.934,252.261 96.285,248.309" stroke-width="7.833" stroke="black" fill="none" stroke-linecap="round"></path><path d="M 96.285,248.309 C 96.644,244.265 97.661,243.983 100.192,240.490" stroke-width="7.282" stroke="black" fill="none" stroke-linecap="round"></path><path d="M 100.192,240.490 C 102.812,236.875 102.981,236.697 106.586,234.092" stroke-width="7.160" stroke="black" fill="none" stroke-linecap="round"></path><path d="M 106.586,234.092 C 109.376,232.077 109.654,231.820 112.981,231.249" stroke-width="7.370" stroke="black" fill="none" stroke-linecap="round"></path><path d="M 112.981,231.249 C 115.871,230.754 116.388,230.726 119.019,231.960" stroke-width="7.529" stroke="black" fill="none" stroke-linecap="round"></path><path d="M 119.019,231.960 C 122.072,233.391 122.021,233.973 124.348,236.580" stroke-width="7.449" stroke="black" fill="none" stroke-linecap="round"></path><path d="M 124.348,236.580 C 126.461,238.949 126.305,239.141 127.900,241.911" stroke-width="7.510" stroke="black" fill="none" stroke-linecap="round"></path><path d="M 127.900,241.911 C 129.680,245.005 129.499,245.110 131.097,248.309" stroke-width="7.431" stroke="black" fill="none" stroke-linecap="round"></path><path d="M 131.097,248.309 C 132.518,251.152 131.969,251.596 133.939,253.995" stroke-width="7.485" stroke="black" fill="none" stroke-linecap="round"></path><path d="M 133.939,253.995 C 136.054,256.571 136.375,258.099 139.267,258.260" stroke-width="7.770" stroke="black" fill="none" stroke-linecap="round"></path><path d="M 139.267,258.260 C 142.769,258.455 143.221,256.832 146.727,254.706" stroke-width="7.392" stroke="black" fill="none" stroke-linecap="round"></path><path d="M 146.727,254.706 C 149.082,253.278 148.939,253.017 150.990,251.152" stroke-width="6.956" stroke="black" fill="none" stroke-linecap="round"></path><path d="M 150.990,251.152 C 152.847,249.463 152.803,249.411 154.542,247.598" stroke-width="6.950" stroke="black" fill="none" stroke-linecap="round"></path><path d="M 154.542,247.598 C 157.066,244.968 157.208,245.077 159.515,242.267" stroke-width="7.212" stroke="black" fill="none" stroke-linecap="round"></path><path d="M 159.515,242.267 C 161.293,240.101 162.528,237.647 162.712,237.647" stroke-width="7.805" stroke="black" fill="none" stroke-linecap="round"></path><path d="M 162.712,237.647 C 162.884,237.647 160.833,239.768 160.226,242.267" stroke-width="8.354" stroke="black" fill="none" stroke-linecap="round"></path><path d="M 160.226,242.267 C 159.235,246.343 159.208,246.599 159.515,250.797" stroke-width="7.535" stroke="black" fill="none" stroke-linecap="round"></path><path d="M 159.515,250.797 C 159.741,253.885 159.746,254.229 161.291,256.839" stroke-width="7.525" stroke="black" fill="none" stroke-linecap="round"></path><path d="M 161.291,256.839 C 162.588,259.027 162.783,259.999 165.199,260.393" stroke-width="7.687" stroke="black" fill="none" stroke-linecap="round"></path><path d="M 165.199,260.393 C 170.421,261.243 171.140,260.684 176.566,259.326" stroke-width="6.997" stroke="black" fill="none" stroke-linecap="round"></path><path d="M 176.566,259.326 C 179.666,258.551 179.698,258.091 182.250,256.128" stroke-width="6.645" stroke="black" fill="none" stroke-linecap="round"></path><path d="M 182.250,256.128 C 184.316,254.537 184.210,254.314 185.802,252.218" stroke-width="6.798" stroke="black" fill="none" stroke-linecap="round"></path><path d="M 185.802,252.218 C 187.585,249.871 189.420,247.411 188.999,247.242" stroke-width="7.384" stroke="black" fill="none" stroke-linecap="round"></path><path d="M 188.999,247.242 C 188.532,247.056 184.781,248.823 184.026,251.507" stroke-width="8.208" stroke="black" fill="none" stroke-linecap="round"></path><path d="M 184.026,251.507 C 183.182,254.510 183.780,255.949 185.802,258.616" stroke-width="7.599" stroke="black" fill="none" stroke-linecap="round"></path><path d="M 185.802,258.616 C 187.688,261.103 188.660,261.118 191.841,261.814" stroke-width="7.550" stroke="black" fill="none" stroke-linecap="round"></path><path d="M 191.841,261.814 C 194.343,262.362 194.741,262.126 197.169,261.103" stroke-width="6.962" stroke="black" fill="none" stroke-linecap="round"></path><path d="M 197.169,261.103 C 201.491,259.283 201.762,259.219 205.340,256.128" stroke-width="5.975" stroke="black" fill="none" stroke-linecap="round"></path><path d="M 205.340,256.128 C 209.577,252.466 209.323,252.054 212.799,247.598" stroke-width="5.651" stroke="black" fill="none" stroke-linecap="round"></path><path d="M 212.799,247.598 C 215.007,244.768 215.267,244.816 216.707,241.556" stroke-width="6.106" stroke="black" fill="none" stroke-linecap="round"></path><path d="M 216.707,241.556 C 218.641,237.175 218.557,237.029 219.549,232.315" stroke-width="5.843" stroke="black" fill="none" stroke-linecap="round"></path><path d="M 219.549,232.315 C 220.688,226.899 220.408,226.821 220.969,221.298" stroke-width="5.557" stroke="black" fill="none" stroke-linecap="round"></path><path d="M 220.969,221.298 C 221.474,216.337 221.508,216.328 221.680,211.346" stroke-width="5.637" stroke="black" fill="none" stroke-linecap="round"></path><path d="M 221.680,211.346 C 221.863,206.022 221.893,206.005 221.680,200.684" stroke-width="5.562" stroke="black" fill="none" stroke-linecap="round"></path><path d="M 221.680,200.684 C 221.537,197.119 221.386,197.123 220.969,193.576" stroke-width="6.083" stroke="black" fill="none" stroke-linecap="round"></path><path d="M 220.969,193.576 C 220.676,191.081 220.784,191.052 220.259,188.600" stroke-width="6.599" stroke="black" fill="none" stroke-linecap="round"></path><path d="M 220.259,188.600 C 219.718,186.076 219.822,183.542 218.838,183.624" stroke-width="7.403" stroke="black" fill="none" stroke-linecap="round"></path><path d="M 218.838,183.624 C 217.690,183.720 217.019,186.143 215.996,188.956" stroke-width="7.980" stroke="black" fill="none" stroke-linecap="round"></path><path d="M 215.996,188.956 C 214.887,192.007 215.029,192.114 214.575,195.353" stroke-width="6.880" stroke="black" fill="none" stroke-linecap="round"></path><path d="M 214.575,195.353 C 213.785,200.999 214.150,201.052 213.510,206.726" stroke-width="5.653" stroke="black" fill="none" stroke-linecap="round"></path><path d="M 213.510,206.726 C 212.907,212.069 212.478,212.036 212.089,217.388" stroke-width="5.460" stroke="black" fill="none" stroke-linecap="round"></path><path d="M 212.089,217.388 C 211.768,221.809 211.847,221.843 212.089,226.273" stroke-width="5.844" stroke="black" fill="none" stroke-linecap="round"></path><path d="M 212.089,226.273 C 212.380,231.617 212.504,231.620 213.155,236.936" stroke-width="5.614" stroke="black" fill="none" stroke-linecap="round"></path><path d="M 213.155,236.936 C 213.570,240.327 213.334,240.408 214.220,243.689" stroke-width="6.081" stroke="black" fill="none" stroke-linecap="round"></path><path d="M 214.220,243.689 C 215.110,246.983 214.972,247.168 216.707,250.086" stroke-width="6.231" stroke="black" fill="none" stroke-linecap="round"></path><path d="M 216.707,250.086 C 218.880,253.743 218.677,254.535 222.035,256.839" stroke-width="6.868" stroke="black" fill="none" stroke-linecap="round"></path><path d="M 222.035,256.839 C 224.894,258.800 225.600,258.511 229.140,258.616" stroke-width="7.235" stroke="black" fill="none" stroke-linecap="round"></path><path d="M 229.140,258.616 C 231.639,258.689 232.153,258.726 234.113,257.194" stroke-width="6.926" stroke="black" fill="none" stroke-linecap="round"></path><path d="M 234.113,257.194 C 237.837,254.283 237.757,253.751 240.507,249.730" stroke-width="6.897" stroke="black" fill="none" stroke-linecap="round"></path><path d="M 240.507,249.730 C 242.375,246.999 241.789,243.689 243.349,243.689" stroke-width="7.324" stroke="black" fill="none" stroke-linecap="round"></path><path d="M 243.349,243.689 C 244.986,243.689 245.225,246.655 246.901,249.730" stroke-width="8.096" stroke="black" fill="none" stroke-linecap="round"></path><path d="M 246.901,249.730 C 248.422,252.519 247.335,254.096 249.743,255.417" stroke-width="7.729" stroke="black" fill="none" stroke-linecap="round"></path><path d="M 249.743,255.417 C 252.841,257.117 254.230,256.913 257.913,255.772" stroke-width="7.733" stroke="black" fill="none" stroke-linecap="round"></path><path d="M 257.913,255.772 C 261.690,254.603 261.060,252.883 264.663,250.797" stroke-width="7.335" stroke="black" fill="none" stroke-linecap="round"></path><path d="M 264.663,250.797 C 267.809,248.974 267.858,248.490 271.412,247.953" stroke-width="7.384" stroke="black" fill="none" stroke-linecap="round"></path></svg>