<svg xmlns="http://www.w3.org/2000/svg" xmlns:xlink="http://www.w3.org/1999/xlink" viewBox="0 0 576 416" width="576" height="416"><path d="M 71.815,153.579 C 72.215,166.369 71.817,166.400 72.614,179.160" stroke-width="7.123" stroke="black" fill="none" stroke-linecap="round"></path><path d="M 72.614,179.160 C 73.016,185.586 73.584,185.537 74.212,191.950" stroke-width="5.478" stroke="black" fill="none" stroke-linecap="round"></path><path d="M 74.212,191.950 C 75.581,205.922 75.533,205.931 76.609,219.929" stroke-width="4.500" stroke="black" fill="none" stroke-linecap="round"></path><path d="M 76.609,219.929 C 77.131,226.715 76.984,226.726 77.408,233.519" stroke-width="4.500" stroke="black" fill="none" stroke-linecap="round"></path><path d="M 77.408,233.519 C 78.582,252.307 78.632,252.304 79.805,271.091" stroke-width="4.500" stroke="black" fill="none" stroke-linecap="round"></path><path d="M 79.805,271.091 C 80.230,277.885 80.083,277.896 80.604,284.681" stroke-width="4.500" stroke="black" fill="none" stroke-linecap="round"></path><path d="M 80.604,284.681 C 80.882,288.289 80.955,292.774 81.403,291.876" stroke-width="5.481" stroke="black" fill="none" stroke-linecap="round"></path><path d="M 81.403,291.876 C 82.153,290.375 82.321,285.894 83.001,279.885" stroke-width="6.176" stroke="black" fill="none" stroke-linecap="round"></path><path d="M 83.001,279.885 C 84.718,264.710 84.797,264.714 86.197,249.507" stroke-width="4.500" stroke="black" fill="none" stroke-linecap="round"></path><path d="M 86.197,249.507 C 87.594,234.337 87.700,234.336 88.594,219.130" stroke-width="4.500" stroke="black" fill="none" stroke-linecap="round"></path><path d="M 88.594,219.130 C 89.298,207.156 89.637,207.116 89.393,195.148" stroke-width="4.500" stroke="black" fill="none" stroke-linecap="round"></path><path d="M 89.393,195.148 C 89.238,187.530 88.608,187.552 87.795,179.959" stroke-width="4.500" stroke="black" fill="none" stroke-linecap="round"></path><path d="M 87.795,179.959 C 87.410,176.360 85.650,175.009 86.996,172.764" stroke-width="5.423" stroke="black" fill="none" stroke-linecap="round"></path><path d="M 86.996,172.764 C 88.047,171.012 90.225,173.296 92.589,171.965" stroke-width="7.271" stroke="black" fill="none" stroke-linecap="round"></path><path d="M 92.589,171.965 C 96.617,169.698 96.965,169.410 99.780,165.570" stroke-width="6.132" stroke="black" fill="none" stroke-linecap="round"></path><path d="M 99.780,165.570 C 105.755,157.419 105.445,157.022 110.167,147.983" stroke-width="4.542" stroke="black" fill="none" stroke-linecap="round"></path><path d="M 110.167,147.983 C 114.633,139.435 115.122,139.508 118.157,130.396" stroke-width="4.500" stroke="black" fill="none" stroke-linecap="round"></path><path d="M 118.157,130.396 C 121.114,121.521 120.384,121.247 122.152,112.010" stroke-width="4.500" stroke="black" fill="none" stroke-linecap="round"></path><path d="M 122.152,112.010 C 123.980,102.461 124.064,102.458 125.348,92.824" stroke-width="4.500" stroke="black" fill="none" stroke-linecap="round"></path><path d="M 125.348,92.824 C 126.461,84.471 126.515,84.448 126.946,76.037" stroke-width="4.500" stroke="black" fill="none" stroke-linecap="round"></path><path d="M 126.946,76.037 C 127.314,68.859 127.178,68.833 126.946,61.647" stroke-width="4.814" stroke="black" fill="none" stroke-linecap="round"></path><path d="M 126.946,61.647 C 126.779,56.442 126.395,56.457 126.147,51.255" stroke-width="5.242" stroke="black" fill="none" stroke-linecap="round"></path><path d="M 126.147,51.255 C 125.995,48.063 125.459,43.137 126.147,44.860" stroke-width="6.683" stroke="black" fill="none" stroke-linecap="round"></path><path d="M 126.147,44.860 C 128.655,51.131 129.970,55.902 132.539,67.243" stroke-width="6.322" stroke="black" fill="none" stroke-linecap="round"></path><path d="M 132.539,67.243 C 136.762,85.880 136.676,85.940 139.730,104.815" stroke-width="4.500" stroke="black" fill="none" stroke-linecap="round"></path><path d="M 139.730,104.815 C 143.467,127.909 143.005,127.987 146.122,151.181" stroke-width="4.500" stroke="black" fill="none" stroke-linecap="round"></path><path d="M 146.122,151.181 C 149.398,175.552 149.362,175.557 152.514,199.944" stroke-width="4.500" stroke="black" fill="none" stroke-linecap="round"></path><path d="M 152.514,199.944 C 155.355,221.922 155.286,221.931 158.107,243.911" stroke-width="4.500" stroke="black" fill="none" stroke-linecap="round"></path><path d="M 158.107,243.911 C 160.879,265.499 160.505,265.555 163.700,287.079" stroke-width="4.500" stroke="black" fill="none" stroke-linecap="round"></path><path d="M 163.700,287.079 C 166.498,305.925 166.820,305.879 170.092,324.651" stroke-width="4.500" stroke="black" fill="none" stroke-linecap="round"></path><path d="M 170.092,324.651 C 172.812,340.253 172.132,340.423 175.685,355.828" stroke-width="4.500" stroke="black" fill="none" stroke-linecap="round"></path><path d="M 175.685,355.828 C 178.125,366.404 179.172,366.147 182.077,376.612" stroke-width="4.500" stroke="black" fill="none" stroke-linecap="round"></path><path d="M 182.077,376.612 C 183.167,380.536 182.876,380.609 183.675,384.606" stroke-width="5.001" stroke="black" fill="none" stroke-linecap="round"></path><path d="M 197.258,137.591 C 193.663,144.785 192.805,144.447 190.067,151.980" stroke-width="7.493" stroke="black" fill="none" stroke-linecap="round"></path><path d="M 190.067,151.980 C 184.815,166.430 184.502,166.509 181.278,181.558" stroke-width="4.500" stroke="black" fill="none" stroke-linecap="round"></path><path d="M 181.278,181.558 C 177.311,200.084 177.511,200.251 175.685,219.130" stroke-width="4.500" stroke="black" fill="none" stroke-linecap="round"></path><path d="M 175.685,219.130 C 173.916,237.423 174.306,237.511 174.087,255.902" stroke-width="4.500" stroke="black" fill="none" stroke-linecap="round"></path><path d="M 174.087,255.902 C 173.907,271.086 173.515,271.190 174.886,286.280" stroke-width="4.500" stroke="black" fill="none" stroke-linecap="round"></path><path d="M 174.886,286.280 C 175.912,297.570 176.713,297.508 178.881,308.663" stroke-width="4.500" stroke="black" fill="none" stroke-linecap="round"></path><path d="M 178.881,308.663 C 179.510,311.897 179.035,312.168 180.479,315.058" stroke-width="5.227" stroke="black" fill="none" stroke-linecap="round"></path><path d="M 180.479,315.058 C 182.231,318.563 182.983,322.108 185.273,321.454" stroke-width="5.823" stroke="black" fill="none" stroke-linecap="round"></path><path d="M 185.273,321.454 C 188.576,320.509 189.834,317.216 191.665,311.861" stroke-width="6.357" stroke="black" fill="none" stroke-linecap="round"></path><path d="M 191.665,311.861 C 195.028,302.028 194.144,301.543 195.660,291.076" stroke-width="4.500" stroke="black" fill="none" stroke-linecap="round"></path><path d="M 195.660,291.076 C 198.139,273.963 198.240,273.932 199.655,256.702" stroke-width="4.500" stroke="black" fill="none" stroke-linecap="round"></path><path d="M 199.655,256.702 C 200.637,244.754 200.454,244.710 200.454,232.720" stroke-width="4.500" stroke="black" fill="none" stroke-linecap="round"></path><path d="M 200.454,232.720 C 200.454,221.528 200.094,221.527 199.655,210.336" stroke-width="4.500" stroke="black" fill="none" stroke-linecap="round"></path><path d="M 199.655,210.336 C 199.295,201.142 199.340,201.139 198.856,191.950" stroke-width="4.500" stroke="black" fill="none" stroke-linecap="round"></path><path d="M 198.856,191.950 C 198.541,185.950 198.578,185.943 198.057,179.959" stroke-width="4.851" stroke="black" fill="none" stroke-linecap="round"></path><path d="M 198.057,179.959 C 197.779,176.750 196.494,172.034 197.258,173.564" stroke-width="5.913" stroke="black" fill="none" stroke-linecap="round"></path><path d="M 197.258,173.564 C 199.690,178.429 201.313,183.005 204.449,192.750" stroke-width="6.610" stroke="black" fill="none" stroke-linecap="round"></path><path d="M 204.449,192.750 C 208.904,206.588 208.730,206.664 212.439,220.729" stroke-width="4.500" stroke="black" fill="none" stroke-linecap="round"></path><path d="M 212.439,220.729 C 216.320,235.442 215.739,235.597 219.630,250.307" stroke-width="4.500" stroke="black" fill="none" stroke-linecap="round"></path><path d="M 219.630,250.307 C 222.930,262.776 222.963,262.782 226.822,275.088" stroke-width="4.500" stroke="black" fill="none" stroke-linecap="round"></path><path d="M 226.822,275.088 C 229.355,283.166 228.976,283.402 232.415,291.076" stroke-width="4.500" stroke="black" fill="none" stroke-linecap="round"></path><path d="M 232.415,291.076 C 234.170,294.993 234.160,296.863 237.208,298.271" stroke-width="5.276" stroke="black" fill="none" stroke-linecap="round"></path><path d="M 237.208,298.271 C 239.354,299.262 241.731,298.461 242.802,295.873" stroke-width="6.712" stroke="black" fill="none" stroke-linecap="round"></path><path d="M 242.802,295.873 C 246.525,286.870 245.280,285.554 246.797,275.088" stroke-width="4.560" stroke="black" fill="none" stroke-linecap="round"></path><path d="M 246.797,275.088 C 249.275,257.975 249.451,257.953 250.792,240.714" stroke-width="4.500" stroke="black" fill="none" stroke-linecap="round"></path><path d="M 250.792,240.714 C 252.248,221.980 252.171,221.933 252.390,203.142" stroke-width="4.500" stroke="black" fill="none" stroke-linecap="round"></path><path d="M 252.390,203.142 C 252.571,187.558 252.919,187.467 251.591,171.965" stroke-width="4.500" stroke="black" fill="none" stroke-linecap="round"></path><path d="M 251.591,171.965 C 250.522,159.488 250.284,159.411 247.596,147.184" stroke-width="4.500" stroke="black" fill="none" stroke-linecap="round"></path><path d="M 247.596,147.184 C 245.890,139.425 245.537,139.459 242.802,131.995" stroke-width="4.500" stroke="black" fill="none" stroke-linecap="round"></path><path d="M 242.802,131.995 C 241.143,127.468 241.932,125.847 238.806,123.202" stroke-width="5.155" stroke="black" fill="none" stroke-linecap="round"></path><path d="M 238.806,123.202 C 236.738,121.451 233.739,121.081 232.415,123.202" stroke-width="6.640" stroke="black" fill="none" stroke-linecap="round"></path><path d="M 232.415,123.202 C 229.744,127.477 230.816,129.613 230.816,135.992" stroke-width="6.560" stroke="black" fill="none" stroke-linecap="round"></path><path d="M 230.816,135.992 C 230.816,140.805 230.995,140.970 232.415,145.585" stroke-width="5.855" stroke="black" fill="none" stroke-linecap="round"></path><path d="M 232.415,145.585 C 234.191,151.362 234.169,151.539 237.208,156.776" stroke-width="5.414" stroke="black" fill="none" stroke-linecap="round"></path><path d="M 237.208,156.776 C 241.360,163.930 241.965,163.598 246.797,170.366" stroke-width="4.778" stroke="black" fill="none" stroke-linecap="round"></path><path d="M 246.797,170.366 C 251.952,177.588 252.474,177.252 257.184,184.756" stroke-width="4.509" stroke="black" fill="none" stroke-linecap="round"></path><path d="M 257.184,184.756 C 263.261,194.439 263.587,194.374 268.370,204.741" stroke-width="4.500" stroke="black" fill="none" stroke-linecap="round"></path><path d="M 268.370,204.741 C 273.175,215.158 273.099,215.316 276.360,226.324" stroke-width="4.500" stroke="black" fill="none" stroke-linecap="round"></path><path d="M 276.360,226.324 C 279.491,236.900 278.779,237.111 281.154,247.908" stroke-width="4.500" stroke="black" fill="none" stroke-linecap="round"></path><path d="M 281.154,247.908 C 283.174,257.097 282.700,257.230 285.149,266.295" stroke-width="4.500" stroke="black" fill="none" stroke-linecap="round"></path><path d="M 285.149,266.295 C 286.695,272.019 286.722,272.103 289.144,277.486" stroke-width="4.897" stroke="black" fill="none" stroke-linecap="round"></path><path d="M 289.144,277.486 C 290.318,280.097 290.422,282.091 292.340,282.283" stroke-width="6.046" stroke="black" fill="none" stroke-linecap="round"></path><path d="M 292.340,282.283 C 294.417,282.491 295.057,280.572 297.134,278.286" stroke-width="6.412" stroke="black" fill="none" stroke-linecap="round"></path><path d="M 297.134,278.286 C 299.052,276.175 299.357,276.164 300.330,273.489" stroke-width="6.690" stroke="black" fill="none" stroke-linecap="round"></path><path d="M 300.330,273.489 C 302.553,267.371 302.445,267.184 303.526,260.699" stroke-width="5.356" stroke="black" fill="none" stroke-linecap="round"></path><path d="M 303.526,260.699 C 304.842,252.795 304.565,252.722 305.124,244.711" stroke-width="4.824" stroke="black" fill="none" stroke-linecap="round"></path><path d="M 305.124,244.711 C 305.763,235.535 306.329,235.481 305.923,226.324" stroke-width="4.500" stroke="black" fill="none" stroke-linecap="round"></path><path d="M 305.923,226.324 C 305.530,217.494 304.874,217.508 303.526,208.738" stroke-width="4.500" stroke="black" fill="none" stroke-linecap="round"></path><path d="M 303.526,208.738 C 302.477,201.919 302.341,201.940 301.129,195.148" stroke-width="4.790" stroke="black" fill="none" stroke-linecap="round"></path><path d="M 301.129,195.148 C 300.343,190.749 300.265,190.762 299.531,186.354" stroke-width="5.586" stroke="black" fill="none" stroke-linecap="round"></path><path d="M 299.531,186.354 C 299.066,183.567 298.888,180.133 298.732,180.759" stroke-width="6.291" stroke="black" fill="none" stroke-linecap="round"></path><path d="M 298.732,180.759 C 298.488,181.732 298.095,185.224 298.732,189.552" stroke-width="7.201" stroke="black" fill="none" stroke-linecap="round"></path><path d="M 298.732,189.552 C 300.093,198.813 300.256,198.875 302.727,207.938" stroke-width="4.866" stroke="black" fill="none" stroke-linecap="round"></path><path d="M 302.727,207.938 C 305.050,216.462 305.333,216.401 308.320,224.726" stroke-width="4.537" stroke="black" fill="none" stroke-linecap="round"></path><path d="M 308.320,224.726 C 310.926,231.989 310.848,232.039 313.913,239.115" stroke-width="4.661" stroke="black" fill="none" stroke-linecap="round"></path><path d="M 313.913,239.115 C 316.041,244.030 316.211,243.964 318.707,248.708" stroke-width="5.230" stroke="black" fill="none" stroke-linecap="round"></path><path d="M 318.707,248.708 C 320.206,251.558 319.873,253.898 321.903,254.304" stroke-width="6.075" stroke="black" fill="none" stroke-linecap="round"></path><path d="M 321.903,254.304 C 323.868,254.697 325.651,253.146 326.697,250.307" stroke-width="7.070" stroke="black" fill="none" stroke-linecap="round"></path><path d="M 326.697,250.307 C 331.244,237.958 329.645,237.052 333.089,223.926" stroke-width="4.500" stroke="black" fill="none" stroke-linecap="round"></path><path d="M 333.089,223.926 C 338.034,205.076 338.065,205.077 343.476,186.354" stroke-width="4.500" stroke="black" fill="none" stroke-linecap="round"></path><path d="M 343.476,186.354 C 347.653,171.902 347.715,171.915 352.265,157.576" stroke-width="4.500" stroke="black" fill="none" stroke-linecap="round"></path><path d="M 352.265,157.576 C 355.705,146.734 355.414,146.606 359.456,135.992" stroke-width="4.500" stroke="black" fill="none" stroke-linecap="round"></path><path d="M 359.456,135.992 C 361.806,129.819 362.649,130.137 365.049,124.001" stroke-width="4.517" stroke="black" fill="none" stroke-linecap="round"></path><path d="M 365.049,124.001 C 366.244,120.944 367.646,115.939 366.647,117.606" stroke-width="5.735" stroke="black" fill="none" stroke-linecap="round"></path><path d="M 366.647,117.606 C 362.852,123.933 359.958,128.352 355.461,139.989" stroke-width="6.301" stroke="black" fill="none" stroke-linecap="round"></path><path d="M 355.461,139.989 C 348.373,158.330 348.505,158.526 343.476,177.561" stroke-width="4.500" stroke="black" fill="none" stroke-linecap="round"></path><path d="M 343.476,177.561 C 339.317,193.300 339.247,193.427 337.084,209.537" stroke-width="4.500" stroke="black" fill="none" stroke-linecap="round"></path><path d="M 337.084,209.537 C 335.651,220.207 336.029,220.360 336.285,231.121" stroke-width="4.500" stroke="black" fill="none" stroke-linecap="round"></path><path d="M 336.285,231.121 C 336.428,237.148 335.296,239.748 337.883,243.112" stroke-width="4.656" stroke="black" fill="none" stroke-linecap="round"></path><path d="M 337.883,243.112 C 339.291,244.944 342.718,244.136 344.275,241.513" stroke-width="6.358" stroke="black" fill="none" stroke-linecap="round"></path><path d="M 344.275,241.513 C 350.309,231.346 349.078,229.659 353.064,217.531" stroke-width="4.500" stroke="black" fill="none" stroke-linecap="round"></path><path d="M 353.064,217.531 C 358.667,200.481 358.660,200.455 363.451,183.157" stroke-width="4.500" stroke="black" fill="none" stroke-linecap="round"></path><path d="M 363.451,183.157 C 367.848,167.280 367.500,167.182 371.441,151.181" stroke-width="4.500" stroke="black" fill="none" stroke-linecap="round"></path><path d="M 371.441,151.181 C 374.292,139.603 374.393,139.624 377.034,127.998" stroke-width="4.500" stroke="black" fill="none" stroke-linecap="round"></path><path d="M 377.034,127.998 C 378.388,122.037 379.014,116.215 379.431,116.007" stroke-width="4.542" stroke="black" fill="none" stroke-linecap="round"></path><path d="M 379.431,116.007 C 379.813,115.816 378.968,121.599 378.632,127.198" stroke-width="6.391" stroke="black" fill="none" stroke-linecap="round"></path><path d="M 378.632,127.198 C 377.769,141.584 378.197,141.617 377.034,155.977" stroke-width="4.500" stroke="black" fill="none" stroke-linecap="round"></path><path d="M 377.034,155.977 C 375.800,171.195 375.424,171.164 373.838,186.354" stroke-width="4.500" stroke="black" fill="none" stroke-linecap="round"></path><path d="M 373.838,186.354 C 372.627,197.944 372.215,197.924 371.441,209.537" stroke-width="4.500" stroke="black" fill="none" stroke-linecap="round"></path><path d="M 371.441,209.537 C 371.016,215.910 371.441,215.932 371.441,222.328" stroke-width="4.580" stroke="black" fill="none" stroke-linecap="round"></path><path d="M 371.441,222.328 C 371.441,225.125 370.464,229.528 371.441,227.923" stroke-width="5.921" stroke="black" fill="none" stroke-linecap="round"></path><path d="M 371.441,227.923 C 376.057,220.335 376.829,215.833 382.627,203.941" stroke-width="5.292" stroke="black" fill="none" stroke-linecap="round"></path><path d="M 382.627,203.941 C 392.809,183.058 392.538,182.901 403.401,162.372" stroke-width="4.500" stroke="black" fill="none" stroke-linecap="round"></path><path d="M 403.401,162.372 C 410.515,148.927 410.798,149.064 418.582,135.992" stroke-width="4.500" stroke="black" fill="none" stroke-linecap="round"></path><path d="M 418.582,135.992 C 421.984,130.278 425.254,123.590 425.773,124.800" stroke-width="4.500" stroke="black" fill="none" stroke-linecap="round"></path><path d="M 425.773,124.800 C 426.453,126.388 424.165,133.512 420.979,141.588" stroke-width="5.944" stroke="black" fill="none" stroke-linecap="round"></path><path d="M 420.979,141.588 C 418.173,148.700 417.417,148.401 413.788,155.178" stroke-width="5.035" stroke="black" fill="none" stroke-linecap="round"></path><path d="M 413.788,155.178 C 411.424,159.592 409.222,163.287 408.994,163.971" stroke-width="5.459" stroke="black" fill="none" stroke-linecap="round"></path><path d="M 408.994,163.971 C 408.822,164.486 410.898,160.713 412.989,157.576" stroke-width="6.690" stroke="black" fill="none" stroke-linecap="round"></path><path d="M 412.989,157.576 C 420.486,146.324 419.708,145.664 428.170,135.193" stroke-width="4.500" stroke="black" fill="none" stroke-linecap="round"></path><path d="M 428.170,135.193 C 434.889,126.878 435.123,126.783 443.351,120.004" stroke-width="4.500" stroke="black" fill="none" stroke-linecap="round"></path><path d="M 443.351,120.004 C 448.706,115.591 448.974,115.403 455.336,112.809" stroke-width="4.600" stroke="black" fill="none" stroke-linecap="round"></path><path d="M 455.336,112.809 C 459.760,111.006 460.162,111.210 464.924,111.210" stroke-width="5.334" stroke="black" fill="none" stroke-linecap="round"></path><path d="M 464.924,111.210 C 468.152,111.210 468.151,111.904 471.316,112.809" stroke-width="6.091" stroke="black" fill="none" stroke-linecap="round"></path><path d="M 471.316,112.809 C 473.744,113.503 474.190,115.733 476.110,114.408" stroke-width="6.718" stroke="black" fill="none" stroke-linecap="round"></path><path d="M 476.110,114.408 C 485.775,107.739 486.167,106.385 494.487,96.821" stroke-width="5.483" stroke="black" fill="none" stroke-linecap="round"></path><path d="M 494.487,96.821 C 504.944,84.801 504.033,83.999 513.663,71.240" stroke-width="4.500" stroke="black" fill="none" stroke-linecap="round"></path><path d="M 513.663,71.240 C 518.815,64.414 527.421,54.025 524.050,57.650" stroke-width="4.500" stroke="black" fill="none" stroke-linecap="round"></path><path d="M 524.050,57.650 C 511.441,71.212 503.335,82.052 481.703,105.615" stroke-width="4.500" stroke="black" fill="none" stroke-linecap="round"></path><path d="M 481.703,105.615 C 453.797,136.011 453.433,135.683 424.974,165.570" stroke-width="4.500" stroke="black" fill="none" stroke-linecap="round"></path><path d="M 424.974,165.570 C 397.104,194.838 396.786,194.538 369.044,223.926" stroke-width="4.500" stroke="black" fill="none" stroke-linecap="round"></path><path d="M 369.044,223.926 C 342.454,252.095 343.223,252.837 316.310,280.684" stroke-width="4.500" stroke="black" fill="none" stroke-linecap="round"></path><path d="M 316.310,280.684 C 296.481,301.201 297.017,301.965 275.561,320.654" stroke-width="4.500" stroke="black" fill="none" stroke-linecap="round"></path><path d="M 275.561,320.654 C 263.059,331.543 262.873,332.329 248.395,339.840" stroke-width="4.500" stroke="black" fill="none" stroke-linecap="round"></path><path d="M 248.395,339.840 C 241.300,343.520 239.523,344.593 232.415,343.037" stroke-width="4.500" stroke="black" fill="none" stroke-linecap="round"></path><path d="M 232.415,343.037 C 226.739,341.795 226.037,339.433 222.826,334.244" stroke-width="4.578" stroke="black" fill="none" stroke-linecap="round"></path><path d="M 222.826,334.244 C 220.844,331.040 221.808,330.253 222.027,326.250" stroke-width="5.553" stroke="black" fill="none" stroke-linecap="round"></path><path d="M 222.027,326.250 C 223.406,301.075 222.912,300.940 226.022,275.888" stroke-width="4.500" stroke="black" fill="none" stroke-linecap="round"></path><path d="M 226.022,275.888 C 230.902,236.588 230.713,236.467 238.008,197.546" stroke-width="4.500" stroke="black" fill="none" stroke-linecap="round"></path><path d="M 238.008,197.546 C 243.897,166.120 246.323,166.585 252.390,135.193" stroke-width="4.500" stroke="black" fill="none" stroke-linecap="round"></path><path d="M 252.390,135.193 C 257.909,106.629 257.896,106.536 261.179,77.635" stroke-width="4.500" stroke="black" fill="none" stroke-linecap="round"></path><path d="M 261.179,77.635 C 263.889,53.775 264.135,53.648 264.375,29.671" stroke-width="4.500" stroke="black" fill="none" stroke-linecap="round"></path><path d="M 264.375,29.671 C 264.534,13.678 264.439,13.454 261.978,-2.305" stroke-width="4.500" stroke="black" fill="none" stroke-linecap="round"></path><path d="M 261.978,-2.305 C 260.444,-12.126 260.391,-12.614 256.385,-21.491" stroke-width="4.500" stroke="black" fill="none" stroke-linecap="round"></path><path d="M 256.385,-21.491 C 254.798,-25.005 252.572,-28.594 250.792,-27.086" stroke-width="5.072" stroke="black" fill="none" stroke-linecap="round"></path><path d="M 250.792,-27.086 C 247.378,-24.197 246.249,-20.133 245.998,-12.697" stroke-width="6.248" stroke="black" fill="none" stroke-linecap="round"></path><path d="M 245.998,-12.697 C 245.450,3.449 246.951,3.774 249.194,20.078" stroke-width="4.500" stroke="black" fill="none" stroke-linecap="round"></path><path d="M 249.194,20.078 C 252.943,47.342 253.211,47.324 257.983,74.438" stroke-width="4.500" stroke="black" fill="none" stroke-linecap="round"></path><path d="M 257.983,74.438 C 263.199,104.082 263.097,104.114 269.169,133.594" stroke-width="4.500" stroke="black" fill="none" stroke-linecap="round"></path><path d="M 269.169,133.594 C 276.680,170.064 277.566,169.882 285.149,206.339" stroke-width="4.500" stroke="black" fill="none" stroke-linecap="round"></path><path d="M 285.149,206.339 C 291.948,239.031 291.346,239.154 297.933,271.891" stroke-width="4.500" stroke="black" fill="none" stroke-linecap="round"></path><path d="M 297.933,271.891 C 303.731,300.708 304.276,300.601 309.918,329.448" stroke-width="4.500" stroke="black" fill="none" stroke-linecap="round"></path><path d="M 309.918,329.448 C 315.063,355.759 314.787,355.814 319.506,382.208" stroke-width="4.500" stroke="black" fill="none" stroke-linecap="round"></path><path d="M 319.506,382.208 C 323.576,404.978 322.225,405.304 327.496,427.774" stroke-width="4.500" stroke="black" fill="none" stroke-linecap="round"></path><path d="M 327.496,427.774 C 331.413,444.475 332.689,444.162 337.883,460.550" stroke-width="4.500" stroke="black" fill="none" stroke-linecap="round"></path><circle r="3" cx="300.32958984375" cy="96.8211669921875" fill="black"></circle></svg>