<svg xmlns="http://www.w3.org/2000/svg" xmlns:xlink="http://www.w3.org/1999/xlink" viewBox="0 0 576 416" width="576" height="416"><path d="M 76.609,178.360 C 80.604,174.363 80.709,174.463 84.599,170.366" stroke-width="8.217" stroke="black" fill="none" stroke-linecap="round"></path><path d="M 84.599,170.366 C 88.300,166.469 88.351,166.501 91.790,162.372" stroke-width="6.117" stroke="black" fill="none" stroke-linecap="round"></path><path d="M 91.790,162.372 C 96.341,156.908 96.549,157.027 100.579,151.181" stroke-width="5.210" stroke="black" fill="none" stroke-linecap="round"></path><path d="M 100.579,151.181 C 104.539,145.436 104.215,145.209 107.770,139.190" stroke-width="5.017" stroke="black" fill="none" stroke-linecap="round"></path><path d="M 107.770,139.190 C 109.409,136.415 109.527,136.473 110.966,133.594" stroke-width="5.921" stroke="black" fill="none" stroke-linecap="round"></path><path d="M 110.966,133.594 C 113.522,128.479 113.966,128.588 115.760,123.202" stroke-width="5.531" stroke="black" fill="none" stroke-linecap="round"></path><path d="M 115.760,123.202 C 117.162,118.995 118.945,114.249 117.358,114.408" stroke-width="6.532" stroke="black" fill="none" stroke-linecap="round"></path><path d="M 117.358,114.408 C 114.950,114.649 111.737,118.631 107.770,124.001" stroke-width="6.886" stroke="black" fill="none" stroke-linecap="round"></path><path d="M 107.770,124.001 C 104.946,127.825 105.602,128.328 103.775,132.794" stroke-width="6.041" stroke="black" fill="none" stroke-linecap="round"></path><path d="M 103.775,132.794 C 102.006,137.121 101.441,137.061 100.579,141.588" stroke-width="5.783" stroke="black" fill="none" stroke-linecap="round"></path><path d="M 100.579,141.588 C 99.843,145.455 99.178,146.076 100.579,149.582" stroke-width="5.934" stroke="black" fill="none" stroke-linecap="round"></path><path d="M 100.579,149.582 C 102.374,154.070 103.210,154.209 106.971,157.576" stroke-width="6.590" stroke="black" fill="none" stroke-linecap="round"></path><path d="M 106.971,157.576 C 110.800,161.004 111.232,160.611 115.760,163.172" stroke-width="5.849" stroke="black" fill="none" stroke-linecap="round"></path><path d="M 115.760,163.172 C 120.420,165.807 120.786,165.189 125.348,167.968" stroke-width="5.519" stroke="black" fill="none" stroke-linecap="round"></path><path d="M 125.348,167.968 C 129.974,170.785 130.228,170.658 134.137,174.363" stroke-width="5.499" stroke="black" fill="none" stroke-linecap="round"></path><path d="M 134.137,174.363 C 137.819,177.853 138.025,177.972 140.529,182.357" stroke-width="5.581" stroke="black" fill="none" stroke-linecap="round"></path><path d="M 140.529,182.357 C 142.819,186.366 142.936,186.612 143.725,191.151" stroke-width="5.649" stroke="black" fill="none" stroke-linecap="round"></path><path d="M 143.725,191.151 C 144.534,195.805 144.340,196.029 143.725,200.744" stroke-width="5.633" stroke="black" fill="none" stroke-linecap="round"></path><path d="M 143.725,200.744 C 143.141,205.223 143.269,205.478 141.328,209.537" stroke-width="5.789" stroke="black" fill="none" stroke-linecap="round"></path><path d="M 141.328,209.537 C 138.874,214.671 138.420,214.555 134.936,219.130" stroke-width="5.387" stroke="black" fill="none" stroke-linecap="round"></path><path d="M 134.936,219.130 C 132.028,222.949 132.281,223.466 128.544,226.324" stroke-width="5.634" stroke="black" fill="none" stroke-linecap="round"></path><path d="M 128.544,226.324 C 125.489,228.662 124.958,229.297 121.353,229.522" stroke-width="5.987" stroke="black" fill="none" stroke-linecap="round"></path><path d="M 121.353,229.522 C 118.566,229.696 116.969,229.370 115.760,227.124" stroke-width="7.031" stroke="black" fill="none" stroke-linecap="round"></path><path d="M 115.760,227.124 C 114.173,224.174 115.030,223.029 115.760,219.130" stroke-width="6.369" stroke="black" fill="none" stroke-linecap="round"></path><path d="M 115.760,219.130 C 117.427,210.239 117.954,210.276 120.554,201.543" stroke-width="4.801" stroke="black" fill="none" stroke-linecap="round"></path><path d="M 120.554,201.543 C 123.547,191.490 123.691,191.531 126.946,181.558" stroke-width="4.500" stroke="black" fill="none" stroke-linecap="round"></path><path d="M 126.946,181.558 C 130.083,171.946 130.266,172.004 133.338,162.372" stroke-width="4.500" stroke="black" fill="none" stroke-linecap="round"></path><path d="M 133.338,162.372 C 136.258,153.218 136.320,153.231 138.931,143.986" stroke-width="4.500" stroke="black" fill="none" stroke-linecap="round"></path><path d="M 138.931,143.986 C 141.513,134.845 142.208,134.928 143.725,125.600" stroke-width="4.500" stroke="black" fill="none" stroke-linecap="round"></path><path d="M 143.725,125.600 C 145.004,117.741 144.524,117.601 144.524,109.612" stroke-width="4.500" stroke="black" fill="none" stroke-linecap="round"></path><path d="M 144.524,109.612 C 144.524,104.012 144.679,103.906 143.725,98.420" stroke-width="5.073" stroke="black" fill="none" stroke-linecap="round"></path><path d="M 143.725,98.420 C 143.081,94.712 141.727,89.894 141.328,91.225" stroke-width="5.827" stroke="black" fill="none" stroke-linecap="round"></path><path d="M 141.328,91.225 C 140.529,93.891 139.958,99.042 141.328,106.414" stroke-width="6.985" stroke="black" fill="none" stroke-linecap="round"></path><path d="M 141.328,106.414 C 143.154,116.229 144.640,115.970 147.720,125.600" stroke-width="4.805" stroke="black" fill="none" stroke-linecap="round"></path><path d="M 147.720,125.600 C 151.032,135.955 150.616,136.094 154.112,146.384" stroke-width="4.500" stroke="black" fill="none" stroke-linecap="round"></path><path d="M 154.112,146.384 C 157.407,156.080 158.068,155.858 161.303,165.570" stroke-width="4.500" stroke="black" fill="none" stroke-linecap="round"></path><path d="M 161.303,165.570 C 164.060,173.845 163.611,173.990 166.097,182.357" stroke-width="4.500" stroke="black" fill="none" stroke-linecap="round"></path><path d="M 166.097,182.357 C 168.006,188.779 167.975,188.794 170.092,195.148" stroke-width="4.837" stroke="black" fill="none" stroke-linecap="round"></path><path d="M 170.092,195.148 C 171.171,198.386 171.910,202.557 172.489,201.543" stroke-width="5.846" stroke="black" fill="none" stroke-linecap="round"></path><path d="M 172.489,201.543 C 173.508,199.759 172.845,195.544 173.288,189.552" stroke-width="7.001" stroke="black" fill="none" stroke-linecap="round"></path><path d="M 173.288,189.552 C 173.644,184.752 173.466,184.726 174.087,179.959" stroke-width="6.073" stroke="black" fill="none" stroke-linecap="round"></path><path d="M 174.087,179.959 C 174.664,175.533 174.718,175.523 175.685,171.166" stroke-width="5.950" stroke="black" fill="none" stroke-linecap="round"></path><path d="M 175.685,171.166 C 176.316,168.328 175.349,166.054 177.283,165.570" stroke-width="6.459" stroke="black" fill="none" stroke-linecap="round"></path><path d="M 177.283,165.570 C 180.143,164.854 182.102,166.095 185.273,168.767" stroke-width="7.281" stroke="black" fill="none" stroke-linecap="round"></path><path d="M 185.273,168.767 C 189.692,172.490 188.772,173.640 192.464,178.360" stroke-width="5.753" stroke="black" fill="none" stroke-linecap="round"></path><path d="M 192.464,178.360 C 195.963,182.833 195.888,182.913 199.655,187.154" stroke-width="5.498" stroke="black" fill="none" stroke-linecap="round"></path><path d="M 199.655,187.154 C 202.280,190.107 202.337,190.080 205.248,192.750" stroke-width="5.933" stroke="black" fill="none" stroke-linecap="round"></path><path d="M 205.248,192.750 C 207.131,194.476 207.198,196.118 209.243,195.947" stroke-width="6.647" stroke="black" fill="none" stroke-linecap="round"></path><path d="M 209.243,195.947 C 211.992,195.718 213.192,194.693 214.836,191.950" stroke-width="7.188" stroke="black" fill="none" stroke-linecap="round"></path><path d="M 214.836,191.950 C 216.787,188.698 215.908,187.991 216.434,183.956" stroke-width="6.377" stroke="black" fill="none" stroke-linecap="round"></path><path d="M 216.434,183.956 C 217.107,178.798 217.025,178.767 217.233,173.564" stroke-width="5.797" stroke="black" fill="none" stroke-linecap="round"></path><path d="M 217.233,173.564 C 217.425,168.775 217.025,168.758 217.233,163.971" stroke-width="5.766" stroke="black" fill="none" stroke-linecap="round"></path><path d="M 217.233,163.971 C 217.425,159.565 218.032,155.178 218.032,155.178" stroke-width="6.639" stroke="black" fill="none" stroke-linecap="round"></path><path d="M 218.032,155.178 C 218.032,155.178 216.840,159.644 217.233,163.971" stroke-width="7.330" stroke="black" fill="none" stroke-linecap="round"></path><path d="M 217.233,163.971 C 217.639,168.438 217.853,168.615 219.630,172.764" stroke-width="6.234" stroke="black" fill="none" stroke-linecap="round"></path><path d="M 219.630,172.764 C 221.448,177.009 221.747,176.964 224.425,180.759" stroke-width="6.095" stroke="black" fill="none" stroke-linecap="round"></path><path d="M 224.425,180.759 C 226.541,183.758 226.375,184.221 229.218,186.354" stroke-width="6.053" stroke="black" fill="none" stroke-linecap="round"></path><path d="M 229.218,186.354 C 231.169,187.818 232.164,189.010 234.013,187.953" stroke-width="6.646" stroke="black" fill="none" stroke-linecap="round"></path><path d="M 234.013,187.953 C 237.757,185.812 238.390,184.438 240.405,179.959" stroke-width="6.834" stroke="black" fill="none" stroke-linecap="round"></path><path d="M 240.405,179.959 C 241.986,176.444 241.203,175.965 241.203,171.965" stroke-width="6.312" stroke="black" fill="none" stroke-linecap="round"></path><path d="M 241.203,171.965 C 241.203,167.172 240.883,167.160 240.405,162.372" stroke-width="6.071" stroke="black" fill="none" stroke-linecap="round"></path><path d="M 240.405,162.372 C 240.084,159.166 240.031,159.171 239.605,155.977" stroke-width="6.383" stroke="black" fill="none" stroke-linecap="round"></path><path d="M 239.605,155.977 C 239.232,153.176 238.622,150.197 238.806,150.381" stroke-width="7.262" stroke="black" fill="none" stroke-linecap="round"></path><path d="M 238.806,150.381 C 239.022,150.596 239.188,153.733 240.405,156.776" stroke-width="7.453" stroke="black" fill="none" stroke-linecap="round"></path><path d="M 240.405,156.776 C 242.384,161.727 242.802,161.573 245.199,166.369" stroke-width="5.877" stroke="black" fill="none" stroke-linecap="round"></path><path d="M 245.199,166.369 C 247.596,171.166 247.185,171.424 249.993,175.962" stroke-width="5.526" stroke="black" fill="none" stroke-linecap="round"></path><path d="M 249.993,175.962 C 252.378,179.818 252.316,180.137 255.586,183.157" stroke-width="5.755" stroke="black" fill="none" stroke-linecap="round"></path><path d="M 255.586,183.157 C 257.509,184.933 257.912,185.349 260.380,185.555" stroke-width="6.475" stroke="black" fill="none" stroke-linecap="round"></path><path d="M 260.380,185.555 C 262.706,185.749 263.429,185.508 265.174,183.956" stroke-width="6.852" stroke="black" fill="none" stroke-linecap="round"></path><path d="M 265.174,183.956 C 267.025,182.310 266.641,181.669 267.571,179.160" stroke-width="6.774" stroke="black" fill="none" stroke-linecap="round"></path><path d="M 267.571,179.160 C 270.636,170.878 270.544,170.817 273.164,162.372" stroke-width="6.196" stroke="black" fill="none" stroke-linecap="round"></path><path d="M 273.164,162.372 C 274.139,159.226 273.660,159.063 274.762,155.977" stroke-width="6.396" stroke="black" fill="none" stroke-linecap="round"></path><path d="M 274.762,155.977 C 275.658,153.467 276.612,150.816 277.159,151.181" stroke-width="7.282" stroke="black" fill="none" stroke-linecap="round"></path><path d="M 277.159,151.181 C 277.810,151.615 276.765,154.427 277.159,157.576" stroke-width="7.780" stroke="black" fill="none" stroke-linecap="round"></path><path d="M 277.159,157.576 C 277.564,160.822 276.947,161.709 278.757,163.971" stroke-width="7.583" stroke="black" fill="none" stroke-linecap="round"></path><path d="M 278.757,163.971 C 280.143,165.706 281.476,166.136 283.551,165.570" stroke-width="8.006" stroke="black" fill="none" stroke-linecap="round"></path><path d="M 283.551,165.570 C 285.871,164.937 285.919,163.851 287.546,161.573" stroke-width="7.007" stroke="black" fill="none" stroke-linecap="round"></path><path d="M 287.546,161.573 C 289.914,158.255 290.136,158.193 291.541,154.378" stroke-width="6.319" stroke="black" fill="none" stroke-linecap="round"></path><path d="M 291.541,154.378 C 292.932,150.599 292.714,150.418 293.139,146.384" stroke-width="6.152" stroke="black" fill="none" stroke-linecap="round"></path><path d="M 293.139,146.384 C 293.513,142.824 293.788,142.654 293.139,139.190" stroke-width="6.344" stroke="black" fill="none" stroke-linecap="round"></path><path d="M 293.139,139.190 C 292.589,136.258 289.731,133.305 290.742,133.594" stroke-width="7.195" stroke="black" fill="none" stroke-linecap="round"></path><path d="M 290.742,133.594 C 292.527,134.104 295.339,136.679 298.732,140.788" stroke-width="7.733" stroke="black" fill="none" stroke-linecap="round"></path><path d="M 298.732,140.788 C 302.929,145.872 302.882,146.098 305.923,151.980" stroke-width="5.636" stroke="black" fill="none" stroke-linecap="round"></path><path d="M 305.923,151.980 C 308.874,157.690 308.679,157.856 310.717,163.971" stroke-width="5.160" stroke="black" fill="none" stroke-linecap="round"></path><path d="M 310.717,163.971 C 312.674,169.847 313.100,169.864 313.913,175.962" stroke-width="5.276" stroke="black" fill="none" stroke-linecap="round"></path><path d="M 313.913,175.962 C 314.698,181.855 314.547,182.030 313.913,187.953" stroke-width="5.183" stroke="black" fill="none" stroke-linecap="round"></path><path d="M 313.913,187.953 C 313.348,193.221 313.354,193.379 311.516,198.345" stroke-width="5.502" stroke="black" fill="none" stroke-linecap="round"></path><path d="M 311.516,198.345 C 309.359,204.171 309.065,204.147 305.923,209.537" stroke-width="5.276" stroke="black" fill="none" stroke-linecap="round"></path><path d="M 305.923,209.537 C 303.472,213.740 303.595,214.013 300.330,217.531" stroke-width="5.578" stroke="black" fill="none" stroke-linecap="round"></path><path d="M 300.330,217.531 C 298.401,219.609 296.704,221.730 295.536,220.729" stroke-width="6.332" stroke="black" fill="none" stroke-linecap="round"></path><path d="M 295.536,220.729 C 293.907,219.332 293.812,216.550 294.737,212.735" stroke-width="6.940" stroke="black" fill="none" stroke-linecap="round"></path><path d="M 294.737,212.735 C 297.008,203.360 297.681,203.232 301.928,194.348" stroke-width="4.847" stroke="black" fill="none" stroke-linecap="round"></path><path d="M 301.928,194.348 C 306.470,184.846 306.856,184.994 312.315,175.962" stroke-width="4.500" stroke="black" fill="none" stroke-linecap="round"></path><path d="M 312.315,175.962 C 317.243,167.807 317.314,167.834 322.702,159.974" stroke-width="4.500" stroke="black" fill="none" stroke-linecap="round"></path><path d="M 322.702,159.974 C 326.902,153.845 327.032,153.930 331.491,147.983" stroke-width="4.618" stroke="black" fill="none" stroke-linecap="round"></path><path d="M 331.491,147.983 C 334.223,144.338 336.316,144.372 337.084,140.788" stroke-width="5.422" stroke="black" fill="none" stroke-linecap="round"></path><path d="M 337.084,140.788 C 337.515,138.776 336.036,136.926 333.888,136.791" stroke-width="6.888" stroke="black" fill="none" stroke-linecap="round"></path><path d="M 333.888,136.791 C 329.644,136.526 329.065,138.306 324.300,139.989" stroke-width="5.968" stroke="black" fill="none" stroke-linecap="round"></path><path d="M 324.300,139.989 C 308.690,145.501 308.659,145.423 293.139,151.181" stroke-width="4.500" stroke="black" fill="none" stroke-linecap="round"></path><path d="M 293.139,151.181 C 273.104,158.613 273.138,158.708 253.189,166.369" stroke-width="4.500" stroke="black" fill="none" stroke-linecap="round"></path><path d="M 253.189,166.369 C 233.587,173.897 233.311,173.264 214.037,181.558" stroke-width="4.500" stroke="black" fill="none" stroke-linecap="round"></path><path d="M 214.037,181.558 C 196.157,189.252 196.299,189.632 178.881,198.345" stroke-width="4.500" stroke="black" fill="none" stroke-linecap="round"></path><path d="M 178.881,198.345 C 163.540,206.020 163.815,206.567 148.519,214.333" stroke-width="4.500" stroke="black" fill="none" stroke-linecap="round"></path><path d="M 148.519,214.333 C 137.049,220.157 137.164,220.495 125.348,225.525" stroke-width="4.500" stroke="black" fill="none" stroke-linecap="round"></path><path d="M 125.348,225.525 C 118.387,228.489 118.256,228.358 110.966,230.322" stroke-width="4.500" stroke="black" fill="none" stroke-linecap="round"></path><path d="M 110.966,230.322 C 107.869,231.156 106.084,232.631 104.574,231.121" stroke-width="5.563" stroke="black" fill="none" stroke-linecap="round"></path><path d="M 104.574,231.121 C 102.888,229.434 103.359,227.209 104.574,223.926" stroke-width="6.771" stroke="black" fill="none" stroke-linecap="round"></path><path d="M 104.574,223.926 C 107.354,216.417 108.401,216.634 112.564,209.537" stroke-width="5.066" stroke="black" fill="none" stroke-linecap="round"></path><path d="M 112.564,209.537 C 119.187,198.248 119.386,198.364 126.147,187.154" stroke-width="4.500" stroke="black" fill="none" stroke-linecap="round"></path><path d="M 126.147,187.154 C 133.369,175.181 133.216,175.088 140.529,163.172" stroke-width="4.500" stroke="black" fill="none" stroke-linecap="round"></path><path d="M 140.529,163.172 C 147.199,152.305 147.588,152.538 154.112,141.588" stroke-width="4.500" stroke="black" fill="none" stroke-linecap="round"></path><path d="M 154.112,141.588 C 159.972,131.754 159.446,131.439 165.298,121.603" stroke-width="4.500" stroke="black" fill="none" stroke-linecap="round"></path><path d="M 165.298,121.603 C 169.434,114.652 169.661,114.787 174.087,108.013" stroke-width="4.500" stroke="black" fill="none" stroke-linecap="round"></path><path d="M 174.087,108.013 C 176.452,104.394 176.575,100.626 178.881,100.818" stroke-width="5.353" stroke="black" fill="none" stroke-linecap="round"></path><path d="M 178.881,100.818 C 181.369,101.026 182.678,104.392 183.675,108.812" stroke-width="6.755" stroke="black" fill="none" stroke-linecap="round"></path><path d="M 183.675,108.812 C 185.474,116.782 183.335,117.297 184.474,125.600" stroke-width="5.023" stroke="black" fill="none" stroke-linecap="round"></path><path d="M 184.474,125.600 C 186.132,137.682 186.403,137.704 189.268,149.582" stroke-width="4.500" stroke="black" fill="none" stroke-linecap="round"></path><path d="M 189.268,149.582 C 191.996,160.887 191.815,161.000 195.660,171.965" stroke-width="4.500" stroke="black" fill="none" stroke-linecap="round"></path><path d="M 195.660,171.965 C 199.805,183.783 200.310,183.619 205.248,195.148" stroke-width="4.500" stroke="black" fill="none" stroke-linecap="round"></path><path d="M 205.248,195.148 C 207.501,200.407 207.046,200.682 210.042,205.540" stroke-width="4.742" stroke="black" fill="none" stroke-linecap="round"></path><path d="M 210.042,205.540 C 218.632,219.468 219.211,219.143 228.419,232.720" stroke-width="4.500" stroke="black" fill="none" stroke-linecap="round"></path></svg>