<svg xmlns="http://www.w3.org/2000/svg" xmlns:xlink="http://www.w3.org/1999/xlink" viewBox="0 0 576 416" width="576" height="416"><path d="M 17.483,43.236 C 19.880,38.439 19.623,38.290 22.277,33.643" stroke-width="8.698" stroke="black" fill="none" stroke-linecap="round"></path><path d="M 22.277,33.643 C 24.417,29.896 24.580,29.979 27.071,26.448" stroke-width="7.573" stroke="black" fill="none" stroke-linecap="round"></path><path d="M 27.071,26.448 C 29.374,23.184 29.398,23.195 31.865,20.053" stroke-width="7.399" stroke="black" fill="none" stroke-linecap="round"></path><path d="M 31.865,20.053 C 33.792,17.599 34.417,14.715 35.860,15.256" stroke-width="7.786" stroke="black" fill="none" stroke-linecap="round"></path><path d="M 35.860,15.256 C 37.613,15.914 37.584,18.748 38.257,22.451" stroke-width="8.307" stroke="black" fill="none" stroke-linecap="round"></path><path d="M 38.257,22.451 C 39.182,27.541 38.796,27.642 39.056,32.843" stroke-width="7.260" stroke="black" fill="none" stroke-linecap="round"></path><path d="M 39.056,32.843 C 39.196,35.636 39.196,35.647 39.056,38.439" stroke-width="6.979" stroke="black" fill="none" stroke-linecap="round"></path><path d="M 39.056,38.439 C 38.796,43.641 38.465,43.628 38.257,48.831" stroke-width="6.915" stroke="black" fill="none" stroke-linecap="round"></path><path d="M 38.257,48.831 C 38.066,53.620 38.689,53.670 38.257,58.424" stroke-width="6.988" stroke="black" fill="none" stroke-linecap="round"></path><path d="M 38.257,58.424 C 37.890,62.464 37.592,62.454 36.659,66.418" stroke-width="7.176" stroke="black" fill="none" stroke-linecap="round"></path><path d="M 36.659,66.418 C 35.994,69.248 36.603,69.700 35.061,72.014" stroke-width="7.502" stroke="black" fill="none" stroke-linecap="round"></path><path d="M 35.061,72.014 C 33.407,74.496 32.846,74.291 30.267,76.011" stroke-width="7.868" stroke="black" fill="none" stroke-linecap="round"></path><path d="M 30.267,76.011 C 28.052,77.488 27.941,77.381 25.473,78.409" stroke-width="8.048" stroke="black" fill="none" stroke-linecap="round"></path><path d="M 25.473,78.409 C 23.147,79.379 20.062,79.545 20.679,80.008" stroke-width="8.356" stroke="black" fill="none" stroke-linecap="round"></path><path d="M 20.679,80.008 C 21.660,80.744 24.665,80.585 28.669,80.807" stroke-width="8.455" stroke="black" fill="none" stroke-linecap="round"></path><path d="M 28.669,80.807 C 31.856,80.985 31.876,80.995 35.061,80.807" stroke-width="7.845" stroke="black" fill="none" stroke-linecap="round"></path><path d="M 35.061,80.807 C 38.667,80.595 38.647,80.233 42.252,80.008" stroke-width="7.857" stroke="black" fill="none" stroke-linecap="round"></path><path d="M 42.252,80.008 C 45.039,79.834 45.104,80.400 47.845,80.008" stroke-width="8.179" stroke="black" fill="none" stroke-linecap="round"></path><path d="M 70.217,20.053 C 70.217,26.448 69.940,26.468 70.217,32.843" stroke-width="8.506" stroke="black" fill="none" stroke-linecap="round"></path><path d="M 70.217,32.843 C 70.340,35.661 70.860,35.624 71.016,38.439" stroke-width="7.199" stroke="black" fill="none" stroke-linecap="round"></path><path d="M 71.016,38.439 C 71.259,42.819 70.786,42.850 71.016,47.233" stroke-width="7.165" stroke="black" fill="none" stroke-linecap="round"></path><path d="M 71.016,47.233 C 71.185,50.444 71.615,50.418 71.815,53.628" stroke-width="7.390" stroke="black" fill="none" stroke-linecap="round"></path><path d="M 71.815,53.628 C 72.014,56.813 71.948,61.087 71.815,60.023" stroke-width="7.519" stroke="black" fill="none" stroke-linecap="round"></path><path d="M 74.212,22.451 C 78.207,27.247 78.142,27.304 82.202,32.044" stroke-width="8.572" stroke="black" fill="none" stroke-linecap="round"></path><path d="M 82.202,32.044 C 85.333,35.698 85.102,35.963 88.594,39.238" stroke-width="7.419" stroke="black" fill="none" stroke-linecap="round"></path><path d="M 88.594,39.238 C 91.494,41.958 91.737,41.713 94.986,44.035" stroke-width="7.297" stroke="black" fill="none" stroke-linecap="round"></path><path d="M 121.353,24.849 C 117.358,28.846 117.481,28.981 113.363,32.843" stroke-width="8.522" stroke="black" fill="none" stroke-linecap="round"></path><path d="M 113.363,32.843 C 111.089,34.976 110.876,34.743 108.569,36.840" stroke-width="7.065" stroke="black" fill="none" stroke-linecap="round"></path><path d="M 108.569,36.840 C 106.481,38.740 106.671,38.949 104.574,40.837" stroke-width="6.845" stroke="black" fill="none" stroke-linecap="round"></path><path d="M 104.574,40.837 C 102.676,42.547 102.544,42.397 100.579,44.035" stroke-width="6.958" stroke="black" fill="none" stroke-linecap="round"></path><path d="M 100.579,44.035 C 97.750,46.394 94.245,49.425 94.986,48.831" stroke-width="7.233" stroke="black" fill="none" stroke-linecap="round"></path><path d="M 120.554,28.047 C 120.954,32.843 121.145,32.835 121.353,37.640" stroke-width="8.719" stroke="black" fill="none" stroke-linecap="round"></path><path d="M 121.353,37.640 C 121.544,42.028 121.110,42.054 121.353,46.433" stroke-width="7.558" stroke="black" fill="none" stroke-linecap="round"></path><path d="M 121.353,46.433 C 121.510,49.248 122.004,49.213 122.152,52.029" stroke-width="6.977" stroke="black" fill="none" stroke-linecap="round"></path><path d="M 122.152,52.029 C 122.404,56.808 122.152,56.825 122.152,61.622" stroke-width="7.067" stroke="black" fill="none" stroke-linecap="round"></path><path d="M 122.152,61.622 C 122.152,66.018 122.152,66.018 122.152,70.415" stroke-width="7.095" stroke="black" fill="none" stroke-linecap="round"></path><path d="M 122.152,70.415 C 122.152,73.613 122.152,78.113 122.152,76.810" stroke-width="7.667" stroke="black" fill="none" stroke-linecap="round"></path><path d="M 141.328,29.646 C 141.328,34.842 141.328,34.842 141.328,40.038" stroke-width="8.717" stroke="black" fill="none" stroke-linecap="round"></path><path d="M 141.328,40.038 C 141.328,44.834 141.328,44.834 141.328,49.631" stroke-width="7.455" stroke="black" fill="none" stroke-linecap="round"></path><path d="M 141.328,49.631 C 141.328,54.027 141.328,54.027 141.328,58.424" stroke-width="7.270" stroke="black" fill="none" stroke-linecap="round"></path><path d="M 141.328,58.424 C 141.328,61.622 141.328,61.622 141.328,64.819" stroke-width="7.481" stroke="black" fill="none" stroke-linecap="round"></path><path d="M 141.328,64.819 C 141.328,68.017 139.819,70.460 141.328,71.215" stroke-width="7.973" stroke="black" fill="none" stroke-linecap="round"></path><path d="M 141.328,71.215 C 143.015,72.058 144.325,68.772 147.720,68.017" stroke-width="8.428" stroke="black" fill="none" stroke-linecap="round"></path><path d="M 147.720,68.017 C 151.516,67.173 151.715,68.017 155.710,68.017" stroke-width="7.979" stroke="black" fill="none" stroke-linecap="round"></path><path d="M 155.710,68.017 C 158.507,68.017 158.521,68.216 161.303,68.017" stroke-width="7.802" stroke="black" fill="none" stroke-linecap="round"></path><path d="M 161.303,68.017 C 164.114,67.816 164.100,67.617 166.896,67.218" stroke-width="7.999" stroke="black" fill="none" stroke-linecap="round"></path><path d="M 186.871,37.640 C 192.464,37.240 192.459,37.084 198.057,36.840" stroke-width="8.648" stroke="black" fill="none" stroke-linecap="round"></path><path d="M 188.469,58.424 C 193.263,58.424 193.263,58.424 198.057,58.424" stroke-width="8.669" stroke="black" fill="none" stroke-linecap="round"></path><path d="M 198.057,58.424 C 201.253,58.424 201.253,58.424 204.449,58.424" stroke-width="7.874" stroke="black" fill="none" stroke-linecap="round"></path><path d="M 231.615,17.655 C 231.615,23.650 231.615,23.650 231.615,29.646" stroke-width="8.458" stroke="black" fill="none" stroke-linecap="round"></path><path d="M 231.615,29.646 C 231.615,32.444 231.615,32.444 231.615,35.241" stroke-width="7.202" stroke="black" fill="none" stroke-linecap="round"></path><path d="M 231.615,35.241 C 231.615,38.039 231.615,38.039 231.615,40.837" stroke-width="6.895" stroke="black" fill="none" stroke-linecap="round"></path><path d="M 231.615,40.837 C 231.615,44.435 231.615,44.435 231.615,48.032" stroke-width="6.563" stroke="black" fill="none" stroke-linecap="round"></path><path d="M 231.615,48.032 C 231.615,51.230 231.615,51.230 231.615,54.427" stroke-width="7.192" stroke="black" fill="none" stroke-linecap="round"></path><path d="M 231.615,54.427 C 231.615,57.625 231.615,57.625 231.615,60.822" stroke-width="6.641" stroke="black" fill="none" stroke-linecap="round"></path><path d="M 231.615,60.822 C 231.615,63.620 231.615,63.620 231.615,66.418" stroke-width="6.660" stroke="black" fill="none" stroke-linecap="round"></path><path d="M 231.615,66.418 C 231.615,69.216 231.615,69.216 231.615,72.014" stroke-width="6.737" stroke="black" fill="none" stroke-linecap="round"></path><path d="M 252.390,36.041 C 255.586,32.843 255.226,32.366 258.782,29.646" stroke-width="8.651" stroke="black" fill="none" stroke-linecap="round"></path><path d="M 258.782,29.646 C 262.017,27.170 262.179,27.125 265.973,25.649" stroke-width="7.649" stroke="black" fill="none" stroke-linecap="round"></path><path d="M 265.973,25.649 C 269.370,24.327 270.250,23.153 273.164,24.050" stroke-width="7.443" stroke="black" fill="none" stroke-linecap="round"></path><path d="M 273.164,24.050 C 275.443,24.752 276.502,26.279 276.360,28.846" stroke-width="8.156" stroke="black" fill="none" stroke-linecap="round"></path><path d="M 276.360,28.846 C 276.103,33.474 274.677,33.811 272.365,38.439" stroke-width="7.299" stroke="black" fill="none" stroke-linecap="round"></path><path d="M 272.365,38.439 C 271.082,41.006 270.808,40.866 269.169,43.236" stroke-width="6.885" stroke="black" fill="none" stroke-linecap="round"></path><path d="M 269.169,43.236 C 267.213,46.062 267.267,46.108 265.174,48.831" stroke-width="6.620" stroke="black" fill="none" stroke-linecap="round"></path><path d="M 265.174,48.831 C 263.272,51.304 263.176,51.230 261.179,53.628" stroke-width="6.594" stroke="black" fill="none" stroke-linecap="round"></path><path d="M 261.179,53.628 C 259.181,56.026 259.159,56.008 257.184,58.424" stroke-width="6.510" stroke="black" fill="none" stroke-linecap="round"></path><path d="M 257.184,58.424 C 255.564,60.405 255.640,60.468 253.988,62.421" stroke-width="6.850" stroke="black" fill="none" stroke-linecap="round"></path><path d="M 253.988,62.421 C 251.245,65.664 251.137,65.574 248.395,68.816" stroke-width="7.092" stroke="black" fill="none" stroke-linecap="round"></path><path d="M 248.395,68.816 C 246.743,70.770 244.823,72.625 245.199,72.813" stroke-width="7.820" stroke="black" fill="none" stroke-linecap="round"></path><path d="M 245.199,72.813 C 245.622,73.025 247.509,71.065 249.993,69.616" stroke-width="8.296" stroke="black" fill="none" stroke-linecap="round"></path><path d="M 249.993,69.616 C 252.303,68.267 252.246,67.944 254.787,67.218" stroke-width="7.924" stroke="black" fill="none" stroke-linecap="round"></path><path d="M 254.787,67.218 C 257.839,66.345 257.971,66.632 261.179,66.418" stroke-width="7.971" stroke="black" fill="none" stroke-linecap="round"></path><path d="M 261.179,66.418 C 263.963,66.232 263.975,66.418 266.772,66.418" stroke-width="8.209" stroke="black" fill="none" stroke-linecap="round"></path><path d="M 266.772,66.418 C 269.968,66.418 270.040,66.865 273.164,66.418" stroke-width="8.221" stroke="black" fill="none" stroke-linecap="round"></path><path d="M 273.164,66.418 C 275.633,66.065 275.992,66.250 277.958,64.819" stroke-width="8.208" stroke="black" fill="none" stroke-linecap="round"></path><path d="M 303.526,29.646 C 302.727,34.442 302.584,34.423 301.928,39.238" stroke-width="8.690" stroke="black" fill="none" stroke-linecap="round"></path><path d="M 301.928,39.238 C 301.385,43.216 301.319,43.225 301.129,47.233" stroke-width="7.620" stroke="black" fill="none" stroke-linecap="round"></path><path d="M 301.129,47.233 C 300.920,51.619 301.337,51.640 301.129,56.026" stroke-width="7.285" stroke="black" fill="none" stroke-linecap="round"></path><path d="M 301.129,56.026 C 300.938,60.033 300.330,65.442 300.330,64.020" stroke-width="7.281" stroke="black" fill="none" stroke-linecap="round"></path><path d="M 333.089,26.448 C 332.290,31.644 332.473,31.681 331.491,36.840" stroke-width="8.635" stroke="black" fill="none" stroke-linecap="round"></path><path d="M 331.491,36.840 C 330.875,40.075 330.275,39.987 329.893,43.236" stroke-width="7.837" stroke="black" fill="none" stroke-linecap="round"></path><path d="M 329.893,43.236 C 329.476,46.782 329.893,46.833 329.893,50.430" stroke-width="7.518" stroke="black" fill="none" stroke-linecap="round"></path><path d="M 329.893,50.430 C 329.893,53.628 329.893,57.976 329.893,56.825" stroke-width="7.605" stroke="black" fill="none" stroke-linecap="round"></path><path d="M 325.099,33.643 C 330.692,31.644 330.554,31.022 336.285,29.646" stroke-width="8.443" stroke="black" fill="none" stroke-linecap="round"></path><path d="M 336.285,29.646 C 340.542,28.623 340.689,29.334 345.074,28.846" stroke-width="7.523" stroke="black" fill="none" stroke-linecap="round"></path><path d="M 345.074,28.846 C 347.880,28.534 350.501,26.888 350.667,28.047" stroke-width="7.658" stroke="black" fill="none" stroke-linecap="round"></path><path d="M 350.667,28.047 C 350.901,29.686 348.658,31.655 345.873,34.442" stroke-width="8.179" stroke="black" fill="none" stroke-linecap="round"></path><path d="M 345.873,34.442 C 343.864,36.451 343.531,36.130 341.079,37.640" stroke-width="7.244" stroke="black" fill="none" stroke-linecap="round"></path><path d="M 341.079,37.640 C 338.337,39.328 335.113,39.718 335.486,40.837" stroke-width="7.751" stroke="black" fill="none" stroke-linecap="round"></path><path d="M 335.486,40.837 C 335.912,42.117 339.033,42.072 342.677,42.436" stroke-width="8.247" stroke="black" fill="none" stroke-linecap="round"></path><path d="M 342.677,42.436 C 347.023,42.871 347.088,42.193 351.466,42.436" stroke-width="7.415" stroke="black" fill="none" stroke-linecap="round"></path><path d="M 351.466,42.436 C 354.279,42.592 354.273,42.771 357.059,43.236" stroke-width="6.940" stroke="black" fill="none" stroke-linecap="round"></path><path d="M 357.059,43.236 C 361.464,43.970 361.670,43.441 365.848,44.834" stroke-width="7.070" stroke="black" fill="none" stroke-linecap="round"></path><path d="M 365.848,44.834 C 368.861,45.839 369.121,45.922 371.441,48.032" stroke-width="7.410" stroke="black" fill="none" stroke-linecap="round"></path><path d="M 371.441,48.032 C 373.516,49.919 375.163,50.723 374.637,52.828" stroke-width="7.871" stroke="black" fill="none" stroke-linecap="round"></path><path d="M 374.637,52.828 C 373.964,55.520 372.124,55.728 369.044,57.625" stroke-width="7.866" stroke="black" fill="none" stroke-linecap="round"></path><path d="M 369.044,57.625 C 366.931,58.926 366.647,58.424 364.250,59.224" stroke-width="7.192" stroke="black" fill="none" stroke-linecap="round"></path><path d="M 364.250,59.224 C 361.853,60.023 361.883,60.128 359.456,60.822" stroke-width="7.012" stroke="black" fill="none" stroke-linecap="round"></path><path d="M 359.456,60.822 C 356.290,61.727 356.260,61.622 353.064,62.421" stroke-width="6.635" stroke="black" fill="none" stroke-linecap="round"></path><path d="M 353.064,62.421 C 349.868,63.221 349.898,63.374 346.672,64.020" stroke-width="6.602" stroke="black" fill="none" stroke-linecap="round"></path><path d="M 346.672,64.020 C 343.905,64.574 343.875,64.420 341.079,64.819" stroke-width="6.938" stroke="black" fill="none" stroke-linecap="round"></path><path d="M 341.079,64.819 C 338.282,65.219 338.260,65.098 335.486,65.619" stroke-width="6.735" stroke="black" fill="none" stroke-linecap="round"></path><path d="M 335.486,65.619 C 331.868,66.297 331.931,66.790 328.295,67.218" stroke-width="7.131" stroke="black" fill="none" stroke-linecap="round"></path><path d="M 385.024,24.849 C 384.624,30.445 384.440,30.438 384.225,36.041" stroke-width="8.525" stroke="black" fill="none" stroke-linecap="round"></path><path d="M 384.225,36.041 C 384.041,40.831 384.225,40.837 384.225,45.634" stroke-width="7.412" stroke="black" fill="none" stroke-linecap="round"></path><path d="M 381.029,25.649 C 387.021,25.249 387.036,24.849 393.014,24.849" stroke-width="8.543" stroke="black" fill="none" stroke-linecap="round"></path><path d="M 393.014,24.849 C 395.825,24.849 395.942,24.828 398.607,25.649" stroke-width="7.124" stroke="black" fill="none" stroke-linecap="round"></path><path d="M 398.607,25.649 C 401.135,26.427 400.933,27.018 403.401,28.047" stroke-width="6.991" stroke="black" fill="none" stroke-linecap="round"></path><path d="M 403.401,28.047 C 405.727,29.017 405.798,28.846 408.195,29.646" stroke-width="6.953" stroke="black" fill="none" stroke-linecap="round"></path><path d="M 408.195,29.646 C 410.592,30.445 410.709,30.180 412.989,31.244" stroke-width="6.873" stroke="black" fill="none" stroke-linecap="round"></path><path d="M 412.989,31.244 C 416.701,32.978 417.133,32.629 420.180,35.241" stroke-width="7.421" stroke="black" fill="none" stroke-linecap="round"></path><path d="M 420.180,35.241 C 422.726,37.425 423.751,37.869 424.175,40.837" stroke-width="7.440" stroke="black" fill="none" stroke-linecap="round"></path><path d="M 424.175,40.837 C 424.550,43.465 423.941,44.578 421.778,46.433" stroke-width="7.975" stroke="black" fill="none" stroke-linecap="round"></path><path d="M 421.778,46.433 C 418.348,49.375 417.447,48.593 412.989,50.430" stroke-width="7.274" stroke="black" fill="none" stroke-linecap="round"></path><path d="M 412.989,50.430 C 410.655,51.391 410.671,51.616 408.195,52.029" stroke-width="7.035" stroke="black" fill="none" stroke-linecap="round"></path><path d="M 408.195,52.029 C 403.480,52.815 403.399,52.411 398.607,52.828" stroke-width="7.021" stroke="black" fill="none" stroke-linecap="round"></path><path d="M 398.607,52.828 C 394.211,53.211 394.164,52.941 389.818,53.628" stroke-width="7.077" stroke="black" fill="none" stroke-linecap="round"></path><path d="M 60.629,225.499 C 65.024,223.901 64.889,223.287 69.418,222.302" stroke-width="8.578" stroke="black" fill="none" stroke-linecap="round"></path><path d="M 69.418,222.302 C 74.078,221.288 74.206,221.743 79.006,221.502" stroke-width="7.421" stroke="black" fill="none" stroke-linecap="round"></path><path d="M 79.006,221.502 C 82.196,221.343 82.416,220.548 85.398,221.502" stroke-width="6.857" stroke="black" fill="none" stroke-linecap="round"></path><path d="M 85.398,221.502 C 92.403,223.745 92.773,223.945 98.981,227.898" stroke-width="6.373" stroke="black" fill="none" stroke-linecap="round"></path><path d="M 98.981,227.898 C 101.562,229.541 101.907,229.840 102.976,232.694" stroke-width="6.518" stroke="black" fill="none" stroke-linecap="round"></path><path d="M 102.976,232.694 C 105.502,239.433 105.706,239.851 106.172,247.083" stroke-width="6.387" stroke="black" fill="none" stroke-linecap="round"></path><path d="M 106.172,247.083 C 106.505,252.242 105.766,252.367 104.574,257.476" stroke-width="5.876" stroke="black" fill="none" stroke-linecap="round"></path><path d="M 104.574,257.476 C 102.969,264.358 102.923,264.391 100.579,271.066" stroke-width="5.058" stroke="black" fill="none" stroke-linecap="round"></path><path d="M 100.579,271.066 C 97.730,279.179 97.941,279.333 94.187,287.054" stroke-width="4.633" stroke="black" fill="none" stroke-linecap="round"></path><path d="M 94.187,287.054 C 90.750,294.122 90.372,293.961 86.197,300.643" stroke-width="4.658" stroke="black" fill="none" stroke-linecap="round"></path><path d="M 86.197,300.643 C 82.382,306.751 82.452,306.823 78.207,312.634" stroke-width="4.805" stroke="black" fill="none" stroke-linecap="round"></path><path d="M 78.207,312.634 C 74.861,317.216 74.673,317.083 71.016,321.428" stroke-width="5.203" stroke="black" fill="none" stroke-linecap="round"></path><path d="M 71.016,321.428 C 68.281,324.677 68.417,324.828 65.423,327.823" stroke-width="5.809" stroke="black" fill="none" stroke-linecap="round"></path><path d="M 65.423,327.823 C 63.224,330.024 60.629,332.346 60.629,331.820" stroke-width="6.259" stroke="black" fill="none" stroke-linecap="round"></path><path d="M 60.629,331.820 C 60.629,331.147 62.417,327.738 65.423,325.425" stroke-width="7.638" stroke="black" fill="none" stroke-linecap="round"></path><path d="M 65.423,325.425 C 67.611,323.741 68.259,324.746 71.016,323.826" stroke-width="6.960" stroke="black" fill="none" stroke-linecap="round"></path><path d="M 71.016,323.826 C 74.252,322.747 74.119,322.250 77.408,321.428" stroke-width="6.574" stroke="black" fill="none" stroke-linecap="round"></path><path d="M 77.408,321.428 C 80.511,320.652 80.625,321.158 83.800,320.629" stroke-width="6.541" stroke="black" fill="none" stroke-linecap="round"></path><path d="M 83.800,320.629 C 87.816,319.959 87.758,319.454 91.790,319.030" stroke-width="6.295" stroke="black" fill="none" stroke-linecap="round"></path><path d="M 91.790,319.030 C 95.349,318.655 95.397,319.229 98.981,319.030" stroke-width="6.235" stroke="black" fill="none" stroke-linecap="round"></path><path d="M 98.981,319.030 C 102.588,318.829 102.566,318.431 106.172,318.230" stroke-width="6.289" stroke="black" fill="none" stroke-linecap="round"></path><path d="M 106.172,318.230 C 109.757,318.031 109.779,318.430 113.363,318.230" stroke-width="6.314" stroke="black" fill="none" stroke-linecap="round"></path><path d="M 113.363,318.230 C 116.970,318.030 116.959,317.831 120.554,317.431" stroke-width="6.313" stroke="black" fill="none" stroke-linecap="round"></path><path d="M 120.554,317.431 C 124.150,317.031 124.251,317.454 127.745,316.631" stroke-width="6.313" stroke="black" fill="none" stroke-linecap="round"></path><path d="M 127.745,316.631 C 131.043,315.855 130.923,315.382 134.137,314.233" stroke-width="6.460" stroke="black" fill="none" stroke-linecap="round"></path><path d="M 134.137,314.233 C 136.516,313.383 136.552,313.485 138.931,312.634" stroke-width="6.721" stroke="black" fill="none" stroke-linecap="round"></path><path d="M 177.283,267.068 C 172.489,273.464 171.727,273.051 167.695,279.859" stroke-width="8.255" stroke="black" fill="none" stroke-linecap="round"></path><path d="M 167.695,279.859 C 165.335,283.843 166.035,284.234 164.499,288.652" stroke-width="6.372" stroke="black" fill="none" stroke-linecap="round"></path><path d="M 164.499,288.652 C 162.839,293.427 162.370,293.338 161.303,298.245" stroke-width="5.844" stroke="black" fill="none" stroke-linecap="round"></path><path d="M 161.303,298.245 C 160.372,302.531 160.736,302.634 160.504,307.039" stroke-width="5.899" stroke="black" fill="none" stroke-linecap="round"></path><path d="M 160.504,307.039 C 160.337,310.229 159.494,310.602 160.504,313.434" stroke-width="6.399" stroke="black" fill="none" stroke-linecap="round"></path><path d="M 160.504,313.434 C 161.491,316.198 162.154,318.230 164.499,318.230" stroke-width="7.152" stroke="black" fill="none" stroke-linecap="round"></path><path d="M 164.499,318.230 C 167.747,318.230 168.583,316.370 171.690,313.434" stroke-width="7.138" stroke="black" fill="none" stroke-linecap="round"></path><path d="M 171.690,313.434 C 175.774,309.575 175.744,309.349 178.881,304.640" stroke-width="5.713" stroke="black" fill="none" stroke-linecap="round"></path><path d="M 178.881,304.640 C 182.935,298.558 182.477,298.245 186.072,291.850" stroke-width="5.163" stroke="black" fill="none" stroke-linecap="round"></path><path d="M 186.072,291.850 C 189.668,285.455 189.995,285.600 193.263,279.060" stroke-width="5.103" stroke="black" fill="none" stroke-linecap="round"></path><path d="M 193.263,279.060 C 194.390,276.806 194.482,276.729 194.861,274.263" stroke-width="6.262" stroke="black" fill="none" stroke-linecap="round"></path><path d="M 194.861,274.263 C 195.281,271.533 195.798,267.998 194.861,268.667" stroke-width="7.221" stroke="black" fill="none" stroke-linecap="round"></path><path d="M 194.861,268.667 C 193.002,269.996 191.549,273.240 189.268,278.260" stroke-width="7.574" stroke="black" fill="none" stroke-linecap="round"></path><path d="M 189.268,278.260 C 187.554,282.033 187.727,282.187 186.871,286.254" stroke-width="6.428" stroke="black" fill="none" stroke-linecap="round"></path><path d="M 186.871,286.254 C 186.129,289.782 186.472,289.852 186.072,293.449" stroke-width="6.346" stroke="black" fill="none" stroke-linecap="round"></path><path d="M 186.072,293.449 C 185.673,297.046 185.273,297.052 185.273,300.643" stroke-width="6.322" stroke="black" fill="none" stroke-linecap="round"></path><path d="M 185.273,300.643 C 185.273,303.448 184.801,303.877 186.072,306.239" stroke-width="6.619" stroke="black" fill="none" stroke-linecap="round"></path><path d="M 186.072,306.239 C 187.598,309.073 187.874,309.932 190.866,311.036" stroke-width="7.214" stroke="black" fill="none" stroke-linecap="round"></path><path d="M 190.866,311.036 C 195.464,312.730 196.158,312.402 201.253,311.835" stroke-width="6.984" stroke="black" fill="none" stroke-linecap="round"></path><path d="M 201.253,311.835 C 206.944,311.202 206.906,310.423 212.439,308.637" stroke-width="5.748" stroke="black" fill="none" stroke-linecap="round"></path><path d="M 212.439,308.637 C 219.291,306.426 219.405,306.650 226.022,303.841" stroke-width="5.203" stroke="black" fill="none" stroke-linecap="round"></path><path d="M 226.022,303.841 C 232.589,301.054 232.457,300.725 238.806,297.446" stroke-width="4.880" stroke="black" fill="none" stroke-linecap="round"></path><path d="M 238.806,297.446 C 244.841,294.330 244.956,294.510 250.792,291.051" stroke-width="4.965" stroke="black" fill="none" stroke-linecap="round"></path><path d="M 250.792,291.051 C 255.742,288.115 255.619,287.903 260.380,284.655" stroke-width="5.238" stroke="black" fill="none" stroke-linecap="round"></path><path d="M 260.380,284.655 C 264.408,281.907 264.279,281.707 268.370,279.060" stroke-width="5.565" stroke="black" fill="none" stroke-linecap="round"></path><path d="M 268.370,279.060 C 271.071,277.311 271.221,277.550 273.963,275.862" stroke-width="6.205" stroke="black" fill="none" stroke-linecap="round"></path><path d="M 273.963,275.862 C 276.415,274.352 278.911,271.890 278.757,272.664" stroke-width="7.178" stroke="black" fill="none" stroke-linecap="round"></path><path d="M 278.757,272.664 C 278.512,273.889 275.738,276.113 273.164,279.859" stroke-width="7.693" stroke="black" fill="none" stroke-linecap="round"></path><path d="M 273.164,279.859 C 271.343,282.508 271.707,282.747 269.968,285.455" stroke-width="6.915" stroke="black" fill="none" stroke-linecap="round"></path><path d="M 269.968,285.455 C 268.112,288.343 267.970,288.253 265.973,291.051" stroke-width="6.469" stroke="black" fill="none" stroke-linecap="round"></path><path d="M 265.973,291.051 C 263.975,293.848 263.975,293.848 261.978,296.646" stroke-width="6.426" stroke="black" fill="none" stroke-linecap="round"></path><circle r="3" cx="260.3795471191406" cy="236.69110107421875" fill="black"></circle><path d="M 321.903,273.464 C 319.506,278.260 319.402,278.212 317.109,283.057" stroke-width="8.486" stroke="black" fill="none" stroke-linecap="round"></path><path d="M 317.109,283.057 C 315.807,285.806 316.071,285.933 314.712,288.652" stroke-width="7.093" stroke="black" fill="none" stroke-linecap="round"></path><path d="M 314.712,288.652 C 312.875,292.328 310.921,295.847 310.717,295.847" stroke-width="7.200" stroke="black" fill="none" stroke-linecap="round"></path><path d="M 310.717,295.847 C 310.521,295.847 312.315,292.250 313.913,288.652" stroke-width="7.989" stroke="black" fill="none" stroke-linecap="round"></path><path d="M 313.913,288.652 C 315.511,285.055 314.917,284.647 317.109,281.458" stroke-width="7.469" stroke="black" fill="none" stroke-linecap="round"></path><path d="M 317.109,281.458 C 319.311,278.252 319.478,277.935 322.702,275.862" stroke-width="7.290" stroke="black" fill="none" stroke-linecap="round"></path><path d="M 322.702,275.862 C 325.071,274.338 325.897,273.525 328.295,274.263" stroke-width="7.515" stroke="black" fill="none" stroke-linecap="round"></path><path d="M 328.295,274.263 C 331.090,275.124 331.836,276.082 333.089,279.060" stroke-width="7.810" stroke="black" fill="none" stroke-linecap="round"></path><path d="M 333.089,279.060 C 335.032,283.676 334.165,284.234 334.687,289.452" stroke-width="7.131" stroke="black" fill="none" stroke-linecap="round"></path><path d="M 334.687,289.452 C 334.964,292.228 334.687,292.250 334.687,295.048" stroke-width="6.875" stroke="black" fill="none" stroke-linecap="round"></path><path d="M 334.687,295.048 C 334.687,297.845 334.687,297.845 334.687,300.643" stroke-width="6.868" stroke="black" fill="none" stroke-linecap="round"></path><path d="M 334.687,300.643 C 334.687,303.441 334.540,303.447 334.687,306.239" stroke-width="6.727" stroke="black" fill="none" stroke-linecap="round"></path><path d="M 334.687,306.239 C 334.939,311.042 334.459,311.211 335.486,315.832" stroke-width="6.925" stroke="black" fill="none" stroke-linecap="round"></path><path d="M 371.441,279.060 C 367.845,281.058 367.565,280.687 364.250,283.057" stroke-width="8.656" stroke="black" fill="none" stroke-linecap="round"></path><path d="M 364.250,283.057 C 361.972,284.684 362.153,284.964 360.255,287.054" stroke-width="7.231" stroke="black" fill="none" stroke-linecap="round"></path><path d="M 360.255,287.054 C 358.158,289.361 357.878,289.219 356.260,291.850" stroke-width="6.765" stroke="black" fill="none" stroke-linecap="round"></path><path d="M 356.260,291.850 C 354.682,294.415 354.954,294.607 353.863,297.446" stroke-width="6.668" stroke="black" fill="none" stroke-linecap="round"></path><path d="M 353.863,297.446 C 352.956,299.803 352.440,299.782 352.265,302.242" stroke-width="6.854" stroke="black" fill="none" stroke-linecap="round"></path><path d="M 352.265,302.242 C 352.041,305.378 351.259,307.032 353.064,308.637" stroke-width="7.360" stroke="black" fill="none" stroke-linecap="round"></path><path d="M 353.064,308.637 C 354.854,310.230 356.449,309.497 359.456,308.637" stroke-width="7.758" stroke="black" fill="none" stroke-linecap="round"></path><path d="M 359.456,308.637 C 364.838,307.099 365.258,307.052 369.843,303.841" stroke-width="7.118" stroke="black" fill="none" stroke-linecap="round"></path><path d="M 369.843,303.841 C 373.248,301.456 373.049,300.919 375.436,297.446" stroke-width="7.145" stroke="black" fill="none" stroke-linecap="round"></path><path d="M 375.436,297.446 C 377.444,294.523 377.516,294.399 378.632,291.051" stroke-width="7.347" stroke="black" fill="none" stroke-linecap="round"></path><path d="M 378.632,291.051 C 379.514,288.403 379.101,284.959 379.431,285.455" stroke-width="7.860" stroke="black" fill="none" stroke-linecap="round"></path><path d="M 379.431,285.455 C 379.900,286.159 379.809,289.454 380.230,293.449" stroke-width="8.116" stroke="black" fill="none" stroke-linecap="round"></path><path d="M 380.230,293.449 C 380.608,297.048 380.323,297.113 381.029,300.643" stroke-width="7.587" stroke="black" fill="none" stroke-linecap="round"></path><path d="M 419.381,213.508 C 419.381,218.305 419.381,218.305 419.381,223.101" stroke-width="8.538" stroke="black" fill="none" stroke-linecap="round"></path><path d="M 419.381,223.101 C 419.381,227.498 419.205,227.504 419.381,231.895" stroke-width="6.530" stroke="black" fill="none" stroke-linecap="round"></path><path d="M 419.381,231.895 C 419.605,237.497 419.993,237.483 420.180,243.086" stroke-width="5.712" stroke="black" fill="none" stroke-linecap="round"></path><path d="M 420.180,243.086 C 420.393,249.474 420.180,249.482 420.180,255.877" stroke-width="5.296" stroke="black" fill="none" stroke-linecap="round"></path><path d="M 420.180,255.877 C 420.180,261.872 420.180,261.872 420.180,267.868" stroke-width="5.370" stroke="black" fill="none" stroke-linecap="round"></path><path d="M 420.180,267.868 C 420.180,273.464 420.180,273.464 420.180,279.060" stroke-width="5.318" stroke="black" fill="none" stroke-linecap="round"></path><path d="M 420.180,279.060 C 420.180,285.055 419.908,285.074 420.180,291.051" stroke-width="6.122" stroke="black" fill="none" stroke-linecap="round"></path><path d="M 420.180,291.051 C 420.308,293.868 420.388,293.889 420.979,296.646" stroke-width="6.551" stroke="black" fill="none" stroke-linecap="round"></path><path d="M 420.979,296.646 C 421.587,299.485 421.402,302.830 422.577,302.242" stroke-width="7.579" stroke="black" fill="none" stroke-linecap="round"></path><path d="M 422.577,302.242 C 424.598,301.231 425.029,297.874 427.371,293.449" stroke-width="7.522" stroke="black" fill="none" stroke-linecap="round"></path><path d="M 427.371,293.449 C 428.625,291.079 428.367,290.929 429.768,288.652" stroke-width="7.033" stroke="black" fill="none" stroke-linecap="round"></path><path d="M 429.768,288.652 C 431.563,285.733 431.669,285.780 433.763,283.057" stroke-width="6.584" stroke="black" fill="none" stroke-linecap="round"></path><path d="M 433.763,283.057 C 435.664,280.584 435.473,280.338 437.758,278.260" stroke-width="6.716" stroke="black" fill="none" stroke-linecap="round"></path><path d="M 437.758,278.260 C 439.867,276.341 440.155,276.661 442.552,275.063" stroke-width="6.646" stroke="black" fill="none" stroke-linecap="round"></path><path d="M 442.552,275.063 C 444.949,273.464 444.792,273.143 447.346,271.865" stroke-width="6.626" stroke="black" fill="none" stroke-linecap="round"></path><path d="M 447.346,271.865 C 449.586,270.744 449.671,270.420 452.140,270.266" stroke-width="6.841" stroke="black" fill="none" stroke-linecap="round"></path><path d="M 452.140,270.266 C 456.063,270.021 456.325,270.008 460.130,271.066" stroke-width="7.143" stroke="black" fill="none" stroke-linecap="round"></path><path d="M 460.130,271.066 C 463.516,272.007 464.125,271.865 466.522,274.263" stroke-width="7.346" stroke="black" fill="none" stroke-linecap="round"></path><path d="M 466.522,274.263 C 468.919,276.662 468.963,277.262 469.718,280.658" stroke-width="7.409" stroke="black" fill="none" stroke-linecap="round"></path><path d="M 469.718,280.658 C 470.561,284.456 470.746,284.950 469.718,288.652" stroke-width="7.323" stroke="black" fill="none" stroke-linecap="round"></path><path d="M 469.718,288.652 C 468.748,292.145 468.205,292.254 465.723,295.048" stroke-width="6.608" stroke="black" fill="none" stroke-linecap="round"></path><path d="M 465.723,295.048 C 461.813,299.449 461.628,299.429 456.934,303.042" stroke-width="5.527" stroke="black" fill="none" stroke-linecap="round"></path><path d="M 456.934,303.042 C 451.241,307.423 451.286,307.679 444.949,311.036" stroke-width="5.051" stroke="black" fill="none" stroke-linecap="round"></path><path d="M 444.949,311.036 C 437.703,314.874 437.400,314.335 429.768,317.431" stroke-width="4.705" stroke="black" fill="none" stroke-linecap="round"></path><path d="M 429.768,317.431 C 422.618,320.331 422.713,320.649 415.386,323.027" stroke-width="4.714" stroke="black" fill="none" stroke-linecap="round"></path><path d="M 415.386,323.027 C 407.932,325.445 407.830,325.168 400.205,327.024" stroke-width="4.689" stroke="black" fill="none" stroke-linecap="round"></path><path d="M 400.205,327.024 C 393.048,328.765 393.086,329.074 385.823,330.221" stroke-width="4.868" stroke="black" fill="none" stroke-linecap="round"></path><path d="M 385.823,330.221 C 377.905,331.472 377.823,330.933 369.843,331.820" stroke-width="4.598" stroke="black" fill="none" stroke-linecap="round"></path><path d="M 369.843,331.820 C 363.441,332.532 363.442,332.556 357.059,333.419" stroke-width="4.951" stroke="black" fill="none" stroke-linecap="round"></path><path d="M 357.059,333.419 C 348.661,334.554 348.688,334.766 340.280,335.817" stroke-width="4.631" stroke="black" fill="none" stroke-linecap="round"></path><path d="M 340.280,335.817 C 329.512,337.164 329.450,336.704 318.707,338.215" stroke-width="4.500" stroke="black" fill="none" stroke-linecap="round"></path><path d="M 318.707,338.215 C 303.882,340.301 303.899,340.467 289.144,343.012" stroke-width="4.500" stroke="black" fill="none" stroke-linecap="round"></path><path d="M 289.144,343.012 C 280.728,344.463 280.698,344.346 272.365,346.209" stroke-width="4.500" stroke="black" fill="none" stroke-linecap="round"></path><path d="M 272.365,346.209 C 246.740,351.940 246.701,351.829 221.228,358.200" stroke-width="4.500" stroke="black" fill="none" stroke-linecap="round"></path><path d="M 221.228,358.200 C 205.153,362.221 205.295,362.774 189.268,366.994" stroke-width="4.500" stroke="black" fill="none" stroke-linecap="round"></path><path d="M 189.268,366.994 C 174.933,370.768 174.808,370.304 160.504,374.188" stroke-width="4.500" stroke="black" fill="none" stroke-linecap="round"></path><path d="M 160.504,374.188 C 146.843,377.898 146.935,378.233 133.338,382.182" stroke-width="4.500" stroke="black" fill="none" stroke-linecap="round"></path><path d="M 133.338,382.182 C 122.166,385.428 122.127,385.294 110.966,388.578" stroke-width="4.500" stroke="black" fill="none" stroke-linecap="round"></path><path d="M 110.966,388.578 C 101.752,391.289 101.769,391.348 92.589,394.174" stroke-width="4.500" stroke="black" fill="none" stroke-linecap="round"></path><path d="M 92.589,394.174 C 86.189,396.144 86.206,396.200 79.805,398.171" stroke-width="4.632" stroke="black" fill="none" stroke-linecap="round"></path><path d="M 79.805,398.171 C 75.819,399.398 72.788,399.109 71.815,400.569" stroke-width="5.534" stroke="black" fill="none" stroke-linecap="round"></path><path d="M 71.815,400.569 C 71.190,401.507 74.009,402.628 76.609,402.967" stroke-width="7.245" stroke="black" fill="none" stroke-linecap="round"></path><path d="M 76.609,402.967 C 83.198,403.827 83.418,403.366 90.192,402.967" stroke-width="5.399" stroke="black" fill="none" stroke-linecap="round"></path><path d="M 90.192,402.967 C 103.793,402.167 103.806,402.057 117.358,400.569" stroke-width="4.500" stroke="black" fill="none" stroke-linecap="round"></path><path d="M 117.358,400.569 C 136.565,398.460 136.593,398.580 155.710,395.772" stroke-width="4.500" stroke="black" fill="none" stroke-linecap="round"></path><path d="M 155.710,395.772 C 180.139,392.185 180.075,391.748 204.449,387.778" stroke-width="4.500" stroke="black" fill="none" stroke-linecap="round"></path><path d="M 204.449,387.778 C 231.611,383.355 231.616,383.385 258.782,378.985" stroke-width="4.500" stroke="black" fill="none" stroke-linecap="round"></path><path d="M 258.782,378.985 C 273.564,376.590 273.535,376.401 288.345,374.188" stroke-width="4.500" stroke="black" fill="none" stroke-linecap="round"></path><path d="M 288.345,374.188 C 335.058,367.208 335.056,367.179 381.828,360.599" stroke-width="4.500" stroke="black" fill="none" stroke-linecap="round"></path><path d="M 381.828,360.599 C 411.760,356.387 411.797,356.655 441.753,352.605" stroke-width="4.500" stroke="black" fill="none" stroke-linecap="round"></path><path d="M 441.753,352.605 C 470.924,348.661 470.916,348.608 500.080,344.611" stroke-width="4.500" stroke="black" fill="none" stroke-linecap="round"></path></svg>