<svg xmlns="http://www.w3.org/2000/svg" xmlns:xlink="http://www.w3.org/1999/xlink" viewBox="0 0 576 416" width="576" height="416"><path d="M 60.629,250.706 C 65.423,249.107 65.448,249.178 70.217,247.508" stroke-width="7.990" stroke="black" fill="none" stroke-linecap="round"></path><path d="M 70.217,247.508 C 73.438,246.380 73.321,246.008 76.609,245.110" stroke-width="6.734" stroke="black" fill="none" stroke-linecap="round"></path><path d="M 76.609,245.110 C 86.504,242.410 86.653,242.929 96.584,240.314" stroke-width="4.623" stroke="black" fill="none" stroke-linecap="round"></path><path d="M 96.584,240.314 C 109.425,236.933 109.351,236.652 122.152,233.119" stroke-width="4.500" stroke="black" fill="none" stroke-linecap="round"></path><path d="M 122.152,233.119 C 144.107,227.060 144.103,227.043 166.097,221.128" stroke-width="4.500" stroke="black" fill="none" stroke-linecap="round"></path><path d="M 166.097,221.128 C 181.257,217.051 181.278,217.131 196.459,213.134" stroke-width="4.500" stroke="black" fill="none" stroke-linecap="round"></path><path d="M 196.459,213.134 C 211.640,209.137 211.604,208.994 226.822,205.140" stroke-width="4.500" stroke="black" fill="none" stroke-linecap="round"></path><path d="M 226.822,205.140 C 243.165,201.000 243.157,200.953 259.581,197.146" stroke-width="4.500" stroke="black" fill="none" stroke-linecap="round"></path><path d="M 259.581,197.146 C 275.916,193.359 275.892,193.202 292.340,189.951" stroke-width="4.500" stroke="black" fill="none" stroke-linecap="round"></path><path d="M 292.340,189.951 C 308.251,186.807 308.309,187.092 324.300,184.356" stroke-width="4.500" stroke="black" fill="none" stroke-linecap="round"></path><path d="M 324.300,184.356 C 338.671,181.896 338.682,181.957 353.064,179.559" stroke-width="4.500" stroke="black" fill="none" stroke-linecap="round"></path><path d="M 353.064,179.559 C 365.049,177.561 365.089,177.775 377.034,175.562" stroke-width="4.500" stroke="black" fill="none" stroke-linecap="round"></path><path d="M 377.034,175.562 C 386.662,173.778 386.616,173.534 396.210,171.565" stroke-width="4.500" stroke="black" fill="none" stroke-linecap="round"></path><path d="M 396.210,171.565 C 402.196,170.336 402.178,170.214 408.195,169.167" stroke-width="4.701" stroke="black" fill="none" stroke-linecap="round"></path><path d="M 408.195,169.167 C 411.366,168.615 414.151,167.931 414.587,168.367" stroke-width="5.846" stroke="black" fill="none" stroke-linecap="round"></path><path d="M 414.587,168.367 C 414.950,168.731 412.318,169.891 409.793,170.766" stroke-width="7.276" stroke="black" fill="none" stroke-linecap="round"></path><path d="M 409.793,170.766 C 401.931,173.488 401.816,173.207 393.813,175.562" stroke-width="5.233" stroke="black" fill="none" stroke-linecap="round"></path><path d="M 393.813,175.562 C 381.441,179.203 381.461,179.278 369.044,182.757" stroke-width="4.500" stroke="black" fill="none" stroke-linecap="round"></path><path d="M 369.044,182.757 C 361.486,184.874 361.413,184.609 353.863,186.754" stroke-width="4.500" stroke="black" fill="none" stroke-linecap="round"></path><path d="M 353.863,186.754 C 329.053,193.802 329.208,194.375 304.325,201.143" stroke-width="4.500" stroke="black" fill="none" stroke-linecap="round"></path><path d="M 304.325,201.143 C 288.059,205.567 287.856,204.805 271.566,209.137" stroke-width="4.500" stroke="black" fill="none" stroke-linecap="round"></path><path d="M 271.566,209.137 C 256.295,213.198 256.335,213.368 241.203,217.931" stroke-width="4.500" stroke="black" fill="none" stroke-linecap="round"></path><path d="M 241.203,217.931 C 227.171,222.162 227.354,222.813 213.238,226.724" stroke-width="4.500" stroke="black" fill="none" stroke-linecap="round"></path><path d="M 213.238,226.724 C 201.386,230.008 201.322,229.863 189.268,232.320" stroke-width="4.500" stroke="black" fill="none" stroke-linecap="round"></path><path d="M 189.268,232.320 C 179.749,234.260 179.730,234.829 170.092,235.517" stroke-width="4.500" stroke="black" fill="none" stroke-linecap="round"></path><path d="M 170.092,235.517 C 162.951,236.028 161.798,237.448 155.710,234.718" stroke-width="4.508" stroke="black" fill="none" stroke-linecap="round"></path><path d="M 155.710,234.718 C 150.212,232.252 150.234,230.585 146.921,225.125" stroke-width="5.744" stroke="black" fill="none" stroke-linecap="round"></path><path d="M 146.921,225.125 C 143.443,219.393 143.596,218.946 142.127,212.335" stroke-width="5.195" stroke="black" fill="none" stroke-linecap="round"></path><path d="M 142.127,212.335 C 140.400,204.557 141.303,204.343 140.529,196.347" stroke-width="4.784" stroke="black" fill="none" stroke-linecap="round"></path><path d="M 140.529,196.347 C 140.104,191.952 139.730,191.961 139.730,187.553" stroke-width="5.598" stroke="black" fill="none" stroke-linecap="round"></path><path d="M 139.730,187.553 C 139.730,176.772 139.977,176.752 140.529,165.969" stroke-width="4.500" stroke="black" fill="none" stroke-linecap="round"></path><path d="M 140.529,165.969 C 140.776,161.164 140.581,161.109 141.328,156.376" stroke-width="5.189" stroke="black" fill="none" stroke-linecap="round"></path><path d="M 141.328,156.376 C 141.780,153.515 141.577,150.973 142.926,150.781" stroke-width="6.164" stroke="black" fill="none" stroke-linecap="round"></path><path d="M 142.926,150.781 C 144.374,150.574 146.168,152.687 146.921,155.577" stroke-width="7.365" stroke="black" fill="none" stroke-linecap="round"></path><path d="M 146.921,155.577 C 148.565,161.880 147.550,162.365 147.720,169.167" stroke-width="5.415" stroke="black" fill="none" stroke-linecap="round"></path><path d="M 147.720,169.167 C 147.950,178.353 148.259,178.389 147.720,187.553" stroke-width="4.602" stroke="black" fill="none" stroke-linecap="round"></path><path d="M 147.720,187.553 C 147.061,198.774 146.589,198.752 145.323,209.936" stroke-width="4.500" stroke="black" fill="none" stroke-linecap="round"></path><path d="M 145.323,209.936 C 144.192,219.937 144.612,220.013 142.926,229.922" stroke-width="4.500" stroke="black" fill="none" stroke-linecap="round"></path><path d="M 142.926,229.922 C 141.416,238.799 140.864,238.701 138.931,247.508" stroke-width="4.500" stroke="black" fill="none" stroke-linecap="round"></path><path d="M 138.931,247.508 C 137.268,255.089 137.772,255.227 135.735,262.697" stroke-width="4.654" stroke="black" fill="none" stroke-linecap="round"></path><path d="M 135.735,262.697 C 134.176,268.417 134.125,268.466 131.740,273.889" stroke-width="5.000" stroke="black" fill="none" stroke-linecap="round"></path><path d="M 131.740,273.889 C 129.731,278.459 129.359,278.294 126.946,282.682" stroke-width="5.447" stroke="black" fill="none" stroke-linecap="round"></path><path d="M 126.946,282.682 C 124.964,286.288 125.066,286.351 122.951,289.877" stroke-width="5.865" stroke="black" fill="none" stroke-linecap="round"></path><path d="M 122.951,289.877 C 121.470,292.346 121.353,292.275 119.755,294.673" stroke-width="6.439" stroke="black" fill="none" stroke-linecap="round"></path><path d="M 188.469,167.568 C 185.273,174.763 185.273,174.763 182.077,181.957" stroke-width="7.847" stroke="black" fill="none" stroke-linecap="round"></path><path d="M 182.077,181.957 C 178.881,189.152 179.351,189.398 175.685,196.347" stroke-width="5.318" stroke="black" fill="none" stroke-linecap="round"></path><path d="M 175.685,196.347 C 171.760,203.787 171.522,203.693 166.896,210.736" stroke-width="4.732" stroke="black" fill="none" stroke-linecap="round"></path><path d="M 166.896,210.736 C 162.334,217.683 162.260,217.648 157.308,224.326" stroke-width="4.603" stroke="black" fill="none" stroke-linecap="round"></path><path d="M 157.308,224.326 C 153.072,230.039 153.407,230.405 148.519,235.517" stroke-width="4.806" stroke="black" fill="none" stroke-linecap="round"></path><path d="M 148.519,235.517 C 144.618,239.598 144.550,239.862 139.730,242.712" stroke-width="5.204" stroke="black" fill="none" stroke-linecap="round"></path><path d="M 139.730,242.712 C 135.761,245.058 133.551,246.859 130.941,245.910" stroke-width="6.350" stroke="black" fill="none" stroke-linecap="round"></path><path d="M 130.941,245.910 C 129.157,245.260 129.349,241.307 130.941,239.514" stroke-width="7.563" stroke="black" fill="none" stroke-linecap="round"></path><path d="M 130.941,239.514 C 132.545,237.709 134.252,238.304 137.333,238.715" stroke-width="7.589" stroke="black" fill="none" stroke-linecap="round"></path><path d="M 137.333,238.715 C 140.244,239.103 140.336,239.558 142.926,241.113" stroke-width="6.808" stroke="black" fill="none" stroke-linecap="round"></path><path d="M 142.926,241.113 C 146.328,243.155 146.319,243.284 149.318,245.910" stroke-width="6.313" stroke="black" fill="none" stroke-linecap="round"></path><path d="M 149.318,245.910 C 152.711,248.880 152.420,249.207 155.710,252.305" stroke-width="6.000" stroke="black" fill="none" stroke-linecap="round"></path><path d="M 155.710,252.305 C 159.212,255.602 159.294,255.516 162.901,258.700" stroke-width="5.820" stroke="black" fill="none" stroke-linecap="round"></path><path d="M 162.901,258.700 C 166.086,261.511 166.000,261.618 169.293,264.296" stroke-width="5.946" stroke="black" fill="none" stroke-linecap="round"></path><path d="M 169.293,264.296 C 172.392,266.815 172.151,267.429 175.685,269.092" stroke-width="6.213" stroke="black" fill="none" stroke-linecap="round"></path><path d="M 175.685,269.092 C 178.943,270.626 179.291,270.691 182.876,270.691" stroke-width="6.178" stroke="black" fill="none" stroke-linecap="round"></path><path d="M 182.876,270.691 C 186.083,270.691 186.508,270.749 189.268,269.092" stroke-width="6.314" stroke="black" fill="none" stroke-linecap="round"></path><path d="M 189.268,269.092 C 194.498,265.953 194.643,265.651 198.856,261.098" stroke-width="5.482" stroke="black" fill="none" stroke-linecap="round"></path><path d="M 198.856,261.098 C 204.630,254.859 204.615,254.665 209.243,247.508" stroke-width="4.745" stroke="black" fill="none" stroke-linecap="round"></path><path d="M 209.243,247.508 C 213.404,241.075 213.523,240.992 216.434,233.919" stroke-width="4.732" stroke="black" fill="none" stroke-linecap="round"></path><path d="M 216.434,233.919 C 219.116,227.402 218.771,227.201 220.429,220.329" stroke-width="4.941" stroke="black" fill="none" stroke-linecap="round"></path><path d="M 220.429,220.329 C 221.568,215.610 221.028,215.487 222.027,210.736" stroke-width="5.465" stroke="black" fill="none" stroke-linecap="round"></path><path d="M 222.027,210.736 C 222.626,207.893 224.027,205.341 223.625,205.140" stroke-width="6.213" stroke="black" fill="none" stroke-linecap="round"></path><path d="M 223.625,205.140 C 223.228,204.941 221.488,207.289 220.429,209.936" stroke-width="7.544" stroke="black" fill="none" stroke-linecap="round"></path><path d="M 220.429,209.936 C 218.292,215.283 218.886,215.548 217.233,221.128" stroke-width="5.743" stroke="black" fill="none" stroke-linecap="round"></path><path d="M 217.233,221.128 C 215.690,226.340 215.303,226.246 214.037,231.520" stroke-width="5.563" stroke="black" fill="none" stroke-linecap="round"></path><path d="M 214.037,231.520 C 212.906,236.238 213.160,236.305 212.439,241.113" stroke-width="5.675" stroke="black" fill="none" stroke-linecap="round"></path><path d="M 212.439,241.113 C 211.962,244.299 210.100,247.894 211.640,247.508" stroke-width="6.310" stroke="black" fill="none" stroke-linecap="round"></path><path d="M 211.640,247.508 C 214.894,246.695 218.021,243.989 222.027,238.715" stroke-width="7.098" stroke="black" fill="none" stroke-linecap="round"></path><path d="M 222.027,238.715 C 225.612,233.997 224.273,233.049 226.822,227.523" stroke-width="5.579" stroke="black" fill="none" stroke-linecap="round"></path><path d="M 226.822,227.523 C 229.067,222.657 229.509,222.847 231.615,217.931" stroke-width="5.537" stroke="black" fill="none" stroke-linecap="round"></path><path d="M 231.615,217.931 C 233.105,214.454 232.703,214.292 234.013,210.736" stroke-width="6.000" stroke="black" fill="none" stroke-linecap="round"></path><path d="M 234.013,210.736 C 235.499,206.698 236.889,201.782 237.208,202.742" stroke-width="6.781" stroke="black" fill="none" stroke-linecap="round"></path><path d="M 237.208,202.742 C 237.688,204.180 236.273,209.123 235.611,215.532" stroke-width="7.058" stroke="black" fill="none" stroke-linecap="round"></path><path d="M 235.611,215.532 C 235.075,220.715 235.244,220.731 234.811,225.924" stroke-width="5.954" stroke="black" fill="none" stroke-linecap="round"></path><path d="M 234.811,225.924 C 234.445,230.324 234.244,230.314 234.013,234.718" stroke-width="6.012" stroke="black" fill="none" stroke-linecap="round"></path><path d="M 234.013,234.718 C 233.845,237.908 232.849,240.725 234.013,241.113" stroke-width="6.299" stroke="black" fill="none" stroke-linecap="round"></path><path d="M 234.013,241.113 C 235.246,241.525 236.911,239.088 238.806,236.317" stroke-width="7.367" stroke="black" fill="none" stroke-linecap="round"></path><path d="M 238.806,236.317 C 242.105,231.494 241.679,231.160 244.400,225.924" stroke-width="5.797" stroke="black" fill="none" stroke-linecap="round"></path><path d="M 244.400,225.924 C 246.872,221.167 246.797,221.128 249.194,216.332" stroke-width="5.686" stroke="black" fill="none" stroke-linecap="round"></path><path d="M 249.194,216.332 C 251.191,212.335 251.099,212.286 253.189,208.338" stroke-width="5.748" stroke="black" fill="none" stroke-linecap="round"></path><path d="M 253.189,208.338 C 254.695,205.491 254.858,205.578 256.385,202.742" stroke-width="6.271" stroke="black" fill="none" stroke-linecap="round"></path><path d="M 256.385,202.742 C 257.655,200.382 258.576,197.945 258.782,197.945" stroke-width="7.253" stroke="black" fill="none" stroke-linecap="round"></path><path d="M 258.782,197.945 C 258.975,197.945 257.937,200.329 257.184,202.742" stroke-width="7.670" stroke="black" fill="none" stroke-linecap="round"></path><path d="M 257.184,202.742 C 255.940,206.724 256.105,206.779 254.787,210.736" stroke-width="6.351" stroke="black" fill="none" stroke-linecap="round"></path><path d="M 254.787,210.736 C 253.308,215.172 252.816,215.032 251.591,219.529" stroke-width="5.959" stroke="black" fill="none" stroke-linecap="round"></path><path d="M 251.591,219.529 C 250.419,223.825 250.689,223.910 249.993,228.323" stroke-width="5.917" stroke="black" fill="none" stroke-linecap="round"></path><path d="M 249.993,228.323 C 249.490,231.505 248.220,231.991 249.194,234.718" stroke-width="6.330" stroke="black" fill="none" stroke-linecap="round"></path><path d="M 249.194,234.718 C 250.218,237.587 251.280,239.334 253.988,239.514" stroke-width="7.131" stroke="black" fill="none" stroke-linecap="round"></path><path d="M 253.988,239.514 C 257.272,239.734 257.837,237.877 261.179,235.517" stroke-width="7.182" stroke="black" fill="none" stroke-linecap="round"></path><path d="M 261.179,235.517 C 264.629,233.081 264.480,232.832 267.571,229.922" stroke-width="6.312" stroke="black" fill="none" stroke-linecap="round"></path><path d="M 267.571,229.922 C 271.271,226.437 271.272,226.424 274.762,222.727" stroke-width="5.819" stroke="black" fill="none" stroke-linecap="round"></path><path d="M 274.762,222.727 C 278.063,219.229 277.971,219.141 281.154,215.532" stroke-width="5.768" stroke="black" fill="none" stroke-linecap="round"></path><path d="M 281.154,215.532 C 283.963,212.346 284.297,212.568 286.747,209.137" stroke-width="6.006" stroke="black" fill="none" stroke-linecap="round"></path><path d="M 286.747,209.137 C 288.292,206.972 288.366,206.870 289.144,204.341" stroke-width="6.502" stroke="black" fill="none" stroke-linecap="round"></path><path d="M 289.144,204.341 C 289.964,201.674 290.664,198.745 289.943,198.745" stroke-width="7.307" stroke="black" fill="none" stroke-linecap="round"></path><path d="M 289.943,198.745 C 289.066,198.745 287.375,201.280 285.948,204.341" stroke-width="7.745" stroke="black" fill="none" stroke-linecap="round"></path><path d="M 285.948,204.341 C 284.579,207.275 285.149,207.538 284.350,210.736" stroke-width="6.731" stroke="black" fill="none" stroke-linecap="round"></path><path d="M 284.350,210.736 C 283.551,213.933 283.397,213.903 282.752,217.131" stroke-width="6.557" stroke="black" fill="none" stroke-linecap="round"></path><path d="M 282.752,217.131 C 282.198,219.899 282.118,219.912 281.953,222.727" stroke-width="6.694" stroke="black" fill="none" stroke-linecap="round"></path><path d="M 281.953,222.727 C 281.719,226.707 280.081,229.057 281.953,230.721" stroke-width="7.098" stroke="black" fill="none" stroke-linecap="round"></path><path d="M 281.953,230.721 C 283.677,232.254 285.929,230.730 289.144,229.122" stroke-width="7.305" stroke="black" fill="none" stroke-linecap="round"></path><path d="M 289.144,229.122 C 293.120,227.133 292.853,226.460 296.335,223.526" stroke-width="6.320" stroke="black" fill="none" stroke-linecap="round"></path><path d="M 296.335,223.526 C 300.443,220.065 300.429,220.034 304.325,216.332" stroke-width="5.634" stroke="black" fill="none" stroke-linecap="round"></path><path d="M 304.325,216.332 C 308.419,212.440 308.425,212.434 312.315,208.338" stroke-width="5.472" stroke="black" fill="none" stroke-linecap="round"></path><path d="M 312.315,208.338 C 316.015,204.440 316.046,204.454 319.506,200.344" stroke-width="5.501" stroke="black" fill="none" stroke-linecap="round"></path><path d="M 319.506,200.344 C 322.438,196.860 322.366,196.794 325.099,193.149" stroke-width="5.824" stroke="black" fill="none" stroke-linecap="round"></path><path d="M 325.099,193.149 C 327.160,190.399 327.138,190.380 329.094,187.553" stroke-width="6.146" stroke="black" fill="none" stroke-linecap="round"></path><path d="M 329.094,187.553 C 330.733,185.184 332.959,182.757 332.290,182.757" stroke-width="7.154" stroke="black" fill="none" stroke-linecap="round"></path><path d="M 332.290,182.757 C 331.361,182.757 328.345,184.615 325.898,187.553" stroke-width="7.769" stroke="black" fill="none" stroke-linecap="round"></path><path d="M 325.898,187.553 C 324.350,189.412 323.585,190.382 324.300,192.350" stroke-width="7.794" stroke="black" fill="none" stroke-linecap="round"></path><path d="M 324.300,192.350 C 325.183,194.779 326.445,194.800 329.094,196.347" stroke-width="7.660" stroke="black" fill="none" stroke-linecap="round"></path><path d="M 329.094,196.347 C 331.239,197.598 331.561,196.976 333.888,197.945" stroke-width="7.206" stroke="black" fill="none" stroke-linecap="round"></path><path d="M 333.888,197.945 C 336.355,198.974 336.518,198.797 338.682,200.344" stroke-width="6.874" stroke="black" fill="none" stroke-linecap="round"></path><path d="M 338.682,200.344 C 342.111,202.794 343.343,202.477 345.074,205.939" stroke-width="7.100" stroke="black" fill="none" stroke-linecap="round"></path><path d="M 345.074,205.939 C 346.539,208.872 345.875,209.726 345.074,213.134" stroke-width="7.326" stroke="black" fill="none" stroke-linecap="round"></path><path d="M 345.074,213.134 C 344.277,216.521 343.995,216.705 341.878,219.529" stroke-width="6.684" stroke="black" fill="none" stroke-linecap="round"></path><path d="M 341.878,219.529 C 339.200,223.101 338.868,222.938 335.486,225.924" stroke-width="6.002" stroke="black" fill="none" stroke-linecap="round"></path><path d="M 335.486,225.924 C 332.077,228.934 331.851,228.674 328.295,231.520" stroke-width="5.901" stroke="black" fill="none" stroke-linecap="round"></path><path d="M 328.295,231.520 C 325.858,233.470 325.898,233.519 323.501,235.517" stroke-width="6.363" stroke="black" fill="none" stroke-linecap="round"></path><path d="M 290.742,209.936 C 285.948,211.935 285.669,211.449 281.154,213.934" stroke-width="8.567" stroke="black" fill="none" stroke-linecap="round"></path><path d="M 281.154,213.934 C 277.679,215.845 277.177,215.710 274.762,218.730" stroke-width="7.660" stroke="black" fill="none" stroke-linecap="round"></path><path d="M 274.762,218.730 C 272.383,221.705 272.447,222.175 271.566,225.924" stroke-width="7.410" stroke="black" fill="none" stroke-linecap="round"></path></svg>