<svg xmlns="http://www.w3.org/2000/svg" xmlns:xlink="http://www.w3.org/1999/xlink" viewBox="0 0 576 416" width="576" height="416"><path d="M 365.049,180.055 C 356.260,182.453 356.318,182.699 347.471,184.852" stroke-width="8.115" stroke="black" fill="none" stroke-linecap="round"></path><path d="M 347.471,184.852 C 341.536,186.296 341.530,186.578 335.486,187.250" stroke-width="5.859" stroke="black" fill="none" stroke-linecap="round"></path><path d="M 335.486,187.250 C 330.744,187.777 330.010,188.895 325.898,187.250" stroke-width="5.868" stroke="black" fill="none" stroke-linecap="round"></path><path d="M 325.898,187.250 C 322.020,185.698 321.718,184.544 319.506,180.855" stroke-width="6.597" stroke="black" fill="none" stroke-linecap="round"></path><path d="M 319.506,180.855 C 318.123,178.548 318.533,178.035 318.707,175.259" stroke-width="6.706" stroke="black" fill="none" stroke-linecap="round"></path><path d="M 318.707,175.259 C 318.933,171.639 319.144,171.547 320.305,168.064" stroke-width="6.222" stroke="black" fill="none" stroke-linecap="round"></path><path d="M 320.305,168.064 C 321.941,163.153 321.906,163.061 324.300,158.471" stroke-width="5.665" stroke="black" fill="none" stroke-linecap="round"></path><path d="M 324.300,158.471 C 326.700,153.868 327.004,154.013 329.893,149.678" stroke-width="5.513" stroke="black" fill="none" stroke-linecap="round"></path><path d="M 329.893,149.678 C 331.798,146.818 333.888,146.806 333.888,144.082" stroke-width="6.111" stroke="black" fill="none" stroke-linecap="round"></path><path d="M 333.888,144.082 C 333.888,141.609 332.742,139.369 329.893,139.286" stroke-width="7.105" stroke="black" fill="none" stroke-linecap="round"></path><path d="M 329.893,139.286 C 319.159,138.970 318.073,140.308 306.722,143.283" stroke-width="4.500" stroke="black" fill="none" stroke-linecap="round"></path><path d="M 306.722,143.283 C 284.515,149.102 284.568,149.539 262.777,156.872" stroke-width="4.500" stroke="black" fill="none" stroke-linecap="round"></path><path d="M 262.777,156.872 C 240.623,164.328 240.644,164.451 218.832,172.861" stroke-width="4.500" stroke="black" fill="none" stroke-linecap="round"></path><path d="M 218.832,172.861 C 197.098,181.239 197.059,181.194 175.685,190.447" stroke-width="4.500" stroke="black" fill="none" stroke-linecap="round"></path><path d="M 175.685,190.447 C 155.511,199.181 156.009,200.364 135.735,208.834" stroke-width="4.500" stroke="black" fill="none" stroke-linecap="round"></path><path d="M 135.735,208.834 C 119.654,215.552 119.532,215.386 102.976,220.825" stroke-width="4.500" stroke="black" fill="none" stroke-linecap="round"></path><path d="M 102.976,220.825 C 92.766,224.179 92.690,224.380 82.202,226.421" stroke-width="4.500" stroke="black" fill="none" stroke-linecap="round"></path><path d="M 82.202,226.421 C 78.308,227.178 73.197,228.960 74.212,226.421" stroke-width="4.988" stroke="black" fill="none" stroke-linecap="round"></path><path d="M 74.212,226.421 C 77.991,216.969 81.951,213.545 91.790,202.438" stroke-width="4.808" stroke="black" fill="none" stroke-linecap="round"></path><path d="M 91.790,202.438 C 113.112,178.371 112.880,177.855 136.534,156.073" stroke-width="4.500" stroke="black" fill="none" stroke-linecap="round"></path><path d="M 136.534,156.073 C 158.023,136.286 158.061,135.872 182.077,119.300" stroke-width="4.500" stroke="black" fill="none" stroke-linecap="round"></path><path d="M 182.077,119.300 C 204.403,103.896 205.245,104.945 229.218,92.121" stroke-width="4.500" stroke="black" fill="none" stroke-linecap="round"></path><path d="M 229.218,92.121 C 245.595,83.361 245.486,82.520 262.777,76.133" stroke-width="4.500" stroke="black" fill="none" stroke-linecap="round"></path><path d="M 262.777,76.133 C 271.453,72.927 272.484,72.375 281.154,72.935" stroke-width="4.500" stroke="black" fill="none" stroke-linecap="round"></path><path d="M 281.154,72.935 C 284.868,73.175 286.077,74.794 287.546,77.732" stroke-width="5.036" stroke="black" fill="none" stroke-linecap="round"></path><path d="M 287.546,77.732 C 288.474,79.590 287.362,80.446 285.948,82.528" stroke-width="6.231" stroke="black" fill="none" stroke-linecap="round"></path><path d="M 285.948,82.528 C 273.779,100.432 273.720,100.541 260.380,117.702" stroke-width="4.500" stroke="black" fill="none" stroke-linecap="round"></path><path d="M 260.380,117.702 C 237.365,147.306 236.915,146.967 213.238,176.058" stroke-width="4.500" stroke="black" fill="none" stroke-linecap="round"></path><path d="M 213.238,176.058 C 191.372,202.925 190.576,202.303 169.293,229.618" stroke-width="4.500" stroke="black" fill="none" stroke-linecap="round"></path><path d="M 169.293,229.618 C 151.025,253.065 151.322,253.324 134.137,277.582" stroke-width="4.500" stroke="black" fill="none" stroke-linecap="round"></path><path d="M 134.137,277.582 C 122.158,294.493 120.966,293.948 110.966,311.957" stroke-width="4.500" stroke="black" fill="none" stroke-linecap="round"></path><path d="M 110.966,311.957 C 104.986,322.727 104.949,323.431 102.177,335.139" stroke-width="4.500" stroke="black" fill="none" stroke-linecap="round"></path><path d="M 102.177,335.139 C 101.353,338.620 102.976,338.737 103.775,342.334" stroke-width="4.786" stroke="black" fill="none" stroke-linecap="round"></path><path d="M 274.762,248.804 C 262.377,263.193 261.654,262.612 249.993,277.582" stroke-width="5.512" stroke="black" fill="none" stroke-linecap="round"></path><path d="M 249.993,277.582 C 219.307,316.972 220.030,317.553 190.067,357.523" stroke-width="4.500" stroke="black" fill="none" stroke-linecap="round"></path></svg>