<svg xmlns="http://www.w3.org/2000/svg" xmlns:xlink="http://www.w3.org/1999/xlink" viewBox="0 0 576 416" width="576" height="416"><path d="M 167.695,39.781 C 161.303,43.778 161.089,43.463 154.911,47.775" stroke-width="8.231" stroke="black" fill="none" stroke-linecap="round"></path><path d="M 154.911,47.775 C 143.910,55.454 144.035,55.650 133.338,63.763" stroke-width="4.500" stroke="black" fill="none" stroke-linecap="round"></path><path d="M 133.338,63.763 C 119.266,74.436 118.981,74.101 105.373,85.347" stroke-width="4.500" stroke="black" fill="none" stroke-linecap="round"></path><path d="M 105.373,85.347 C 91.415,96.884 91.393,96.928 78.207,109.329" stroke-width="4.500" stroke="black" fill="none" stroke-linecap="round"></path><path d="M 78.207,109.329 C 71.418,115.714 71.534,115.875 65.423,122.919" stroke-width="4.500" stroke="black" fill="none" stroke-linecap="round"></path><path d="M 65.423,122.919 C 53.157,137.059 53.143,137.077 41.453,151.698" stroke-width="4.500" stroke="black" fill="none" stroke-linecap="round"></path><path d="M 41.453,151.698 C 35.565,159.061 35.682,159.166 30.267,166.886" stroke-width="4.500" stroke="black" fill="none" stroke-linecap="round"></path><path d="M 30.267,166.886 C 19.702,181.949 19.597,181.889 9.493,197.264" stroke-width="4.500" stroke="black" fill="none" stroke-linecap="round"></path><path d="M 9.493,197.264 C 0.421,211.068 0.053,210.887 -8.085,225.243" stroke-width="4.500" stroke="black" fill="none" stroke-linecap="round"></path><path d="M -8.085,225.243 C -15.128,237.667 -14.388,238.079 -20.869,250.824" stroke-width="4.500" stroke="black" fill="none" stroke-linecap="round"></path><path d="M -20.869,250.824 C -25.973,260.862 -27.022,260.431 -31.256,270.809" stroke-width="4.500" stroke="black" fill="none" stroke-linecap="round"></path><path d="M -31.256,270.809 C -35.012,280.016 -35.624,280.497 -36.849,289.994" stroke-width="4.500" stroke="black" fill="none" stroke-linecap="round"></path><path d="M -36.849,289.994 C -37.222,292.887 -36.931,295.374 -34.452,295.590" stroke-width="5.450" stroke="black" fill="none" stroke-linecap="round"></path><path d="M -34.452,295.590 C -27.743,296.174 -26.257,294.236 -18.472,291.593" stroke-width="5.785" stroke="black" fill="none" stroke-linecap="round"></path><path d="M -18.472,291.593 C -3.885,286.641 -3.966,286.298 10.292,280.401" stroke-width="4.500" stroke="black" fill="none" stroke-linecap="round"></path><path d="M 10.292,280.401 C 25.997,273.907 25.863,273.584 41.453,266.812" stroke-width="4.500" stroke="black" fill="none" stroke-linecap="round"></path><path d="M 41.453,266.812 C 56.225,260.394 55.994,259.786 71.016,254.021" stroke-width="4.500" stroke="black" fill="none" stroke-linecap="round"></path><path d="M 71.016,254.021 C 85.157,248.594 85.218,248.591 99.780,244.428" stroke-width="4.500" stroke="black" fill="none" stroke-linecap="round"></path><path d="M 99.780,244.428 C 113.183,240.597 113.206,240.181 126.946,238.033" stroke-width="4.500" stroke="black" fill="none" stroke-linecap="round"></path><path d="M 126.946,238.033 C 138.774,236.184 138.961,236.213 150.916,236.434" stroke-width="4.500" stroke="black" fill="none" stroke-linecap="round"></path><path d="M 150.916,236.434 C 160.534,236.613 160.969,236.161 170.092,238.833" stroke-width="4.500" stroke="black" fill="none" stroke-linecap="round"></path><path d="M 170.092,238.833 C 177.349,240.957 177.401,241.698 183.675,246.027" stroke-width="4.500" stroke="black" fill="none" stroke-linecap="round"></path><path d="M 183.675,246.027 C 188.986,249.692 189.918,249.504 193.263,254.821" stroke-width="4.978" stroke="black" fill="none" stroke-linecap="round"></path><path d="M 193.263,254.821 C 196.709,260.296 196.267,261.062 197.258,267.611" stroke-width="5.016" stroke="black" fill="none" stroke-linecap="round"></path><path d="M 197.258,267.611 C 198.264,274.253 197.519,274.420 197.258,281.201" stroke-width="4.911" stroke="black" fill="none" stroke-linecap="round"></path><path d="M 197.258,281.201 C 197.120,284.813 197.462,284.939 196.459,288.396" stroke-width="5.814" stroke="black" fill="none" stroke-linecap="round"></path><path d="M 196.459,288.396 C 193.867,297.330 194.168,297.614 190.067,305.982" stroke-width="4.651" stroke="black" fill="none" stroke-linecap="round"></path><path d="M 190.067,305.982 C 184.180,317.999 183.965,318.035 176.484,329.165" stroke-width="4.500" stroke="black" fill="none" stroke-linecap="round"></path><path d="M 176.484,329.165 C 168.384,341.217 168.446,341.411 158.906,352.348" stroke-width="4.500" stroke="black" fill="none" stroke-linecap="round"></path><path d="M 158.906,352.348 C 149.270,363.395 149.265,363.614 138.132,373.132" stroke-width="4.500" stroke="black" fill="none" stroke-linecap="round"></path><path d="M 138.132,373.132 C 127.293,382.400 126.969,382.182 114.961,389.920" stroke-width="4.500" stroke="black" fill="none" stroke-linecap="round"></path><path d="M 114.961,389.920 C 103.398,397.371 103.434,397.714 90.991,403.510" stroke-width="4.500" stroke="black" fill="none" stroke-linecap="round"></path><path d="M 90.991,403.510 C 80.263,408.506 80.075,408.638 68.619,411.504" stroke-width="4.500" stroke="black" fill="none" stroke-linecap="round"></path><path d="M 68.619,411.504 C 59.301,413.835 59.017,413.902 49.443,413.902" stroke-width="4.500" stroke="black" fill="none" stroke-linecap="round"></path><path d="M 49.443,413.902 C 41.438,413.902 41.120,413.757 33.463,411.504" stroke-width="4.500" stroke="black" fill="none" stroke-linecap="round"></path><path d="M 33.463,411.504 C 27.537,409.760 27.244,409.522 22.277,405.908" stroke-width="4.870" stroke="black" fill="none" stroke-linecap="round"></path><path d="M 22.277,405.908 C 18.455,403.127 17.957,402.858 15.885,398.713" stroke-width="5.452" stroke="black" fill="none" stroke-linecap="round"></path><path d="M 15.885,398.713 C 13.962,394.864 14.089,394.273 14.287,389.920" stroke-width="5.757" stroke="black" fill="none" stroke-linecap="round"></path><path d="M 14.287,389.920 C 14.489,385.480 14.614,385.080 16.684,381.126" stroke-width="6.634" stroke="black" fill="none" stroke-linecap="round"></path><path d="M 16.684,381.126 C 19.009,376.686 19.569,376.836 23.076,373.132" stroke-width="5.980" stroke="black" fill="none" stroke-linecap="round"></path><path d="M 23.076,373.132 C 26.760,369.242 26.615,368.842 31.066,365.938" stroke-width="5.549" stroke="black" fill="none" stroke-linecap="round"></path><path d="M 31.066,365.938 C 35.803,362.847 36.060,362.940 41.453,361.141" stroke-width="5.429" stroke="black" fill="none" stroke-linecap="round"></path><path d="M 41.453,361.141 C 46.846,359.343 46.977,359.291 52.639,358.743" stroke-width="5.394" stroke="black" fill="none" stroke-linecap="round"></path><path d="M 52.639,358.743 C 59.362,358.092 59.469,358.210 66.222,358.743" stroke-width="5.114" stroke="black" fill="none" stroke-linecap="round"></path><path d="M 66.222,358.743 C 74.650,359.409 74.662,359.658 83.001,361.141" stroke-width="4.673" stroke="black" fill="none" stroke-linecap="round"></path><path d="M 83.001,361.141 C 92.639,362.855 92.559,363.296 102.177,365.138" stroke-width="4.500" stroke="black" fill="none" stroke-linecap="round"></path><path d="M 102.177,365.138 C 111.336,366.893 111.303,367.307 120.554,368.336" stroke-width="4.500" stroke="black" fill="none" stroke-linecap="round"></path><path d="M 120.554,368.336 C 129.281,369.306 129.339,368.926 138.132,369.135" stroke-width="4.500" stroke="black" fill="none" stroke-linecap="round"></path><path d="M 138.132,369.135 C 146.118,369.325 146.214,369.876 154.112,369.135" stroke-width="4.553" stroke="black" fill="none" stroke-linecap="round"></path><path d="M 154.112,369.135 C 158.998,368.677 159.071,368.404 163.700,366.737" stroke-width="5.294" stroke="black" fill="none" stroke-linecap="round"></path><path d="M 163.700,366.737 C 169.059,364.807 169.210,364.868 174.087,361.941" stroke-width="5.354" stroke="black" fill="none" stroke-linecap="round"></path><path d="M 174.087,361.941 C 179.198,358.873 179.177,358.684 183.675,354.746" stroke-width="5.301" stroke="black" fill="none" stroke-linecap="round"></path><path d="M 183.675,354.746 C 188.765,350.290 188.687,350.148 193.263,345.153" stroke-width="5.182" stroke="black" fill="none" stroke-linecap="round"></path><path d="M 193.263,345.153 C 197.476,340.555 197.410,340.474 201.253,335.560" stroke-width="5.093" stroke="black" fill="none" stroke-linecap="round"></path><path d="M 201.253,335.560 C 204.601,331.281 204.464,331.174 207.645,326.767" stroke-width="5.445" stroke="black" fill="none" stroke-linecap="round"></path><path d="M 207.645,326.767 C 209.658,323.979 210.266,320.484 211.640,321.171" stroke-width="6.013" stroke="black" fill="none" stroke-linecap="round"></path><path d="M 211.640,321.171 C 213.462,322.082 213.399,325.493 214.037,329.964" stroke-width="7.353" stroke="black" fill="none" stroke-linecap="round"></path><path d="M 214.037,329.964 C 214.597,333.887 214.037,333.962 214.037,337.959" stroke-width="6.445" stroke="black" fill="none" stroke-linecap="round"></path><path d="M 214.037,337.959 C 214.037,341.156 213.619,341.215 214.037,344.354" stroke-width="6.511" stroke="black" fill="none" stroke-linecap="round"></path><path d="M 214.037,344.354 C 214.418,347.210 214.286,347.443 215.635,349.950" stroke-width="6.711" stroke="black" fill="none" stroke-linecap="round"></path><path d="M 215.635,349.950 C 217.083,352.639 217.209,354.373 219.630,354.746" stroke-width="7.289" stroke="black" fill="none" stroke-linecap="round"></path><path d="M 219.630,354.746 C 222.403,355.173 223.382,353.813 226.022,351.548" stroke-width="7.392" stroke="black" fill="none" stroke-linecap="round"></path><path d="M 226.022,351.548 C 228.975,349.016 228.322,348.273 230.816,345.153" stroke-width="6.455" stroke="black" fill="none" stroke-linecap="round"></path><path d="M 230.816,345.153 C 233.116,342.277 233.231,342.370 235.611,339.557" stroke-width="6.406" stroke="black" fill="none" stroke-linecap="round"></path><path d="M 235.611,339.557 C 237.626,337.174 237.177,336.528 239.605,334.761" stroke-width="6.529" stroke="black" fill="none" stroke-linecap="round"></path><path d="M 239.605,334.761 C 241.572,333.330 242.189,332.572 244.400,333.162" stroke-width="6.743" stroke="black" fill="none" stroke-linecap="round"></path><path d="M 244.400,333.162 C 248.181,334.171 248.595,334.961 251.591,337.959" stroke-width="7.040" stroke="black" fill="none" stroke-linecap="round"></path><path d="M 251.591,337.959 C 254.587,340.957 254.198,341.434 256.385,345.153" stroke-width="6.252" stroke="black" fill="none" stroke-linecap="round"></path><path d="M 256.385,345.153 C 258.193,348.229 258.259,348.243 259.581,351.548" stroke-width="6.384" stroke="black" fill="none" stroke-linecap="round"></path><path d="M 259.581,351.548 C 260.656,354.239 260.139,354.440 261.179,357.144" stroke-width="6.605" stroke="black" fill="none" stroke-linecap="round"></path><path d="M 261.179,357.144 C 262.136,359.636 262.377,361.941 263.576,361.941" stroke-width="7.362" stroke="black" fill="none" stroke-linecap="round"></path><path d="M 263.576,361.941 C 264.774,361.941 265.131,359.669 265.973,357.144" stroke-width="7.666" stroke="black" fill="none" stroke-linecap="round"></path><path d="M 265.973,357.144 C 267.129,353.674 266.727,353.536 267.571,349.950" stroke-width="6.639" stroke="black" fill="none" stroke-linecap="round"></path><path d="M 267.571,349.950 C 268.325,346.741 268.264,346.721 269.169,343.554" stroke-width="6.531" stroke="black" fill="none" stroke-linecap="round"></path><path d="M 269.169,343.554 C 269.862,341.125 269.446,338.947 270.767,338.758" stroke-width="6.743" stroke="black" fill="none" stroke-linecap="round"></path><path d="M 270.767,338.758 C 272.243,338.547 272.364,341.556 274.762,342.755" stroke-width="7.939" stroke="black" fill="none" stroke-linecap="round"></path><path d="M 274.762,342.755 C 277.158,343.954 278.153,342.040 280.355,343.554" stroke-width="8.201" stroke="black" fill="none" stroke-linecap="round"></path><path d="M 280.355,343.554 C 284.545,346.437 283.418,348.205 287.546,351.548" stroke-width="7.648" stroke="black" fill="none" stroke-linecap="round"></path><path d="M 287.546,351.548 C 291.807,355.000 292.039,355.068 297.134,357.144" stroke-width="5.960" stroke="black" fill="none" stroke-linecap="round"></path><path d="M 297.134,357.144 C 302.826,359.464 303.091,358.894 309.119,360.342" stroke-width="5.409" stroke="black" fill="none" stroke-linecap="round"></path><path d="M 309.119,360.342 C 313.078,361.293 313.146,361.008 317.109,361.941" stroke-width="5.864" stroke="black" fill="none" stroke-linecap="round"></path><path d="M 317.109,361.941 C 319.937,362.607 320.881,365.475 322.702,363.539" stroke-width="6.361" stroke="black" fill="none" stroke-linecap="round"></path><path d="M 322.702,363.539 C 333.665,351.885 336.043,350.468 342.677,334.761" stroke-width="4.500" stroke="black" fill="none" stroke-linecap="round"></path><path d="M 342.677,334.761 C 348.028,322.089 346.271,320.816 346.672,306.782" stroke-width="4.500" stroke="black" fill="none" stroke-linecap="round"></path><path d="M 346.672,306.782 C 347.070,292.837 345.983,292.724 344.275,278.803" stroke-width="4.500" stroke="black" fill="none" stroke-linecap="round"></path><path d="M 344.275,278.803 C 343.187,269.941 343.016,269.936 341.079,261.216" stroke-width="4.500" stroke="black" fill="none" stroke-linecap="round"></path><path d="M 341.079,261.216 C 338.222,248.352 337.785,248.449 334.687,235.635" stroke-width="4.500" stroke="black" fill="none" stroke-linecap="round"></path><path d="M 334.687,235.635 C 331.793,223.667 332.224,223.555 329.094,211.653" stroke-width="4.500" stroke="black" fill="none" stroke-linecap="round"></path><path d="M 329.094,211.653 C 326.232,200.772 326.257,200.740 322.702,190.069" stroke-width="4.500" stroke="black" fill="none" stroke-linecap="round"></path><path d="M 322.702,190.069 C 319.865,181.554 319.760,181.567 316.310,173.281" stroke-width="4.500" stroke="black" fill="none" stroke-linecap="round"></path><path d="M 316.310,173.281 C 313.768,167.178 314.052,166.938 310.717,161.290" stroke-width="4.837" stroke="black" fill="none" stroke-linecap="round"></path><path d="M 310.717,161.290 C 308.859,158.145 308.875,156.750 305.923,155.695" stroke-width="5.763" stroke="black" fill="none" stroke-linecap="round"></path><path d="M 305.923,155.695 C 303.282,154.751 301.546,155.122 299.531,157.293" stroke-width="6.879" stroke="black" fill="none" stroke-linecap="round"></path><path d="M 299.531,157.293 C 296.352,160.718 296.851,161.885 295.536,166.886" stroke-width="5.920" stroke="black" fill="none" stroke-linecap="round"></path><path d="M 295.536,166.886 C 292.856,177.073 293.059,177.206 291.541,187.671" stroke-width="4.500" stroke="black" fill="none" stroke-linecap="round"></path><path d="M 291.541,187.671 C 289.463,201.987 289.269,202.015 288.345,216.449" stroke-width="4.500" stroke="black" fill="none" stroke-linecap="round"></path><path d="M 288.345,216.449 C 287.272,233.191 287.193,233.249 287.546,250.024" stroke-width="4.500" stroke="black" fill="none" stroke-linecap="round"></path><path d="M 287.546,250.024 C 287.992,271.221 287.989,271.278 289.943,292.393" stroke-width="4.500" stroke="black" fill="none" stroke-linecap="round"></path><path d="M 289.943,292.393 C 291.984,314.445 292.461,314.415 295.536,336.360" stroke-width="4.500" stroke="black" fill="none" stroke-linecap="round"></path><path d="M 295.536,336.360 C 298.453,357.183 298.371,357.206 301.928,377.929" stroke-width="4.500" stroke="black" fill="none" stroke-linecap="round"></path><path d="M 301.928,377.929 C 305.163,396.777 305.608,396.699 309.119,415.501" stroke-width="4.500" stroke="black" fill="none" stroke-linecap="round"></path><path d="M 309.119,415.501 C 312.399,433.072 312.315,433.088 315.511,450.674" stroke-width="4.500" stroke="black" fill="none" stroke-linecap="round"></path><path d="M 399.406,325.967 C 398.207,314.776 398.656,314.709 397.009,303.584" stroke-width="7.103" stroke="black" fill="none" stroke-linecap="round"></path><path d="M 397.009,303.584 C 395.460,293.125 395.125,293.169 393.014,282.800" stroke-width="4.612" stroke="black" fill="none" stroke-linecap="round"></path><path d="M 393.014,282.800 C 390.730,271.585 390.681,271.594 388.220,260.416" stroke-width="4.500" stroke="black" fill="none" stroke-linecap="round"></path><path d="M 388.220,260.416 C 385.488,248.011 385.512,248.005 382.627,235.635" stroke-width="4.500" stroke="black" fill="none" stroke-linecap="round"></path><path d="M 382.627,235.635 C 379.919,224.023 379.877,224.032 377.034,212.452" stroke-width="4.500" stroke="black" fill="none" stroke-linecap="round"></path><path d="M 377.034,212.452 C 374.284,201.249 374.659,201.138 371.441,190.069" stroke-width="4.500" stroke="black" fill="none" stroke-linecap="round"></path><path d="M 371.441,190.069 C 368.267,179.154 367.685,179.326 364.250,168.485" stroke-width="4.500" stroke="black" fill="none" stroke-linecap="round"></path><path d="M 364.250,168.485 C 362.492,162.939 363.684,162.418 361.054,157.293" stroke-width="4.778" stroke="black" fill="none" stroke-linecap="round"></path><path d="M 361.054,157.293 C 356.094,147.629 355.665,147.629 349.069,138.907" stroke-width="4.500" stroke="black" fill="none" stroke-linecap="round"></path><path d="M 349.069,138.907 C 344.479,132.840 344.690,132.108 338.682,127.715" stroke-width="4.500" stroke="black" fill="none" stroke-linecap="round"></path><path d="M 338.682,127.715 C 334.303,124.514 333.461,123.718 328.295,123.718" stroke-width="5.102" stroke="black" fill="none" stroke-linecap="round"></path><path d="M 328.295,123.718 C 323.473,123.718 322.642,124.705 318.707,127.715" stroke-width="5.511" stroke="black" fill="none" stroke-linecap="round"></path><path d="M 318.707,127.715 C 315.850,129.901 316.037,130.614 314.712,134.111" stroke-width="5.998" stroke="black" fill="none" stroke-linecap="round"></path><path d="M 314.712,134.111 C 311.643,142.206 311.567,142.347 309.918,150.898" stroke-width="4.702" stroke="black" fill="none" stroke-linecap="round"></path><path d="M 309.918,150.898 C 307.173,165.130 307.236,165.223 305.923,179.677" stroke-width="4.500" stroke="black" fill="none" stroke-linecap="round"></path><path d="M 305.923,179.677 C 304.439,196.000 304.710,196.054 304.325,212.452" stroke-width="4.500" stroke="black" fill="none" stroke-linecap="round"></path><path d="M 304.325,212.452 C 303.911,230.029 304.118,230.042 304.325,247.626" stroke-width="4.500" stroke="black" fill="none" stroke-linecap="round"></path><path d="M 304.325,247.626 C 304.517,264.016 304.486,264.023 305.124,280.401" stroke-width="4.500" stroke="black" fill="none" stroke-linecap="round"></path><path d="M 305.124,280.401 C 305.684,294.800 305.336,294.852 306.722,309.180" stroke-width="4.500" stroke="black" fill="none" stroke-linecap="round"></path><path d="M 306.722,309.180 C 307.733,319.634 307.597,319.747 309.918,329.964" stroke-width="4.500" stroke="black" fill="none" stroke-linecap="round"></path><path d="M 309.918,329.964 C 311.592,337.334 311.658,337.480 314.712,344.354" stroke-width="4.500" stroke="black" fill="none" stroke-linecap="round"></path><path d="M 314.712,344.354 C 316.452,348.272 316.270,350.038 319.506,351.548" stroke-width="5.325" stroke="black" fill="none" stroke-linecap="round"></path><path d="M 319.506,351.548 C 322.263,352.836 324.320,352.440 326.697,349.950" stroke-width="6.645" stroke="black" fill="none" stroke-linecap="round"></path><path d="M 326.697,349.950 C 332.710,343.647 331.607,342.022 336.285,333.962" stroke-width="4.803" stroke="black" fill="none" stroke-linecap="round"></path><path d="M 336.285,333.962 C 338.798,329.631 339.532,329.917 341.079,325.168" stroke-width="5.374" stroke="black" fill="none" stroke-linecap="round"></path><path d="M 341.079,325.168 C 351.118,294.344 352.784,294.458 359.456,262.815" stroke-width="4.500" stroke="black" fill="none" stroke-linecap="round"></path><path d="M 359.456,262.815 C 363.571,243.296 362.652,242.819 362.652,222.844" stroke-width="4.500" stroke="black" fill="none" stroke-linecap="round"></path><path d="M 362.652,222.844 C 362.652,205.647 362.419,205.411 359.456,188.470" stroke-width="4.500" stroke="black" fill="none" stroke-linecap="round"></path><path d="M 359.456,188.470 C 356.826,173.435 355.785,173.585 351.466,158.892" stroke-width="4.500" stroke="black" fill="none" stroke-linecap="round"></path><path d="M 351.466,158.892 C 347.795,146.405 346.852,146.659 343.476,134.111" stroke-width="4.500" stroke="black" fill="none" stroke-linecap="round"></path><path d="M 343.476,134.111 C 341.259,125.875 342.278,125.605 340.280,117.323" stroke-width="4.500" stroke="black" fill="none" stroke-linecap="round"></path><path d="M 340.280,117.323 C 339.481,114.013 337.666,111.361 337.883,110.928" stroke-width="5.502" stroke="black" fill="none" stroke-linecap="round"></path><path d="M 337.883,110.928 C 338.066,110.562 340.177,113.018 341.079,115.724" stroke-width="6.302" stroke="black" fill="none" stroke-linecap="round"></path><path d="M 341.079,115.724 C 344.172,125.009 343.781,125.250 345.873,134.910" stroke-width="5.861" stroke="black" fill="none" stroke-linecap="round"></path><path d="M 345.873,134.910 C 348.974,149.232 348.812,149.273 351.466,163.689" stroke-width="4.500" stroke="black" fill="none" stroke-linecap="round"></path><path d="M 351.466,163.689 C 354.405,179.650 354.262,179.677 357.059,195.665" stroke-width="4.500" stroke="black" fill="none" stroke-linecap="round"></path><path d="M 357.059,195.665 C 359.855,211.653 360.018,211.626 362.652,227.641" stroke-width="4.500" stroke="black" fill="none" stroke-linecap="round"></path><path d="M 362.652,227.641 C 365.211,243.203 365.128,243.217 367.446,258.818" stroke-width="4.500" stroke="black" fill="none" stroke-linecap="round"></path><path d="M 367.446,258.818 C 369.522,272.795 369.689,272.777 371.441,286.797" stroke-width="4.500" stroke="black" fill="none" stroke-linecap="round"></path><path d="M 371.441,286.797 C 372.885,298.358 372.701,298.382 373.838,309.979" stroke-width="4.500" stroke="black" fill="none" stroke-linecap="round"></path><path d="M 373.838,309.979 C 374.699,318.767 374.434,318.798 375.436,327.566" stroke-width="4.500" stroke="black" fill="none" stroke-linecap="round"></path><path d="M 375.436,327.566 C 376.032,332.787 376.254,332.760 377.034,337.959" stroke-width="5.046" stroke="black" fill="none" stroke-linecap="round"></path><path d="M 377.034,337.959 C 377.453,340.754 377.552,344.398 377.833,343.554" stroke-width="6.131" stroke="black" fill="none" stroke-linecap="round"></path><path d="M 377.833,343.554 C 378.351,341.999 378.077,338.342 378.632,333.162" stroke-width="7.204" stroke="black" fill="none" stroke-linecap="round"></path><path d="M 378.632,333.162 C 379.276,327.150 379.431,327.167 380.230,321.171" stroke-width="5.611" stroke="black" fill="none" stroke-linecap="round"></path><path d="M 380.230,321.171 C 381.029,315.176 381.108,315.185 381.828,309.180" stroke-width="5.449" stroke="black" fill="none" stroke-linecap="round"></path><path d="M 381.828,309.180 C 382.306,305.192 382.158,305.175 382.627,301.186" stroke-width="5.897" stroke="black" fill="none" stroke-linecap="round"></path><path d="M 382.627,301.186 C 382.957,298.380 384.147,295.590 383.426,295.590" stroke-width="7.063" stroke="black" fill="none" stroke-linecap="round"></path><path d="M 383.426,295.590 C 382.549,295.590 381.387,298.359 379.431,301.186" stroke-width="7.328" stroke="black" fill="none" stroke-linecap="round"></path><path d="M 379.431,301.186 C 377.791,303.555 377.928,303.654 376.235,305.982" stroke-width="7.027" stroke="black" fill="none" stroke-linecap="round"></path><path d="M 376.235,305.982 C 374.732,308.050 372.145,309.830 373.039,309.979" stroke-width="6.880" stroke="black" fill="none" stroke-linecap="round"></path><path d="M 373.039,309.979 C 374.542,310.230 376.912,307.959 381.029,306.782" stroke-width="7.620" stroke="black" fill="none" stroke-linecap="round"></path><path d="M 381.029,306.782 C 385.302,305.560 385.417,305.183 389.818,305.183" stroke-width="7.268" stroke="black" fill="none" stroke-linecap="round"></path><path d="M 389.818,305.183 C 394.606,305.183 394.641,305.828 399.406,306.782" stroke-width="6.115" stroke="black" fill="none" stroke-linecap="round"></path><path d="M 399.406,306.782 C 410.621,309.026 410.555,309.367 421.778,311.578" stroke-width="4.500" stroke="black" fill="none" stroke-linecap="round"></path><path d="M 421.778,311.578 C 436.922,314.563 437.136,313.642 452.140,317.174" stroke-width="4.500" stroke="black" fill="none" stroke-linecap="round"></path><path d="M 452.140,317.174 C 464.302,320.037 464.768,319.404 476.110,324.369" stroke-width="4.500" stroke="black" fill="none" stroke-linecap="round"></path><path d="M 476.110,324.369 C 483.944,327.798 485.791,327.612 490.492,333.962" stroke-width="4.500" stroke="black" fill="none" stroke-linecap="round"></path><path d="M 490.492,333.962 C 493.781,338.404 494.167,340.930 492.090,345.953" stroke-width="4.871" stroke="black" fill="none" stroke-linecap="round"></path><path d="M 492.090,345.953 C 489.373,352.522 487.180,352.377 480.904,357.144" stroke-width="4.722" stroke="black" fill="none" stroke-linecap="round"></path><path d="M 480.904,357.144 C 465.607,368.764 465.711,369.342 448.944,378.728" stroke-width="4.500" stroke="black" fill="none" stroke-linecap="round"></path><path d="M 448.944,378.728 C 432.153,388.128 431.845,388.018 413.788,394.716" stroke-width="4.500" stroke="black" fill="none" stroke-linecap="round"></path><path d="M 413.788,394.716 C 396.289,401.208 396.022,400.827 377.833,405.108" stroke-width="4.500" stroke="black" fill="none" stroke-linecap="round"></path><path d="M 377.833,405.108 C 362.064,408.821 361.922,409.787 345.873,410.704" stroke-width="4.500" stroke="black" fill="none" stroke-linecap="round"></path><path d="M 345.873,410.704 C 333.957,411.385 333.335,411.341 321.903,408.306" stroke-width="4.500" stroke="black" fill="none" stroke-linecap="round"></path><path d="M 321.903,408.306 C 313.760,406.145 313.022,405.715 306.722,400.312" stroke-width="4.500" stroke="black" fill="none" stroke-linecap="round"></path><path d="M 306.722,400.312 C 301.836,396.123 301.158,395.228 299.531,389.120" stroke-width="4.721" stroke="black" fill="none" stroke-linecap="round"></path><path d="M 299.531,389.120 C 297.962,383.237 298.607,382.238 300.330,376.330" stroke-width="5.001" stroke="black" fill="none" stroke-linecap="round"></path><path d="M 300.330,376.330 C 301.404,372.645 302.245,372.635 305.124,369.935" stroke-width="5.662" stroke="black" fill="none" stroke-linecap="round"></path><path d="M 305.124,369.935 C 308.637,366.639 308.775,366.545 313.114,364.339" stroke-width="5.783" stroke="black" fill="none" stroke-linecap="round"></path><path d="M 313.114,364.339 C 333.145,354.154 332.912,353.161 353.863,345.153" stroke-width="4.500" stroke="black" fill="none" stroke-linecap="round"></path><path d="M 353.863,345.153 C 368.467,339.571 369.020,341.065 384.225,337.159" stroke-width="4.500" stroke="black" fill="none" stroke-linecap="round"></path><path d="M 384.225,337.159 C 398.583,333.471 398.607,333.562 412.989,329.964" stroke-width="4.500" stroke="black" fill="none" stroke-linecap="round"></path><path d="M 412.989,329.964 C 424.175,327.167 424.351,327.721 435.361,324.369" stroke-width="4.500" stroke="black" fill="none" stroke-linecap="round"></path><path d="M 435.361,324.369 C 442.728,322.125 442.768,322.013 449.743,318.773" stroke-width="4.500" stroke="black" fill="none" stroke-linecap="round"></path><path d="M 449.743,318.773 C 453.954,316.816 454.591,317.119 457.733,313.976" stroke-width="5.335" stroke="black" fill="none" stroke-linecap="round"></path><path d="M 457.733,313.976 C 459.785,311.923 460.880,310.633 460.130,308.381" stroke-width="6.113" stroke="black" fill="none" stroke-linecap="round"></path><path d="M 460.130,308.381 C 459.282,305.837 457.597,305.812 454.537,304.384" stroke-width="7.013" stroke="black" fill="none" stroke-linecap="round"></path><path d="M 454.537,304.384 C 451.604,303.014 451.386,303.325 448.145,302.785" stroke-width="6.636" stroke="black" fill="none" stroke-linecap="round"></path><path d="M 448.145,302.785 C 444.195,302.126 444.070,301.496 440.155,301.985" stroke-width="6.261" stroke="black" fill="none" stroke-linecap="round"></path><path d="M 440.155,301.985 C 434.482,302.695 433.963,302.685 428.969,305.183" stroke-width="6.566" stroke="black" fill="none" stroke-linecap="round"></path><path d="M 428.969,305.183 C 426.772,306.282 425.413,309.180 425.773,309.180" stroke-width="7.398" stroke="black" fill="none" stroke-linecap="round"></path><path d="M 425.773,309.180 C 426.212,309.180 429.099,307.700 430.567,305.183" stroke-width="7.977" stroke="black" fill="none" stroke-linecap="round"></path><path d="M 430.567,305.183 C 431.896,302.904 429.759,300.994 431.366,299.587" stroke-width="7.769" stroke="black" fill="none" stroke-linecap="round"></path><path d="M 431.366,299.587 C 432.955,298.196 434.743,298.187 436.959,299.587" stroke-width="8.288" stroke="black" fill="none" stroke-linecap="round"></path><path d="M 436.959,299.587 C 442.333,302.983 442.130,304.054 446.547,309.180" stroke-width="5.681" stroke="black" fill="none" stroke-linecap="round"></path><path d="M 446.547,309.180 C 452.117,315.645 452.152,315.698 456.934,322.770" stroke-width="4.788" stroke="black" fill="none" stroke-linecap="round"></path><path d="M 456.934,322.770 C 461.341,329.288 461.584,329.260 464.924,336.360" stroke-width="4.705" stroke="black" fill="none" stroke-linecap="round"></path><path d="M 464.924,336.360 C 467.976,342.850 467.980,342.996 469.718,349.950" stroke-width="4.820" stroke="black" fill="none" stroke-linecap="round"></path><path d="M 469.718,349.950 C 471.176,355.787 471.076,355.936 471.316,361.941" stroke-width="5.119" stroke="black" fill="none" stroke-linecap="round"></path><path d="M 471.316,361.941 C 471.475,365.928 471.522,366.081 470.517,369.935" stroke-width="5.776" stroke="black" fill="none" stroke-linecap="round"></path><path d="M 470.517,369.935 C 469.125,375.275 469.074,375.417 466.522,380.327" stroke-width="5.535" stroke="black" fill="none" stroke-linecap="round"></path><path d="M 466.522,380.327 C 463.880,385.410 463.831,385.563 460.130,389.920" stroke-width="5.414" stroke="black" fill="none" stroke-linecap="round"></path><path d="M 460.130,389.920 C 457.040,393.557 456.966,394.048 452.939,396.315" stroke-width="5.643" stroke="black" fill="none" stroke-linecap="round"></path><path d="M 452.939,396.315 C 450.574,397.646 449.652,397.953 447.346,397.114" stroke-width="6.437" stroke="black" fill="none" stroke-linecap="round"></path><path d="M 447.346,397.114 C 445.257,396.354 444.939,395.487 444.150,393.117" stroke-width="6.700" stroke="black" fill="none" stroke-linecap="round"></path><path d="M 444.150,393.117 C 442.143,387.093 442.469,386.779 441.753,380.327" stroke-width="5.492" stroke="black" fill="none" stroke-linecap="round"></path><path d="M 441.753,380.327 C 440.871,372.390 440.754,372.318 440.954,364.339" stroke-width="4.863" stroke="black" fill="none" stroke-linecap="round"></path><path d="M 440.954,364.339 C 441.154,356.330 441.418,356.295 442.552,348.351" stroke-width="4.695" stroke="black" fill="none" stroke-linecap="round"></path><path d="M 442.552,348.351 C 443.415,342.305 443.184,342.161 444.949,336.360" stroke-width="5.060" stroke="black" fill="none" stroke-linecap="round"></path><path d="M 444.949,336.360 C 445.981,332.968 445.623,331.857 448.145,329.964" stroke-width="5.954" stroke="black" fill="none" stroke-linecap="round"></path><path d="M 448.145,329.964 C 450.417,328.259 451.672,328.162 454.537,329.165" stroke-width="6.270" stroke="black" fill="none" stroke-linecap="round"></path><path d="M 454.537,329.165 C 459.662,330.960 459.370,332.306 464.125,335.560" stroke-width="6.580" stroke="black" fill="none" stroke-linecap="round"></path><path d="M 464.125,335.560 C 466.961,337.502 466.831,337.700 469.718,339.557" stroke-width="6.459" stroke="black" fill="none" stroke-linecap="round"></path><path d="M 469.718,339.557 C 472.424,341.298 472.403,342.755 475.311,342.755" stroke-width="6.506" stroke="black" fill="none" stroke-linecap="round"></path><path d="M 475.311,342.755 C 479.195,342.755 480.654,342.537 483.301,339.557" stroke-width="6.965" stroke="black" fill="none" stroke-linecap="round"></path><path d="M 483.301,339.557 C 487.046,335.342 486.476,334.196 488.095,328.366" stroke-width="5.664" stroke="black" fill="none" stroke-linecap="round"></path><path d="M 488.095,328.366 C 490.471,319.806 490.228,319.640 491.291,310.779" stroke-width="4.705" stroke="black" fill="none" stroke-linecap="round"></path><path d="M 491.291,310.779 C 492.625,299.655 492.889,299.591 492.889,288.396" stroke-width="4.500" stroke="black" fill="none" stroke-linecap="round"></path><path d="M 492.889,288.396 C 492.889,275.609 492.565,275.559 491.291,262.815" stroke-width="4.500" stroke="black" fill="none" stroke-linecap="round"></path><path d="M 491.291,262.815 C 489.768,247.580 489.978,247.503 487.296,232.437" stroke-width="4.500" stroke="black" fill="none" stroke-linecap="round"></path><path d="M 487.296,232.437 C 484.784,218.325 484.382,218.377 480.904,204.458" stroke-width="4.500" stroke="black" fill="none" stroke-linecap="round"></path><path d="M 480.904,204.458 C 477.990,192.796 477.942,192.796 474.512,181.275" stroke-width="4.500" stroke="black" fill="none" stroke-linecap="round"></path><path d="M 474.512,181.275 C 472.349,174.010 472.115,174.081 469.718,166.886" stroke-width="4.500" stroke="black" fill="none" stroke-linecap="round"></path><path d="M 469.718,166.886 C 468.519,163.289 467.488,159.022 467.321,159.692" stroke-width="5.502" stroke="black" fill="none" stroke-linecap="round"></path><path d="M 467.321,159.692 C 467.089,160.620 468.396,164.856 468.919,170.084" stroke-width="6.755" stroke="black" fill="none" stroke-linecap="round"></path><path d="M 468.919,170.084 C 469.994,180.844 469.687,180.878 470.517,191.668" stroke-width="4.500" stroke="black" fill="none" stroke-linecap="round"></path><path d="M 470.517,191.668 C 471.685,206.859 471.212,206.912 472.914,222.045" stroke-width="4.500" stroke="black" fill="none" stroke-linecap="round"></path><path d="M 472.914,222.045 C 474.808,238.888 474.823,238.917 477.708,255.620" stroke-width="4.500" stroke="black" fill="none" stroke-linecap="round"></path><path d="M 477.708,255.620 C 480.416,271.293 479.943,271.476 484.100,286.797" stroke-width="4.500" stroke="black" fill="none" stroke-linecap="round"></path><path d="M 484.100,286.797 C 487.534,299.455 487.781,299.499 492.889,311.578" stroke-width="4.500" stroke="black" fill="none" stroke-linecap="round"></path><path d="M 492.889,311.578 C 496.570,320.283 496.230,320.782 501.678,328.366" stroke-width="4.500" stroke="black" fill="none" stroke-linecap="round"></path><path d="M 501.678,328.366 C 505.418,333.572 506.145,333.200 511.266,337.159" stroke-width="4.671" stroke="black" fill="none" stroke-linecap="round"></path><path d="M 511.266,337.159 C 514.934,339.995 515.186,339.693 519.256,341.956" stroke-width="5.416" stroke="black" fill="none" stroke-linecap="round"></path><path d="M 519.256,341.956 C 522.377,343.690 522.994,342.941 525.648,345.153" stroke-width="6.029" stroke="black" fill="none" stroke-linecap="round"></path></svg>