<svg xmlns="http://www.w3.org/2000/svg" xmlns:xlink="http://www.w3.org/1999/xlink" viewBox="0 0 576 416" width="576" height="416"><path d="M 38.257,187.227 C 42.652,188.027 42.691,187.858 47.046,188.826" stroke-width="8.728" stroke="black" fill="none" stroke-linecap="round"></path><path d="M 47.046,188.826 C 49.882,189.456 49.786,189.921 52.639,190.425" stroke-width="7.945" stroke="black" fill="none" stroke-linecap="round"></path><path d="M 52.639,190.425 C 56.578,191.120 56.634,190.824 60.629,191.224" stroke-width="7.405" stroke="black" fill="none" stroke-linecap="round"></path><path d="M 60.629,191.224 C 64.624,191.624 64.615,191.813 68.619,192.024" stroke-width="7.288" stroke="black" fill="none" stroke-linecap="round"></path><path d="M 68.619,192.024 C 72.205,192.212 72.215,192.024 75.810,192.024" stroke-width="7.359" stroke="black" fill="none" stroke-linecap="round"></path><path d="M 75.810,192.024 C 78.607,192.024 78.607,192.024 81.403,192.024" stroke-width="7.568" stroke="black" fill="none" stroke-linecap="round"></path><path d="M 81.403,192.024 C 84.599,192.024 84.599,192.024 87.795,192.024" stroke-width="7.839" stroke="black" fill="none" stroke-linecap="round"></path><path d="M 87.795,192.024 C 90.592,192.024 92.459,190.319 93.388,192.024" stroke-width="8.297" stroke="black" fill="none" stroke-linecap="round"></path><path d="M 93.388,192.024 C 94.856,194.715 93.535,196.558 92.589,200.817" stroke-width="8.476" stroke="black" fill="none" stroke-linecap="round"></path><path d="M 92.589,200.817 C 91.937,203.753 91.620,203.735 90.192,206.413" stroke-width="7.170" stroke="black" fill="none" stroke-linecap="round"></path><path d="M 90.192,206.413 C 88.424,209.730 87.956,209.484 86.197,212.808" stroke-width="6.488" stroke="black" fill="none" stroke-linecap="round"></path><path d="M 86.197,212.808 C 84.361,216.279 84.838,216.532 83.001,220.003" stroke-width="6.162" stroke="black" fill="none" stroke-linecap="round"></path><path d="M 83.001,220.003 C 81.242,223.327 80.917,223.149 79.006,226.398" stroke-width="6.213" stroke="black" fill="none" stroke-linecap="round"></path><path d="M 79.006,226.398 C 76.921,229.944 76.849,229.915 75.011,233.592" stroke-width="6.108" stroke="black" fill="none" stroke-linecap="round"></path><path d="M 75.011,233.592 C 73.253,237.110 73.573,237.270 71.815,240.787" stroke-width="6.138" stroke="black" fill="none" stroke-linecap="round"></path><path d="M 71.815,240.787 C 69.978,244.464 69.818,244.384 67.820,247.982" stroke-width="6.165" stroke="black" fill="none" stroke-linecap="round"></path><path d="M 67.820,247.982 C 65.823,251.579 65.968,251.668 63.825,255.176" stroke-width="6.094" stroke="black" fill="none" stroke-linecap="round"></path><path d="M 63.825,255.176 C 61.574,258.862 61.428,258.774 59.031,262.371" stroke-width="5.916" stroke="black" fill="none" stroke-linecap="round"></path><path d="M 59.031,262.371 C 56.634,265.968 56.584,265.936 54.237,269.566" stroke-width="5.951" stroke="black" fill="none" stroke-linecap="round"></path><path d="M 54.237,269.566 C 52.190,272.731 52.240,272.763 50.242,275.961" stroke-width="6.147" stroke="black" fill="none" stroke-linecap="round"></path><path d="M 50.242,275.961 C 48.245,279.159 48.186,279.123 46.247,282.356" stroke-width="6.208" stroke="black" fill="none" stroke-linecap="round"></path><path d="M 46.247,282.356 C 44.590,285.119 44.684,285.175 43.051,287.952" stroke-width="6.496" stroke="black" fill="none" stroke-linecap="round"></path><path d="M 43.051,287.952 C 40.689,291.969 40.540,291.886 38.257,295.946" stroke-width="6.853" stroke="black" fill="none" stroke-linecap="round"></path><path d="M 38.257,295.946 C 36.944,298.281 35.261,298.943 35.860,300.742" stroke-width="7.473" stroke="black" fill="none" stroke-linecap="round"></path><path d="M 35.860,300.742 C 36.459,302.541 38.081,302.686 40.654,303.141" stroke-width="8.288" stroke="black" fill="none" stroke-linecap="round"></path><path d="M 40.654,303.141 C 44.873,303.885 45.049,303.141 49.443,303.141" stroke-width="7.458" stroke="black" fill="none" stroke-linecap="round"></path><path d="M 49.443,303.141 C 52.639,303.141 52.639,303.141 55.835,303.141" stroke-width="6.867" stroke="black" fill="none" stroke-linecap="round"></path><path d="M 55.835,303.141 C 59.431,303.141 59.439,303.320 63.026,303.141" stroke-width="6.478" stroke="black" fill="none" stroke-linecap="round"></path><path d="M 63.026,303.141 C 67.429,302.920 67.411,302.533 71.815,302.341" stroke-width="5.988" stroke="black" fill="none" stroke-linecap="round"></path><path d="M 71.815,302.341 C 76.600,302.133 76.619,302.549 81.403,302.341" stroke-width="5.823" stroke="black" fill="none" stroke-linecap="round"></path><path d="M 81.403,302.341 C 85.807,302.150 85.789,301.752 90.192,301.542" stroke-width="5.894" stroke="black" fill="none" stroke-linecap="round"></path><path d="M 90.192,301.542 C 94.179,301.352 94.199,301.752 98.182,301.542" stroke-width="6.052" stroke="black" fill="none" stroke-linecap="round"></path><path d="M 98.182,301.542 C 101.789,301.352 101.781,301.165 105.373,300.742" stroke-width="6.232" stroke="black" fill="none" stroke-linecap="round"></path><path d="M 105.373,300.742 C 108.572,300.366 108.567,300.320 111.765,299.943" stroke-width="6.504" stroke="black" fill="none" stroke-linecap="round"></path><path d="M 182.876,279.159 C 178.082,276.361 178.275,275.949 173.288,273.563" stroke-width="8.465" stroke="black" fill="none" stroke-linecap="round"></path><path d="M 173.288,273.563 C 169.087,271.552 168.908,271.922 164.499,270.365" stroke-width="7.429" stroke="black" fill="none" stroke-linecap="round"></path><path d="M 164.499,270.365 C 162.117,269.524 162.157,269.332 159.705,268.766" stroke-width="7.078" stroke="black" fill="none" stroke-linecap="round"></path><path d="M 159.705,268.766 C 156.964,268.133 156.923,268.168 154.112,267.967" stroke-width="6.917" stroke="black" fill="none" stroke-linecap="round"></path><path d="M 154.112,267.967 C 151.330,267.768 151.316,267.967 148.519,267.967" stroke-width="6.741" stroke="black" fill="none" stroke-linecap="round"></path><path d="M 148.519,267.967 C 144.924,267.967 144.829,267.383 141.328,267.967" stroke-width="7.182" stroke="black" fill="none" stroke-linecap="round"></path><path d="M 141.328,267.967 C 137.638,268.582 137.443,268.614 134.137,270.365" stroke-width="7.277" stroke="black" fill="none" stroke-linecap="round"></path><path d="M 134.137,270.365 C 130.652,272.211 130.240,272.212 127.745,275.162" stroke-width="7.284" stroke="black" fill="none" stroke-linecap="round"></path><path d="M 127.745,275.162 C 125.845,277.408 126.000,277.821 125.348,280.757" stroke-width="6.950" stroke="black" fill="none" stroke-linecap="round"></path><path d="M 125.348,280.757 C 124.402,285.016 124.359,285.176 124.549,289.551" stroke-width="7.085" stroke="black" fill="none" stroke-linecap="round"></path><path d="M 124.549,289.551 C 124.759,294.369 124.690,294.561 126.147,299.144" stroke-width="7.086" stroke="black" fill="none" stroke-linecap="round"></path><path d="M 126.147,299.144 C 127.487,303.355 127.515,303.632 130.142,307.138" stroke-width="7.050" stroke="black" fill="none" stroke-linecap="round"></path><path d="M 130.142,307.138 C 132.309,310.028 132.610,310.147 135.735,311.934" stroke-width="7.289" stroke="black" fill="none" stroke-linecap="round"></path><path d="M 135.735,311.934 C 138.203,313.345 138.930,314.271 141.328,313.533" stroke-width="7.824" stroke="black" fill="none" stroke-linecap="round"></path><path d="M 141.328,313.533 C 144.124,312.672 143.940,311.317 146.122,308.736" stroke-width="8.073" stroke="black" fill="none" stroke-linecap="round"></path><path d="M 146.122,308.736 C 148.335,306.120 148.171,305.974 150.117,303.141" stroke-width="7.679" stroke="black" fill="none" stroke-linecap="round"></path><path d="M 150.117,303.141 C 152.565,299.578 152.820,299.712 154.911,295.946" stroke-width="7.288" stroke="black" fill="none" stroke-linecap="round"></path><path d="M 154.911,295.946 C 156.815,292.517 156.423,292.308 158.107,288.751" stroke-width="7.302" stroke="black" fill="none" stroke-linecap="round"></path><path d="M 158.107,288.751 C 160.019,284.714 160.013,284.705 162.102,280.757" stroke-width="7.178" stroke="black" fill="none" stroke-linecap="round"></path><path d="M 162.102,280.757 C 163.609,277.910 163.772,277.998 165.298,275.162" stroke-width="7.445" stroke="black" fill="none" stroke-linecap="round"></path><path d="M 165.298,275.162 C 166.568,272.802 167.056,269.725 167.695,270.365" stroke-width="7.931" stroke="black" fill="none" stroke-linecap="round"></path><path d="M 167.695,270.365 C 168.654,271.324 167.778,274.417 168.494,278.359" stroke-width="8.215" stroke="black" fill="none" stroke-linecap="round"></path><path d="M 168.494,278.359 C 169.376,283.211 169.644,283.168 170.891,287.952" stroke-width="7.304" stroke="black" fill="none" stroke-linecap="round"></path><path d="M 170.891,287.952 C 172.041,292.361 171.291,292.748 173.288,296.745" stroke-width="7.126" stroke="black" fill="none" stroke-linecap="round"></path><path d="M 173.288,296.745 C 175.286,300.742 175.296,301.619 178.881,303.940" stroke-width="7.106" stroke="black" fill="none" stroke-linecap="round"></path><path d="M 209.243,271.165 C 209.243,275.561 209.419,275.568 209.243,279.958" stroke-width="8.581" stroke="black" fill="none" stroke-linecap="round"></path><path d="M 209.243,279.958 C 209.019,285.560 208.976,285.568 208.444,291.150" stroke-width="7.225" stroke="black" fill="none" stroke-linecap="round"></path><path d="M 208.444,291.150 C 208.177,293.962 207.846,293.933 207.645,296.745" stroke-width="6.889" stroke="black" fill="none" stroke-linecap="round"></path><path d="M 207.645,296.745 C 207.447,299.529 207.645,299.543 207.645,302.341" stroke-width="6.806" stroke="black" fill="none" stroke-linecap="round"></path><path d="M 207.645,302.341 C 207.645,306.738 207.645,306.738 207.645,311.135" stroke-width="7.044" stroke="black" fill="none" stroke-linecap="round"></path><circle r="3" cx="214.03744506835938" cy="245.51022338867188" fill="black"></circle><path d="M 254.787,268.693 C 254.787,272.290 255.010,272.306 254.787,275.888" stroke-width="8.538" stroke="black" fill="none" stroke-linecap="round"></path><path d="M 254.787,275.888 C 254.611,278.701 254.188,278.671 253.988,281.483" stroke-width="7.206" stroke="black" fill="none" stroke-linecap="round"></path><path d="M 253.988,281.483 C 253.789,284.267 254.186,284.295 253.988,287.079" stroke-width="6.896" stroke="black" fill="none" stroke-linecap="round"></path><path d="M 253.988,287.079 C 253.787,289.891 253.588,289.877 253.189,292.675" stroke-width="6.796" stroke="black" fill="none" stroke-linecap="round"></path><path d="M 253.189,292.675 C 252.789,295.473 252.789,295.473 252.390,298.271" stroke-width="6.833" stroke="black" fill="none" stroke-linecap="round"></path><path d="M 252.390,298.271 C 251.990,301.069 251.791,301.055 251.591,303.867" stroke-width="7.384" stroke="black" fill="none" stroke-linecap="round"></path><path d="M 251.591,303.867 C 251.392,306.650 251.392,309.462 251.591,309.462" stroke-width="7.575" stroke="black" fill="none" stroke-linecap="round"></path><path d="M 251.591,309.462 C 251.791,309.462 251.990,306.665 252.390,303.867" stroke-width="8.092" stroke="black" fill="none" stroke-linecap="round"></path><path d="M 252.390,303.867 C 252.789,301.069 252.598,301.028 253.189,298.271" stroke-width="7.107" stroke="black" fill="none" stroke-linecap="round"></path><path d="M 253.189,298.271 C 253.797,295.432 253.988,295.473 254.787,292.675" stroke-width="6.744" stroke="black" fill="none" stroke-linecap="round"></path><path d="M 254.787,292.675 C 255.586,289.877 255.635,289.890 256.385,287.079" stroke-width="6.784" stroke="black" fill="none" stroke-linecap="round"></path><path d="M 256.385,287.079 C 257.233,283.895 257.001,283.825 257.983,280.684" stroke-width="6.572" stroke="black" fill="none" stroke-linecap="round"></path><path d="M 257.983,280.684 C 258.999,277.430 258.863,277.324 260.380,274.289" stroke-width="6.465" stroke="black" fill="none" stroke-linecap="round"></path><path d="M 260.380,274.289 C 261.659,271.728 261.902,271.837 263.576,269.492" stroke-width="6.708" stroke="black" fill="none" stroke-linecap="round"></path><path d="M 263.576,269.492 C 265.897,266.241 265.494,263.982 268.370,263.097" stroke-width="7.075" stroke="black" fill="none" stroke-linecap="round"></path><path d="M 268.370,263.097 C 270.687,262.384 271.930,263.948 273.963,266.295" stroke-width="7.840" stroke="black" fill="none" stroke-linecap="round"></path><path d="M 273.963,266.295 C 277.123,269.943 276.520,270.613 278.757,275.088" stroke-width="7.197" stroke="black" fill="none" stroke-linecap="round"></path><path d="M 278.757,275.088 C 280.116,277.808 280.024,277.858 281.154,280.684" stroke-width="6.788" stroke="black" fill="none" stroke-linecap="round"></path><path d="M 281.154,280.684 C 282.421,283.854 282.415,283.859 283.551,287.079" stroke-width="6.527" stroke="black" fill="none" stroke-linecap="round"></path><path d="M 283.551,287.079 C 284.812,290.654 285.130,290.593 285.948,294.274" stroke-width="6.312" stroke="black" fill="none" stroke-linecap="round"></path><path d="M 285.948,294.274 C 286.728,297.788 286.119,297.912 286.747,301.468" stroke-width="6.386" stroke="black" fill="none" stroke-linecap="round"></path><path d="M 286.747,301.468 C 287.318,304.707 287.699,304.636 288.345,307.864" stroke-width="6.378" stroke="black" fill="none" stroke-linecap="round"></path><path d="M 288.345,307.864 C 288.898,310.631 288.814,310.653 289.144,313.460" stroke-width="6.637" stroke="black" fill="none" stroke-linecap="round"></path><path d="M 289.144,313.460 C 289.613,317.448 289.474,317.465 289.943,321.454" stroke-width="7.074" stroke="black" fill="none" stroke-linecap="round"></path><path d="M 331.491,275.888 C 330.292,272.290 331.446,271.243 329.094,268.693" stroke-width="8.586" stroke="black" fill="none" stroke-linecap="round"></path><path d="M 329.094,268.693 C 326.652,266.047 325.685,266.216 321.903,265.495" stroke-width="7.650" stroke="black" fill="none" stroke-linecap="round"></path><path d="M 321.903,265.495 C 317.295,264.617 316.958,264.762 312.315,265.495" stroke-width="7.198" stroke="black" fill="none" stroke-linecap="round"></path><path d="M 312.315,265.495 C 309.368,265.961 309.286,266.315 306.722,267.894" stroke-width="6.861" stroke="black" fill="none" stroke-linecap="round"></path><path d="M 306.722,267.894 C 304.092,269.513 304.127,269.690 301.928,271.891" stroke-width="6.586" stroke="black" fill="none" stroke-linecap="round"></path><path d="M 301.928,271.891 C 298.934,274.886 298.254,274.686 296.335,278.286" stroke-width="6.976" stroke="black" fill="none" stroke-linecap="round"></path><path d="M 296.335,278.286 C 295.058,280.681 295.684,281.066 295.536,283.882" stroke-width="6.745" stroke="black" fill="none" stroke-linecap="round"></path><path d="M 295.536,283.882 C 295.284,288.660 294.363,288.977 295.536,293.474" stroke-width="6.935" stroke="black" fill="none" stroke-linecap="round"></path><path d="M 295.536,293.474 C 296.760,298.170 297.568,298.123 300.330,302.268" stroke-width="6.086" stroke="black" fill="none" stroke-linecap="round"></path><path d="M 300.330,302.268 C 302.362,305.317 302.528,305.267 305.124,307.864" stroke-width="6.220" stroke="black" fill="none" stroke-linecap="round"></path><path d="M 305.124,307.864 C 307.322,310.063 307.288,310.242 309.918,311.861" stroke-width="6.537" stroke="black" fill="none" stroke-linecap="round"></path><path d="M 309.918,311.861 C 312.481,313.439 312.651,313.237 315.511,314.259" stroke-width="6.600" stroke="black" fill="none" stroke-linecap="round"></path><path d="M 315.511,314.259 C 318.244,315.236 318.260,315.668 321.104,315.858" stroke-width="6.674" stroke="black" fill="none" stroke-linecap="round"></path><path d="M 321.104,315.858 C 324.253,316.068 324.655,316.276 327.496,315.058" stroke-width="7.274" stroke="black" fill="none" stroke-linecap="round"></path><path d="M 327.496,315.058 C 330.248,313.878 330.666,313.588 332.290,311.061" stroke-width="7.502" stroke="black" fill="none" stroke-linecap="round"></path><path d="M 332.290,311.061 C 334.262,307.992 333.488,307.464 334.687,303.867" stroke-width="7.401" stroke="black" fill="none" stroke-linecap="round"></path><path d="M 334.687,303.867 C 335.486,301.468 335.848,301.544 336.285,299.070" stroke-width="7.135" stroke="black" fill="none" stroke-linecap="round"></path><path d="M 336.285,299.070 C 337.047,294.749 336.622,294.667 337.084,290.277" stroke-width="7.111" stroke="black" fill="none" stroke-linecap="round"></path><path d="M 337.084,290.277 C 337.421,287.072 337.447,283.011 337.883,283.882" stroke-width="7.423" stroke="black" fill="none" stroke-linecap="round"></path><path d="M 337.883,283.882 C 338.646,285.409 338.970,289.457 339.481,295.073" stroke-width="8.022" stroke="black" fill="none" stroke-linecap="round"></path><path d="M 339.481,295.073 C 339.769,298.250 339.282,298.283 339.481,301.468" stroke-width="6.924" stroke="black" fill="none" stroke-linecap="round"></path><path d="M 339.481,301.468 C 339.681,304.678 339.854,304.670 340.280,307.864" stroke-width="6.640" stroke="black" fill="none" stroke-linecap="round"></path><path d="M 340.280,307.864 C 340.653,310.665 340.446,310.717 341.079,313.460" stroke-width="6.720" stroke="black" fill="none" stroke-linecap="round"></path><path d="M 341.079,313.460 C 341.645,315.913 341.827,315.876 342.677,318.256" stroke-width="6.870" stroke="black" fill="none" stroke-linecap="round"></path><path d="M 358.657,218.331 C 358.257,214.333 358.068,214.343 357.858,210.336" stroke-width="8.217" stroke="black" fill="none" stroke-linecap="round"></path><path d="M 357.858,210.336 C 357.669,206.749 357.858,206.739 357.858,203.142" stroke-width="7.648" stroke="black" fill="none" stroke-linecap="round"></path><path d="M 357.858,203.142 C 357.858,200.344 357.339,196.638 357.858,197.546" stroke-width="7.704" stroke="black" fill="none" stroke-linecap="round"></path><path d="M 357.858,197.546 C 358.937,199.435 359.644,203.095 361.054,208.738" stroke-width="7.951" stroke="black" fill="none" stroke-linecap="round"></path><path d="M 361.054,208.738 C 362.440,214.287 362.195,214.346 363.451,219.929" stroke-width="5.843" stroke="black" fill="none" stroke-linecap="round"></path><path d="M 363.451,219.929 C 365.791,230.334 366.062,230.278 368.245,240.714" stroke-width="4.715" stroke="black" fill="none" stroke-linecap="round"></path><path d="M 368.245,240.714 C 369.657,247.465 369.443,247.509 370.642,254.304" stroke-width="4.889" stroke="black" fill="none" stroke-linecap="round"></path><path d="M 370.642,254.304 C 371.840,261.099 371.805,261.105 373.039,267.894" stroke-width="4.944" stroke="black" fill="none" stroke-linecap="round"></path><path d="M 373.039,267.894 C 374.202,274.295 374.401,274.263 375.436,280.684" stroke-width="5.051" stroke="black" fill="none" stroke-linecap="round"></path><path d="M 375.436,280.684 C 376.398,286.653 376.179,286.688 377.034,292.675" stroke-width="5.194" stroke="black" fill="none" stroke-linecap="round"></path><path d="M 377.034,292.675 C 377.777,297.879 377.732,297.889 378.632,303.067" stroke-width="5.445" stroke="black" fill="none" stroke-linecap="round"></path><path d="M 378.632,303.067 C 379.330,307.082 379.346,307.083 380.230,311.061" stroke-width="5.877" stroke="black" fill="none" stroke-linecap="round"></path><path d="M 380.230,311.061 C 380.944,314.278 381.257,314.218 381.828,317.457" stroke-width="6.290" stroke="black" fill="none" stroke-linecap="round"></path><path d="M 381.828,317.457 C 382.455,321.013 382.463,325.308 382.627,324.651" stroke-width="7.041" stroke="black" fill="none" stroke-linecap="round"></path><path d="M 382.627,324.651 C 382.862,323.709 382.627,319.455 382.627,314.259" stroke-width="7.724" stroke="black" fill="none" stroke-linecap="round"></path><path d="M 382.627,314.259 C 382.627,311.061 382.627,311.061 382.627,307.864" stroke-width="6.855" stroke="black" fill="none" stroke-linecap="round"></path><path d="M 382.627,307.864 C 382.627,304.266 382.438,304.257 382.627,300.669" stroke-width="6.389" stroke="black" fill="none" stroke-linecap="round"></path><path d="M 382.627,300.669 C 382.837,296.663 382.801,296.636 383.426,292.675" stroke-width="6.010" stroke="black" fill="none" stroke-linecap="round"></path><path d="M 383.426,292.675 C 383.999,289.042 383.987,289.007 385.024,285.480" stroke-width="6.115" stroke="black" fill="none" stroke-linecap="round"></path><path d="M 385.024,285.480 C 385.984,282.212 385.828,282.073 387.421,279.085" stroke-width="6.326" stroke="black" fill="none" stroke-linecap="round"></path><path d="M 387.421,279.085 C 389.024,276.077 389.418,276.287 391.416,273.489" stroke-width="6.383" stroke="black" fill="none" stroke-linecap="round"></path><path d="M 391.416,273.489 C 393.413,270.691 393.014,270.292 395.411,267.894" stroke-width="6.401" stroke="black" fill="none" stroke-linecap="round"></path><path d="M 395.411,267.894 C 397.808,265.495 398.037,265.593 401.004,263.896" stroke-width="6.406" stroke="black" fill="none" stroke-linecap="round"></path><path d="M 401.004,263.896 C 403.630,262.395 403.737,262.520 406.597,261.498" stroke-width="6.560" stroke="black" fill="none" stroke-linecap="round"></path><path d="M 406.597,261.498 C 409.330,260.522 409.338,260.307 412.190,259.899" stroke-width="6.661" stroke="black" fill="none" stroke-linecap="round"></path><path d="M 412.190,259.899 C 414.931,259.508 415.127,259.235 417.783,259.899" stroke-width="6.738" stroke="black" fill="none" stroke-linecap="round"></path><path d="M 417.783,259.899 C 421.519,260.834 421.718,261.003 424.974,263.097" stroke-width="7.127" stroke="black" fill="none" stroke-linecap="round"></path><path d="M 424.974,263.097 C 427.311,264.601 427.189,264.917 428.969,267.094" stroke-width="6.862" stroke="black" fill="none" stroke-linecap="round"></path><path d="M 428.969,267.094 C 430.784,269.314 430.805,269.363 432.165,271.891" stroke-width="6.763" stroke="black" fill="none" stroke-linecap="round"></path><path d="M 432.165,271.891 C 433.601,274.560 433.786,274.574 434.562,277.486" stroke-width="6.667" stroke="black" fill="none" stroke-linecap="round"></path><path d="M 434.562,277.486 C 435.384,280.570 435.361,280.687 435.361,283.882" stroke-width="6.568" stroke="black" fill="none" stroke-linecap="round"></path><path d="M 435.361,283.882 C 435.361,286.683 435.174,286.723 434.562,289.477" stroke-width="6.697" stroke="black" fill="none" stroke-linecap="round"></path><path d="M 434.562,289.477 C 433.576,293.918 433.966,294.127 432.165,298.271" stroke-width="6.087" stroke="black" fill="none" stroke-linecap="round"></path><path d="M 432.165,298.271 C 429.971,303.320 429.782,303.367 426.572,307.864" stroke-width="5.622" stroke="black" fill="none" stroke-linecap="round"></path><path d="M 426.572,307.864 C 423.789,311.761 423.665,311.765 420.180,315.058" stroke-width="5.709" stroke="black" fill="none" stroke-linecap="round"></path><path d="M 420.180,315.058 C 416.474,318.560 416.430,318.625 412.190,321.454" stroke-width="5.645" stroke="black" fill="none" stroke-linecap="round"></path><path d="M 412.190,321.454 C 408.041,324.221 407.977,324.288 403.401,326.250" stroke-width="5.658" stroke="black" fill="none" stroke-linecap="round"></path><path d="M 403.401,326.250 C 399.588,327.885 399.442,327.587 395.411,328.648" stroke-width="5.918" stroke="black" fill="none" stroke-linecap="round"></path><path d="M 395.411,328.648 C 391.851,329.585 391.843,329.607 388.220,330.247" stroke-width="6.166" stroke="black" fill="none" stroke-linecap="round"></path><path d="M 388.220,330.247 C 385.051,330.806 385.037,330.857 381.828,331.046" stroke-width="6.414" stroke="black" fill="none" stroke-linecap="round"></path><path d="M 381.828,331.046 C 378.245,331.257 378.232,331.046 374.637,331.046" stroke-width="7.092" stroke="black" fill="none" stroke-linecap="round"></path><path d="M 374.637,331.046 C 371.441,331.046 371.411,330.713 368.245,331.046" stroke-width="7.945" stroke="black" fill="none" stroke-linecap="round"></path><path d="M 368.245,331.046 C 363.820,331.512 363.854,331.869 359.456,332.645" stroke-width="6.394" stroke="black" fill="none" stroke-linecap="round"></path><path d="M 359.456,332.645 C 350.271,334.267 350.216,333.984 341.079,335.843" stroke-width="4.643" stroke="black" fill="none" stroke-linecap="round"></path><path d="M 341.079,335.843 C 326.645,338.780 326.745,339.276 312.315,342.238" stroke-width="4.500" stroke="black" fill="none" stroke-linecap="round"></path><path d="M 312.315,342.238 C 295.584,345.672 295.567,345.610 278.757,348.633" stroke-width="4.500" stroke="black" fill="none" stroke-linecap="round"></path><path d="M 278.757,348.633 C 260.011,352.005 259.935,351.586 241.203,355.029" stroke-width="4.500" stroke="black" fill="none" stroke-linecap="round"></path><path d="M 241.203,355.029 C 220.784,358.781 220.726,358.560 200.454,363.022" stroke-width="4.500" stroke="black" fill="none" stroke-linecap="round"></path><path d="M 200.454,363.022 C 180.776,367.354 180.946,368.112 161.303,372.615" stroke-width="4.500" stroke="black" fill="none" stroke-linecap="round"></path><path d="M 161.303,372.615 C 142.594,376.905 142.494,376.466 123.750,380.609" stroke-width="4.500" stroke="black" fill="none" stroke-linecap="round"></path><path d="M 123.750,380.609 C 108.137,384.060 108.207,384.379 92.589,387.804" stroke-width="4.500" stroke="black" fill="none" stroke-linecap="round"></path><path d="M 92.589,387.804 C 79.044,390.774 78.986,390.508 65.423,393.400" stroke-width="4.500" stroke="black" fill="none" stroke-linecap="round"></path><path d="M 65.423,393.400 C 54.617,395.704 54.565,395.516 43.850,398.196" stroke-width="4.500" stroke="black" fill="none" stroke-linecap="round"></path><path d="M 43.850,398.196 C 35.389,400.313 35.414,400.442 27.071,402.993" stroke-width="4.500" stroke="black" fill="none" stroke-linecap="round"></path><path d="M 27.071,402.993 C 21.032,404.839 21.143,405.222 15.086,406.990" stroke-width="4.826" stroke="black" fill="none" stroke-linecap="round"></path><path d="M 15.086,406.990 C 11.555,408.020 5.182,408.429 7.895,408.588" stroke-width="5.759" stroke="black" fill="none" stroke-linecap="round"></path><path d="M 7.895,408.588 C 25.556,409.628 31.918,410.258 55.835,409.388" stroke-width="6.009" stroke="black" fill="none" stroke-linecap="round"></path><path d="M 55.835,409.388 C 75.863,408.659 75.810,407.389 95.785,405.391" stroke-width="4.500" stroke="black" fill="none" stroke-linecap="round"></path><path d="M 95.785,405.391 C 115.760,403.392 115.764,403.433 135.735,401.394" stroke-width="4.500" stroke="black" fill="none" stroke-linecap="round"></path><path d="M 135.735,401.394 C 154.915,399.436 154.892,399.192 174.087,397.397" stroke-width="4.500" stroke="black" fill="none" stroke-linecap="round"></path><path d="M 174.087,397.397 C 197.639,395.195 197.669,395.519 221.228,393.400" stroke-width="4.500" stroke="black" fill="none" stroke-linecap="round"></path><path d="M 221.228,393.400 C 233.225,392.321 233.202,392.075 245.199,391.002" stroke-width="4.500" stroke="black" fill="none" stroke-linecap="round"></path><path d="M 245.199,391.002 C 282.340,387.678 282.328,387.486 319.506,384.606" stroke-width="4.500" stroke="black" fill="none" stroke-linecap="round"></path><path d="M 319.506,384.606 C 344.251,382.690 344.265,382.843 369.044,381.409" stroke-width="4.500" stroke="black" fill="none" stroke-linecap="round"></path><path d="M 369.044,381.409 C 392.605,380.045 392.608,380.064 416.185,379.011" stroke-width="4.500" stroke="black" fill="none" stroke-linecap="round"></path><path d="M 416.185,379.011 C 437.352,378.065 437.358,378.211 458.532,377.412" stroke-width="4.500" stroke="black" fill="none" stroke-linecap="round"></path></svg>