<svg xmlns="http://www.w3.org/2000/svg" xmlns:xlink="http://www.w3.org/1999/xlink" viewBox="0 0 576 416" width="576" height="416"><path d="M 157.308,193.771 C 159.705,189.375 158.384,188.134 162.102,184.978" stroke-width="8.511" stroke="black" fill="none" stroke-linecap="round"></path><path d="M 162.102,184.978 C 171.568,176.943 172.576,177.635 183.675,171.388" stroke-width="4.500" stroke="black" fill="none" stroke-linecap="round"></path><path d="M 183.675,171.388 C 198.144,163.245 198.232,163.322 213.238,156.200" stroke-width="4.500" stroke="black" fill="none" stroke-linecap="round"></path><path d="M 213.238,156.200 C 229.393,148.533 229.385,148.419 245.998,141.810" stroke-width="4.500" stroke="black" fill="none" stroke-linecap="round"></path><path d="M 245.998,141.810 C 262.543,135.228 262.764,135.780 279.556,129.819" stroke-width="4.500" stroke="black" fill="none" stroke-linecap="round"></path><path d="M 279.556,129.819 C 287.533,126.987 287.453,126.733 295.536,124.223" stroke-width="4.500" stroke="black" fill="none" stroke-linecap="round"></path><path d="M 295.536,124.223 C 310.624,119.538 310.468,118.517 325.898,115.430" stroke-width="4.500" stroke="black" fill="none" stroke-linecap="round"></path><path d="M 325.898,115.430 C 338.433,112.922 338.662,113.481 351.466,113.032" stroke-width="4.500" stroke="black" fill="none" stroke-linecap="round"></path><path d="M 351.466,113.032 C 361.433,112.682 361.858,111.777 371.441,113.831" stroke-width="4.500" stroke="black" fill="none" stroke-linecap="round"></path><path d="M 371.441,113.831 C 378.637,115.374 380.999,114.690 385.024,120.226" stroke-width="4.500" stroke="black" fill="none" stroke-linecap="round"></path><path d="M 385.024,120.226 C 390.587,127.880 390.084,130.357 390.617,140.211" stroke-width="4.500" stroke="black" fill="none" stroke-linecap="round"></path><path d="M 390.617,140.211 C 390.883,145.146 389.609,145.601 386.622,149.804" stroke-width="4.981" stroke="black" fill="none" stroke-linecap="round"></path><path d="M 386.622,149.804 C 376.825,163.588 377.128,164.275 365.049,176.185" stroke-width="4.500" stroke="black" fill="none" stroke-linecap="round"></path><path d="M 365.049,176.185 C 349.562,191.454 348.986,191.133 331.491,204.164" stroke-width="4.500" stroke="black" fill="none" stroke-linecap="round"></path><path d="M 331.491,204.164 C 313.031,217.913 312.786,217.721 293.139,229.745" stroke-width="4.500" stroke="black" fill="none" stroke-linecap="round"></path><path d="M 293.139,229.745 C 271.637,242.903 271.372,242.515 249.194,254.526" stroke-width="4.500" stroke="black" fill="none" stroke-linecap="round"></path><path d="M 249.194,254.526 C 227.826,266.098 227.658,265.790 206.047,276.909" stroke-width="4.500" stroke="black" fill="none" stroke-linecap="round"></path><path d="M 206.047,276.909 C 185.710,287.374 185.711,287.377 165.298,297.694" stroke-width="4.500" stroke="black" fill="none" stroke-linecap="round"></path><path d="M 165.298,297.694 C 146.959,306.963 147.120,307.310 128.544,316.080" stroke-width="4.500" stroke="black" fill="none" stroke-linecap="round"></path><path d="M 128.544,316.080 C 111.565,324.097 111.283,323.494 94.187,331.269" stroke-width="4.500" stroke="black" fill="none" stroke-linecap="round"></path><path d="M 94.187,331.269 C 80.522,337.484 80.839,338.239 67.021,344.059" stroke-width="4.500" stroke="black" fill="none" stroke-linecap="round"></path><path d="M 67.021,344.059 C 58.067,347.831 58.021,348.680 48.644,350.455" stroke-width="4.500" stroke="black" fill="none" stroke-linecap="round"></path><path d="M 48.644,350.455 C 43.240,351.478 41.836,351.961 37.458,349.655" stroke-width="4.814" stroke="black" fill="none" stroke-linecap="round"></path><path d="M 37.458,349.655 C 34.246,347.963 33.202,346.251 33.463,342.461" stroke-width="5.552" stroke="black" fill="none" stroke-linecap="round"></path><path d="M 33.463,342.461 C 34.001,334.659 35.419,334.081 39.056,326.472" stroke-width="5.863" stroke="black" fill="none" stroke-linecap="round"></path><path d="M 39.056,326.472 C 44.208,315.695 44.361,315.624 51.041,305.688" stroke-width="4.500" stroke="black" fill="none" stroke-linecap="round"></path><path d="M 51.041,305.688 C 59.142,293.640 59.320,293.670 68.619,282.505" stroke-width="4.500" stroke="black" fill="none" stroke-linecap="round"></path><path d="M 68.619,282.505 C 77.297,272.086 77.307,271.994 86.996,262.520" stroke-width="4.500" stroke="black" fill="none" stroke-linecap="round"></path><path d="M 86.996,262.520 C 94.885,254.807 94.801,254.482 103.775,248.131" stroke-width="4.500" stroke="black" fill="none" stroke-linecap="round"></path><path d="M 103.775,248.131 C 111.181,242.890 111.327,242.383 119.755,239.337" stroke-width="4.500" stroke="black" fill="none" stroke-linecap="round"></path><path d="M 119.755,239.337 C 125.709,237.187 127.090,235.628 132.539,237.739" stroke-width="4.777" stroke="black" fill="none" stroke-linecap="round"></path><path d="M 132.539,237.739 C 139.475,240.425 139.789,242.416 144.524,248.930" stroke-width="5.615" stroke="black" fill="none" stroke-linecap="round"></path><path d="M 144.524,248.930 C 149.377,255.606 148.841,256.258 151.715,264.119" stroke-width="4.906" stroke="black" fill="none" stroke-linecap="round"></path><path d="M 151.715,264.119 C 154.833,272.646 154.352,272.855 156.509,281.706" stroke-width="4.500" stroke="black" fill="none" stroke-linecap="round"></path><path d="M 156.509,281.706 C 158.347,289.242 158.319,289.263 159.705,296.895" stroke-width="4.607" stroke="black" fill="none" stroke-linecap="round"></path><path d="M 159.705,296.895 C 160.716,302.453 160.540,302.486 161.303,308.086" stroke-width="5.138" stroke="black" fill="none" stroke-linecap="round"></path><path d="M 161.303,308.086 C 161.739,311.279 161.747,314.837 162.102,314.481" stroke-width="6.037" stroke="black" fill="none" stroke-linecap="round"></path><path d="M 162.102,314.481 C 162.546,314.038 162.282,310.453 162.901,306.487" stroke-width="7.317" stroke="black" fill="none" stroke-linecap="round"></path><path d="M 162.901,306.487 C 164.279,297.663 164.629,297.715 166.097,288.900" stroke-width="4.986" stroke="black" fill="none" stroke-linecap="round"></path><path d="M 166.097,288.900 C 167.425,280.928 167.383,280.918 168.494,272.913" stroke-width="4.719" stroke="black" fill="none" stroke-linecap="round"></path><path d="M 168.494,272.913 C 169.381,266.529 169.149,266.495 170.092,260.122" stroke-width="4.992" stroke="black" fill="none" stroke-linecap="round"></path><path d="M 170.092,260.122 C 170.747,255.703 169.281,254.177 171.690,251.329" stroke-width="5.666" stroke="black" fill="none" stroke-linecap="round"></path><path d="M 171.690,251.329 C 173.676,248.981 176.234,248.008 178.881,249.730" stroke-width="6.753" stroke="black" fill="none" stroke-linecap="round"></path><path d="M 178.881,249.730 C 184.224,253.204 183.501,255.574 187.670,261.721" stroke-width="6.401" stroke="black" fill="none" stroke-linecap="round"></path><path d="M 187.670,261.721 C 191.092,266.765 191.164,266.759 194.062,272.113" stroke-width="5.541" stroke="black" fill="none" stroke-linecap="round"></path><path d="M 194.062,272.113 C 196.357,276.352 195.806,276.651 198.057,280.906" stroke-width="5.759" stroke="black" fill="none" stroke-linecap="round"></path><path d="M 198.057,280.906 C 199.401,283.446 200.606,286.869 201.253,285.703" stroke-width="6.333" stroke="black" fill="none" stroke-linecap="round"></path><path d="M 201.253,285.703 C 202.603,283.272 202.252,279.688 202.052,273.712" stroke-width="7.200" stroke="black" fill="none" stroke-linecap="round"></path><path d="M 202.052,273.712 C 201.852,267.697 201.409,267.690 200.454,261.721" stroke-width="5.918" stroke="black" fill="none" stroke-linecap="round"></path><path d="M 200.454,261.721 C 199.811,257.698 199.330,257.756 198.856,253.727" stroke-width="5.949" stroke="black" fill="none" stroke-linecap="round"></path><path d="M 198.856,253.727 C 198.531,250.961 197.534,247.984 198.856,248.131" stroke-width="6.435" stroke="black" fill="none" stroke-linecap="round"></path><path d="M 198.856,248.131 C 201.130,248.384 203.147,250.796 206.047,254.526" stroke-width="7.190" stroke="black" fill="none" stroke-linecap="round"></path><path d="M 206.047,254.526 C 208.740,257.990 207.876,258.618 210.042,262.520" stroke-width="6.324" stroke="black" fill="none" stroke-linecap="round"></path><path d="M 210.042,262.520 C 211.871,265.813 211.896,265.820 214.037,268.915" stroke-width="6.178" stroke="black" fill="none" stroke-linecap="round"></path><path d="M 214.037,268.915 C 215.491,271.016 216.279,274.186 217.233,272.913" stroke-width="6.678" stroke="black" fill="none" stroke-linecap="round"></path><path d="M 217.233,272.913 C 219.875,269.389 220.179,266.254 221.228,259.323" stroke-width="6.930" stroke="black" fill="none" stroke-linecap="round"></path><path d="M 221.228,259.323 C 222.176,253.064 220.790,252.894 221.228,246.532" stroke-width="5.766" stroke="black" fill="none" stroke-linecap="round"></path><path d="M 221.228,246.532 C 221.589,241.302 222.147,241.351 222.826,236.140" stroke-width="5.527" stroke="black" fill="none" stroke-linecap="round"></path><path d="M 222.826,236.140 C 223.346,232.158 222.109,231.614 223.625,228.146" stroke-width="5.844" stroke="black" fill="none" stroke-linecap="round"></path><path d="M 223.625,228.146 C 224.906,225.219 226.022,223.007 228.419,223.349" stroke-width="6.915" stroke="black" fill="none" stroke-linecap="round"></path><path d="M 228.419,223.349 C 231.615,223.806 231.730,226.441 234.811,229.745" stroke-width="7.079" stroke="black" fill="none" stroke-linecap="round"></path><path d="M 234.811,229.745 C 237.323,232.437 237.010,232.744 239.605,235.341" stroke-width="6.411" stroke="black" fill="none" stroke-linecap="round"></path><path d="M 239.605,235.341 C 241.804,237.540 241.770,237.718 244.400,239.337" stroke-width="6.531" stroke="black" fill="none" stroke-linecap="round"></path><path d="M 244.400,239.337 C 246.963,240.916 248.886,243.458 249.993,241.736" stroke-width="7.265" stroke="black" fill="none" stroke-linecap="round"></path><path d="M 249.993,241.736 C 252.481,237.862 251.136,234.961 251.591,228.146" stroke-width="6.690" stroke="black" fill="none" stroke-linecap="round"></path><path d="M 251.591,228.146 C 251.935,222.970 251.798,222.941 251.591,217.754" stroke-width="5.776" stroke="black" fill="none" stroke-linecap="round"></path><path d="M 251.591,217.754 C 251.398,212.949 251.032,212.964 250.792,208.161" stroke-width="5.755" stroke="black" fill="none" stroke-linecap="round"></path><path d="M 250.792,208.161 C 250.632,204.970 250.140,204.809 250.792,201.766" stroke-width="6.283" stroke="black" fill="none" stroke-linecap="round"></path><path d="M 250.792,201.766 C 251.338,199.213 251.527,197.154 253.189,196.969" stroke-width="7.257" stroke="black" fill="none" stroke-linecap="round"></path><path d="M 253.189,196.969 C 255.123,196.754 255.692,198.851 257.983,200.966" stroke-width="7.497" stroke="black" fill="none" stroke-linecap="round"></path><path d="M 257.983,200.966 C 260.886,203.647 260.779,203.764 263.576,206.562" stroke-width="6.494" stroke="black" fill="none" stroke-linecap="round"></path><path d="M 263.576,206.562 C 265.973,208.960 265.873,209.069 268.370,211.358" stroke-width="6.452" stroke="black" fill="none" stroke-linecap="round"></path><path d="M 268.370,211.358 C 270.667,213.466 271.447,215.928 273.164,215.355" stroke-width="6.543" stroke="black" fill="none" stroke-linecap="round"></path><path d="M 273.164,215.355 C 275.042,214.729 274.977,212.269 275.561,208.960" stroke-width="7.460" stroke="black" fill="none" stroke-linecap="round"></path><path d="M 296.335,181.780 C 301.928,188.975 301.246,189.660 307.521,196.170" stroke-width="8.057" stroke="black" fill="none" stroke-linecap="round"></path><path d="M 307.521,196.170 C 312.033,200.851 312.415,200.631 317.908,204.164" stroke-width="5.715" stroke="black" fill="none" stroke-linecap="round"></path><path d="M 317.908,204.164 C 323.601,207.825 323.628,208.052 329.893,210.559" stroke-width="5.197" stroke="black" fill="none" stroke-linecap="round"></path><path d="M 329.893,210.559 C 335.613,212.848 335.798,212.670 341.878,213.757" stroke-width="5.201" stroke="black" fill="none" stroke-linecap="round"></path><path d="M 341.878,213.757 C 346.984,214.669 347.074,214.556 352.265,214.556" stroke-width="5.541" stroke="black" fill="none" stroke-linecap="round"></path><path d="M 352.265,214.556 C 356.662,214.556 356.708,214.443 361.054,213.757" stroke-width="5.804" stroke="black" fill="none" stroke-linecap="round"></path><path d="M 361.054,213.757 C 364.298,213.244 367.230,212.590 367.446,212.158" stroke-width="6.897" stroke="black" fill="none" stroke-linecap="round"></path><path d="M 367.446,212.158 C 367.629,211.791 364.553,211.534 361.853,212.158" stroke-width="7.459" stroke="black" fill="none" stroke-linecap="round"></path><path d="M 361.853,212.158 C 354.166,213.933 354.223,214.436 346.672,216.954" stroke-width="5.240" stroke="black" fill="none" stroke-linecap="round"></path><path d="M 346.672,216.954 C 320.665,225.628 320.543,225.303 294.737,234.541" stroke-width="4.500" stroke="black" fill="none" stroke-linecap="round"></path><path d="M 294.737,234.541 C 276.997,240.891 277.147,241.307 259.581,248.131" stroke-width="4.500" stroke="black" fill="none" stroke-linecap="round"></path><path d="M 259.581,248.131 C 243.190,254.498 243.100,254.278 226.822,260.921" stroke-width="4.500" stroke="black" fill="none" stroke-linecap="round"></path><path d="M 226.822,260.921 C 212.737,266.669 212.975,267.262 198.856,272.913" stroke-width="4.500" stroke="black" fill="none" stroke-linecap="round"></path><path d="M 198.856,272.913 C 189.005,276.855 188.900,276.599 178.881,280.107" stroke-width="4.500" stroke="black" fill="none" stroke-linecap="round"></path><path d="M 178.881,280.107 C 172.920,282.195 172.828,283.565 166.896,284.104" stroke-width="4.643" stroke="black" fill="none" stroke-linecap="round"></path><path d="M 166.896,284.104 C 164.039,284.364 161.492,283.407 161.303,281.706" stroke-width="6.398" stroke="black" fill="none" stroke-linecap="round"></path><path d="M 161.303,281.706 C 161.093,279.810 163.625,279.229 166.097,276.909" stroke-width="6.423" stroke="black" fill="none" stroke-linecap="round"></path><path d="M 166.097,276.909 C 176.409,267.238 176.465,267.296 186.871,257.724" stroke-width="4.500" stroke="black" fill="none" stroke-linecap="round"></path><path d="M 186.871,257.724 C 201.234,244.513 201.430,244.720 215.635,231.343" stroke-width="4.500" stroke="black" fill="none" stroke-linecap="round"></path><path d="M 215.635,231.343 C 228.596,219.140 228.845,219.361 241.203,206.562" stroke-width="4.500" stroke="black" fill="none" stroke-linecap="round"></path><path d="M 241.203,206.562 C 251.616,195.778 251.800,195.851 261.179,184.179" stroke-width="4.500" stroke="black" fill="none" stroke-linecap="round"></path><path d="M 261.179,184.179 C 268.179,175.466 268.302,175.395 273.963,165.792" stroke-width="4.500" stroke="black" fill="none" stroke-linecap="round"></path><path d="M 273.963,165.792 C 277.491,159.806 278.003,159.657 279.556,153.002" stroke-width="4.500" stroke="black" fill="none" stroke-linecap="round"></path><path d="M 279.556,153.002 C 280.800,147.666 280.366,147.215 279.556,141.810" stroke-width="5.095" stroke="black" fill="none" stroke-linecap="round"></path><path d="M 279.556,141.810 C 279.167,139.221 278.357,139.412 277.159,137.014" stroke-width="6.715" stroke="black" fill="none" stroke-linecap="round"></path><path d="M 277.159,137.014 C 275.561,133.816 272.979,131.800 273.963,130.619" stroke-width="7.204" stroke="black" fill="none" stroke-linecap="round"></path><path d="M 273.963,130.619 C 274.976,129.402 278.067,130.393 281.154,132.217" stroke-width="7.926" stroke="black" fill="none" stroke-linecap="round"></path><path d="M 281.154,132.217 C 286.856,135.589 286.341,136.621 291.541,141.011" stroke-width="5.621" stroke="black" fill="none" stroke-linecap="round"></path><path d="M 291.541,141.011 C 299.125,147.413 299.519,146.996 306.722,153.801" stroke-width="4.505" stroke="black" fill="none" stroke-linecap="round"></path><path d="M 306.722,153.801 C 313.901,160.585 313.890,160.672 320.305,168.191" stroke-width="4.500" stroke="black" fill="none" stroke-linecap="round"></path><path d="M 320.305,168.191 C 327.872,177.060 327.523,177.362 334.687,186.577" stroke-width="4.500" stroke="black" fill="none" stroke-linecap="round"></path><path d="M 334.687,186.577 C 341.506,195.349 342.076,194.968 348.270,204.164" stroke-width="4.500" stroke="black" fill="none" stroke-linecap="round"></path><path d="M 348.270,204.164 C 354.460,213.354 354.158,213.597 359.456,223.349" stroke-width="4.500" stroke="black" fill="none" stroke-linecap="round"></path><path d="M 359.456,223.349 C 364.146,231.983 364.102,232.026 368.245,240.936" stroke-width="4.500" stroke="black" fill="none" stroke-linecap="round"></path><path d="M 368.245,240.936 C 372.092,249.213 371.680,249.404 375.436,257.724" stroke-width="4.500" stroke="black" fill="none" stroke-linecap="round"></path><path d="M 375.436,257.724 C 377.273,261.795 377.433,261.721 379.431,265.718" stroke-width="5.218" stroke="black" fill="none" stroke-linecap="round"></path><circle r="3" cx="322.7016296386719" cy="96.02175903320312" fill="black"></circle></svg>