<svg xmlns="http://www.w3.org/2000/svg" xmlns:xlink="http://www.w3.org/1999/xlink" viewBox="0 0 576 416" width="576" height="416"><path d="M 504.874,204.341 C 498.881,206.339 498.881,206.339 492.889,208.338" stroke-width="8.325" stroke="black" fill="none" stroke-linecap="round"></path><path d="M 492.889,208.338 C 479.705,212.734 479.881,213.334 466.522,217.131" stroke-width="4.500" stroke="black" fill="none" stroke-linecap="round"></path><path d="M 466.522,217.131 C 444.725,223.326 444.633,223.077 422.577,228.323" stroke-width="4.500" stroke="black" fill="none" stroke-linecap="round"></path><path d="M 422.577,228.323 C 395.894,234.669 395.773,241.966 369.044,240.314" stroke-width="4.500" stroke="black" fill="none" stroke-linecap="round"></path><path d="M 369.044,240.314 C 324.662,237.570 309.067,228.114 280.355,219.529" stroke-width="4.500" stroke="black" fill="none" stroke-linecap="round"></path><path d="M 280.355,219.529 C 274.310,217.722 290.210,217.791 299.531,219.529" stroke-width="4.500" stroke="black" fill="none" stroke-linecap="round"></path><path d="M 299.531,219.529 C 313.780,222.187 314.714,221.808 327.496,228.323" stroke-width="4.500" stroke="black" fill="none" stroke-linecap="round"></path><path d="M 327.496,228.323 C 335.887,232.600 338.037,233.214 341.878,241.113" stroke-width="4.500" stroke="black" fill="none" stroke-linecap="round"></path><path d="M 341.878,241.113 C 345.228,248.003 344.806,250.575 341.878,257.901" stroke-width="4.500" stroke="black" fill="none" stroke-linecap="round"></path><path d="M 341.878,257.901 C 338.414,266.563 336.469,266.505 329.094,273.089" stroke-width="4.500" stroke="black" fill="none" stroke-linecap="round"></path><path d="M 329.094,273.089 C 310.501,289.688 310.659,290.381 289.943,304.266" stroke-width="4.500" stroke="black" fill="none" stroke-linecap="round"></path><path d="M 289.943,304.266 C 269.510,317.961 268.607,316.708 246.797,328.248" stroke-width="4.500" stroke="black" fill="none" stroke-linecap="round"></path><path d="M 246.797,328.248 C 227.059,338.691 227.037,338.701 206.846,348.233" stroke-width="4.500" stroke="black" fill="none" stroke-linecap="round"></path><path d="M 206.846,348.233 C 191.481,355.488 191.588,355.948 175.685,361.823" stroke-width="4.500" stroke="black" fill="none" stroke-linecap="round"></path><path d="M 175.685,361.823 C 165.621,365.541 165.149,366.541 154.911,367.419" stroke-width="4.500" stroke="black" fill="none" stroke-linecap="round"></path><path d="M 154.911,367.419 C 151.166,367.740 147.217,366.866 147.720,364.221" stroke-width="5.033" stroke="black" fill="none" stroke-linecap="round"></path><path d="M 147.720,364.221 C 148.815,358.473 152.171,356.731 158.107,350.631" stroke-width="5.588" stroke="black" fill="none" stroke-linecap="round"></path><path d="M 158.107,350.631 C 166.953,341.543 167.288,341.717 177.283,333.844" stroke-width="4.500" stroke="black" fill="none" stroke-linecap="round"></path><path d="M 177.283,333.844 C 186.065,326.928 186.418,327.369 195.660,321.054" stroke-width="4.500" stroke="black" fill="none" stroke-linecap="round"></path><path d="M 195.660,321.054 C 202.797,316.177 203.016,316.482 210.042,311.461" stroke-width="4.500" stroke="black" fill="none" stroke-linecap="round"></path><path d="M 210.042,311.461 C 214.202,308.488 214.172,308.413 218.032,305.066" stroke-width="5.139" stroke="black" fill="none" stroke-linecap="round"></path><path d="M 218.032,305.066 C 220.164,303.217 220.348,303.309 222.027,301.068" stroke-width="6.112" stroke="black" fill="none" stroke-linecap="round"></path><path d="M 222.027,301.068 C 223.943,298.513 222.840,297.546 225.223,295.473" stroke-width="7.316" stroke="black" fill="none" stroke-linecap="round"></path><path d="M 225.223,295.473 C 232.028,289.552 232.514,289.795 240.405,285.080" stroke-width="4.927" stroke="black" fill="none" stroke-linecap="round"></path><path d="M 240.405,285.080 C 261.278,272.608 261.204,272.383 282.752,261.098" stroke-width="4.500" stroke="black" fill="none" stroke-linecap="round"></path><path d="M 282.752,261.098 C 312.340,245.603 312.681,246.242 342.677,231.520" stroke-width="4.500" stroke="black" fill="none" stroke-linecap="round"></path><path d="M 342.677,231.520 C 376.202,215.066 376.310,215.285 409.793,198.745" stroke-width="4.500" stroke="black" fill="none" stroke-linecap="round"></path><path d="M 409.793,198.745 C 440.230,183.709 440.516,184.229 470.517,168.367" stroke-width="4.500" stroke="black" fill="none" stroke-linecap="round"></path><path d="M 470.517,168.367 C 489.655,158.249 492.927,159.678 508.070,146.784" stroke-width="4.500" stroke="black" fill="none" stroke-linecap="round"></path><path d="M 508.070,146.784 C 511.703,143.690 511.440,138.218 508.070,136.391" stroke-width="4.500" stroke="black" fill="none" stroke-linecap="round"></path><path d="M 508.070,136.391 C 501.852,133.022 498.447,135.634 488.894,136.391" stroke-width="4.500" stroke="black" fill="none" stroke-linecap="round"></path><path d="M 488.894,136.391 C 432.929,140.830 432.708,139.616 377.034,146.784" stroke-width="4.500" stroke="black" fill="none" stroke-linecap="round"></path><path d="M 377.034,146.784 C 324.044,153.606 323.776,153.122 271.566,164.370" stroke-width="4.500" stroke="black" fill="none" stroke-linecap="round"></path><path d="M 271.566,164.370 C 214.313,176.705 213.600,175.514 158.107,193.948" stroke-width="4.500" stroke="black" fill="none" stroke-linecap="round"></path><path d="M 158.107,193.948 C 111.328,209.488 110.692,209.729 67.021,232.320" stroke-width="4.500" stroke="black" fill="none" stroke-linecap="round"></path><path d="M 67.021,232.320 C 40.380,246.101 37.525,246.077 17.483,266.694" stroke-width="4.500" stroke="black" fill="none" stroke-linecap="round"></path><path d="M 17.483,266.694 C 9.161,275.255 8.711,281.182 10.292,290.676" stroke-width="4.500" stroke="black" fill="none" stroke-linecap="round"></path><path d="M 10.292,290.676 C 11.108,295.571 15.917,294.541 22.277,295.473" stroke-width="4.500" stroke="black" fill="none" stroke-linecap="round"></path><path d="M 22.277,295.473 C 65.055,301.736 65.281,303.904 108.569,305.066" stroke-width="4.500" stroke="black" fill="none" stroke-linecap="round"></path><path d="M 108.569,305.066 C 169.551,306.702 169.682,302.652 230.816,301.068" stroke-width="4.500" stroke="black" fill="none" stroke-linecap="round"></path><path d="M 230.816,301.068 C 293.128,299.454 293.278,296.366 355.461,298.670" stroke-width="4.500" stroke="black" fill="none" stroke-linecap="round"></path><path d="M 355.461,298.670 C 411.930,300.763 411.775,304.421 468.120,309.862" stroke-width="4.500" stroke="black" fill="none" stroke-linecap="round"></path><circle r="3" cx="464.92388916015625" cy="297.870849609375" fill="black"></circle></svg>