<svg xmlns="http://www.w3.org/2000/svg" xmlns:xlink="http://www.w3.org/1999/xlink" viewBox="0 0 576 416" width="576" height="416"><path d="M 47.046,170.766 C 52.639,169.167 52.592,168.979 58.232,167.568" stroke-width="8.025" stroke="black" fill="none" stroke-linecap="round"></path><path d="M 58.232,167.568 C 63.778,166.181 63.814,166.317 69.418,165.170" stroke-width="5.856" stroke="black" fill="none" stroke-linecap="round"></path><path d="M 69.418,165.170 C 81.392,162.719 81.432,162.904 93.388,160.373" stroke-width="4.500" stroke="black" fill="none" stroke-linecap="round"></path><path d="M 93.388,160.373 C 102.206,158.507 102.138,158.183 110.966,156.376" stroke-width="4.500" stroke="black" fill="none" stroke-linecap="round"></path><path d="M 110.966,156.376 C 119.716,154.586 119.729,154.615 128.544,153.179" stroke-width="4.500" stroke="black" fill="none" stroke-linecap="round"></path><path d="M 128.544,153.179 C 136.907,151.817 136.916,151.832 145.323,150.781" stroke-width="4.500" stroke="black" fill="none" stroke-linecap="round"></path><path d="M 145.323,150.781 C 152.896,149.834 152.896,149.643 160.504,149.182" stroke-width="4.657" stroke="black" fill="none" stroke-linecap="round"></path><path d="M 160.504,149.182 C 166.080,148.844 166.108,148.958 171.690,149.182" stroke-width="5.249" stroke="black" fill="none" stroke-linecap="round"></path><path d="M 171.690,149.182 C 176.095,149.358 176.095,149.494 180.479,149.981" stroke-width="5.704" stroke="black" fill="none" stroke-linecap="round"></path><path d="M 180.479,149.981 C 183.286,150.293 186.789,149.142 186.072,150.781" stroke-width="6.336" stroke="black" fill="none" stroke-linecap="round"></path><path d="M 186.072,150.781 C 183.993,155.537 181.431,157.970 174.886,162.772" stroke-width="6.661" stroke="black" fill="none" stroke-linecap="round"></path><path d="M 174.886,162.772 C 163.454,171.160 162.528,170.012 150.117,177.161" stroke-width="4.500" stroke="black" fill="none" stroke-linecap="round"></path><path d="M 150.117,177.161 C 136.161,185.200 136.160,185.200 122.152,193.149" stroke-width="4.500" stroke="black" fill="none" stroke-linecap="round"></path><path d="M 122.152,193.149 C 109.394,200.389 109.072,199.866 96.584,207.538" stroke-width="4.500" stroke="black" fill="none" stroke-linecap="round"></path><path d="M 96.584,207.538 C 86.301,213.856 86.623,214.372 76.609,221.128" stroke-width="4.500" stroke="black" fill="none" stroke-linecap="round"></path><path d="M 76.609,221.128 C 69.444,225.963 69.378,225.866 62.227,230.721" stroke-width="4.500" stroke="black" fill="none" stroke-linecap="round"></path><path d="M 62.227,230.721 C 58.192,233.460 55.290,233.947 54.237,236.317" stroke-width="5.138" stroke="black" fill="none" stroke-linecap="round"></path><path d="M 54.237,236.317 C 53.692,237.544 56.611,238.319 59.031,237.916" stroke-width="6.958" stroke="black" fill="none" stroke-linecap="round"></path><path d="M 59.031,237.916 C 68.596,236.321 68.559,234.894 78.207,232.320" stroke-width="4.711" stroke="black" fill="none" stroke-linecap="round"></path><path d="M 78.207,232.320 C 92.529,228.499 92.547,228.543 106.971,225.125" stroke-width="4.500" stroke="black" fill="none" stroke-linecap="round"></path><path d="M 106.971,225.125 C 122.909,221.349 122.838,220.926 138.931,217.931" stroke-width="4.500" stroke="black" fill="none" stroke-linecap="round"></path><path d="M 138.931,217.931 C 157.195,214.531 157.299,215.067 175.685,212.335" stroke-width="4.500" stroke="black" fill="none" stroke-linecap="round"></path><path d="M 175.685,212.335 C 197.648,209.071 197.628,208.914 219.630,205.939" stroke-width="4.500" stroke="black" fill="none" stroke-linecap="round"></path><path d="M 219.630,205.939 C 241.972,202.919 242.033,203.364 264.375,200.344" stroke-width="4.500" stroke="black" fill="none" stroke-linecap="round"></path><path d="M 264.375,200.344 C 286.377,197.369 286.277,196.555 308.320,193.948" stroke-width="4.500" stroke="black" fill="none" stroke-linecap="round"></path><path d="M 308.320,193.948 C 330.222,191.359 330.257,191.405 352.265,189.951" stroke-width="4.500" stroke="black" fill="none" stroke-linecap="round"></path><path d="M 352.265,189.951 C 372.604,188.608 372.655,189.436 393.014,188.353" stroke-width="4.500" stroke="black" fill="none" stroke-linecap="round"></path><path d="M 393.014,188.353 C 410.208,187.438 410.176,186.815 427.371,185.954" stroke-width="4.500" stroke="black" fill="none" stroke-linecap="round"></path><path d="M 427.371,185.954 C 442.136,185.216 442.150,185.366 456.934,185.155" stroke-width="4.500" stroke="black" fill="none" stroke-linecap="round"></path><path d="M 456.934,185.155 C 470.115,184.967 470.121,185.375 483.301,185.155" stroke-width="4.500" stroke="black" fill="none" stroke-linecap="round"></path><path d="M 483.301,185.155 C 494.092,184.975 494.116,185.107 504.874,184.356" stroke-width="4.500" stroke="black" fill="none" stroke-linecap="round"></path><path d="M 504.874,184.356 C 511.294,183.907 511.266,183.556 517.658,182.757" stroke-width="4.690" stroke="black" fill="none" stroke-linecap="round"></path><path d="M 244.400,170.766 C 238.007,173.564 237.712,173.057 231.615,176.362" stroke-width="8.234" stroke="black" fill="none" stroke-linecap="round"></path><path d="M 231.615,176.362 C 228.124,178.254 228.322,178.639 225.223,181.158" stroke-width="6.632" stroke="black" fill="none" stroke-linecap="round"></path><path d="M 225.223,181.158 C 221.930,183.835 222.056,183.989 218.832,186.754" stroke-width="6.261" stroke="black" fill="none" stroke-linecap="round"></path><path d="M 218.832,186.754 C 216.463,188.785 216.114,188.465 214.037,190.751" stroke-width="6.483" stroke="black" fill="none" stroke-linecap="round"></path><path d="M 214.037,190.751 C 212.119,192.862 212.534,193.218 210.841,195.547" stroke-width="6.576" stroke="black" fill="none" stroke-linecap="round"></path><path d="M 210.841,195.547 C 209.338,197.615 207.255,197.982 207.645,199.544" stroke-width="7.420" stroke="black" fill="none" stroke-linecap="round"></path><path d="M 207.645,199.544 C 208.054,201.180 209.972,202.202 212.439,201.942" stroke-width="8.030" stroke="black" fill="none" stroke-linecap="round"></path><path d="M 212.439,201.942 C 217.563,201.403 217.825,200.328 222.826,197.945" stroke-width="6.223" stroke="black" fill="none" stroke-linecap="round"></path><path d="M 222.826,197.945 C 226.214,196.331 225.987,195.888 229.218,193.948" stroke-width="6.149" stroke="black" fill="none" stroke-linecap="round"></path><path d="M 229.218,193.948 C 231.980,192.291 231.977,192.278 234.811,190.751" stroke-width="6.408" stroke="black" fill="none" stroke-linecap="round"></path><path d="M 234.811,190.751 C 237.170,189.480 237.173,189.476 239.605,188.353" stroke-width="6.706" stroke="black" fill="none" stroke-linecap="round"></path><path d="M 239.605,188.353 C 242.367,187.078 243.361,185.137 245.199,185.954" stroke-width="7.598" stroke="black" fill="none" stroke-linecap="round"></path><path d="M 245.199,185.954 C 246.956,186.736 245.721,188.860 246.797,191.550" stroke-width="8.260" stroke="black" fill="none" stroke-linecap="round"></path><path d="M 246.797,191.550 C 248.118,194.855 247.780,195.290 249.993,197.945" stroke-width="8.000" stroke="black" fill="none" stroke-linecap="round"></path><circle r="3" cx="297.13360595703125" cy="185.15496826171875" fill="black"></circle><circle r="3" cx="274.7615661621094" cy="155.57705688476562" fill="black"></circle><path d="M 329.094,167.568 C 329.893,172.364 328.859,175.066 330.692,177.161" stroke-width="8.755" stroke="black" fill="none" stroke-linecap="round"></path><path d="M 330.692,177.161 C 331.656,178.263 332.689,175.562 334.687,173.963" stroke-width="8.666" stroke="black" fill="none" stroke-linecap="round"></path><path d="M 334.687,173.963 C 336.684,172.365 336.471,171.972 338.682,170.766" stroke-width="8.058" stroke="black" fill="none" stroke-linecap="round"></path><path d="M 338.682,170.766 C 340.865,169.574 341.193,168.815 343.476,169.167" stroke-width="8.178" stroke="black" fill="none" stroke-linecap="round"></path><path d="M 343.476,169.167 C 346.386,169.615 346.646,170.314 349.069,172.365" stroke-width="8.006" stroke="black" fill="none" stroke-linecap="round"></path><path d="M 349.069,172.365 C 351.840,174.710 351.088,175.647 353.863,177.960" stroke-width="7.877" stroke="black" fill="none" stroke-linecap="round"></path><path d="M 353.863,177.960 C 355.882,179.644 356.203,179.285 358.657,180.359" stroke-width="7.826" stroke="black" fill="none" stroke-linecap="round"></path><path d="M 381.828,174.763 C 386.222,173.963 386.702,174.878 390.617,173.164" stroke-width="8.876" stroke="black" fill="none" stroke-linecap="round"></path><path d="M 390.617,173.164 C 393.094,172.080 392.356,170.808 394.612,169.167" stroke-width="8.007" stroke="black" fill="none" stroke-linecap="round"></path><path d="M 394.612,169.167 C 396.751,167.610 397.481,166.068 399.406,166.769" stroke-width="8.415" stroke="black" fill="none" stroke-linecap="round"></path><path d="M 401.004,109.212 C 403.401,114.807 403.263,114.871 405.798,120.403" stroke-width="8.490" stroke="black" fill="none" stroke-linecap="round"></path><path d="M 405.798,120.403 C 407.658,124.464 407.961,124.326 409.793,128.397" stroke-width="6.494" stroke="black" fill="none" stroke-linecap="round"></path><path d="M 409.793,128.397 C 411.557,132.320 411.294,132.436 412.989,136.391" stroke-width="6.204" stroke="black" fill="none" stroke-linecap="round"></path><path d="M 412.989,136.391 C 414.890,140.829 415.003,140.781 416.984,145.185" stroke-width="5.871" stroke="black" fill="none" stroke-linecap="round"></path><path d="M 416.984,145.185 C 418.598,148.775 418.516,148.813 420.180,152.379" stroke-width="5.983" stroke="black" fill="none" stroke-linecap="round"></path><path d="M 420.180,152.379 C 421.313,154.809 420.915,155.144 422.577,157.176" stroke-width="6.619" stroke="black" fill="none" stroke-linecap="round"></path><path d="M 422.577,157.176 C 424.511,159.541 424.544,161.173 427.371,161.173" stroke-width="7.206" stroke="black" fill="none" stroke-linecap="round"></path><path d="M 427.371,161.173 C 434.132,161.173 434.866,159.965 441.753,157.176" stroke-width="6.512" stroke="black" fill="none" stroke-linecap="round"></path><path d="M 441.753,157.176 C 451.645,153.170 451.413,152.520 460.929,147.583" stroke-width="4.500" stroke="black" fill="none" stroke-linecap="round"></path><path d="M 460.929,147.583 C 472.986,141.328 472.814,140.985 484.899,134.793" stroke-width="4.500" stroke="black" fill="none" stroke-linecap="round"></path><path d="M 484.899,134.793 C 489.194,132.592 489.241,132.669 493.688,130.796" stroke-width="5.021" stroke="black" fill="none" stroke-linecap="round"></path><path d="M 493.688,130.796 C 496.832,129.471 500.979,127.498 500.080,128.397" stroke-width="5.925" stroke="black" fill="none" stroke-linecap="round"></path><path d="M 500.080,128.397 C 498.183,130.296 494.638,133.496 488.095,136.391" stroke-width="7.070" stroke="black" fill="none" stroke-linecap="round"></path><path d="M 488.095,136.391 C 473.864,142.689 473.521,142.267 458.532,146.784" stroke-width="4.500" stroke="black" fill="none" stroke-linecap="round"></path><path d="M 458.532,146.784 C 440.362,152.259 440.335,152.426 421.778,156.376" stroke-width="4.500" stroke="black" fill="none" stroke-linecap="round"></path><path d="M 421.778,156.376 C 402.782,160.420 402.662,159.994 383.426,162.772" stroke-width="4.500" stroke="black" fill="none" stroke-linecap="round"></path><path d="M 383.426,162.772 C 363.911,165.590 363.875,165.389 344.275,167.568" stroke-width="4.500" stroke="black" fill="none" stroke-linecap="round"></path><path d="M 344.275,167.568 C 324.324,169.786 324.310,169.679 304.325,171.565" stroke-width="4.500" stroke="black" fill="none" stroke-linecap="round"></path><path d="M 304.325,171.565 C 281.963,173.676 281.978,173.917 259.581,175.562" stroke-width="4.500" stroke="black" fill="none" stroke-linecap="round"></path><path d="M 259.581,175.562 C 238.433,177.115 238.398,176.623 217.233,177.960" stroke-width="4.500" stroke="black" fill="none" stroke-linecap="round"></path><path d="M 217.233,177.960 C 200.446,179.021 200.467,179.385 183.675,180.359" stroke-width="4.500" stroke="black" fill="none" stroke-linecap="round"></path><path d="M 183.675,180.359 C 172.901,180.983 172.882,181.158 162.102,181.158" stroke-width="4.500" stroke="black" fill="none" stroke-linecap="round"></path><path d="M 162.102,181.158 C 156.503,181.158 155.455,182.510 150.916,180.359" stroke-width="4.748" stroke="black" fill="none" stroke-linecap="round"></path><path d="M 150.916,180.359 C 147.865,178.912 144.623,176.119 146.921,173.963" stroke-width="6.300" stroke="black" fill="none" stroke-linecap="round"></path><path d="M 146.921,173.963 C 157.407,164.128 161.332,164.485 176.484,156.376" stroke-width="4.900" stroke="black" fill="none" stroke-linecap="round"></path><path d="M 176.484,156.376 C 195.689,146.099 195.942,146.535 215.635,137.191" stroke-width="4.500" stroke="black" fill="none" stroke-linecap="round"></path><path d="M 215.635,137.191 C 234.693,128.148 234.867,128.517 253.988,119.604" stroke-width="4.500" stroke="black" fill="none" stroke-linecap="round"></path><path d="M 253.988,119.604 C 270.023,112.129 269.788,111.601 285.948,104.415" stroke-width="4.500" stroke="black" fill="none" stroke-linecap="round"></path><path d="M 285.948,104.415 C 298.552,98.811 298.795,99.368 311.516,94.023" stroke-width="4.500" stroke="black" fill="none" stroke-linecap="round"></path><path d="M 311.516,94.023 C 318.770,90.975 324.188,88.116 325.898,87.628" stroke-width="4.500" stroke="black" fill="none" stroke-linecap="round"></path><path d="M 325.898,87.628 C 326.985,87.317 321.448,89.928 317.109,92.424" stroke-width="6.023" stroke="black" fill="none" stroke-linecap="round"></path><path d="M 317.109,92.424 C 305.468,99.121 305.194,98.714 293.938,106.014" stroke-width="4.500" stroke="black" fill="none" stroke-linecap="round"></path><path d="M 293.938,106.014 C 283.621,112.704 283.906,113.149 273.963,120.403" stroke-width="4.500" stroke="black" fill="none" stroke-linecap="round"></path><path d="M 273.963,120.403 C 264.730,127.138 264.138,126.480 255.586,133.993" stroke-width="4.500" stroke="black" fill="none" stroke-linecap="round"></path><path d="M 255.586,133.993 C 247.758,140.869 247.765,141.085 241.203,149.182" stroke-width="4.500" stroke="black" fill="none" stroke-linecap="round"></path><path d="M 241.203,149.182 C 235.780,155.874 235.797,156.040 231.615,163.571" stroke-width="4.500" stroke="black" fill="none" stroke-linecap="round"></path><path d="M 231.615,163.571 C 227.807,170.429 227.305,170.464 225.223,177.960" stroke-width="4.554" stroke="black" fill="none" stroke-linecap="round"></path><path d="M 225.223,177.960 C 223.310,184.853 223.625,185.190 223.625,192.350" stroke-width="4.764" stroke="black" fill="none" stroke-linecap="round"></path><path d="M 223.625,192.350 C 223.625,196.381 224.353,196.362 225.223,200.344" stroke-width="5.617" stroke="black" fill="none" stroke-linecap="round"></path><path d="M 225.223,200.344 C 227.149,209.152 226.915,209.223 229.218,217.931" stroke-width="4.679" stroke="black" fill="none" stroke-linecap="round"></path><path d="M 229.218,217.931 C 230.510,222.813 230.817,222.727 232.415,227.523" stroke-width="5.315" stroke="black" fill="none" stroke-linecap="round"></path><path d="M 86.996,199.544 C 97.383,201.543 97.599,200.734 107.770,203.541" stroke-width="7.465" stroke="black" fill="none" stroke-linecap="round"></path><path d="M 107.770,203.541 C 120.770,207.129 120.597,207.820 133.338,212.335" stroke-width="4.500" stroke="black" fill="none" stroke-linecap="round"></path><path d="M 133.338,212.335 C 139.773,214.615 139.730,214.733 146.122,217.131" stroke-width="4.700" stroke="black" fill="none" stroke-linecap="round"></path></svg>