<svg xmlns="http://www.w3.org/2000/svg" xmlns:xlink="http://www.w3.org/1999/xlink" viewBox="0 0 576 416" width="576" height="416"><path d="M 110.167,118.005 C 106.572,114.807 106.597,114.779 102.976,111.610" stroke-width="8.603" stroke="black" fill="none" stroke-linecap="round"></path><path d="M 102.976,111.610 C 100.205,109.183 100.068,109.332 97.383,106.813" stroke-width="6.833" stroke="black" fill="none" stroke-linecap="round"></path><path d="M 97.383,106.813 C 93.676,103.336 92.898,103.783 90.192,99.619" stroke-width="6.037" stroke="black" fill="none" stroke-linecap="round"></path><path d="M 90.192,99.619 C 87.704,95.789 87.871,95.374 86.996,90.825" stroke-width="5.873" stroke="black" fill="none" stroke-linecap="round"></path><path d="M 86.996,90.825 C 85.873,84.982 86.197,84.832 86.197,78.834" stroke-width="5.439" stroke="black" fill="none" stroke-linecap="round"></path><path d="M 86.197,78.834 C 86.197,71.642 85.358,71.365 86.996,64.445" stroke-width="5.123" stroke="black" fill="none" stroke-linecap="round"></path><path d="M 86.996,64.445 C 88.954,56.177 89.568,56.101 93.388,48.457" stroke-width="4.545" stroke="black" fill="none" stroke-linecap="round"></path><path d="M 93.388,48.457 C 95.161,44.909 95.785,45.259 98.182,42.062" stroke-width="5.545" stroke="black" fill="none" stroke-linecap="round"></path><path d="M 98.182,42.062 C 100.579,38.864 100.104,38.404 102.976,35.667" stroke-width="5.936" stroke="black" fill="none" stroke-linecap="round"></path><path d="M 102.976,35.667 C 108.493,30.410 108.688,30.467 114.961,26.074" stroke-width="4.810" stroke="black" fill="none" stroke-linecap="round"></path><path d="M 114.961,26.074 C 120.673,22.073 120.555,21.597 126.946,18.879" stroke-width="4.899" stroke="black" fill="none" stroke-linecap="round"></path><path d="M 126.946,18.879 C 136.535,14.802 136.788,15.077 146.921,12.484" stroke-width="4.500" stroke="black" fill="none" stroke-linecap="round"></path><path d="M 146.921,12.484 C 153.966,10.681 154.073,10.937 161.303,10.086" stroke-width="4.652" stroke="black" fill="none" stroke-linecap="round"></path><path d="M 161.303,10.086 C 167.656,9.338 167.701,9.286 174.087,9.286" stroke-width="4.978" stroke="black" fill="none" stroke-linecap="round"></path><path d="M 174.087,9.286 C 178.488,9.286 179.083,8.568 182.876,10.086" stroke-width="5.605" stroke="black" fill="none" stroke-linecap="round"></path><path d="M 182.876,10.086 C 185.076,10.966 186.670,12.050 186.072,14.083" stroke-width="6.463" stroke="black" fill="none" stroke-linecap="round"></path><path d="M 186.072,14.083 C 184.672,18.845 183.162,19.564 178.881,23.675" stroke-width="6.482" stroke="black" fill="none" stroke-linecap="round"></path><path d="M 178.881,23.675 C 173.175,29.157 172.738,28.839 166.097,33.268" stroke-width="4.957" stroke="black" fill="none" stroke-linecap="round"></path><path d="M 166.097,33.268 C 157.158,39.231 156.960,38.949 147.720,44.460" stroke-width="4.500" stroke="black" fill="none" stroke-linecap="round"></path><path d="M 147.720,44.460 C 136.186,51.340 136.171,51.318 124.549,58.050" stroke-width="4.500" stroke="black" fill="none" stroke-linecap="round"></path><path d="M 124.549,58.050 C 113.400,64.508 113.182,64.148 102.177,70.840" stroke-width="4.500" stroke="black" fill="none" stroke-linecap="round"></path><path d="M 102.177,70.840 C 92.807,76.539 92.894,76.695 83.800,82.831" stroke-width="4.500" stroke="black" fill="none" stroke-linecap="round"></path><path d="M 83.800,82.831 C 75.715,88.287 75.706,88.285 67.820,94.023" stroke-width="4.500" stroke="black" fill="none" stroke-linecap="round"></path><path d="M 67.820,94.023 C 62.522,97.878 62.304,97.685 57.433,102.017" stroke-width="4.729" stroke="black" fill="none" stroke-linecap="round"></path><path d="M 57.433,102.017 C 55.113,104.080 51.576,106.813 53.438,106.813" stroke-width="5.890" stroke="black" fill="none" stroke-linecap="round"></path><path d="M 53.438,106.813 C 59.566,106.813 63.621,105.068 73.413,102.017" stroke-width="6.248" stroke="black" fill="none" stroke-linecap="round"></path><path d="M 73.413,102.017 C 87.991,97.474 87.887,97.062 102.177,91.625" stroke-width="4.500" stroke="black" fill="none" stroke-linecap="round"></path><path d="M 102.177,91.625 C 116.252,86.270 116.174,86.065 130.142,80.433" stroke-width="4.500" stroke="black" fill="none" stroke-linecap="round"></path><path d="M 130.142,80.433 C 142.941,75.273 142.813,74.935 155.710,70.041" stroke-width="4.500" stroke="black" fill="none" stroke-linecap="round"></path><path d="M 155.710,70.041 C 165.984,66.142 166.134,66.545 176.484,62.846" stroke-width="4.500" stroke="black" fill="none" stroke-linecap="round"></path><path d="M 176.484,62.846 C 182.913,60.549 182.825,60.292 189.268,58.050" stroke-width="4.544" stroke="black" fill="none" stroke-linecap="round"></path><path d="M 189.268,58.050 C 192.013,57.095 196.242,55.501 194.861,56.451" stroke-width="5.919" stroke="black" fill="none" stroke-linecap="round"></path><path d="M 194.861,56.451 C 189.850,59.898 185.839,61.960 176.484,66.843" stroke-width="6.200" stroke="black" fill="none" stroke-linecap="round"></path><path d="M 176.484,66.843 C 158.274,76.349 157.940,75.715 139.730,85.230" stroke-width="4.500" stroke="black" fill="none" stroke-linecap="round"></path><path d="M 139.730,85.230 C 121.985,94.501 122.204,94.918 104.574,104.415" stroke-width="4.500" stroke="black" fill="none" stroke-linecap="round"></path><path d="M 104.574,104.415 C 91.043,111.705 91.003,111.633 77.408,118.804" stroke-width="4.500" stroke="black" fill="none" stroke-linecap="round"></path><path d="M 77.408,118.804 C 69.031,123.224 68.985,123.139 60.629,127.598" stroke-width="4.500" stroke="black" fill="none" stroke-linecap="round"></path><path d="M 60.629,127.598 C 57.000,129.534 51.220,132.216 53.438,131.595" stroke-width="5.119" stroke="black" fill="none" stroke-linecap="round"></path><path d="M 53.438,131.595 C 61.207,129.419 67.259,127.403 80.604,122.002" stroke-width="5.546" stroke="black" fill="none" stroke-linecap="round"></path><path d="M 80.604,122.002 C 102.815,113.013 102.600,112.462 124.549,102.816" stroke-width="4.500" stroke="black" fill="none" stroke-linecap="round"></path><path d="M 124.549,102.816 C 145.347,93.676 145.220,93.382 166.097,84.430" stroke-width="4.500" stroke="black" fill="none" stroke-linecap="round"></path><path d="M 166.097,84.430 C 184.371,76.595 184.392,76.629 202.851,69.241" stroke-width="4.500" stroke="black" fill="none" stroke-linecap="round"></path><path d="M 202.851,69.241 C 216.352,63.838 216.308,63.675 230.017,58.849" stroke-width="4.500" stroke="black" fill="none" stroke-linecap="round"></path><path d="M 230.017,58.849 C 237.881,56.081 248.464,52.364 245.998,54.053" stroke-width="4.500" stroke="black" fill="none" stroke-linecap="round"></path><path d="M 245.998,54.053 C 240.873,57.561 230.648,62.164 214.836,69.241" stroke-width="5.186" stroke="black" fill="none" stroke-linecap="round"></path><path d="M 214.836,69.241 C 200.286,75.754 200.137,75.449 185.273,81.233" stroke-width="4.500" stroke="black" fill="none" stroke-linecap="round"></path><path d="M 185.273,81.233 C 171.373,86.641 171.183,86.156 157.308,91.625" stroke-width="4.500" stroke="black" fill="none" stroke-linecap="round"></path><path d="M 157.308,91.625 C 144.816,96.548 144.911,96.791 132.539,102.017" stroke-width="4.500" stroke="black" fill="none" stroke-linecap="round"></path><path d="M 132.539,102.017 C 126.934,104.385 126.729,103.983 121.353,106.813" stroke-width="4.626" stroke="black" fill="none" stroke-linecap="round"></path><path d="M 121.353,106.813 C 111.548,111.977 100.890,117.269 102.177,118.005" stroke-width="4.500" stroke="black" fill="none" stroke-linecap="round"></path><path d="M 102.177,118.005 C 103.686,118.868 114.825,114.710 126.946,110.011" stroke-width="5.134" stroke="black" fill="none" stroke-linecap="round"></path><path d="M 126.946,110.011 C 146.785,102.320 146.533,101.643 166.097,93.224" stroke-width="4.500" stroke="black" fill="none" stroke-linecap="round"></path><path d="M 166.097,93.224 C 183.686,85.655 183.456,85.069 201.253,78.035" stroke-width="4.500" stroke="black" fill="none" stroke-linecap="round"></path><path d="M 201.253,78.035 C 215.816,72.279 215.934,72.521 230.816,67.643" stroke-width="4.500" stroke="black" fill="none" stroke-linecap="round"></path><path d="M 230.816,67.643 C 239.105,64.926 239.145,64.960 247.596,62.846" stroke-width="4.500" stroke="black" fill="none" stroke-linecap="round"></path><path d="M 247.596,62.846 C 250.331,62.162 254.382,61.504 253.189,62.047" stroke-width="5.548" stroke="black" fill="none" stroke-linecap="round"></path><path d="M 253.189,62.047 C 249.987,63.503 245.907,64.197 238.806,66.843" stroke-width="6.453" stroke="black" fill="none" stroke-linecap="round"></path><path d="M 238.806,66.843 C 225.533,71.791 225.680,72.189 212.439,77.236" stroke-width="4.500" stroke="black" fill="none" stroke-linecap="round"></path><path d="M 212.439,77.236 C 200.511,81.782 200.316,81.288 188.469,86.029" stroke-width="4.500" stroke="black" fill="none" stroke-linecap="round"></path><path d="M 188.469,86.029 C 178.343,90.081 178.444,90.343 168.494,94.822" stroke-width="4.500" stroke="black" fill="none" stroke-linecap="round"></path><path d="M 168.494,94.822 C 162.464,97.537 162.529,97.681 156.509,100.418" stroke-width="4.631" stroke="black" fill="none" stroke-linecap="round"></path><path d="M 156.509,100.418 C 153.740,101.678 149.710,103.475 150.916,102.816" stroke-width="5.868" stroke="black" fill="none" stroke-linecap="round"></path><path d="M 150.916,102.816 C 154.104,101.077 158.067,99.136 165.298,95.622" stroke-width="6.035" stroke="black" fill="none" stroke-linecap="round"></path><path d="M 165.298,95.622 C 186.032,85.546 185.847,85.131 206.846,75.637" stroke-width="4.500" stroke="black" fill="none" stroke-linecap="round"></path><path d="M 206.846,75.637 C 227.396,66.345 227.620,66.843 248.395,58.050" stroke-width="4.500" stroke="black" fill="none" stroke-linecap="round"></path><circle r="3" cx="204.44943237304688" cy="147.5830078125" fill="black"></circle></svg>