<svg xmlns="http://www.w3.org/2000/svg" xmlns:xlink="http://www.w3.org/1999/xlink" viewBox="0 0 576 416" width="576" height="416"><path d="M 67.820,194.791 C 64.225,192.792 61.538,193.294 60.629,190.794" stroke-width="8.560" stroke="black" fill="none" stroke-linecap="round"></path><path d="M 60.629,190.794 C 59.940,188.897 62.374,188.151 64.624,185.997" stroke-width="6.985" stroke="black" fill="none" stroke-linecap="round"></path><path d="M 64.624,185.997 C 71.562,179.357 71.327,178.969 79.006,173.207" stroke-width="4.905" stroke="black" fill="none" stroke-linecap="round"></path><path d="M 79.006,173.207 C 90.503,164.580 90.493,164.325 102.976,157.219" stroke-width="4.500" stroke="black" fill="none" stroke-linecap="round"></path><path d="M 102.976,157.219 C 113.664,151.135 113.883,151.274 125.348,146.827" stroke-width="4.500" stroke="black" fill="none" stroke-linecap="round"></path><path d="M 125.348,146.827 C 133.459,143.680 133.622,143.282 142.127,142.030" stroke-width="4.500" stroke="black" fill="none" stroke-linecap="round"></path><path d="M 142.127,142.030 C 147.205,141.283 147.852,141.275 152.514,142.830" stroke-width="5.079" stroke="black" fill="none" stroke-linecap="round"></path><path d="M 152.514,142.830 C 155.043,143.673 156.219,144.355 156.509,146.827" stroke-width="6.146" stroke="black" fill="none" stroke-linecap="round"></path><path d="M 156.509,146.827 C 157.018,151.150 155.643,151.723 154.112,156.419" stroke-width="5.820" stroke="black" fill="none" stroke-linecap="round"></path><path d="M 154.112,156.419 C 149.651,170.109 149.841,170.214 144.524,183.599" stroke-width="4.500" stroke="black" fill="none" stroke-linecap="round"></path><path d="M 144.524,183.599 C 137.457,201.391 137.519,201.461 129.343,218.773" stroke-width="4.500" stroke="black" fill="none" stroke-linecap="round"></path><path d="M 129.343,218.773 C 120.341,237.834 119.360,237.375 110.167,256.345" stroke-width="4.500" stroke="black" fill="none" stroke-linecap="round"></path><path d="M 110.167,256.345 C 106.576,263.755 106.692,263.839 103.775,271.534" stroke-width="4.500" stroke="black" fill="none" stroke-linecap="round"></path><path d="M 103.775,271.534 C 102.298,275.430 99.285,278.630 101.378,279.528" stroke-width="5.167" stroke="black" fill="none" stroke-linecap="round"></path><path d="M 101.378,279.528 C 104.878,281.028 108.835,279.460 114.961,276.330" stroke-width="6.381" stroke="black" fill="none" stroke-linecap="round"></path><path d="M 114.961,276.330 C 127.611,269.867 127.257,268.767 138.931,260.342" stroke-width="4.500" stroke="black" fill="none" stroke-linecap="round"></path><path d="M 138.931,260.342 C 151.626,251.180 151.535,251.019 163.700,241.156" stroke-width="4.500" stroke="black" fill="none" stroke-linecap="round"></path><path d="M 163.700,241.156 C 174.706,232.233 174.724,232.226 185.273,222.770" stroke-width="4.500" stroke="black" fill="none" stroke-linecap="round"></path><path d="M 185.273,222.770 C 193.900,215.038 194.113,215.192 202.052,206.782" stroke-width="4.500" stroke="black" fill="none" stroke-linecap="round"></path><path d="M 202.052,206.782 C 207.696,200.803 207.506,200.572 212.439,193.991" stroke-width="4.500" stroke="black" fill="none" stroke-linecap="round"></path><path d="M 212.439,193.991 C 214.697,190.980 217.725,188.080 216.434,187.596" stroke-width="5.528" stroke="black" fill="none" stroke-linecap="round"></path><path d="M 216.434,187.596 C 214.529,186.881 210.689,188.669 206.047,191.593" stroke-width="6.695" stroke="black" fill="none" stroke-linecap="round"></path><path d="M 206.047,191.593 C 199.902,195.464 200.162,196.087 194.861,201.186" stroke-width="5.263" stroke="black" fill="none" stroke-linecap="round"></path><path d="M 194.861,201.186 C 189.775,206.079 189.607,206.038 185.273,211.578" stroke-width="5.013" stroke="black" fill="none" stroke-linecap="round"></path><path d="M 185.273,211.578 C 182.416,215.231 178.562,218.982 180.479,219.572" stroke-width="5.621" stroke="black" fill="none" stroke-linecap="round"></path><path d="M 180.479,219.572 C 183.755,220.581 189.127,218.966 195.660,214.776" stroke-width="6.414" stroke="black" fill="none" stroke-linecap="round"></path><path d="M 195.660,214.776 C 204.708,208.973 203.966,207.485 211.640,199.587" stroke-width="4.500" stroke="black" fill="none" stroke-linecap="round"></path><path d="M 211.640,199.587 C 217.948,193.096 218.010,193.082 223.625,185.997" stroke-width="4.500" stroke="black" fill="none" stroke-linecap="round"></path><path d="M 223.625,185.997 C 227.198,181.490 226.942,181.276 230.017,176.404" stroke-width="5.100" stroke="black" fill="none" stroke-linecap="round"></path><path d="M 230.017,176.404 C 231.737,173.681 233.635,171.442 233.214,170.809" stroke-width="5.955" stroke="black" fill="none" stroke-linecap="round"></path><path d="M 233.214,170.809 C 232.836,170.243 227.025,174.114 228.419,174.006" stroke-width="7.421" stroke="black" fill="none" stroke-linecap="round"></path><path d="M 228.419,174.006 C 232.218,173.714 236.838,173.653 243.601,170.009" stroke-width="7.035" stroke="black" fill="none" stroke-linecap="round"></path><path d="M 243.601,170.009 C 252.418,165.259 252.280,164.320 259.581,157.219" stroke-width="4.671" stroke="black" fill="none" stroke-linecap="round"></path><path d="M 259.581,157.219 C 266.662,150.331 266.346,149.905 272.365,142.030" stroke-width="4.500" stroke="black" fill="none" stroke-linecap="round"></path><path d="M 272.365,142.030 C 276.733,136.315 276.570,136.156 280.355,130.039" stroke-width="4.683" stroke="black" fill="none" stroke-linecap="round"></path><path d="M 280.355,130.039 C 281.763,127.763 281.909,127.772 282.752,125.243" stroke-width="6.011" stroke="black" fill="none" stroke-linecap="round"></path><path d="M 282.752,125.243 C 284.306,120.578 285.942,118.295 285.149,115.650" stroke-width="5.783" stroke="black" fill="none" stroke-linecap="round"></path><path d="M 285.149,115.650 C 284.743,114.298 281.578,115.413 280.355,117.249" stroke-width="7.081" stroke="black" fill="none" stroke-linecap="round"></path><path d="M 280.355,117.249 C 278.382,120.210 277.232,122.382 278.757,125.243" stroke-width="7.205" stroke="black" fill="none" stroke-linecap="round"></path><path d="M 278.757,125.243 C 280.428,128.378 282.477,128.782 286.747,129.240" stroke-width="7.150" stroke="black" fill="none" stroke-linecap="round"></path><path d="M 286.747,129.240 C 293.663,129.981 294.280,129.713 301.129,127.641" stroke-width="5.378" stroke="black" fill="none" stroke-linecap="round"></path><path d="M 301.129,127.641 C 311.458,124.516 311.407,123.806 321.104,118.847" stroke-width="4.500" stroke="black" fill="none" stroke-linecap="round"></path><path d="M 321.104,118.847 C 329.384,114.613 329.227,114.257 337.084,109.255" stroke-width="4.500" stroke="black" fill="none" stroke-linecap="round"></path><path d="M 337.084,109.255 C 342.410,105.863 342.708,106.144 347.471,102.060" stroke-width="4.866" stroke="black" fill="none" stroke-linecap="round"></path><path d="M 347.471,102.060 C 351.098,98.949 350.680,98.474 353.863,94.865" stroke-width="6.194" stroke="black" fill="none" stroke-linecap="round"></path><path d="M 353.863,94.865 C 356.672,91.679 356.669,91.676 359.456,88.470" stroke-width="7.463" stroke="black" fill="none" stroke-linecap="round"></path><path d="M 359.456,88.470 C 364.659,82.483 364.562,82.397 369.843,76.479" stroke-width="5.248" stroke="black" fill="none" stroke-linecap="round"></path><path d="M 369.843,76.479 C 374.549,71.205 374.796,71.420 379.431,66.087" stroke-width="4.910" stroke="black" fill="none" stroke-linecap="round"></path><path d="M 379.431,66.087 C 382.786,62.226 382.477,61.956 385.823,58.093" stroke-width="5.461" stroke="black" fill="none" stroke-linecap="round"></path><path d="M 385.823,58.093 C 387.670,55.960 388.530,52.936 389.818,54.096" stroke-width="6.307" stroke="black" fill="none" stroke-linecap="round"></path><path d="M 389.818,54.096 C 392.525,56.534 392.682,59.492 393.813,65.287" stroke-width="6.970" stroke="black" fill="none" stroke-linecap="round"></path><path d="M 393.813,65.287 C 395.878,75.879 394.231,76.213 396.210,86.871" stroke-width="4.542" stroke="black" fill="none" stroke-linecap="round"></path><path d="M 396.210,86.871 C 399.425,104.192 399.596,104.223 404.200,121.246" stroke-width="4.500" stroke="black" fill="none" stroke-linecap="round"></path><path d="M 404.200,121.246 C 408.784,138.198 409.097,138.131 414.587,154.821" stroke-width="4.500" stroke="black" fill="none" stroke-linecap="round"></path><path d="M 414.587,154.821 C 419.484,169.707 419.809,169.600 424.974,184.398" stroke-width="4.500" stroke="black" fill="none" stroke-linecap="round"></path><path d="M 424.974,184.398 C 428.598,194.781 428.775,194.727 432.165,205.183" stroke-width="4.500" stroke="black" fill="none" stroke-linecap="round"></path><path d="M 432.165,205.183 C 433.569,209.516 436.772,214.861 434.562,213.976" stroke-width="4.955" stroke="black" fill="none" stroke-linecap="round"></path><path d="M 434.562,213.976 C 428.782,211.663 423.716,207.860 416.185,198.788" stroke-width="5.725" stroke="black" fill="none" stroke-linecap="round"></path><path d="M 416.185,198.788 C 404.140,184.278 404.896,183.316 395.411,166.812" stroke-width="4.500" stroke="black" fill="none" stroke-linecap="round"></path><path d="M 395.411,166.812 C 386.519,151.340 386.002,151.378 379.431,134.836" stroke-width="4.500" stroke="black" fill="none" stroke-linecap="round"></path><path d="M 379.431,134.836 C 373.617,120.201 373.395,119.927 370.642,104.458" stroke-width="4.500" stroke="black" fill="none" stroke-linecap="round"></path><path d="M 370.642,104.458 C 368.202,90.749 367.896,90.258 369.044,76.479" stroke-width="4.500" stroke="black" fill="none" stroke-linecap="round"></path><path d="M 369.044,76.479 C 369.894,66.276 370.349,65.751 374.637,56.494" stroke-width="4.500" stroke="black" fill="none" stroke-linecap="round"></path><path d="M 374.637,56.494 C 377.939,49.363 378.138,48.270 384.225,43.704" stroke-width="4.500" stroke="black" fill="none" stroke-linecap="round"></path><path d="M 384.225,43.704 C 389.324,39.877 390.514,40.100 397.009,39.706" stroke-width="4.807" stroke="black" fill="none" stroke-linecap="round"></path><path d="M 397.009,39.706 C 403.697,39.301 404.181,40.064 410.592,42.105" stroke-width="5.005" stroke="black" fill="none" stroke-linecap="round"></path><path d="M 410.592,42.105 C 412.970,42.862 412.589,43.703 414.587,45.302" stroke-width="6.150" stroke="black" fill="none" stroke-linecap="round"></path></svg>