<svg xmlns="http://www.w3.org/2000/svg" xmlns:xlink="http://www.w3.org/1999/xlink" viewBox="0 0 576 416" width="576" height="416"><path d="M 47.046,202.742 C 47.845,196.347 47.479,196.282 48.644,189.951" stroke-width="8.455" stroke="black" fill="none" stroke-linecap="round"></path><path d="M 48.644,189.951 C 50.275,181.094 50.906,181.211 52.639,172.365" stroke-width="5.108" stroke="black" fill="none" stroke-linecap="round"></path><path d="M 52.639,172.365 C 54.901,160.826 54.670,160.779 56.634,149.182" stroke-width="4.500" stroke="black" fill="none" stroke-linecap="round"></path><path d="M 56.634,149.182 C 58.665,137.196 59.382,137.266 60.629,125.200" stroke-width="4.500" stroke="black" fill="none" stroke-linecap="round"></path><path d="M 60.629,125.200 C 61.779,114.084 61.200,114.011 61.428,102.816" stroke-width="4.500" stroke="black" fill="none" stroke-linecap="round"></path><path d="M 61.428,102.816 C 61.599,94.426 61.906,94.389 61.428,86.029" stroke-width="4.500" stroke="black" fill="none" stroke-linecap="round"></path><path d="M 61.428,86.029 C 61.107,80.399 60.723,80.418 59.830,74.837" stroke-width="4.928" stroke="black" fill="none" stroke-linecap="round"></path><path d="M 59.830,74.837 C 59.125,70.425 56.959,64.085 58.232,66.044" stroke-width="6.235" stroke="black" fill="none" stroke-linecap="round"></path><path d="M 58.232,66.044 C 62.153,72.079 64.612,78.264 70.217,90.825" stroke-width="6.276" stroke="black" fill="none" stroke-linecap="round"></path><path d="M 70.217,90.825 C 74.600,100.647 74.319,100.777 78.207,110.810" stroke-width="4.500" stroke="black" fill="none" stroke-linecap="round"></path><path d="M 78.207,110.810 C 81.909,120.362 81.968,120.345 85.398,129.996" stroke-width="4.500" stroke="black" fill="none" stroke-linecap="round"></path><path d="M 85.398,129.996 C 88.360,138.331 88.453,138.318 90.991,146.784" stroke-width="4.500" stroke="black" fill="none" stroke-linecap="round"></path><path d="M 90.991,146.784 C 92.048,150.309 91.802,150.378 92.589,153.978" stroke-width="5.579" stroke="black" fill="none" stroke-linecap="round"></path><path d="M 92.589,153.978 C 94.599,163.169 94.688,163.151 96.584,172.365" stroke-width="4.500" stroke="black" fill="none" stroke-linecap="round"></path><path d="M 96.584,172.365 C 97.485,176.741 97.797,176.724 98.182,181.158" stroke-width="5.389" stroke="black" fill="none" stroke-linecap="round"></path><path d="M 31.865,139.589 C 36.659,139.189 36.654,139.121 41.453,138.790" stroke-width="8.386" stroke="black" fill="none" stroke-linecap="round"></path><path d="M 41.453,138.790 C 48.240,138.321 48.243,138.368 55.036,137.990" stroke-width="5.688" stroke="black" fill="none" stroke-linecap="round"></path><path d="M 55.036,137.990 C 62.625,137.568 62.672,138.007 70.217,137.191" stroke-width="4.998" stroke="black" fill="none" stroke-linecap="round"></path><path d="M 70.217,137.191 C 77.454,136.408 77.455,136.222 84.599,134.793" stroke-width="4.890" stroke="black" fill="none" stroke-linecap="round"></path><path d="M 84.599,134.793 C 91.437,133.424 91.565,133.737 98.182,131.595" stroke-width="5.095" stroke="black" fill="none" stroke-linecap="round"></path><path d="M 98.182,131.595 C 105.148,129.340 105.586,129.818 111.765,125.999" stroke-width="4.905" stroke="black" fill="none" stroke-linecap="round"></path><path d="M 111.765,125.999 C 119.169,121.424 119.047,120.908 125.348,114.807" stroke-width="4.500" stroke="black" fill="none" stroke-linecap="round"></path><path d="M 125.348,114.807 C 131.432,108.917 131.995,109.057 136.534,102.017" stroke-width="4.500" stroke="black" fill="none" stroke-linecap="round"></path><path d="M 136.534,102.017 C 139.985,96.666 139.953,96.218 141.328,90.026" stroke-width="4.909" stroke="black" fill="none" stroke-linecap="round"></path><path d="M 141.328,90.026 C 142.350,85.426 142.404,84.951 141.328,80.433" stroke-width="5.390" stroke="black" fill="none" stroke-linecap="round"></path><path d="M 141.328,80.433 C 140.406,76.557 140.172,75.860 137.333,73.238" stroke-width="6.543" stroke="black" fill="none" stroke-linecap="round"></path><path d="M 137.333,73.238 C 134.978,71.064 133.409,69.891 130.941,70.840" stroke-width="7.182" stroke="black" fill="none" stroke-linecap="round"></path><path d="M 130.941,70.840 C 128.216,71.889 127.825,73.717 126.946,77.236" stroke-width="7.310" stroke="black" fill="none" stroke-linecap="round"></path><path d="M 126.946,77.236 C 125.828,81.711 126.142,82.135 126.946,86.828" stroke-width="6.146" stroke="black" fill="none" stroke-linecap="round"></path><path d="M 126.946,86.828 C 128.539,96.125 128.742,96.215 131.740,105.215" stroke-width="4.683" stroke="black" fill="none" stroke-linecap="round"></path><path d="M 131.740,105.215 C 135.933,117.799 136.325,117.691 141.328,129.996" stroke-width="4.500" stroke="black" fill="none" stroke-linecap="round"></path><path d="M 141.328,129.996 C 145.913,141.273 146.551,141.025 150.916,152.379" stroke-width="4.500" stroke="black" fill="none" stroke-linecap="round"></path><path d="M 150.916,152.379 C 154.541,161.809 154.654,161.828 157.308,171.565" stroke-width="4.500" stroke="black" fill="none" stroke-linecap="round"></path><path d="M 157.308,171.565 C 159.448,179.415 159.609,179.490 160.504,187.553" stroke-width="4.500" stroke="black" fill="none" stroke-linecap="round"></path><path d="M 160.504,187.553 C 161.207,193.879 162.137,194.508 160.504,200.344" stroke-width="4.888" stroke="black" fill="none" stroke-linecap="round"></path><path d="M 160.504,200.344 C 159.341,204.501 158.271,204.597 154.911,207.538" stroke-width="6.250" stroke="black" fill="none" stroke-linecap="round"></path><path d="M 154.911,207.538 C 151.879,210.193 151.547,210.259 147.720,211.535" stroke-width="6.119" stroke="black" fill="none" stroke-linecap="round"></path><path d="M 147.720,211.535 C 144.355,212.657 144.066,212.689 140.529,212.335" stroke-width="6.254" stroke="black" fill="none" stroke-linecap="round"></path><path d="M 140.529,212.335 C 136.076,211.889 135.748,211.941 131.740,209.936" stroke-width="5.973" stroke="black" fill="none" stroke-linecap="round"></path><path d="M 131.740,209.936 C 126.959,207.545 126.746,207.338 122.951,203.541" stroke-width="5.626" stroke="black" fill="none" stroke-linecap="round"></path><path d="M 122.951,203.541 C 119.156,199.744 119.309,199.404 116.559,194.748" stroke-width="5.530" stroke="black" fill="none" stroke-linecap="round"></path><path d="M 116.559,194.748 C 114.116,190.611 114.081,190.506 112.564,185.954" stroke-width="5.755" stroke="black" fill="none" stroke-linecap="round"></path><path d="M 112.564,185.954 C 111.284,182.112 110.966,181.938 110.966,177.960" stroke-width="5.981" stroke="black" fill="none" stroke-linecap="round"></path><path d="M 110.966,177.960 C 110.966,174.744 110.602,173.725 112.564,171.565" stroke-width="6.325" stroke="black" fill="none" stroke-linecap="round"></path><path d="M 112.564,171.565 C 114.597,169.328 115.735,169.006 118.956,169.167" stroke-width="7.077" stroke="black" fill="none" stroke-linecap="round"></path><path d="M 118.956,169.167 C 123.725,169.405 124.052,170.117 128.544,172.365" stroke-width="6.104" stroke="black" fill="none" stroke-linecap="round"></path><path d="M 128.544,172.365 C 136.037,176.113 136.218,176.124 142.926,181.158" stroke-width="4.788" stroke="black" fill="none" stroke-linecap="round"></path><path d="M 142.926,181.158 C 149.002,185.717 148.607,186.263 154.112,191.550" stroke-width="4.755" stroke="black" fill="none" stroke-linecap="round"></path><path d="M 154.112,191.550 C 158.595,195.856 158.507,195.947 162.901,200.344" stroke-width="5.057" stroke="black" fill="none" stroke-linecap="round"></path><path d="M 162.901,200.344 C 165.698,203.142 168.045,207.289 168.494,205.939" stroke-width="5.770" stroke="black" fill="none" stroke-linecap="round"></path><path d="M 168.494,205.939 C 169.243,203.691 166.414,199.622 165.298,193.149" stroke-width="7.051" stroke="black" fill="none" stroke-linecap="round"></path><path d="M 165.298,193.149 C 164.416,188.031 164.144,187.912 164.499,182.757" stroke-width="5.952" stroke="black" fill="none" stroke-linecap="round"></path><path d="M 164.499,182.757 C 164.943,176.321 165.142,176.207 166.896,169.966" stroke-width="5.327" stroke="black" fill="none" stroke-linecap="round"></path><path d="M 166.896,169.966 C 168.738,163.416 168.576,163.185 171.690,157.176" stroke-width="5.087" stroke="black" fill="none" stroke-linecap="round"></path><path d="M 171.690,157.176 C 174.169,152.393 174.131,151.920 178.082,148.382" stroke-width="5.362" stroke="black" fill="none" stroke-linecap="round"></path><path d="M 178.082,148.382 C 181.722,145.125 182.149,144.495 186.871,143.586" stroke-width="5.570" stroke="black" fill="none" stroke-linecap="round"></path><path d="M 186.871,143.586 C 192.536,142.496 192.984,143.336 198.856,144.385" stroke-width="5.359" stroke="black" fill="none" stroke-linecap="round"></path><path d="M 198.856,144.385 C 204.170,145.335 204.183,145.636 209.243,147.583" stroke-width="5.450" stroke="black" fill="none" stroke-linecap="round"></path><path d="M 209.243,147.583 C 214.570,149.633 214.517,149.822 219.630,152.379" stroke-width="5.401" stroke="black" fill="none" stroke-linecap="round"></path><path d="M 219.630,152.379 C 224.105,154.618 223.946,154.938 228.419,157.176" stroke-width="5.582" stroke="black" fill="none" stroke-linecap="round"></path><path d="M 228.419,157.176 C 231.936,158.935 231.881,159.981 235.611,160.373" stroke-width="6.041" stroke="black" fill="none" stroke-linecap="round"></path><path d="M 235.611,160.373 C 239.472,160.780 239.970,160.389 243.601,158.775" stroke-width="5.986" stroke="black" fill="none" stroke-linecap="round"></path><path d="M 243.601,158.775 C 247.161,157.191 247.306,156.858 249.993,153.978" stroke-width="6.157" stroke="black" fill="none" stroke-linecap="round"></path><path d="M 249.993,153.978 C 252.899,150.863 253.264,150.699 254.787,146.784" stroke-width="6.022" stroke="black" fill="none" stroke-linecap="round"></path><path d="M 254.787,146.784 C 256.061,143.505 256.020,143.063 255.586,139.589" stroke-width="6.143" stroke="black" fill="none" stroke-linecap="round"></path><path d="M 255.586,139.589 C 255.221,136.668 254.689,136.621 253.189,133.993" stroke-width="6.539" stroke="black" fill="none" stroke-linecap="round"></path><path d="M 253.189,133.993 C 251.493,131.025 251.737,130.518 249.194,128.397" stroke-width="6.447" stroke="black" fill="none" stroke-linecap="round"></path><path d="M 249.194,128.397 C 246.943,126.521 246.521,126.730 243.601,125.999" stroke-width="6.572" stroke="black" fill="none" stroke-linecap="round"></path><path d="M 243.601,125.999 C 240.129,125.131 239.852,124.741 236.410,125.200" stroke-width="6.389" stroke="black" fill="none" stroke-linecap="round"></path><path d="M 236.410,125.200 C 233.859,125.540 233.697,125.961 231.615,127.598" stroke-width="6.700" stroke="black" fill="none" stroke-linecap="round"></path><path d="M 231.615,127.598 C 228.104,130.358 227.580,130.261 225.223,133.993" stroke-width="6.100" stroke="black" fill="none" stroke-linecap="round"></path><path d="M 225.223,133.993 C 222.786,137.855 222.154,138.220 222.027,142.787" stroke-width="5.891" stroke="black" fill="none" stroke-linecap="round"></path><path d="M 222.027,142.787 C 221.755,152.610 221.240,153.744 224.425,162.772" stroke-width="5.722" stroke="black" fill="none" stroke-linecap="round"></path><path d="M 224.425,162.772 C 226.034,167.334 227.337,167.826 231.615,169.966" stroke-width="5.658" stroke="black" fill="none" stroke-linecap="round"></path><path d="M 231.615,169.966 C 235.327,171.823 236.187,171.577 240.405,170.766" stroke-width="5.842" stroke="black" fill="none" stroke-linecap="round"></path><path d="M 240.405,170.766 C 246.574,169.579 246.915,169.256 252.390,165.969" stroke-width="5.211" stroke="black" fill="none" stroke-linecap="round"></path><path d="M 252.390,165.969 C 258.900,162.061 258.987,161.766 264.375,156.376" stroke-width="4.958" stroke="black" fill="none" stroke-linecap="round"></path><path d="M 264.375,156.376 C 268.975,151.774 268.244,151.077 272.365,145.984" stroke-width="4.950" stroke="black" fill="none" stroke-linecap="round"></path><path d="M 272.365,145.984 C 275.035,142.683 275.339,142.923 277.958,139.589" stroke-width="5.711" stroke="black" fill="none" stroke-linecap="round"></path><path d="M 277.958,139.589 C 279.734,137.327 279.225,134.793 281.154,134.793" stroke-width="6.383" stroke="black" fill="none" stroke-linecap="round"></path><path d="M 281.154,134.793 C 283.619,134.793 284.454,136.766 286.747,139.589" stroke-width="7.352" stroke="black" fill="none" stroke-linecap="round"></path><path d="M 286.747,139.589 C 289.647,143.161 288.875,143.773 291.541,147.583" stroke-width="6.295" stroke="black" fill="none" stroke-linecap="round"></path><path d="M 291.541,147.583 C 294.468,151.767 294.252,152.125 297.933,155.577" stroke-width="5.708" stroke="black" fill="none" stroke-linecap="round"></path><path d="M 297.933,155.577 C 300.644,158.120 300.849,158.551 304.325,159.574" stroke-width="6.067" stroke="black" fill="none" stroke-linecap="round"></path><path d="M 304.325,159.574 C 307.640,160.550 308.110,160.376 311.516,159.574" stroke-width="6.245" stroke="black" fill="none" stroke-linecap="round"></path><path d="M 311.516,159.574 C 314.901,158.777 315.196,158.611 317.908,156.376" stroke-width="6.309" stroke="black" fill="none" stroke-linecap="round"></path><path d="M 317.908,156.376 C 321.987,153.015 321.900,152.650 325.099,148.382" stroke-width="5.730" stroke="black" fill="none" stroke-linecap="round"></path><path d="M 325.099,148.382 C 326.694,146.254 326.720,146.137 327.496,143.586" stroke-width="6.523" stroke="black" fill="none" stroke-linecap="round"></path><path d="M 327.496,143.586 C 329.516,136.944 330.413,136.676 330.692,129.996" stroke-width="5.218" stroke="black" fill="none" stroke-linecap="round"></path><path d="M 330.692,129.996 C 330.813,127.083 329.873,126.966 328.295,124.400" stroke-width="6.130" stroke="black" fill="none" stroke-linecap="round"></path><path d="M 328.295,124.400 C 326.677,121.770 326.664,121.539 324.300,119.604" stroke-width="6.440" stroke="black" fill="none" stroke-linecap="round"></path><path d="M 324.300,119.604 C 322.269,117.942 321.988,117.206 319.506,117.206" stroke-width="6.717" stroke="black" fill="none" stroke-linecap="round"></path><path d="M 319.506,117.206 C 315.995,117.206 314.862,117.251 312.315,119.604" stroke-width="7.154" stroke="black" fill="none" stroke-linecap="round"></path><path d="M 312.315,119.604 C 309.669,122.047 310.159,123.050 309.119,126.798" stroke-width="6.421" stroke="black" fill="none" stroke-linecap="round"></path><path d="M 309.119,126.798 C 308.162,130.245 308.320,130.394 308.320,133.993" stroke-width="6.262" stroke="black" fill="none" stroke-linecap="round"></path><path d="M 308.320,133.993 C 308.320,137.988 307.882,138.276 309.119,141.987" stroke-width="6.156" stroke="black" fill="none" stroke-linecap="round"></path><path d="M 309.119,141.987 C 310.279,145.471 310.324,146.190 313.114,148.382" stroke-width="6.211" stroke="black" fill="none" stroke-linecap="round"></path><path d="M 313.114,148.382 C 315.918,150.587 316.658,150.578 320.305,150.781" stroke-width="6.220" stroke="black" fill="none" stroke-linecap="round"></path><path d="M 320.305,150.781 C 323.849,150.978 324.049,150.399 327.496,149.182" stroke-width="6.336" stroke="black" fill="none" stroke-linecap="round"></path><path d="M 327.496,149.182 C 330.840,148.001 330.902,147.904 333.888,145.984" stroke-width="6.336" stroke="black" fill="none" stroke-linecap="round"></path><path d="M 333.888,145.984 C 336.495,144.307 336.483,144.187 338.682,141.987" stroke-width="6.507" stroke="black" fill="none" stroke-linecap="round"></path><path d="M 338.682,141.987 C 341.277,139.390 340.492,136.723 343.476,136.391" stroke-width="7.105" stroke="black" fill="none" stroke-linecap="round"></path><path d="M 343.476,136.391 C 347.683,135.924 348.485,137.989 353.064,140.388" stroke-width="7.362" stroke="black" fill="none" stroke-linecap="round"></path><path d="M 353.064,140.388 C 356.874,142.385 356.522,143.023 360.255,145.185" stroke-width="6.326" stroke="black" fill="none" stroke-linecap="round"></path><path d="M 360.255,145.185 C 364.113,147.419 364.169,147.369 368.245,149.182" stroke-width="5.930" stroke="black" fill="none" stroke-linecap="round"></path><path d="M 368.245,149.182 C 371.360,150.567 371.441,150.381 374.637,151.580" stroke-width="6.266" stroke="black" fill="none" stroke-linecap="round"></path><path d="M 277.159,61.247 C 277.558,67.243 277.414,67.258 277.958,73.238" stroke-width="8.246" stroke="black" fill="none" stroke-linecap="round"></path></svg>