<svg xmlns="http://www.w3.org/2000/svg" xmlns:xlink="http://www.w3.org/1999/xlink" viewBox="0 0 576 416" width="576" height="416"><path d="M 444.150,124.400 C 436.959,127.598 436.803,127.276 429.768,130.796" stroke-width="7.978" stroke="black" fill="none" stroke-linecap="round"></path><path d="M 429.768,130.796 C 414.431,138.468 414.339,138.345 399.406,146.784" stroke-width="4.500" stroke="black" fill="none" stroke-linecap="round"></path><path d="M 399.406,146.784 C 371.193,162.726 371.241,162.842 343.476,179.559" stroke-width="4.500" stroke="black" fill="none" stroke-linecap="round"></path><path d="M 343.476,179.559 C 326.097,190.022 326.308,190.368 309.119,201.143" stroke-width="4.500" stroke="black" fill="none" stroke-linecap="round"></path><path d="M 309.119,201.143 C 293.149,211.153 293.022,210.954 277.159,221.128" stroke-width="4.500" stroke="black" fill="none" stroke-linecap="round"></path><path d="M 277.159,221.128 C 261.861,230.939 261.825,230.896 246.797,241.113" stroke-width="4.500" stroke="black" fill="none" stroke-linecap="round"></path><path d="M 246.797,241.113 C 230.664,252.080 230.162,251.449 214.836,263.496" stroke-width="4.500" stroke="black" fill="none" stroke-linecap="round"></path><path d="M 214.836,263.496 C 185.418,286.623 186.350,287.822 157.308,311.461" stroke-width="4.500" stroke="black" fill="none" stroke-linecap="round"></path><path d="M 157.308,311.461 C 139.209,326.193 139.573,326.793 120.554,340.239" stroke-width="4.500" stroke="black" fill="none" stroke-linecap="round"></path><path d="M 120.554,340.239 C 109.610,347.977 109.346,347.845 97.383,353.829" stroke-width="4.500" stroke="black" fill="none" stroke-linecap="round"></path><path d="M 97.383,353.829 C 90.969,357.038 90.476,358.091 83.800,358.625" stroke-width="4.500" stroke="black" fill="none" stroke-linecap="round"></path><path d="M 83.800,358.625 C 80.488,358.891 78.469,358.346 77.408,355.428" stroke-width="5.409" stroke="black" fill="none" stroke-linecap="round"></path><path d="M 77.408,355.428 C 75.273,349.553 76.722,348.183 77.408,341.039" stroke-width="6.052" stroke="black" fill="none" stroke-linecap="round"></path><path d="M 77.408,341.039 C 78.719,327.399 78.614,327.290 81.403,313.859" stroke-width="4.500" stroke="black" fill="none" stroke-linecap="round"></path><path d="M 81.403,313.859 C 85.006,296.513 85.323,296.536 90.192,279.485" stroke-width="4.500" stroke="black" fill="none" stroke-linecap="round"></path><path d="M 90.192,279.485 C 94.911,262.961 94.743,262.865 100.579,246.709" stroke-width="4.500" stroke="black" fill="none" stroke-linecap="round"></path><path d="M 100.579,246.709 C 106.728,229.690 106.850,229.692 114.162,213.134" stroke-width="4.500" stroke="black" fill="none" stroke-linecap="round"></path><path d="M 114.162,213.134 C 122.031,195.318 122.232,195.387 130.941,177.960" stroke-width="4.500" stroke="black" fill="none" stroke-linecap="round"></path><path d="M 130.941,177.960 C 139.411,161.013 138.762,160.587 148.519,144.385" stroke-width="4.500" stroke="black" fill="none" stroke-linecap="round"></path><path d="M 148.519,144.385 C 157.539,129.410 157.414,129.083 168.494,115.607" stroke-width="4.500" stroke="black" fill="none" stroke-linecap="round"></path><path d="M 168.494,115.607 C 177.789,104.302 177.790,103.728 189.268,94.822" stroke-width="4.500" stroke="black" fill="none" stroke-linecap="round"></path><path d="M 189.268,94.822 C 197.366,88.540 197.975,88.061 207.645,85.230" stroke-width="4.500" stroke="black" fill="none" stroke-linecap="round"></path><path d="M 207.645,85.230 C 214.355,83.265 217.040,81.665 222.027,85.230" stroke-width="4.500" stroke="black" fill="none" stroke-linecap="round"></path><path d="M 222.027,85.230 C 228.226,89.659 227.274,92.800 230.017,101.218" stroke-width="5.381" stroke="black" fill="none" stroke-linecap="round"></path><path d="M 230.017,101.218 C 233.266,111.186 232.299,111.562 234.013,122.002" stroke-width="4.500" stroke="black" fill="none" stroke-linecap="round"></path><path d="M 234.013,122.002 C 236.694,138.342 236.666,138.356 238.806,154.778" stroke-width="4.500" stroke="black" fill="none" stroke-linecap="round"></path><path d="M 238.806,154.778 C 241.460,175.129 241.132,175.171 243.601,195.547" stroke-width="4.500" stroke="black" fill="none" stroke-linecap="round"></path><path d="M 243.601,195.547 C 245.926,214.742 246.100,214.721 248.395,233.919" stroke-width="4.500" stroke="black" fill="none" stroke-linecap="round"></path><path d="M 248.395,233.919 C 250.495,251.493 250.548,251.489 252.390,269.092" stroke-width="4.500" stroke="black" fill="none" stroke-linecap="round"></path><path d="M 252.390,269.092 C 254.144,285.864 253.988,285.880 255.586,302.667" stroke-width="4.500" stroke="black" fill="none" stroke-linecap="round"></path><path d="M 255.586,302.667 C 257.184,319.455 256.863,319.491 258.782,336.242" stroke-width="4.500" stroke="black" fill="none" stroke-linecap="round"></path><path d="M 258.782,336.242 C 261.258,357.862 261.578,357.826 264.375,379.410" stroke-width="4.500" stroke="black" fill="none" stroke-linecap="round"></path><path d="M 313.114,189.152 C 310.317,185.555 309.529,185.976 307.521,181.957" stroke-width="8.094" stroke="black" fill="none" stroke-linecap="round"></path><path d="M 307.521,181.957 C 304.735,176.383 305.092,176.078 303.526,169.966" stroke-width="5.791" stroke="black" fill="none" stroke-linecap="round"></path><path d="M 303.526,169.966 C 301.097,160.490 300.520,160.477 299.531,150.781" stroke-width="4.667" stroke="black" fill="none" stroke-linecap="round"></path><path d="M 299.531,150.781 C 298.522,140.892 298.752,140.729 299.531,130.796" stroke-width="4.500" stroke="black" fill="none" stroke-linecap="round"></path><path d="M 299.531,130.796 C 300.350,120.344 300.327,120.215 302.727,110.011" stroke-width="4.500" stroke="black" fill="none" stroke-linecap="round"></path><path d="M 302.727,110.011 C 305.121,99.830 305.562,99.879 309.119,90.026" stroke-width="4.500" stroke="black" fill="none" stroke-linecap="round"></path><path d="M 309.119,90.026 C 310.756,85.490 310.579,85.318 313.114,81.233" stroke-width="5.038" stroke="black" fill="none" stroke-linecap="round"></path><path d="M 313.114,81.233 C 317.770,73.726 317.654,73.424 323.501,66.843" stroke-width="4.500" stroke="black" fill="none" stroke-linecap="round"></path><path d="M 323.501,66.843 C 327.242,62.632 327.487,61.784 332.290,59.649" stroke-width="4.998" stroke="black" fill="none" stroke-linecap="round"></path><path d="M 332.290,59.649 C 334.678,58.586 335.943,58.860 337.883,60.448" stroke-width="6.111" stroke="black" fill="none" stroke-linecap="round"></path><path d="M 337.883,60.448 C 340.337,62.457 340.735,63.334 341.079,66.843" stroke-width="6.266" stroke="black" fill="none" stroke-linecap="round"></path><path d="M 341.079,66.843 C 342.732,83.719 343.489,84.198 341.878,101.218" stroke-width="4.500" stroke="black" fill="none" stroke-linecap="round"></path><path d="M 341.878,101.218 C 339.894,122.170 338.913,122.257 333.888,142.787" stroke-width="4.500" stroke="black" fill="none" stroke-linecap="round"></path><path d="M 333.888,142.787 C 329.325,161.428 328.507,161.241 322.702,179.559" stroke-width="4.500" stroke="black" fill="none" stroke-linecap="round"></path><path d="M 322.702,179.559 C 318.120,194.016 317.980,193.973 313.114,208.338" stroke-width="4.500" stroke="black" fill="none" stroke-linecap="round"></path><path d="M 313.114,208.338 C 309.990,217.556 309.343,217.401 306.722,226.724" stroke-width="4.500" stroke="black" fill="none" stroke-linecap="round"></path><path d="M 306.722,226.724 C 305.747,230.191 304.636,233.551 305.923,233.919" stroke-width="5.301" stroke="black" fill="none" stroke-linecap="round"></path><path d="M 305.923,233.919 C 307.433,234.350 309.573,231.542 312.315,228.323" stroke-width="6.477" stroke="black" fill="none" stroke-linecap="round"></path><path d="M 312.315,228.323 C 318.762,220.750 318.609,220.540 324.300,212.335" stroke-width="4.752" stroke="black" fill="none" stroke-linecap="round"></path><path d="M 324.300,212.335 C 332.192,200.955 331.418,200.403 339.481,189.152" stroke-width="4.500" stroke="black" fill="none" stroke-linecap="round"></path><path d="M 339.481,189.152 C 346.599,179.219 347.023,179.520 354.662,169.966" stroke-width="4.500" stroke="black" fill="none" stroke-linecap="round"></path><path d="M 354.662,169.966 C 359.806,163.532 359.804,163.528 365.049,157.176" stroke-width="4.500" stroke="black" fill="none" stroke-linecap="round"></path><path d="M 365.049,157.176 C 367.394,154.335 366.704,153.324 369.843,151.580" stroke-width="5.460" stroke="black" fill="none" stroke-linecap="round"></path><path d="M 369.843,151.580 C 377.491,147.329 378.535,149.005 386.622,145.185" stroke-width="6.927" stroke="black" fill="none" stroke-linecap="round"></path><path d="M 386.622,145.185 C 392.917,142.210 392.614,141.587 398.607,137.990" stroke-width="5.404" stroke="black" fill="none" stroke-linecap="round"></path><path d="M 398.607,137.990 C 402.602,135.592 402.452,135.267 406.597,133.194" stroke-width="5.684" stroke="black" fill="none" stroke-linecap="round"></path><path d="M 406.597,133.194 C 408.844,132.069 409.834,133.393 411.391,131.595" stroke-width="7.019" stroke="black" fill="none" stroke-linecap="round"></path><path d="M 411.391,131.595 C 415.027,127.397 414.059,126.324 416.984,121.203" stroke-width="7.756" stroke="black" fill="none" stroke-linecap="round"></path><path d="M 416.984,121.203 C 418.853,117.930 418.941,117.979 420.979,114.807" stroke-width="6.531" stroke="black" fill="none" stroke-linecap="round"></path><path d="M 420.979,114.807 C 422.536,112.383 422.577,112.409 424.175,110.011" stroke-width="6.663" stroke="black" fill="none" stroke-linecap="round"></path><path d="M 424.175,110.011 C 425.773,107.613 426.228,107.827 427.371,105.215" stroke-width="7.354" stroke="black" fill="none" stroke-linecap="round"></path><path d="M 427.371,105.215 C 429.025,101.432 428.622,101.233 429.768,97.221" stroke-width="7.601" stroke="black" fill="none" stroke-linecap="round"></path><path d="M 429.768,97.221 C 431.019,92.839 431.337,92.897 432.165,88.427" stroke-width="6.292" stroke="black" fill="none" stroke-linecap="round"></path><path d="M 432.165,88.427 C 433.335,82.105 433.362,82.057 433.763,75.637" stroke-width="5.520" stroke="black" fill="none" stroke-linecap="round"></path><path d="M 433.763,75.637 C 434.161,69.266 434.201,69.208 433.763,62.846" stroke-width="5.039" stroke="black" fill="none" stroke-linecap="round"></path><path d="M 433.763,62.846 C 433.402,57.617 433.535,57.482 432.165,52.454" stroke-width="5.393" stroke="black" fill="none" stroke-linecap="round"></path><path d="M 432.165,52.454 C 431.138,48.689 431.621,45.591 428.969,45.259" stroke-width="5.902" stroke="black" fill="none" stroke-linecap="round"></path><path d="M 428.969,45.259 C 425.229,44.792 421.557,46.105 419.381,50.855" stroke-width="6.494" stroke="black" fill="none" stroke-linecap="round"></path><path d="M 419.381,50.855 C 412.768,65.291 413.815,66.996 411.391,83.631" stroke-width="4.500" stroke="black" fill="none" stroke-linecap="round"></path><path d="M 411.391,83.631 C 408.222,105.368 408.588,105.592 408.195,127.598" stroke-width="4.500" stroke="black" fill="none" stroke-linecap="round"></path><path d="M 408.195,127.598 C 407.789,150.358 407.716,150.494 409.793,173.164" stroke-width="4.500" stroke="black" fill="none" stroke-linecap="round"></path><path d="M 409.793,173.164 C 412.110,198.458 412.630,198.479 416.984,223.526" stroke-width="4.500" stroke="black" fill="none" stroke-linecap="round"></path><path d="M 416.984,223.526 C 420.620,244.445 421.378,244.311 425.773,265.095" stroke-width="4.500" stroke="black" fill="none" stroke-linecap="round"></path><circle r="3" cx="161.30337524414062" cy="205.14004516601562" fill="black"></circle></svg>