<svg xmlns="http://www.w3.org/2000/svg" xmlns:xlink="http://www.w3.org/1999/xlink" viewBox="0 0 576 416" width="576" height="416"><path d="M 350.667,404.957 C 344.674,402.559 344.526,402.875 338.682,400.160" stroke-width="8.254" stroke="black" fill="none" stroke-linecap="round"></path><path d="M 338.682,400.160 C 333.340,397.679 333.213,397.763 328.295,394.565" stroke-width="7.046" stroke="black" fill="none" stroke-linecap="round"></path><path d="M 328.295,394.565 C 325.223,392.567 325.406,392.266 322.702,389.768" stroke-width="6.403" stroke="black" fill="none" stroke-linecap="round"></path><path d="M 322.702,389.768 C 320.213,387.469 320.184,387.478 317.908,384.972" stroke-width="6.345" stroke="black" fill="none" stroke-linecap="round"></path><path d="M 317.908,384.972 C 316.189,383.081 315.475,383.266 314.712,380.975" stroke-width="6.735" stroke="black" fill="none" stroke-linecap="round"></path><path d="M 314.712,380.975 C 313.877,378.470 312.895,376.807 314.712,375.379" stroke-width="7.380" stroke="black" fill="none" stroke-linecap="round"></path><path d="M 314.712,375.379 C 318.488,372.410 320.203,373.058 325.898,372.181" stroke-width="6.856" stroke="black" fill="none" stroke-linecap="round"></path><path d="M 325.898,372.181 C 330.590,371.459 330.713,371.840 335.486,372.181" stroke-width="5.947" stroke="black" fill="none" stroke-linecap="round"></path><path d="M 335.486,372.181 C 341.899,372.640 341.972,372.520 348.270,373.780" stroke-width="5.240" stroke="black" fill="none" stroke-linecap="round"></path><path d="M 348.270,373.780 C 353.957,374.918 353.998,375.012 359.456,376.978" stroke-width="5.312" stroke="black" fill="none" stroke-linecap="round"></path><path d="M 359.456,376.978 C 363.985,378.609 363.992,378.722 368.245,380.975" stroke-width="5.519" stroke="black" fill="none" stroke-linecap="round"></path><path d="M 368.245,380.975 C 370.783,382.319 372.866,382.095 373.039,384.172" stroke-width="6.244" stroke="black" fill="none" stroke-linecap="round"></path><path d="M 373.039,384.172 C 373.265,386.891 371.946,388.826 369.044,390.568" stroke-width="7.257" stroke="black" fill="none" stroke-linecap="round"></path><path d="M 369.044,390.568 C 365.953,392.423 365.058,391.144 361.054,391.367" stroke-width="7.213" stroke="black" fill="none" stroke-linecap="round"></path><path d="M 361.054,391.367 C 357.867,391.544 357.679,390.612 354.662,391.367" stroke-width="7.733" stroke="black" fill="none" stroke-linecap="round"></path><path d="M 354.662,391.367 C 351.287,392.211 351.380,392.814 348.270,394.565" stroke-width="8.016" stroke="black" fill="none" stroke-linecap="round"></path><path d="M 348.270,394.565 C 344.988,396.411 345.235,396.882 341.878,398.562" stroke-width="6.680" stroke="black" fill="none" stroke-linecap="round"></path><path d="M 341.878,398.562 C 338.044,400.479 337.945,400.338 333.888,401.759" stroke-width="6.171" stroke="black" fill="none" stroke-linecap="round"></path><path d="M 333.888,401.759 C 329.955,403.136 329.949,403.192 325.898,404.158" stroke-width="6.077" stroke="black" fill="none" stroke-linecap="round"></path><path d="M 325.898,404.158 C 321.559,405.191 321.539,405.353 317.109,405.756" stroke-width="6.033" stroke="black" fill="none" stroke-linecap="round"></path><path d="M 317.109,405.756 C 312.750,406.153 312.610,406.400 308.320,405.756" stroke-width="5.875" stroke="black" fill="none" stroke-linecap="round"></path><path d="M 308.320,405.756 C 304.620,405.201 304.571,404.908 301.129,403.358" stroke-width="6.115" stroke="black" fill="none" stroke-linecap="round"></path><path d="M 301.129,403.358 C 296.581,401.311 296.628,401.136 292.340,398.562" stroke-width="5.792" stroke="black" fill="none" stroke-linecap="round"></path><path d="M 292.340,398.562 C 288.638,396.339 288.677,396.257 285.149,393.765" stroke-width="5.913" stroke="black" fill="none" stroke-linecap="round"></path><path d="M 285.149,393.765 C 281.886,391.461 281.661,391.681 278.757,388.969" stroke-width="6.476" stroke="black" fill="none" stroke-linecap="round"></path><path d="M 278.757,388.969 C 275.669,386.085 276.157,385.569 273.164,382.574" stroke-width="6.294" stroke="black" fill="none" stroke-linecap="round"></path><path d="M 273.164,382.574 C 270.964,380.373 270.990,377.947 268.370,378.577" stroke-width="7.377" stroke="black" fill="none" stroke-linecap="round"></path><path d="M 268.370,378.577 C 261.003,380.345 260.790,382.991 253.189,387.370" stroke-width="6.752" stroke="black" fill="none" stroke-linecap="round"></path><path d="M 218.032,337.008 C 214.037,337.807 214.037,337.807 210.042,338.606" stroke-width="8.207" stroke="black" fill="none" stroke-linecap="round"></path><path d="M 210.042,338.606 C 198.057,341.005 198.071,341.074 186.072,343.403" stroke-width="4.500" stroke="black" fill="none" stroke-linecap="round"></path><path d="M 186.072,343.403 C 171.304,346.270 171.260,346.047 156.509,348.999" stroke-width="4.500" stroke="black" fill="none" stroke-linecap="round"></path><path d="M 156.509,348.999 C 143.295,351.643 143.356,351.950 130.142,354.594" stroke-width="4.500" stroke="black" fill="none" stroke-linecap="round"></path><path d="M 130.142,354.594 C 121.384,356.347 121.344,356.145 112.564,357.792" stroke-width="4.500" stroke="black" fill="none" stroke-linecap="round"></path><path d="M 112.564,357.792 C 108.560,358.543 104.047,359.039 104.574,359.391" stroke-width="5.300" stroke="black" fill="none" stroke-linecap="round"></path><path d="M 104.574,359.391 C 105.246,359.839 109.770,359.518 114.961,359.391" stroke-width="6.629" stroke="black" fill="none" stroke-linecap="round"></path><path d="M 114.961,359.391 C 126.150,359.118 126.147,358.971 137.333,358.592" stroke-width="4.500" stroke="black" fill="none" stroke-linecap="round"></path><path d="M 137.333,358.592 C 149.717,358.172 149.715,357.995 162.102,357.792" stroke-width="4.500" stroke="black" fill="none" stroke-linecap="round"></path><path d="M 162.102,357.792 C 174.084,357.596 181.833,356.202 186.072,357.792" stroke-width="4.500" stroke="black" fill="none" stroke-linecap="round"></path><path d="M 186.072,357.792 C 188.225,358.600 180.819,361.371 174.886,362.588" stroke-width="5.530" stroke="black" fill="none" stroke-linecap="round"></path><path d="M 174.886,362.588 C 149.658,367.766 149.292,366.422 123.750,370.582" stroke-width="4.500" stroke="black" fill="none" stroke-linecap="round"></path><path d="M 123.750,370.582 C 97.756,374.816 97.739,374.737 71.815,379.376" stroke-width="4.500" stroke="black" fill="none" stroke-linecap="round"></path><path d="M 71.815,379.376 C 48.601,383.530 48.617,383.634 25.473,388.169" stroke-width="4.500" stroke="black" fill="none" stroke-linecap="round"></path><path d="M 25.473,388.169 C 9.865,391.228 9.729,390.781 -5.688,394.565" stroke-width="4.500" stroke="black" fill="none" stroke-linecap="round"></path><path d="M -5.688,394.565 C -11.445,395.977 -17.073,397.567 -16.874,398.562" stroke-width="4.500" stroke="black" fill="none" stroke-linecap="round"></path><path d="M -16.874,398.562 C -16.673,399.565 -10.856,398.998 -4.889,398.562" stroke-width="4.908" stroke="black" fill="none" stroke-linecap="round"></path><path d="M -4.889,398.562 C 5.523,397.799 5.484,397.233 15.885,396.163" stroke-width="4.500" stroke="black" fill="none" stroke-linecap="round"></path><path d="M 15.885,396.163 C 48.231,392.837 48.265,393.164 80.604,389.768" stroke-width="4.500" stroke="black" fill="none" stroke-linecap="round"></path><path d="M 80.604,389.768 C 112.985,386.369 112.883,385.162 145.323,382.574" stroke-width="4.500" stroke="black" fill="none" stroke-linecap="round"></path><path d="M 145.323,382.574 C 178.002,379.966 178.065,380.262 210.841,379.376" stroke-width="4.500" stroke="black" fill="none" stroke-linecap="round"></path><path d="M 210.841,379.376 C 237.191,378.663 237.286,378.135 263.576,379.376" stroke-width="4.500" stroke="black" fill="none" stroke-linecap="round"></path><path d="M 263.576,379.376 C 279.633,380.134 279.746,380.585 295.536,383.373" stroke-width="4.500" stroke="black" fill="none" stroke-linecap="round"></path><path d="M 295.536,383.373 C 300.120,384.183 303.028,385.014 304.325,386.571" stroke-width="4.500" stroke="black" fill="none" stroke-linecap="round"></path><path d="M 304.325,386.571 C 305.025,387.412 302.025,387.805 299.531,388.169" stroke-width="5.849" stroke="black" fill="none" stroke-linecap="round"></path><path d="M 299.531,388.169 C 282.849,390.603 282.585,389.212 265.973,392.166" stroke-width="4.500" stroke="black" fill="none" stroke-linecap="round"></path><path d="M 265.973,392.166 C 246.630,395.607 246.830,396.714 227.620,400.960" stroke-width="4.500" stroke="black" fill="none" stroke-linecap="round"></path><path d="M 227.620,400.960 C 212.473,404.308 212.450,404.210 197.258,407.355" stroke-width="4.500" stroke="black" fill="none" stroke-linecap="round"></path></svg>