<svg xmlns="http://www.w3.org/2000/svg" xmlns:xlink="http://www.w3.org/1999/xlink" viewBox="0 0 576 416" width="576" height="416"><path d="M 84.599,344.236 C 82.602,340.639 82.121,340.835 80.604,337.042" stroke-width="8.199" stroke="black" fill="none" stroke-linecap="round"></path><path d="M 80.604,337.042 C 78.925,332.841 78.848,332.736 78.207,328.248" stroke-width="6.675" stroke="black" fill="none" stroke-linecap="round"></path><path d="M 78.207,328.248 C 77.250,321.545 77.544,321.461 77.408,314.658" stroke-width="5.405" stroke="black" fill="none" stroke-linecap="round"></path><path d="M 77.408,314.658 C 77.145,301.476 77.181,301.464 77.408,288.278" stroke-width="4.500" stroke="black" fill="none" stroke-linecap="round"></path><path d="M 77.408,288.278 C 77.581,278.281 78.207,278.286 78.207,268.293" stroke-width="4.500" stroke="black" fill="none" stroke-linecap="round"></path><path d="M 78.207,268.293 C 78.207,257.502 77.620,257.504 77.408,246.709" stroke-width="4.500" stroke="black" fill="none" stroke-linecap="round"></path><path d="M 77.408,246.709 C 77.220,237.120 77.833,237.096 77.408,227.523" stroke-width="4.500" stroke="black" fill="none" stroke-linecap="round"></path><path d="M 77.408,227.523 C 77.034,219.109 76.291,219.145 75.810,210.736" stroke-width="4.500" stroke="black" fill="none" stroke-linecap="round"></path><path d="M 75.810,210.736 C 75.492,205.155 75.348,205.094 75.810,199.544" stroke-width="5.025" stroke="black" fill="none" stroke-linecap="round"></path><path d="M 75.810,199.544 C 76.147,195.501 75.458,194.803 77.408,191.550" stroke-width="5.722" stroke="black" fill="none" stroke-linecap="round"></path><path d="M 77.408,191.550 C 79.053,188.807 79.985,187.089 83.001,187.553" stroke-width="6.186" stroke="black" fill="none" stroke-linecap="round"></path><path d="M 83.001,187.553 C 90.372,188.688 91.056,190.390 98.182,194.748" stroke-width="6.071" stroke="black" fill="none" stroke-linecap="round"></path><path d="M 98.182,194.748 C 105.438,199.184 105.254,199.613 111.765,205.140" stroke-width="4.973" stroke="black" fill="none" stroke-linecap="round"></path><path d="M 111.765,205.140 C 118.438,210.805 118.247,211.043 124.549,217.131" stroke-width="4.500" stroke="black" fill="none" stroke-linecap="round"></path><path d="M 124.549,217.131 C 129.832,222.235 129.630,222.446 134.936,227.523" stroke-width="4.802" stroke="black" fill="none" stroke-linecap="round"></path><path d="M 134.936,227.523 C 138.819,231.239 138.680,231.469 142.926,234.718" stroke-width="5.279" stroke="black" fill="none" stroke-linecap="round"></path><path d="M 142.926,234.718 C 145.471,236.665 146.009,238.454 148.519,237.916" stroke-width="6.094" stroke="black" fill="none" stroke-linecap="round"></path><path d="M 148.519,237.916 C 151.602,237.255 153.078,235.769 154.112,232.320" stroke-width="7.191" stroke="black" fill="none" stroke-linecap="round"></path><path d="M 154.112,232.320 C 155.475,227.775 154.092,227.071 153.313,221.928" stroke-width="5.981" stroke="black" fill="none" stroke-linecap="round"></path><path d="M 153.313,221.928 C 152.095,213.881 151.825,213.910 150.117,205.939" stroke-width="4.938" stroke="black" fill="none" stroke-linecap="round"></path><path d="M 150.117,205.939 C 148.229,197.123 148.405,197.071 146.122,188.353" stroke-width="4.524" stroke="black" fill="none" stroke-linecap="round"></path><path d="M 146.122,188.353 C 144.010,180.284 143.965,180.278 141.328,172.365" stroke-width="4.536" stroke="black" fill="none" stroke-linecap="round"></path><path d="M 141.328,172.365 C 139.171,165.889 138.985,165.949 136.534,159.574" stroke-width="4.845" stroke="black" fill="none" stroke-linecap="round"></path><path d="M 136.534,159.574 C 134.990,155.556 134.936,155.577 133.338,151.580" stroke-width="5.584" stroke="black" fill="none" stroke-linecap="round"></path><path d="M 245.998,178.760 C 240.804,183.156 239.916,182.384 235.611,187.553" stroke-width="8.264" stroke="black" fill="none" stroke-linecap="round"></path><path d="M 235.611,187.553 C 229.928,194.375 230.102,194.783 226.022,202.742" stroke-width="5.095" stroke="black" fill="none" stroke-linecap="round"></path><path d="M 226.022,202.742 C 222.112,210.371 221.952,210.495 219.630,218.730" stroke-width="4.642" stroke="black" fill="none" stroke-linecap="round"></path><path d="M 219.630,218.730 C 217.557,226.084 217.457,226.313 217.233,233.919" stroke-width="4.700" stroke="black" fill="none" stroke-linecap="round"></path><path d="M 217.233,233.919 C 217.058,239.902 217.379,240.099 218.832,245.910" stroke-width="5.077" stroke="black" fill="none" stroke-linecap="round"></path><path d="M 218.832,245.910 C 219.776,249.691 219.796,252.918 222.027,253.104" stroke-width="5.852" stroke="black" fill="none" stroke-linecap="round"></path><path d="M 222.027,253.104 C 224.590,253.318 226.495,250.561 228.419,246.709" stroke-width="7.150" stroke="black" fill="none" stroke-linecap="round"></path><path d="M 228.419,246.709 C 230.490,242.567 229.535,241.948 230.017,237.116" stroke-width="6.089" stroke="black" fill="none" stroke-linecap="round"></path><path d="M 230.017,237.116 C 230.733,229.957 230.285,229.911 230.816,222.727" stroke-width="5.462" stroke="black" fill="none" stroke-linecap="round"></path><path d="M 230.816,222.727 C 231.084,219.119 230.211,218.576 231.615,215.532" stroke-width="5.956" stroke="black" fill="none" stroke-linecap="round"></path><path d="M 231.615,215.532 C 232.608,213.380 233.544,212.335 235.611,212.335" stroke-width="7.150" stroke="black" fill="none" stroke-linecap="round"></path><path d="M 235.611,212.335 C 237.938,212.335 238.160,213.736 240.405,215.532" stroke-width="6.914" stroke="black" fill="none" stroke-linecap="round"></path><path d="M 240.405,215.532 C 244.153,218.532 243.867,218.897 247.596,221.928" stroke-width="6.053" stroke="black" fill="none" stroke-linecap="round"></path><path d="M 247.596,221.928 C 250.259,224.093 250.392,223.926 253.189,225.924" stroke-width="6.298" stroke="black" fill="none" stroke-linecap="round"></path><path d="M 279.556,185.954 C 284.749,191.950 285.128,191.662 289.943,197.945" stroke-width="8.040" stroke="black" fill="none" stroke-linecap="round"></path><path d="M 289.943,197.945 C 294.316,203.653 294.232,203.765 297.933,209.936" stroke-width="5.638" stroke="black" fill="none" stroke-linecap="round"></path><path d="M 297.933,209.936 C 301.423,215.756 301.576,215.740 304.325,221.928" stroke-width="5.177" stroke="black" fill="none" stroke-linecap="round"></path><path d="M 304.325,221.928 C 306.370,226.532 306.301,226.638 307.521,231.520" stroke-width="5.495" stroke="black" fill="none" stroke-linecap="round"></path><path d="M 307.521,231.520 C 308.298,234.632 308.808,238.405 308.320,237.916" stroke-width="6.178" stroke="black" fill="none" stroke-linecap="round"></path><path d="M 308.320,237.916 C 307.610,237.206 305.860,233.693 305.124,229.122" stroke-width="7.271" stroke="black" fill="none" stroke-linecap="round"></path><path d="M 305.124,229.122 C 303.863,221.302 304.541,221.133 304.325,213.134" stroke-width="5.201" stroke="black" fill="none" stroke-linecap="round"></path><path d="M 304.325,213.134 C 304.141,206.344 303.161,206.140 304.325,199.544" stroke-width="4.962" stroke="black" fill="none" stroke-linecap="round"></path><path d="M 304.325,199.544 C 305.558,192.550 305.766,192.147 309.119,185.954" stroke-width="5.147" stroke="black" fill="none" stroke-linecap="round"></path><path d="M 309.119,185.954 C 310.959,182.554 311.334,182.048 314.712,180.359" stroke-width="5.874" stroke="black" fill="none" stroke-linecap="round"></path><path d="M 314.712,180.359 C 318.525,178.451 319.072,179.182 323.501,178.760" stroke-width="5.805" stroke="black" fill="none" stroke-linecap="round"></path><path d="M 323.501,178.760 C 327.462,178.382 327.523,178.376 331.491,178.760" stroke-width="6.098" stroke="black" fill="none" stroke-linecap="round"></path><path d="M 331.491,178.760 C 339.908,179.575 339.926,179.697 348.270,181.158" stroke-width="4.889" stroke="black" fill="none" stroke-linecap="round"></path><path d="M 348.270,181.158 C 355.906,182.495 355.837,182.881 363.451,184.356" stroke-width="4.661" stroke="black" fill="none" stroke-linecap="round"></path><path d="M 363.451,184.356 C 368.221,185.279 368.245,185.155 373.039,185.954" stroke-width="5.431" stroke="black" fill="none" stroke-linecap="round"></path><path d="M 400.205,166.769 C 397.808,171.165 396.874,170.927 395.411,175.562" stroke-width="8.375" stroke="black" fill="none" stroke-linecap="round"></path><path d="M 395.411,175.562 C 394.477,178.522 394.494,179.022 395.411,181.957" stroke-width="7.000" stroke="black" fill="none" stroke-linecap="round"></path><path d="M 395.411,181.957 C 396.492,185.418 396.809,185.754 399.406,188.353" stroke-width="6.446" stroke="black" fill="none" stroke-linecap="round"></path><path d="M 399.406,188.353 C 402.002,190.950 402.322,191.327 405.798,192.350" stroke-width="6.297" stroke="black" fill="none" stroke-linecap="round"></path><path d="M 405.798,192.350 C 409.113,193.325 409.524,193.103 412.989,192.350" stroke-width="6.316" stroke="black" fill="none" stroke-linecap="round"></path><path d="M 412.989,192.350 C 418.712,191.105 418.861,190.884 424.175,188.353" stroke-width="5.567" stroke="black" fill="none" stroke-linecap="round"></path><path d="M 424.175,188.353 C 427.250,186.887 427.049,186.457 429.768,184.356" stroke-width="6.131" stroke="black" fill="none" stroke-linecap="round"></path><path d="M 429.768,184.356 C 435.838,179.662 436.014,179.842 441.753,174.763" stroke-width="4.967" stroke="black" fill="none" stroke-linecap="round"></path><path d="M 441.753,174.763 C 446.401,170.649 446.448,170.612 450.542,165.969" stroke-width="5.211" stroke="black" fill="none" stroke-linecap="round"></path><path d="M 450.542,165.969 C 452.440,163.817 455.274,160.055 453.738,161.173" stroke-width="6.121" stroke="black" fill="none" stroke-linecap="round"></path><path d="M 453.738,161.173 C 446.485,166.451 443.117,169.706 432.964,178.760" stroke-width="5.290" stroke="black" fill="none" stroke-linecap="round"></path><path d="M 432.964,178.760 C 424.740,186.093 424.641,186.040 416.984,193.948" stroke-width="4.500" stroke="black" fill="none" stroke-linecap="round"></path><path d="M 416.984,193.948 C 412.257,198.831 407.406,203.552 408.195,204.341" stroke-width="4.747" stroke="black" fill="none" stroke-linecap="round"></path><path d="M 408.195,204.341 C 409.004,205.151 414.569,201.283 420.180,197.146" stroke-width="6.177" stroke="black" fill="none" stroke-linecap="round"></path><path d="M 420.180,197.146 C 429.750,190.091 429.697,189.913 438.557,181.957" stroke-width="4.500" stroke="black" fill="none" stroke-linecap="round"></path><path d="M 438.557,181.957 C 445.277,175.923 445.420,175.937 451.341,169.167" stroke-width="4.500" stroke="black" fill="none" stroke-linecap="round"></path><path d="M 451.341,169.167 C 453.810,166.344 456.565,164.352 455.336,162.772" stroke-width="5.506" stroke="black" fill="none" stroke-linecap="round"></path><path d="M 455.336,162.772 C 453.768,160.755 450.375,160.897 445.748,161.972" stroke-width="5.673" stroke="black" fill="none" stroke-linecap="round"></path><path d="M 445.748,161.972 C 428.003,166.094 427.818,166.598 410.592,173.164" stroke-width="4.500" stroke="black" fill="none" stroke-linecap="round"></path><path d="M 410.592,173.164 C 369.092,188.981 369.018,188.979 328.295,206.739" stroke-width="4.500" stroke="black" fill="none" stroke-linecap="round"></path><path d="M 328.295,206.739 C 291.115,222.953 290.775,222.443 254.787,241.113" stroke-width="4.500" stroke="black" fill="none" stroke-linecap="round"></path><path d="M 254.787,241.113 C 215.269,261.614 215.974,262.990 177.283,285.080" stroke-width="4.500" stroke="black" fill="none" stroke-linecap="round"></path><path d="M 177.283,285.080 C 142.466,304.959 142.764,305.493 107.770,325.051" stroke-width="4.500" stroke="black" fill="none" stroke-linecap="round"></path><path d="M 107.770,325.051 C 84.836,337.868 85.233,339.085 61.428,349.832" stroke-width="4.500" stroke="black" fill="none" stroke-linecap="round"></path><path d="M 61.428,349.832 C 52.474,353.874 39.696,358.465 42.252,354.629" stroke-width="4.500" stroke="black" fill="none" stroke-linecap="round"></path><path d="M 42.252,354.629 C 48.485,345.275 60.099,338.378 79.006,323.452" stroke-width="4.500" stroke="black" fill="none" stroke-linecap="round"></path><path d="M 79.006,323.452 C 111.235,298.009 110.985,297.563 144.524,273.889" stroke-width="4.500" stroke="black" fill="none" stroke-linecap="round"></path><path d="M 144.524,273.889 C 176.104,251.597 177.007,252.890 209.243,231.520" stroke-width="4.500" stroke="black" fill="none" stroke-linecap="round"></path><path d="M 209.243,231.520 C 242.126,209.722 241.444,208.651 274.762,187.553" stroke-width="4.500" stroke="black" fill="none" stroke-linecap="round"></path><path d="M 274.762,187.553 C 304.565,168.681 304.907,169.188 335.486,151.580" stroke-width="4.500" stroke="black" fill="none" stroke-linecap="round"></path><path d="M 335.486,151.580 C 360.437,137.212 360.023,136.281 385.823,123.601" stroke-width="4.500" stroke="black" fill="none" stroke-linecap="round"></path><path d="M 385.823,123.601 C 405.566,113.897 406.197,115.207 426.572,106.813" stroke-width="4.500" stroke="black" fill="none" stroke-linecap="round"></path></svg>