<svg xmlns="http://www.w3.org/2000/svg" xmlns:xlink="http://www.w3.org/1999/xlink" viewBox="0 0 576 416" width="576" height="416"><path d="M 251.591,322.652 C 251.591,316.257 251.591,316.257 251.591,309.862" stroke-width="7.246" stroke="black" fill="none" stroke-linecap="round"></path><path d="M 251.591,309.862 C 251.591,304.666 251.393,304.661 251.591,299.470" stroke-width="5.778" stroke="black" fill="none" stroke-linecap="round"></path><path d="M 251.591,299.470 C 252.592,273.085 253.118,273.097 253.988,246.709" stroke-width="4.500" stroke="black" fill="none" stroke-linecap="round"></path><path d="M 253.988,246.709 C 254.317,236.724 253.988,236.717 253.988,226.724" stroke-width="4.500" stroke="black" fill="none" stroke-linecap="round"></path><path d="M 253.988,226.724 C 253.988,207.538 254.177,207.536 253.988,188.353" stroke-width="4.500" stroke="black" fill="none" stroke-linecap="round"></path><path d="M 253.988,188.353 C 253.778,167.167 254.002,167.148 253.189,145.984" stroke-width="4.500" stroke="black" fill="none" stroke-linecap="round"></path><path d="M 253.189,145.984 C 252.804,135.971 252.540,135.977 251.591,125.999" stroke-width="4.500" stroke="black" fill="none" stroke-linecap="round"></path><path d="M 251.591,125.999 C 250.942,119.189 251.278,119.096 249.993,112.409" stroke-width="4.500" stroke="black" fill="none" stroke-linecap="round"></path><path d="M 249.993,112.409 C 249.280,108.704 247.728,103.888 247.596,105.215" stroke-width="5.559" stroke="black" fill="none" stroke-linecap="round"></path><path d="M 247.596,105.215 C 247.329,107.885 248.449,112.804 249.194,120.403" stroke-width="6.702" stroke="black" fill="none" stroke-linecap="round"></path><path d="M 249.194,120.403 C 250.446,133.188 250.348,133.198 251.591,145.984" stroke-width="4.500" stroke="black" fill="none" stroke-linecap="round"></path><path d="M 251.591,145.984 C 253.145,161.977 252.922,162.004 254.787,177.960" stroke-width="4.500" stroke="black" fill="none" stroke-linecap="round"></path><path d="M 254.787,177.960 C 256.518,192.781 256.642,192.770 258.782,207.538" stroke-width="4.500" stroke="black" fill="none" stroke-linecap="round"></path><path d="M 258.782,207.538 C 260.637,220.349 260.152,220.467 262.777,233.119" stroke-width="4.500" stroke="black" fill="none" stroke-linecap="round"></path><path d="M 262.777,233.119 C 264.546,241.651 265.208,241.503 267.571,249.907" stroke-width="4.500" stroke="black" fill="none" stroke-linecap="round"></path><path d="M 267.571,249.907 C 268.804,254.294 268.618,259.750 269.968,258.700" stroke-width="5.179" stroke="black" fill="none" stroke-linecap="round"></path><path d="M 269.968,258.700 C 272.213,256.952 273.847,251.765 274.762,244.311" stroke-width="6.544" stroke="black" fill="none" stroke-linecap="round"></path><path d="M 274.762,244.311 C 276.643,228.982 275.561,228.723 275.561,213.134" stroke-width="4.500" stroke="black" fill="none" stroke-linecap="round"></path><path d="M 275.561,213.134 C 275.561,196.747 275.822,196.702 274.762,180.359" stroke-width="4.500" stroke="black" fill="none" stroke-linecap="round"></path><path d="M 274.762,180.359 C 273.825,165.925 273.388,165.940 271.566,151.580" stroke-width="4.500" stroke="black" fill="none" stroke-linecap="round"></path><path d="M 271.566,151.580 C 270.192,140.759 269.780,140.812 268.370,129.996" stroke-width="4.500" stroke="black" fill="none" stroke-linecap="round"></path><path d="M 268.370,129.996 C 267.383,122.426 267.849,122.356 266.772,114.807" stroke-width="4.500" stroke="black" fill="none" stroke-linecap="round"></path><path d="M 266.772,114.807 C 266.251,111.165 265.649,106.821 265.174,107.613" stroke-width="5.528" stroke="black" fill="none" stroke-linecap="round"></path><path d="M 265.174,107.613 C 264.450,108.819 264.375,113.206 264.375,118.804" stroke-width="6.902" stroke="black" fill="none" stroke-linecap="round"></path><path d="M 264.375,118.804 C 264.375,125.597 262.983,126.078 265.174,132.394" stroke-width="5.554" stroke="black" fill="none" stroke-linecap="round"></path><path d="M 265.174,132.394 C 269.775,145.663 269.508,147.144 277.958,157.975" stroke-width="5.020" stroke="black" fill="none" stroke-linecap="round"></path><path d="M 277.958,157.975 C 282.292,163.531 283.863,163.124 290.742,165.170" stroke-width="4.886" stroke="black" fill="none" stroke-linecap="round"></path><path d="M 290.742,165.170 C 298.645,167.521 299.146,166.955 307.521,166.769" stroke-width="4.623" stroke="black" fill="none" stroke-linecap="round"></path><path d="M 307.521,166.769 C 317.123,166.555 317.267,166.336 326.697,164.370" stroke-width="4.500" stroke="black" fill="none" stroke-linecap="round"></path><path d="M 326.697,164.370 C 336.443,162.339 336.488,162.128 345.873,158.775" stroke-width="4.500" stroke="black" fill="none" stroke-linecap="round"></path><path d="M 345.873,158.775 C 353.267,156.132 353.174,155.800 360.255,152.379" stroke-width="4.500" stroke="black" fill="none" stroke-linecap="round"></path><path d="M 360.255,152.379 C 364.759,150.204 369.243,147.981 369.044,147.583" stroke-width="5.239" stroke="black" fill="none" stroke-linecap="round"></path><path d="M 369.044,147.583 C 368.843,147.181 364.131,148.871 359.456,150.781" stroke-width="6.646" stroke="black" fill="none" stroke-linecap="round"></path><path d="M 359.456,150.781 C 344.556,156.865 344.659,157.140 329.893,163.571" stroke-width="4.500" stroke="black" fill="none" stroke-linecap="round"></path><path d="M 329.893,163.571 C 310.701,171.929 310.658,171.834 291.541,180.359" stroke-width="4.500" stroke="black" fill="none" stroke-linecap="round"></path><path d="M 291.541,180.359 C 273.904,188.222 273.984,188.401 256.385,196.347" stroke-width="4.500" stroke="black" fill="none" stroke-linecap="round"></path><path d="M 256.385,196.347 C 241.225,203.190 240.976,202.676 226.022,209.936" stroke-width="4.500" stroke="black" fill="none" stroke-linecap="round"></path><path d="M 226.022,209.936 C 213.810,215.866 214.057,216.368 202.052,222.727" stroke-width="4.500" stroke="black" fill="none" stroke-linecap="round"></path><path d="M 202.052,222.727 C 193.682,227.160 193.689,227.175 185.273,231.520" stroke-width="4.500" stroke="black" fill="none" stroke-linecap="round"></path><path d="M 185.273,231.520 C 181.305,233.570 175.824,236.491 177.283,235.517" stroke-width="5.180" stroke="black" fill="none" stroke-linecap="round"></path><path d="M 177.283,235.517 C 180.618,233.293 185.881,229.974 194.861,225.125" stroke-width="5.972" stroke="black" fill="none" stroke-linecap="round"></path><path d="M 194.861,225.125 C 211.050,216.384 211.201,216.653 227.620,208.338" stroke-width="4.500" stroke="black" fill="none" stroke-linecap="round"></path><path d="M 227.620,208.338 C 243.561,200.265 243.434,199.990 259.581,192.350" stroke-width="4.500" stroke="black" fill="none" stroke-linecap="round"></path><path d="M 259.581,192.350 C 272.997,186.001 272.973,185.871 286.747,180.359" stroke-width="4.500" stroke="black" fill="none" stroke-linecap="round"></path><path d="M 286.747,180.359 C 296.944,176.278 296.901,175.579 307.521,173.164" stroke-width="4.500" stroke="black" fill="none" stroke-linecap="round"></path><path d="M 307.521,173.164 C 314.479,171.582 315.233,170.935 321.903,172.365" stroke-width="4.500" stroke="black" fill="none" stroke-linecap="round"></path><path d="M 321.903,172.365 C 326.419,173.333 327.588,174.058 329.893,177.960" stroke-width="5.263" stroke="black" fill="none" stroke-linecap="round"></path><path d="M 329.893,177.960 C 332.782,182.852 331.785,183.887 332.290,189.951" stroke-width="6.144" stroke="black" fill="none" stroke-linecap="round"></path><path d="M 332.290,189.951 C 332.983,198.276 332.489,198.350 332.290,206.739" stroke-width="5.022" stroke="black" fill="none" stroke-linecap="round"></path><path d="M 332.290,206.739 C 332.090,215.137 332.119,215.150 331.491,223.526" stroke-width="4.562" stroke="black" fill="none" stroke-linecap="round"></path><path d="M 331.491,223.526 C 330.920,231.138 330.584,231.111 329.893,238.715" stroke-width="4.686" stroke="black" fill="none" stroke-linecap="round"></path><path d="M 329.893,238.715 C 329.385,244.301 329.348,244.306 329.094,249.907" stroke-width="5.178" stroke="black" fill="none" stroke-linecap="round"></path><path d="M 329.094,249.907 C 328.949,253.099 327.482,255.585 329.094,256.302" stroke-width="6.061" stroke="black" fill="none" stroke-linecap="round"></path><path d="M 329.094,256.302 C 331.077,257.184 334.530,256.265 336.285,253.104" stroke-width="7.180" stroke="black" fill="none" stroke-linecap="round"></path><path d="M 336.285,253.104 C 340.522,245.473 339.312,244.038 341.079,234.718" stroke-width="4.843" stroke="black" fill="none" stroke-linecap="round"></path><path d="M 341.079,234.718 C 343.707,220.855 344.124,220.803 345.074,206.739" stroke-width="4.500" stroke="black" fill="none" stroke-linecap="round"></path><path d="M 345.074,206.739 C 346.121,191.225 346.020,191.096 345.074,175.562" stroke-width="4.500" stroke="black" fill="none" stroke-linecap="round"></path><path d="M 345.074,175.562 C 344.023,158.320 344.127,158.180 341.079,141.188" stroke-width="4.500" stroke="black" fill="none" stroke-linecap="round"></path><path d="M 341.079,141.188 C 338.534,127.003 337.993,127.045 333.888,113.209" stroke-width="4.500" stroke="black" fill="none" stroke-linecap="round"></path><path d="M 333.888,113.209 C 330.403,101.464 330.103,101.540 325.898,90.026" stroke-width="4.500" stroke="black" fill="none" stroke-linecap="round"></path><path d="M 325.898,90.026 C 322.512,80.756 322.329,80.822 318.707,71.640" stroke-width="4.500" stroke="black" fill="none" stroke-linecap="round"></path><path d="M 318.707,71.640 C 316.337,65.633 316.687,65.453 313.913,59.649" stroke-width="4.692" stroke="black" fill="none" stroke-linecap="round"></path><path d="M 313.913,59.649 C 312.293,56.260 312.658,54.853 309.918,53.253" stroke-width="5.675" stroke="black" fill="none" stroke-linecap="round"></path><path d="M 309.918,53.253 C 307.864,52.055 305.191,52.318 304.325,54.053" stroke-width="6.983" stroke="black" fill="none" stroke-linecap="round"></path><path d="M 304.325,54.053 C 303.194,56.315 304.356,57.970 305.923,61.247" stroke-width="7.241" stroke="black" fill="none" stroke-linecap="round"></path><path d="M 305.923,61.247 C 308.750,67.163 308.492,67.815 313.114,72.439" stroke-width="5.553" stroke="black" fill="none" stroke-linecap="round"></path><path d="M 313.114,72.439 C 319.278,78.607 319.559,79.239 327.496,82.831" stroke-width="4.695" stroke="black" fill="none" stroke-linecap="round"></path><path d="M 327.496,82.831 C 336.338,86.833 336.933,86.290 346.672,87.628" stroke-width="4.500" stroke="black" fill="none" stroke-linecap="round"></path><path d="M 346.672,87.628 C 357.308,89.088 357.546,89.220 368.245,88.427" stroke-width="4.500" stroke="black" fill="none" stroke-linecap="round"></path><path d="M 368.245,88.427 C 379.119,87.621 379.123,86.832 389.818,84.430" stroke-width="4.500" stroke="black" fill="none" stroke-linecap="round"></path><path d="M 389.818,84.430 C 398.699,82.435 398.601,82.012 407.396,79.634" stroke-width="4.500" stroke="black" fill="none" stroke-linecap="round"></path><path d="M 407.396,79.634 C 413.383,78.015 413.380,78.002 419.381,76.436" stroke-width="4.832" stroke="black" fill="none" stroke-linecap="round"></path><path d="M 419.381,76.436 C 422.568,75.604 426.104,74.175 425.773,74.837" stroke-width="5.882" stroke="black" fill="none" stroke-linecap="round"></path><path d="M 425.773,74.837 C 425.305,75.774 421.983,77.633 417.783,79.634" stroke-width="6.689" stroke="black" fill="none" stroke-linecap="round"></path><path d="M 417.783,79.634 C 405.204,85.627 404.818,84.844 392.215,90.825" stroke-width="4.500" stroke="black" fill="none" stroke-linecap="round"></path><path d="M 392.215,90.825 C 373.657,99.633 374.059,100.489 355.461,109.212" stroke-width="4.500" stroke="black" fill="none" stroke-linecap="round"></path><path d="M 355.461,109.212 C 335.707,118.476 335.328,117.662 315.511,126.798" stroke-width="4.500" stroke="black" fill="none" stroke-linecap="round"></path><path d="M 315.511,126.798 C 294.579,136.448 294.618,136.553 273.963,146.784" stroke-width="4.500" stroke="black" fill="none" stroke-linecap="round"></path><path d="M 273.963,146.784 C 254.269,156.538 254.155,156.348 234.811,166.769" stroke-width="4.500" stroke="black" fill="none" stroke-linecap="round"></path><path d="M 234.811,166.769 C 217.801,175.933 218.067,176.422 201.253,185.954" stroke-width="4.500" stroke="black" fill="none" stroke-linecap="round"></path><path d="M 201.253,185.954 C 194.097,190.012 194.014,189.865 186.871,193.948" stroke-width="4.500" stroke="black" fill="none" stroke-linecap="round"></path><path d="M 186.871,193.948 C 171.641,202.656 171.908,203.190 156.509,211.535" stroke-width="4.500" stroke="black" fill="none" stroke-linecap="round"></path><path d="M 156.509,211.535 C 152.732,213.582 147.832,216.109 148.519,214.733" stroke-width="4.641" stroke="black" fill="none" stroke-linecap="round"></path><path d="M 148.519,214.733 C 149.829,212.112 153.936,208.399 160.504,203.541" stroke-width="5.990" stroke="black" fill="none" stroke-linecap="round"></path><path d="M 160.504,203.541 C 172.313,194.809 172.766,195.351 185.273,187.553" stroke-width="4.500" stroke="black" fill="none" stroke-linecap="round"></path><path d="M 185.273,187.553 C 200.332,178.164 200.176,177.867 215.635,169.167" stroke-width="4.500" stroke="black" fill="none" stroke-linecap="round"></path><path d="M 215.635,169.167 C 232.136,159.880 232.178,159.889 249.194,151.580" stroke-width="4.500" stroke="black" fill="none" stroke-linecap="round"></path><path d="M 249.194,151.580 C 265.736,143.501 265.890,143.798 282.752,136.391" stroke-width="4.500" stroke="black" fill="none" stroke-linecap="round"></path><path d="M 282.752,136.391 C 298.649,129.408 298.621,129.323 314.712,122.802" stroke-width="4.500" stroke="black" fill="none" stroke-linecap="round"></path><path d="M 314.712,122.802 C 330.181,116.532 330.315,116.864 345.873,110.810" stroke-width="4.500" stroke="black" fill="none" stroke-linecap="round"></path><path d="M 345.873,110.810 C 359.079,105.672 358.900,105.169 372.240,100.418" stroke-width="4.500" stroke="black" fill="none" stroke-linecap="round"></path><path d="M 372.240,100.418 C 382.471,96.775 382.617,97.189 393.014,94.023" stroke-width="4.500" stroke="black" fill="none" stroke-linecap="round"></path><path d="M 393.014,94.023 C 400.994,91.593 400.991,91.581 408.994,89.227" stroke-width="4.500" stroke="black" fill="none" stroke-linecap="round"></path><path d="M 408.994,89.227 C 414.574,87.584 414.507,87.211 420.180,86.029" stroke-width="4.951" stroke="black" fill="none" stroke-linecap="round"></path><path d="M 420.180,86.029 C 424.095,85.213 424.220,85.888 428.170,85.230" stroke-width="5.711" stroke="black" fill="none" stroke-linecap="round"></path><circle r="3" cx="427.3708190917969" cy="181.157958984375" fill="black"></circle></svg>