<svg xmlns="http://www.w3.org/2000/svg" xmlns:xlink="http://www.w3.org/1999/xlink" viewBox="0 0 576 416" width="576" height="416"><path d="M 310.717,82.831 C 307.920,79.634 308.502,77.492 305.124,76.436" stroke-width="8.665" stroke="black" fill="none" stroke-linecap="round"></path><path d="M 305.124,76.436 C 302.110,75.494 301.003,76.786 297.933,78.834" stroke-width="7.708" stroke="black" fill="none" stroke-linecap="round"></path><path d="M 297.933,78.834 C 293.812,81.583 294.337,82.432 290.742,86.029" stroke-width="6.126" stroke="black" fill="none" stroke-linecap="round"></path><path d="M 290.742,86.029 C 288.744,88.027 288.351,87.718 286.747,90.026" stroke-width="6.484" stroke="black" fill="none" stroke-linecap="round"></path><path d="M 286.747,90.026 C 281.959,96.911 281.912,96.996 277.958,104.415" stroke-width="5.079" stroke="black" fill="none" stroke-linecap="round"></path><path d="M 277.958,104.415 C 275.520,108.987 275.599,109.097 273.963,114.008" stroke-width="5.423" stroke="black" fill="none" stroke-linecap="round"></path><path d="M 273.963,114.008 C 272.802,117.491 271.565,118.005 272.365,121.203" stroke-width="5.995" stroke="black" fill="none" stroke-linecap="round"></path><path d="M 272.365,121.203 C 273.163,124.400 274.196,126.798 277.159,126.798" stroke-width="6.912" stroke="black" fill="none" stroke-linecap="round"></path><path d="M 277.159,126.798 C 282.186,126.798 283.041,124.468 288.345,121.203" stroke-width="6.676" stroke="black" fill="none" stroke-linecap="round"></path><path d="M 288.345,121.203 C 293.428,118.073 293.070,117.511 297.933,114.008" stroke-width="5.632" stroke="black" fill="none" stroke-linecap="round"></path><path d="M 297.933,114.008 C 303.058,110.316 303.941,111.194 308.320,106.813" stroke-width="5.387" stroke="black" fill="none" stroke-linecap="round"></path><path d="M 308.320,106.813 C 311.931,103.200 310.358,101.576 313.913,98.020" stroke-width="5.520" stroke="black" fill="none" stroke-linecap="round"></path><path d="M 313.913,98.020 C 316.350,95.581 316.958,95.492 320.305,94.822" stroke-width="5.993" stroke="black" fill="none" stroke-linecap="round"></path><path d="M 320.305,94.822 C 322.950,94.293 325.338,94.128 325.898,95.622" stroke-width="6.507" stroke="black" fill="none" stroke-linecap="round"></path><path d="M 325.898,95.622 C 326.536,97.326 324.569,98.601 322.702,101.218" stroke-width="7.214" stroke="black" fill="none" stroke-linecap="round"></path><path d="M 322.702,101.218 C 318.577,106.995 318.375,106.867 313.913,112.409" stroke-width="5.421" stroke="black" fill="none" stroke-linecap="round"></path><path d="M 313.913,112.409 C 306.789,121.257 306.670,121.161 299.531,129.996" stroke-width="4.500" stroke="black" fill="none" stroke-linecap="round"></path><path d="M 299.531,129.996 C 291.489,139.947 291.793,140.201 283.551,149.981" stroke-width="4.500" stroke="black" fill="none" stroke-linecap="round"></path><path d="M 283.551,149.981 C 274.614,160.585 274.248,160.275 265.174,170.766" stroke-width="4.500" stroke="black" fill="none" stroke-linecap="round"></path><path d="M 265.174,170.766 C 256.270,181.059 256.483,181.243 247.596,191.550" stroke-width="4.500" stroke="black" fill="none" stroke-linecap="round"></path><path d="M 247.596,191.550 C 238.905,201.628 238.763,201.505 230.017,211.535" stroke-width="4.500" stroke="black" fill="none" stroke-linecap="round"></path><path d="M 230.017,211.535 C 222.383,220.291 222.484,220.378 214.836,229.122" stroke-width="4.500" stroke="black" fill="none" stroke-linecap="round"></path><path d="M 214.836,229.122 C 208.501,236.366 208.388,236.267 202.052,243.511" stroke-width="4.500" stroke="black" fill="none" stroke-linecap="round"></path><path d="M 202.052,243.511 C 197.202,249.058 197.533,249.379 192.464,254.703" stroke-width="4.561" stroke="black" fill="none" stroke-linecap="round"></path><path d="M 192.464,254.703 C 189.543,257.772 186.369,261.781 186.072,260.299" stroke-width="5.482" stroke="black" fill="none" stroke-linecap="round"></path><path d="M 186.072,260.299 C 185.570,257.784 187.788,253.194 190.866,246.709" stroke-width="6.723" stroke="black" fill="none" stroke-linecap="round"></path><path d="M 190.866,246.709 C 195.378,237.206 195.911,237.429 201.253,228.323" stroke-width="4.500" stroke="black" fill="none" stroke-linecap="round"></path><path d="M 201.253,228.323 C 206.698,219.042 206.791,219.095 212.439,209.936" stroke-width="4.500" stroke="black" fill="none" stroke-linecap="round"></path><path d="M 212.439,209.936 C 218.377,200.309 218.608,200.449 224.425,190.751" stroke-width="4.500" stroke="black" fill="none" stroke-linecap="round"></path><path d="M 224.425,190.751 C 229.395,182.462 229.470,182.484 234.013,173.963" stroke-width="4.500" stroke="black" fill="none" stroke-linecap="round"></path><path d="M 234.013,173.963 C 235.862,170.493 235.328,170.217 237.208,166.769" stroke-width="5.386" stroke="black" fill="none" stroke-linecap="round"></path><path d="M 237.208,166.769 C 240.122,161.424 240.890,161.799 243.601,156.376" stroke-width="5.283" stroke="black" fill="none" stroke-linecap="round"></path><path d="M 243.601,156.376 C 245.285,153.006 246.989,149.016 245.998,149.182" stroke-width="5.908" stroke="black" fill="none" stroke-linecap="round"></path><path d="M 245.998,149.182 C 244.592,149.416 242.234,153.037 238.806,157.176" stroke-width="6.529" stroke="black" fill="none" stroke-linecap="round"></path><path d="M 238.806,157.176 C 230.649,167.026 230.615,167.013 222.826,177.161" stroke-width="4.500" stroke="black" fill="none" stroke-linecap="round"></path><path d="M 222.826,177.161 C 213.436,189.396 213.372,189.363 204.449,201.942" stroke-width="4.500" stroke="black" fill="none" stroke-linecap="round"></path><path d="M 204.449,201.942 C 195.794,214.145 195.115,213.788 187.670,226.724" stroke-width="4.500" stroke="black" fill="none" stroke-linecap="round"></path><path d="M 187.670,226.724 C 179.934,240.168 182.167,241.514 174.087,254.703" stroke-width="4.500" stroke="black" fill="none" stroke-linecap="round"></path><path d="M 174.087,254.703 C 166.986,266.296 165.790,265.568 157.308,276.287" stroke-width="4.500" stroke="black" fill="none" stroke-linecap="round"></path><path d="M 157.308,276.287 C 150.609,284.754 150.587,284.739 143.725,293.074" stroke-width="4.500" stroke="black" fill="none" stroke-linecap="round"></path><path d="M 143.725,293.074 C 139.401,298.328 139.291,298.238 134.936,303.467" stroke-width="4.552" stroke="black" fill="none" stroke-linecap="round"></path><path d="M 134.936,303.467 C 133.299,305.433 131.877,308.418 131.740,307.464" stroke-width="5.985" stroke="black" fill="none" stroke-linecap="round"></path><path d="M 131.740,307.464 C 131.477,305.620 132.229,302.405 134.137,297.871" stroke-width="6.643" stroke="black" fill="none" stroke-linecap="round"></path><path d="M 134.137,297.871 C 138.621,287.216 139.077,287.345 144.524,277.086" stroke-width="4.500" stroke="black" fill="none" stroke-linecap="round"></path><path d="M 144.524,277.086 C 152.660,261.764 152.810,261.839 161.303,246.709" stroke-width="4.500" stroke="black" fill="none" stroke-linecap="round"></path><path d="M 161.303,246.709 C 169.189,232.661 169.293,232.719 177.283,218.730" stroke-width="4.500" stroke="black" fill="none" stroke-linecap="round"></path><path d="M 177.283,218.730 C 185.273,204.740 185.043,204.603 193.263,190.751" stroke-width="4.500" stroke="black" fill="none" stroke-linecap="round"></path><path d="M 193.263,190.751 C 200.224,179.022 200.665,179.284 207.645,167.568" stroke-width="4.500" stroke="black" fill="none" stroke-linecap="round"></path><path d="M 207.645,167.568 C 213.049,158.499 212.907,158.412 218.032,149.182" stroke-width="4.500" stroke="black" fill="none" stroke-linecap="round"></path><path d="M 218.032,149.182 C 220.897,144.023 224.636,139.801 223.625,138.790" stroke-width="4.740" stroke="black" fill="none" stroke-linecap="round"></path><path d="M 223.625,138.790 C 222.639,137.802 217.911,140.995 214.037,145.185" stroke-width="6.303" stroke="black" fill="none" stroke-linecap="round"></path><path d="M 214.037,145.185 C 203.129,156.983 203.520,157.593 194.062,170.766" stroke-width="4.500" stroke="black" fill="none" stroke-linecap="round"></path><path d="M 194.062,170.766 C 183.146,185.971 183.584,186.294 173.288,201.942" stroke-width="4.500" stroke="black" fill="none" stroke-linecap="round"></path><path d="M 173.288,201.942 C 162.810,217.870 162.465,217.664 152.514,233.919" stroke-width="4.500" stroke="black" fill="none" stroke-linecap="round"></path><path d="M 152.514,233.919 C 142.890,249.640 143.373,249.934 134.137,265.895" stroke-width="4.500" stroke="black" fill="none" stroke-linecap="round"></path><path d="M 134.137,265.895 C 125.795,280.311 125.890,280.369 117.358,294.673" stroke-width="4.500" stroke="black" fill="none" stroke-linecap="round"></path><path d="M 117.358,294.673 C 111.109,305.151 110.733,304.932 104.574,315.458" stroke-width="4.500" stroke="black" fill="none" stroke-linecap="round"></path><path d="M 104.574,315.458 C 101.145,321.319 98.379,327.646 98.182,327.449" stroke-width="4.500" stroke="black" fill="none" stroke-linecap="round"></path><path d="M 98.182,327.449 C 97.980,327.246 100.844,320.992 103.775,314.658" stroke-width="5.982" stroke="black" fill="none" stroke-linecap="round"></path><path d="M 103.775,314.658 C 110.832,299.408 110.647,299.310 118.157,284.281" stroke-width="4.500" stroke="black" fill="none" stroke-linecap="round"></path><path d="M 118.157,284.281 C 126.227,268.133 126.464,268.249 134.936,252.305" stroke-width="4.500" stroke="black" fill="none" stroke-linecap="round"></path><path d="M 134.936,252.305 C 143.243,236.672 143.122,236.603 151.715,221.128" stroke-width="4.500" stroke="black" fill="none" stroke-linecap="round"></path><path d="M 151.715,221.128 C 159.102,207.825 159.071,207.797 166.896,194.748" stroke-width="4.500" stroke="black" fill="none" stroke-linecap="round"></path><path d="M 166.896,194.748 C 173.453,183.814 173.636,183.923 180.479,173.164" stroke-width="4.500" stroke="black" fill="none" stroke-linecap="round"></path><path d="M 180.479,173.164 C 184.822,166.336 185.067,166.479 189.268,159.574" stroke-width="4.500" stroke="black" fill="none" stroke-linecap="round"></path><path d="M 189.268,159.574 C 190.660,157.286 192.659,153.358 191.665,154.778" stroke-width="5.749" stroke="black" fill="none" stroke-linecap="round"></path><path d="M 191.665,154.778 C 187.066,161.352 184.595,164.997 178.082,175.562" stroke-width="5.958" stroke="black" fill="none" stroke-linecap="round"></path><path d="M 178.082,175.562 C 169.813,188.979 169.983,189.089 162.102,202.742" stroke-width="4.500" stroke="black" fill="none" stroke-linecap="round"></path><path d="M 162.102,202.742 C 153.603,217.467 153.646,217.493 145.323,232.320" stroke-width="4.500" stroke="black" fill="none" stroke-linecap="round"></path><path d="M 145.323,232.320 C 137.267,246.672 137.280,246.680 129.343,261.098" stroke-width="4.500" stroke="black" fill="none" stroke-linecap="round"></path><path d="M 129.343,261.098 C 122.099,274.259 122.136,274.280 114.961,287.479" stroke-width="4.500" stroke="black" fill="none" stroke-linecap="round"></path><path d="M 114.961,287.479 C 109.752,297.063 109.652,297.011 104.574,306.664" stroke-width="4.500" stroke="black" fill="none" stroke-linecap="round"></path><path d="M 104.574,306.664 C 101.662,312.200 99.667,317.170 98.981,317.856" stroke-width="4.621" stroke="black" fill="none" stroke-linecap="round"></path><path d="M 98.981,317.856 C 98.468,318.369 100.336,313.361 102.177,309.063" stroke-width="6.371" stroke="black" fill="none" stroke-linecap="round"></path><path d="M 102.177,309.063 C 108.726,293.775 108.634,293.715 115.760,278.685" stroke-width="4.500" stroke="black" fill="none" stroke-linecap="round"></path><path d="M 115.760,278.685 C 123.416,262.539 123.670,262.656 131.740,246.709" stroke-width="4.500" stroke="black" fill="none" stroke-linecap="round"></path><path d="M 131.740,246.709 C 139.650,231.080 139.642,231.075 147.720,215.532" stroke-width="4.500" stroke="black" fill="none" stroke-linecap="round"></path><path d="M 147.720,215.532 C 155.223,201.097 155.364,201.171 162.901,186.754" stroke-width="4.500" stroke="black" fill="none" stroke-linecap="round"></path><path d="M 162.901,186.754 C 168.947,175.190 168.773,175.098 174.886,163.571" stroke-width="4.500" stroke="black" fill="none" stroke-linecap="round"></path><path d="M 174.886,163.571 C 179.160,155.513 179.838,155.811 183.675,147.583" stroke-width="4.500" stroke="black" fill="none" stroke-linecap="round"></path><path d="M 183.675,147.583 C 185.431,143.819 186.781,141.008 186.072,139.589" stroke-width="5.238" stroke="black" fill="none" stroke-linecap="round"></path><path d="M 186.072,139.589 C 185.583,138.609 183.182,140.653 181.278,142.787" stroke-width="6.746" stroke="black" fill="none" stroke-linecap="round"></path><path d="M 181.278,142.787 C 173.195,151.845 173.135,151.983 166.097,161.972" stroke-width="4.500" stroke="black" fill="none" stroke-linecap="round"></path><path d="M 166.097,161.972 C 155.957,176.365 156.153,176.542 146.921,191.550" stroke-width="4.500" stroke="black" fill="none" stroke-linecap="round"></path><path d="M 146.921,191.550 C 136.977,207.718 137.271,207.902 127.745,224.326" stroke-width="4.500" stroke="black" fill="none" stroke-linecap="round"></path><path d="M 127.745,224.326 C 118.494,240.277 118.374,240.212 109.368,256.302" stroke-width="4.500" stroke="black" fill="none" stroke-linecap="round"></path><path d="M 109.368,256.302 C 101.595,270.189 101.743,270.273 94.187,284.281" stroke-width="4.500" stroke="black" fill="none" stroke-linecap="round"></path><path d="M 94.187,284.281 C 88.160,295.454 88.080,295.413 82.202,306.664" stroke-width="4.500" stroke="black" fill="none" stroke-linecap="round"></path><path d="M 82.202,306.664 C 78.892,313.000 75.810,318.808 75.810,319.455" stroke-width="4.500" stroke="black" fill="none" stroke-linecap="round"></path><path d="M 75.810,319.455 C 75.810,320.007 79.038,314.278 82.202,309.063" stroke-width="6.036" stroke="black" fill="none" stroke-linecap="round"></path><path d="M 192.464,169.966 C 190.067,163.971 190.030,163.985 187.670,157.975" stroke-width="7.804" stroke="black" fill="none" stroke-linecap="round"></path><path d="M 187.670,157.975 C 185.636,152.794 185.866,152.697 183.675,147.583" stroke-width="5.982" stroke="black" fill="none" stroke-linecap="round"></path><path d="M 183.675,147.583 C 181.072,141.505 181.118,141.464 178.082,135.592" stroke-width="5.306" stroke="black" fill="none" stroke-linecap="round"></path><path d="M 178.082,135.592 C 175.125,129.872 175.468,129.572 171.690,124.400" stroke-width="5.174" stroke="black" fill="none" stroke-linecap="round"></path><path d="M 171.690,124.400 C 167.877,119.180 167.684,119.176 162.901,114.807" stroke-width="5.121" stroke="black" fill="none" stroke-linecap="round"></path><path d="M 162.901,114.807 C 158.495,110.782 158.348,110.794 153.313,107.613" stroke-width="5.230" stroke="black" fill="none" stroke-linecap="round"></path><path d="M 153.313,107.613 C 150.757,105.998 150.602,106.175 147.720,105.215" stroke-width="6.071" stroke="black" fill="none" stroke-linecap="round"></path><path d="M 147.720,105.215 C 142.212,103.378 142.219,102.965 136.534,102.017" stroke-width="5.543" stroke="black" fill="none" stroke-linecap="round"></path><path d="M 136.534,102.017 C 132.631,101.366 132.304,101.132 128.544,102.017" stroke-width="5.857" stroke="black" fill="none" stroke-linecap="round"></path><path d="M 128.544,102.017 C 125.513,102.731 125.169,102.996 122.951,105.215" stroke-width="6.310" stroke="black" fill="none" stroke-linecap="round"></path><path d="M 122.951,105.215 C 119.975,108.192 119.647,108.436 118.157,112.409" stroke-width="5.976" stroke="black" fill="none" stroke-linecap="round"></path><path d="M 118.157,112.409 C 116.051,118.029 115.760,118.422 115.760,124.400" stroke-width="5.697" stroke="black" fill="none" stroke-linecap="round"></path><path d="M 115.760,124.400 C 115.760,129.614 115.701,130.205 118.157,134.793" stroke-width="5.579" stroke="black" fill="none" stroke-linecap="round"></path><path d="M 118.157,134.793 C 121.693,141.397 122.112,141.693 127.745,146.784" stroke-width="4.956" stroke="black" fill="none" stroke-linecap="round"></path><path d="M 127.745,146.784 C 134.496,152.884 134.851,152.867 142.926,157.176" stroke-width="4.500" stroke="black" fill="none" stroke-linecap="round"></path><path d="M 142.926,157.176 C 152.828,162.460 153.148,162.010 163.700,165.969" stroke-width="4.500" stroke="black" fill="none" stroke-linecap="round"></path><path d="M 163.700,165.969 C 175.520,170.404 175.704,169.911 187.670,173.963" stroke-width="4.500" stroke="black" fill="none" stroke-linecap="round"></path><path d="M 187.670,173.963 C 201.672,178.705 201.716,178.583 215.635,183.556" stroke-width="4.500" stroke="black" fill="none" stroke-linecap="round"></path><path d="M 215.635,183.556 C 229.681,188.575 229.812,188.279 243.601,193.948" stroke-width="4.500" stroke="black" fill="none" stroke-linecap="round"></path><path d="M 243.601,193.948 C 258.975,200.270 259.330,199.717 273.963,207.538" stroke-width="4.500" stroke="black" fill="none" stroke-linecap="round"></path><path d="M 273.963,207.538 C 288.494,215.305 288.340,215.756 301.928,225.125" stroke-width="4.500" stroke="black" fill="none" stroke-linecap="round"></path><path d="M 301.928,225.125 C 317.903,236.140 318.805,235.268 333.089,248.308" stroke-width="4.500" stroke="black" fill="none" stroke-linecap="round"></path><path d="M 333.089,248.308 C 350.765,264.446 349.468,265.895 365.848,283.482" stroke-width="4.500" stroke="black" fill="none" stroke-linecap="round"></path></svg>