<svg xmlns="http://www.w3.org/2000/svg" xmlns:xlink="http://www.w3.org/1999/xlink" viewBox="0 0 576 416" width="576" height="416"><path d="M 292.340,121.026 C 292.340,118.233 291.907,118.179 292.340,115.440" stroke-width="8.688" stroke="black" fill="none" stroke-linecap="round"></path><path d="M 292.340,115.440 C 293.105,110.590 293.538,110.643 294.737,105.847" stroke-width="6.347" stroke="black" fill="none" stroke-linecap="round"></path><path d="M 294.737,105.847 C 295.935,101.051 295.639,100.955 297.134,96.254" stroke-width="5.873" stroke="black" fill="none" stroke-linecap="round"></path><path d="M 297.134,96.254 C 298.435,92.161 298.910,92.319 300.330,88.260" stroke-width="5.944" stroke="black" fill="none" stroke-linecap="round"></path><path d="M 300.330,88.260 C 301.706,84.325 301.288,84.174 302.727,80.266" stroke-width="6.008" stroke="black" fill="none" stroke-linecap="round"></path><path d="M 302.727,80.266 C 304.084,76.580 304.425,76.710 305.923,73.071" stroke-width="6.108" stroke="black" fill="none" stroke-linecap="round"></path><path d="M 305.923,73.071 C 307.222,69.915 307.172,69.892 308.320,66.676" stroke-width="6.323" stroke="black" fill="none" stroke-linecap="round"></path><path d="M 308.320,66.676 C 309.169,64.296 308.948,64.207 309.918,61.880" stroke-width="6.741" stroke="black" fill="none" stroke-linecap="round"></path><path d="M 201.253,281.716 C 199.256,274.121 199.473,274.059 197.258,266.527" stroke-width="7.849" stroke="black" fill="none" stroke-linecap="round"></path><path d="M 197.258,266.527 C 193.480,253.674 193.321,253.718 189.268,240.946" stroke-width="4.500" stroke="black" fill="none" stroke-linecap="round"></path><path d="M 189.268,240.946 C 185.331,228.537 185.273,228.555 181.278,216.165" stroke-width="4.500" stroke="black" fill="none" stroke-linecap="round"></path><path d="M 181.278,216.165 C 177.283,203.774 177.207,203.798 173.288,191.383" stroke-width="4.500" stroke="black" fill="none" stroke-linecap="round"></path><path d="M 173.288,191.383 C 170.016,181.015 169.681,181.099 166.896,170.599" stroke-width="4.500" stroke="black" fill="none" stroke-linecap="round"></path><path d="M 166.896,170.599 C 164.487,161.513 164.917,161.401 162.901,152.212" stroke-width="4.500" stroke="black" fill="none" stroke-linecap="round"></path><path d="M 162.901,152.212 C 161.322,145.014 160.955,145.072 159.705,137.823" stroke-width="4.591" stroke="black" fill="none" stroke-linecap="round"></path><path d="M 159.705,137.823 C 158.957,133.481 157.586,127.379 158.906,129.030" stroke-width="5.449" stroke="black" fill="none" stroke-linecap="round"></path><path d="M 158.906,129.030 C 162.380,133.374 164.025,139.460 169.293,149.814" stroke-width="6.489" stroke="black" fill="none" stroke-linecap="round"></path><path d="M 169.293,149.814 C 175.211,161.444 174.964,161.584 181.278,172.997" stroke-width="4.500" stroke="black" fill="none" stroke-linecap="round"></path><path d="M 181.278,172.997 C 187.348,183.967 187.118,184.158 194.062,194.581" stroke-width="4.500" stroke="black" fill="none" stroke-linecap="round"></path><path d="M 194.062,194.581 C 200.701,204.543 200.935,204.432 208.444,213.766" stroke-width="4.500" stroke="black" fill="none" stroke-linecap="round"></path><path d="M 208.444,213.766 C 214.119,220.820 214.289,220.701 220.429,227.356" stroke-width="4.500" stroke="black" fill="none" stroke-linecap="round"></path><path d="M 220.429,227.356 C 223.877,231.093 223.617,231.614 227.620,234.551" stroke-width="5.087" stroke="black" fill="none" stroke-linecap="round"></path><path d="M 227.620,234.551 C 229.609,236.010 231.094,237.093 232.415,236.150" stroke-width="6.255" stroke="black" fill="none" stroke-linecap="round"></path><path d="M 232.415,236.150 C 233.891,235.095 233.752,233.246 233.214,230.554" stroke-width="7.211" stroke="black" fill="none" stroke-linecap="round"></path><path d="M 233.214,230.554 C 232.154,225.252 231.192,225.367 229.218,220.162" stroke-width="5.871" stroke="black" fill="none" stroke-linecap="round"></path><path d="M 229.218,220.162 C 226.797,213.776 226.889,213.740 224.425,207.371" stroke-width="5.226" stroke="black" fill="none" stroke-linecap="round"></path><path d="M 224.425,207.371 C 222.095,201.350 221.919,201.417 219.630,195.380" stroke-width="5.147" stroke="black" fill="none" stroke-linecap="round"></path><path d="M 219.630,195.380 C 217.525,189.825 217.380,189.861 215.635,184.188" stroke-width="5.251" stroke="black" fill="none" stroke-linecap="round"></path><path d="M 215.635,184.188 C 214.184,179.469 214.496,179.376 213.238,174.596" stroke-width="5.551" stroke="black" fill="none" stroke-linecap="round"></path><path d="M 213.238,174.596 C 212.498,171.782 210.446,169.000 211.640,169.000" stroke-width="6.311" stroke="black" fill="none" stroke-linecap="round"></path><path d="M 211.640,169.000 C 213.642,169.000 216.278,171.113 219.630,174.596" stroke-width="7.328" stroke="black" fill="none" stroke-linecap="round"></path><path d="M 219.630,174.596 C 226.665,181.905 225.826,182.756 232.415,190.584" stroke-width="4.709" stroke="black" fill="none" stroke-linecap="round"></path><path d="M 232.415,190.584 C 238.610,197.944 238.511,198.067 245.199,204.973" stroke-width="4.500" stroke="black" fill="none" stroke-linecap="round"></path><path d="M 245.199,204.973 C 250.896,210.857 250.937,210.877 257.184,216.165" stroke-width="4.511" stroke="black" fill="none" stroke-linecap="round"></path><path d="M 257.184,216.165 C 261.324,219.670 261.393,219.666 265.973,222.560" stroke-width="5.154" stroke="black" fill="none" stroke-linecap="round"></path><path d="M 265.973,222.560 C 268.984,224.463 271.024,227.397 272.365,225.758" stroke-width="5.928" stroke="black" fill="none" stroke-linecap="round"></path><path d="M 272.365,225.758 C 274.619,223.000 274.213,219.540 273.164,213.766" stroke-width="6.816" stroke="black" fill="none" stroke-linecap="round"></path><path d="M 273.164,213.766 C 271.816,206.350 270.508,206.514 267.571,199.377" stroke-width="5.197" stroke="black" fill="none" stroke-linecap="round"></path><path d="M 267.571,199.377 C 264.915,192.924 264.927,192.910 261.978,186.587" stroke-width="5.016" stroke="black" fill="none" stroke-linecap="round"></path><path d="M 261.978,186.587 C 259.334,180.919 258.899,181.112 256.385,175.395" stroke-width="5.133" stroke="black" fill="none" stroke-linecap="round"></path><path d="M 256.385,175.395 C 254.504,171.120 254.883,170.960 253.189,166.602" stroke-width="5.586" stroke="black" fill="none" stroke-linecap="round"></path><path d="M 253.189,166.602 C 252.086,163.766 249.323,160.376 250.792,161.006" stroke-width="6.276" stroke="black" fill="none" stroke-linecap="round"></path><path d="M 250.792,161.006 C 254.916,162.774 257.864,165.871 264.375,171.398" stroke-width="6.890" stroke="black" fill="none" stroke-linecap="round"></path><path d="M 264.375,171.398 C 271.047,177.063 270.472,177.744 277.159,183.389" stroke-width="4.962" stroke="black" fill="none" stroke-linecap="round"></path><path d="M 277.159,183.389 C 283.256,188.536 283.377,188.434 289.943,192.982" stroke-width="4.731" stroke="black" fill="none" stroke-linecap="round"></path><path d="M 289.943,192.982 C 298.957,199.226 298.769,200.195 308.320,204.973" stroke-width="5.339" stroke="black" fill="none" stroke-linecap="round"></path><path d="M 308.320,204.973 C 310.754,206.191 312.151,206.344 313.913,204.973" stroke-width="6.324" stroke="black" fill="none" stroke-linecap="round"></path><path d="M 313.913,204.973 C 315.746,203.546 315.694,202.136 315.511,199.377" stroke-width="7.175" stroke="black" fill="none" stroke-linecap="round"></path><path d="M 315.511,199.377 C 315.295,196.140 314.351,196.165 313.114,192.982" stroke-width="6.630" stroke="black" fill="none" stroke-linecap="round"></path><path d="M 313.114,192.982 C 311.554,188.970 311.516,188.985 309.918,184.988" stroke-width="5.964" stroke="black" fill="none" stroke-linecap="round"></path><path d="M 309.918,184.988 C 308.320,180.991 308.468,180.924 306.722,176.994" stroke-width="5.971" stroke="black" fill="none" stroke-linecap="round"></path><path d="M 306.722,176.994 C 305.272,173.730 305.124,173.796 303.526,170.599" stroke-width="6.222" stroke="black" fill="none" stroke-linecap="round"></path><path d="M 303.526,170.599 C 302.327,168.200 300.014,165.802 301.129,165.802" stroke-width="6.643" stroke="black" fill="none" stroke-linecap="round"></path><path d="M 301.129,165.802 C 303.210,165.802 306.032,167.521 309.918,170.599" stroke-width="7.441" stroke="black" fill="none" stroke-linecap="round"></path><path d="M 309.918,170.599 C 315.620,175.115 314.744,176.222 320.305,180.991" stroke-width="5.396" stroke="black" fill="none" stroke-linecap="round"></path><path d="M 320.305,180.991 C 325.930,185.815 326.345,185.324 332.290,189.784" stroke-width="4.966" stroke="black" fill="none" stroke-linecap="round"></path><path d="M 332.290,189.784 C 337.531,193.718 337.213,194.213 342.677,197.778" stroke-width="5.046" stroke="black" fill="none" stroke-linecap="round"></path><path d="M 342.677,197.778 C 346.401,200.209 346.488,200.846 350.667,201.775" stroke-width="5.615" stroke="black" fill="none" stroke-linecap="round"></path><path d="M 350.667,201.775 C 353.679,202.445 355.549,202.864 357.059,200.976" stroke-width="6.852" stroke="black" fill="none" stroke-linecap="round"></path><path d="M 357.059,200.976 C 358.745,198.867 357.921,197.233 357.059,193.781" stroke-width="6.473" stroke="black" fill="none" stroke-linecap="round"></path><path d="M 357.059,193.781 C 354.725,184.443 354.403,184.366 350.667,175.395" stroke-width="4.691" stroke="black" fill="none" stroke-linecap="round"></path><path d="M 350.667,175.395 C 346.413,165.180 346.112,165.280 341.079,155.410" stroke-width="4.500" stroke="black" fill="none" stroke-linecap="round"></path><path d="M 341.079,155.410 C 336.125,145.695 335.929,145.793 330.692,136.224" stroke-width="4.500" stroke="black" fill="none" stroke-linecap="round"></path><path d="M 330.692,136.224 C 326.741,129.006 326.657,129.051 322.702,121.835" stroke-width="4.500" stroke="black" fill="none" stroke-linecap="round"></path><path d="M 322.702,121.835 C 319.865,116.661 319.856,116.665 317.109,111.443" stroke-width="4.923" stroke="black" fill="none" stroke-linecap="round"></path><path d="M 317.109,111.443 C 315.861,109.070 313.290,107.551 314.712,106.646" stroke-width="6.126" stroke="black" fill="none" stroke-linecap="round"></path><path d="M 314.712,106.646 C 317.685,104.753 320.361,105.293 325.898,105.847" stroke-width="6.967" stroke="black" fill="none" stroke-linecap="round"></path><path d="M 325.898,105.847 C 336.341,106.892 336.293,107.801 346.672,109.844" stroke-width="4.595" stroke="black" fill="none" stroke-linecap="round"></path><path d="M 346.672,109.844 C 360.663,112.598 360.670,112.563 374.637,115.440" stroke-width="4.500" stroke="black" fill="none" stroke-linecap="round"></path><path d="M 374.637,115.440 C 387.837,118.159 387.728,118.788 401.004,121.036" stroke-width="4.500" stroke="black" fill="none" stroke-linecap="round"></path><path d="M 401.004,121.036 C 413.695,123.185 413.778,122.715 426.572,124.233" stroke-width="4.500" stroke="black" fill="none" stroke-linecap="round"></path><path d="M 426.572,124.233 C 437.349,125.513 437.358,125.432 448.145,126.631" stroke-width="4.500" stroke="black" fill="none" stroke-linecap="round"></path><path d="M 448.145,126.631 C 455.336,127.431 455.333,127.459 462.527,128.230" stroke-width="4.571" stroke="black" fill="none" stroke-linecap="round"></path><path d="M 462.527,128.230 C 466.519,128.658 470.704,128.281 470.517,129.030" stroke-width="5.551" stroke="black" fill="none" stroke-linecap="round"></path><path d="M 470.517,129.030 C 470.305,129.879 466.173,130.440 461.728,131.428" stroke-width="6.850" stroke="black" fill="none" stroke-linecap="round"></path><path d="M 461.728,131.428 C 448.195,134.437 447.970,133.524 434.562,137.024" stroke-width="4.500" stroke="black" fill="none" stroke-linecap="round"></path><path d="M 434.562,137.024 C 411.216,143.117 411.300,143.524 388.220,150.614" stroke-width="4.500" stroke="black" fill="none" stroke-linecap="round"></path><path d="M 388.220,150.614 C 365.757,157.513 365.582,157.063 343.476,165.003" stroke-width="4.500" stroke="black" fill="none" stroke-linecap="round"></path><path d="M 343.476,165.003 C 318.840,173.851 319.108,174.602 294.737,184.188" stroke-width="4.500" stroke="black" fill="none" stroke-linecap="round"></path><path d="M 294.737,184.188 C 272.367,192.988 272.175,192.528 249.993,201.775" stroke-width="4.500" stroke="black" fill="none" stroke-linecap="round"></path><path d="M 249.993,201.775 C 229.029,210.515 229.053,210.612 208.444,220.162" stroke-width="4.500" stroke="black" fill="none" stroke-linecap="round"></path><path d="M 208.444,220.162 C 191.100,228.199 191.092,228.219 174.087,236.949" stroke-width="4.500" stroke="black" fill="none" stroke-linecap="round"></path><path d="M 174.087,236.949 C 160.730,243.807 160.674,243.758 147.720,251.338" stroke-width="4.500" stroke="black" fill="none" stroke-linecap="round"></path><path d="M 147.720,251.338 C 139.500,256.149 139.520,256.253 131.740,261.731" stroke-width="4.500" stroke="black" fill="none" stroke-linecap="round"></path><path d="M 131.740,261.731 C 128.733,263.848 127.332,263.682 126.147,266.527" stroke-width="5.267" stroke="black" fill="none" stroke-linecap="round"></path><circle r="3" cx="365.0486755371094" cy="278.5181884765625" fill="black"></circle></svg>