<svg xmlns="http://www.w3.org/2000/svg" xmlns:xlink="http://www.w3.org/1999/xlink" viewBox="0 0 576 416" width="576" height="416"><path d="M 394.612,133.945 C 391.016,131.547 389.185,132.175 387.421,129.148" stroke-width="8.791" stroke="black" fill="none" stroke-linecap="round"></path><path d="M 387.421,129.148 C 386.389,127.378 388.873,123.624 389.019,124.352" stroke-width="8.586" stroke="black" fill="none" stroke-linecap="round"></path><path d="M 389.019,124.352 C 389.273,125.623 389.633,129.106 388.220,133.145" stroke-width="8.371" stroke="black" fill="none" stroke-linecap="round"></path><path d="M 388.220,133.145 C 386.836,137.100 386.045,136.913 383.426,140.340" stroke-width="6.529" stroke="black" fill="none" stroke-linecap="round"></path><path d="M 383.426,140.340 C 380.852,143.708 380.910,143.828 377.833,146.735" stroke-width="6.150" stroke="black" fill="none" stroke-linecap="round"></path><path d="M 377.833,146.735 C 373.719,150.623 373.312,150.193 369.044,153.930" stroke-width="6.556" stroke="black" fill="none" stroke-linecap="round"></path><path d="M 369.044,153.930 C 366.920,155.789 367.386,156.423 365.049,157.927" stroke-width="6.694" stroke="black" fill="none" stroke-linecap="round"></path><path d="M 365.049,157.927 C 361.793,160.021 361.005,161.367 357.858,161.125" stroke-width="7.025" stroke="black" fill="none" stroke-linecap="round"></path><path d="M 357.858,161.125 C 355.811,160.967 355.867,159.339 354.662,157.128" stroke-width="7.931" stroke="black" fill="none" stroke-linecap="round"></path><path d="M 354.662,157.128 C 353.470,154.943 354.557,152.705 353.064,152.331" stroke-width="8.238" stroke="black" fill="none" stroke-linecap="round"></path><path d="M 353.064,152.331 C 351.361,151.905 350.667,153.930 348.270,155.529" stroke-width="8.131" stroke="black" fill="none" stroke-linecap="round"></path><path d="M 348.270,155.529 C 344.674,157.927 344.860,158.307 341.079,160.325" stroke-width="7.438" stroke="black" fill="none" stroke-linecap="round"></path><path d="M 341.079,160.325 C 338.868,161.505 338.737,161.735 336.285,161.924" stroke-width="7.731" stroke="black" fill="none" stroke-linecap="round"></path><path d="M 336.285,161.924 C 333.543,162.135 333.174,160.297 330.692,161.125" stroke-width="8.312" stroke="black" fill="none" stroke-linecap="round"></path><path d="M 330.692,161.125 C 327.181,162.295 327.466,163.484 324.300,165.921" stroke-width="7.933" stroke="black" fill="none" stroke-linecap="round"></path><path d="M 324.300,165.921 C 322.272,167.481 322.405,167.664 320.305,169.119" stroke-width="7.194" stroke="black" fill="none" stroke-linecap="round"></path><path d="M 320.305,169.119 C 317.211,171.261 317.229,171.346 313.913,173.116" stroke-width="7.314" stroke="black" fill="none" stroke-linecap="round"></path><path d="M 313.913,173.116 C 311.236,174.544 311.220,174.685 308.320,175.514" stroke-width="7.535" stroke="black" fill="none" stroke-linecap="round"></path><path d="M 308.320,175.514 C 305.627,176.284 305.031,174.930 302.727,176.313" stroke-width="8.061" stroke="black" fill="none" stroke-linecap="round"></path><path d="M 302.727,176.313 C 299.039,178.527 299.651,179.645 296.335,182.708" stroke-width="7.765" stroke="black" fill="none" stroke-linecap="round"></path><path d="M 296.335,182.708 C 294.458,184.442 294.406,184.402 292.340,185.906" stroke-width="7.152" stroke="black" fill="none" stroke-linecap="round"></path><path d="M 292.340,185.906 C 290.012,187.600 290.029,187.654 287.546,189.104" stroke-width="6.914" stroke="black" fill="none" stroke-linecap="round"></path><path d="M 287.546,189.104 C 285.235,190.452 285.299,190.752 282.752,191.502" stroke-width="6.792" stroke="black" fill="none" stroke-linecap="round"></path><path d="M 282.752,191.502 C 278.507,192.751 278.387,192.635 273.963,193.101" stroke-width="7.023" stroke="black" fill="none" stroke-linecap="round"></path><path d="M 287.546,101.969 C 287.546,106.365 285.825,107.319 287.546,110.762" stroke-width="8.502" stroke="black" fill="none" stroke-linecap="round"></path><path d="M 287.546,110.762 C 289.021,113.714 290.501,113.311 293.938,114.759" stroke-width="6.777" stroke="black" fill="none" stroke-linecap="round"></path><path d="M 293.938,114.759 C 298.091,116.509 298.281,116.190 302.727,117.157" stroke-width="6.108" stroke="black" fill="none" stroke-linecap="round"></path><path d="M 302.727,117.157 C 307.470,118.189 307.499,118.128 312.315,118.756" stroke-width="5.835" stroke="black" fill="none" stroke-linecap="round"></path><path d="M 312.315,118.756 C 316.687,119.327 316.716,119.093 321.104,119.556" stroke-width="5.897" stroke="black" fill="none" stroke-linecap="round"></path><path d="M 321.104,119.556 C 324.306,119.893 324.361,119.683 327.496,120.355" stroke-width="6.391" stroke="black" fill="none" stroke-linecap="round"></path><path d="M 327.496,120.355 C 329.954,120.882 332.599,120.715 332.290,121.954" stroke-width="7.533" stroke="black" fill="none" stroke-linecap="round"></path><path d="M 332.290,121.954 C 331.800,123.913 328.908,124.131 325.898,126.750" stroke-width="7.329" stroke="black" fill="none" stroke-linecap="round"></path><path d="M 325.898,126.750 C 319.720,132.125 319.919,132.361 313.913,137.942" stroke-width="5.480" stroke="black" fill="none" stroke-linecap="round"></path><path d="M 313.913,137.942 C 308.733,142.754 308.818,142.850 303.526,147.535" stroke-width="4.969" stroke="black" fill="none" stroke-linecap="round"></path><path d="M 303.526,147.535 C 298.431,152.043 298.245,151.832 293.139,156.328" stroke-width="4.990" stroke="black" fill="none" stroke-linecap="round"></path><path d="M 293.139,156.328 C 288.257,160.626 288.557,160.984 283.551,165.122" stroke-width="5.065" stroke="black" fill="none" stroke-linecap="round"></path><path d="M 283.551,165.122 C 279.368,168.578 279.022,168.151 274.762,171.517" stroke-width="5.355" stroke="black" fill="none" stroke-linecap="round"></path><path d="M 274.762,171.517 C 271.432,174.147 271.970,175.087 268.370,177.113" stroke-width="5.792" stroke="black" fill="none" stroke-linecap="round"></path><path d="M 268.370,177.113 C 265.578,178.684 265.174,177.912 261.978,178.711" stroke-width="6.913" stroke="black" fill="none" stroke-linecap="round"></path><path d="M 261.978,178.711 C 257.184,179.911 256.866,179.224 252.390,181.110" stroke-width="7.835" stroke="black" fill="none" stroke-linecap="round"></path><path d="M 252.390,181.110 C 249.276,182.421 249.777,183.429 246.797,185.107" stroke-width="6.779" stroke="black" fill="none" stroke-linecap="round"></path><path d="M 246.797,185.107 C 243.385,187.027 243.201,186.705 239.605,188.304" stroke-width="6.328" stroke="black" fill="none" stroke-linecap="round"></path><path d="M 239.605,188.304 C 236.010,189.903 236.111,190.197 232.415,191.502" stroke-width="6.204" stroke="black" fill="none" stroke-linecap="round"></path><path d="M 232.415,191.502 C 229.320,192.595 229.241,192.401 226.022,193.101" stroke-width="6.468" stroke="black" fill="none" stroke-linecap="round"></path><path d="M 226.022,193.101 C 220.052,194.399 219.989,194.125 214.037,195.499" stroke-width="6.537" stroke="black" fill="none" stroke-linecap="round"></path><path d="M 222.027,238.667 C 218.432,235.069 218.332,235.164 214.836,231.472" stroke-width="7.985" stroke="black" fill="none" stroke-linecap="round"></path><path d="M 214.836,231.472 C 211.141,227.570 210.976,227.687 207.645,223.478" stroke-width="6.077" stroke="black" fill="none" stroke-linecap="round"></path><path d="M 207.645,223.478 C 203.386,218.095 203.046,218.222 199.655,212.286" stroke-width="5.262" stroke="black" fill="none" stroke-linecap="round"></path><path d="M 199.655,212.286 C 196.654,207.031 196.655,206.878 194.861,201.095" stroke-width="5.249" stroke="black" fill="none" stroke-linecap="round"></path><path d="M 194.861,201.095 C 193.060,195.286 192.464,195.071 192.464,189.104" stroke-width="5.239" stroke="black" fill="none" stroke-linecap="round"></path><path d="M 192.464,189.104 C 192.464,184.279 192.873,183.931 194.861,179.511" stroke-width="5.547" stroke="black" fill="none" stroke-linecap="round"></path><path d="M 194.861,179.511 C 196.469,175.937 196.613,175.223 199.655,173.116" stroke-width="6.636" stroke="black" fill="none" stroke-linecap="round"></path><path d="M 199.655,173.116 C 201.806,171.626 202.452,172.316 205.248,172.316" stroke-width="6.719" stroke="black" fill="none" stroke-linecap="round"></path><path d="M 205.248,172.316 C 208.045,172.316 209.225,171.007 210.841,173.116" stroke-width="6.671" stroke="black" fill="none" stroke-linecap="round"></path><path d="M 210.841,173.116 C 218.414,182.998 219.785,184.050 223.625,196.298" stroke-width="5.557" stroke="black" fill="none" stroke-linecap="round"></path><path d="M 223.625,196.298 C 226.177,204.435 224.759,205.265 223.625,213.885" stroke-width="4.712" stroke="black" fill="none" stroke-linecap="round"></path><path d="M 223.625,213.885 C 222.762,220.453 222.653,220.860 219.630,226.676" stroke-width="4.932" stroke="black" fill="none" stroke-linecap="round"></path><path d="M 219.630,226.676 C 217.460,230.853 217.168,231.905 213.238,233.870" stroke-width="5.550" stroke="black" fill="none" stroke-linecap="round"></path><path d="M 213.238,233.870 C 209.977,235.502 208.249,235.959 205.248,233.870" stroke-width="5.859" stroke="black" fill="none" stroke-linecap="round"></path><path d="M 205.248,233.870 C 199.061,229.564 199.091,228.072 194.861,221.080" stroke-width="6.000" stroke="black" fill="none" stroke-linecap="round"></path><path d="M 194.861,221.080 C 189.903,212.883 190.084,212.567 186.871,203.493" stroke-width="4.626" stroke="black" fill="none" stroke-linecap="round"></path><path d="M 186.871,203.493 C 183.292,193.382 183.935,193.136 181.278,182.708" stroke-width="4.500" stroke="black" fill="none" stroke-linecap="round"></path><path d="M 181.278,182.708 C 178.742,172.751 179.118,172.653 176.484,162.723" stroke-width="4.500" stroke="black" fill="none" stroke-linecap="round"></path><path d="M 176.484,162.723 C 173.924,153.068 174.114,152.981 170.891,143.538" stroke-width="4.500" stroke="black" fill="none" stroke-linecap="round"></path><path d="M 170.891,143.538 C 168.521,136.593 168.743,136.381 165.298,129.948" stroke-width="4.566" stroke="black" fill="none" stroke-linecap="round"></path><path d="M 165.298,129.948 C 162.750,125.189 162.577,125.072 158.906,121.154" stroke-width="5.176" stroke="black" fill="none" stroke-linecap="round"></path><path d="M 158.906,121.154 C 156.585,118.677 156.383,118.035 153.313,117.157" stroke-width="5.981" stroke="black" fill="none" stroke-linecap="round"></path><path d="M 153.313,117.157 C 150.790,116.436 149.861,116.427 147.720,117.957" stroke-width="6.503" stroke="black" fill="none" stroke-linecap="round"></path><path d="M 147.720,117.957 C 144.268,120.424 144.411,121.267 142.127,125.151" stroke-width="6.908" stroke="black" fill="none" stroke-linecap="round"></path><path d="M 142.127,125.151 C 140.416,128.062 139.514,128.512 139.730,131.547" stroke-width="6.559" stroke="black" fill="none" stroke-linecap="round"></path><path d="M 139.730,131.547 C 139.913,134.108 140.400,135.574 142.926,136.343" stroke-width="6.672" stroke="black" fill="none" stroke-linecap="round"></path><path d="M 142.926,136.343 C 149.589,138.372 150.670,138.451 158.107,137.142" stroke-width="5.307" stroke="black" fill="none" stroke-linecap="round"></path><path d="M 158.107,137.142 C 187.025,132.055 187.631,132.702 215.635,123.553" stroke-width="4.500" stroke="black" fill="none" stroke-linecap="round"></path><path d="M 215.635,123.553 C 246.357,113.516 245.909,111.865 275.561,98.771" stroke-width="4.500" stroke="black" fill="none" stroke-linecap="round"></path><path d="M 275.561,98.771 C 303.837,86.284 303.420,85.353 331.491,72.391" stroke-width="4.500" stroke="black" fill="none" stroke-linecap="round"></path><path d="M 331.491,72.391 C 355.356,61.371 355.411,61.488 379.431,50.807" stroke-width="4.500" stroke="black" fill="none" stroke-linecap="round"></path><path d="M 379.431,50.807 C 398.557,42.302 398.307,41.624 417.783,34.019" stroke-width="4.500" stroke="black" fill="none" stroke-linecap="round"></path><path d="M 417.783,34.019 C 431.066,28.833 431.123,28.437 444.949,25.226" stroke-width="4.500" stroke="black" fill="none" stroke-linecap="round"></path><path d="M 444.949,25.226 C 453.495,23.241 454.080,22.809 462.527,23.627" stroke-width="4.500" stroke="black" fill="none" stroke-linecap="round"></path><path d="M 462.527,23.627 C 466.464,24.008 470.370,24.886 469.718,27.624" stroke-width="5.185" stroke="black" fill="none" stroke-linecap="round"></path><path d="M 469.718,27.624 C 468.372,33.280 464.890,34.821 458.532,40.415" stroke-width="5.730" stroke="black" fill="none" stroke-linecap="round"></path><path d="M 458.532,40.415 C 441.719,55.206 441.707,55.447 423.376,68.394" stroke-width="4.500" stroke="black" fill="none" stroke-linecap="round"></path><path d="M 423.376,68.394 C 394.167,89.022 393.592,88.257 363.451,107.565" stroke-width="4.500" stroke="black" fill="none" stroke-linecap="round"></path><path d="M 363.451,107.565 C 328.074,130.226 327.788,129.779 292.340,152.331" stroke-width="4.500" stroke="black" fill="none" stroke-linecap="round"></path><path d="M 292.340,152.331 C 254.280,176.544 253.761,175.790 216.434,201.095" stroke-width="4.500" stroke="black" fill="none" stroke-linecap="round"></path><path d="M 216.434,201.095 C 180.652,225.353 180.673,225.476 146.122,251.457" stroke-width="4.500" stroke="black" fill="none" stroke-linecap="round"></path><path d="M 146.122,251.457 C 117.952,272.641 118.198,273.008 90.991,295.424" stroke-width="4.500" stroke="black" fill="none" stroke-linecap="round"></path><path d="M 90.991,295.424 C 70.657,312.178 70.511,312.067 51.041,329.799" stroke-width="4.500" stroke="black" fill="none" stroke-linecap="round"></path><path d="M 51.041,329.799 C 39.350,340.446 39.076,340.363 28.669,352.182" stroke-width="4.500" stroke="black" fill="none" stroke-linecap="round"></path><path d="M 28.669,352.182 C 24.295,357.150 21.745,360.166 21.478,363.374" stroke-width="4.500" stroke="black" fill="none" stroke-linecap="round"></path><path d="M 21.478,363.374 C 21.346,364.962 24.927,363.183 27.870,361.775" stroke-width="6.137" stroke="black" fill="none" stroke-linecap="round"></path><path d="M 27.870,361.775 C 34.115,358.787 34.070,358.491 39.855,354.580" stroke-width="5.246" stroke="black" fill="none" stroke-linecap="round"></path><path d="M 39.855,354.580 C 48.852,348.498 48.506,347.987 57.433,341.790" stroke-width="4.500" stroke="black" fill="none" stroke-linecap="round"></path><path d="M 57.433,341.790 C 68.082,334.397 68.138,334.468 79.006,327.400" stroke-width="4.500" stroke="black" fill="none" stroke-linecap="round"></path><path d="M 79.006,327.400 C 84.118,324.076 84.200,324.203 89.393,321.005" stroke-width="4.681" stroke="black" fill="none" stroke-linecap="round"></path><circle r="3" cx="250.79153442382812" cy="111.5615234375" fill="black"></circle></svg>