<svg xmlns="http://www.w3.org/2000/svg" xmlns:xlink="http://www.w3.org/1999/xlink" viewBox="0 0 576 416" width="576" height="416"><path d="M -8.884,391.002 C -5.688,388.204 -5.701,388.189 -2.492,385.406" stroke-width="8.304" stroke="black" fill="none" stroke-linecap="round"></path><path d="M -2.492,385.406 C 12.276,372.600 12.072,372.356 27.071,359.825" stroke-width="4.500" stroke="black" fill="none" stroke-linecap="round"></path><path d="M 27.071,359.825 C 50.823,339.981 51.128,340.344 75.011,320.654" stroke-width="4.500" stroke="black" fill="none" stroke-linecap="round"></path><path d="M 75.011,320.654 C 101.065,299.175 101.104,299.220 126.946,277.486" stroke-width="4.500" stroke="black" fill="none" stroke-linecap="round"></path><path d="M 126.946,277.486 C 156.235,252.854 155.834,252.373 185.273,227.923" stroke-width="4.500" stroke="black" fill="none" stroke-linecap="round"></path><path d="M 185.273,227.923 C 216.957,201.610 217.202,201.903 249.194,175.962" stroke-width="4.500" stroke="black" fill="none" stroke-linecap="round"></path><path d="M 249.194,175.962 C 278.325,152.340 278.651,152.730 307.521,128.797" stroke-width="4.500" stroke="black" fill="none" stroke-linecap="round"></path><path d="M 307.521,128.797 C 320.599,117.955 320.569,117.896 333.089,106.414" stroke-width="4.500" stroke="black" fill="none" stroke-linecap="round"></path><path d="M 333.089,106.414 C 354.127,87.119 355.101,87.966 374.637,67.243" stroke-width="4.500" stroke="black" fill="none" stroke-linecap="round"></path><path d="M 374.637,67.243 C 388.259,52.793 389.551,52.931 399.406,36.066" stroke-width="4.500" stroke="black" fill="none" stroke-linecap="round"></path><path d="M 399.406,36.066 C 404.733,26.950 406.610,24.496 404.999,15.282" stroke-width="4.500" stroke="black" fill="none" stroke-linecap="round"></path><path d="M 404.999,15.282 C 403.814,8.508 401.023,6.495 393.813,4.090" stroke-width="4.500" stroke="black" fill="none" stroke-linecap="round"></path><path d="M 393.813,4.090 C 374.656,-2.298 373.173,-1.053 352.265,-2.305" stroke-width="4.500" stroke="black" fill="none" stroke-linecap="round"></path><path d="M 352.265,-2.305 C 326.431,-3.851 326.151,-3.759 300.330,-1.505" stroke-width="4.500" stroke="black" fill="none" stroke-linecap="round"></path><path d="M 300.330,-1.505 C 266.625,1.437 266.110,0.492 233.214,8.087" stroke-width="4.500" stroke="black" fill="none" stroke-linecap="round"></path><path d="M 233.214,8.087 C 203.788,14.881 203.614,15.682 175.685,27.273" stroke-width="4.500" stroke="black" fill="none" stroke-linecap="round"></path><path d="M 175.685,27.273 C 149.681,38.065 149.370,38.215 125.348,52.854" stroke-width="4.500" stroke="black" fill="none" stroke-linecap="round"></path><path d="M 125.348,52.854 C 105.425,64.995 104.771,64.981 87.795,80.833" stroke-width="4.500" stroke="black" fill="none" stroke-linecap="round"></path><path d="M 87.795,80.833 C 74.809,92.960 74.214,93.535 65.423,108.812" stroke-width="4.500" stroke="black" fill="none" stroke-linecap="round"></path><path d="M 65.423,108.812 C 59.033,119.916 58.909,120.939 57.433,133.594" stroke-width="4.500" stroke="black" fill="none" stroke-linecap="round"></path><path d="M 57.433,133.594 C 56.112,144.921 57.124,145.677 59.830,156.776" stroke-width="4.500" stroke="black" fill="none" stroke-linecap="round"></path><path d="M 59.830,156.776 C 61.119,162.065 62.005,162.017 65.423,166.369" stroke-width="4.692" stroke="black" fill="none" stroke-linecap="round"></path><path d="M 65.423,166.369 C 75.189,178.805 74.655,179.600 86.197,190.351" stroke-width="4.500" stroke="black" fill="none" stroke-linecap="round"></path><path d="M 86.197,190.351 C 97.826,201.184 98.517,200.634 111.765,209.537" stroke-width="4.500" stroke="black" fill="none" stroke-linecap="round"></path><path d="M 111.765,209.537 C 125.283,218.621 125.348,218.694 139.730,226.324" stroke-width="4.500" stroke="black" fill="none" stroke-linecap="round"></path><path d="M 139.730,226.324 C 151.715,232.683 151.769,232.950 164.499,237.516" stroke-width="4.500" stroke="black" fill="none" stroke-linecap="round"></path><path d="M 164.499,237.516 C 172.943,240.544 173.216,240.500 182.077,241.513" stroke-width="4.500" stroke="black" fill="none" stroke-linecap="round"></path><path d="M 182.077,241.513 C 187.198,242.099 187.298,241.334 192.464,240.714" stroke-width="4.968" stroke="black" fill="none" stroke-linecap="round"></path><path d="M 162.901,122.402 C 160.105,113.209 159.812,113.285 157.308,104.016" stroke-width="6.817" stroke="black" fill="none" stroke-linecap="round"></path><path d="M 157.308,104.016 C 155.817,98.496 156.353,98.354 154.911,92.824" stroke-width="5.742" stroke="black" fill="none" stroke-linecap="round"></path><path d="M 154.911,92.824 C 153.956,89.160 151.314,84.319 152.514,85.630" stroke-width="6.071" stroke="black" fill="none" stroke-linecap="round"></path><path d="M 152.514,85.630 C 155.708,89.115 158.474,93.796 163.700,102.417" stroke-width="6.331" stroke="black" fill="none" stroke-linecap="round"></path><path d="M 163.700,102.417 C 173.255,118.178 172.990,118.348 182.077,134.393" stroke-width="4.500" stroke="black" fill="none" stroke-linecap="round"></path><path d="M 182.077,134.393 C 193.364,154.321 193.111,154.465 204.449,174.363" stroke-width="4.500" stroke="black" fill="none" stroke-linecap="round"></path><path d="M 204.449,174.363 C 217.481,197.233 218.421,196.726 230.816,219.929" stroke-width="4.500" stroke="black" fill="none" stroke-linecap="round"></path><path d="M 230.816,219.929 C 243.190,243.091 242.816,243.317 253.988,267.094" stroke-width="4.500" stroke="black" fill="none" stroke-linecap="round"></path><path d="M 253.988,267.094 C 264.789,290.082 264.969,290.030 274.762,313.460" stroke-width="4.500" stroke="black" fill="none" stroke-linecap="round"></path><path d="M 274.762,313.460 C 283.346,333.997 283.314,334.047 290.742,355.029" stroke-width="4.500" stroke="black" fill="none" stroke-linecap="round"></path><path d="M 290.742,355.029 C 296.897,372.418 297.351,372.370 301.928,390.202" stroke-width="4.500" stroke="black" fill="none" stroke-linecap="round"></path><path d="M 301.928,390.202 C 304.942,401.948 304.555,402.141 305.923,414.184" stroke-width="4.500" stroke="black" fill="none" stroke-linecap="round"></path><path d="M 305.923,414.184 C 306.552,419.728 307.934,422.357 305.923,425.376" stroke-width="4.564" stroke="black" fill="none" stroke-linecap="round"></path><path d="M 305.923,425.376 C 304.738,427.153 301.866,425.941 299.531,423.777" stroke-width="6.306" stroke="black" fill="none" stroke-linecap="round"></path><path d="M 299.531,423.777 C 291.079,415.948 291.352,415.024 284.350,405.391" stroke-width="4.500" stroke="black" fill="none" stroke-linecap="round"></path><path d="M 284.350,405.391 C 272.176,388.643 271.584,388.892 261.179,371.017" stroke-width="4.500" stroke="black" fill="none" stroke-linecap="round"></path><path d="M 261.179,371.017 C 250.411,352.519 250.627,352.256 242.003,332.645" stroke-width="4.500" stroke="black" fill="none" stroke-linecap="round"></path><path d="M 242.003,332.645 C 233.049,312.286 232.624,312.293 226.022,291.076" stroke-width="4.500" stroke="black" fill="none" stroke-linecap="round"></path><path d="M 226.022,291.076 C 219.441,269.924 220.142,269.634 215.635,247.908" stroke-width="4.500" stroke="black" fill="none" stroke-linecap="round"></path><path d="M 215.635,247.908 C 211.353,227.266 211.541,227.198 208.444,206.339" stroke-width="4.500" stroke="black" fill="none" stroke-linecap="round"></path><path d="M 208.444,206.339 C 205.548,186.828 205.736,186.787 203.650,167.169" stroke-width="4.500" stroke="black" fill="none" stroke-linecap="round"></path><path d="M 203.650,167.169 C 201.741,149.215 201.312,149.215 200.454,131.195" stroke-width="4.500" stroke="black" fill="none" stroke-linecap="round"></path><path d="M 200.454,131.195 C 199.714,115.640 200.016,115.593 200.454,100.019" stroke-width="4.500" stroke="black" fill="none" stroke-linecap="round"></path><path d="M 200.454,100.019 C 200.815,87.215 200.640,87.154 202.052,74.438" stroke-width="4.500" stroke="black" fill="none" stroke-linecap="round"></path><path d="M 202.052,74.438 C 203.037,65.570 202.786,65.336 205.248,56.851" stroke-width="4.500" stroke="black" fill="none" stroke-linecap="round"></path><path d="M 205.248,56.851 C 206.382,52.945 206.232,51.062 209.243,49.656" stroke-width="5.244" stroke="black" fill="none" stroke-linecap="round"></path><path d="M 209.243,49.656 C 212.225,48.264 213.695,49.603 217.233,51.255" stroke-width="5.805" stroke="black" fill="none" stroke-linecap="round"></path><path d="M 217.233,51.255 C 219.688,52.401 219.552,52.988 221.228,55.252" stroke-width="6.439" stroke="black" fill="none" stroke-linecap="round"></path><path d="M 221.228,55.252 C 227.542,63.780 228.023,63.575 233.214,72.839" stroke-width="4.510" stroke="black" fill="none" stroke-linecap="round"></path><path d="M 233.214,72.839 C 242.804,89.955 242.380,90.247 250.792,108.013" stroke-width="4.500" stroke="black" fill="none" stroke-linecap="round"></path><path d="M 250.792,108.013 C 260.358,128.218 259.828,128.467 269.169,148.782" stroke-width="4.500" stroke="black" fill="none" stroke-linecap="round"></path><path d="M 269.169,148.782 C 278.205,168.438 278.208,168.439 287.546,187.953" stroke-width="4.500" stroke="black" fill="none" stroke-linecap="round"></path><path d="M 287.546,187.953 C 296.186,206.011 296.266,205.974 305.124,223.926" stroke-width="4.500" stroke="black" fill="none" stroke-linecap="round"></path><path d="M 305.124,223.926 C 311.846,237.550 311.513,237.739 318.707,251.106" stroke-width="4.500" stroke="black" fill="none" stroke-linecap="round"></path><path d="M 318.707,251.106 C 322.699,258.524 323.101,258.301 327.496,265.495" stroke-width="4.500" stroke="black" fill="none" stroke-linecap="round"></path><path d="M 213.238,36.866 C 218.832,44.061 219.097,43.865 224.425,51.255" stroke-width="6.903" stroke="black" fill="none" stroke-linecap="round"></path><path d="M 224.425,51.255 C 236.675,68.247 236.958,68.084 248.395,85.630" stroke-width="4.500" stroke="black" fill="none" stroke-linecap="round"></path><path d="M 248.395,85.630 C 260.928,104.857 260.982,104.871 272.365,124.800" stroke-width="4.500" stroke="black" fill="none" stroke-linecap="round"></path><path d="M 272.365,124.800 C 283.354,144.042 283.232,144.147 293.139,163.971" stroke-width="4.500" stroke="black" fill="none" stroke-linecap="round"></path><path d="M 293.139,163.971 C 301.209,180.121 301.405,180.091 308.320,196.747" stroke-width="4.500" stroke="black" fill="none" stroke-linecap="round"></path><path d="M 308.320,196.747 C 312.191,206.071 312.284,206.215 314.712,215.932" stroke-width="4.500" stroke="black" fill="none" stroke-linecap="round"></path><path d="M 314.712,215.932 C 315.480,219.005 315.781,223.973 314.712,222.328" stroke-width="5.731" stroke="black" fill="none" stroke-linecap="round"></path><path d="M 314.712,222.328 C 310.587,215.979 309.167,211.289 304.325,199.944" stroke-width="5.260" stroke="black" fill="none" stroke-linecap="round"></path><path d="M 304.325,199.944 C 292.788,172.918 291.787,173.230 281.953,145.585" stroke-width="4.500" stroke="black" fill="none" stroke-linecap="round"></path><path d="M 281.953,145.585 C 275.008,126.065 275.106,125.875 270.767,105.615" stroke-width="4.500" stroke="black" fill="none" stroke-linecap="round"></path><path d="M 270.767,105.615 C 265.518,81.109 265.377,80.916 262.777,56.052" stroke-width="4.500" stroke="black" fill="none" stroke-linecap="round"></path><path d="M 262.777,56.052 C 261.782,46.541 261.182,45.246 263.576,36.866" stroke-width="4.500" stroke="black" fill="none" stroke-linecap="round"></path><path d="M 263.576,36.866 C 264.378,34.054 266.638,33.279 269.169,33.668" stroke-width="5.179" stroke="black" fill="none" stroke-linecap="round"></path><path d="M 269.169,33.668 C 271.832,34.078 272.040,35.686 273.963,38.465" stroke-width="6.061" stroke="black" fill="none" stroke-linecap="round"></path><path d="M 273.963,38.465 C 282.826,51.275 284.077,50.807 290.742,64.845" stroke-width="4.500" stroke="black" fill="none" stroke-linecap="round"></path><path d="M 290.742,64.845 C 299.258,82.783 298.267,83.399 304.325,102.417" stroke-width="4.500" stroke="black" fill="none" stroke-linecap="round"></path><path d="M 304.325,102.417 C 309.852,119.772 310.012,119.812 313.913,137.591" stroke-width="4.500" stroke="black" fill="none" stroke-linecap="round"></path><path d="M 313.913,137.591 C 317.203,152.588 316.064,152.823 318.707,167.968" stroke-width="4.500" stroke="black" fill="none" stroke-linecap="round"></path><path d="M 318.707,167.968 C 320.458,178.005 320.550,177.995 322.702,187.953" stroke-width="4.500" stroke="black" fill="none" stroke-linecap="round"></path><path d="M 322.702,187.953 C 323.746,192.784 322.966,196.123 325.099,197.546" stroke-width="4.961" stroke="black" fill="none" stroke-linecap="round"></path><path d="M 325.099,197.546 C 326.561,198.522 328.052,195.566 329.893,192.750" stroke-width="6.730" stroke="black" fill="none" stroke-linecap="round"></path><path d="M 329.893,192.750 C 334.844,185.173 333.742,184.413 338.682,176.762" stroke-width="4.858" stroke="black" fill="none" stroke-linecap="round"></path><path d="M 338.682,176.762 C 346.127,165.227 345.848,164.885 354.662,154.378" stroke-width="4.500" stroke="black" fill="none" stroke-linecap="round"></path><path d="M 354.662,154.378 C 364.624,142.502 364.686,142.333 376.235,131.995" stroke-width="4.500" stroke="black" fill="none" stroke-linecap="round"></path><path d="M 376.235,131.995 C 387.457,121.948 387.613,121.862 400.205,113.609" stroke-width="4.500" stroke="black" fill="none" stroke-linecap="round"></path><path d="M 400.205,113.609 C 410.784,106.674 411.110,106.988 422.577,101.618" stroke-width="4.500" stroke="black" fill="none" stroke-linecap="round"></path><path d="M 422.577,101.618 C 429.886,98.194 430.210,97.184 437.758,96.022" stroke-width="4.500" stroke="black" fill="none" stroke-linecap="round"></path><path d="M 437.758,96.022 C 440.597,95.585 443.640,96.542 443.351,98.420" stroke-width="5.634" stroke="black" fill="none" stroke-linecap="round"></path><path d="M 443.351,98.420 C 442.841,101.738 440.278,102.971 436.160,106.414" stroke-width="5.634" stroke="black" fill="none" stroke-linecap="round"></path><path d="M 436.160,106.414 C 411.114,127.353 411.044,127.391 385.024,147.184" stroke-width="4.500" stroke="black" fill="none" stroke-linecap="round"></path><path d="M 385.024,147.184 C 352.717,171.758 352.626,171.676 319.506,195.148" stroke-width="4.500" stroke="black" fill="none" stroke-linecap="round"></path><path d="M 319.506,195.148 C 285.510,219.240 284.420,217.734 250.792,242.313" stroke-width="4.500" stroke="black" fill="none" stroke-linecap="round"></path><path d="M 250.792,242.313 C 217.703,266.497 217.974,266.928 186.072,292.675" stroke-width="4.500" stroke="black" fill="none" stroke-linecap="round"></path><path d="M 186.072,292.675 C 158.049,315.292 158.605,315.976 130.941,339.040" stroke-width="4.500" stroke="black" fill="none" stroke-linecap="round"></path><path d="M 130.941,339.040 C 110.665,355.946 110.824,356.154 90.192,372.615" stroke-width="4.500" stroke="black" fill="none" stroke-linecap="round"></path><path d="M 90.192,372.615 C 79.263,381.336 66.282,393.739 67.820,389.403" stroke-width="4.500" stroke="black" fill="none" stroke-linecap="round"></path><path d="M 67.820,389.403 C 70.677,381.348 81.351,366.796 98.981,347.834" stroke-width="4.500" stroke="black" fill="none" stroke-linecap="round"></path><path d="M 98.981,347.834 C 129.291,315.234 130.851,316.525 163.700,286.280" stroke-width="4.500" stroke="black" fill="none" stroke-linecap="round"></path><path d="M 163.700,286.280 C 195.970,256.569 195.896,256.445 229.218,227.923" stroke-width="4.500" stroke="black" fill="none" stroke-linecap="round"></path><path d="M 229.218,227.923 C 265.010,197.289 265.200,197.482 301.928,167.968" stroke-width="4.500" stroke="black" fill="none" stroke-linecap="round"></path><path d="M 301.928,167.968 C 340.306,137.127 339.585,136.082 379.431,107.213" stroke-width="4.500" stroke="black" fill="none" stroke-linecap="round"></path><path d="M 379.431,107.213 C 420.683,77.326 421.428,78.297 464.125,50.456" stroke-width="4.500" stroke="black" fill="none" stroke-linecap="round"></path><path d="M 464.125,50.456 C 501.728,25.936 501.983,26.321 540.030,2.492" stroke-width="4.500" stroke="black" fill="none" stroke-linecap="round"></path><circle r="3" cx="139.7303466796875" cy="59.24920654296875" fill="black"></circle></svg>