<svg xmlns="http://www.w3.org/2000/svg" xmlns:xlink="http://www.w3.org/1999/xlink" viewBox="0 0 576 416" width="576" height="416"><path d="M 77.408,256.702 C 80.205,262.298 80.417,262.205 83.001,267.894" stroke-width="8.522" stroke="black" fill="none" stroke-linecap="round"></path><path d="M 83.001,267.894 C 84.412,270.999 83.999,271.179 85.398,274.289" stroke-width="6.841" stroke="black" fill="none" stroke-linecap="round"></path><path d="M 85.398,274.289 C 87.595,279.173 90.577,283.882 90.192,283.882" stroke-width="6.875" stroke="black" fill="none" stroke-linecap="round"></path><path d="M 90.192,283.882 C 89.778,283.882 86.674,279.272 83.800,274.289" stroke-width="7.585" stroke="black" fill="none" stroke-linecap="round"></path><path d="M 83.800,274.289 C 80.681,268.880 80.744,268.807 78.207,263.097" stroke-width="5.613" stroke="black" fill="none" stroke-linecap="round"></path><path d="M 78.207,263.097 C 75.950,258.015 76.039,257.959 74.212,252.705" stroke-width="5.490" stroke="black" fill="none" stroke-linecap="round"></path><path d="M 74.212,252.705 C 72.843,248.766 73.059,248.693 71.815,244.711" stroke-width="5.861" stroke="black" fill="none" stroke-linecap="round"></path><path d="M 71.815,244.711 C 71.062,242.298 69.011,239.914 70.217,239.914" stroke-width="6.575" stroke="black" fill="none" stroke-linecap="round"></path><path d="M 70.217,239.914 C 72.606,239.914 74.864,241.948 79.006,244.711" stroke-width="7.543" stroke="black" fill="none" stroke-linecap="round"></path><path d="M 79.006,244.711 C 82.055,246.744 81.706,247.233 84.599,249.507" stroke-width="6.611" stroke="black" fill="none" stroke-linecap="round"></path><path d="M 84.599,249.507 C 87.299,251.629 87.396,251.506 90.192,253.504" stroke-width="6.468" stroke="black" fill="none" stroke-linecap="round"></path><path d="M 90.192,253.504 C 92.989,255.503 92.819,255.805 95.785,257.501" stroke-width="6.426" stroke="black" fill="none" stroke-linecap="round"></path><path d="M 95.785,257.501 C 98.412,259.003 98.450,259.210 101.378,259.899" stroke-width="6.633" stroke="black" fill="none" stroke-linecap="round"></path><path d="M 101.378,259.899 C 105.242,260.809 106.822,262.463 109.368,260.699" stroke-width="7.046" stroke="black" fill="none" stroke-linecap="round"></path><path d="M 109.368,260.699 C 112.015,258.866 111.048,256.772 111.765,252.705" stroke-width="7.514" stroke="black" fill="none" stroke-linecap="round"></path><path d="M 111.765,252.705 C 112.246,249.978 111.765,249.907 111.765,247.109" stroke-width="7.048" stroke="black" fill="none" stroke-linecap="round"></path><path d="M 111.765,247.109 C 111.765,244.311 111.765,244.311 111.765,241.513" stroke-width="6.778" stroke="black" fill="none" stroke-linecap="round"></path><path d="M 111.765,241.513 C 111.765,237.116 111.021,236.941 111.765,232.720" stroke-width="7.034" stroke="black" fill="none" stroke-linecap="round"></path><path d="M 111.765,232.720 C 112.219,230.146 112.462,227.769 114.162,227.923" stroke-width="7.785" stroke="black" fill="none" stroke-linecap="round"></path><path d="M 114.162,227.923 C 116.856,228.168 117.444,230.630 120.554,233.519" stroke-width="7.720" stroke="black" fill="none" stroke-linecap="round"></path><path d="M 120.554,233.519 C 123.037,235.826 123.071,235.810 125.348,238.316" stroke-width="6.772" stroke="black" fill="none" stroke-linecap="round"></path><path d="M 125.348,238.316 C 127.067,240.207 126.946,240.314 128.544,242.313" stroke-width="6.873" stroke="black" fill="none" stroke-linecap="round"></path><path d="M 166.097,230.322 C 161.703,230.721 161.402,229.828 157.308,231.121" stroke-width="8.517" stroke="black" fill="none" stroke-linecap="round"></path><path d="M 157.308,231.121 C 153.811,232.226 153.633,232.626 150.916,235.118" stroke-width="7.678" stroke="black" fill="none" stroke-linecap="round"></path><path d="M 150.916,235.118 C 148.839,237.023 147.509,237.797 147.720,239.914" stroke-width="7.690" stroke="black" fill="none" stroke-linecap="round"></path><path d="M 147.720,239.914 C 147.908,241.794 149.833,243.583 151.715,243.112" stroke-width="8.225" stroke="black" fill="none" stroke-linecap="round"></path><path d="M 151.715,243.112 C 154.627,242.384 155.115,240.686 157.308,237.516" stroke-width="8.092" stroke="black" fill="none" stroke-linecap="round"></path><path d="M 157.308,237.516 C 158.710,235.490 157.251,233.051 158.906,232.720" stroke-width="8.159" stroke="black" fill="none" stroke-linecap="round"></path><path d="M 158.906,232.720 C 161.246,232.252 165.672,234.797 165.298,235.917" stroke-width="8.242" stroke="black" fill="none" stroke-linecap="round"></path><path d="M 172.489,213.534 C 174.487,217.131 174.341,217.220 176.484,220.729" stroke-width="8.597" stroke="black" fill="none" stroke-linecap="round"></path><path d="M 176.484,220.729 C 178.736,224.415 178.990,224.259 181.278,227.923" stroke-width="7.550" stroke="black" fill="none" stroke-linecap="round"></path><path d="M 181.278,227.923 C 182.985,230.654 184.269,233.519 184.474,233.519" stroke-width="7.725" stroke="black" fill="none" stroke-linecap="round"></path><path d="M 184.474,233.519 C 184.668,233.519 182.282,230.784 182.077,227.923" stroke-width="8.310" stroke="black" fill="none" stroke-linecap="round"></path><path d="M 190.067,217.531 C 193.663,220.729 193.227,221.554 197.258,223.926" stroke-width="8.584" stroke="black" fill="none" stroke-linecap="round"></path><path d="M 197.258,223.926 C 200.019,225.551 200.454,225.525 203.650,225.525" stroke-width="7.825" stroke="black" fill="none" stroke-linecap="round"></path><path d="M 203.650,225.525 C 206.846,225.525 207.485,225.632 210.042,223.926" stroke-width="7.926" stroke="black" fill="none" stroke-linecap="round"></path><path d="M 210.042,223.926 C 212.279,222.434 212.046,221.715 213.238,219.130" stroke-width="7.763" stroke="black" fill="none" stroke-linecap="round"></path><path d="M 213.238,219.130 C 214.443,216.519 212.940,215.052 214.836,213.534" stroke-width="7.958" stroke="black" fill="none" stroke-linecap="round"></path><path d="M 214.836,213.534 C 216.935,211.854 218.698,211.680 221.228,212.735" stroke-width="8.313" stroke="black" fill="none" stroke-linecap="round"></path><path d="M 221.228,212.735 C 223.492,213.678 222.916,215.078 224.425,217.531" stroke-width="7.131" stroke="black" fill="none" stroke-linecap="round"></path><path d="M 224.425,217.531 C 226.112,220.274 225.964,220.364 227.620,223.127" stroke-width="6.697" stroke="black" fill="none" stroke-linecap="round"></path><path d="M 227.620,223.127 C 229.559,226.360 229.856,226.198 231.615,229.522" stroke-width="6.366" stroke="black" fill="none" stroke-linecap="round"></path><path d="M 231.615,229.522 C 233.452,232.993 233.387,233.052 234.811,236.717" stroke-width="6.214" stroke="black" fill="none" stroke-linecap="round"></path><path d="M 234.811,236.717 C 236.184,240.247 236.195,240.263 237.208,243.911" stroke-width="6.296" stroke="black" fill="none" stroke-linecap="round"></path><path d="M 237.208,243.911 C 238.193,247.457 238.402,247.465 238.806,251.106" stroke-width="6.202" stroke="black" fill="none" stroke-linecap="round"></path><path d="M 238.806,251.106 C 239.201,254.660 239.030,254.719 238.806,258.301" stroke-width="6.287" stroke="black" fill="none" stroke-linecap="round"></path><path d="M 238.806,258.301 C 238.631,261.114 238.731,261.181 238.008,263.896" stroke-width="6.607" stroke="black" fill="none" stroke-linecap="round"></path><path d="M 238.008,263.896 C 237.133,267.177 237.203,267.304 235.611,270.292" stroke-width="6.475" stroke="black" fill="none" stroke-linecap="round"></path><path d="M 235.611,270.292 C 234.007,273.300 233.709,273.164 231.615,275.888" stroke-width="6.428" stroke="black" fill="none" stroke-linecap="round"></path><path d="M 231.615,275.888 C 229.714,278.360 229.980,278.717 227.620,280.684" stroke-width="6.536" stroke="black" fill="none" stroke-linecap="round"></path><path d="M 227.620,280.684 C 225.186,282.714 224.904,282.443 222.027,283.882" stroke-width="6.529" stroke="black" fill="none" stroke-linecap="round"></path><path d="M 222.027,283.882 C 219.311,285.241 219.355,285.915 216.434,286.280" stroke-width="6.598" stroke="black" fill="none" stroke-linecap="round"></path><path d="M 216.434,286.280 C 212.963,286.714 211.862,287.402 209.243,285.480" stroke-width="7.153" stroke="black" fill="none" stroke-linecap="round"></path><path d="M 209.243,285.480 C 205.870,283.005 205.631,281.820 204.449,277.486" stroke-width="7.121" stroke="black" fill="none" stroke-linecap="round"></path><path d="M 204.449,277.486 C 203.234,273.026 203.976,272.632 204.449,267.894" stroke-width="7.017" stroke="black" fill="none" stroke-linecap="round"></path><path d="M 204.449,267.894 C 204.775,264.638 205.066,264.639 206.047,261.498" stroke-width="6.636" stroke="black" fill="none" stroke-linecap="round"></path><path d="M 206.047,261.498 C 207.064,258.244 207.102,258.238 208.444,255.103" stroke-width="6.484" stroke="black" fill="none" stroke-linecap="round"></path><path d="M 208.444,255.103 C 209.499,252.642 209.643,252.705 210.841,250.307" stroke-width="6.730" stroke="black" fill="none" stroke-linecap="round"></path><path d="M 245.199,201.543 C 243.601,205.940 242.003,206.202 242.003,210.336" stroke-width="8.646" stroke="black" fill="none" stroke-linecap="round"></path><path d="M 242.003,210.336 C 242.003,212.598 243.579,214.514 245.199,214.333" stroke-width="8.535" stroke="black" fill="none" stroke-linecap="round"></path><path d="M 245.199,214.333 C 247.174,214.114 247.936,212.264 249.194,209.537" stroke-width="8.167" stroke="black" fill="none" stroke-linecap="round"></path><path d="M 249.194,209.537 C 250.333,207.068 249.016,203.616 249.993,203.941" stroke-width="8.110" stroke="black" fill="none" stroke-linecap="round"></path><path d="M 249.993,203.941 C 251.413,204.415 251.149,208.514 253.988,211.136" stroke-width="8.183" stroke="black" fill="none" stroke-linecap="round"></path><path d="M 253.988,211.136 C 256.342,213.311 257.061,213.010 260.380,213.534" stroke-width="6.865" stroke="black" fill="none" stroke-linecap="round"></path><path d="M 260.380,213.534 C 264.652,214.209 264.789,213.826 269.169,213.534" stroke-width="6.185" stroke="black" fill="none" stroke-linecap="round"></path><path d="M 269.169,213.534 C 276.774,213.027 276.898,213.460 284.350,211.935" stroke-width="5.099" stroke="black" fill="none" stroke-linecap="round"></path><path d="M 284.350,211.935 C 294.476,209.863 294.517,209.672 304.325,206.339" stroke-width="4.500" stroke="black" fill="none" stroke-linecap="round"></path><path d="M 304.325,206.339 C 315.690,202.478 315.568,202.082 326.697,197.546" stroke-width="4.500" stroke="black" fill="none" stroke-linecap="round"></path><path d="M 326.697,197.546 C 337.141,193.289 337.016,192.981 347.471,188.753" stroke-width="4.500" stroke="black" fill="none" stroke-linecap="round"></path><path d="M 347.471,188.753 C 355.793,185.387 355.834,185.485 364.250,182.357" stroke-width="4.500" stroke="black" fill="none" stroke-linecap="round"></path><path d="M 364.250,182.357 C 369.817,180.289 369.750,179.986 375.436,178.360" stroke-width="4.914" stroke="black" fill="none" stroke-linecap="round"></path><path d="M 375.436,178.360 C 378.140,177.587 382.417,176.693 381.029,177.561" stroke-width="6.073" stroke="black" fill="none" stroke-linecap="round"></path><path d="M 381.029,177.561 C 376.025,180.690 372.016,182.361 362.652,186.354" stroke-width="6.319" stroke="black" fill="none" stroke-linecap="round"></path><path d="M 362.652,186.354 C 347.647,192.753 347.555,192.572 332.290,198.345" stroke-width="4.500" stroke="black" fill="none" stroke-linecap="round"></path><path d="M 332.290,198.345 C 314.796,204.962 314.837,205.106 297.134,211.136" stroke-width="4.500" stroke="black" fill="none" stroke-linecap="round"></path><path d="M 297.134,211.136 C 277.284,217.897 277.284,217.953 257.184,223.926" stroke-width="4.500" stroke="black" fill="none" stroke-linecap="round"></path><path d="M 257.184,223.926 C 236.934,229.944 236.868,229.749 216.434,235.118" stroke-width="4.500" stroke="black" fill="none" stroke-linecap="round"></path><path d="M 216.434,235.118 C 197.318,240.141 197.193,239.668 178.082,244.711" stroke-width="4.500" stroke="black" fill="none" stroke-linecap="round"></path><path d="M 178.082,244.711 C 160.839,249.261 160.984,249.819 143.725,254.304" stroke-width="4.500" stroke="black" fill="none" stroke-linecap="round"></path><path d="M 143.725,254.304 C 130.222,257.813 130.185,257.695 116.559,260.699" stroke-width="4.500" stroke="black" fill="none" stroke-linecap="round"></path><path d="M 116.559,260.699 C 106.614,262.891 106.563,262.654 96.584,264.696" stroke-width="4.500" stroke="black" fill="none" stroke-linecap="round"></path><path d="M 96.584,264.696 C 88.985,266.251 89.051,266.698 81.403,267.894" stroke-width="4.500" stroke="black" fill="none" stroke-linecap="round"></path><path d="M 81.403,267.894 C 76.267,268.696 76.215,268.433 71.016,268.693" stroke-width="5.229" stroke="black" fill="none" stroke-linecap="round"></path><path d="M 71.016,268.693 C 68.225,268.833 64.958,270.206 65.423,268.693" stroke-width="6.160" stroke="black" fill="none" stroke-linecap="round"></path><path d="M 65.423,268.693 C 66.556,265.010 68.886,262.248 74.212,258.301" stroke-width="7.198" stroke="black" fill="none" stroke-linecap="round"></path><path d="M 74.212,258.301 C 79.673,254.254 80.389,254.844 86.996,252.705" stroke-width="5.455" stroke="black" fill="none" stroke-linecap="round"></path><path d="M 86.996,252.705 C 93.972,250.447 94.112,250.576 101.378,249.507" stroke-width="4.996" stroke="black" fill="none" stroke-linecap="round"></path><path d="M 101.378,249.507 C 107.695,248.578 107.832,248.286 114.162,248.708" stroke-width="5.091" stroke="black" fill="none" stroke-linecap="round"></path><path d="M 114.162,248.708 C 119.817,249.085 120.064,249.124 125.348,251.106" stroke-width="5.290" stroke="black" fill="none" stroke-linecap="round"></path><path d="M 125.348,251.106 C 129.652,252.721 130.307,252.652 133.338,255.902" stroke-width="5.646" stroke="black" fill="none" stroke-linecap="round"></path><path d="M 133.338,255.902 C 135.900,258.648 135.779,259.321 136.534,263.097" stroke-width="5.990" stroke="black" fill="none" stroke-linecap="round"></path><path d="M 136.534,263.097 C 137.377,267.315 137.015,267.561 136.534,271.891" stroke-width="5.949" stroke="black" fill="none" stroke-linecap="round"></path><path d="M 136.534,271.891 C 136.216,274.756 136.039,274.807 134.936,277.486" stroke-width="6.459" stroke="black" fill="none" stroke-linecap="round"></path><path d="M 134.936,277.486 C 133.243,281.601 133.108,281.578 130.941,285.480" stroke-width="6.056" stroke="black" fill="none" stroke-linecap="round"></path><path d="M 130.941,285.480 C 129.113,288.773 128.715,288.558 126.946,291.876" stroke-width="6.180" stroke="black" fill="none" stroke-linecap="round"></path><path d="M 126.946,291.876 C 125.519,294.554 125.453,294.579 124.549,297.471" stroke-width="6.486" stroke="black" fill="none" stroke-linecap="round"></path><circle r="3" cx="162.1023712158203" cy="318.2558898925781" fill="black"></circle></svg>