<svg xmlns="http://www.w3.org/2000/svg" xmlns:xlink="http://www.w3.org/1999/xlink" viewBox="0 0 576 416" width="576" height="416"><path d="M 112.564,158.775 C 118.157,158.375 118.157,158.375 123.750,157.975" stroke-width="8.285" stroke="black" fill="none" stroke-linecap="round"></path><path d="M 123.750,157.975 C 134.936,157.176 134.941,157.237 146.122,156.376" stroke-width="4.970" stroke="black" fill="none" stroke-linecap="round"></path><path d="M 146.122,156.376 C 155.715,155.638 155.708,155.545 165.298,154.778" stroke-width="4.500" stroke="black" fill="none" stroke-linecap="round"></path><path d="M 165.298,154.778 C 175.683,153.946 175.698,154.122 186.072,153.179" stroke-width="4.500" stroke="black" fill="none" stroke-linecap="round"></path><path d="M 186.072,153.179 C 197.671,152.124 197.638,151.748 209.243,150.781" stroke-width="4.500" stroke="black" fill="none" stroke-linecap="round"></path><path d="M 209.243,150.781 C 221.609,149.750 221.644,150.180 234.013,149.182" stroke-width="4.500" stroke="black" fill="none" stroke-linecap="round"></path><path d="M 234.013,149.182 C 246.413,148.181 246.383,147.817 258.782,146.784" stroke-width="4.500" stroke="black" fill="none" stroke-linecap="round"></path><path d="M 258.782,146.784 C 270.353,145.819 270.390,146.236 281.953,145.185" stroke-width="4.500" stroke="black" fill="none" stroke-linecap="round"></path><path d="M 281.953,145.185 C 292.363,144.238 292.324,143.827 302.727,142.787" stroke-width="4.500" stroke="black" fill="none" stroke-linecap="round"></path><path d="M 302.727,142.787 C 312.299,141.829 312.344,142.250 321.903,141.188" stroke-width="4.500" stroke="black" fill="none" stroke-linecap="round"></path><path d="M 321.903,141.188 C 330.322,140.252 330.280,139.896 338.682,138.790" stroke-width="4.500" stroke="black" fill="none" stroke-linecap="round"></path><path d="M 338.682,138.790 C 345.461,137.897 345.529,138.314 352.265,137.191" stroke-width="4.873" stroke="black" fill="none" stroke-linecap="round"></path><path d="M 352.265,137.191 C 357.514,136.315 357.454,135.974 362.652,134.793" stroke-width="5.231" stroke="black" fill="none" stroke-linecap="round"></path><path d="M 362.652,134.793 C 366.243,133.976 366.342,134.288 369.843,133.194" stroke-width="5.923" stroke="black" fill="none" stroke-linecap="round"></path><path d="M 369.843,133.194 C 372.734,132.290 375.278,129.690 375.436,130.796" stroke-width="7.025" stroke="black" fill="none" stroke-linecap="round"></path><path d="M 375.436,130.796 C 375.677,132.488 373.417,135.088 370.642,138.790" stroke-width="8.080" stroke="black" fill="none" stroke-linecap="round"></path><path d="M 370.642,138.790 C 368.623,141.483 368.330,141.279 365.848,143.586" stroke-width="6.852" stroke="black" fill="none" stroke-linecap="round"></path><path d="M 365.848,143.586 C 362.737,146.476 362.630,146.359 359.456,149.182" stroke-width="6.318" stroke="black" fill="none" stroke-linecap="round"></path><path d="M 359.456,149.182 C 355.439,152.754 355.533,152.862 351.466,156.376" stroke-width="5.633" stroke="black" fill="none" stroke-linecap="round"></path><path d="M 351.466,156.376 C 346.744,160.457 346.773,160.504 341.878,164.370" stroke-width="5.315" stroke="black" fill="none" stroke-linecap="round"></path><path d="M 341.878,164.370 C 339.182,166.500 339.018,166.284 336.285,168.367" stroke-width="5.965" stroke="black" fill="none" stroke-linecap="round"></path><path d="M 336.285,168.367 C 330.628,172.679 330.918,173.086 325.099,177.161" stroke-width="5.070" stroke="black" fill="none" stroke-linecap="round"></path><path d="M 325.099,177.161 C 318.933,181.479 318.554,180.932 312.315,185.155" stroke-width="4.856" stroke="black" fill="none" stroke-linecap="round"></path><path d="M 312.315,185.155 C 304.971,190.125 305.251,190.537 297.933,195.547" stroke-width="4.625" stroke="black" fill="none" stroke-linecap="round"></path><path d="M 297.933,195.547 C 290.070,200.929 289.929,200.722 281.953,205.939" stroke-width="4.500" stroke="black" fill="none" stroke-linecap="round"></path><path d="M 281.953,205.939 C 269.154,214.312 269.422,214.756 256.385,222.727" stroke-width="4.500" stroke="black" fill="none" stroke-linecap="round"></path><path d="M 256.385,222.727 C 247.849,227.946 247.718,227.763 238.806,232.320" stroke-width="4.500" stroke="black" fill="none" stroke-linecap="round"></path><path d="M 238.806,232.320 C 229.740,236.956 229.693,236.882 220.429,241.113" stroke-width="4.500" stroke="black" fill="none" stroke-linecap="round"></path><path d="M 220.429,241.113 C 211.316,245.276 211.377,245.479 202.052,249.107" stroke-width="4.500" stroke="black" fill="none" stroke-linecap="round"></path><path d="M 202.052,249.107 C 196.995,251.075 196.890,250.811 191.665,252.305" stroke-width="5.056" stroke="black" fill="none" stroke-linecap="round"></path><path d="M 191.665,252.305 C 177.314,256.407 177.444,257.093 162.901,260.299" stroke-width="4.500" stroke="black" fill="none" stroke-linecap="round"></path><path d="M 162.901,260.299 C 153.874,262.289 153.701,261.416 144.524,262.697" stroke-width="4.500" stroke="black" fill="none" stroke-linecap="round"></path><path d="M 144.524,262.697 C 136.523,263.814 136.567,264.203 128.544,265.095" stroke-width="4.500" stroke="black" fill="none" stroke-linecap="round"></path><path d="M 128.544,265.095 C 122.185,265.802 122.151,265.895 115.760,265.895" stroke-width="4.898" stroke="black" fill="none" stroke-linecap="round"></path><path d="M 115.760,265.895 C 110.166,265.895 110.072,266.012 104.574,265.095" stroke-width="5.254" stroke="black" fill="none" stroke-linecap="round"></path><path d="M 104.574,265.095 C 100.484,264.413 100.298,264.431 96.584,262.697" stroke-width="5.851" stroke="black" fill="none" stroke-linecap="round"></path><path d="M 96.584,262.697 C 94.306,261.633 93.297,261.622 92.589,259.499" stroke-width="6.496" stroke="black" fill="none" stroke-linecap="round"></path><path d="M 92.589,259.499 C 91.699,256.826 91.633,255.387 93.388,253.104" stroke-width="7.210" stroke="black" fill="none" stroke-linecap="round"></path><path d="M 93.388,253.104 C 95.628,250.191 96.902,250.947 100.579,249.107" stroke-width="6.368" stroke="black" fill="none" stroke-linecap="round"></path><path d="M 100.579,249.107 C 108.088,245.351 107.992,245.085 115.760,241.913" stroke-width="4.957" stroke="black" fill="none" stroke-linecap="round"></path><path d="M 115.760,241.913 C 127.567,237.091 127.590,237.037 139.730,233.119" stroke-width="4.500" stroke="black" fill="none" stroke-linecap="round"></path><path d="M 139.730,233.119 C 152.359,229.043 152.420,229.146 165.298,225.924" stroke-width="4.500" stroke="black" fill="none" stroke-linecap="round"></path><path d="M 165.298,225.924 C 177.988,222.750 177.998,222.650 190.866,220.329" stroke-width="4.500" stroke="black" fill="none" stroke-linecap="round"></path><path d="M 190.866,220.329 C 202.367,218.254 202.408,217.802 214.037,217.131" stroke-width="4.500" stroke="black" fill="none" stroke-linecap="round"></path><path d="M 214.037,217.131 C 223.183,216.603 223.385,216.575 232.415,217.931" stroke-width="4.500" stroke="black" fill="none" stroke-linecap="round"></path><path d="M 232.415,217.931 C 239.365,218.974 239.492,219.276 245.998,221.928" stroke-width="4.643" stroke="black" fill="none" stroke-linecap="round"></path><path d="M 245.998,221.928 C 250.279,223.673 250.195,224.045 253.988,226.724" stroke-width="5.475" stroke="black" fill="none" stroke-linecap="round"></path><path d="M 253.988,226.724 C 256.986,228.842 256.987,228.926 259.581,231.520" stroke-width="5.939" stroke="black" fill="none" stroke-linecap="round"></path><path d="M 259.581,231.520 C 261.382,233.323 260.901,233.812 262.777,235.517" stroke-width="6.592" stroke="black" fill="none" stroke-linecap="round"></path><path d="M 262.777,235.517 C 265.296,237.809 265.363,239.113 268.370,239.514" stroke-width="7.193" stroke="black" fill="none" stroke-linecap="round"></path><path d="M 268.370,239.514 C 271.355,239.913 271.612,238.429 274.762,237.116" stroke-width="7.426" stroke="black" fill="none" stroke-linecap="round"></path><path d="M 274.762,237.116 C 281.200,234.432 281.230,234.482 287.546,231.520" stroke-width="5.376" stroke="black" fill="none" stroke-linecap="round"></path><path d="M 287.546,231.520 C 294.014,228.487 293.856,228.148 300.330,225.125" stroke-width="5.026" stroke="black" fill="none" stroke-linecap="round"></path><path d="M 300.330,225.125 C 305.841,222.552 305.804,222.386 311.516,220.329" stroke-width="5.177" stroke="black" fill="none" stroke-linecap="round"></path><path d="M 311.516,220.329 C 315.791,218.789 315.900,219.090 320.305,217.931" stroke-width="5.637" stroke="black" fill="none" stroke-linecap="round"></path><path d="M 320.305,217.931 C 323.490,217.092 323.460,216.522 326.697,216.332" stroke-width="6.206" stroke="black" fill="none" stroke-linecap="round"></path><path d="M 326.697,216.332 C 330.251,216.122 330.506,216.074 333.888,217.131" stroke-width="7.009" stroke="black" fill="none" stroke-linecap="round"></path><path d="M 333.888,217.131 C 336.898,218.072 336.446,219.823 339.481,220.329" stroke-width="7.816" stroke="black" fill="none" stroke-linecap="round"></path><path d="M 339.481,220.329 C 343.637,221.022 343.920,220.226 348.270,219.529" stroke-width="6.481" stroke="black" fill="none" stroke-linecap="round"></path><path d="M 348.270,219.529 C 353.908,218.627 353.823,218.103 359.456,217.131" stroke-width="5.565" stroke="black" fill="none" stroke-linecap="round"></path><path d="M 359.456,217.131 C 365.409,216.104 365.426,215.995 371.441,215.532" stroke-width="5.348" stroke="black" fill="none" stroke-linecap="round"></path><path d="M 371.441,215.532 C 375.813,215.196 375.835,215.532 380.230,215.532" stroke-width="5.744" stroke="black" fill="none" stroke-linecap="round"></path><path d="M 380.230,215.532 C 383.825,215.532 383.901,215.063 387.421,215.532" stroke-width="6.139" stroke="black" fill="none" stroke-linecap="round"></path><path d="M 387.421,215.532 C 389.894,215.862 389.932,216.077 392.215,217.131" stroke-width="6.677" stroke="black" fill="none" stroke-linecap="round"></path><path d="M 392.215,217.131 C 395.125,218.475 395.136,218.547 397.808,220.329" stroke-width="7.276" stroke="black" fill="none" stroke-linecap="round"></path><path d="M 397.808,220.329 C 399.930,221.744 399.451,222.938 401.803,223.526" stroke-width="7.885" stroke="black" fill="none" stroke-linecap="round"></path><path d="M 401.803,223.526 C 405.843,224.537 406.197,223.526 410.592,223.526" stroke-width="7.738" stroke="black" fill="none" stroke-linecap="round"></path><path d="M 410.592,223.526 C 414.587,223.526 414.587,223.526 418.582,223.526" stroke-width="7.417" stroke="black" fill="none" stroke-linecap="round"></path><path d="M 418.582,223.526 C 421.778,223.526 423.860,221.855 424.974,223.526" stroke-width="7.527" stroke="black" fill="none" stroke-linecap="round"></path><path d="M 424.974,223.526 C 426.257,225.453 425.236,227.826 423.376,230.721" stroke-width="8.040" stroke="black" fill="none" stroke-linecap="round"></path><path d="M 423.376,230.721 C 421.641,233.422 420.531,232.655 417.783,234.718" stroke-width="6.824" stroke="black" fill="none" stroke-linecap="round"></path><path d="M 417.783,234.718 C 414.139,237.452 414.344,237.745 410.592,240.314" stroke-width="6.207" stroke="black" fill="none" stroke-linecap="round"></path><path d="M 410.592,240.314 C 406.754,242.941 406.726,242.957 402.602,245.110" stroke-width="5.926" stroke="black" fill="none" stroke-linecap="round"></path><path d="M 402.602,245.110 C 397.538,247.754 397.552,247.881 392.215,249.907" stroke-width="5.533" stroke="black" fill="none" stroke-linecap="round"></path><path d="M 392.215,249.907 C 385.966,252.278 385.835,251.946 379.431,253.904" stroke-width="5.174" stroke="black" fill="none" stroke-linecap="round"></path><path d="M 379.431,253.904 C 371.453,256.343 371.496,256.505 363.451,258.700" stroke-width="4.611" stroke="black" fill="none" stroke-linecap="round"></path><path d="M 363.451,258.700 C 353.918,261.301 353.967,261.632 344.275,263.496" stroke-width="4.500" stroke="black" fill="none" stroke-linecap="round"></path><path d="M 344.275,263.496 C 333.193,265.629 333.121,265.362 321.903,266.694" stroke-width="4.500" stroke="black" fill="none" stroke-linecap="round"></path><path d="M 321.903,266.694 C 309.550,268.160 309.523,267.948 297.134,269.092" stroke-width="4.500" stroke="black" fill="none" stroke-linecap="round"></path><path d="M 297.134,269.092 C 283.556,270.346 283.575,270.701 269.968,271.491" stroke-width="4.500" stroke="black" fill="none" stroke-linecap="round"></path><path d="M 269.968,271.491 C 256.009,272.300 255.988,272.096 242.003,272.290" stroke-width="4.500" stroke="black" fill="none" stroke-linecap="round"></path><path d="M 242.003,272.290 C 227.224,272.495 227.221,272.290 212.439,272.290" stroke-width="4.500" stroke="black" fill="none" stroke-linecap="round"></path><path d="M 212.439,272.290 C 198.457,272.290 198.457,272.290 184.474,272.290" stroke-width="4.500" stroke="black" fill="none" stroke-linecap="round"></path><path d="M 184.474,272.290 C 170.891,272.290 170.891,272.290 157.308,272.290" stroke-width="4.500" stroke="black" fill="none" stroke-linecap="round"></path><path d="M 157.308,272.290 C 145.323,272.290 145.307,272.718 133.338,272.290" stroke-width="4.500" stroke="black" fill="none" stroke-linecap="round"></path><path d="M 133.338,272.290 C 122.935,271.918 122.935,271.656 112.564,270.691" stroke-width="4.500" stroke="black" fill="none" stroke-linecap="round"></path><path d="M 112.564,270.691 C 105.757,270.058 105.643,270.425 98.981,269.092" stroke-width="4.582" stroke="black" fill="none" stroke-linecap="round"></path><path d="M 98.981,269.092 C 95.656,268.427 92.429,268.620 92.589,266.694" stroke-width="5.731" stroke="black" fill="none" stroke-linecap="round"></path><path d="M 92.589,266.694 C 92.828,263.824 95.371,261.828 99.780,259.499" stroke-width="6.519" stroke="black" fill="none" stroke-linecap="round"></path><path d="M 99.780,259.499 C 109.753,254.233 110.430,255.094 121.353,251.505" stroke-width="4.500" stroke="black" fill="none" stroke-linecap="round"></path><path d="M 121.353,251.505 C 137.197,246.301 137.175,246.099 153.313,241.913" stroke-width="4.500" stroke="black" fill="none" stroke-linecap="round"></path><path d="M 153.313,241.913 C 169.535,237.705 169.552,237.473 186.072,234.718" stroke-width="4.500" stroke="black" fill="none" stroke-linecap="round"></path><path d="M 186.072,234.718 C 203.110,231.877 203.202,232.108 220.429,230.721" stroke-width="4.500" stroke="black" fill="none" stroke-linecap="round"></path><path d="M 220.429,230.721 C 237.958,229.310 237.998,229.522 255.586,229.122" stroke-width="4.500" stroke="black" fill="none" stroke-linecap="round"></path><path d="M 255.586,229.122 C 273.154,228.723 273.166,228.922 290.742,229.122" stroke-width="4.500" stroke="black" fill="none" stroke-linecap="round"></path><path d="M 290.742,229.122 C 308.322,229.322 308.334,229.174 325.898,229.922" stroke-width="4.500" stroke="black" fill="none" stroke-linecap="round"></path><path d="M 325.898,229.922 C 345.887,230.773 345.890,230.879 365.848,232.320" stroke-width="4.500" stroke="black" fill="none" stroke-linecap="round"></path><path d="M 365.848,232.320 C 384.642,233.677 384.629,233.866 403.401,235.517" stroke-width="4.500" stroke="black" fill="none" stroke-linecap="round"></path><path d="M 403.401,235.517 C 420.983,237.064 420.980,237.098 438.557,238.715" stroke-width="4.500" stroke="black" fill="none" stroke-linecap="round"></path><path d="M 438.557,238.715 C 455.737,240.296 455.702,240.875 472.914,241.913" stroke-width="4.500" stroke="black" fill="none" stroke-linecap="round"></path><path d="M 472.914,241.913 C 488.861,242.874 488.894,242.712 504.874,242.712" stroke-width="4.500" stroke="black" fill="none" stroke-linecap="round"></path><path d="M 504.874,242.712 C 520.055,242.712 520.053,242.124 535.236,241.913" stroke-width="4.500" stroke="black" fill="none" stroke-linecap="round"></path></svg>