<svg xmlns="http://www.w3.org/2000/svg" xmlns:xlink="http://www.w3.org/1999/xlink" viewBox="0 0 576 416" width="576" height="416"><path d="M 389.019,260.299 C 389.019,253.104 389.019,253.104 389.019,245.910" stroke-width="8.444" stroke="black" fill="none" stroke-linecap="round"></path><path d="M 389.019,245.910 C 389.019,240.314 389.019,240.314 389.019,234.718" stroke-width="5.963" stroke="black" fill="none" stroke-linecap="round"></path><path d="M 389.019,234.718 C 389.019,227.523 389.417,227.501 389.019,220.329" stroke-width="5.348" stroke="black" fill="none" stroke-linecap="round"></path><path d="M 389.019,220.329 C 388.618,213.112 388.242,213.132 387.421,205.939" stroke-width="4.896" stroke="black" fill="none" stroke-linecap="round"></path><path d="M 387.421,205.939 C 386.644,199.142 386.878,199.104 385.823,192.350" stroke-width="4.959" stroke="black" fill="none" stroke-linecap="round"></path><path d="M 385.823,192.350 C 384.880,186.314 384.859,186.297 383.426,180.359" stroke-width="5.149" stroke="black" fill="none" stroke-linecap="round"></path><path d="M 383.426,180.359 C 382.062,174.706 382.129,174.657 380.230,169.167" stroke-width="5.582" stroke="black" fill="none" stroke-linecap="round"></path><path d="M 380.230,169.167 C 378.534,164.265 378.719,164.093 376.235,159.574" stroke-width="5.585" stroke="black" fill="none" stroke-linecap="round"></path><path d="M 376.235,159.574 C 374.324,156.099 374.034,156.206 371.441,153.179" stroke-width="6.151" stroke="black" fill="none" stroke-linecap="round"></path><path d="M 371.441,153.179 C 369.240,150.610 369.394,150.215 366.647,148.382" stroke-width="6.184" stroke="black" fill="none" stroke-linecap="round"></path><path d="M 366.647,148.382 C 364.600,147.017 364.305,146.972 361.853,146.784" stroke-width="6.693" stroke="black" fill="none" stroke-linecap="round"></path><path d="M 361.853,146.784 C 359.111,146.573 357.753,145.903 356.260,147.583" stroke-width="7.357" stroke="black" fill="none" stroke-linecap="round"></path><path d="M 356.260,147.583 C 354.557,149.500 354.056,151.448 355.461,153.978" stroke-width="7.752" stroke="black" fill="none" stroke-linecap="round"></path><path d="M 355.461,153.978 C 358.051,158.643 359.285,158.949 364.250,161.972" stroke-width="6.921" stroke="black" fill="none" stroke-linecap="round"></path><path d="M 364.250,161.972 C 368.473,164.544 368.934,164.038 373.838,165.170" stroke-width="5.975" stroke="black" fill="none" stroke-linecap="round"></path><path d="M 373.838,165.170 C 379.321,166.436 379.401,166.381 385.024,166.769" stroke-width="5.565" stroke="black" fill="none" stroke-linecap="round"></path><path d="M 385.024,166.769 C 390.987,167.180 391.016,166.769 397.009,166.769" stroke-width="5.450" stroke="black" fill="none" stroke-linecap="round"></path><path d="M 397.009,166.769 C 403.001,166.769 403.001,166.769 408.994,166.769" stroke-width="5.233" stroke="black" fill="none" stroke-linecap="round"></path><path d="M 408.994,166.769 C 413.388,166.769 413.388,166.769 417.783,166.769" stroke-width="5.704" stroke="black" fill="none" stroke-linecap="round"></path><path d="M 417.783,166.769 C 420.979,166.769 424.175,165.141 424.175,166.769" stroke-width="6.265" stroke="black" fill="none" stroke-linecap="round"></path><path d="M 424.175,166.769 C 424.175,169.537 422.011,172.299 417.783,175.562" stroke-width="7.030" stroke="black" fill="none" stroke-linecap="round"></path><path d="M 417.783,175.562 C 408.028,183.091 407.199,182.323 396.210,188.353" stroke-width="4.500" stroke="black" fill="none" stroke-linecap="round"></path><path d="M 396.210,188.353 C 382.430,195.913 382.382,195.866 368.245,202.742" stroke-width="4.500" stroke="black" fill="none" stroke-linecap="round"></path><path d="M 368.245,202.742 C 353.618,209.855 353.504,209.628 338.682,216.332" stroke-width="4.500" stroke="black" fill="none" stroke-linecap="round"></path><path d="M 338.682,216.332 C 324.341,222.818 324.282,222.687 309.918,229.122" stroke-width="4.500" stroke="black" fill="none" stroke-linecap="round"></path><path d="M 309.918,229.122 C 297.515,234.678 297.625,234.933 285.149,240.314" stroke-width="4.500" stroke="black" fill="none" stroke-linecap="round"></path><path d="M 285.149,240.314 C 274.454,244.926 274.359,244.704 263.576,249.107" stroke-width="4.500" stroke="black" fill="none" stroke-linecap="round"></path><path d="M 263.576,249.107 C 254.784,252.698 254.960,253.234 245.998,256.302" stroke-width="4.500" stroke="black" fill="none" stroke-linecap="round"></path><path d="M 245.998,256.302 C 239.779,258.430 239.684,258.830 233.214,259.499" stroke-width="4.715" stroke="black" fill="none" stroke-linecap="round"></path><path d="M 233.214,259.499 C 228.098,260.029 227.318,260.626 222.826,258.700" stroke-width="5.289" stroke="black" fill="none" stroke-linecap="round"></path><path d="M 222.826,258.700 C 218.928,257.029 218.993,255.962 216.434,252.305" stroke-width="6.444" stroke="black" fill="none" stroke-linecap="round"></path><path d="M 216.434,252.305 C 213.400,247.968 213.658,247.666 211.640,242.712" stroke-width="5.767" stroke="black" fill="none" stroke-linecap="round"></path><path d="M 211.640,242.712 C 209.263,236.874 209.460,236.771 207.645,230.721" stroke-width="5.330" stroke="black" fill="none" stroke-linecap="round"></path><path d="M 207.645,230.721 C 205.864,224.780 205.858,224.770 204.449,218.730" stroke-width="5.240" stroke="black" fill="none" stroke-linecap="round"></path><path d="M 204.449,218.730 C 203.061,212.779 202.980,212.774 202.052,206.739" stroke-width="5.236" stroke="black" fill="none" stroke-linecap="round"></path><path d="M 202.052,206.739 C 201.382,202.381 201.693,202.338 201.253,197.945" stroke-width="5.699" stroke="black" fill="none" stroke-linecap="round"></path><path d="M 201.253,197.945 C 200.893,194.344 200.233,194.296 200.454,190.751" stroke-width="6.115" stroke="black" fill="none" stroke-linecap="round"></path><path d="M 200.454,190.751 C 200.632,187.901 199.790,186.400 202.052,185.155" stroke-width="7.135" stroke="black" fill="none" stroke-linecap="round"></path><path d="M 202.052,185.155 C 207.780,182.003 209.189,183.258 216.434,181.957" stroke-width="6.514" stroke="black" fill="none" stroke-linecap="round"></path><path d="M 216.434,181.957 C 224.770,180.460 224.828,180.787 233.214,179.559" stroke-width="4.966" stroke="black" fill="none" stroke-linecap="round"></path><path d="M 233.214,179.559 C 241.208,178.389 241.188,178.243 249.194,177.161" stroke-width="4.714" stroke="black" fill="none" stroke-linecap="round"></path><path d="M 249.194,177.161 C 255.969,176.245 255.968,176.067 262.777,175.562" stroke-width="4.902" stroke="black" fill="none" stroke-linecap="round"></path><path d="M 262.777,175.562 C 266.754,175.267 269.185,173.584 270.767,175.562" stroke-width="5.697" stroke="black" fill="none" stroke-linecap="round"></path><path d="M 270.767,175.562 C 272.381,177.581 271.736,180.606 269.169,183.556" stroke-width="6.708" stroke="black" fill="none" stroke-linecap="round"></path><path d="M 269.169,183.556 C 260.950,192.997 259.636,192.552 249.194,200.344" stroke-width="4.500" stroke="black" fill="none" stroke-linecap="round"></path><path d="M 249.194,200.344 C 236.065,210.139 235.704,209.678 222.027,218.730" stroke-width="4.500" stroke="black" fill="none" stroke-linecap="round"></path><path d="M 222.027,218.730 C 209.736,226.865 209.779,226.943 197.258,234.718" stroke-width="4.500" stroke="black" fill="none" stroke-linecap="round"></path><path d="M 197.258,234.718 C 186.607,241.332 186.639,241.420 175.685,247.508" stroke-width="4.500" stroke="black" fill="none" stroke-linecap="round"></path><path d="M 175.685,247.508 C 168.662,251.412 168.669,251.545 161.303,254.703" stroke-width="4.500" stroke="black" fill="none" stroke-linecap="round"></path><path d="M 161.303,254.703 C 157.483,256.341 155.666,258.385 153.313,257.101" stroke-width="5.352" stroke="black" fill="none" stroke-linecap="round"></path><path d="M 153.313,257.101 C 151.272,255.987 151.967,253.375 152.514,249.907" stroke-width="5.990" stroke="black" fill="none" stroke-linecap="round"></path><path d="M 152.514,249.907 C 153.165,245.781 153.748,245.736 155.710,241.913" stroke-width="5.979" stroke="black" fill="none" stroke-linecap="round"></path><path d="M 155.710,241.913 C 161.338,230.947 161.467,230.983 167.695,220.329" stroke-width="4.500" stroke="black" fill="none" stroke-linecap="round"></path><path d="M 167.695,220.329 C 173.851,209.798 173.886,209.806 180.479,199.544" stroke-width="4.500" stroke="black" fill="none" stroke-linecap="round"></path><path d="M 180.479,199.544 C 184.673,193.018 184.839,193.124 189.268,186.754" stroke-width="4.500" stroke="black" fill="none" stroke-linecap="round"></path><path d="M 189.268,186.754 C 191.231,183.931 194.299,180.122 193.263,181.158" stroke-width="5.622" stroke="black" fill="none" stroke-linecap="round"></path><path d="M 193.263,181.158 C 190.704,183.719 187.759,187.632 182.077,193.948" stroke-width="5.882" stroke="black" fill="none" stroke-linecap="round"></path><path d="M 182.077,193.948 C 169.782,207.617 169.683,207.529 157.308,221.128" stroke-width="4.500" stroke="black" fill="none" stroke-linecap="round"></path><path d="M 157.308,221.128 C 145.314,234.309 145.820,234.809 133.338,247.508" stroke-width="4.500" stroke="black" fill="none" stroke-linecap="round"></path><path d="M 133.338,247.508 C 122.249,258.791 122.127,258.738 110.167,269.092" stroke-width="4.500" stroke="black" fill="none" stroke-linecap="round"></path><path d="M 110.167,269.092 C 101.353,276.724 101.573,277.275 91.790,283.482" stroke-width="4.500" stroke="black" fill="none" stroke-linecap="round"></path><path d="M 91.790,283.482 C 85.193,287.667 84.881,288.008 77.408,289.877" stroke-width="4.500" stroke="black" fill="none" stroke-linecap="round"></path><path d="M 77.408,289.877 C 72.097,291.205 70.426,292.362 66.222,289.877" stroke-width="5.020" stroke="black" fill="none" stroke-linecap="round"></path><path d="M 66.222,289.877 C 61.637,287.166 61.463,285.201 59.830,279.485" stroke-width="6.044" stroke="black" fill="none" stroke-linecap="round"></path><path d="M 59.830,279.485 C 57.468,271.211 57.377,270.599 58.232,261.898" stroke-width="4.803" stroke="black" fill="none" stroke-linecap="round"></path><path d="M 58.232,261.898 C 59.774,246.217 58.432,245.121 64.624,230.721" stroke-width="4.500" stroke="black" fill="none" stroke-linecap="round"></path><path d="M 64.624,230.721 C 73.213,210.747 73.535,209.669 87.795,193.149" stroke-width="4.500" stroke="black" fill="none" stroke-linecap="round"></path><path d="M 87.795,193.149 C 103.897,174.495 105.381,175.164 125.348,160.373" stroke-width="4.500" stroke="black" fill="none" stroke-linecap="round"></path><path d="M 125.348,160.373 C 146.929,144.387 147.431,144.762 170.891,131.595" stroke-width="4.500" stroke="black" fill="none" stroke-linecap="round"></path><path d="M 170.891,131.595 C 196.569,117.183 196.769,117.316 223.625,105.215" stroke-width="4.500" stroke="black" fill="none" stroke-linecap="round"></path><path d="M 223.625,105.215 C 249.104,93.734 249.048,93.127 275.561,84.430" stroke-width="4.500" stroke="black" fill="none" stroke-linecap="round"></path><path d="M 275.561,84.430 C 297.787,77.139 298.070,76.671 321.104,73.238" stroke-width="4.500" stroke="black" fill="none" stroke-linecap="round"></path><path d="M 321.104,73.238 C 335.623,71.075 336.843,70.313 350.667,73.238" stroke-width="4.500" stroke="black" fill="none" stroke-linecap="round"></path><path d="M 350.667,73.238 C 357.617,74.710 359.477,76.738 362.652,82.032" stroke-width="4.500" stroke="black" fill="none" stroke-linecap="round"></path><path d="M 362.652,82.032 C 364.271,84.732 362.323,86.071 360.255,89.227" stroke-width="5.342" stroke="black" fill="none" stroke-linecap="round"></path><path d="M 360.255,89.227 C 346.343,110.453 347.073,111.322 330.692,130.796" stroke-width="4.500" stroke="black" fill="none" stroke-linecap="round"></path><path d="M 330.692,130.796 C 306.724,159.287 305.319,158.161 279.556,185.155" stroke-width="4.500" stroke="black" fill="none" stroke-linecap="round"></path><path d="M 279.556,185.155 C 254.582,211.322 253.934,210.712 229.218,237.116" stroke-width="4.500" stroke="black" fill="none" stroke-linecap="round"></path><path d="M 229.218,237.116 C 206.793,261.074 206.328,260.738 185.273,285.880" stroke-width="4.500" stroke="black" fill="none" stroke-linecap="round"></path><path d="M 185.273,285.880 C 169.174,305.105 169.352,305.361 154.911,325.850" stroke-width="4.500" stroke="black" fill="none" stroke-linecap="round"></path><path d="M 154.911,325.850 C 147.379,336.538 146.787,336.669 141.328,348.233" stroke-width="4.500" stroke="black" fill="none" stroke-linecap="round"></path><path d="M 141.328,348.233 C 139.995,351.058 138.924,355.411 141.328,354.629" stroke-width="4.794" stroke="black" fill="none" stroke-linecap="round"></path><path d="M 141.328,354.629 C 154.904,350.214 157.595,346.748 173.288,337.841" stroke-width="4.500" stroke="black" fill="none" stroke-linecap="round"></path><path d="M 173.288,337.841 C 199.144,323.166 198.702,322.386 224.425,307.464" stroke-width="4.500" stroke="black" fill="none" stroke-linecap="round"></path><path d="M 224.425,307.464 C 246.243,294.806 246.105,294.516 268.370,282.682" stroke-width="4.500" stroke="black" fill="none" stroke-linecap="round"></path><path d="M 268.370,282.682 C 284.457,274.132 284.541,274.214 301.129,266.694" stroke-width="4.500" stroke="black" fill="none" stroke-linecap="round"></path><path d="M 301.129,266.694 C 310.109,262.623 310.169,262.513 319.506,259.499" stroke-width="4.500" stroke="black" fill="none" stroke-linecap="round"></path><path d="M 319.506,259.499 C 322.553,258.516 325.557,257.335 325.898,258.700" stroke-width="5.202" stroke="black" fill="none" stroke-linecap="round"></path><path d="M 325.898,258.700 C 326.356,260.532 323.864,262.631 321.104,265.895" stroke-width="6.887" stroke="black" fill="none" stroke-linecap="round"></path><circle r="3" cx="389.0187683105469" cy="106.81341552734375" fill="black"></circle></svg>