<svg xmlns="http://www.w3.org/2000/svg" xmlns:xlink="http://www.w3.org/1999/xlink" viewBox="0 0 576 336" width="576" height="336"><path d="M 219.193,-4.039 C 223.456,-35.133 219.043,-36.457 227.719,-66.227" stroke-width="4.500" stroke="black" fill="none" stroke-linecap="round"></path><path d="M 227.719,-66.227 C 235.561,-93.140 253.613,-127.499 252.229,-117.406" stroke-width="4.500" stroke="black" fill="none" stroke-linecap="round"></path><path d="M 69.643,219.896 C 76.570,218.830 76.559,218.755 83.497,217.764" stroke-width="8.157" stroke="black" fill="none" stroke-linecap="round"></path><path d="M 83.497,217.764 C 87.749,217.156 87.795,217.433 92.022,216.697" stroke-width="6.499" stroke="black" fill="none" stroke-linecap="round"></path><path d="M 92.022,216.697 C 95.965,216.011 95.982,215.997 99.837,214.920" stroke-width="6.226" stroke="black" fill="none" stroke-linecap="round"></path><path d="M 99.837,214.920 C 103.620,213.864 103.634,213.853 107.297,212.432" stroke-width="6.175" stroke="black" fill="none" stroke-linecap="round"></path><path d="M 107.297,212.432 C 112.337,210.477 112.355,210.480 117.243,208.168" stroke-width="5.588" stroke="black" fill="none" stroke-linecap="round"></path><path d="M 117.243,208.168 C 122.124,205.859 122.058,205.716 126.834,203.192" stroke-width="5.435" stroke="black" fill="none" stroke-linecap="round"></path><path d="M 126.834,203.192 C 131.472,200.741 131.522,200.827 136.070,198.216" stroke-width="5.436" stroke="black" fill="none" stroke-linecap="round"></path><path d="M 136.070,198.216 C 142.357,194.607 142.434,194.709 148.503,190.753" stroke-width="5.017" stroke="black" fill="none" stroke-linecap="round"></path><path d="M 148.503,190.753 C 154.156,187.068 153.999,186.829 159.515,182.934" stroke-width="5.016" stroke="black" fill="none" stroke-linecap="round"></path><path d="M 159.515,182.934 C 166.077,178.299 166.425,178.734 172.659,173.693" stroke-width="4.737" stroke="black" fill="none" stroke-linecap="round"></path><path d="M 172.659,173.693 C 179.391,168.249 179.009,167.780 185.447,161.964" stroke-width="4.535" stroke="black" fill="none" stroke-linecap="round"></path><path d="M 185.447,161.964 C 191.797,156.229 192.334,156.753 198.235,150.591" stroke-width="4.500" stroke="black" fill="none" stroke-linecap="round"></path><path d="M 198.235,150.591 C 204.589,143.958 204.130,143.511 209.957,136.375" stroke-width="4.518" stroke="black" fill="none" stroke-linecap="round"></path><path d="M 209.957,136.375 C 216.030,128.939 216.563,129.307 222.035,121.448" stroke-width="4.500" stroke="black" fill="none" stroke-linecap="round"></path><path d="M 222.035,121.448 C 227.575,113.491 227.063,113.128 231.982,104.744" stroke-width="4.500" stroke="black" fill="none" stroke-linecap="round"></path><path d="M 231.982,104.744 C 236.654,96.779 237.410,97.112 241.217,88.750" stroke-width="4.500" stroke="black" fill="none" stroke-linecap="round"></path><path d="M 241.217,88.750 C 244.692,81.118 244.075,80.813 246.546,72.757" stroke-width="4.523" stroke="black" fill="none" stroke-linecap="round"></path><path d="M 246.546,72.757 C 248.871,65.175 249.295,65.233 250.809,57.475" stroke-width="4.615" stroke="black" fill="none" stroke-linecap="round"></path><path d="M 250.809,57.475 C 252.137,50.661 252.016,50.550 252.229,43.614" stroke-width="4.750" stroke="black" fill="none" stroke-linecap="round"></path><path d="M 252.229,43.614 C 252.371,39.000 252.341,38.899 251.519,34.373" stroke-width="5.377" stroke="black" fill="none" stroke-linecap="round"></path><path d="M 251.519,34.373 C 250.921,31.080 250.766,31.029 249.388,27.976" stroke-width="6.146" stroke="black" fill="none" stroke-linecap="round"></path><path d="M 249.388,27.976 C 248.279,25.520 248.309,25.371 246.546,23.355" stroke-width="6.605" stroke="black" fill="none" stroke-linecap="round"></path><path d="M 246.546,23.355 C 244.579,21.107 244.496,21.001 241.928,19.446" stroke-width="6.553" stroke="black" fill="none" stroke-linecap="round"></path><path d="M 241.928,19.446 C 237.747,16.914 237.725,16.171 233.047,15.181" stroke-width="5.833" stroke="black" fill="none" stroke-linecap="round"></path><path d="M 233.047,15.181 C 228.490,14.216 228.135,14.641 223.456,15.536" stroke-width="5.859" stroke="black" fill="none" stroke-linecap="round"></path><path d="M 223.456,15.536 C 216.057,16.952 216.024,17.242 208.892,19.801" stroke-width="4.932" stroke="black" fill="none" stroke-linecap="round"></path><path d="M 208.892,19.801 C 199.683,23.106 199.679,23.198 190.775,27.265" stroke-width="4.500" stroke="black" fill="none" stroke-linecap="round"></path><path d="M 190.775,27.265 C 183.339,30.662 183.448,30.912 176.211,34.728" stroke-width="4.522" stroke="black" fill="none" stroke-linecap="round"></path><path d="M 176.211,34.728 C 170.305,37.843 170.086,37.526 164.488,41.126" stroke-width="4.873" stroke="black" fill="none" stroke-linecap="round"></path><path d="M 164.488,41.126 C 160.139,43.923 160.121,44.027 156.318,47.523" stroke-width="5.177" stroke="black" fill="none" stroke-linecap="round"></path><path d="M 156.318,47.523 C 153.550,50.069 153.563,50.168 151.345,53.210" stroke-width="5.873" stroke="black" fill="none" stroke-linecap="round"></path><path d="M 151.345,53.210 C 148.768,56.743 148.773,56.799 146.727,60.673" stroke-width="5.830" stroke="black" fill="none" stroke-linecap="round"></path><path d="M 146.727,60.673 C 143.800,66.217 143.616,66.197 141.399,72.046" stroke-width="5.356" stroke="black" fill="none" stroke-linecap="round"></path><path d="M 141.399,72.046 C 139.709,76.503 139.480,76.577 138.912,81.287" stroke-width="5.632" stroke="black" fill="none" stroke-linecap="round"></path><path d="M 138.912,81.287 C 138.237,86.884 137.977,87.141 138.912,92.660" stroke-width="5.462" stroke="black" fill="none" stroke-linecap="round"></path><path d="M 138.912,92.660 C 139.753,97.625 140.767,97.430 142.464,102.256" stroke-width="5.481" stroke="black" fill="none" stroke-linecap="round"></path><path d="M 142.464,102.256 C 144.142,107.026 144.063,107.054 145.661,111.852" stroke-width="5.593" stroke="black" fill="none" stroke-linecap="round"></path><path d="M 145.661,111.852 C 146.905,115.584 146.571,115.739 148.148,119.316" stroke-width="5.894" stroke="black" fill="none" stroke-linecap="round"></path><path d="M 148.148,119.316 C 149.235,121.781 149.190,121.942 150.990,123.936" stroke-width="6.515" stroke="black" fill="none" stroke-linecap="round"></path><path d="M 150.990,123.936 C 154.163,127.451 154.353,127.378 158.094,130.333" stroke-width="6.864" stroke="black" fill="none" stroke-linecap="round"></path><path d="M 158.094,130.333 C 161.102,132.709 161.260,132.514 164.488,134.598" stroke-width="7.163" stroke="black" fill="none" stroke-linecap="round"></path><path d="M 164.488,134.598 C 166.766,136.068 167.538,135.402 169.106,137.441" stroke-width="7.927" stroke="black" fill="none" stroke-linecap="round"></path><path d="M 169.106,137.441 C 171.091,140.022 170.666,140.549 171.593,143.839" stroke-width="8.570" stroke="black" fill="none" stroke-linecap="round"></path><path d="M 171.593,143.839 C 172.619,147.480 172.148,147.605 173.014,151.302" stroke-width="6.778" stroke="black" fill="none" stroke-linecap="round"></path><path d="M 173.014,151.302 C 174.812,158.978 175.051,158.923 176.921,166.585" stroke-width="5.149" stroke="black" fill="none" stroke-linecap="round"></path><path d="M 176.921,166.585 C 178.781,174.206 178.667,174.233 180.474,181.867" stroke-width="4.710" stroke="black" fill="none" stroke-linecap="round"></path><path d="M 180.474,181.867 C 181.864,187.739 181.697,187.787 183.315,193.596" stroke-width="5.084" stroke="black" fill="none" stroke-linecap="round"></path><path d="M 183.315,193.596 C 184.717,198.627 185.054,198.531 186.513,203.547" stroke-width="5.417" stroke="black" fill="none" stroke-linecap="round"></path><path d="M 186.513,203.547 C 187.896,208.305 187.821,208.329 188.999,213.143" stroke-width="5.514" stroke="black" fill="none" stroke-linecap="round"></path><path d="M 188.999,213.143 C 189.952,217.037 190.136,217.016 190.775,220.962" stroke-width="5.994" stroke="black" fill="none" stroke-linecap="round"></path><path d="M 190.775,220.962 C 191.201,223.591 191.042,223.625 191.130,226.293" stroke-width="6.567" stroke="black" fill="none" stroke-linecap="round"></path><path d="M 191.130,226.293 C 191.219,228.956 192.462,231.751 191.130,231.624" stroke-width="7.330" stroke="black" fill="none" stroke-linecap="round"></path><path d="M 191.130,231.624 C 188.732,231.396 185.901,229.701 183.671,225.583" stroke-width="7.831" stroke="black" fill="none" stroke-linecap="round"></path><path d="M 183.671,225.583 C 176.665,212.642 177.765,211.685 172.659,197.505" stroke-width="4.500" stroke="black" fill="none" stroke-linecap="round"></path><path d="M 172.659,197.505 C 169.062,187.517 170.162,187.093 166.265,177.247" stroke-width="4.500" stroke="black" fill="none" stroke-linecap="round"></path><path d="M 166.265,177.247 C 163.057,169.145 161.763,169.672 158.450,161.609" stroke-width="4.500" stroke="black" fill="none" stroke-linecap="round"></path><path d="M 158.450,161.609 C 155.191,153.679 155.492,153.519 153.121,145.260" stroke-width="4.500" stroke="black" fill="none" stroke-linecap="round"></path><path d="M 153.121,145.260 C 150.697,136.815 150.755,136.782 148.858,128.201" stroke-width="4.500" stroke="black" fill="none" stroke-linecap="round"></path><path d="M 148.858,128.201 C 147.025,119.901 147.270,119.847 145.661,111.497" stroke-width="4.500" stroke="black" fill="none" stroke-linecap="round"></path><path d="M 145.661,111.497 C 144.428,105.097 143.811,105.158 143.175,98.702" stroke-width="4.801" stroke="black" fill="none" stroke-linecap="round"></path><path d="M 143.175,98.702 C 142.568,92.541 143.175,92.482 143.175,86.263" stroke-width="5.071" stroke="black" fill="none" stroke-linecap="round"></path><path d="M 143.175,86.263 C 143.175,81.642 142.719,81.579 143.175,77.022" stroke-width="5.580" stroke="black" fill="none" stroke-linecap="round"></path><path d="M 143.175,77.022 C 143.430,74.470 143.950,74.551 144.596,72.046" stroke-width="6.382" stroke="black" fill="none" stroke-linecap="round"></path><path d="M 144.596,72.046 C 145.371,69.042 144.060,65.943 146.017,66.004" stroke-width="7.173" stroke="black" fill="none" stroke-linecap="round"></path><path d="M 146.017,66.004 C 149.744,66.121 151.948,68.191 155.963,72.402" stroke-width="7.500" stroke="black" fill="none" stroke-linecap="round"></path><path d="M 155.963,72.402 C 162.960,79.741 162.898,80.234 168.041,89.106" stroke-width="4.715" stroke="black" fill="none" stroke-linecap="round"></path><path d="M 168.041,89.106 C 173.199,98.005 172.067,98.640 176.566,107.942" stroke-width="4.500" stroke="black" fill="none" stroke-linecap="round"></path><path d="M 176.566,107.942 C 180.060,115.166 179.812,115.355 184.026,122.159" stroke-width="4.504" stroke="black" fill="none" stroke-linecap="round"></path><path d="M 184.026,122.159 C 187.627,127.972 188.768,127.296 192.196,133.176" stroke-width="4.828" stroke="black" fill="none" stroke-linecap="round"></path><path d="M 192.196,133.176 C 194.984,137.958 194.327,138.330 196.459,143.483" stroke-width="5.151" stroke="black" fill="none" stroke-linecap="round"></path><path d="M 196.459,143.483 C 198.590,148.637 198.715,148.589 200.722,153.790" stroke-width="5.346" stroke="black" fill="none" stroke-linecap="round"></path><path d="M 200.722,153.790 C 202.622,158.718 202.420,158.795 204.274,163.742" stroke-width="5.487" stroke="black" fill="none" stroke-linecap="round"></path><path d="M 204.274,163.742 C 206.150,168.746 206.263,168.704 208.181,173.693" stroke-width="5.422" stroke="black" fill="none" stroke-linecap="round"></path><path d="M 208.181,173.693 C 209.816,177.944 209.705,177.988 211.378,182.223" stroke-width="5.721" stroke="black" fill="none" stroke-linecap="round"></path><path d="M 211.378,182.223 C 212.724,185.629 212.879,185.568 214.220,188.976" stroke-width="6.030" stroke="black" fill="none" stroke-linecap="round"></path><path d="M 214.220,188.976 C 215.188,191.433 215.466,191.389 215.996,193.951" stroke-width="6.592" stroke="black" fill="none" stroke-linecap="round"></path><path d="M 215.996,193.951 C 216.532,196.542 217.615,197.316 216.352,199.282" stroke-width="7.599" stroke="black" fill="none" stroke-linecap="round"></path><path d="M 216.352,199.282 C 214.418,202.292 213.339,203.368 209.602,203.903" stroke-width="7.693" stroke="black" fill="none" stroke-linecap="round"></path><path d="M 209.602,203.903 C 204.636,204.612 204.256,202.916 198.945,201.770" stroke-width="7.023" stroke="black" fill="none" stroke-linecap="round"></path><path d="M 198.945,201.770 C 195.198,200.962 195.237,200.779 191.486,199.993" stroke-width="6.428" stroke="black" fill="none" stroke-linecap="round"></path><path d="M 191.486,199.993 C 187.600,199.179 187.575,199.298 183.671,198.572" stroke-width="6.219" stroke="black" fill="none" stroke-linecap="round"></path><path d="M 183.671,198.572 C 179.938,197.877 179.973,197.588 176.211,197.150" stroke-width="6.220" stroke="black" fill="none" stroke-linecap="round"></path><path d="M 176.211,197.150 C 172.335,196.699 172.305,196.897 168.396,196.794" stroke-width="6.181" stroke="black" fill="none" stroke-linecap="round"></path><path d="M 168.396,196.794 C 165.556,196.720 165.527,196.522 162.712,196.794" stroke-width="6.496" stroke="black" fill="none" stroke-linecap="round"></path><path d="M 162.712,196.794 C 160.021,197.055 156.626,199.485 157.384,197.861" stroke-width="7.312" stroke="black" fill="none" stroke-linecap="round"></path><path d="M 157.384,197.861 C 160.356,191.488 163.233,188.851 170.172,180.801" stroke-width="6.966" stroke="black" fill="none" stroke-linecap="round"></path><path d="M 170.172,180.801 C 175.488,174.635 175.875,174.942 181.895,169.428" stroke-width="5.113" stroke="black" fill="none" stroke-linecap="round"></path><path d="M 181.895,169.428 C 188.485,163.391 188.614,163.529 195.393,157.700" stroke-width="4.582" stroke="black" fill="none" stroke-linecap="round"></path><path d="M 195.393,157.700 C 199.981,153.755 199.854,153.586 204.629,149.881" stroke-width="5.035" stroke="black" fill="none" stroke-linecap="round"></path><path d="M 204.629,149.881 C 208.557,146.833 208.821,147.179 212.799,144.194" stroke-width="5.383" stroke="black" fill="none" stroke-linecap="round"></path><path d="M 212.799,144.194 C 215.926,141.848 215.869,141.765 218.838,139.218" stroke-width="5.907" stroke="black" fill="none" stroke-linecap="round"></path><path d="M 218.838,139.218 C 220.842,137.500 220.759,137.404 222.746,135.664" stroke-width="6.483" stroke="black" fill="none" stroke-linecap="round"></path><path d="M 222.746,135.664 C 225.022,133.672 225.317,133.960 227.364,131.755" stroke-width="7.230" stroke="black" fill="none" stroke-linecap="round"></path><path d="M 227.364,131.755 C 229.935,128.984 229.086,127.995 231.982,125.713" stroke-width="8.365" stroke="black" fill="none" stroke-linecap="round"></path><path d="M 231.982,125.713 C 234.948,123.375 235.540,124.127 239.086,122.514" stroke-width="7.606" stroke="black" fill="none" stroke-linecap="round"></path><path d="M 239.086,122.514 C 241.401,121.461 241.336,121.299 243.704,120.382" stroke-width="7.118" stroke="black" fill="none" stroke-linecap="round"></path><path d="M 243.704,120.382 C 246.842,119.166 246.884,119.260 250.098,118.249" stroke-width="6.549" stroke="black" fill="none" stroke-linecap="round"></path><path d="M 250.098,118.249 C 253.100,117.305 253.114,117.350 256.137,116.472" stroke-width="6.562" stroke="black" fill="none" stroke-linecap="round"></path><path d="M 256.137,116.472 C 258.620,115.751 258.584,115.573 261.110,115.051" stroke-width="6.728" stroke="black" fill="none" stroke-linecap="round"></path><path d="M 261.110,115.051 C 263.735,114.507 263.764,114.340 266.438,114.340" stroke-width="6.868" stroke="black" fill="none" stroke-linecap="round"></path><path d="M 266.438,114.340 C 271.047,114.340 271.326,113.837 275.674,115.051" stroke-width="6.946" stroke="black" fill="none" stroke-linecap="round"></path><path d="M 275.674,115.051 C 278.964,115.969 279.263,116.244 281.713,118.605" stroke-width="7.274" stroke="black" fill="none" stroke-linecap="round"></path><path d="M 281.713,118.605 C 284.058,120.864 284.209,121.217 285.266,124.291" stroke-width="7.417" stroke="black" fill="none" stroke-linecap="round"></path><path d="M 285.266,124.291 C 286.163,126.904 286.612,127.500 285.621,129.978" stroke-width="7.619" stroke="black" fill="none" stroke-linecap="round"></path><path d="M 285.621,129.978 C 284.125,133.719 283.454,134.003 280.292,136.731" stroke-width="7.276" stroke="black" fill="none" stroke-linecap="round"></path><path d="M 280.292,136.731 C 278.303,138.446 277.879,138.009 275.319,138.863" stroke-width="7.023" stroke="black" fill="none" stroke-linecap="round"></path><path d="M 275.319,138.863 C 272.018,139.964 271.989,139.993 268.570,140.640" stroke-width="6.561" stroke="black" fill="none" stroke-linecap="round"></path><path d="M 268.570,140.640 C 265.418,141.237 265.382,141.167 262.176,141.351" stroke-width="6.461" stroke="black" fill="none" stroke-linecap="round"></path><path d="M 262.176,141.351 C 259.166,141.523 259.156,141.351 256.137,141.351" stroke-width="6.586" stroke="black" fill="none" stroke-linecap="round"></path><path d="M 256.137,141.351 C 253.295,141.351 253.295,141.351 250.453,141.351" stroke-width="6.696" stroke="black" fill="none" stroke-linecap="round"></path><path d="M 250.453,141.351 C 247.256,141.351 247.256,141.351 244.059,141.351" stroke-width="6.508" stroke="black" fill="none" stroke-linecap="round"></path><path d="M 244.059,141.351 C 241.395,141.351 241.395,141.351 238.731,141.351" stroke-width="6.677" stroke="black" fill="none" stroke-linecap="round"></path><path d="M 238.731,141.351 C 234.468,141.351 234.468,141.351 230.205,141.351" stroke-width="7.032" stroke="black" fill="none" stroke-linecap="round"></path><path d="M 230.205,141.351 C 227.008,141.351 227.008,141.351 223.811,141.351" stroke-width="7.379" stroke="black" fill="none" stroke-linecap="round"></path><path d="M 223.811,141.351 C 221.147,141.351 221.147,141.351 218.483,141.351" stroke-width="7.634" stroke="black" fill="none" stroke-linecap="round"></path><path d="M 218.483,141.351 C 215.286,141.351 215.274,141.163 212.089,141.351" stroke-width="7.885" stroke="black" fill="none" stroke-linecap="round"></path><path d="M 212.089,141.351 C 209.235,141.519 209.258,141.878 206.405,142.062" stroke-width="8.158" stroke="black" fill="none" stroke-linecap="round"></path><path d="M 206.405,142.062 C 203.752,142.233 203.738,142.148 201.077,142.062" stroke-width="8.369" stroke="black" fill="none" stroke-linecap="round"></path><path d="M 201.077,142.062 C 198.232,141.970 198.224,141.612 195.393,141.706" stroke-width="8.550" stroke="black" fill="none" stroke-linecap="round"></path><path d="M 195.393,141.706 C 192.896,141.790 192.787,141.651 190.420,142.417" stroke-width="8.606" stroke="black" fill="none" stroke-linecap="round"></path><path d="M 190.420,142.417 C 186.748,143.606 186.796,143.875 183.315,145.616" stroke-width="8.218" stroke="black" fill="none" stroke-linecap="round"></path><path d="M 183.315,145.616 C 180.757,146.896 180.269,146.418 178.342,148.459" stroke-width="7.826" stroke="black" fill="none" stroke-linecap="round"></path><path d="M 178.342,148.459 C 174.230,152.815 173.617,153.000 171.238,158.410" stroke-width="6.940" stroke="black" fill="none" stroke-linecap="round"></path><path d="M 171.238,158.410 C 169.710,161.885 170.430,162.337 170.527,166.229" stroke-width="6.373" stroke="black" fill="none" stroke-linecap="round"></path><path d="M 170.527,166.229 C 170.608,169.445 170.872,169.471 171.593,172.627" stroke-width="6.471" stroke="black" fill="none" stroke-linecap="round"></path><path d="M 171.593,172.627 C 172.293,175.691 172.206,175.761 173.369,178.669" stroke-width="6.538" stroke="black" fill="none" stroke-linecap="round"></path><path d="M 173.369,178.669 C 174.338,181.092 174.475,181.063 175.856,183.289" stroke-width="6.704" stroke="black" fill="none" stroke-linecap="round"></path><path d="M 175.856,183.289 C 177.672,186.216 177.372,186.583 179.763,188.976" stroke-width="7.205" stroke="black" fill="none" stroke-linecap="round"></path><path d="M 179.763,188.976 C 181.812,191.026 182.030,191.542 184.736,192.174" stroke-width="7.499" stroke="black" fill="none" stroke-linecap="round"></path><path d="M 184.736,192.174 C 187.358,192.786 188.018,192.665 190.420,191.463" stroke-width="7.893" stroke="black" fill="none" stroke-linecap="round"></path><path d="M 190.420,191.463 C 192.636,190.355 192.756,189.814 193.972,187.554" stroke-width="8.064" stroke="black" fill="none" stroke-linecap="round"></path></svg>