<svg xmlns="http://www.w3.org/2000/svg" xmlns:xlink="http://www.w3.org/1999/xlink" viewBox="0 0 576 416" width="576" height="416"><path d="M 107.770,229.122 C 110.567,218.330 109.456,217.886 113.363,207.538" stroke-width="7.190" stroke="black" fill="none" stroke-linecap="round"></path><path d="M 113.363,207.538 C 116.248,199.900 116.603,199.846 121.353,193.149" stroke-width="5.012" stroke="black" fill="none" stroke-linecap="round"></path><path d="M 121.353,193.149 C 134.181,175.065 133.531,174.283 148.519,157.975" stroke-width="4.500" stroke="black" fill="none" stroke-linecap="round"></path><path d="M 148.519,157.975 C 165.491,139.509 165.399,138.909 185.273,123.601" stroke-width="4.500" stroke="black" fill="none" stroke-linecap="round"></path><path d="M 185.273,123.601 C 215.736,100.138 216.117,100.034 249.194,80.433" stroke-width="4.500" stroke="black" fill="none" stroke-linecap="round"></path><path d="M 249.194,80.433 C 268.053,69.257 268.880,70.494 289.144,62.047" stroke-width="4.500" stroke="black" fill="none" stroke-linecap="round"></path><path d="M 289.144,62.047 C 297.644,58.503 297.639,56.796 306.722,56.451" stroke-width="4.500" stroke="black" fill="none" stroke-linecap="round"></path><path d="M 306.722,56.451 C 329.200,55.597 330.702,55.399 352.265,59.649" stroke-width="4.500" stroke="black" fill="none" stroke-linecap="round"></path><path d="M 352.265,59.649 C 357.069,60.595 357.000,62.508 359.456,66.843" stroke-width="4.500" stroke="black" fill="none" stroke-linecap="round"></path><path d="M 359.456,66.843 C 363.792,74.499 364.995,74.926 365.848,83.631" stroke-width="4.500" stroke="black" fill="none" stroke-linecap="round"></path><path d="M 365.848,83.631 C 366.992,95.310 367.596,96.474 363.451,107.613" stroke-width="4.500" stroke="black" fill="none" stroke-linecap="round"></path><path d="M 363.451,107.613 C 353.613,134.046 354.526,135.949 337.883,158.775" stroke-width="4.500" stroke="black" fill="none" stroke-linecap="round"></path><path d="M 337.883,158.775 C 318.970,184.712 316.370,183.334 292.340,205.140" stroke-width="4.500" stroke="black" fill="none" stroke-linecap="round"></path><path d="M 292.340,205.140 C 264.834,230.099 263.630,228.789 234.811,252.305" stroke-width="4.500" stroke="black" fill="none" stroke-linecap="round"></path><path d="M 234.811,252.305 C 207.300,274.754 207.548,275.071 179.680,297.071" stroke-width="4.500" stroke="black" fill="none" stroke-linecap="round"></path><path d="M 179.680,297.071 C 156.412,315.441 156.561,315.687 132.539,333.045" stroke-width="4.500" stroke="black" fill="none" stroke-linecap="round"></path><path d="M 132.539,333.045 C 113.415,346.864 113.745,347.622 93.388,359.425" stroke-width="4.500" stroke="black" fill="none" stroke-linecap="round"></path><path d="M 93.388,359.425 C 78.589,368.006 78.389,369.266 62.227,373.814" stroke-width="4.500" stroke="black" fill="none" stroke-linecap="round"></path><path d="M 62.227,373.814 C 52.821,376.461 49.143,378.039 42.252,373.814" stroke-width="4.500" stroke="black" fill="none" stroke-linecap="round"></path><path d="M 42.252,373.814 C 36.758,370.445 38.224,366.445 37.458,358.625" stroke-width="5.017" stroke="black" fill="none" stroke-linecap="round"></path><path d="M 37.458,358.625 C 36.227,346.060 36.310,345.634 38.257,333.045" stroke-width="4.500" stroke="black" fill="none" stroke-linecap="round"></path><path d="M 38.257,333.045 C 41.503,312.059 41.196,311.641 47.845,291.476" stroke-width="4.500" stroke="black" fill="none" stroke-linecap="round"></path><path d="M 47.845,291.476 C 53.980,272.869 54.480,272.749 63.825,255.502" stroke-width="4.500" stroke="black" fill="none" stroke-linecap="round"></path><path d="M 63.825,255.502 C 72.457,239.573 72.106,238.812 83.800,225.125" stroke-width="4.500" stroke="black" fill="none" stroke-linecap="round"></path><path d="M 83.800,225.125 C 93.280,214.030 93.697,213.256 106.172,205.939" stroke-width="4.500" stroke="black" fill="none" stroke-linecap="round"></path><path d="M 106.172,205.939 C 116.868,199.666 117.976,198.534 130.142,197.945" stroke-width="4.500" stroke="black" fill="none" stroke-linecap="round"></path><path d="M 130.142,197.945 C 142.745,197.335 144.181,198.067 155.710,203.541" stroke-width="4.500" stroke="black" fill="none" stroke-linecap="round"></path><path d="M 155.710,203.541 C 167.752,209.259 168.273,210.274 177.283,220.329" stroke-width="4.500" stroke="black" fill="none" stroke-linecap="round"></path><path d="M 177.283,220.329 C 189.048,233.457 189.272,234.155 197.258,249.907" stroke-width="4.500" stroke="black" fill="none" stroke-linecap="round"></path><path d="M 197.258,249.907 C 203.255,261.734 203.287,262.485 205.248,275.488" stroke-width="4.500" stroke="black" fill="none" stroke-linecap="round"></path><path d="M 205.248,275.488 C 206.483,283.669 206.023,284.440 203.650,292.275" stroke-width="4.500" stroke="black" fill="none" stroke-linecap="round"></path><path d="M 203.650,292.275 C 202.028,297.631 201.204,297.920 197.258,301.868" stroke-width="4.904" stroke="black" fill="none" stroke-linecap="round"></path><path d="M 197.258,301.868 C 194.812,304.315 192.445,307.171 190.866,305.066" stroke-width="5.826" stroke="black" fill="none" stroke-linecap="round"></path><path d="M 190.866,305.066 C 186.453,299.177 186.784,295.704 185.273,285.880" stroke-width="5.715" stroke="black" fill="none" stroke-linecap="round"></path><path d="M 185.273,285.880 C 182.789,269.724 183.067,269.506 182.876,253.104" stroke-width="4.500" stroke="black" fill="none" stroke-linecap="round"></path><path d="M 182.876,253.104 C 182.668,235.132 182.908,235.046 184.474,217.131" stroke-width="4.500" stroke="black" fill="none" stroke-linecap="round"></path><path d="M 184.474,217.131 C 185.704,203.070 185.242,202.813 188.469,189.152" stroke-width="4.500" stroke="black" fill="none" stroke-linecap="round"></path><path d="M 188.469,189.152 C 190.436,180.829 190.132,179.887 194.861,173.164" stroke-width="4.500" stroke="black" fill="none" stroke-linecap="round"></path><path d="M 194.861,173.164 C 197.723,169.095 199.541,166.242 203.650,167.568" stroke-width="4.998" stroke="black" fill="none" stroke-linecap="round"></path><path d="M 203.650,167.568 C 211.925,170.239 212.690,173.420 219.630,181.158" stroke-width="5.382" stroke="black" fill="none" stroke-linecap="round"></path><path d="M 219.630,181.158 C 226.672,189.008 226.049,189.695 231.615,198.745" stroke-width="4.500" stroke="black" fill="none" stroke-linecap="round"></path><path d="M 231.615,198.745 C 235.637,205.283 235.261,205.514 238.806,212.335" stroke-width="4.542" stroke="black" fill="none" stroke-linecap="round"></path><path d="M 238.806,212.335 C 240.455,215.506 241.706,219.769 242.003,218.730" stroke-width="5.665" stroke="black" fill="none" stroke-linecap="round"></path><path d="M 242.003,218.730 C 242.505,216.971 241.277,212.724 240.405,206.739" stroke-width="6.703" stroke="black" fill="none" stroke-linecap="round"></path><path d="M 240.405,206.739 C 238.480,193.538 237.881,193.606 236.410,180.359" stroke-width="4.500" stroke="black" fill="none" stroke-linecap="round"></path><path d="M 236.410,180.359 C 235.084,168.425 235.345,168.376 234.811,156.376" stroke-width="4.500" stroke="black" fill="none" stroke-linecap="round"></path><path d="M 234.811,156.376 C 234.546,150.390 233.034,149.466 234.811,144.385" stroke-width="4.740" stroke="black" fill="none" stroke-linecap="round"></path><path d="M 234.811,144.385 C 235.831,141.472 237.741,139.889 240.405,140.388" stroke-width="5.796" stroke="black" fill="none" stroke-linecap="round"></path><path d="M 240.405,140.388 C 244.133,141.088 244.442,143.165 247.596,146.784" stroke-width="5.762" stroke="black" fill="none" stroke-linecap="round"></path><path d="M 247.596,146.784 C 258.025,158.753 258.067,158.816 267.571,171.565" stroke-width="4.500" stroke="black" fill="none" stroke-linecap="round"></path><path d="M 267.571,171.565 C 275.645,182.398 274.874,182.971 282.752,193.948" stroke-width="4.500" stroke="black" fill="none" stroke-linecap="round"></path><path d="M 282.752,193.948 C 286.060,198.559 288.953,204.226 289.943,202.742" stroke-width="4.679" stroke="black" fill="none" stroke-linecap="round"></path><path d="M 289.943,202.742 C 291.350,200.629 289.255,194.646 287.546,186.754" stroke-width="5.987" stroke="black" fill="none" stroke-linecap="round"></path><path d="M 287.546,186.754 C 284.061,170.664 283.340,170.815 279.556,154.778" stroke-width="4.500" stroke="black" fill="none" stroke-linecap="round"></path><path d="M 279.556,154.778 C 276.549,142.036 276.474,142.039 273.963,129.197" stroke-width="4.500" stroke="black" fill="none" stroke-linecap="round"></path><path d="M 273.963,129.197 C 272.878,123.652 269.980,118.164 272.365,118.005" stroke-width="4.720" stroke="black" fill="none" stroke-linecap="round"></path><path d="M 272.365,118.005 C 275.972,117.764 280.126,122.240 285.948,128.397" stroke-width="5.505" stroke="black" fill="none" stroke-linecap="round"></path><path d="M 285.948,128.397 C 294.109,137.029 292.790,138.280 300.330,147.583" stroke-width="4.500" stroke="black" fill="none" stroke-linecap="round"></path><path d="M 300.330,147.583 C 304.775,153.069 307.781,159.578 309.918,157.975" stroke-width="4.650" stroke="black" fill="none" stroke-linecap="round"></path><path d="M 309.918,157.975 C 312.575,155.981 311.208,149.040 309.918,140.388" stroke-width="5.931" stroke="black" fill="none" stroke-linecap="round"></path><path d="M 309.918,140.388 C 307.213,122.260 306.159,122.345 301.928,104.415" stroke-width="4.500" stroke="black" fill="none" stroke-linecap="round"></path><path d="M 301.928,104.415 C 299.367,93.566 299.170,93.613 296.335,82.831" stroke-width="4.500" stroke="black" fill="none" stroke-linecap="round"></path><path d="M 296.335,82.831 C 295.175,78.424 295.589,73.854 293.938,74.038" stroke-width="4.949" stroke="black" fill="none" stroke-linecap="round"></path><path d="M 293.938,74.038 C 291.994,74.254 291.189,78.685 289.144,83.631" stroke-width="6.462" stroke="black" fill="none" stroke-linecap="round"></path><path d="M 289.144,83.631 C 286.395,90.276 286.496,90.348 284.350,97.221" stroke-width="5.259" stroke="black" fill="none" stroke-linecap="round"></path><path d="M 284.350,97.221 C 282.501,103.139 282.547,103.170 281.154,109.212" stroke-width="5.219" stroke="black" fill="none" stroke-linecap="round"></path><path d="M 281.154,109.212 C 280.150,113.563 278.821,114.087 279.556,118.005" stroke-width="5.677" stroke="black" fill="none" stroke-linecap="round"></path><path d="M 279.556,118.005 C 280.020,120.482 281.054,121.561 283.551,122.002" stroke-width="6.391" stroke="black" fill="none" stroke-linecap="round"></path><path d="M 283.551,122.002 C 287.845,122.760 288.433,121.602 293.139,120.403" stroke-width="5.998" stroke="black" fill="none" stroke-linecap="round"></path><path d="M 293.139,120.403 C 310.406,116.006 310.306,115.567 327.496,110.810" stroke-width="4.500" stroke="black" fill="none" stroke-linecap="round"></path><path d="M 327.496,110.810 C 347.859,105.175 347.800,104.946 368.245,99.619" stroke-width="4.500" stroke="black" fill="none" stroke-linecap="round"></path><path d="M 368.245,99.619 C 386.152,94.953 386.108,94.672 404.200,90.825" stroke-width="4.500" stroke="black" fill="none" stroke-linecap="round"></path><path d="M 404.200,90.825 C 418.068,87.877 418.138,88.108 432.165,86.029" stroke-width="4.500" stroke="black" fill="none" stroke-linecap="round"></path><path d="M 432.165,86.029 C 439.711,84.910 449.395,80.870 447.346,84.430" stroke-width="4.500" stroke="black" fill="none" stroke-linecap="round"></path><path d="M 447.346,84.430 C 441.804,94.060 433.006,99.432 416.984,112.409" stroke-width="4.714" stroke="black" fill="none" stroke-linecap="round"></path><path d="M 416.984,112.409 C 391.058,133.407 390.121,132.267 363.451,152.379" stroke-width="4.500" stroke="black" fill="none" stroke-linecap="round"></path><path d="M 363.451,152.379 C 336.588,172.637 336.757,172.860 309.918,193.149" stroke-width="4.500" stroke="black" fill="none" stroke-linecap="round"></path><path d="M 309.918,193.149 C 282.824,213.630 283.181,214.135 255.586,233.919" stroke-width="4.500" stroke="black" fill="none" stroke-linecap="round"></path><path d="M 255.586,233.919 C 232.444,250.508 232.653,250.971 208.444,265.895" stroke-width="4.500" stroke="black" fill="none" stroke-linecap="round"></path><path d="M 208.444,265.895 C 193.102,275.353 193.047,276.397 176.484,282.682" stroke-width="4.500" stroke="black" fill="none" stroke-linecap="round"></path><path d="M 176.484,282.682 C 169.876,285.190 165.897,286.878 162.102,283.482" stroke-width="4.500" stroke="black" fill="none" stroke-linecap="round"></path><path d="M 162.102,283.482 C 158.306,280.083 160.403,276.202 161.303,269.092" stroke-width="5.284" stroke="black" fill="none" stroke-linecap="round"></path><path d="M 161.303,269.092 C 163.998,247.823 163.885,247.536 169.293,226.724" stroke-width="4.500" stroke="black" fill="none" stroke-linecap="round"></path><path d="M 169.293,226.724 C 174.272,207.566 174.347,207.351 182.077,189.152" stroke-width="4.500" stroke="black" fill="none" stroke-linecap="round"></path><path d="M 182.077,189.152 C 187.930,175.374 187.745,174.790 196.459,162.772" stroke-width="4.500" stroke="black" fill="none" stroke-linecap="round"></path><path d="M 196.459,162.772 C 202.526,154.405 202.757,152.718 211.640,148.382" stroke-width="4.500" stroke="black" fill="none" stroke-linecap="round"></path><path d="M 211.640,148.382 C 219.137,144.724 220.838,145.586 229.218,146.784" stroke-width="4.500" stroke="black" fill="none" stroke-linecap="round"></path><path d="M 229.218,146.784 C 234.820,147.584 235.215,148.522 239.605,152.379" stroke-width="4.910" stroke="black" fill="none" stroke-linecap="round"></path><path d="M 239.605,152.379 C 251.594,162.912 251.438,163.436 261.978,175.562" stroke-width="4.500" stroke="black" fill="none" stroke-linecap="round"></path><path d="M 261.978,175.562 C 267.418,181.822 267.144,182.114 271.566,189.152" stroke-width="4.500" stroke="black" fill="none" stroke-linecap="round"></path><path d="M 271.566,189.152 C 284.722,210.093 284.840,210.062 297.134,231.520" stroke-width="4.500" stroke="black" fill="none" stroke-linecap="round"></path><path d="M 297.134,231.520 C 303.617,242.837 303.056,243.149 309.119,254.703" stroke-width="4.500" stroke="black" fill="none" stroke-linecap="round"></path><path d="M 309.119,254.703 C 311.445,259.137 311.516,259.100 313.913,263.496" stroke-width="4.572" stroke="black" fill="none" stroke-linecap="round"></path><circle r="3" cx="199.65548706054688" cy="60.448028564453125" fill="black"></circle></svg>