<svg xmlns="http://www.w3.org/2000/svg" xmlns:xlink="http://www.w3.org/1999/xlink" viewBox="0 0 576 416" width="576" height="416"><path d="M 46.247,185.555 C 48.644,181.558 48.749,181.618 51.041,177.561" stroke-width="8.525" stroke="black" fill="none" stroke-linecap="round"></path><path d="M 51.041,177.561 C 53.943,172.425 53.602,172.225 56.634,167.169" stroke-width="5.989" stroke="black" fill="none" stroke-linecap="round"></path><path d="M 56.634,167.169 C 60.793,160.234 61.264,160.515 65.423,153.579" stroke-width="4.953" stroke="black" fill="none" stroke-linecap="round"></path><path d="M 65.423,153.579 C 69.653,146.525 69.418,146.384 73.413,139.190" stroke-width="4.680" stroke="black" fill="none" stroke-linecap="round"></path><path d="M 73.413,139.190 C 75.411,135.592 75.220,135.477 77.408,131.995" stroke-width="5.570" stroke="black" fill="none" stroke-linecap="round"></path><path d="M 77.408,131.995 C 84.009,121.488 84.281,121.654 90.991,111.210" stroke-width="4.500" stroke="black" fill="none" stroke-linecap="round"></path><path d="M 90.991,111.210 C 95.067,104.867 95.070,104.866 98.981,98.420" stroke-width="4.538" stroke="black" fill="none" stroke-linecap="round"></path><path d="M 98.981,98.420 C 101.861,93.674 101.452,93.392 104.574,88.827" stroke-width="5.136" stroke="black" fill="none" stroke-linecap="round"></path><path d="M 104.574,88.827 C 106.646,85.798 106.529,85.463 109.368,83.231" stroke-width="5.886" stroke="black" fill="none" stroke-linecap="round"></path><path d="M 109.368,83.231 C 112.122,81.066 113.894,78.913 115.760,80.034" stroke-width="6.892" stroke="black" fill="none" stroke-linecap="round"></path><path d="M 115.760,80.034 C 117.889,81.312 116.739,84.002 117.358,88.028" stroke-width="7.145" stroke="black" fill="none" stroke-linecap="round"></path><path d="M 117.358,88.028 C 118.337,94.394 118.001,94.446 118.956,100.818" stroke-width="5.595" stroke="black" fill="none" stroke-linecap="round"></path><path d="M 118.956,100.818 C 120.398,110.434 120.674,110.392 122.152,120.004" stroke-width="4.537" stroke="black" fill="none" stroke-linecap="round"></path><path d="M 122.152,120.004 C 123.870,131.177 123.245,131.290 125.348,142.387" stroke-width="4.500" stroke="black" fill="none" stroke-linecap="round"></path><path d="M 125.348,142.387 C 127.639,154.473 127.867,154.450 130.941,166.369" stroke-width="4.500" stroke="black" fill="none" stroke-linecap="round"></path><path d="M 130.941,166.369 C 134.259,179.231 134.484,179.175 138.132,191.950" stroke-width="4.500" stroke="black" fill="none" stroke-linecap="round"></path><path d="M 138.132,191.950 C 141.675,204.356 141.561,204.392 145.323,216.732" stroke-width="4.500" stroke="black" fill="none" stroke-linecap="round"></path><path d="M 145.323,216.732 C 148.752,227.974 149.372,227.798 152.514,239.115" stroke-width="4.500" stroke="black" fill="none" stroke-linecap="round"></path><path d="M 152.514,239.115 C 155.365,249.382 155.018,249.484 157.308,259.899" stroke-width="4.500" stroke="black" fill="none" stroke-linecap="round"></path><path d="M 157.308,259.899 C 159.413,269.469 159.732,269.426 161.303,279.085" stroke-width="4.500" stroke="black" fill="none" stroke-linecap="round"></path><path d="M 161.303,279.085 C 162.528,286.613 162.268,286.666 162.901,294.274" stroke-width="4.607" stroke="black" fill="none" stroke-linecap="round"></path><path d="M 162.901,294.274 C 163.466,301.055 163.232,301.074 163.700,307.864" stroke-width="4.783" stroke="black" fill="none" stroke-linecap="round"></path><path d="M 163.700,307.864 C 164.031,312.665 164.247,312.654 164.499,317.457" stroke-width="5.419" stroke="black" fill="none" stroke-linecap="round"></path><path d="M 164.499,317.457 C 164.646,320.248 164.674,323.401 164.499,323.052" stroke-width="6.300" stroke="black" fill="none" stroke-linecap="round"></path><path d="M 164.499,323.052 C 164.274,322.601 164.100,319.455 163.700,315.858" stroke-width="7.638" stroke="black" fill="none" stroke-linecap="round"></path><path d="M 163.700,315.858 C 163.301,312.260 163.301,312.260 162.901,308.663" stroke-width="6.659" stroke="black" fill="none" stroke-linecap="round"></path><path d="M 162.901,308.663 C 162.502,305.066 162.551,305.060 162.102,301.468" stroke-width="6.412" stroke="black" fill="none" stroke-linecap="round"></path><path d="M 162.102,301.468 C 161.752,298.664 161.469,298.687 161.303,295.873" stroke-width="6.648" stroke="black" fill="none" stroke-linecap="round"></path><path d="M 161.303,295.873 C 161.069,291.892 159.003,289.029 161.303,287.879" stroke-width="7.083" stroke="black" fill="none" stroke-linecap="round"></path><path d="M 161.303,287.879 C 164.596,286.232 167.069,288.534 172.489,290.277" stroke-width="7.268" stroke="black" fill="none" stroke-linecap="round"></path><path d="M 172.489,290.277 C 178.256,292.131 178.153,292.523 183.675,295.073" stroke-width="5.723" stroke="black" fill="none" stroke-linecap="round"></path><path d="M 183.675,295.073 C 188.540,297.319 188.572,297.288 193.263,299.870" stroke-width="5.579" stroke="black" fill="none" stroke-linecap="round"></path><path d="M 193.263,299.870 C 196.562,301.685 196.307,302.192 199.655,303.867" stroke-width="6.023" stroke="black" fill="none" stroke-linecap="round"></path><path d="M 199.655,303.867 C 201.900,304.990 202.070,305.636 204.449,305.466" stroke-width="6.635" stroke="black" fill="none" stroke-linecap="round"></path><path d="M 204.449,305.466 C 207.663,305.236 208.645,305.265 210.841,303.067" stroke-width="7.215" stroke="black" fill="none" stroke-linecap="round"></path><path d="M 210.841,303.067 C 213.039,300.869 212.364,299.953 213.238,296.672" stroke-width="7.408" stroke="black" fill="none" stroke-linecap="round"></path><path d="M 213.238,296.672 C 213.962,293.957 213.881,293.891 214.037,291.076" stroke-width="6.938" stroke="black" fill="none" stroke-linecap="round"></path><path d="M 214.037,291.076 C 214.281,286.697 213.838,286.670 214.037,282.283" stroke-width="6.202" stroke="black" fill="none" stroke-linecap="round"></path><path d="M 214.037,282.283 C 214.238,277.877 214.627,277.895 214.836,273.489" stroke-width="6.004" stroke="black" fill="none" stroke-linecap="round"></path><path d="M 214.836,273.489 C 215.026,269.501 214.836,269.492 214.836,265.495" stroke-width="6.086" stroke="black" fill="none" stroke-linecap="round"></path><path d="M 214.836,265.495 C 214.836,261.898 214.836,261.898 214.836,258.301" stroke-width="6.250" stroke="black" fill="none" stroke-linecap="round"></path><path d="M 214.836,258.301 C 214.836,255.503 214.445,255.448 214.836,252.705" stroke-width="6.606" stroke="black" fill="none" stroke-linecap="round"></path><path d="M 214.836,252.705 C 215.244,249.852 214.677,247.891 216.434,247.109" stroke-width="7.326" stroke="black" fill="none" stroke-linecap="round"></path><path d="M 216.434,247.109 C 218.272,246.292 219.637,247.685 222.027,249.507" stroke-width="7.823" stroke="black" fill="none" stroke-linecap="round"></path><path d="M 222.027,249.507 C 228.026,254.080 227.413,254.966 233.214,259.899" stroke-width="6.574" stroke="black" fill="none" stroke-linecap="round"></path><path d="M 233.214,259.899 C 235.403,261.761 235.453,261.819 238.008,263.097" stroke-width="6.677" stroke="black" fill="none" stroke-linecap="round"></path><path d="M 238.008,263.097 C 240.247,264.218 240.519,265.047 242.802,264.696" stroke-width="6.857" stroke="black" fill="none" stroke-linecap="round"></path><path d="M 242.802,264.696 C 245.712,264.248 246.692,263.840 248.395,261.498" stroke-width="7.339" stroke="black" fill="none" stroke-linecap="round"></path><path d="M 248.395,261.498 C 249.888,259.443 248.470,258.618 249.194,255.902" stroke-width="6.920" stroke="black" fill="none" stroke-linecap="round"></path><path d="M 249.194,255.902 C 250.068,252.622 250.323,252.677 251.591,249.507" stroke-width="6.563" stroke="black" fill="none" stroke-linecap="round"></path><path d="M 251.591,249.507 C 252.720,246.682 252.487,246.539 253.988,243.911" stroke-width="6.607" stroke="black" fill="none" stroke-linecap="round"></path><path d="M 253.988,243.911 C 255.683,240.943 255.592,240.708 257.983,238.316" stroke-width="6.467" stroke="black" fill="none" stroke-linecap="round"></path><path d="M 257.983,238.316 C 259.986,236.311 260.222,236.396 262.777,235.118" stroke-width="6.643" stroke="black" fill="none" stroke-linecap="round"></path><path d="M 262.777,235.118 C 265.016,233.997 265.118,234.085 267.571,233.519" stroke-width="6.847" stroke="black" fill="none" stroke-linecap="round"></path><path d="M 267.571,233.519 C 270.312,232.886 270.397,232.535 273.164,232.720" stroke-width="6.782" stroke="black" fill="none" stroke-linecap="round"></path><path d="M 273.164,232.720 C 276.390,232.935 276.390,233.414 279.556,234.319" stroke-width="7.295" stroke="black" fill="none" stroke-linecap="round"></path><path d="M 279.556,234.319 C 281.983,235.013 282.033,236.249 284.350,235.917" stroke-width="7.665" stroke="black" fill="none" stroke-linecap="round"></path><path d="M 284.350,235.917 C 287.626,235.449 287.872,234.771 290.742,232.720" stroke-width="7.994" stroke="black" fill="none" stroke-linecap="round"></path><path d="M 290.742,232.720 C 293.465,230.774 292.748,229.716 295.536,227.923" stroke-width="7.644" stroke="black" fill="none" stroke-linecap="round"></path><path d="M 295.536,227.923 C 298.341,226.119 298.639,225.936 301.928,225.525" stroke-width="7.565" stroke="black" fill="none" stroke-linecap="round"></path><path d="M 301.928,225.525 C 305.031,225.137 305.139,225.822 308.320,226.324" stroke-width="6.723" stroke="black" fill="none" stroke-linecap="round"></path><path d="M 308.320,226.324 C 312.730,227.021 312.730,227.047 317.109,227.923" stroke-width="6.125" stroke="black" fill="none" stroke-linecap="round"></path><path d="M 317.109,227.923 C 320.720,228.646 320.715,228.678 324.300,229.522" stroke-width="6.232" stroke="black" fill="none" stroke-linecap="round"></path><path d="M 324.300,229.522 C 327.506,230.277 327.509,231.121 330.692,231.121" stroke-width="6.408" stroke="black" fill="none" stroke-linecap="round"></path><path d="M 330.692,231.121 C 333.501,231.121 334.200,231.229 336.285,229.522" stroke-width="7.251" stroke="black" fill="none" stroke-linecap="round"></path><path d="M 336.285,229.522 C 338.594,227.632 338.043,226.804 339.481,223.926" stroke-width="7.469" stroke="black" fill="none" stroke-linecap="round"></path><path d="M 339.481,223.926 C 340.839,221.208 340.070,220.681 341.878,218.331" stroke-width="7.583" stroke="black" fill="none" stroke-linecap="round"></path><path d="M 341.878,218.331 C 344.065,215.485 344.236,214.748 347.471,213.534" stroke-width="7.452" stroke="black" fill="none" stroke-linecap="round"></path><path d="M 347.471,213.534 C 350.628,212.350 351.103,213.159 354.662,213.534" stroke-width="7.436" stroke="black" fill="none" stroke-linecap="round"></path><path d="M 354.662,213.534 C 358.694,213.959 358.631,214.498 362.652,215.133" stroke-width="7.312" stroke="black" fill="none" stroke-linecap="round"></path><path d="M 362.652,215.133 C 366.222,215.697 366.253,215.932 369.843,215.932" stroke-width="7.414" stroke="black" fill="none" stroke-linecap="round"></path><path d="M 369.843,215.932 C 372.645,215.932 372.680,215.724 375.436,215.133" stroke-width="7.601" stroke="black" fill="none" stroke-linecap="round"></path><path d="M 375.436,215.133 C 378.273,214.525 378.167,213.871 381.029,213.534" stroke-width="7.660" stroke="black" fill="none" stroke-linecap="round"></path><path d="M 381.029,213.534 C 384.959,213.071 385.040,213.768 389.019,213.534" stroke-width="7.424" stroke="black" fill="none" stroke-linecap="round"></path><path d="M 389.019,213.534 C 391.832,213.368 391.815,213.134 394.612,212.735" stroke-width="6.866" stroke="black" fill="none" stroke-linecap="round"></path><path d="M 394.612,212.735 C 397.408,212.335 398.154,213.548 400.205,211.935" stroke-width="6.788" stroke="black" fill="none" stroke-linecap="round"></path><path d="M 400.205,211.935 C 403.747,209.151 403.873,208.274 405.798,203.941" stroke-width="6.930" stroke="black" fill="none" stroke-linecap="round"></path><path d="M 405.798,203.941 C 407.069,201.079 406.861,200.723 406.597,197.546" stroke-width="6.642" stroke="black" fill="none" stroke-linecap="round"></path><path d="M 406.597,197.546 C 406.062,191.131 405.944,191.009 404.200,184.756" stroke-width="5.581" stroke="black" fill="none" stroke-linecap="round"></path><path d="M 404.200,184.756 C 401.150,173.822 400.962,173.833 397.009,163.172" stroke-width="4.500" stroke="black" fill="none" stroke-linecap="round"></path><path d="M 397.009,163.172 C 391.773,149.051 391.416,149.182 385.823,135.193" stroke-width="4.500" stroke="black" fill="none" stroke-linecap="round"></path><path d="M 385.823,135.193 C 383.426,129.197 383.812,129.024 381.029,123.202" stroke-width="4.500" stroke="black" fill="none" stroke-linecap="round"></path><path d="M 381.029,123.202 C 370.628,101.444 370.242,101.618 359.456,80.034" stroke-width="4.500" stroke="black" fill="none" stroke-linecap="round"></path><path d="M 359.456,80.034 C 352.664,66.444 352.953,66.289 345.873,52.854" stroke-width="4.500" stroke="black" fill="none" stroke-linecap="round"></path><path d="M 345.873,52.854 C 341.368,44.306 341.254,44.354 336.285,36.066" stroke-width="4.500" stroke="black" fill="none" stroke-linecap="round"></path><path d="M 336.285,36.066 C 332.865,30.364 332.844,30.359 329.094,24.875" stroke-width="4.541" stroke="black" fill="none" stroke-linecap="round"></path><path d="M 329.094,24.875 C 327.651,22.765 325.133,20.004 325.898,20.878" stroke-width="5.979" stroke="black" fill="none" stroke-linecap="round"></path><path d="M 325.898,20.878 C 327.930,23.202 330.557,25.868 334.687,31.270" stroke-width="7.039" stroke="black" fill="none" stroke-linecap="round"></path><path d="M 334.687,31.270 C 340.944,39.458 340.760,39.607 346.672,48.058" stroke-width="4.532" stroke="black" fill="none" stroke-linecap="round"></path><path d="M 346.672,48.058 C 354.742,59.593 354.846,59.526 362.652,71.240" stroke-width="4.500" stroke="black" fill="none" stroke-linecap="round"></path><path d="M 362.652,71.240 C 372.424,85.906 372.585,85.817 381.828,100.818" stroke-width="4.500" stroke="black" fill="none" stroke-linecap="round"></path><path d="M 381.828,100.818 C 390.562,114.995 390.560,115.019 398.607,129.597" stroke-width="4.500" stroke="black" fill="none" stroke-linecap="round"></path><path d="M 398.607,129.597 C 405.342,141.799 405.439,141.782 411.391,154.378" stroke-width="4.500" stroke="black" fill="none" stroke-linecap="round"></path><path d="M 411.391,154.378 C 415.826,163.766 415.141,164.083 419.381,173.564" stroke-width="4.500" stroke="black" fill="none" stroke-linecap="round"></path><path d="M 419.381,173.564 C 421.933,179.272 422.177,179.160 424.974,184.756" stroke-width="4.521" stroke="black" fill="none" stroke-linecap="round"></path><path d="M 424.974,184.756 C 426.572,187.953 426.361,191.332 428.170,191.151" stroke-width="5.655" stroke="black" fill="none" stroke-linecap="round"></path><path d="M 428.170,191.151 C 430.357,190.932 430.973,187.773 432.964,183.956" stroke-width="7.106" stroke="black" fill="none" stroke-linecap="round"></path><path d="M 432.964,183.956 C 435.767,178.580 434.894,178.113 437.758,172.764" stroke-width="5.692" stroke="black" fill="none" stroke-linecap="round"></path><path d="M 437.758,172.764 C 440.887,166.921 440.621,166.522 444.949,161.573" stroke-width="5.226" stroke="black" fill="none" stroke-linecap="round"></path><path d="M 444.949,161.573 C 449.010,156.929 449.114,156.183 454.537,153.579" stroke-width="5.200" stroke="black" fill="none" stroke-linecap="round"></path><path d="M 454.537,153.579 C 459.102,151.386 459.788,151.766 464.924,151.980" stroke-width="5.529" stroke="black" fill="none" stroke-linecap="round"></path><path d="M 464.924,151.980 C 469.376,152.166 470.095,152.036 473.713,154.378" stroke-width="5.756" stroke="black" fill="none" stroke-linecap="round"></path><path d="M 473.713,154.378 C 476.887,156.433 477.178,157.165 478.507,160.773" stroke-width="6.007" stroke="black" fill="none" stroke-linecap="round"></path><path d="M 478.507,160.773 C 479.975,164.760 479.941,165.280 479.306,169.567" stroke-width="5.860" stroke="black" fill="none" stroke-linecap="round"></path><path d="M 479.306,169.567 C 478.343,176.072 478.882,176.914 475.311,182.357" stroke-width="5.256" stroke="black" fill="none" stroke-linecap="round"></path><path d="M 475.311,182.357 C 470.492,189.704 469.903,190.167 462.527,195.148" stroke-width="4.596" stroke="black" fill="none" stroke-linecap="round"></path><path d="M 462.527,195.148 C 453.923,200.959 453.027,199.755 443.351,203.941" stroke-width="4.500" stroke="black" fill="none" stroke-linecap="round"></path><path d="M 443.351,203.941 C 438.246,206.150 438.157,205.940 432.964,207.938" stroke-width="5.057" stroke="black" fill="none" stroke-linecap="round"></path><circle r="3" cx="266.77154541015625" cy="182.3572998046875" fill="black"></circle><path d="M 433.763,116.007 C 427.371,118.005 427.047,117.232 420.979,120.004" stroke-width="8.012" stroke="black" fill="none" stroke-linecap="round"></path><path d="M 420.979,120.004 C 408.670,125.626 408.722,125.930 397.009,132.794" stroke-width="4.500" stroke="black" fill="none" stroke-linecap="round"></path><path d="M 397.009,132.794 C 380.757,142.318 381.018,142.770 365.049,152.779" stroke-width="4.500" stroke="black" fill="none" stroke-linecap="round"></path><path d="M 365.049,152.779 C 347.859,163.554 347.954,163.707 330.692,174.363" stroke-width="4.500" stroke="black" fill="none" stroke-linecap="round"></path><path d="M 330.692,174.363 C 310.401,186.889 310.529,187.115 289.943,199.145" stroke-width="4.500" stroke="black" fill="none" stroke-linecap="round"></path><path d="M 289.943,199.145 C 265.385,213.495 265.189,213.162 240.405,227.124" stroke-width="4.500" stroke="black" fill="none" stroke-linecap="round"></path><path d="M 240.405,227.124 C 217.649,239.942 217.534,239.742 194.861,252.705" stroke-width="4.500" stroke="black" fill="none" stroke-linecap="round"></path><path d="M 194.861,252.705 C 175.587,263.724 175.281,263.263 156.509,275.088" stroke-width="4.500" stroke="black" fill="none" stroke-linecap="round"></path><path d="M 156.509,275.088 C 142.921,283.648 143.398,284.387 130.142,293.474" stroke-width="4.500" stroke="black" fill="none" stroke-linecap="round"></path><path d="M 130.142,293.474 C 121.825,299.176 121.556,298.811 113.363,304.666" stroke-width="4.500" stroke="black" fill="none" stroke-linecap="round"></path><path d="M 113.363,304.666 C 110.370,306.805 105.973,309.780 107.770,309.462" stroke-width="5.154" stroke="black" fill="none" stroke-linecap="round"></path><path d="M 107.770,309.462 C 112.765,308.581 117.884,306.973 126.946,302.268" stroke-width="5.980" stroke="black" fill="none" stroke-linecap="round"></path><path d="M 126.946,302.268 C 149.445,290.586 149.147,289.855 170.891,276.687" stroke-width="4.500" stroke="black" fill="none" stroke-linecap="round"></path><path d="M 170.891,276.687 C 194.690,262.275 194.450,261.879 218.032,247.109" stroke-width="4.500" stroke="black" fill="none" stroke-linecap="round"></path><path d="M 218.032,247.109 C 243.589,231.102 243.681,231.249 269.169,215.133" stroke-width="4.500" stroke="black" fill="none" stroke-linecap="round"></path><path d="M 269.169,215.133 C 293.619,199.672 293.681,199.764 317.908,183.956" stroke-width="4.500" stroke="black" fill="none" stroke-linecap="round"></path><path d="M 317.908,183.956 C 339.624,169.786 339.652,169.817 361.054,155.178" stroke-width="4.500" stroke="black" fill="none" stroke-linecap="round"></path><path d="M 361.054,155.178 C 378.803,143.037 379.046,143.331 396.210,130.396" stroke-width="4.500" stroke="black" fill="none" stroke-linecap="round"></path><path d="M 396.210,130.396 C 409.807,120.149 409.471,119.698 422.577,108.812" stroke-width="4.500" stroke="black" fill="none" stroke-linecap="round"></path><path d="M 422.577,108.812 C 430.645,102.111 430.740,102.205 438.557,95.222" stroke-width="4.500" stroke="black" fill="none" stroke-linecap="round"></path><path d="M 438.557,95.222 C 441.926,92.213 445.166,91.219 444.949,88.827" stroke-width="4.915" stroke="black" fill="none" stroke-linecap="round"></path><path d="M 444.949,88.827 C 444.767,86.822 441.491,86.882 437.758,86.429" stroke-width="6.780" stroke="black" fill="none" stroke-linecap="round"></path><path d="M 437.758,86.429 C 428.307,85.283 428.173,85.630 418.582,85.630" stroke-width="4.766" stroke="black" fill="none" stroke-linecap="round"></path><path d="M 418.582,85.630 C 403.004,85.630 403.001,86.029 387.421,86.429" stroke-width="4.500" stroke="black" fill="none" stroke-linecap="round"></path><path d="M 387.421,86.429 C 371.840,86.829 371.843,87.023 356.260,87.228" stroke-width="4.500" stroke="black" fill="none" stroke-linecap="round"></path><path d="M 356.260,87.228 C 341.481,87.423 341.478,87.228 326.697,87.228" stroke-width="4.500" stroke="black" fill="none" stroke-linecap="round"></path><path d="M 326.697,87.228 C 314.312,87.228 314.293,87.678 301.928,87.228" stroke-width="4.500" stroke="black" fill="none" stroke-linecap="round"></path><path d="M 301.928,87.228 C 292.321,86.879 292.344,86.368 282.752,85.630" stroke-width="4.500" stroke="black" fill="none" stroke-linecap="round"></path><path d="M 282.752,85.630 C 276.764,85.169 276.744,85.374 270.767,84.830" stroke-width="4.785" stroke="black" fill="none" stroke-linecap="round"></path><path d="M 270.767,84.830 C 267.955,84.574 267.071,82.976 265.174,84.031" stroke-width="6.012" stroke="black" fill="none" stroke-linecap="round"></path><circle r="3" cx="364.2497253417969" cy="304.6660461425781" fill="black"></circle></svg>