<svg xmlns="http://www.w3.org/2000/svg" xmlns:xlink="http://www.w3.org/1999/xlink" viewBox="0 0 576 416" width="576" height="416"><path d="M 361.054,134.393 C 359.456,130.396 359.131,125.125 357.858,126.399" stroke-width="8.885" stroke="black" fill="none" stroke-linecap="round"></path><path d="M 357.858,126.399 C 355.535,128.723 356.185,134.101 353.863,141.588" stroke-width="8.292" stroke="black" fill="none" stroke-linecap="round"></path><path d="M 353.863,141.588 C 352.590,145.692 352.718,145.806 350.667,149.582" stroke-width="6.521" stroke="black" fill="none" stroke-linecap="round"></path><path d="M 350.667,149.582 C 342.730,164.192 342.648,164.202 333.888,178.360" stroke-width="4.500" stroke="black" fill="none" stroke-linecap="round"></path><path d="M 333.888,178.360 C 327.067,189.383 326.979,189.352 319.506,199.944" stroke-width="4.500" stroke="black" fill="none" stroke-linecap="round"></path><path d="M 319.506,199.944 C 312.597,209.737 312.066,209.362 305.124,219.130" stroke-width="4.500" stroke="black" fill="none" stroke-linecap="round"></path><path d="M 305.124,219.130 C 299.282,227.348 299.531,227.524 293.938,235.917" stroke-width="4.500" stroke="black" fill="none" stroke-linecap="round"></path><path d="M 293.938,235.917 C 289.943,241.913 289.762,241.803 285.948,247.908" stroke-width="4.559" stroke="black" fill="none" stroke-linecap="round"></path><path d="M 285.948,247.908 C 283.769,251.396 283.888,251.473 281.953,255.103" stroke-width="5.518" stroke="black" fill="none" stroke-linecap="round"></path><path d="M 317.908,135.193 C 317.908,142.787 319.203,143.036 317.908,150.381" stroke-width="8.686" stroke="black" fill="none" stroke-linecap="round"></path><path d="M 317.908,150.381 C 316.806,156.626 315.634,156.429 313.114,162.372" stroke-width="5.711" stroke="black" fill="none" stroke-linecap="round"></path><path d="M 313.114,162.372 C 310.041,169.619 310.090,169.648 306.722,176.762" stroke-width="4.942" stroke="black" fill="none" stroke-linecap="round"></path><path d="M 306.722,176.762 C 302.899,184.837 303.115,184.975 298.732,192.750" stroke-width="4.540" stroke="black" fill="none" stroke-linecap="round"></path><path d="M 298.732,192.750 C 294.326,200.563 293.883,200.310 289.144,207.938" stroke-width="4.500" stroke="black" fill="none" stroke-linecap="round"></path><path d="M 289.144,207.938 C 284.695,215.099 284.962,215.277 280.355,222.328" stroke-width="4.500" stroke="black" fill="none" stroke-linecap="round"></path><path d="M 280.355,222.328 C 278.171,225.670 277.774,225.400 275.561,228.723" stroke-width="5.451" stroke="black" fill="none" stroke-linecap="round"></path><path d="M 275.561,228.723 C 272.181,233.794 272.490,234.002 269.169,239.115" stroke-width="5.205" stroke="black" fill="none" stroke-linecap="round"></path><path d="M 269.169,239.115 C 267.297,241.996 264.326,246.088 265.174,244.711" stroke-width="5.923" stroke="black" fill="none" stroke-linecap="round"></path><path d="M 296.335,167.169 C 292.739,170.766 292.865,170.906 289.144,174.363" stroke-width="8.701" stroke="black" fill="none" stroke-linecap="round"></path><path d="M 289.144,174.363 C 287.272,176.102 287.360,177.159 285.149,177.561" stroke-width="8.329" stroke="black" fill="none" stroke-linecap="round"></path><path d="M 285.149,177.561 C 282.965,177.958 281.492,177.669 280.355,175.962" stroke-width="8.642" stroke="black" fill="none" stroke-linecap="round"></path><path d="M 280.355,175.962 C 279.095,174.072 279.963,173.109 280.355,170.366" stroke-width="8.404" stroke="black" fill="none" stroke-linecap="round"></path><path d="M 280.355,170.366 C 280.762,167.514 283.064,164.153 281.953,164.770" stroke-width="7.836" stroke="black" fill="none" stroke-linecap="round"></path><path d="M 281.953,164.770 C 279.468,166.151 277.219,169.291 273.164,174.363" stroke-width="7.662" stroke="black" fill="none" stroke-linecap="round"></path><path d="M 273.164,174.363 C 267.631,181.282 268.005,181.584 262.777,188.753" stroke-width="5.047" stroke="black" fill="none" stroke-linecap="round"></path><path d="M 262.777,188.753 C 257.219,196.373 257.184,196.347 251.591,203.941" stroke-width="4.500" stroke="black" fill="none" stroke-linecap="round"></path><path d="M 251.591,203.941 C 245.998,211.536 245.962,211.510 240.405,219.130" stroke-width="4.500" stroke="black" fill="none" stroke-linecap="round"></path><path d="M 240.405,219.130 C 235.176,226.299 235.173,226.298 230.017,233.519" stroke-width="4.500" stroke="black" fill="none" stroke-linecap="round"></path><path d="M 230.017,233.519 C 225.186,240.287 225.345,240.403 220.429,247.109" stroke-width="4.525" stroke="black" fill="none" stroke-linecap="round"></path><path d="M 220.429,247.109 C 216.556,252.394 216.175,252.129 212.439,257.501" stroke-width="4.812" stroke="black" fill="none" stroke-linecap="round"></path><path d="M 212.439,257.501 C 209.783,261.322 210.277,261.665 207.645,265.495" stroke-width="5.471" stroke="black" fill="none" stroke-linecap="round"></path><path d="M 256.385,161.573 C 249.993,171.166 249.895,171.102 243.601,180.759" stroke-width="7.644" stroke="black" fill="none" stroke-linecap="round"></path><path d="M 243.601,180.759 C 237.910,189.488 238.147,189.644 232.415,198.345" stroke-width="4.580" stroke="black" fill="none" stroke-linecap="round"></path><path d="M 232.415,198.345 C 226.561,207.231 226.742,207.375 220.429,215.932" stroke-width="4.500" stroke="black" fill="none" stroke-linecap="round"></path><path d="M 220.429,215.932 C 214.358,224.163 214.037,223.926 207.645,231.920" stroke-width="4.500" stroke="black" fill="none" stroke-linecap="round"></path><path d="M 207.645,231.920 C 204.449,235.917 204.184,235.726 201.253,239.914" stroke-width="4.985" stroke="black" fill="none" stroke-linecap="round"></path><path d="M 201.253,239.914 C 195.795,247.717 196.381,248.137 190.866,255.902" stroke-width="4.500" stroke="black" fill="none" stroke-linecap="round"></path><path d="M 190.866,255.902 C 185.595,263.326 185.289,263.109 179.680,270.292" stroke-width="4.513" stroke="black" fill="none" stroke-linecap="round"></path><path d="M 179.680,270.292 C 175.301,275.900 175.306,275.904 170.891,281.483" stroke-width="4.777" stroke="black" fill="none" stroke-linecap="round"></path><path d="M 170.891,281.483 C 167.716,285.497 167.566,285.386 164.499,289.477" stroke-width="5.254" stroke="black" fill="none" stroke-linecap="round"></path><path d="M 164.499,289.477 C 162.772,291.781 160.456,295.333 161.303,294.274" stroke-width="6.202" stroke="black" fill="none" stroke-linecap="round"></path><path d="M 229.218,160.773 C 221.628,171.166 221.918,171.391 214.037,181.558" stroke-width="7.218" stroke="black" fill="none" stroke-linecap="round"></path><path d="M 214.037,181.558 C 206.737,190.976 206.467,190.768 198.856,199.944" stroke-width="4.500" stroke="black" fill="none" stroke-linecap="round"></path><path d="M 198.856,199.944 C 190.887,209.554 191.164,209.802 182.876,219.130" stroke-width="4.500" stroke="black" fill="none" stroke-linecap="round"></path><path d="M 182.876,219.130 C 175.184,227.788 175.471,228.176 166.896,235.917" stroke-width="4.500" stroke="black" fill="none" stroke-linecap="round"></path><path d="M 166.896,235.917 C 159.091,242.965 158.778,242.709 150.117,248.708" stroke-width="4.500" stroke="black" fill="none" stroke-linecap="round"></path><path d="M 150.117,248.708 C 143.198,253.501 143.203,253.765 135.735,257.501" stroke-width="4.500" stroke="black" fill="none" stroke-linecap="round"></path><path d="M 135.735,257.501 C 132.816,258.961 132.576,258.484 129.343,259.100" stroke-width="5.645" stroke="black" fill="none" stroke-linecap="round"></path><path d="M 129.343,259.100 C 124.187,260.083 123.787,261.424 118.956,260.699" stroke-width="5.671" stroke="black" fill="none" stroke-linecap="round"></path><path d="M 118.956,260.699 C 115.797,260.225 113.492,259.542 113.363,256.702" stroke-width="6.808" stroke="black" fill="none" stroke-linecap="round"></path><path d="M 113.363,256.702 C 113.093,250.748 114.472,249.128 118.157,243.112" stroke-width="6.418" stroke="black" fill="none" stroke-linecap="round"></path><path d="M 118.157,243.112 C 122.062,236.737 123.154,237.314 128.544,231.920" stroke-width="5.145" stroke="black" fill="none" stroke-linecap="round"></path><path d="M 128.544,231.920 C 131.543,228.920 131.236,228.352 134.936,226.324" stroke-width="5.787" stroke="black" fill="none" stroke-linecap="round"></path><path d="M 134.936,226.324 C 148.015,219.159 148.264,219.303 162.102,213.534" stroke-width="4.500" stroke="black" fill="none" stroke-linecap="round"></path><path d="M 162.102,213.534 C 172.234,209.310 172.348,209.461 182.876,206.339" stroke-width="4.500" stroke="black" fill="none" stroke-linecap="round"></path><path d="M 182.876,206.339 C 193.921,203.065 193.960,203.041 205.248,200.744" stroke-width="4.500" stroke="black" fill="none" stroke-linecap="round"></path><path d="M 205.248,200.744 C 217.530,198.244 217.591,198.442 230.017,196.747" stroke-width="4.500" stroke="black" fill="none" stroke-linecap="round"></path><path d="M 230.017,196.747 C 243.958,194.845 244.015,195.272 257.983,193.549" stroke-width="4.500" stroke="black" fill="none" stroke-linecap="round"></path><path d="M 257.983,193.549 C 273.179,191.674 273.151,191.452 288.345,189.552" stroke-width="4.500" stroke="black" fill="none" stroke-linecap="round"></path><path d="M 288.345,189.552 C 305.111,187.455 305.124,187.553 321.903,185.555" stroke-width="4.500" stroke="black" fill="none" stroke-linecap="round"></path><path d="M 321.903,185.555 C 338.682,183.556 338.724,183.860 355.461,181.558" stroke-width="4.500" stroke="black" fill="none" stroke-linecap="round"></path><path d="M 355.461,181.558 C 370.684,179.464 370.618,178.999 385.823,176.762" stroke-width="4.500" stroke="black" fill="none" stroke-linecap="round"></path><path d="M 385.823,176.762 C 397.784,175.002 397.813,175.198 409.793,173.564" stroke-width="4.500" stroke="black" fill="none" stroke-linecap="round"></path><path d="M 409.793,173.564 C 415.391,172.800 415.386,172.764 420.979,171.965" stroke-width="4.661" stroke="black" fill="none" stroke-linecap="round"></path><path d="M 354.662,228.723 C 358.257,225.925 358.182,225.820 361.853,223.127" stroke-width="8.065" stroke="black" fill="none" stroke-linecap="round"></path><path d="M 361.853,223.127 C 364.174,221.424 364.250,221.528 366.647,219.929" stroke-width="7.075" stroke="black" fill="none" stroke-linecap="round"></path></svg>