<svg xmlns="http://www.w3.org/2000/svg" xmlns:xlink="http://www.w3.org/1999/xlink" viewBox="0 0 576 416" width="576" height="416"><path d="M 117.358,199.544 C 120.155,208.338 120.200,208.323 122.951,217.131" stroke-width="7.836" stroke="black" fill="none" stroke-linecap="round"></path><path d="M 122.951,217.131 C 126.193,227.509 126.256,227.491 129.343,237.916" stroke-width="4.509" stroke="black" fill="none" stroke-linecap="round"></path><path d="M 129.343,237.916 C 132.648,249.075 132.468,249.129 135.735,260.299" stroke-width="4.500" stroke="black" fill="none" stroke-linecap="round"></path><path d="M 135.735,260.299 C 137.262,265.516 137.255,265.520 138.931,270.691" stroke-width="4.857" stroke="black" fill="none" stroke-linecap="round"></path><path d="M 138.931,270.691 C 142.049,280.309 142.062,280.306 145.323,289.877" stroke-width="4.500" stroke="black" fill="none" stroke-linecap="round"></path><path d="M 145.323,289.877 C 148.055,297.893 148.069,297.889 150.916,305.865" stroke-width="4.500" stroke="black" fill="none" stroke-linecap="round"></path><path d="M 150.916,305.865 C 152.064,309.081 152.166,309.045 153.313,312.260" stroke-width="5.604" stroke="black" fill="none" stroke-linecap="round"></path><path d="M 153.313,312.260 C 154.163,314.640 154.112,314.658 154.911,317.057" stroke-width="6.415" stroke="black" fill="none" stroke-linecap="round"></path><path d="M 154.911,317.057 C 156.110,320.654 155.169,323.667 157.308,324.251" stroke-width="6.195" stroke="black" fill="none" stroke-linecap="round"></path><path d="M 157.308,324.251 C 159.563,324.866 161.289,322.599 163.700,319.455" stroke-width="7.213" stroke="black" fill="none" stroke-linecap="round"></path><path d="M 163.700,319.455 C 174.472,305.412 173.205,304.320 183.675,289.877" stroke-width="4.500" stroke="black" fill="none" stroke-linecap="round"></path><path d="M 183.675,289.877 C 199.572,267.947 198.927,267.339 216.434,246.709" stroke-width="4.500" stroke="black" fill="none" stroke-linecap="round"></path><path d="M 216.434,246.709 C 234.883,224.970 235.118,225.003 255.586,205.140" stroke-width="4.500" stroke="black" fill="none" stroke-linecap="round"></path><path d="M 255.586,205.140 C 275.068,186.232 275.050,186.001 296.335,169.167" stroke-width="4.500" stroke="black" fill="none" stroke-linecap="round"></path><path d="M 296.335,169.167 C 316.997,152.825 317.353,153.115 339.481,138.790" stroke-width="4.500" stroke="black" fill="none" stroke-linecap="round"></path><path d="M 339.481,138.790 C 358.102,126.734 358.143,126.588 377.833,116.406" stroke-width="4.500" stroke="black" fill="none" stroke-linecap="round"></path><path d="M 377.833,116.406 C 393.698,108.202 393.819,108.028 410.592,102.017" stroke-width="4.500" stroke="black" fill="none" stroke-linecap="round"></path><path d="M 410.592,102.017 C 420.586,98.435 420.919,99.253 431.366,97.221" stroke-width="4.500" stroke="black" fill="none" stroke-linecap="round"></path><path d="M 431.366,97.221 C 435.301,96.455 438.369,94.842 439.356,96.421" stroke-width="4.905" stroke="black" fill="none" stroke-linecap="round"></path><path d="M 439.356,96.421 C 440.367,98.040 438.684,101.334 435.361,103.616" stroke-width="6.292" stroke="black" fill="none" stroke-linecap="round"></path><path d="M 435.361,103.616 C 418.310,115.324 417.331,114.665 398.607,124.400" stroke-width="4.500" stroke="black" fill="none" stroke-linecap="round"></path><path d="M 398.607,124.400 C 366.595,141.045 365.999,139.906 333.888,156.376" stroke-width="4.500" stroke="black" fill="none" stroke-linecap="round"></path><path d="M 333.888,156.376 C 302.878,172.282 302.942,172.428 272.365,189.152" stroke-width="4.500" stroke="black" fill="none" stroke-linecap="round"></path><path d="M 272.365,189.152 C 243.017,205.203 242.706,204.718 214.037,221.928" stroke-width="4.500" stroke="black" fill="none" stroke-linecap="round"></path><path d="M 214.037,221.928 C 188.773,237.094 188.436,236.766 164.499,253.904" stroke-width="4.500" stroke="black" fill="none" stroke-linecap="round"></path><path d="M 164.499,253.904 C 144.891,267.943 144.672,267.985 126.946,284.281" stroke-width="4.500" stroke="black" fill="none" stroke-linecap="round"></path><path d="M 126.946,284.281 C 115.109,295.164 114.769,295.370 105.373,308.263" stroke-width="4.500" stroke="black" fill="none" stroke-linecap="round"></path><path d="M 105.373,308.263 C 100.787,314.556 99.724,315.468 98.981,322.652" stroke-width="4.500" stroke="black" fill="none" stroke-linecap="round"></path><path d="M 98.981,322.652 C 98.526,327.059 98.975,330.531 102.976,331.446" stroke-width="5.015" stroke="black" fill="none" stroke-linecap="round"></path><path d="M 102.976,331.446 C 112.957,333.728 115.279,331.849 126.946,329.048" stroke-width="5.189" stroke="black" fill="none" stroke-linecap="round"></path><path d="M 126.946,329.048 C 155.229,322.256 155.744,322.806 182.876,312.260" stroke-width="4.500" stroke="black" fill="none" stroke-linecap="round"></path><path d="M 182.876,312.260 C 211.274,301.222 210.682,299.549 238.008,285.880" stroke-width="4.500" stroke="black" fill="none" stroke-linecap="round"></path><path d="M 238.008,285.880 C 264.215,272.769 264.257,272.800 289.943,258.700" stroke-width="4.500" stroke="black" fill="none" stroke-linecap="round"></path><path d="M 289.943,258.700 C 309.401,248.019 309.378,247.925 328.295,236.317" stroke-width="4.500" stroke="black" fill="none" stroke-linecap="round"></path><path d="M 328.295,236.317 C 339.341,229.538 339.350,229.482 349.868,221.928" stroke-width="4.500" stroke="black" fill="none" stroke-linecap="round"></path><path d="M 349.868,221.928 C 354.931,218.291 361.701,214.355 359.456,213.934" stroke-width="4.500" stroke="black" fill="none" stroke-linecap="round"></path><path d="M 359.456,213.934 C 355.309,213.156 348.004,215.888 337.084,219.529" stroke-width="5.475" stroke="black" fill="none" stroke-linecap="round"></path><path d="M 337.084,219.529 C 318.041,225.880 317.734,225.531 299.531,233.919" stroke-width="4.500" stroke="black" fill="none" stroke-linecap="round"></path><path d="M 299.531,233.919 C 287.372,239.521 287.244,239.806 276.360,247.508" stroke-width="4.500" stroke="black" fill="none" stroke-linecap="round"></path><path d="M 276.360,247.508 C 270.864,251.397 268.687,252.174 266.772,257.101" stroke-width="4.500" stroke="black" fill="none" stroke-linecap="round"></path><path d="M 266.772,257.101 C 265.890,259.369 267.896,261.644 270.767,261.898" stroke-width="6.210" stroke="black" fill="none" stroke-linecap="round"></path><path d="M 270.767,261.898 C 281.479,262.843 282.532,261.722 293.938,259.499" stroke-width="4.500" stroke="black" fill="none" stroke-linecap="round"></path><path d="M 293.938,259.499 C 313.294,255.727 313.354,255.504 332.290,249.907" stroke-width="4.500" stroke="black" fill="none" stroke-linecap="round"></path><path d="M 332.290,249.907 C 348.510,245.112 348.516,244.908 364.250,238.715" stroke-width="4.500" stroke="black" fill="none" stroke-linecap="round"></path><path d="M 364.250,238.715 C 372.885,235.316 372.661,234.763 381.029,230.721" stroke-width="4.500" stroke="black" fill="none" stroke-linecap="round"></path></svg>