<svg xmlns="http://www.w3.org/2000/svg" xmlns:xlink="http://www.w3.org/1999/xlink" viewBox="0 0 576 416" width="576" height="416"><path d="M 214.836,147.184 C 206.846,145.984 206.890,145.533 198.856,144.785" stroke-width="7.793" stroke="black" fill="none" stroke-linecap="round"></path><path d="M 198.856,144.785 C 189.711,143.934 189.673,144.174 180.479,143.986" stroke-width="4.989" stroke="black" fill="none" stroke-linecap="round"></path><path d="M 180.479,143.986 C 170.097,143.774 170.092,143.986 159.705,143.986" stroke-width="4.500" stroke="black" fill="none" stroke-linecap="round"></path><path d="M 159.705,143.986 C 149.718,143.986 149.718,143.986 139.730,143.986" stroke-width="4.500" stroke="black" fill="none" stroke-linecap="round"></path><path d="M 139.730,143.986 C 131.740,143.986 131.710,143.531 123.750,143.986" stroke-width="4.500" stroke="black" fill="none" stroke-linecap="round"></path><path d="M 123.750,143.986 C 117.728,144.330 117.539,143.991 111.765,145.585" stroke-width="5.003" stroke="black" fill="none" stroke-linecap="round"></path><path d="M 111.765,145.585 C 105.953,147.189 105.294,147.052 100.579,150.381" stroke-width="6.009" stroke="black" fill="none" stroke-linecap="round"></path><path d="M 100.579,150.381 C 98.502,151.848 98.590,152.593 98.182,155.178" stroke-width="6.503" stroke="black" fill="none" stroke-linecap="round"></path><path d="M 98.182,155.178 C 97.392,160.187 98.315,160.376 98.182,165.570" stroke-width="6.704" stroke="black" fill="none" stroke-linecap="round"></path><path d="M 98.182,165.570 C 97.916,175.965 98.006,175.976 97.383,186.354" stroke-width="4.815" stroke="black" fill="none" stroke-linecap="round"></path><path d="M 97.383,186.354 C 96.807,195.961 96.978,195.996 95.785,205.540" stroke-width="4.500" stroke="black" fill="none" stroke-linecap="round"></path><path d="M 95.785,205.540 C 94.581,215.182 94.380,215.169 92.589,224.726" stroke-width="4.500" stroke="black" fill="none" stroke-linecap="round"></path><path d="M 92.589,224.726 C 90.785,234.355 90.475,234.296 88.594,243.911" stroke-width="4.500" stroke="black" fill="none" stroke-linecap="round"></path><path d="M 88.594,243.911 C 86.879,252.682 87.193,252.746 85.398,261.498" stroke-width="4.500" stroke="black" fill="none" stroke-linecap="round"></path><path d="M 85.398,261.498 C 83.997,268.334 83.894,268.317 82.202,275.088" stroke-width="4.813" stroke="black" fill="none" stroke-linecap="round"></path><path d="M 82.202,275.088 C 81.098,279.509 80.792,279.441 79.805,283.882" stroke-width="5.500" stroke="black" fill="none" stroke-linecap="round"></path><path d="M 57.433,241.513 C 63.825,239.914 63.748,239.492 70.217,238.316" stroke-width="7.990" stroke="black" fill="none" stroke-linecap="round"></path><path d="M 70.217,238.316 C 76.931,237.094 77.015,237.565 83.800,236.717" stroke-width="5.621" stroke="black" fill="none" stroke-linecap="round"></path><path d="M 83.800,236.717 C 92.995,235.567 93.024,235.743 102.177,234.319" stroke-width="4.631" stroke="black" fill="none" stroke-linecap="round"></path><path d="M 102.177,234.319 C 111.001,232.945 110.950,232.625 119.755,231.121" stroke-width="4.500" stroke="black" fill="none" stroke-linecap="round"></path><path d="M 119.755,231.121 C 127.330,229.827 127.334,229.841 134.936,228.723" stroke-width="4.643" stroke="black" fill="none" stroke-linecap="round"></path><path d="M 134.936,228.723 C 140.917,227.843 140.915,227.792 146.921,227.124" stroke-width="5.058" stroke="black" fill="none" stroke-linecap="round"></path><path d="M 146.921,227.124 C 151.701,226.593 158.350,226.079 156.509,226.324" stroke-width="6.231" stroke="black" fill="none" stroke-linecap="round"></path><path d="M 170.092,266.295 C 165.698,259.899 166.787,258.492 161.303,253.504" stroke-width="8.031" stroke="black" fill="none" stroke-linecap="round"></path><path d="M 161.303,253.504 C 157.998,250.498 157.052,251.096 152.514,250.307" stroke-width="6.227" stroke="black" fill="none" stroke-linecap="round"></path><path d="M 152.514,250.307 C 147.863,249.497 147.638,249.692 142.926,250.307" stroke-width="5.888" stroke="black" fill="none" stroke-linecap="round"></path><path d="M 142.926,250.307 C 138.449,250.891 138.237,250.859 134.137,252.705" stroke-width="5.868" stroke="black" fill="none" stroke-linecap="round"></path><path d="M 134.137,252.705 C 130.247,254.456 129.933,254.513 126.946,257.501" stroke-width="6.087" stroke="black" fill="none" stroke-linecap="round"></path><path d="M 126.946,257.501 C 124.340,260.108 123.418,260.626 122.951,263.896" stroke-width="6.190" stroke="black" fill="none" stroke-linecap="round"></path><path d="M 122.951,263.896 C 122.619,266.222 123.415,268.165 125.348,268.693" stroke-width="7.421" stroke="black" fill="none" stroke-linecap="round"></path><path d="M 125.348,268.693 C 127.810,269.365 128.612,267.655 131.740,266.295" stroke-width="6.692" stroke="black" fill="none" stroke-linecap="round"></path><path d="M 131.740,266.295 C 137.801,263.658 138.026,264.010 143.725,260.699" stroke-width="5.350" stroke="black" fill="none" stroke-linecap="round"></path><path d="M 143.725,260.699 C 150.411,256.815 150.360,256.593 156.509,251.905" stroke-width="4.978" stroke="black" fill="none" stroke-linecap="round"></path><path d="M 156.509,251.905 C 158.749,250.198 160.670,247.412 160.504,247.908" stroke-width="6.155" stroke="black" fill="none" stroke-linecap="round"></path><path d="M 160.504,247.908 C 160.270,248.611 155.710,250.852 155.710,254.304" stroke-width="7.472" stroke="black" fill="none" stroke-linecap="round"></path><path d="M 155.710,254.304 C 155.710,259.246 156.954,260.670 160.504,264.696" stroke-width="6.939" stroke="black" fill="none" stroke-linecap="round"></path><path d="M 160.504,264.696 C 162.946,267.465 163.921,266.994 167.695,267.894" stroke-width="6.369" stroke="black" fill="none" stroke-linecap="round"></path><path d="M 167.695,267.894 C 172.310,268.993 172.554,269.087 177.283,268.693" stroke-width="5.921" stroke="black" fill="none" stroke-linecap="round"></path><path d="M 177.283,268.693 C 182.142,268.288 182.217,267.907 186.871,266.295" stroke-width="5.758" stroke="black" fill="none" stroke-linecap="round"></path><path d="M 186.871,266.295 C 192.604,264.309 192.477,263.926 198.057,261.498" stroke-width="5.389" stroke="black" fill="none" stroke-linecap="round"></path><path d="M 198.057,261.498 C 201.666,259.929 201.773,260.131 205.248,258.301" stroke-width="5.901" stroke="black" fill="none" stroke-linecap="round"></path><path d="M 235.611,190.351 C 233.613,201.543 234.746,201.876 231.615,212.735" stroke-width="8.190" stroke="black" fill="none" stroke-linecap="round"></path><path d="M 231.615,212.735 C 228.754,222.660 227.861,222.435 223.625,231.920" stroke-width="4.773" stroke="black" fill="none" stroke-linecap="round"></path><path d="M 223.625,231.920 C 219.472,241.221 219.559,241.286 214.836,250.307" stroke-width="4.500" stroke="black" fill="none" stroke-linecap="round"></path><path d="M 214.836,250.307 C 210.770,258.074 210.751,258.100 206.047,265.495" stroke-width="4.500" stroke="black" fill="none" stroke-linecap="round"></path><path d="M 206.047,265.495 C 202.362,271.290 202.255,271.252 198.057,276.687" stroke-width="4.781" stroke="black" fill="none" stroke-linecap="round"></path><path d="M 198.057,276.687 C 195.464,280.045 195.649,281.857 192.464,283.082" stroke-width="5.574" stroke="black" fill="none" stroke-linecap="round"></path><path d="M 192.464,283.082 C 190.455,283.855 188.270,282.482 187.670,280.684" stroke-width="7.137" stroke="black" fill="none" stroke-linecap="round"></path><path d="M 187.670,280.684 C 187.071,278.885 188.530,278.066 190.067,275.888" stroke-width="6.855" stroke="black" fill="none" stroke-linecap="round"></path><path d="M 190.067,275.888 C 193.324,271.272 193.498,271.347 197.258,267.094" stroke-width="5.763" stroke="black" fill="none" stroke-linecap="round"></path><path d="M 197.258,267.094 C 202.687,260.955 202.655,260.896 208.444,255.103" stroke-width="5.077" stroke="black" fill="none" stroke-linecap="round"></path><path d="M 208.444,255.103 C 211.444,252.102 211.504,252.127 214.836,249.507" stroke-width="5.690" stroke="black" fill="none" stroke-linecap="round"></path><path d="M 214.836,249.507 C 217.097,247.730 216.995,247.121 219.630,246.310" stroke-width="6.375" stroke="black" fill="none" stroke-linecap="round"></path><path d="M 219.630,246.310 C 222.188,245.522 224.049,244.547 225.223,246.310" stroke-width="7.285" stroke="black" fill="none" stroke-linecap="round"></path><path d="M 225.223,246.310 C 227.245,249.343 224.996,251.282 226.022,255.902" stroke-width="7.694" stroke="black" fill="none" stroke-linecap="round"></path><path d="M 226.022,255.902 C 226.594,258.476 226.989,258.449 228.419,260.699" stroke-width="7.077" stroke="black" fill="none" stroke-linecap="round"></path><path d="M 228.419,260.699 C 229.785,262.846 229.907,262.796 231.615,264.696" stroke-width="6.965" stroke="black" fill="none" stroke-linecap="round"></path><path d="M 231.615,264.696 C 233.502,266.793 233.355,267.052 235.611,268.693" stroke-width="6.816" stroke="black" fill="none" stroke-linecap="round"></path><path d="M 235.611,268.693 C 237.750,270.249 237.972,269.968 240.405,271.091" stroke-width="6.835" stroke="black" fill="none" stroke-linecap="round"></path><path d="M 240.405,271.091 C 243.166,272.366 243.138,272.468 245.998,273.489" stroke-width="6.688" stroke="black" fill="none" stroke-linecap="round"></path><path d="M 245.998,273.489 C 248.731,274.466 248.734,274.612 251.591,275.088" stroke-width="6.700" stroke="black" fill="none" stroke-linecap="round"></path><path d="M 251.591,275.088 C 255.925,275.811 255.987,275.888 260.380,275.888" stroke-width="7.006" stroke="black" fill="none" stroke-linecap="round"></path><path d="M 260.380,275.888 C 264.376,275.888 264.857,276.670 268.370,275.088" stroke-width="7.196" stroke="black" fill="none" stroke-linecap="round"></path><path d="M 268.370,275.088 C 272.847,273.072 273.014,272.458 276.360,268.693" stroke-width="6.999" stroke="black" fill="none" stroke-linecap="round"></path><path d="M 276.360,268.693 C 279.406,265.264 279.801,264.985 281.154,260.699" stroke-width="7.044" stroke="black" fill="none" stroke-linecap="round"></path><path d="M 281.154,260.699 C 282.198,257.391 283.132,255.124 281.154,253.504" stroke-width="7.309" stroke="black" fill="none" stroke-linecap="round"></path><path d="M 281.154,253.504 C 278.737,251.526 276.473,252.383 272.365,253.504" stroke-width="7.563" stroke="black" fill="none" stroke-linecap="round"></path><path d="M 272.365,253.504 C 267.684,254.781 267.640,255.421 263.576,258.301" stroke-width="6.125" stroke="black" fill="none" stroke-linecap="round"></path><path d="M 263.576,258.301 C 258.052,262.215 257.869,262.208 253.189,267.094" stroke-width="5.290" stroke="black" fill="none" stroke-linecap="round"></path><path d="M 253.189,267.094 C 248.680,271.801 248.982,272.142 245.199,277.486" stroke-width="5.142" stroke="black" fill="none" stroke-linecap="round"></path><path d="M 245.199,277.486 C 242.191,281.735 242.019,281.692 239.605,286.280" stroke-width="5.441" stroke="black" fill="none" stroke-linecap="round"></path><path d="M 239.605,286.280 C 238.024,289.286 236.771,289.832 237.208,292.675" stroke-width="6.091" stroke="black" fill="none" stroke-linecap="round"></path><path d="M 237.208,292.675 C 237.570,295.028 239.028,297.184 241.203,296.672" stroke-width="7.145" stroke="black" fill="none" stroke-linecap="round"></path><path d="M 241.203,296.672 C 245.819,295.586 246.405,293.528 250.792,289.477" stroke-width="6.794" stroke="black" fill="none" stroke-linecap="round"></path><path d="M 250.792,289.477 C 256.792,283.936 256.846,283.852 261.978,277.486" stroke-width="5.077" stroke="black" fill="none" stroke-linecap="round"></path><path d="M 261.978,277.486 C 266.834,271.462 266.318,271.054 270.767,264.696" stroke-width="4.811" stroke="black" fill="none" stroke-linecap="round"></path><path d="M 270.767,264.696 C 274.708,259.063 275.165,259.343 278.757,253.504" stroke-width="4.925" stroke="black" fill="none" stroke-linecap="round"></path><path d="M 278.757,253.504 C 281.557,248.951 281.055,248.655 283.551,243.911" stroke-width="5.326" stroke="black" fill="none" stroke-linecap="round"></path><path d="M 283.551,243.911 C 285.050,241.061 287.385,240.019 286.747,238.316" stroke-width="6.113" stroke="black" fill="none" stroke-linecap="round"></path><path d="M 286.747,238.316 C 286.187,236.822 283.519,236.395 281.154,237.516" stroke-width="7.382" stroke="black" fill="none" stroke-linecap="round"></path><path d="M 281.154,237.516 C 275.928,239.993 275.963,241.111 271.566,245.510" stroke-width="5.697" stroke="black" fill="none" stroke-linecap="round"></path><path d="M 271.566,245.510 C 266.375,250.704 266.083,250.649 261.978,256.702" stroke-width="5.054" stroke="black" fill="none" stroke-linecap="round"></path><path d="M 261.978,256.702 C 258.492,261.841 257.508,262.046 256.385,267.894" stroke-width="5.145" stroke="black" fill="none" stroke-linecap="round"></path><path d="M 256.385,267.894 C 255.511,272.439 254.973,274.830 257.983,277.486" stroke-width="5.538" stroke="black" fill="none" stroke-linecap="round"></path><path d="M 257.983,277.486 C 261.765,280.825 263.998,280.071 269.968,279.885" stroke-width="6.253" stroke="black" fill="none" stroke-linecap="round"></path><path d="M 269.968,279.885 C 276.782,279.672 276.832,278.541 283.551,276.687" stroke-width="5.375" stroke="black" fill="none" stroke-linecap="round"></path><path d="M 283.551,276.687 C 288.417,275.344 288.321,275.012 293.139,273.489" stroke-width="5.473" stroke="black" fill="none" stroke-linecap="round"></path><path d="M 293.139,273.489 C 295.911,272.613 299.022,270.873 298.732,271.891" stroke-width="6.340" stroke="black" fill="none" stroke-linecap="round"></path><path d="M 298.732,271.891 C 298.223,273.671 294.753,275.183 291.541,279.085" stroke-width="7.096" stroke="black" fill="none" stroke-linecap="round"></path><path d="M 291.541,279.085 C 289.160,281.978 289.038,282.068 287.546,285.480" stroke-width="6.470" stroke="black" fill="none" stroke-linecap="round"></path><path d="M 287.546,285.480 C 286.241,288.463 285.727,288.790 285.948,291.876" stroke-width="6.481" stroke="black" fill="none" stroke-linecap="round"></path><path d="M 285.948,291.876 C 286.127,294.386 286.231,295.615 288.345,296.672" stroke-width="6.729" stroke="black" fill="none" stroke-linecap="round"></path><path d="M 288.345,296.672 C 291.824,298.413 292.775,297.868 297.134,297.471" stroke-width="6.145" stroke="black" fill="none" stroke-linecap="round"></path><path d="M 297.134,297.471 C 305.958,296.669 306.362,297.222 314.712,294.274" stroke-width="4.800" stroke="black" fill="none" stroke-linecap="round"></path><path d="M 314.712,294.274 C 326.737,290.028 326.961,289.760 337.883,283.082" stroke-width="4.500" stroke="black" fill="none" stroke-linecap="round"></path><path d="M 337.883,283.082 C 348.534,276.570 348.730,276.403 357.858,267.894" stroke-width="4.500" stroke="black" fill="none" stroke-linecap="round"></path><path d="M 357.858,267.894 C 366.308,260.015 366.342,259.729 373.039,250.307" stroke-width="4.500" stroke="black" fill="none" stroke-linecap="round"></path><path d="M 373.039,250.307 C 379.126,241.742 379.820,241.681 383.426,231.920" stroke-width="4.500" stroke="black" fill="none" stroke-linecap="round"></path><path d="M 383.426,231.920 C 386.612,223.295 386.622,222.707 386.622,213.534" stroke-width="4.500" stroke="black" fill="none" stroke-linecap="round"></path><path d="M 386.622,213.534 C 386.622,205.520 386.175,205.048 383.426,197.546" stroke-width="4.500" stroke="black" fill="none" stroke-linecap="round"></path><path d="M 383.426,197.546 C 381.781,193.057 381.064,193.165 377.833,189.552" stroke-width="5.272" stroke="black" fill="none" stroke-linecap="round"></path><path d="M 377.833,189.552 C 374.272,185.570 374.422,184.856 369.843,182.357" stroke-width="5.439" stroke="black" fill="none" stroke-linecap="round"></path><path d="M 369.843,182.357 C 365.633,180.060 365.095,180.153 360.255,179.959" stroke-width="5.613" stroke="black" fill="none" stroke-linecap="round"></path><path d="M 360.255,179.959 C 355.108,179.753 354.662,179.639 349.868,181.558" stroke-width="5.577" stroke="black" fill="none" stroke-linecap="round"></path><path d="M 349.868,181.558 C 342.677,184.436 341.922,184.276 336.285,189.552" stroke-width="4.910" stroke="black" fill="none" stroke-linecap="round"></path><path d="M 336.285,189.552 C 329.538,195.867 329.339,196.457 325.099,204.741" stroke-width="4.500" stroke="black" fill="none" stroke-linecap="round"></path><path d="M 325.099,204.741 C 320.950,212.845 321.004,213.333 319.506,222.328" stroke-width="4.500" stroke="black" fill="none" stroke-linecap="round"></path><path d="M 319.506,222.328 C 318.208,230.120 318.260,230.591 319.506,238.316" stroke-width="4.548" stroke="black" fill="none" stroke-linecap="round"></path><path d="M 319.506,238.316 C 320.258,242.982 320.623,243.407 323.501,247.109" stroke-width="5.244" stroke="black" fill="none" stroke-linecap="round"></path><path d="M 323.501,247.109 C 326.216,250.602 326.633,251.080 330.692,252.705" stroke-width="5.735" stroke="black" fill="none" stroke-linecap="round"></path><path d="M 330.692,252.705 C 334.623,254.278 335.146,253.745 339.481,253.504" stroke-width="5.945" stroke="black" fill="none" stroke-linecap="round"></path><path d="M 339.481,253.504 C 342.337,253.345 343.648,253.739 345.074,251.905" stroke-width="6.389" stroke="black" fill="none" stroke-linecap="round"></path><path d="M 345.074,251.905 C 346.445,250.142 346.974,246.421 345.074,246.310" stroke-width="7.271" stroke="black" fill="none" stroke-linecap="round"></path><path d="M 345.074,246.310 C 340.182,246.022 337.718,247.751 331.491,251.106" stroke-width="6.579" stroke="black" fill="none" stroke-linecap="round"></path><path d="M 331.491,251.106 C 327.331,253.347 327.436,253.916 324.300,257.501" stroke-width="6.062" stroke="black" fill="none" stroke-linecap="round"></path><path d="M 324.300,257.501 C 321.843,260.311 320.747,260.579 320.305,263.896" stroke-width="6.101" stroke="black" fill="none" stroke-linecap="round"></path><path d="M 320.305,263.896 C 319.948,266.575 320.408,267.657 322.702,269.492" stroke-width="6.460" stroke="black" fill="none" stroke-linecap="round"></path><path d="M 322.702,269.492 C 330.395,275.651 330.872,276.120 340.280,279.885" stroke-width="4.595" stroke="black" fill="none" stroke-linecap="round"></path><path d="M 340.280,279.885 C 354.842,285.712 355.265,285.144 370.642,288.678" stroke-width="4.500" stroke="black" fill="none" stroke-linecap="round"></path><path d="M 370.642,288.678 C 384.828,291.939 385.147,290.494 399.406,293.474" stroke-width="4.500" stroke="black" fill="none" stroke-linecap="round"></path><path d="M 399.406,293.474 C 411.914,296.089 411.672,297.317 424.175,299.870" stroke-width="4.500" stroke="black" fill="none" stroke-linecap="round"></path><path d="M 424.175,299.870 C 431.247,301.314 431.352,300.914 438.557,301.468" stroke-width="4.500" stroke="black" fill="none" stroke-linecap="round"></path><path d="M 438.557,301.468 C 441.739,301.713 447.123,302.012 444.949,301.468" stroke-width="5.689" stroke="black" fill="none" stroke-linecap="round"></path><path d="M 444.949,301.468 C 432.741,298.415 427.458,297.399 409.793,294.274" stroke-width="4.704" stroke="black" fill="none" stroke-linecap="round"></path><path d="M 409.793,294.274 C 361.940,285.808 362.133,283.805 313.913,278.286" stroke-width="4.500" stroke="black" fill="none" stroke-linecap="round"></path><path d="M 313.913,278.286 C 267.851,273.013 267.566,272.690 221.228,272.690" stroke-width="4.500" stroke="black" fill="none" stroke-linecap="round"></path><path d="M 221.228,272.690 C 177.279,272.690 177.046,273.478 133.338,278.286" stroke-width="4.500" stroke="black" fill="none" stroke-linecap="round"></path><path d="M 133.338,278.286 C 100.742,281.871 100.575,282.341 68.619,289.477" stroke-width="4.500" stroke="black" fill="none" stroke-linecap="round"></path><path d="M 68.619,289.477 C 55.831,292.333 51.220,292.741 43.850,298.271" stroke-width="4.500" stroke="black" fill="none" stroke-linecap="round"></path><path d="M 43.850,298.271 C 41.632,299.935 45.948,302.410 49.443,303.867" stroke-width="4.500" stroke="black" fill="none" stroke-linecap="round"></path><path d="M 49.443,303.867 C 55.536,306.407 56.214,305.189 63.026,306.265" stroke-width="4.793" stroke="black" fill="none" stroke-linecap="round"></path><path d="M 63.026,306.265 C 94.167,311.184 94.192,311.031 125.348,315.858" stroke-width="4.500" stroke="black" fill="none" stroke-linecap="round"></path><path d="M 125.348,315.858 C 156.115,320.624 156.129,320.538 186.871,325.451" stroke-width="4.500" stroke="black" fill="none" stroke-linecap="round"></path><path d="M 186.871,325.451 C 213.657,329.731 213.605,330.062 240.405,334.244" stroke-width="4.500" stroke="black" fill="none" stroke-linecap="round"></path><path d="M 240.405,334.244 C 257.151,336.857 257.226,336.396 273.963,339.040" stroke-width="4.500" stroke="black" fill="none" stroke-linecap="round"></path><path d="M 273.963,339.040 C 279.997,339.994 279.955,340.240 285.948,341.439" stroke-width="4.500" stroke="black" fill="none" stroke-linecap="round"></path><circle r="3" cx="251.59054565429688" cy="329.4475402832031" fill="black"></circle></svg>