<svg xmlns="http://www.w3.org/2000/svg" xmlns:xlink="http://www.w3.org/1999/xlink" viewBox="0 0 576 416" width="576" height="416"><path d="M 78.207,207.538 C 78.207,211.935 78.061,211.939 78.207,216.332" stroke-width="8.613" stroke="black" fill="none" stroke-linecap="round"></path><path d="M 78.207,216.332 C 78.460,223.930 78.358,223.948 79.006,231.520" stroke-width="6.736" stroke="black" fill="none" stroke-linecap="round"></path><path d="M 79.006,231.520 C 79.556,237.938 79.771,237.920 80.604,244.311" stroke-width="5.406" stroke="black" fill="none" stroke-linecap="round"></path><path d="M 80.604,244.311 C 80.970,247.113 80.677,247.181 81.403,249.907" stroke-width="6.221" stroke="black" fill="none" stroke-linecap="round"></path><path d="M 81.403,249.907 C 83.873,259.172 84.150,259.116 86.996,268.293" stroke-width="4.557" stroke="black" fill="none" stroke-linecap="round"></path><path d="M 86.996,268.293 C 87.745,270.707 87.507,270.814 88.594,273.089" stroke-width="5.946" stroke="black" fill="none" stroke-linecap="round"></path><path d="M 88.594,273.089 C 91.901,280.008 91.565,280.346 95.785,286.679" stroke-width="5.036" stroke="black" fill="none" stroke-linecap="round"></path><path d="M 95.785,286.679 C 97.957,289.938 97.931,290.626 101.378,292.275" stroke-width="5.762" stroke="black" fill="none" stroke-linecap="round"></path><path d="M 101.378,292.275 C 107.120,295.022 108.418,296.704 114.162,295.473" stroke-width="5.734" stroke="black" fill="none" stroke-linecap="round"></path><path d="M 114.162,295.473 C 119.604,294.306 119.596,292.050 123.750,287.479" stroke-width="6.269" stroke="black" fill="none" stroke-linecap="round"></path><path d="M 123.750,287.479 C 127.586,283.257 127.741,283.061 130.142,277.886" stroke-width="5.606" stroke="black" fill="none" stroke-linecap="round"></path><path d="M 130.142,277.886 C 132.934,271.870 132.376,271.555 134.137,265.095" stroke-width="5.192" stroke="black" fill="none" stroke-linecap="round"></path><path d="M 134.137,265.095 C 135.972,258.365 136.350,258.389 137.333,251.505" stroke-width="5.014" stroke="black" fill="none" stroke-linecap="round"></path><path d="M 137.333,251.505 C 138.348,244.400 138.132,244.312 138.132,237.116" stroke-width="4.913" stroke="black" fill="none" stroke-linecap="round"></path><path d="M 138.132,237.116 C 138.132,229.123 137.890,229.111 137.333,221.128" stroke-width="4.715" stroke="black" fill="none" stroke-linecap="round"></path><path d="M 137.333,221.128 C 136.692,211.924 136.711,211.916 135.735,202.742" stroke-width="4.500" stroke="black" fill="none" stroke-linecap="round"></path><path d="M 135.735,202.742 C 134.713,193.130 134.761,193.115 133.338,183.556" stroke-width="4.500" stroke="black" fill="none" stroke-linecap="round"></path><path d="M 133.338,183.556 C 131.965,174.329 131.775,174.357 130.142,165.170" stroke-width="4.500" stroke="black" fill="none" stroke-linecap="round"></path><path d="M 130.142,165.170 C 128.579,156.370 128.618,156.362 126.946,147.583" stroke-width="4.500" stroke="black" fill="none" stroke-linecap="round"></path><path d="M 126.946,147.583 C 125.422,139.575 125.517,139.551 123.750,131.595" stroke-width="4.606" stroke="black" fill="none" stroke-linecap="round"></path><path d="M 123.750,131.595 C 122.321,125.162 122.100,125.212 120.554,118.804" stroke-width="4.831" stroke="black" fill="none" stroke-linecap="round"></path><path d="M 120.554,118.804 C 119.304,113.621 119.339,113.612 118.157,108.412" stroke-width="5.300" stroke="black" fill="none" stroke-linecap="round"></path><path d="M 118.157,108.412 C 117.341,104.819 117.507,104.774 116.559,101.218" stroke-width="5.949" stroke="black" fill="none" stroke-linecap="round"></path><path d="M 116.559,101.218 C 115.909,98.778 114.102,95.562 114.961,96.421" stroke-width="6.608" stroke="black" fill="none" stroke-linecap="round"></path><path d="M 114.961,96.421 C 117.298,98.759 119.229,101.840 122.951,107.613" stroke-width="7.481" stroke="black" fill="none" stroke-linecap="round"></path><path d="M 122.951,107.613 C 127.219,114.231 126.914,114.427 130.941,121.203" stroke-width="5.263" stroke="black" fill="none" stroke-linecap="round"></path><path d="M 130.941,121.203 C 135.703,129.216 135.990,129.054 140.529,137.191" stroke-width="4.544" stroke="black" fill="none" stroke-linecap="round"></path><path d="M 140.529,137.191 C 145.578,146.241 145.483,146.304 150.117,155.577" stroke-width="4.500" stroke="black" fill="none" stroke-linecap="round"></path><path d="M 150.117,155.577 C 155.071,165.490 155.152,165.461 159.705,175.562" stroke-width="4.500" stroke="black" fill="none" stroke-linecap="round"></path><path d="M 159.705,175.562 C 164.341,185.846 164.272,185.885 168.494,196.347" stroke-width="4.500" stroke="black" fill="none" stroke-linecap="round"></path><path d="M 168.494,196.347 C 172.661,206.670 172.846,206.616 176.484,217.131" stroke-width="4.500" stroke="black" fill="none" stroke-linecap="round"></path><path d="M 176.484,217.131 C 180.037,227.400 179.947,227.449 182.876,237.916" stroke-width="4.500" stroke="black" fill="none" stroke-linecap="round"></path><path d="M 182.876,237.916 C 185.540,247.434 185.176,247.534 187.670,257.101" stroke-width="4.500" stroke="black" fill="none" stroke-linecap="round"></path><path d="M 187.670,257.101 C 189.970,265.920 189.992,265.916 192.464,274.688" stroke-width="4.500" stroke="black" fill="none" stroke-linecap="round"></path><path d="M 192.464,274.688 C 194.386,281.505 194.425,281.494 196.459,288.278" stroke-width="4.638" stroke="black" fill="none" stroke-linecap="round"></path><path d="M 196.459,288.278 C 198.021,293.485 198.008,293.490 199.655,298.670" stroke-width="5.203" stroke="black" fill="none" stroke-linecap="round"></path><path d="M 199.655,298.670 C 200.805,302.283 200.854,302.268 202.052,305.865" stroke-width="5.878" stroke="black" fill="none" stroke-linecap="round"></path><path d="M 202.052,305.865 C 202.851,308.263 204.024,310.661 203.650,310.661" stroke-width="7.123" stroke="black" fill="none" stroke-linecap="round"></path><path d="M 203.650,310.661 C 203.225,310.661 201.851,308.380 200.454,305.865" stroke-width="7.771" stroke="black" fill="none" stroke-linecap="round"></path><path d="M 200.454,305.865 C 197.856,301.185 198.057,301.068 195.660,296.272" stroke-width="6.044" stroke="black" fill="none" stroke-linecap="round"></path><path d="M 195.660,296.272 C 192.065,289.077 192.134,289.042 188.469,281.883" stroke-width="4.975" stroke="black" fill="none" stroke-linecap="round"></path><path d="M 188.469,281.883 C 183.745,272.654 183.598,272.729 178.881,263.496" stroke-width="4.500" stroke="black" fill="none" stroke-linecap="round"></path><path d="M 178.881,263.496 C 174.409,254.743 174.568,254.662 170.092,245.910" stroke-width="4.500" stroke="black" fill="none" stroke-linecap="round"></path><path d="M 170.092,245.910 C 165.779,237.474 165.691,237.520 161.303,229.122" stroke-width="4.500" stroke="black" fill="none" stroke-linecap="round"></path><path d="M 161.303,229.122 C 156.502,219.933 156.432,219.969 151.715,210.736" stroke-width="4.500" stroke="black" fill="none" stroke-linecap="round"></path><path d="M 151.715,210.736 C 147.243,201.982 147.485,201.856 142.926,193.149" stroke-width="4.500" stroke="black" fill="none" stroke-linecap="round"></path><path d="M 142.926,193.149 C 138.696,185.069 138.887,184.936 134.137,177.161" stroke-width="4.500" stroke="black" fill="none" stroke-linecap="round"></path><path d="M 134.137,177.161 C 130.098,170.547 129.896,170.654 125.348,164.370" stroke-width="4.654" stroke="black" fill="none" stroke-linecap="round"></path><path d="M 125.348,164.370 C 121.507,159.063 121.853,158.689 117.358,153.978" stroke-width="4.945" stroke="black" fill="none" stroke-linecap="round"></path><path d="M 117.358,153.978 C 113.464,149.896 113.203,150.029 108.569,146.784" stroke-width="5.164" stroke="black" fill="none" stroke-linecap="round"></path><path d="M 108.569,146.784 C 105.213,144.433 105.215,143.853 101.378,142.787" stroke-width="5.763" stroke="black" fill="none" stroke-linecap="round"></path><path d="M 101.378,142.787 C 98.024,141.854 97.621,142.100 94.187,142.787" stroke-width="6.215" stroke="black" fill="none" stroke-linecap="round"></path><path d="M 94.187,142.787 C 91.628,143.299 91.424,143.523 89.393,145.185" stroke-width="7.211" stroke="black" fill="none" stroke-linecap="round"></path><path d="M 89.393,145.185 C 87.029,147.120 86.924,147.309 85.398,149.981" stroke-width="6.833" stroke="black" fill="none" stroke-linecap="round"></path><path d="M 85.398,149.981 C 83.728,152.905 83.912,153.097 83.001,156.376" stroke-width="6.456" stroke="black" fill="none" stroke-linecap="round"></path><path d="M 83.001,156.376 C 81.914,160.291 81.788,160.332 81.403,164.370" stroke-width="6.190" stroke="black" fill="none" stroke-linecap="round"></path><path d="M 81.403,164.370 C 80.989,168.726 81.054,168.792 81.403,173.164" stroke-width="6.007" stroke="black" fill="none" stroke-linecap="round"></path><path d="M 81.403,173.164 C 81.853,178.785 81.592,178.918 83.001,184.356" stroke-width="5.573" stroke="black" fill="none" stroke-linecap="round"></path><path d="M 83.001,184.356 C 84.389,189.710 84.369,189.894 86.996,194.748" stroke-width="5.478" stroke="black" fill="none" stroke-linecap="round"></path><path d="M 86.996,194.748 C 89.562,199.487 89.761,199.531 93.388,203.541" stroke-width="5.571" stroke="black" fill="none" stroke-linecap="round"></path><path d="M 93.388,203.541 C 97.352,207.924 97.293,208.277 102.177,211.535" stroke-width="5.280" stroke="black" fill="none" stroke-linecap="round"></path><path d="M 102.177,211.535 C 106.881,214.673 107.126,214.777 112.564,216.332" stroke-width="5.349" stroke="black" fill="none" stroke-linecap="round"></path><path d="M 112.564,216.332 C 118.312,217.975 118.561,217.931 124.549,217.931" stroke-width="5.286" stroke="black" fill="none" stroke-linecap="round"></path><path d="M 124.549,217.931 C 130.146,217.931 130.291,217.737 135.735,216.332" stroke-width="5.370" stroke="black" fill="none" stroke-linecap="round"></path><path d="M 135.735,216.332 C 142.676,214.540 142.787,214.506 149.318,211.535" stroke-width="5.011" stroke="black" fill="none" stroke-linecap="round"></path><path d="M 149.318,211.535 C 155.970,208.510 156.092,208.487 162.102,204.341" stroke-width="4.884" stroke="black" fill="none" stroke-linecap="round"></path><path d="M 162.102,204.341 C 167.678,200.493 167.696,200.343 172.489,195.547" stroke-width="4.964" stroke="black" fill="none" stroke-linecap="round"></path><path d="M 172.489,195.547 C 177.284,190.751 177.276,190.635 181.278,185.155" stroke-width="4.988" stroke="black" fill="none" stroke-linecap="round"></path><path d="M 181.278,185.155 C 184.866,180.243 184.694,180.081 187.670,174.763" stroke-width="5.161" stroke="black" fill="none" stroke-linecap="round"></path><path d="M 187.670,174.763 C 190.287,170.088 190.481,170.132 192.464,165.170" stroke-width="5.406" stroke="black" fill="none" stroke-linecap="round"></path><path d="M 192.464,165.170 C 194.476,160.139 194.345,160.043 195.660,154.778" stroke-width="5.464" stroke="black" fill="none" stroke-linecap="round"></path><path d="M 195.660,154.778 C 196.742,150.450 196.339,150.355 197.258,145.984" stroke-width="5.838" stroke="black" fill="none" stroke-linecap="round"></path><path d="M 197.258,145.984 C 197.937,142.761 198.316,142.832 198.856,139.589" stroke-width="6.203" stroke="black" fill="none" stroke-linecap="round"></path><path d="M 198.856,139.589 C 199.515,135.637 198.567,131.413 199.655,131.595" stroke-width="6.919" stroke="black" fill="none" stroke-linecap="round"></path><path d="M 199.655,131.595 C 200.964,131.813 202.342,135.806 203.650,140.388" stroke-width="7.782" stroke="black" fill="none" stroke-linecap="round"></path><path d="M 203.650,140.388 C 204.739,144.200 204.086,144.382 204.449,148.382" stroke-width="6.532" stroke="black" fill="none" stroke-linecap="round"></path><path d="M 204.449,148.382 C 204.885,153.176 205.048,153.171 205.248,157.975" stroke-width="5.961" stroke="black" fill="none" stroke-linecap="round"></path><path d="M 205.248,157.975 C 205.448,162.763 205.248,162.772 205.248,167.568" stroke-width="5.814" stroke="black" fill="none" stroke-linecap="round"></path><path d="M 205.248,167.568 C 205.248,171.965 205.248,171.965 205.248,176.362" stroke-width="5.896" stroke="black" fill="none" stroke-linecap="round"></path><path d="M 205.248,176.362 C 205.248,180.359 205.014,180.375 205.248,184.356" stroke-width="6.052" stroke="black" fill="none" stroke-linecap="round"></path><path d="M 205.248,184.356 C 205.414,187.170 205.648,187.153 206.047,189.951" stroke-width="6.527" stroke="black" fill="none" stroke-linecap="round"></path><path d="M 206.047,189.951 C 206.447,192.749 205.612,196.288 206.846,195.547" stroke-width="7.317" stroke="black" fill="none" stroke-linecap="round"></path><path d="M 206.846,195.547 C 209.607,193.890 210.635,190.474 214.037,185.155" stroke-width="7.244" stroke="black" fill="none" stroke-linecap="round"></path><path d="M 214.037,185.155 C 217.027,180.481 216.988,180.442 219.630,175.562" stroke-width="5.882" stroke="black" fill="none" stroke-linecap="round"></path><path d="M 219.630,175.562 C 222.182,170.849 221.705,170.574 224.425,165.969" stroke-width="5.623" stroke="black" fill="none" stroke-linecap="round"></path><path d="M 224.425,165.969 C 226.899,161.780 227.417,162.095 230.017,157.975" stroke-width="5.689" stroke="black" fill="none" stroke-linecap="round"></path><path d="M 230.017,157.975 C 232.211,154.500 231.603,154.068 234.013,150.781" stroke-width="6.022" stroke="black" fill="none" stroke-linecap="round"></path><path d="M 234.013,150.781 C 235.998,148.072 236.033,147.834 238.806,145.984" stroke-width="6.228" stroke="black" fill="none" stroke-linecap="round"></path><path d="M 238.806,145.984 C 242.025,143.837 242.742,142.554 245.998,142.787" stroke-width="6.947" stroke="black" fill="none" stroke-linecap="round"></path><path d="M 245.998,142.787 C 248.335,142.954 248.873,144.356 249.993,146.784" stroke-width="7.853" stroke="black" fill="none" stroke-linecap="round"></path><path d="M 249.993,146.784 C 251.270,149.552 249.514,150.410 250.792,153.179" stroke-width="7.624" stroke="black" fill="none" stroke-linecap="round"></path><path d="M 250.792,153.179 C 251.911,155.606 252.410,157.516 254.787,157.176" stroke-width="7.963" stroke="black" fill="none" stroke-linecap="round"></path><path d="M 254.787,157.176 C 260.799,156.316 261.227,154.071 267.571,150.781" stroke-width="6.705" stroke="black" fill="none" stroke-linecap="round"></path><path d="M 267.571,150.781 C 272.014,148.476 271.815,148.051 276.360,145.984" stroke-width="5.941" stroke="black" fill="none" stroke-linecap="round"></path><path d="M 276.360,145.984 C 280.604,144.054 280.653,144.013 285.149,142.787" stroke-width="5.846" stroke="black" fill="none" stroke-linecap="round"></path><path d="M 285.149,142.787 C 289.442,141.615 289.523,141.409 293.938,141.188" stroke-width="5.883" stroke="black" fill="none" stroke-linecap="round"></path><path d="M 293.938,141.188 C 297.513,141.009 297.811,140.764 301.129,141.987" stroke-width="6.178" stroke="black" fill="none" stroke-linecap="round"></path><path d="M 301.129,141.987 C 305.402,143.562 305.508,143.945 309.119,146.784" stroke-width="6.772" stroke="black" fill="none" stroke-linecap="round"></path><path d="M 309.119,146.784 C 311.101,148.342 310.332,149.222 312.315,150.781" stroke-width="6.873" stroke="black" fill="none" stroke-linecap="round"></path><path d="M 312.315,150.781 C 315.925,153.619 316.093,155.728 320.305,155.577" stroke-width="7.006" stroke="black" fill="none" stroke-linecap="round"></path><path d="M 320.305,155.577 C 327.279,155.328 328.221,154.002 334.687,149.981" stroke-width="6.414" stroke="black" fill="none" stroke-linecap="round"></path><path d="M 334.687,149.981 C 343.003,144.809 342.971,144.273 349.868,137.191" stroke-width="4.643" stroke="black" fill="none" stroke-linecap="round"></path><path d="M 349.868,137.191 C 358.152,128.684 357.735,128.212 365.049,118.804" stroke-width="4.500" stroke="black" fill="none" stroke-linecap="round"></path><path d="M 365.049,118.804 C 371.718,110.226 371.955,110.342 377.833,101.218" stroke-width="4.500" stroke="black" fill="none" stroke-linecap="round"></path><path d="M 377.833,101.218 C 383.541,92.355 383.231,92.133 388.220,82.831" stroke-width="4.500" stroke="black" fill="none" stroke-linecap="round"></path><path d="M 388.220,82.831 C 392.020,75.746 392.105,75.765 395.411,68.442" stroke-width="4.500" stroke="black" fill="none" stroke-linecap="round"></path><path d="M 395.411,68.442 C 397.698,63.374 398.437,63.379 399.406,58.050" stroke-width="5.117" stroke="black" fill="none" stroke-linecap="round"></path><path d="M 399.406,58.050 C 400.035,54.585 400.402,53.100 398.607,50.855" stroke-width="5.828" stroke="black" fill="none" stroke-linecap="round"></path><path d="M 398.607,50.855 C 397.206,49.103 395.769,49.859 393.014,50.056" stroke-width="6.447" stroke="black" fill="none" stroke-linecap="round"></path><path d="M 393.014,50.056 C 390.176,50.259 390.049,50.434 387.421,51.655" stroke-width="6.626" stroke="black" fill="none" stroke-linecap="round"></path><path d="M 387.421,51.655 C 378.863,55.630 378.718,55.529 370.642,60.448" stroke-width="4.768" stroke="black" fill="none" stroke-linecap="round"></path><path d="M 370.642,60.448 C 360.341,66.721 360.477,66.997 350.667,74.038" stroke-width="4.500" stroke="black" fill="none" stroke-linecap="round"></path><path d="M 350.667,74.038 C 342.100,80.187 341.617,79.722 333.888,86.828" stroke-width="4.500" stroke="black" fill="none" stroke-linecap="round"></path><path d="M 333.888,86.828 C 326.836,93.312 327.189,93.776 321.104,101.218" stroke-width="4.500" stroke="black" fill="none" stroke-linecap="round"></path><path d="M 321.104,101.218 C 316.403,106.966 315.770,106.727 312.315,113.209" stroke-width="4.562" stroke="black" fill="none" stroke-linecap="round"></path><path d="M 312.315,113.209 C 309.378,118.719 309.166,119.059 308.320,125.200" stroke-width="4.966" stroke="black" fill="none" stroke-linecap="round"></path><path d="M 308.320,125.200 C 307.568,130.651 308.083,130.950 309.119,136.391" stroke-width="5.276" stroke="black" fill="none" stroke-linecap="round"></path><path d="M 309.119,136.391 C 309.681,139.344 310.043,139.334 311.516,141.987" stroke-width="6.214" stroke="black" fill="none" stroke-linecap="round"></path><path d="M 311.516,141.987 C 314.037,146.529 313.910,146.692 317.109,150.781" stroke-width="5.756" stroke="black" fill="none" stroke-linecap="round"></path><path d="M 317.109,150.781 C 321.101,155.885 321.403,155.673 325.898,160.373" stroke-width="5.177" stroke="black" fill="none" stroke-linecap="round"></path><path d="M 325.898,160.373 C 330.192,164.866 330.397,164.670 334.687,169.167" stroke-width="5.192" stroke="black" fill="none" stroke-linecap="round"></path><path d="M 334.687,169.167 C 338.786,173.464 338.731,173.520 342.677,177.960" stroke-width="5.265" stroke="black" fill="none" stroke-linecap="round"></path><path d="M 342.677,177.960 C 345.123,180.714 345.074,180.758 347.471,183.556" stroke-width="5.936" stroke="black" fill="none" stroke-linecap="round"></path><path d="M 190.866,309.063 C 186.472,309.462 182.947,311.950 182.077,309.862" stroke-width="8.120" stroke="black" fill="none" stroke-linecap="round"></path><path d="M 182.077,309.862 C 180.950,307.154 183.358,303.864 186.871,299.470" stroke-width="7.987" stroke="black" fill="none" stroke-linecap="round"></path><path d="M 186.871,299.470 C 192.946,291.873 193.912,292.509 201.253,285.880" stroke-width="4.858" stroke="black" fill="none" stroke-linecap="round"></path><path d="M 201.253,285.880 C 210.291,277.720 210.246,277.648 219.630,269.892" stroke-width="4.500" stroke="black" fill="none" stroke-linecap="round"></path><path d="M 219.630,269.892 C 228.623,262.459 228.699,262.539 238.008,255.502" stroke-width="4.500" stroke="black" fill="none" stroke-linecap="round"></path><path d="M 238.008,255.502 C 246.677,248.949 246.724,249.004 255.586,242.712" stroke-width="4.500" stroke="black" fill="none" stroke-linecap="round"></path><path d="M 255.586,242.712 C 259.109,240.210 258.904,239.781 262.777,237.916" stroke-width="5.059" stroke="black" fill="none" stroke-linecap="round"></path><path d="M 262.777,237.916 C 269.691,234.585 269.756,233.992 277.159,232.320" stroke-width="4.815" stroke="black" fill="none" stroke-linecap="round"></path><path d="M 277.159,232.320 C 282.141,231.194 282.507,231.564 287.546,232.320" stroke-width="5.247" stroke="black" fill="none" stroke-linecap="round"></path><path d="M 287.546,232.320 C 290.497,232.763 290.752,232.981 293.139,234.718" stroke-width="6.143" stroke="black" fill="none" stroke-linecap="round"></path><path d="M 293.139,234.718 C 295.146,236.179 294.869,236.620 296.335,238.715" stroke-width="6.665" stroke="black" fill="none" stroke-linecap="round"></path><path d="M 296.335,238.715 C 300.462,244.614 300.120,244.864 304.325,250.706" stroke-width="5.501" stroke="black" fill="none" stroke-linecap="round"></path><path d="M 304.325,250.706 C 307.311,254.856 307.035,255.221 310.717,258.700" stroke-width="5.582" stroke="black" fill="none" stroke-linecap="round"></path><path d="M 310.717,258.700 C 314.226,262.016 314.316,262.386 318.707,264.296" stroke-width="5.677" stroke="black" fill="none" stroke-linecap="round"></path><path d="M 318.707,264.296 C 323.505,266.383 323.858,266.694 329.094,266.694" stroke-width="5.574" stroke="black" fill="none" stroke-linecap="round"></path><path d="M 329.094,266.694 C 336.642,266.694 337.081,266.793 344.275,264.296" stroke-width="4.953" stroke="black" fill="none" stroke-linecap="round"></path><path d="M 344.275,264.296 C 356.657,259.998 356.864,259.746 368.245,253.104" stroke-width="4.500" stroke="black" fill="none" stroke-linecap="round"></path><path d="M 368.245,253.104 C 380.834,245.757 380.926,245.558 392.215,236.317" stroke-width="4.500" stroke="black" fill="none" stroke-linecap="round"></path><path d="M 392.215,236.317 C 402.899,227.571 402.825,227.298 412.190,217.131" stroke-width="4.500" stroke="black" fill="none" stroke-linecap="round"></path><path d="M 412.190,217.131 C 421.602,206.913 421.393,206.650 429.768,195.547" stroke-width="4.500" stroke="black" fill="none" stroke-linecap="round"></path><path d="M 429.768,195.547 C 437.373,185.466 436.848,185.076 444.150,174.763" stroke-width="4.500" stroke="black" fill="none" stroke-linecap="round"></path><path d="M 444.150,174.763 C 450.431,165.891 450.913,166.212 456.934,157.176" stroke-width="4.500" stroke="black" fill="none" stroke-linecap="round"></path><path d="M 456.934,157.176 C 461.300,150.624 461.120,150.485 464.924,143.586" stroke-width="4.500" stroke="black" fill="none" stroke-linecap="round"></path><path d="M 464.924,143.586 C 467.512,138.893 467.546,138.883 469.718,133.993" stroke-width="5.067" stroke="black" fill="none" stroke-linecap="round"></path><path d="M 469.718,133.993 C 470.742,131.688 472.095,129.041 471.316,129.197" stroke-width="6.732" stroke="black" fill="none" stroke-linecap="round"></path><path d="M 471.316,129.197 C 470.097,129.441 468.357,131.847 465.723,134.793" stroke-width="7.120" stroke="black" fill="none" stroke-linecap="round"></path><path d="M 465.723,134.793 C 461.566,139.441 461.179,139.213 457.733,144.385" stroke-width="5.752" stroke="black" fill="none" stroke-linecap="round"></path><path d="M 457.733,144.385 C 453.189,151.204 453.257,151.352 449.743,158.775" stroke-width="4.763" stroke="black" fill="none" stroke-linecap="round"></path><path d="M 449.743,158.775 C 446.066,166.540 446.128,166.626 443.351,174.763" stroke-width="4.555" stroke="black" fill="none" stroke-linecap="round"></path><path d="M 443.351,174.763 C 440.535,183.013 440.531,183.058 438.557,191.550" stroke-width="4.500" stroke="black" fill="none" stroke-linecap="round"></path><path d="M 438.557,191.550 C 436.536,200.245 436.829,200.322 435.361,209.137" stroke-width="4.500" stroke="black" fill="none" stroke-linecap="round"></path><path d="M 435.361,209.137 C 434.033,217.110 433.598,217.089 432.964,225.125" stroke-width="4.638" stroke="black" fill="none" stroke-linecap="round"></path><path d="M 432.964,225.125 C 432.399,232.278 432.964,232.320 432.964,239.514" stroke-width="4.801" stroke="black" fill="none" stroke-linecap="round"></path><path d="M 432.964,239.514 C 432.964,245.510 432.538,245.542 432.964,251.505" stroke-width="5.036" stroke="black" fill="none" stroke-linecap="round"></path><path d="M 432.964,251.505 C 433.337,256.734 433.448,256.773 434.562,261.898" stroke-width="5.392" stroke="black" fill="none" stroke-linecap="round"></path><path d="M 434.562,261.898 C 435.446,265.966 435.843,265.872 436.959,269.892" stroke-width="5.828" stroke="black" fill="none" stroke-linecap="round"></path><path d="M 436.959,269.892 C 437.840,273.067 437.407,273.219 438.557,276.287" stroke-width="6.273" stroke="black" fill="none" stroke-linecap="round"></path><circle r="3" cx="393.812744140625" cy="190.75076293945312" fill="black"></circle></svg>