<svg xmlns="http://www.w3.org/2000/svg" xmlns:xlink="http://www.w3.org/1999/xlink" viewBox="0 0 576 416" width="576" height="416"><path d="M 378.632,291.476 C 378.232,286.280 378.319,286.272 377.833,281.083" stroke-width="7.329" stroke="black" fill="none" stroke-linecap="round"></path><path d="M 377.833,281.083 C 377.120,273.481 376.778,273.508 376.235,265.895" stroke-width="5.303" stroke="black" fill="none" stroke-linecap="round"></path><path d="M 376.235,265.895 C 375.580,256.721 375.640,256.706 375.436,247.508" stroke-width="4.676" stroke="black" fill="none" stroke-linecap="round"></path><path d="M 375.436,247.508 C 375.240,238.719 375.436,238.715 375.436,229.922" stroke-width="4.500" stroke="black" fill="none" stroke-linecap="round"></path><path d="M 375.436,229.922 C 375.436,225.525 375.436,225.525 375.436,221.128" stroke-width="5.413" stroke="black" fill="none" stroke-linecap="round"></path><path d="M 375.436,221.128 C 375.436,212.335 374.781,212.280 375.436,203.541" stroke-width="4.680" stroke="black" fill="none" stroke-linecap="round"></path><path d="M 375.436,203.541 C 375.979,196.292 376.741,196.363 377.833,189.152" stroke-width="4.793" stroke="black" fill="none" stroke-linecap="round"></path><path d="M 377.833,189.152 C 378.738,183.172 378.079,183.021 379.431,177.161" stroke-width="5.021" stroke="black" fill="none" stroke-linecap="round"></path><path d="M 379.431,177.161 C 380.476,172.629 380.067,172.111 382.627,168.367" stroke-width="5.545" stroke="black" fill="none" stroke-linecap="round"></path><path d="M 382.627,168.367 C 385.260,164.517 385.494,163.254 389.818,161.972" stroke-width="5.597" stroke="black" fill="none" stroke-linecap="round"></path><path d="M 389.818,161.972 C 396.280,160.057 397.108,161.085 404.200,161.972" stroke-width="6.087" stroke="black" fill="none" stroke-linecap="round"></path><path d="M 404.200,161.972 C 413.088,163.084 413.090,163.599 421.778,165.969" stroke-width="4.879" stroke="black" fill="none" stroke-linecap="round"></path><path d="M 421.778,165.969 C 430.668,168.395 430.586,168.708 439.356,171.565" stroke-width="4.500" stroke="black" fill="none" stroke-linecap="round"></path><path d="M 439.356,171.565 C 447.765,174.304 447.834,174.122 456.135,177.161" stroke-width="4.500" stroke="black" fill="none" stroke-linecap="round"></path><path d="M 456.135,177.161 C 464.213,180.118 464.306,179.967 472.115,183.556" stroke-width="4.538" stroke="black" fill="none" stroke-linecap="round"></path><path d="M 472.115,183.556 C 479.088,186.762 479.161,186.742 485.698,190.751" stroke-width="4.668" stroke="black" fill="none" stroke-linecap="round"></path><path d="M 485.698,190.751 C 491.545,194.336 491.846,194.162 496.884,198.745" stroke-width="4.788" stroke="black" fill="none" stroke-linecap="round"></path><path d="M 496.884,198.745 C 500.635,202.156 501.227,202.230 503.276,206.739" stroke-width="5.340" stroke="black" fill="none" stroke-linecap="round"></path><path d="M 503.276,206.739 C 505.222,211.023 504.874,211.581 504.874,216.332" stroke-width="5.604" stroke="black" fill="none" stroke-linecap="round"></path><path d="M 504.874,216.332 C 504.874,219.175 504.852,219.562 503.276,221.928" stroke-width="6.332" stroke="black" fill="none" stroke-linecap="round"></path><path d="M 503.276,221.928 C 500.058,226.757 499.842,226.976 495.286,230.721" stroke-width="5.666" stroke="black" fill="none" stroke-linecap="round"></path><path d="M 495.286,230.721 C 488.656,236.169 488.423,236.094 480.904,240.314" stroke-width="4.766" stroke="black" fill="none" stroke-linecap="round"></path><path d="M 480.904,240.314 C 472.043,245.287 472.130,245.970 462.527,249.107" stroke-width="4.500" stroke="black" fill="none" stroke-linecap="round"></path><path d="M 462.527,249.107 C 452.555,252.365 452.187,251.400 441.753,253.104" stroke-width="4.500" stroke="black" fill="none" stroke-linecap="round"></path><path d="M 441.753,253.104 C 432.612,254.597 432.543,255.502 423.376,255.502" stroke-width="4.500" stroke="black" fill="none" stroke-linecap="round"></path><path d="M 423.376,255.502 C 416.164,255.502 415.632,255.564 408.994,253.104" stroke-width="4.642" stroke="black" fill="none" stroke-linecap="round"></path><path d="M 408.994,253.104 C 404.845,251.567 403.718,251.128 401.803,247.508" stroke-width="5.501" stroke="black" fill="none" stroke-linecap="round"></path><path d="M 401.803,247.508 C 400.122,244.333 400.874,243.230 401.803,239.514" stroke-width="5.842" stroke="black" fill="none" stroke-linecap="round"></path><path d="M 401.803,239.514 C 402.472,236.835 403.041,236.807 404.999,234.718" stroke-width="6.492" stroke="black" fill="none" stroke-linecap="round"></path><path d="M 404.999,234.718 C 409.034,230.412 409.057,230.274 413.788,226.724" stroke-width="5.502" stroke="black" fill="none" stroke-linecap="round"></path><path d="M 413.788,226.724 C 418.645,223.079 418.682,222.865 424.175,220.329" stroke-width="5.316" stroke="black" fill="none" stroke-linecap="round"></path><path d="M 424.175,220.329 C 429.069,218.069 429.264,218.191 434.562,217.131" stroke-width="5.437" stroke="black" fill="none" stroke-linecap="round"></path><path d="M 434.562,217.131 C 439.252,216.193 439.419,216.083 444.150,216.332" stroke-width="5.730" stroke="black" fill="none" stroke-linecap="round"></path><path d="M 444.150,216.332 C 447.010,216.482 446.986,217.011 449.743,217.931" stroke-width="6.380" stroke="black" fill="none" stroke-linecap="round"></path><path d="M 449.743,217.931 C 452.978,219.010 457.846,218.098 456.135,220.329" stroke-width="7.098" stroke="black" fill="none" stroke-linecap="round"></path><path d="M 456.135,220.329 C 444.662,235.285 440.997,237.880 423.376,252.305" stroke-width="4.500" stroke="black" fill="none" stroke-linecap="round"></path><path d="M 423.376,252.305 C 410.235,263.062 409.937,263.536 394.612,270.691" stroke-width="4.500" stroke="black" fill="none" stroke-linecap="round"></path><path d="M 394.612,270.691 C 379.975,277.525 379.269,276.478 363.451,280.284" stroke-width="4.500" stroke="black" fill="none" stroke-linecap="round"></path><path d="M 363.451,280.284 C 347.709,284.072 347.552,283.670 331.491,285.880" stroke-width="4.500" stroke="black" fill="none" stroke-linecap="round"></path><path d="M 331.491,285.880 C 315.591,288.067 315.549,288.245 299.531,289.077" stroke-width="4.500" stroke="black" fill="none" stroke-linecap="round"></path><path d="M 299.531,289.077 C 284.787,289.844 284.696,289.932 269.968,289.077" stroke-width="4.500" stroke="black" fill="none" stroke-linecap="round"></path><path d="M 269.968,289.077 C 257.130,288.333 256.809,288.929 244.400,285.880" stroke-width="4.500" stroke="black" fill="none" stroke-linecap="round"></path><path d="M 244.400,285.880 C 234.038,283.333 233.889,282.846 224.425,277.886" stroke-width="4.500" stroke="black" fill="none" stroke-linecap="round"></path><path d="M 224.425,277.886 C 217.110,274.052 216.211,274.310 210.841,268.293" stroke-width="4.500" stroke="black" fill="none" stroke-linecap="round"></path><path d="M 210.841,268.293 C 206.224,263.119 206.088,262.265 204.449,255.502" stroke-width="4.617" stroke="black" fill="none" stroke-linecap="round"></path><path d="M 204.449,255.502 C 202.892,249.075 203.590,248.505 204.449,241.913" stroke-width="4.880" stroke="black" fill="none" stroke-linecap="round"></path><path d="M 204.449,241.913 C 204.789,239.312 205.528,239.449 206.846,237.116" stroke-width="6.105" stroke="black" fill="none" stroke-linecap="round"></path><path d="M 206.846,237.116 C 210.722,230.256 210.360,229.996 214.836,223.526" stroke-width="5.127" stroke="black" fill="none" stroke-linecap="round"></path><path d="M 214.836,223.526 C 221.146,214.407 221.482,214.616 228.419,205.939" stroke-width="4.500" stroke="black" fill="none" stroke-linecap="round"></path><path d="M 228.419,205.939 C 234.266,198.628 234.559,198.861 240.405,191.550" stroke-width="4.500" stroke="black" fill="none" stroke-linecap="round"></path><path d="M 240.405,191.550 C 244.147,186.870 244.218,186.897 247.596,181.957" stroke-width="4.863" stroke="black" fill="none" stroke-linecap="round"></path><path d="M 247.596,181.957 C 249.411,179.302 251.733,177.491 250.792,176.362" stroke-width="5.919" stroke="black" fill="none" stroke-linecap="round"></path><path d="M 250.792,176.362 C 249.735,175.093 246.919,175.857 243.601,177.161" stroke-width="6.896" stroke="black" fill="none" stroke-linecap="round"></path><path d="M 243.601,177.161 C 235.733,180.253 235.767,180.744 228.419,185.155" stroke-width="5.006" stroke="black" fill="none" stroke-linecap="round"></path><path d="M 228.419,185.155 C 217.789,191.536 217.606,191.379 207.645,198.745" stroke-width="4.500" stroke="black" fill="none" stroke-linecap="round"></path><path d="M 207.645,198.745 C 199.229,204.969 199.170,205.047 191.665,212.335" stroke-width="4.500" stroke="black" fill="none" stroke-linecap="round"></path><path d="M 191.665,212.335 C 185.587,218.237 184.988,218.109 180.479,225.125" stroke-width="4.500" stroke="black" fill="none" stroke-linecap="round"></path><path d="M 180.479,225.125 C 177.797,229.300 176.853,230.193 177.283,234.718" stroke-width="5.168" stroke="black" fill="none" stroke-linecap="round"></path><path d="M 177.283,234.718 C 177.652,238.587 178.884,239.357 182.077,241.913" stroke-width="5.702" stroke="black" fill="none" stroke-linecap="round"></path><path d="M 182.077,241.913 C 184.877,244.153 185.598,243.393 189.268,244.311" stroke-width="6.058" stroke="black" fill="none" stroke-linecap="round"></path><path d="M 189.268,244.311 C 195.186,245.791 195.332,245.228 201.253,246.709" stroke-width="5.552" stroke="black" fill="none" stroke-linecap="round"></path><path d="M 201.253,246.709 C 206.518,248.026 206.879,247.525 211.640,249.907" stroke-width="5.416" stroke="black" fill="none" stroke-linecap="round"></path><path d="M 211.640,249.907 C 214.869,251.522 216.625,251.863 217.233,254.703" stroke-width="5.992" stroke="black" fill="none" stroke-linecap="round"></path><path d="M 217.233,254.703 C 217.824,257.459 216.563,258.681 214.037,261.098" stroke-width="6.229" stroke="black" fill="none" stroke-linecap="round"></path><path d="M 214.037,261.098 C 207.375,267.475 206.923,267.447 198.856,272.290" stroke-width="4.712" stroke="black" fill="none" stroke-linecap="round"></path><path d="M 198.856,272.290 C 182.953,281.837 183.029,282.325 166.097,289.877" stroke-width="4.500" stroke="black" fill="none" stroke-linecap="round"></path><path d="M 166.097,289.877 C 149.870,297.114 149.649,297.066 132.539,301.868" stroke-width="4.500" stroke="black" fill="none" stroke-linecap="round"></path><path d="M 132.539,301.868 C 116.890,306.259 116.693,306.113 100.579,308.263" stroke-width="4.500" stroke="black" fill="none" stroke-linecap="round"></path><path d="M 100.579,308.263 C 86.731,310.110 86.451,310.770 72.614,309.862" stroke-width="4.500" stroke="black" fill="none" stroke-linecap="round"></path><path d="M 72.614,309.862 C 62.082,309.171 61.078,309.687 51.840,305.066" stroke-width="4.500" stroke="black" fill="none" stroke-linecap="round"></path><path d="M 51.840,305.066 C 43.500,300.894 42.622,300.025 37.458,292.275" stroke-width="4.500" stroke="black" fill="none" stroke-linecap="round"></path><path d="M 37.458,292.275 C 32.235,284.437 32.553,283.371 31.066,273.889" stroke-width="4.500" stroke="black" fill="none" stroke-linecap="round"></path><path d="M 31.066,273.889 C 29.357,262.986 30.082,262.583 31.066,251.505" stroke-width="4.500" stroke="black" fill="none" stroke-linecap="round"></path><path d="M 31.066,251.505 C 31.680,244.596 32.366,244.629 34.262,237.916" stroke-width="4.552" stroke="black" fill="none" stroke-linecap="round"></path><path d="M 34.262,237.916 C 37.559,226.243 36.375,225.648 41.453,214.733" stroke-width="4.500" stroke="black" fill="none" stroke-linecap="round"></path><path d="M 41.453,214.733 C 47.161,202.465 47.836,202.554 55.835,191.550" stroke-width="4.500" stroke="black" fill="none" stroke-linecap="round"></path><path d="M 55.835,191.550 C 63.816,180.571 63.734,180.248 73.413,170.766" stroke-width="4.500" stroke="black" fill="none" stroke-linecap="round"></path><path d="M 73.413,170.766 C 82.910,161.462 83.330,161.707 94.187,153.978" stroke-width="4.500" stroke="black" fill="none" stroke-linecap="round"></path><path d="M 94.187,153.978 C 104.104,146.918 104.006,146.346 114.961,141.188" stroke-width="4.500" stroke="black" fill="none" stroke-linecap="round"></path><path d="M 114.961,141.188 C 124.380,136.753 124.763,137.106 134.936,134.793" stroke-width="4.500" stroke="black" fill="none" stroke-linecap="round"></path><path d="M 134.936,134.793 C 142.341,133.109 142.776,132.459 150.117,133.194" stroke-width="4.500" stroke="black" fill="none" stroke-linecap="round"></path><path d="M 150.117,133.194 C 154.761,133.658 156.606,133.844 158.906,137.191" stroke-width="5.248" stroke="black" fill="none" stroke-linecap="round"></path><path d="M 158.906,137.191 C 161.001,140.239 160.420,142.046 158.906,145.984" stroke-width="5.709" stroke="black" fill="none" stroke-linecap="round"></path><path d="M 158.906,145.984 C 156.425,152.438 155.600,152.527 150.916,157.975" stroke-width="5.192" stroke="black" fill="none" stroke-linecap="round"></path><path d="M 150.916,157.975 C 138.421,172.512 138.312,172.557 124.549,185.954" stroke-width="4.500" stroke="black" fill="none" stroke-linecap="round"></path><path d="M 124.549,185.954 C 108.749,201.335 108.692,201.370 91.790,215.532" stroke-width="4.500" stroke="black" fill="none" stroke-linecap="round"></path><path d="M 91.790,215.532 C 76.732,228.150 75.806,227.034 60.629,239.514" stroke-width="4.500" stroke="black" fill="none" stroke-linecap="round"></path><path d="M 60.629,239.514 C 46.643,251.016 47.215,251.703 33.463,263.496" stroke-width="4.500" stroke="black" fill="none" stroke-linecap="round"></path><path d="M 33.463,263.496 C 22.047,273.287 21.708,272.893 10.292,282.682" stroke-width="4.500" stroke="black" fill="none" stroke-linecap="round"></path><path d="M 10.292,282.682 C 2.132,289.680 2.177,289.745 -5.688,297.071" stroke-width="4.500" stroke="black" fill="none" stroke-linecap="round"></path><path d="M -5.688,297.071 C -9.408,300.537 -9.283,300.669 -12.879,304.266" stroke-width="4.885" stroke="black" fill="none" stroke-linecap="round"></path></svg>