<svg xmlns="http://www.w3.org/2000/svg" xmlns:xlink="http://www.w3.org/1999/xlink" viewBox="0 0 576 416" width="576" height="416"><path d="M 439.356,234.318 C 442.152,242.712 443.023,242.571 444.949,251.105" stroke-width="8.482" stroke="black" fill="none" stroke-linecap="round"></path><path d="M 444.949,251.105 C 445.819,254.961 445.442,255.155 444.949,259.099" stroke-width="6.679" stroke="black" fill="none" stroke-linecap="round"></path><path d="M 444.949,259.099 C 444.243,264.747 443.750,264.695 442.552,270.291" stroke-width="5.809" stroke="black" fill="none" stroke-linecap="round"></path><path d="M 442.552,270.291 C 441.353,275.887 442.008,276.107 440.155,281.483" stroke-width="5.404" stroke="black" fill="none" stroke-linecap="round"></path><path d="M 440.155,281.483 C 438.013,287.698 437.518,287.558 434.562,293.474" stroke-width="5.159" stroke="black" fill="none" stroke-linecap="round"></path><path d="M 434.562,293.474 C 431.925,298.750 432.034,298.848 428.969,303.866" stroke-width="5.350" stroke="black" fill="none" stroke-linecap="round"></path><path d="M 428.969,303.866 C 427.640,306.042 427.371,305.865 425.773,307.863" stroke-width="6.359" stroke="black" fill="none" stroke-linecap="round"></path><path d="M 425.773,307.863 C 422.577,311.860 422.908,312.168 419.381,315.857" stroke-width="5.724" stroke="black" fill="none" stroke-linecap="round"></path><path d="M 419.381,315.857 C 414.119,321.361 414.446,322.340 408.195,326.249" stroke-width="5.935" stroke="black" fill="none" stroke-linecap="round"></path><path d="M 408.195,326.249 C 404.858,328.336 402.722,329.317 400.205,327.848" stroke-width="6.875" stroke="black" fill="none" stroke-linecap="round"></path><path d="M 400.205,327.848 C 397.928,326.519 398.607,324.240 398.607,320.654" stroke-width="7.538" stroke="black" fill="none" stroke-linecap="round"></path><path d="M 398.607,320.654 C 398.607,317.445 399.406,317.456 400.205,314.258" stroke-width="6.769" stroke="black" fill="none" stroke-linecap="round"></path><path d="M 400.205,314.258 C 401.403,309.462 401.302,309.434 402.602,304.666" stroke-width="5.976" stroke="black" fill="none" stroke-linecap="round"></path><path d="M 402.602,304.666 C 403.699,300.641 403.681,300.628 404.999,296.671" stroke-width="6.096" stroke="black" fill="none" stroke-linecap="round"></path><path d="M 404.999,296.671 C 406.078,293.433 406.248,293.492 407.396,290.276" stroke-width="6.243" stroke="black" fill="none" stroke-linecap="round"></path><path d="M 407.396,290.276 C 408.245,287.896 408.024,287.807 408.994,285.480" stroke-width="6.713" stroke="black" fill="none" stroke-linecap="round"></path><path d="M 408.994,285.480 C 410.022,283.011 411.536,279.955 411.391,280.683" stroke-width="7.422" stroke="black" fill="none" stroke-linecap="round"></path><path d="M 411.391,280.683 C 411.137,281.954 410.108,285.224 408.195,289.477" stroke-width="7.549" stroke="black" fill="none" stroke-linecap="round"></path><path d="M 408.195,289.477 C 406.512,293.218 406.343,293.163 404.200,296.671" stroke-width="6.445" stroke="black" fill="none" stroke-linecap="round"></path><path d="M 404.200,296.671 C 401.948,300.357 401.994,300.413 399.406,303.866" stroke-width="6.102" stroke="black" fill="none" stroke-linecap="round"></path><path d="M 399.406,303.866 C 397.200,306.809 396.969,306.631 394.612,309.462" stroke-width="6.225" stroke="black" fill="none" stroke-linecap="round"></path><path d="M 394.612,309.462 C 392.974,311.428 392.622,313.660 391.416,313.459" stroke-width="6.694" stroke="black" fill="none" stroke-linecap="round"></path><path d="M 391.416,313.459 C 390.225,313.260 390.872,308.487 389.818,308.663" stroke-width="7.908" stroke="black" fill="none" stroke-linecap="round"></path><path d="M 389.818,308.663 C 388.474,308.886 388.442,311.609 386.622,314.258" stroke-width="8.223" stroke="black" fill="none" stroke-linecap="round"></path><path d="M 386.622,314.258 C 384.048,318.004 384.023,318.030 381.029,321.453" stroke-width="6.412" stroke="black" fill="none" stroke-linecap="round"></path><path d="M 381.029,321.453 C 378.429,324.425 378.339,324.368 375.436,327.049" stroke-width="6.220" stroke="black" fill="none" stroke-linecap="round"></path><path d="M 375.436,327.049 C 373.145,329.164 373.271,329.427 370.642,331.046" stroke-width="6.470" stroke="black" fill="none" stroke-linecap="round"></path><path d="M 370.642,331.046 C 368.078,332.624 367.952,333.273 365.049,333.444" stroke-width="6.579" stroke="black" fill="none" stroke-linecap="round"></path><path d="M 365.049,333.444 C 361.161,333.673 359.903,334.081 357.059,331.845" stroke-width="7.042" stroke="black" fill="none" stroke-linecap="round"></path><path d="M 357.059,331.845 C 354.310,329.685 355.058,328.387 353.863,324.651" stroke-width="6.394" stroke="black" fill="none" stroke-linecap="round"></path><path d="M 353.863,324.651 C 351.862,318.394 351.431,318.358 350.667,311.860" stroke-width="5.405" stroke="black" fill="none" stroke-linecap="round"></path><path d="M 350.667,311.860 C 349.833,304.768 350.340,304.653 350.667,297.471" stroke-width="5.022" stroke="black" fill="none" stroke-linecap="round"></path><path d="M 350.667,297.471 C 351.139,287.066 350.794,286.986 352.265,276.686" stroke-width="4.500" stroke="black" fill="none" stroke-linecap="round"></path><path d="M 352.265,276.686 C 353.990,264.603 353.612,264.390 357.059,252.704" stroke-width="4.500" stroke="black" fill="none" stroke-linecap="round"></path><path d="M 357.059,252.704 C 360.803,240.008 361.032,239.932 366.647,227.923" stroke-width="4.500" stroke="black" fill="none" stroke-linecap="round"></path><path d="M 366.647,227.923 C 372.618,215.151 373.179,215.382 380.230,203.141" stroke-width="4.500" stroke="black" fill="none" stroke-linecap="round"></path><path d="M 380.230,203.141 C 386.762,191.800 386.561,191.641 393.813,180.758" stroke-width="4.500" stroke="black" fill="none" stroke-linecap="round"></path><path d="M 393.813,180.758 C 400.144,171.256 400.431,171.431 407.396,162.372" stroke-width="4.500" stroke="black" fill="none" stroke-linecap="round"></path><path d="M 407.396,162.372 C 412.416,155.842 412.511,155.910 417.783,149.581" stroke-width="4.500" stroke="black" fill="none" stroke-linecap="round"></path><path d="M 417.783,149.581 C 420.501,146.318 420.384,144.184 423.376,143.186" stroke-width="5.356" stroke="black" fill="none" stroke-linecap="round"></path><path d="M 423.376,143.186 C 425.178,142.585 427.237,144.235 427.371,146.384" stroke-width="7.070" stroke="black" fill="none" stroke-linecap="round"></path><path d="M 427.371,146.384 C 427.636,150.630 425.773,151.180 424.175,155.976" stroke-width="5.905" stroke="black" fill="none" stroke-linecap="round"></path><path d="M 424.175,155.976 C 420.979,165.569 421.590,165.813 417.783,175.162" stroke-width="4.523" stroke="black" fill="none" stroke-linecap="round"></path><path d="M 417.783,175.162 C 412.801,187.397 412.357,187.234 406.597,199.144" stroke-width="4.500" stroke="black" fill="none" stroke-linecap="round"></path><path d="M 406.597,199.144 C 400.372,212.015 400.575,212.133 393.813,224.725" stroke-width="4.500" stroke="black" fill="none" stroke-linecap="round"></path><path d="M 393.813,224.725 C 386.193,238.913 386.235,238.967 377.833,252.704" stroke-width="4.500" stroke="black" fill="none" stroke-linecap="round"></path><path d="M 377.833,252.704 C 369.855,265.747 369.633,265.624 361.054,278.285" stroke-width="4.500" stroke="black" fill="none" stroke-linecap="round"></path><path d="M 361.054,278.285 C 353.653,289.206 353.680,289.237 345.873,299.869" stroke-width="4.500" stroke="black" fill="none" stroke-linecap="round"></path><path d="M 345.873,299.869 C 339.298,308.822 339.282,308.827 332.290,317.456" stroke-width="4.500" stroke="black" fill="none" stroke-linecap="round"></path><path d="M 332.290,317.456 C 327.297,323.616 327.258,323.602 321.903,329.447" stroke-width="4.500" stroke="black" fill="none" stroke-linecap="round"></path><path d="M 321.903,329.447 C 318.469,333.195 318.625,333.460 314.712,336.642" stroke-width="5.165" stroke="black" fill="none" stroke-linecap="round"></path><path d="M 314.712,336.642 C 312.233,338.656 310.497,341.356 309.119,339.839" stroke-width="6.048" stroke="black" fill="none" stroke-linecap="round"></path><path d="M 309.119,339.839 C 306.502,336.960 306.329,333.745 306.722,327.848" stroke-width="7.074" stroke="black" fill="none" stroke-linecap="round"></path><path d="M 306.722,327.848 C 307.128,321.754 308.478,321.761 310.717,315.857" stroke-width="5.618" stroke="black" fill="none" stroke-linecap="round"></path><path d="M 310.717,315.857 C 312.873,310.170 313.170,310.285 315.511,304.666" stroke-width="5.351" stroke="black" fill="none" stroke-linecap="round"></path><path d="M 315.511,304.666 C 317.165,300.692 316.983,300.612 318.707,296.671" stroke-width="5.773" stroke="black" fill="none" stroke-linecap="round"></path><path d="M 318.707,296.671 C 319.780,294.217 321.436,291.543 321.104,291.875" stroke-width="6.482" stroke="black" fill="none" stroke-linecap="round"></path><path d="M 321.104,291.875 C 320.637,292.342 319.407,295.294 317.109,298.270" stroke-width="7.389" stroke="black" fill="none" stroke-linecap="round"></path><path d="M 317.109,298.270 C 312.616,304.087 312.514,304.050 307.521,309.462" stroke-width="5.382" stroke="black" fill="none" stroke-linecap="round"></path><path d="M 307.521,309.462 C 302.926,314.442 303.033,314.617 297.933,319.055" stroke-width="5.113" stroke="black" fill="none" stroke-linecap="round"></path><path d="M 297.933,319.055 C 293.845,322.611 293.691,322.492 289.144,325.450" stroke-width="5.371" stroke="black" fill="none" stroke-linecap="round"></path><path d="M 289.144,325.450 C 285.701,327.689 285.766,328.845 281.953,329.447" stroke-width="5.839" stroke="black" fill="none" stroke-linecap="round"></path><path d="M 281.953,329.447 C 278.176,330.044 276.201,330.088 273.963,327.848" stroke-width="6.766" stroke="black" fill="none" stroke-linecap="round"></path><path d="M 273.963,327.848 C 272.206,326.091 274.756,320.526 273.963,321.453" stroke-width="7.313" stroke="black" fill="none" stroke-linecap="round"></path><path d="M 273.963,321.453 C 272.359,323.324 272.629,328.149 269.169,333.444" stroke-width="7.806" stroke="black" fill="none" stroke-linecap="round"></path><path d="M 269.169,333.444 C 265.837,338.541 265.058,338.168 260.380,342.237" stroke-width="5.777" stroke="black" fill="none" stroke-linecap="round"></path><path d="M 260.380,342.237 C 255.869,346.162 256.063,346.795 250.792,349.432" stroke-width="5.320" stroke="black" fill="none" stroke-linecap="round"></path><path d="M 250.792,349.432 C 245.676,351.991 245.291,351.973 239.605,352.630" stroke-width="5.243" stroke="black" fill="none" stroke-linecap="round"></path><path d="M 239.605,352.630 C 234.904,353.172 234.445,353.229 230.017,351.830" stroke-width="5.502" stroke="black" fill="none" stroke-linecap="round"></path><path d="M 230.017,351.830 C 226.854,350.831 226.181,350.616 224.425,347.833" stroke-width="6.107" stroke="black" fill="none" stroke-linecap="round"></path><path d="M 224.425,347.833 C 221.387,343.022 221.281,342.436 220.429,336.642" stroke-width="5.304" stroke="black" fill="none" stroke-linecap="round"></path><path d="M 220.429,336.642 C 219.284,328.846 219.378,328.544 220.429,320.654" stroke-width="4.716" stroke="black" fill="none" stroke-linecap="round"></path><path d="M 220.429,320.654 C 222.574,304.561 222.307,304.281 226.822,288.677" stroke-width="4.500" stroke="black" fill="none" stroke-linecap="round"></path><path d="M 226.822,288.677 C 231.096,273.903 231.883,274.057 238.008,259.899" stroke-width="4.500" stroke="black" fill="none" stroke-linecap="round"></path><path d="M 238.008,259.899 C 243.468,247.277 243.253,247.081 249.993,235.117" stroke-width="4.500" stroke="black" fill="none" stroke-linecap="round"></path><path d="M 249.993,235.117 C 255.637,225.098 256.107,225.323 262.777,215.932" stroke-width="4.500" stroke="black" fill="none" stroke-linecap="round"></path><path d="M 262.777,215.932 C 266.893,210.135 266.595,209.713 271.566,204.740" stroke-width="4.500" stroke="black" fill="none" stroke-linecap="round"></path><path d="M 271.566,204.740 C 274.585,201.719 275.005,200.647 278.757,199.944" stroke-width="5.413" stroke="black" fill="none" stroke-linecap="round"></path><path d="M 278.757,199.944 C 281.397,199.448 283.264,200.015 284.350,202.342" stroke-width="6.210" stroke="black" fill="none" stroke-linecap="round"></path><path d="M 284.350,202.342 C 286.061,206.010 285.191,207.245 284.350,211.935" stroke-width="6.755" stroke="black" fill="none" stroke-linecap="round"></path><path d="M 284.350,211.935 C 282.394,222.834 282.505,223.050 278.757,233.519" stroke-width="4.500" stroke="black" fill="none" stroke-linecap="round"></path><path d="M 278.757,233.519 C 272.917,249.830 273.145,250.113 265.174,265.495" stroke-width="4.500" stroke="black" fill="none" stroke-linecap="round"></path><path d="M 265.174,265.495 C 256.366,282.489 255.366,281.995 245.199,298.270" stroke-width="4.500" stroke="black" fill="none" stroke-linecap="round"></path><path d="M 245.199,298.270 C 235.391,313.971 235.159,313.826 225.223,329.447" stroke-width="4.500" stroke="black" fill="none" stroke-linecap="round"></path><path d="M 225.223,329.447 C 215.584,344.603 215.590,344.608 206.047,359.824" stroke-width="4.500" stroke="black" fill="none" stroke-linecap="round"></path><path d="M 206.047,359.824 C 202.806,364.992 202.851,365.020 199.655,370.217" stroke-width="4.500" stroke="black" fill="none" stroke-linecap="round"></path><circle r="3" cx="412.98876953125" cy="267.0935363769531" fill="black"></circle></svg>