<svg xmlns="http://www.w3.org/2000/svg" xmlns:xlink="http://www.w3.org/1999/xlink" viewBox="0 0 576 416" width="576" height="416"><path d="M 224.425,326.649 C 220.829,311.860 220.510,311.930 217.233,297.071" stroke-width="7.551" stroke="black" fill="none" stroke-linecap="round"></path><path d="M 217.233,297.071 C 214.517,284.750 215.012,284.643 212.439,272.290" stroke-width="4.500" stroke="black" fill="none" stroke-linecap="round"></path><path d="M 212.439,272.290 C 211.017,265.457 210.686,265.529 209.243,258.700" stroke-width="4.951" stroke="black" fill="none" stroke-linecap="round"></path><path d="M 209.243,258.700 C 204.693,237.150 205.005,237.082 200.454,215.532" stroke-width="4.500" stroke="black" fill="none" stroke-linecap="round"></path><path d="M 200.454,215.532 C 199.012,208.703 198.681,208.775 197.258,201.942" stroke-width="4.500" stroke="black" fill="none" stroke-linecap="round"></path><path d="M 197.258,201.942 C 194.686,189.589 194.721,189.577 192.464,177.161" stroke-width="4.500" stroke="black" fill="none" stroke-linecap="round"></path><path d="M 192.464,177.161 C 189.927,163.197 190.183,163.150 187.670,149.182" stroke-width="4.500" stroke="black" fill="none" stroke-linecap="round"></path><path d="M 187.670,149.182 C 186.588,143.165 185.945,143.238 185.273,137.191" stroke-width="4.500" stroke="black" fill="none" stroke-linecap="round"></path><path d="M 185.273,137.191 C 184.747,132.446 184.573,128.532 185.273,127.598" stroke-width="5.995" stroke="black" fill="none" stroke-linecap="round"></path><path d="M 185.273,127.598 C 185.772,126.933 186.455,130.802 187.670,133.993" stroke-width="7.234" stroke="black" fill="none" stroke-linecap="round"></path><path d="M 187.670,133.993 C 189.651,139.196 189.678,139.185 191.665,144.385" stroke-width="5.876" stroke="black" fill="none" stroke-linecap="round"></path><path d="M 191.665,144.385 C 194.872,152.775 194.659,152.862 198.057,161.173" stroke-width="4.739" stroke="black" fill="none" stroke-linecap="round"></path><path d="M 198.057,161.173 C 201.850,170.448 201.978,170.399 206.047,179.559" stroke-width="4.500" stroke="black" fill="none" stroke-linecap="round"></path><path d="M 206.047,179.559 C 209.968,188.385 209.873,188.433 214.037,197.146" stroke-width="4.500" stroke="black" fill="none" stroke-linecap="round"></path><path d="M 214.037,197.146 C 218.662,206.820 218.831,206.739 223.625,216.332" stroke-width="4.500" stroke="black" fill="none" stroke-linecap="round"></path><path d="M 223.625,216.332 C 227.620,224.326 227.282,224.515 231.615,232.320" stroke-width="4.500" stroke="black" fill="none" stroke-linecap="round"></path><path d="M 231.615,232.320 C 235.272,238.905 235.589,238.728 239.605,245.110" stroke-width="4.652" stroke="black" fill="none" stroke-linecap="round"></path><path d="M 239.605,245.110 C 242.381,249.520 242.200,249.654 245.199,253.904" stroke-width="5.265" stroke="black" fill="none" stroke-linecap="round"></path><path d="M 245.199,253.904 C 246.994,256.449 247.324,258.700 249.194,258.700" stroke-width="6.123" stroke="black" fill="none" stroke-linecap="round"></path><path d="M 249.194,258.700 C 250.920,258.700 251.846,256.621 252.390,253.904" stroke-width="7.386" stroke="black" fill="none" stroke-linecap="round"></path><path d="M 252.390,253.904 C 253.444,248.627 252.390,248.308 252.390,242.712" stroke-width="5.896" stroke="black" fill="none" stroke-linecap="round"></path><path d="M 252.390,242.712 C 252.390,233.119 252.758,233.106 252.390,223.526" stroke-width="4.620" stroke="black" fill="none" stroke-linecap="round"></path><path d="M 252.390,223.526 C 251.959,212.322 251.605,212.334 250.792,201.143" stroke-width="4.500" stroke="black" fill="none" stroke-linecap="round"></path><path d="M 250.792,201.143 C 250.007,190.350 250.313,190.316 249.194,179.559" stroke-width="4.500" stroke="black" fill="none" stroke-linecap="round"></path><path d="M 249.194,179.559 C 248.316,171.131 247.931,171.174 246.797,162.772" stroke-width="4.500" stroke="black" fill="none" stroke-linecap="round"></path><path d="M 246.797,162.772 C 245.934,156.385 245.966,156.380 245.199,149.981" stroke-width="4.738" stroke="black" fill="none" stroke-linecap="round"></path><path d="M 245.199,149.981 C 244.768,146.388 243.839,141.805 244.400,142.787" stroke-width="5.740" stroke="black" fill="none" stroke-linecap="round"></path><path d="M 244.400,142.787 C 245.437,144.603 246.329,149.204 248.395,155.577" stroke-width="7.034" stroke="black" fill="none" stroke-linecap="round"></path><path d="M 248.395,155.577 C 251.123,163.993 250.966,164.052 253.988,172.365" stroke-width="4.844" stroke="black" fill="none" stroke-linecap="round"></path><path d="M 253.988,172.365 C 257.358,181.639 257.269,181.693 261.179,190.751" stroke-width="4.500" stroke="black" fill="none" stroke-linecap="round"></path><path d="M 261.179,190.751 C 264.860,199.280 265.014,199.225 269.169,207.538" stroke-width="4.500" stroke="black" fill="none" stroke-linecap="round"></path><path d="M 269.169,207.538 C 272.604,214.413 272.319,214.615 276.360,221.128" stroke-width="4.594" stroke="black" fill="none" stroke-linecap="round"></path><path d="M 276.360,221.128 C 279.510,226.207 279.810,226.042 283.551,230.721" stroke-width="5.052" stroke="black" fill="none" stroke-linecap="round"></path><path d="M 283.551,230.721 C 286.202,234.036 286.152,234.123 289.144,237.116" stroke-width="5.681" stroke="black" fill="none" stroke-linecap="round"></path><path d="M 289.144,237.116 C 290.946,238.919 291.851,241.119 293.139,240.314" stroke-width="6.549" stroke="black" fill="none" stroke-linecap="round"></path><path d="M 293.139,240.314 C 295.047,239.121 295.393,236.825 295.536,233.119" stroke-width="7.399" stroke="black" fill="none" stroke-linecap="round"></path><path d="M 295.536,233.119 C 295.793,226.433 294.807,226.315 293.938,219.529" stroke-width="5.527" stroke="black" fill="none" stroke-linecap="round"></path><path d="M 293.938,219.529 C 292.810,210.727 292.965,210.699 291.541,201.942" stroke-width="4.689" stroke="black" fill="none" stroke-linecap="round"></path><path d="M 291.541,201.942 C 290.169,193.512 289.642,193.594 288.345,185.155" stroke-width="4.547" stroke="black" fill="none" stroke-linecap="round"></path><path d="M 288.345,185.155 C 287.245,178.006 287.466,177.968 286.747,170.766" stroke-width="4.762" stroke="black" fill="none" stroke-linecap="round"></path><path d="M 286.747,170.766 C 286.268,165.977 286.200,165.975 285.948,161.173" stroke-width="5.411" stroke="black" fill="none" stroke-linecap="round"></path><path d="M 285.948,161.173 C 285.801,158.381 284.920,154.663 285.948,155.577" stroke-width="6.296" stroke="black" fill="none" stroke-linecap="round"></path><path d="M 285.948,155.577 C 288.515,157.861 289.807,161.428 293.139,167.568" stroke-width="7.071" stroke="black" fill="none" stroke-linecap="round"></path><path d="M 293.139,167.568 C 297.397,175.417 297.212,175.524 301.129,183.556" stroke-width="4.951" stroke="black" fill="none" stroke-linecap="round"></path><path d="M 301.129,183.556 C 305.202,191.911 304.884,192.072 309.119,200.344" stroke-width="4.500" stroke="black" fill="none" stroke-linecap="round"></path><path d="M 309.119,200.344 C 313.274,208.460 313.407,208.398 317.908,216.332" stroke-width="4.500" stroke="black" fill="none" stroke-linecap="round"></path><path d="M 317.908,216.332 C 321.797,223.187 321.744,223.226 325.898,229.922" stroke-width="4.579" stroke="black" fill="none" stroke-linecap="round"></path><path d="M 325.898,229.922 C 328.935,234.817 328.987,234.794 332.290,239.514" stroke-width="5.101" stroke="black" fill="none" stroke-linecap="round"></path><path d="M 332.290,239.514 C 334.580,242.788 334.214,243.278 337.084,245.910" stroke-width="5.775" stroke="black" fill="none" stroke-linecap="round"></path><path d="M 337.084,245.910 C 339.008,247.675 340.905,249.086 341.878,248.308" stroke-width="7.025" stroke="black" fill="none" stroke-linecap="round"></path><path d="M 341.878,248.308 C 342.903,247.487 341.584,245.492 341.079,242.712" stroke-width="7.516" stroke="black" fill="none" stroke-linecap="round"></path><path d="M 341.079,242.712 C 339.986,236.698 339.973,236.697 338.682,230.721" stroke-width="5.645" stroke="black" fill="none" stroke-linecap="round"></path><path d="M 338.682,230.721 C 336.777,221.908 336.783,221.904 334.687,213.134" stroke-width="4.685" stroke="black" fill="none" stroke-linecap="round"></path><path d="M 334.687,213.134 C 332.388,203.518 332.527,203.476 329.893,193.948" stroke-width="4.500" stroke="black" fill="none" stroke-linecap="round"></path><path d="M 329.893,193.948 C 327.333,184.690 327.179,184.729 324.300,175.562" stroke-width="4.500" stroke="black" fill="none" stroke-linecap="round"></path><path d="M 324.300,175.562 C 322.785,170.739 322.702,170.766 321.104,165.969" stroke-width="5.206" stroke="black" fill="none" stroke-linecap="round"></path><path d="M 321.104,165.969 C 317.109,153.978 317.572,153.794 313.114,141.987" stroke-width="4.500" stroke="black" fill="none" stroke-linecap="round"></path><path d="M 313.114,141.987 C 310.780,135.807 310.662,135.798 307.521,129.996" stroke-width="4.600" stroke="black" fill="none" stroke-linecap="round"></path><path d="M 307.521,129.996 C 305.468,126.205 304.946,126.502 302.727,122.802" stroke-width="5.545" stroke="black" fill="none" stroke-linecap="round"></path><path d="M 302.727,122.802 C 301.350,120.506 299.489,117.285 300.330,118.005" stroke-width="6.331" stroke="black" fill="none" stroke-linecap="round"></path><path d="M 300.330,118.005 C 302.286,119.683 303.918,123.194 308.320,127.598" stroke-width="7.171" stroke="black" fill="none" stroke-linecap="round"></path><path d="M 308.320,127.598 C 315.503,134.785 315.338,135.151 323.501,141.188" stroke-width="4.699" stroke="black" fill="none" stroke-linecap="round"></path><path d="M 323.501,141.188 C 333.715,148.741 333.939,148.611 345.074,154.778" stroke-width="4.500" stroke="black" fill="none" stroke-linecap="round"></path><path d="M 345.074,154.778 C 356.311,161.001 356.224,161.560 368.245,165.969" stroke-width="4.500" stroke="black" fill="none" stroke-linecap="round"></path><path d="M 368.245,165.969 C 380.194,170.353 380.532,169.613 393.014,172.365" stroke-width="4.500" stroke="black" fill="none" stroke-linecap="round"></path><path d="M 393.014,172.365 C 404.102,174.809 404.121,175.086 415.386,176.362" stroke-width="4.500" stroke="black" fill="none" stroke-linecap="round"></path><path d="M 415.386,176.362 C 425.295,177.484 425.396,177.393 435.361,177.161" stroke-width="4.500" stroke="black" fill="none" stroke-linecap="round"></path><path d="M 435.361,177.161 C 442.574,176.993 442.633,176.789 449.743,175.562" stroke-width="4.543" stroke="black" fill="none" stroke-linecap="round"></path><path d="M 449.743,175.562 C 454.219,174.790 458.873,175.044 458.532,173.164" stroke-width="5.459" stroke="black" fill="none" stroke-linecap="round"></path><path d="M 458.532,173.164 C 458.074,170.647 453.950,167.526 448.145,166.769" stroke-width="6.808" stroke="black" fill="none" stroke-linecap="round"></path><path d="M 448.145,166.769 C 435.573,165.128 434.797,166.332 421.778,168.367" stroke-width="4.500" stroke="black" fill="none" stroke-linecap="round"></path><path d="M 421.778,168.367 C 396.445,172.328 396.262,172.246 371.441,178.760" stroke-width="4.500" stroke="black" fill="none" stroke-linecap="round"></path><path d="M 371.441,178.760 C 347.523,185.036 347.661,185.758 324.300,193.948" stroke-width="4.500" stroke="black" fill="none" stroke-linecap="round"></path><path d="M 324.300,193.948 C 300.920,202.146 301.103,202.675 277.958,211.535" stroke-width="4.500" stroke="black" fill="none" stroke-linecap="round"></path><path d="M 277.958,211.535 C 255.161,220.262 254.983,219.837 232.415,229.122" stroke-width="4.500" stroke="black" fill="none" stroke-linecap="round"></path><path d="M 232.415,229.122 C 212.236,237.424 212.096,237.212 192.464,246.709" stroke-width="4.500" stroke="black" fill="none" stroke-linecap="round"></path><path d="M 192.464,246.709 C 175.742,254.799 175.997,255.343 159.705,264.296" stroke-width="4.500" stroke="black" fill="none" stroke-linecap="round"></path><path d="M 159.705,264.296 C 147.632,270.931 147.278,270.428 135.735,277.886" stroke-width="4.500" stroke="black" fill="none" stroke-linecap="round"></path><path d="M 135.735,277.886 C 128.102,282.818 128.412,283.323 121.353,289.077" stroke-width="4.500" stroke="black" fill="none" stroke-linecap="round"></path><path d="M 121.353,289.077 C 117.626,292.116 117.758,292.275 114.162,295.473" stroke-width="5.052" stroke="black" fill="none" stroke-linecap="round"></path></svg>