<svg xmlns="http://www.w3.org/2000/svg" xmlns:xlink="http://www.w3.org/1999/xlink" viewBox="0 0 576 416" width="576" height="416"><path d="M 39.056,256.702 C 46.647,253.504 46.697,253.619 54.237,250.307" stroke-width="8.117" stroke="black" fill="none" stroke-linecap="round"></path><path d="M 54.237,250.307 C 63.076,246.424 63.145,246.553 71.815,242.313" stroke-width="4.794" stroke="black" fill="none" stroke-linecap="round"></path><path d="M 71.815,242.313 C 81.123,237.760 80.814,237.112 90.192,232.720" stroke-width="4.500" stroke="black" fill="none" stroke-linecap="round"></path><path d="M 90.192,232.720 C 99.591,228.318 99.780,228.723 109.368,224.726" stroke-width="4.500" stroke="black" fill="none" stroke-linecap="round"></path><path d="M 109.368,224.726 C 118.956,220.729 118.718,220.009 128.544,216.732" stroke-width="4.500" stroke="black" fill="none" stroke-linecap="round"></path><path d="M 128.544,216.732 C 137.894,213.614 138.102,214.199 147.720,211.935" stroke-width="4.500" stroke="black" fill="none" stroke-linecap="round"></path><path d="M 147.720,211.935 C 151.685,211.002 151.666,210.636 155.710,210.336" stroke-width="5.278" stroke="black" fill="none" stroke-linecap="round"></path><path d="M 155.710,210.336 C 162.452,209.837 162.511,210.110 169.293,210.336" stroke-width="4.984" stroke="black" fill="none" stroke-linecap="round"></path><path d="M 169.293,210.336 C 174.496,210.510 175.112,209.266 179.680,211.136" stroke-width="5.387" stroke="black" fill="none" stroke-linecap="round"></path><path d="M 179.680,211.136 C 183.901,212.863 186.871,213.641 186.871,217.531" stroke-width="5.634" stroke="black" fill="none" stroke-linecap="round"></path><path d="M 186.871,217.531 C 186.871,224.033 184.001,225.177 179.680,231.920" stroke-width="5.996" stroke="black" fill="none" stroke-linecap="round"></path><path d="M 179.680,231.920 C 174.013,240.766 173.734,240.694 166.896,248.708" stroke-width="4.500" stroke="black" fill="none" stroke-linecap="round"></path><path d="M 166.896,248.708 C 159.752,257.081 159.198,256.602 151.715,264.696" stroke-width="4.500" stroke="black" fill="none" stroke-linecap="round"></path><path d="M 151.715,264.696 C 144.417,272.590 144.396,272.578 137.333,280.684" stroke-width="4.500" stroke="black" fill="none" stroke-linecap="round"></path><path d="M 137.333,280.684 C 130.813,288.167 131.007,288.335 124.549,295.873" stroke-width="4.500" stroke="black" fill="none" stroke-linecap="round"></path><path d="M 124.549,295.873 C 119.022,302.324 118.479,301.916 113.363,308.663" stroke-width="4.500" stroke="black" fill="none" stroke-linecap="round"></path><path d="M 113.363,308.663 C 109.690,313.508 109.903,313.722 106.971,319.055" stroke-width="4.946" stroke="black" fill="none" stroke-linecap="round"></path><path d="M 106.971,319.055 C 105.509,321.716 103.959,322.393 104.574,324.651" stroke-width="6.014" stroke="black" fill="none" stroke-linecap="round"></path><path d="M 104.574,324.651 C 105.157,326.789 106.670,327.579 109.368,327.849" stroke-width="7.100" stroke="black" fill="none" stroke-linecap="round"></path><path d="M 109.368,327.849 C 114.660,328.378 115.070,327.557 120.554,326.250" stroke-width="5.823" stroke="black" fill="none" stroke-linecap="round"></path><path d="M 120.554,326.250 C 131.849,323.559 131.834,323.349 142.926,319.855" stroke-width="4.500" stroke="black" fill="none" stroke-linecap="round"></path><path d="M 142.926,319.855 C 153.407,316.554 153.526,316.775 163.700,312.660" stroke-width="4.500" stroke="black" fill="none" stroke-linecap="round"></path><path d="M 163.700,312.660 C 172.302,309.181 172.318,309.080 180.479,304.666" stroke-width="4.500" stroke="black" fill="none" stroke-linecap="round"></path><path d="M 180.479,304.666 C 187.100,301.086 186.960,300.804 193.263,296.672" stroke-width="4.564" stroke="black" fill="none" stroke-linecap="round"></path><path d="M 193.263,296.672 C 198.546,293.210 198.457,293.075 203.650,289.477" stroke-width="4.967" stroke="black" fill="none" stroke-linecap="round"></path><path d="M 256.385,243.911 C 251.591,248.708 251.470,248.594 246.797,253.504" stroke-width="8.174" stroke="black" fill="none" stroke-linecap="round"></path><path d="M 246.797,253.504 C 243.480,256.988 243.460,256.987 240.405,260.699" stroke-width="6.309" stroke="black" fill="none" stroke-linecap="round"></path><path d="M 240.405,260.699 C 237.867,263.782 237.762,263.745 235.611,267.094" stroke-width="6.177" stroke="black" fill="none" stroke-linecap="round"></path><path d="M 235.611,267.094 C 234.167,269.341 232.684,269.773 233.214,271.891" stroke-width="6.628" stroke="black" fill="none" stroke-linecap="round"></path><path d="M 233.214,271.891 C 233.883,274.569 234.962,276.157 238.008,276.687" stroke-width="7.217" stroke="black" fill="none" stroke-linecap="round"></path><path d="M 238.008,276.687 C 244.150,277.756 244.855,276.211 251.591,275.088" stroke-width="6.639" stroke="black" fill="none" stroke-linecap="round"></path><path d="M 251.591,275.088 C 256.840,274.213 256.891,274.217 261.978,272.690" stroke-width="5.610" stroke="black" fill="none" stroke-linecap="round"></path><path d="M 261.978,272.690 C 264.881,271.818 266.479,272.257 267.571,270.292" stroke-width="6.286" stroke="black" fill="none" stroke-linecap="round"></path><path d="M 267.571,270.292 C 268.477,268.659 267.571,267.094 265.973,265.495" stroke-width="7.330" stroke="black" fill="none" stroke-linecap="round"></path><path d="M 323.501,216.732 C 319.905,219.130 319.880,219.093 316.310,221.528" stroke-width="8.531" stroke="black" fill="none" stroke-linecap="round"></path><path d="M 316.310,221.528 C 311.091,225.088 311.208,225.265 305.923,228.723" stroke-width="5.856" stroke="black" fill="none" stroke-linecap="round"></path><path d="M 305.923,228.723 C 300.821,232.060 300.449,231.543 295.536,235.118" stroke-width="5.411" stroke="black" fill="none" stroke-linecap="round"></path><path d="M 295.536,235.118 C 291.660,237.938 290.953,237.718 288.345,241.513" stroke-width="5.642" stroke="black" fill="none" stroke-linecap="round"></path><path d="M 288.345,241.513 C 286.558,244.113 285.926,245.239 286.747,247.908" stroke-width="6.207" stroke="black" fill="none" stroke-linecap="round"></path><path d="M 286.747,247.908 C 287.524,250.436 288.842,250.405 291.541,251.905" stroke-width="7.123" stroke="black" fill="none" stroke-linecap="round"></path><path d="M 291.541,251.905 C 296.033,254.402 296.376,253.810 301.129,255.902" stroke-width="5.869" stroke="black" fill="none" stroke-linecap="round"></path><path d="M 301.129,255.902 C 306.363,258.207 306.402,258.141 311.516,260.699" stroke-width="5.420" stroke="black" fill="none" stroke-linecap="round"></path><path d="M 311.516,260.699 C 315.990,262.937 316.017,262.921 320.305,265.495" stroke-width="5.500" stroke="black" fill="none" stroke-linecap="round"></path><path d="M 320.305,265.495 C 324.007,267.718 324.291,267.442 327.496,270.292" stroke-width="5.818" stroke="black" fill="none" stroke-linecap="round"></path><path d="M 327.496,270.292 C 331.482,273.837 332.068,273.832 334.687,278.286" stroke-width="5.843" stroke="black" fill="none" stroke-linecap="round"></path><path d="M 334.687,278.286 C 336.063,280.627 336.967,281.905 335.486,283.882" stroke-width="6.452" stroke="black" fill="none" stroke-linecap="round"></path><path d="M 335.486,283.882 C 332.173,288.300 330.807,288.713 325.099,291.076" stroke-width="6.528" stroke="black" fill="none" stroke-linecap="round"></path><path d="M 325.099,291.076 C 319.222,293.509 318.758,293.084 312.315,293.474" stroke-width="5.457" stroke="black" fill="none" stroke-linecap="round"></path><path d="M 312.315,293.474 C 305.574,293.883 305.312,294.072 298.732,292.675" stroke-width="5.128" stroke="black" fill="none" stroke-linecap="round"></path><path d="M 298.732,292.675 C 292.128,291.274 291.791,291.219 285.948,287.879" stroke-width="5.031" stroke="black" fill="none" stroke-linecap="round"></path><path d="M 285.948,287.879 C 280.605,284.824 280.261,284.610 276.360,279.885" stroke-width="5.226" stroke="black" fill="none" stroke-linecap="round"></path><path d="M 276.360,279.885 C 272.671,275.417 273.012,274.921 270.767,269.492" stroke-width="5.193" stroke="black" fill="none" stroke-linecap="round"></path><path d="M 270.767,269.492 C 268.218,263.329 268.484,263.173 266.772,256.702" stroke-width="5.080" stroke="black" fill="none" stroke-linecap="round"></path><path d="M 266.772,256.702 C 264.888,249.583 264.533,249.594 263.576,242.313" stroke-width="4.895" stroke="black" fill="none" stroke-linecap="round"></path><path d="M 263.576,242.313 C 262.536,234.405 262.982,234.323 262.777,226.324" stroke-width="4.710" stroke="black" fill="none" stroke-linecap="round"></path><path d="M 262.777,226.324 C 262.582,218.735 262.344,218.703 262.777,211.136" stroke-width="4.740" stroke="black" fill="none" stroke-linecap="round"></path><path d="M 262.777,211.136 C 263.143,204.714 263.115,204.647 264.375,198.345" stroke-width="5.082" stroke="black" fill="none" stroke-linecap="round"></path><path d="M 264.375,198.345 C 265.512,192.656 265.389,192.512 267.571,187.154" stroke-width="5.171" stroke="black" fill="none" stroke-linecap="round"></path><path d="M 267.571,187.154 C 269.783,181.720 269.475,181.229 273.164,176.762" stroke-width="5.269" stroke="black" fill="none" stroke-linecap="round"></path><path d="M 273.164,176.762 C 277.065,172.036 277.450,171.950 282.752,168.767" stroke-width="5.213" stroke="black" fill="none" stroke-linecap="round"></path><path d="M 282.752,168.767 C 289.435,164.755 289.662,164.672 297.134,162.372" stroke-width="4.823" stroke="black" fill="none" stroke-linecap="round"></path><path d="M 297.134,162.372 C 305.242,159.876 305.445,160.095 313.913,159.175" stroke-width="4.584" stroke="black" fill="none" stroke-linecap="round"></path><path d="M 313.913,159.175 C 323.822,158.097 323.911,158.180 333.888,158.375" stroke-width="4.500" stroke="black" fill="none" stroke-linecap="round"></path><path d="M 333.888,158.375 C 344.286,158.579 344.381,158.474 354.662,159.974" stroke-width="4.500" stroke="black" fill="none" stroke-linecap="round"></path><path d="M 354.662,159.974 C 363.557,161.272 363.530,161.678 372.240,163.971" stroke-width="4.500" stroke="black" fill="none" stroke-linecap="round"></path><path d="M 372.240,163.971 C 378.711,165.675 379.014,165.193 385.024,167.968" stroke-width="4.774" stroke="black" fill="none" stroke-linecap="round"></path><path d="M 385.024,167.968 C 389.401,169.989 389.856,170.142 393.014,173.564" stroke-width="5.398" stroke="black" fill="none" stroke-linecap="round"></path><path d="M 393.014,173.564 C 394.650,175.338 395.998,176.536 394.612,178.360" stroke-width="6.391" stroke="black" fill="none" stroke-linecap="round"></path><path d="M 394.612,178.360 C 388.407,186.528 387.599,188.168 377.833,193.549" stroke-width="5.666" stroke="black" fill="none" stroke-linecap="round"></path><path d="M 377.833,193.549 C 360.033,203.357 359.123,202.576 339.481,208.738" stroke-width="4.500" stroke="black" fill="none" stroke-linecap="round"></path><path d="M 339.481,208.738 C 311.981,217.365 311.607,216.310 283.551,223.127" stroke-width="4.500" stroke="black" fill="none" stroke-linecap="round"></path><path d="M 283.551,223.127 C 255.677,229.900 255.565,229.434 227.620,235.917" stroke-width="4.500" stroke="black" fill="none" stroke-linecap="round"></path><path d="M 227.620,235.917 C 200.434,242.225 200.360,241.936 173.288,248.708" stroke-width="4.500" stroke="black" fill="none" stroke-linecap="round"></path><path d="M 173.288,248.708 C 147.626,255.127 147.664,255.299 122.152,262.298" stroke-width="4.500" stroke="black" fill="none" stroke-linecap="round"></path><path d="M 122.152,262.298 C 98.126,268.889 98.167,269.040 74.212,275.888" stroke-width="4.500" stroke="black" fill="none" stroke-linecap="round"></path><path d="M 74.212,275.888 C 53.423,281.830 53.477,282.022 32.664,287.879" stroke-width="4.500" stroke="black" fill="none" stroke-linecap="round"></path><path d="M 32.664,287.879 C 15.125,292.814 15.086,292.675 -2.492,297.471" stroke-width="4.500" stroke="black" fill="none" stroke-linecap="round"></path></svg>