<svg xmlns="http://www.w3.org/2000/svg" xmlns:xlink="http://www.w3.org/1999/xlink" viewBox="0 0 576 416" width="576" height="416"><path d="M 39.056,71.640 C 44.250,64.445 44.260,64.453 49.443,57.250" stroke-width="8.023" stroke="black" fill="none" stroke-linecap="round"></path><path d="M 49.443,57.250 C 51.451,54.460 51.743,54.623 53.438,51.655" stroke-width="6.902" stroke="black" fill="none" stroke-linecap="round"></path><path d="M 53.438,51.655 C 54.939,49.027 55.059,48.971 55.835,46.059" stroke-width="6.630" stroke="black" fill="none" stroke-linecap="round"></path><path d="M 55.835,46.059 C 56.657,42.976 57.649,42.303 56.634,39.664" stroke-width="7.235" stroke="black" fill="none" stroke-linecap="round"></path><path d="M 56.634,39.664 C 55.651,37.107 54.561,36.250 51.840,35.667" stroke-width="7.766" stroke="black" fill="none" stroke-linecap="round"></path><path d="M 51.840,35.667 C 48.968,35.051 48.337,35.820 45.448,37.265" stroke-width="7.606" stroke="black" fill="none" stroke-linecap="round"></path><path d="M 45.448,37.265 C 41.945,39.018 41.551,39.112 39.056,42.062" stroke-width="7.380" stroke="black" fill="none" stroke-linecap="round"></path><path d="M 39.056,42.062 C 37.156,44.308 36.494,44.843 36.659,47.658" stroke-width="7.555" stroke="black" fill="none" stroke-linecap="round"></path><path d="M 36.659,47.658 C 36.893,51.638 37.332,52.350 39.855,55.652" stroke-width="7.656" stroke="black" fill="none" stroke-linecap="round"></path><path d="M 39.855,55.652 C 42.526,59.145 43.465,58.432 47.046,61.247" stroke-width="7.257" stroke="black" fill="none" stroke-linecap="round"></path><path d="M 47.046,61.247 C 49.058,62.829 49.158,62.718 51.041,64.445" stroke-width="7.016" stroke="black" fill="none" stroke-linecap="round"></path><path d="M 51.041,64.445 C 53.952,67.115 54.773,66.730 56.634,70.041" stroke-width="7.185" stroke="black" fill="none" stroke-linecap="round"></path><path d="M 56.634,70.041 C 58.368,73.125 58.619,73.757 58.232,77.236" stroke-width="7.358" stroke="black" fill="none" stroke-linecap="round"></path><path d="M 58.232,77.236 C 57.820,80.951 57.129,81.173 55.036,84.430" stroke-width="7.294" stroke="black" fill="none" stroke-linecap="round"></path><path d="M 55.036,84.430 C 53.534,86.768 53.401,86.951 51.041,88.427" stroke-width="6.977" stroke="black" fill="none" stroke-linecap="round"></path><path d="M 51.041,88.427 C 47.009,90.948 46.864,91.271 42.252,92.424" stroke-width="7.000" stroke="black" fill="none" stroke-linecap="round"></path><path d="M 42.252,92.424 C 37.276,93.669 37.054,93.224 31.865,93.224" stroke-width="6.922" stroke="black" fill="none" stroke-linecap="round"></path><path d="M 78.207,18.080 C 77.808,23.276 77.625,23.269 77.408,28.472" stroke-width="8.496" stroke="black" fill="none" stroke-linecap="round"></path><path d="M 77.408,28.472 C 77.225,32.862 77.408,32.869 77.408,37.265" stroke-width="6.522" stroke="black" fill="none" stroke-linecap="round"></path><path d="M 77.408,37.265 C 77.408,43.261 77.408,43.261 77.408,49.256" stroke-width="5.598" stroke="black" fill="none" stroke-linecap="round"></path><path d="M 77.408,49.256 C 77.408,55.252 77.408,55.252 77.408,61.247" stroke-width="5.370" stroke="black" fill="none" stroke-linecap="round"></path><path d="M 77.408,61.247 C 77.408,67.643 77.408,67.643 77.408,74.038" stroke-width="5.293" stroke="black" fill="none" stroke-linecap="round"></path><path d="M 77.408,74.038 C 77.408,80.033 77.408,80.033 77.408,86.029" stroke-width="5.188" stroke="black" fill="none" stroke-linecap="round"></path><path d="M 77.408,86.029 C 77.408,93.623 77.156,93.635 77.408,101.218" stroke-width="5.870" stroke="black" fill="none" stroke-linecap="round"></path><path d="M 77.408,101.218 C 77.555,105.626 77.976,105.607 78.207,110.011" stroke-width="5.907" stroke="black" fill="none" stroke-linecap="round"></path><path d="M 78.207,110.011 C 78.375,113.201 78.326,117.708 78.207,116.406" stroke-width="6.264" stroke="black" fill="none" stroke-linecap="round"></path><path d="M 110.167,46.858 C 110.167,53.653 110.167,53.653 110.167,60.448" stroke-width="8.131" stroke="black" fill="none" stroke-linecap="round"></path><path d="M 110.167,60.448 C 110.167,64.045 110.167,64.045 110.167,67.643" stroke-width="6.775" stroke="black" fill="none" stroke-linecap="round"></path><path d="M 110.167,67.643 C 110.167,70.840 110.167,70.840 110.167,74.038" stroke-width="6.609" stroke="black" fill="none" stroke-linecap="round"></path><path d="M 110.167,74.038 C 110.167,77.235 110.167,77.235 110.167,80.433" stroke-width="6.560" stroke="black" fill="none" stroke-linecap="round"></path><path d="M 110.167,80.433 C 110.167,84.430 110.357,88.617 110.167,88.427" stroke-width="7.052" stroke="black" fill="none" stroke-linecap="round"></path><path d="M 110.167,88.427 C 109.958,88.217 109.552,84.040 109.368,79.634" stroke-width="7.771" stroke="black" fill="none" stroke-linecap="round"></path><path d="M 109.368,79.634 C 109.152,74.447 109.122,74.422 109.368,69.241" stroke-width="6.292" stroke="black" fill="none" stroke-linecap="round"></path><path d="M 109.368,69.241 C 109.521,66.028 109.537,65.997 110.167,62.846" stroke-width="6.523" stroke="black" fill="none" stroke-linecap="round"></path><path d="M 110.167,62.846 C 110.736,60.001 110.910,60.031 111.765,57.250" stroke-width="6.576" stroke="black" fill="none" stroke-linecap="round"></path><path d="M 111.765,57.250 C 112.508,54.835 112.063,54.568 113.363,52.454" stroke-width="6.825" stroke="black" fill="none" stroke-linecap="round"></path><path d="M 113.363,52.454 C 115.259,49.372 115.661,47.066 118.157,46.858" stroke-width="7.241" stroke="black" fill="none" stroke-linecap="round"></path><path d="M 118.157,46.858 C 120.455,46.667 122.037,48.727 122.951,51.655" stroke-width="7.876" stroke="black" fill="none" stroke-linecap="round"></path><path d="M 122.951,51.655 C 124.035,55.123 123.161,55.813 122.152,59.649" stroke-width="7.449" stroke="black" fill="none" stroke-linecap="round"></path><path d="M 122.152,59.649 C 121.164,63.407 118.074,64.858 118.956,66.843" stroke-width="7.350" stroke="black" fill="none" stroke-linecap="round"></path><path d="M 118.956,66.843 C 119.672,68.455 122.201,66.450 125.348,66.843" stroke-width="8.207" stroke="black" fill="none" stroke-linecap="round"></path><path d="M 125.348,66.843 C 128.593,67.249 128.817,67.092 131.740,68.442" stroke-width="7.728" stroke="black" fill="none" stroke-linecap="round"></path><path d="M 131.740,68.442 C 134.011,69.490 134.674,69.517 135.735,71.640" stroke-width="7.794" stroke="black" fill="none" stroke-linecap="round"></path><path d="M 135.735,71.640 C 137.071,74.313 137.466,75.238 136.534,78.035" stroke-width="7.930" stroke="black" fill="none" stroke-linecap="round"></path><path d="M 136.534,78.035 C 135.469,81.233 134.579,81.399 131.740,83.631" stroke-width="7.549" stroke="black" fill="none" stroke-linecap="round"></path><path d="M 131.740,83.631 C 128.986,85.796 128.723,85.984 125.348,86.828" stroke-width="7.470" stroke="black" fill="none" stroke-linecap="round"></path><path d="M 180.479,38.864 C 180.080,44.460 179.947,44.455 179.680,50.056" stroke-width="8.464" stroke="black" fill="none" stroke-linecap="round"></path><path d="M 179.680,50.056 C 179.547,52.849 179.680,52.854 179.680,55.652" stroke-width="7.203" stroke="black" fill="none" stroke-linecap="round"></path><path d="M 179.680,55.652 C 179.680,58.450 179.534,58.456 179.680,61.247" stroke-width="6.895" stroke="black" fill="none" stroke-linecap="round"></path><path d="M 167.695,44.460 C 173.288,42.861 173.253,41.471 178.881,41.262" stroke-width="8.518" stroke="black" fill="none" stroke-linecap="round"></path><path d="M 178.881,41.262 C 184.039,41.071 184.218,42.065 189.268,43.661" stroke-width="7.279" stroke="black" fill="none" stroke-linecap="round"></path><path d="M 189.268,43.661 C 191.808,44.463 191.923,44.502 194.062,46.059" stroke-width="7.035" stroke="black" fill="none" stroke-linecap="round"></path><path d="M 194.062,46.059 C 196.318,47.700 196.583,47.695 198.057,50.056" stroke-width="6.762" stroke="black" fill="none" stroke-linecap="round"></path><path d="M 198.057,50.056 C 200.578,54.090 201.007,54.246 202.052,58.849" stroke-width="6.933" stroke="black" fill="none" stroke-linecap="round"></path><path d="M 202.052,58.849 C 203.004,63.040 202.797,63.422 202.052,67.643" stroke-width="7.084" stroke="black" fill="none" stroke-linecap="round"></path><path d="M 202.052,67.643 C 201.598,70.217 201.389,70.513 199.655,72.439" stroke-width="7.553" stroke="black" fill="none" stroke-linecap="round"></path><path d="M 199.655,72.439 C 197.793,74.510 197.446,74.443 194.861,75.637" stroke-width="7.652" stroke="black" fill="none" stroke-linecap="round"></path><path d="M 225.223,64.445 C 224.824,60.048 223.488,59.632 224.425,55.652" stroke-width="8.569" stroke="black" fill="none" stroke-linecap="round"></path><path d="M 224.425,55.652 C 225.086,52.837 226.067,51.036 228.419,50.855" stroke-width="8.176" stroke="black" fill="none" stroke-linecap="round"></path><path d="M 228.419,50.855 C 231.261,50.637 232.621,52.063 234.811,54.852" stroke-width="7.939" stroke="black" fill="none" stroke-linecap="round"></path><path d="M 234.811,54.852 C 237.015,57.658 236.293,58.383 237.208,62.047" stroke-width="7.524" stroke="black" fill="none" stroke-linecap="round"></path><path d="M 237.208,62.047 C 237.891,64.778 238.008,64.841 238.008,67.643" stroke-width="7.658" stroke="black" fill="none" stroke-linecap="round"></path><path d="M 238.008,67.643 C 238.008,70.837 237.880,70.902 237.208,74.038" stroke-width="7.568" stroke="black" fill="none" stroke-linecap="round"></path><path d="M 237.208,74.038 C 236.682,76.498 235.611,79.181 235.611,78.834" stroke-width="7.773" stroke="black" fill="none" stroke-linecap="round"></path><path d="M 235.611,78.834 C 235.611,78.382 236.409,75.637 237.208,72.439" stroke-width="8.070" stroke="black" fill="none" stroke-linecap="round"></path><path d="M 237.208,72.439 C 238.007,69.241 237.958,69.228 238.806,66.044" stroke-width="6.891" stroke="black" fill="none" stroke-linecap="round"></path><path d="M 238.806,66.044 C 239.556,63.233 239.365,63.152 240.405,60.448" stroke-width="6.760" stroke="black" fill="none" stroke-linecap="round"></path><path d="M 240.405,60.448 C 241.362,57.956 241.669,58.081 242.802,55.652" stroke-width="6.817" stroke="black" fill="none" stroke-linecap="round"></path><path d="M 242.802,55.652 C 244.465,52.085 243.691,51.457 245.998,48.457" stroke-width="7.153" stroke="black" fill="none" stroke-linecap="round"></path><circle r="3" cx="281.153564453125" cy="50.85516357421875" fill="black"></circle><path d="M 337.883,34.068 C 332.290,34.867 332.149,34.368 326.697,35.667" stroke-width="8.375" stroke="black" fill="none" stroke-linecap="round"></path><path d="M 326.697,35.667 C 323.760,36.366 323.713,36.529 321.104,38.065" stroke-width="7.070" stroke="black" fill="none" stroke-linecap="round"></path><path d="M 321.104,38.065 C 316.921,40.526 316.311,40.215 313.114,43.661" stroke-width="7.016" stroke="black" fill="none" stroke-linecap="round"></path><path d="M 313.114,43.661 C 311.118,45.811 310.935,46.418 310.717,49.256" stroke-width="7.389" stroke="black" fill="none" stroke-linecap="round"></path><path d="M 310.717,49.256 C 310.535,51.614 310.730,52.202 312.315,54.053" stroke-width="7.675" stroke="black" fill="none" stroke-linecap="round"></path><path d="M 312.315,54.053 C 315.524,57.798 316.310,57.250 320.305,60.448" stroke-width="7.195" stroke="black" fill="none" stroke-linecap="round"></path><path d="M 320.305,60.448 C 322.302,62.047 322.410,61.927 324.300,63.646" stroke-width="6.999" stroke="black" fill="none" stroke-linecap="round"></path><path d="M 324.300,63.646 C 326.804,65.924 327.568,65.608 329.094,68.442" stroke-width="7.345" stroke="black" fill="none" stroke-linecap="round"></path><path d="M 329.094,68.442 C 330.365,70.804 330.850,71.643 329.893,74.038" stroke-width="7.601" stroke="black" fill="none" stroke-linecap="round"></path><path d="M 329.893,74.038 C 328.453,77.638 327.391,77.561 324.300,80.433" stroke-width="7.316" stroke="black" fill="none" stroke-linecap="round"></path><path d="M 324.300,80.433 C 321.798,82.757 321.713,82.826 318.707,84.430" stroke-width="6.735" stroke="black" fill="none" stroke-linecap="round"></path><path d="M 318.707,84.430 C 315.721,86.023 315.581,85.867 312.315,86.828" stroke-width="6.430" stroke="black" fill="none" stroke-linecap="round"></path><path d="M 312.315,86.828 C 308.790,87.866 308.719,87.628 305.124,88.427" stroke-width="6.324" stroke="black" fill="none" stroke-linecap="round"></path><path d="M 305.124,88.427 C 301.528,89.227 301.477,89.041 297.933,90.026" stroke-width="6.292" stroke="black" fill="none" stroke-linecap="round"></path><path d="M 297.933,90.026 C 294.286,91.039 294.315,91.162 290.742,92.424" stroke-width="6.245" stroke="black" fill="none" stroke-linecap="round"></path><path d="M 290.742,92.424 C 287.523,93.561 287.564,93.674 284.350,94.822" stroke-width="6.367" stroke="black" fill="none" stroke-linecap="round"></path><path d="M 284.350,94.822 C 281.971,95.672 281.953,95.622 279.556,96.421" stroke-width="6.815" stroke="black" fill="none" stroke-linecap="round"></path><path d="M 357.059,67.643 C 351.865,70.041 351.257,69.228 346.672,72.439" stroke-width="8.643" stroke="black" fill="none" stroke-linecap="round"></path><path d="M 346.672,72.439 C 343.267,74.824 343.103,75.233 341.079,78.834" stroke-width="7.547" stroke="black" fill="none" stroke-linecap="round"></path><path d="M 341.079,78.834 C 339.508,81.628 338.576,82.967 339.481,85.230" stroke-width="7.541" stroke="black" fill="none" stroke-linecap="round"></path><path d="M 339.481,85.230 C 340.174,86.964 342.418,87.757 344.275,86.828" stroke-width="8.177" stroke="black" fill="none" stroke-linecap="round"></path><path d="M 344.275,86.828 C 347.212,85.359 346.917,83.782 349.069,80.433" stroke-width="7.533" stroke="black" fill="none" stroke-linecap="round"></path><path d="M 349.069,80.433 C 350.512,78.186 350.267,78.035 351.466,75.637" stroke-width="7.166" stroke="black" fill="none" stroke-linecap="round"></path><path d="M 351.466,75.637 C 352.664,73.238 352.835,70.840 353.863,70.840" stroke-width="7.581" stroke="black" fill="none" stroke-linecap="round"></path><path d="M 353.863,70.840 C 354.832,70.840 354.934,73.177 355.461,75.637" stroke-width="8.250" stroke="black" fill="none" stroke-linecap="round"></path><path d="M 355.461,75.637 C 356.132,78.773 355.834,78.838 356.260,82.032" stroke-width="6.963" stroke="black" fill="none" stroke-linecap="round"></path><path d="M 356.260,82.032 C 356.633,84.833 356.468,84.871 357.059,87.628" stroke-width="6.815" stroke="black" fill="none" stroke-linecap="round"></path><path d="M 357.059,87.628 C 357.667,90.466 357.439,90.612 358.657,93.224" stroke-width="6.738" stroke="black" fill="none" stroke-linecap="round"></path><path d="M 358.657,93.224 C 360.235,96.607 360.110,99.619 362.652,99.619" stroke-width="7.166" stroke="black" fill="none" stroke-linecap="round"></path><path d="M 362.652,99.619 C 366.102,99.619 367.520,97.127 370.642,93.224" stroke-width="7.394" stroke="black" fill="none" stroke-linecap="round"></path><path d="M 370.642,93.224 C 373.912,89.133 373.452,88.593 375.436,83.631" stroke-width="5.973" stroke="black" fill="none" stroke-linecap="round"></path><path d="M 375.436,83.631 C 377.447,78.600 377.269,78.496 378.632,73.238" stroke-width="5.715" stroke="black" fill="none" stroke-linecap="round"></path><path d="M 378.632,73.238 C 380.066,67.704 380.192,67.695 381.029,62.047" stroke-width="5.379" stroke="black" fill="none" stroke-linecap="round"></path><path d="M 381.029,62.047 C 381.790,56.903 381.620,56.858 381.828,51.655" stroke-width="5.518" stroke="black" fill="none" stroke-linecap="round"></path><path d="M 381.828,51.655 C 382.019,46.866 381.828,46.858 381.828,42.062" stroke-width="5.901" stroke="black" fill="none" stroke-linecap="round"></path><path d="M 381.828,42.062 C 381.828,38.864 382.015,38.854 381.828,35.667" stroke-width="6.334" stroke="black" fill="none" stroke-linecap="round"></path><path d="M 381.828,35.667 C 381.616,32.059 381.693,28.915 381.029,28.472" stroke-width="7.006" stroke="black" fill="none" stroke-linecap="round"></path><path d="M 381.029,28.472 C 380.495,28.116 379.840,31.201 379.431,34.068" stroke-width="7.713" stroke="black" fill="none" stroke-linecap="round"></path><path d="M 379.431,34.068 C 378.642,39.595 378.812,39.656 378.632,45.259" stroke-width="5.952" stroke="black" fill="none" stroke-linecap="round"></path><path d="M 378.632,45.259 C 378.413,52.046 378.432,52.060 378.632,58.849" stroke-width="5.253" stroke="black" fill="none" stroke-linecap="round"></path><path d="M 378.632,58.849 C 378.832,65.650 378.815,65.664 379.431,72.439" stroke-width="5.162" stroke="black" fill="none" stroke-linecap="round"></path><path d="M 379.431,72.439 C 380.014,78.854 380.004,78.871 381.029,85.230" stroke-width="5.037" stroke="black" fill="none" stroke-linecap="round"></path><path d="M 381.029,85.230 C 382.001,91.262 381.698,91.386 383.426,97.221" stroke-width="5.174" stroke="black" fill="none" stroke-linecap="round"></path><path d="M 383.426,97.221 C 384.894,102.178 385.183,102.132 387.421,106.813" stroke-width="5.455" stroke="black" fill="none" stroke-linecap="round"></path><path d="M 387.421,106.813 C 389.577,111.325 389.356,111.555 392.215,115.607" stroke-width="5.599" stroke="black" fill="none" stroke-linecap="round"></path><path d="M 392.215,115.607 C 394.150,118.350 394.345,118.354 397.009,120.403" stroke-width="6.158" stroke="black" fill="none" stroke-linecap="round"></path><path d="M 397.009,120.403 C 399.539,122.351 399.639,123.206 402.602,123.601" stroke-width="6.480" stroke="black" fill="none" stroke-linecap="round"></path><path d="M 402.602,123.601 C 405.632,124.005 406.915,124.081 408.994,122.002" stroke-width="7.163" stroke="black" fill="none" stroke-linecap="round"></path><path d="M 408.994,122.002 C 411.709,119.285 411.273,118.136 412.190,114.008" stroke-width="7.176" stroke="black" fill="none" stroke-linecap="round"></path><path d="M 412.190,114.008 C 412.871,110.942 412.871,110.679 412.190,107.613" stroke-width="6.718" stroke="black" fill="none" stroke-linecap="round"></path><path d="M 412.190,107.613 C 411.273,103.485 411.112,103.328 408.994,99.619" stroke-width="6.264" stroke="black" fill="none" stroke-linecap="round"></path><path d="M 408.994,99.619 C 406.318,94.935 406.397,94.623 402.602,90.825" stroke-width="5.602" stroke="black" fill="none" stroke-linecap="round"></path><path d="M 402.602,90.825 C 398.807,87.028 398.358,87.396 393.813,84.430" stroke-width="5.523" stroke="black" fill="none" stroke-linecap="round"></path><path d="M 393.813,84.430 C 389.170,81.401 389.095,81.492 384.225,78.834" stroke-width="5.468" stroke="black" fill="none" stroke-linecap="round"></path><path d="M 384.225,78.834 C 380.306,76.696 380.181,76.927 376.235,74.837" stroke-width="5.763" stroke="black" fill="none" stroke-linecap="round"></path><path d="M 376.235,74.837 C 373.389,73.330 372.064,74.130 370.642,71.640" stroke-width="6.277" stroke="black" fill="none" stroke-linecap="round"></path><path d="M 370.642,71.640 C 368.868,68.534 369.111,67.308 369.843,63.646" stroke-width="6.947" stroke="black" fill="none" stroke-linecap="round"></path><path d="M 369.843,63.646 C 370.309,61.313 370.951,61.041 373.039,59.649" stroke-width="6.926" stroke="black" fill="none" stroke-linecap="round"></path><path d="M 373.039,59.649 C 378.142,56.245 378.741,57.045 384.225,54.053" stroke-width="5.608" stroke="black" fill="none" stroke-linecap="round"></path><path d="M 384.225,54.053 C 387.530,52.249 387.421,52.054 390.617,50.056" stroke-width="6.033" stroke="black" fill="none" stroke-linecap="round"></path><path d="M 421.778,50.855 C 416.984,50.855 416.593,49.514 412.190,50.855" stroke-width="8.362" stroke="black" fill="none" stroke-linecap="round"></path><path d="M 412.190,50.855 C 407.405,52.312 407.398,53.202 403.401,56.451" stroke-width="7.273" stroke="black" fill="none" stroke-linecap="round"></path><path d="M 403.401,56.451 C 401.006,58.398 401.024,58.617 399.406,61.247" stroke-width="6.849" stroke="black" fill="none" stroke-linecap="round"></path><path d="M 399.406,61.247 C 397.828,63.813 398.100,64.005 397.009,66.843" stroke-width="6.692" stroke="black" fill="none" stroke-linecap="round"></path><path d="M 397.009,66.843 C 396.103,69.201 395.790,69.173 395.411,71.640" stroke-width="6.794" stroke="black" fill="none" stroke-linecap="round"></path><path d="M 395.411,71.640 C 394.991,74.369 394.278,74.968 395.411,77.236" stroke-width="7.442" stroke="black" fill="none" stroke-linecap="round"></path><path d="M 395.411,77.236 C 396.675,79.765 397.554,81.056 400.205,81.233" stroke-width="7.813" stroke="black" fill="none" stroke-linecap="round"></path><path d="M 400.205,81.233 C 403.547,81.455 404.885,80.727 407.396,78.035" stroke-width="7.509" stroke="black" fill="none" stroke-linecap="round"></path><path d="M 407.396,78.035 C 410.478,74.731 409.600,73.720 411.391,69.241" stroke-width="7.118" stroke="black" fill="none" stroke-linecap="round"></path><path d="M 411.391,69.241 C 412.796,65.725 412.589,65.644 413.788,62.047" stroke-width="7.285" stroke="black" fill="none" stroke-linecap="round"></path><path d="M 413.788,62.047 C 414.587,59.649 414.839,56.430 415.386,57.250" stroke-width="8.017" stroke="black" fill="none" stroke-linecap="round"></path><path d="M 415.386,57.250 C 416.437,58.828 416.031,62.079 416.984,66.843" stroke-width="7.690" stroke="black" fill="none" stroke-linecap="round"></path><path d="M 416.984,66.843 C 417.629,70.073 417.783,70.041 418.582,73.238" stroke-width="6.884" stroke="black" fill="none" stroke-linecap="round"></path><path d="M 418.582,73.238 C 419.381,76.436 419.078,76.548 420.180,79.634" stroke-width="6.519" stroke="black" fill="none" stroke-linecap="round"></path><path d="M 420.180,79.634 C 421.076,82.144 421.021,82.289 422.577,84.430" stroke-width="6.742" stroke="black" fill="none" stroke-linecap="round"></path><path d="M 422.577,84.430 C 424.217,86.686 424.252,86.950 426.572,88.427" stroke-width="6.751" stroke="black" fill="none" stroke-linecap="round"></path><path d="M 426.572,88.427 C 428.646,89.748 428.919,89.414 431.366,90.026" stroke-width="6.880" stroke="black" fill="none" stroke-linecap="round"></path><path d="M 198.057,80.433 C 194.062,78.834 194.062,78.834 190.067,77.236" stroke-width="8.669" stroke="black" fill="none" stroke-linecap="round"></path><path d="M 190.067,77.236 C 186.072,75.637 186.105,75.549 182.077,74.038" stroke-width="7.604" stroke="black" fill="none" stroke-linecap="round"></path><path d="M 15.086,156.376 C 15.486,161.173 15.382,161.185 15.885,165.969" stroke-width="8.421" stroke="black" fill="none" stroke-linecap="round"></path><path d="M 15.885,165.969 C 16.181,168.779 16.468,168.749 16.684,171.565" stroke-width="7.098" stroke="black" fill="none" stroke-linecap="round"></path><path d="M 16.684,171.565 C 17.267,179.142 17.094,179.159 17.483,186.754" stroke-width="6.458" stroke="black" fill="none" stroke-linecap="round"></path><path d="M 17.483,186.754 C 17.893,194.747 18.040,194.744 18.282,202.742" stroke-width="4.949" stroke="black" fill="none" stroke-linecap="round"></path><path d="M 18.282,202.742 C 18.439,207.934 18.282,207.938 18.282,213.134" stroke-width="5.294" stroke="black" fill="none" stroke-linecap="round"></path><path d="M 18.282,213.134 C 18.282,217.531 18.063,217.543 18.282,221.928" stroke-width="5.643" stroke="black" fill="none" stroke-linecap="round"></path><path d="M 18.282,221.928 C 18.463,225.537 18.856,225.515 19.081,229.122" stroke-width="6.020" stroke="black" fill="none" stroke-linecap="round"></path><path d="M 19.081,229.122 C 19.255,231.910 18.756,231.952 19.081,234.718" stroke-width="6.459" stroke="black" fill="none" stroke-linecap="round"></path><path d="M 4.699,172.365 C 6.697,168.367 6.151,167.975 8.694,164.370" stroke-width="8.290" stroke="black" fill="none" stroke-linecap="round"></path><path d="M 8.694,164.370 C 10.945,161.180 11.306,161.360 14.287,158.775" stroke-width="6.750" stroke="black" fill="none" stroke-linecap="round"></path><path d="M 14.287,158.775 C 17.298,156.164 17.333,156.145 20.679,153.978" stroke-width="6.208" stroke="black" fill="none" stroke-linecap="round"></path><path d="M 20.679,153.978 C 24.124,151.748 24.159,151.729 27.870,149.981" stroke-width="6.107" stroke="black" fill="none" stroke-linecap="round"></path><path d="M 27.870,149.981 C 30.950,148.531 30.951,148.280 34.262,147.583" stroke-width="6.394" stroke="black" fill="none" stroke-linecap="round"></path><path d="M 34.262,147.583 C 38.542,146.682 39.588,145.398 43.051,146.784" stroke-width="6.902" stroke="black" fill="none" stroke-linecap="round"></path><path d="M 43.051,146.784 C 45.580,147.796 45.799,149.468 46.247,152.379" stroke-width="7.629" stroke="black" fill="none" stroke-linecap="round"></path><path d="M 46.247,152.379 C 46.598,154.664 45.660,154.865 44.649,157.176" stroke-width="7.131" stroke="black" fill="none" stroke-linecap="round"></path><path d="M 44.649,157.176 C 42.863,161.260 43.300,161.640 40.654,165.170" stroke-width="6.221" stroke="black" fill="none" stroke-linecap="round"></path><path d="M 40.654,165.170 C 37.308,169.634 36.659,169.167 32.664,173.164" stroke-width="5.627" stroke="black" fill="none" stroke-linecap="round"></path><path d="M 32.664,173.164 C 29.468,176.362 29.568,176.468 26.272,179.559" stroke-width="5.798" stroke="black" fill="none" stroke-linecap="round"></path><path d="M 26.272,179.559 C 23.176,182.463 23.104,182.390 19.880,185.155" stroke-width="5.939" stroke="black" fill="none" stroke-linecap="round"></path><path d="M 19.880,185.155 C 17.511,187.186 17.370,187.030 15.086,189.152" stroke-width="6.304" stroke="black" fill="none" stroke-linecap="round"></path><path d="M 61.428,128.397 C 62.227,133.993 62.167,134.002 63.026,139.589" stroke-width="8.518" stroke="black" fill="none" stroke-linecap="round"></path><path d="M 63.026,139.589 C 63.765,144.395 63.856,144.380 64.624,149.182" stroke-width="6.350" stroke="black" fill="none" stroke-linecap="round"></path><path d="M 64.624,149.182 C 65.454,154.373 65.620,154.355 66.222,159.574" stroke-width="5.776" stroke="black" fill="none" stroke-linecap="round"></path><path d="M 66.222,159.574 C 66.819,164.747 66.606,164.771 67.021,169.966" stroke-width="5.722" stroke="black" fill="none" stroke-linecap="round"></path><path d="M 67.021,169.966 C 67.405,174.764 67.611,174.755 67.820,179.559" stroke-width="5.650" stroke="black" fill="none" stroke-linecap="round"></path><path d="M 67.820,179.559 C 68.011,183.948 67.645,183.962 67.820,188.353" stroke-width="5.844" stroke="black" fill="none" stroke-linecap="round"></path><path d="M 67.820,188.353 C 68.044,193.955 68.395,193.942 68.619,199.544" stroke-width="6.429" stroke="black" fill="none" stroke-linecap="round"></path><path d="M 43.850,181.957 C 50.242,178.360 50.235,178.348 56.634,174.763" stroke-width="8.225" stroke="black" fill="none" stroke-linecap="round"></path><path d="M 56.634,174.763 C 60.223,172.752 60.230,172.764 63.825,170.766" stroke-width="6.584" stroke="black" fill="none" stroke-linecap="round"></path><path d="M 63.825,170.766 C 67.421,168.767 67.382,168.694 71.016,166.769" stroke-width="6.212" stroke="black" fill="none" stroke-linecap="round"></path><path d="M 71.016,166.769 C 74.173,165.096 74.176,165.093 77.408,163.571" stroke-width="6.298" stroke="black" fill="none" stroke-linecap="round"></path><path d="M 77.408,163.571 C 80.967,161.895 85.698,159.824 84.599,160.373" stroke-width="7.022" stroke="black" fill="none" stroke-linecap="round"></path><path d="M 130.941,158.775 C 130.941,164.370 130.718,164.381 130.941,169.966" stroke-width="8.523" stroke="black" fill="none" stroke-linecap="round"></path><path d="M 130.941,169.966 C 131.118,174.373 131.301,174.367 131.740,178.760" stroke-width="7.509" stroke="black" fill="none" stroke-linecap="round"></path><path d="M 131.740,178.760 C 132.100,182.361 132.091,182.363 132.539,185.954" stroke-width="7.447" stroke="black" fill="none" stroke-linecap="round"></path><path d="M 132.539,185.954 C 132.890,188.759 133.460,192.647 133.338,191.550" stroke-width="7.634" stroke="black" fill="none" stroke-linecap="round"></path><path d="M 127.745,132.394 C 130.941,135.192 131.766,137.990 134.137,137.990" stroke-width="8.732" stroke="black" fill="none" stroke-linecap="round"></path><path d="M 134.137,137.990 C 135.761,137.990 136.285,134.959 135.735,132.394" stroke-width="8.411" stroke="black" fill="none" stroke-linecap="round"></path><path d="M 182.077,155.577 C 176.484,155.577 176.293,154.766 170.891,155.577" stroke-width="8.556" stroke="black" fill="none" stroke-linecap="round"></path><path d="M 170.891,155.577 C 168.303,155.966 168.343,156.531 166.097,157.975" stroke-width="7.280" stroke="black" fill="none" stroke-linecap="round"></path><path d="M 166.097,157.975 C 162.750,160.128 161.585,159.716 159.705,162.772" stroke-width="7.339" stroke="black" fill="none" stroke-linecap="round"></path><path d="M 159.705,162.772 C 158.389,164.912 158.266,166.567 159.705,168.367" stroke-width="7.862" stroke="black" fill="none" stroke-linecap="round"></path><path d="M 159.705,168.367 C 161.462,170.564 162.831,169.804 166.097,170.766" stroke-width="7.888" stroke="black" fill="none" stroke-linecap="round"></path><path d="M 166.097,170.766 C 169.622,171.803 169.734,171.416 173.288,172.365" stroke-width="7.509" stroke="black" fill="none" stroke-linecap="round"></path><path d="M 173.288,172.365 C 175.727,173.015 178.252,172.778 178.082,173.963" stroke-width="7.962" stroke="black" fill="none" stroke-linecap="round"></path><path d="M 178.082,173.963 C 177.852,175.576 175.455,176.243 172.489,177.960" stroke-width="8.209" stroke="black" fill="none" stroke-linecap="round"></path><path d="M 172.489,177.960 C 167.864,180.639 167.822,180.684 162.901,182.757" stroke-width="7.239" stroke="black" fill="none" stroke-linecap="round"></path><path d="M 162.901,182.757 C 160.231,183.881 160.025,183.336 157.308,184.356" stroke-width="6.780" stroke="black" fill="none" stroke-linecap="round"></path><path d="M 224.425,140.388 C 223.626,146.784 223.285,146.762 222.826,153.179" stroke-width="8.448" stroke="black" fill="none" stroke-linecap="round"></path><path d="M 222.826,153.179 C 222.486,157.954 222.826,157.975 222.826,162.772" stroke-width="7.358" stroke="black" fill="none" stroke-linecap="round"></path><path d="M 222.826,162.772 C 222.826,168.367 222.826,168.367 222.826,173.963" stroke-width="5.782" stroke="black" fill="none" stroke-linecap="round"></path><path d="M 222.826,173.963 C 222.826,183.956 222.826,183.956 222.826,193.948" stroke-width="4.523" stroke="black" fill="none" stroke-linecap="round"></path><path d="M 222.826,193.948 C 222.826,200.743 222.826,200.743 222.826,207.538" stroke-width="4.758" stroke="black" fill="none" stroke-linecap="round"></path><path d="M 222.826,207.538 C 222.826,211.136 222.724,211.138 222.826,214.733" stroke-width="5.756" stroke="black" fill="none" stroke-linecap="round"></path><path d="M 222.826,214.733 C 223.123,225.127 223.311,225.123 223.625,235.517" stroke-width="4.500" stroke="black" fill="none" stroke-linecap="round"></path><path d="M 223.625,235.517 C 223.710,238.314 223.486,238.321 223.625,241.113" stroke-width="5.738" stroke="black" fill="none" stroke-linecap="round"></path><path d="M 223.625,241.113 C 223.885,246.315 224.198,246.303 224.425,251.505" stroke-width="5.626" stroke="black" fill="none" stroke-linecap="round"></path><path d="M 224.425,251.505 C 224.598,255.496 224.425,255.502 224.425,259.499" stroke-width="5.884" stroke="black" fill="none" stroke-linecap="round"></path><path d="M 224.425,259.499 C 224.425,262.697 224.006,262.756 224.425,265.895" stroke-width="6.328" stroke="black" fill="none" stroke-linecap="round"></path><path d="M 228.419,136.391 C 230.017,142.387 229.663,142.521 231.615,148.382" stroke-width="8.463" stroke="black" fill="none" stroke-linecap="round"></path><path d="M 231.615,148.382 C 232.459,150.915 233.073,150.673 234.013,153.179" stroke-width="7.179" stroke="black" fill="none" stroke-linecap="round"></path><path d="M 234.013,153.179 C 236.669,160.266 235.672,160.708 238.806,167.568" stroke-width="6.393" stroke="black" fill="none" stroke-linecap="round"></path><path d="M 238.806,167.568 C 242.064,174.698 242.668,174.446 246.797,181.158" stroke-width="5.080" stroke="black" fill="none" stroke-linecap="round"></path><path d="M 246.797,181.158 C 249.060,184.839 249.002,184.900 251.591,188.353" stroke-width="5.670" stroke="black" fill="none" stroke-linecap="round"></path><path d="M 251.591,188.353 C 253.796,191.295 253.873,191.256 256.385,193.948" stroke-width="6.006" stroke="black" fill="none" stroke-linecap="round"></path><path d="M 256.385,193.948 C 259.466,197.252 263.629,201.338 262.777,200.344" stroke-width="6.738" stroke="black" fill="none" stroke-linecap="round"></path><path d="M 209.243,189.951 C 214.037,186.754 214.037,186.754 218.832,183.556" stroke-width="8.446" stroke="black" fill="none" stroke-linecap="round"></path><path d="M 218.832,183.556 C 223.626,180.359 223.452,180.060 228.419,177.161" stroke-width="6.023" stroke="black" fill="none" stroke-linecap="round"></path><path d="M 228.419,177.161 C 233.040,174.464 233.214,174.763 238.008,172.365" stroke-width="5.661" stroke="black" fill="none" stroke-linecap="round"></path><path d="M 238.008,172.365 C 242.802,169.966 242.849,170.056 247.596,167.568" stroke-width="5.561" stroke="black" fill="none" stroke-linecap="round"></path><path d="M 247.596,167.568 C 251.238,165.659 251.227,165.633 254.787,163.571" stroke-width="6.268" stroke="black" fill="none" stroke-linecap="round"></path><path d="M 254.787,163.571 C 258.818,161.236 258.761,161.138 262.777,158.775" stroke-width="6.558" stroke="black" fill="none" stroke-linecap="round"></path><path d="M 268.370,164.370 C 269.169,169.167 269.210,169.161 269.968,173.963" stroke-width="8.583" stroke="black" fill="none" stroke-linecap="round"></path><path d="M 269.968,173.963 C 270.408,176.755 270.134,176.816 270.767,179.559" stroke-width="7.215" stroke="black" fill="none" stroke-linecap="round"></path><path d="M 270.767,179.559 C 271.332,182.012 271.714,181.916 272.365,184.356" stroke-width="7.018" stroke="black" fill="none" stroke-linecap="round"></path><path d="M 272.365,184.356 C 273.312,187.912 273.015,187.994 273.963,191.550" stroke-width="7.252" stroke="black" fill="none" stroke-linecap="round"></path><path d="M 273.963,191.550 C 274.613,193.990 275.251,196.966 275.561,196.347" stroke-width="7.999" stroke="black" fill="none" stroke-linecap="round"></path><path d="M 275.561,196.347 C 276.050,195.367 275.379,192.342 275.561,188.353" stroke-width="7.830" stroke="black" fill="none" stroke-linecap="round"></path><path d="M 275.561,188.353 C 275.779,183.549 276.120,183.563 276.360,178.760" stroke-width="6.513" stroke="black" fill="none" stroke-linecap="round"></path><path d="M 276.360,178.760 C 276.519,175.569 276.360,175.562 276.360,172.365" stroke-width="6.532" stroke="black" fill="none" stroke-linecap="round"></path><path d="M 276.360,172.365 C 276.360,169.567 276.185,169.557 276.360,166.769" stroke-width="6.698" stroke="black" fill="none" stroke-linecap="round"></path><path d="M 276.360,166.769 C 276.585,163.162 275.450,160.144 277.159,159.574" stroke-width="7.188" stroke="black" fill="none" stroke-linecap="round"></path><path d="M 277.159,159.574 C 279.045,158.945 281.136,161.350 283.551,164.370" stroke-width="7.961" stroke="black" fill="none" stroke-linecap="round"></path><path d="M 283.551,164.370 C 285.930,167.346 285.149,167.968 286.747,171.565" stroke-width="6.602" stroke="black" fill="none" stroke-linecap="round"></path><path d="M 286.747,171.565 C 288.345,175.162 288.185,175.243 289.943,178.760" stroke-width="6.280" stroke="black" fill="none" stroke-linecap="round"></path><path d="M 289.943,178.760 C 291.381,181.638 291.451,181.613 293.139,184.356" stroke-width="6.450" stroke="black" fill="none" stroke-linecap="round"></path><path d="M 293.139,184.356 C 294.647,186.809 294.406,187.047 296.335,189.152" stroke-width="6.638" stroke="black" fill="none" stroke-linecap="round"></path><path d="M 296.335,189.152 C 298.800,191.843 299.330,194.320 301.928,193.948" stroke-width="7.152" stroke="black" fill="none" stroke-linecap="round"></path><path d="M 301.928,193.948 C 304.923,193.520 305.496,191.154 307.521,187.553" stroke-width="7.537" stroke="black" fill="none" stroke-linecap="round"></path><path d="M 307.521,187.553 C 309.091,184.759 308.606,184.404 309.119,181.158" stroke-width="6.769" stroke="black" fill="none" stroke-linecap="round"></path><path d="M 309.119,181.158 C 309.805,176.810 309.717,176.770 309.918,172.365" stroke-width="6.240" stroke="black" fill="none" stroke-linecap="round"></path><path d="M 309.918,172.365 C 310.117,167.977 310.108,167.960 309.918,163.571" stroke-width="5.931" stroke="black" fill="none" stroke-linecap="round"></path><path d="M 309.918,163.571 C 309.709,158.767 309.768,158.739 309.119,153.978" stroke-width="5.801" stroke="black" fill="none" stroke-linecap="round"></path><path d="M 309.119,153.978 C 308.569,149.946 308.360,149.973 307.521,145.984" stroke-width="5.995" stroke="black" fill="none" stroke-linecap="round"></path><path d="M 307.521,145.984 C 306.762,142.378 306.959,142.316 305.923,138.790" stroke-width="6.191" stroke="black" fill="none" stroke-linecap="round"></path><path d="M 305.923,138.790 C 304.962,135.521 304.661,135.614 303.526,132.394" stroke-width="6.350" stroke="black" fill="none" stroke-linecap="round"></path><path d="M 303.526,132.394 C 302.264,128.819 301.517,125.006 301.129,125.200" stroke-width="7.024" stroke="black" fill="none" stroke-linecap="round"></path><path d="M 301.129,125.200 C 300.718,125.405 301.112,129.276 301.928,133.194" stroke-width="7.827" stroke="black" fill="none" stroke-linecap="round"></path><path d="M 301.928,133.194 C 303.109,138.869 303.400,138.828 305.124,144.385" stroke-width="5.791" stroke="black" fill="none" stroke-linecap="round"></path><path d="M 305.124,144.385 C 306.995,150.420 307.060,150.402 309.119,156.376" stroke-width="5.336" stroke="black" fill="none" stroke-linecap="round"></path><path d="M 309.119,156.376 C 311.055,161.993 311.297,161.914 313.114,167.568" stroke-width="5.309" stroke="black" fill="none" stroke-linecap="round"></path><path d="M 313.114,167.568 C 314.893,173.106 314.599,173.199 316.310,178.760" stroke-width="5.332" stroke="black" fill="none" stroke-linecap="round"></path><path d="M 316.310,178.760 C 317.795,183.591 317.732,183.622 319.506,188.353" stroke-width="5.546" stroke="black" fill="none" stroke-linecap="round"></path><path d="M 319.506,188.353 C 321.328,193.215 321.271,193.261 323.501,197.945" stroke-width="5.657" stroke="black" fill="none" stroke-linecap="round"></path><path d="M 323.501,197.945 C 325.266,201.655 325.411,201.594 327.496,205.140" stroke-width="5.854" stroke="black" fill="none" stroke-linecap="round"></path><path d="M 327.496,205.140 C 329.406,208.389 329.177,208.589 331.491,211.535" stroke-width="6.115" stroke="black" fill="none" stroke-linecap="round"></path><path d="M 331.491,211.535 C 333.571,214.185 333.693,214.171 336.285,216.332" stroke-width="6.335" stroke="black" fill="none" stroke-linecap="round"></path><path d="M 336.285,216.332 C 338.487,218.168 338.494,218.336 341.079,219.529" stroke-width="6.601" stroke="black" fill="none" stroke-linecap="round"></path><path d="M 341.079,219.529 C 343.688,220.734 343.823,220.950 346.672,221.128" stroke-width="6.674" stroke="black" fill="none" stroke-linecap="round"></path><path d="M 346.672,221.128 C 350.215,221.350 350.809,221.856 353.863,220.329" stroke-width="7.180" stroke="black" fill="none" stroke-linecap="round"></path><path d="M 292.340,174.763 C 297.134,172.764 297.154,172.812 301.928,170.766" stroke-width="8.341" stroke="black" fill="none" stroke-linecap="round"></path><path d="M 301.928,170.766 C 305.544,169.215 305.523,169.167 309.119,167.568" stroke-width="6.678" stroke="black" fill="none" stroke-linecap="round"></path><path d="M 309.119,167.568 C 312.714,165.969 312.750,166.046 316.310,164.370" stroke-width="6.301" stroke="black" fill="none" stroke-linecap="round"></path><path d="M 316.310,164.370 C 319.542,162.849 319.506,162.772 322.702,161.173" stroke-width="6.326" stroke="black" fill="none" stroke-linecap="round"></path><path d="M 322.702,161.173 C 325.099,159.974 325.137,160.045 327.496,158.775" stroke-width="6.679" stroke="black" fill="none" stroke-linecap="round"></path><path d="M 327.496,158.775 C 330.330,157.247 331.080,154.572 333.089,155.577" stroke-width="7.378" stroke="black" fill="none" stroke-linecap="round"></path><path d="M 333.089,155.577 C 335.874,156.971 335.685,159.374 337.084,163.571" stroke-width="7.966" stroke="black" fill="none" stroke-linecap="round"></path><path d="M 337.084,163.571 C 338.482,167.768 338.050,167.944 338.682,172.365" stroke-width="6.294" stroke="black" fill="none" stroke-linecap="round"></path><path d="M 338.682,172.365 C 339.249,176.338 338.856,176.398 339.481,180.359" stroke-width="6.165" stroke="black" fill="none" stroke-linecap="round"></path><path d="M 339.481,180.359 C 340.054,183.992 340.186,183.980 341.079,187.553" stroke-width="6.244" stroke="black" fill="none" stroke-linecap="round"></path><path d="M 341.079,187.553 C 341.784,190.375 341.878,190.351 342.677,193.149" stroke-width="6.560" stroke="black" fill="none" stroke-linecap="round"></path><path d="M 342.677,193.149 C 343.476,195.947 343.172,196.065 344.275,198.745" stroke-width="6.661" stroke="black" fill="none" stroke-linecap="round"></path><path d="M 329.893,128.397 C 331.491,132.394 331.174,135.434 333.089,136.391" stroke-width="8.700" stroke="black" fill="none" stroke-linecap="round"></path><path d="M 333.089,136.391 C 334.370,137.032 336.078,134.080 336.285,131.595" stroke-width="8.575" stroke="black" fill="none" stroke-linecap="round"></path><path d="M 336.285,131.595 C 336.477,129.283 335.759,128.483 333.888,126.798" stroke-width="7.998" stroke="black" fill="none" stroke-linecap="round"></path><path d="M 333.888,126.798 C 331.764,124.886 327.861,123.534 328.295,124.400" stroke-width="8.003" stroke="black" fill="none" stroke-linecap="round"></path><path d="M 367.446,169.966 C 367.446,175.562 367.203,175.576 367.446,181.158" stroke-width="8.612" stroke="black" fill="none" stroke-linecap="round"></path><path d="M 367.446,181.158 C 367.603,184.769 367.796,184.762 368.245,188.353" stroke-width="7.742" stroke="black" fill="none" stroke-linecap="round"></path><path d="M 368.245,188.353 C 368.595,191.157 369.044,194.135 369.044,193.948" stroke-width="8.001" stroke="black" fill="none" stroke-linecap="round"></path><path d="M 369.044,193.948 C 369.044,193.735 368.722,190.739 368.245,187.553" stroke-width="7.981" stroke="black" fill="none" stroke-linecap="round"></path><path d="M 368.245,187.553 C 367.524,182.745 367.085,182.787 366.647,177.960" stroke-width="7.194" stroke="black" fill="none" stroke-linecap="round"></path><path d="M 366.647,177.960 C 366.286,173.993 366.647,173.963 366.647,169.966" stroke-width="6.316" stroke="black" fill="none" stroke-linecap="round"></path><path d="M 366.647,169.966 C 366.647,167.168 366.647,167.168 366.647,164.370" stroke-width="6.628" stroke="black" fill="none" stroke-linecap="round"></path><path d="M 366.647,164.370 C 366.647,160.373 366.437,160.362 366.647,156.376" stroke-width="6.551" stroke="black" fill="none" stroke-linecap="round"></path><path d="M 366.647,156.376 C 366.837,152.767 365.684,149.965 367.446,149.182" stroke-width="7.111" stroke="black" fill="none" stroke-linecap="round"></path><path d="M 367.446,149.182 C 369.280,148.366 371.355,150.503 373.838,153.179" stroke-width="7.784" stroke="black" fill="none" stroke-linecap="round"></path><path d="M 373.838,153.179 C 376.548,156.099 375.918,156.733 377.833,160.373" stroke-width="6.397" stroke="black" fill="none" stroke-linecap="round"></path><path d="M 377.833,160.373 C 379.913,164.327 379.677,164.455 381.828,168.367" stroke-width="6.040" stroke="black" fill="none" stroke-linecap="round"></path><path d="M 381.828,168.367 C 384.071,172.449 384.041,172.488 386.622,176.362" stroke-width="5.879" stroke="black" fill="none" stroke-linecap="round"></path><path d="M 386.622,176.362 C 388.835,179.683 388.822,179.729 391.416,182.757" stroke-width="6.047" stroke="black" fill="none" stroke-linecap="round"></path><path d="M 391.416,182.757 C 393.616,185.325 393.631,185.370 396.210,187.553" stroke-width="6.312" stroke="black" fill="none" stroke-linecap="round"></path><path d="M 396.210,187.553 C 398.824,189.766 398.733,190.234 401.803,191.550" stroke-width="6.451" stroke="black" fill="none" stroke-linecap="round"></path><path d="M 401.803,191.550 C 404.326,192.632 404.776,193.039 407.396,192.350" stroke-width="6.590" stroke="black" fill="none" stroke-linecap="round"></path><path d="M 407.396,192.350 C 412.367,191.041 412.749,190.675 416.984,187.553" stroke-width="6.765" stroke="black" fill="none" stroke-linecap="round"></path><path d="M 416.984,187.553 C 420.340,185.079 420.142,184.610 422.577,181.158" stroke-width="6.211" stroke="black" fill="none" stroke-linecap="round"></path><path d="M 422.577,181.158 C 424.936,177.815 424.908,177.708 426.572,173.963" stroke-width="6.108" stroke="black" fill="none" stroke-linecap="round"></path><path d="M 426.572,173.963 C 428.104,170.513 428.053,170.433 428.969,166.769" stroke-width="6.263" stroke="black" fill="none" stroke-linecap="round"></path><path d="M 428.969,166.769 C 429.651,164.038 429.567,163.985 429.768,161.173" stroke-width="6.529" stroke="black" fill="none" stroke-linecap="round"></path><path d="M 429.768,161.173 C 429.967,158.389 430.901,157.844 429.768,155.577" stroke-width="6.697" stroke="black" fill="none" stroke-linecap="round"></path><path d="M 429.768,155.577 C 428.504,153.048 427.749,152.691 424.974,151.580" stroke-width="7.570" stroke="black" fill="none" stroke-linecap="round"></path><path d="M 424.974,151.580 C 421.757,150.293 421.283,150.280 417.783,150.781" stroke-width="7.465" stroke="black" fill="none" stroke-linecap="round"></path><path d="M 417.783,150.781 C 412.893,151.479 412.704,151.855 408.195,153.978" stroke-width="7.088" stroke="black" fill="none" stroke-linecap="round"></path><path d="M 408.195,153.978 C 405.912,155.053 405.997,155.377 404.200,157.176" stroke-width="6.968" stroke="black" fill="none" stroke-linecap="round"></path><path d="M 404.200,157.176 C 402.402,158.975 402.125,158.929 401.004,161.173" stroke-width="6.933" stroke="black" fill="none" stroke-linecap="round"></path><path d="M 401.004,161.173 C 399.728,163.725 399.813,163.916 399.406,166.769" stroke-width="6.840" stroke="black" fill="none" stroke-linecap="round"></path><path d="M 399.406,166.769 C 399.014,169.512 398.808,169.672 399.406,172.365" stroke-width="6.719" stroke="black" fill="none" stroke-linecap="round"></path><path d="M 399.406,172.365 C 400.406,176.867 399.789,178.109 402.602,181.158" stroke-width="6.953" stroke="black" fill="none" stroke-linecap="round"></path><path d="M 402.602,181.158 C 404.583,183.305 406.234,183.731 408.994,182.757" stroke-width="7.353" stroke="black" fill="none" stroke-linecap="round"></path><path d="M 408.994,182.757 C 413.025,181.333 413.106,179.955 416.185,176.362" stroke-width="7.113" stroke="black" fill="none" stroke-linecap="round"></path><path d="M 416.185,176.362 C 417.900,174.359 417.459,173.999 418.582,171.565" stroke-width="6.921" stroke="black" fill="none" stroke-linecap="round"></path><path d="M 418.582,171.565 C 419.856,168.802 419.911,168.817 420.979,165.969" stroke-width="6.712" stroke="black" fill="none" stroke-linecap="round"></path><path d="M 420.979,165.969 C 422.308,162.422 422.558,158.775 423.376,158.775" stroke-width="7.152" stroke="black" fill="none" stroke-linecap="round"></path><path d="M 423.376,158.775 C 424.156,158.775 423.775,162.372 424.175,165.969" stroke-width="8.038" stroke="black" fill="none" stroke-linecap="round"></path><path d="M 424.175,165.969 C 424.574,169.567 424.347,169.608 424.974,173.164" stroke-width="6.654" stroke="black" fill="none" stroke-linecap="round"></path><path d="M 424.974,173.164 C 425.545,176.402 425.667,176.392 426.572,179.559" stroke-width="6.535" stroke="black" fill="none" stroke-linecap="round"></path><path d="M 426.572,179.559 C 427.265,181.988 426.768,182.330 428.170,184.356" stroke-width="6.811" stroke="black" fill="none" stroke-linecap="round"></path><path d="M 428.170,184.356 C 430.363,187.526 430.667,188.998 433.763,189.951" stroke-width="7.147" stroke="black" fill="none" stroke-linecap="round"></path><path d="M 433.763,189.951 C 435.860,190.597 436.759,189.352 438.557,187.553" stroke-width="7.575" stroke="black" fill="none" stroke-linecap="round"></path><path d="M 438.557,187.553 C 440.355,185.754 440.066,185.274 440.954,182.757" stroke-width="7.046" stroke="black" fill="none" stroke-linecap="round"></path><path d="M 440.954,182.757 C 442.463,178.479 442.423,178.418 443.351,173.963" stroke-width="6.171" stroke="black" fill="none" stroke-linecap="round"></path><path d="M 443.351,173.963 C 444.421,168.825 444.369,168.792 444.949,163.571" stroke-width="5.731" stroke="black" fill="none" stroke-linecap="round"></path><path d="M 444.949,163.571 C 445.568,158.000 445.548,157.982 445.748,152.379" stroke-width="5.511" stroke="black" fill="none" stroke-linecap="round"></path><path d="M 445.748,152.379 C 445.947,146.791 445.955,146.776 445.748,141.188" stroke-width="5.538" stroke="black" fill="none" stroke-linecap="round"></path><path d="M 445.748,141.188 C 445.555,135.984 445.594,135.960 444.949,130.796" stroke-width="5.476" stroke="black" fill="none" stroke-linecap="round"></path><path d="M 444.949,130.796 C 444.396,126.367 444.271,126.373 443.351,122.002" stroke-width="5.765" stroke="black" fill="none" stroke-linecap="round"></path><path d="M 443.351,122.002 C 442.673,118.778 442.467,118.823 441.753,115.607" stroke-width="6.251" stroke="black" fill="none" stroke-linecap="round"></path><path d="M 441.753,115.607 C 440.869,111.629 440.704,107.246 440.155,107.613" stroke-width="6.924" stroke="black" fill="none" stroke-linecap="round"></path><path d="M 440.155,107.613 C 439.506,108.046 439.356,112.409 439.356,117.206" stroke-width="7.698" stroke="black" fill="none" stroke-linecap="round"></path><path d="M 439.356,117.206 C 439.356,122.002 439.786,122.000 440.155,126.798" stroke-width="6.219" stroke="black" fill="none" stroke-linecap="round"></path><path d="M 440.155,126.798 C 440.585,132.392 440.540,132.395 440.954,137.990" stroke-width="5.731" stroke="black" fill="none" stroke-linecap="round"></path><path d="M 440.954,137.990 C 441.339,143.187 441.156,143.209 441.753,148.382" stroke-width="5.624" stroke="black" fill="none" stroke-linecap="round"></path><path d="M 441.753,148.382 C 442.355,153.601 442.552,153.579 443.351,158.775" stroke-width="5.487" stroke="black" fill="none" stroke-linecap="round"></path><path d="M 443.351,158.775 C 444.150,163.971 444.269,163.956 444.949,169.167" stroke-width="5.539" stroke="black" fill="none" stroke-linecap="round"></path><path d="M 444.949,169.167 C 445.468,173.149 445.123,173.200 445.748,177.161" stroke-width="5.928" stroke="black" fill="none" stroke-linecap="round"></path><path d="M 445.748,177.161 C 446.321,180.794 446.190,180.885 447.346,184.356" stroke-width="6.169" stroke="black" fill="none" stroke-linecap="round"></path><path d="M 447.346,184.356 C 448.187,186.881 448.129,187.053 449.743,189.152" stroke-width="6.685" stroke="black" fill="none" stroke-linecap="round"></path><path d="M 449.743,189.152 C 452.124,192.249 451.957,193.356 455.336,194.748" stroke-width="7.077" stroke="black" fill="none" stroke-linecap="round"></path><path d="M 455.336,194.748 C 458.748,196.154 459.505,195.617 463.326,194.748" stroke-width="7.223" stroke="black" fill="none" stroke-linecap="round"></path><path d="M 463.326,194.748 C 468.294,193.618 468.229,192.971 472.914,190.751" stroke-width="7.023" stroke="black" fill="none" stroke-linecap="round"></path><path d="M 472.914,190.751 C 475.819,189.374 476.187,189.663 478.507,187.553" stroke-width="6.668" stroke="black" fill="none" stroke-linecap="round"></path><path d="M 478.507,187.553 C 480.582,185.666 480.105,185.155 481.703,182.757" stroke-width="6.632" stroke="black" fill="none" stroke-linecap="round"></path><path d="M 416.984,133.993 C 421.778,132.394 421.692,132.016 426.572,130.796" stroke-width="8.456" stroke="black" fill="none" stroke-linecap="round"></path><path d="M 426.572,130.796 C 429.682,130.018 429.804,130.589 432.964,129.996" stroke-width="7.006" stroke="black" fill="none" stroke-linecap="round"></path><path d="M 432.964,129.996 C 436.196,129.390 436.130,129.043 439.356,128.397" stroke-width="6.634" stroke="black" fill="none" stroke-linecap="round"></path><path d="M 439.356,128.397 C 442.122,127.844 442.136,127.774 444.949,127.598" stroke-width="6.718" stroke="black" fill="none" stroke-linecap="round"></path><path d="M 444.949,127.598 C 448.528,127.374 453.145,127.454 452.140,127.598" stroke-width="7.200" stroke="black" fill="none" stroke-linecap="round"></path><path d="M 490.492,145.984 C 485.298,144.385 485.400,143.708 480.105,142.787" stroke-width="8.476" stroke="black" fill="none" stroke-linecap="round"></path><path d="M 480.105,142.787 C 476.212,142.109 475.939,141.981 472.115,142.787" stroke-width="7.607" stroke="black" fill="none" stroke-linecap="round"></path><path d="M 472.115,142.787 C 468.348,143.580 467.897,143.605 464.924,145.984" stroke-width="7.424" stroke="black" fill="none" stroke-linecap="round"></path><path d="M 464.924,145.984 C 461.904,148.401 461.540,148.853 460.130,152.379" stroke-width="7.328" stroke="black" fill="none" stroke-linecap="round"></path><path d="M 460.130,152.379 C 459.143,154.848 459.518,155.322 460.130,157.975" stroke-width="7.557" stroke="black" fill="none" stroke-linecap="round"></path><path d="M 460.130,157.975 C 460.716,160.518 460.656,162.210 462.527,162.772" stroke-width="7.937" stroke="black" fill="none" stroke-linecap="round"></path><path d="M 462.527,162.772 C 464.651,163.409 466.282,162.417 468.120,160.373" stroke-width="8.181" stroke="black" fill="none" stroke-linecap="round"></path><path d="M 468.120,160.373 C 469.877,158.420 468.919,157.576 469.718,154.778" stroke-width="7.827" stroke="black" fill="none" stroke-linecap="round"></path><path d="M 469.718,154.778 C 470.517,151.980 470.517,151.980 471.316,149.182" stroke-width="7.727" stroke="black" fill="none" stroke-linecap="round"></path><path d="M 471.316,149.182 C 472.115,146.384 472.345,142.732 472.914,143.586" stroke-width="8.113" stroke="black" fill="none" stroke-linecap="round"></path><path d="M 472.914,143.586 C 473.943,145.130 473.351,148.869 474.512,153.978" stroke-width="7.888" stroke="black" fill="none" stroke-linecap="round"></path><path d="M 474.512,153.978 C 475.349,157.663 475.779,157.554 476.909,161.173" stroke-width="6.730" stroke="black" fill="none" stroke-linecap="round"></path><path d="M 476.909,161.173 C 477.776,163.950 477.303,164.158 478.507,166.769" stroke-width="6.638" stroke="black" fill="none" stroke-linecap="round"></path><path d="M 478.507,166.769 C 479.700,169.354 479.927,169.303 481.703,171.565" stroke-width="6.696" stroke="black" fill="none" stroke-linecap="round"></path><path d="M 481.703,171.565 C 484.321,174.899 483.922,177.166 487.296,177.960" stroke-width="7.042" stroke="black" fill="none" stroke-linecap="round"></path><path d="M 487.296,177.960 C 490.714,178.765 492.231,177.383 495.286,174.763" stroke-width="7.490" stroke="black" fill="none" stroke-linecap="round"></path><path d="M 495.286,174.763 C 497.824,172.586 497.253,171.706 498.482,168.367" stroke-width="6.643" stroke="black" fill="none" stroke-linecap="round"></path><path d="M 498.482,168.367 C 500.049,164.112 499.870,164.014 500.879,159.574" stroke-width="6.074" stroke="black" fill="none" stroke-linecap="round"></path><path d="M 500.879,159.574 C 501.868,155.220 502.092,155.215 502.477,150.781" stroke-width="5.950" stroke="black" fill="none" stroke-linecap="round"></path><path d="M 502.477,150.781 C 502.891,146.021 502.477,145.984 502.477,141.188" stroke-width="5.811" stroke="black" fill="none" stroke-linecap="round"></path><path d="M 502.477,141.188 C 502.477,136.791 502.892,136.750 502.477,132.394" stroke-width="5.974" stroke="black" fill="none" stroke-linecap="round"></path><path d="M 502.477,132.394 C 502.093,128.356 501.718,128.389 500.879,124.400" stroke-width="5.966" stroke="black" fill="none" stroke-linecap="round"></path><path d="M 500.879,124.400 C 500.120,120.794 500.174,120.779 499.281,117.206" stroke-width="6.181" stroke="black" fill="none" stroke-linecap="round"></path><path d="M 499.281,117.206 C 498.576,114.384 498.388,114.432 497.683,111.610" stroke-width="6.539" stroke="black" fill="none" stroke-linecap="round"></path><path d="M 497.683,111.610 C 496.790,108.036 496.237,103.504 496.085,104.415" stroke-width="7.116" stroke="black" fill="none" stroke-linecap="round"></path><path d="M 496.085,104.415 C 495.837,105.902 496.221,110.441 496.884,116.406" stroke-width="7.886" stroke="black" fill="none" stroke-linecap="round"></path><path d="M 496.884,116.406 C 497.420,121.233 497.683,121.203 498.482,125.999" stroke-width="6.238" stroke="black" fill="none" stroke-linecap="round"></path><path d="M 498.482,125.999 C 499.281,130.796 499.281,130.796 500.080,135.592" stroke-width="5.870" stroke="black" fill="none" stroke-linecap="round"></path><path d="M 500.080,135.592 C 500.879,140.388 500.879,140.388 501.678,145.185" stroke-width="5.768" stroke="black" fill="none" stroke-linecap="round"></path><path d="M 501.678,145.185 C 502.477,149.981 502.443,149.987 503.276,154.778" stroke-width="5.738" stroke="black" fill="none" stroke-linecap="round"></path><path d="M 503.276,154.778 C 504.041,159.180 503.600,159.321 504.874,163.571" stroke-width="5.928" stroke="black" fill="none" stroke-linecap="round"></path><path d="M 504.874,163.571 C 505.997,167.315 506.233,167.295 508.070,170.766" stroke-width="6.001" stroke="black" fill="none" stroke-linecap="round"></path><path d="M 508.070,170.766 C 509.829,174.090 509.879,174.099 512.065,177.161" stroke-width="6.162" stroke="black" fill="none" stroke-linecap="round"></path><path d="M 512.065,177.161 C 513.874,179.695 513.633,180.136 516.060,181.957" stroke-width="6.451" stroke="black" fill="none" stroke-linecap="round"></path><path d="M 516.060,181.957 C 518.427,183.733 518.793,183.334 521.653,184.356" stroke-width="6.574" stroke="black" fill="none" stroke-linecap="round"></path><path d="M 521.653,184.356 C 524.386,185.332 524.395,185.547 527.246,185.954" stroke-width="6.665" stroke="black" fill="none" stroke-linecap="round"></path><path d="M 527.246,185.954 C 529.988,186.346 530.080,186.299 532.839,185.954" stroke-width="6.805" stroke="black" fill="none" stroke-linecap="round"></path><path d="M 532.839,185.954 C 536.472,185.500 536.458,185.249 540.030,184.356" stroke-width="7.183" stroke="black" fill="none" stroke-linecap="round"></path><path d="M 540.030,184.356 C 542.850,183.650 543.014,183.961 545.623,182.757" stroke-width="7.527" stroke="black" fill="none" stroke-linecap="round"></path><path d="M 77.408,288.278 C 77.009,295.073 77.174,295.090 76.609,301.868" stroke-width="7.691" stroke="black" fill="none" stroke-linecap="round"></path><path d="M 76.609,301.868 C 76.375,304.682 76.045,304.648 75.810,307.464" stroke-width="6.932" stroke="black" fill="none" stroke-linecap="round"></path><path d="M 75.810,307.464 C 74.447,323.834 75.110,323.904 73.413,340.239" stroke-width="4.500" stroke="black" fill="none" stroke-linecap="round"></path><path d="M 73.413,340.239 C 71.914,354.681 71.644,354.665 69.418,369.018" stroke-width="4.500" stroke="black" fill="none" stroke-linecap="round"></path><path d="M 69.418,369.018 C 68.049,377.848 68.136,377.881 66.222,386.605" stroke-width="4.500" stroke="black" fill="none" stroke-linecap="round"></path><path d="M 66.222,386.605 C 64.541,394.269 64.236,394.202 62.227,401.793" stroke-width="4.565" stroke="black" fill="none" stroke-linecap="round"></path><path d="M 62.227,401.793 C 60.640,407.792 60.535,407.766 59.031,413.784" stroke-width="4.993" stroke="black" fill="none" stroke-linecap="round"></path><path d="M 59.031,413.784 C 58.138,417.359 58.232,417.382 57.433,420.979" stroke-width="5.893" stroke="black" fill="none" stroke-linecap="round"></path><path d="M 163.700,291.476 C 160.504,296.272 160.623,296.355 157.308,301.068" stroke-width="7.849" stroke="black" fill="none" stroke-linecap="round"></path><path d="M 157.308,301.068 C 153.033,307.147 153.269,307.358 148.519,313.060" stroke-width="5.548" stroke="black" fill="none" stroke-linecap="round"></path><path d="M 148.519,313.060 C 143.281,319.349 143.123,319.258 137.333,325.051" stroke-width="4.834" stroke="black" fill="none" stroke-linecap="round"></path><path d="M 137.333,325.051 C 134.334,328.051 134.039,327.741 130.941,330.646" stroke-width="5.596" stroke="black" fill="none" stroke-linecap="round"></path><path d="M 130.941,330.646 C 121.255,339.732 121.521,340.023 111.765,349.033" stroke-width="4.500" stroke="black" fill="none" stroke-linecap="round"></path><path d="M 111.765,349.033 C 105.940,354.412 105.912,354.405 99.780,359.425" stroke-width="4.500" stroke="black" fill="none" stroke-linecap="round"></path><path d="M 99.780,359.425 C 97.123,361.600 96.836,361.240 94.187,363.422" stroke-width="5.516" stroke="black" fill="none" stroke-linecap="round"></path><path d="M 94.187,363.422 C 90.045,366.835 90.241,367.076 86.197,370.617" stroke-width="5.514" stroke="black" fill="none" stroke-linecap="round"></path><path d="M 86.197,370.617 C 83.849,372.672 81.403,374.614 81.403,374.614" stroke-width="6.221" stroke="black" fill="none" stroke-linecap="round"></path><path d="M 81.403,374.614 C 81.403,374.614 83.633,372.380 86.197,370.617" stroke-width="7.389" stroke="black" fill="none" stroke-linecap="round"></path><path d="M 86.197,370.617 C 90.025,367.983 90.000,367.815 94.187,365.820" stroke-width="6.211" stroke="black" fill="none" stroke-linecap="round"></path><path d="M 94.187,365.820 C 98.390,363.818 98.507,363.964 102.976,362.622" stroke-width="5.922" stroke="black" fill="none" stroke-linecap="round"></path><path d="M 102.976,362.622 C 106.497,361.566 106.550,361.250 110.167,361.024" stroke-width="6.167" stroke="black" fill="none" stroke-linecap="round"></path><path d="M 110.167,361.024 C 112.942,360.850 113.609,360.333 115.760,361.823" stroke-width="6.567" stroke="black" fill="none" stroke-linecap="round"></path><path d="M 115.760,361.823 C 118.803,363.931 118.615,364.770 120.554,368.218" stroke-width="7.081" stroke="black" fill="none" stroke-linecap="round"></path><path d="M 120.554,368.218 C 122.211,371.165 121.684,371.444 122.951,374.614" stroke-width="6.521" stroke="black" fill="none" stroke-linecap="round"></path><path d="M 122.951,374.614 C 124.081,377.439 123.709,377.675 125.348,380.209" stroke-width="6.663" stroke="black" fill="none" stroke-linecap="round"></path><path d="M 125.348,380.209 C 128.104,384.470 127.779,385.184 131.740,388.203" stroke-width="5.895" stroke="black" fill="none" stroke-linecap="round"></path><path d="M 131.740,388.203 C 136.168,391.579 136.651,391.630 142.127,393.000" stroke-width="5.426" stroke="black" fill="none" stroke-linecap="round"></path><path d="M 142.127,393.000 C 149.435,394.828 149.711,394.599 157.308,394.599" stroke-width="4.928" stroke="black" fill="none" stroke-linecap="round"></path><path d="M 157.308,394.599 C 166.490,394.599 166.676,394.767 175.685,393.000" stroke-width="4.500" stroke="black" fill="none" stroke-linecap="round"></path><path d="M 175.685,393.000 C 187.050,390.770 187.419,391.075 198.057,386.605" stroke-width="4.500" stroke="black" fill="none" stroke-linecap="round"></path><path d="M 198.057,386.605 C 207.394,382.681 207.267,382.009 215.635,376.212" stroke-width="4.500" stroke="black" fill="none" stroke-linecap="round"></path><path d="M 215.635,376.212 C 222.848,371.217 223.163,371.303 229.218,365.021" stroke-width="4.500" stroke="black" fill="none" stroke-linecap="round"></path><path d="M 229.218,365.021 C 233.950,360.112 235.827,359.818 237.208,353.829" stroke-width="4.784" stroke="black" fill="none" stroke-linecap="round"></path><path d="M 237.208,353.829 C 238.224,349.426 237.612,346.898 234.013,344.236" stroke-width="5.273" stroke="black" fill="none" stroke-linecap="round"></path><path d="M 234.013,344.236 C 228.424,340.103 226.614,340.751 218.832,340.239" stroke-width="4.938" stroke="black" fill="none" stroke-linecap="round"></path><path d="M 218.832,340.239 C 196.252,338.753 195.859,337.887 173.288,340.239" stroke-width="4.500" stroke="black" fill="none" stroke-linecap="round"></path><path d="M 173.288,340.239 C 138.330,343.882 138.207,344.770 103.775,352.230" stroke-width="4.500" stroke="black" fill="none" stroke-linecap="round"></path><path d="M 103.775,352.230 C 75.486,358.360 75.385,358.538 47.845,367.419" stroke-width="4.500" stroke="black" fill="none" stroke-linecap="round"></path><path d="M 47.845,367.419 C 27.045,374.127 27.106,374.631 7.096,383.407" stroke-width="4.500" stroke="black" fill="none" stroke-linecap="round"></path><path d="M 7.096,383.407 C -2.058,387.422 -9.046,388.928 -10.482,393.000" stroke-width="4.500" stroke="black" fill="none" stroke-linecap="round"></path><path d="M -10.482,393.000 C -11.443,395.723 -4.261,397.205 2.302,396.997" stroke-width="4.500" stroke="black" fill="none" stroke-linecap="round"></path><path d="M 2.302,396.997 C 20.907,396.406 21.107,394.378 39.855,391.401" stroke-width="4.500" stroke="black" fill="none" stroke-linecap="round"></path><path d="M 39.855,391.401 C 96.612,382.387 96.518,381.773 153.313,373.015" stroke-width="4.500" stroke="black" fill="none" stroke-linecap="round"></path><path d="M 153.313,373.015 C 202.785,365.386 202.719,364.732 252.390,358.625" stroke-width="4.500" stroke="black" fill="none" stroke-linecap="round"></path><path d="M 252.390,358.625 C 297.001,353.141 297.053,352.933 341.878,349.832" stroke-width="4.500" stroke="black" fill="none" stroke-linecap="round"></path><path d="M 341.878,349.832 C 372.159,347.737 372.241,348.509 402.602,348.233" stroke-width="4.500" stroke="black" fill="none" stroke-linecap="round"></path><path d="M 402.602,348.233 C 416.186,348.110 421.544,347.450 429.768,349.033" stroke-width="4.500" stroke="black" fill="none" stroke-linecap="round"></path><path d="M 429.768,349.033 C 431.931,349.449 426.764,351.126 423.376,352.230" stroke-width="4.979" stroke="black" fill="none" stroke-linecap="round"></path><path d="M 423.376,352.230 C 409.586,356.722 409.436,356.382 395.411,360.224" stroke-width="4.500" stroke="black" fill="none" stroke-linecap="round"></path><path d="M 395.411,360.224 C 375.878,365.575 375.835,365.420 356.260,370.617" stroke-width="4.500" stroke="black" fill="none" stroke-linecap="round"></path><path d="M 356.260,370.617 C 336.684,375.813 336.694,375.852 317.109,381.009" stroke-width="4.500" stroke="black" fill="none" stroke-linecap="round"></path><path d="M 317.109,381.009 C 298.742,385.845 298.732,385.805 280.355,390.602" stroke-width="4.500" stroke="black" fill="none" stroke-linecap="round"></path></svg>