<svg xmlns="http://www.w3.org/2000/svg" xmlns:xlink="http://www.w3.org/1999/xlink" viewBox="0 0 576 416" width="576" height="416"><path d="M 456.135,95.622 C 457.333,99.619 457.146,99.687 458.532,103.616" stroke-width="8.521" stroke="black" fill="none" stroke-linecap="round"></path><path d="M 458.532,103.616 C 459.543,106.482 459.570,106.493 460.929,109.212" stroke-width="7.100" stroke="black" fill="none" stroke-linecap="round"></path><path d="M 460.929,109.212 C 462.367,112.089 462.767,111.897 464.125,114.807" stroke-width="6.763" stroke="black" fill="none" stroke-linecap="round"></path><path d="M 464.125,114.807 C 465.564,117.892 465.443,117.966 466.522,121.203" stroke-width="6.519" stroke="black" fill="none" stroke-linecap="round"></path><path d="M 466.522,121.203 C 467.441,123.961 467.265,124.018 468.120,126.798" stroke-width="6.648" stroke="black" fill="none" stroke-linecap="round"></path><path d="M 468.120,126.798 C 468.863,129.214 469.388,129.121 469.718,131.595" stroke-width="6.964" stroke="black" fill="none" stroke-linecap="round"></path><path d="M 469.718,131.595 C 470.187,135.116 470.905,135.566 469.718,138.790" stroke-width="7.256" stroke="black" fill="none" stroke-linecap="round"></path><path d="M 469.718,138.790 C 468.108,143.161 467.593,143.531 464.125,146.784" stroke-width="7.036" stroke="black" fill="none" stroke-linecap="round"></path><path d="M 464.125,146.784 C 461.201,149.526 460.734,149.260 456.934,150.781" stroke-width="6.132" stroke="black" fill="none" stroke-linecap="round"></path><path d="M 456.934,150.781 C 450.747,153.257 450.632,153.156 444.150,154.778" stroke-width="5.418" stroke="black" fill="none" stroke-linecap="round"></path><path d="M 444.150,154.778 C 439.446,155.954 439.378,155.748 434.562,156.376" stroke-width="5.630" stroke="black" fill="none" stroke-linecap="round"></path><path d="M 434.562,156.376 C 430.189,156.947 430.176,156.976 425.773,157.176" stroke-width="5.748" stroke="black" fill="none" stroke-linecap="round"></path><path d="M 425.773,157.176 C 421.387,157.375 421.378,157.176 416.984,157.176" stroke-width="5.954" stroke="black" fill="none" stroke-linecap="round"></path><path d="M 416.984,157.176 C 412.989,157.176 412.989,157.176 408.994,157.176" stroke-width="6.071" stroke="black" fill="none" stroke-linecap="round"></path><path d="M 408.994,157.176 C 405.398,157.176 405.398,157.176 401.803,157.176" stroke-width="6.246" stroke="black" fill="none" stroke-linecap="round"></path><path d="M 401.803,157.176 C 399.006,157.176 398.995,157.362 396.210,157.176" stroke-width="6.668" stroke="black" fill="none" stroke-linecap="round"></path><path d="M 396.210,157.176 C 393.002,156.962 393.014,156.776 389.818,156.376" stroke-width="6.490" stroke="black" fill="none" stroke-linecap="round"></path><path d="M 389.818,156.376 C 386.622,155.977 386.560,156.249 383.426,155.577" stroke-width="6.516" stroke="black" fill="none" stroke-linecap="round"></path><path d="M 383.426,155.577 C 380.967,155.050 381.029,154.778 378.632,153.978" stroke-width="6.805" stroke="black" fill="none" stroke-linecap="round"></path><path d="M 378.632,153.978 C 375.036,152.779 374.845,153.170 371.441,151.580" stroke-width="7.184" stroke="black" fill="none" stroke-linecap="round"></path><path d="M 371.441,151.580 C 368.853,150.372 368.763,150.288 366.647,148.382" stroke-width="7.535" stroke="black" fill="none" stroke-linecap="round"></path><path d="M 366.647,148.382 C 364.768,146.690 363.646,146.533 363.451,144.385" stroke-width="7.734" stroke="black" fill="none" stroke-linecap="round"></path><path d="M 363.451,144.385 C 363.246,142.136 363.851,141.159 365.848,139.589" stroke-width="8.026" stroke="black" fill="none" stroke-linecap="round"></path><path d="M 365.848,139.589 C 369.444,136.762 370.100,137.105 374.637,135.592" stroke-width="7.251" stroke="black" fill="none" stroke-linecap="round"></path><path d="M 374.637,135.592 C 377.291,134.707 377.417,134.958 380.230,134.793" stroke-width="6.897" stroke="black" fill="none" stroke-linecap="round"></path><path d="M 380.230,134.793 C 384.208,134.558 386.118,132.900 388.220,134.793" stroke-width="7.166" stroke="black" fill="none" stroke-linecap="round"></path><path d="M 388.220,134.793 C 390.113,136.497 389.407,138.764 388.220,141.987" stroke-width="7.656" stroke="black" fill="none" stroke-linecap="round"></path><path d="M 388.220,141.987 C 386.610,146.358 385.756,146.254 382.627,149.981" stroke-width="6.188" stroke="black" fill="none" stroke-linecap="round"></path><path d="M 382.627,149.981 C 377.367,156.246 377.041,155.983 371.441,161.972" stroke-width="4.968" stroke="black" fill="none" stroke-linecap="round"></path><path d="M 371.441,161.972 C 365.455,168.374 365.835,168.779 359.456,174.763" stroke-width="4.580" stroke="black" fill="none" stroke-linecap="round"></path><path d="M 359.456,174.763 C 353.051,180.770 352.803,180.537 345.873,185.954" stroke-width="4.559" stroke="black" fill="none" stroke-linecap="round"></path><path d="M 345.873,185.954 C 340.019,190.530 339.859,190.322 333.888,194.748" stroke-width="4.633" stroke="black" fill="none" stroke-linecap="round"></path><path d="M 333.888,194.748 C 329.072,198.316 329.335,198.736 324.300,201.942" stroke-width="5.067" stroke="black" fill="none" stroke-linecap="round"></path><path d="M 324.300,201.942 C 320.546,204.332 320.448,204.329 316.310,205.939" stroke-width="5.622" stroke="black" fill="none" stroke-linecap="round"></path><path d="M 316.310,205.939 C 313.257,207.127 311.116,208.737 309.918,207.538" stroke-width="6.839" stroke="black" fill="none" stroke-linecap="round"></path><path d="M 309.918,207.538 C 308.719,206.339 310.611,204.310 311.516,201.143" stroke-width="7.593" stroke="black" fill="none" stroke-linecap="round"></path><path d="M 311.516,201.143 C 312.209,198.714 312.315,198.745 313.114,196.347" stroke-width="7.122" stroke="black" fill="none" stroke-linecap="round"></path><path d="M 313.114,196.347 C 314.312,192.749 316.426,190.984 315.511,189.152" stroke-width="7.286" stroke="black" fill="none" stroke-linecap="round"></path><path d="M 315.511,189.152 C 314.828,187.787 312.349,188.671 309.918,189.951" stroke-width="7.974" stroke="black" fill="none" stroke-linecap="round"></path><path d="M 309.918,189.951 C 304.759,192.668 305.229,193.697 300.330,197.146" stroke-width="5.874" stroke="black" fill="none" stroke-linecap="round"></path><path d="M 300.330,197.146 C 294.442,201.291 294.202,200.954 288.345,205.140" stroke-width="5.134" stroke="black" fill="none" stroke-linecap="round"></path><path d="M 288.345,205.140 C 283.016,208.948 283.393,209.508 277.958,213.134" stroke-width="5.098" stroke="black" fill="none" stroke-linecap="round"></path><path d="M 277.958,213.134 C 273.805,215.904 273.544,215.498 269.169,217.931" stroke-width="5.481" stroke="black" fill="none" stroke-linecap="round"></path><path d="M 269.169,217.931 C 266.353,219.495 266.025,221.351 263.576,221.128" stroke-width="6.173" stroke="black" fill="none" stroke-linecap="round"></path><path d="M 263.576,221.128 C 261.630,220.951 260.670,219.460 260.380,217.131" stroke-width="7.453" stroke="black" fill="none" stroke-linecap="round"></path><path d="M 260.380,217.131 C 259.871,213.064 263.357,211.329 261.978,208.338" stroke-width="7.221" stroke="black" fill="none" stroke-linecap="round"></path><path d="M 261.978,208.338 C 260.960,206.133 258.529,205.843 255.586,206.739" stroke-width="7.883" stroke="black" fill="none" stroke-linecap="round"></path><path d="M 255.586,206.739 C 249.341,208.640 249.559,210.280 243.601,213.934" stroke-width="5.674" stroke="black" fill="none" stroke-linecap="round"></path><path d="M 243.601,213.934 C 237.174,217.874 237.221,217.950 230.816,221.928" stroke-width="4.903" stroke="black" fill="none" stroke-linecap="round"></path><path d="M 230.816,221.928 C 225.635,225.145 225.733,225.323 220.429,228.323" stroke-width="5.134" stroke="black" fill="none" stroke-linecap="round"></path><path d="M 220.429,228.323 C 216.545,230.520 216.553,230.625 212.439,232.320" stroke-width="5.647" stroke="black" fill="none" stroke-linecap="round"></path><path d="M 212.439,232.320 C 209.761,233.423 209.535,234.277 206.846,233.919" stroke-width="6.349" stroke="black" fill="none" stroke-linecap="round"></path><path d="M 206.846,233.919 C 203.543,233.478 202.975,233.033 200.454,230.721" stroke-width="7.119" stroke="black" fill="none" stroke-linecap="round"></path><path d="M 200.454,230.721 C 198.181,228.636 198.448,228.100 197.258,225.125" stroke-width="6.522" stroke="black" fill="none" stroke-linecap="round"></path><path d="M 197.258,225.125 C 195.252,220.106 195.780,219.889 194.062,214.733" stroke-width="5.763" stroke="black" fill="none" stroke-linecap="round"></path><path d="M 194.062,214.733 C 192.185,209.097 192.130,209.113 190.067,203.541" stroke-width="5.429" stroke="black" fill="none" stroke-linecap="round"></path><path d="M 190.067,203.541 C 188.135,198.321 188.239,198.274 186.072,193.149" stroke-width="5.435" stroke="black" fill="none" stroke-linecap="round"></path><path d="M 186.072,193.149 C 183.845,187.881 183.662,187.959 181.278,182.757" stroke-width="5.396" stroke="black" fill="none" stroke-linecap="round"></path><path d="M 181.278,182.757 C 179.267,178.366 179.264,178.367 177.283,173.963" stroke-width="5.711" stroke="black" fill="none" stroke-linecap="round"></path><path d="M 177.283,173.963 C 175.669,170.373 174.880,170.537 174.087,166.769" stroke-width="5.932" stroke="black" fill="none" stroke-linecap="round"></path><path d="M 174.087,166.769 C 173.282,162.942 171.886,161.146 174.087,158.775" stroke-width="6.819" stroke="black" fill="none" stroke-linecap="round"></path><path d="M 174.087,158.775 C 177.080,155.550 179.168,156.639 184.474,155.577" stroke-width="6.820" stroke="black" fill="none" stroke-linecap="round"></path><path d="M 184.474,155.577 C 191.153,154.241 191.243,154.391 198.057,153.978" stroke-width="5.529" stroke="black" fill="none" stroke-linecap="round"></path><path d="M 198.057,153.978 C 204.427,153.592 204.480,153.554 210.841,153.978" stroke-width="5.150" stroke="black" fill="none" stroke-linecap="round"></path><path d="M 210.841,153.978 C 216.465,154.353 216.644,154.108 222.027,155.577" stroke-width="5.327" stroke="black" fill="none" stroke-linecap="round"></path><path d="M 222.027,155.577 C 225.433,156.506 226.172,156.322 228.419,158.775" stroke-width="5.995" stroke="black" fill="none" stroke-linecap="round"></path><path d="M 228.419,158.775 C 230.567,161.118 230.993,161.987 230.816,165.170" stroke-width="6.287" stroke="black" fill="none" stroke-linecap="round"></path><path d="M 230.816,165.170 C 230.594,169.182 229.911,169.623 227.620,173.164" stroke-width="6.065" stroke="black" fill="none" stroke-linecap="round"></path><path d="M 227.620,173.164 C 225.516,176.418 224.907,176.048 222.027,178.760" stroke-width="6.195" stroke="black" fill="none" stroke-linecap="round"></path><path d="M 222.027,178.760 C 211.324,188.839 211.616,189.212 200.454,198.745" stroke-width="4.500" stroke="black" fill="none" stroke-linecap="round"></path><path d="M 200.454,198.745 C 195.236,203.202 195.017,202.988 189.268,206.739" stroke-width="4.516" stroke="black" fill="none" stroke-linecap="round"></path><path d="M 189.268,206.739 C 185.829,208.983 183.146,211.377 182.077,210.736" stroke-width="5.499" stroke="black" fill="none" stroke-linecap="round"></path><path d="M 182.077,210.736 C 181.149,210.178 182.940,206.870 185.273,204.341" stroke-width="7.117" stroke="black" fill="none" stroke-linecap="round"></path><path d="M 185.273,204.341 C 187.734,201.674 191.665,200.150 191.665,200.344" stroke-width="7.290" stroke="black" fill="none" stroke-linecap="round"></path><path d="M 191.665,200.344 C 191.665,200.549 188.634,202.988 185.273,205.140" stroke-width="7.627" stroke="black" fill="none" stroke-linecap="round"></path><path d="M 185.273,205.140 C 178.646,209.384 178.465,209.109 171.690,213.134" stroke-width="5.285" stroke="black" fill="none" stroke-linecap="round"></path><path d="M 171.690,213.134 C 165.681,216.704 165.757,216.835 159.705,220.329" stroke-width="5.038" stroke="black" fill="none" stroke-linecap="round"></path><path d="M 159.705,220.329 C 155.370,222.831 155.340,222.782 150.916,225.125" stroke-width="5.460" stroke="black" fill="none" stroke-linecap="round"></path><path d="M 150.916,225.125 C 148.548,226.379 148.664,226.714 146.122,227.523" stroke-width="6.360" stroke="black" fill="none" stroke-linecap="round"></path><path d="M 146.122,227.523 C 139.875,229.512 139.661,228.884 133.338,230.721" stroke-width="7.487" stroke="black" fill="none" stroke-linecap="round"></path><path d="M 133.338,230.721 C 127.277,232.482 127.346,232.719 121.353,234.718" stroke-width="5.693" stroke="black" fill="none" stroke-linecap="round"></path><path d="M 121.353,234.718 C 112.964,237.516 112.964,237.516 104.574,240.314" stroke-width="4.730" stroke="black" fill="none" stroke-linecap="round"></path><path d="M 104.574,240.314 C 96.185,243.112 96.261,243.369 87.795,245.910" stroke-width="4.502" stroke="black" fill="none" stroke-linecap="round"></path><path d="M 87.795,245.910 C 80.281,248.165 80.306,248.451 72.614,249.907" stroke-width="4.712" stroke="black" fill="none" stroke-linecap="round"></path><path d="M 72.614,249.907 C 65.524,251.249 65.436,251.287 58.232,251.505" stroke-width="4.722" stroke="black" fill="none" stroke-linecap="round"></path><path d="M 58.232,251.505 C 52.253,251.687 52.006,252.036 46.247,250.706" stroke-width="5.095" stroke="black" fill="none" stroke-linecap="round"></path><path d="M 46.247,250.706 C 41.619,249.637 40.759,249.792 37.458,246.709" stroke-width="5.530" stroke="black" fill="none" stroke-linecap="round"></path><path d="M 37.458,246.709 C 34.767,244.196 34.960,243.237 34.262,239.514" stroke-width="5.951" stroke="black" fill="none" stroke-linecap="round"></path><path d="M 34.262,239.514 C 33.761,236.842 33.508,236.218 35.061,233.919" stroke-width="6.491" stroke="black" fill="none" stroke-linecap="round"></path><path d="M 35.061,233.919 C 43.496,221.429 43.001,220.274 54.237,209.936" stroke-width="4.500" stroke="black" fill="none" stroke-linecap="round"></path><path d="M 54.237,209.936 C 77.758,188.298 77.871,187.649 104.574,169.966" stroke-width="4.500" stroke="black" fill="none" stroke-linecap="round"></path><path d="M 104.574,169.966 C 133.401,150.877 134.369,152.060 165.298,136.391" stroke-width="4.500" stroke="black" fill="none" stroke-linecap="round"></path><path d="M 165.298,136.391 C 197.490,120.084 197.418,119.628 230.816,106.014" stroke-width="4.500" stroke="black" fill="none" stroke-linecap="round"></path><path d="M 230.816,106.014 C 262.137,93.247 262.291,93.126 294.737,83.631" stroke-width="4.500" stroke="black" fill="none" stroke-linecap="round"></path><path d="M 294.737,83.631 C 321.018,75.939 321.252,75.871 348.270,71.640" stroke-width="4.500" stroke="black" fill="none" stroke-linecap="round"></path><path d="M 348.270,71.640 C 367.195,68.676 367.446,70.441 386.622,69.241" stroke-width="4.500" stroke="black" fill="none" stroke-linecap="round"></path></svg>