<svg xmlns="http://www.w3.org/2000/svg" xmlns:xlink="http://www.w3.org/1999/xlink" viewBox="0 0 576 416" width="576" height="416"><path d="M 445.748,147.983 C 440.954,148.782 440.787,148.157 436.160,149.582" stroke-width="7.602" stroke="black" fill="none" stroke-linecap="round"></path><path d="M 436.160,149.582 C 425.207,152.954 425.318,153.435 414.587,157.576" stroke-width="4.500" stroke="black" fill="none" stroke-linecap="round"></path><path d="M 414.587,157.576 C 397.353,164.226 397.362,164.258 380.230,171.166" stroke-width="4.500" stroke="black" fill="none" stroke-linecap="round"></path><path d="M 380.230,171.166 C 370.596,175.050 370.539,174.928 361.054,179.160" stroke-width="4.500" stroke="black" fill="none" stroke-linecap="round"></path><path d="M 361.054,179.160 C 340.976,188.118 340.796,187.775 321.104,197.546" stroke-width="4.500" stroke="black" fill="none" stroke-linecap="round"></path><path d="M 321.104,197.546 C 291.657,212.157 291.986,212.824 262.777,227.923" stroke-width="4.500" stroke="black" fill="none" stroke-linecap="round"></path><path d="M 262.777,227.923 C 244.046,237.606 243.952,237.424 225.223,247.109" stroke-width="4.500" stroke="black" fill="none" stroke-linecap="round"></path><path d="M 225.223,247.109 C 208.397,255.810 208.393,255.805 191.665,264.696" stroke-width="4.500" stroke="black" fill="none" stroke-linecap="round"></path><path d="M 191.665,264.696 C 170.041,276.190 170.351,276.957 148.519,287.879" stroke-width="4.500" stroke="black" fill="none" stroke-linecap="round"></path><path d="M 148.519,287.879 C 145.582,289.348 143.326,290.676 142.127,289.477" stroke-width="5.032" stroke="black" fill="none" stroke-linecap="round"></path><path d="M 142.127,289.477 C 140.929,288.278 142.216,285.913 143.725,283.082" stroke-width="6.558" stroke="black" fill="none" stroke-linecap="round"></path><path d="M 143.725,283.082 C 145.412,279.918 146.178,280.331 148.519,277.486" stroke-width="6.360" stroke="black" fill="none" stroke-linecap="round"></path><path d="M 148.519,277.486 C 151.771,273.536 151.921,273.635 154.911,269.492" stroke-width="5.822" stroke="black" fill="none" stroke-linecap="round"></path><path d="M 154.911,269.492 C 157.114,266.440 156.869,266.269 158.906,263.097" stroke-width="6.177" stroke="black" fill="none" stroke-linecap="round"></path><path d="M 158.906,263.097 C 160.464,260.673 163.329,258.437 162.102,258.301" stroke-width="6.478" stroke="black" fill="none" stroke-linecap="round"></path><path d="M 162.102,258.301 C 159.734,258.037 156.566,259.636 151.715,262.298" stroke-width="7.089" stroke="black" fill="none" stroke-linecap="round"></path><path d="M 151.715,262.298 C 144.181,266.431 144.589,267.194 137.333,271.891" stroke-width="5.020" stroke="black" fill="none" stroke-linecap="round"></path><path d="M 137.333,271.891 C 131.006,275.987 130.954,275.907 124.549,279.885" stroke-width="4.934" stroke="black" fill="none" stroke-linecap="round"></path><path d="M 124.549,279.885 C 119.368,283.102 119.514,283.379 114.162,286.280" stroke-width="5.054" stroke="black" fill="none" stroke-linecap="round"></path><path d="M 114.162,286.280 C 109.926,288.576 109.910,288.764 105.373,290.277" stroke-width="5.515" stroke="black" fill="none" stroke-linecap="round"></path><path d="M 105.373,290.277 C 102.719,291.162 102.591,290.875 99.780,291.076" stroke-width="6.328" stroke="black" fill="none" stroke-linecap="round"></path><path d="M 99.780,291.076 C 96.998,291.275 96.976,291.240 94.187,291.076" stroke-width="7.488" stroke="black" fill="none" stroke-linecap="round"></path><path d="M 94.187,291.076 C 90.184,290.841 90.200,290.512 86.197,290.277" stroke-width="7.342" stroke="black" fill="none" stroke-linecap="round"></path><path d="M 86.197,290.277 C 83.409,290.113 83.391,290.451 80.604,290.277" stroke-width="6.933" stroke="black" fill="none" stroke-linecap="round"></path><path d="M 80.604,290.277 C 76.999,290.051 77.020,289.678 73.413,289.477" stroke-width="6.487" stroke="black" fill="none" stroke-linecap="round"></path><path d="M 73.413,289.477 C 69.829,289.278 69.723,290.061 66.222,289.477" stroke-width="6.290" stroke="black" fill="none" stroke-linecap="round"></path><path d="M 66.222,289.477 C 62.532,288.862 62.605,288.341 59.031,287.079" stroke-width="6.390" stroke="black" fill="none" stroke-linecap="round"></path><path d="M 59.031,287.079 C 55.813,285.943 55.352,286.560 52.639,284.681" stroke-width="6.245" stroke="black" fill="none" stroke-linecap="round"></path><path d="M 52.639,284.681 C 50.159,282.963 50.262,282.515 48.644,279.885" stroke-width="6.478" stroke="black" fill="none" stroke-linecap="round"></path><path d="M 48.644,279.885 C 47.066,277.319 46.612,277.210 46.247,274.289" stroke-width="6.581" stroke="black" fill="none" stroke-linecap="round"></path><path d="M 46.247,274.289 C 45.813,270.815 45.583,270.336 47.046,267.094" stroke-width="6.391" stroke="black" fill="none" stroke-linecap="round"></path><path d="M 47.046,267.094 C 51.176,257.946 51.211,257.535 57.433,249.507" stroke-width="4.584" stroke="black" fill="none" stroke-linecap="round"></path><path d="M 57.433,249.507 C 66.392,237.949 66.583,237.804 77.408,227.923" stroke-width="4.500" stroke="black" fill="none" stroke-linecap="round"></path><path d="M 77.408,227.923 C 89.354,217.020 89.750,217.311 102.976,207.938" stroke-width="4.500" stroke="black" fill="none" stroke-linecap="round"></path><path d="M 102.976,207.938 C 118.514,196.927 118.538,196.839 134.936,187.154" stroke-width="4.500" stroke="black" fill="none" stroke-linecap="round"></path><path d="M 134.936,187.154 C 151.697,177.254 151.732,177.162 169.293,168.767" stroke-width="4.500" stroke="black" fill="none" stroke-linecap="round"></path><path d="M 169.293,168.767 C 187.687,159.975 187.688,159.689 206.846,152.779" stroke-width="4.500" stroke="black" fill="none" stroke-linecap="round"></path><path d="M 206.846,152.779 C 222.045,147.298 222.240,147.030 238.008,143.986" stroke-width="4.500" stroke="black" fill="none" stroke-linecap="round"></path><path d="M 238.008,143.986 C 245.011,142.634 254.999,139.763 252.390,143.986" stroke-width="4.500" stroke="black" fill="none" stroke-linecap="round"></path><path d="M 252.390,143.986 C 241.416,161.747 232.960,167.382 210.841,187.953" stroke-width="4.500" stroke="black" fill="none" stroke-linecap="round"></path><path d="M 210.841,187.953 C 176.231,220.143 174.500,218.291 138.931,249.507" stroke-width="4.500" stroke="black" fill="none" stroke-linecap="round"></path><path d="M 138.931,249.507 C 106.186,278.246 106.390,278.487 74.212,307.864" stroke-width="4.500" stroke="black" fill="none" stroke-linecap="round"></path><path d="M 74.212,307.864 C 42.470,336.843 41.192,335.634 11.091,366.220" stroke-width="4.500" stroke="black" fill="none" stroke-linecap="round"></path><path d="M 11.091,366.220 C -9.944,387.595 -9.550,388.217 -28.060,411.786" stroke-width="4.500" stroke="black" fill="none" stroke-linecap="round"></path><path d="M -28.060,411.786 C -35.917,421.791 -38.019,422.491 -41.643,433.370" stroke-width="4.500" stroke="black" fill="none" stroke-linecap="round"></path><path d="M -41.643,433.370 C -42.813,436.881 -39.645,436.967 -37.648,440.565" stroke-width="4.500" stroke="black" fill="none" stroke-linecap="round"></path><circle r="3" cx="128.54432678222656" cy="249.50723266601562" fill="black"></circle></svg>