<svg xmlns="http://www.w3.org/2000/svg" xmlns:xlink="http://www.w3.org/1999/xlink" viewBox="0 0 576 336" width="576" height="336"><path d="M 92.733,156.347 C 92.733,163.455 92.564,163.459 92.733,170.563" stroke-width="7.170" stroke="black" fill="none" stroke-linecap="round"></path><path d="M 92.733,170.563 C 92.919,178.386 93.164,178.380 93.443,186.201" stroke-width="5.109" stroke="black" fill="none" stroke-linecap="round"></path><path d="M 93.443,186.201 C 93.697,193.307 93.147,193.362 93.798,200.418" stroke-width="4.961" stroke="black" fill="none" stroke-linecap="round"></path><path d="M 93.798,200.418 C 94.213,204.913 93.502,210.784 95.574,209.303" stroke-width="5.565" stroke="black" fill="none" stroke-linecap="round"></path><path d="M 95.574,209.303 C 100.962,205.453 103.525,200.228 108.718,189.755" stroke-width="5.941" stroke="black" fill="none" stroke-linecap="round"></path><path d="M 108.718,189.755 C 114.715,177.660 112.973,176.817 117.954,164.166" stroke-width="4.500" stroke="black" fill="none" stroke-linecap="round"></path><path d="M 117.954,164.166 C 122.209,153.360 122.007,153.212 127.190,142.841" stroke-width="4.500" stroke="black" fill="none" stroke-linecap="round"></path><path d="M 127.190,142.841 C 130.710,135.797 130.224,134.346 135.360,129.336" stroke-width="4.500" stroke="black" fill="none" stroke-linecap="round"></path><path d="M 135.360,129.336 C 137.328,127.416 139.949,126.993 141.399,128.981" stroke-width="6.213" stroke="black" fill="none" stroke-linecap="round"></path><path d="M 141.399,128.981 C 144.745,133.568 144.058,135.593 144.951,142.486" stroke-width="5.264" stroke="black" fill="none" stroke-linecap="round"></path><path d="M 144.951,142.486 C 146.545,154.785 145.697,154.923 146.372,167.365" stroke-width="4.500" stroke="black" fill="none" stroke-linecap="round"></path><path d="M 146.372,167.365 C 146.940,177.847 146.469,177.894 147.438,188.334" stroke-width="4.500" stroke="black" fill="none" stroke-linecap="round"></path><path d="M 147.438,188.334 C 148.068,195.132 147.924,195.257 149.569,201.839" stroke-width="4.502" stroke="black" fill="none" stroke-linecap="round"></path><path d="M 149.569,201.839 C 150.411,205.209 150.240,209.570 152.411,208.236" stroke-width="5.668" stroke="black" fill="none" stroke-linecap="round"></path><path d="M 152.411,208.236 C 160.364,203.350 163.021,200.106 169.817,189.400" stroke-width="5.180" stroke="black" fill="none" stroke-linecap="round"></path><path d="M 169.817,189.400 C 179.716,173.806 178.117,172.657 185.802,155.636" stroke-width="4.500" stroke="black" fill="none" stroke-linecap="round"></path><path d="M 185.802,155.636 C 193.924,137.649 193.864,137.613 201.432,119.384" stroke-width="4.500" stroke="black" fill="none" stroke-linecap="round"></path><path d="M 201.432,119.384 C 208.251,102.960 208.867,103.136 214.575,86.332" stroke-width="4.500" stroke="black" fill="none" stroke-linecap="round"></path><path d="M 214.575,86.332 C 218.103,75.947 217.983,75.788 219.904,65.007" stroke-width="4.500" stroke="black" fill="none" stroke-linecap="round"></path><path d="M 219.904,65.007 C 221.180,57.840 221.210,57.650 220.969,50.435" stroke-width="4.500" stroke="black" fill="none" stroke-linecap="round"></path><path d="M 220.969,50.435 C 220.855,46.988 220.935,46.450 219.193,43.683" stroke-width="5.602" stroke="black" fill="none" stroke-linecap="round"></path><path d="M 219.193,43.683 C 217.915,41.652 216.953,39.752 214.931,40.839" stroke-width="6.955" stroke="black" fill="none" stroke-linecap="round"></path><path d="M 214.931,40.839 C 205.053,46.149 203.754,47.296 195.393,56.477" stroke-width="5.559" stroke="black" fill="none" stroke-linecap="round"></path><path d="M 195.393,56.477 C 181.907,71.287 182.733,72.240 171.238,88.819" stroke-width="4.500" stroke="black" fill="none" stroke-linecap="round"></path><path d="M 171.238,88.819 C 155.380,111.690 155.413,111.755 140.688,135.378" stroke-width="4.500" stroke="black" fill="none" stroke-linecap="round"></path><path d="M 140.688,135.378 C 124.508,161.334 124.314,161.264 109.428,187.978" stroke-width="4.500" stroke="black" fill="none" stroke-linecap="round"></path><path d="M 109.428,187.978 C 95.896,212.265 95.868,212.310 83.852,237.380" stroke-width="4.500" stroke="black" fill="none" stroke-linecap="round"></path><path d="M 83.852,237.380 C 72.956,260.113 73.764,260.497 63.604,283.583" stroke-width="4.500" stroke="black" fill="none" stroke-linecap="round"></path><path d="M 63.604,283.583 C 54.760,303.679 54.665,303.638 45.843,323.744" stroke-width="4.500" stroke="black" fill="none" stroke-linecap="round"></path><path d="M 45.843,323.744 C 38.680,340.067 28.886,362.655 31.634,356.442" stroke-width="4.500" stroke="black" fill="none" stroke-linecap="round"></path></svg>