<svg xmlns="http://www.w3.org/2000/svg" xmlns:xlink="http://www.w3.org/1999/xlink" viewBox="0 0 576 416" width="576" height="416"><path d="M 359.456,150.781 C 355.061,154.378 354.935,154.239 350.667,157.975" stroke-width="8.613" stroke="black" fill="none" stroke-linecap="round"></path><path d="M 350.667,157.975 C 348.543,159.834 348.883,160.234 346.672,161.972" stroke-width="7.139" stroke="black" fill="none" stroke-linecap="round"></path><path d="M 346.672,161.972 C 343.290,164.631 343.232,164.658 339.481,166.769" stroke-width="7.165" stroke="black" fill="none" stroke-linecap="round"></path><path d="M 339.481,166.769 C 336.840,168.255 336.725,168.949 333.888,169.167" stroke-width="7.487" stroke="black" fill="none" stroke-linecap="round"></path><path d="M 333.888,169.167 C 331.531,169.348 331.141,166.885 329.094,167.568" stroke-width="8.268" stroke="black" fill="none" stroke-linecap="round"></path><path d="M 329.094,167.568 C 326.347,168.484 326.796,170.075 324.300,172.365" stroke-width="8.011" stroke="black" fill="none" stroke-linecap="round"></path><path d="M 324.300,172.365 C 322.002,174.472 322.135,174.742 319.506,176.362" stroke-width="7.669" stroke="black" fill="none" stroke-linecap="round"></path><path d="M 319.506,176.362 C 316.942,177.940 316.813,178.345 313.913,178.760" stroke-width="7.889" stroke="black" fill="none" stroke-linecap="round"></path><path d="M 313.913,178.760 C 311.220,179.145 311.061,177.749 308.320,177.960" stroke-width="8.368" stroke="black" fill="none" stroke-linecap="round"></path><path d="M 308.320,177.960 C 305.868,178.149 305.978,179.370 303.526,179.559" stroke-width="8.457" stroke="black" fill="none" stroke-linecap="round"></path><path d="M 303.526,179.559 C 300.784,179.770 300.578,178.230 297.933,178.760" stroke-width="8.353" stroke="black" fill="none" stroke-linecap="round"></path><path d="M 297.933,178.760 C 294.586,179.429 293.937,179.559 291.541,181.957" stroke-width="8.026" stroke="black" fill="none" stroke-linecap="round"></path><path d="M 291.541,181.957 C 289.143,184.356 289.592,185.025 288.345,188.353" stroke-width="7.604" stroke="black" fill="none" stroke-linecap="round"></path><path d="M 288.345,188.353 C 287.195,191.420 287.546,191.550 286.747,194.748" stroke-width="7.558" stroke="black" fill="none" stroke-linecap="round"></path><path d="M 286.747,194.748 C 285.948,197.945 287.224,199.255 285.149,201.143" stroke-width="7.842" stroke="black" fill="none" stroke-linecap="round"></path><path d="M 285.149,201.143 C 282.829,203.252 281.585,202.137 277.958,202.742" stroke-width="7.525" stroke="black" fill="none" stroke-linecap="round"></path><path d="M 277.958,202.742 C 274.394,203.336 274.375,203.377 270.767,203.541" stroke-width="6.634" stroke="black" fill="none" stroke-linecap="round"></path><path d="M 270.767,203.541 C 265.586,203.777 265.555,203.207 260.380,203.541" stroke-width="5.864" stroke="black" fill="none" stroke-linecap="round"></path><path d="M 260.380,203.541 C 253.170,204.007 253.195,204.401 245.998,205.140" stroke-width="5.125" stroke="black" fill="none" stroke-linecap="round"></path><path d="M 245.998,205.140 C 237.614,206.000 237.581,205.719 229.218,206.739" stroke-width="4.685" stroke="black" fill="none" stroke-linecap="round"></path><path d="M 229.218,206.739 C 221.201,207.717 221.102,207.389 213.238,209.137" stroke-width="4.635" stroke="black" fill="none" stroke-linecap="round"></path><path d="M 213.238,209.137 C 206.720,210.586 206.806,211.016 200.454,213.134" stroke-width="4.907" stroke="black" fill="none" stroke-linecap="round"></path><path d="M 200.454,213.134 C 196.019,214.613 192.099,214.595 191.665,216.332" stroke-width="5.504" stroke="black" fill="none" stroke-linecap="round"></path><path d="M 191.665,216.332 C 191.300,217.793 194.959,219.398 198.856,219.529" stroke-width="6.930" stroke="black" fill="none" stroke-linecap="round"></path><path d="M 198.856,219.529 C 230.515,220.597 230.840,219.802 262.777,218.730" stroke-width="4.500" stroke="black" fill="none" stroke-linecap="round"></path><path d="M 262.777,218.730 C 290.366,217.804 290.321,216.547 317.908,215.532" stroke-width="4.500" stroke="black" fill="none" stroke-linecap="round"></path><path d="M 317.908,215.532 C 344.653,214.548 344.675,215.175 371.441,214.733" stroke-width="4.500" stroke="black" fill="none" stroke-linecap="round"></path><path d="M 371.441,214.733 C 393.014,214.376 393.015,213.934 414.587,213.934" stroke-width="4.500" stroke="black" fill="none" stroke-linecap="round"></path><path d="M 414.587,213.934 C 429.769,213.934 429.766,214.480 444.949,214.733" stroke-width="4.500" stroke="black" fill="none" stroke-linecap="round"></path><path d="M 444.949,214.733 C 453.736,214.879 459.251,215.279 462.527,214.733" stroke-width="4.500" stroke="black" fill="none" stroke-linecap="round"></path><path d="M 462.527,214.733 C 464.045,214.480 458.579,213.622 454.537,213.134" stroke-width="5.941" stroke="black" fill="none" stroke-linecap="round"></path><path d="M 454.537,213.134 C 435.408,210.824 435.404,210.591 416.185,209.137" stroke-width="4.500" stroke="black" fill="none" stroke-linecap="round"></path><path d="M 416.185,209.137 C 387.864,206.994 387.837,207.131 359.456,205.939" stroke-width="4.500" stroke="black" fill="none" stroke-linecap="round"></path><path d="M 359.456,205.939 C 330.709,204.733 330.693,204.341 301.928,204.341" stroke-width="4.500" stroke="black" fill="none" stroke-linecap="round"></path><path d="M 301.928,204.341 C 269.969,204.341 269.959,204.895 238.008,205.939" stroke-width="4.500" stroke="black" fill="none" stroke-linecap="round"></path><path d="M 238.008,205.939 C 208.836,206.893 208.849,207.265 179.680,208.338" stroke-width="4.500" stroke="black" fill="none" stroke-linecap="round"></path><path d="M 179.680,208.338 C 154.516,209.263 154.495,208.782 129.343,209.936" stroke-width="4.500" stroke="black" fill="none" stroke-linecap="round"></path><path d="M 129.343,209.936 C 110.949,210.781 110.974,211.268 92.589,212.335" stroke-width="4.500" stroke="black" fill="none" stroke-linecap="round"></path><path d="M 92.589,212.335 C 83.408,212.867 83.385,213.134 74.212,213.134" stroke-width="4.500" stroke="black" fill="none" stroke-linecap="round"></path><path d="M 74.212,213.134 C 71.000,213.134 67.209,213.253 67.820,212.335" stroke-width="5.237" stroke="black" fill="none" stroke-linecap="round"></path><path d="M 67.820,212.335 C 68.807,210.854 72.586,210.267 77.408,208.338" stroke-width="6.296" stroke="black" fill="none" stroke-linecap="round"></path><path d="M 77.408,208.338 C 88.566,203.872 88.559,203.848 99.780,199.544" stroke-width="4.500" stroke="black" fill="none" stroke-linecap="round"></path><path d="M 99.780,199.544 C 112.529,194.655 112.645,194.952 125.348,189.951" stroke-width="4.500" stroke="black" fill="none" stroke-linecap="round"></path><path d="M 125.348,189.951 C 137.014,185.359 137.112,185.546 148.519,180.359" stroke-width="4.500" stroke="black" fill="none" stroke-linecap="round"></path><path d="M 148.519,180.359 C 159.085,175.554 159.216,175.695 169.293,169.966" stroke-width="4.500" stroke="black" fill="none" stroke-linecap="round"></path><path d="M 169.293,169.966 C 176.794,165.703 176.684,165.439 183.675,160.373" stroke-width="4.500" stroke="black" fill="none" stroke-linecap="round"></path><path d="M 183.675,160.373 C 188.269,157.045 188.345,157.058 192.464,153.179" stroke-width="4.979" stroke="black" fill="none" stroke-linecap="round"></path><path d="M 192.464,153.179 C 195.137,150.662 197.458,147.783 197.258,147.583" stroke-width="5.887" stroke="black" fill="none" stroke-linecap="round"></path><path d="M 197.258,147.583 C 197.059,147.383 193.575,149.355 191.665,152.379" stroke-width="7.284" stroke="black" fill="none" stroke-linecap="round"></path><path d="M 191.665,152.379 C 188.781,156.949 188.925,157.392 187.670,162.772" stroke-width="5.886" stroke="black" fill="none" stroke-linecap="round"></path><path d="M 187.670,162.772 C 186.128,169.383 186.441,169.541 186.072,176.362" stroke-width="5.323" stroke="black" fill="none" stroke-linecap="round"></path><path d="M 186.072,176.362 C 185.642,184.330 185.397,184.405 186.072,192.350" stroke-width="4.720" stroke="black" fill="none" stroke-linecap="round"></path><path d="M 186.072,192.350 C 186.995,203.191 187.056,203.269 189.268,213.934" stroke-width="4.500" stroke="black" fill="none" stroke-linecap="round"></path><path d="M 189.268,213.934 C 191.451,224.453 192.065,224.326 194.861,234.718" stroke-width="4.500" stroke="black" fill="none" stroke-linecap="round"></path></svg>