<svg xmlns="http://www.w3.org/2000/svg" xmlns:xlink="http://www.w3.org/1999/xlink" viewBox="0 0 576 416" width="576" height="416"><path d="M 142.127,82.032 C 149.718,93.224 150.842,92.632 157.308,104.415" stroke-width="7.668" stroke="black" fill="none" stroke-linecap="round"></path><path d="M 157.308,104.415 C 162.028,113.017 161.498,113.416 164.499,122.802" stroke-width="4.826" stroke="black" fill="none" stroke-linecap="round"></path><path d="M 164.499,122.802 C 167.890,133.401 167.317,133.588 170.092,144.385" stroke-width="4.500" stroke="black" fill="none" stroke-linecap="round"></path><path d="M 170.092,144.385 C 170.913,147.578 170.650,147.659 171.690,150.781" stroke-width="5.591" stroke="black" fill="none" stroke-linecap="round"></path><path d="M 171.690,150.781 C 173.447,156.053 173.849,155.923 175.685,161.173" stroke-width="5.389" stroke="black" fill="none" stroke-linecap="round"></path><path d="M 186.072,131.595 C 185.273,126.399 185.184,126.411 184.474,121.203" stroke-width="7.955" stroke="black" fill="none" stroke-linecap="round"></path><path d="M 184.474,121.203 C 183.986,117.617 183.901,117.615 183.675,114.008" stroke-width="7.573" stroke="black" fill="none" stroke-linecap="round"></path><path d="M 183.675,114.008 C 183.501,111.220 182.974,108.237 183.675,108.412" stroke-width="7.941" stroke="black" fill="none" stroke-linecap="round"></path><path d="M 183.675,108.412 C 184.572,108.636 185.150,111.676 186.871,114.807" stroke-width="7.894" stroke="black" fill="none" stroke-linecap="round"></path><path d="M 186.871,114.807 C 189.545,119.670 190.057,119.411 192.464,124.400" stroke-width="5.891" stroke="black" fill="none" stroke-linecap="round"></path><path d="M 192.464,124.400 C 195.650,131.003 194.934,131.349 198.057,137.990" stroke-width="4.996" stroke="black" fill="none" stroke-linecap="round"></path><path d="M 198.057,137.990 C 201.326,144.939 201.653,144.785 205.248,151.580" stroke-width="4.804" stroke="black" fill="none" stroke-linecap="round"></path><path d="M 205.248,151.580 C 208.844,158.375 208.547,158.549 212.439,165.170" stroke-width="4.749" stroke="black" fill="none" stroke-linecap="round"></path><path d="M 212.439,165.170 C 216.537,172.139 217.027,171.854 221.228,178.760" stroke-width="4.826" stroke="black" fill="none" stroke-linecap="round"></path><path d="M 221.228,178.760 C 222.620,181.048 222.195,181.307 223.625,183.556" stroke-width="6.131" stroke="black" fill="none" stroke-linecap="round"></path><path d="M 223.625,183.556 C 224.991,185.703 224.746,187.553 226.822,187.553" stroke-width="7.225" stroke="black" fill="none" stroke-linecap="round"></path><path d="M 226.822,187.553 C 230.738,187.553 231.249,185.623 235.611,183.556" stroke-width="6.117" stroke="black" fill="none" stroke-linecap="round"></path><path d="M 235.611,183.556 C 238.839,182.026 242.193,180.359 242.003,180.359" stroke-width="6.269" stroke="black" fill="none" stroke-linecap="round"></path><path d="M 242.003,180.359 C 241.793,180.359 238.515,183.371 234.811,183.556" stroke-width="7.597" stroke="black" fill="none" stroke-linecap="round"></path><path d="M 234.811,183.556 C 230.525,183.771 230.151,183.010 226.022,181.158" stroke-width="6.291" stroke="black" fill="none" stroke-linecap="round"></path><path d="M 226.022,181.158 C 218.566,177.814 217.981,178.195 211.640,173.164" stroke-width="4.981" stroke="black" fill="none" stroke-linecap="round"></path><path d="M 211.640,173.164 C 206.396,169.002 206.082,168.589 202.851,162.772" stroke-width="4.993" stroke="black" fill="none" stroke-linecap="round"></path><path d="M 202.851,162.772 C 200.089,157.797 200.288,157.273 199.655,151.580" stroke-width="5.233" stroke="black" fill="none" stroke-linecap="round"></path><path d="M 199.655,151.580 C 199.089,146.481 199.720,146.330 200.454,141.188" stroke-width="5.471" stroke="black" fill="none" stroke-linecap="round"></path><path d="M 200.454,141.188 C 200.919,137.936 200.457,137.617 202.052,134.793" stroke-width="6.143" stroke="black" fill="none" stroke-linecap="round"></path><path d="M 202.052,134.793 C 205.651,128.423 205.762,128.182 210.841,122.802" stroke-width="5.138" stroke="black" fill="none" stroke-linecap="round"></path><path d="M 210.841,122.802 C 219.345,113.793 219.137,113.194 229.218,106.014" stroke-width="4.500" stroke="black" fill="none" stroke-linecap="round"></path><path d="M 229.218,106.014 C 242.708,96.407 243.021,96.440 257.983,89.227" stroke-width="4.500" stroke="black" fill="none" stroke-linecap="round"></path><path d="M 257.983,89.227 C 276.180,80.452 276.328,80.309 295.536,74.038" stroke-width="4.500" stroke="black" fill="none" stroke-linecap="round"></path><path d="M 295.536,74.038 C 314.281,67.918 314.477,67.920 333.888,64.445" stroke-width="4.500" stroke="black" fill="none" stroke-linecap="round"></path><path d="M 333.888,64.445 C 352.430,61.125 352.616,61.543 371.441,60.448" stroke-width="4.500" stroke="black" fill="none" stroke-linecap="round"></path><path d="M 371.441,60.448 C 386.973,59.545 387.094,59.493 402.602,60.448" stroke-width="4.500" stroke="black" fill="none" stroke-linecap="round"></path><path d="M 402.602,60.448 C 413.062,61.092 413.216,61.238 423.376,63.646" stroke-width="4.500" stroke="black" fill="none" stroke-linecap="round"></path><path d="M 423.376,63.646 C 428.397,64.835 430.255,64.255 432.964,67.643" stroke-width="4.830" stroke="black" fill="none" stroke-linecap="round"></path><path d="M 432.964,67.643 C 435.049,70.250 434.310,72.270 432.964,75.637" stroke-width="5.667" stroke="black" fill="none" stroke-linecap="round"></path><path d="M 432.964,75.637 C 431.913,78.265 430.869,78.090 428.170,79.634" stroke-width="6.278" stroke="black" fill="none" stroke-linecap="round"></path><path d="M 428.170,79.634 C 416.887,86.084 416.950,86.439 404.999,91.625" stroke-width="4.500" stroke="black" fill="none" stroke-linecap="round"></path><path d="M 404.999,91.625 C 383.791,100.828 383.775,101.041 361.853,108.412" stroke-width="4.500" stroke="black" fill="none" stroke-linecap="round"></path><path d="M 361.853,108.412 C 335.035,117.429 334.591,116.094 307.521,124.400" stroke-width="4.500" stroke="black" fill="none" stroke-linecap="round"></path><path d="M 307.521,124.400 C 274.666,134.481 274.622,134.373 242.003,145.185" stroke-width="4.500" stroke="black" fill="none" stroke-linecap="round"></path><path d="M 242.003,145.185 C 209.504,155.957 209.596,156.243 177.283,167.568" stroke-width="4.500" stroke="black" fill="none" stroke-linecap="round"></path><path d="M 177.283,167.568 C 146.874,178.226 146.908,178.323 116.559,189.152" stroke-width="4.500" stroke="black" fill="none" stroke-linecap="round"></path><path d="M 116.559,189.152 C 89.779,198.708 89.634,198.326 63.026,208.338" stroke-width="4.500" stroke="black" fill="none" stroke-linecap="round"></path><path d="M 63.026,208.338 C 42.892,215.913 43.397,217.389 23.076,224.326" stroke-width="4.500" stroke="black" fill="none" stroke-linecap="round"></path><path d="M 23.076,224.326 C 9.440,228.981 9.069,230.466 -4.889,231.520" stroke-width="4.500" stroke="black" fill="none" stroke-linecap="round"></path><path d="M -4.889,231.520 C -12.104,232.065 -12.080,229.522 -19.271,227.523" stroke-width="4.500" stroke="black" fill="none" stroke-linecap="round"></path><circle r="3" cx="210.84146118164062" cy="33.268310546875" fill="black"></circle></svg>