<svg xmlns="http://www.w3.org/2000/svg" xmlns:xlink="http://www.w3.org/1999/xlink" viewBox="0 0 576 416" width="576" height="416"><path d="M 293.139,323.344 C 292.739,336.949 289.815,355.601 292.340,350.555" stroke-width="5.107" stroke="black" fill="none" stroke-linecap="round"></path><path d="M 292.340,350.555 C 298.205,338.829 301.129,320.177 309.918,289.800" stroke-width="4.500" stroke="black" fill="none" stroke-linecap="round"></path><path d="M 426.572,201.066 C 418.981,200.267 418.997,199.975 411.391,199.467" stroke-width="8.362" stroke="black" fill="none" stroke-linecap="round"></path><path d="M 411.391,199.467 C 407.012,199.175 406.990,199.292 402.602,199.467" stroke-width="6.499" stroke="black" fill="none" stroke-linecap="round"></path><path d="M 402.602,199.467 C 397.002,199.691 397.016,200.067 391.416,200.267" stroke-width="5.706" stroke="black" fill="none" stroke-linecap="round"></path><path d="M 391.416,200.267 C 385.830,200.466 385.791,199.855 380.230,200.267" stroke-width="5.509" stroke="black" fill="none" stroke-linecap="round"></path><path d="M 380.230,200.267 C 375.005,200.654 375.057,201.240 369.843,201.866" stroke-width="5.546" stroke="black" fill="none" stroke-linecap="round"></path><path d="M 369.843,201.866 C 365.069,202.439 365.024,202.068 360.255,202.665" stroke-width="5.685" stroke="black" fill="none" stroke-linecap="round"></path><path d="M 360.255,202.665 C 355.436,203.267 355.480,203.607 350.667,204.264" stroke-width="5.714" stroke="black" fill="none" stroke-linecap="round"></path><path d="M 350.667,204.264 C 346.691,204.806 346.635,204.438 342.677,205.063" stroke-width="5.987" stroke="black" fill="none" stroke-linecap="round"></path><path d="M 342.677,205.063 C 339.045,205.637 339.081,205.863 335.486,206.662" stroke-width="6.189" stroke="black" fill="none" stroke-linecap="round"></path><path d="M 335.486,206.662 C 331.890,207.461 331.880,207.417 328.295,208.261" stroke-width="6.326" stroke="black" fill="none" stroke-linecap="round"></path><path d="M 328.295,208.261 C 325.088,209.016 325.085,209.010 321.903,209.860" stroke-width="6.360" stroke="black" fill="none" stroke-linecap="round"></path><path d="M 321.903,209.860 C 319.093,210.609 319.106,210.659 316.310,211.458" stroke-width="6.598" stroke="black" fill="none" stroke-linecap="round"></path><path d="M 316.310,211.458 C 313.513,212.258 313.553,212.427 310.717,213.057" stroke-width="6.673" stroke="black" fill="none" stroke-linecap="round"></path><path d="M 310.717,213.057 C 306.361,214.025 306.230,213.523 301.928,214.656" stroke-width="6.985" stroke="black" fill="none" stroke-linecap="round"></path><path d="M 301.928,214.656 C 298.640,215.522 298.771,215.975 295.536,217.054" stroke-width="7.334" stroke="black" fill="none" stroke-linecap="round"></path><path d="M 295.536,217.054 C 292.779,217.974 292.596,219.032 289.943,218.653" stroke-width="7.840" stroke="black" fill="none" stroke-linecap="round"></path><path d="M 289.943,218.653 C 287.003,218.233 287.021,217.238 284.350,215.455" stroke-width="8.439" stroke="black" fill="none" stroke-linecap="round"></path><path d="M 284.350,215.455 C 282.227,214.040 282.352,213.857 280.355,212.258" stroke-width="7.313" stroke="black" fill="none" stroke-linecap="round"></path><path d="M 280.355,212.258 C 278.357,210.659 278.312,210.713 276.360,209.060" stroke-width="7.032" stroke="black" fill="none" stroke-linecap="round"></path><path d="M 276.360,209.060 C 273.118,206.316 270.395,206.461 269.968,203.464" stroke-width="7.178" stroke="black" fill="none" stroke-linecap="round"></path><path d="M 269.968,203.464 C 269.596,200.865 271.777,199.575 274.762,197.868" stroke-width="7.789" stroke="black" fill="none" stroke-linecap="round"></path><path d="M 274.762,197.868 C 277.370,196.377 277.948,197.375 281.154,197.069" stroke-width="6.775" stroke="black" fill="none" stroke-linecap="round"></path><path d="M 281.154,197.069 C 286.338,196.575 286.342,196.530 291.541,196.270" stroke-width="6.151" stroke="black" fill="none" stroke-linecap="round"></path><path d="M 291.541,196.270 C 294.332,196.130 294.392,195.878 297.134,196.270" stroke-width="6.573" stroke="black" fill="none" stroke-linecap="round"></path><path d="M 297.134,196.270 C 299.985,196.677 303.038,196.467 302.727,197.868" stroke-width="7.314" stroke="black" fill="none" stroke-linecap="round"></path><path d="M 302.727,197.868 C 302.239,200.064 299.368,201.042 295.536,203.464" stroke-width="7.551" stroke="black" fill="none" stroke-linecap="round"></path><path d="M 295.536,203.464 C 291.778,205.839 291.541,205.463 287.546,207.461" stroke-width="6.214" stroke="black" fill="none" stroke-linecap="round"></path><path d="M 287.546,207.461 C 283.551,209.460 283.625,209.626 279.556,211.458" stroke-width="5.990" stroke="black" fill="none" stroke-linecap="round"></path><path d="M 279.556,211.458 C 275.635,213.223 275.576,213.096 271.566,214.656" stroke-width="5.980" stroke="black" fill="none" stroke-linecap="round"></path><path d="M 271.566,214.656 C 268.385,215.894 268.409,215.975 265.174,217.054" stroke-width="6.282" stroke="black" fill="none" stroke-linecap="round"></path><path d="M 265.174,217.054 C 262.417,217.974 262.424,218.463 259.581,218.653" stroke-width="6.573" stroke="black" fill="none" stroke-linecap="round"></path><path d="M 259.581,218.653 C 256.432,218.863 255.364,219.695 253.189,217.854" stroke-width="7.238" stroke="black" fill="none" stroke-linecap="round"></path><path d="M 253.189,217.854 C 250.170,215.299 250.887,213.975 249.194,209.860" stroke-width="7.527" stroke="black" fill="none" stroke-linecap="round"></path><path d="M 249.194,209.860 C 248.091,207.180 248.463,207.040 247.596,204.264" stroke-width="6.932" stroke="black" fill="none" stroke-linecap="round"></path><path d="M 247.596,204.264 C 246.465,200.645 246.287,200.700 245.199,197.069" stroke-width="6.501" stroke="black" fill="none" stroke-linecap="round"></path><path d="M 245.199,197.069 C 243.890,192.706 244.181,192.615 242.802,188.276" stroke-width="5.944" stroke="black" fill="none" stroke-linecap="round"></path><path d="M 242.802,188.276 C 241.385,183.821 241.142,183.901 239.605,179.482" stroke-width="5.846" stroke="black" fill="none" stroke-linecap="round"></path><path d="M 239.605,179.482 C 237.946,174.707 238.008,174.686 236.410,169.889" stroke-width="5.703" stroke="black" fill="none" stroke-linecap="round"></path><path d="M 236.410,169.889 C 234.812,165.093 234.812,165.093 233.214,160.296" stroke-width="5.661" stroke="black" fill="none" stroke-linecap="round"></path><path d="M 233.214,160.296 C 231.616,155.500 231.677,155.479 230.017,150.704" stroke-width="5.649" stroke="black" fill="none" stroke-linecap="round"></path><path d="M 230.017,150.704 C 228.481,146.285 228.300,146.347 226.822,141.910" stroke-width="5.837" stroke="black" fill="none" stroke-linecap="round"></path><path d="M 226.822,141.910 C 225.503,137.953 225.811,137.845 224.425,133.916" stroke-width="5.891" stroke="black" fill="none" stroke-linecap="round"></path><path d="M 224.425,133.916 C 223.414,131.050 222.796,131.244 222.027,128.320" stroke-width="6.388" stroke="black" fill="none" stroke-linecap="round"></path><path d="M 195.660,207.461 C 200.055,206.662 200.025,206.328 204.449,205.863" stroke-width="8.613" stroke="black" fill="none" stroke-linecap="round"></path><path d="M 204.449,205.863 C 207.615,205.529 207.645,205.863 210.841,205.863" stroke-width="7.049" stroke="black" fill="none" stroke-linecap="round"></path><path d="M 210.841,205.863 C 214.037,205.863 214.068,205.529 217.233,205.863" stroke-width="6.685" stroke="black" fill="none" stroke-linecap="round"></path><path d="M 217.233,205.863 C 221.658,206.328 222.706,205.419 226.022,207.461" stroke-width="6.989" stroke="black" fill="none" stroke-linecap="round"></path><path d="M 226.022,207.461 C 227.899,208.617 228.271,210.143 227.620,212.258" stroke-width="7.560" stroke="black" fill="none" stroke-linecap="round"></path><path d="M 227.620,212.258 C 226.673,215.339 225.126,214.978 222.826,217.854" stroke-width="7.417" stroke="black" fill="none" stroke-linecap="round"></path><path d="M 222.826,217.854 C 220.332,220.973 220.758,221.352 218.032,224.249" stroke-width="6.546" stroke="black" fill="none" stroke-linecap="round"></path><path d="M 218.032,224.249 C 214.366,228.146 214.136,227.962 210.042,231.443" stroke-width="5.575" stroke="black" fill="none" stroke-linecap="round"></path><path d="M 210.042,231.443 C 206.146,234.757 205.911,234.482 202.052,237.839" stroke-width="5.515" stroke="black" fill="none" stroke-linecap="round"></path></svg>