<svg xmlns="http://www.w3.org/2000/svg" xmlns:xlink="http://www.w3.org/1999/xlink" viewBox="0 0 576 416" width="576" height="416"><path d="M 393.014,122.802 C 396.210,127.598 396.646,127.374 399.406,132.394" stroke-width="8.725" stroke="black" fill="none" stroke-linecap="round"></path><path d="M 399.406,132.394 C 401.041,135.368 401.611,135.521 401.803,138.790" stroke-width="7.853" stroke="black" fill="none" stroke-linecap="round"></path><path d="M 401.803,138.790 C 402.010,142.316 401.675,142.673 400.205,145.984" stroke-width="7.499" stroke="black" fill="none" stroke-linecap="round"></path><path d="M 400.205,145.984 C 398.479,149.868 398.195,149.929 395.411,153.179" stroke-width="7.270" stroke="black" fill="none" stroke-linecap="round"></path><path d="M 395.411,153.179 C 393.401,155.525 393.323,155.732 390.617,157.176" stroke-width="7.476" stroke="black" fill="none" stroke-linecap="round"></path><path d="M 390.617,157.176 C 387.330,158.929 387.104,158.884 383.426,159.574" stroke-width="7.365" stroke="black" fill="none" stroke-linecap="round"></path><path d="M 383.426,159.574 C 380.712,160.083 380.463,160.276 377.833,159.574" stroke-width="7.657" stroke="black" fill="none" stroke-linecap="round"></path><path d="M 377.833,159.574 C 374.471,158.677 374.426,158.297 371.441,156.376" stroke-width="7.821" stroke="black" fill="none" stroke-linecap="round"></path><path d="M 371.441,156.376 C 368.833,154.699 368.953,154.477 366.647,152.379" stroke-width="7.668" stroke="black" fill="none" stroke-linecap="round"></path><path d="M 366.647,152.379 C 364.559,150.480 364.539,150.480 362.652,148.382" stroke-width="7.702" stroke="black" fill="none" stroke-linecap="round"></path><path d="M 362.652,148.382 C 360.943,146.483 361.463,144.751 359.456,144.385" stroke-width="8.030" stroke="black" fill="none" stroke-linecap="round"></path><path d="M 359.456,144.385 C 357.069,143.951 356.395,145.144 353.863,146.784" stroke-width="8.459" stroke="black" fill="none" stroke-linecap="round"></path><path d="M 353.863,146.784 C 349.604,149.541 350.081,150.298 345.873,153.179" stroke-width="7.280" stroke="black" fill="none" stroke-linecap="round"></path><path d="M 345.873,153.179 C 342.490,155.494 342.407,155.445 338.682,157.176" stroke-width="6.471" stroke="black" fill="none" stroke-linecap="round"></path><path d="M 338.682,157.176 C 331.221,160.641 331.161,160.560 323.501,163.571" stroke-width="6.136" stroke="black" fill="none" stroke-linecap="round"></path><path d="M 323.501,163.571 C 319.975,164.957 319.905,164.770 316.310,165.969" stroke-width="6.198" stroke="black" fill="none" stroke-linecap="round"></path><path d="M 316.310,165.969 C 312.714,167.168 312.798,167.549 309.119,168.367" stroke-width="6.216" stroke="black" fill="none" stroke-linecap="round"></path><path d="M 309.119,168.367 C 305.607,169.148 305.523,168.767 301.928,169.167" stroke-width="6.284" stroke="black" fill="none" stroke-linecap="round"></path><path d="M 301.928,169.167 C 298.332,169.567 298.342,169.741 294.737,169.966" stroke-width="6.304" stroke="black" fill="none" stroke-linecap="round"></path><path d="M 294.737,169.966 C 291.950,170.141 291.940,169.966 289.144,169.966" stroke-width="6.688" stroke="black" fill="none" stroke-linecap="round"></path><path d="M 289.144,169.966 C 284.749,169.966 284.749,169.966 280.355,169.966" stroke-width="6.047" stroke="black" fill="none" stroke-linecap="round"></path><path d="M 280.355,169.966 C 275.161,169.966 275.161,169.966 269.968,169.966" stroke-width="5.717" stroke="black" fill="none" stroke-linecap="round"></path><path d="M 269.968,169.966 C 263.576,169.966 263.569,169.767 257.184,169.966" stroke-width="5.298" stroke="black" fill="none" stroke-linecap="round"></path><path d="M 257.184,169.966 C 250.785,170.166 250.793,170.389 244.400,170.766" stroke-width="5.181" stroke="black" fill="none" stroke-linecap="round"></path><path d="M 244.400,170.766 C 237.210,171.189 237.181,170.866 230.017,171.565" stroke-width="5.053" stroke="black" fill="none" stroke-linecap="round"></path><path d="M 230.017,171.565 C 220.801,172.465 220.829,172.764 211.640,173.963" stroke-width="4.506" stroke="black" fill="none" stroke-linecap="round"></path><path d="M 211.640,173.963 C 202.452,175.162 202.417,174.937 193.263,176.362" stroke-width="4.500" stroke="black" fill="none" stroke-linecap="round"></path><path d="M 193.263,176.362 C 184.439,177.735 184.460,177.887 175.685,179.559" stroke-width="4.500" stroke="black" fill="none" stroke-linecap="round"></path><path d="M 175.685,179.559 C 167.681,181.084 167.718,181.280 159.705,182.757" stroke-width="4.519" stroke="black" fill="none" stroke-linecap="round"></path><path d="M 159.705,182.757 C 152.537,184.078 152.487,183.811 145.323,185.155" stroke-width="4.742" stroke="black" fill="none" stroke-linecap="round"></path><path d="M 145.323,185.155 C 139.703,186.209 139.737,186.386 134.137,187.553" stroke-width="5.171" stroke="black" fill="none" stroke-linecap="round"></path><path d="M 134.137,187.553 C 130.149,188.384 130.134,188.312 126.147,189.152" stroke-width="5.848" stroke="black" fill="none" stroke-linecap="round"></path><path d="M 126.147,189.152 C 122.543,189.911 117.837,190.191 118.956,190.751" stroke-width="6.829" stroke="black" fill="none" stroke-linecap="round"></path><path d="M 118.956,190.751 C 121.034,191.790 125.772,191.382 132.539,192.350" stroke-width="7.450" stroke="black" fill="none" stroke-linecap="round"></path><path d="M 132.539,192.350 C 139.754,193.381 139.716,193.639 146.921,194.748" stroke-width="5.413" stroke="black" fill="none" stroke-linecap="round"></path><path d="M 146.921,194.748 C 155.297,196.037 155.295,196.072 163.700,197.146" stroke-width="4.745" stroke="black" fill="none" stroke-linecap="round"></path><path d="M 163.700,197.146 C 174.071,198.471 174.083,198.389 184.474,199.544" stroke-width="4.500" stroke="black" fill="none" stroke-linecap="round"></path><path d="M 184.474,199.544 C 195.656,200.787 195.632,201.141 206.846,201.942" stroke-width="4.500" stroke="black" fill="none" stroke-linecap="round"></path><path d="M 206.846,201.942 C 218.004,202.740 218.033,202.335 229.218,202.742" stroke-width="4.500" stroke="black" fill="none" stroke-linecap="round"></path><path d="M 229.218,202.742 C 240.005,203.134 240.006,203.126 250.792,203.541" stroke-width="4.500" stroke="black" fill="none" stroke-linecap="round"></path><path d="M 250.792,203.541 C 260.780,203.926 260.780,203.924 270.767,204.341" stroke-width="4.500" stroke="black" fill="none" stroke-linecap="round"></path><path d="M 270.767,204.341 C 279.956,204.724 279.956,204.713 289.144,205.140" stroke-width="4.500" stroke="black" fill="none" stroke-linecap="round"></path><path d="M 289.144,205.140 C 297.135,205.512 297.135,205.519 305.124,205.939" stroke-width="4.509" stroke="black" fill="none" stroke-linecap="round"></path><path d="M 305.124,205.939 C 312.316,206.318 312.315,206.328 319.506,206.739" stroke-width="4.757" stroke="black" fill="none" stroke-linecap="round"></path><path d="M 319.506,206.739 C 326.298,207.127 326.301,207.538 333.089,207.538" stroke-width="4.924" stroke="black" fill="none" stroke-linecap="round"></path><path d="M 333.089,207.538 C 338.286,207.538 338.287,207.190 343.476,206.739" stroke-width="5.366" stroke="black" fill="none" stroke-linecap="round"></path><path d="M 343.476,206.739 C 347.475,206.391 347.543,206.675 351.466,205.939" stroke-width="5.868" stroke="black" fill="none" stroke-linecap="round"></path><path d="M 351.466,205.939 C 353.935,205.476 354.731,206.040 356.260,204.341" stroke-width="6.578" stroke="black" fill="none" stroke-linecap="round"></path><path d="M 356.260,204.341 C 358.326,202.043 358.453,201.200 358.657,197.945" stroke-width="7.217" stroke="black" fill="none" stroke-linecap="round"></path><path d="M 358.657,197.945 C 358.853,194.804 357.907,194.734 357.059,191.550" stroke-width="7.414" stroke="black" fill="none" stroke-linecap="round"></path><path d="M 357.059,191.550 C 356.309,188.739 356.239,188.758 355.461,185.954" stroke-width="6.903" stroke="black" fill="none" stroke-linecap="round"></path><path d="M 355.461,185.954 C 354.242,181.563 354.292,181.549 353.064,177.161" stroke-width="6.137" stroke="black" fill="none" stroke-linecap="round"></path><path d="M 353.064,177.161 C 351.495,171.557 351.466,171.565 349.868,165.969" stroke-width="5.558" stroke="black" fill="none" stroke-linecap="round"></path><path d="M 349.868,165.969 C 348.270,160.373 348.509,160.293 346.672,154.778" stroke-width="5.405" stroke="black" fill="none" stroke-linecap="round"></path><path d="M 346.672,154.778 C 344.914,149.501 344.561,149.622 342.677,144.385" stroke-width="5.513" stroke="black" fill="none" stroke-linecap="round"></path><path d="M 342.677,144.385 C 340.965,139.630 341.013,139.610 339.481,134.793" stroke-width="5.514" stroke="black" fill="none" stroke-linecap="round"></path><path d="M 339.481,134.793 C 338.216,130.816 338.523,130.706 337.084,126.798" stroke-width="5.870" stroke="black" fill="none" stroke-linecap="round"></path><path d="M 337.084,126.798 C 335.726,123.112 335.385,123.242 333.888,119.604" stroke-width="6.064" stroke="black" fill="none" stroke-linecap="round"></path><path d="M 333.888,119.604 C 332.589,116.447 332.639,116.424 331.491,113.209" stroke-width="6.309" stroke="black" fill="none" stroke-linecap="round"></path><path d="M 331.491,113.209 C 330.641,110.828 331.084,110.597 329.893,108.412" stroke-width="6.736" stroke="black" fill="none" stroke-linecap="round"></path><path d="M 329.893,108.412 C 328.687,106.200 328.026,103.448 326.697,104.415" stroke-width="7.461" stroke="black" fill="none" stroke-linecap="round"></path><path d="M 326.697,104.415 C 323.631,106.646 323.314,109.364 321.104,114.807" stroke-width="7.773" stroke="black" fill="none" stroke-linecap="round"></path><path d="M 321.104,114.807 C 318.121,122.154 318.674,122.392 316.310,129.996" stroke-width="5.160" stroke="black" fill="none" stroke-linecap="round"></path><path d="M 316.310,129.996 C 313.081,140.378 313.294,140.447 309.918,150.781" stroke-width="4.500" stroke="black" fill="none" stroke-linecap="round"></path><path d="M 309.918,150.781 C 306.503,161.232 305.957,161.061 302.727,171.565" stroke-width="4.500" stroke="black" fill="none" stroke-linecap="round"></path><path d="M 302.727,171.565 C 299.565,181.845 300.168,182.027 297.134,192.350" stroke-width="4.500" stroke="black" fill="none" stroke-linecap="round"></path><path d="M 297.134,192.350 C 294.176,202.412 294.057,202.382 290.742,212.335" stroke-width="4.500" stroke="black" fill="none" stroke-linecap="round"></path><path d="M 290.742,212.335 C 288.065,220.369 287.759,220.269 285.149,228.323" stroke-width="4.500" stroke="black" fill="none" stroke-linecap="round"></path><path d="M 285.149,228.323 C 282.965,235.058 283.251,235.149 281.154,241.913" stroke-width="4.665" stroke="black" fill="none" stroke-linecap="round"></path><path d="M 281.154,241.913 C 279.656,246.741 279.703,246.765 277.958,251.505" stroke-width="5.310" stroke="black" fill="none" stroke-linecap="round"></path></svg>