<svg xmlns="http://www.w3.org/2000/svg" xmlns:xlink="http://www.w3.org/1999/xlink" viewBox="0 0 576 416" width="576" height="416"><path d="M 49.443,303.865 C 50.242,299.068 49.820,298.957 51.041,294.272" stroke-width="8.374" stroke="black" fill="none" stroke-linecap="round"></path><path d="M 51.041,294.272 C 52.217,289.764 52.528,289.832 54.237,285.479" stroke-width="6.393" stroke="black" fill="none" stroke-linecap="round"></path><path d="M 54.237,285.479 C 56.922,278.641 57.145,278.727 59.830,271.889" stroke-width="5.210" stroke="black" fill="none" stroke-linecap="round"></path><path d="M 59.830,271.889 C 61.540,267.535 61.086,267.347 63.026,263.095" stroke-width="5.613" stroke="black" fill="none" stroke-linecap="round"></path><path d="M 63.026,263.095 C 69.476,248.961 69.658,249.025 76.609,235.116" stroke-width="4.500" stroke="black" fill="none" stroke-linecap="round"></path><path d="M 76.609,235.116 C 81.244,225.843 81.681,226.050 86.197,216.730" stroke-width="4.500" stroke="black" fill="none" stroke-linecap="round"></path><path d="M 86.197,216.730 C 88.073,212.860 87.575,212.634 89.393,208.736" stroke-width="5.142" stroke="black" fill="none" stroke-linecap="round"></path><path d="M 89.393,208.736 C 93.168,200.643 93.388,200.742 97.383,192.748" stroke-width="4.589" stroke="black" fill="none" stroke-linecap="round"></path><path d="M 97.383,192.748 C 98.582,190.350 97.929,188.774 99.780,187.951" stroke-width="6.013" stroke="black" fill="none" stroke-linecap="round"></path><path d="M 99.780,187.951 C 101.525,187.176 103.611,187.515 104.574,189.550" stroke-width="7.556" stroke="black" fill="none" stroke-linecap="round"></path><path d="M 104.574,189.550 C 107.206,195.109 105.759,196.348 106.971,203.140" stroke-width="6.750" stroke="black" fill="none" stroke-linecap="round"></path><path d="M 106.971,203.140 C 107.756,207.539 107.580,207.580 108.569,211.934" stroke-width="6.036" stroke="black" fill="none" stroke-linecap="round"></path><path d="M 108.569,211.934 C 109.578,216.373 109.715,216.345 110.966,220.727" stroke-width="5.911" stroke="black" fill="none" stroke-linecap="round"></path><path d="M 110.966,220.727 C 112.112,224.739 111.924,224.813 113.363,228.721" stroke-width="5.998" stroke="black" fill="none" stroke-linecap="round"></path><path d="M 113.363,228.721 C 114.721,232.407 114.884,232.355 116.559,235.916" stroke-width="6.105" stroke="black" fill="none" stroke-linecap="round"></path><path d="M 116.559,235.916 C 118.080,239.150 117.986,239.213 119.755,242.311" stroke-width="6.264" stroke="black" fill="none" stroke-linecap="round"></path><path d="M 119.755,242.311 C 121.182,244.808 121.258,244.778 122.951,247.107" stroke-width="6.577" stroke="black" fill="none" stroke-linecap="round"></path><path d="M 122.951,247.107 C 124.454,249.175 124.268,249.412 126.147,251.104" stroke-width="6.812" stroke="black" fill="none" stroke-linecap="round"></path><path d="M 126.147,251.104 C 128.263,253.010 128.825,254.514 130.941,254.302" stroke-width="7.428" stroke="black" fill="none" stroke-linecap="round"></path><path d="M 130.941,254.302 C 132.820,254.114 132.652,252.386 134.137,250.305" stroke-width="7.679" stroke="black" fill="none" stroke-linecap="round"></path><path d="M 134.137,250.305 C 136.647,246.790 136.612,246.757 138.931,243.110" stroke-width="6.394" stroke="black" fill="none" stroke-linecap="round"></path><path d="M 138.931,243.110 C 142.205,237.964 142.262,237.993 145.323,232.718" stroke-width="5.540" stroke="black" fill="none" stroke-linecap="round"></path><path d="M 145.323,232.718 C 149.453,225.602 149.192,225.451 153.313,218.329" stroke-width="4.825" stroke="black" fill="none" stroke-linecap="round"></path><path d="M 153.313,218.329 C 157.981,210.262 158.107,210.335 162.901,202.341" stroke-width="4.500" stroke="black" fill="none" stroke-linecap="round"></path><path d="M 162.901,202.341 C 167.695,194.347 167.727,194.366 172.489,186.353" stroke-width="4.500" stroke="black" fill="none" stroke-linecap="round"></path><path d="M 172.489,186.353 C 176.516,179.577 176.326,179.458 180.479,172.763" stroke-width="4.564" stroke="black" fill="none" stroke-linecap="round"></path><path d="M 180.479,172.763 C 183.517,167.867 183.732,168.003 186.871,163.170" stroke-width="5.096" stroke="black" fill="none" stroke-linecap="round"></path><path d="M 186.871,163.170 C 188.925,160.009 188.442,159.605 190.866,156.775" stroke-width="5.843" stroke="black" fill="none" stroke-linecap="round"></path><path d="M 230.816,197.544 C 225.223,199.543 224.525,198.393 219.630,201.541" stroke-width="8.223" stroke="black" fill="none" stroke-linecap="round"></path><path d="M 219.630,201.541 C 213.339,205.588 213.632,206.358 208.444,211.934" stroke-width="5.431" stroke="black" fill="none" stroke-linecap="round"></path><path d="M 208.444,211.934 C 202.846,217.950 203.098,218.210 198.057,224.724" stroke-width="4.799" stroke="black" fill="none" stroke-linecap="round"></path><path d="M 198.057,224.724 C 193.510,230.601 193.334,230.506 189.268,236.715" stroke-width="4.800" stroke="black" fill="none" stroke-linecap="round"></path><path d="M 189.268,236.715 C 185.744,242.097 186.046,242.296 182.876,247.907" stroke-width="5.019" stroke="black" fill="none" stroke-linecap="round"></path><path d="M 182.876,247.907 C 180.853,251.489 179.778,251.291 178.881,255.101" stroke-width="5.708" stroke="black" fill="none" stroke-linecap="round"></path><path d="M 178.881,255.101 C 178.180,258.086 178.154,260.405 179.680,261.496" stroke-width="6.872" stroke="black" fill="none" stroke-linecap="round"></path><path d="M 179.680,261.496 C 180.950,262.404 182.502,260.864 184.474,259.098" stroke-width="7.459" stroke="black" fill="none" stroke-linecap="round"></path><path d="M 184.474,259.098 C 190.093,254.069 189.864,253.676 194.861,247.907" stroke-width="5.202" stroke="black" fill="none" stroke-linecap="round"></path><path d="M 194.861,247.907 C 205.445,235.689 205.611,235.795 215.635,223.125" stroke-width="4.500" stroke="black" fill="none" stroke-linecap="round"></path><path d="M 215.635,223.125 C 220.792,216.609 220.320,216.249 225.223,209.535" stroke-width="4.500" stroke="black" fill="none" stroke-linecap="round"></path><path d="M 225.223,209.535 C 227.910,205.857 227.746,205.668 230.816,202.341" stroke-width="5.287" stroke="black" fill="none" stroke-linecap="round"></path><path d="M 230.816,202.341 C 232.540,200.472 234.508,198.231 234.811,199.143" stroke-width="6.839" stroke="black" fill="none" stroke-linecap="round"></path><path d="M 234.811,199.143 C 235.307,200.630 233.591,203.134 232.415,207.137" stroke-width="7.442" stroke="black" fill="none" stroke-linecap="round"></path><path d="M 232.415,207.137 C 231.594,209.929 231.566,209.922 230.816,212.733" stroke-width="6.910" stroke="black" fill="none" stroke-linecap="round"></path><path d="M 230.816,212.733 C 229.968,215.917 229.933,215.911 229.218,219.128" stroke-width="6.607" stroke="black" fill="none" stroke-linecap="round"></path><path d="M 229.218,219.128 C 228.335,223.106 226.151,225.442 227.620,227.122" stroke-width="7.051" stroke="black" fill="none" stroke-linecap="round"></path><path d="M 227.620,227.122 C 228.948,228.640 231.791,227.370 234.811,225.523" stroke-width="7.601" stroke="black" fill="none" stroke-linecap="round"></path><path d="M 234.811,225.523 C 238.982,222.973 238.407,221.926 242.003,218.329" stroke-width="6.106" stroke="black" fill="none" stroke-linecap="round"></path><path d="M 242.003,218.329 C 245.199,215.131 245.199,215.131 248.395,211.934" stroke-width="5.942" stroke="black" fill="none" stroke-linecap="round"></path><path d="M 248.395,211.934 C 250.392,209.935 250.134,209.578 252.390,207.936" stroke-width="6.489" stroke="black" fill="none" stroke-linecap="round"></path><path d="M 252.390,207.936 C 254.529,206.380 256.091,204.627 257.184,205.538" stroke-width="7.338" stroke="black" fill="none" stroke-linecap="round"></path><path d="M 257.184,205.538 C 258.488,206.625 257.184,208.736 257.184,211.934" stroke-width="7.938" stroke="black" fill="none" stroke-linecap="round"></path><path d="M 257.184,211.934 C 257.184,215.131 255.611,217.804 257.184,218.329" stroke-width="7.680" stroke="black" fill="none" stroke-linecap="round"></path><path d="M 257.184,218.329 C 259.207,219.003 261.269,216.948 264.375,214.332" stroke-width="7.921" stroke="black" fill="none" stroke-linecap="round"></path><path d="M 264.375,214.332 C 268.859,210.553 268.275,209.845 272.365,205.538" stroke-width="5.882" stroke="black" fill="none" stroke-linecap="round"></path><path d="M 272.365,205.538 C 275.866,201.851 275.849,201.821 279.556,198.344" stroke-width="5.704" stroke="black" fill="none" stroke-linecap="round"></path><path d="M 279.556,198.344 C 282.241,195.825 282.107,195.576 285.149,193.547" stroke-width="6.094" stroke="black" fill="none" stroke-linecap="round"></path><path d="M 285.149,193.547 C 288.099,191.579 289.748,189.677 291.541,190.350" stroke-width="6.976" stroke="black" fill="none" stroke-linecap="round"></path><path d="M 291.541,190.350 C 292.944,190.876 291.960,193.216 291.541,195.945" stroke-width="7.868" stroke="black" fill="none" stroke-linecap="round"></path><path d="M 291.541,195.945 C 291.161,198.412 290.742,198.344 289.943,200.742" stroke-width="7.118" stroke="black" fill="none" stroke-linecap="round"></path><path d="M 289.943,200.742 C 289.144,203.140 288.807,203.068 288.345,205.538" stroke-width="6.990" stroke="black" fill="none" stroke-linecap="round"></path><path d="M 288.345,205.538 C 287.609,209.463 286.034,212.020 287.546,213.532" stroke-width="7.191" stroke="black" fill="none" stroke-linecap="round"></path><path d="M 287.546,213.532 C 288.830,214.818 291.225,213.013 293.938,211.134" stroke-width="7.953" stroke="black" fill="none" stroke-linecap="round"></path><path d="M 293.938,211.134 C 296.418,209.416 296.485,206.131 297.933,206.338" stroke-width="7.705" stroke="black" fill="none" stroke-linecap="round"></path><path d="M 297.933,206.338 C 299.282,206.531 299.531,209.103 299.531,211.934" stroke-width="8.254" stroke="black" fill="none" stroke-linecap="round"></path><path d="M 299.531,211.934 C 299.531,215.898 298.536,215.901 297.933,219.928" stroke-width="6.604" stroke="black" fill="none" stroke-linecap="round"></path><path d="M 297.933,219.928 C 297.338,223.895 297.728,223.954 297.134,227.922" stroke-width="6.252" stroke="black" fill="none" stroke-linecap="round"></path><path d="M 297.134,227.922 C 296.530,231.948 296.335,231.919 295.536,235.916" stroke-width="6.212" stroke="black" fill="none" stroke-linecap="round"></path><path d="M 295.536,235.916 C 294.737,239.913 294.411,239.880 293.938,243.910" stroke-width="6.035" stroke="black" fill="none" stroke-linecap="round"></path><path d="M 293.938,243.910 C 293.612,246.675 293.013,250.800 293.938,249.505" stroke-width="6.532" stroke="black" fill="none" stroke-linecap="round"></path><path d="M 293.938,249.505 C 297.008,245.204 298.576,241.367 301.928,232.718" stroke-width="6.913" stroke="black" fill="none" stroke-linecap="round"></path><path d="M 301.928,232.718 C 306.166,221.781 305.893,221.632 309.119,210.335" stroke-width="4.500" stroke="black" fill="none" stroke-linecap="round"></path><path d="M 309.119,210.335 C 312.285,199.248 312.413,199.243 314.712,187.951" stroke-width="4.500" stroke="black" fill="none" stroke-linecap="round"></path><path d="M 314.712,187.951 C 316.807,177.659 316.656,177.600 317.908,167.167" stroke-width="4.500" stroke="black" fill="none" stroke-linecap="round"></path><path d="M 317.908,167.167 C 319.053,157.615 319.079,157.590 319.506,147.981" stroke-width="4.500" stroke="black" fill="none" stroke-linecap="round"></path><path d="M 319.506,147.981 C 319.878,139.603 319.506,139.587 319.506,131.194" stroke-width="4.500" stroke="black" fill="none" stroke-linecap="round"></path><path d="M 319.506,131.194 C 319.506,123.599 319.735,123.591 319.506,116.005" stroke-width="4.729" stroke="black" fill="none" stroke-linecap="round"></path><path d="M 319.506,116.005 C 319.336,110.401 319.172,110.404 318.707,104.813" stroke-width="5.108" stroke="black" fill="none" stroke-linecap="round"></path><path d="M 318.707,104.813 C 318.373,100.811 317.243,97.485 317.908,96.819" stroke-width="5.772" stroke="black" fill="none" stroke-linecap="round"></path><path d="M 317.908,96.819 C 318.441,96.286 319.552,99.592 321.104,102.415" stroke-width="7.464" stroke="black" fill="none" stroke-linecap="round"></path><path d="M 321.104,102.415 C 323.946,107.586 323.771,107.685 326.697,112.807" stroke-width="5.815" stroke="black" fill="none" stroke-linecap="round"></path><path d="M 326.697,112.807 C 330.163,118.876 329.602,119.341 333.888,124.798" stroke-width="5.172" stroke="black" fill="none" stroke-linecap="round"></path><path d="M 333.888,124.798 C 338.391,130.533 338.804,130.304 344.275,135.191" stroke-width="5.018" stroke="black" fill="none" stroke-linecap="round"></path><path d="M 344.275,135.191 C 349.990,140.296 349.952,140.445 356.260,144.784" stroke-width="4.713" stroke="black" fill="none" stroke-linecap="round"></path><path d="M 356.260,144.784 C 362.736,149.238 362.966,148.933 369.843,152.778" stroke-width="4.683" stroke="black" fill="none" stroke-linecap="round"></path><path d="M 369.843,152.778 C 376.549,156.527 376.595,156.452 383.426,159.972" stroke-width="4.713" stroke="black" fill="none" stroke-linecap="round"></path><path d="M 383.426,159.972 C 389.778,163.246 389.866,163.077 396.210,166.367" stroke-width="4.835" stroke="black" fill="none" stroke-linecap="round"></path><path d="M 396.210,166.367 C 400.653,168.673 400.735,168.557 404.999,171.164" stroke-width="5.387" stroke="black" fill="none" stroke-linecap="round"></path><path d="M 404.999,171.164 C 407.926,172.954 408.195,172.763 410.592,175.161" stroke-width="6.064" stroke="black" fill="none" stroke-linecap="round"></path><path d="M 410.592,175.161 C 412.989,177.559 416.533,179.675 414.587,180.757" stroke-width="6.994" stroke="black" fill="none" stroke-linecap="round"></path><path d="M 414.587,180.757 C 409.342,183.672 405.407,182.028 396.210,183.155" stroke-width="6.714" stroke="black" fill="none" stroke-linecap="round"></path><path d="M 396.210,183.155 C 385.832,184.426 385.830,184.419 375.436,185.553" stroke-width="4.699" stroke="black" fill="none" stroke-linecap="round"></path><path d="M 375.436,185.553 C 363.857,186.817 363.841,186.665 352.265,187.951" stroke-width="4.500" stroke="black" fill="none" stroke-linecap="round"></path><path d="M 352.265,187.951 C 338.672,189.462 338.555,188.793 325.099,191.149" stroke-width="4.500" stroke="black" fill="none" stroke-linecap="round"></path><path d="M 325.099,191.149 C 306.595,194.389 306.657,194.868 288.345,199.143" stroke-width="4.500" stroke="black" fill="none" stroke-linecap="round"></path><path d="M 288.345,199.143 C 270.702,203.262 270.634,203.066 253.189,207.936" stroke-width="4.500" stroke="black" fill="none" stroke-linecap="round"></path><path d="M 253.189,207.936 C 236.277,212.658 236.470,213.337 219.630,218.329" stroke-width="4.500" stroke="black" fill="none" stroke-linecap="round"></path><path d="M 219.630,218.329 C 204.110,222.930 204.027,222.645 188.469,227.122" stroke-width="4.500" stroke="black" fill="none" stroke-linecap="round"></path><path d="M 188.469,227.122 C 174.863,231.038 174.876,231.085 161.303,235.116" stroke-width="4.500" stroke="black" fill="none" stroke-linecap="round"></path><path d="M 161.303,235.116 C 149.308,238.679 149.306,238.674 137.333,242.311" stroke-width="4.500" stroke="black" fill="none" stroke-linecap="round"></path><path d="M 137.333,242.311 C 126.934,245.469 126.932,245.463 116.559,248.706" stroke-width="4.500" stroke="black" fill="none" stroke-linecap="round"></path><path d="M 116.559,248.706 C 107.756,251.458 107.845,251.768 98.981,254.302" stroke-width="4.500" stroke="black" fill="none" stroke-linecap="round"></path><path d="M 98.981,254.302 C 91.066,256.564 90.840,255.834 83.001,258.299" stroke-width="4.500" stroke="black" fill="none" stroke-linecap="round"></path><path d="M 83.001,258.299 C 76.858,260.231 77.009,260.697 71.016,263.095" stroke-width="4.890" stroke="black" fill="none" stroke-linecap="round"></path><path d="M 71.016,263.095 C 67.021,264.694 67.143,265.324 63.026,266.293" stroke-width="5.672" stroke="black" fill="none" stroke-linecap="round"></path></svg>