<svg xmlns="http://www.w3.org/2000/svg" xmlns:xlink="http://www.w3.org/1999/xlink" viewBox="0 0 576 416" width="576" height="416"><path d="M 393.813,223.926 C 393.813,218.730 392.655,218.398 393.813,213.534" stroke-width="8.635" stroke="black" fill="none" stroke-linecap="round"></path><path d="M 393.813,213.534 C 394.653,210.005 395.674,210.243 397.808,207.139" stroke-width="6.892" stroke="black" fill="none" stroke-linecap="round"></path><path d="M 397.808,207.139 C 400.069,203.848 399.899,203.655 402.602,200.744" stroke-width="6.244" stroke="black" fill="none" stroke-linecap="round"></path><path d="M 402.602,200.744 C 405.093,198.059 405.103,197.901 408.195,195.947" stroke-width="6.268" stroke="black" fill="none" stroke-linecap="round"></path><path d="M 408.195,195.947 C 412.694,193.104 412.792,192.899 417.783,191.151" stroke-width="6.592" stroke="black" fill="none" stroke-linecap="round"></path><path d="M 417.783,191.151 C 420.782,190.101 421.079,189.862 424.175,190.351" stroke-width="6.468" stroke="black" fill="none" stroke-linecap="round"></path><path d="M 424.175,190.351 C 428.670,191.061 429.196,191.036 432.964,193.549" stroke-width="6.840" stroke="black" fill="none" stroke-linecap="round"></path><path d="M 432.964,193.549 C 436.387,195.832 436.374,196.371 438.557,199.944" stroke-width="6.393" stroke="black" fill="none" stroke-linecap="round"></path><path d="M 438.557,199.944 C 440.769,203.565 441.322,203.847 441.753,207.938" stroke-width="6.925" stroke="black" fill="none" stroke-linecap="round"></path><path d="M 441.753,207.938 C 442.121,211.441 441.738,211.966 440.155,215.133" stroke-width="7.274" stroke="black" fill="none" stroke-linecap="round"></path><path d="M 440.155,215.133 C 438.941,217.561 438.468,217.590 436.160,219.130" stroke-width="6.902" stroke="black" fill="none" stroke-linecap="round"></path><path d="M 436.160,219.130 C 433.674,220.788 433.444,220.569 430.567,221.528" stroke-width="6.708" stroke="black" fill="none" stroke-linecap="round"></path><path d="M 430.567,221.528 C 427.452,222.567 427.407,222.521 424.175,223.127" stroke-width="6.551" stroke="black" fill="none" stroke-linecap="round"></path><path d="M 424.175,223.127 C 421.015,223.720 420.990,223.712 417.783,223.926" stroke-width="6.456" stroke="black" fill="none" stroke-linecap="round"></path><path d="M 417.783,223.926 C 414.998,224.112 414.699,224.823 412.190,223.926" stroke-width="6.674" stroke="black" fill="none" stroke-linecap="round"></path><path d="M 412.190,223.926 C 409.106,222.824 409.484,220.136 406.597,219.929" stroke-width="7.518" stroke="black" fill="none" stroke-linecap="round"></path><path d="M 406.597,219.929 C 403.891,219.736 403.966,221.941 401.004,223.127" stroke-width="8.240" stroke="black" fill="none" stroke-linecap="round"></path><path d="M 401.004,223.127 C 397.974,224.340 397.844,224.119 394.612,224.726" stroke-width="7.010" stroke="black" fill="none" stroke-linecap="round"></path><path d="M 394.612,224.726 C 391.452,225.319 391.428,225.325 388.220,225.525" stroke-width="6.665" stroke="black" fill="none" stroke-linecap="round"></path><path d="M 388.220,225.525 C 385.036,225.724 384.965,225.944 381.828,225.525" stroke-width="6.577" stroke="black" fill="none" stroke-linecap="round"></path><path d="M 381.828,225.525 C 378.973,225.144 378.882,225.085 376.235,223.926" stroke-width="6.667" stroke="black" fill="none" stroke-linecap="round"></path><path d="M 376.235,223.926 C 372.490,222.287 371.618,222.739 369.044,219.929" stroke-width="7.034" stroke="black" fill="none" stroke-linecap="round"></path><path d="M 369.044,219.929 C 367.223,217.942 369.405,215.403 367.446,214.333" stroke-width="7.734" stroke="black" fill="none" stroke-linecap="round"></path><path d="M 367.446,214.333 C 365.010,213.004 363.818,214.539 360.255,215.133" stroke-width="8.118" stroke="black" fill="none" stroke-linecap="round"></path><path d="M 360.255,215.133 C 356.627,215.738 356.703,216.327 353.064,216.732" stroke-width="7.600" stroke="black" fill="none" stroke-linecap="round"></path><path d="M 353.064,216.732 C 349.512,217.127 349.468,216.732 345.873,216.732" stroke-width="7.799" stroke="black" fill="none" stroke-linecap="round"></path><path d="M 345.873,216.732 C 343.076,216.732 343.034,216.338 340.280,216.732" stroke-width="8.015" stroke="black" fill="none" stroke-linecap="round"></path><path d="M 340.280,216.732 C 334.645,217.537 334.710,218.060 329.094,219.130" stroke-width="7.073" stroke="black" fill="none" stroke-linecap="round"></path><path d="M 329.094,219.130 C 326.320,219.658 326.297,219.530 323.501,219.929" stroke-width="6.772" stroke="black" fill="none" stroke-linecap="round"></path><path d="M 323.501,219.929 C 320.704,220.329 320.708,220.355 317.908,220.729" stroke-width="6.827" stroke="black" fill="none" stroke-linecap="round"></path><path d="M 317.908,220.729 C 314.715,221.155 314.724,221.327 311.516,221.528" stroke-width="6.614" stroke="black" fill="none" stroke-linecap="round"></path><path d="M 311.516,221.528 C 308.332,221.727 308.320,221.528 305.124,221.528" stroke-width="6.485" stroke="black" fill="none" stroke-linecap="round"></path><path d="M 305.124,221.528 C 301.928,221.528 301.917,221.716 298.732,221.528" stroke-width="6.594" stroke="black" fill="none" stroke-linecap="round"></path><path d="M 298.732,221.528 C 295.126,221.316 295.012,221.597 291.541,220.729" stroke-width="6.311" stroke="black" fill="none" stroke-linecap="round"></path><path d="M 291.541,220.729 C 288.620,219.998 287.801,220.493 285.948,218.331" stroke-width="6.529" stroke="black" fill="none" stroke-linecap="round"></path><path d="M 285.948,218.331 C 283.007,214.898 282.603,214.089 281.953,209.537" stroke-width="6.888" stroke="black" fill="none" stroke-linecap="round"></path><path d="M 281.953,209.537 C 281.404,205.695 281.858,205.191 283.551,201.543" stroke-width="6.213" stroke="black" fill="none" stroke-linecap="round"></path><path d="M 283.551,201.543 C 287.051,193.999 287.435,193.989 292.340,187.154" stroke-width="4.921" stroke="black" fill="none" stroke-linecap="round"></path><path d="M 292.340,187.154 C 298.621,178.400 298.617,178.285 305.923,170.366" stroke-width="4.500" stroke="black" fill="none" stroke-linecap="round"></path><path d="M 305.923,170.366 C 312.999,162.696 313.135,162.723 321.104,155.977" stroke-width="4.500" stroke="black" fill="none" stroke-linecap="round"></path><path d="M 321.104,155.977 C 328.715,149.533 328.788,149.519 337.084,143.986" stroke-width="4.500" stroke="black" fill="none" stroke-linecap="round"></path><path d="M 337.084,143.986 C 344.368,139.127 344.435,139.109 352.265,135.193" stroke-width="4.500" stroke="black" fill="none" stroke-linecap="round"></path><path d="M 352.265,135.193 C 359.616,131.515 359.711,131.592 367.446,128.797" stroke-width="4.524" stroke="black" fill="none" stroke-linecap="round"></path><path d="M 367.446,128.797 C 374.093,126.396 374.157,126.467 381.029,124.800" stroke-width="4.788" stroke="black" fill="none" stroke-linecap="round"></path><path d="M 381.029,124.800 C 387.341,123.269 387.395,123.438 393.813,122.402" stroke-width="5.001" stroke="black" fill="none" stroke-linecap="round"></path><path d="M 393.813,122.402 C 399.779,121.439 399.838,121.797 405.798,120.803" stroke-width="5.179" stroke="black" fill="none" stroke-linecap="round"></path><path d="M 405.798,120.803 C 411.823,119.799 411.847,119.819 417.783,118.405" stroke-width="5.219" stroke="black" fill="none" stroke-linecap="round"></path><path d="M 417.783,118.405 C 420.237,117.820 420.134,117.444 422.577,116.806" stroke-width="6.314" stroke="black" fill="none" stroke-linecap="round"></path><path d="M 422.577,116.806 C 429.322,115.046 429.414,115.369 436.160,113.609" stroke-width="5.287" stroke="black" fill="none" stroke-linecap="round"></path><path d="M 436.160,113.609 C 438.603,112.971 438.502,112.576 440.954,112.010" stroke-width="6.344" stroke="black" fill="none" stroke-linecap="round"></path><path d="M 440.954,112.010 C 443.695,111.377 446.547,110.211 446.547,111.210" stroke-width="7.848" stroke="black" fill="none" stroke-linecap="round"></path><path d="M 446.547,111.210 C 446.547,112.610 444.217,114.630 440.954,116.806" stroke-width="8.198" stroke="black" fill="none" stroke-linecap="round"></path><path d="M 440.954,116.806 C 433.431,121.824 433.039,121.345 424.974,125.600" stroke-width="4.925" stroke="black" fill="none" stroke-linecap="round"></path><path d="M 424.974,125.600 C 411.067,132.936 411.038,132.886 397.009,139.989" stroke-width="4.500" stroke="black" fill="none" stroke-linecap="round"></path><path d="M 397.009,139.989 C 377.879,149.674 377.833,149.582 358.657,159.175" stroke-width="4.500" stroke="black" fill="none" stroke-linecap="round"></path><path d="M 358.657,159.175 C 347.471,164.770 347.339,164.518 336.285,170.366" stroke-width="4.500" stroke="black" fill="none" stroke-linecap="round"></path><path d="M 336.285,170.366 C 312.583,182.905 312.621,182.988 289.144,195.947" stroke-width="4.500" stroke="black" fill="none" stroke-linecap="round"></path><path d="M 289.144,195.947 C 266.279,208.569 266.247,208.521 243.601,221.528" stroke-width="4.500" stroke="black" fill="none" stroke-linecap="round"></path><path d="M 243.601,221.528 C 223.101,233.302 223.140,233.375 202.851,245.510" stroke-width="4.500" stroke="black" fill="none" stroke-linecap="round"></path><path d="M 202.851,245.510 C 186.386,255.359 186.345,255.302 170.092,265.495" stroke-width="4.500" stroke="black" fill="none" stroke-linecap="round"></path><path d="M 170.092,265.495 C 159.578,272.089 159.515,272.022 149.318,279.085" stroke-width="4.500" stroke="black" fill="none" stroke-linecap="round"></path><path d="M 149.318,279.085 C 143.935,282.814 144.388,283.531 138.931,287.079" stroke-width="4.500" stroke="black" fill="none" stroke-linecap="round"></path><path d="M 352.265,151.181 C 334.287,157.976 333.938,157.147 316.310,164.770" stroke-width="6.214" stroke="black" fill="none" stroke-linecap="round"></path><path d="M 316.310,164.770 C 286.797,177.532 286.746,177.561 257.983,191.950" stroke-width="4.500" stroke="black" fill="none" stroke-linecap="round"></path><path d="M 257.983,191.950 C 230.816,205.541 230.676,205.422 204.449,220.729" stroke-width="4.500" stroke="black" fill="none" stroke-linecap="round"></path><path d="M 204.449,220.729 C 182.736,233.401 182.831,233.681 162.102,247.908" stroke-width="4.500" stroke="black" fill="none" stroke-linecap="round"></path><path d="M 162.102,247.908 C 148.473,257.263 148.569,257.499 135.735,267.894" stroke-width="4.500" stroke="black" fill="none" stroke-linecap="round"></path><path d="M 135.735,267.894 C 131.790,271.089 128.544,273.465 128.544,275.088" stroke-width="4.500" stroke="black" fill="none" stroke-linecap="round"></path><path d="M 128.544,275.088 C 128.544,276.263 132.370,274.914 135.735,273.489" stroke-width="5.506" stroke="black" fill="none" stroke-linecap="round"></path><path d="M 135.735,273.489 C 142.757,270.517 142.632,270.083 149.318,266.295" stroke-width="4.936" stroke="black" fill="none" stroke-linecap="round"></path><path d="M 149.318,266.295 C 175.791,251.297 175.712,251.153 202.052,235.917" stroke-width="4.500" stroke="black" fill="none" stroke-linecap="round"></path><path d="M 202.052,235.917 C 226.849,221.575 226.485,220.914 251.591,207.139" stroke-width="4.500" stroke="black" fill="none" stroke-linecap="round"></path><path d="M 251.591,207.139 C 276.023,193.734 276.429,194.481 301.129,181.558" stroke-width="4.500" stroke="black" fill="none" stroke-linecap="round"></path><path d="M 301.129,181.558 C 319.975,171.698 319.772,171.303 338.682,161.573" stroke-width="4.500" stroke="black" fill="none" stroke-linecap="round"></path><path d="M 338.682,161.573 C 347.737,156.913 355.894,154.643 357.059,152.779" stroke-width="4.500" stroke="black" fill="none" stroke-linecap="round"></path><path d="M 357.059,152.779 C 357.892,151.446 349.503,152.701 342.677,155.178" stroke-width="5.008" stroke="black" fill="none" stroke-linecap="round"></path><path d="M 342.677,155.178 C 313.149,165.891 313.099,166.245 284.350,179.160" stroke-width="4.500" stroke="black" fill="none" stroke-linecap="round"></path><path d="M 284.350,179.160 C 254.372,192.626 254.265,192.568 225.223,207.938" stroke-width="4.500" stroke="black" fill="none" stroke-linecap="round"></path><path d="M 225.223,207.938 C 199.134,221.746 199.366,222.250 174.087,237.516" stroke-width="4.500" stroke="black" fill="none" stroke-linecap="round"></path><path d="M 174.087,237.516 C 155.021,249.030 154.928,248.963 136.534,261.498" stroke-width="4.500" stroke="black" fill="none" stroke-linecap="round"></path><path d="M 136.534,261.498 C 127.362,267.749 115.795,276.601 118.956,275.088" stroke-width="4.500" stroke="black" fill="none" stroke-linecap="round"></path><path d="M 118.956,275.088 C 124.983,272.204 137.713,265.016 154.911,252.705" stroke-width="4.500" stroke="black" fill="none" stroke-linecap="round"></path><path d="M 154.911,252.705 C 184.055,231.841 183.140,230.543 211.640,208.738" stroke-width="4.500" stroke="black" fill="none" stroke-linecap="round"></path><path d="M 211.640,208.738 C 237.472,188.974 237.168,188.536 263.576,169.567" stroke-width="4.500" stroke="black" fill="none" stroke-linecap="round"></path><path d="M 263.576,169.567 C 283.910,154.961 284.021,155.048 305.124,141.588" stroke-width="4.500" stroke="black" fill="none" stroke-linecap="round"></path><path d="M 305.124,141.588 C 315.981,134.663 321.593,133.149 327.496,128.797" stroke-width="4.500" stroke="black" fill="none" stroke-linecap="round"></path><path d="M 327.496,128.797 C 329.183,127.553 323.697,128.982 320.305,130.396" stroke-width="5.116" stroke="black" fill="none" stroke-linecap="round"></path><path d="M 320.305,130.396 C 294.933,140.973 295.021,141.336 269.968,152.779" stroke-width="4.500" stroke="black" fill="none" stroke-linecap="round"></path><path d="M 269.968,152.779 C 239.890,166.517 239.603,165.971 210.042,180.759" stroke-width="4.500" stroke="black" fill="none" stroke-linecap="round"></path><path d="M 210.042,180.759 C 186.070,192.751 186.534,193.664 162.901,206.339" stroke-width="4.500" stroke="black" fill="none" stroke-linecap="round"></path><path d="M 162.901,206.339 C 147.782,214.449 147.816,214.529 132.539,222.328" stroke-width="4.500" stroke="black" fill="none" stroke-linecap="round"></path><path d="M 132.539,222.328 C 128.241,224.522 124.924,226.559 123.750,226.324" stroke-width="4.500" stroke="black" fill="none" stroke-linecap="round"></path><path d="M 123.750,226.324 C 122.926,226.160 125.859,223.575 128.544,221.528" stroke-width="5.578" stroke="black" fill="none" stroke-linecap="round"></path><path d="M 128.544,221.528 C 134.249,217.180 134.411,217.333 140.529,213.534" stroke-width="5.064" stroke="black" fill="none" stroke-linecap="round"></path><path d="M 140.529,213.534 C 157.582,202.944 157.389,202.570 174.886,192.750" stroke-width="4.500" stroke="black" fill="none" stroke-linecap="round"></path><path d="M 174.886,192.750 C 190.148,184.184 190.129,183.978 206.047,176.762" stroke-width="4.500" stroke="black" fill="none" stroke-linecap="round"></path><path d="M 206.047,176.762 C 215.697,172.387 215.829,171.982 226.022,169.567" stroke-width="4.500" stroke="black" fill="none" stroke-linecap="round"></path><path d="M 226.022,169.567 C 231.010,168.385 233.475,167.308 236.410,169.567" stroke-width="4.780" stroke="black" fill="none" stroke-linecap="round"></path><path d="M 236.410,169.567 C 238.668,171.305 236.538,173.567 236.410,177.561" stroke-width="6.296" stroke="black" fill="none" stroke-linecap="round"></path><path d="M 236.410,177.561 C 236.139,185.958 236.169,185.965 235.611,194.348" stroke-width="4.943" stroke="black" fill="none" stroke-linecap="round"></path><path d="M 235.611,194.348 C 234.971,203.952 234.459,203.927 234.013,213.534" stroke-width="4.500" stroke="black" fill="none" stroke-linecap="round"></path><path d="M 234.013,213.534 C 233.660,221.114 233.776,221.137 234.013,228.723" stroke-width="4.731" stroke="black" fill="none" stroke-linecap="round"></path><path d="M 234.013,228.723 C 234.175,233.928 234.077,233.973 234.811,239.115" stroke-width="5.212" stroke="black" fill="none" stroke-linecap="round"></path><path d="M 234.811,239.115 C 235.276,242.367 235.695,242.294 236.410,245.510" stroke-width="6.043" stroke="black" fill="none" stroke-linecap="round"></path><circle r="3" cx="260.3795471191406" cy="263.8964538574219" fill="black"></circle></svg>