<svg xmlns="http://www.w3.org/2000/svg" xmlns:xlink="http://www.w3.org/1999/xlink" viewBox="0 0 576 416" width="576" height="416"><path d="M 376.235,215.532 C 366.647,219.529 366.605,219.433 357.059,223.526" stroke-width="7.062" stroke="black" fill="none" stroke-linecap="round"></path><path d="M 357.059,223.526 C 352.622,225.429 352.586,225.364 348.270,227.523" stroke-width="6.082" stroke="black" fill="none" stroke-linecap="round"></path><path d="M 348.270,227.523 C 337.405,232.958 337.225,232.668 326.697,238.715" stroke-width="4.500" stroke="black" fill="none" stroke-linecap="round"></path><path d="M 326.697,238.715 C 315.652,245.059 315.984,245.630 305.124,252.305" stroke-width="4.500" stroke="black" fill="none" stroke-linecap="round"></path><path d="M 305.124,252.305 C 288.019,262.817 288.172,263.102 270.767,273.089" stroke-width="4.500" stroke="black" fill="none" stroke-linecap="round"></path><path d="M 270.767,273.089 C 261.006,278.690 260.768,278.264 250.792,283.482" stroke-width="4.500" stroke="black" fill="none" stroke-linecap="round"></path><path d="M 250.792,283.482 C 243.190,287.457 243.179,287.437 235.611,291.476" stroke-width="4.500" stroke="black" fill="none" stroke-linecap="round"></path><path d="M 235.611,291.476 C 231.194,293.832 231.294,294.035 226.822,296.272" stroke-width="5.176" stroke="black" fill="none" stroke-linecap="round"></path><path d="M 357.858,208.338 C 351.066,211.535 351.024,211.448 344.275,214.733" stroke-width="7.599" stroke="black" fill="none" stroke-linecap="round"></path><path d="M 344.275,214.733 C 336.242,218.642 336.247,218.656 328.295,222.727" stroke-width="5.025" stroke="black" fill="none" stroke-linecap="round"></path><path d="M 328.295,222.727 C 319.068,227.450 319.106,227.523 309.918,232.320" stroke-width="4.500" stroke="black" fill="none" stroke-linecap="round"></path><path d="M 309.918,232.320 C 300.729,237.116 300.690,237.043 291.541,241.913" stroke-width="4.500" stroke="black" fill="none" stroke-linecap="round"></path><path d="M 291.541,241.913 C 281.914,247.036 281.945,247.095 272.365,252.305" stroke-width="4.500" stroke="black" fill="none" stroke-linecap="round"></path><path d="M 272.365,252.305 C 263.568,257.088 263.627,257.199 254.787,261.898" stroke-width="4.500" stroke="black" fill="none" stroke-linecap="round"></path><path d="M 254.787,261.898 C 250.843,263.994 250.733,263.785 246.797,265.895" stroke-width="5.090" stroke="black" fill="none" stroke-linecap="round"></path><path d="M 246.797,265.895 C 239.547,269.780 239.584,269.854 232.415,273.889" stroke-width="4.717" stroke="black" fill="none" stroke-linecap="round"></path><path d="M 232.415,273.889 C 226.800,277.048 226.792,277.037 221.228,280.284" stroke-width="4.992" stroke="black" fill="none" stroke-linecap="round"></path><path d="M 221.228,280.284 C 217.204,282.633 217.107,282.500 213.238,285.080" stroke-width="5.459" stroke="black" fill="none" stroke-linecap="round"></path><path d="M 213.238,285.080 C 211.114,286.497 211.543,287.393 209.243,288.278" stroke-width="6.404" stroke="black" fill="none" stroke-linecap="round"></path><path d="M 331.491,204.341 C 327.096,206.339 326.945,206.052 322.702,208.338" stroke-width="8.031" stroke="black" fill="none" stroke-linecap="round"></path><path d="M 322.702,208.338 C 316.558,211.647 316.680,211.886 310.717,215.532" stroke-width="5.462" stroke="black" fill="none" stroke-linecap="round"></path><path d="M 310.717,215.532 C 302.298,220.680 302.366,220.792 293.938,225.924" stroke-width="4.587" stroke="black" fill="none" stroke-linecap="round"></path><path d="M 293.938,225.924 C 283.989,231.983 284.037,232.070 273.963,237.916" stroke-width="4.500" stroke="black" fill="none" stroke-linecap="round"></path><path d="M 273.963,237.916 C 264.062,243.661 263.912,243.403 253.988,249.107" stroke-width="4.500" stroke="black" fill="none" stroke-linecap="round"></path><path d="M 253.988,249.107 C 245.136,254.195 245.361,254.615 236.410,259.499" stroke-width="4.500" stroke="black" fill="none" stroke-linecap="round"></path><path d="M 236.410,259.499 C 232.177,261.809 232.025,261.521 227.620,263.496" stroke-width="5.019" stroke="black" fill="none" stroke-linecap="round"></path><path d="M 227.620,263.496 C 220.440,266.717 220.493,266.848 213.238,269.892" stroke-width="4.671" stroke="black" fill="none" stroke-linecap="round"></path><path d="M 213.238,269.892 C 208.109,272.044 208.121,272.131 202.851,273.889" stroke-width="5.184" stroke="black" fill="none" stroke-linecap="round"></path><path d="M 202.851,273.889 C 199.732,274.929 199.158,276.162 196.459,275.488" stroke-width="5.964" stroke="black" fill="none" stroke-linecap="round"></path><path d="M 196.459,275.488 C 194.364,274.963 193.501,273.867 193.263,271.491" stroke-width="7.375" stroke="black" fill="none" stroke-linecap="round"></path><path d="M 193.263,271.491 C 192.702,265.873 193.800,265.447 194.861,259.499" stroke-width="6.881" stroke="black" fill="none" stroke-linecap="round"></path><path d="M 194.861,259.499 C 195.797,254.256 195.921,254.268 197.258,249.107" stroke-width="5.876" stroke="black" fill="none" stroke-linecap="round"></path><path d="M 197.258,249.107 C 198.718,243.476 198.744,243.477 200.454,237.916" stroke-width="5.394" stroke="black" fill="none" stroke-linecap="round"></path><path d="M 200.454,237.916 C 201.940,233.084 201.924,233.072 203.650,228.323" stroke-width="5.647" stroke="black" fill="none" stroke-linecap="round"></path><path d="M 203.650,228.323 C 205.120,224.279 205.008,224.212 206.846,220.329" stroke-width="5.872" stroke="black" fill="none" stroke-linecap="round"></path><path d="M 206.846,220.329 C 208.604,216.617 208.432,216.421 210.841,213.134" stroke-width="6.005" stroke="black" fill="none" stroke-linecap="round"></path><path d="M 210.841,213.134 C 212.827,210.425 212.958,210.347 215.635,208.338" stroke-width="6.299" stroke="black" fill="none" stroke-linecap="round"></path><path d="M 215.635,208.338 C 217.752,206.750 217.901,206.718 220.429,205.939" stroke-width="6.670" stroke="black" fill="none" stroke-linecap="round"></path><path d="M 220.429,205.939 C 223.094,205.119 223.280,204.701 226.022,205.140" stroke-width="6.657" stroke="black" fill="none" stroke-linecap="round"></path><path d="M 226.022,205.140 C 233.268,206.300 233.404,206.608 240.405,209.137" stroke-width="6.410" stroke="black" fill="none" stroke-linecap="round"></path><path d="M 240.405,209.137 C 247.786,211.804 247.796,211.941 254.787,215.532" stroke-width="5.087" stroke="black" fill="none" stroke-linecap="round"></path><path d="M 254.787,215.532 C 262.578,219.535 262.557,219.643 269.968,224.326" stroke-width="4.608" stroke="black" fill="none" stroke-linecap="round"></path><path d="M 269.968,224.326 C 277.738,229.236 277.695,229.332 285.149,234.718" stroke-width="4.500" stroke="black" fill="none" stroke-linecap="round"></path><path d="M 285.149,234.718 C 292.077,239.725 291.995,239.844 298.732,245.110" stroke-width="4.500" stroke="black" fill="none" stroke-linecap="round"></path><path d="M 298.732,245.110 C 304.779,249.837 304.805,249.809 310.717,254.703" stroke-width="4.553" stroke="black" fill="none" stroke-linecap="round"></path><path d="M 310.717,254.703 C 316.391,259.401 316.328,259.479 321.903,264.296" stroke-width="4.737" stroke="black" fill="none" stroke-linecap="round"></path><path d="M 321.903,264.296 C 325.117,267.073 325.099,267.094 328.295,269.892" stroke-width="5.624" stroke="black" fill="none" stroke-linecap="round"></path><circle r="3" cx="294.7366027832031" cy="196.34658813476562" fill="black"></circle><circle r="3" cx="353.0636901855469" cy="270.69110107421875" fill="black"></circle></svg>