<svg xmlns="http://www.w3.org/2000/svg" xmlns:xlink="http://www.w3.org/1999/xlink" viewBox="0 0 576 416" width="576" height="416"><path d="M 387.421,229.922 C 384.624,225.125 383.762,225.410 381.828,220.329" stroke-width="8.238" stroke="black" fill="none" stroke-linecap="round"></path><path d="M 381.828,220.329 C 380.566,217.016 381.241,213.346 381.029,213.134" stroke-width="7.971" stroke="black" fill="none" stroke-linecap="round"></path><path d="M 381.029,213.134 C 380.841,212.947 382.375,216.739 381.029,219.529" stroke-width="8.246" stroke="black" fill="none" stroke-linecap="round"></path><path d="M 381.029,219.529 C 376.782,228.330 375.772,228.199 369.843,236.317" stroke-width="6.340" stroke="black" fill="none" stroke-linecap="round"></path><path d="M 369.843,236.317 C 368.182,238.591 367.640,238.137 365.848,240.314" stroke-width="6.477" stroke="black" fill="none" stroke-linecap="round"></path><path d="M 365.848,240.314 C 362.047,244.932 362.076,244.989 358.657,249.907" stroke-width="5.588" stroke="black" fill="none" stroke-linecap="round"></path><path d="M 358.657,249.907 C 355.684,254.182 355.645,254.181 353.064,258.700" stroke-width="5.491" stroke="black" fill="none" stroke-linecap="round"></path><path d="M 353.064,258.700 C 350.851,262.575 350.175,262.450 349.069,266.694" stroke-width="5.847" stroke="black" fill="none" stroke-linecap="round"></path><path d="M 349.069,266.694 C 347.778,271.644 348.702,271.893 348.270,277.086" stroke-width="5.657" stroke="black" fill="none" stroke-linecap="round"></path><path d="M 348.270,277.086 C 347.903,281.486 348.167,281.528 347.471,285.880" stroke-width="5.841" stroke="black" fill="none" stroke-linecap="round"></path><path d="M 347.471,285.880 C 346.569,291.521 347.282,292.100 345.074,297.071" stroke-width="5.509" stroke="black" fill="none" stroke-linecap="round"></path><path d="M 345.074,297.071 C 344.086,299.294 343.027,298.612 341.079,300.269" stroke-width="6.425" stroke="black" fill="none" stroke-linecap="round"></path><path d="M 341.079,300.269 C 335.037,305.407 335.078,305.455 329.094,310.661" stroke-width="5.075" stroke="black" fill="none" stroke-linecap="round"></path><path d="M 302.727,251.505 C 301.928,256.302 302.570,256.531 301.129,261.098" stroke-width="8.637" stroke="black" fill="none" stroke-linecap="round"></path><path d="M 301.129,261.098 C 300.173,264.125 300.109,264.381 297.933,266.694" stroke-width="7.042" stroke="black" fill="none" stroke-linecap="round"></path><path d="M 297.933,266.694 C 293.717,271.176 293.825,271.876 288.345,274.688" stroke-width="5.523" stroke="black" fill="none" stroke-linecap="round"></path><path d="M 288.345,274.688 C 278.244,279.870 277.910,280.008 266.772,282.682" stroke-width="4.500" stroke="black" fill="none" stroke-linecap="round"></path><path d="M 266.772,282.682 C 247.947,287.202 247.728,287.110 228.419,289.077" stroke-width="4.500" stroke="black" fill="none" stroke-linecap="round"></path><path d="M 228.419,289.077 C 204.582,291.506 204.457,290.455 180.479,291.476" stroke-width="4.500" stroke="black" fill="none" stroke-linecap="round"></path><path d="M 180.479,291.476 C 166.903,292.054 166.899,292.011 153.313,292.275" stroke-width="4.500" stroke="black" fill="none" stroke-linecap="round"></path><path d="M 153.313,292.275 C 125.751,292.810 125.747,292.653 98.182,293.074" stroke-width="4.500" stroke="black" fill="none" stroke-linecap="round"></path><path d="M 98.182,293.074 C 73.413,293.453 73.404,294.105 48.644,293.874" stroke-width="4.500" stroke="black" fill="none" stroke-linecap="round"></path><path d="M 48.644,293.874 C 30.658,293.706 30.587,293.832 12.689,292.275" stroke-width="4.500" stroke="black" fill="none" stroke-linecap="round"></path><path d="M 12.689,292.275 C 3.021,291.434 -10.597,292.470 -6.487,289.077" stroke-width="4.500" stroke="black" fill="none" stroke-linecap="round"></path><path d="M -6.487,289.077 C 5.383,279.280 18.177,274.903 44.649,265.895" stroke-width="4.500" stroke="black" fill="none" stroke-linecap="round"></path><path d="M 44.649,265.895 C 76.904,254.918 77.526,256.162 110.966,249.107" stroke-width="4.500" stroke="black" fill="none" stroke-linecap="round"></path><path d="M 110.966,249.107 C 143.843,242.172 143.915,241.580 177.283,237.916" stroke-width="4.500" stroke="black" fill="none" stroke-linecap="round"></path><path d="M 177.283,237.916 C 209.433,234.385 209.639,234.934 242.003,234.718" stroke-width="4.500" stroke="black" fill="none" stroke-linecap="round"></path><path d="M 242.003,234.718 C 269.564,234.534 269.717,234.515 297.134,237.116" stroke-width="4.500" stroke="black" fill="none" stroke-linecap="round"></path><path d="M 297.134,237.116 C 316.059,238.912 316.386,238.861 334.687,243.511" stroke-width="4.500" stroke="black" fill="none" stroke-linecap="round"></path><path d="M 334.687,243.511 C 341.554,245.256 351.352,247.965 347.471,249.907" stroke-width="4.500" stroke="black" fill="none" stroke-linecap="round"></path><path d="M 347.471,249.907 C 334.573,256.359 324.592,256.924 301.129,260.299" stroke-width="4.500" stroke="black" fill="none" stroke-linecap="round"></path><path d="M 301.129,260.299 C 260.672,266.118 260.418,264.735 219.630,268.293" stroke-width="4.500" stroke="black" fill="none" stroke-linecap="round"></path><path d="M 219.630,268.293 C 182.515,271.530 182.472,271.030 145.323,273.889" stroke-width="4.500" stroke="black" fill="none" stroke-linecap="round"></path><path d="M 145.323,273.889 C 114.957,276.226 114.995,277.139 84.599,278.685" stroke-width="4.500" stroke="black" fill="none" stroke-linecap="round"></path><path d="M 84.599,278.685 C 67.854,279.537 66.882,280.949 51.041,278.685" stroke-width="4.500" stroke="black" fill="none" stroke-linecap="round"></path><path d="M 51.041,278.685 C 47.307,278.151 45.249,275.674 45.448,273.089" stroke-width="4.500" stroke="black" fill="none" stroke-linecap="round"></path><path d="M 45.448,273.089 C 45.649,270.478 48.440,270.386 51.840,268.293" stroke-width="5.454" stroke="black" fill="none" stroke-linecap="round"></path><path d="M 51.840,268.293 C 69.215,257.596 68.562,256.116 86.996,247.508" stroke-width="4.500" stroke="black" fill="none" stroke-linecap="round"></path><path d="M 86.996,247.508 C 110.509,236.530 110.750,236.054 135.735,229.122" stroke-width="4.500" stroke="black" fill="none" stroke-linecap="round"></path><path d="M 135.735,229.122 C 158.291,222.864 158.834,222.006 182.077,221.128" stroke-width="4.500" stroke="black" fill="none" stroke-linecap="round"></path><path d="M 182.077,221.128 C 201.181,220.407 202.348,220.358 220.429,225.924" stroke-width="4.500" stroke="black" fill="none" stroke-linecap="round"></path><path d="M 220.429,225.924 C 233.509,229.951 236.806,230.112 244.400,240.314" stroke-width="4.500" stroke="black" fill="none" stroke-linecap="round"></path><path d="M 244.400,240.314 C 250.789,248.898 249.744,252.466 248.395,263.496" stroke-width="4.500" stroke="black" fill="none" stroke-linecap="round"></path><path d="M 248.395,263.496 C 247.347,272.051 245.267,272.404 239.605,279.485" stroke-width="4.500" stroke="black" fill="none" stroke-linecap="round"></path><path d="M 239.605,279.485 C 226.091,296.386 225.316,295.961 210.042,311.461" stroke-width="4.500" stroke="black" fill="none" stroke-linecap="round"></path><path d="M 210.042,311.461 C 197.351,324.340 196.336,323.345 183.675,336.242" stroke-width="4.500" stroke="black" fill="none" stroke-linecap="round"></path><path d="M 183.675,336.242 C 174.363,345.729 170.292,345.119 166.097,356.227" stroke-width="4.500" stroke="black" fill="none" stroke-linecap="round"></path><path d="M 166.097,356.227 C 163.500,363.105 166.307,365.723 170.092,372.215" stroke-width="4.500" stroke="black" fill="none" stroke-linecap="round"></path><path d="M 170.092,372.215 C 171.900,375.316 173.410,374.998 177.283,375.413" stroke-width="5.345" stroke="black" fill="none" stroke-linecap="round"></path><path d="M 177.283,375.413 C 195.782,377.396 196.051,376.484 214.836,377.012" stroke-width="4.500" stroke="black" fill="none" stroke-linecap="round"></path><path d="M 488.095,338.640 C 467.720,333.444 467.896,332.676 447.346,328.248" stroke-width="4.500" stroke="black" fill="none" stroke-linecap="round"></path><path d="M 447.346,328.248 C 389.993,315.889 390.377,310.610 332.290,305.066" stroke-width="4.500" stroke="black" fill="none" stroke-linecap="round"></path><path d="M 332.290,305.066 C 277.318,299.818 276.758,305.782 221.228,306.664" stroke-width="4.500" stroke="black" fill="none" stroke-linecap="round"></path><path d="M 221.228,306.664 C 150.915,307.781 150.173,301.198 80.604,309.063" stroke-width="4.500" stroke="black" fill="none" stroke-linecap="round"></path><path d="M 80.604,309.063 C 8.750,317.186 9.542,324.111 -61.618,338.640" stroke-width="4.500" stroke="black" fill="none" stroke-linecap="round"></path></svg>