<svg xmlns="http://www.w3.org/2000/svg" xmlns:xlink="http://www.w3.org/1999/xlink" viewBox="0 0 576 416" width="576" height="416"><path d="M 475.311,242.712 C 470.117,242.312 470.110,242.399 464.924,241.913" stroke-width="8.598" stroke="black" fill="none" stroke-linecap="round"></path><path d="M 464.924,241.913 C 457.325,241.200 457.351,240.885 449.743,240.314" stroke-width="5.479" stroke="black" fill="none" stroke-linecap="round"></path><path d="M 449.743,240.314 C 441.371,239.686 441.358,239.714 432.964,239.514" stroke-width="4.875" stroke="black" fill="none" stroke-linecap="round"></path><path d="M 432.964,239.514 C 424.579,239.315 424.570,239.319 416.185,239.514" stroke-width="4.527" stroke="black" fill="none" stroke-linecap="round"></path><path d="M 416.185,239.514 C 407.391,239.719 407.396,239.923 398.607,240.314" stroke-width="4.500" stroke="black" fill="none" stroke-linecap="round"></path><path d="M 398.607,240.314 C 389.419,240.722 389.407,240.539 380.230,241.113" stroke-width="4.500" stroke="black" fill="none" stroke-linecap="round"></path><path d="M 380.230,241.113 C 370.231,241.738 370.242,241.913 360.255,242.712" stroke-width="4.500" stroke="black" fill="none" stroke-linecap="round"></path><path d="M 360.255,242.712 C 350.267,243.511 350.245,243.293 340.280,244.311" stroke-width="4.500" stroke="black" fill="none" stroke-linecap="round"></path><path d="M 340.280,244.311 C 330.669,245.292 330.681,245.431 321.104,246.709" stroke-width="4.500" stroke="black" fill="none" stroke-linecap="round"></path><path d="M 321.104,246.709 C 312.704,247.830 312.705,247.850 304.325,249.107" stroke-width="4.500" stroke="black" fill="none" stroke-linecap="round"></path><path d="M 304.325,249.107 C 296.725,250.248 296.710,250.170 289.144,251.505" stroke-width="4.575" stroke="black" fill="none" stroke-linecap="round"></path><path d="M 289.144,251.505 C 283.127,252.568 283.173,252.829 277.159,253.904" stroke-width="5.018" stroke="black" fill="none" stroke-linecap="round"></path><path d="M 277.159,253.904 C 271.987,254.828 271.947,254.602 266.772,255.502" stroke-width="5.387" stroke="black" fill="none" stroke-linecap="round"></path><path d="M 266.772,255.502 C 262.759,256.201 262.798,256.432 258.782,257.101" stroke-width="5.856" stroke="black" fill="none" stroke-linecap="round"></path><path d="M 258.782,257.101 C 255.607,257.631 253.507,259.392 252.390,257.901" stroke-width="6.957" stroke="black" fill="none" stroke-linecap="round"></path><path d="M 252.390,257.901 C 251.110,256.194 253.095,254.280 253.988,250.706" stroke-width="7.732" stroke="black" fill="none" stroke-linecap="round"></path><path d="M 253.988,250.706 C 254.693,247.884 255.442,247.974 255.586,245.110" stroke-width="6.983" stroke="black" fill="none" stroke-linecap="round"></path><path d="M 255.586,245.110 C 255.842,239.980 256.231,239.535 254.787,234.718" stroke-width="6.917" stroke="black" fill="none" stroke-linecap="round"></path><path d="M 254.787,234.718 C 253.834,231.541 253.189,231.521 250.792,229.122" stroke-width="6.553" stroke="black" fill="none" stroke-linecap="round"></path><path d="M 250.792,229.122 C 248.395,226.724 248.024,227.082 245.199,225.125" stroke-width="6.451" stroke="black" fill="none" stroke-linecap="round"></path><path d="M 245.199,225.125 C 242.830,223.485 242.930,223.288 240.405,221.928" stroke-width="6.638" stroke="black" fill="none" stroke-linecap="round"></path><path d="M 240.405,221.928 C 237.737,220.490 237.608,220.728 234.811,219.529" stroke-width="6.631" stroke="black" fill="none" stroke-linecap="round"></path><path d="M 234.811,219.529 C 232.015,218.330 228.339,217.864 229.218,217.131" stroke-width="7.280" stroke="black" fill="none" stroke-linecap="round"></path><path d="M 229.218,217.131 C 230.736,215.865 234.404,216.276 239.605,215.532" stroke-width="7.407" stroke="black" fill="none" stroke-linecap="round"></path><path d="M 239.605,215.532 C 242.794,215.077 242.790,214.947 245.998,214.733" stroke-width="6.844" stroke="black" fill="none" stroke-linecap="round"></path><path d="M 245.998,214.733 C 248.782,214.547 248.802,214.569 251.591,214.733" stroke-width="6.720" stroke="black" fill="none" stroke-linecap="round"></path><path d="M 251.591,214.733 C 255.594,214.968 256.063,214.125 259.581,215.532" stroke-width="7.103" stroke="black" fill="none" stroke-linecap="round"></path><path d="M 259.581,215.532 C 262.056,216.523 263.191,217.220 263.576,219.529" stroke-width="7.522" stroke="black" fill="none" stroke-linecap="round"></path><path d="M 263.576,219.529 C 263.990,222.017 263.026,222.866 261.179,225.125" stroke-width="7.600" stroke="black" fill="none" stroke-linecap="round"></path><path d="M 261.179,225.125 C 259.430,227.263 258.753,226.682 256.385,228.323" stroke-width="6.963" stroke="black" fill="none" stroke-linecap="round"></path><path d="M 256.385,228.323 C 253.559,230.280 253.710,230.523 250.792,232.320" stroke-width="6.565" stroke="black" fill="none" stroke-linecap="round"></path><path d="M 250.792,232.320 C 248.516,233.721 248.308,233.370 245.998,234.718" stroke-width="6.757" stroke="black" fill="none" stroke-linecap="round"></path><path d="M 245.998,234.718 C 243.514,236.168 243.758,236.638 241.203,237.916" stroke-width="6.732" stroke="black" fill="none" stroke-linecap="round"></path><path d="M 241.203,237.916 C 238.964,239.036 238.807,238.715 236.410,239.514" stroke-width="6.936" stroke="black" fill="none" stroke-linecap="round"></path><path d="M 236.410,239.514 C 232.814,240.713 232.852,241.699 229.218,241.913" stroke-width="7.227" stroke="black" fill="none" stroke-linecap="round"></path><path d="M 229.218,241.913 C 226.060,242.098 224.505,242.603 222.826,240.314" stroke-width="7.720" stroke="black" fill="none" stroke-linecap="round"></path><path d="M 222.826,240.314 C 220.110,236.608 221.086,235.179 220.429,229.922" stroke-width="7.090" stroke="black" fill="none" stroke-linecap="round"></path><path d="M 220.429,229.922 C 219.888,225.586 220.429,225.525 220.429,221.128" stroke-width="6.238" stroke="black" fill="none" stroke-linecap="round"></path><path d="M 220.429,221.128 C 220.429,215.133 220.636,215.125 220.429,209.137" stroke-width="5.533" stroke="black" fill="none" stroke-linecap="round"></path><path d="M 220.429,209.137 C 220.236,203.534 220.016,203.542 219.630,197.945" stroke-width="5.455" stroke="black" fill="none" stroke-linecap="round"></path><path d="M 219.630,197.945 C 219.217,191.951 219.375,191.935 218.832,185.954" stroke-width="5.326" stroke="black" fill="none" stroke-linecap="round"></path><path d="M 218.832,185.954 C 218.576,183.141 218.398,183.161 218.032,180.359" stroke-width="6.360" stroke="black" fill="none" stroke-linecap="round"></path><path d="M 218.032,180.359 C 217.199,173.968 217.647,173.876 216.434,167.568" stroke-width="5.437" stroke="black" fill="none" stroke-linecap="round"></path><path d="M 216.434,167.568 C 215.649,163.484 215.281,163.557 214.037,159.574" stroke-width="5.763" stroke="black" fill="none" stroke-linecap="round"></path><path d="M 214.037,159.574 C 213.284,157.161 213.238,157.176 212.439,154.778" stroke-width="6.476" stroke="black" fill="none" stroke-linecap="round"></path><path d="M 156.509,201.143 C 162.502,205.140 162.621,204.975 168.494,209.137" stroke-width="8.231" stroke="black" fill="none" stroke-linecap="round"></path><path d="M 168.494,209.137 C 172.209,211.770 172.264,211.738 175.685,214.733" stroke-width="6.414" stroke="black" fill="none" stroke-linecap="round"></path><path d="M 175.685,214.733 C 178.656,217.334 178.581,217.438 181.278,220.329" stroke-width="6.221" stroke="black" fill="none" stroke-linecap="round"></path><path d="M 181.278,220.329 C 184.174,223.433 184.485,223.251 186.871,226.724" stroke-width="5.977" stroke="black" fill="none" stroke-linecap="round"></path><path d="M 186.871,226.724 C 188.880,229.646 188.663,229.841 190.067,233.119" stroke-width="6.224" stroke="black" fill="none" stroke-linecap="round"></path><path d="M 190.067,233.119 C 191.060,235.437 191.825,235.517 191.665,237.916" stroke-width="6.818" stroke="black" fill="none" stroke-linecap="round"></path><path d="M 191.665,237.916 C 191.426,241.513 191.698,242.410 189.268,245.110" stroke-width="7.102" stroke="black" fill="none" stroke-linecap="round"></path><path d="M 189.268,245.110 C 184.507,250.404 183.550,249.956 177.283,253.904" stroke-width="6.449" stroke="black" fill="none" stroke-linecap="round"></path><path d="M 177.283,253.904 C 172.764,256.751 172.447,256.220 167.695,258.700" stroke-width="5.769" stroke="black" fill="none" stroke-linecap="round"></path></svg>