<svg xmlns="http://www.w3.org/2000/svg" xmlns:xlink="http://www.w3.org/1999/xlink" viewBox="0 0 576 416" width="576" height="416"><path d="M 377.034,121.203 C 374.637,125.999 374.726,126.046 372.240,130.796" stroke-width="8.660" stroke="black" fill="none" stroke-linecap="round"></path><path d="M 372.240,130.796 C 370.332,134.440 370.242,134.393 368.245,137.990" stroke-width="6.561" stroke="black" fill="none" stroke-linecap="round"></path><path d="M 368.245,137.990 C 366.247,141.587 366.393,141.676 364.250,145.185" stroke-width="6.205" stroke="black" fill="none" stroke-linecap="round"></path><path d="M 364.250,145.185 C 361.998,148.871 362.044,148.927 359.456,152.379" stroke-width="6.036" stroke="black" fill="none" stroke-linecap="round"></path><path d="M 359.456,152.379 C 357.250,155.322 357.255,155.380 354.662,157.975" stroke-width="6.204" stroke="black" fill="none" stroke-linecap="round"></path><path d="M 354.662,157.975 C 352.861,159.777 352.921,160.045 350.667,161.173" stroke-width="6.687" stroke="black" fill="none" stroke-linecap="round"></path><path d="M 350.667,161.173 C 347.328,162.843 346.043,164.855 343.476,163.571" stroke-width="7.144" stroke="black" fill="none" stroke-linecap="round"></path><path d="M 343.476,163.571 C 340.450,162.057 341.210,159.685 339.481,155.577" stroke-width="7.496" stroke="black" fill="none" stroke-linecap="round"></path><path d="M 339.481,155.577 C 338.014,152.091 339.190,149.787 337.084,148.382" stroke-width="7.427" stroke="black" fill="none" stroke-linecap="round"></path><path d="M 337.084,148.382 C 335.595,147.389 334.215,149.047 332.290,150.781" stroke-width="8.179" stroke="black" fill="none" stroke-linecap="round"></path><path d="M 332.290,150.781 C 330.220,152.644 330.787,153.248 329.094,155.577" stroke-width="7.019" stroke="black" fill="none" stroke-linecap="round"></path><path d="M 329.094,155.577 C 327.591,157.645 327.769,157.858 325.898,159.574" stroke-width="6.948" stroke="black" fill="none" stroke-linecap="round"></path><path d="M 325.898,159.574 C 322.975,162.254 322.991,163.755 319.506,164.370" stroke-width="7.182" stroke="black" fill="none" stroke-linecap="round"></path><path d="M 319.506,164.370 C 316.200,164.954 315.265,164.016 312.315,161.972" stroke-width="7.627" stroke="black" fill="none" stroke-linecap="round"></path><path d="M 312.315,161.972 C 310.071,160.418 310.717,157.176 309.119,157.176" stroke-width="7.675" stroke="black" fill="none" stroke-linecap="round"></path><path d="M 309.119,157.176 C 307.521,157.176 306.757,159.301 305.923,161.972" stroke-width="8.100" stroke="black" fill="none" stroke-linecap="round"></path><path d="M 305.923,161.972 C 304.760,165.696 305.907,166.045 305.124,169.966" stroke-width="6.598" stroke="black" fill="none" stroke-linecap="round"></path><path d="M 305.124,169.966 C 304.309,174.039 304.166,174.052 302.727,177.960" stroke-width="6.195" stroke="black" fill="none" stroke-linecap="round"></path><path d="M 302.727,177.960 C 301.369,181.647 301.677,181.934 299.531,185.155" stroke-width="6.164" stroke="black" fill="none" stroke-linecap="round"></path><path d="M 299.531,185.155 C 297.682,187.930 297.460,188.005 294.737,189.951" stroke-width="6.350" stroke="black" fill="none" stroke-linecap="round"></path><path d="M 294.737,189.951 C 291.867,192.002 291.740,192.394 288.345,193.149" stroke-width="6.414" stroke="black" fill="none" stroke-linecap="round"></path><path d="M 288.345,193.149 C 284.549,193.993 284.291,193.663 280.355,193.149" stroke-width="6.120" stroke="black" fill="none" stroke-linecap="round"></path><path d="M 280.355,193.149 C 275.103,192.464 274.867,192.742 269.968,190.751" stroke-width="5.696" stroke="black" fill="none" stroke-linecap="round"></path><path d="M 269.968,190.751 C 262.083,187.546 261.985,187.373 254.787,182.757" stroke-width="4.786" stroke="black" fill="none" stroke-linecap="round"></path><path d="M 254.787,182.757 C 246.404,177.381 246.539,177.077 238.806,170.766" stroke-width="4.500" stroke="black" fill="none" stroke-linecap="round"></path><path d="M 238.806,170.766 C 231.358,164.686 231.639,164.344 224.425,157.975" stroke-width="4.500" stroke="black" fill="none" stroke-linecap="round"></path><path d="M 224.425,157.975 C 218.056,152.353 217.976,152.443 211.640,146.784" stroke-width="4.508" stroke="black" fill="none" stroke-linecap="round"></path><path d="M 211.640,146.784 C 206.790,142.450 206.986,142.221 202.052,137.990" stroke-width="4.818" stroke="black" fill="none" stroke-linecap="round"></path><path d="M 202.052,137.990 C 198.597,135.027 197.602,135.821 194.861,132.394" stroke-width="5.503" stroke="black" fill="none" stroke-linecap="round"></path><path d="M 194.861,132.394 C 192.808,129.826 191.793,128.462 192.464,125.999" stroke-width="6.760" stroke="black" fill="none" stroke-linecap="round"></path><path d="M 192.464,125.999 C 192.991,124.066 194.983,125.002 197.258,123.601" stroke-width="6.818" stroke="black" fill="none" stroke-linecap="round"></path><path d="M 197.258,123.601 C 200.177,121.804 199.718,120.983 202.851,119.604" stroke-width="6.601" stroke="black" fill="none" stroke-linecap="round"></path><path d="M 202.851,119.604 C 219.693,112.190 220.041,112.837 237.208,106.014" stroke-width="4.500" stroke="black" fill="none" stroke-linecap="round"></path><path d="M 237.208,106.014 C 249.205,101.246 249.079,100.905 261.179,96.421" stroke-width="4.500" stroke="black" fill="none" stroke-linecap="round"></path><path d="M 261.179,96.421 C 270.652,92.911 270.677,92.905 280.355,90.026" stroke-width="4.500" stroke="black" fill="none" stroke-linecap="round"></path><path d="M 280.355,90.026 C 285.458,88.508 290.742,84.803 290.742,87.628" stroke-width="4.916" stroke="black" fill="none" stroke-linecap="round"></path><path d="M 290.742,87.628 C 290.742,93.596 287.205,98.756 280.355,107.613" stroke-width="5.295" stroke="black" fill="none" stroke-linecap="round"></path><path d="M 280.355,107.613 C 261.237,132.331 259.731,131.330 238.806,154.778" stroke-width="4.500" stroke="black" fill="none" stroke-linecap="round"></path><path d="M 238.806,154.778 C 219.781,176.097 219.587,175.923 200.454,197.146" stroke-width="4.500" stroke="black" fill="none" stroke-linecap="round"></path><path d="M 200.454,197.146 C 182.833,216.692 182.324,216.264 165.298,236.317" stroke-width="4.500" stroke="black" fill="none" stroke-linecap="round"></path><path d="M 165.298,236.317 C 150.763,253.437 150.456,253.294 137.333,271.491" stroke-width="4.500" stroke="black" fill="none" stroke-linecap="round"></path><path d="M 137.333,271.491 C 127.684,284.871 128.544,285.480 119.755,299.470" stroke-width="4.500" stroke="black" fill="none" stroke-linecap="round"></path></svg>