<svg xmlns="http://www.w3.org/2000/svg" xmlns:xlink="http://www.w3.org/1999/xlink" viewBox="0 0 576 416" width="576" height="416"><path d="M 315.511,75.637 C 319.905,73.238 319.594,72.017 324.300,70.840" stroke-width="8.314" stroke="black" fill="none" stroke-linecap="round"></path><path d="M 324.300,70.840 C 329.182,69.619 329.657,69.762 334.687,70.840" stroke-width="7.189" stroke="black" fill="none" stroke-linecap="round"></path><path d="M 334.687,70.840 C 346.436,73.359 346.705,73.470 357.858,78.035" stroke-width="4.500" stroke="black" fill="none" stroke-linecap="round"></path><path d="M 357.858,78.035 C 364.283,80.665 364.538,80.845 369.843,85.230" stroke-width="4.654" stroke="black" fill="none" stroke-linecap="round"></path><path d="M 369.843,85.230 C 373.727,88.440 374.649,88.662 376.235,93.224" stroke-width="5.289" stroke="black" fill="none" stroke-linecap="round"></path><path d="M 376.235,93.224 C 377.845,97.855 377.587,98.785 376.235,103.616" stroke-width="5.405" stroke="black" fill="none" stroke-linecap="round"></path><path d="M 376.235,103.616 C 374.790,108.778 373.938,108.764 370.642,113.209" stroke-width="5.340" stroke="black" fill="none" stroke-linecap="round"></path><path d="M 370.642,113.209 C 364.749,121.155 364.557,121.085 357.858,128.397" stroke-width="4.500" stroke="black" fill="none" stroke-linecap="round"></path><path d="M 357.858,128.397 C 351.374,135.474 350.599,134.787 344.275,141.987" stroke-width="4.500" stroke="black" fill="none" stroke-linecap="round"></path><path d="M 344.275,141.987 C 339.013,147.977 339.481,148.382 334.687,154.778" stroke-width="4.500" stroke="black" fill="none" stroke-linecap="round"></path><path d="M 406.597,162.772 C 401.004,165.969 400.036,165.054 395.411,169.167" stroke-width="8.312" stroke="black" fill="none" stroke-linecap="round"></path><path d="M 395.411,169.167 C 392.845,171.449 392.215,172.534 392.215,175.562" stroke-width="7.679" stroke="black" fill="none" stroke-linecap="round"></path><path d="M 392.215,175.562 C 392.215,177.730 395.754,177.668 395.411,179.559" stroke-width="8.156" stroke="black" fill="none" stroke-linecap="round"></path><path d="M 395.411,179.559 C 394.955,182.065 393.401,182.461 390.617,184.356" stroke-width="6.869" stroke="black" fill="none" stroke-linecap="round"></path><path d="M 390.617,184.356 C 383.414,189.256 383.148,188.994 375.436,193.149" stroke-width="4.957" stroke="black" fill="none" stroke-linecap="round"></path><path d="M 375.436,193.149 C 372.761,194.590 372.526,194.126 369.843,195.547" stroke-width="6.019" stroke="black" fill="none" stroke-linecap="round"></path><path d="M 369.843,195.547 C 365.734,197.723 360.797,200.796 361.853,200.344" stroke-width="5.874" stroke="black" fill="none" stroke-linecap="round"></path><path d="M 293.139,127.598 C 287.146,128.797 286.294,127.313 281.154,129.996" stroke-width="8.495" stroke="black" fill="none" stroke-linecap="round"></path><path d="M 281.154,129.996 C 277.106,132.109 277.292,133.182 274.762,137.191" stroke-width="6.364" stroke="black" fill="none" stroke-linecap="round"></path><path d="M 274.762,137.191 C 272.498,140.777 272.797,141.079 271.566,145.185" stroke-width="6.086" stroke="black" fill="none" stroke-linecap="round"></path><path d="M 271.566,145.185 C 270.400,149.073 269.968,149.214 269.968,153.179" stroke-width="6.084" stroke="black" fill="none" stroke-linecap="round"></path><path d="M 269.968,153.179 C 269.968,156.009 270.077,156.435 271.566,158.775" stroke-width="6.506" stroke="black" fill="none" stroke-linecap="round"></path><path d="M 271.566,158.775 C 272.874,160.832 273.317,161.598 275.561,161.972" stroke-width="6.789" stroke="black" fill="none" stroke-linecap="round"></path><path d="M 275.561,161.972 C 278.111,162.398 279.316,159.270 281.154,160.373" stroke-width="7.392" stroke="black" fill="none" stroke-linecap="round"></path><path d="M 281.154,160.373 C 283.311,161.669 284.175,163.645 283.551,166.769" stroke-width="7.926" stroke="black" fill="none" stroke-linecap="round"></path><path d="M 283.551,166.769 C 282.177,173.638 281.159,174.069 277.159,180.359" stroke-width="5.425" stroke="black" fill="none" stroke-linecap="round"></path><path d="M 277.159,180.359 C 272.770,187.259 272.560,187.358 266.772,193.149" stroke-width="4.691" stroke="black" fill="none" stroke-linecap="round"></path><path d="M 266.772,193.149 C 261.773,198.150 261.614,198.280 255.586,201.942" stroke-width="4.835" stroke="black" fill="none" stroke-linecap="round"></path><path d="M 255.586,201.942 C 250.428,205.075 250.210,205.397 244.400,206.739" stroke-width="5.197" stroke="black" fill="none" stroke-linecap="round"></path><path d="M 244.400,206.739 C 239.823,207.796 239.289,207.993 234.811,206.739" stroke-width="5.652" stroke="black" fill="none" stroke-linecap="round"></path><path d="M 234.811,206.739 C 229.302,205.195 228.933,204.751 224.425,201.143" stroke-width="6.335" stroke="black" fill="none" stroke-linecap="round"></path><path d="M 224.425,201.143 C 220.943,198.356 221.268,197.780 218.832,193.948" stroke-width="5.994" stroke="black" fill="none" stroke-linecap="round"></path><path d="M 218.832,193.948 C 215.675,188.986 216.035,188.752 213.238,183.556" stroke-width="5.400" stroke="black" fill="none" stroke-linecap="round"></path><path d="M 213.238,183.556 C 210.442,178.360 210.707,178.197 207.645,173.164" stroke-width="5.338" stroke="black" fill="none" stroke-linecap="round"></path><path d="M 207.645,173.164 C 205.114,169.003 205.163,168.904 202.052,165.170" stroke-width="5.677" stroke="black" fill="none" stroke-linecap="round"></path><path d="M 202.052,165.170 C 199.170,161.709 199.216,161.495 195.660,158.775" stroke-width="5.728" stroke="black" fill="none" stroke-linecap="round"></path><path d="M 195.660,158.775 C 192.425,156.299 192.029,156.839 188.469,154.778" stroke-width="5.960" stroke="black" fill="none" stroke-linecap="round"></path><path d="M 297.933,269.892 C 284.749,273.489 284.532,272.830 271.566,277.086" stroke-width="7.171" stroke="black" fill="none" stroke-linecap="round"></path><path d="M 271.566,277.086 C 258.964,281.223 259.017,281.498 246.797,286.679" stroke-width="4.500" stroke="black" fill="none" stroke-linecap="round"></path><path d="M 246.797,286.679 C 235.447,291.491 235.558,291.767 224.425,297.071" stroke-width="4.500" stroke="black" fill="none" stroke-linecap="round"></path><path d="M 224.425,297.071 C 218.779,299.761 218.832,299.869 213.238,302.667" stroke-width="4.675" stroke="black" fill="none" stroke-linecap="round"></path><path d="M 315.511,53.253 C 311.516,49.656 312.175,48.543 307.521,46.059" stroke-width="7.802" stroke="black" fill="none" stroke-linecap="round"></path><path d="M 307.521,46.059 C 300.190,42.147 299.789,42.144 291.541,40.463" stroke-width="5.280" stroke="black" fill="none" stroke-linecap="round"></path><path d="M 291.541,40.463 C 278.216,37.747 278.011,37.947 264.375,37.265" stroke-width="4.500" stroke="black" fill="none" stroke-linecap="round"></path><path d="M 264.375,37.265 C 246.051,36.349 245.938,36.177 227.620,37.265" stroke-width="4.500" stroke="black" fill="none" stroke-linecap="round"></path><path d="M 227.620,37.265 C 205.589,38.575 205.450,38.464 183.675,42.062" stroke-width="4.500" stroke="black" fill="none" stroke-linecap="round"></path><path d="M 183.675,42.062 C 161.904,45.659 161.720,45.539 140.529,51.655" stroke-width="4.500" stroke="black" fill="none" stroke-linecap="round"></path><path d="M 140.529,51.655 C 120.172,57.530 119.773,57.181 100.579,66.044" stroke-width="4.500" stroke="black" fill="none" stroke-linecap="round"></path><path d="M 100.579,66.044 C 83.419,73.968 83.155,74.209 67.820,85.230" stroke-width="4.500" stroke="black" fill="none" stroke-linecap="round"></path><path d="M 67.820,85.230 C 54.791,94.593 54.263,94.694 43.850,106.813" stroke-width="4.500" stroke="black" fill="none" stroke-linecap="round"></path><path d="M 43.850,106.813 C 34.687,117.477 31.987,117.519 28.669,130.796" stroke-width="4.500" stroke="black" fill="none" stroke-linecap="round"></path><path d="M 28.669,130.796 C 23.997,149.495 24.977,151.553 27.870,170.766" stroke-width="4.500" stroke="black" fill="none" stroke-linecap="round"></path><path d="M 27.870,170.766 C 29.371,180.731 30.797,181.427 37.458,189.152" stroke-width="4.500" stroke="black" fill="none" stroke-linecap="round"></path><path d="M 37.458,189.152 C 48.375,201.812 48.856,202.570 63.026,211.535" stroke-width="4.500" stroke="black" fill="none" stroke-linecap="round"></path><path d="M 63.026,211.535 C 76.022,219.757 76.819,220.692 91.790,223.526" stroke-width="4.500" stroke="black" fill="none" stroke-linecap="round"></path><path d="M 91.790,223.526 C 106.382,226.288 107.574,225.775 122.152,222.727" stroke-width="4.500" stroke="black" fill="none" stroke-linecap="round"></path><path d="M 122.152,222.727 C 134.341,220.179 135.086,219.555 145.323,212.335" stroke-width="4.500" stroke="black" fill="none" stroke-linecap="round"></path><path d="M 145.323,212.335 C 159.455,202.368 159.841,201.712 170.891,188.353" stroke-width="4.500" stroke="black" fill="none" stroke-linecap="round"></path><path d="M 170.891,188.353 C 179.017,178.529 178.871,177.747 183.675,165.969" stroke-width="4.500" stroke="black" fill="none" stroke-linecap="round"></path><path d="M 183.675,165.969 C 186.861,158.161 187.804,157.111 186.871,149.182" stroke-width="4.500" stroke="black" fill="none" stroke-linecap="round"></path><path d="M 186.871,149.182 C 186.206,143.521 185.243,141.356 180.479,138.790" stroke-width="4.837" stroke="black" fill="none" stroke-linecap="round"></path><path d="M 180.479,138.790 C 174.856,135.760 173.050,136.936 166.097,137.990" stroke-width="4.949" stroke="black" fill="none" stroke-linecap="round"></path><path d="M 166.097,137.990 C 159.866,138.935 159.571,139.417 154.112,142.787" stroke-width="4.972" stroke="black" fill="none" stroke-linecap="round"></path><path d="M 154.112,142.787 C 140.795,151.008 140.419,150.931 128.544,161.173" stroke-width="4.500" stroke="black" fill="none" stroke-linecap="round"></path><path d="M 128.544,161.173 C 117.248,170.916 117.050,171.098 107.770,182.757" stroke-width="4.500" stroke="black" fill="none" stroke-linecap="round"></path><path d="M 107.770,182.757 C 99.871,192.682 99.429,192.898 94.187,204.341" stroke-width="4.500" stroke="black" fill="none" stroke-linecap="round"></path><path d="M 94.187,204.341 C 90.640,212.083 89.474,213.220 90.192,221.128" stroke-width="4.500" stroke="black" fill="none" stroke-linecap="round"></path><path d="M 90.192,221.128 C 90.672,226.411 93.492,225.859 96.584,230.721" stroke-width="4.923" stroke="black" fill="none" stroke-linecap="round"></path><circle r="3" cx="168.494384765625" cy="97.22055053710938" fill="black"></circle><path d="M -4.889,249.907 C 1.503,241.913 1.101,241.566 7.895,233.919" stroke-width="7.265" stroke="black" fill="none" stroke-linecap="round"></path><path d="M 7.895,233.919 C 23.473,216.385 23.276,216.132 39.855,199.544" stroke-width="4.500" stroke="black" fill="none" stroke-linecap="round"></path><path d="M 39.855,199.544 C 56.434,182.957 57.096,183.622 74.212,167.568" stroke-width="4.500" stroke="black" fill="none" stroke-linecap="round"></path><path d="M 74.212,167.568 C 82.664,159.640 82.342,159.287 90.991,151.580" stroke-width="4.500" stroke="black" fill="none" stroke-linecap="round"></path><path d="M 90.991,151.580 C 107.910,136.504 108.597,137.258 125.348,122.002" stroke-width="4.500" stroke="black" fill="none" stroke-linecap="round"></path><path d="M 125.348,122.002 C 139.758,108.879 140.008,109.037 153.313,94.822" stroke-width="4.500" stroke="black" fill="none" stroke-linecap="round"></path><path d="M 153.313,94.822 C 163.578,83.856 164.217,84.054 172.489,71.640" stroke-width="4.500" stroke="black" fill="none" stroke-linecap="round"></path><path d="M 172.489,71.640 C 177.800,63.669 177.940,63.086 180.479,54.053" stroke-width="4.500" stroke="black" fill="none" stroke-linecap="round"></path><path d="M 180.479,54.053 C 181.536,50.296 182.153,48.202 179.680,46.059" stroke-width="5.138" stroke="black" fill="none" stroke-linecap="round"></path><path d="M 179.680,46.059 C 176.160,43.006 174.145,43.661 168.494,43.661" stroke-width="5.465" stroke="black" fill="none" stroke-linecap="round"></path><path d="M 168.494,43.661 C 158.165,43.661 157.857,43.672 147.720,46.059" stroke-width="4.500" stroke="black" fill="none" stroke-linecap="round"></path><path d="M 147.720,46.059 C 130.691,50.068 130.461,50.060 114.162,56.451" stroke-width="4.500" stroke="black" fill="none" stroke-linecap="round"></path><path d="M 114.162,56.451 C 100.898,61.652 100.535,61.577 88.594,69.241" stroke-width="4.500" stroke="black" fill="none" stroke-linecap="round"></path><path d="M 88.594,69.241 C 79.362,75.167 78.345,75.162 71.815,83.631" stroke-width="4.500" stroke="black" fill="none" stroke-linecap="round"></path><path d="M 71.815,83.631 C 67.558,89.152 67.864,90.477 67.021,97.221" stroke-width="4.500" stroke="black" fill="none" stroke-linecap="round"></path><path d="M 67.021,97.221 C 66.665,100.069 67.234,100.793 69.418,102.816" stroke-width="5.782" stroke="black" fill="none" stroke-linecap="round"></path><path d="M 69.418,102.816 C 78.020,110.785 78.414,110.927 88.594,117.206" stroke-width="4.500" stroke="black" fill="none" stroke-linecap="round"></path><path d="M 88.594,117.206 C 107.578,128.914 108.316,127.740 127.745,138.790" stroke-width="4.500" stroke="black" fill="none" stroke-linecap="round"></path><path d="M 127.745,138.790 C 146.269,149.324 146.401,149.134 164.499,160.373" stroke-width="4.500" stroke="black" fill="none" stroke-linecap="round"></path><path d="M 164.499,160.373 C 181.157,170.718 181.880,169.898 197.258,181.957" stroke-width="4.500" stroke="black" fill="none" stroke-linecap="round"></path><path d="M 197.258,181.957 C 211.443,193.081 212.067,192.982 223.625,206.739" stroke-width="4.500" stroke="black" fill="none" stroke-linecap="round"></path><path d="M 223.625,206.739 C 235.238,220.561 233.613,221.927 243.601,237.116" stroke-width="4.500" stroke="black" fill="none" stroke-linecap="round"></path></svg>