<svg xmlns="http://www.w3.org/2000/svg" xmlns:xlink="http://www.w3.org/1999/xlink" viewBox="0 0 576 416" width="576" height="416"><path d="M 373.838,155.577 C 373.039,149.182 371.103,148.702 372.240,142.787" stroke-width="8.533" stroke="black" fill="none" stroke-linecap="round"></path><path d="M 372.240,142.787 C 373.100,138.309 375.021,138.778 377.833,134.793" stroke-width="6.346" stroke="black" fill="none" stroke-linecap="round"></path><path d="M 377.833,134.793 C 379.815,131.984 381.216,128.993 381.828,129.197" stroke-width="6.390" stroke="black" fill="none" stroke-linecap="round"></path><path d="M 381.828,129.197 C 382.414,129.392 381.663,132.644 380.230,135.592" stroke-width="7.079" stroke="black" fill="none" stroke-linecap="round"></path><path d="M 380.230,135.592 C 374.472,147.433 374.010,147.281 367.446,158.775" stroke-width="4.500" stroke="black" fill="none" stroke-linecap="round"></path><path d="M 367.446,158.775 C 359.628,172.463 359.736,172.544 351.466,185.954" stroke-width="4.500" stroke="black" fill="none" stroke-linecap="round"></path><path d="M 351.466,185.954 C 348.151,191.330 347.847,191.134 344.275,196.347" stroke-width="4.500" stroke="black" fill="none" stroke-linecap="round"></path><path d="M 344.275,196.347 C 338.259,205.124 336.709,209.196 332.290,213.934" stroke-width="4.500" stroke="black" fill="none" stroke-linecap="round"></path><path d="M 332.290,213.934 C 331.116,215.192 332.139,210.977 333.089,208.338" stroke-width="6.117" stroke="black" fill="none" stroke-linecap="round"></path><path d="M 333.089,208.338 C 335.734,200.985 336.032,201.021 339.481,193.948" stroke-width="4.917" stroke="black" fill="none" stroke-linecap="round"></path><path d="M 339.481,193.948 C 344.022,184.634 344.251,184.743 349.069,175.562" stroke-width="4.500" stroke="black" fill="none" stroke-linecap="round"></path><path d="M 349.069,175.562 C 352.641,168.755 352.507,168.677 356.260,161.972" stroke-width="4.616" stroke="black" fill="none" stroke-linecap="round"></path><path d="M 356.260,161.972 C 358.100,158.684 361.520,154.542 360.255,155.577" stroke-width="5.573" stroke="black" fill="none" stroke-linecap="round"></path><path d="M 360.255,155.577 C 357.125,158.139 353.270,161.880 347.471,169.167" stroke-width="5.738" stroke="black" fill="none" stroke-linecap="round"></path><path d="M 347.471,169.167 C 336.092,183.464 336.673,183.948 325.898,198.745" stroke-width="4.500" stroke="black" fill="none" stroke-linecap="round"></path><path d="M 325.898,198.745 C 316.298,211.927 316.689,212.234 306.722,225.125" stroke-width="4.500" stroke="black" fill="none" stroke-linecap="round"></path><path d="M 306.722,225.125 C 300.310,233.418 300.457,233.791 293.139,241.113" stroke-width="4.500" stroke="black" fill="none" stroke-linecap="round"></path><path d="M 293.139,241.113 C 291.269,242.984 288.089,245.218 288.345,243.511" stroke-width="5.540" stroke="black" fill="none" stroke-linecap="round"></path><path d="M 288.345,243.511 C 289.287,237.224 291.445,234.098 295.536,225.125" stroke-width="5.603" stroke="black" fill="none" stroke-linecap="round"></path><path d="M 295.536,225.125 C 301.832,211.315 302.327,211.535 309.119,197.945" stroke-width="4.500" stroke="black" fill="none" stroke-linecap="round"></path><path d="M 309.119,197.945 C 315.111,185.954 314.915,185.851 321.104,173.963" stroke-width="4.500" stroke="black" fill="none" stroke-linecap="round"></path><path d="M 321.104,173.963 C 324.903,166.665 325.823,167.012 329.094,159.574" stroke-width="4.500" stroke="black" fill="none" stroke-linecap="round"></path><path d="M 329.094,159.574 C 330.217,157.020 331.322,152.774 329.893,153.978" stroke-width="5.717" stroke="black" fill="none" stroke-linecap="round"></path><path d="M 329.893,153.978 C 323.732,159.169 321.850,163.126 313.913,172.365" stroke-width="5.377" stroke="black" fill="none" stroke-linecap="round"></path><path d="M 313.913,172.365 C 302.275,185.909 302.342,185.967 290.742,199.544" stroke-width="4.500" stroke="black" fill="none" stroke-linecap="round"></path><path d="M 290.742,199.544 C 281.168,210.749 281.444,211.004 271.566,221.928" stroke-width="4.500" stroke="black" fill="none" stroke-linecap="round"></path><path d="M 271.566,221.928 C 266.263,227.792 265.053,231.074 260.380,233.119" stroke-width="4.500" stroke="black" fill="none" stroke-linecap="round"></path><path d="M 260.380,233.119 C 258.661,233.871 257.992,230.210 258.782,227.523" stroke-width="6.087" stroke="black" fill="none" stroke-linecap="round"></path><path d="M 258.782,227.523 C 261.987,216.620 263.230,216.566 268.370,205.939" stroke-width="4.500" stroke="black" fill="none" stroke-linecap="round"></path><path d="M 268.370,205.939 C 275.215,191.785 275.178,191.737 282.752,177.960" stroke-width="4.500" stroke="black" fill="none" stroke-linecap="round"></path><path d="M 282.752,177.960 C 288.362,167.755 289.110,168.161 294.737,157.975" stroke-width="4.500" stroke="black" fill="none" stroke-linecap="round"></path><path d="M 294.737,157.975 C 297.500,152.973 299.531,149.976 299.531,147.583" stroke-width="4.743" stroke="black" fill="none" stroke-linecap="round"></path><path d="M 299.531,147.583 C 299.531,146.378 296.629,148.641 294.737,150.781" stroke-width="5.974" stroke="black" fill="none" stroke-linecap="round"></path><path d="M 294.737,150.781 C 287.440,159.033 287.745,159.425 281.154,168.367" stroke-width="4.500" stroke="black" fill="none" stroke-linecap="round"></path><path d="M 281.154,168.367 C 264.175,191.401 263.898,191.220 247.596,214.733" stroke-width="4.500" stroke="black" fill="none" stroke-linecap="round"></path><path d="M 247.596,214.733 C 233.136,235.587 233.956,236.153 219.630,257.101" stroke-width="4.500" stroke="black" fill="none" stroke-linecap="round"></path><path d="M 219.630,257.101 C 207.989,274.125 208.176,274.301 195.660,290.676" stroke-width="4.500" stroke="black" fill="none" stroke-linecap="round"></path><path d="M 195.660,290.676 C 187.402,301.481 187.664,302.194 178.082,311.461" stroke-width="4.500" stroke="black" fill="none" stroke-linecap="round"></path><path d="M 178.082,311.461 C 175.679,313.785 174.773,314.065 171.690,313.859" stroke-width="4.911" stroke="black" fill="none" stroke-linecap="round"></path><path d="M 171.690,313.859 C 168.781,313.665 166.926,313.460 166.097,310.661" stroke-width="5.876" stroke="black" fill="none" stroke-linecap="round"></path><path d="M 166.097,310.661 C 163.730,302.668 164.688,301.432 165.298,292.275" stroke-width="4.694" stroke="black" fill="none" stroke-linecap="round"></path><path d="M 165.298,292.275 C 166.686,271.454 166.507,271.287 170.092,250.706" stroke-width="4.500" stroke="black" fill="none" stroke-linecap="round"></path><path d="M 170.092,250.706 C 174.097,227.720 174.236,227.629 180.479,205.140" stroke-width="4.500" stroke="black" fill="none" stroke-linecap="round"></path><path d="M 180.479,205.140 C 186.221,184.461 186.459,184.445 194.062,164.370" stroke-width="4.500" stroke="black" fill="none" stroke-linecap="round"></path><path d="M 194.062,164.370 C 200.841,146.474 200.952,146.443 209.243,129.197" stroke-width="4.500" stroke="black" fill="none" stroke-linecap="round"></path><path d="M 209.243,129.197 C 216.133,114.867 215.897,114.592 224.425,101.218" stroke-width="4.500" stroke="black" fill="none" stroke-linecap="round"></path><path d="M 224.425,101.218 C 230.678,91.410 230.297,90.372 238.806,82.831" stroke-width="4.500" stroke="black" fill="none" stroke-linecap="round"></path><path d="M 238.806,82.831 C 244.279,77.981 245.593,76.649 252.390,76.436" stroke-width="4.500" stroke="black" fill="none" stroke-linecap="round"></path><path d="M 252.390,76.436 C 258.377,76.249 259.316,78.121 264.375,82.032" stroke-width="4.810" stroke="black" fill="none" stroke-linecap="round"></path><path d="M 264.375,82.032 C 268.105,84.916 267.431,85.863 269.968,90.026" stroke-width="5.412" stroke="black" fill="none" stroke-linecap="round"></path><path d="M 269.968,90.026 C 277.418,102.251 277.542,102.207 284.350,114.807" stroke-width="4.500" stroke="black" fill="none" stroke-linecap="round"></path><path d="M 284.350,114.807 C 293.522,131.785 292.561,132.314 301.928,149.182" stroke-width="4.500" stroke="black" fill="none" stroke-linecap="round"></path><path d="M 301.928,149.182 C 312.536,168.287 312.684,168.237 324.300,186.754" stroke-width="4.500" stroke="black" fill="none" stroke-linecap="round"></path><path d="M 324.300,186.754 C 336.254,205.809 336.422,205.718 349.069,224.326" stroke-width="4.500" stroke="black" fill="none" stroke-linecap="round"></path><path d="M 349.069,224.326 C 363.588,245.688 363.850,245.510 378.632,266.694" stroke-width="4.500" stroke="black" fill="none" stroke-linecap="round"></path></svg>