<svg xmlns="http://www.w3.org/2000/svg" xmlns:xlink="http://www.w3.org/1999/xlink" viewBox="0 0 576 416" width="576" height="416"><path d="M 70.217,78.435 C 64.225,84.830 63.440,84.224 58.232,91.225" stroke-width="6.506" stroke="black" fill="none" stroke-linecap="round"></path><path d="M 58.232,91.225 C 50.656,101.411 51.031,101.780 44.649,112.809" stroke-width="4.500" stroke="black" fill="none" stroke-linecap="round"></path><path d="M 44.649,112.809 C 37.848,124.563 37.426,124.428 31.865,136.791" stroke-width="4.500" stroke="black" fill="none" stroke-linecap="round"></path><path d="M 31.865,136.791 C 26.639,148.411 26.546,148.522 23.076,160.773" stroke-width="4.500" stroke="black" fill="none" stroke-linecap="round"></path><path d="M 23.076,160.773 C 19.754,172.504 20.157,172.695 18.282,184.756" stroke-width="4.500" stroke="black" fill="none" stroke-linecap="round"></path><path d="M 18.282,184.756 C 17.361,190.682 17.483,190.743 17.483,196.747" stroke-width="4.689" stroke="black" fill="none" stroke-linecap="round"></path><path d="M 17.483,196.747 C 17.483,211.927 17.350,211.972 18.282,227.124" stroke-width="4.500" stroke="black" fill="none" stroke-linecap="round"></path><path d="M 18.282,227.124 C 18.948,237.952 18.362,238.169 20.679,248.708" stroke-width="4.500" stroke="black" fill="none" stroke-linecap="round"></path><path d="M 20.679,248.708 C 22.756,258.154 22.848,258.421 27.071,267.094" stroke-width="4.500" stroke="black" fill="none" stroke-linecap="round"></path><path d="M 27.071,267.094 C 30.438,274.009 30.482,274.504 35.860,279.885" stroke-width="4.500" stroke="black" fill="none" stroke-linecap="round"></path><path d="M 35.860,279.885 C 40.469,284.496 40.978,284.776 47.046,287.079" stroke-width="4.870" stroke="black" fill="none" stroke-linecap="round"></path><path d="M 47.046,287.079 C 52.563,289.173 53.121,288.914 59.031,288.678" stroke-width="5.136" stroke="black" fill="none" stroke-linecap="round"></path><path d="M 59.031,288.678 C 63.109,288.515 63.227,287.967 67.021,286.280" stroke-width="5.735" stroke="black" fill="none" stroke-linecap="round"></path><path d="M 67.021,286.280 C 74.013,283.171 73.839,282.730 80.604,279.085" stroke-width="4.990" stroke="black" fill="none" stroke-linecap="round"></path><path d="M 80.604,279.085 C 84.226,277.134 84.200,277.087 87.795,275.088" stroke-width="5.697" stroke="black" fill="none" stroke-linecap="round"></path><path d="M 101.378,223.127 C 100.979,217.931 100.097,217.806 100.579,212.735" stroke-width="8.345" stroke="black" fill="none" stroke-linecap="round"></path><path d="M 100.579,212.735 C 100.896,209.412 101.227,209.183 102.976,206.339" stroke-width="6.898" stroke="black" fill="none" stroke-linecap="round"></path><path d="M 102.976,206.339 C 104.423,203.987 104.678,202.519 106.971,202.342" stroke-width="6.797" stroke="black" fill="none" stroke-linecap="round"></path><path d="M 106.971,202.342 C 109.872,202.119 111.034,203.043 113.363,205.540" stroke-width="7.232" stroke="black" fill="none" stroke-linecap="round"></path><path d="M 113.363,205.540 C 116.627,209.039 116.637,209.618 118.157,214.333" stroke-width="6.058" stroke="black" fill="none" stroke-linecap="round"></path><path d="M 118.157,214.333 C 120.632,222.009 120.102,222.272 121.353,230.322" stroke-width="4.953" stroke="black" fill="none" stroke-linecap="round"></path><path d="M 121.353,230.322 C 122.898,240.259 122.933,240.283 123.750,250.307" stroke-width="4.500" stroke="black" fill="none" stroke-linecap="round"></path><path d="M 123.750,250.307 C 124.531,259.869 124.114,259.901 124.549,269.492" stroke-width="4.500" stroke="black" fill="none" stroke-linecap="round"></path><path d="M 124.549,269.492 C 124.913,277.488 125.132,277.482 125.348,285.480" stroke-width="4.516" stroke="black" fill="none" stroke-linecap="round"></path><path d="M 125.348,285.480 C 125.532,292.271 125.097,292.288 125.348,299.070" stroke-width="4.845" stroke="black" fill="none" stroke-linecap="round"></path><path d="M 125.348,299.070 C 125.497,303.080 125.748,303.067 126.147,307.064" stroke-width="5.667" stroke="black" fill="none" stroke-linecap="round"></path><path d="M 139.730,146.384 C 142.127,151.580 142.586,151.406 144.524,156.776" stroke-width="8.389" stroke="black" fill="none" stroke-linecap="round"></path><path d="M 144.524,156.776 C 147.779,165.795 148.001,165.810 150.117,175.163" stroke-width="4.964" stroke="black" fill="none" stroke-linecap="round"></path><path d="M 150.117,175.163 C 152.795,186.994 152.533,187.099 154.112,199.145" stroke-width="4.500" stroke="black" fill="none" stroke-linecap="round"></path><path d="M 154.112,199.145 C 155.729,211.481 155.668,211.512 156.509,223.926" stroke-width="4.500" stroke="black" fill="none" stroke-linecap="round"></path><path d="M 156.509,223.926 C 157.266,235.094 157.308,235.119 157.308,246.310" stroke-width="4.500" stroke="black" fill="none" stroke-linecap="round"></path><path d="M 157.308,246.310 C 157.308,255.904 157.090,255.916 156.509,265.495" stroke-width="4.500" stroke="black" fill="none" stroke-linecap="round"></path><path d="M 156.509,265.495 C 156.291,269.106 156.053,269.087 155.710,272.690" stroke-width="5.478" stroke="black" fill="none" stroke-linecap="round"></path><path d="M 155.710,272.690 C 155.254,277.481 153.630,284.452 154.911,282.283" stroke-width="5.576" stroke="black" fill="none" stroke-linecap="round"></path><path d="M 154.911,282.283 C 158.824,275.659 160.555,268.714 166.097,255.103" stroke-width="6.071" stroke="black" fill="none" stroke-linecap="round"></path><path d="M 166.097,255.103 C 169.344,247.130 168.834,246.887 172.489,239.115" stroke-width="4.742" stroke="black" fill="none" stroke-linecap="round"></path><path d="M 172.489,239.115 C 175.226,233.297 175.371,233.309 178.881,227.923" stroke-width="4.909" stroke="black" fill="none" stroke-linecap="round"></path><path d="M 178.881,227.923 C 181.363,224.116 181.204,223.749 184.474,220.729" stroke-width="5.610" stroke="black" fill="none" stroke-linecap="round"></path><path d="M 184.474,220.729 C 186.398,218.952 187.535,217.385 189.268,218.331" stroke-width="6.419" stroke="black" fill="none" stroke-linecap="round"></path><path d="M 189.268,218.331 C 191.930,219.783 191.927,221.680 193.263,225.525" stroke-width="7.003" stroke="black" fill="none" stroke-linecap="round"></path><path d="M 193.263,225.525 C 195.123,230.873 194.907,231.060 195.660,236.717" stroke-width="5.674" stroke="black" fill="none" stroke-linecap="round"></path><path d="M 195.660,236.717 C 196.505,243.051 196.047,243.113 196.459,249.507" stroke-width="5.283" stroke="black" fill="none" stroke-linecap="round"></path><path d="M 196.459,249.507 C 196.846,255.504 197.058,255.496 197.258,261.498" stroke-width="5.276" stroke="black" fill="none" stroke-linecap="round"></path><path d="M 197.258,261.498 C 197.458,267.487 197.258,267.494 197.258,273.489" stroke-width="5.277" stroke="black" fill="none" stroke-linecap="round"></path><path d="M 232.415,204.741 C 228.020,210.736 227.591,210.467 223.625,216.732" stroke-width="7.928" stroke="black" fill="none" stroke-linecap="round"></path><path d="M 223.625,216.732 C 220.001,222.458 219.643,222.419 217.233,228.723" stroke-width="5.625" stroke="black" fill="none" stroke-linecap="round"></path><path d="M 217.233,228.723 C 214.449,236.009 214.895,236.244 213.238,243.911" stroke-width="4.927" stroke="black" fill="none" stroke-linecap="round"></path><path d="M 213.238,243.911 C 211.699,251.033 211.499,251.061 210.841,258.301" stroke-width="4.868" stroke="black" fill="none" stroke-linecap="round"></path><path d="M 210.841,258.301 C 210.301,264.251 210.135,264.400 210.841,270.292" stroke-width="5.148" stroke="black" fill="none" stroke-linecap="round"></path><path d="M 210.841,270.292 C 211.333,274.392 210.870,278.116 213.238,278.286" stroke-width="5.739" stroke="black" fill="none" stroke-linecap="round"></path><path d="M 213.238,278.286 C 216.463,278.516 218.801,275.574 222.027,271.091" stroke-width="6.753" stroke="black" fill="none" stroke-linecap="round"></path><path d="M 222.027,271.091 C 225.992,265.581 225.241,264.848 227.620,258.301" stroke-width="5.261" stroke="black" fill="none" stroke-linecap="round"></path><path d="M 227.620,258.301 C 230.035,251.658 229.419,251.442 231.615,244.711" stroke-width="5.010" stroke="black" fill="none" stroke-linecap="round"></path><path d="M 231.615,244.711 C 235.811,231.857 236.131,231.958 240.405,219.130" stroke-width="4.500" stroke="black" fill="none" stroke-linecap="round"></path><path d="M 240.405,219.130 C 241.324,216.370 241.329,212.591 242.003,213.534" stroke-width="5.642" stroke="black" fill="none" stroke-linecap="round"></path><path d="M 242.003,213.534 C 243.327,215.389 243.490,219.082 244.400,224.726" stroke-width="6.942" stroke="black" fill="none" stroke-linecap="round"></path><path d="M 244.400,224.726 C 245.487,231.473 245.175,231.524 245.998,238.316" stroke-width="5.447" stroke="black" fill="none" stroke-linecap="round"></path><path d="M 245.998,238.316 C 246.773,244.714 246.744,244.718 247.596,251.106" stroke-width="5.213" stroke="black" fill="none" stroke-linecap="round"></path><path d="M 247.596,251.106 C 248.342,256.709 248.265,256.724 249.194,262.298" stroke-width="5.346" stroke="black" fill="none" stroke-linecap="round"></path><path d="M 249.194,262.298 C 249.863,266.317 250.063,266.282 250.792,270.292" stroke-width="5.913" stroke="black" fill="none" stroke-linecap="round"></path><path d="M 281.154,139.989 C 280.754,147.184 280.539,147.178 280.355,154.378" stroke-width="7.945" stroke="black" fill="none" stroke-linecap="round"></path><path d="M 280.355,154.378 C 280.140,162.766 280.155,162.777 280.355,171.166" stroke-width="5.199" stroke="black" fill="none" stroke-linecap="round"></path><path d="M 280.355,171.166 C 280.554,179.564 280.744,179.560 281.154,187.953" stroke-width="4.709" stroke="black" fill="none" stroke-linecap="round"></path><path d="M 281.154,187.953 C 281.543,195.948 281.250,195.976 281.953,203.941" stroke-width="4.657" stroke="black" fill="none" stroke-linecap="round"></path><path d="M 281.953,203.941 C 282.449,209.566 282.583,209.568 283.551,215.133" stroke-width="5.157" stroke="black" fill="none" stroke-linecap="round"></path><path d="M 283.551,215.133 C 284.181,218.761 283.017,220.621 285.149,222.328" stroke-width="5.894" stroke="black" fill="none" stroke-linecap="round"></path><path d="M 285.149,222.328 C 287.012,223.819 288.641,220.612 291.541,221.528" stroke-width="7.338" stroke="black" fill="none" stroke-linecap="round"></path><path d="M 291.541,221.528 C 296.231,223.010 296.627,223.667 300.330,227.124" stroke-width="7.084" stroke="black" fill="none" stroke-linecap="round"></path><path d="M 300.330,227.124 C 302.620,229.262 302.088,229.842 303.526,232.720" stroke-width="6.684" stroke="black" fill="none" stroke-linecap="round"></path><path d="M 303.526,232.720 C 304.884,235.438 304.564,235.597 305.923,238.316" stroke-width="6.713" stroke="black" fill="none" stroke-linecap="round"></path><path d="M 305.923,238.316 C 307.361,241.193 307.115,241.461 309.119,243.911" stroke-width="6.502" stroke="black" fill="none" stroke-linecap="round"></path><path d="M 309.119,243.911 C 310.710,245.857 311.086,245.549 313.114,247.109" stroke-width="6.788" stroke="black" fill="none" stroke-linecap="round"></path><path d="M 349.069,186.354 C 346.672,190.751 346.217,190.553 344.275,195.148" stroke-width="8.044" stroke="black" fill="none" stroke-linecap="round"></path><path d="M 344.275,195.148 C 341.823,200.946 341.904,201.044 340.280,207.139" stroke-width="5.784" stroke="black" fill="none" stroke-linecap="round"></path><path d="M 340.280,207.139 C 338.708,213.035 338.716,213.085 337.883,219.130" stroke-width="5.388" stroke="black" fill="none" stroke-linecap="round"></path><path d="M 337.883,219.130 C 337.118,224.676 337.084,224.730 337.084,230.322" stroke-width="5.412" stroke="black" fill="none" stroke-linecap="round"></path><path d="M 337.084,230.322 C 337.084,234.722 336.888,234.887 337.883,239.115" stroke-width="5.760" stroke="black" fill="none" stroke-linecap="round"></path><path d="M 337.883,239.115 C 338.486,241.682 338.540,244.409 340.280,243.911" stroke-width="6.477" stroke="black" fill="none" stroke-linecap="round"></path><path d="M 340.280,243.911 C 344.133,242.810 345.034,240.224 349.069,235.917" stroke-width="6.611" stroke="black" fill="none" stroke-linecap="round"></path><path d="M 349.069,235.917 C 351.026,233.828 350.982,233.688 352.265,231.121" stroke-width="6.754" stroke="black" fill="none" stroke-linecap="round"></path><path d="M 352.265,231.121 C 354.577,226.493 352.987,224.803 356.260,221.528" stroke-width="6.817" stroke="black" fill="none" stroke-linecap="round"></path><path d="M 356.260,221.528 C 358.580,219.207 359.817,220.384 363.451,219.929" stroke-width="7.781" stroke="black" fill="none" stroke-linecap="round"></path><path d="M 363.451,219.929 C 366.209,219.584 366.247,219.929 369.044,219.929" stroke-width="7.046" stroke="black" fill="none" stroke-linecap="round"></path><path d="M 443.351,109.612 C 440.554,102.817 441.290,102.383 437.758,96.022" stroke-width="7.683" stroke="black" fill="none" stroke-linecap="round"></path><path d="M 437.758,96.022 C 435.298,91.591 435.327,91.047 431.366,88.028" stroke-width="6.110" stroke="black" fill="none" stroke-linecap="round"></path><path d="M 431.366,88.028 C 426.938,84.652 426.426,84.644 420.979,83.231" stroke-width="5.580" stroke="black" fill="none" stroke-linecap="round"></path><path d="M 420.979,83.231 C 415.639,81.846 415.314,82.007 409.793,82.432" stroke-width="5.469" stroke="black" fill="none" stroke-linecap="round"></path><path d="M 409.793,82.432 C 404.927,82.806 404.672,82.843 400.205,84.830" stroke-width="5.623" stroke="black" fill="none" stroke-linecap="round"></path><path d="M 400.205,84.830 C 393.886,87.640 393.713,87.837 388.220,92.025" stroke-width="5.126" stroke="black" fill="none" stroke-linecap="round"></path><path d="M 388.220,92.025 C 385.324,94.232 385.104,94.392 383.426,97.621" stroke-width="5.810" stroke="black" fill="none" stroke-linecap="round"></path><path d="M 383.426,97.621 C 379.910,104.385 379.207,104.548 377.833,112.010" stroke-width="4.999" stroke="black" fill="none" stroke-linecap="round"></path><path d="M 377.833,112.010 C 376.410,119.737 376.713,120.154 377.833,127.998" stroke-width="4.741" stroke="black" fill="none" stroke-linecap="round"></path><path d="M 377.833,127.998 C 379.110,136.941 378.619,137.564 382.627,145.585" stroke-width="4.500" stroke="black" fill="none" stroke-linecap="round"></path><path d="M 382.627,145.585 C 387.408,155.151 387.063,156.578 395.411,163.172" stroke-width="4.500" stroke="black" fill="none" stroke-linecap="round"></path><path d="M 395.411,163.172 C 409.834,174.564 411.579,172.770 428.170,181.558" stroke-width="4.500" stroke="black" fill="none" stroke-linecap="round"></path><path d="M 428.170,181.558 C 438.745,187.160 439.361,186.044 449.743,191.950" stroke-width="4.500" stroke="black" fill="none" stroke-linecap="round"></path><path d="M 449.743,191.950 C 459.736,197.635 460.122,197.407 468.919,204.741" stroke-width="4.500" stroke="black" fill="none" stroke-linecap="round"></path><path d="M 468.919,204.741 C 476.901,211.396 478.178,211.173 483.301,219.929" stroke-width="4.500" stroke="black" fill="none" stroke-linecap="round"></path><path d="M 483.301,219.929 C 487.766,227.560 487.620,228.717 488.095,237.516" stroke-width="4.500" stroke="black" fill="none" stroke-linecap="round"></path><path d="M 488.095,237.516 C 488.419,243.506 488.118,244.354 484.899,249.507" stroke-width="4.835" stroke="black" fill="none" stroke-linecap="round"></path><path d="M 484.899,249.507 C 478.130,260.343 477.576,260.649 468.120,269.492" stroke-width="4.500" stroke="black" fill="none" stroke-linecap="round"></path><path d="M 468.120,269.492 C 459.199,277.836 458.855,278.077 448.145,283.882" stroke-width="4.500" stroke="black" fill="none" stroke-linecap="round"></path><path d="M 448.145,283.882 C 439.679,288.469 439.163,288.590 429.768,290.277" stroke-width="4.500" stroke="black" fill="none" stroke-linecap="round"></path><path d="M 429.768,290.277 C 423.583,291.388 422.551,291.705 416.984,289.477" stroke-width="4.824" stroke="black" fill="none" stroke-linecap="round"></path><path d="M 416.984,289.477 C 412.563,287.708 411.258,286.680 409.793,282.283" stroke-width="5.279" stroke="black" fill="none" stroke-linecap="round"></path><path d="M 409.793,282.283 C 408.062,277.087 409.114,275.995 410.592,270.292" stroke-width="5.275" stroke="black" fill="none" stroke-linecap="round"></path><path d="M 410.592,270.292 C 411.910,265.203 412.581,265.259 415.386,260.699" stroke-width="5.443" stroke="black" fill="none" stroke-linecap="round"></path><path d="M 415.386,260.699 C 422.169,249.670 422.001,249.476 429.768,239.115" stroke-width="4.500" stroke="black" fill="none" stroke-linecap="round"></path><path d="M 429.768,239.115 C 437.582,228.691 438.170,229.133 446.547,219.130" stroke-width="4.500" stroke="black" fill="none" stroke-linecap="round"></path><path d="M 446.547,219.130 C 450.555,214.344 450.301,214.118 454.537,209.537" stroke-width="4.684" stroke="black" fill="none" stroke-linecap="round"></path><path d="M 454.537,209.537 C 465.083,198.130 465.259,198.282 476.110,187.154" stroke-width="4.500" stroke="black" fill="none" stroke-linecap="round"></path><path d="M 476.110,187.154 C 481.239,181.894 481.442,182.086 486.497,176.762" stroke-width="4.500" stroke="black" fill="none" stroke-linecap="round"></path><path d="M 486.497,176.762 C 489.032,174.091 490.819,171.637 491.291,171.166" stroke-width="5.514" stroke="black" fill="none" stroke-linecap="round"></path><path d="M 491.291,171.166 C 491.618,170.838 487.915,175.343 488.095,175.163" stroke-width="7.244" stroke="black" fill="none" stroke-linecap="round"></path><path d="M 488.095,175.163 C 488.314,174.943 490.036,172.715 492.090,170.366" stroke-width="7.492" stroke="black" fill="none" stroke-linecap="round"></path><path d="M 492.090,170.366 C 495.629,166.320 495.592,166.280 499.281,162.372" stroke-width="5.988" stroke="black" fill="none" stroke-linecap="round"></path><path d="M 499.281,162.372 C 502.383,159.086 504.040,155.977 505.673,155.977" stroke-width="5.908" stroke="black" fill="none" stroke-linecap="round"></path><path d="M 505.673,155.977 C 506.837,155.977 506.122,159.517 504.874,162.372" stroke-width="7.226" stroke="black" fill="none" stroke-linecap="round"></path><path d="M 150.916,391.002 C 168.894,378.611 168.654,378.249 186.871,366.220" stroke-width="5.260" stroke="black" fill="none" stroke-linecap="round"></path><path d="M 186.871,366.220 C 208.604,351.869 208.578,351.793 230.816,338.241" stroke-width="4.500" stroke="black" fill="none" stroke-linecap="round"></path><path d="M 230.816,338.241 C 252.523,325.013 253.017,325.828 274.762,312.660" stroke-width="4.500" stroke="black" fill="none" stroke-linecap="round"></path><path d="M 274.762,312.660 C 298.560,298.248 297.968,297.258 321.903,283.082" stroke-width="4.500" stroke="black" fill="none" stroke-linecap="round"></path><path d="M 321.903,283.082 C 347.906,267.681 348.117,268.014 374.637,253.504" stroke-width="4.500" stroke="black" fill="none" stroke-linecap="round"></path><path d="M 374.637,253.504 C 399.253,240.035 399.357,240.221 424.175,227.124" stroke-width="4.500" stroke="black" fill="none" stroke-linecap="round"></path><path d="M 424.175,227.124 C 435.712,221.036 435.548,220.688 447.346,215.133" stroke-width="4.500" stroke="black" fill="none" stroke-linecap="round"></path><path d="M 447.346,215.133 C 469.506,204.699 469.426,204.424 492.090,195.148" stroke-width="4.500" stroke="black" fill="none" stroke-linecap="round"></path><path d="M 492.090,195.148 C 513.371,186.438 542.538,175.898 535.236,179.160" stroke-width="4.500" stroke="black" fill="none" stroke-linecap="round"></path></svg>