<svg xmlns="http://www.w3.org/2000/svg" xmlns:xlink="http://www.w3.org/1999/xlink" viewBox="0 0 576 416" width="576" height="416"><path d="M 349.069,196.347 C 321.503,195.947 321.501,196.074 293.938,195.547" stroke-width="6.890" stroke="black" fill="none" stroke-linecap="round"></path><path d="M 293.938,195.547 C 258.779,194.875 258.781,194.771 223.625,193.948" stroke-width="4.500" stroke="black" fill="none" stroke-linecap="round"></path><path d="M 223.625,193.948 C 190.466,193.172 190.471,192.770 157.308,192.350" stroke-width="4.500" stroke="black" fill="none" stroke-linecap="round"></path><path d="M 157.308,192.350 C 127.350,191.970 127.343,192.110 97.383,192.350" stroke-width="4.500" stroke="black" fill="none" stroke-linecap="round"></path><path d="M 97.383,192.350 C 77.406,192.509 77.409,192.832 57.433,193.149" stroke-width="4.500" stroke="black" fill="none" stroke-linecap="round"></path><path d="M 57.433,193.149 C 52.241,193.231 52.240,193.149 47.046,193.149" stroke-width="4.500" stroke="black" fill="none" stroke-linecap="round"></path><path d="M 47.046,193.149 C 44.250,193.149 39.474,193.265 41.453,193.149" stroke-width="5.538" stroke="black" fill="none" stroke-linecap="round"></path><path d="M 41.453,193.149 C 53.057,192.466 57.818,191.831 74.212,191.550" stroke-width="4.779" stroke="black" fill="none" stroke-linecap="round"></path><path d="M 74.212,191.550 C 127.731,190.632 127.760,190.095 181.278,190.751" stroke-width="4.500" stroke="black" fill="none" stroke-linecap="round"></path><path d="M 181.278,190.751 C 225.638,191.294 225.700,191.167 269.968,193.948" stroke-width="4.500" stroke="black" fill="none" stroke-linecap="round"></path><path d="M 269.968,193.948 C 308.396,196.363 308.387,196.934 346.672,201.143" stroke-width="4.500" stroke="black" fill="none" stroke-linecap="round"></path><path d="M 346.672,201.143 C 381.097,204.928 381.053,205.356 415.386,209.936" stroke-width="4.500" stroke="black" fill="none" stroke-linecap="round"></path><path d="M 415.386,209.936 C 440.978,213.351 440.972,213.408 466.522,217.131" stroke-width="4.500" stroke="black" fill="none" stroke-linecap="round"></path><path d="M 466.522,217.131 C 482.121,219.404 482.096,219.574 497.683,221.928" stroke-width="4.500" stroke="black" fill="none" stroke-linecap="round"></path><path d="M 497.683,221.928 C 503.269,222.771 511.672,223.827 508.869,223.526" stroke-width="4.500" stroke="black" fill="none" stroke-linecap="round"></path><path d="M 508.869,223.526 C 500.486,222.628 491.895,222.672 475.311,219.529" stroke-width="4.919" stroke="black" fill="none" stroke-linecap="round"></path><path d="M 475.311,219.529 C 439.161,212.679 439.236,212.038 403.401,203.541" stroke-width="4.500" stroke="black" fill="none" stroke-linecap="round"></path><path d="M 403.401,203.541 C 370.123,195.651 370.192,195.342 337.084,186.754" stroke-width="4.500" stroke="black" fill="none" stroke-linecap="round"></path><path d="M 337.084,186.754 C 305.473,178.554 305.488,178.491 273.963,169.966" stroke-width="4.500" stroke="black" fill="none" stroke-linecap="round"></path><path d="M 273.963,169.966 C 246.362,162.503 245.868,163.874 218.832,154.778" stroke-width="4.500" stroke="black" fill="none" stroke-linecap="round"></path><path d="M 218.832,154.778 C 200.725,148.686 200.218,148.814 183.675,139.589" stroke-width="4.500" stroke="black" fill="none" stroke-linecap="round"></path><path d="M 183.675,139.589 C 175.849,135.224 174.989,134.702 170.092,127.598" stroke-width="4.500" stroke="black" fill="none" stroke-linecap="round"></path><path d="M 170.092,127.598 C 166.999,123.110 165.077,120.542 167.695,116.406" stroke-width="4.659" stroke="black" fill="none" stroke-linecap="round"></path><path d="M 167.695,116.406 C 172.668,108.551 175.454,108.011 185.273,103.616" stroke-width="5.211" stroke="black" fill="none" stroke-linecap="round"></path><path d="M 185.273,103.616 C 205.817,94.421 206.587,95.524 228.419,89.227" stroke-width="4.500" stroke="black" fill="none" stroke-linecap="round"></path><path d="M 228.419,89.227 C 250.932,82.733 250.943,82.278 273.963,78.035" stroke-width="4.500" stroke="black" fill="none" stroke-linecap="round"></path><path d="M 273.963,78.035 C 296.486,73.884 296.683,74.722 319.506,72.439" stroke-width="4.500" stroke="black" fill="none" stroke-linecap="round"></path><path d="M 319.506,72.439 C 340.628,70.326 340.653,70.144 361.853,69.241" stroke-width="4.500" stroke="black" fill="none" stroke-linecap="round"></path><path d="M 361.853,69.241 C 378.206,68.545 378.239,68.977 394.612,69.241" stroke-width="4.500" stroke="black" fill="none" stroke-linecap="round"></path><path d="M 394.612,69.241 C 403.008,69.377 403.394,68.386 411.391,70.041" stroke-width="4.500" stroke="black" fill="none" stroke-linecap="round"></path><path d="M 411.391,70.041 C 414.980,70.784 416.274,71.018 417.783,74.038" stroke-width="5.269" stroke="black" fill="none" stroke-linecap="round"></path><path d="M 417.783,74.038 C 419.869,78.213 419.586,79.407 418.582,84.430" stroke-width="6.307" stroke="black" fill="none" stroke-linecap="round"></path><path d="M 418.582,84.430 C 416.390,95.395 416.619,96.014 411.391,106.014" stroke-width="4.500" stroke="black" fill="none" stroke-linecap="round"></path><path d="M 411.391,106.014 C 403.036,121.995 403.151,122.663 391.416,136.391" stroke-width="4.500" stroke="black" fill="none" stroke-linecap="round"></path><path d="M 391.416,136.391 C 377.183,153.041 376.512,152.891 359.456,166.769" stroke-width="4.500" stroke="black" fill="none" stroke-linecap="round"></path><path d="M 359.456,166.769 C 340.158,182.469 339.391,181.618 318.707,195.547" stroke-width="4.500" stroke="black" fill="none" stroke-linecap="round"></path><path d="M 318.707,195.547 C 297.843,209.597 297.451,209.011 276.360,222.727" stroke-width="4.500" stroke="black" fill="none" stroke-linecap="round"></path><path d="M 276.360,222.727 C 257.501,234.991 256.758,234.038 238.806,247.508" stroke-width="4.500" stroke="black" fill="none" stroke-linecap="round"></path><path d="M 238.806,247.508 C 224.798,258.020 223.988,257.722 212.439,270.691" stroke-width="4.500" stroke="black" fill="none" stroke-linecap="round"></path><path d="M 212.439,270.691 C 204.413,279.705 203.750,280.324 199.655,291.476" stroke-width="4.500" stroke="black" fill="none" stroke-linecap="round"></path><path d="M 199.655,291.476 C 196.559,299.910 197.229,301.016 198.057,309.862" stroke-width="4.500" stroke="black" fill="none" stroke-linecap="round"></path><path d="M 198.057,309.862 C 198.427,313.806 199.175,314.177 202.052,317.057" stroke-width="5.237" stroke="black" fill="none" stroke-linecap="round"></path><path d="M 202.052,317.057 C 212.358,327.368 212.058,328.465 224.425,336.242" stroke-width="4.500" stroke="black" fill="none" stroke-linecap="round"></path><path d="M 224.425,336.242 C 240.023,346.052 240.685,345.589 257.983,352.230" stroke-width="4.500" stroke="black" fill="none" stroke-linecap="round"></path><path d="M 257.983,352.230 C 275.042,358.780 275.374,358.179 293.139,362.622" stroke-width="4.500" stroke="black" fill="none" stroke-linecap="round"></path><path d="M 293.139,362.622 C 308.932,366.573 309.078,366.041 325.099,369.018" stroke-width="4.500" stroke="black" fill="none" stroke-linecap="round"></path><path d="M 325.099,369.018 C 337.043,371.237 337.076,371.062 349.069,373.015" stroke-width="4.500" stroke="black" fill="none" stroke-linecap="round"></path><circle r="3" cx="331.4906921386719" cy="338.64044189453125" fill="black"></circle></svg>