<svg xmlns="http://www.w3.org/2000/svg" xmlns:xlink="http://www.w3.org/1999/xlink" viewBox="0 0 576 416" width="576" height="416"><path d="M 85.398,391.401 C 85.798,380.209 85.386,380.179 86.197,369.018" stroke-width="7.477" stroke="black" fill="none" stroke-linecap="round"></path><path d="M 86.197,369.018 C 86.984,358.196 87.377,358.224 88.594,347.434" stroke-width="4.603" stroke="black" fill="none" stroke-linecap="round"></path><path d="M 88.594,347.434 C 90.173,333.442 90.447,333.469 91.790,319.455" stroke-width="4.500" stroke="black" fill="none" stroke-linecap="round"></path><path d="M 91.790,319.455 C 93.244,304.291 92.634,304.230 94.187,289.077" stroke-width="4.500" stroke="black" fill="none" stroke-linecap="round"></path><path d="M 94.187,289.077 C 95.830,273.053 96.160,273.086 98.182,257.101" stroke-width="4.500" stroke="black" fill="none" stroke-linecap="round"></path><path d="M 98.182,257.101 C 100.155,241.510 100.394,241.537 102.177,225.924" stroke-width="4.500" stroke="black" fill="none" stroke-linecap="round"></path><path d="M 102.177,225.924 C 103.590,213.558 103.541,213.547 104.574,201.143" stroke-width="4.500" stroke="black" fill="none" stroke-linecap="round"></path><path d="M 104.574,201.143 C 105.139,194.361 105.101,194.352 105.373,187.553" stroke-width="4.500" stroke="black" fill="none" stroke-linecap="round"></path><path d="M 105.373,187.553 C 105.501,184.359 105.875,180.028 105.373,181.158" stroke-width="6.192" stroke="black" fill="none" stroke-linecap="round"></path><path d="M 105.373,181.158 C 104.277,183.625 103.639,187.923 102.177,194.748" stroke-width="6.428" stroke="black" fill="none" stroke-linecap="round"></path><path d="M 102.177,194.748 C 100.043,204.711 99.549,204.650 98.182,214.733" stroke-width="4.594" stroke="black" fill="none" stroke-linecap="round"></path><path d="M 98.182,214.733 C 96.353,228.232 96.610,228.300 95.785,241.913" stroke-width="4.500" stroke="black" fill="none" stroke-linecap="round"></path><path d="M 95.785,241.913 C 95.012,254.681 94.780,254.714 94.986,267.494" stroke-width="4.500" stroke="black" fill="none" stroke-linecap="round"></path><path d="M 94.986,267.494 C 95.180,279.495 95.259,279.546 96.584,291.476" stroke-width="4.500" stroke="black" fill="none" stroke-linecap="round"></path><path d="M 96.584,291.476 C 97.656,301.130 97.700,301.179 99.780,310.661" stroke-width="4.500" stroke="black" fill="none" stroke-linecap="round"></path><path d="M 99.780,310.661 C 101.295,317.567 100.966,317.863 103.775,324.251" stroke-width="4.610" stroke="black" fill="none" stroke-linecap="round"></path><path d="M 103.775,324.251 C 105.360,327.856 105.514,328.765 108.569,330.646" stroke-width="5.637" stroke="black" fill="none" stroke-linecap="round"></path><path d="M 108.569,330.646 C 110.707,331.963 112.122,332.059 114.162,330.646" stroke-width="6.322" stroke="black" fill="none" stroke-linecap="round"></path><path d="M 114.162,330.646 C 117.316,328.462 117.109,327.344 118.956,323.452" stroke-width="6.068" stroke="black" fill="none" stroke-linecap="round"></path><path d="M 118.956,323.452 C 124.699,311.356 124.652,311.250 129.343,298.670" stroke-width="4.500" stroke="black" fill="none" stroke-linecap="round"></path><path d="M 129.343,298.670 C 134.639,284.470 134.327,284.341 138.931,269.892" stroke-width="4.500" stroke="black" fill="none" stroke-linecap="round"></path><path d="M 138.931,269.892 C 143.116,256.762 142.920,256.700 146.921,243.511" stroke-width="4.500" stroke="black" fill="none" stroke-linecap="round"></path><path d="M 146.921,243.511 C 149.711,234.316 149.242,234.129 152.514,225.125" stroke-width="4.500" stroke="black" fill="none" stroke-linecap="round"></path><path d="M 152.514,225.125 C 154.036,220.938 155.717,216.021 156.509,217.131" stroke-width="5.110" stroke="black" fill="none" stroke-linecap="round"></path><path d="M 156.509,217.131 C 157.714,218.819 157.016,223.959 156.509,230.721" stroke-width="6.361" stroke="black" fill="none" stroke-linecap="round"></path><path d="M 156.509,230.721 C 155.818,239.947 155.372,239.922 154.112,249.107" stroke-width="4.767" stroke="black" fill="none" stroke-linecap="round"></path><path d="M 154.112,249.107 C 152.576,260.307 152.141,260.258 150.916,271.491" stroke-width="4.500" stroke="black" fill="none" stroke-linecap="round"></path><path d="M 150.916,271.491 C 149.744,282.242 149.759,282.269 149.318,293.074" stroke-width="4.500" stroke="black" fill="none" stroke-linecap="round"></path><path d="M 149.318,293.074 C 148.960,301.855 148.880,301.892 149.318,310.661" stroke-width="4.500" stroke="black" fill="none" stroke-linecap="round"></path><path d="M 149.318,310.661 C 149.679,317.880 149.606,317.968 150.916,325.051" stroke-width="4.664" stroke="black" fill="none" stroke-linecap="round"></path><path d="M 150.916,325.051 C 151.603,328.760 151.136,331.882 153.313,332.245" stroke-width="5.656" stroke="black" fill="none" stroke-linecap="round"></path><path d="M 153.313,332.245 C 155.930,332.682 158.269,330.424 160.504,326.649" stroke-width="6.594" stroke="black" fill="none" stroke-linecap="round"></path><path d="M 160.504,326.649 C 164.661,319.632 163.250,318.637 166.097,310.661" stroke-width="4.981" stroke="black" fill="none" stroke-linecap="round"></path><path d="M 166.097,310.661 C 169.243,301.850 169.330,301.881 172.489,293.074" stroke-width="4.500" stroke="black" fill="none" stroke-linecap="round"></path><path d="M 172.489,293.074 C 174.923,286.292 174.782,286.240 177.283,279.485" stroke-width="4.744" stroke="black" fill="none" stroke-linecap="round"></path><path d="M 177.283,279.485 C 178.777,275.448 178.652,272.176 180.479,271.491" stroke-width="5.543" stroke="black" fill="none" stroke-linecap="round"></path><path d="M 180.479,271.491 C 181.848,270.977 183.305,273.999 183.675,277.086" stroke-width="7.056" stroke="black" fill="none" stroke-linecap="round"></path><path d="M 183.675,277.086 C 184.504,283.991 183.265,284.280 182.876,291.476" stroke-width="5.370" stroke="black" fill="none" stroke-linecap="round"></path><path d="M 182.876,291.476 C 182.466,299.069 182.077,299.072 182.077,306.664" stroke-width="4.920" stroke="black" fill="none" stroke-linecap="round"></path><path d="M 182.077,306.664 C 182.077,313.061 182.218,313.087 182.876,319.455" stroke-width="5.066" stroke="black" fill="none" stroke-linecap="round"></path><path d="M 182.876,319.455 C 183.417,324.679 182.595,325.147 184.474,329.847" stroke-width="5.403" stroke="black" fill="none" stroke-linecap="round"></path><path d="M 184.474,329.847 C 185.791,333.141 186.210,334.295 189.268,335.443" stroke-width="6.055" stroke="black" fill="none" stroke-linecap="round"></path><path d="M 189.268,335.443 C 192.602,336.693 194.029,336.720 197.258,334.643" stroke-width="6.011" stroke="black" fill="none" stroke-linecap="round"></path><path d="M 197.258,334.643 C 205.215,329.526 205.655,328.838 211.640,321.054" stroke-width="4.583" stroke="black" fill="none" stroke-linecap="round"></path><path d="M 211.640,321.054 C 221.635,308.054 220.758,307.258 229.218,293.074" stroke-width="4.500" stroke="black" fill="none" stroke-linecap="round"></path><path d="M 229.218,293.074 C 235.540,282.477 235.257,282.308 241.203,271.491" stroke-width="4.500" stroke="black" fill="none" stroke-linecap="round"></path><path d="M 241.203,271.491 C 244.046,266.320 246.797,259.949 246.797,261.098" stroke-width="4.641" stroke="black" fill="none" stroke-linecap="round"></path><path d="M 246.797,261.098 C 246.797,262.747 244.010,269.096 241.203,277.086" stroke-width="6.181" stroke="black" fill="none" stroke-linecap="round"></path><path d="M 241.203,277.086 C 238.816,283.885 238.751,283.862 236.410,290.676" stroke-width="5.202" stroke="black" fill="none" stroke-linecap="round"></path><path d="M 236.410,290.676 C 234.356,296.653 234.271,296.629 232.415,302.667" stroke-width="5.174" stroke="black" fill="none" stroke-linecap="round"></path><path d="M 232.415,302.667 C 231.075,307.021 230.261,307.070 230.017,311.461" stroke-width="5.635" stroke="black" fill="none" stroke-linecap="round"></path><path d="M 230.017,311.461 C 229.862,314.264 229.706,316.910 231.615,317.057" stroke-width="6.929" stroke="black" fill="none" stroke-linecap="round"></path><path d="M 231.615,317.057 C 234.900,317.309 236.484,315.325 240.405,312.260" stroke-width="5.992" stroke="black" fill="none" stroke-linecap="round"></path><path d="M 240.405,312.260 C 249.268,305.332 248.967,304.848 257.184,297.071" stroke-width="4.500" stroke="black" fill="none" stroke-linecap="round"></path><path d="M 257.184,297.071 C 263.749,290.858 263.576,290.676 269.968,284.281" stroke-width="4.500" stroke="black" fill="none" stroke-linecap="round"></path><path d="M 269.968,284.281 C 274.362,279.884 273.795,278.884 278.757,275.488" stroke-width="4.988" stroke="black" fill="none" stroke-linecap="round"></path><path d="M 278.757,275.488 C 281.386,273.688 284.949,271.691 285.149,273.889" stroke-width="6.517" stroke="black" fill="none" stroke-linecap="round"></path><path d="M 285.149,273.889 C 285.748,280.485 282.915,283.526 280.355,293.074" stroke-width="5.915" stroke="black" fill="none" stroke-linecap="round"></path><path d="M 280.355,293.074 C 278.521,299.914 278.304,299.854 276.360,306.664" stroke-width="5.173" stroke="black" fill="none" stroke-linecap="round"></path><path d="M 276.360,306.664 C 275.108,311.046 271.618,316.128 273.963,315.458" stroke-width="5.709" stroke="black" fill="none" stroke-linecap="round"></path><path d="M 273.963,315.458 C 280.008,313.730 284.666,309.914 293.139,301.868" stroke-width="5.992" stroke="black" fill="none" stroke-linecap="round"></path><path d="M 293.139,301.868 C 308.236,287.531 307.144,286.300 321.104,270.691" stroke-width="4.500" stroke="black" fill="none" stroke-linecap="round"></path><path d="M 321.104,270.691 C 334.311,255.923 334.338,255.947 347.471,241.113" stroke-width="4.500" stroke="black" fill="none" stroke-linecap="round"></path><path d="M 347.471,241.113 C 359.107,227.968 358.827,227.713 370.642,214.733" stroke-width="4.500" stroke="black" fill="none" stroke-linecap="round"></path><path d="M 370.642,214.733 C 379.201,205.329 379.766,205.830 388.220,196.347" stroke-width="4.500" stroke="black" fill="none" stroke-linecap="round"></path><path d="M 388.220,196.347 C 392.949,191.041 398.528,186.865 397.009,185.155" stroke-width="4.500" stroke="black" fill="none" stroke-linecap="round"></path><path d="M 397.009,185.155 C 395.332,183.268 388.692,185.483 381.828,189.152" stroke-width="5.821" stroke="black" fill="none" stroke-linecap="round"></path><path d="M 381.828,189.152 C 359.529,201.071 359.630,201.837 338.682,216.332" stroke-width="4.500" stroke="black" fill="none" stroke-linecap="round"></path><path d="M 338.682,216.332 C 316.883,231.415 317.101,231.808 296.335,248.308" stroke-width="4.500" stroke="black" fill="none" stroke-linecap="round"></path><path d="M 296.335,248.308 C 276.352,264.184 277.029,265.030 257.184,281.083" stroke-width="4.500" stroke="black" fill="none" stroke-linecap="round"></path><path d="M 257.184,281.083 C 239.476,295.407 240.086,296.410 221.228,309.063" stroke-width="4.500" stroke="black" fill="none" stroke-linecap="round"></path><path d="M 221.228,309.063 C 206.129,319.193 205.913,319.479 189.268,326.649" stroke-width="4.500" stroke="black" fill="none" stroke-linecap="round"></path><path d="M 189.268,326.649 C 177.149,331.870 176.627,332.710 163.700,333.844" stroke-width="4.500" stroke="black" fill="none" stroke-linecap="round"></path><path d="M 163.700,333.844 C 153.855,334.708 152.803,333.869 143.725,330.646" stroke-width="4.500" stroke="black" fill="none" stroke-linecap="round"></path><path d="M 143.725,330.646 C 140.419,329.472 140.374,328.388 138.931,325.051" stroke-width="5.233" stroke="black" fill="none" stroke-linecap="round"></path><path d="M 138.931,325.051 C 133.982,313.600 132.972,313.425 130.941,301.068" stroke-width="4.500" stroke="black" fill="none" stroke-linecap="round"></path><path d="M 130.941,301.068 C 128.178,284.247 128.772,283.841 129.343,266.694" stroke-width="4.500" stroke="black" fill="none" stroke-linecap="round"></path><path d="M 129.343,266.694 C 129.971,247.867 130.205,247.707 133.338,229.122" stroke-width="4.500" stroke="black" fill="none" stroke-linecap="round"></path><path d="M 133.338,229.122 C 135.798,214.532 135.932,214.384 140.529,200.344" stroke-width="4.500" stroke="black" fill="none" stroke-linecap="round"></path><path d="M 140.529,200.344 C 143.523,191.201 143.525,190.807 148.519,182.757" stroke-width="4.500" stroke="black" fill="none" stroke-linecap="round"></path><path d="M 148.519,182.757 C 150.716,179.216 151.482,178.141 154.911,177.161" stroke-width="5.129" stroke="black" fill="none" stroke-linecap="round"></path><path d="M 154.911,177.161 C 157.075,176.542 157.908,177.761 159.705,179.559" stroke-width="6.219" stroke="black" fill="none" stroke-linecap="round"></path><path d="M 159.705,179.559 C 161.503,181.358 161.108,181.868 162.102,184.356" stroke-width="6.642" stroke="black" fill="none" stroke-linecap="round"></path><path d="M 162.102,184.356 C 165.902,193.859 165.597,193.987 169.293,203.541" stroke-width="4.615" stroke="black" fill="none" stroke-linecap="round"></path><path d="M 169.293,203.541 C 175.185,218.769 175.115,218.800 181.278,233.919" stroke-width="4.500" stroke="black" fill="none" stroke-linecap="round"></path><path d="M 181.278,233.919 C 187.499,249.177 186.936,249.458 194.062,264.296" stroke-width="4.500" stroke="black" fill="none" stroke-linecap="round"></path><path d="M 194.062,264.296 C 201.718,280.235 201.414,280.538 210.841,295.473" stroke-width="4.500" stroke="black" fill="none" stroke-linecap="round"></path><path d="M 210.841,295.473 C 220.590,310.915 220.668,311.069 232.415,325.051" stroke-width="4.500" stroke="black" fill="none" stroke-linecap="round"></path><path d="M 232.415,325.051 C 243.839,338.649 243.661,339.169 257.184,350.631" stroke-width="4.500" stroke="black" fill="none" stroke-linecap="round"></path><path d="M 257.184,350.631 C 272.425,363.551 273.563,362.223 289.943,373.814" stroke-width="4.500" stroke="black" fill="none" stroke-linecap="round"></path></svg>