<svg xmlns="http://www.w3.org/2000/svg" xmlns:xlink="http://www.w3.org/1999/xlink" viewBox="0 0 576 416" width="576" height="416"><path d="M 350.667,84.830 C 352.265,98.820 355.592,99.144 353.863,112.809" stroke-width="7.730" stroke="black" fill="none" stroke-linecap="round"></path><path d="M 353.863,112.809 C 351.597,130.720 349.122,130.716 342.677,147.983" stroke-width="4.500" stroke="black" fill="none" stroke-linecap="round"></path><path d="M 342.677,147.983 C 336.738,163.892 336.094,163.666 329.094,179.160" stroke-width="4.500" stroke="black" fill="none" stroke-linecap="round"></path><path d="M 329.094,179.160 C 322.911,192.844 322.772,192.783 316.310,206.339" stroke-width="4.500" stroke="black" fill="none" stroke-linecap="round"></path><path d="M 316.310,206.339 C 310.387,218.764 310.223,218.686 304.325,231.121" stroke-width="4.500" stroke="black" fill="none" stroke-linecap="round"></path><path d="M 304.325,231.121 C 299.037,242.268 300.183,242.947 293.938,253.504" stroke-width="4.500" stroke="black" fill="none" stroke-linecap="round"></path><path d="M 293.938,253.504 C 288.597,262.532 288.623,263.032 281.154,270.292" stroke-width="4.500" stroke="black" fill="none" stroke-linecap="round"></path><path d="M 281.154,270.292 C 274.641,276.622 274.363,277.886 265.973,280.684" stroke-width="4.500" stroke="black" fill="none" stroke-linecap="round"></path><path d="M 265.973,280.684 C 257.584,283.482 256.315,282.979 247.596,281.483" stroke-width="4.500" stroke="black" fill="none" stroke-linecap="round"></path><path d="M 247.596,281.483 C 242.333,280.581 242.093,279.553 238.008,275.888" stroke-width="5.032" stroke="black" fill="none" stroke-linecap="round"></path><path d="M 238.008,275.888 C 230.508,269.160 229.790,269.215 224.425,260.699" stroke-width="4.529" stroke="black" fill="none" stroke-linecap="round"></path><path d="M 224.425,260.699 C 218.205,250.828 218.313,250.321 214.836,239.115" stroke-width="4.500" stroke="black" fill="none" stroke-linecap="round"></path><path d="M 214.836,239.115 C 211.121,227.139 211.476,226.833 210.042,214.333" stroke-width="4.500" stroke="black" fill="none" stroke-linecap="round"></path><path d="M 210.042,214.333 C 208.680,202.451 208.616,202.284 209.243,190.351" stroke-width="4.500" stroke="black" fill="none" stroke-linecap="round"></path><path d="M 209.243,190.351 C 209.814,179.501 210.176,179.411 212.439,168.767" stroke-width="4.500" stroke="black" fill="none" stroke-linecap="round"></path><path d="M 212.439,168.767 C 214.171,160.625 214.745,160.745 217.233,152.779" stroke-width="4.500" stroke="black" fill="none" stroke-linecap="round"></path><path d="M 217.233,152.779 C 220.738,141.559 221.173,141.687 224.425,130.396" stroke-width="4.500" stroke="black" fill="none" stroke-linecap="round"></path><path d="M 224.425,130.396 C 227.964,118.105 228.153,118.118 230.816,105.615" stroke-width="4.500" stroke="black" fill="none" stroke-linecap="round"></path><path d="M 230.816,105.615 C 233.347,93.736 233.180,93.673 234.811,81.633" stroke-width="4.500" stroke="black" fill="none" stroke-linecap="round"></path><path d="M 234.811,81.633 C 236.376,70.090 236.575,70.070 237.208,58.450" stroke-width="4.500" stroke="black" fill="none" stroke-linecap="round"></path><path d="M 237.208,58.450 C 237.773,48.087 236.978,48.051 237.208,37.665" stroke-width="4.500" stroke="black" fill="none" stroke-linecap="round"></path><path d="M 237.208,37.665 C 237.377,30.065 237.425,30.053 238.008,22.477" stroke-width="4.500" stroke="black" fill="none" stroke-linecap="round"></path><path d="M 238.008,22.477 C 238.224,19.661 236.808,18.080 238.806,16.881" stroke-width="5.867" stroke="black" fill="none" stroke-linecap="round"></path><path d="M 238.806,16.881 C 242.801,14.483 245.109,13.099 249.993,15.282" stroke-width="5.537" stroke="black" fill="none" stroke-linecap="round"></path><path d="M 249.993,15.282 C 263.885,21.493 264.282,23.125 276.360,33.668" stroke-width="4.500" stroke="black" fill="none" stroke-linecap="round"></path><path d="M 276.360,33.668 C 305.031,58.698 304.960,59.049 331.491,86.429" stroke-width="4.500" stroke="black" fill="none" stroke-linecap="round"></path><path d="M 331.491,86.429 C 355.697,111.410 355.525,111.691 377.833,138.390" stroke-width="4.500" stroke="black" fill="none" stroke-linecap="round"></path><path d="M 377.833,138.390 C 398.271,162.852 397.699,163.352 416.984,188.753" stroke-width="4.500" stroke="black" fill="none" stroke-linecap="round"></path><path d="M 416.984,188.753 C 429.259,204.921 428.925,205.173 440.954,221.528" stroke-width="4.500" stroke="black" fill="none" stroke-linecap="round"></path><path d="M 440.954,221.528 C 444.505,226.357 450.230,232.878 448.145,231.121" stroke-width="4.500" stroke="black" fill="none" stroke-linecap="round"></path><path d="M 448.145,231.121 C 442.640,226.483 437.175,219.707 425.773,208.738" stroke-width="4.900" stroke="black" fill="none" stroke-linecap="round"></path><path d="M 425.773,208.738 C 406.014,189.729 406.695,188.897 385.823,171.166" stroke-width="4.500" stroke="black" fill="none" stroke-linecap="round"></path><path d="M 385.823,171.166 C 364.348,152.923 364.302,152.741 341.079,136.791" stroke-width="4.500" stroke="black" fill="none" stroke-linecap="round"></path><path d="M 341.079,136.791 C 317.161,120.365 317.129,120.054 291.541,106.414" stroke-width="4.500" stroke="black" fill="none" stroke-linecap="round"></path><path d="M 291.541,106.414 C 268.390,94.073 268.185,93.915 243.601,84.830" stroke-width="4.500" stroke="black" fill="none" stroke-linecap="round"></path><path d="M 243.601,84.830 C 223.840,77.528 223.529,77.358 202.851,73.638" stroke-width="4.500" stroke="black" fill="none" stroke-linecap="round"></path><path d="M 202.851,73.638 C 187.974,70.962 187.112,69.916 172.489,72.040" stroke-width="4.500" stroke="black" fill="none" stroke-linecap="round"></path><path d="M 172.489,72.040 C 162.343,73.513 160.380,73.977 153.313,80.833" stroke-width="4.500" stroke="black" fill="none" stroke-linecap="round"></path><path d="M 153.313,80.833 C 147.196,86.768 147.636,89.041 146.122,97.621" stroke-width="4.500" stroke="black" fill="none" stroke-linecap="round"></path><path d="M 146.122,97.621 C 145.239,102.631 146.720,103.003 148.519,108.013" stroke-width="4.963" stroke="black" fill="none" stroke-linecap="round"></path><path d="M 148.519,108.013 C 155.908,128.584 154.953,129.140 164.499,148.782" stroke-width="4.500" stroke="black" fill="none" stroke-linecap="round"></path><path d="M 164.499,148.782 C 176.127,172.708 177.125,172.301 190.866,195.148" stroke-width="4.500" stroke="black" fill="none" stroke-linecap="round"></path><path d="M 190.866,195.148 C 204.291,217.467 204.810,217.157 218.832,239.115" stroke-width="4.500" stroke="black" fill="none" stroke-linecap="round"></path><path d="M 218.832,239.115 C 232.375,260.324 232.243,260.411 245.998,281.483" stroke-width="4.500" stroke="black" fill="none" stroke-linecap="round"></path><path d="M 245.998,281.483 C 257.811,299.582 257.983,299.470 269.968,317.457" stroke-width="4.500" stroke="black" fill="none" stroke-linecap="round"></path><circle r="3" cx="110.16729736328125" cy="200.74359130859375" fill="black"></circle></svg>