<svg xmlns="http://www.w3.org/2000/svg" xmlns:xlink="http://www.w3.org/1999/xlink" viewBox="0 0 576 416" width="576" height="416"><path d="M 40.654,32.469 C 38.257,39.264 37.520,39.138 35.860,46.059" stroke-width="8.391" stroke="black" fill="none" stroke-linecap="round"></path><path d="M 35.860,46.059 C 35.123,49.130 35.860,49.256 35.860,52.454" stroke-width="6.915" stroke="black" fill="none" stroke-linecap="round"></path><path d="M 35.860,52.454 C 35.860,55.652 35.595,55.668 35.860,58.849" stroke-width="6.568" stroke="black" fill="none" stroke-linecap="round"></path><path d="M 35.860,58.849 C 36.394,65.261 36.293,65.309 37.458,71.640" stroke-width="5.373" stroke="black" fill="none" stroke-linecap="round"></path><path d="M 37.458,71.640 C 39.089,80.497 38.990,80.600 41.453,89.227" stroke-width="4.627" stroke="black" fill="none" stroke-linecap="round"></path><path d="M 41.453,89.227 C 42.186,91.791 41.979,92.338 43.850,94.023" stroke-width="6.425" stroke="black" fill="none" stroke-linecap="round"></path><path d="M 43.850,94.023 C 45.974,95.935 47.143,97.504 49.443,96.421" stroke-width="7.181" stroke="black" fill="none" stroke-linecap="round"></path><path d="M 49.443,96.421 C 53.934,94.307 54.135,92.450 57.433,87.628" stroke-width="6.777" stroke="black" fill="none" stroke-linecap="round"></path><path d="M 57.433,87.628 C 59.329,84.856 58.632,84.430 59.830,81.233" stroke-width="6.523" stroke="black" fill="none" stroke-linecap="round"></path><path d="M 59.830,81.233 C 61.029,78.035 60.884,77.972 62.227,74.837" stroke-width="6.451" stroke="black" fill="none" stroke-linecap="round"></path><path d="M 62.227,74.837 C 63.281,72.376 63.570,72.502 64.624,70.041" stroke-width="6.651" stroke="black" fill="none" stroke-linecap="round"></path><path d="M 64.624,70.041 C 65.967,66.906 65.310,63.474 67.021,63.646" stroke-width="7.169" stroke="black" fill="none" stroke-linecap="round"></path><path d="M 67.021,63.646 C 69.305,63.874 69.882,67.195 72.614,70.840" stroke-width="7.641" stroke="black" fill="none" stroke-linecap="round"></path><path d="M 72.614,70.840 C 74.676,73.590 74.488,73.735 76.609,76.436" stroke-width="6.734" stroke="black" fill="none" stroke-linecap="round"></path><path d="M 76.609,76.436 C 78.883,79.331 78.716,79.550 81.403,82.032" stroke-width="6.409" stroke="black" fill="none" stroke-linecap="round"></path><path d="M 81.403,82.032 C 83.910,84.347 83.990,84.425 86.996,86.029" stroke-width="6.409" stroke="black" fill="none" stroke-linecap="round"></path><path d="M 86.996,86.029 C 89.982,87.622 90.081,87.843 93.388,88.427" stroke-width="6.417" stroke="black" fill="none" stroke-linecap="round"></path><path d="M 93.388,88.427 C 96.872,89.042 97.117,89.077 100.579,88.427" stroke-width="6.352" stroke="black" fill="none" stroke-linecap="round"></path><path d="M 100.579,88.427 C 103.509,87.878 103.582,87.584 106.172,86.029" stroke-width="6.542" stroke="black" fill="none" stroke-linecap="round"></path><path d="M 106.172,86.029 C 109.574,83.987 110.006,84.186 112.564,81.233" stroke-width="6.242" stroke="black" fill="none" stroke-linecap="round"></path><path d="M 112.564,81.233 C 115.199,78.191 115.043,77.831 116.559,74.038" stroke-width="6.117" stroke="black" fill="none" stroke-linecap="round"></path><path d="M 116.559,74.038 C 118.239,69.837 118.550,69.711 118.956,65.244" stroke-width="5.934" stroke="black" fill="none" stroke-linecap="round"></path><path d="M 118.956,65.244 C 119.349,60.917 118.911,60.788 118.157,56.451" stroke-width="5.927" stroke="black" fill="none" stroke-linecap="round"></path><path d="M 118.157,56.451 C 117.313,51.595 117.547,51.425 115.760,46.858" stroke-width="5.759" stroke="black" fill="none" stroke-linecap="round"></path><path d="M 115.760,46.858 C 113.951,42.232 113.906,42.056 110.966,38.065" stroke-width="5.692" stroke="black" fill="none" stroke-linecap="round"></path><path d="M 110.966,38.065 C 108.313,34.461 108.205,34.234 104.574,31.669" stroke-width="5.819" stroke="black" fill="none" stroke-linecap="round"></path><path d="M 104.574,31.669 C 101.414,29.437 100.859,30.302 97.383,28.472" stroke-width="6.048" stroke="black" fill="none" stroke-linecap="round"></path><path d="M 133.338,40.463 C 136.135,46.858 136.667,46.682 138.931,53.253" stroke-width="8.144" stroke="black" fill="none" stroke-linecap="round"></path><path d="M 138.931,53.253 C 140.662,58.274 140.550,58.387 141.328,63.646" stroke-width="6.120" stroke="black" fill="none" stroke-linecap="round"></path><path d="M 141.328,63.646 C 142.148,69.178 141.509,69.266 142.127,74.837" stroke-width="5.614" stroke="black" fill="none" stroke-linecap="round"></path><path d="M 142.127,74.837 C 142.707,80.058 143.046,80.018 143.725,85.230" stroke-width="5.577" stroke="black" fill="none" stroke-linecap="round"></path><path d="M 143.725,85.230 C 144.244,89.211 143.982,89.246 144.524,93.224" stroke-width="6.014" stroke="black" fill="none" stroke-linecap="round"></path><circle r="3" cx="141.32835388183594" cy="26.873077392578125" fill="black"></circle><path d="M 186.871,27.672 C 186.871,33.668 186.632,33.680 186.871,39.664" stroke-width="8.224" stroke="black" fill="none" stroke-linecap="round"></path><path d="M 186.871,39.664 C 187.032,43.672 187.337,43.655 187.670,47.658" stroke-width="6.622" stroke="black" fill="none" stroke-linecap="round"></path><path d="M 187.670,47.658 C 188.136,53.248 187.946,53.265 188.469,58.849" stroke-width="5.733" stroke="black" fill="none" stroke-linecap="round"></path><path d="M 188.469,58.849 C 189.145,66.055 189.205,66.052 190.067,73.238" stroke-width="6.089" stroke="black" fill="none" stroke-linecap="round"></path><path d="M 190.067,73.238 C 190.404,76.044 191.042,80.412 190.866,78.834" stroke-width="6.540" stroke="black" fill="none" stroke-linecap="round"></path><path d="M 166.896,71.640 C 170.092,68.842 169.859,68.522 173.288,66.044" stroke-width="8.442" stroke="black" fill="none" stroke-linecap="round"></path><path d="M 173.288,66.044 C 177.050,63.326 177.317,63.701 181.278,61.247" stroke-width="6.412" stroke="black" fill="none" stroke-linecap="round"></path><path d="M 181.278,61.247 C 185.707,58.505 185.735,58.542 190.067,55.652" stroke-width="5.806" stroke="black" fill="none" stroke-linecap="round"></path><path d="M 190.067,55.652 C 194.124,52.946 194.105,52.912 198.057,50.056" stroke-width="5.745" stroke="black" fill="none" stroke-linecap="round"></path><path d="M 198.057,50.056 C 201.296,47.716 201.309,47.728 204.449,45.259" stroke-width="6.319" stroke="black" fill="none" stroke-linecap="round"></path><path d="M 204.449,45.259 C 206.902,43.331 207.253,43.616 209.243,41.262" stroke-width="6.427" stroke="black" fill="none" stroke-linecap="round"></path><path d="M 209.243,41.262 C 211.648,38.419 212.158,38.328 213.238,34.867" stroke-width="7.031" stroke="black" fill="none" stroke-linecap="round"></path><path d="M 213.238,34.867 C 214.155,31.932 214.201,28.664 213.238,28.472" stroke-width="7.379" stroke="black" fill="none" stroke-linecap="round"></path><path d="M 213.238,28.472 C 212.204,28.265 210.278,30.961 209.243,34.068" stroke-width="8.079" stroke="black" fill="none" stroke-linecap="round"></path><path d="M 209.243,34.068 C 208.281,36.957 209.243,37.265 209.243,40.463" stroke-width="6.936" stroke="black" fill="none" stroke-linecap="round"></path><path d="M 209.243,40.463 C 209.243,44.460 208.848,44.499 209.243,48.457" stroke-width="6.345" stroke="black" fill="none" stroke-linecap="round"></path><path d="M 209.243,48.457 C 209.647,52.493 210.238,52.425 210.841,56.451" stroke-width="6.239" stroke="black" fill="none" stroke-linecap="round"></path><path d="M 210.841,56.451 C 211.436,60.419 211.015,60.484 211.640,64.445" stroke-width="6.149" stroke="black" fill="none" stroke-linecap="round"></path><path d="M 211.640,64.445 C 212.214,68.079 212.346,68.066 213.238,71.640" stroke-width="6.158" stroke="black" fill="none" stroke-linecap="round"></path><path d="M 213.238,71.640 C 213.944,74.461 214.228,74.397 214.836,77.236" stroke-width="6.531" stroke="black" fill="none" stroke-linecap="round"></path><path d="M 214.836,77.236 C 215.427,79.993 214.953,80.100 215.635,82.831" stroke-width="6.686" stroke="black" fill="none" stroke-linecap="round"></path><path d="M 215.635,82.831 C 216.551,86.495 216.060,89.149 218.032,90.026" stroke-width="7.143" stroke="black" fill="none" stroke-linecap="round"></path><path d="M 218.032,90.026 C 219.656,90.748 220.931,88.443 222.826,86.029" stroke-width="7.969" stroke="black" fill="none" stroke-linecap="round"></path><path d="M 222.826,86.029 C 225.326,82.847 224.592,82.281 226.822,78.834" stroke-width="7.479" stroke="black" fill="none" stroke-linecap="round"></path><path d="M 226.822,78.834 C 228.987,75.486 228.599,74.810 231.615,72.439" stroke-width="7.314" stroke="black" fill="none" stroke-linecap="round"></path><path d="M 231.615,72.439 C 234.192,70.414 234.794,71.189 238.008,70.041" stroke-width="7.440" stroke="black" fill="none" stroke-linecap="round"></path><path d="M 238.008,70.041 C 240.387,69.191 240.475,68.248 242.802,68.442" stroke-width="7.732" stroke="black" fill="none" stroke-linecap="round"></path><path d="M 242.802,68.442 C 245.269,68.648 245.781,69.025 247.596,70.840" stroke-width="8.005" stroke="black" fill="none" stroke-linecap="round"></path><path d="M 247.596,70.840 C 249.776,73.022 249.423,73.527 250.792,76.436" stroke-width="7.718" stroke="black" fill="none" stroke-linecap="round"></path><path d="M 250.792,76.436 C 252.619,80.322 252.557,80.376 253.988,84.430" stroke-width="7.302" stroke="black" fill="none" stroke-linecap="round"></path><path d="M 253.988,84.430 C 254.954,87.171 254.619,87.285 255.586,90.026" stroke-width="6.874" stroke="black" fill="none" stroke-linecap="round"></path><path d="M 75.011,147.583 C 71.016,144.385 71.434,143.395 67.021,141.188" stroke-width="8.435" stroke="black" fill="none" stroke-linecap="round"></path><path d="M 67.021,141.188 C 64.243,139.798 63.839,140.567 60.629,140.388" stroke-width="7.002" stroke="black" fill="none" stroke-linecap="round"></path><path d="M 60.629,140.388 C 56.648,140.167 56.608,140.043 52.639,140.388" stroke-width="6.362" stroke="black" fill="none" stroke-linecap="round"></path><path d="M 52.639,140.388 C 47.419,140.842 47.325,140.718 42.252,141.987" stroke-width="5.780" stroke="black" fill="none" stroke-linecap="round"></path><path d="M 42.252,141.987 C 37.737,143.116 37.714,143.271 33.463,145.185" stroke-width="5.798" stroke="black" fill="none" stroke-linecap="round"></path><path d="M 33.463,145.185 C 29.724,146.868 29.194,146.453 26.272,149.182" stroke-width="5.982" stroke="black" fill="none" stroke-linecap="round"></path><path d="M 26.272,149.182 C 23.202,152.049 22.218,152.676 21.478,156.376" stroke-width="6.714" stroke="black" fill="none" stroke-linecap="round"></path><path d="M 21.478,156.376 C 21.019,158.671 21.991,159.460 23.875,161.173" stroke-width="7.380" stroke="black" fill="none" stroke-linecap="round"></path><path d="M 23.875,161.173 C 26.386,163.457 26.865,163.362 30.267,164.370" stroke-width="6.617" stroke="black" fill="none" stroke-linecap="round"></path><path d="M 30.267,164.370 C 37.652,166.560 37.796,166.408 45.448,167.568" stroke-width="5.619" stroke="black" fill="none" stroke-linecap="round"></path><path d="M 45.448,167.568 C 50.980,168.407 51.104,167.548 56.634,168.367" stroke-width="5.386" stroke="black" fill="none" stroke-linecap="round"></path><path d="M 56.634,168.367 C 61.891,169.147 61.813,169.633 67.021,170.766" stroke-width="5.397" stroke="black" fill="none" stroke-linecap="round"></path><path d="M 67.021,170.766 C 71.002,171.631 71.035,171.480 75.011,172.365" stroke-width="5.860" stroke="black" fill="none" stroke-linecap="round"></path><path d="M 75.011,172.365 C 78.226,173.079 79.518,171.888 81.403,173.963" stroke-width="6.285" stroke="black" fill="none" stroke-linecap="round"></path><path d="M 81.403,173.963 C 83.513,176.285 84.583,178.425 83.001,181.158" stroke-width="7.048" stroke="black" fill="none" stroke-linecap="round"></path><path d="M 83.001,181.158 C 80.188,186.019 78.207,185.836 72.614,189.152" stroke-width="6.612" stroke="black" fill="none" stroke-linecap="round"></path><path d="M 72.614,189.152 C 67.421,192.231 67.050,191.621 61.428,193.948" stroke-width="5.592" stroke="black" fill="none" stroke-linecap="round"></path><path d="M 61.428,193.948 C 55.465,196.417 55.599,196.897 49.443,198.745" stroke-width="5.250" stroke="black" fill="none" stroke-linecap="round"></path><path d="M 49.443,198.745 C 43.614,200.494 43.466,200.030 37.458,201.143" stroke-width="5.240" stroke="black" fill="none" stroke-linecap="round"></path><path d="M 37.458,201.143 C 32.680,202.028 32.680,202.054 27.870,202.742" stroke-width="5.571" stroke="black" fill="none" stroke-linecap="round"></path><path d="M 27.870,202.742 C 24.290,203.254 24.259,203.030 20.679,203.541" stroke-width="6.070" stroke="black" fill="none" stroke-linecap="round"></path><path d="M 102.177,157.176 C 100.979,161.573 99.974,161.522 99.780,165.969" stroke-width="8.498" stroke="black" fill="none" stroke-linecap="round"></path><path d="M 99.780,165.969 C 99.574,170.715 99.522,171.229 101.378,175.562" stroke-width="7.390" stroke="black" fill="none" stroke-linecap="round"></path><path d="M 101.378,175.562 C 103.118,179.623 103.478,180.084 106.971,182.757" stroke-width="7.183" stroke="black" fill="none" stroke-linecap="round"></path><path d="M 106.971,182.757 C 110.270,185.280 111.023,185.708 114.961,185.954" stroke-width="7.182" stroke="black" fill="none" stroke-linecap="round"></path><path d="M 114.961,185.954 C 117.415,186.108 117.980,185.459 119.755,183.556" stroke-width="7.587" stroke="black" fill="none" stroke-linecap="round"></path><path d="M 119.755,183.556 C 123.573,179.464 123.388,178.983 126.147,173.963" stroke-width="6.959" stroke="black" fill="none" stroke-linecap="round"></path><path d="M 126.147,173.963 C 127.782,170.989 127.584,170.836 128.544,167.568" stroke-width="6.573" stroke="black" fill="none" stroke-linecap="round"></path><path d="M 128.544,167.568 C 129.581,164.041 129.688,164.009 130.142,160.373" stroke-width="6.364" stroke="black" fill="none" stroke-linecap="round"></path><path d="M 130.142,160.373 C 130.487,157.613 129.957,154.592 130.142,154.778" stroke-width="7.261" stroke="black" fill="none" stroke-linecap="round"></path><path d="M 130.142,154.778 C 130.356,154.992 130.229,158.039 130.941,161.173" stroke-width="7.907" stroke="black" fill="none" stroke-linecap="round"></path><path d="M 130.941,161.173 C 132.227,166.832 132.031,166.979 134.137,172.365" stroke-width="7.025" stroke="black" fill="none" stroke-linecap="round"></path><path d="M 134.137,172.365 C 135.627,176.172 135.723,176.272 138.132,179.559" stroke-width="6.324" stroke="black" fill="none" stroke-linecap="round"></path><path d="M 138.132,179.559 C 140.118,182.268 140.263,182.306 142.926,184.356" stroke-width="6.400" stroke="black" fill="none" stroke-linecap="round"></path><path d="M 142.926,184.356 C 145.457,186.303 145.540,186.488 148.519,187.553" stroke-width="6.558" stroke="black" fill="none" stroke-linecap="round"></path><path d="M 148.519,187.553 C 151.133,188.487 151.510,189.003 154.112,188.353" stroke-width="6.623" stroke="black" fill="none" stroke-linecap="round"></path><path d="M 154.112,188.353 C 157.902,187.405 158.385,187.067 161.303,184.356" stroke-width="7.047" stroke="black" fill="none" stroke-linecap="round"></path><path d="M 161.303,184.356 C 163.978,181.871 163.705,181.348 165.298,177.960" stroke-width="6.458" stroke="black" fill="none" stroke-linecap="round"></path><path d="M 165.298,177.960 C 166.901,174.553 166.878,174.447 167.695,170.766" stroke-width="6.292" stroke="black" fill="none" stroke-linecap="round"></path><path d="M 167.695,170.766 C 168.476,167.252 168.494,167.168 168.494,163.571" stroke-width="6.380" stroke="black" fill="none" stroke-linecap="round"></path><path d="M 168.494,163.571 C 168.494,159.974 168.118,159.971 167.695,156.376" stroke-width="6.251" stroke="black" fill="none" stroke-linecap="round"></path><path d="M 167.695,156.376 C 167.319,153.176 167.399,153.163 166.896,149.981" stroke-width="6.441" stroke="black" fill="none" stroke-linecap="round"></path><path d="M 166.896,149.981 C 166.200,145.569 165.298,140.820 165.298,141.188" stroke-width="6.906" stroke="black" fill="none" stroke-linecap="round"></path><path d="M 165.298,141.188 C 165.298,141.620 165.759,146.458 166.896,151.580" stroke-width="7.738" stroke="black" fill="none" stroke-linecap="round"></path><path d="M 166.896,151.580 C 168.156,157.250 168.494,157.176 170.092,162.772" stroke-width="5.889" stroke="black" fill="none" stroke-linecap="round"></path><path d="M 170.092,162.772 C 171.690,168.367 171.578,168.402 173.288,173.963" stroke-width="5.495" stroke="black" fill="none" stroke-linecap="round"></path><path d="M 173.288,173.963 C 174.774,178.794 175.033,178.717 176.484,183.556" stroke-width="5.680" stroke="black" fill="none" stroke-linecap="round"></path><path d="M 176.484,183.556 C 177.430,186.711 177.178,186.784 178.082,189.951" stroke-width="6.221" stroke="black" fill="none" stroke-linecap="round"></path><path d="M 178.082,189.951 C 178.776,192.380 178.987,195.095 179.680,194.748" stroke-width="6.641" stroke="black" fill="none" stroke-linecap="round"></path><path d="M 179.680,194.748 C 180.585,194.295 180.953,191.608 181.278,188.353" stroke-width="7.814" stroke="black" fill="none" stroke-linecap="round"></path><path d="M 181.278,188.353 C 181.752,183.614 180.637,183.462 181.278,178.760" stroke-width="7.240" stroke="black" fill="none" stroke-linecap="round"></path><path d="M 181.278,178.760 C 181.836,174.669 181.618,174.196 183.675,170.766" stroke-width="7.230" stroke="black" fill="none" stroke-linecap="round"></path><path d="M 183.675,170.766 C 185.214,168.200 185.694,167.879 188.469,166.769" stroke-width="7.488" stroke="black" fill="none" stroke-linecap="round"></path><path d="M 188.469,166.769 C 191.687,165.481 192.132,165.734 195.660,165.969" stroke-width="7.441" stroke="black" fill="none" stroke-linecap="round"></path><path d="M 195.660,165.969 C 198.125,166.134 198.969,165.896 200.454,167.568" stroke-width="7.732" stroke="black" fill="none" stroke-linecap="round"></path><path d="M 200.454,167.568 C 202.165,169.493 202.831,170.672 202.052,173.164" stroke-width="7.960" stroke="black" fill="none" stroke-linecap="round"></path><path d="M 202.052,173.164 C 200.833,177.067 199.648,177.169 196.459,180.359" stroke-width="7.336" stroke="black" fill="none" stroke-linecap="round"></path><path d="M 196.459,180.359 C 194.054,182.765 193.754,182.499 190.866,184.356" stroke-width="6.661" stroke="black" fill="none" stroke-linecap="round"></path><path d="M 190.866,184.356 C 188.161,186.096 188.236,186.368 185.273,187.553" stroke-width="6.566" stroke="black" fill="none" stroke-linecap="round"></path><path d="M 185.273,187.553 C 182.243,188.766 182.047,188.247 178.881,189.152" stroke-width="6.510" stroke="black" fill="none" stroke-linecap="round"></path><path d="M 178.881,189.152 C 176.454,189.846 176.484,189.951 174.087,190.751" stroke-width="6.804" stroke="black" fill="none" stroke-linecap="round"></path><path d="M 243.601,135.592 C 238.407,135.992 238.189,135.206 233.214,136.391" stroke-width="8.511" stroke="black" fill="none" stroke-linecap="round"></path><path d="M 233.214,136.391 C 229.800,137.205 229.332,137.305 226.822,139.589" stroke-width="7.729" stroke="black" fill="none" stroke-linecap="round"></path><path d="M 226.822,139.589 C 224.938,141.302 224.630,141.917 224.425,144.385" stroke-width="7.782" stroke="black" fill="none" stroke-linecap="round"></path><path d="M 224.425,144.385 C 224.231,146.713 224.424,147.583 226.022,149.182" stroke-width="8.031" stroke="black" fill="none" stroke-linecap="round"></path><path d="M 226.022,149.182 C 227.620,150.780 228.348,150.317 230.816,150.781" stroke-width="7.871" stroke="black" fill="none" stroke-linecap="round"></path><path d="M 230.816,150.781 C 234.740,151.517 234.848,150.955 238.806,151.580" stroke-width="7.532" stroke="black" fill="none" stroke-linecap="round"></path><path d="M 238.806,151.580 C 242.438,152.154 243.223,151.328 245.998,153.179" stroke-width="7.761" stroke="black" fill="none" stroke-linecap="round"></path><path d="M 245.998,153.179 C 248.017,154.526 248.924,155.857 248.395,157.975" stroke-width="8.241" stroke="black" fill="none" stroke-linecap="round"></path><path d="M 248.395,157.975 C 247.725,160.654 246.105,160.494 243.601,162.772" stroke-width="7.711" stroke="black" fill="none" stroke-linecap="round"></path><path d="M 243.601,162.772 C 241.711,164.491 241.752,164.603 239.605,165.969" stroke-width="7.205" stroke="black" fill="none" stroke-linecap="round"></path><path d="M 239.605,165.969 C 237.357,167.401 237.271,167.313 234.811,168.367" stroke-width="6.947" stroke="black" fill="none" stroke-linecap="round"></path><path d="M 234.811,168.367 C 231.678,169.711 231.588,169.498 228.419,170.766" stroke-width="6.487" stroke="black" fill="none" stroke-linecap="round"></path><path d="M 228.419,170.766 C 225.595,171.896 225.749,172.394 222.826,173.164" stroke-width="6.585" stroke="black" fill="none" stroke-linecap="round"></path><path d="M 273.963,125.200 C 270.367,129.596 269.330,129.106 266.772,133.993" stroke-width="8.576" stroke="black" fill="none" stroke-linecap="round"></path><path d="M 266.772,133.993 C 264.935,137.500 265.174,137.999 265.174,141.987" stroke-width="7.641" stroke="black" fill="none" stroke-linecap="round"></path><path d="M 265.174,141.987 C 265.174,145.593 264.916,146.211 266.772,149.182" stroke-width="7.440" stroke="black" fill="none" stroke-linecap="round"></path><path d="M 266.772,149.182 C 268.911,152.606 269.467,153.134 273.164,154.778" stroke-width="7.300" stroke="black" fill="none" stroke-linecap="round"></path><path d="M 273.164,154.778 C 276.658,156.331 277.455,156.502 281.154,155.577" stroke-width="7.582" stroke="black" fill="none" stroke-linecap="round"></path><path d="M 281.154,155.577 C 285.445,154.504 285.847,153.825 289.144,150.781" stroke-width="7.633" stroke="black" fill="none" stroke-linecap="round"></path><path d="M 289.144,150.781 C 291.040,149.029 290.512,148.453 291.541,145.984" stroke-width="7.752" stroke="black" fill="none" stroke-linecap="round"></path><path d="M 291.541,145.984 C 292.510,143.657 291.507,141.732 293.139,141.188" stroke-width="7.789" stroke="black" fill="none" stroke-linecap="round"></path><path d="M 293.139,141.188 C 295.103,140.533 297.047,141.395 298.732,143.586" stroke-width="8.351" stroke="black" fill="none" stroke-linecap="round"></path><path d="M 298.732,143.586 C 301.042,146.591 299.690,147.672 301.129,151.580" stroke-width="7.530" stroke="black" fill="none" stroke-linecap="round"></path><path d="M 301.129,151.580 C 302.486,155.266 302.319,155.431 304.325,158.775" stroke-width="7.373" stroke="black" fill="none" stroke-linecap="round"></path><circle r="3" cx="284.3495788574219" cy="111.60986328125" fill="black"></circle><path d="M 337.084,110.011 C 332.689,111.610 332.128,110.812 328.295,113.209" stroke-width="8.635" stroke="black" fill="none" stroke-linecap="round"></path><path d="M 328.295,113.209 C 325.736,114.809 324.920,115.316 324.300,118.005" stroke-width="7.912" stroke="black" fill="none" stroke-linecap="round"></path><path d="M 324.300,118.005 C 323.721,120.512 324.292,121.392 325.898,123.601" stroke-width="8.028" stroke="black" fill="none" stroke-linecap="round"></path><path d="M 325.898,123.601 C 327.488,125.788 328.104,125.590 330.692,126.798" stroke-width="7.768" stroke="black" fill="none" stroke-linecap="round"></path><path d="M 330.692,126.798 C 334.096,128.388 334.337,127.866 337.883,129.197" stroke-width="7.505" stroke="black" fill="none" stroke-linecap="round"></path><path d="M 337.883,129.197 C 340.729,130.265 341.219,129.747 343.476,131.595" stroke-width="7.570" stroke="black" fill="none" stroke-linecap="round"></path><path d="M 343.476,131.595 C 345.613,133.345 346.465,133.907 346.672,136.391" stroke-width="7.935" stroke="black" fill="none" stroke-linecap="round"></path><path d="M 346.672,136.391 C 346.864,138.703 345.936,139.156 344.275,141.188" stroke-width="8.080" stroke="black" fill="none" stroke-linecap="round"></path><path d="M 344.275,141.188 C 342.341,143.553 342.066,143.461 339.481,145.185" stroke-width="7.715" stroke="black" fill="none" stroke-linecap="round"></path><path d="M 373.039,109.212 C 372.639,115.207 372.240,115.219 372.240,121.203" stroke-width="8.553" stroke="black" fill="none" stroke-linecap="round"></path><path d="M 372.240,121.203 C 372.240,124.412 372.838,124.388 373.039,127.598" stroke-width="6.936" stroke="black" fill="none" stroke-linecap="round"></path><path d="M 373.039,127.598 C 373.238,130.783 372.620,130.854 373.039,133.993" stroke-width="6.726" stroke="black" fill="none" stroke-linecap="round"></path><path d="M 373.039,133.993 C 373.419,136.850 373.858,136.785 374.637,139.589" stroke-width="6.637" stroke="black" fill="none" stroke-linecap="round"></path><path d="M 374.637,139.589 C 375.856,143.980 377.337,149.443 377.034,148.382" stroke-width="6.982" stroke="black" fill="none" stroke-linecap="round"></path><path d="M 413.788,110.810 C 408.594,115.607 408.239,115.294 403.401,120.403" stroke-width="8.421" stroke="black" fill="none" stroke-linecap="round"></path><path d="M 403.401,120.403 C 401.048,122.888 401.262,123.111 399.406,125.999" stroke-width="6.811" stroke="black" fill="none" stroke-linecap="round"></path><path d="M 399.406,125.999 C 397.666,128.706 397.469,128.654 396.210,131.595" stroke-width="6.681" stroke="black" fill="none" stroke-linecap="round"></path><path d="M 396.210,131.595 C 395.072,134.250 394.771,134.333 394.612,137.191" stroke-width="6.698" stroke="black" fill="none" stroke-linecap="round"></path><path d="M 394.612,137.191 C 394.371,141.527 393.563,142.518 395.411,145.984" stroke-width="6.974" stroke="black" fill="none" stroke-linecap="round"></path><path d="M 395.411,145.984 C 396.759,148.513 398.007,148.582 401.004,149.182" stroke-width="7.633" stroke="black" fill="none" stroke-linecap="round"></path><path d="M 401.004,149.182 C 404.000,149.781 404.400,149.382 407.396,148.382" stroke-width="7.586" stroke="black" fill="none" stroke-linecap="round"></path><path d="M 407.396,148.382 C 410.392,147.383 410.540,147.190 412.989,145.185" stroke-width="6.959" stroke="black" fill="none" stroke-linecap="round"></path><path d="M 412.989,145.185 C 414.934,143.592 414.819,143.335 416.185,141.188" stroke-width="6.930" stroke="black" fill="none" stroke-linecap="round"></path><path d="M 416.185,141.188 C 417.616,138.938 418.174,138.976 418.582,136.391" stroke-width="6.868" stroke="black" fill="none" stroke-linecap="round"></path><path d="M 418.582,136.391 C 419.372,131.382 419.363,131.078 418.582,125.999" stroke-width="6.918" stroke="black" fill="none" stroke-linecap="round"></path><path d="M 418.582,125.999 C 417.765,120.686 417.777,120.391 415.386,115.607" stroke-width="6.849" stroke="black" fill="none" stroke-linecap="round"></path><path d="M 415.386,115.607 C 413.382,111.597 412.607,111.996 409.793,108.412" stroke-width="7.021" stroke="black" fill="none" stroke-linecap="round"></path><path d="M 443.351,97.221 C 441.353,102.816 440.980,102.724 439.356,108.412" stroke-width="8.231" stroke="black" fill="none" stroke-linecap="round"></path><path d="M 439.356,108.412 C 438.583,111.118 438.758,111.196 438.557,114.008" stroke-width="7.138" stroke="black" fill="none" stroke-linecap="round"></path><path d="M 438.557,114.008 C 438.358,116.792 438.557,116.806 438.557,119.604" stroke-width="6.877" stroke="black" fill="none" stroke-linecap="round"></path><path d="M 438.557,119.604 C 438.557,122.801 438.557,122.801 438.557,125.999" stroke-width="6.638" stroke="black" fill="none" stroke-linecap="round"></path><path d="M 438.557,125.999 C 438.557,130.796 438.034,130.880 438.557,135.592" stroke-width="6.900" stroke="black" fill="none" stroke-linecap="round"></path><path d="M 438.557,135.592 C 438.833,138.075 439.879,141.216 440.155,140.388" stroke-width="7.861" stroke="black" fill="none" stroke-linecap="round"></path><path d="M 440.155,140.388 C 440.678,138.818 440.155,135.592 440.155,130.796" stroke-width="7.691" stroke="black" fill="none" stroke-linecap="round"></path><path d="M 440.155,130.796 C 440.155,127.598 440.155,127.598 440.155,124.400" stroke-width="6.763" stroke="black" fill="none" stroke-linecap="round"></path><path d="M 440.155,124.400 C 440.155,121.203 439.943,121.188 440.155,118.005" stroke-width="6.605" stroke="black" fill="none" stroke-linecap="round"></path><path d="M 440.155,118.005 C 440.342,115.192 440.321,115.152 440.954,112.409" stroke-width="6.709" stroke="black" fill="none" stroke-linecap="round"></path><path d="M 440.954,112.409 C 441.520,109.956 441.429,109.859 442.552,107.613" stroke-width="6.867" stroke="black" fill="none" stroke-linecap="round"></path><path d="M 442.552,107.613 C 444.226,104.263 443.746,103.158 446.547,101.218" stroke-width="7.235" stroke="black" fill="none" stroke-linecap="round"></path><path d="M 446.547,101.218 C 448.940,99.560 450.040,99.645 452.939,100.418" stroke-width="7.464" stroke="black" fill="none" stroke-linecap="round"></path><path d="M 452.939,100.418 C 456.032,101.244 456.135,102.017 458.532,104.415" stroke-width="7.480" stroke="black" fill="none" stroke-linecap="round"></path><path d="M 458.532,104.415 C 460.929,106.814 460.529,107.213 462.527,110.011" stroke-width="6.696" stroke="black" fill="none" stroke-linecap="round"></path><path d="M 462.527,110.011 C 464.524,112.809 465.002,112.566 466.522,115.607" stroke-width="6.492" stroke="black" fill="none" stroke-linecap="round"></path><path d="M 466.522,115.607 C 468.198,118.961 467.658,119.226 468.919,122.802" stroke-width="6.302" stroke="black" fill="none" stroke-linecap="round"></path><path d="M 468.919,122.802 C 470.055,126.021 470.049,126.027 471.316,129.197" stroke-width="6.384" stroke="black" fill="none" stroke-linecap="round"></path><path d="M 471.316,129.197 C 472.446,132.022 472.692,131.932 473.713,134.793" stroke-width="6.552" stroke="black" fill="none" stroke-linecap="round"></path><path d="M 473.713,134.793 C 474.689,137.527 474.456,137.608 475.311,140.388" stroke-width="6.658" stroke="black" fill="none" stroke-linecap="round"></path><path d="M 475.311,140.388 C 476.054,142.804 475.544,143.136 476.909,145.185" stroke-width="6.851" stroke="black" fill="none" stroke-linecap="round"></path><path d="M 476.909,145.185 C 478.740,147.933 478.824,148.747 481.703,149.981" stroke-width="7.295" stroke="black" fill="none" stroke-linecap="round"></path><circle r="3" cx="356.2596740722656" cy="70.04086303710938" fill="black"></circle><path d="M 436.959,213.134 C 425.773,216.731 425.629,216.326 414.587,220.329" stroke-width="6.281" stroke="black" fill="none" stroke-linecap="round"></path><path d="M 414.587,220.329 C 398.063,226.319 398.308,227.002 381.828,233.119" stroke-width="4.500" stroke="black" fill="none" stroke-linecap="round"></path><path d="M 381.828,233.119 C 373.539,236.196 373.479,236.044 365.049,238.715" stroke-width="4.500" stroke="black" fill="none" stroke-linecap="round"></path><path d="M 365.049,238.715 C 349.509,243.638 349.459,243.481 333.888,248.308" stroke-width="4.500" stroke="black" fill="none" stroke-linecap="round"></path><path d="M 333.888,248.308 C 321.094,252.274 320.933,251.824 308.320,256.302" stroke-width="4.500" stroke="black" fill="none" stroke-linecap="round"></path><path d="M 308.320,256.302 C 296.164,260.618 296.023,260.529 284.350,265.895" stroke-width="4.500" stroke="black" fill="none" stroke-linecap="round"></path><path d="M 284.350,265.895 C 281.241,267.324 279.215,267.829 278.757,269.892" stroke-width="5.085" stroke="black" fill="none" stroke-linecap="round"></path><path d="M 278.757,269.892 C 278.416,271.427 280.367,272.294 282.752,273.089" stroke-width="6.735" stroke="black" fill="none" stroke-linecap="round"></path><path d="M 282.752,273.089 C 291.153,275.891 291.450,275.606 300.330,277.086" stroke-width="4.883" stroke="black" fill="none" stroke-linecap="round"></path><path d="M 300.330,277.086 C 313.023,279.203 313.090,278.904 325.898,280.284" stroke-width="4.500" stroke="black" fill="none" stroke-linecap="round"></path><path d="M 325.898,280.284 C 339.058,281.702 339.079,281.504 352.265,282.682" stroke-width="4.500" stroke="black" fill="none" stroke-linecap="round"></path><path d="M 352.265,282.682 C 361.451,283.503 361.485,283.234 370.642,284.281" stroke-width="4.500" stroke="black" fill="none" stroke-linecap="round"></path><path d="M 370.642,284.281 C 375.467,284.833 378.398,284.309 380.230,285.880" stroke-width="5.109" stroke="black" fill="none" stroke-linecap="round"></path><path d="M 380.230,285.880 C 381.194,286.707 378.688,288.600 376.235,289.077" stroke-width="6.731" stroke="black" fill="none" stroke-linecap="round"></path><path d="M 376.235,289.077 C 364.306,291.398 363.842,290.199 351.466,291.476" stroke-width="4.500" stroke="black" fill="none" stroke-linecap="round"></path><path d="M 351.466,291.476 C 325.091,294.196 325.150,294.923 298.732,297.071" stroke-width="4.500" stroke="black" fill="none" stroke-linecap="round"></path><path d="M 298.732,297.071 C 276.012,298.919 275.975,298.836 253.189,299.470" stroke-width="4.500" stroke="black" fill="none" stroke-linecap="round"></path><path d="M 253.189,299.470 C 232.829,300.035 232.803,299.913 212.439,299.470" stroke-width="4.500" stroke="black" fill="none" stroke-linecap="round"></path><path d="M 212.439,299.470 C 196.049,299.113 195.893,299.837 179.680,297.871" stroke-width="4.500" stroke="black" fill="none" stroke-linecap="round"></path><path d="M 179.680,297.871 C 169.526,296.639 168.725,297.200 159.705,293.074" stroke-width="4.500" stroke="black" fill="none" stroke-linecap="round"></path><path d="M 159.705,293.074 C 154.743,290.805 153.533,289.497 151.715,285.080" stroke-width="4.656" stroke="black" fill="none" stroke-linecap="round"></path><path d="M 151.715,285.080 C 150.736,282.702 151.983,281.615 154.112,279.485" stroke-width="5.880" stroke="black" fill="none" stroke-linecap="round"></path><path d="M 154.112,279.485 C 168.363,265.227 167.854,263.873 184.474,252.305" stroke-width="4.500" stroke="black" fill="none" stroke-linecap="round"></path><path d="M 184.474,252.305 C 204.608,238.292 205.189,238.441 227.620,228.323" stroke-width="4.500" stroke="black" fill="none" stroke-linecap="round"></path><path d="M 227.620,228.323 C 253.928,216.457 254.209,216.325 281.953,208.338" stroke-width="4.500" stroke="black" fill="none" stroke-linecap="round"></path><path d="M 281.953,208.338 C 309.740,200.337 310.083,200.843 338.682,196.347" stroke-width="4.500" stroke="black" fill="none" stroke-linecap="round"></path><path d="M 338.682,196.347 C 366.013,192.049 366.193,191.874 393.813,190.751" stroke-width="4.500" stroke="black" fill="none" stroke-linecap="round"></path><path d="M 393.813,190.751 C 415.332,189.876 416.179,188.451 436.959,192.350" stroke-width="4.500" stroke="black" fill="none" stroke-linecap="round"></path><path d="M 436.959,192.350 C 448.139,194.447 450.762,195.046 457.733,202.742" stroke-width="4.500" stroke="black" fill="none" stroke-linecap="round"></path><path d="M 457.733,202.742 C 462.347,207.836 462.256,211.354 460.130,217.931" stroke-width="4.500" stroke="black" fill="none" stroke-linecap="round"></path><path d="M 460.130,217.931 C 457.862,224.944 455.358,224.855 448.944,229.922" stroke-width="4.500" stroke="black" fill="none" stroke-linecap="round"></path><path d="M 448.944,229.922 C 424.996,248.837 425.238,249.592 399.406,265.895" stroke-width="4.500" stroke="black" fill="none" stroke-linecap="round"></path><path d="M 399.406,265.895 C 373.303,282.368 372.898,282.047 345.074,295.473" stroke-width="4.500" stroke="black" fill="none" stroke-linecap="round"></path><path d="M 345.074,295.473 C 316.569,309.227 316.051,308.205 286.747,320.254" stroke-width="4.500" stroke="black" fill="none" stroke-linecap="round"></path><path d="M 286.747,320.254 C 257.724,332.187 257.585,331.851 228.419,343.437" stroke-width="4.500" stroke="black" fill="none" stroke-linecap="round"></path><path d="M 228.419,343.437 C 203.253,353.434 203.240,353.401 178.082,363.422" stroke-width="4.500" stroke="black" fill="none" stroke-linecap="round"></path><path d="M 178.082,363.422 C 160.093,370.588 160.161,370.763 142.127,377.811" stroke-width="4.500" stroke="black" fill="none" stroke-linecap="round"></path><path d="M 142.127,377.811 C 134.593,380.756 128.682,382.415 126.946,383.407" stroke-width="4.500" stroke="black" fill="none" stroke-linecap="round"></path><path d="M 126.946,383.407 C 125.886,384.013 131.796,382.403 136.534,381.009" stroke-width="4.898" stroke="black" fill="none" stroke-linecap="round"></path><path d="M 136.534,381.009 C 145.379,378.406 145.288,378.096 154.112,375.413" stroke-width="4.500" stroke="black" fill="none" stroke-linecap="round"></path><path d="M 154.112,375.413 C 186.037,365.706 185.924,365.293 218.032,356.227" stroke-width="4.500" stroke="black" fill="none" stroke-linecap="round"></path><path d="M 218.032,356.227 C 251.042,346.907 250.930,346.294 284.350,338.640" stroke-width="4.500" stroke="black" fill="none" stroke-linecap="round"></path><path d="M 284.350,338.640 C 317.248,331.106 317.296,330.773 350.667,325.850" stroke-width="4.500" stroke="black" fill="none" stroke-linecap="round"></path><path d="M 350.667,325.850 C 379.618,321.579 379.830,323.052 408.994,320.254" stroke-width="4.500" stroke="black" fill="none" stroke-linecap="round"></path><path d="M 333.089,350.631 C 352.265,345.036 352.109,344.431 371.441,339.440" stroke-width="5.403" stroke="black" fill="none" stroke-linecap="round"></path><path d="M 371.441,339.440 C 389.263,334.838 389.418,335.443 407.396,331.446" stroke-width="4.500" stroke="black" fill="none" stroke-linecap="round"></path></svg>