<svg xmlns="http://www.w3.org/2000/svg" xmlns:xlink="http://www.w3.org/1999/xlink" viewBox="0 0 576 416" width="576" height="416"><path d="M -6.487,180.359 C -7.685,175.962 -7.685,175.962 -8.884,171.565" stroke-width="8.434" stroke="black" fill="none" stroke-linecap="round"></path><path d="M -8.884,171.565 C -10.082,167.168 -10.082,167.168 -11.281,162.772" stroke-width="6.547" stroke="black" fill="none" stroke-linecap="round"></path><path d="M 409.793,197.146 C 407.795,200.743 408.261,201.137 405.798,204.341" stroke-width="8.316" stroke="black" fill="none" stroke-linecap="round"></path><path d="M 405.798,204.341 C 404.266,206.333 403.822,205.967 401.803,207.538" stroke-width="7.285" stroke="black" fill="none" stroke-linecap="round"></path><path d="M 401.803,207.538 C 396.631,211.563 396.720,211.685 391.416,215.532" stroke-width="5.589" stroke="black" fill="none" stroke-linecap="round"></path><path d="M 391.416,215.532 C 380.740,223.276 380.939,223.616 369.843,230.721" stroke-width="4.500" stroke="black" fill="none" stroke-linecap="round"></path><path d="M 369.843,230.721 C 360.964,236.406 360.831,236.255 351.466,241.113" stroke-width="4.500" stroke="black" fill="none" stroke-linecap="round"></path><path d="M 351.466,241.113 C 339.258,247.446 339.213,247.396 326.697,253.104" stroke-width="4.500" stroke="black" fill="none" stroke-linecap="round"></path><path d="M 326.697,253.104 C 312.047,259.786 311.969,259.628 297.134,265.895" stroke-width="4.500" stroke="black" fill="none" stroke-linecap="round"></path><path d="M 297.134,265.895 C 276.014,274.816 275.919,274.590 254.787,283.482" stroke-width="4.500" stroke="black" fill="none" stroke-linecap="round"></path><path d="M 254.787,283.482 C 233.172,292.576 233.420,293.192 211.640,301.868" stroke-width="4.500" stroke="black" fill="none" stroke-linecap="round"></path><path d="M 211.640,301.868 C 190.273,310.379 190.026,309.751 168.494,317.856" stroke-width="4.500" stroke="black" fill="none" stroke-linecap="round"></path><path d="M 168.494,317.856 C 149.676,324.940 149.821,325.335 130.941,332.245" stroke-width="4.500" stroke="black" fill="none" stroke-linecap="round"></path><path d="M 130.941,332.245 C 117.062,337.326 116.850,336.748 102.976,341.838" stroke-width="4.500" stroke="black" fill="none" stroke-linecap="round"></path><path d="M 102.976,341.838 C 92.880,345.542 92.797,345.422 83.001,349.832" stroke-width="4.500" stroke="black" fill="none" stroke-linecap="round"></path><path d="M 83.001,349.832 C 76.817,352.617 77.009,353.030 71.016,356.227" stroke-width="4.568" stroke="black" fill="none" stroke-linecap="round"></path><path d="M 323.501,246.709 C 318.307,249.507 318.307,249.507 313.114,252.305" stroke-width="7.460" stroke="black" fill="none" stroke-linecap="round"></path><path d="M 313.114,252.305 C 302.727,257.901 302.884,258.222 292.340,263.496" stroke-width="4.500" stroke="black" fill="none" stroke-linecap="round"></path><path d="M 292.340,263.496 C 285.306,267.015 285.088,266.563 277.958,269.892" stroke-width="4.554" stroke="black" fill="none" stroke-linecap="round"></path><path d="M 277.958,269.892 C 261.118,277.754 261.377,278.330 244.400,285.880" stroke-width="4.500" stroke="black" fill="none" stroke-linecap="round"></path><path d="M 244.400,285.880 C 225.422,294.318 225.293,294.045 206.047,301.868" stroke-width="4.500" stroke="black" fill="none" stroke-linecap="round"></path><path d="M 206.047,301.868 C 186.941,309.634 186.760,309.191 167.695,317.057" stroke-width="4.500" stroke="black" fill="none" stroke-linecap="round"></path><path d="M 167.695,317.057 C 148.008,325.179 148.312,325.933 128.544,333.844" stroke-width="4.500" stroke="black" fill="none" stroke-linecap="round"></path><path d="M 128.544,333.844 C 110.360,341.121 109.907,340.009 91.790,347.434" stroke-width="4.500" stroke="black" fill="none" stroke-linecap="round"></path><path d="M 91.790,347.434 C 76.748,353.599 76.974,354.155 62.227,361.024" stroke-width="4.500" stroke="black" fill="none" stroke-linecap="round"></path><path d="M 62.227,361.024 C 53.803,364.947 53.875,365.103 45.448,369.018" stroke-width="4.500" stroke="black" fill="none" stroke-linecap="round"></path><path d="M 45.448,369.018 C 42.689,370.299 38.195,372.207 39.855,371.416" stroke-width="5.405" stroke="black" fill="none" stroke-linecap="round"></path><path d="M 159.705,307.464 C 150.517,311.461 150.546,311.530 141.328,315.458" stroke-width="6.476" stroke="black" fill="none" stroke-linecap="round"></path><path d="M 141.328,315.458 C 128.973,320.723 129.067,320.972 116.559,325.850" stroke-width="4.500" stroke="black" fill="none" stroke-linecap="round"></path><path d="M 116.559,325.850 C 105.497,330.165 105.472,330.153 94.187,333.844" stroke-width="4.500" stroke="black" fill="none" stroke-linecap="round"></path><path d="M 94.187,333.844 C 84.698,336.948 84.761,337.774 75.011,339.440" stroke-width="4.500" stroke="black" fill="none" stroke-linecap="round"></path><path d="M 75.011,339.440 C 68.382,340.572 67.645,341.114 61.428,339.440" stroke-width="4.704" stroke="black" fill="none" stroke-linecap="round"></path><path d="M 61.428,339.440 C 57.258,338.316 56.067,337.505 54.237,333.844" stroke-width="5.457" stroke="black" fill="none" stroke-linecap="round"></path><path d="M 54.237,333.844 C 52.471,330.311 53.043,329.146 54.237,325.051" stroke-width="5.781" stroke="black" fill="none" stroke-linecap="round"></path><path d="M 54.237,325.051 C 55.840,319.554 56.565,319.559 59.830,314.658" stroke-width="5.445" stroke="black" fill="none" stroke-linecap="round"></path><path d="M 59.830,314.658 C 66.952,303.971 66.359,303.300 75.011,293.874" stroke-width="4.500" stroke="black" fill="none" stroke-linecap="round"></path><path d="M 75.011,293.874 C 84.337,283.714 84.706,283.751 95.785,275.488" stroke-width="4.500" stroke="black" fill="none" stroke-linecap="round"></path><path d="M 95.785,275.488 C 106.678,267.363 106.558,266.467 118.956,261.098" stroke-width="4.500" stroke="black" fill="none" stroke-linecap="round"></path><path d="M 118.956,261.098 C 133.325,254.876 134.065,254.653 149.318,252.305" stroke-width="4.500" stroke="black" fill="none" stroke-linecap="round"></path><path d="M 149.318,252.305 C 154.839,251.455 157.122,251.545 160.504,254.703" stroke-width="4.544" stroke="black" fill="none" stroke-linecap="round"></path><path d="M 160.504,254.703 C 163.115,257.141 162.313,259.457 161.303,263.496" stroke-width="5.429" stroke="black" fill="none" stroke-linecap="round"></path><path d="M 161.303,263.496 C 160.315,267.451 159.548,267.651 156.509,270.691" stroke-width="5.794" stroke="black" fill="none" stroke-linecap="round"></path><path d="M 156.509,270.691 C 145.965,281.241 145.933,281.456 134.137,290.676" stroke-width="4.500" stroke="black" fill="none" stroke-linecap="round"></path><path d="M 134.137,290.676 C 120.365,301.441 120.030,301.089 105.373,310.661" stroke-width="4.500" stroke="black" fill="none" stroke-linecap="round"></path><path d="M 105.373,310.661 C 91.266,319.875 91.284,319.976 76.609,328.248" stroke-width="4.500" stroke="black" fill="none" stroke-linecap="round"></path><path d="M 76.609,328.248 C 62.920,335.964 62.829,335.869 48.644,342.637" stroke-width="4.500" stroke="black" fill="none" stroke-linecap="round"></path><path d="M 48.644,342.637 C 36.861,348.260 36.913,348.556 24.674,353.030" stroke-width="4.500" stroke="black" fill="none" stroke-linecap="round"></path><path d="M 24.674,353.030 C 16.139,356.150 16.007,356.340 7.096,357.826" stroke-width="4.500" stroke="black" fill="none" stroke-linecap="round"></path><path d="M 7.096,357.826 C 1.625,358.738 0.473,359.601 -4.090,357.826" stroke-width="4.978" stroke="black" fill="none" stroke-linecap="round"></path><path d="M -4.090,357.826 C -6.718,356.803 -7.586,355.081 -7.286,352.230" stroke-width="5.904" stroke="black" fill="none" stroke-linecap="round"></path><path d="M -7.286,352.230 C -6.787,347.487 -5.333,347.139 -2.492,342.637" stroke-width="6.531" stroke="black" fill="none" stroke-linecap="round"></path><path d="M -2.492,342.637 C -0.539,339.545 -0.185,339.756 2.302,337.042" stroke-width="6.352" stroke="black" fill="none" stroke-linecap="round"></path><path d="M 2.302,337.042 C 4.210,334.960 4.086,332.887 6.297,333.045" stroke-width="7.269" stroke="black" fill="none" stroke-linecap="round"></path><path d="M 6.297,333.045 C 9.679,333.286 9.462,336.546 13.488,337.841" stroke-width="7.548" stroke="black" fill="none" stroke-linecap="round"></path><path d="M 13.488,337.841 C 20.648,340.143 21.085,339.004 28.669,340.239" stroke-width="5.324" stroke="black" fill="none" stroke-linecap="round"></path><path d="M 28.669,340.239 C 38.263,341.802 38.553,340.781 47.845,343.437" stroke-width="4.500" stroke="black" fill="none" stroke-linecap="round"></path><path d="M 47.845,343.437 C 58.129,346.376 58.542,346.184 67.820,351.431" stroke-width="4.500" stroke="black" fill="none" stroke-linecap="round"></path><path d="M 67.820,351.431 C 76.919,356.576 77.625,356.509 84.599,364.221" stroke-width="4.500" stroke="black" fill="none" stroke-linecap="round"></path><path d="M 84.599,364.221 C 92.806,373.297 91.485,374.554 98.182,385.006" stroke-width="4.500" stroke="black" fill="none" stroke-linecap="round"></path><path d="M 98.182,385.006 C 101.473,390.142 101.600,390.073 104.574,395.398" stroke-width="4.680" stroke="black" fill="none" stroke-linecap="round"></path><path d="M 104.574,395.398 C 116.781,417.253 113.841,419.517 128.544,439.365" stroke-width="4.500" stroke="black" fill="none" stroke-linecap="round"></path><path d="M 128.544,439.365 C 139.009,453.492 141.728,451.356 154.911,463.347" stroke-width="4.500" stroke="black" fill="none" stroke-linecap="round"></path><path d="M 154.911,463.347 C 168.095,475.338 167.640,485.569 181.278,487.329" stroke-width="4.500" stroke="black" fill="none" stroke-linecap="round"></path><circle r="3" cx="382.626708984375" cy="215.53225708007812" fill="black"></circle></svg>