<svg xmlns="http://www.w3.org/2000/svg" xmlns:xlink="http://www.w3.org/1999/xlink" viewBox="0 0 576 416" width="576" height="416"><path d="M 373.838,70.041 C 363.051,72.839 362.224,71.069 352.265,75.637" stroke-width="7.604" stroke="black" fill="none" stroke-linecap="round"></path><path d="M 352.265,75.637 C 343.048,79.863 342.572,80.346 335.486,87.628" stroke-width="4.598" stroke="black" fill="none" stroke-linecap="round"></path><path d="M 335.486,87.628 C 327.791,95.535 327.973,96.344 322.702,106.014" stroke-width="4.500" stroke="black" fill="none" stroke-linecap="round"></path><path d="M 322.702,106.014 C 320.782,109.534 318.916,111.433 321.104,114.008" stroke-width="5.432" stroke="black" fill="none" stroke-linecap="round"></path><path d="M 321.104,114.008 C 325.708,119.427 328.302,119.030 336.285,122.002" stroke-width="5.805" stroke="black" fill="none" stroke-linecap="round"></path><path d="M 336.285,122.002 C 345.481,125.426 345.973,124.056 355.461,126.798" stroke-width="4.654" stroke="black" fill="none" stroke-linecap="round"></path><path d="M 355.461,126.798 C 363.950,129.252 364.438,128.491 372.240,132.394" stroke-width="4.500" stroke="black" fill="none" stroke-linecap="round"></path><path d="M 372.240,132.394 C 378.021,135.286 379.605,135.149 382.627,140.388" stroke-width="4.849" stroke="black" fill="none" stroke-linecap="round"></path><path d="M 382.627,140.388 C 385.598,145.541 386.146,147.411 384.225,153.179" stroke-width="5.035" stroke="black" fill="none" stroke-linecap="round"></path><path d="M 384.225,153.179 C 380.953,162.999 379.684,163.651 372.240,171.565" stroke-width="4.500" stroke="black" fill="none" stroke-linecap="round"></path><path d="M 372.240,171.565 C 360.508,184.036 360.134,184.368 345.873,193.948" stroke-width="4.500" stroke="black" fill="none" stroke-linecap="round"></path><path d="M 345.873,193.948 C 332.168,203.154 331.787,203.487 316.310,209.137" stroke-width="4.500" stroke="black" fill="none" stroke-linecap="round"></path><path d="M 316.310,209.137 C 302.224,214.279 301.676,213.972 286.747,215.532" stroke-width="4.500" stroke="black" fill="none" stroke-linecap="round"></path><path d="M 286.747,215.532 C 274.909,216.770 274.285,217.168 262.777,214.733" stroke-width="4.500" stroke="black" fill="none" stroke-linecap="round"></path><path d="M 262.777,214.733 C 253.511,212.772 253.464,211.541 245.199,206.739" stroke-width="4.500" stroke="black" fill="none" stroke-linecap="round"></path><path d="M 245.199,206.739 C 241.079,204.346 241.147,203.956 238.008,200.344" stroke-width="5.073" stroke="black" fill="none" stroke-linecap="round"></path><path d="M 238.008,200.344 C 233.157,194.763 233.113,194.661 229.218,188.353" stroke-width="4.880" stroke="black" fill="none" stroke-linecap="round"></path><path d="M 229.218,188.353 C 224.723,181.071 225.147,180.798 221.228,173.164" stroke-width="4.686" stroke="black" fill="none" stroke-linecap="round"></path><path d="M 221.228,173.164 C 217.556,166.009 217.633,165.969 214.037,158.775" stroke-width="4.545" stroke="black" fill="none" stroke-linecap="round"></path><path d="M 214.037,158.775 C 211.241,153.179 211.142,153.226 208.444,147.583" stroke-width="4.975" stroke="black" fill="none" stroke-linecap="round"></path><path d="M 208.444,147.583 C 206.747,144.032 205.474,143.995 205.248,140.388" stroke-width="5.744" stroke="black" fill="none" stroke-linecap="round"></path><path d="M 205.248,140.388 C 205.074,137.600 205.090,135.874 207.645,134.793" stroke-width="6.948" stroke="black" fill="none" stroke-linecap="round"></path><path d="M 207.645,134.793 C 215.477,131.478 216.750,132.224 226.022,131.595" stroke-width="4.961" stroke="black" fill="none" stroke-linecap="round"></path><path d="M 226.022,131.595 C 240.321,130.625 240.519,130.280 254.787,131.595" stroke-width="4.500" stroke="black" fill="none" stroke-linecap="round"></path><path d="M 254.787,131.595 C 270.881,133.078 271.133,133.105 286.747,137.191" stroke-width="4.500" stroke="black" fill="none" stroke-linecap="round"></path><path d="M 286.747,137.191 C 297.100,139.900 297.912,139.554 306.722,145.185" stroke-width="4.500" stroke="black" fill="none" stroke-linecap="round"></path><path d="M 306.722,145.185 C 312.294,148.747 313.458,149.930 315.511,155.577" stroke-width="4.529" stroke="black" fill="none" stroke-linecap="round"></path><path d="M 315.511,155.577 C 316.654,158.723 315.096,159.631 313.114,162.772" stroke-width="5.596" stroke="black" fill="none" stroke-linecap="round"></path><path d="M 313.114,162.772 C 310.302,167.225 309.916,167.178 305.923,170.766" stroke-width="5.623" stroke="black" fill="none" stroke-linecap="round"></path><path d="M 305.923,170.766 C 290.341,184.765 291.264,186.668 273.963,197.945" stroke-width="4.500" stroke="black" fill="none" stroke-linecap="round"></path><path d="M 273.963,197.945 C 264.897,203.855 263.789,202.812 253.189,205.140" stroke-width="4.500" stroke="black" fill="none" stroke-linecap="round"></path><path d="M 253.189,205.140 C 247.410,206.409 245.585,207.203 241.203,205.140" stroke-width="4.624" stroke="black" fill="none" stroke-linecap="round"></path><path d="M 241.203,205.140 C 238.794,204.005 238.800,201.646 239.605,198.745" stroke-width="5.786" stroke="black" fill="none" stroke-linecap="round"></path><path d="M 239.605,198.745 C 240.798,194.451 241.847,194.250 245.199,190.751" stroke-width="5.739" stroke="black" fill="none" stroke-linecap="round"></path><path d="M 245.199,190.751 C 251.035,184.657 251.196,184.589 257.983,179.559" stroke-width="4.915" stroke="black" fill="none" stroke-linecap="round"></path><path d="M 257.983,179.559 C 261.982,176.595 262.686,175.018 266.772,174.763" stroke-width="5.334" stroke="black" fill="none" stroke-linecap="round"></path><path d="M 266.772,174.763 C 269.078,174.618 271.876,176.483 270.767,178.760" stroke-width="6.805" stroke="black" fill="none" stroke-linecap="round"></path><path d="M 270.767,178.760 C 263.886,192.871 262.082,194.238 250.792,207.538" stroke-width="4.500" stroke="black" fill="none" stroke-linecap="round"></path><path d="M 250.792,207.538 C 237.313,223.416 236.622,222.999 221.228,237.116" stroke-width="4.500" stroke="black" fill="none" stroke-linecap="round"></path><path d="M 221.228,237.116 C 207.858,249.379 208.119,250.009 193.263,260.299" stroke-width="4.500" stroke="black" fill="none" stroke-linecap="round"></path><path d="M 193.263,260.299 C 182.152,267.995 181.727,267.906 169.293,273.089" stroke-width="4.500" stroke="black" fill="none" stroke-linecap="round"></path><path d="M 169.293,273.089 C 162.551,275.900 161.646,276.805 154.911,276.287" stroke-width="4.500" stroke="black" fill="none" stroke-linecap="round"></path><path d="M 154.911,276.287 C 151.259,276.006 148.123,274.529 148.519,271.491" stroke-width="5.377" stroke="black" fill="none" stroke-linecap="round"></path><path d="M 148.519,271.491 C 149.322,265.336 151.956,263.885 157.308,257.901" stroke-width="5.862" stroke="black" fill="none" stroke-linecap="round"></path><path d="M 157.308,257.901 C 165.539,248.697 165.560,248.143 175.685,241.113" stroke-width="4.500" stroke="black" fill="none" stroke-linecap="round"></path><path d="M 175.685,241.113 C 185.135,234.553 185.563,234.128 196.459,230.721" stroke-width="4.500" stroke="black" fill="none" stroke-linecap="round"></path><path d="M 196.459,230.721 C 204.739,228.132 205.620,227.953 214.037,229.122" stroke-width="4.500" stroke="black" fill="none" stroke-linecap="round"></path><path d="M 214.037,229.122 C 220.002,229.951 220.831,230.840 225.223,234.718" stroke-width="4.852" stroke="black" fill="none" stroke-linecap="round"></path><path d="M 225.223,234.718 C 227.622,236.835 227.382,237.766 227.620,241.113" stroke-width="5.853" stroke="black" fill="none" stroke-linecap="round"></path><path d="M 227.620,241.113 C 228.181,248.958 228.661,249.373 226.822,257.101" stroke-width="4.944" stroke="black" fill="none" stroke-linecap="round"></path><path d="M 226.822,257.101 C 222.668,274.554 223.641,275.457 215.635,291.476" stroke-width="4.500" stroke="black" fill="none" stroke-linecap="round"></path><path d="M 215.635,291.476 C 206.063,310.631 205.123,310.618 191.665,327.449" stroke-width="4.500" stroke="black" fill="none" stroke-linecap="round"></path><path d="M 191.665,327.449 C 174.761,348.590 173.288,347.434 154.911,367.419" stroke-width="4.500" stroke="black" fill="none" stroke-linecap="round"></path><path d="M 86.996,272.290 C 92.989,271.890 93.189,270.766 98.981,271.491" stroke-width="8.361" stroke="black" fill="none" stroke-linecap="round"></path><path d="M 98.981,271.491 C 102.777,271.965 103.438,272.148 106.172,274.688" stroke-width="6.682" stroke="black" fill="none" stroke-linecap="round"></path><path d="M 106.172,274.688 C 109.031,277.344 109.606,277.953 110.167,281.883" stroke-width="6.237" stroke="black" fill="none" stroke-linecap="round"></path><path d="M 110.167,281.883 C 111.204,289.145 111.905,290.002 109.368,297.071" stroke-width="5.116" stroke="black" fill="none" stroke-linecap="round"></path><path d="M 109.368,297.071 C 100.719,321.179 100.452,321.671 87.795,344.236" stroke-width="4.500" stroke="black" fill="none" stroke-linecap="round"></path><path d="M 87.795,344.236 C 69.290,377.229 67.515,376.273 47.046,408.188" stroke-width="4.500" stroke="black" fill="none" stroke-linecap="round"></path><path d="M 47.046,408.188 C 36.753,424.237 21.164,448.181 26.272,440.165" stroke-width="4.500" stroke="black" fill="none" stroke-linecap="round"></path></svg>