<svg xmlns="http://www.w3.org/2000/svg" xmlns:xlink="http://www.w3.org/1999/xlink" viewBox="0 0 576 416" width="576" height="416"><path d="M 91.790,161.173 C 88.195,163.971 87.902,163.659 84.599,166.769" stroke-width="6.435" stroke="black" fill="none" stroke-linecap="round"></path><path d="M 84.599,166.769 C 81.111,170.054 81.338,170.309 78.207,173.963" stroke-width="5.842" stroke="black" fill="none" stroke-linecap="round"></path><path d="M 78.207,173.963 C 74.147,178.703 73.782,178.444 70.217,183.556" stroke-width="5.369" stroke="black" fill="none" stroke-linecap="round"></path><path d="M 70.217,183.556 C 61.797,195.631 61.040,195.326 54.237,208.338" stroke-width="4.500" stroke="black" fill="none" stroke-linecap="round"></path><path d="M 54.237,208.338 C 47.457,221.307 47.877,221.663 43.051,235.517" stroke-width="4.500" stroke="black" fill="none" stroke-linecap="round"></path><path d="M 43.051,235.517 C 38.688,248.043 37.310,248.039 35.860,261.098" stroke-width="4.500" stroke="black" fill="none" stroke-linecap="round"></path><path d="M 35.860,261.098 C 34.114,276.818 34.325,277.600 36.659,293.074" stroke-width="4.500" stroke="black" fill="none" stroke-linecap="round"></path><path d="M 36.659,293.074 C 37.521,298.784 38.326,299.225 42.252,303.467" stroke-width="4.500" stroke="black" fill="none" stroke-linecap="round"></path><path d="M 42.252,303.467 C 48.314,310.017 48.833,310.090 56.634,314.658" stroke-width="4.500" stroke="black" fill="none" stroke-linecap="round"></path><path d="M 56.634,314.658 C 65.213,319.683 65.414,320.301 75.011,322.652" stroke-width="4.500" stroke="black" fill="none" stroke-linecap="round"></path><path d="M 75.011,322.652 C 84.989,325.097 85.424,323.215 95.785,324.251" stroke-width="4.500" stroke="black" fill="none" stroke-linecap="round"></path><path d="M 95.785,324.251 C 101.404,324.813 101.378,325.051 106.971,325.850" stroke-width="4.795" stroke="black" fill="none" stroke-linecap="round"></path><path d="M 94.187,280.284 C 97.383,273.489 96.497,272.821 100.579,266.694" stroke-width="8.095" stroke="black" fill="none" stroke-linecap="round"></path><path d="M 100.579,266.694 C 102.889,263.228 103.427,263.314 106.971,261.098" stroke-width="6.599" stroke="black" fill="none" stroke-linecap="round"></path><path d="M 106.971,261.098 C 109.819,259.317 110.714,257.375 113.363,258.700" stroke-width="6.393" stroke="black" fill="none" stroke-linecap="round"></path><path d="M 113.363,258.700 C 119.503,261.772 120.470,263.361 124.549,269.892" stroke-width="6.215" stroke="black" fill="none" stroke-linecap="round"></path><path d="M 124.549,269.892 C 128.460,276.151 127.115,277.034 129.343,284.281" stroke-width="5.220" stroke="black" fill="none" stroke-linecap="round"></path><path d="M 129.343,284.281 C 131.909,292.623 132.222,292.583 134.137,301.068" stroke-width="4.543" stroke="black" fill="none" stroke-linecap="round"></path><path d="M 134.137,301.068 C 135.019,304.973 134.406,305.082 134.936,309.063" stroke-width="5.468" stroke="black" fill="none" stroke-linecap="round"></path><path d="M 134.936,309.063 C 136.004,317.073 136.306,317.035 137.333,325.051" stroke-width="4.734" stroke="black" fill="none" stroke-linecap="round"></path><path d="M 137.333,325.051 C 138.304,332.623 138.111,332.647 138.931,340.239" stroke-width="4.739" stroke="black" fill="none" stroke-linecap="round"></path><path d="M 138.931,340.239 C 139.709,347.436 140.791,357.115 140.529,354.629" stroke-width="4.729" stroke="black" fill="none" stroke-linecap="round"></path><path d="M 134.936,161.173 C 139.331,172.764 139.990,172.555 143.725,184.356" stroke-width="7.585" stroke="black" fill="none" stroke-linecap="round"></path><path d="M 143.725,184.356 C 147.581,196.537 147.155,196.691 150.117,209.137" stroke-width="4.500" stroke="black" fill="none" stroke-linecap="round"></path><path d="M 150.117,209.137 C 153.148,221.872 153.066,221.896 155.710,234.718" stroke-width="4.500" stroke="black" fill="none" stroke-linecap="round"></path><path d="M 155.710,234.718 C 158.259,247.077 158.635,247.031 160.504,259.499" stroke-width="4.500" stroke="black" fill="none" stroke-linecap="round"></path><path d="M 160.504,259.499 C 162.230,271.013 161.457,271.122 162.901,282.682" stroke-width="4.500" stroke="black" fill="none" stroke-linecap="round"></path><path d="M 162.901,282.682 C 164.254,293.505 164.524,293.471 166.097,304.266" stroke-width="4.500" stroke="black" fill="none" stroke-linecap="round"></path><path d="M 166.097,304.266 C 167.320,312.656 167.261,312.665 168.494,321.054" stroke-width="4.500" stroke="black" fill="none" stroke-linecap="round"></path><path d="M 168.494,321.054 C 169.259,326.255 169.013,326.317 170.092,331.446" stroke-width="5.111" stroke="black" fill="none" stroke-linecap="round"></path><path d="M 170.092,331.446 C 170.611,333.912 170.680,336.820 171.690,336.242" stroke-width="6.265" stroke="black" fill="none" stroke-linecap="round"></path><path d="M 171.690,336.242 C 173.476,335.221 174.434,332.504 175.685,328.248" stroke-width="6.844" stroke="black" fill="none" stroke-linecap="round"></path><path d="M 175.685,328.248 C 178.429,318.915 177.683,318.655 179.680,309.063" stroke-width="4.733" stroke="black" fill="none" stroke-linecap="round"></path><path d="M 179.680,309.063 C 181.678,299.470 181.843,299.501 183.675,289.877" stroke-width="4.500" stroke="black" fill="none" stroke-linecap="round"></path><path d="M 183.675,289.877 C 185.039,282.713 184.834,282.675 186.072,275.488" stroke-width="4.678" stroke="black" fill="none" stroke-linecap="round"></path><path d="M 186.072,275.488 C 186.831,271.084 186.936,271.101 187.670,266.694" stroke-width="5.471" stroke="black" fill="none" stroke-linecap="round"></path><path d="M 187.670,266.694 C 188.135,263.907 186.993,262.998 188.469,261.098" stroke-width="6.310" stroke="black" fill="none" stroke-linecap="round"></path><path d="M 188.469,261.098 C 189.789,259.400 191.508,258.621 193.263,259.499" stroke-width="7.526" stroke="black" fill="none" stroke-linecap="round"></path><path d="M 193.263,259.499 C 195.503,260.620 195.245,262.126 196.459,265.095" stroke-width="6.713" stroke="black" fill="none" stroke-linecap="round"></path><path d="M 196.459,265.095 C 198.841,270.919 198.695,271.022 200.454,277.086" stroke-width="5.547" stroke="black" fill="none" stroke-linecap="round"></path><path d="M 200.454,277.086 C 202.290,283.412 202.052,283.482 203.650,289.877" stroke-width="5.203" stroke="black" fill="none" stroke-linecap="round"></path><path d="M 203.650,289.877 C 205.248,296.272 205.439,296.230 206.846,302.667" stroke-width="5.109" stroke="black" fill="none" stroke-linecap="round"></path><path d="M 206.846,302.667 C 208.236,309.021 208.015,309.068 209.243,315.458" stroke-width="5.101" stroke="black" fill="none" stroke-linecap="round"></path><path d="M 209.243,315.458 C 210.013,319.460 210.042,319.455 210.841,323.452" stroke-width="5.751" stroke="black" fill="none" stroke-linecap="round"></path><path d="M 253.189,249.107 C 249.593,252.705 248.555,252.037 245.998,256.302" stroke-width="8.229" stroke="black" fill="none" stroke-linecap="round"></path><path d="M 245.998,256.302 C 242.563,262.029 242.942,262.521 241.203,269.092" stroke-width="5.658" stroke="black" fill="none" stroke-linecap="round"></path><path d="M 241.203,269.092 C 239.347,276.111 239.410,276.238 238.806,283.482" stroke-width="5.062" stroke="black" fill="none" stroke-linecap="round"></path><path d="M 238.806,283.482 C 238.211,290.627 238.139,290.747 238.806,297.871" stroke-width="4.929" stroke="black" fill="none" stroke-linecap="round"></path><path d="M 238.806,297.871 C 239.337,303.537 239.547,303.616 241.203,309.063" stroke-width="5.235" stroke="black" fill="none" stroke-linecap="round"></path><path d="M 241.203,309.063 C 242.343,312.809 241.966,313.579 244.400,316.257" stroke-width="5.845" stroke="black" fill="none" stroke-linecap="round"></path><path d="M 244.400,316.257 C 245.961,317.976 247.209,318.452 249.194,317.856" stroke-width="7.073" stroke="black" fill="none" stroke-linecap="round"></path><path d="M 249.194,317.856 C 251.204,317.253 251.038,316.022 252.390,313.859" stroke-width="6.963" stroke="black" fill="none" stroke-linecap="round"></path><path d="M 252.390,313.859 C 255.034,309.626 255.035,309.579 257.184,305.066" stroke-width="5.898" stroke="black" fill="none" stroke-linecap="round"></path><path d="M 257.184,305.066 C 259.030,301.185 258.960,301.131 260.380,297.071" stroke-width="5.951" stroke="black" fill="none" stroke-linecap="round"></path><path d="M 260.380,297.071 C 261.756,293.137 261.260,288.572 262.777,289.077" stroke-width="6.225" stroke="black" fill="none" stroke-linecap="round"></path><path d="M 262.777,289.077 C 264.856,289.771 265.291,294.223 267.571,299.470" stroke-width="7.329" stroke="black" fill="none" stroke-linecap="round"></path><path d="M 267.571,299.470 C 269.286,303.416 268.939,303.578 270.767,307.464" stroke-width="6.325" stroke="black" fill="none" stroke-linecap="round"></path><path d="M 270.767,307.464 C 272.135,310.373 272.275,310.317 273.963,313.060" stroke-width="6.465" stroke="black" fill="none" stroke-linecap="round"></path><path d="M 273.963,313.060 C 275.471,315.513 274.928,316.639 277.159,317.856" stroke-width="6.707" stroke="black" fill="none" stroke-linecap="round"></path><path d="M 277.159,317.856 C 279.323,319.037 279.955,317.856 282.752,317.856" stroke-width="6.752" stroke="black" fill="none" stroke-linecap="round"></path><path d="M 297.933,153.179 C 298.732,160.773 298.688,160.778 299.531,168.367" stroke-width="8.081" stroke="black" fill="none" stroke-linecap="round"></path><path d="M 299.531,168.367 C 300.685,178.765 300.653,178.769 301.928,189.152" stroke-width="4.748" stroke="black" fill="none" stroke-linecap="round"></path><path d="M 301.928,189.152 C 303.450,201.552 303.473,201.550 305.124,213.934" stroke-width="4.500" stroke="black" fill="none" stroke-linecap="round"></path><path d="M 305.124,213.934 C 306.669,225.532 306.398,225.579 308.320,237.116" stroke-width="4.500" stroke="black" fill="none" stroke-linecap="round"></path><path d="M 308.320,237.116 C 309.993,247.163 310.359,247.101 312.315,257.101" stroke-width="4.500" stroke="black" fill="none" stroke-linecap="round"></path><path d="M 312.315,257.101 C 313.954,265.487 313.343,265.649 315.511,273.889" stroke-width="4.500" stroke="black" fill="none" stroke-linecap="round"></path><path d="M 315.511,273.889 C 317.338,280.837 317.865,280.699 320.305,287.479" stroke-width="4.778" stroke="black" fill="none" stroke-linecap="round"></path><path d="M 320.305,287.479 C 321.461,290.692 321.503,290.676 322.702,293.874" stroke-width="5.820" stroke="black" fill="none" stroke-linecap="round"></path><path d="M 360.255,228.323 C 360.654,233.919 360.359,233.954 361.054,239.514" stroke-width="8.299" stroke="black" fill="none" stroke-linecap="round"></path><path d="M 361.054,239.514 C 361.957,246.744 361.594,246.885 363.451,253.904" stroke-width="5.651" stroke="black" fill="none" stroke-linecap="round"></path><path d="M 363.451,253.904 C 365.189,260.475 364.892,260.879 368.245,266.694" stroke-width="5.069" stroke="black" fill="none" stroke-linecap="round"></path><path d="M 368.245,266.694 C 370.884,271.271 371.880,270.656 375.436,274.688" stroke-width="5.372" stroke="black" fill="none" stroke-linecap="round"></path><path d="M 375.436,274.688 C 377.872,277.451 381.269,281.440 380.230,280.284" stroke-width="5.902" stroke="black" fill="none" stroke-linecap="round"></path><path d="M 426.572,191.550 C 424.574,196.746 423.960,196.579 422.577,201.942" stroke-width="8.163" stroke="black" fill="none" stroke-linecap="round"></path><path d="M 422.577,201.942 C 420.764,208.970 420.571,209.092 420.180,216.332" stroke-width="5.517" stroke="black" fill="none" stroke-linecap="round"></path><path d="M 420.180,216.332 C 419.772,223.881 419.466,224.171 420.979,231.520" stroke-width="4.957" stroke="black" fill="none" stroke-linecap="round"></path><path d="M 420.979,231.520 C 422.263,237.761 421.906,238.783 425.773,243.511" stroke-width="5.066" stroke="black" fill="none" stroke-linecap="round"></path><path d="M 425.773,243.511 C 429.097,247.576 430.167,247.994 435.361,249.107" stroke-width="5.325" stroke="black" fill="none" stroke-linecap="round"></path><path d="M 435.361,249.107 C 441.353,250.392 442.304,250.534 448.145,248.308" stroke-width="5.189" stroke="black" fill="none" stroke-linecap="round"></path><path d="M 448.145,248.308 C 459.083,244.139 459.177,243.220 468.919,236.317" stroke-width="4.500" stroke="black" fill="none" stroke-linecap="round"></path><path d="M 468.919,236.317 C 478.354,229.631 477.942,228.974 486.497,221.128" stroke-width="4.500" stroke="black" fill="none" stroke-linecap="round"></path><path d="M 486.497,221.128 C 492.324,215.784 491.953,215.383 497.683,209.936" stroke-width="4.500" stroke="black" fill="none" stroke-linecap="round"></path><path d="M 497.683,209.936 C 499.943,207.788 502.038,205.939 502.477,205.939" stroke-width="5.728" stroke="black" fill="none" stroke-linecap="round"></path><path d="M 502.477,205.939 C 502.837,205.939 500.946,207.993 499.281,209.936" stroke-width="6.512" stroke="black" fill="none" stroke-linecap="round"></path><path d="M 499.281,209.936 C 488.961,221.983 488.894,221.928 478.507,233.919" stroke-width="4.500" stroke="black" fill="none" stroke-linecap="round"></path><path d="M 218.032,422.578 C 225.623,421.379 225.755,421.989 233.214,420.180" stroke-width="8.067" stroke="black" fill="none" stroke-linecap="round"></path><path d="M 233.214,420.180 C 252.122,415.593 252.368,416.104 270.767,409.787" stroke-width="4.500" stroke="black" fill="none" stroke-linecap="round"></path><path d="M 270.767,409.787 C 293.117,402.114 292.851,401.264 314.712,392.200" stroke-width="4.500" stroke="black" fill="none" stroke-linecap="round"></path><path d="M 314.712,392.200 C 337.196,382.878 337.383,383.253 359.456,373.015" stroke-width="4.500" stroke="black" fill="none" stroke-linecap="round"></path><path d="M 359.456,373.015 C 381.328,362.869 381.206,362.562 402.602,351.431" stroke-width="4.500" stroke="black" fill="none" stroke-linecap="round"></path><path d="M 402.602,351.431 C 421.156,341.778 421.299,341.984 439.356,331.446" stroke-width="4.500" stroke="black" fill="none" stroke-linecap="round"></path><path d="M 439.356,331.446 C 454.857,322.399 454.252,321.363 469.718,312.260" stroke-width="4.500" stroke="black" fill="none" stroke-linecap="round"></path><path d="M 469.718,312.260 C 481.418,305.374 482.062,306.449 493.688,299.470" stroke-width="4.500" stroke="black" fill="none" stroke-linecap="round"></path><path d="M 493.688,299.470 C 502.037,294.458 502.024,294.303 509.668,288.278" stroke-width="4.500" stroke="black" fill="none" stroke-linecap="round"></path><path d="M 509.668,288.278 C 515.208,283.911 515.636,284.111 520.055,278.685" stroke-width="4.502" stroke="black" fill="none" stroke-linecap="round"></path><path d="M 520.055,278.685 C 524.425,273.319 525.025,273.158 527.246,266.694" stroke-width="4.799" stroke="black" fill="none" stroke-linecap="round"></path><path d="M 527.246,266.694 C 529.420,260.368 528.045,259.899 528.844,253.104" stroke-width="4.929" stroke="black" fill="none" stroke-linecap="round"></path></svg>