<svg xmlns="http://www.w3.org/2000/svg" xmlns:xlink="http://www.w3.org/1999/xlink" viewBox="0 0 576 416" width="576" height="416"><path d="M 416.984,133.194 C 412.989,135.192 413.118,135.503 408.994,137.191" stroke-width="8.369" stroke="black" fill="none" stroke-linecap="round"></path><path d="M 408.994,137.191 C 404.328,139.100 404.320,139.533 399.406,140.388" stroke-width="6.255" stroke="black" fill="none" stroke-linecap="round"></path><path d="M 399.406,140.388 C 395.132,141.132 394.970,140.803 390.617,140.388" stroke-width="6.108" stroke="black" fill="none" stroke-linecap="round"></path><path d="M 390.617,140.388 C 386.581,140.004 385.983,140.679 382.627,138.790" stroke-width="6.006" stroke="black" fill="none" stroke-linecap="round"></path><path d="M 382.627,138.790 C 379.591,137.081 379.593,136.364 377.833,133.194" stroke-width="6.194" stroke="black" fill="none" stroke-linecap="round"></path><path d="M 377.833,133.194 C 375.598,129.169 373.787,128.481 374.637,124.400" stroke-width="6.745" stroke="black" fill="none" stroke-linecap="round"></path><path d="M 374.637,124.400 C 375.784,118.888 377.433,118.405 381.828,114.008" stroke-width="6.537" stroke="black" fill="none" stroke-linecap="round"></path><path d="M 381.828,114.008 C 386.222,109.612 386.611,109.505 392.215,106.813" stroke-width="5.510" stroke="black" fill="none" stroke-linecap="round"></path><path d="M 392.215,106.813 C 396.598,104.708 396.933,105.000 401.803,104.415" stroke-width="5.451" stroke="black" fill="none" stroke-linecap="round"></path><path d="M 401.803,104.415 C 406.921,103.801 413.987,105.057 412.190,104.415" stroke-width="5.455" stroke="black" fill="none" stroke-linecap="round"></path><path d="M 412.190,104.415 C 408.394,103.059 401.237,103.112 390.617,100.418" stroke-width="6.221" stroke="black" fill="none" stroke-linecap="round"></path><path d="M 390.617,100.418 C 372.872,95.917 372.816,95.881 355.461,90.026" stroke-width="4.500" stroke="black" fill="none" stroke-linecap="round"></path><path d="M 355.461,90.026 C 338.459,84.290 338.904,82.972 321.903,77.236" stroke-width="4.500" stroke="black" fill="none" stroke-linecap="round"></path><path d="M 321.903,77.236 C 304.547,71.380 304.591,70.855 286.747,66.843" stroke-width="4.500" stroke="black" fill="none" stroke-linecap="round"></path><path d="M 286.747,66.843 C 269.035,62.861 268.878,62.639 250.792,61.247" stroke-width="4.500" stroke="black" fill="none" stroke-linecap="round"></path><path d="M 250.792,61.247 C 232.523,59.841 232.264,59.691 214.037,61.247" stroke-width="4.500" stroke="black" fill="none" stroke-linecap="round"></path><path d="M 214.037,61.247 C 199.505,62.489 199.462,63.294 185.273,66.843" stroke-width="4.500" stroke="black" fill="none" stroke-linecap="round"></path><path d="M 185.273,66.843 C 173.894,69.689 173.852,69.864 162.901,74.038" stroke-width="4.500" stroke="black" fill="none" stroke-linecap="round"></path><path d="M 162.901,74.038 C 157.073,76.259 149.822,79.197 151.715,79.634" stroke-width="4.560" stroke="black" fill="none" stroke-linecap="round"></path><path d="M 151.715,79.634 C 155.016,80.396 162.829,79.426 173.288,76.436" stroke-width="5.207" stroke="black" fill="none" stroke-linecap="round"></path><path d="M 173.288,76.436 C 210.370,65.836 209.897,63.978 246.797,52.454" stroke-width="4.500" stroke="black" fill="none" stroke-linecap="round"></path><path d="M 246.797,52.454 C 279.011,42.394 278.844,41.609 311.516,33.268" stroke-width="4.500" stroke="black" fill="none" stroke-linecap="round"></path><path d="M 311.516,33.268 C 336.772,26.820 336.940,27.164 362.652,22.876" stroke-width="4.500" stroke="black" fill="none" stroke-linecap="round"></path><path d="M 362.652,22.876 C 380.086,19.969 380.302,19.153 397.808,18.879" stroke-width="4.500" stroke="black" fill="none" stroke-linecap="round"></path><path d="M 397.808,18.879 C 405.871,18.753 409.691,18.798 413.788,22.077" stroke-width="4.500" stroke="black" fill="none" stroke-linecap="round"></path><path d="M 413.788,22.077 C 415.683,23.594 412.974,26.586 409.793,28.472" stroke-width="5.707" stroke="black" fill="none" stroke-linecap="round"></path><path d="M 409.793,28.472 C 391.401,39.376 390.429,38.520 370.642,47.658" stroke-width="4.500" stroke="black" fill="none" stroke-linecap="round"></path><path d="M 370.642,47.658 C 343.688,60.104 343.393,59.465 316.310,71.640" stroke-width="4.500" stroke="black" fill="none" stroke-linecap="round"></path><path d="M 316.310,71.640 C 288.262,84.247 288.050,83.825 260.380,97.221" stroke-width="4.500" stroke="black" fill="none" stroke-linecap="round"></path><path d="M 260.380,97.221 C 238.511,107.807 238.398,107.693 217.233,119.604" stroke-width="4.500" stroke="black" fill="none" stroke-linecap="round"></path><path d="M 217.233,119.604 C 200.046,129.277 199.807,129.091 183.675,140.388" stroke-width="4.500" stroke="black" fill="none" stroke-linecap="round"></path><path d="M 183.675,140.388 C 171.841,148.676 171.856,148.921 161.303,158.775" stroke-width="4.500" stroke="black" fill="none" stroke-linecap="round"></path><path d="M 161.303,158.775 C 153.878,165.708 153.589,165.743 147.720,173.963" stroke-width="4.500" stroke="black" fill="none" stroke-linecap="round"></path><path d="M 147.720,173.963 C 143.602,179.732 144.745,180.487 141.328,186.754" stroke-width="4.500" stroke="black" fill="none" stroke-linecap="round"></path><path d="M 342.677,143.586 C 331.091,145.584 330.767,144.344 319.506,147.583" stroke-width="5.511" stroke="black" fill="none" stroke-linecap="round"></path><path d="M 319.506,147.583 C 298.807,153.537 298.705,153.725 278.757,161.972" stroke-width="4.500" stroke="black" fill="none" stroke-linecap="round"></path><path d="M 278.757,161.972 C 250.366,173.710 249.908,173.090 222.826,187.553" stroke-width="4.500" stroke="black" fill="none" stroke-linecap="round"></path><path d="M 222.826,187.553 C 190.782,204.666 191.665,206.339 160.504,225.125" stroke-width="4.500" stroke="black" fill="none" stroke-linecap="round"></path></svg>