<svg xmlns="http://www.w3.org/2000/svg" xmlns:xlink="http://www.w3.org/1999/xlink" viewBox="0 0 576 416" width="576" height="416"><path d="M 64.624,125.999 C 65.823,132.394 66.254,132.338 67.021,138.790" stroke-width="7.977" stroke="black" fill="none" stroke-linecap="round"></path><path d="M 67.021,138.790 C 68.251,149.125 67.548,149.209 68.619,159.574" stroke-width="4.745" stroke="black" fill="none" stroke-linecap="round"></path><path d="M 68.619,159.574 C 69.945,172.392 70.217,172.365 71.815,185.155" stroke-width="4.500" stroke="black" fill="none" stroke-linecap="round"></path><path d="M 71.815,185.155 C 73.413,197.945 73.166,197.981 75.011,210.736" stroke-width="4.500" stroke="black" fill="none" stroke-linecap="round"></path><path d="M 75.011,210.736 C 77.561,228.358 76.883,228.537 80.604,245.910" stroke-width="4.500" stroke="black" fill="none" stroke-linecap="round"></path><path d="M 80.604,245.910 C 82.876,256.516 83.360,256.462 86.996,266.694" stroke-width="4.500" stroke="black" fill="none" stroke-linecap="round"></path><path d="M 86.996,266.694 C 89.752,274.448 90.417,274.204 93.388,281.883" stroke-width="4.500" stroke="black" fill="none" stroke-linecap="round"></path><path d="M 93.388,281.883 C 95.211,286.595 97.465,293.569 96.584,291.476" stroke-width="5.127" stroke="black" fill="none" stroke-linecap="round"></path><path d="M 139.730,166.769 C 139.730,171.165 139.428,171.182 139.730,175.562" stroke-width="8.150" stroke="black" fill="none" stroke-linecap="round"></path><path d="M 139.730,175.562 C 140.227,182.773 140.788,182.737 141.328,189.951" stroke-width="5.530" stroke="black" fill="none" stroke-linecap="round"></path><path d="M 141.328,189.951 C 141.986,198.725 142.127,198.746 142.127,207.538" stroke-width="4.704" stroke="black" fill="none" stroke-linecap="round"></path><path d="M 142.127,207.538 C 142.127,215.533 141.785,215.536 141.328,223.526" stroke-width="4.656" stroke="black" fill="none" stroke-linecap="round"></path><path d="M 141.328,223.526 C 140.986,229.525 141.830,229.793 140.529,235.517" stroke-width="5.224" stroke="black" fill="none" stroke-linecap="round"></path><path d="M 140.529,235.517 C 139.832,238.587 139.514,240.240 137.333,241.113" stroke-width="6.072" stroke="black" fill="none" stroke-linecap="round"></path><path d="M 137.333,241.113 C 135.519,241.839 134.656,240.303 132.539,238.715" stroke-width="7.132" stroke="black" fill="none" stroke-linecap="round"></path><path d="M 132.539,238.715 C 129.862,236.706 130.043,236.409 127.745,233.919" stroke-width="6.705" stroke="black" fill="none" stroke-linecap="round"></path><path d="M 127.745,233.919 C 125.249,231.213 125.448,231.029 122.951,228.323" stroke-width="6.316" stroke="black" fill="none" stroke-linecap="round"></path><path d="M 122.951,228.323 C 120.654,225.832 120.749,225.687 118.157,223.526" stroke-width="6.398" stroke="black" fill="none" stroke-linecap="round"></path><path d="M 118.157,223.526 C 115.955,221.690 115.815,221.838 113.363,220.329" stroke-width="6.621" stroke="black" fill="none" stroke-linecap="round"></path><path d="M 113.363,220.329 C 110.622,218.641 110.680,218.490 107.770,217.131" stroke-width="6.555" stroke="black" fill="none" stroke-linecap="round"></path><path d="M 107.770,217.131 C 104.687,215.692 104.683,215.468 101.378,214.733" stroke-width="6.461" stroke="black" fill="none" stroke-linecap="round"></path><path d="M 101.378,214.733 C 97.492,213.869 97.394,214.124 93.388,213.934" stroke-width="6.213" stroke="black" fill="none" stroke-linecap="round"></path><path d="M 93.388,213.934 C 89.004,213.725 88.982,213.714 84.599,213.934" stroke-width="6.014" stroke="black" fill="none" stroke-linecap="round"></path><path d="M 84.599,213.934 C 80.992,214.114 80.971,214.139 77.408,214.733" stroke-width="6.220" stroke="black" fill="none" stroke-linecap="round"></path><path d="M 77.408,214.733 C 73.780,215.338 73.580,214.986 70.217,216.332" stroke-width="6.261" stroke="black" fill="none" stroke-linecap="round"></path><path d="M 70.217,216.332 C 67.587,217.384 67.751,217.836 65.423,219.529" stroke-width="6.577" stroke="black" fill="none" stroke-linecap="round"></path><path d="M 65.423,219.529 C 63.356,221.033 62.421,220.575 61.428,222.727" stroke-width="6.812" stroke="black" fill="none" stroke-linecap="round"></path><path d="M 61.428,222.727 C 60.024,225.771 58.917,227.524 60.629,229.922" stroke-width="7.227" stroke="black" fill="none" stroke-linecap="round"></path><path d="M 60.629,229.922 C 62.912,233.120 64.799,232.956 69.418,233.919" stroke-width="7.040" stroke="black" fill="none" stroke-linecap="round"></path><path d="M 69.418,233.919 C 74.387,234.954 74.707,234.691 79.805,233.919" stroke-width="5.955" stroke="black" fill="none" stroke-linecap="round"></path><path d="M 79.805,233.919 C 87.890,232.693 87.949,232.408 95.785,229.922" stroke-width="4.914" stroke="black" fill="none" stroke-linecap="round"></path><path d="M 95.785,229.922 C 104.328,227.211 104.429,227.266 112.564,223.526" stroke-width="4.621" stroke="black" fill="none" stroke-linecap="round"></path><path d="M 112.564,223.526 C 119.210,220.471 118.968,219.949 125.348,216.332" stroke-width="4.673" stroke="black" fill="none" stroke-linecap="round"></path><path d="M 125.348,216.332 C 130.953,213.154 131.012,213.251 136.534,209.936" stroke-width="5.059" stroke="black" fill="none" stroke-linecap="round"></path><path d="M 136.534,209.936 C 141.000,207.256 140.784,206.864 145.323,204.341" stroke-width="5.413" stroke="black" fill="none" stroke-linecap="round"></path><path d="M 145.323,204.341 C 147.975,202.867 148.057,202.147 150.916,201.942" stroke-width="6.210" stroke="black" fill="none" stroke-linecap="round"></path><path d="M 150.916,201.942 C 153.650,201.747 154.431,201.877 156.509,203.541" stroke-width="7.409" stroke="black" fill="none" stroke-linecap="round"></path><path d="M 156.509,203.541 C 158.426,205.075 158.065,205.813 158.906,208.338" stroke-width="7.003" stroke="black" fill="none" stroke-linecap="round"></path><path d="M 158.906,208.338 C 160.063,211.808 159.410,212.030 160.504,215.532" stroke-width="6.479" stroke="black" fill="none" stroke-linecap="round"></path><path d="M 160.504,215.532 C 161.408,218.425 161.201,218.670 162.901,221.128" stroke-width="6.507" stroke="black" fill="none" stroke-linecap="round"></path><path d="M 162.901,221.128 C 164.796,223.866 165.104,225.492 167.695,225.924" stroke-width="7.197" stroke="black" fill="none" stroke-linecap="round"></path><path d="M 167.695,225.924 C 169.898,226.292 170.492,224.725 172.489,222.727" stroke-width="7.516" stroke="black" fill="none" stroke-linecap="round"></path><path d="M 172.489,222.727 C 174.487,220.728 173.781,220.048 175.685,217.931" stroke-width="7.013" stroke="black" fill="none" stroke-linecap="round"></path><path d="M 175.685,217.931 C 177.376,216.051 177.798,216.460 179.680,214.733" stroke-width="6.946" stroke="black" fill="none" stroke-linecap="round"></path><path d="M 179.680,214.733 C 182.592,212.063 181.963,210.172 185.273,209.137" stroke-width="7.218" stroke="black" fill="none" stroke-linecap="round"></path><path d="M 185.273,209.137 C 188.355,208.173 189.694,208.817 192.464,210.736" stroke-width="7.645" stroke="black" fill="none" stroke-linecap="round"></path><path d="M 192.464,210.736 C 194.888,212.414 194.081,213.523 195.660,216.332" stroke-width="6.826" stroke="black" fill="none" stroke-linecap="round"></path><path d="M 195.660,216.332 C 197.677,219.918 197.818,219.849 199.655,223.526" stroke-width="6.274" stroke="black" fill="none" stroke-linecap="round"></path><path d="M 199.655,223.526 C 201.413,227.044 201.253,227.124 202.851,230.721" stroke-width="6.265" stroke="black" fill="none" stroke-linecap="round"></path><path d="M 202.851,230.721 C 204.449,234.318 204.290,234.399 206.047,237.916" stroke-width="6.100" stroke="black" fill="none" stroke-linecap="round"></path><path d="M 206.047,237.916 C 207.486,240.794 207.900,240.600 209.243,243.511" stroke-width="6.392" stroke="black" fill="none" stroke-linecap="round"></path><path d="M 209.243,243.511 C 210.297,245.796 209.657,246.106 210.841,248.308" stroke-width="6.764" stroke="black" fill="none" stroke-linecap="round"></path><path d="M 210.841,248.308 C 212.453,251.302 213.926,254.967 214.836,253.904" stroke-width="7.254" stroke="black" fill="none" stroke-linecap="round"></path><path d="M 214.836,253.904 C 216.323,252.169 215.392,248.313 215.635,242.712" stroke-width="7.578" stroke="black" fill="none" stroke-linecap="round"></path><path d="M 215.635,242.712 C 215.792,239.120 215.635,239.115 215.635,235.517" stroke-width="6.654" stroke="black" fill="none" stroke-linecap="round"></path><path d="M 215.635,235.517 C 215.635,231.920 215.447,231.911 215.635,228.323" stroke-width="6.419" stroke="black" fill="none" stroke-linecap="round"></path><path d="M 215.635,228.323 C 215.846,224.316 216.212,224.335 216.434,220.329" stroke-width="6.280" stroke="black" fill="none" stroke-linecap="round"></path><path d="M 216.434,220.329 C 216.612,217.140 216.118,217.105 216.434,213.934" stroke-width="6.384" stroke="black" fill="none" stroke-linecap="round"></path><path d="M 216.434,213.934 C 216.916,209.111 217.345,209.153 218.032,204.341" stroke-width="6.802" stroke="black" fill="none" stroke-linecap="round"></path><path d="M 218.032,204.341 C 218.544,200.759 219.071,195.711 218.832,197.146" stroke-width="7.223" stroke="black" fill="none" stroke-linecap="round"></path><path d="M 218.832,197.146 C 218.272,200.508 216.079,214.822 216.434,213.934" stroke-width="10.009" stroke="black" fill="none" stroke-linecap="round"></path><path d="M 216.434,213.934 C 216.878,212.824 219.239,198.212 220.429,193.149" stroke-width="8.217" stroke="black" fill="none" stroke-linecap="round"></path><path d="M 220.429,193.149 C 220.837,191.417 220.743,197.006 219.630,200.344" stroke-width="8.174" stroke="black" fill="none" stroke-linecap="round"></path><path d="M 219.630,200.344 C 218.745,203.001 218.211,202.878 216.434,205.140" stroke-width="7.100" stroke="black" fill="none" stroke-linecap="round"></path><path d="M 216.434,205.140 C 213.816,208.474 213.833,208.542 210.841,211.535" stroke-width="7.108" stroke="black" fill="none" stroke-linecap="round"></path><path d="M 210.841,211.535 C 209.039,213.338 205.875,214.317 206.846,214.733" stroke-width="7.594" stroke="black" fill="none" stroke-linecap="round"></path><path d="M 206.846,214.733 C 208.672,215.516 211.820,215.033 216.434,213.934" stroke-width="7.937" stroke="black" fill="none" stroke-linecap="round"></path><path d="M 216.434,213.934 C 220.209,213.034 220.030,212.335 223.625,210.736" stroke-width="6.597" stroke="black" fill="none" stroke-linecap="round"></path><path d="M 223.625,210.736 C 227.221,209.137 227.475,209.544 230.816,207.538" stroke-width="6.279" stroke="black" fill="none" stroke-linecap="round"></path><path d="M 230.816,207.538 C 233.467,205.947 233.118,205.412 235.611,203.541" stroke-width="6.556" stroke="black" fill="none" stroke-linecap="round"></path><path d="M 235.611,203.541 C 237.912,201.814 238.008,201.942 240.405,200.344" stroke-width="6.599" stroke="black" fill="none" stroke-linecap="round"></path><path d="M 240.405,200.344 C 242.802,198.745 243.313,196.580 245.199,197.146" stroke-width="7.330" stroke="black" fill="none" stroke-linecap="round"></path><path d="M 245.199,197.146 C 247.308,197.779 247.026,199.833 248.395,202.742" stroke-width="7.932" stroke="black" fill="none" stroke-linecap="round"></path><path d="M 248.395,202.742 C 250.222,206.628 248.848,208.678 251.591,210.736" stroke-width="7.391" stroke="black" fill="none" stroke-linecap="round"></path><path d="M 251.591,210.736 C 253.642,212.276 255.311,211.273 257.983,209.936" stroke-width="7.812" stroke="black" fill="none" stroke-linecap="round"></path><path d="M 257.983,209.936 C 260.105,208.875 259.227,207.501 261.179,205.939" stroke-width="7.775" stroke="black" fill="none" stroke-linecap="round"></path><path d="M 261.179,205.939 C 263.222,204.304 263.540,203.541 265.973,203.541" stroke-width="8.170" stroke="black" fill="none" stroke-linecap="round"></path><path d="M 265.973,203.541 C 268.734,203.541 269.340,207.118 271.566,205.939" stroke-width="8.233" stroke="black" fill="none" stroke-linecap="round"></path><path d="M 271.566,205.939 C 276.131,203.521 276.154,201.541 279.556,196.347" stroke-width="7.044" stroke="black" fill="none" stroke-linecap="round"></path><path d="M 279.556,196.347 C 283.745,189.950 283.222,189.588 286.747,182.757" stroke-width="5.125" stroke="black" fill="none" stroke-linecap="round"></path><path d="M 286.747,182.757 C 289.614,177.198 289.543,177.161 292.340,171.565" stroke-width="5.167" stroke="black" fill="none" stroke-linecap="round"></path><path d="M 292.340,171.565 C 293.938,168.367 293.450,168.016 295.536,165.170" stroke-width="5.933" stroke="black" fill="none" stroke-linecap="round"></path><path d="M 295.536,165.170 C 297.844,162.020 298.529,159.203 301.129,159.574" stroke-width="6.829" stroke="black" fill="none" stroke-linecap="round"></path><path d="M 301.129,159.574 C 304.122,160.002 304.409,162.913 306.722,166.769" stroke-width="7.374" stroke="black" fill="none" stroke-linecap="round"></path><path d="M 306.722,166.769 C 308.005,168.908 307.940,169.099 308.320,171.565" stroke-width="7.063" stroke="black" fill="none" stroke-linecap="round"></path><path d="M 308.320,171.565 C 308.739,174.295 308.320,174.363 308.320,177.161" stroke-width="6.856" stroke="black" fill="none" stroke-linecap="round"></path><path d="M 308.320,177.161 C 308.320,179.959 308.711,180.014 308.320,182.757" stroke-width="6.796" stroke="black" fill="none" stroke-linecap="round"></path><path d="M 308.320,182.757 C 307.912,185.609 307.577,185.572 306.722,188.353" stroke-width="6.800" stroke="black" fill="none" stroke-linecap="round"></path><path d="M 306.722,188.353 C 305.979,190.768 305.923,190.751 305.124,193.149" stroke-width="6.827" stroke="black" fill="none" stroke-linecap="round"></path><path d="M 305.124,193.149 C 303.925,196.746 303.642,196.680 302.727,200.344" stroke-width="7.191" stroke="black" fill="none" stroke-linecap="round"></path><path d="M 302.727,200.344 C 302.044,203.075 300.729,204.740 301.928,205.939" stroke-width="7.805" stroke="black" fill="none" stroke-linecap="round"></path><path d="M 301.928,205.939 C 303.126,207.138 304.927,206.149 307.521,205.140" stroke-width="7.744" stroke="black" fill="none" stroke-linecap="round"></path><path d="M 307.521,205.140 C 312.118,203.351 312.003,202.890 316.310,200.344" stroke-width="6.160" stroke="black" fill="none" stroke-linecap="round"></path><path d="M 316.310,200.344 C 320.792,197.694 320.617,197.398 325.099,194.748" stroke-width="5.742" stroke="black" fill="none" stroke-linecap="round"></path><path d="M 325.099,194.748 C 329.406,192.201 329.413,192.190 333.888,189.951" stroke-width="5.687" stroke="black" fill="none" stroke-linecap="round"></path><path d="M 333.888,189.951 C 338.202,187.793 338.315,188.021 342.677,185.954" stroke-width="5.806" stroke="black" fill="none" stroke-linecap="round"></path><path d="M 342.677,185.954 C 345.905,184.424 345.792,184.162 349.069,182.757" stroke-width="6.090" stroke="black" fill="none" stroke-linecap="round"></path><path d="M 349.069,182.757 C 351.385,181.763 351.435,181.852 353.863,181.158" stroke-width="6.660" stroke="black" fill="none" stroke-linecap="round"></path><path d="M 353.863,181.158 C 357.028,180.253 357.556,178.884 360.255,179.559" stroke-width="7.252" stroke="black" fill="none" stroke-linecap="round"></path><path d="M 360.255,179.559 C 362.350,180.083 362.502,181.277 363.451,183.556" stroke-width="8.231" stroke="black" fill="none" stroke-linecap="round"></path><path d="M 363.451,183.556 C 364.499,186.073 363.659,186.395 364.250,189.152" stroke-width="7.138" stroke="black" fill="none" stroke-linecap="round"></path><path d="M 364.250,189.152 C 364.858,191.991 364.808,192.043 365.848,194.748" stroke-width="6.829" stroke="black" fill="none" stroke-linecap="round"></path><path d="M 365.848,194.748 C 366.806,197.240 366.814,197.295 368.245,199.544" stroke-width="6.838" stroke="black" fill="none" stroke-linecap="round"></path><path d="M 368.245,199.544 C 369.610,201.691 369.384,202.232 371.441,203.541" stroke-width="6.956" stroke="black" fill="none" stroke-linecap="round"></path><path d="M 371.441,203.541 C 373.779,205.030 374.244,205.304 377.034,205.140" stroke-width="7.428" stroke="black" fill="none" stroke-linecap="round"></path><path d="M 377.034,205.140 C 381.035,204.905 381.135,204.224 385.024,202.742" stroke-width="7.189" stroke="black" fill="none" stroke-linecap="round"></path><path d="M 385.024,202.742 C 389.525,201.026 389.446,200.801 393.813,198.745" stroke-width="7.153" stroke="black" fill="none" stroke-linecap="round"></path><path d="M 393.813,198.745 C 396.237,197.603 396.809,195.747 398.607,196.347" stroke-width="7.819" stroke="black" fill="none" stroke-linecap="round"></path><path d="M 398.607,196.347 C 400.405,196.946 399.058,199.781 401.004,201.143" stroke-width="8.184" stroke="black" fill="none" stroke-linecap="round"></path><path d="M 401.004,201.143 C 403.053,202.579 403.966,202.562 406.597,201.942" stroke-width="7.828" stroke="black" fill="none" stroke-linecap="round"></path><path d="M 406.597,201.942 C 410.757,200.963 410.764,200.240 414.587,197.945" stroke-width="6.370" stroke="black" fill="none" stroke-linecap="round"></path><path d="M 414.587,197.945 C 420.751,194.245 420.664,194.071 426.572,189.951" stroke-width="5.242" stroke="black" fill="none" stroke-linecap="round"></path><path d="M 426.572,189.951 C 433.848,184.878 433.751,184.739 440.954,179.559" stroke-width="4.724" stroke="black" fill="none" stroke-linecap="round"></path><path d="M 440.954,179.559 C 446.535,175.546 446.614,175.652 452.140,171.565" stroke-width="4.897" stroke="black" fill="none" stroke-linecap="round"></path><path d="M 452.140,171.565 C 455.802,168.857 455.749,168.785 459.331,165.969" stroke-width="5.455" stroke="black" fill="none" stroke-linecap="round"></path><path d="M 459.331,165.969 C 461.342,164.388 463.185,161.782 463.326,162.772" stroke-width="6.403" stroke="black" fill="none" stroke-linecap="round"></path><path d="M 463.326,162.772 C 463.584,164.580 461.969,167.272 460.130,171.565" stroke-width="7.398" stroke="black" fill="none" stroke-linecap="round"></path><path d="M 460.130,171.565 C 458.373,175.666 457.966,175.488 456.135,179.559" stroke-width="6.181" stroke="black" fill="none" stroke-linecap="round"></path><path d="M 456.135,179.559 C 454.371,183.482 454.498,183.541 452.939,187.553" stroke-width="6.035" stroke="black" fill="none" stroke-linecap="round"></path><path d="M 452.939,187.553 C 451.702,190.736 451.690,190.733 450.542,193.948" stroke-width="6.300" stroke="black" fill="none" stroke-linecap="round"></path><path d="M 450.542,193.948 C 449.692,196.329 448.151,199.273 448.944,198.745" stroke-width="6.733" stroke="black" fill="none" stroke-linecap="round"></path><path d="M 448.944,198.745 C 450.548,197.675 452.732,195.093 455.336,190.751" stroke-width="7.460" stroke="black" fill="none" stroke-linecap="round"></path><path d="M 455.336,190.751 C 457.526,187.099 456.972,186.769 458.532,182.757" stroke-width="6.354" stroke="black" fill="none" stroke-linecap="round"></path><path d="M 458.532,182.757 C 459.769,179.574 459.199,176.554 460.929,176.362" stroke-width="6.400" stroke="black" fill="none" stroke-linecap="round"></path><path d="M 460.929,176.362 C 462.795,176.154 463.951,178.806 465.723,181.957" stroke-width="7.514" stroke="black" fill="none" stroke-linecap="round"></path><path d="M 465.723,181.957 C 467.546,185.201 466.444,185.798 468.120,189.152" stroke-width="6.562" stroke="black" fill="none" stroke-linecap="round"></path><path d="M 468.120,189.152 C 469.640,192.193 469.640,192.478 472.115,194.748" stroke-width="6.454" stroke="black" fill="none" stroke-linecap="round"></path><path d="M 472.115,194.748 C 474.434,196.875 474.711,196.946 477.708,197.945" stroke-width="6.504" stroke="black" fill="none" stroke-linecap="round"></path><path d="M 477.708,197.945 C 480.704,198.945 480.997,199.133 484.100,198.745" stroke-width="6.590" stroke="black" fill="none" stroke-linecap="round"></path><path d="M 484.100,198.745 C 487.389,198.334 487.337,197.646 490.492,196.347" stroke-width="6.390" stroke="black" fill="none" stroke-linecap="round"></path><path d="M 490.492,196.347 C 494.129,194.848 494.417,195.263 497.683,193.149" stroke-width="6.222" stroke="black" fill="none" stroke-linecap="round"></path><path d="M 497.683,193.149 C 501.208,190.867 500.879,190.351 504.075,187.553" stroke-width="6.066" stroke="black" fill="none" stroke-linecap="round"></path></svg>