<svg xmlns="http://www.w3.org/2000/svg" xmlns:xlink="http://www.w3.org/1999/xlink" viewBox="0 0 576 416" width="576" height="416"><path d="M 372.240,239.514 C 375.436,236.317 374.985,234.579 378.632,233.119" stroke-width="8.819" stroke="black" fill="none" stroke-linecap="round"></path><path d="M 378.632,233.119 C 380.978,232.180 382.799,232.884 384.225,234.718" stroke-width="8.287" stroke="black" fill="none" stroke-linecap="round"></path><path d="M 384.225,234.718 C 385.596,236.482 384.854,237.637 384.225,240.314" stroke-width="7.911" stroke="black" fill="none" stroke-linecap="round"></path><path d="M 384.225,240.314 C 383.256,244.432 383.311,244.719 381.029,248.308" stroke-width="6.347" stroke="black" fill="none" stroke-linecap="round"></path><path d="M 381.029,248.308 C 377.718,253.512 377.181,253.238 373.039,257.901" stroke-width="5.490" stroke="black" fill="none" stroke-linecap="round"></path><path d="M 373.039,257.901 C 370.789,260.433 370.702,260.361 368.245,262.697" stroke-width="6.046" stroke="black" fill="none" stroke-linecap="round"></path><path d="M 368.245,262.697 C 362.712,267.956 362.929,268.229 357.059,273.089" stroke-width="5.070" stroke="black" fill="none" stroke-linecap="round"></path><path d="M 357.059,273.089 C 351.344,277.822 351.250,277.763 345.074,281.883" stroke-width="4.879" stroke="black" fill="none" stroke-linecap="round"></path><path d="M 345.074,281.883 C 339.265,285.757 339.320,285.960 333.089,289.077" stroke-width="5.008" stroke="black" fill="none" stroke-linecap="round"></path><path d="M 333.089,289.077 C 327.335,291.956 327.219,291.834 321.104,293.874" stroke-width="4.887" stroke="black" fill="none" stroke-linecap="round"></path><path d="M 321.104,293.874 C 312.837,296.631 312.833,297.122 304.325,298.670" stroke-width="4.748" stroke="black" fill="none" stroke-linecap="round"></path><path d="M 304.325,298.670 C 299.650,299.521 299.446,299.194 294.737,298.670" stroke-width="5.411" stroke="black" fill="none" stroke-linecap="round"></path><path d="M 294.737,298.670 C 292.255,298.394 292.259,298.065 289.943,297.071" stroke-width="6.396" stroke="black" fill="none" stroke-linecap="round"></path><path d="M 289.943,297.071 C 286.666,295.667 286.591,295.733 283.551,293.874" stroke-width="6.354" stroke="black" fill="none" stroke-linecap="round"></path><path d="M 283.551,293.874 C 279.400,291.336 279.292,291.389 275.561,288.278" stroke-width="6.063" stroke="black" fill="none" stroke-linecap="round"></path><path d="M 275.561,288.278 C 272.101,285.394 272.051,285.343 269.169,281.883" stroke-width="5.930" stroke="black" fill="none" stroke-linecap="round"></path><path d="M 269.169,281.883 C 266.058,278.149 265.985,278.107 263.576,273.889" stroke-width="5.780" stroke="black" fill="none" stroke-linecap="round"></path><path d="M 263.576,273.889 C 261.191,269.713 261.225,269.620 259.581,265.095" stroke-width="5.752" stroke="black" fill="none" stroke-linecap="round"></path><path d="M 259.581,265.095 C 258.029,260.826 257.961,260.773 257.184,256.302" stroke-width="5.826" stroke="black" fill="none" stroke-linecap="round"></path><path d="M 257.184,256.302 C 256.363,251.580 256.385,251.504 256.385,246.709" stroke-width="5.770" stroke="black" fill="none" stroke-linecap="round"></path><path d="M 256.385,246.709 C 256.385,242.311 256.461,242.252 257.184,237.916" stroke-width="5.877" stroke="black" fill="none" stroke-linecap="round"></path><path d="M 257.184,237.916 C 257.660,235.057 257.644,234.975 258.782,232.320" stroke-width="6.289" stroke="black" fill="none" stroke-linecap="round"></path><path d="M 258.782,232.320 C 260.041,229.379 260.290,229.467 261.978,226.724" stroke-width="6.453" stroke="black" fill="none" stroke-linecap="round"></path><path d="M 261.978,226.724 C 263.486,224.271 263.176,223.926 265.174,221.928" stroke-width="6.704" stroke="black" fill="none" stroke-linecap="round"></path><path d="M 265.174,221.928 C 267.171,219.929 267.383,219.923 269.968,218.730" stroke-width="6.643" stroke="black" fill="none" stroke-linecap="round"></path><path d="M 269.968,218.730 C 272.577,217.525 272.704,217.290 275.561,217.131" stroke-width="6.687" stroke="black" fill="none" stroke-linecap="round"></path><path d="M 275.561,217.131 C 279.895,216.890 280.307,216.582 284.350,217.931" stroke-width="7.030" stroke="black" fill="none" stroke-linecap="round"></path><path d="M 284.350,217.931 C 287.498,218.981 288.081,219.219 289.943,221.928" stroke-width="7.343" stroke="black" fill="none" stroke-linecap="round"></path><path d="M 289.943,221.928 C 292.476,225.614 292.965,226.216 293.139,230.721" stroke-width="7.108" stroke="black" fill="none" stroke-linecap="round"></path><path d="M 293.139,230.721 C 293.365,236.608 292.898,237.101 290.742,242.712" stroke-width="6.795" stroke="black" fill="none" stroke-linecap="round"></path><path d="M 290.742,242.712 C 288.903,247.494 288.295,247.374 285.149,251.505" stroke-width="5.794" stroke="black" fill="none" stroke-linecap="round"></path><path d="M 285.149,251.505 C 281.903,255.768 282.015,256.049 277.958,259.499" stroke-width="5.594" stroke="black" fill="none" stroke-linecap="round"></path><path d="M 277.958,259.499 C 274.025,262.843 273.730,262.606 269.169,265.095" stroke-width="5.584" stroke="black" fill="none" stroke-linecap="round"></path><path d="M 269.169,265.095 C 264.941,267.402 264.912,267.505 260.380,269.092" stroke-width="5.692" stroke="black" fill="none" stroke-linecap="round"></path><path d="M 260.380,269.092 C 256.922,270.303 256.825,270.263 253.189,270.691" stroke-width="6.161" stroke="black" fill="none" stroke-linecap="round"></path><path d="M 253.189,270.691 C 250.033,271.062 249.186,271.995 246.797,270.691" stroke-width="6.347" stroke="black" fill="none" stroke-linecap="round"></path><path d="M 246.797,270.691 C 244.792,269.597 244.400,268.396 244.400,265.895" stroke-width="7.506" stroke="black" fill="none" stroke-linecap="round"></path><path d="M 244.400,265.895 C 244.400,262.001 244.887,261.509 246.797,257.901" stroke-width="7.365" stroke="black" fill="none" stroke-linecap="round"></path><path d="M 246.797,257.901 C 248.482,254.714 252.272,251.350 251.591,252.305" stroke-width="7.330" stroke="black" fill="none" stroke-linecap="round"></path><path d="M 251.591,252.305 C 250.275,254.148 247.878,258.638 242.802,263.496" stroke-width="7.592" stroke="black" fill="none" stroke-linecap="round"></path><path d="M 242.802,263.496 C 238.690,267.431 238.149,266.929 233.214,269.892" stroke-width="5.881" stroke="black" fill="none" stroke-linecap="round"></path><path d="M 233.214,269.892 C 228.161,272.925 228.140,272.945 222.826,275.488" stroke-width="5.472" stroke="black" fill="none" stroke-linecap="round"></path><path d="M 222.826,275.488 C 218.951,277.342 218.815,277.046 214.836,278.685" stroke-width="5.889" stroke="black" fill="none" stroke-linecap="round"></path><path d="M 214.836,278.685 C 212.023,279.844 211.911,281.289 209.243,281.083" stroke-width="6.317" stroke="black" fill="none" stroke-linecap="round"></path><path d="M 209.243,281.083 C 206.717,280.889 205.070,279.956 204.449,277.886" stroke-width="7.243" stroke="black" fill="none" stroke-linecap="round"></path><path d="M 204.449,277.886 C 203.872,275.959 207.649,273.089 206.846,273.089" stroke-width="7.841" stroke="black" fill="none" stroke-linecap="round"></path><path d="M 206.846,273.089 C 205.651,273.089 203.717,275.582 200.454,277.886" stroke-width="8.107" stroke="black" fill="none" stroke-linecap="round"></path><path d="M 200.454,277.886 C 196.925,280.378 196.926,280.392 193.263,282.682" stroke-width="6.480" stroke="black" fill="none" stroke-linecap="round"></path><path d="M 193.263,282.682 C 190.534,284.389 190.664,285.024 187.670,285.880" stroke-width="6.583" stroke="black" fill="none" stroke-linecap="round"></path><path d="M 187.670,285.880 C 185.071,286.623 182.668,287.061 182.077,285.880" stroke-width="7.345" stroke="black" fill="none" stroke-linecap="round"></path><path d="M 182.077,285.880 C 181.469,284.663 186.378,281.873 185.273,281.083" stroke-width="7.980" stroke="black" fill="none" stroke-linecap="round"></path><path d="M 185.273,281.083 C 183.582,279.874 180.834,281.186 176.484,281.883" stroke-width="7.762" stroke="black" fill="none" stroke-linecap="round"></path><path d="M 176.484,281.883 C 170.846,282.785 170.907,283.159 165.298,284.281" stroke-width="5.925" stroke="black" fill="none" stroke-linecap="round"></path><path d="M 165.298,284.281 C 158.922,285.557 158.937,285.675 152.514,286.679" stroke-width="5.321" stroke="black" fill="none" stroke-linecap="round"></path><path d="M 152.514,286.679 C 146.153,287.674 146.142,287.695 139.730,288.278" stroke-width="5.179" stroke="black" fill="none" stroke-linecap="round"></path><path d="M 139.730,288.278 C 132.959,288.894 132.938,289.077 126.147,289.077" stroke-width="5.141" stroke="black" fill="none" stroke-linecap="round"></path><path d="M 126.147,289.077 C 119.755,289.077 119.739,288.858 113.363,288.278" stroke-width="5.135" stroke="black" fill="none" stroke-linecap="round"></path><path d="M 113.363,288.278 C 106.556,287.659 106.531,287.735 99.780,286.679" stroke-width="4.934" stroke="black" fill="none" stroke-linecap="round"></path><path d="M 99.780,286.679 C 93.747,285.736 93.831,285.176 87.795,284.281" stroke-width="5.141" stroke="black" fill="none" stroke-linecap="round"></path><path d="M 87.795,284.281 C 83.044,283.577 82.966,284.131 78.207,283.482" stroke-width="5.551" stroke="black" fill="none" stroke-linecap="round"></path><path d="M 78.207,283.482 C 74.177,282.932 74.244,282.357 70.217,281.883" stroke-width="5.987" stroke="black" fill="none" stroke-linecap="round"></path><path d="M 70.217,281.883 C 67.453,281.557 67.009,280.889 64.624,281.883" stroke-width="6.516" stroke="black" fill="none" stroke-linecap="round"></path><path d="M 64.624,281.883 C 62.215,282.887 59.522,284.772 60.629,285.880" stroke-width="7.292" stroke="black" fill="none" stroke-linecap="round"></path><path d="M 60.629,285.880 C 62.718,287.970 65.751,288.477 71.016,288.278" stroke-width="6.978" stroke="black" fill="none" stroke-linecap="round"></path><path d="M 71.016,288.278 C 86.925,287.677 87.182,287.325 102.976,284.281" stroke-width="4.500" stroke="black" fill="none" stroke-linecap="round"></path><path d="M 102.976,284.281 C 130.728,278.932 130.950,279.310 158.107,271.491" stroke-width="4.500" stroke="black" fill="none" stroke-linecap="round"></path><path d="M 158.107,271.491 C 186.481,263.321 186.223,262.315 214.037,252.305" stroke-width="4.500" stroke="black" fill="none" stroke-linecap="round"></path><path d="M 214.037,252.305 C 241.753,242.330 241.870,242.570 269.169,231.520" stroke-width="4.500" stroke="black" fill="none" stroke-linecap="round"></path><path d="M 269.169,231.520 C 294.205,221.386 294.164,221.218 318.707,209.936" stroke-width="4.500" stroke="black" fill="none" stroke-linecap="round"></path><path d="M 318.707,209.936 C 338.509,200.834 338.267,200.312 357.858,190.751" stroke-width="4.500" stroke="black" fill="none" stroke-linecap="round"></path><path d="M 357.858,190.751 C 371.026,184.324 371.985,185.681 384.225,177.960" stroke-width="4.500" stroke="black" fill="none" stroke-linecap="round"></path><path d="M 384.225,177.960 C 390.362,174.089 392.064,173.431 394.612,167.568" stroke-width="4.500" stroke="black" fill="none" stroke-linecap="round"></path><path d="M 394.612,167.568 C 396.059,164.238 394.597,162.196 392.215,159.574" stroke-width="5.259" stroke="black" fill="none" stroke-linecap="round"></path><path d="M 392.215,159.574 C 390.602,157.799 389.436,159.003 386.622,158.775" stroke-width="6.224" stroke="black" fill="none" stroke-linecap="round"></path><path d="M 386.622,158.775 C 374.655,157.804 374.653,157.488 362.652,157.176" stroke-width="4.500" stroke="black" fill="none" stroke-linecap="round"></path><path d="M 362.652,157.176 C 343.891,156.688 343.874,157.003 325.099,157.176" stroke-width="4.500" stroke="black" fill="none" stroke-linecap="round"></path><path d="M 325.099,157.176 C 300.328,157.403 300.316,157.156 275.561,157.975" stroke-width="4.500" stroke="black" fill="none" stroke-linecap="round"></path><path d="M 275.561,157.975 C 251.976,158.755 252.002,159.531 228.419,160.373" stroke-width="4.500" stroke="black" fill="none" stroke-linecap="round"></path><path d="M 228.419,160.373 C 207.258,161.130 207.237,161.396 186.072,161.173" stroke-width="4.500" stroke="black" fill="none" stroke-linecap="round"></path><path d="M 186.072,161.173 C 169.284,160.996 169.205,161.198 152.514,159.574" stroke-width="4.500" stroke="black" fill="none" stroke-linecap="round"></path><path d="M 152.514,159.574 C 140.441,158.400 140.333,158.337 128.544,155.577" stroke-width="4.500" stroke="black" fill="none" stroke-linecap="round"></path><path d="M 128.544,155.577 C 121.556,153.941 120.871,154.380 114.961,150.781" stroke-width="4.500" stroke="black" fill="none" stroke-linecap="round"></path><path d="M 114.961,150.781 C 111.682,148.784 110.589,147.761 110.167,144.385" stroke-width="5.437" stroke="black" fill="none" stroke-linecap="round"></path><path d="M 110.167,144.385 C 109.790,141.366 110.577,139.539 113.363,137.990" stroke-width="6.103" stroke="black" fill="none" stroke-linecap="round"></path><path d="M 113.363,137.990 C 117.768,135.542 118.942,136.391 124.549,136.391" stroke-width="6.512" stroke="black" fill="none" stroke-linecap="round"></path><path d="M 124.549,136.391 C 132.125,136.391 132.475,135.893 139.730,137.990" stroke-width="5.163" stroke="black" fill="none" stroke-linecap="round"></path><path d="M 139.730,137.990 C 150.452,141.089 150.958,140.978 160.504,146.784" stroke-width="4.500" stroke="black" fill="none" stroke-linecap="round"></path><path d="M 160.504,146.784 C 171.332,153.369 171.487,153.774 180.479,162.772" stroke-width="4.500" stroke="black" fill="none" stroke-linecap="round"></path><path d="M 180.479,162.772 C 190.263,172.560 190.004,173.075 198.057,184.356" stroke-width="4.500" stroke="black" fill="none" stroke-linecap="round"></path><path d="M 198.057,184.356 C 201.989,189.862 201.754,190.117 204.449,196.347" stroke-width="4.500" stroke="black" fill="none" stroke-linecap="round"></path><path d="M 204.449,196.347 C 213.340,216.897 213.863,216.790 221.228,237.916" stroke-width="4.500" stroke="black" fill="none" stroke-linecap="round"></path><path d="M 221.228,237.916 C 225.848,251.165 225.550,251.355 228.419,265.095" stroke-width="4.500" stroke="black" fill="none" stroke-linecap="round"></path><path d="M 228.419,265.095 C 231.143,278.135 231.328,278.217 232.415,291.476" stroke-width="4.500" stroke="black" fill="none" stroke-linecap="round"></path><path d="M 232.415,291.476 C 233.326,302.599 232.643,302.673 232.415,313.859" stroke-width="4.500" stroke="black" fill="none" stroke-linecap="round"></path><path d="M 232.415,313.859 C 232.243,322.258 232.332,322.283 231.615,330.646" stroke-width="4.500" stroke="black" fill="none" stroke-linecap="round"></path><path d="M 231.615,330.646 C 231.133,336.272 230.718,336.230 230.017,341.838" stroke-width="4.971" stroke="black" fill="none" stroke-linecap="round"></path><path d="M 230.017,341.838 C 229.520,345.823 229.218,345.844 229.218,349.832" stroke-width="5.718" stroke="black" fill="none" stroke-linecap="round"></path></svg>