<svg xmlns="http://www.w3.org/2000/svg" xmlns:xlink="http://www.w3.org/1999/xlink" viewBox="0 0 576 416" width="576" height="416"><path d="M 418.582,112.409 C 416.584,116.406 416.242,116.264 414.587,120.403" stroke-width="8.480" stroke="black" fill="none" stroke-linecap="round"></path><path d="M 414.587,120.403 C 412.246,126.257 413.011,126.584 410.592,132.394" stroke-width="6.996" stroke="black" fill="none" stroke-linecap="round"></path><path d="M 410.592,132.394 C 409.016,136.177 408.637,136.016 406.597,139.589" stroke-width="6.224" stroke="black" fill="none" stroke-linecap="round"></path><path d="M 406.597,139.589 C 403.843,144.410 403.993,144.508 401.004,149.182" stroke-width="5.657" stroke="black" fill="none" stroke-linecap="round"></path><path d="M 401.004,149.182 C 397.601,154.501 397.503,154.446 393.813,159.574" stroke-width="5.202" stroke="black" fill="none" stroke-linecap="round"></path><path d="M 393.813,159.574 C 390.312,164.439 390.512,164.626 386.622,169.167" stroke-width="5.162" stroke="black" fill="none" stroke-linecap="round"></path><path d="M 386.622,169.167 C 383.321,173.020 382.906,172.653 379.431,176.362" stroke-width="5.481" stroke="black" fill="none" stroke-linecap="round"></path><path d="M 379.431,176.362 C 376.913,179.048 376.994,179.127 374.637,181.957" stroke-width="6.016" stroke="black" fill="none" stroke-linecap="round"></path><path d="M 374.637,181.957 C 372.999,183.923 370.744,186.768 371.441,185.954" stroke-width="6.556" stroke="black" fill="none" stroke-linecap="round"></path><path d="M 348.270,129.197 C 346.672,125.200 344.842,122.129 345.074,121.203" stroke-width="8.702" stroke="black" fill="none" stroke-linecap="round"></path><path d="M 345.074,121.203 C 345.242,120.531 347.811,123.272 349.069,125.999" stroke-width="8.477" stroke="black" fill="none" stroke-linecap="round"></path><path d="M 349.069,125.999 C 350.208,128.468 349.868,128.797 349.868,131.595" stroke-width="7.193" stroke="black" fill="none" stroke-linecap="round"></path><path d="M 349.868,131.595 C 349.868,134.393 349.622,134.422 349.069,137.191" stroke-width="6.880" stroke="black" fill="none" stroke-linecap="round"></path><path d="M 349.069,137.191 C 348.024,142.416 348.604,142.662 346.672,147.583" stroke-width="5.876" stroke="black" fill="none" stroke-linecap="round"></path><path d="M 346.672,147.583 C 344.210,153.853 343.728,153.735 340.280,159.574" stroke-width="5.236" stroke="black" fill="none" stroke-linecap="round"></path><path d="M 340.280,159.574 C 338.535,162.529 338.255,162.353 336.285,165.170" stroke-width="5.935" stroke="black" fill="none" stroke-linecap="round"></path><path d="M 336.285,165.170 C 332.662,170.347 332.912,170.535 329.094,175.562" stroke-width="5.270" stroke="black" fill="none" stroke-linecap="round"></path><path d="M 329.094,175.562 C 325.322,180.528 325.055,180.323 321.104,185.155" stroke-width="5.118" stroke="black" fill="none" stroke-linecap="round"></path><path d="M 321.104,185.155 C 317.864,189.116 317.852,189.109 314.712,193.149" stroke-width="5.536" stroke="black" fill="none" stroke-linecap="round"></path><path d="M 314.712,193.149 C 312.259,196.304 312.353,196.376 309.918,199.544" stroke-width="5.934" stroke="black" fill="none" stroke-linecap="round"></path><path d="M 285.149,106.813 C 279.556,110.011 279.485,109.893 273.963,113.209" stroke-width="8.010" stroke="black" fill="none" stroke-linecap="round"></path><path d="M 273.963,113.209 C 267.500,117.088 267.214,116.717 261.179,121.203" stroke-width="5.429" stroke="black" fill="none" stroke-linecap="round"></path><path d="M 261.179,121.203 C 253.232,127.109 253.314,127.300 245.998,133.993" stroke-width="4.500" stroke="black" fill="none" stroke-linecap="round"></path><path d="M 245.998,133.993 C 239.332,140.090 239.040,139.913 233.214,146.784" stroke-width="4.500" stroke="black" fill="none" stroke-linecap="round"></path><path d="M 233.214,146.784 C 227.854,153.103 227.639,153.146 223.625,160.373" stroke-width="4.501" stroke="black" fill="none" stroke-linecap="round"></path><path d="M 223.625,160.373 C 219.649,167.535 220.340,167.932 217.233,175.562" stroke-width="4.549" stroke="black" fill="none" stroke-linecap="round"></path><path d="M 217.233,175.562 C 215.946,178.724 215.500,178.640 214.836,181.957" stroke-width="5.652" stroke="black" fill="none" stroke-linecap="round"></path><path d="M 214.836,181.957 C 213.902,186.634 213.776,186.833 214.037,191.550" stroke-width="5.718" stroke="black" fill="none" stroke-linecap="round"></path><path d="M 214.037,191.550 C 214.175,194.028 213.694,196.232 215.635,196.347" stroke-width="6.391" stroke="black" fill="none" stroke-linecap="round"></path><path d="M 215.635,196.347 C 220.486,196.632 222.189,195.485 227.620,192.350" stroke-width="6.510" stroke="black" fill="none" stroke-linecap="round"></path><path d="M 227.620,192.350 C 242.963,183.494 242.561,182.583 257.184,172.365" stroke-width="4.500" stroke="black" fill="none" stroke-linecap="round"></path><path d="M 257.184,172.365 C 267.729,164.996 267.987,165.281 277.958,157.176" stroke-width="4.500" stroke="black" fill="none" stroke-linecap="round"></path><path d="M 277.958,157.176 C 287.163,149.692 286.707,149.138 295.536,141.188" stroke-width="4.500" stroke="black" fill="none" stroke-linecap="round"></path><path d="M 295.536,141.188 C 302.687,134.748 303.381,135.388 309.918,128.397" stroke-width="4.500" stroke="black" fill="none" stroke-linecap="round"></path><path d="M 309.918,128.397 C 314.967,122.997 314.714,122.647 318.707,116.406" stroke-width="5.023" stroke="black" fill="none" stroke-linecap="round"></path><path d="M 318.707,116.406 C 321.106,112.655 322.226,112.454 322.702,108.412" stroke-width="5.678" stroke="black" fill="none" stroke-linecap="round"></path><path d="M 322.702,108.412 C 323.025,105.659 322.995,103.035 320.305,102.816" stroke-width="6.242" stroke="black" fill="none" stroke-linecap="round"></path><path d="M 320.305,102.816 C 308.214,101.836 306.336,102.713 293.139,106.014" stroke-width="5.255" stroke="black" fill="none" stroke-linecap="round"></path><path d="M 293.139,106.014 C 272.778,111.107 272.763,111.812 253.189,119.604" stroke-width="4.500" stroke="black" fill="none" stroke-linecap="round"></path><path d="M 253.189,119.604 C 235.610,126.601 235.769,127.119 218.832,135.592" stroke-width="4.500" stroke="black" fill="none" stroke-linecap="round"></path><path d="M 218.832,135.592 C 203.809,143.107 203.758,143.089 189.268,151.580" stroke-width="4.500" stroke="black" fill="none" stroke-linecap="round"></path><path d="M 189.268,151.580 C 175.793,159.477 176.067,159.946 162.901,168.367" stroke-width="4.500" stroke="black" fill="none" stroke-linecap="round"></path><path d="M 162.901,168.367 C 151.697,175.534 151.435,175.166 140.529,182.757" stroke-width="4.500" stroke="black" fill="none" stroke-linecap="round"></path><path d="M 140.529,182.757 C 133.058,187.957 132.945,187.932 126.147,193.948" stroke-width="4.500" stroke="black" fill="none" stroke-linecap="round"></path><path d="M 126.147,193.948 C 122.558,197.125 117.884,200.423 119.755,201.143" stroke-width="4.991" stroke="black" fill="none" stroke-linecap="round"></path><path d="M 119.755,201.143 C 123.077,202.421 128.355,200.338 136.534,197.945" stroke-width="6.061" stroke="black" fill="none" stroke-linecap="round"></path><path d="M 136.534,197.945 C 154.322,192.743 154.229,192.273 171.690,185.954" stroke-width="4.500" stroke="black" fill="none" stroke-linecap="round"></path><path d="M 171.690,185.954 C 191.782,178.683 191.499,177.890 211.640,170.766" stroke-width="4.500" stroke="black" fill="none" stroke-linecap="round"></path><path d="M 211.640,170.766 C 231.050,163.900 231.276,164.550 250.792,157.975" stroke-width="4.500" stroke="black" fill="none" stroke-linecap="round"></path><path d="M 250.792,157.975 C 270.428,151.360 270.307,151.003 289.943,144.385" stroke-width="4.500" stroke="black" fill="none" stroke-linecap="round"></path><path d="M 289.943,144.385 C 308.260,138.212 308.111,137.650 326.697,132.394" stroke-width="4.500" stroke="black" fill="none" stroke-linecap="round"></path><path d="M 326.697,132.394 C 344.865,127.257 345.004,127.678 363.451,123.601" stroke-width="4.500" stroke="black" fill="none" stroke-linecap="round"></path><path d="M 363.451,123.601 C 379.361,120.084 379.420,120.348 395.411,117.206" stroke-width="4.500" stroke="black" fill="none" stroke-linecap="round"></path><path d="M 395.411,117.206 C 401.792,115.952 401.729,115.212 408.195,114.807" stroke-width="4.500" stroke="black" fill="none" stroke-linecap="round"></path><path d="M 408.195,114.807 C 420.905,114.013 420.999,114.488 433.763,114.807" stroke-width="4.500" stroke="black" fill="none" stroke-linecap="round"></path><path d="M 433.763,114.807 C 436.979,114.888 441.295,114.156 440.155,115.607" stroke-width="5.283" stroke="black" fill="none" stroke-linecap="round"></path><path d="M 440.155,115.607 C 436.900,119.751 433.060,121.675 424.974,125.999" stroke-width="6.170" stroke="black" fill="none" stroke-linecap="round"></path><path d="M 424.974,125.999 C 409.889,134.066 409.663,133.838 393.813,140.388" stroke-width="4.500" stroke="black" fill="none" stroke-linecap="round"></path><path d="M 393.813,140.388 C 372.909,149.027 372.673,148.472 351.466,156.376" stroke-width="4.500" stroke="black" fill="none" stroke-linecap="round"></path><path d="M 351.466,156.376 C 331.923,163.660 331.944,163.721 312.315,170.766" stroke-width="4.500" stroke="black" fill="none" stroke-linecap="round"></path><path d="M 312.315,170.766 C 295.190,176.911 295.216,177.001 277.958,182.757" stroke-width="4.500" stroke="black" fill="none" stroke-linecap="round"></path><path d="M 277.958,182.757 C 262.856,187.793 262.603,187.063 247.596,192.350" stroke-width="4.500" stroke="black" fill="none" stroke-linecap="round"></path><path d="M 247.596,192.350 C 234.238,197.055 234.469,197.695 221.228,202.742" stroke-width="4.500" stroke="black" fill="none" stroke-linecap="round"></path><path d="M 221.228,202.742 C 209.300,207.288 208.944,206.462 197.258,211.535" stroke-width="4.500" stroke="black" fill="none" stroke-linecap="round"></path><path d="M 197.258,211.535 C 187.771,215.655 187.936,216.095 178.881,221.128" stroke-width="4.500" stroke="black" fill="none" stroke-linecap="round"></path><path d="M 178.881,221.128 C 173.554,224.089 168.494,226.235 168.494,227.523" stroke-width="4.712" stroke="black" fill="none" stroke-linecap="round"></path><path d="M 168.494,227.523 C 168.494,228.633 173.819,227.265 178.881,225.924" stroke-width="6.516" stroke="black" fill="none" stroke-linecap="round"></path><path d="M 178.881,225.924 C 187.402,223.668 187.309,223.235 195.660,220.329" stroke-width="4.884" stroke="black" fill="none" stroke-linecap="round"></path><path d="M 195.660,220.329 C 205.686,216.840 205.745,216.982 215.635,213.134" stroke-width="4.500" stroke="black" fill="none" stroke-linecap="round"></path><path d="M 215.635,213.134 C 227.318,208.589 227.251,208.409 238.806,203.541" stroke-width="4.500" stroke="black" fill="none" stroke-linecap="round"></path><path d="M 238.806,203.541 C 250.023,198.816 249.819,198.288 261.179,193.948" stroke-width="4.500" stroke="black" fill="none" stroke-linecap="round"></path><path d="M 261.179,193.948 C 271.791,189.894 272.036,190.551 282.752,186.754" stroke-width="4.500" stroke="black" fill="none" stroke-linecap="round"></path><path d="M 282.752,186.754 C 291.212,183.756 291.046,183.269 299.531,180.359" stroke-width="4.500" stroke="black" fill="none" stroke-linecap="round"></path><path d="M 299.531,180.359 C 305.028,178.473 305.208,178.998 310.717,177.161" stroke-width="4.889" stroke="black" fill="none" stroke-linecap="round"></path><path d="M 310.717,177.161 C 313.598,176.200 313.432,175.722 316.310,174.763" stroke-width="5.989" stroke="black" fill="none" stroke-linecap="round"></path><path d="M 305.923,234.718 C 303.526,230.321 302.220,225.197 301.129,225.924" stroke-width="8.574" stroke="black" fill="none" stroke-linecap="round"></path><path d="M 301.129,225.924 C 299.823,226.796 300.318,232.034 301.129,237.916" stroke-width="8.548" stroke="black" fill="none" stroke-linecap="round"></path><path d="M 301.129,237.916 C 301.916,243.625 302.696,243.520 304.325,249.107" stroke-width="6.020" stroke="black" fill="none" stroke-linecap="round"></path><path d="M 304.325,249.107 C 305.492,253.113 305.283,253.193 306.722,257.101" stroke-width="6.031" stroke="black" fill="none" stroke-linecap="round"></path><path d="M 306.722,257.101 C 308.079,260.788 308.391,260.668 309.918,264.296" stroke-width="6.115" stroke="black" fill="none" stroke-linecap="round"></path><path d="M 309.918,264.296 C 311.587,268.263 311.683,268.236 313.114,272.290" stroke-width="6.824" stroke="black" fill="none" stroke-linecap="round"></path><path d="M 249.194,244.311 C 249.593,239.914 249.783,235.727 249.993,235.517" stroke-width="8.690" stroke="black" fill="none" stroke-linecap="round"></path><path d="M 249.993,235.517 C 250.182,235.327 249.993,239.514 249.993,243.511" stroke-width="8.689" stroke="black" fill="none" stroke-linecap="round"></path><path d="M 249.993,243.511 C 249.993,247.908 249.773,247.920 249.993,252.305" stroke-width="7.481" stroke="black" fill="none" stroke-linecap="round"></path><path d="M 249.993,252.305 C 250.173,255.914 250.392,255.902 250.792,259.499" stroke-width="7.122" stroke="black" fill="none" stroke-linecap="round"></path><path d="M 250.792,259.499 C 251.191,263.097 250.768,263.198 251.591,266.694" stroke-width="6.976" stroke="black" fill="none" stroke-linecap="round"></path><path d="M 251.591,266.694 C 252.366,269.993 252.720,269.919 253.988,273.089" stroke-width="6.654" stroke="black" fill="none" stroke-linecap="round"></path><path d="M 253.988,273.089 C 255.117,275.915 255.363,275.824 256.385,278.685" stroke-width="6.559" stroke="black" fill="none" stroke-linecap="round"></path><path d="M 256.385,278.685 C 257.361,281.420 257.006,281.546 257.983,284.281" stroke-width="6.587" stroke="black" fill="none" stroke-linecap="round"></path><path d="M 257.983,284.281 C 259.004,287.142 259.288,287.038 260.380,289.877" stroke-width="6.803" stroke="black" fill="none" stroke-linecap="round"></path><path d="M 182.077,250.706 C 184.874,253.904 184.416,256.233 187.670,257.101" stroke-width="8.674" stroke="black" fill="none" stroke-linecap="round"></path><path d="M 187.670,257.101 C 190.408,257.832 190.866,255.502 194.062,253.904" stroke-width="7.797" stroke="black" fill="none" stroke-linecap="round"></path><path d="M 194.062,253.904 C 196.459,252.705 198.360,250.512 198.856,251.505" stroke-width="8.037" stroke="black" fill="none" stroke-linecap="round"></path><path d="M 198.856,251.505 C 199.559,252.911 197.377,255.028 196.459,258.700" stroke-width="7.880" stroke="black" fill="none" stroke-linecap="round"></path><path d="M 196.459,258.700 C 194.980,264.621 194.957,264.653 194.062,270.691" stroke-width="6.870" stroke="black" fill="none" stroke-linecap="round"></path><path d="M 194.062,270.691 C 193.359,275.445 193.456,275.479 193.263,280.284" stroke-width="5.944" stroke="black" fill="none" stroke-linecap="round"></path><path d="M 193.263,280.284 C 193.056,285.471 192.713,285.535 193.263,290.676" stroke-width="5.688" stroke="black" fill="none" stroke-linecap="round"></path><path d="M 193.263,290.676 C 193.911,296.726 193.760,296.962 195.660,302.667" stroke-width="5.616" stroke="black" fill="none" stroke-linecap="round"></path><path d="M 195.660,302.667 C 196.556,305.356 196.593,306.142 198.856,307.464" stroke-width="6.346" stroke="black" fill="none" stroke-linecap="round"></path><path d="M 198.856,307.464 C 201.387,308.940 202.096,308.579 205.248,308.263" stroke-width="6.395" stroke="black" fill="none" stroke-linecap="round"></path><path d="M 205.248,308.263 C 210.086,307.779 210.334,307.796 214.836,305.865" stroke-width="5.974" stroke="black" fill="none" stroke-linecap="round"></path><path d="M 214.836,305.865 C 221.520,302.999 221.165,302.148 227.620,298.670" stroke-width="5.125" stroke="black" fill="none" stroke-linecap="round"></path><path d="M 227.620,298.670 C 231.552,296.552 231.615,296.672 235.611,294.673" stroke-width="5.644" stroke="black" fill="none" stroke-linecap="round"></path></svg>