<svg xmlns="http://www.w3.org/2000/svg" xmlns:xlink="http://www.w3.org/1999/xlink" viewBox="0 0 576 336" width="576" height="336"><path d="M 185.802,157.236 C 184.559,163.278 184.614,163.290 183.316,169.320" stroke-width="8.179" stroke="black" fill="none" stroke-linecap="round"></path><path d="M 183.316,169.320 C 182.127,174.840 181.193,174.775 180.829,180.337" stroke-width="6.019" stroke="black" fill="none" stroke-linecap="round"></path><path d="M 180.829,180.337 C 180.483,185.615 181.796,185.665 181.894,191.000" stroke-width="5.565" stroke="black" fill="none" stroke-linecap="round"></path><path d="M 181.894,191.000 C 181.973,195.261 180.160,198.402 181.184,199.530" stroke-width="6.635" stroke="black" fill="none" stroke-linecap="round"></path><path d="M 181.184,199.530 C 181.936,200.357 183.819,197.546 185.447,194.909" stroke-width="7.682" stroke="black" fill="none" stroke-linecap="round"></path><path d="M 185.447,194.909 C 187.549,191.504 186.953,191.136 188.644,187.446" stroke-width="6.494" stroke="black" fill="none" stroke-linecap="round"></path><path d="M 188.644,187.446 C 190.861,182.606 190.718,182.516 193.262,177.850" stroke-width="5.791" stroke="black" fill="none" stroke-linecap="round"></path><path d="M 193.262,177.850 C 194.981,174.697 194.806,174.456 197.169,171.808" stroke-width="6.154" stroke="black" fill="none" stroke-linecap="round"></path><path d="M 197.169,171.808 C 199.247,169.480 200.025,167.545 202.142,167.898" stroke-width="6.432" stroke="black" fill="none" stroke-linecap="round"></path><path d="M 202.142,167.898 C 204.287,168.256 206.046,170.418 205.695,173.230" stroke-width="7.663" stroke="black" fill="none" stroke-linecap="round"></path><path d="M 205.695,173.230 C 204.980,178.948 202.410,178.915 200.011,184.958" stroke-width="5.664" stroke="black" fill="none" stroke-linecap="round"></path><path d="M 200.011,184.958 C 197.259,191.888 197.726,192.074 195.393,199.174" stroke-width="5.119" stroke="black" fill="none" stroke-linecap="round"></path><path d="M 195.393,199.174 C 193.464,205.046 193.116,204.948 191.486,210.902" stroke-width="5.090" stroke="black" fill="none" stroke-linecap="round"></path><path d="M 191.486,210.902 C 189.564,217.921 190.163,218.085 188.289,225.119" stroke-width="5.008" stroke="black" fill="none" stroke-linecap="round"></path><path d="M 188.289,225.119 C 186.611,231.413 186.254,231.314 184.381,237.558" stroke-width="4.973" stroke="black" fill="none" stroke-linecap="round"></path><path d="M 184.381,237.558 C 182.524,243.754 183.427,244.149 180.829,249.998" stroke-width="5.069" stroke="black" fill="none" stroke-linecap="round"></path><path d="M 180.829,249.998 C 178.453,255.345 177.347,254.821 174.435,259.949" stroke-width="5.233" stroke="black" fill="none" stroke-linecap="round"></path><path d="M 174.435,259.949 C 172.907,262.640 173.036,262.734 171.948,265.635" stroke-width="6.116" stroke="black" fill="none" stroke-linecap="round"></path><path d="M 171.948,265.635 C 170.904,268.420 170.515,271.493 170.172,271.322" stroke-width="7.077" stroke="black" fill="none" stroke-linecap="round"></path><path d="M 170.172,271.322 C 169.804,271.138 170.174,268.106 170.527,264.925" stroke-width="7.417" stroke="black" fill="none" stroke-linecap="round"></path><path d="M 170.527,264.925 C 171.240,258.510 170.514,258.288 172.303,252.130" stroke-width="5.524" stroke="black" fill="none" stroke-linecap="round"></path><path d="M 172.303,252.130 C 174.954,243.006 176.509,243.448 179.408,234.359" stroke-width="4.553" stroke="black" fill="none" stroke-linecap="round"></path><path d="M 179.408,234.359 C 181.837,226.744 181.083,226.516 182.960,218.722" stroke-width="4.696" stroke="black" fill="none" stroke-linecap="round"></path><path d="M 182.960,218.722 C 184.635,211.767 184.912,211.831 186.513,204.861" stroke-width="4.828" stroke="black" fill="none" stroke-linecap="round"></path><path d="M 186.513,204.861 C 187.931,198.681 187.671,198.623 188.999,192.422" stroke-width="4.961" stroke="black" fill="none" stroke-linecap="round"></path><path d="M 188.999,192.422 C 189.802,188.671 191.457,183.966 190.775,184.958" stroke-width="5.769" stroke="black" fill="none" stroke-linecap="round"></path><path d="M 190.775,184.958 C 189.503,186.809 187.636,191.417 185.092,198.108" stroke-width="6.967" stroke="black" fill="none" stroke-linecap="round"></path><path d="M 185.092,198.108 C 181.419,207.766 182.392,208.172 178.342,217.655" stroke-width="4.641" stroke="black" fill="none" stroke-linecap="round"></path><path d="M 178.342,217.655 C 174.576,226.475 173.158,225.875 169.461,234.715" stroke-width="4.500" stroke="black" fill="none" stroke-linecap="round"></path><path d="M 169.461,234.715 C 165.876,243.290 166.833,243.674 163.778,252.485" stroke-width="4.500" stroke="black" fill="none" stroke-linecap="round"></path><path d="M 163.778,252.485 C 160.795,261.089 161.428,261.452 157.384,269.545" stroke-width="4.500" stroke="black" fill="none" stroke-linecap="round"></path><path d="M 157.384,269.545 C 154.146,276.024 153.073,275.450 149.214,281.629" stroke-width="4.688" stroke="black" fill="none" stroke-linecap="round"></path><path d="M 149.214,281.629 C 146.857,285.401 147.558,285.933 144.951,289.448" stroke-width="5.320" stroke="black" fill="none" stroke-linecap="round"></path><path d="M 144.951,289.448 C 143.473,291.441 141.719,294.046 141.043,292.647" stroke-width="6.863" stroke="black" fill="none" stroke-linecap="round"></path><path d="M 141.043,292.647 C 139.232,288.892 139.978,285.901 139.978,279.141" stroke-width="6.518" stroke="black" fill="none" stroke-linecap="round"></path><path d="M 139.978,279.141 C 139.978,269.019 139.801,268.920 141.043,258.883" stroke-width="4.500" stroke="black" fill="none" stroke-linecap="round"></path><path d="M 141.043,258.883 C 142.110,250.261 143.072,250.397 144.596,241.823" stroke-width="4.500" stroke="black" fill="none" stroke-linecap="round"></path><path d="M 144.596,241.823 C 145.914,234.404 145.152,234.251 146.727,226.896" stroke-width="4.757" stroke="black" fill="none" stroke-linecap="round"></path><path d="M 146.727,226.896 C 148.349,219.324 148.213,219.171 150.990,211.969" stroke-width="4.623" stroke="black" fill="none" stroke-linecap="round"></path><path d="M 150.990,211.969 C 153.009,206.732 154.395,207.223 156.318,202.017" stroke-width="5.146" stroke="black" fill="none" stroke-linecap="round"></path><path d="M 156.318,202.017 C 157.415,199.049 158.112,195.953 157.029,195.620" stroke-width="6.042" stroke="black" fill="none" stroke-linecap="round"></path><path d="M 157.029,195.620 C 155.802,195.243 153.586,197.537 151.700,200.596" stroke-width="7.206" stroke="black" fill="none" stroke-linecap="round"></path><path d="M 151.700,200.596 C 147.014,208.199 147.151,208.519 143.885,216.944" stroke-width="4.943" stroke="black" fill="none" stroke-linecap="round"></path><path d="M 143.885,216.944 C 140.401,225.934 141.231,226.247 138.202,235.426" stroke-width="4.500" stroke="black" fill="none" stroke-linecap="round"></path><path d="M 138.202,235.426 C 135.014,245.083 135.124,245.136 131.452,254.618" stroke-width="4.500" stroke="black" fill="none" stroke-linecap="round"></path><path d="M 131.452,254.618 C 127.486,264.861 127.159,264.734 122.927,274.876" stroke-width="4.500" stroke="black" fill="none" stroke-linecap="round"></path><path d="M 122.927,274.876 C 119.522,283.038 119.131,282.908 116.178,291.225" stroke-width="4.500" stroke="black" fill="none" stroke-linecap="round"></path><path d="M 116.178,291.225 C 114.335,296.413 114.835,296.579 113.336,301.887" stroke-width="5.010" stroke="black" fill="none" stroke-linecap="round"></path><path d="M 113.336,301.887 C 112.526,304.753 111.560,308.028 111.560,307.574" stroke-width="6.592" stroke="black" fill="none" stroke-linecap="round"></path><path d="M 111.560,307.574 C 111.560,306.962 112.472,303.669 113.336,299.755" stroke-width="7.033" stroke="black" fill="none" stroke-linecap="round"></path><path d="M 113.336,299.755 C 115.491,289.986 115.256,289.930 117.599,280.207" stroke-width="4.594" stroke="black" fill="none" stroke-linecap="round"></path><path d="M 117.599,280.207 C 120.052,270.027 120.064,270.021 122.927,259.949" stroke-width="4.500" stroke="black" fill="none" stroke-linecap="round"></path><path d="M 122.927,259.949 C 125.570,250.652 125.581,250.647 128.610,241.468" stroke-width="4.500" stroke="black" fill="none" stroke-linecap="round"></path><path d="M 128.610,241.468 C 131.798,231.810 132.452,232.008 135.360,222.276" stroke-width="4.500" stroke="black" fill="none" stroke-linecap="round"></path><path d="M 135.360,222.276 C 137.603,214.770 137.211,214.651 138.912,206.993" stroke-width="4.500" stroke="black" fill="none" stroke-linecap="round"></path><path d="M 138.912,206.993 C 140.053,201.856 140.074,201.857 141.043,196.686" stroke-width="5.157" stroke="black" fill="none" stroke-linecap="round"></path><path d="M 141.043,196.686 C 141.673,193.328 142.923,189.637 142.109,189.934" stroke-width="5.980" stroke="black" fill="none" stroke-linecap="round"></path><path d="M 142.109,189.934 C 140.970,190.348 139.156,193.786 137.136,198.108" stroke-width="6.987" stroke="black" fill="none" stroke-linecap="round"></path><path d="M 137.136,198.108 C 132.762,207.469 133.485,207.816 129.321,217.300" stroke-width="4.516" stroke="black" fill="none" stroke-linecap="round"></path><path d="M 129.321,217.300 C 125.137,226.831 124.203,226.455 120.440,236.137" stroke-width="4.500" stroke="black" fill="none" stroke-linecap="round"></path><path d="M 120.440,236.137 C 116.743,245.647 117.174,245.841 114.401,255.684" stroke-width="4.500" stroke="black" fill="none" stroke-linecap="round"></path><path d="M 114.401,255.684 C 111.668,265.388 112.395,265.611 109.428,275.232" stroke-width="4.500" stroke="black" fill="none" stroke-linecap="round"></path><path d="M 109.428,275.232 C 107.244,282.315 106.983,282.256 104.100,289.092" stroke-width="4.627" stroke="black" fill="none" stroke-linecap="round"></path><path d="M 104.100,289.092 C 102.187,293.629 100.417,296.586 99.837,297.977" stroke-width="5.162" stroke="black" fill="none" stroke-linecap="round"></path><path d="M 99.837,297.977 C 99.529,298.718 101.437,295.817 102.324,293.357" stroke-width="7.034" stroke="black" fill="none" stroke-linecap="round"></path><path d="M 102.324,293.357 C 105.344,284.977 105.552,284.965 107.652,276.298" stroke-width="4.824" stroke="black" fill="none" stroke-linecap="round"></path><path d="M 107.652,276.298 C 109.815,267.372 109.308,267.244 110.849,258.172" stroke-width="4.556" stroke="black" fill="none" stroke-linecap="round"></path><path d="M 110.849,258.172 C 112.327,249.474 112.938,249.519 113.691,240.757" stroke-width="4.500" stroke="black" fill="none" stroke-linecap="round"></path><path d="M 113.691,240.757 C 114.359,232.992 113.691,232.938 113.691,225.119" stroke-width="4.584" stroke="black" fill="none" stroke-linecap="round"></path><path d="M 113.691,225.119 C 113.691,217.478 114.042,217.454 113.691,209.836" stroke-width="4.692" stroke="black" fill="none" stroke-linecap="round"></path><path d="M 113.691,209.836 C 113.510,205.903 113.597,205.799 112.625,202.017" stroke-width="5.553" stroke="black" fill="none" stroke-linecap="round"></path><path d="M 112.625,202.017 C 111.999,199.579 112.379,198.076 110.494,197.397" stroke-width="6.448" stroke="black" fill="none" stroke-linecap="round"></path><path d="M 110.494,197.397 C 107.939,196.477 105.786,196.694 103.745,198.819" stroke-width="7.551" stroke="black" fill="none" stroke-linecap="round"></path><path d="M 103.745,198.819 C 101.346,201.315 101.924,202.698 101.613,206.638" stroke-width="7.320" stroke="black" fill="none" stroke-linecap="round"></path><path d="M 101.613,206.638 C 101.391,209.451 101.878,209.554 102.679,212.324" stroke-width="6.956" stroke="black" fill="none" stroke-linecap="round"></path><path d="M 102.679,212.324 C 103.832,216.307 103.670,216.440 105.521,220.143" stroke-width="6.375" stroke="black" fill="none" stroke-linecap="round"></path><path d="M 105.521,220.143 C 108.110,225.325 108.147,225.411 111.560,230.095" stroke-width="5.615" stroke="black" fill="none" stroke-linecap="round"></path><path d="M 111.560,230.095 C 114.363,233.941 114.297,234.194 117.954,237.203" stroke-width="5.628" stroke="black" fill="none" stroke-linecap="round"></path><path d="M 117.954,237.203 C 122.289,240.769 122.435,240.905 127.545,243.245" stroke-width="5.466" stroke="black" fill="none" stroke-linecap="round"></path><path d="M 127.545,243.245 C 132.914,245.703 133.089,246.028 138.912,246.799" stroke-width="5.343" stroke="black" fill="none" stroke-linecap="round"></path><path d="M 138.912,246.799 C 145.167,247.627 145.366,247.175 151.700,246.443" stroke-width="5.196" stroke="black" fill="none" stroke-linecap="round"></path><path d="M 151.700,246.443 C 159.220,245.575 159.157,245.005 166.620,243.600" stroke-width="4.878" stroke="black" fill="none" stroke-linecap="round"></path><path d="M 166.620,243.600 C 174.254,242.162 174.213,241.868 181.894,240.757" stroke-width="4.754" stroke="black" fill="none" stroke-linecap="round"></path><path d="M 181.894,240.757 C 188.955,239.736 188.993,239.428 196.104,239.335" stroke-width="4.755" stroke="black" fill="none" stroke-linecap="round"></path><path d="M 196.104,239.335 C 202.669,239.250 202.957,238.745 209.247,240.401" stroke-width="4.970" stroke="black" fill="none" stroke-linecap="round"></path><path d="M 209.247,240.401 C 216.456,242.300 216.593,242.678 223.101,246.443" stroke-width="4.824" stroke="black" fill="none" stroke-linecap="round"></path><path d="M 223.101,246.443 C 231.335,251.208 232.265,250.560 238.731,257.461" stroke-width="4.500" stroke="black" fill="none" stroke-linecap="round"></path><path d="M 238.731,257.461 C 250.914,270.463 250.405,271.296 260.400,286.249" stroke-width="4.500" stroke="black" fill="none" stroke-linecap="round"></path></svg>