<svg xmlns="http://www.w3.org/2000/svg" xmlns:xlink="http://www.w3.org/1999/xlink" viewBox="0 0 576 336" width="576" height="336"><path d="M 144.596,70.916 C 139.267,72.160 139.151,71.786 133.939,73.404" stroke-width="7.011" stroke="black" fill="none" stroke-linecap="round"></path><path d="M 133.939,73.404 C 128.849,74.985 128.775,74.950 123.993,77.314" stroke-width="5.901" stroke="black" fill="none" stroke-linecap="round"></path><path d="M 123.993,77.314 C 114.033,82.236 113.938,82.183 104.455,87.976" stroke-width="4.500" stroke="black" fill="none" stroke-linecap="round"></path><path d="M 104.455,87.976 C 97.065,92.490 97.084,92.606 90.246,97.927" stroke-width="4.507" stroke="black" fill="none" stroke-linecap="round"></path><path d="M 90.246,97.927 C 82.697,103.802 82.964,104.147 75.682,110.366" stroke-width="4.500" stroke="black" fill="none" stroke-linecap="round"></path><path d="M 75.682,110.366 C 68.400,116.586 67.821,116.012 61.117,122.806" stroke-width="4.500" stroke="black" fill="none" stroke-linecap="round"></path><path d="M 61.117,122.806 C 53.967,130.051 54.270,130.409 47.974,138.444" stroke-width="4.500" stroke="black" fill="none" stroke-linecap="round"></path><path d="M 47.974,138.444 C 42.015,146.047 41.714,145.905 36.607,154.082" stroke-width="4.500" stroke="black" fill="none" stroke-linecap="round"></path><path d="M 36.607,154.082 C 31.946,161.543 31.625,161.557 28.437,169.719" stroke-width="4.500" stroke="black" fill="none" stroke-linecap="round"></path><path d="M 28.437,169.719 C 25.586,177.017 25.510,177.252 24.529,185.002" stroke-width="4.593" stroke="black" fill="none" stroke-linecap="round"></path><path d="M 24.529,185.002 C 23.734,191.291 23.961,191.513 24.884,197.797" stroke-width="4.871" stroke="black" fill="none" stroke-linecap="round"></path><path d="M 24.884,197.797 C 25.737,203.597 25.755,203.799 28.081,209.170" stroke-width="5.170" stroke="black" fill="none" stroke-linecap="round"></path><path d="M 28.081,209.170 C 30.373,214.461 30.581,214.544 34.120,219.121" stroke-width="5.198" stroke="black" fill="none" stroke-linecap="round"></path><path d="M 34.120,219.121 C 37.864,223.963 37.735,224.484 42.646,228.007" stroke-width="5.213" stroke="black" fill="none" stroke-linecap="round"></path><path d="M 42.646,228.007 C 47.148,231.237 47.525,231.510 52.947,232.627" stroke-width="5.257" stroke="black" fill="none" stroke-linecap="round"></path><path d="M 52.947,232.627 C 59.603,233.998 59.977,233.786 66.801,232.982" stroke-width="5.044" stroke="black" fill="none" stroke-linecap="round"></path><path d="M 66.801,232.982 C 75.074,232.008 75.282,231.881 83.142,229.073" stroke-width="4.670" stroke="black" fill="none" stroke-linecap="round"></path><path d="M 83.142,229.073 C 90.202,226.550 90.432,226.492 96.640,222.320" stroke-width="4.643" stroke="black" fill="none" stroke-linecap="round"></path><path d="M 96.640,222.320 C 102.332,218.495 102.691,218.396 106.942,213.079" stroke-width="4.861" stroke="black" fill="none" stroke-linecap="round"></path><path d="M 106.942,213.079 C 110.506,208.622 110.496,208.197 112.270,202.773" stroke-width="5.193" stroke="black" fill="none" stroke-linecap="round"></path><path d="M 112.270,202.773 C 113.693,198.424 114.087,197.956 113.336,193.532" stroke-width="5.615" stroke="black" fill="none" stroke-linecap="round"></path><path d="M 113.336,193.532 C 112.488,188.538 112.092,188.135 109.073,183.936" stroke-width="5.487" stroke="black" fill="none" stroke-linecap="round"></path><path d="M 109.073,183.936 C 104.810,178.006 104.564,177.791 98.772,173.274" stroke-width="4.993" stroke="black" fill="none" stroke-linecap="round"></path><path d="M 98.772,173.274 C 92.487,168.373 91.894,169.101 84.918,165.099" stroke-width="4.729" stroke="black" fill="none" stroke-linecap="round"></path><path d="M 84.918,165.099 C 78.573,161.460 78.665,161.260 72.130,157.991" stroke-width="4.709" stroke="black" fill="none" stroke-linecap="round"></path><path d="M 72.130,157.991 C 66.232,155.041 66.226,154.936 60.052,152.660" stroke-width="4.953" stroke="black" fill="none" stroke-linecap="round"></path><path d="M 60.052,152.660 C 56.102,151.204 55.993,151.477 51.882,150.527" stroke-width="5.651" stroke="black" fill="none" stroke-linecap="round"></path><path d="M 51.882,150.527 C 49.066,149.877 44.697,149.419 46.198,149.461" stroke-width="6.920" stroke="black" fill="none" stroke-linecap="round"></path><path d="M 46.198,149.461 C 50.914,149.596 55.244,150.480 64.315,150.883" stroke-width="6.983" stroke="black" fill="none" stroke-linecap="round"></path><path d="M 64.315,150.883 C 71.229,151.190 71.250,151.099 78.168,150.883" stroke-width="5.317" stroke="black" fill="none" stroke-linecap="round"></path><path d="M 78.168,150.883 C 82.617,150.744 82.617,150.605 87.049,150.172" stroke-width="5.790" stroke="black" fill="none" stroke-linecap="round"></path><path d="M 87.049,150.172 C 89.899,149.894 89.933,150.022 92.733,149.461" stroke-width="6.352" stroke="black" fill="none" stroke-linecap="round"></path><path d="M 92.733,149.461 C 95.261,148.955 95.399,149.164 97.706,148.040" stroke-width="6.726" stroke="black" fill="none" stroke-linecap="round"></path><path d="M 97.706,148.040 C 102.326,145.788 102.561,145.865 106.586,142.709" stroke-width="6.846" stroke="black" fill="none" stroke-linecap="round"></path><path d="M 106.586,142.709 C 109.133,140.712 108.887,140.350 110.849,137.733" stroke-width="6.597" stroke="black" fill="none" stroke-linecap="round"></path><path d="M 110.849,137.733 C 113.683,133.953 113.722,133.950 116.178,129.914" stroke-width="6.005" stroke="black" fill="none" stroke-linecap="round"></path><path d="M 116.178,129.914 C 118.695,125.776 118.592,125.702 120.795,121.384" stroke-width="5.810" stroke="black" fill="none" stroke-linecap="round"></path><path d="M 120.795,121.384 C 122.854,117.350 123.038,117.414 124.703,113.210" stroke-width="5.853" stroke="black" fill="none" stroke-linecap="round"></path><path d="M 124.703,113.210 C 126.768,107.995 126.367,107.838 128.255,102.548" stroke-width="5.445" stroke="black" fill="none" stroke-linecap="round"></path><path d="M 128.255,102.548 C 129.919,97.887 130.245,97.998 131.808,93.307" stroke-width="5.613" stroke="black" fill="none" stroke-linecap="round"></path><path d="M 131.808,93.307 C 133.442,88.402 133.190,88.320 134.649,83.356" stroke-width="5.600" stroke="black" fill="none" stroke-linecap="round"></path><path d="M 134.649,83.356 C 135.854,79.257 136.390,79.342 137.136,75.181" stroke-width="5.784" stroke="black" fill="none" stroke-linecap="round"></path><path d="M 137.136,75.181 C 137.633,72.412 137.685,72.240 137.136,69.494" stroke-width="6.484" stroke="black" fill="none" stroke-linecap="round"></path><path d="M 137.136,69.494 C 136.442,66.020 136.876,64.969 134.649,62.742" stroke-width="7.092" stroke="black" fill="none" stroke-linecap="round"></path><path d="M 134.649,62.742 C 132.968,61.060 131.887,61.215 129.321,61.676" stroke-width="7.503" stroke="black" fill="none" stroke-linecap="round"></path><path d="M 129.321,61.676 C 124.960,62.459 124.727,62.869 120.795,65.230" stroke-width="6.249" stroke="black" fill="none" stroke-linecap="round"></path><path d="M 120.795,65.230 C 114.958,68.734 114.244,68.395 109.784,73.404" stroke-width="5.304" stroke="black" fill="none" stroke-linecap="round"></path><path d="M 109.784,73.404 C 105.541,78.169 105.611,78.732 103.390,84.777" stroke-width="5.243" stroke="black" fill="none" stroke-linecap="round"></path><path d="M 103.390,84.777 C 101.170,90.816 101.400,91.112 100.903,97.572" stroke-width="5.138" stroke="black" fill="none" stroke-linecap="round"></path><path d="M 100.903,97.572 C 100.334,104.972 100.714,105.063 101.258,112.499" stroke-width="4.790" stroke="black" fill="none" stroke-linecap="round"></path><path d="M 101.258,112.499 C 101.780,119.634 101.985,119.631 103.034,126.715" stroke-width="4.761" stroke="black" fill="none" stroke-linecap="round"></path><path d="M 103.034,126.715 C 104.117,134.025 104.037,134.051 105.521,141.287" stroke-width="4.798" stroke="black" fill="none" stroke-linecap="round"></path><path d="M 105.521,141.287 C 106.879,147.912 107.122,147.861 108.718,154.437" stroke-width="4.852" stroke="black" fill="none" stroke-linecap="round"></path><path d="M 108.718,154.437 C 110.141,160.301 109.880,160.377 111.560,166.166" stroke-width="5.215" stroke="black" fill="none" stroke-linecap="round"></path><path d="M 111.560,166.166 C 113.077,171.395 113.530,171.260 115.112,176.472" stroke-width="5.400" stroke="black" fill="none" stroke-linecap="round"></path><path d="M 115.112,176.472 C 116.550,181.212 116.808,181.213 117.599,186.068" stroke-width="5.596" stroke="black" fill="none" stroke-linecap="round"></path><path d="M 117.599,186.068 C 118.052,188.854 117.787,188.925 117.599,191.755" stroke-width="6.288" stroke="black" fill="none" stroke-linecap="round"></path><path d="M 117.599,191.755 C 117.432,194.256 116.806,198.083 116.888,196.731" stroke-width="7.282" stroke="black" fill="none" stroke-linecap="round"></path><path d="M 116.888,196.731 C 117.161,192.219 116.401,188.065 118.309,180.026" stroke-width="7.560" stroke="black" fill="none" stroke-linecap="round"></path><path d="M 118.309,180.026 C 119.775,173.849 120.719,174.029 123.638,168.298" stroke-width="5.553" stroke="black" fill="none" stroke-linecap="round"></path><path d="M 123.638,168.298 C 125.515,164.611 125.281,164.314 127.900,161.190" stroke-width="5.892" stroke="black" fill="none" stroke-linecap="round"></path><path d="M 127.900,161.190 C 129.899,158.805 130.154,157.734 132.873,157.280" stroke-width="6.964" stroke="black" fill="none" stroke-linecap="round"></path><path d="M 132.873,157.280 C 135.483,156.845 136.062,157.808 138.557,159.413" stroke-width="7.443" stroke="black" fill="none" stroke-linecap="round"></path><path d="M 138.557,159.413 C 141.035,161.007 140.729,161.506 142.820,163.678" stroke-width="6.865" stroke="black" fill="none" stroke-linecap="round"></path><path d="M 142.820,163.678 C 145.347,166.304 145.318,166.332 147.793,169.009" stroke-width="6.537" stroke="black" fill="none" stroke-linecap="round"></path><path d="M 147.793,169.009 C 151.890,173.440 151.463,173.921 155.963,177.894" stroke-width="5.484" stroke="black" fill="none" stroke-linecap="round"></path><path d="M 155.963,177.894 C 160.521,181.918 160.597,182.094 165.909,185.002" stroke-width="5.307" stroke="black" fill="none" stroke-linecap="round"></path><path d="M 165.909,185.002 C 170.011,187.247 170.229,187.407 174.790,188.201" stroke-width="5.634" stroke="black" fill="none" stroke-linecap="round"></path><path d="M 174.790,188.201 C 178.399,188.829 178.591,188.456 182.250,187.845" stroke-width="6.054" stroke="black" fill="none" stroke-linecap="round"></path><path d="M 182.250,187.845 C 186.051,187.212 186.232,187.303 189.709,185.713" stroke-width="6.141" stroke="black" fill="none" stroke-linecap="round"></path><path d="M 189.709,185.713 C 192.449,184.460 192.657,184.361 194.683,182.159" stroke-width="6.396" stroke="black" fill="none" stroke-linecap="round"></path><path d="M 194.683,182.159 C 196.742,179.919 196.610,179.641 197.880,176.828" stroke-width="6.456" stroke="black" fill="none" stroke-linecap="round"></path><path d="M 197.880,176.828 C 199.097,174.132 199.143,174.052 199.656,171.141" stroke-width="6.601" stroke="black" fill="none" stroke-linecap="round"></path><path d="M 199.656,171.141 C 200.208,168.010 200.188,167.923 200.011,164.744" stroke-width="6.556" stroke="black" fill="none" stroke-linecap="round"></path><path d="M 200.011,164.744 C 199.832,161.526 199.908,161.411 198.945,158.347" stroke-width="6.449" stroke="black" fill="none" stroke-linecap="round"></path><path d="M 198.945,158.347 C 197.954,155.191 197.912,155.066 196.104,152.305" stroke-width="6.458" stroke="black" fill="none" stroke-linecap="round"></path><path d="M 196.104,152.305 C 194.537,149.912 194.432,149.810 192.196,148.040" stroke-width="6.636" stroke="black" fill="none" stroke-linecap="round"></path><path d="M 192.196,148.040 C 190.169,146.434 189.993,146.536 187.578,145.552" stroke-width="6.735" stroke="black" fill="none" stroke-linecap="round"></path><path d="M 187.578,145.552 C 185.197,144.581 185.151,144.337 182.605,144.130" stroke-width="6.850" stroke="black" fill="none" stroke-linecap="round"></path><path d="M 182.605,144.130 C 178.579,143.804 177.922,142.857 174.435,144.486" stroke-width="7.100" stroke="black" fill="none" stroke-linecap="round"></path><path d="M 174.435,144.486 C 169.930,146.589 169.277,147.285 166.620,151.594" stroke-width="6.900" stroke="black" fill="none" stroke-linecap="round"></path><path d="M 166.620,151.594 C 164.126,155.637 164.514,156.336 164.133,161.190" stroke-width="6.002" stroke="black" fill="none" stroke-linecap="round"></path><path d="M 164.133,161.190 C 163.803,165.399 163.871,165.733 165.199,169.719" stroke-width="5.803" stroke="black" fill="none" stroke-linecap="round"></path><path d="M 165.199,169.719 C 166.357,173.196 166.737,173.272 169.106,176.117" stroke-width="6.106" stroke="black" fill="none" stroke-linecap="round"></path><path d="M 169.106,176.117 C 171.177,178.603 171.251,178.922 174.080,180.382" stroke-width="6.374" stroke="black" fill="none" stroke-linecap="round"></path><path d="M 174.080,180.382 C 176.758,181.765 177.076,181.719 180.118,181.803" stroke-width="6.452" stroke="black" fill="none" stroke-linecap="round"></path><path d="M 180.118,181.803 C 183.470,181.897 183.711,181.878 186.868,180.737" stroke-width="6.502" stroke="black" fill="none" stroke-linecap="round"></path><path d="M 186.868,180.737 C 190.105,179.568 190.149,179.298 192.907,177.183" stroke-width="6.411" stroke="black" fill="none" stroke-linecap="round"></path><path d="M 192.907,177.183 C 195.477,175.211 195.570,175.141 197.525,172.563" stroke-width="6.474" stroke="black" fill="none" stroke-linecap="round"></path><path d="M 197.525,172.563 C 199.477,169.988 199.793,169.949 200.722,166.876" stroke-width="6.495" stroke="black" fill="none" stroke-linecap="round"></path><path d="M 200.722,166.876 C 202.102,162.307 202.142,162.082 202.142,157.280" stroke-width="5.940" stroke="black" fill="none" stroke-linecap="round"></path><path d="M 202.142,157.280 C 202.142,152.130 202.181,151.902 200.722,146.974" stroke-width="5.591" stroke="black" fill="none" stroke-linecap="round"></path><path d="M 200.722,146.974 C 199.339,142.306 198.905,142.349 196.459,138.088" stroke-width="5.665" stroke="black" fill="none" stroke-linecap="round"></path><path d="M 196.459,138.088 C 194.110,133.997 193.910,134.093 191.131,130.269" stroke-width="5.746" stroke="black" fill="none" stroke-linecap="round"></path><path d="M 191.131,130.269 C 189.647,128.229 187.800,125.694 187.933,126.360" stroke-width="6.471" stroke="black" fill="none" stroke-linecap="round"></path><path d="M 187.933,126.360 C 188.155,127.471 189.011,130.811 191.841,133.823" stroke-width="7.568" stroke="black" fill="none" stroke-linecap="round"></path><path d="M 191.841,133.823 C 197.359,139.696 197.756,139.715 204.629,144.130" stroke-width="5.069" stroke="black" fill="none" stroke-linecap="round"></path><path d="M 204.629,144.130 C 212.142,148.956 212.518,148.434 220.614,152.305" stroke-width="4.564" stroke="black" fill="none" stroke-linecap="round"></path><path d="M 220.614,152.305 C 228.503,156.076 228.499,156.130 236.599,159.413" stroke-width="4.500" stroke="black" fill="none" stroke-linecap="round"></path><path d="M 246.191,122.450 C 241.750,128.137 240.828,127.664 237.310,133.823" stroke-width="8.092" stroke="black" fill="none" stroke-linecap="round"></path><path d="M 237.310,133.823 C 235.144,137.616 235.443,138.017 234.823,142.353" stroke-width="6.327" stroke="black" fill="none" stroke-linecap="round"></path><path d="M 234.823,142.353 C 234.377,145.480 234.132,145.894 235.178,148.750" stroke-width="6.541" stroke="black" fill="none" stroke-linecap="round"></path><path d="M 235.178,148.750 C 236.085,151.225 236.358,151.930 238.731,153.015" stroke-width="6.710" stroke="black" fill="none" stroke-linecap="round"></path><path d="M 238.731,153.015 C 242.575,154.774 243.383,155.283 247.611,154.437" stroke-width="6.017" stroke="black" fill="none" stroke-linecap="round"></path><path d="M 247.611,154.437 C 254.040,153.151 254.997,152.942 260.044,148.750" stroke-width="5.258" stroke="black" fill="none" stroke-linecap="round"></path><path d="M 260.044,148.750 C 264.411,145.123 264.650,144.253 266.439,138.799" stroke-width="5.292" stroke="black" fill="none" stroke-linecap="round"></path><path d="M 266.439,138.799 C 268.380,132.880 267.921,132.347 267.504,126.005" stroke-width="5.079" stroke="black" fill="none" stroke-linecap="round"></path><path d="M 267.504,126.005 C 267.033,118.842 266.940,118.623 264.663,111.788" stroke-width="4.922" stroke="black" fill="none" stroke-linecap="round"></path><path d="M 264.663,111.788 C 261.789,103.163 261.388,103.203 257.202,95.084" stroke-width="4.500" stroke="black" fill="none" stroke-linecap="round"></path><path d="M 257.202,95.084 C 252.685,86.321 252.402,86.449 247.256,78.024" stroke-width="4.500" stroke="black" fill="none" stroke-linecap="round"></path><path d="M 247.256,78.024 C 242.633,70.455 242.475,70.551 237.665,63.097" stroke-width="4.500" stroke="black" fill="none" stroke-linecap="round"></path><path d="M 237.665,63.097 C 233.417,56.513 233.439,56.498 229.140,49.947" stroke-width="4.578" stroke="black" fill="none" stroke-linecap="round"></path><path d="M 229.140,49.947 C 225.624,44.592 225.784,44.470 222.035,39.285" stroke-width="4.952" stroke="black" fill="none" stroke-linecap="round"></path><path d="M 222.035,39.285 C 219.745,36.118 219.713,36.107 217.062,33.243" stroke-width="5.669" stroke="black" fill="none" stroke-linecap="round"></path><path d="M 217.062,33.243 C 215.273,31.309 213.216,28.700 213.155,29.689" stroke-width="6.986" stroke="black" fill="none" stroke-linecap="round"></path><path d="M 213.155,29.689 C 213.039,31.543 214.431,34.551 216.707,38.930" stroke-width="7.346" stroke="black" fill="none" stroke-linecap="round"></path><path d="M 216.707,38.930 C 221.358,47.879 221.526,47.851 227.008,56.344" stroke-width="4.735" stroke="black" fill="none" stroke-linecap="round"></path><path d="M 227.008,56.344 C 232.538,64.911 233.013,64.599 238.731,73.049" stroke-width="4.500" stroke="black" fill="none" stroke-linecap="round"></path><path d="M 238.731,73.049 C 244.558,81.659 244.290,81.840 250.098,90.464" stroke-width="4.500" stroke="black" fill="none" stroke-linecap="round"></path><path d="M 250.098,90.464 C 255.302,98.189 255.377,98.140 260.755,105.746" stroke-width="4.500" stroke="black" fill="none" stroke-linecap="round"></path><path d="M 260.755,105.746 C 265.679,112.711 265.118,113.210 270.701,119.607" stroke-width="4.527" stroke="black" fill="none" stroke-linecap="round"></path><path d="M 270.701,119.607 C 276.130,125.827 284.426,133.276 282.779,130.980" stroke-width="4.547" stroke="black" fill="none" stroke-linecap="round"></path><path d="M 262.886,64.164 C 265.195,75.536 265.000,75.581 267.504,86.909" stroke-width="7.624" stroke="black" fill="none" stroke-linecap="round"></path><path d="M 267.504,86.909 C 269.085,94.062 268.830,94.163 271.057,101.126" stroke-width="5.430" stroke="black" fill="none" stroke-linecap="round"></path><path d="M 271.057,101.126 C 273.092,107.491 272.817,107.780 276.030,113.565" stroke-width="5.146" stroke="black" fill="none" stroke-linecap="round"></path><path d="M 276.030,113.565 C 278.146,117.376 278.609,117.212 281.713,120.318" stroke-width="5.667" stroke="black" fill="none" stroke-linecap="round"></path><path d="M 281.713,120.318 C 283.938,122.543 283.866,122.973 286.686,124.227" stroke-width="6.263" stroke="black" fill="none" stroke-linecap="round"></path><path d="M 286.686,124.227 C 290.260,125.817 291.975,127.449 294.501,126.005" stroke-width="6.917" stroke="black" fill="none" stroke-linecap="round"></path><path d="M 294.501,126.005 C 296.948,124.606 296.530,122.252 296.633,118.541" stroke-width="7.506" stroke="black" fill="none" stroke-linecap="round"></path><path d="M 296.633,118.541 C 296.707,115.854 296.206,115.640 294.857,113.210" stroke-width="6.971" stroke="black" fill="none" stroke-linecap="round"></path><path d="M 294.857,113.210 C 292.654,109.243 293.113,108.421 289.528,105.746" stroke-width="6.144" stroke="black" fill="none" stroke-linecap="round"></path><path d="M 289.528,105.746 C 282.634,100.602 282.262,99.798 273.898,97.572" stroke-width="4.824" stroke="black" fill="none" stroke-linecap="round"></path><path d="M 273.898,97.572 C 262.903,94.645 262.342,95.348 250.809,95.439" stroke-width="4.500" stroke="black" fill="none" stroke-linecap="round"></path><path d="M 250.809,95.439 C 239.785,95.526 239.647,95.864 228.784,97.927" stroke-width="4.500" stroke="black" fill="none" stroke-linecap="round"></path><path d="M 228.784,97.927 C 215.314,100.485 215.177,100.416 202.142,104.680" stroke-width="4.500" stroke="black" fill="none" stroke-linecap="round"></path><path d="M 202.142,104.680 C 187.469,109.479 187.586,109.969 173.369,116.053" stroke-width="4.500" stroke="black" fill="none" stroke-linecap="round"></path><path d="M 173.369,116.053 C 156.859,123.119 156.820,123.091 140.688,130.980" stroke-width="4.500" stroke="black" fill="none" stroke-linecap="round"></path><path d="M 140.688,130.980 C 125.205,138.552 125.285,138.742 110.139,146.974" stroke-width="4.500" stroke="black" fill="none" stroke-linecap="round"></path><path d="M 110.139,146.974 C 96.512,154.380 96.336,154.125 83.142,162.256" stroke-width="4.500" stroke="black" fill="none" stroke-linecap="round"></path><path d="M 83.142,162.256 C 71.825,169.229 72.326,170.029 61.117,177.183" stroke-width="4.500" stroke="black" fill="none" stroke-linecap="round"></path><path d="M 61.117,177.183 C 51.723,183.179 51.572,182.948 41.935,188.556" stroke-width="4.500" stroke="black" fill="none" stroke-linecap="round"></path><path d="M 41.935,188.556 C 34.166,193.078 34.142,193.038 26.305,197.441" stroke-width="4.500" stroke="black" fill="none" stroke-linecap="round"></path><path d="M 26.305,197.441 C 21.176,200.323 14.562,205.580 16.004,203.128" stroke-width="4.892" stroke="black" fill="none" stroke-linecap="round"></path><path d="M 16.004,203.128 C 19.891,196.517 25.254,189.883 36.962,179.316" stroke-width="5.666" stroke="black" fill="none" stroke-linecap="round"></path><path d="M 36.962,179.316 C 50.653,166.959 51.884,168.301 66.801,157.280" stroke-width="4.500" stroke="black" fill="none" stroke-linecap="round"></path><path d="M 66.801,157.280 C 82.433,145.732 81.874,144.889 98.061,134.179" stroke-width="4.500" stroke="black" fill="none" stroke-linecap="round"></path><path d="M 98.061,134.179 C 114.910,123.031 115.370,123.704 132.873,113.565" stroke-width="4.500" stroke="black" fill="none" stroke-linecap="round"></path><path d="M 132.873,113.565 C 149.116,104.157 149.212,104.322 165.554,95.084" stroke-width="4.500" stroke="black" fill="none" stroke-linecap="round"></path><path d="M 165.554,95.084 C 180.650,86.551 180.720,86.673 195.748,78.024" stroke-width="4.500" stroke="black" fill="none" stroke-linecap="round"></path><path d="M 195.748,78.024 C 207.894,71.035 208.079,71.308 219.904,63.808" stroke-width="4.500" stroke="black" fill="none" stroke-linecap="round"></path><path d="M 219.904,63.808 C 227.972,58.691 228.233,58.857 235.534,52.790" stroke-width="4.500" stroke="black" fill="none" stroke-linecap="round"></path><path d="M 235.534,52.790 C 238.712,50.149 240.760,49.262 240.862,46.393" stroke-width="5.178" stroke="black" fill="none" stroke-linecap="round"></path><path d="M 240.862,46.393 C 240.937,44.287 238.834,42.839 235.889,42.839" stroke-width="6.641" stroke="black" fill="none" stroke-linecap="round"></path><path d="M 235.889,42.839 C 221.072,42.839 220.135,42.632 205.340,46.393" stroke-width="4.500" stroke="black" fill="none" stroke-linecap="round"></path><path d="M 205.340,46.393 C 187.277,50.984 187.111,51.588 170.172,59.543" stroke-width="4.500" stroke="black" fill="none" stroke-linecap="round"></path><path d="M 170.172,59.543 C 152.299,67.937 152.141,68.134 135.715,79.091" stroke-width="4.500" stroke="black" fill="none" stroke-linecap="round"></path><path d="M 135.715,79.091 C 122.302,88.037 121.661,87.872 110.494,99.349" stroke-width="4.500" stroke="black" fill="none" stroke-linecap="round"></path><path d="M 110.494,99.349 C 102.123,107.952 100.959,108.350 96.640,119.252" stroke-width="4.500" stroke="black" fill="none" stroke-linecap="round"></path><path d="M 96.640,119.252 C 93.144,128.075 93.249,129.465 94.864,138.799" stroke-width="4.500" stroke="black" fill="none" stroke-linecap="round"></path><path d="M 94.864,138.799 C 96.446,147.947 97.221,148.804 103.034,156.214" stroke-width="4.500" stroke="black" fill="none" stroke-linecap="round"></path><path d="M 103.034,156.214 C 110.186,165.330 111.431,164.666 120.795,171.852" stroke-width="4.500" stroke="black" fill="none" stroke-linecap="round"></path><path d="M 120.795,171.852 C 129.725,178.705 130.187,178.106 139.623,184.291" stroke-width="4.500" stroke="black" fill="none" stroke-linecap="round"></path><path d="M 139.623,184.291 C 145.639,188.235 145.924,187.864 151.700,192.110" stroke-width="4.500" stroke="black" fill="none" stroke-linecap="round"></path><path d="M 151.700,192.110 C 154.627,194.262 154.888,194.231 157.029,197.086" stroke-width="5.531" stroke="black" fill="none" stroke-linecap="round"></path><path d="M 210.668,170.430 C 210.846,177.716 211.023,185.002 211.023,185.002" stroke-width="7.634" stroke="black" fill="none" stroke-linecap="round"></path></svg>