<svg xmlns="http://www.w3.org/2000/svg" xmlns:xlink="http://www.w3.org/1999/xlink" viewBox="0 0 576 416" width="576" height="416"><path d="M 456.934,221.928 C 450.142,225.125 449.945,224.749 443.351,228.323" stroke-width="8.030" stroke="black" fill="none" stroke-linecap="round"></path><path d="M 443.351,228.323 C 430.769,235.141 431.036,235.640 418.582,242.712" stroke-width="4.500" stroke="black" fill="none" stroke-linecap="round"></path><path d="M 418.582,242.712 C 401.473,252.427 401.215,251.982 384.225,261.898" stroke-width="4.500" stroke="black" fill="none" stroke-linecap="round"></path><path d="M 384.225,261.898 C 367.657,271.567 368.077,272.294 351.466,281.883" stroke-width="4.500" stroke="black" fill="none" stroke-linecap="round"></path><path d="M 351.466,281.883 C 336.916,290.281 336.747,289.995 321.903,297.871" stroke-width="4.500" stroke="black" fill="none" stroke-linecap="round"></path><path d="M 321.903,297.871 C 310.380,303.985 310.537,304.410 298.732,309.862" stroke-width="4.500" stroke="black" fill="none" stroke-linecap="round"></path><path d="M 298.732,309.862 C 294.957,311.605 294.808,311.376 290.742,312.260" stroke-width="4.811" stroke="black" fill="none" stroke-linecap="round"></path><path d="M 290.742,312.260 C 285.619,313.374 281.354,316.359 280.355,313.859" stroke-width="5.313" stroke="black" fill="none" stroke-linecap="round"></path><path d="M 280.355,313.859 C 278.957,310.363 281.952,306.376 285.948,300.269" stroke-width="5.921" stroke="black" fill="none" stroke-linecap="round"></path><path d="M 285.948,300.269 C 296.334,284.392 297.475,285.036 309.119,269.892" stroke-width="4.500" stroke="black" fill="none" stroke-linecap="round"></path><path d="M 309.119,269.892 C 329.435,243.467 330.611,244.267 349.868,217.131" stroke-width="4.500" stroke="black" fill="none" stroke-linecap="round"></path><path d="M 349.868,217.131 C 358.975,204.297 359.228,204.145 365.848,189.951" stroke-width="4.500" stroke="black" fill="none" stroke-linecap="round"></path><path d="M 365.848,189.951 C 370.414,180.163 371.345,179.686 372.240,169.167" stroke-width="4.500" stroke="black" fill="none" stroke-linecap="round"></path><path d="M 372.240,169.167 C 372.943,160.900 371.434,160.450 369.044,152.379" stroke-width="4.500" stroke="black" fill="none" stroke-linecap="round"></path><path d="M 369.044,152.379 C 368.238,149.658 367.746,149.735 365.848,147.583" stroke-width="5.670" stroke="black" fill="none" stroke-linecap="round"></path><path d="M 365.848,147.583 C 361.753,142.940 361.737,142.859 357.059,138.790" stroke-width="5.331" stroke="black" fill="none" stroke-linecap="round"></path><path d="M 357.059,138.790 C 352.548,134.865 352.415,134.968 347.471,131.595" stroke-width="5.294" stroke="black" fill="none" stroke-linecap="round"></path><path d="M 347.471,131.595 C 343.626,128.973 343.709,128.540 339.481,126.798" stroke-width="5.647" stroke="black" fill="none" stroke-linecap="round"></path><path d="M 339.481,126.798 C 336.917,125.742 335.448,124.612 333.888,125.999" stroke-width="6.380" stroke="black" fill="none" stroke-linecap="round"></path><path d="M 333.888,125.999 C 331.852,127.809 331.382,129.764 332.290,133.194" stroke-width="7.059" stroke="black" fill="none" stroke-linecap="round"></path><path d="M 332.290,133.194 C 334.978,143.354 336.087,143.484 341.079,153.179" stroke-width="4.542" stroke="black" fill="none" stroke-linecap="round"></path><path d="M 341.079,153.179 C 349.670,169.864 349.631,169.956 359.456,185.954" stroke-width="4.500" stroke="black" fill="none" stroke-linecap="round"></path><path d="M 359.456,185.954 C 370.005,203.132 370.420,202.893 381.828,219.529" stroke-width="4.500" stroke="black" fill="none" stroke-linecap="round"></path><path d="M 381.828,219.529 C 393.991,237.268 394.266,237.079 406.597,254.703" stroke-width="4.500" stroke="black" fill="none" stroke-linecap="round"></path><path d="M 406.597,254.703 C 419.434,273.052 419.985,272.697 432.165,291.476" stroke-width="4.500" stroke="black" fill="none" stroke-linecap="round"></path><path d="M 432.165,291.476 C 444.355,310.269 445.346,309.858 455.336,329.847" stroke-width="4.500" stroke="black" fill="none" stroke-linecap="round"></path><path d="M 455.336,329.847 C 466.120,351.427 464.524,352.230 473.713,374.614" stroke-width="4.500" stroke="black" fill="none" stroke-linecap="round"></path></svg>