<svg xmlns="http://www.w3.org/2000/svg" xmlns:xlink="http://www.w3.org/1999/xlink" viewBox="0 0 576 336" width="576" height="336"><path d="M 99.127,73.049 C 88.825,77.314 88.495,76.722 78.524,81.578" stroke-width="6.982" stroke="black" fill="none" stroke-linecap="round"></path><path d="M 78.524,81.578 C 74.996,83.297 75.155,83.676 72.130,86.199" stroke-width="6.286" stroke="black" fill="none" stroke-linecap="round"></path><path d="M 72.130,86.199 C 66.629,90.784 66.535,90.730 61.473,95.795" stroke-width="5.232" stroke="black" fill="none" stroke-linecap="round"></path><path d="M 61.473,95.795 C 56.056,101.214 55.662,101.000 51.171,107.168" stroke-width="4.769" stroke="black" fill="none" stroke-linecap="round"></path><path d="M 51.171,107.168 C 46.604,113.439 46.910,113.739 43.356,120.673" stroke-width="4.618" stroke="black" fill="none" stroke-linecap="round"></path><path d="M 43.356,120.673 C 39.806,127.600 39.335,127.512 36.962,134.890" stroke-width="4.576" stroke="black" fill="none" stroke-linecap="round"></path><path d="M 36.962,134.890 C 34.362,142.972 34.797,143.177 33.410,151.594" stroke-width="4.515" stroke="black" fill="none" stroke-linecap="round"></path><path d="M 33.410,151.594 C 31.955,160.415 31.733,160.449 31.278,169.364" stroke-width="4.500" stroke="black" fill="none" stroke-linecap="round"></path><path d="M 31.278,169.364 C 30.845,177.864 30.881,177.948 31.634,186.424" stroke-width="4.500" stroke="black" fill="none" stroke-linecap="round"></path><path d="M 31.634,186.424 C 32.302,193.941 32.293,194.038 34.120,201.351" stroke-width="4.578" stroke="black" fill="none" stroke-linecap="round"></path><path d="M 34.120,201.351 C 35.667,207.543 35.372,207.881 38.383,213.435" stroke-width="4.952" stroke="black" fill="none" stroke-linecap="round"></path><path d="M 38.383,213.435 C 41.056,218.365 41.451,218.366 45.488,222.320" stroke-width="5.252" stroke="black" fill="none" stroke-linecap="round"></path><path d="M 45.488,222.320 C 49.977,226.718 50.119,226.762 55.434,230.139" stroke-width="5.187" stroke="black" fill="none" stroke-linecap="round"></path><path d="M 55.434,230.139 C 61.308,233.870 61.391,234.044 67.867,236.536" stroke-width="4.805" stroke="black" fill="none" stroke-linecap="round"></path><path d="M 67.867,236.536 C 72.935,238.487 73.132,238.201 78.524,239.024" stroke-width="5.170" stroke="black" fill="none" stroke-linecap="round"></path><path d="M 78.524,239.024 C 83.611,239.800 83.715,240.019 88.825,239.735" stroke-width="5.376" stroke="black" fill="none" stroke-linecap="round"></path><path d="M 88.825,239.735 C 93.307,239.486 93.411,239.288 97.706,237.958" stroke-width="5.714" stroke="black" fill="none" stroke-linecap="round"></path><path d="M 97.706,237.958 C 100.871,236.978 100.969,236.900 103.745,235.115" stroke-width="6.145" stroke="black" fill="none" stroke-linecap="round"></path><path d="M 103.745,235.115 C 105.942,233.701 106.588,233.831 107.652,231.560" stroke-width="6.633" stroke="black" fill="none" stroke-linecap="round"></path><path d="M 107.652,231.560 C 109.253,228.144 109.572,227.431 109.073,223.742" stroke-width="7.026" stroke="black" fill="none" stroke-linecap="round"></path><path d="M 109.073,223.742 C 108.684,220.856 108.112,220.511 105.876,218.410" stroke-width="6.715" stroke="black" fill="none" stroke-linecap="round"></path><path d="M 105.876,218.410 C 99.409,212.336 99.268,212.087 91.667,207.393" stroke-width="4.885" stroke="black" fill="none" stroke-linecap="round"></path><path d="M 91.667,207.393 C 84.881,203.202 84.356,204.077 77.103,200.640" stroke-width="4.603" stroke="black" fill="none" stroke-linecap="round"></path><path d="M 77.103,200.640 C 70.857,197.680 70.977,197.414 64.670,194.598" stroke-width="4.759" stroke="black" fill="none" stroke-linecap="round"></path><path d="M 64.670,194.598 C 59.432,192.260 59.333,192.485 54.013,190.333" stroke-width="5.172" stroke="black" fill="none" stroke-linecap="round"></path><path d="M 54.013,190.333 C 50.985,189.109 48.064,189.196 47.974,187.845" stroke-width="5.969" stroke="black" fill="none" stroke-linecap="round"></path><path d="M 47.974,187.845 C 47.886,186.531 50.564,185.525 53.658,185.002" stroke-width="7.240" stroke="black" fill="none" stroke-linecap="round"></path><path d="M 53.658,185.002 C 64.240,183.214 64.524,184.406 75.326,183.225" stroke-width="4.573" stroke="black" fill="none" stroke-linecap="round"></path><path d="M 75.326,183.225 C 85.660,182.096 85.701,182.209 95.930,180.382" stroke-width="4.500" stroke="black" fill="none" stroke-linecap="round"></path><path d="M 95.930,180.382 C 105.594,178.655 105.584,178.500 115.112,176.117" stroke-width="4.711" stroke="black" fill="none" stroke-linecap="round"></path><path d="M 115.112,176.117 C 123.345,174.058 123.445,174.266 131.452,171.497" stroke-width="4.563" stroke="black" fill="none" stroke-linecap="round"></path><path d="M 131.452,171.497 C 137.832,169.290 138.045,169.477 143.885,166.166" stroke-width="4.680" stroke="black" fill="none" stroke-linecap="round"></path><path d="M 143.885,166.166 C 148.702,163.435 148.668,163.164 152.766,159.413" stroke-width="5.184" stroke="black" fill="none" stroke-linecap="round"></path><path d="M 152.766,159.413 C 157.016,155.523 157.111,155.487 160.581,150.883" stroke-width="5.303" stroke="black" fill="none" stroke-linecap="round"></path><path d="M 160.581,150.883 C 165.281,144.647 165.986,144.821 169.106,137.733" stroke-width="4.750" stroke="black" fill="none" stroke-linecap="round"></path><path d="M 169.106,137.733 C 172.557,129.894 172.294,129.528 173.724,121.029" stroke-width="4.541" stroke="black" fill="none" stroke-linecap="round"></path><path d="M 173.724,121.029 C 175.135,112.646 175.147,112.461 174.790,103.969" stroke-width="4.500" stroke="black" fill="none" stroke-linecap="round"></path><path d="M 174.790,103.969 C 174.437,95.579 174.317,95.420 172.303,87.265" stroke-width="4.500" stroke="black" fill="none" stroke-linecap="round"></path><path d="M 172.303,87.265 C 170.587,80.315 170.385,80.242 167.330,73.759" stroke-width="4.681" stroke="black" fill="none" stroke-linecap="round"></path><path d="M 167.330,73.759 C 164.523,67.803 164.571,67.565 160.581,62.386" stroke-width="4.851" stroke="black" fill="none" stroke-linecap="round"></path><path d="M 160.581,62.386 C 157.999,59.035 157.557,59.310 154.187,56.700" stroke-width="5.594" stroke="black" fill="none" stroke-linecap="round"></path><path d="M 154.187,56.700 C 152.051,55.045 152.111,54.455 149.569,53.857" stroke-width="6.338" stroke="black" fill="none" stroke-linecap="round"></path><path d="M 149.569,53.857 C 146.072,53.033 144.454,51.706 142.109,53.857" stroke-width="7.008" stroke="black" fill="none" stroke-linecap="round"></path><path d="M 142.109,53.857 C 138.060,57.570 137.478,59.484 136.781,65.585" stroke-width="6.583" stroke="black" fill="none" stroke-linecap="round"></path><path d="M 136.781,65.585 C 136.057,71.923 137.817,72.205 139.267,78.735" stroke-width="5.418" stroke="black" fill="none" stroke-linecap="round"></path><path d="M 139.267,78.735 C 141.014,86.599 141.305,86.534 143.175,94.373" stroke-width="4.728" stroke="black" fill="none" stroke-linecap="round"></path><path d="M 143.175,94.373 C 145.035,102.172 145.072,102.166 146.727,110.011" stroke-width="4.562" stroke="black" fill="none" stroke-linecap="round"></path><path d="M 146.727,110.011 C 148.446,118.160 148.646,118.136 149.924,126.360" stroke-width="4.500" stroke="black" fill="none" stroke-linecap="round"></path><path d="M 149.924,126.360 C 151.132,134.129 150.891,134.171 151.700,141.998" stroke-width="4.605" stroke="black" fill="none" stroke-linecap="round"></path><path d="M 151.700,141.998 C 152.490,149.631 152.453,149.635 153.121,157.280" stroke-width="4.692" stroke="black" fill="none" stroke-linecap="round"></path><path d="M 153.121,157.280 C 153.696,163.852 154.187,163.867 154.187,170.430" stroke-width="4.759" stroke="black" fill="none" stroke-linecap="round"></path><path d="M 154.187,170.430 C 154.187,174.707 153.340,174.686 153.121,178.960" stroke-width="5.476" stroke="black" fill="none" stroke-linecap="round"></path><path d="M 153.121,178.960 C 152.985,181.617 153.340,184.907 153.476,184.291" stroke-width="6.369" stroke="black" fill="none" stroke-linecap="round"></path><path d="M 153.476,184.291 C 153.695,183.308 152.537,179.777 153.832,175.761" stroke-width="7.752" stroke="black" fill="none" stroke-linecap="round"></path><path d="M 168.041,154.792 C 171.770,156.747 172.211,156.129 175.500,158.702" stroke-width="8.170" stroke="black" fill="none" stroke-linecap="round"></path><path d="M 175.500,158.702 C 181.980,163.770 181.819,164.121 187.578,170.075" stroke-width="5.252" stroke="black" fill="none" stroke-linecap="round"></path><path d="M 187.578,170.075 C 192.476,175.138 192.564,175.131 196.814,180.737" stroke-width="5.014" stroke="black" fill="none" stroke-linecap="round"></path><path d="M 196.814,180.737 C 200.379,185.438 199.821,185.847 203.208,190.689" stroke-width="5.216" stroke="black" fill="none" stroke-linecap="round"></path><path d="M 203.208,190.689 C 206.037,194.732 205.911,194.892 209.247,198.508" stroke-width="5.455" stroke="black" fill="none" stroke-linecap="round"></path><path d="M 209.247,198.508 C 212.305,201.823 212.712,201.433 215.996,204.550" stroke-width="5.740" stroke="black" fill="none" stroke-linecap="round"></path><path d="M 215.996,204.550 C 219.639,208.008 219.163,208.627 223.101,211.658" stroke-width="5.590" stroke="black" fill="none" stroke-linecap="round"></path><path d="M 223.101,211.658 C 226.090,213.958 226.260,214.404 229.850,215.212" stroke-width="6.012" stroke="black" fill="none" stroke-linecap="round"></path><path d="M 229.850,215.212 C 233.365,216.003 234.365,216.464 237.310,214.856" stroke-width="6.883" stroke="black" fill="none" stroke-linecap="round"></path><path d="M 237.310,214.856 C 240.226,213.265 240.832,212.224 241.573,208.815" stroke-width="7.205" stroke="black" fill="none" stroke-linecap="round"></path><path d="M 241.573,208.815 C 242.608,204.050 242.810,203.136 240.862,198.508" stroke-width="6.991" stroke="black" fill="none" stroke-linecap="round"></path><path d="M 240.862,198.508 C 237.126,189.631 236.155,189.673 230.205,181.803" stroke-width="4.732" stroke="black" fill="none" stroke-linecap="round"></path><path d="M 230.205,181.803 C 225.676,175.813 225.673,175.533 219.904,170.786" stroke-width="4.758" stroke="black" fill="none" stroke-linecap="round"></path><path d="M 219.904,170.786 C 214.661,166.471 214.330,166.602 208.181,163.678" stroke-width="4.913" stroke="black" fill="none" stroke-linecap="round"></path><path d="M 208.181,163.678 C 203.495,161.449 203.277,161.137 198.235,160.479" stroke-width="5.273" stroke="black" fill="none" stroke-linecap="round"></path><path d="M 198.235,160.479 C 195.107,160.071 194.820,160.399 191.841,161.545" stroke-width="6.085" stroke="black" fill="none" stroke-linecap="round"></path><path d="M 191.841,161.545 C 187.893,163.065 187.286,162.825 184.381,165.810" stroke-width="5.923" stroke="black" fill="none" stroke-linecap="round"></path><path d="M 184.381,165.810 C 180.714,169.578 180.322,170.012 178.698,175.051" stroke-width="5.616" stroke="black" fill="none" stroke-linecap="round"></path><path d="M 178.698,175.051 C 176.770,181.030 176.598,181.632 177.277,187.845" stroke-width="5.438" stroke="black" fill="none" stroke-linecap="round"></path><path d="M 177.277,187.845 C 177.841,193.005 178.324,193.415 181.184,197.797" stroke-width="5.499" stroke="black" fill="none" stroke-linecap="round"></path><path d="M 181.184,197.797 C 184.007,202.122 184.438,202.169 188.644,205.260" stroke-width="5.537" stroke="black" fill="none" stroke-linecap="round"></path><path d="M 188.644,205.260 C 193.141,208.566 193.368,208.596 198.590,210.591" stroke-width="5.447" stroke="black" fill="none" stroke-linecap="round"></path><path d="M 198.590,210.591 C 203.137,212.328 203.335,212.118 208.181,212.724" stroke-width="5.537" stroke="black" fill="none" stroke-linecap="round"></path><path d="M 208.181,212.724 C 211.861,213.184 212.180,213.747 215.641,212.724" stroke-width="6.021" stroke="black" fill="none" stroke-linecap="round"></path><path d="M 215.641,212.724 C 219.995,211.437 220.750,211.272 223.811,208.103" stroke-width="6.648" stroke="black" fill="none" stroke-linecap="round"></path><path d="M 223.811,208.103 C 225.901,205.941 226.254,205.125 225.943,202.062" stroke-width="7.246" stroke="black" fill="none" stroke-linecap="round"></path><path d="M 225.943,202.062 C 225.188,194.640 224.367,194.392 221.680,187.135" stroke-width="6.465" stroke="black" fill="none" stroke-linecap="round"></path><path d="M 221.680,187.135 C 219.038,179.998 218.899,179.972 215.286,173.274" stroke-width="5.154" stroke="black" fill="none" stroke-linecap="round"></path><path d="M 215.286,173.274 C 212.860,168.776 212.372,169.055 209.602,164.744" stroke-width="5.468" stroke="black" fill="none" stroke-linecap="round"></path><path d="M 209.602,164.744 C 207.576,161.591 205.500,157.310 205.695,158.347" stroke-width="5.990" stroke="black" fill="none" stroke-linecap="round"></path><path d="M 205.695,158.347 C 206.033,160.153 207.122,165.037 210.668,170.430" stroke-width="6.957" stroke="black" fill="none" stroke-linecap="round"></path><path d="M 210.668,170.430 C 216.002,178.543 216.202,178.895 223.456,185.358" stroke-width="4.858" stroke="black" fill="none" stroke-linecap="round"></path><path d="M 223.456,185.358 C 229.168,190.446 229.844,189.777 236.599,193.532" stroke-width="4.656" stroke="black" fill="none" stroke-linecap="round"></path><path d="M 236.599,193.532 C 242.632,196.885 242.477,197.867 249.032,199.574" stroke-width="4.867" stroke="black" fill="none" stroke-linecap="round"></path><path d="M 238.376,151.594 C 240.329,156.925 239.352,157.501 242.283,162.256" stroke-width="8.489" stroke="black" fill="none" stroke-linecap="round"></path><path d="M 242.283,162.256 C 245.924,168.163 246.243,168.344 251.519,172.918" stroke-width="5.629" stroke="black" fill="none" stroke-linecap="round"></path><path d="M 251.519,172.918 C 256.900,177.584 257.317,177.268 263.597,180.737" stroke-width="5.079" stroke="black" fill="none" stroke-linecap="round"></path><path d="M 263.597,180.737 C 269.217,183.843 269.248,184.269 275.319,186.068" stroke-width="5.108" stroke="black" fill="none" stroke-linecap="round"></path><path d="M 275.319,186.068 C 278.840,187.112 280.126,187.940 282.779,186.424" stroke-width="5.859" stroke="black" fill="none" stroke-linecap="round"></path><path d="M 282.779,186.424 C 285.099,185.097 284.679,183.510 285.266,180.382" stroke-width="6.903" stroke="black" fill="none" stroke-linecap="round"></path><path d="M 285.266,180.382 C 285.745,177.824 285.492,177.644 284.910,175.051" stroke-width="6.929" stroke="black" fill="none" stroke-linecap="round"></path><path d="M 284.910,175.051 C 283.539,168.937 283.981,168.652 281.358,162.967" stroke-width="5.485" stroke="black" fill="none" stroke-linecap="round"></path><path d="M 281.358,162.967 C 276.521,152.481 275.961,152.665 269.991,142.709" stroke-width="4.500" stroke="black" fill="none" stroke-linecap="round"></path><path d="M 269.991,142.709 C 264.772,134.006 264.341,134.268 258.979,125.649" stroke-width="4.500" stroke="black" fill="none" stroke-linecap="round"></path><path d="M 258.979,125.649 C 253.507,116.853 253.825,116.654 248.322,107.878" stroke-width="4.500" stroke="black" fill="none" stroke-linecap="round"></path><path d="M 248.322,107.878 C 242.458,98.528 242.430,98.538 236.244,89.397" stroke-width="4.500" stroke="black" fill="none" stroke-linecap="round"></path><path d="M 236.244,89.397 C 230.885,81.479 230.714,81.595 225.232,73.759" stroke-width="4.500" stroke="black" fill="none" stroke-linecap="round"></path><path d="M 225.232,73.759 C 220.768,67.379 221.066,67.149 216.351,60.965" stroke-width="4.515" stroke="black" fill="none" stroke-linecap="round"></path><path d="M 216.351,60.965 C 213.073,56.664 213.058,56.603 209.247,52.790" stroke-width="5.079" stroke="black" fill="none" stroke-linecap="round"></path><path d="M 209.247,52.790 C 207.197,50.739 207.214,50.396 204.629,49.236" stroke-width="6.172" stroke="black" fill="none" stroke-linecap="round"></path><path d="M 204.629,49.236 C 202.064,48.085 200.573,46.764 198.945,48.170" stroke-width="7.396" stroke="black" fill="none" stroke-linecap="round"></path><path d="M 198.945,48.170 C 196.665,50.141 196.499,52.049 196.814,55.989" stroke-width="7.276" stroke="black" fill="none" stroke-linecap="round"></path><path d="M 196.814,55.989 C 197.565,65.377 198.263,65.613 201.077,74.826" stroke-width="4.822" stroke="black" fill="none" stroke-linecap="round"></path><path d="M 201.077,74.826 C 204.125,84.806 204.497,84.729 208.536,94.373" stroke-width="4.500" stroke="black" fill="none" stroke-linecap="round"></path><path d="M 208.536,94.373 C 212.312,103.388 212.474,103.329 216.707,112.143" stroke-width="4.500" stroke="black" fill="none" stroke-linecap="round"></path><path d="M 216.707,112.143 C 221.177,121.455 221.618,121.249 225.943,130.625" stroke-width="4.500" stroke="black" fill="none" stroke-linecap="round"></path><path d="M 225.943,130.625 C 230.143,139.730 230.066,139.780 233.758,149.106" stroke-width="4.500" stroke="black" fill="none" stroke-linecap="round"></path><path d="M 233.758,149.106 C 237.171,157.728 236.506,158.010 240.152,166.521" stroke-width="4.500" stroke="black" fill="none" stroke-linecap="round"></path><path d="M 240.152,166.521 C 242.900,172.937 242.519,173.434 246.546,178.960" stroke-width="4.663" stroke="black" fill="none" stroke-linecap="round"></path><path d="M 246.546,178.960 C 248.735,181.964 249.210,182.423 252.585,183.581" stroke-width="5.653" stroke="black" fill="none" stroke-linecap="round"></path><path d="M 252.585,183.581 C 255.427,184.555 255.977,184.159 258.979,183.225" stroke-width="6.174" stroke="black" fill="none" stroke-linecap="round"></path><path d="M 258.979,183.225 C 263.969,181.672 264.062,181.397 268.570,178.605" stroke-width="5.712" stroke="black" fill="none" stroke-linecap="round"></path><path d="M 268.570,178.605 C 275.251,174.467 275.751,174.796 281.358,169.364" stroke-width="4.939" stroke="black" fill="none" stroke-linecap="round"></path><path d="M 281.358,169.364 C 286.940,163.956 286.322,163.266 290.949,156.925" stroke-width="4.654" stroke="black" fill="none" stroke-linecap="round"></path><path d="M 290.949,156.925 C 294.492,152.071 294.467,152.039 297.699,146.974" stroke-width="5.070" stroke="black" fill="none" stroke-linecap="round"></path><path d="M 297.699,146.974 C 299.795,143.687 303.072,141.321 301.606,140.221" stroke-width="5.792" stroke="black" fill="none" stroke-linecap="round"></path><path d="M 301.606,140.221 C 299.520,138.655 295.863,140.001 290.594,141.642" stroke-width="7.235" stroke="black" fill="none" stroke-linecap="round"></path><path d="M 290.594,141.642 C 277.036,145.865 277.117,146.428 263.952,151.949" stroke-width="4.500" stroke="black" fill="none" stroke-linecap="round"></path><path d="M 263.952,151.949 C 252.962,156.558 253.030,156.743 242.283,161.901" stroke-width="4.500" stroke="black" fill="none" stroke-linecap="round"></path><path d="M 242.283,161.901 C 231.184,167.228 231.288,167.443 220.259,172.918" stroke-width="4.500" stroke="black" fill="none" stroke-linecap="round"></path><path d="M 220.259,172.918 C 207.665,179.171 207.772,179.401 195.038,185.358" stroke-width="4.500" stroke="black" fill="none" stroke-linecap="round"></path><path d="M 195.038,185.358 C 180.419,192.196 180.358,192.075 165.554,198.508" stroke-width="4.500" stroke="black" fill="none" stroke-linecap="round"></path><path d="M 165.554,198.508 C 149.276,205.581 149.389,205.886 132.873,212.368" stroke-width="4.500" stroke="black" fill="none" stroke-linecap="round"></path><path d="M 132.873,212.368 C 117.241,218.503 117.181,218.400 101.258,223.742" stroke-width="4.500" stroke="black" fill="none" stroke-linecap="round"></path><path d="M 101.258,223.742 C 86.987,228.529 87.006,228.692 72.485,232.627" stroke-width="4.500" stroke="black" fill="none" stroke-linecap="round"></path><path d="M 72.485,232.627 C 61.430,235.622 61.390,235.874 50.106,237.602" stroke-width="4.500" stroke="black" fill="none" stroke-linecap="round"></path><path d="M 50.106,237.602 C 43.984,238.540 39.242,239.319 37.673,237.958" stroke-width="4.640" stroke="black" fill="none" stroke-linecap="round"></path><path d="M 37.673,237.958 C 36.578,237.009 41.324,235.599 44.777,232.982" stroke-width="6.637" stroke="black" fill="none" stroke-linecap="round"></path><path d="M 44.777,232.982 C 47.186,231.157 47.263,231.206 49.395,229.073" stroke-width="6.637" stroke="black" fill="none" stroke-linecap="round"></path><path d="M 49.395,229.073 C 51.704,226.763 52.057,226.916 53.658,224.097" stroke-width="6.538" stroke="black" fill="none" stroke-linecap="round"></path><path d="M 53.658,224.097 C 56.497,219.097 55.724,218.651 58.276,213.435" stroke-width="5.655" stroke="black" fill="none" stroke-linecap="round"></path><path d="M 58.276,213.435 C 63.895,201.947 64.480,202.224 69.998,190.689" stroke-width="4.500" stroke="black" fill="none" stroke-linecap="round"></path><path d="M 69.998,190.689 C 74.426,181.433 73.325,180.852 78.168,171.852" stroke-width="4.500" stroke="black" fill="none" stroke-linecap="round"></path><path d="M 78.168,171.852 C 82.028,164.681 81.511,163.737 87.404,158.347" stroke-width="4.500" stroke="black" fill="none" stroke-linecap="round"></path><path d="M 87.404,158.347 C 93.944,152.364 94.917,153.054 103.034,149.106" stroke-width="4.500" stroke="black" fill="none" stroke-linecap="round"></path><path d="M 103.034,149.106 C 107.705,146.834 107.891,147.057 112.981,145.907" stroke-width="5.092" stroke="black" fill="none" stroke-linecap="round"></path><path d="M 112.981,145.907 C 129.915,142.081 130.014,142.439 147.082,139.155" stroke-width="4.500" stroke="black" fill="none" stroke-linecap="round"></path><path d="M 147.082,139.155 C 157.721,137.107 157.784,137.412 168.396,135.245" stroke-width="4.500" stroke="black" fill="none" stroke-linecap="round"></path><path d="M 168.396,135.245 C 175.190,133.858 175.223,133.900 181.894,132.046" stroke-width="4.500" stroke="black" fill="none" stroke-linecap="round"></path><path d="M 181.894,132.046 C 184.814,131.235 188.626,131.487 187.578,129.914" stroke-width="5.780" stroke="black" fill="none" stroke-linecap="round"></path><path d="M 187.578,129.914 C 184.719,125.623 181.746,122.499 174.080,120.318" stroke-width="5.927" stroke="black" fill="none" stroke-linecap="round"></path><path d="M 174.080,120.318 C 162.386,116.990 161.471,119.118 148.858,118.896" stroke-width="4.500" stroke="black" fill="none" stroke-linecap="round"></path><path d="M 148.858,118.896 C 141.223,118.762 140.945,118.156 133.584,119.607" stroke-width="4.500" stroke="black" fill="none" stroke-linecap="round"></path><path d="M 133.584,119.607 C 129.223,120.466 128.445,120.585 125.414,123.517" stroke-width="5.353" stroke="black" fill="none" stroke-linecap="round"></path><path d="M 125.414,123.517 C 123.117,125.738 122.432,126.695 122.927,129.914" stroke-width="6.052" stroke="black" fill="none" stroke-linecap="round"></path><path d="M 122.927,129.914 C 124.208,138.245 124.431,139.131 128.966,146.618" stroke-width="4.794" stroke="black" fill="none" stroke-linecap="round"></path><path d="M 128.966,146.618 C 135.087,156.724 135.924,156.515 144.241,165.099" stroke-width="4.500" stroke="black" fill="none" stroke-linecap="round"></path><path d="M 144.241,165.099 C 152.797,173.930 153.007,173.876 162.712,181.448" stroke-width="4.500" stroke="black" fill="none" stroke-linecap="round"></path><path d="M 162.712,181.448 C 172.367,188.980 172.362,189.222 182.960,195.309" stroke-width="4.500" stroke="black" fill="none" stroke-linecap="round"></path><path d="M 182.960,195.309 C 191.544,200.240 192.085,199.256 201.077,203.483" stroke-width="4.500" stroke="black" fill="none" stroke-linecap="round"></path><path d="M 201.077,203.483 C 206.827,206.187 206.609,207.520 212.444,209.170" stroke-width="4.777" stroke="black" fill="none" stroke-linecap="round"></path><circle r="3" cx="187.578125" cy="166.16563415527344" fill="black"></circle></svg>