<svg xmlns="http://www.w3.org/2000/svg" xmlns:xlink="http://www.w3.org/1999/xlink" viewBox="0 0 576 416" width="576" height="416"><path d="M 369.843,210.620 C 370.642,206.623 370.771,206.644 371.441,202.626" stroke-width="8.294" stroke="black" fill="none" stroke-linecap="round"></path><path d="M 371.441,202.626 C 371.970,199.450 371.903,199.435 372.240,196.231" stroke-width="6.972" stroke="black" fill="none" stroke-linecap="round"></path><path d="M 372.240,196.231 C 372.702,191.841 372.468,191.812 373.039,187.437" stroke-width="6.203" stroke="black" fill="none" stroke-linecap="round"></path><path d="M 373.039,187.437 C 373.667,182.619 373.804,182.635 374.637,177.845" stroke-width="5.861" stroke="black" fill="none" stroke-linecap="round"></path><path d="M 374.637,177.845 C 375.402,173.442 375.202,173.392 376.235,169.051" stroke-width="5.887" stroke="black" fill="none" stroke-linecap="round"></path><path d="M 376.235,169.051 C 377.199,164.998 377.054,164.891 378.632,161.057" stroke-width="5.991" stroke="black" fill="none" stroke-linecap="round"></path><path d="M 378.632,161.057 C 379.850,158.096 380.046,158.135 381.828,155.461" stroke-width="6.356" stroke="black" fill="none" stroke-linecap="round"></path><path d="M 381.828,155.461 C 383.242,153.338 383.073,153.026 385.024,151.464" stroke-width="6.798" stroke="black" fill="none" stroke-linecap="round"></path><path d="M 385.024,151.464 C 387.068,149.828 387.245,149.520 389.818,149.066" stroke-width="6.758" stroke="black" fill="none" stroke-linecap="round"></path><path d="M 389.818,149.066 C 394.036,148.321 394.446,148.075 398.607,149.066" stroke-width="7.029" stroke="black" fill="none" stroke-linecap="round"></path><path d="M 398.607,149.066 C 402.836,150.073 402.759,150.794 406.597,153.063" stroke-width="6.198" stroke="black" fill="none" stroke-linecap="round"></path><path d="M 406.597,153.063 C 411.548,155.990 411.557,156.036 416.185,159.458" stroke-width="5.589" stroke="black" fill="none" stroke-linecap="round"></path><path d="M 416.185,159.458 C 420.746,162.831 420.748,162.870 424.974,166.653" stroke-width="5.539" stroke="black" fill="none" stroke-linecap="round"></path><path d="M 424.974,166.653 C 428.338,169.665 428.170,169.851 431.366,173.048" stroke-width="5.685" stroke="black" fill="none" stroke-linecap="round"></path><path d="M 431.366,173.048 C 434.162,175.846 434.290,175.732 436.959,178.644" stroke-width="5.997" stroke="black" fill="none" stroke-linecap="round"></path><path d="M 436.959,178.644 C 438.685,180.528 438.789,180.494 440.155,182.641" stroke-width="6.613" stroke="black" fill="none" stroke-linecap="round"></path><path d="M 440.155,182.641 C 441.586,184.891 441.656,184.927 442.552,187.437" stroke-width="6.772" stroke="black" fill="none" stroke-linecap="round"></path><path d="M 436.160,200.228 C 431.366,200.628 431.331,200.378 426.572,201.027" stroke-width="8.584" stroke="black" fill="none" stroke-linecap="round"></path><path d="M 426.572,201.027 C 422.542,201.577 422.595,201.928 418.582,202.626" stroke-width="6.666" stroke="black" fill="none" stroke-linecap="round"></path><path d="M 418.582,202.626 C 413.406,203.527 413.393,203.455 408.195,204.225" stroke-width="5.853" stroke="black" fill="none" stroke-linecap="round"></path><path d="M 408.195,204.225 C 402.606,205.053 402.597,204.995 397.009,205.824" stroke-width="5.622" stroke="black" fill="none" stroke-linecap="round"></path><path d="M 397.009,205.824 C 391.811,206.594 391.838,206.820 386.622,207.423" stroke-width="5.488" stroke="black" fill="none" stroke-linecap="round"></path><path d="M 386.622,207.423 C 381.451,208.019 381.425,207.789 376.235,208.222" stroke-width="5.552" stroke="black" fill="none" stroke-linecap="round"></path><path d="M 376.235,208.222 C 371.837,208.589 371.849,208.812 367.446,209.021" stroke-width="5.808" stroke="black" fill="none" stroke-linecap="round"></path><path d="M 367.446,209.021 C 363.459,209.211 363.437,209.243 359.456,209.021" stroke-width="6.024" stroke="black" fill="none" stroke-linecap="round"></path><path d="M 359.456,209.021 C 356.246,208.843 356.213,208.852 353.064,208.222" stroke-width="6.368" stroke="black" fill="none" stroke-linecap="round"></path><path d="M 353.064,208.222 C 350.220,207.653 348.252,208.381 347.471,206.623" stroke-width="7.236" stroke="black" fill="none" stroke-linecap="round"></path><path d="M 347.471,206.623 C 346.654,204.784 348.210,203.515 349.868,201.027" stroke-width="7.924" stroke="black" fill="none" stroke-linecap="round"></path><path d="M 349.868,201.027 C 351.406,198.718 354.654,197.189 353.863,197.030" stroke-width="8.048" stroke="black" fill="none" stroke-linecap="round"></path><path d="M 353.863,197.030 C 352.657,196.789 350.008,199.357 345.873,200.228" stroke-width="8.286" stroke="black" fill="none" stroke-linecap="round"></path><path d="M 345.873,200.228 C 342.417,200.956 341.949,201.162 338.682,200.228" stroke-width="7.667" stroke="black" fill="none" stroke-linecap="round"></path><path d="M 338.682,200.228 C 336.356,199.563 336.986,197.561 334.687,197.030" stroke-width="8.345" stroke="black" fill="none" stroke-linecap="round"></path><path d="M 334.687,197.030 C 331.792,196.362 331.487,197.404 328.295,197.830" stroke-width="8.360" stroke="black" fill="none" stroke-linecap="round"></path><path d="M 328.295,197.830 C 325.495,198.203 325.514,198.453 322.702,198.629" stroke-width="8.581" stroke="black" fill="none" stroke-linecap="round"></path><path d="M 322.702,198.629 C 319.122,198.853 319.100,198.466 315.511,198.629" stroke-width="6.866" stroke="black" fill="none" stroke-linecap="round"></path><path d="M 315.511,198.629 C 310.311,198.866 310.326,199.261 305.124,199.429" stroke-width="5.913" stroke="black" fill="none" stroke-linecap="round"></path><path d="M 305.124,199.429 C 297.942,199.660 297.933,199.429 290.742,199.429" stroke-width="5.146" stroke="black" fill="none" stroke-linecap="round"></path><path d="M 290.742,199.429 C 281.953,199.429 281.949,199.245 273.164,199.429" stroke-width="4.619" stroke="black" fill="none" stroke-linecap="round"></path><path d="M 273.164,199.429 C 262.773,199.645 262.780,200.032 252.390,200.228" stroke-width="4.500" stroke="black" fill="none" stroke-linecap="round"></path><path d="M 252.390,200.228 C 241.607,200.431 241.603,200.228 230.816,200.228" stroke-width="4.500" stroke="black" fill="none" stroke-linecap="round"></path><path d="M 230.816,200.228 C 219.630,200.228 219.630,200.228 208.444,200.228" stroke-width="4.500" stroke="black" fill="none" stroke-linecap="round"></path><path d="M 208.444,200.228 C 202.851,200.228 202.846,200.431 197.258,200.228" stroke-width="4.939" stroke="black" fill="none" stroke-linecap="round"></path><path d="M 197.258,200.228 C 180.874,199.632 180.865,199.637 164.499,198.629" stroke-width="4.500" stroke="black" fill="none" stroke-linecap="round"></path><path d="M 164.499,198.629 C 154.898,198.038 154.841,198.329 145.323,197.030" stroke-width="4.500" stroke="black" fill="none" stroke-linecap="round"></path><path d="M 145.323,197.030 C 137.263,195.931 137.267,195.710 129.343,193.833" stroke-width="4.500" stroke="black" fill="none" stroke-linecap="round"></path><path d="M 129.343,193.833 C 122.086,192.113 121.951,192.379 114.961,189.836" stroke-width="4.657" stroke="black" fill="none" stroke-linecap="round"></path><path d="M 114.961,189.836 C 108.768,187.582 108.740,187.444 102.976,184.240" stroke-width="4.933" stroke="black" fill="none" stroke-linecap="round"></path><path d="M 102.976,184.240 C 97.954,181.448 97.613,181.669 93.388,177.845" stroke-width="5.227" stroke="black" fill="none" stroke-linecap="round"></path><path d="M 93.388,177.845 C 89.224,174.075 89.454,173.667 86.197,169.051" stroke-width="5.343" stroke="black" fill="none" stroke-linecap="round"></path><path d="M 86.197,169.051 C 84.660,166.872 84.201,166.862 83.800,164.255" stroke-width="6.311" stroke="black" fill="none" stroke-linecap="round"></path><path d="M 83.800,164.255 C 82.603,156.470 82.032,156.023 83.001,148.267" stroke-width="5.036" stroke="black" fill="none" stroke-linecap="round"></path><path d="M 83.001,148.267 C 83.630,143.232 84.416,143.158 86.996,138.674" stroke-width="5.409" stroke="black" fill="none" stroke-linecap="round"></path><path d="M 86.996,138.674 C 92.006,129.968 91.902,129.741 98.182,121.886" stroke-width="4.500" stroke="black" fill="none" stroke-linecap="round"></path><path d="M 98.182,121.886 C 106.284,111.755 106.391,111.692 115.760,102.701" stroke-width="4.500" stroke="black" fill="none" stroke-linecap="round"></path><path d="M 115.760,102.701 C 125.967,92.906 126.041,92.838 137.333,84.314" stroke-width="4.500" stroke="black" fill="none" stroke-linecap="round"></path><path d="M 137.333,84.314 C 148.812,75.651 149.031,75.852 161.303,68.326" stroke-width="4.500" stroke="black" fill="none" stroke-linecap="round"></path><path d="M 161.303,68.326 C 173.800,60.663 173.631,60.159 186.871,53.937" stroke-width="4.500" stroke="black" fill="none" stroke-linecap="round"></path><path d="M 186.871,53.937 C 199.998,47.769 200.120,47.606 214.037,43.545" stroke-width="4.500" stroke="black" fill="none" stroke-linecap="round"></path><path d="M 214.037,43.545 C 228.884,39.212 229.056,38.787 244.400,37.150" stroke-width="4.500" stroke="black" fill="none" stroke-linecap="round"></path><path d="M 244.400,37.150 C 259.019,35.589 259.317,35.818 273.963,37.150" stroke-width="4.500" stroke="black" fill="none" stroke-linecap="round"></path><path d="M 273.963,37.150 C 285.684,38.216 285.796,38.678 297.134,41.946" stroke-width="4.500" stroke="black" fill="none" stroke-linecap="round"></path><path d="M 297.134,41.946 C 309.367,45.473 309.766,45.068 321.104,50.739" stroke-width="4.500" stroke="black" fill="none" stroke-linecap="round"></path><path d="M 321.104,50.739 C 331.339,55.860 331.466,56.217 340.280,63.530" stroke-width="4.500" stroke="black" fill="none" stroke-linecap="round"></path><path d="M 340.280,63.530 C 347.846,69.807 347.280,70.543 353.863,77.919" stroke-width="4.500" stroke="black" fill="none" stroke-linecap="round"></path><path d="M 353.863,77.919 C 357.268,81.735 357.059,81.916 360.255,85.913" stroke-width="5.012" stroke="black" fill="none" stroke-linecap="round"></path><circle r="3" cx="312.3146667480469" cy="142.67086791992188" fill="black"></circle><circle r="3" cx="285.1485595703125" cy="137.07504272460938" fill="black"></circle></svg>