<svg xmlns="http://www.w3.org/2000/svg" xmlns:xlink="http://www.w3.org/1999/xlink" viewBox="0 0 576 416" width="576" height="416"><path d="M 42.252,146.784 C 43.850,133.593 43.188,133.467 45.448,120.403" stroke-width="7.809" stroke="black" fill="none" stroke-linecap="round"></path><path d="M 45.448,120.403 C 46.784,112.682 47.026,112.673 49.443,105.215" stroke-width="5.318" stroke="black" fill="none" stroke-linecap="round"></path><path d="M 49.443,105.215 C 51.820,97.884 52.133,97.976 55.036,90.825" stroke-width="4.978" stroke="black" fill="none" stroke-linecap="round"></path><path d="M 55.036,90.825 C 57.326,85.186 57.208,85.119 59.830,79.634" stroke-width="5.070" stroke="black" fill="none" stroke-linecap="round"></path><path d="M 59.830,79.634 C 61.603,75.926 63.825,72.439 63.825,72.439" stroke-width="5.797" stroke="black" fill="none" stroke-linecap="round"></path><path d="M 63.825,72.439 C 63.825,72.439 62.110,76.213 59.830,79.634" stroke-width="7.038" stroke="black" fill="none" stroke-linecap="round"></path><path d="M 59.830,79.634 C 52.522,90.602 52.661,90.752 44.649,101.218" stroke-width="4.500" stroke="black" fill="none" stroke-linecap="round"></path><path d="M 44.649,101.218 C 38.279,109.538 38.208,109.550 31.066,117.206" stroke-width="4.500" stroke="black" fill="none" stroke-linecap="round"></path><path d="M 31.066,117.206 C 27.022,121.541 26.609,121.137 22.277,125.200" stroke-width="4.855" stroke="black" fill="none" stroke-linecap="round"></path><path d="M 22.277,125.200 C 20.217,127.132 18.282,129.197 18.282,129.197" stroke-width="6.045" stroke="black" fill="none" stroke-linecap="round"></path><path d="M 18.282,129.197 C 18.282,129.197 20.217,127.132 22.277,125.200" stroke-width="6.525" stroke="black" fill="none" stroke-linecap="round"></path><path d="M 22.277,125.200 C 26.609,121.137 26.505,121.009 31.066,117.206" stroke-width="5.614" stroke="black" fill="none" stroke-linecap="round"></path><path d="M 31.066,117.206 C 45.681,105.021 45.249,104.398 60.629,93.224" stroke-width="4.500" stroke="black" fill="none" stroke-linecap="round"></path><path d="M 60.629,93.224 C 78.807,80.016 78.815,79.828 98.182,68.442" stroke-width="4.500" stroke="black" fill="none" stroke-linecap="round"></path><path d="M 98.182,68.442 C 117.567,57.045 117.956,57.640 138.132,47.658" stroke-width="4.500" stroke="black" fill="none" stroke-linecap="round"></path><path d="M 138.132,47.658 C 154.310,39.653 154.338,39.645 170.891,32.469" stroke-width="4.500" stroke="black" fill="none" stroke-linecap="round"></path><path d="M 170.891,32.469 C 178.308,29.253 187.012,24.993 186.072,26.873" stroke-width="4.500" stroke="black" fill="none" stroke-linecap="round"></path><path d="M 186.072,26.873 C 184.615,29.789 176.264,34.715 166.097,42.062" stroke-width="5.150" stroke="black" fill="none" stroke-linecap="round"></path><path d="M 166.097,42.062 C 154.691,50.304 154.423,49.930 142.926,58.050" stroke-width="4.500" stroke="black" fill="none" stroke-linecap="round"></path><path d="M 142.926,58.050 C 134.048,64.320 134.104,64.399 125.348,70.840" stroke-width="4.500" stroke="black" fill="none" stroke-linecap="round"></path><path d="M 125.348,70.840 C 120.521,74.392 113.625,79.222 115.760,78.035" stroke-width="4.770" stroke="black" fill="none" stroke-linecap="round"></path><path d="M 115.760,78.035 C 120.816,75.225 127.553,70.120 139.730,62.846" stroke-width="5.436" stroke="black" fill="none" stroke-linecap="round"></path><path d="M 139.730,62.846 C 154.319,54.132 154.116,53.651 169.293,46.059" stroke-width="4.500" stroke="black" fill="none" stroke-linecap="round"></path><path d="M 169.293,46.059 C 182.081,39.662 182.483,40.477 195.660,34.867" stroke-width="4.500" stroke="black" fill="none" stroke-linecap="round"></path><path d="M 195.660,34.867 C 201.260,32.483 201.253,32.469 206.846,30.071" stroke-width="4.500" stroke="black" fill="none" stroke-linecap="round"></path><circle r="3" cx="101.37828063964844" cy="75.63665771484375" fill="black"></circle></svg>