<svg xmlns="http://www.w3.org/2000/svg" xmlns:xlink="http://www.w3.org/1999/xlink" viewBox="0 0 576 416" width="576" height="416"><path d="M 79.805,239.514 C 83.401,243.911 82.827,244.575 86.996,248.308" stroke-width="8.337" stroke="black" fill="none" stroke-linecap="round"></path><path d="M 86.996,248.308 C 90.417,251.370 90.677,251.667 94.986,253.104" stroke-width="7.403" stroke="black" fill="none" stroke-linecap="round"></path><path d="M 94.986,253.104 C 99.067,254.465 99.729,254.663 103.775,253.904" stroke-width="7.221" stroke="black" fill="none" stroke-linecap="round"></path><path d="M 103.775,253.904 C 106.121,253.464 106.046,252.575 107.770,250.706" stroke-width="7.006" stroke="black" fill="none" stroke-linecap="round"></path><path d="M 107.770,250.706 C 110.840,247.378 111.082,247.424 113.363,243.511" stroke-width="6.162" stroke="black" fill="none" stroke-linecap="round"></path><path d="M 113.363,243.511 C 116.675,237.831 116.441,237.633 118.956,231.520" stroke-width="5.242" stroke="black" fill="none" stroke-linecap="round"></path><path d="M 118.956,231.520 C 122.034,224.043 122.306,224.085 124.549,216.332" stroke-width="4.783" stroke="black" fill="none" stroke-linecap="round"></path><path d="M 124.549,216.332 C 126.701,208.896 126.341,208.773 127.745,201.143" stroke-width="4.525" stroke="black" fill="none" stroke-linecap="round"></path><path d="M 127.745,201.143 C 129.137,193.584 129.085,193.568 130.142,185.954" stroke-width="4.570" stroke="black" fill="none" stroke-linecap="round"></path><path d="M 130.142,185.954 C 131.083,179.179 131.271,179.179 131.740,172.365" stroke-width="4.763" stroke="black" fill="none" stroke-linecap="round"></path><path d="M 131.740,172.365 C 132.070,167.587 131.740,167.568 131.740,162.772" stroke-width="5.336" stroke="black" fill="none" stroke-linecap="round"></path><path d="M 131.740,162.772 C 131.740,159.574 132.990,156.555 131.740,156.376" stroke-width="6.058" stroke="black" fill="none" stroke-linecap="round"></path><path d="M 131.740,156.376 C 130.194,156.155 127.882,158.501 126.147,161.972" stroke-width="7.137" stroke="black" fill="none" stroke-linecap="round"></path><path d="M 126.147,161.972 C 121.490,171.291 122.253,171.867 118.956,181.957" stroke-width="4.500" stroke="black" fill="none" stroke-linecap="round"></path><path d="M 118.956,181.957 C 115.462,192.651 115.148,192.604 112.564,203.541" stroke-width="4.500" stroke="black" fill="none" stroke-linecap="round"></path><path d="M 112.564,203.541 C 109.955,214.588 109.977,214.659 108.569,225.924" stroke-width="4.500" stroke="black" fill="none" stroke-linecap="round"></path><path d="M 108.569,225.924 C 107.180,237.043 107.402,237.103 106.971,248.308" stroke-width="4.500" stroke="black" fill="none" stroke-linecap="round"></path><path d="M 106.971,248.308 C 106.603,257.888 106.754,257.906 106.971,267.494" stroke-width="4.500" stroke="black" fill="none" stroke-linecap="round"></path><path d="M 106.971,267.494 C 107.153,275.493 107.286,275.493 107.770,283.482" stroke-width="4.500" stroke="black" fill="none" stroke-linecap="round"></path><path d="M 107.770,283.482 C 108.085,288.683 107.800,288.744 108.569,293.874" stroke-width="5.185" stroke="black" fill="none" stroke-linecap="round"></path><path d="M 108.569,293.874 C 108.999,296.738 108.660,300.282 110.167,299.470" stroke-width="6.163" stroke="black" fill="none" stroke-linecap="round"></path><path d="M 110.167,299.470 C 113.853,297.484 115.275,294.344 118.956,288.278" stroke-width="6.289" stroke="black" fill="none" stroke-linecap="round"></path><path d="M 118.956,288.278 C 128.858,271.961 127.964,271.389 137.333,254.703" stroke-width="4.500" stroke="black" fill="none" stroke-linecap="round"></path><path d="M 137.333,254.703 C 147.939,235.816 148.163,235.942 158.906,217.131" stroke-width="4.500" stroke="black" fill="none" stroke-linecap="round"></path><path d="M 158.906,217.131 C 168.937,199.569 168.642,199.396 178.881,181.957" stroke-width="4.500" stroke="black" fill="none" stroke-linecap="round"></path><path d="M 178.881,181.957 C 187.418,167.419 187.926,167.717 196.459,153.179" stroke-width="4.500" stroke="black" fill="none" stroke-linecap="round"></path><path d="M 196.459,153.179 C 202.707,142.536 202.553,142.441 208.444,131.595" stroke-width="4.500" stroke="black" fill="none" stroke-linecap="round"></path><path d="M 208.444,131.595 C 212.540,124.055 212.710,124.125 216.434,116.406" stroke-width="4.500" stroke="black" fill="none" stroke-linecap="round"></path><path d="M 216.434,116.406 C 218.303,112.534 220.435,109.016 219.630,108.412" stroke-width="5.253" stroke="black" fill="none" stroke-linecap="round"></path><path d="M 219.630,108.412 C 218.837,107.817 216.192,110.961 213.238,114.008" stroke-width="6.764" stroke="black" fill="none" stroke-linecap="round"></path><path d="M 213.238,114.008 C 203.408,124.151 203.563,124.321 194.062,134.793" stroke-width="4.500" stroke="black" fill="none" stroke-linecap="round"></path><path d="M 194.062,134.793 C 179.992,150.301 179.955,150.270 166.097,165.969" stroke-width="4.500" stroke="black" fill="none" stroke-linecap="round"></path><path d="M 166.097,165.969 C 152.788,181.047 152.999,181.233 139.730,196.347" stroke-width="4.500" stroke="black" fill="none" stroke-linecap="round"></path><path d="M 139.730,196.347 C 127.032,210.811 126.665,210.496 114.162,225.125" stroke-width="4.500" stroke="black" fill="none" stroke-linecap="round"></path><path d="M 114.162,225.125 C 103.094,238.075 103.494,238.414 92.589,251.505" stroke-width="4.500" stroke="black" fill="none" stroke-linecap="round"></path><path d="M 92.589,251.505 C 83.519,262.396 83.509,262.392 74.212,273.089" stroke-width="4.500" stroke="black" fill="none" stroke-linecap="round"></path><path d="M 74.212,273.089 C 67.529,280.778 67.547,280.803 60.629,288.278" stroke-width="4.500" stroke="black" fill="none" stroke-linecap="round"></path><path d="M 60.629,288.278 C 57.559,291.595 53.706,294.850 54.237,294.673" stroke-width="5.041" stroke="black" fill="none" stroke-linecap="round"></path><path d="M 54.237,294.673 C 54.905,294.451 58.409,290.778 63.026,287.479" stroke-width="6.468" stroke="black" fill="none" stroke-linecap="round"></path><path d="M 63.026,287.479 C 75.189,278.787 75.321,278.950 87.795,270.691" stroke-width="4.500" stroke="black" fill="none" stroke-linecap="round"></path><path d="M 87.795,270.691 C 102.487,260.963 102.364,260.753 117.358,251.505" stroke-width="4.500" stroke="black" fill="none" stroke-linecap="round"></path><path d="M 117.358,251.505 C 131.528,242.767 131.543,242.751 146.122,234.718" stroke-width="4.500" stroke="black" fill="none" stroke-linecap="round"></path><path d="M 146.122,234.718 C 159.108,227.563 159.147,227.594 172.489,221.128" stroke-width="4.500" stroke="black" fill="none" stroke-linecap="round"></path><path d="M 172.489,221.128 C 184.715,215.203 184.815,215.397 197.258,209.936" stroke-width="4.500" stroke="black" fill="none" stroke-linecap="round"></path><path d="M 197.258,209.936 C 207.586,205.404 207.564,205.333 218.032,201.143" stroke-width="4.500" stroke="black" fill="none" stroke-linecap="round"></path><path d="M 218.032,201.143 C 225.541,198.138 225.708,198.551 233.214,195.547" stroke-width="4.500" stroke="black" fill="none" stroke-linecap="round"></path><path d="M 233.214,195.547 C 237.693,193.755 237.515,192.298 242.003,191.550" stroke-width="5.215" stroke="black" fill="none" stroke-linecap="round"></path><circle r="3" cx="66.22222900390625" cy="203.541259765625" fill="black"></circle></svg>