<svg xmlns="http://www.w3.org/2000/svg" xmlns:xlink="http://www.w3.org/1999/xlink" viewBox="0 0 576 416" width="576" height="416"><path d="M 136.534,225.924 C 136.534,241.513 136.720,241.515 136.534,257.101" stroke-width="5.771" stroke="black" fill="none" stroke-linecap="round"></path><path d="M 136.534,257.101 C 136.320,275.090 136.149,275.088 135.735,293.074" stroke-width="4.500" stroke="black" fill="none" stroke-linecap="round"></path><path d="M 135.735,293.074 C 135.350,309.862 134.532,309.882 134.936,326.649" stroke-width="4.500" stroke="black" fill="none" stroke-linecap="round"></path><path d="M 134.936,326.649 C 135.331,343.057 135.429,343.122 137.333,359.425" stroke-width="4.500" stroke="black" fill="none" stroke-linecap="round"></path><path d="M 137.333,359.425 C 139.024,373.899 142.511,393.449 142.127,388.203" stroke-width="4.500" stroke="black" fill="none" stroke-linecap="round"></path><path d="M 210.841,162.772 C 208.844,174.363 208.869,174.367 206.846,185.954" stroke-width="7.010" stroke="black" fill="none" stroke-linecap="round"></path><path d="M 206.846,185.954 C 204.474,199.548 205.122,199.697 202.052,213.134" stroke-width="4.500" stroke="black" fill="none" stroke-linecap="round"></path><path d="M 202.052,213.134 C 198.730,227.676 197.445,227.381 194.062,241.913" stroke-width="4.500" stroke="black" fill="none" stroke-linecap="round"></path><path d="M 194.062,241.913 C 190.653,256.559 190.942,256.648 188.469,271.491" stroke-width="4.500" stroke="black" fill="none" stroke-linecap="round"></path><path d="M 188.469,271.491 C 186.148,285.426 186.559,285.493 184.474,299.470" stroke-width="4.500" stroke="black" fill="none" stroke-linecap="round"></path><path d="M 184.474,299.470 C 182.564,312.273 182.431,312.253 180.479,325.051" stroke-width="4.500" stroke="black" fill="none" stroke-linecap="round"></path><path d="M 180.479,325.051 C 178.835,335.835 178.881,335.842 177.283,346.634" stroke-width="4.500" stroke="black" fill="none" stroke-linecap="round"></path><path d="M 106.971,321.054 C 111.366,315.857 110.719,315.201 115.760,310.661" stroke-width="7.749" stroke="black" fill="none" stroke-linecap="round"></path><path d="M 115.760,310.661 C 130.694,297.214 130.769,297.111 146.921,285.080" stroke-width="4.500" stroke="black" fill="none" stroke-linecap="round"></path><path d="M 146.921,285.080 C 166.725,270.331 166.949,270.559 187.670,257.101" stroke-width="4.500" stroke="black" fill="none" stroke-linecap="round"></path><path d="M 187.670,257.101 C 212.492,240.981 212.750,241.367 238.008,225.924" stroke-width="4.500" stroke="black" fill="none" stroke-linecap="round"></path><path d="M 238.008,225.924 C 263.087,210.590 262.808,210.088 288.345,195.547" stroke-width="4.500" stroke="black" fill="none" stroke-linecap="round"></path><path d="M 288.345,195.547 C 311.946,182.109 312.255,182.643 336.285,169.966" stroke-width="4.500" stroke="black" fill="none" stroke-linecap="round"></path><path d="M 336.285,169.966 C 356.200,159.460 356.055,159.152 376.235,149.182" stroke-width="4.500" stroke="black" fill="none" stroke-linecap="round"></path><path d="M 376.235,149.182 C 388.414,143.164 388.471,143.189 401.004,137.990" stroke-width="4.500" stroke="black" fill="none" stroke-linecap="round"></path><path d="M 401.004,137.990 C 404.850,136.394 407.756,135.344 408.994,135.592" stroke-width="4.619" stroke="black" fill="none" stroke-linecap="round"></path><path d="M 408.994,135.592 C 409.753,135.744 407.099,137.329 404.999,138.790" stroke-width="6.067" stroke="black" fill="none" stroke-linecap="round"></path><path d="M 404.999,138.790 C 383.528,153.717 383.037,153.035 361.853,168.367" stroke-width="4.500" stroke="black" fill="none" stroke-linecap="round"></path><path d="M 361.853,168.367 C 326.707,193.805 326.872,194.054 292.340,220.329" stroke-width="4.500" stroke="black" fill="none" stroke-linecap="round"></path><path d="M 292.340,220.329 C 260.156,244.816 259.908,244.525 228.419,269.892" stroke-width="4.500" stroke="black" fill="none" stroke-linecap="round"></path><path d="M 228.419,269.892 C 198.384,294.088 198.794,294.599 169.293,319.455" stroke-width="4.500" stroke="black" fill="none" stroke-linecap="round"></path><path d="M 169.293,319.455 C 145.661,339.366 146.262,340.128 122.152,359.425" stroke-width="4.500" stroke="black" fill="none" stroke-linecap="round"></path><path d="M 122.152,359.425 C 108.309,370.505 108.494,371.444 93.388,380.209" stroke-width="4.500" stroke="black" fill="none" stroke-linecap="round"></path><path d="M 93.388,380.209 C 88.519,383.035 83.071,386.083 82.202,382.608" stroke-width="4.500" stroke="black" fill="none" stroke-linecap="round"></path><path d="M 82.202,382.608 C 80.274,374.891 83.048,369.543 87.795,357.826" stroke-width="4.728" stroke="black" fill="none" stroke-linecap="round"></path><path d="M 87.795,357.826 C 101.025,325.176 100.263,324.249 118.157,293.874" stroke-width="4.500" stroke="black" fill="none" stroke-linecap="round"></path><path d="M 118.157,293.874 C 135.818,263.894 137.389,264.603 158.906,237.116" stroke-width="4.500" stroke="black" fill="none" stroke-linecap="round"></path><path d="M 158.906,237.116 C 182.133,207.446 182.058,207.208 207.645,179.559" stroke-width="4.500" stroke="black" fill="none" stroke-linecap="round"></path><path d="M 207.645,179.559 C 231.995,153.248 233.305,154.470 258.782,129.197" stroke-width="4.500" stroke="black" fill="none" stroke-linecap="round"></path><path d="M 258.782,129.197 C 280.446,107.705 280.355,107.613 301.928,86.029" stroke-width="4.500" stroke="black" fill="none" stroke-linecap="round"></path><path d="M 301.928,86.029 C 317.508,70.441 318.245,71.079 333.089,54.852" stroke-width="4.500" stroke="black" fill="none" stroke-linecap="round"></path><path d="M 333.089,54.852 C 339.818,47.497 349.612,36.697 345.074,38.864" stroke-width="4.500" stroke="black" fill="none" stroke-linecap="round"></path><path d="M 345.074,38.864 C 332.034,45.091 321.367,55.060 297.933,71.640" stroke-width="4.500" stroke="black" fill="none" stroke-linecap="round"></path><path d="M 297.933,71.640 C 265.437,94.630 265.365,94.537 233.214,118.005" stroke-width="4.500" stroke="black" fill="none" stroke-linecap="round"></path><path d="M 233.214,118.005 C 201.844,140.902 201.931,141.026 170.891,164.370" stroke-width="4.500" stroke="black" fill="none" stroke-linecap="round"></path><path d="M 170.891,164.370 C 144.003,184.593 144.832,185.779 117.358,205.140" stroke-width="4.500" stroke="black" fill="none" stroke-linecap="round"></path><path d="M 117.358,205.140 C 98.890,218.155 98.805,218.392 79.006,229.122" stroke-width="4.500" stroke="black" fill="none" stroke-linecap="round"></path><path d="M 79.006,229.122 C 70.041,233.981 68.583,236.574 59.830,236.317" stroke-width="4.500" stroke="black" fill="none" stroke-linecap="round"></path><path d="M 59.830,236.317 C 55.000,236.175 53.950,232.808 51.840,228.323" stroke-width="4.500" stroke="black" fill="none" stroke-linecap="round"></path><path d="M 51.840,228.323 C 50.754,226.013 52.500,225.481 53.438,222.727" stroke-width="5.837" stroke="black" fill="none" stroke-linecap="round"></path><path d="M 53.438,222.727 C 58.492,207.894 57.323,207.357 63.825,193.149" stroke-width="4.500" stroke="black" fill="none" stroke-linecap="round"></path><path d="M 63.825,193.149 C 72.504,174.182 72.868,174.177 83.800,156.376" stroke-width="4.500" stroke="black" fill="none" stroke-linecap="round"></path><path d="M 83.800,156.376 C 93.243,141.002 93.367,140.926 104.574,126.798" stroke-width="4.500" stroke="black" fill="none" stroke-linecap="round"></path><path d="M 104.574,126.798 C 113.342,115.745 113.343,115.458 123.750,106.014" stroke-width="4.500" stroke="black" fill="none" stroke-linecap="round"></path><path d="M 123.750,106.014 C 130.521,99.870 130.741,98.602 138.931,95.622" stroke-width="4.500" stroke="black" fill="none" stroke-linecap="round"></path><path d="M 138.931,95.622 C 143.924,93.805 145.180,94.774 150.117,96.421" stroke-width="4.850" stroke="black" fill="none" stroke-linecap="round"></path><path d="M 150.117,96.421 C 152.371,97.173 152.315,98.088 153.313,100.418" stroke-width="6.133" stroke="black" fill="none" stroke-linecap="round"></path><path d="M 153.313,100.418 C 157.109,109.280 157.386,109.377 159.705,118.804" stroke-width="4.635" stroke="black" fill="none" stroke-linecap="round"></path><path d="M 159.705,118.804 C 163.778,135.357 163.575,135.491 166.097,152.379" stroke-width="4.500" stroke="black" fill="none" stroke-linecap="round"></path><path d="M 166.097,152.379 C 168.769,170.265 168.691,170.320 170.092,188.353" stroke-width="4.500" stroke="black" fill="none" stroke-linecap="round"></path><path d="M 170.092,188.353 C 171.487,206.293 170.453,206.370 171.690,224.326" stroke-width="4.500" stroke="black" fill="none" stroke-linecap="round"></path><path d="M 171.690,224.326 C 172.850,241.144 173.002,241.146 174.886,257.901" stroke-width="4.500" stroke="black" fill="none" stroke-linecap="round"></path><path d="M 174.886,257.901 C 176.598,273.122 176.884,273.089 178.881,288.278" stroke-width="4.500" stroke="black" fill="none" stroke-linecap="round"></path><circle r="3" cx="297.13360595703125" cy="358.62548828125" fill="black"></circle></svg>