<svg xmlns="http://www.w3.org/2000/svg" xmlns:xlink="http://www.w3.org/1999/xlink" viewBox="0 0 576 336" width="576" height="336"><path d="M 91.667,236.137 C 89.358,243.245 88.794,243.108 87.049,250.353" stroke-width="7.057" stroke="black" fill="none" stroke-linecap="round"></path><path d="M 87.049,250.353 C 85.242,257.857 85.437,257.954 84.563,265.635" stroke-width="5.232" stroke="black" fill="none" stroke-linecap="round"></path><path d="M 84.563,265.635 C 83.839,271.993 85.097,272.203 83.852,278.430" stroke-width="5.161" stroke="black" fill="none" stroke-linecap="round"></path><path d="M 83.852,278.430 C 82.433,285.530 81.543,285.361 79.234,292.291" stroke-width="4.932" stroke="black" fill="none" stroke-linecap="round"></path><path d="M 79.234,292.291 C 76.925,299.222 77.354,299.396 74.616,306.152" stroke-width="4.957" stroke="black" fill="none" stroke-linecap="round"></path><path d="M 74.616,306.152 C 72.025,312.546 71.701,312.425 68.577,318.591" stroke-width="4.961" stroke="black" fill="none" stroke-linecap="round"></path><path d="M 68.577,318.591 C 65.129,325.397 65.264,325.482 61.473,332.097" stroke-width="4.898" stroke="black" fill="none" stroke-linecap="round"></path><path d="M 61.473,332.097 C 58.337,337.566 57.660,337.209 54.723,342.759" stroke-width="5.082" stroke="black" fill="none" stroke-linecap="round"></path><path d="M 54.723,342.759 C 52.865,346.272 53.111,346.431 51.882,350.223" stroke-width="5.769" stroke="black" fill="none" stroke-linecap="round"></path><path d="M 51.882,350.223 C 50.980,353.006 50.553,353.051 50.461,355.909" stroke-width="6.943" stroke="black" fill="none" stroke-linecap="round"></path><path d="M 50.461,355.909 C 50.375,358.560 51.984,358.770 51.526,361.240" stroke-width="7.474" stroke="black" fill="none" stroke-linecap="round"></path><path d="M 51.526,361.240 C 51.095,363.569 49.793,366.023 48.685,365.505" stroke-width="8.145" stroke="black" fill="none" stroke-linecap="round"></path><path d="M 48.685,365.505 C 47.129,364.779 47.533,362.092 46.198,358.752" stroke-width="8.516" stroke="black" fill="none" stroke-linecap="round"></path><path d="M 46.198,358.752 C 45.046,355.872 44.069,356.015 43.711,353.066" stroke-width="8.153" stroke="black" fill="none" stroke-linecap="round"></path><path d="M 43.711,353.066 C 43.358,350.151 43.351,349.496 44.777,347.024" stroke-width="8.217" stroke="black" fill="none" stroke-linecap="round"></path><path d="M 254.361,196.686 C 249.565,203.617 250.328,204.291 244.770,210.547" stroke-width="6.397" stroke="black" fill="none" stroke-linecap="round"></path><path d="M 244.770,210.547 C 238.961,217.086 238.830,217.326 231.626,222.276" stroke-width="4.872" stroke="black" fill="none" stroke-linecap="round"></path><path d="M 231.626,222.276 C 224.088,227.455 223.811,227.448 215.286,230.806" stroke-width="4.566" stroke="black" fill="none" stroke-linecap="round"></path><path d="M 215.286,230.806 C 207.115,234.023 206.676,235.426 198.235,235.426" stroke-width="4.500" stroke="black" fill="none" stroke-linecap="round"></path><path d="M 198.235,235.426 C 191.579,235.426 191.061,234.073 185.092,230.806" stroke-width="4.699" stroke="black" fill="none" stroke-linecap="round"></path><path d="M 185.092,230.806 C 181.647,228.920 180.789,228.474 179.408,225.119" stroke-width="5.534" stroke="black" fill="none" stroke-linecap="round"></path><path d="M 179.408,225.119 C 178.302,222.432 179.489,221.868 180.118,218.722" stroke-width="6.194" stroke="black" fill="none" stroke-linecap="round"></path><path d="M 180.118,218.722 C 180.910,214.760 181.137,214.799 182.250,210.902" stroke-width="6.124" stroke="black" fill="none" stroke-linecap="round"></path><path d="M 182.250,210.902 C 183.268,207.335 184.381,207.348 184.381,203.794" stroke-width="6.222" stroke="black" fill="none" stroke-linecap="round"></path><path d="M 184.381,203.794 C 184.381,200.240 183.944,199.865 182.250,196.686" stroke-width="7.422" stroke="black" fill="none" stroke-linecap="round"></path><path d="M 182.250,196.686 C 181.102,194.534 180.300,195.056 178.698,193.132" stroke-width="7.083" stroke="black" fill="none" stroke-linecap="round"></path><path d="M 178.698,193.132 C 176.748,190.791 175.529,190.924 175.145,188.157" stroke-width="7.433" stroke="black" fill="none" stroke-linecap="round"></path><path d="M 175.145,188.157 C 174.641,184.527 175.836,184.190 176.922,180.337" stroke-width="7.297" stroke="black" fill="none" stroke-linecap="round"></path><path d="M 176.922,180.337 C 177.789,177.259 177.899,177.283 179.053,174.296" stroke-width="6.748" stroke="black" fill="none" stroke-linecap="round"></path><path d="M 179.053,174.296 C 180.918,169.464 181.462,169.636 182.960,164.700" stroke-width="5.895" stroke="black" fill="none" stroke-linecap="round"></path><path d="M 182.960,164.700 C 184.482,159.685 184.103,159.560 185.092,154.393" stroke-width="5.655" stroke="black" fill="none" stroke-linecap="round"></path><path d="M 185.092,154.393 C 185.701,151.208 185.665,151.200 186.157,147.995" stroke-width="6.231" stroke="black" fill="none" stroke-linecap="round"></path><path d="M 186.157,147.995 C 186.730,144.270 186.225,144.125 187.223,140.532" stroke-width="6.151" stroke="black" fill="none" stroke-linecap="round"></path><path d="M 187.223,140.532 C 188.001,137.728 187.539,136.938 189.709,135.201" stroke-width="6.516" stroke="black" fill="none" stroke-linecap="round"></path><path d="M 189.709,135.201 C 193.756,131.962 194.460,132.205 199.656,130.581" stroke-width="5.747" stroke="black" fill="none" stroke-linecap="round"></path><path d="M 199.656,130.581 C 205.828,128.651 206.008,128.759 212.444,128.093" stroke-width="5.275" stroke="black" fill="none" stroke-linecap="round"></path><path d="M 212.444,128.093 C 216.309,127.693 216.434,127.827 220.259,128.448" stroke-width="5.791" stroke="black" fill="none" stroke-linecap="round"></path><path d="M 220.259,128.448 C 223.006,128.893 223.343,128.728 225.587,130.225" stroke-width="6.440" stroke="black" fill="none" stroke-linecap="round"></path><path d="M 225.587,130.225 C 227.606,131.571 228.468,131.920 228.784,134.134" stroke-width="6.841" stroke="black" fill="none" stroke-linecap="round"></path><path d="M 228.784,134.134 C 229.179,136.896 228.948,137.871 227.008,140.176" stroke-width="6.647" stroke="black" fill="none" stroke-linecap="round"></path><path d="M 227.008,140.176 C 223.265,144.624 222.810,145.008 217.417,147.640" stroke-width="5.700" stroke="black" fill="none" stroke-linecap="round"></path><path d="M 217.417,147.640 C 208.245,152.116 207.907,152.109 197.880,154.393" stroke-width="4.500" stroke="black" fill="none" stroke-linecap="round"></path><path d="M 197.880,154.393 C 186.060,157.085 185.825,157.509 173.724,157.591" stroke-width="4.500" stroke="black" fill="none" stroke-linecap="round"></path><path d="M 173.724,157.591 C 159.716,157.687 159.553,156.999 145.661,154.748" stroke-width="4.500" stroke="black" fill="none" stroke-linecap="round"></path><path d="M 145.661,154.748 C 134.332,152.912 134.380,152.418 123.282,149.417" stroke-width="4.500" stroke="black" fill="none" stroke-linecap="round"></path><path d="M 123.282,149.417 C 114.665,147.087 114.119,147.922 106.231,144.086" stroke-width="4.500" stroke="black" fill="none" stroke-linecap="round"></path><path d="M 106.231,144.086 C 101.331,141.702 99.939,141.224 97.706,136.978" stroke-width="4.907" stroke="black" fill="none" stroke-linecap="round"></path><path d="M 97.706,136.978 C 96.387,134.471 98.466,133.789 99.127,130.581" stroke-width="6.478" stroke="black" fill="none" stroke-linecap="round"></path><path d="M 99.127,130.581 C 99.710,127.747 99.669,127.739 100.192,124.894" stroke-width="7.514" stroke="black" fill="none" stroke-linecap="round"></path><path d="M 100.192,124.894 C 100.912,120.986 98.731,119.067 101.613,117.075" stroke-width="7.870" stroke="black" fill="none" stroke-linecap="round"></path><path d="M 101.613,117.075 C 108.500,112.315 110.434,113.012 119.730,111.388" stroke-width="4.932" stroke="black" fill="none" stroke-linecap="round"></path><path d="M 119.730,111.388 C 132.814,109.102 133.031,109.824 146.372,109.256" stroke-width="4.500" stroke="black" fill="none" stroke-linecap="round"></path><path d="M 146.372,109.256 C 158.075,108.758 158.155,108.507 169.817,109.256" stroke-width="4.500" stroke="black" fill="none" stroke-linecap="round"></path><path d="M 169.817,109.256 C 177.515,109.751 179.370,108.309 185.092,111.744" stroke-width="4.500" stroke="black" fill="none" stroke-linecap="round"></path><path d="M 185.092,111.744 C 188.251,113.640 188.891,116.595 187.578,119.918" stroke-width="6.002" stroke="black" fill="none" stroke-linecap="round"></path><path d="M 187.578,119.918 C 185.872,124.236 183.881,124.402 179.053,127.026" stroke-width="5.601" stroke="black" fill="none" stroke-linecap="round"></path><path d="M 179.053,127.026 C 169.495,132.221 169.013,131.502 158.805,135.556" stroke-width="4.500" stroke="black" fill="none" stroke-linecap="round"></path><path d="M 158.805,135.556 C 145.746,140.743 145.616,140.415 132.518,145.508" stroke-width="4.500" stroke="black" fill="none" stroke-linecap="round"></path><path d="M 132.518,145.508 C 114.534,152.499 114.323,152.028 96.640,159.724" stroke-width="4.500" stroke="black" fill="none" stroke-linecap="round"></path><path d="M 96.640,159.724 C 78.801,167.488 78.493,167.062 61.473,176.428" stroke-width="4.500" stroke="black" fill="none" stroke-linecap="round"></path><path d="M 61.473,176.428 C 46.523,184.655 46.509,184.900 32.699,194.909" stroke-width="4.500" stroke="black" fill="none" stroke-linecap="round"></path><path d="M 32.699,194.909 C 23.953,201.249 12.332,211.712 16.359,209.126" stroke-width="4.500" stroke="black" fill="none" stroke-linecap="round"></path></svg>