<svg xmlns="http://www.w3.org/2000/svg" xmlns:xlink="http://www.w3.org/1999/xlink" viewBox="0 0 576 416" width="576" height="416"><path d="M 131.740,249.107 C 138.132,254.303 138.377,254.032 144.524,259.499" stroke-width="7.936" stroke="black" fill="none" stroke-linecap="round"></path><path d="M 144.524,259.499 C 149.163,263.625 148.819,264.001 153.313,268.293" stroke-width="5.681" stroke="black" fill="none" stroke-linecap="round"></path><path d="M 153.313,268.293 C 157.608,272.395 157.771,272.224 162.102,276.287" stroke-width="5.497" stroke="black" fill="none" stroke-linecap="round"></path><path d="M 162.102,276.287 C 164.163,278.220 164.100,278.285 166.097,280.284" stroke-width="6.321" stroke="black" fill="none" stroke-linecap="round"></path><path d="M 166.097,280.284 C 172.889,287.079 172.889,287.079 179.680,293.874" stroke-width="5.257" stroke="black" fill="none" stroke-linecap="round"></path><path d="M 179.680,293.874 C 184.474,298.670 184.579,298.571 189.268,303.467" stroke-width="4.981" stroke="black" fill="none" stroke-linecap="round"></path><path d="M 189.268,303.467 C 193.767,308.163 194.033,307.973 198.057,313.060" stroke-width="5.062" stroke="black" fill="none" stroke-linecap="round"></path><path d="M 198.057,313.060 C 201.623,317.566 201.357,317.790 204.449,322.652" stroke-width="5.179" stroke="black" fill="none" stroke-linecap="round"></path><path d="M 204.449,322.652 C 206.950,326.584 207.261,326.459 209.243,330.646" stroke-width="5.683" stroke="black" fill="none" stroke-linecap="round"></path><path d="M 209.243,330.646 C 210.856,334.053 210.951,334.161 211.640,337.841" stroke-width="5.972" stroke="black" fill="none" stroke-linecap="round"></path><path d="M 211.640,337.841 C 212.149,340.556 212.963,341.187 211.640,343.437" stroke-width="6.571" stroke="black" fill="none" stroke-linecap="round"></path><path d="M 211.640,343.437 C 208.968,347.982 208.146,348.057 203.650,351.431" stroke-width="7.055" stroke="black" fill="none" stroke-linecap="round"></path><path d="M 203.650,351.431 C 195.362,357.650 195.211,357.699 186.072,362.622" stroke-width="4.637" stroke="black" fill="none" stroke-linecap="round"></path><path d="M 186.072,362.622 C 179.630,366.093 179.421,365.835 172.489,368.218" stroke-width="4.769" stroke="black" fill="none" stroke-linecap="round"></path><path d="M 172.489,368.218 C 166.637,370.231 166.560,370.118 160.504,371.416" stroke-width="5.065" stroke="black" fill="none" stroke-linecap="round"></path><path d="M 160.504,371.416 C 155.374,372.516 155.300,372.151 150.117,373.015" stroke-width="5.403" stroke="black" fill="none" stroke-linecap="round"></path><path d="M 150.117,373.015 C 145.712,373.749 145.751,374.122 141.328,374.614" stroke-width="5.741" stroke="black" fill="none" stroke-linecap="round"></path><path d="M 141.328,374.614 C 138.560,374.921 138.461,375.095 135.735,374.614" stroke-width="6.288" stroke="black" fill="none" stroke-linecap="round"></path><path d="M 135.735,374.614 C 131.670,373.896 130.466,374.728 127.745,372.215" stroke-width="6.917" stroke="black" fill="none" stroke-linecap="round"></path><path d="M 127.745,372.215 C 125.272,369.931 125.161,368.577 125.348,365.021" stroke-width="7.220" stroke="black" fill="none" stroke-linecap="round"></path><path d="M 125.348,365.021 C 125.561,360.983 126.333,360.648 128.544,357.027" stroke-width="7.550" stroke="black" fill="none" stroke-linecap="round"></path><path d="M 128.544,357.027 C 130.727,353.453 131.140,353.631 134.137,350.631" stroke-width="6.394" stroke="black" fill="none" stroke-linecap="round"></path><path d="M 134.137,350.631 C 137.931,346.836 137.955,346.816 142.127,343.437" stroke-width="5.751" stroke="black" fill="none" stroke-linecap="round"></path><path d="M 142.127,343.437 C 146.345,340.021 146.522,340.239 150.916,337.042" stroke-width="5.566" stroke="black" fill="none" stroke-linecap="round"></path><path d="M 150.916,337.042 C 155.311,333.844 155.187,333.660 159.705,330.646" stroke-width="5.512" stroke="black" fill="none" stroke-linecap="round"></path><path d="M 159.705,330.646 C 164.775,327.265 164.899,327.449 170.092,324.251" stroke-width="5.319" stroke="black" fill="none" stroke-linecap="round"></path><path d="M 170.092,324.251 C 175.286,321.054 175.199,320.904 180.479,317.856" stroke-width="5.263" stroke="black" fill="none" stroke-linecap="round"></path><path d="M 180.479,317.856 C 185.586,314.908 185.721,315.143 190.866,312.260" stroke-width="5.298" stroke="black" fill="none" stroke-linecap="round"></path><path d="M 190.866,312.260 C 195.708,309.547 195.738,309.586 200.454,306.664" stroke-width="5.400" stroke="black" fill="none" stroke-linecap="round"></path><path d="M 200.454,306.664 C 204.127,304.390 204.085,304.317 207.645,301.868" stroke-width="5.784" stroke="black" fill="none" stroke-linecap="round"></path><path d="M 207.645,301.868 C 210.477,299.920 210.650,300.115 213.238,297.871" stroke-width="6.208" stroke="black" fill="none" stroke-linecap="round"></path><path d="M 213.238,297.871 C 216.643,294.919 216.558,294.786 219.630,291.476" stroke-width="6.812" stroke="black" fill="none" stroke-linecap="round"></path><path d="M 219.630,291.476 C 221.752,289.190 223.925,285.931 223.625,286.679" stroke-width="7.348" stroke="black" fill="none" stroke-linecap="round"></path><path d="M 223.625,286.679 C 223.126,287.929 220.613,290.954 218.032,295.473" stroke-width="7.973" stroke="black" fill="none" stroke-linecap="round"></path><path d="M 218.032,295.473 C 215.819,299.348 215.794,299.366 214.037,303.467" stroke-width="6.398" stroke="black" fill="none" stroke-linecap="round"></path><path d="M 214.037,303.467 C 212.198,307.760 212.439,307.863 210.841,312.260" stroke-width="6.057" stroke="black" fill="none" stroke-linecap="round"></path><path d="M 210.841,312.260 C 209.243,316.657 208.772,316.547 207.645,321.054" stroke-width="5.878" stroke="black" fill="none" stroke-linecap="round"></path><path d="M 207.645,321.054 C 206.774,324.541 207.295,324.657 206.846,328.248" stroke-width="6.098" stroke="black" fill="none" stroke-linecap="round"></path><path d="M 206.846,328.248 C 206.496,331.052 205.837,331.101 206.047,333.844" stroke-width="6.543" stroke="black" fill="none" stroke-linecap="round"></path><path d="M 206.047,333.844 C 206.236,336.297 206.280,338.640 207.645,338.640" stroke-width="7.397" stroke="black" fill="none" stroke-linecap="round"></path><path d="M 207.645,338.640 C 209.476,338.640 210.761,336.699 212.439,333.844" stroke-width="7.931" stroke="black" fill="none" stroke-linecap="round"></path><path d="M 212.439,333.844 C 214.756,329.904 214.158,329.486 215.635,325.051" stroke-width="7.264" stroke="black" fill="none" stroke-linecap="round"></path><path d="M 215.635,325.051 C 216.555,322.292 216.434,322.253 217.233,319.455" stroke-width="6.934" stroke="black" fill="none" stroke-linecap="round"></path><path d="M 217.233,319.455 C 218.033,316.657 218.033,316.657 218.832,313.859" stroke-width="6.840" stroke="black" fill="none" stroke-linecap="round"></path><path d="M 218.832,313.859 C 219.631,311.061 219.390,310.967 220.429,308.263" stroke-width="6.670" stroke="black" fill="none" stroke-linecap="round"></path><path d="M 220.429,308.263 C 221.387,305.771 221.350,305.683 222.826,303.467" stroke-width="6.789" stroke="black" fill="none" stroke-linecap="round"></path><path d="M 222.826,303.467 C 224.546,300.887 224.920,298.480 226.822,298.670" stroke-width="7.340" stroke="black" fill="none" stroke-linecap="round"></path><path d="M 226.822,298.670 C 228.915,298.880 228.672,301.584 230.816,304.266" stroke-width="8.004" stroke="black" fill="none" stroke-linecap="round"></path><path d="M 230.816,304.266 C 233.466,307.580 232.983,308.443 236.410,310.661" stroke-width="7.424" stroke="black" fill="none" stroke-linecap="round"></path><path d="M 236.410,310.661 C 239.774,312.840 240.914,313.880 244.400,313.060" stroke-width="7.285" stroke="black" fill="none" stroke-linecap="round"></path><path d="M 244.400,313.060 C 247.705,312.281 248.048,310.770 249.993,307.464" stroke-width="7.632" stroke="black" fill="none" stroke-linecap="round"></path><path d="M 249.993,307.464 C 252.043,303.976 251.613,303.548 252.390,299.470" stroke-width="7.343" stroke="black" fill="none" stroke-linecap="round"></path><path d="M 252.390,299.470 C 253.211,295.154 252.426,294.997 253.189,290.676" stroke-width="7.203" stroke="black" fill="none" stroke-linecap="round"></path><path d="M 253.189,290.676 C 253.625,288.202 253.722,285.423 254.787,285.880" stroke-width="7.634" stroke="black" fill="none" stroke-linecap="round"></path><path d="M 254.787,285.880 C 256.519,286.623 256.423,289.731 258.782,293.074" stroke-width="8.025" stroke="black" fill="none" stroke-linecap="round"></path><path d="M 258.782,293.074 C 261.217,296.526 261.190,296.774 264.375,299.470" stroke-width="7.430" stroke="black" fill="none" stroke-linecap="round"></path><path d="M 264.375,299.470 C 266.384,301.171 267.587,302.747 269.169,301.868" stroke-width="7.688" stroke="black" fill="none" stroke-linecap="round"></path><path d="M 269.169,301.868 C 271.183,300.748 270.982,298.782 271.566,295.473" stroke-width="8.018" stroke="black" fill="none" stroke-linecap="round"></path><path d="M 271.566,295.473 C 272.180,291.987 271.566,291.875 271.566,288.278" stroke-width="7.596" stroke="black" fill="none" stroke-linecap="round"></path><path d="M 271.566,288.278 C 271.566,285.080 270.172,282.679 271.566,281.883" stroke-width="7.581" stroke="black" fill="none" stroke-linecap="round"></path><path d="M 271.566,281.883 C 272.969,281.080 274.453,283.340 277.159,285.080" stroke-width="8.179" stroke="black" fill="none" stroke-linecap="round"></path><path d="M 277.159,285.080 C 280.046,286.937 279.668,287.975 282.752,289.077" stroke-width="7.682" stroke="black" fill="none" stroke-linecap="round"></path><path d="M 282.752,289.077 C 285.261,289.974 286.416,290.481 288.345,289.077" stroke-width="7.736" stroke="black" fill="none" stroke-linecap="round"></path><path d="M 288.345,289.077 C 290.810,287.283 290.293,286.010 291.541,282.682" stroke-width="7.832" stroke="black" fill="none" stroke-linecap="round"></path><path d="M 291.541,282.682 C 292.690,279.614 292.533,279.521 293.139,276.287" stroke-width="7.624" stroke="black" fill="none" stroke-linecap="round"></path><path d="M 293.139,276.287 C 293.731,273.125 293.724,273.101 293.938,269.892" stroke-width="7.583" stroke="black" fill="none" stroke-linecap="round"></path><path d="M 293.938,269.892 C 294.123,267.105 293.938,267.094 293.938,264.296" stroke-width="7.684" stroke="black" fill="none" stroke-linecap="round"></path><path d="M 317.109,246.709 C 314.312,252.305 314.076,252.207 311.516,257.901" stroke-width="8.313" stroke="black" fill="none" stroke-linecap="round"></path><path d="M 311.516,257.901 C 310.481,260.201 310.717,260.299 309.918,262.697" stroke-width="7.300" stroke="black" fill="none" stroke-linecap="round"></path><path d="M 309.918,262.697 C 309.119,265.095 307.923,265.309 308.320,267.494" stroke-width="7.042" stroke="black" fill="none" stroke-linecap="round"></path><path d="M 308.320,267.494 C 308.722,269.705 310.632,272.021 311.516,271.491" stroke-width="7.905" stroke="black" fill="none" stroke-linecap="round"></path><path d="M 311.516,271.491 C 312.629,270.822 312.315,268.293 312.315,265.095" stroke-width="8.123" stroke="black" fill="none" stroke-linecap="round"></path><path d="M 312.315,265.095 C 312.315,261.898 310.283,259.728 311.516,258.700" stroke-width="7.797" stroke="black" fill="none" stroke-linecap="round"></path><path d="M 311.516,258.700 C 312.680,257.729 314.391,259.739 317.109,261.098" stroke-width="8.116" stroke="black" fill="none" stroke-linecap="round"></path><path d="M 317.109,261.098 C 320.783,262.936 322.676,266.720 324.300,265.095" stroke-width="7.487" stroke="black" fill="none" stroke-linecap="round"></path><path d="M 324.300,265.095 C 326.671,262.723 326.034,258.904 325.099,253.104" stroke-width="7.753" stroke="black" fill="none" stroke-linecap="round"></path><path d="M 325.099,253.104 C 324.036,246.513 322.702,246.709 320.305,240.314" stroke-width="5.468" stroke="black" fill="none" stroke-linecap="round"></path><path d="M 320.305,240.314 C 317.908,233.919 317.843,233.942 315.511,227.523" stroke-width="5.024" stroke="black" fill="none" stroke-linecap="round"></path><path d="M 315.511,227.523 C 313.049,220.752 313.355,220.633 310.717,213.934" stroke-width="4.818" stroke="black" fill="none" stroke-linecap="round"></path><path d="M 310.717,213.934 C 308.161,207.443 308.073,207.467 305.124,201.143" stroke-width="4.810" stroke="black" fill="none" stroke-linecap="round"></path><path d="M 305.124,201.143 C 302.480,195.476 302.067,195.662 299.531,189.951" stroke-width="4.976" stroke="black" fill="none" stroke-linecap="round"></path><path d="M 299.531,189.951 C 297.273,184.870 297.642,184.710 295.536,179.559" stroke-width="5.203" stroke="black" fill="none" stroke-linecap="round"></path><path d="M 295.536,179.559 C 294.046,175.917 294.097,175.881 292.340,172.365" stroke-width="5.757" stroke="black" fill="none" stroke-linecap="round"></path><path d="M 292.340,172.365 C 290.901,169.486 289.144,166.117 289.144,166.769" stroke-width="6.870" stroke="black" fill="none" stroke-linecap="round"></path><path d="M 289.144,166.769 C 289.144,167.715 290.603,171.220 292.340,175.562" stroke-width="7.247" stroke="black" fill="none" stroke-linecap="round"></path><path d="M 292.340,175.562 C 295.397,183.211 295.270,183.278 298.732,190.751" stroke-width="5.253" stroke="black" fill="none" stroke-linecap="round"></path><path d="M 298.732,190.751 C 302.861,199.666 303.209,199.504 307.521,208.338" stroke-width="4.500" stroke="black" fill="none" stroke-linecap="round"></path><path d="M 307.521,208.338 C 311.598,216.691 310.957,217.048 315.511,225.125" stroke-width="4.500" stroke="black" fill="none" stroke-linecap="round"></path><path d="M 315.511,225.125 C 319.746,232.637 320.158,232.422 325.099,239.514" stroke-width="4.500" stroke="black" fill="none" stroke-linecap="round"></path><path d="M 325.099,239.514 C 329.347,245.612 329.225,245.729 333.888,251.505" stroke-width="4.679" stroke="black" fill="none" stroke-linecap="round"></path><path d="M 333.888,251.505 C 337.614,256.122 337.801,255.980 341.878,260.299" stroke-width="5.095" stroke="black" fill="none" stroke-linecap="round"></path><path d="M 341.878,260.299 C 344.592,263.175 344.568,265.448 347.471,265.895" stroke-width="5.853" stroke="black" fill="none" stroke-linecap="round"></path><path d="M 347.471,265.895 C 349.761,266.247 351.081,264.464 352.265,261.898" stroke-width="7.338" stroke="black" fill="none" stroke-linecap="round"></path><path d="M 352.265,261.898 C 353.478,259.268 352.442,258.691 352.265,255.502" stroke-width="6.760" stroke="black" fill="none" stroke-linecap="round"></path><path d="M 352.265,255.502 C 352.042,251.497 351.666,251.515 351.466,247.508" stroke-width="6.375" stroke="black" fill="none" stroke-linecap="round"></path><path d="M 351.466,247.508 C 351.266,243.521 351.665,243.501 351.466,239.514" stroke-width="6.109" stroke="black" fill="none" stroke-linecap="round"></path><path d="M 351.466,239.514 C 351.265,235.507 350.889,235.526 350.667,231.520" stroke-width="6.111" stroke="black" fill="none" stroke-linecap="round"></path><path d="M 350.667,231.520 C 350.490,228.332 350.854,228.312 350.667,225.125" stroke-width="6.405" stroke="black" fill="none" stroke-linecap="round"></path><path d="M 350.667,225.125 C 350.455,221.517 348.795,218.789 349.868,217.931" stroke-width="7.083" stroke="black" fill="none" stroke-linecap="round"></path><path d="M 349.868,217.931 C 350.793,217.190 351.943,220.488 354.662,221.928" stroke-width="7.946" stroke="black" fill="none" stroke-linecap="round"></path><path d="M 354.662,221.928 C 358.735,224.085 359.056,225.125 363.451,225.125" stroke-width="7.303" stroke="black" fill="none" stroke-linecap="round"></path><path d="M 363.451,225.125 C 367.845,225.125 368.701,224.583 372.240,221.928" stroke-width="7.161" stroke="black" fill="none" stroke-linecap="round"></path><path d="M 372.240,221.928 C 375.093,219.787 373.666,218.102 376.235,215.532" stroke-width="7.276" stroke="black" fill="none" stroke-linecap="round"></path><path d="M 376.235,215.532 C 378.061,213.705 378.546,214.127 381.029,213.134" stroke-width="8.124" stroke="black" fill="none" stroke-linecap="round"></path><path d="M 381.029,213.134 C 384.539,211.729 384.724,212.176 388.220,210.736" stroke-width="6.694" stroke="black" fill="none" stroke-linecap="round"></path><path d="M 388.220,210.736 C 391.516,209.378 391.585,209.402 394.612,207.538" stroke-width="6.439" stroke="black" fill="none" stroke-linecap="round"></path><path d="M 394.612,207.538 C 396.779,206.204 399.269,205.168 398.607,204.341" stroke-width="6.827" stroke="black" fill="none" stroke-linecap="round"></path><path d="M 398.607,204.341 C 397.671,203.170 394.886,202.711 391.416,203.541" stroke-width="7.520" stroke="black" fill="none" stroke-linecap="round"></path><path d="M 391.416,203.541 C 376.509,207.108 376.020,206.891 361.853,213.134" stroke-width="4.500" stroke="black" fill="none" stroke-linecap="round"></path><path d="M 361.853,213.134 C 342.462,221.680 342.568,222.267 324.300,233.119" stroke-width="4.500" stroke="black" fill="none" stroke-linecap="round"></path><path d="M 324.300,233.119 C 304.216,245.050 304.778,245.992 285.149,258.700" stroke-width="4.500" stroke="black" fill="none" stroke-linecap="round"></path><path d="M 285.149,258.700 C 264.029,272.373 263.823,272.059 242.802,285.880" stroke-width="4.500" stroke="black" fill="none" stroke-linecap="round"></path><path d="M 242.802,285.880 C 221.875,299.638 221.899,299.683 201.253,313.859" stroke-width="4.500" stroke="black" fill="none" stroke-linecap="round"></path><path d="M 201.253,313.859 C 181.150,327.662 181.240,327.794 161.303,341.838" stroke-width="4.500" stroke="black" fill="none" stroke-linecap="round"></path><path d="M 161.303,341.838 C 142.089,355.373 142.279,355.652 122.951,369.018" stroke-width="4.500" stroke="black" fill="none" stroke-linecap="round"></path><path d="M 122.951,369.018 C 115.113,374.438 114.636,373.759 106.971,379.410" stroke-width="4.500" stroke="black" fill="none" stroke-linecap="round"></path><path d="M 106.971,379.410 C 91.865,390.547 92.232,391.057 77.408,402.593" stroke-width="4.500" stroke="black" fill="none" stroke-linecap="round"></path><path d="M 77.408,402.593 C 74.255,405.046 69.489,408.371 71.016,407.389" stroke-width="4.684" stroke="black" fill="none" stroke-linecap="round"></path><path d="M 71.016,407.389 C 75.082,404.774 80.023,401.696 88.594,395.398" stroke-width="5.717" stroke="black" fill="none" stroke-linecap="round"></path><path d="M 88.594,395.398 C 105.591,382.910 105.492,382.760 122.152,369.817" stroke-width="4.500" stroke="black" fill="none" stroke-linecap="round"></path><path d="M 122.152,369.817 C 139.449,356.380 139.645,356.608 156.509,342.637" stroke-width="4.500" stroke="black" fill="none" stroke-linecap="round"></path><path d="M 156.509,342.637 C 176.798,325.831 176.894,325.903 196.459,308.263" stroke-width="4.500" stroke="black" fill="none" stroke-linecap="round"></path><path d="M 196.459,308.263 C 213.248,293.127 213.488,293.294 229.218,277.086" stroke-width="4.500" stroke="black" fill="none" stroke-linecap="round"></path><path d="M 229.218,277.086 C 240.255,265.715 240.592,265.801 249.993,253.104" stroke-width="4.500" stroke="black" fill="none" stroke-linecap="round"></path><path d="M 249.993,253.104 C 256.572,244.217 256.565,243.919 261.179,233.919" stroke-width="4.500" stroke="black" fill="none" stroke-linecap="round"></path><path d="M 261.179,233.919 C 263.756,228.331 263.873,227.946 264.375,221.928" stroke-width="4.547" stroke="black" fill="none" stroke-linecap="round"></path><path d="M 264.375,221.928 C 264.672,218.353 264.916,216.659 262.777,214.733" stroke-width="5.695" stroke="black" fill="none" stroke-linecap="round"></path><path d="M 262.777,214.733 C 260.921,213.062 258.550,213.066 256.385,214.733" stroke-width="6.262" stroke="black" fill="none" stroke-linecap="round"></path><path d="M 256.385,214.733 C 253.357,217.063 254.278,218.678 252.390,222.727" stroke-width="6.814" stroke="black" fill="none" stroke-linecap="round"></path><path d="M 252.390,222.727 C 248.685,230.669 247.682,230.373 245.199,238.715" stroke-width="4.950" stroke="black" fill="none" stroke-linecap="round"></path><path d="M 245.199,238.715 C 242.089,249.159 241.796,249.428 241.203,260.299" stroke-width="4.500" stroke="black" fill="none" stroke-linecap="round"></path><path d="M 241.203,260.299 C 240.598,271.412 240.161,271.925 242.802,282.682" stroke-width="4.500" stroke="black" fill="none" stroke-linecap="round"></path><path d="M 242.802,282.682 C 245.754,294.708 245.824,295.396 252.390,305.865" stroke-width="4.500" stroke="black" fill="none" stroke-linecap="round"></path><path d="M 252.390,305.865 C 258.608,315.781 259.464,315.704 268.370,323.452" stroke-width="4.500" stroke="black" fill="none" stroke-linecap="round"></path><path d="M 268.370,323.452 C 277.841,331.692 278.052,331.935 289.144,337.841" stroke-width="4.500" stroke="black" fill="none" stroke-linecap="round"></path><path d="M 289.144,337.841 C 302.821,345.125 303.526,343.837 317.908,349.832" stroke-width="4.500" stroke="black" fill="none" stroke-linecap="round"></path></svg>