<svg xmlns="http://www.w3.org/2000/svg" xmlns:xlink="http://www.w3.org/1999/xlink" viewBox="0 0 576 416" width="576" height="416"><path d="M 468.919,297.871 C 467.321,301.868 466.802,301.726 465.723,305.865" stroke-width="8.592" stroke="black" fill="none" stroke-linecap="round"></path><path d="M 465.723,305.865 C 464.405,310.919 464.843,311.050 464.125,316.257" stroke-width="7.313" stroke="black" fill="none" stroke-linecap="round"></path><path d="M 464.125,316.257 C 463.245,322.641 463.201,322.639 462.527,329.048" stroke-width="5.625" stroke="black" fill="none" stroke-linecap="round"></path><path d="M 462.527,329.048 C 461.603,337.828 461.312,337.822 460.929,346.634" stroke-width="4.719" stroke="black" fill="none" stroke-linecap="round"></path><path d="M 460.929,346.634 C 460.513,356.208 460.929,356.227 460.929,365.820" stroke-width="4.500" stroke="black" fill="none" stroke-linecap="round"></path><path d="M 460.929,365.820 C 460.929,371.416 460.531,371.444 460.929,377.012" stroke-width="5.089" stroke="black" fill="none" stroke-linecap="round"></path><path d="M 460.929,377.012 C 461.330,382.636 461.396,382.670 462.527,388.203" stroke-width="5.217" stroke="black" fill="none" stroke-linecap="round"></path><path d="M 462.527,388.203 C 464.991,400.257 465.709,400.124 468.120,412.186" stroke-width="4.500" stroke="black" fill="none" stroke-linecap="round"></path><path d="M 468.120,412.186 C 469.304,418.111 470.411,427.150 469.718,424.177" stroke-width="4.892" stroke="black" fill="none" stroke-linecap="round"></path><path d="M 518.457,340.239 C 512.065,340.639 512.001,340.134 505.673,341.039" stroke-width="7.532" stroke="black" fill="none" stroke-linecap="round"></path><path d="M 505.673,341.039 C 495.222,342.532 495.277,342.993 484.899,345.036" stroke-width="4.664" stroke="black" fill="none" stroke-linecap="round"></path><path d="M 484.899,345.036 C 470.908,347.789 471.025,348.509 456.934,350.631" stroke-width="4.500" stroke="black" fill="none" stroke-linecap="round"></path><path d="M 456.934,350.631 C 433.871,354.105 433.816,354.049 410.592,356.227" stroke-width="4.500" stroke="black" fill="none" stroke-linecap="round"></path><path d="M 410.592,356.227 C 395.464,357.646 395.411,357.560 380.230,357.826" stroke-width="4.500" stroke="black" fill="none" stroke-linecap="round"></path><path d="M 380.230,357.826 C 372.639,357.959 372.612,357.741 365.049,357.027" stroke-width="4.500" stroke="black" fill="none" stroke-linecap="round"></path><path d="M 365.049,357.027 C 351.439,355.742 351.362,356.040 337.883,353.829" stroke-width="4.500" stroke="black" fill="none" stroke-linecap="round"></path><path d="M 337.883,353.829 C 326.992,352.043 326.655,352.633 316.310,349.033" stroke-width="4.500" stroke="black" fill="none" stroke-linecap="round"></path><path d="M 316.310,349.033 C 308.278,346.238 307.577,346.472 301.129,341.039" stroke-width="4.500" stroke="black" fill="none" stroke-linecap="round"></path><path d="M 301.129,341.039 C 292.396,333.681 292.436,332.940 285.948,323.452" stroke-width="4.500" stroke="black" fill="none" stroke-linecap="round"></path><path d="M 285.948,323.452 C 282.049,317.751 282.550,317.250 280.355,310.661" stroke-width="4.649" stroke="black" fill="none" stroke-linecap="round"></path><path d="M 280.355,310.661 C 278.555,305.259 278.635,305.121 277.958,299.470" stroke-width="5.137" stroke="black" fill="none" stroke-linecap="round"></path><path d="M 277.958,299.470 C 277.437,295.128 277.076,291.338 277.958,290.676" stroke-width="5.741" stroke="black" fill="none" stroke-linecap="round"></path><path d="M 277.958,290.676 C 278.674,290.138 280.471,293.658 281.154,297.071" stroke-width="7.236" stroke="black" fill="none" stroke-linecap="round"></path><path d="M 281.154,297.071 C 282.069,301.652 281.483,301.887 281.154,306.664" stroke-width="6.130" stroke="black" fill="none" stroke-linecap="round"></path><path d="M 281.154,306.664 C 280.684,313.478 281.335,313.725 279.556,320.254" stroke-width="5.282" stroke="black" fill="none" stroke-linecap="round"></path><path d="M 279.556,320.254 C 277.740,326.915 277.734,327.286 273.963,333.045" stroke-width="5.039" stroke="black" fill="none" stroke-linecap="round"></path><path d="M 273.963,333.045 C 270.143,338.877 269.788,338.988 264.375,343.437" stroke-width="4.950" stroke="black" fill="none" stroke-linecap="round"></path><path d="M 264.375,343.437 C 258.602,348.181 258.461,348.601 251.591,351.431" stroke-width="4.823" stroke="black" fill="none" stroke-linecap="round"></path><path d="M 251.591,351.431 C 244.877,354.196 244.484,353.797 237.208,354.629" stroke-width="4.822" stroke="black" fill="none" stroke-linecap="round"></path><path d="M 237.208,354.629 C 230.501,355.395 230.360,355.147 223.625,354.629" stroke-width="4.947" stroke="black" fill="none" stroke-linecap="round"></path><path d="M 223.625,354.629 C 219.973,354.347 219.630,354.628 216.434,353.030" stroke-width="5.810" stroke="black" fill="none" stroke-linecap="round"></path><path d="M 216.434,353.030 C 213.238,351.431 213.307,350.924 210.841,348.233" stroke-width="6.130" stroke="black" fill="none" stroke-linecap="round"></path><path d="M 210.841,348.233 C 208.913,346.128 208.697,346.068 207.645,343.437" stroke-width="6.595" stroke="black" fill="none" stroke-linecap="round"></path><path d="M 207.645,343.437 C 206.300,340.072 208.165,336.772 206.047,336.242" stroke-width="7.111" stroke="black" fill="none" stroke-linecap="round"></path><path d="M 206.047,336.242 C 203.370,335.573 202.021,338.589 198.057,341.039" stroke-width="7.453" stroke="black" fill="none" stroke-linecap="round"></path><path d="M 198.057,341.039 C 188.438,346.983 188.633,347.310 178.881,353.030" stroke-width="4.635" stroke="black" fill="none" stroke-linecap="round"></path><path d="M 178.881,353.030 C 165.462,360.900 165.552,361.114 151.715,368.218" stroke-width="4.500" stroke="black" fill="none" stroke-linecap="round"></path><path d="M 151.715,368.218 C 135.190,376.703 135.086,376.544 118.157,384.206" stroke-width="4.500" stroke="black" fill="none" stroke-linecap="round"></path><path d="M 118.157,384.206 C 101.528,391.733 101.314,391.254 84.599,398.596" stroke-width="4.500" stroke="black" fill="none" stroke-linecap="round"></path><path d="M 84.599,398.596 C 68.555,405.643 68.721,406.027 52.639,412.985" stroke-width="4.500" stroke="black" fill="none" stroke-linecap="round"></path><path d="M 52.639,412.985 C 39.158,418.818 39.056,418.581 25.473,424.177" stroke-width="4.500" stroke="black" fill="none" stroke-linecap="round"></path><path d="M 513.663,330.646 C 510.067,333.045 510.095,333.087 506.472,335.443" stroke-width="8.336" stroke="black" fill="none" stroke-linecap="round"></path><path d="M 506.472,335.443 C 502.105,338.283 502.200,338.456 497.683,341.039" stroke-width="6.194" stroke="black" fill="none" stroke-linecap="round"></path><path d="M 497.683,341.039 C 493.810,343.253 493.644,342.955 489.693,345.036" stroke-width="5.985" stroke="black" fill="none" stroke-linecap="round"></path><path d="M 489.693,345.036 C 486.054,346.952 486.333,347.691 482.502,349.033" stroke-width="6.041" stroke="black" fill="none" stroke-linecap="round"></path><path d="M 482.502,349.033 C 478.343,350.489 475.593,352.303 473.713,350.631" stroke-width="6.762" stroke="black" fill="none" stroke-linecap="round"></path><path d="M 473.713,350.631 C 471.997,349.106 474.325,346.585 475.311,342.637" stroke-width="7.590" stroke="black" fill="none" stroke-linecap="round"></path><path d="M 475.311,342.637 C 475.923,340.190 478.144,338.613 476.909,337.841" stroke-width="7.799" stroke="black" fill="none" stroke-linecap="round"></path><path d="M 476.909,337.841 C 474.948,336.615 472.857,337.945 468.919,338.640" stroke-width="7.973" stroke="black" fill="none" stroke-linecap="round"></path><path d="M 468.919,338.640 C 466.066,339.144 466.029,339.199 463.326,340.239" stroke-width="7.769" stroke="black" fill="none" stroke-linecap="round"></path><path d="M 463.326,340.239 C 460.835,341.198 460.999,341.609 458.532,342.637" stroke-width="8.038" stroke="black" fill="none" stroke-linecap="round"></path><path d="M 458.532,342.637 C 456.205,343.607 456.120,343.395 453.738,344.236" stroke-width="7.895" stroke="black" fill="none" stroke-linecap="round"></path><path d="M 453.738,344.236 C 449.329,345.793 449.426,346.106 444.949,347.434" stroke-width="6.307" stroke="black" fill="none" stroke-linecap="round"></path><path d="M 444.949,347.434 C 438.640,349.304 438.557,349.033 432.165,350.631" stroke-width="5.387" stroke="black" fill="none" stroke-linecap="round"></path><path d="M 432.165,350.631 C 424.175,352.630 424.175,352.630 416.185,354.629" stroke-width="4.789" stroke="black" fill="none" stroke-linecap="round"></path><path d="M 416.185,354.629 C 411.391,355.828 411.391,355.828 406.597,357.027" stroke-width="5.387" stroke="black" fill="none" stroke-linecap="round"></path><circle r="3" cx="415.38580322265625" cy="384.2064208984375" fill="black"></circle><path d="M 220.429,308.263 C 198.856,315.857 198.755,315.582 177.283,323.452" stroke-width="6.230" stroke="black" fill="none" stroke-linecap="round"></path></svg>