<svg xmlns="http://www.w3.org/2000/svg" xmlns:xlink="http://www.w3.org/1999/xlink" viewBox="0 0 576 416" width="576" height="416"><path d="M 432.165,123.601 C 432.165,119.204 431.946,119.192 432.165,114.807" stroke-width="7.850" stroke="black" fill="none" stroke-linecap="round"></path><path d="M 432.165,114.807 C 432.345,111.198 432.807,106.828 432.964,107.613" stroke-width="7.486" stroke="black" fill="none" stroke-linecap="round"></path><path d="M 432.964,107.613 C 433.206,108.826 433.469,113.248 432.964,118.804" stroke-width="7.792" stroke="black" fill="none" stroke-linecap="round"></path><path d="M 432.964,118.804 C 432.270,126.438 431.830,126.410 430.567,133.993" stroke-width="5.473" stroke="black" fill="none" stroke-linecap="round"></path><path d="M 430.567,133.993 C 429.034,143.197 429.814,143.418 427.371,152.379" stroke-width="4.500" stroke="black" fill="none" stroke-linecap="round"></path><path d="M 427.371,152.379 C 425.020,161.005 425.329,161.409 420.979,169.167" stroke-width="4.500" stroke="black" fill="none" stroke-linecap="round"></path><path d="M 420.979,169.167 C 416.140,177.797 416.153,178.342 408.994,185.155" stroke-width="4.500" stroke="black" fill="none" stroke-linecap="round"></path><path d="M 408.994,185.155 C 399.773,193.930 399.372,194.067 388.220,200.344" stroke-width="4.500" stroke="black" fill="none" stroke-linecap="round"></path><path d="M 388.220,200.344 C 373.804,208.457 373.300,207.791 357.858,213.934" stroke-width="4.500" stroke="black" fill="none" stroke-linecap="round"></path><path d="M 357.858,213.934 C 340.142,220.981 339.833,220.200 321.903,226.724" stroke-width="4.500" stroke="black" fill="none" stroke-linecap="round"></path><path d="M 321.903,226.724 C 304.677,232.991 304.443,232.452 287.546,239.514" stroke-width="4.500" stroke="black" fill="none" stroke-linecap="round"></path><path d="M 287.546,239.514 C 272.883,245.643 272.731,245.535 258.782,253.104" stroke-width="4.500" stroke="black" fill="none" stroke-linecap="round"></path><path d="M 258.782,253.104 C 249.160,258.325 248.206,257.793 240.405,265.095" stroke-width="4.500" stroke="black" fill="none" stroke-linecap="round"></path><path d="M 240.405,265.095 C 235.822,269.384 234.436,270.571 234.013,276.287" stroke-width="4.551" stroke="black" fill="none" stroke-linecap="round"></path><path d="M 234.013,276.287 C 233.637,281.363 235.303,282.674 238.806,286.679" stroke-width="5.101" stroke="black" fill="none" stroke-linecap="round"></path><path d="M 238.806,286.679 C 240.896,289.069 241.858,288.470 245.199,289.077" stroke-width="5.958" stroke="black" fill="none" stroke-linecap="round"></path><path d="M 245.199,289.077 C 255.042,290.868 255.178,291.637 265.174,291.476" stroke-width="4.542" stroke="black" fill="none" stroke-linecap="round"></path><path d="M 265.174,291.476 C 279.947,291.237 280.296,291.468 294.737,288.278" stroke-width="4.500" stroke="black" fill="none" stroke-linecap="round"></path><path d="M 294.737,288.278 C 311.057,284.673 311.376,284.550 326.697,277.886" stroke-width="4.500" stroke="black" fill="none" stroke-linecap="round"></path><path d="M 326.697,277.886 C 338.942,272.559 339.680,272.716 349.868,264.296" stroke-width="4.500" stroke="black" fill="none" stroke-linecap="round"></path><path d="M 349.868,264.296 C 358.057,257.527 359.037,256.972 363.451,247.508" stroke-width="4.500" stroke="black" fill="none" stroke-linecap="round"></path><path d="M 363.451,247.508 C 367.426,238.985 367.301,237.704 366.647,228.323" stroke-width="4.500" stroke="black" fill="none" stroke-linecap="round"></path><path d="M 366.647,228.323 C 366.102,220.516 364.569,220.376 361.054,213.134" stroke-width="4.500" stroke="black" fill="none" stroke-linecap="round"></path><path d="M 361.054,213.134 C 357.778,206.386 357.372,206.528 353.064,200.344" stroke-width="4.672" stroke="black" fill="none" stroke-linecap="round"></path><path d="M 353.064,200.344 C 338.995,180.148 339.063,180.068 324.300,160.373" stroke-width="4.500" stroke="black" fill="none" stroke-linecap="round"></path><path d="M 324.300,160.373 C 316.291,149.690 314.999,150.579 307.521,139.589" stroke-width="4.500" stroke="black" fill="none" stroke-linecap="round"></path><path d="M 307.521,139.589 C 302.215,131.793 301.455,131.656 298.732,122.802" stroke-width="4.500" stroke="black" fill="none" stroke-linecap="round"></path><path d="M 298.732,122.802 C 296.661,116.067 296.785,115.016 297.933,108.412" stroke-width="4.571" stroke="black" fill="none" stroke-linecap="round"></path><path d="M 297.933,108.412 C 298.383,105.823 299.524,105.836 301.928,104.415" stroke-width="5.908" stroke="black" fill="none" stroke-linecap="round"></path><path d="M 301.928,104.415 C 308.313,100.640 308.409,100.264 315.511,98.020" stroke-width="4.962" stroke="black" fill="none" stroke-linecap="round"></path><path d="M 315.511,98.020 C 323.590,95.467 323.844,95.225 332.290,94.822" stroke-width="4.716" stroke="black" fill="none" stroke-linecap="round"></path><path d="M 332.290,94.822 C 340.623,94.425 341.065,94.219 349.069,96.421" stroke-width="4.500" stroke="black" fill="none" stroke-linecap="round"></path><path d="M 349.069,96.421 C 357.046,98.616 358.145,98.350 364.250,103.616" stroke-width="4.512" stroke="black" fill="none" stroke-linecap="round"></path><path d="M 364.250,103.616 C 369.730,108.343 370.301,109.422 372.240,116.406" stroke-width="4.775" stroke="black" fill="none" stroke-linecap="round"></path><path d="M 372.240,116.406 C 374.296,123.811 374.498,124.969 372.240,132.394" stroke-width="4.580" stroke="black" fill="none" stroke-linecap="round"></path><path d="M 372.240,132.394 C 368.905,143.356 368.454,144.256 361.054,153.179" stroke-width="4.500" stroke="black" fill="none" stroke-linecap="round"></path><path d="M 361.054,153.179 C 352.873,163.042 351.977,163.068 341.079,169.966" stroke-width="4.500" stroke="black" fill="none" stroke-linecap="round"></path><path d="M 341.079,169.966 C 332.401,175.459 331.828,175.651 321.903,177.960" stroke-width="4.500" stroke="black" fill="none" stroke-linecap="round"></path><path d="M 321.903,177.960 C 314.650,179.648 313.775,179.664 306.722,177.960" stroke-width="4.500" stroke="black" fill="none" stroke-linecap="round"></path><path d="M 306.722,177.960 C 302.189,176.866 300.592,176.273 298.732,172.365" stroke-width="5.337" stroke="black" fill="none" stroke-linecap="round"></path><path d="M 298.732,172.365 C 296.597,167.880 297.955,166.609 298.732,161.173" stroke-width="5.400" stroke="black" fill="none" stroke-linecap="round"></path><path d="M 298.732,161.173 C 299.154,158.216 300.037,158.416 301.129,155.577" stroke-width="6.138" stroke="black" fill="none" stroke-linecap="round"></path><path d="M 301.129,155.577 C 302.035,153.220 304.115,150.086 302.727,150.781" stroke-width="6.676" stroke="black" fill="none" stroke-linecap="round"></path><path d="M 302.727,150.781 C 297.723,153.284 295.838,156.808 288.345,161.972" stroke-width="6.966" stroke="black" fill="none" stroke-linecap="round"></path><path d="M 288.345,161.972 C 277.860,169.198 278.086,169.803 266.772,175.562" stroke-width="4.500" stroke="black" fill="none" stroke-linecap="round"></path><path d="M 266.772,175.562 C 255.314,181.394 255.074,181.257 242.802,185.155" stroke-width="4.500" stroke="black" fill="none" stroke-linecap="round"></path><path d="M 242.802,185.155 C 229.905,189.251 229.763,189.162 216.434,191.550" stroke-width="4.500" stroke="black" fill="none" stroke-linecap="round"></path><path d="M 216.434,191.550 C 202.997,193.958 202.851,193.149 189.268,194.748" stroke-width="4.500" stroke="black" fill="none" stroke-linecap="round"></path><path d="M 189.268,194.748 C 175.685,196.347 175.651,196.097 162.102,197.945" stroke-width="4.500" stroke="black" fill="none" stroke-linecap="round"></path><path d="M 162.102,197.945 C 149.284,199.694 149.155,199.175 136.534,201.942" stroke-width="4.500" stroke="black" fill="none" stroke-linecap="round"></path><path d="M 136.534,201.942 C 119.992,205.570 119.598,204.850 103.775,210.736" stroke-width="4.500" stroke="black" fill="none" stroke-linecap="round"></path><path d="M 103.775,210.736 C 88.437,216.441 88.435,216.964 74.212,225.125" stroke-width="4.500" stroke="black" fill="none" stroke-linecap="round"></path><path d="M 74.212,225.125 C 61.269,232.552 61.284,232.816 49.443,241.913" stroke-width="4.500" stroke="black" fill="none" stroke-linecap="round"></path><path d="M 49.443,241.913 C 38.912,250.003 38.363,249.732 29.468,259.499" stroke-width="4.500" stroke="black" fill="none" stroke-linecap="round"></path><path d="M 29.468,259.499 C 21.984,267.718 22.104,268.169 16.684,277.886" stroke-width="4.500" stroke="black" fill="none" stroke-linecap="round"></path><path d="M 16.684,277.886 C 12.516,285.357 12.176,285.627 10.292,293.874" stroke-width="4.500" stroke="black" fill="none" stroke-linecap="round"></path><path d="M 10.292,293.874 C 8.980,299.617 9.172,300.262 10.292,305.865" stroke-width="4.839" stroke="black" fill="none" stroke-linecap="round"></path><path d="M 10.292,305.865 C 10.770,308.256 11.244,308.841 13.488,309.862" stroke-width="6.128" stroke="black" fill="none" stroke-linecap="round"></path><path d="M 13.488,309.862 C 20.033,312.838 20.500,313.477 27.870,313.859" stroke-width="5.127" stroke="black" fill="none" stroke-linecap="round"></path><path d="M 27.870,313.859 C 43.671,314.677 44.146,315.090 59.830,312.260" stroke-width="4.500" stroke="black" fill="none" stroke-linecap="round"></path><path d="M 59.830,312.260 C 92.885,306.296 93.066,305.858 125.348,296.272" stroke-width="4.500" stroke="black" fill="none" stroke-linecap="round"></path><path d="M 125.348,296.272 C 154.988,287.471 154.621,286.177 183.675,275.488" stroke-width="4.500" stroke="black" fill="none" stroke-linecap="round"></path><path d="M 183.675,275.488 C 216.544,263.394 216.386,262.966 249.194,250.706" stroke-width="4.500" stroke="black" fill="none" stroke-linecap="round"></path><path d="M 249.194,250.706 C 282.703,238.184 282.393,237.236 316.310,225.924" stroke-width="4.500" stroke="black" fill="none" stroke-linecap="round"></path><path d="M 316.310,225.924 C 348.310,215.252 348.510,215.752 381.029,206.739" stroke-width="4.500" stroke="black" fill="none" stroke-linecap="round"></path><path d="M 381.029,206.739 C 407.636,199.364 407.653,199.309 434.562,193.149" stroke-width="4.500" stroke="black" fill="none" stroke-linecap="round"></path><path d="M 434.562,193.149 C 454.794,188.517 454.807,188.220 475.311,185.155" stroke-width="4.500" stroke="black" fill="none" stroke-linecap="round"></path><path d="M 475.311,185.155 C 489.563,183.024 489.701,183.014 504.075,182.757" stroke-width="4.500" stroke="black" fill="none" stroke-linecap="round"></path><path d="M 504.075,182.757 C 512.073,182.614 512.661,182.164 520.055,184.356" stroke-width="4.500" stroke="black" fill="none" stroke-linecap="round"></path><path d="M 520.055,184.356 C 523.447,185.361 523.839,186.212 525.648,189.152" stroke-width="5.302" stroke="black" fill="none" stroke-linecap="round"></path><path d="M 525.648,189.152 C 527.035,191.408 527.706,192.438 526.447,194.748" stroke-width="6.241" stroke="black" fill="none" stroke-linecap="round"></path><path d="M 526.447,194.748 C 522.912,201.231 522.108,201.676 516.060,206.739" stroke-width="6.207" stroke="black" fill="none" stroke-linecap="round"></path><path d="M 516.060,206.739 C 502.532,218.064 502.547,218.578 487.296,227.523" stroke-width="4.500" stroke="black" fill="none" stroke-linecap="round"></path><path d="M 487.296,227.523 C 467.791,238.963 467.208,238.148 446.547,247.508" stroke-width="4.500" stroke="black" fill="none" stroke-linecap="round"></path><path d="M 446.547,247.508 C 424.861,257.333 424.799,257.279 402.602,265.895" stroke-width="4.500" stroke="black" fill="none" stroke-linecap="round"></path><path d="M 402.602,265.895 C 378.457,275.266 378.227,274.673 353.863,283.482" stroke-width="4.500" stroke="black" fill="none" stroke-linecap="round"></path><path d="M 353.863,283.482 C 330.686,291.860 330.556,291.520 307.521,300.269" stroke-width="4.500" stroke="black" fill="none" stroke-linecap="round"></path><path d="M 307.521,300.269 C 287.410,307.907 287.467,308.073 267.571,316.257" stroke-width="4.500" stroke="black" fill="none" stroke-linecap="round"></path><path d="M 267.571,316.257 C 251.512,322.862 251.310,322.469 235.611,329.847" stroke-width="4.500" stroke="black" fill="none" stroke-linecap="round"></path><path d="M 235.611,329.847 C 224.943,334.860 224.933,334.977 214.836,341.039" stroke-width="4.500" stroke="black" fill="none" stroke-linecap="round"></path><path d="M 214.836,341.039 C 208.953,344.570 208.399,344.282 203.650,349.033" stroke-width="4.500" stroke="black" fill="none" stroke-linecap="round"></path><path d="M 203.650,349.033 C 200.808,351.876 199.655,352.681 199.655,356.227" stroke-width="5.489" stroke="black" fill="none" stroke-linecap="round"></path><path d="M 199.655,356.227 C 199.655,359.476 201.653,359.425 203.650,362.622" stroke-width="5.990" stroke="black" fill="none" stroke-linecap="round"></path><circle r="3" cx="466.52191162109375" cy="240.3138427734375" fill="black"></circle></svg>