<svg xmlns="http://www.w3.org/2000/svg" xmlns:xlink="http://www.w3.org/1999/xlink" viewBox="0 0 576 336" width="576" height="336"><path d="M 30.568,232.938 C 30.746,240.757 30.351,240.794 30.923,248.576" stroke-width="8.014" stroke="black" fill="none" stroke-linecap="round"></path><path d="M 30.923,248.576 C 31.239,252.878 30.173,258.340 32.344,257.106" stroke-width="6.461" stroke="black" fill="none" stroke-linecap="round"></path><path d="M 32.344,257.106 C 37.988,253.897 41.258,249.461 46.553,239.691" stroke-width="5.694" stroke="black" fill="none" stroke-linecap="round"></path><path d="M 46.553,239.691 C 54.934,224.228 52.890,223.067 59.697,206.638" stroke-width="4.500" stroke="black" fill="none" stroke-linecap="round"></path><path d="M 59.697,206.638 C 67.099,188.770 67.388,188.890 74.971,171.097" stroke-width="4.500" stroke="black" fill="none" stroke-linecap="round"></path><path d="M 74.971,171.097 C 82.308,153.883 81.605,153.542 89.536,136.622" stroke-width="4.500" stroke="black" fill="none" stroke-linecap="round"></path><path d="M 89.536,136.622 C 93.683,127.775 93.331,126.881 99.127,119.563" stroke-width="4.500" stroke="black" fill="none" stroke-linecap="round"></path><path d="M 99.127,119.563 C 100.790,117.463 102.977,116.441 104.455,117.786" stroke-width="5.432" stroke="black" fill="none" stroke-linecap="round"></path><path d="M 104.455,117.786 C 106.884,119.995 106.865,122.100 106.942,126.671" stroke-width="5.623" stroke="black" fill="none" stroke-linecap="round"></path><path d="M 106.942,126.671 C 107.220,143.246 107.036,143.481 105.166,160.079" stroke-width="4.500" stroke="black" fill="none" stroke-linecap="round"></path><path d="M 105.166,160.079 C 102.951,179.733 102.687,179.773 98.772,199.174" stroke-width="4.500" stroke="black" fill="none" stroke-linecap="round"></path><path d="M 98.772,199.174 C 95.227,216.736 94.519,216.592 90.246,234.004" stroke-width="4.500" stroke="black" fill="none" stroke-linecap="round"></path><path d="M 90.246,234.004 C 87.237,246.268 87.269,246.276 84.207,258.527" stroke-width="4.500" stroke="black" fill="none" stroke-linecap="round"></path><path d="M 84.207,258.527 C 82.651,264.758 81.338,274.057 81.010,270.967" stroke-width="4.500" stroke="black" fill="none" stroke-linecap="round"></path><path d="M 81.010,270.967 C 80.094,262.328 80.782,252.989 81.720,235.070" stroke-width="4.878" stroke="black" fill="none" stroke-linecap="round"></path><path d="M 81.720,235.070 C 82.736,215.671 82.574,215.611 84.918,196.331" stroke-width="4.500" stroke="black" fill="none" stroke-linecap="round"></path><path d="M 84.918,196.331 C 87.370,176.160 87.453,176.116 91.312,156.170" stroke-width="4.500" stroke="black" fill="none" stroke-linecap="round"></path><path d="M 91.312,156.170 C 93.847,143.063 93.940,142.979 97.706,130.225" stroke-width="4.500" stroke="black" fill="none" stroke-linecap="round"></path><path d="M 97.706,130.225 C 98.557,127.341 99.916,124.121 100.548,124.894" stroke-width="5.013" stroke="black" fill="none" stroke-linecap="round"></path><path d="M 100.548,124.894 C 101.514,126.076 101.349,129.545 100.903,134.134" stroke-width="5.558" stroke="black" fill="none" stroke-linecap="round"></path><path d="M 100.903,134.134 C 99.396,149.625 98.907,149.615 96.640,165.055" stroke-width="4.500" stroke="black" fill="none" stroke-linecap="round"></path><path d="M 96.640,165.055 C 94.289,181.068 93.684,180.991 91.667,197.042" stroke-width="4.500" stroke="black" fill="none" stroke-linecap="round"></path><path d="M 91.667,197.042 C 89.955,210.667 88.729,210.860 89.181,224.408" stroke-width="4.500" stroke="black" fill="none" stroke-linecap="round"></path><path d="M 89.181,224.408 C 89.440,232.185 88.681,238.903 93.088,239.691" stroke-width="4.500" stroke="black" fill="none" stroke-linecap="round"></path><path d="M 93.088,239.691 C 98.627,240.680 103.152,235.609 109.073,227.962" stroke-width="5.092" stroke="black" fill="none" stroke-linecap="round"></path><path d="M 109.073,227.962 C 118.426,215.884 116.811,214.323 123.638,200.240" stroke-width="4.500" stroke="black" fill="none" stroke-linecap="round"></path><path d="M 123.638,200.240 C 131.197,184.646 130.558,184.339 137.847,168.609" stroke-width="4.500" stroke="black" fill="none" stroke-linecap="round"></path><path d="M 137.847,168.609 C 142.991,157.506 143.324,157.660 148.503,146.574" stroke-width="4.500" stroke="black" fill="none" stroke-linecap="round"></path><path d="M 148.503,146.574 C 150.962,141.311 151.032,137.879 153.121,135.911" stroke-width="4.596" stroke="black" fill="none" stroke-linecap="round"></path><path d="M 153.121,135.911 C 154.052,135.035 154.392,138.329 154.542,140.887" stroke-width="6.441" stroke="black" fill="none" stroke-linecap="round"></path><path d="M 154.542,140.887 C 154.924,147.391 154.023,147.469 154.187,154.037" stroke-width="5.419" stroke="black" fill="none" stroke-linecap="round"></path><path d="M 154.187,154.037 C 154.378,161.686 153.711,161.965 155.252,169.320" stroke-width="4.921" stroke="black" fill="none" stroke-linecap="round"></path><path d="M 155.252,169.320 C 156.020,172.983 156.003,174.233 158.805,176.073" stroke-width="5.759" stroke="black" fill="none" stroke-linecap="round"></path><path d="M 158.805,176.073 C 161.687,177.965 163.356,178.531 166.620,176.783" stroke-width="5.952" stroke="black" fill="none" stroke-linecap="round"></path><path d="M 166.620,176.783 C 175.967,171.778 176.655,170.893 184.026,162.567" stroke-width="4.500" stroke="black" fill="none" stroke-linecap="round"></path><path d="M 184.026,162.567 C 193.174,152.234 192.670,151.498 199.656,139.466" stroke-width="4.500" stroke="black" fill="none" stroke-linecap="round"></path><path d="M 199.656,139.466 C 206.702,127.330 206.217,127.007 212.089,114.232" stroke-width="4.500" stroke="black" fill="none" stroke-linecap="round"></path><path d="M 212.089,114.232 C 217.407,102.661 217.693,102.722 222.035,90.775" stroke-width="4.500" stroke="black" fill="none" stroke-linecap="round"></path><path d="M 222.035,90.775 C 224.797,83.174 224.554,76.266 226.298,75.137" stroke-width="4.500" stroke="black" fill="none" stroke-linecap="round"></path><path d="M 226.298,75.137 C 227.574,74.311 227.561,80.968 228.074,86.865" stroke-width="6.124" stroke="black" fill="none" stroke-linecap="round"></path><path d="M 228.074,86.865 C 228.627,93.229 227.642,93.361 228.429,99.660" stroke-width="5.492" stroke="black" fill="none" stroke-linecap="round"></path><path d="M 228.429,99.660 C 228.885,103.312 228.895,103.528 230.561,106.768" stroke-width="5.936" stroke="black" fill="none" stroke-linecap="round"></path><path d="M 230.561,106.768 C 232.093,109.748 232.295,109.858 234.823,112.099" stroke-width="6.268" stroke="black" fill="none" stroke-linecap="round"></path><path d="M 234.823,112.099 C 238.511,115.367 238.922,114.923 242.993,117.786" stroke-width="5.842" stroke="black" fill="none" stroke-linecap="round"></path><path d="M 242.993,117.786 C 245.494,119.544 246.579,118.890 247.967,121.340" stroke-width="6.295" stroke="black" fill="none" stroke-linecap="round"></path><path d="M 247.967,121.340 C 249.598,124.221 249.640,124.961 249.032,128.448" stroke-width="6.577" stroke="black" fill="none" stroke-linecap="round"></path><path d="M 249.032,128.448 C 246.976,140.243 246.728,140.505 242.638,151.905" stroke-width="4.500" stroke="black" fill="none" stroke-linecap="round"></path><path d="M 242.638,151.905 C 239.269,161.297 238.794,161.196 234.113,170.031" stroke-width="4.500" stroke="black" fill="none" stroke-linecap="round"></path><path d="M 234.113,170.031 C 230.979,175.945 230.276,175.566 227.008,181.404" stroke-width="4.686" stroke="black" fill="none" stroke-linecap="round"></path><path d="M 227.008,181.404 C 225.303,184.451 224.211,189.615 224.167,187.801" stroke-width="5.687" stroke="black" fill="none" stroke-linecap="round"></path><path d="M 224.167,187.801 C 224.033,182.329 224.172,177.055 226.653,166.832" stroke-width="5.546" stroke="black" fill="none" stroke-linecap="round"></path><path d="M 226.653,166.832 C 231.632,146.313 232.025,146.278 239.086,126.316" stroke-width="4.500" stroke="black" fill="none" stroke-linecap="round"></path><path d="M 239.086,126.316 C 247.300,103.096 246.730,102.721 257.202,80.468" stroke-width="4.500" stroke="black" fill="none" stroke-linecap="round"></path><path d="M 257.202,80.468 C 266.800,60.072 266.196,59.269 279.227,41.018" stroke-width="4.500" stroke="black" fill="none" stroke-linecap="round"></path></svg>