<svg xmlns="http://www.w3.org/2000/svg" xmlns:xlink="http://www.w3.org/1999/xlink" viewBox="0 0 576 416" width="576" height="416"><path d="M 428.170,190.751 C 424.175,191.550 423.312,193.314 420.180,192.350" stroke-width="8.645" stroke="black" fill="none" stroke-linecap="round"></path><path d="M 420.180,192.350 C 418.119,191.715 417.601,189.913 417.783,187.553" stroke-width="8.424" stroke="black" fill="none" stroke-linecap="round"></path><path d="M 417.783,187.553 C 418.001,184.717 418.509,183.546 420.979,181.957" stroke-width="7.830" stroke="black" fill="none" stroke-linecap="round"></path><path d="M 420.979,181.957 C 424.102,179.949 425.192,179.762 428.969,180.359" stroke-width="7.422" stroke="black" fill="none" stroke-linecap="round"></path><path d="M 428.969,180.359 C 432.782,180.961 433.381,181.575 436.160,184.356" stroke-width="7.298" stroke="black" fill="none" stroke-linecap="round"></path><path d="M 436.160,184.356 C 438.575,186.771 438.673,187.337 439.356,190.751" stroke-width="6.597" stroke="black" fill="none" stroke-linecap="round"></path><path d="M 439.356,190.751 C 440.272,195.331 440.287,195.686 439.356,200.344" stroke-width="5.983" stroke="black" fill="none" stroke-linecap="round"></path><path d="M 439.356,200.344 C 437.490,209.675 437.432,209.885 433.763,218.730" stroke-width="4.633" stroke="black" fill="none" stroke-linecap="round"></path><path d="M 433.763,218.730 C 428.643,231.069 428.734,231.305 421.778,242.712" stroke-width="4.500" stroke="black" fill="none" stroke-linecap="round"></path><path d="M 421.778,242.712 C 414.352,254.888 413.948,254.753 404.999,265.895" stroke-width="4.500" stroke="black" fill="none" stroke-linecap="round"></path><path d="M 404.999,265.895 C 395.970,277.136 395.716,276.974 385.823,287.479" stroke-width="4.500" stroke="black" fill="none" stroke-linecap="round"></path><path d="M 385.823,287.479 C 376.141,297.759 376.140,297.797 365.848,307.464" stroke-width="4.500" stroke="black" fill="none" stroke-linecap="round"></path><path d="M 365.848,307.464 C 356.564,316.183 356.194,315.783 346.672,324.251" stroke-width="4.500" stroke="black" fill="none" stroke-linecap="round"></path><path d="M 346.672,324.251 C 338.216,331.771 338.316,331.884 329.893,339.440" stroke-width="4.500" stroke="black" fill="none" stroke-linecap="round"></path><path d="M 329.893,339.440 C 326.731,342.276 326.697,342.238 323.501,345.036" stroke-width="5.088" stroke="black" fill="none" stroke-linecap="round"></path><path d="M 362.652,214.733 C 363.051,219.130 364.144,219.367 363.451,223.526" stroke-width="8.777" stroke="black" fill="none" stroke-linecap="round"></path><path d="M 363.451,223.526 C 362.945,226.562 362.601,228.966 360.255,229.122" stroke-width="7.893" stroke="black" fill="none" stroke-linecap="round"></path><path d="M 360.255,229.122 C 356.609,229.365 354.800,227.828 351.466,224.326" stroke-width="7.630" stroke="black" fill="none" stroke-linecap="round"></path><path d="M 351.466,224.326 C 346.810,219.435 347.469,218.539 344.275,212.335" stroke-width="5.523" stroke="black" fill="none" stroke-linecap="round"></path><path d="M 344.275,212.335 C 340.678,205.348 341.011,205.169 337.883,197.945" stroke-width="4.899" stroke="black" fill="none" stroke-linecap="round"></path><path d="M 337.883,197.945 C 335.818,193.178 335.725,193.211 333.888,188.353" stroke-width="5.276" stroke="black" fill="none" stroke-linecap="round"></path><path d="M 333.888,188.353 C 330.132,178.422 330.292,178.360 326.697,168.367" stroke-width="4.500" stroke="black" fill="none" stroke-linecap="round"></path><path d="M 326.697,168.367 C 323.101,158.375 323.211,158.334 319.506,148.382" stroke-width="4.500" stroke="black" fill="none" stroke-linecap="round"></path><path d="M 319.506,148.382 C 315.621,137.949 315.334,138.055 311.516,127.598" stroke-width="4.500" stroke="black" fill="none" stroke-linecap="round"></path><path d="M 311.516,127.598 C 307.744,117.270 307.964,117.190 304.325,106.813" stroke-width="4.500" stroke="black" fill="none" stroke-linecap="round"></path><path d="M 304.325,106.813 C 299.974,94.407 300.090,94.362 295.536,82.032" stroke-width="4.500" stroke="black" fill="none" stroke-linecap="round"></path><path d="M 295.536,82.032 C 293.299,75.976 293.426,75.900 290.742,70.041" stroke-width="4.673" stroke="black" fill="none" stroke-linecap="round"></path><path d="M 290.742,70.041 C 289.031,66.307 287.953,61.371 286.747,62.846" stroke-width="5.567" stroke="black" fill="none" stroke-linecap="round"></path><path d="M 286.747,62.846 C 284.357,65.768 284.977,70.809 283.551,78.834" stroke-width="6.822" stroke="black" fill="none" stroke-linecap="round"></path><path d="M 283.551,78.834 C 281.781,88.796 282.164,88.865 280.355,98.819" stroke-width="4.780" stroke="black" fill="none" stroke-linecap="round"></path><path d="M 280.355,98.819 C 278.169,110.848 278.336,110.899 275.561,122.802" stroke-width="4.500" stroke="black" fill="none" stroke-linecap="round"></path><path d="M 275.561,122.802 C 272.743,134.881 271.925,134.693 269.169,146.784" stroke-width="4.500" stroke="black" fill="none" stroke-linecap="round"></path><path d="M 269.169,146.784 C 266.731,157.476 266.663,157.508 265.174,168.367" stroke-width="4.500" stroke="black" fill="none" stroke-linecap="round"></path><path d="M 265.174,168.367 C 263.867,177.892 263.123,178.045 263.576,187.553" stroke-width="4.500" stroke="black" fill="none" stroke-linecap="round"></path><path d="M 263.576,187.553 C 263.922,194.833 263.912,195.440 266.772,201.942" stroke-width="4.581" stroke="black" fill="none" stroke-linecap="round"></path><path d="M 266.772,201.942 C 268.306,205.433 268.916,205.813 272.365,207.538" stroke-width="5.635" stroke="black" fill="none" stroke-linecap="round"></path><path d="M 272.365,207.538 C 279.303,211.009 279.732,211.240 287.546,212.335" stroke-width="4.798" stroke="black" fill="none" stroke-linecap="round"></path><path d="M 287.546,212.335 C 299.707,214.038 299.983,213.905 312.315,213.134" stroke-width="4.500" stroke="black" fill="none" stroke-linecap="round"></path><path d="M 312.315,213.134 C 331.943,211.907 332.017,211.515 351.466,208.338" stroke-width="4.500" stroke="black" fill="none" stroke-linecap="round"></path><path d="M 351.466,208.338 C 371.168,205.119 371.133,204.745 390.617,200.344" stroke-width="4.500" stroke="black" fill="none" stroke-linecap="round"></path><path d="M 390.617,200.344 C 408.287,196.352 408.170,195.846 425.773,191.550" stroke-width="4.500" stroke="black" fill="none" stroke-linecap="round"></path><path d="M 425.773,191.550 C 440.929,187.852 440.973,188.033 456.135,184.356" stroke-width="4.500" stroke="black" fill="none" stroke-linecap="round"></path><path d="M 456.135,184.356 C 467.340,181.638 467.246,181.174 478.507,178.760" stroke-width="4.500" stroke="black" fill="none" stroke-linecap="round"></path><path d="M 478.507,178.760 C 484.025,177.577 492.453,176.018 489.693,177.161" stroke-width="4.677" stroke="black" fill="none" stroke-linecap="round"></path><path d="M 489.693,177.161 C 480.867,180.815 472.535,182.821 455.336,188.353" stroke-width="5.075" stroke="black" fill="none" stroke-linecap="round"></path><path d="M 455.336,188.353 C 427.791,197.211 427.690,196.901 400.205,205.939" stroke-width="4.500" stroke="black" fill="none" stroke-linecap="round"></path><path d="M 400.205,205.939 C 370.561,215.687 370.502,215.535 341.079,225.924" stroke-width="4.500" stroke="black" fill="none" stroke-linecap="round"></path><path d="M 341.079,225.924 C 309.378,237.119 309.411,237.232 277.958,249.107" stroke-width="4.500" stroke="black" fill="none" stroke-linecap="round"></path><path d="M 277.958,249.107 C 245.890,261.214 245.772,260.946 214.037,273.889" stroke-width="4.500" stroke="black" fill="none" stroke-linecap="round"></path><path d="M 214.037,273.889 C 183.051,286.527 183.103,286.691 152.514,300.269" stroke-width="4.500" stroke="black" fill="none" stroke-linecap="round"></path><path d="M 152.514,300.269 C 126.374,311.872 126.638,312.462 100.579,324.251" stroke-width="4.500" stroke="black" fill="none" stroke-linecap="round"></path><path d="M 100.579,324.251 C 80.695,333.247 80.686,333.238 60.629,341.838" stroke-width="4.500" stroke="black" fill="none" stroke-linecap="round"></path><path d="M 60.629,341.838 C 49.925,346.428 50.030,346.972 39.056,350.631" stroke-width="4.500" stroke="black" fill="none" stroke-linecap="round"></path><path d="M 39.056,350.631 C 35.648,351.768 33.035,352.367 31.865,351.431" stroke-width="4.883" stroke="black" fill="none" stroke-linecap="round"></path><path d="M 31.865,351.431 C 31.038,350.768 33.143,349.097 35.061,347.434" stroke-width="6.149" stroke="black" fill="none" stroke-linecap="round"></path><path d="M 35.061,347.434 C 39.135,343.901 39.476,344.264 43.850,341.039" stroke-width="5.672" stroke="black" fill="none" stroke-linecap="round"></path><path d="M 43.850,341.039 C 62.247,327.476 62.323,327.577 80.604,313.859" stroke-width="4.500" stroke="black" fill="none" stroke-linecap="round"></path><path d="M 80.604,313.859 C 102.273,297.599 101.922,297.124 123.750,281.083" stroke-width="4.500" stroke="black" fill="none" stroke-linecap="round"></path><path d="M 123.750,281.083 C 147.066,263.949 147.530,264.581 170.891,247.508" stroke-width="4.500" stroke="black" fill="none" stroke-linecap="round"></path><path d="M 170.891,247.508 C 193.472,231.006 193.851,231.451 215.635,213.934" stroke-width="4.500" stroke="black" fill="none" stroke-linecap="round"></path><path d="M 215.635,213.934 C 236.598,197.077 236.851,197.229 256.385,178.760" stroke-width="4.500" stroke="black" fill="none" stroke-linecap="round"></path><path d="M 256.385,178.760 C 273.205,162.855 273.735,163.074 288.345,145.185" stroke-width="4.500" stroke="black" fill="none" stroke-linecap="round"></path><path d="M 288.345,145.185 C 300.502,130.299 301.006,130.149 309.918,113.209" stroke-width="4.500" stroke="black" fill="none" stroke-linecap="round"></path><path d="M 309.918,113.209 C 316.986,99.772 317.694,99.230 320.305,84.430" stroke-width="4.500" stroke="black" fill="none" stroke-linecap="round"></path><path d="M 320.305,84.430 C 322.488,72.050 321.246,71.327 319.506,58.849" stroke-width="4.500" stroke="black" fill="none" stroke-linecap="round"></path><path d="M 319.506,58.849 C 318.849,54.140 318.506,53.776 315.511,50.056" stroke-width="4.720" stroke="black" fill="none" stroke-linecap="round"></path><path d="M 315.511,50.056 C 306.921,39.387 307.149,38.486 296.335,30.071" stroke-width="4.500" stroke="black" fill="none" stroke-linecap="round"></path><path d="M 296.335,30.071 C 285.576,21.699 285.087,21.376 272.365,16.481" stroke-width="4.500" stroke="black" fill="none" stroke-linecap="round"></path><path d="M 272.365,16.481 C 259.119,11.384 258.563,11.857 244.400,10.086" stroke-width="4.500" stroke="black" fill="none" stroke-linecap="round"></path><path d="M 244.400,10.086 C 229.799,8.260 229.436,7.958 214.836,9.286" stroke-width="4.500" stroke="black" fill="none" stroke-linecap="round"></path><path d="M 214.836,9.286 C 203.069,10.356 202.732,10.664 191.665,14.882" stroke-width="4.500" stroke="black" fill="none" stroke-linecap="round"></path><path d="M 191.665,14.882 C 177.563,20.257 177.028,20.116 164.499,28.472" stroke-width="4.500" stroke="black" fill="none" stroke-linecap="round"></path><path d="M 164.499,28.472 C 153.057,36.104 152.479,36.308 143.725,46.858" stroke-width="4.500" stroke="black" fill="none" stroke-linecap="round"></path><path d="M 143.725,46.858 C 134.901,57.492 134.469,58.019 129.343,70.840" stroke-width="4.500" stroke="black" fill="none" stroke-linecap="round"></path><path d="M 129.343,70.840 C 124.082,83.999 124.292,84.645 122.951,98.819" stroke-width="4.500" stroke="black" fill="none" stroke-linecap="round"></path><path d="M 122.951,98.819 C 121.495,114.222 121.778,114.607 123.750,129.996" stroke-width="4.500" stroke="black" fill="none" stroke-linecap="round"></path><path d="M 123.750,129.996 C 125.773,145.784 125.020,146.438 130.941,161.173" stroke-width="4.500" stroke="black" fill="none" stroke-linecap="round"></path><path d="M 130.941,161.173 C 140.601,185.210 141.047,185.557 154.911,207.538" stroke-width="4.500" stroke="black" fill="none" stroke-linecap="round"></path><path d="M 154.911,207.538 C 167.015,226.727 167.945,226.352 182.876,243.511" stroke-width="4.500" stroke="black" fill="none" stroke-linecap="round"></path><path d="M 182.876,243.511 C 197.508,260.326 198.154,259.808 214.037,275.488" stroke-width="4.500" stroke="black" fill="none" stroke-linecap="round"></path><path d="M 214.037,275.488 C 228.116,289.386 228.182,289.337 242.802,302.667" stroke-width="4.500" stroke="black" fill="none" stroke-linecap="round"></path><path d="M 242.802,302.667 C 259.743,318.115 261.194,316.672 277.159,333.045" stroke-width="4.500" stroke="black" fill="none" stroke-linecap="round"></path><path d="M 277.159,333.045 C 293.154,349.448 291.940,350.631 306.722,368.218" stroke-width="4.500" stroke="black" fill="none" stroke-linecap="round"></path></svg>