<svg xmlns="http://www.w3.org/2000/svg" xmlns:xlink="http://www.w3.org/1999/xlink" viewBox="0 0 576 416" width="576" height="416"><path d="M 358.657,107.613 C 355.061,109.611 355.271,110.420 351.466,111.610" stroke-width="8.676" stroke="black" fill="none" stroke-linecap="round"></path><path d="M 351.466,111.610 C 348.879,112.419 347.065,113.001 345.873,111.610" stroke-width="8.315" stroke="black" fill="none" stroke-linecap="round"></path><path d="M 345.873,111.610 C 344.668,110.203 346.978,105.402 346.672,106.014" stroke-width="8.383" stroke="black" fill="none" stroke-linecap="round"></path><path d="M 346.672,106.014 C 346.179,107.001 345.904,110.569 344.275,114.807" stroke-width="8.075" stroke="black" fill="none" stroke-linecap="round"></path><path d="M 344.275,114.807 C 341.909,120.961 341.823,120.985 338.682,126.798" stroke-width="5.699" stroke="black" fill="none" stroke-linecap="round"></path><path d="M 338.682,126.798 C 333.833,135.774 333.673,135.706 328.295,144.385" stroke-width="4.500" stroke="black" fill="none" stroke-linecap="round"></path><path d="M 328.295,144.385 C 321.289,155.691 320.977,155.498 313.913,166.769" stroke-width="4.500" stroke="black" fill="none" stroke-linecap="round"></path><path d="M 313.913,166.769 C 306.196,179.080 306.356,179.180 298.732,191.550" stroke-width="4.500" stroke="black" fill="none" stroke-linecap="round"></path><path d="M 298.732,191.550 C 291.574,203.162 291.460,203.092 284.350,214.733" stroke-width="4.500" stroke="black" fill="none" stroke-linecap="round"></path><path d="M 284.350,214.733 C 278.276,224.676 278.260,224.669 272.365,234.718" stroke-width="4.500" stroke="black" fill="none" stroke-linecap="round"></path><path d="M 272.365,234.718 C 267.474,243.055 267.319,242.984 262.777,251.505" stroke-width="4.500" stroke="black" fill="none" stroke-linecap="round"></path><path d="M 262.777,251.505 C 260.927,254.975 261.179,255.103 259.581,258.700" stroke-width="5.332" stroke="black" fill="none" stroke-linecap="round"></path><path d="M 289.943,121.203 C 288.744,125.200 288.360,125.124 287.546,129.197" stroke-width="8.451" stroke="black" fill="none" stroke-linecap="round"></path><path d="M 287.546,129.197 C 286.762,133.118 285.267,135.922 286.747,137.191" stroke-width="7.596" stroke="black" fill="none" stroke-linecap="round"></path><path d="M 286.747,137.191 C 288.063,138.320 290.602,136.382 293.139,133.993" stroke-width="7.802" stroke="black" fill="none" stroke-linecap="round"></path><path d="M 293.139,133.993 C 297.393,129.986 296.652,129.132 300.330,124.400" stroke-width="6.961" stroke="black" fill="none" stroke-linecap="round"></path><path d="M 300.330,124.400 C 302.245,121.937 302.040,121.682 304.325,119.604" stroke-width="6.613" stroke="black" fill="none" stroke-linecap="round"></path><path d="M 304.325,119.604 C 306.434,117.685 309.007,114.848 309.119,116.406" stroke-width="7.335" stroke="black" fill="none" stroke-linecap="round"></path><path d="M 309.119,116.406 C 309.407,120.444 307.786,123.841 305.124,130.796" stroke-width="6.585" stroke="black" fill="none" stroke-linecap="round"></path><path d="M 305.124,130.796 C 300.595,142.627 300.485,142.667 294.737,153.978" stroke-width="4.500" stroke="black" fill="none" stroke-linecap="round"></path><path d="M 294.737,153.978 C 288.500,166.250 288.413,166.260 281.154,177.960" stroke-width="4.500" stroke="black" fill="none" stroke-linecap="round"></path><path d="M 281.154,177.960 C 274.030,189.442 273.280,188.970 265.973,200.344" stroke-width="4.500" stroke="black" fill="none" stroke-linecap="round"></path><path d="M 265.973,200.344 C 258.898,211.354 259.248,211.576 252.390,222.727" stroke-width="4.500" stroke="black" fill="none" stroke-linecap="round"></path><path d="M 252.390,222.727 C 246.464,232.361 246.378,232.308 240.405,241.913" stroke-width="4.500" stroke="black" fill="none" stroke-linecap="round"></path><path d="M 240.405,241.913 C 235.192,250.294 235.162,250.277 230.017,258.700" stroke-width="4.500" stroke="black" fill="none" stroke-linecap="round"></path><path d="M 230.017,258.700 C 226.373,264.666 226.381,264.672 222.826,270.691" stroke-width="4.574" stroke="black" fill="none" stroke-linecap="round"></path><path d="M 222.826,270.691 C 221.188,273.465 221.228,273.489 219.630,276.287" stroke-width="5.785" stroke="black" fill="none" stroke-linecap="round"></path><path d="M 267.571,155.577 C 265.174,162.372 265.053,162.334 262.777,169.167" stroke-width="8.093" stroke="black" fill="none" stroke-linecap="round"></path><path d="M 262.777,169.167 C 261.857,171.926 262.034,171.982 261.179,174.763" stroke-width="7.069" stroke="black" fill="none" stroke-linecap="round"></path><path d="M 261.179,174.763 C 260.436,177.178 260.323,179.745 259.581,179.559" stroke-width="6.976" stroke="black" fill="none" stroke-linecap="round"></path><path d="M 259.581,179.559 C 258.725,179.345 259.693,175.889 257.983,173.963" stroke-width="7.930" stroke="black" fill="none" stroke-linecap="round"></path><path d="M 257.983,173.963 C 256.497,172.291 254.786,173.963 253.189,172.365" stroke-width="8.479" stroke="black" fill="none" stroke-linecap="round"></path><path d="M 253.189,172.365 C 251.590,170.765 252.867,166.586 251.591,167.568" stroke-width="8.546" stroke="black" fill="none" stroke-linecap="round"></path><path d="M 251.591,167.568 C 247.673,170.583 247.104,173.902 242.802,180.359" stroke-width="6.739" stroke="black" fill="none" stroke-linecap="round"></path><path d="M 242.802,180.359 C 237.516,188.291 237.374,188.210 232.415,196.347" stroke-width="4.886" stroke="black" fill="none" stroke-linecap="round"></path><path d="M 232.415,196.347 C 227.386,204.597 227.683,204.777 222.826,213.134" stroke-width="4.500" stroke="black" fill="none" stroke-linecap="round"></path><path d="M 222.826,213.134 C 217.695,221.964 217.692,221.963 212.439,230.721" stroke-width="4.500" stroke="black" fill="none" stroke-linecap="round"></path><path d="M 212.439,230.721 C 206.905,239.949 206.906,239.951 201.253,249.107" stroke-width="4.500" stroke="black" fill="none" stroke-linecap="round"></path><path d="M 201.253,249.107 C 198.516,253.541 198.067,253.286 195.660,257.901" stroke-width="5.003" stroke="black" fill="none" stroke-linecap="round"></path><path d="M 195.660,257.901 C 188.479,271.672 189.422,272.198 182.077,285.880" stroke-width="4.500" stroke="black" fill="none" stroke-linecap="round"></path><path d="M 182.077,285.880 C 177.836,293.781 177.224,293.437 172.489,301.068" stroke-width="4.500" stroke="black" fill="none" stroke-linecap="round"></path><path d="M 172.489,301.068 C 170.033,305.029 170.092,305.065 167.695,309.063" stroke-width="5.165" stroke="black" fill="none" stroke-linecap="round"></path><path d="M 215.635,173.963 C 212.439,179.559 212.316,179.492 209.243,185.155" stroke-width="7.789" stroke="black" fill="none" stroke-linecap="round"></path><path d="M 209.243,185.155 C 204.726,193.481 204.989,193.625 200.454,201.942" stroke-width="4.926" stroke="black" fill="none" stroke-linecap="round"></path><path d="M 200.454,201.942 C 195.401,211.212 195.261,211.136 190.067,220.329" stroke-width="4.500" stroke="black" fill="none" stroke-linecap="round"></path><path d="M 190.067,220.329 C 184.874,229.522 184.734,229.446 179.680,238.715" stroke-width="4.500" stroke="black" fill="none" stroke-linecap="round"></path><path d="M 179.680,238.715 C 175.146,247.033 175.471,247.211 170.891,255.502" stroke-width="4.500" stroke="black" fill="none" stroke-linecap="round"></path><path d="M 170.891,255.502 C 167.081,262.400 167.074,262.413 162.901,269.092" stroke-width="4.519" stroke="black" fill="none" stroke-linecap="round"></path><path d="M 162.901,269.092 C 161.082,272.006 160.740,271.784 158.906,274.688" stroke-width="5.631" stroke="black" fill="none" stroke-linecap="round"></path><path d="M 158.906,274.688 C 155.946,279.378 152.550,285.350 153.313,284.281" stroke-width="5.404" stroke="black" fill="none" stroke-linecap="round"></path><path d="M 186.072,191.550 C 184.075,195.947 183.915,195.879 182.077,200.344" stroke-width="8.265" stroke="black" fill="none" stroke-linecap="round"></path><path d="M 182.077,200.344 C 178.322,209.469 179.062,209.806 174.886,218.730" stroke-width="4.892" stroke="black" fill="none" stroke-linecap="round"></path><path d="M 174.886,218.730 C 170.273,228.592 170.104,228.570 164.499,237.916" stroke-width="4.500" stroke="black" fill="none" stroke-linecap="round"></path><path d="M 164.499,237.916 C 159.317,246.557 159.385,246.676 153.313,254.703" stroke-width="4.500" stroke="black" fill="none" stroke-linecap="round"></path><path d="M 153.313,254.703 C 148.199,261.465 148.015,261.385 142.127,267.494" stroke-width="4.500" stroke="black" fill="none" stroke-linecap="round"></path><path d="M 142.127,267.494 C 137.228,272.577 137.326,272.895 131.740,277.086" stroke-width="4.742" stroke="black" fill="none" stroke-linecap="round"></path><path d="M 131.740,277.086 C 129.336,278.890 129.051,278.630 126.147,279.485" stroke-width="5.921" stroke="black" fill="none" stroke-linecap="round"></path><path d="M 126.147,279.485 C 122.259,280.629 121.950,281.530 118.157,281.083" stroke-width="5.951" stroke="black" fill="none" stroke-linecap="round"></path><path d="M 118.157,281.083 C 115.159,280.730 112.943,280.536 112.564,277.886" stroke-width="6.952" stroke="black" fill="none" stroke-linecap="round"></path><path d="M 112.564,277.886 C 111.744,272.142 112.726,270.368 115.760,264.296" stroke-width="6.654" stroke="black" fill="none" stroke-linecap="round"></path><path d="M 115.760,264.296 C 118.719,258.377 119.520,258.415 124.549,253.904" stroke-width="5.290" stroke="black" fill="none" stroke-linecap="round"></path><path d="M 124.549,253.904 C 131.106,248.023 131.292,247.955 138.931,243.511" stroke-width="4.828" stroke="black" fill="none" stroke-linecap="round"></path><path d="M 138.931,243.511 C 148.471,237.962 148.659,238.089 158.906,233.919" stroke-width="4.500" stroke="black" fill="none" stroke-linecap="round"></path><path d="M 158.906,233.919 C 172.229,228.496 172.499,229.150 186.072,224.326" stroke-width="4.500" stroke="black" fill="none" stroke-linecap="round"></path><path d="M 186.072,224.326 C 202.861,218.358 202.769,218.090 219.630,212.335" stroke-width="4.500" stroke="black" fill="none" stroke-linecap="round"></path><path d="M 219.630,212.335 C 236.727,206.499 236.849,206.859 253.988,201.143" stroke-width="4.500" stroke="black" fill="none" stroke-linecap="round"></path><path d="M 253.988,201.143 C 270.407,195.667 270.307,195.365 286.747,189.951" stroke-width="4.500" stroke="black" fill="none" stroke-linecap="round"></path><path d="M 286.747,189.951 C 301.868,184.972 301.986,185.333 317.109,180.359" stroke-width="4.500" stroke="black" fill="none" stroke-linecap="round"></path><path d="M 317.109,180.359 C 331.150,175.740 331.240,175.956 345.074,170.766" stroke-width="4.500" stroke="black" fill="none" stroke-linecap="round"></path><path d="M 345.074,170.766 C 356.808,166.363 356.710,166.088 368.245,161.173" stroke-width="4.500" stroke="black" fill="none" stroke-linecap="round"></path><path d="M 368.245,161.173 C 378.283,156.895 378.385,157.094 388.220,152.379" stroke-width="4.500" stroke="black" fill="none" stroke-linecap="round"></path><path d="M 388.220,152.379 C 397.561,147.901 397.445,147.651 406.597,142.787" stroke-width="4.500" stroke="black" fill="none" stroke-linecap="round"></path><path d="M 406.597,142.787 C 410.229,140.856 410.192,140.788 413.788,138.790" stroke-width="5.238" stroke="black" fill="none" stroke-linecap="round"></path><circle r="3" cx="320.3046569824219" cy="253.9036865234375" fill="black"></circle><circle r="3" cx="353.0636901855469" cy="238.7149658203125" fill="black"></circle></svg>