<svg xmlns="http://www.w3.org/2000/svg" xmlns:xlink="http://www.w3.org/1999/xlink" viewBox="0 0 576 336" width="576" height="336"><path d="M 85.983,71.138 C 82.431,84.822 81.407,84.639 78.879,98.505" stroke-width="6.822" stroke="black" fill="none" stroke-linecap="round"></path><path d="M 78.879,98.505 C 76.612,110.940 77.501,111.110 76.392,123.739" stroke-width="4.500" stroke="black" fill="none" stroke-linecap="round"></path><path d="M 76.392,123.739 C 75.192,137.410 75.238,137.416 74.261,151.105" stroke-width="4.500" stroke="black" fill="none" stroke-linecap="round"></path><path d="M 74.261,151.105 C 73.284,164.782 72.680,164.782 72.485,178.472" stroke-width="4.500" stroke="black" fill="none" stroke-linecap="round"></path><path d="M 72.485,178.472 C 72.325,189.661 72.390,189.736 73.550,200.862" stroke-width="4.500" stroke="black" fill="none" stroke-linecap="round"></path><path d="M 73.550,200.862 C 74.521,210.172 74.759,210.190 76.748,219.343" stroke-width="4.500" stroke="black" fill="none" stroke-linecap="round"></path><path d="M 76.748,219.343 C 78.311,226.539 78.028,226.728 80.655,233.560" stroke-width="4.673" stroke="black" fill="none" stroke-linecap="round"></path><path d="M 80.655,233.560 C 82.469,238.278 82.445,238.692 85.628,242.445" stroke-width="5.303" stroke="black" fill="none" stroke-linecap="round"></path><path d="M 85.628,242.445 C 87.419,244.556 87.936,244.644 90.601,245.288" stroke-width="6.228" stroke="black" fill="none" stroke-linecap="round"></path><path d="M 90.601,245.288 C 93.087,245.888 93.494,245.838 95.930,244.933" stroke-width="6.650" stroke="black" fill="none" stroke-linecap="round"></path><path d="M 95.930,244.933 C 99.710,243.528 100.658,243.906 103.034,240.668" stroke-width="6.129" stroke="black" fill="none" stroke-linecap="round"></path><path d="M 103.034,240.668 C 109.006,232.533 108.475,231.713 112.625,222.187" stroke-width="4.500" stroke="black" fill="none" stroke-linecap="round"></path><path d="M 112.625,222.187 C 117.533,210.921 117.745,210.887 121.151,199.085" stroke-width="4.500" stroke="black" fill="none" stroke-linecap="round"></path><path d="M 121.151,199.085 C 125.027,185.653 124.670,185.493 127.190,171.719" stroke-width="4.500" stroke="black" fill="none" stroke-linecap="round"></path><path d="M 127.190,171.719 C 129.643,158.305 129.263,158.230 131.097,144.708" stroke-width="4.500" stroke="black" fill="none" stroke-linecap="round"></path><path d="M 131.097,144.708 C 132.638,133.351 132.663,133.351 133.939,121.962" stroke-width="4.500" stroke="black" fill="none" stroke-linecap="round"></path><path d="M 133.939,121.962 C 134.972,112.737 134.483,112.670 135.715,103.481" stroke-width="4.500" stroke="black" fill="none" stroke-linecap="round"></path><path d="M 135.715,103.481 C 136.437,98.099 136.505,98.074 137.847,92.818" stroke-width="4.905" stroke="black" fill="none" stroke-linecap="round"></path><path d="M 137.847,92.818 C 138.637,89.722 137.950,88.226 139.978,86.776" stroke-width="5.944" stroke="black" fill="none" stroke-linecap="round"></path><path d="M 139.978,86.776 C 141.679,85.560 143.963,85.654 145.306,87.487" stroke-width="7.076" stroke="black" fill="none" stroke-linecap="round"></path><path d="M 145.306,87.487 C 147.870,90.985 147.070,92.375 147.793,97.439" stroke-width="5.881" stroke="black" fill="none" stroke-linecap="round"></path><path d="M 147.793,97.439 C 149.201,107.302 149.136,107.370 149.569,117.341" stroke-width="4.541" stroke="black" fill="none" stroke-linecap="round"></path><path d="M 149.569,117.341 C 150.024,127.806 150.370,127.888 149.569,138.310" stroke-width="4.500" stroke="black" fill="none" stroke-linecap="round"></path><path d="M 149.569,138.310 C 148.772,148.679 147.258,148.556 146.372,158.924" stroke-width="4.500" stroke="black" fill="none" stroke-linecap="round"></path><path d="M 146.372,158.924 C 145.481,169.348 146.946,169.478 146.017,179.893" stroke-width="4.500" stroke="black" fill="none" stroke-linecap="round"></path><path d="M 146.017,179.893 C 145.170,189.381 144.710,189.371 142.820,198.730" stroke-width="4.500" stroke="black" fill="none" stroke-linecap="round"></path><path d="M 142.820,198.730 C 141.157,206.964 140.949,206.925 138.912,215.078" stroke-width="4.500" stroke="black" fill="none" stroke-linecap="round"></path><path d="M 138.912,215.078 C 137.575,220.431 138.729,221.272 136.070,225.741" stroke-width="5.055" stroke="black" fill="none" stroke-linecap="round"></path><path d="M 136.070,225.741 C 134.289,228.735 132.488,231.491 130.032,230.006" stroke-width="6.492" stroke="black" fill="none" stroke-linecap="round"></path><path d="M 130.032,230.006 C 123.963,226.337 123.014,223.506 119.019,215.434" stroke-width="5.939" stroke="black" fill="none" stroke-linecap="round"></path><path d="M 119.019,215.434 C 113.956,205.202 115.029,204.538 111.915,193.399" stroke-width="4.500" stroke="black" fill="none" stroke-linecap="round"></path><path d="M 111.915,193.399 C 109.167,183.569 109.914,183.364 107.297,173.496" stroke-width="4.500" stroke="black" fill="none" stroke-linecap="round"></path><path d="M 107.297,173.496 C 105.296,165.949 105.861,165.548 102.679,158.569" stroke-width="4.510" stroke="black" fill="none" stroke-linecap="round"></path><path d="M 102.679,158.569 C 101.243,155.418 100.911,154.378 98.061,153.238" stroke-width="5.664" stroke="black" fill="none" stroke-linecap="round"></path><path d="M 98.061,153.238 C 95.583,152.246 94.511,152.725 92.022,154.304" stroke-width="6.297" stroke="black" fill="none" stroke-linecap="round"></path><path d="M 92.022,154.304 C 87.229,157.345 87.484,158.133 83.497,162.478" stroke-width="5.469" stroke="black" fill="none" stroke-linecap="round"></path><path d="M 83.497,162.478 C 77.538,168.973 77.036,168.714 72.130,175.984" stroke-width="4.686" stroke="black" fill="none" stroke-linecap="round"></path><path d="M 72.130,175.984 C 67.800,182.398 68.758,183.015 65.025,189.845" stroke-width="4.694" stroke="black" fill="none" stroke-linecap="round"></path><path d="M 65.025,189.845 C 62.542,194.388 58.374,200.875 59.697,198.730" stroke-width="5.207" stroke="black" fill="none" stroke-linecap="round"></path><path d="M 59.697,198.730 C 63.525,192.523 68.405,186.406 75.326,173.141" stroke-width="5.875" stroke="black" fill="none" stroke-linecap="round"></path><path d="M 75.326,173.141 C 83.147,158.151 81.985,157.554 89.181,142.220" stroke-width="4.500" stroke="black" fill="none" stroke-linecap="round"></path><path d="M 89.181,142.220 C 95.661,128.410 95.859,128.501 102.679,114.853" stroke-width="4.500" stroke="black" fill="none" stroke-linecap="round"></path><path d="M 102.679,114.853 C 108.114,103.978 107.329,103.448 113.691,93.174" stroke-width="4.500" stroke="black" fill="none" stroke-linecap="round"></path><path d="M 113.691,93.174 C 117.453,87.099 117.361,86.118 122.927,82.156" stroke-width="4.500" stroke="black" fill="none" stroke-linecap="round"></path><path d="M 122.927,82.156 C 126.597,79.543 127.727,79.561 132.163,80.024" stroke-width="5.278" stroke="black" fill="none" stroke-linecap="round"></path><path d="M 132.163,80.024 C 136.252,80.450 136.900,80.972 139.978,83.933" stroke-width="5.647" stroke="black" fill="none" stroke-linecap="round"></path><path d="M 139.978,83.933 C 146.136,89.857 146.814,90.072 150.635,97.794" stroke-width="4.742" stroke="black" fill="none" stroke-linecap="round"></path><path d="M 150.635,97.794 C 155.694,108.020 154.740,108.661 157.739,119.829" stroke-width="4.500" stroke="black" fill="none" stroke-linecap="round"></path><path d="M 157.739,119.829 C 161.135,132.474 161.197,132.519 163.423,145.419" stroke-width="4.500" stroke="black" fill="none" stroke-linecap="round"></path><path d="M 163.423,145.419 C 165.460,157.220 164.479,157.381 166.265,169.231" stroke-width="4.500" stroke="black" fill="none" stroke-linecap="round"></path><path d="M 166.265,169.231 C 167.853,179.771 168.880,179.646 170.172,190.200" stroke-width="4.500" stroke="black" fill="none" stroke-linecap="round"></path><path d="M 170.172,190.200 C 171.012,197.061 170.590,206.121 170.527,204.061" stroke-width="4.545" stroke="black" fill="none" stroke-linecap="round"></path><path d="M 170.527,204.061 C 170.412,200.257 169.893,191.269 169.817,178.472" stroke-width="5.749" stroke="black" fill="none" stroke-linecap="round"></path><path d="M 169.817,178.472 C 169.715,161.237 169.999,161.234 170.172,143.997" stroke-width="4.500" stroke="black" fill="none" stroke-linecap="round"></path><path d="M 170.172,143.997 C 170.354,125.871 170.616,125.870 170.527,107.746" stroke-width="4.500" stroke="black" fill="none" stroke-linecap="round"></path><path d="M 170.527,107.746 C 170.439,89.618 169.527,89.607 169.817,71.494" stroke-width="4.500" stroke="black" fill="none" stroke-linecap="round"></path><path d="M 169.817,71.494 C 170.059,56.376 170.196,56.337 171.593,41.284" stroke-width="4.500" stroke="black" fill="none" stroke-linecap="round"></path><path d="M 171.593,41.284 C 172.505,31.459 171.553,30.778 174.435,21.737" stroke-width="4.500" stroke="black" fill="none" stroke-linecap="round"></path><path d="M 174.435,21.737 C 175.461,18.517 176.466,17.564 179.408,16.761" stroke-width="5.163" stroke="black" fill="none" stroke-linecap="round"></path><path d="M 179.408,16.761 C 182.327,15.965 183.270,16.695 186.157,18.538" stroke-width="5.959" stroke="black" fill="none" stroke-linecap="round"></path><path d="M 186.157,18.538 C 193.572,23.270 194.627,22.953 200.011,29.911" stroke-width="4.759" stroke="black" fill="none" stroke-linecap="round"></path><path d="M 200.011,29.911 C 207.415,39.479 206.981,40.276 211.734,51.591" stroke-width="4.500" stroke="black" fill="none" stroke-linecap="round"></path><path d="M 211.734,51.591 C 217.282,64.799 217.729,64.946 220.614,78.957" stroke-width="4.500" stroke="black" fill="none" stroke-linecap="round"></path><path d="M 220.614,78.957 C 223.767,94.267 223.540,94.574 223.811,110.233" stroke-width="4.500" stroke="black" fill="none" stroke-linecap="round"></path><path d="M 223.811,110.233 C 224.073,125.317 224.692,125.779 221.680,140.443" stroke-width="4.500" stroke="black" fill="none" stroke-linecap="round"></path><path d="M 221.680,140.443 C 219.363,151.723 218.862,152.130 213.155,162.123" stroke-width="4.500" stroke="black" fill="none" stroke-linecap="round"></path><path d="M 213.155,162.123 C 208.205,170.789 208.124,171.675 200.366,177.761" stroke-width="4.500" stroke="black" fill="none" stroke-linecap="round"></path><path d="M 200.366,177.761 C 192.494,183.936 191.574,183.557 181.894,186.646" stroke-width="4.500" stroke="black" fill="none" stroke-linecap="round"></path><path d="M 181.894,186.646 C 170.971,190.132 170.500,191.163 159.160,190.911" stroke-width="4.500" stroke="black" fill="none" stroke-linecap="round"></path><path d="M 159.160,190.911 C 146.522,190.630 146.391,188.849 133.939,185.580" stroke-width="4.500" stroke="black" fill="none" stroke-linecap="round"></path><path d="M 133.939,185.580 C 121.348,182.274 120.905,183.032 109.073,177.761" stroke-width="4.500" stroke="black" fill="none" stroke-linecap="round"></path><path d="M 109.073,177.761 C 96.572,172.192 96.814,171.382 85.273,163.900" stroke-width="4.500" stroke="black" fill="none" stroke-linecap="round"></path><path d="M 85.273,163.900 C 74.612,156.988 74.772,156.696 64.670,148.973" stroke-width="4.500" stroke="black" fill="none" stroke-linecap="round"></path><path d="M 64.670,148.973 C 55.945,142.302 55.775,142.445 47.619,135.112" stroke-width="4.500" stroke="black" fill="none" stroke-linecap="round"></path><path d="M 47.619,135.112 C 41.743,129.829 41.588,129.831 36.607,123.739" stroke-width="4.500" stroke="black" fill="none" stroke-linecap="round"></path><path d="M 36.607,123.739 C 33.596,120.057 31.827,119.633 31.634,115.564" stroke-width="5.182" stroke="black" fill="none" stroke-linecap="round"></path><path d="M 31.634,115.564 C 31.472,112.169 32.409,110.021 35.897,108.811" stroke-width="6.473" stroke="black" fill="none" stroke-linecap="round"></path><path d="M 35.897,108.811 C 45.730,105.401 47.051,106.730 58.276,106.324" stroke-width="4.500" stroke="black" fill="none" stroke-linecap="round"></path><path d="M 58.276,106.324 C 71.562,105.842 71.621,106.257 84.918,107.035" stroke-width="4.500" stroke="black" fill="none" stroke-linecap="round"></path><path d="M 84.918,107.035 C 98.973,107.857 98.971,108.066 112.981,109.523" stroke-width="4.500" stroke="black" fill="none" stroke-linecap="round"></path><path d="M 112.981,109.523 C 126.324,110.910 126.314,111.021 139.623,112.721" stroke-width="4.500" stroke="black" fill="none" stroke-linecap="round"></path><path d="M 139.623,112.721 C 151.358,114.220 151.525,113.494 163.068,115.920" stroke-width="4.500" stroke="black" fill="none" stroke-linecap="round"></path><path d="M 163.068,115.920 C 172.661,117.936 172.421,118.984 181.894,121.606" stroke-width="4.500" stroke="black" fill="none" stroke-linecap="round"></path><path d="M 181.894,121.606 C 189.116,123.605 189.246,123.149 196.459,125.160" stroke-width="4.500" stroke="black" fill="none" stroke-linecap="round"></path><path d="M 196.459,125.160 C 200.080,126.170 205.333,126.365 203.564,127.648" stroke-width="5.558" stroke="black" fill="none" stroke-linecap="round"></path><path d="M 203.564,127.648 C 198.228,131.518 193.210,132.726 182.250,135.467" stroke-width="6.309" stroke="black" fill="none" stroke-linecap="round"></path><path d="M 182.250,135.467 C 169.054,138.768 168.606,136.915 155.252,139.732" stroke-width="4.500" stroke="black" fill="none" stroke-linecap="round"></path><path d="M 155.252,139.732 C 142.497,142.423 142.772,143.713 130.032,146.485" stroke-width="4.500" stroke="black" fill="none" stroke-linecap="round"></path><path d="M 130.032,146.485 C 118.262,149.045 118.144,148.517 106.231,150.394" stroke-width="4.500" stroke="black" fill="none" stroke-linecap="round"></path><path d="M 106.231,150.394 C 95.587,152.072 95.574,151.994 84.918,153.593" stroke-width="4.500" stroke="black" fill="none" stroke-linecap="round"></path><path d="M 84.918,153.593 C 77.813,154.659 77.793,154.544 70.709,155.725" stroke-width="4.500" stroke="black" fill="none" stroke-linecap="round"></path><path d="M 70.709,155.725 C 67.136,156.321 63.872,155.810 63.604,157.147" stroke-width="5.626" stroke="black" fill="none" stroke-linecap="round"></path><path d="M 63.604,157.147 C 63.339,158.475 66.342,159.680 69.643,161.057" stroke-width="6.754" stroke="black" fill="none" stroke-linecap="round"></path><path d="M 69.643,161.057 C 79.130,165.011 79.290,164.841 89.181,167.809" stroke-width="4.728" stroke="black" fill="none" stroke-linecap="round"></path><path d="M 89.181,167.809 C 98.827,170.705 98.944,170.319 108.718,172.785" stroke-width="4.500" stroke="black" fill="none" stroke-linecap="round"></path><path d="M 108.718,172.785 C 119.369,175.472 119.397,175.365 130.032,178.116" stroke-width="4.500" stroke="black" fill="none" stroke-linecap="round"></path><path d="M 130.032,178.116 C 140.000,180.696 139.916,181.048 149.924,183.447" stroke-width="4.500" stroke="black" fill="none" stroke-linecap="round"></path><path d="M 149.924,183.447 C 156.967,185.135 157.184,184.316 164.133,186.291" stroke-width="4.538" stroke="black" fill="none" stroke-linecap="round"></path><path d="M 164.133,186.291 C 171.571,188.404 171.136,190.773 178.698,191.622" stroke-width="4.655" stroke="black" fill="none" stroke-linecap="round"></path></svg>