<svg xmlns="http://www.w3.org/2000/svg" xmlns:xlink="http://www.w3.org/1999/xlink" viewBox="0 0 576 416" width="576" height="416"><path d="M 423.376,235.517 C 418.582,236.317 418.488,235.940 413.788,237.116" stroke-width="8.588" stroke="black" fill="none" stroke-linecap="round"></path><path d="M 413.788,237.116 C 408.900,238.339 408.872,238.409 404.200,240.314" stroke-width="7.324" stroke="black" fill="none" stroke-linecap="round"></path><path d="M 404.200,240.314 C 398.085,242.806 398.127,242.952 392.215,245.910" stroke-width="5.338" stroke="black" fill="none" stroke-linecap="round"></path><path d="M 392.215,245.910 C 386.142,248.947 386.025,248.784 380.230,252.305" stroke-width="5.000" stroke="black" fill="none" stroke-linecap="round"></path><path d="M 380.230,252.305 C 374.839,255.579 374.867,255.679 369.843,259.499" stroke-width="5.113" stroke="black" fill="none" stroke-linecap="round"></path><path d="M 369.843,259.499 C 364.879,263.274 365.146,263.619 360.255,267.494" stroke-width="5.166" stroke="black" fill="none" stroke-linecap="round"></path><path d="M 360.255,267.494 C 355.558,271.214 355.555,271.224 350.667,274.688" stroke-width="5.244" stroke="black" fill="none" stroke-linecap="round"></path><path d="M 350.667,274.688 C 345.967,278.019 346.194,278.525 341.079,281.083" stroke-width="5.235" stroke="black" fill="none" stroke-linecap="round"></path><path d="M 341.079,281.083 C 335.807,283.721 335.625,283.646 329.893,285.080" stroke-width="5.186" stroke="black" fill="none" stroke-linecap="round"></path><path d="M 329.893,285.080 C 324.439,286.444 324.295,286.679 318.707,286.679" stroke-width="5.248" stroke="black" fill="none" stroke-linecap="round"></path><path d="M 318.707,286.679 C 313.509,286.679 306.487,285.342 308.320,285.080" stroke-width="5.375" stroke="black" fill="none" stroke-linecap="round"></path><path d="M 357.059,175.562 C 352.265,181.558 351.945,181.336 347.471,187.553" stroke-width="8.298" stroke="black" fill="none" stroke-linecap="round"></path><path d="M 347.471,187.553 C 344.754,191.328 344.308,191.262 342.677,195.547" stroke-width="6.387" stroke="black" fill="none" stroke-linecap="round"></path><path d="M 342.677,195.547 C 341.112,199.656 341.079,199.970 341.079,204.341" stroke-width="6.037" stroke="black" fill="none" stroke-linecap="round"></path><path d="M 341.079,204.341 C 341.079,207.564 341.232,207.845 342.677,210.736" stroke-width="6.344" stroke="black" fill="none" stroke-linecap="round"></path><path d="M 342.677,210.736 C 344.428,214.241 344.520,214.548 347.471,217.131" stroke-width="6.266" stroke="black" fill="none" stroke-linecap="round"></path><path d="M 347.471,217.131 C 350.912,220.143 351.218,220.108 355.461,221.928" stroke-width="5.942" stroke="black" fill="none" stroke-linecap="round"></path><path d="M 355.461,221.928 C 359.608,223.706 359.784,223.656 364.250,224.326" stroke-width="5.795" stroke="black" fill="none" stroke-linecap="round"></path><path d="M 364.250,224.326 C 367.774,224.855 368.087,225.258 371.441,224.326" stroke-width="6.156" stroke="black" fill="none" stroke-linecap="round"></path><path d="M 371.441,224.326 C 375.278,223.259 375.853,223.109 378.632,220.329" stroke-width="6.881" stroke="black" fill="none" stroke-linecap="round"></path><path d="M 378.632,220.329 C 381.046,217.913 380.712,217.282 381.828,213.934" stroke-width="7.260" stroke="black" fill="none" stroke-linecap="round"></path><path d="M 381.828,213.934 C 382.710,211.286 383.681,209.393 382.627,208.338" stroke-width="7.574" stroke="black" fill="none" stroke-linecap="round"></path><path d="M 382.627,208.338 C 381.684,207.394 380.111,208.864 377.833,209.936" stroke-width="8.119" stroke="black" fill="none" stroke-linecap="round"></path><path d="M 377.833,209.936 C 373.319,212.062 373.625,212.746 369.044,214.733" stroke-width="6.229" stroke="black" fill="none" stroke-linecap="round"></path><path d="M 369.044,214.733 C 361.640,217.943 361.500,217.663 353.863,220.329" stroke-width="5.001" stroke="black" fill="none" stroke-linecap="round"></path><path d="M 353.863,220.329 C 344.321,223.659 344.408,224.001 334.687,226.724" stroke-width="4.500" stroke="black" fill="none" stroke-linecap="round"></path><path d="M 334.687,226.724 C 324.433,229.596 324.309,229.165 313.913,231.520" stroke-width="4.500" stroke="black" fill="none" stroke-linecap="round"></path><path d="M 313.913,231.520 C 303.136,233.962 303.172,234.149 292.340,236.317" stroke-width="4.500" stroke="black" fill="none" stroke-linecap="round"></path><path d="M 292.340,236.317 C 283.197,238.146 283.179,238.117 273.963,239.514" stroke-width="4.500" stroke="black" fill="none" stroke-linecap="round"></path><path d="M 273.963,239.514 C 269.995,240.116 269.958,239.835 265.973,240.314" stroke-width="5.330" stroke="black" fill="none" stroke-linecap="round"></path><path d="M 265.973,240.314 C 259.971,241.034 259.982,241.130 253.988,241.913" stroke-width="5.280" stroke="black" fill="none" stroke-linecap="round"></path><path d="M 253.988,241.913 C 250.794,242.329 247.952,243.961 247.596,242.712" stroke-width="5.953" stroke="black" fill="none" stroke-linecap="round"></path><path d="M 247.596,242.712 C 247.153,241.163 249.597,239.110 252.390,236.317" stroke-width="7.385" stroke="black" fill="none" stroke-linecap="round"></path><path d="M 252.390,236.317 C 254.791,233.914 257.364,231.907 257.983,232.320" stroke-width="7.456" stroke="black" fill="none" stroke-linecap="round"></path><path d="M 257.983,232.320 C 258.562,232.707 256.816,235.479 254.787,237.916" stroke-width="8.075" stroke="black" fill="none" stroke-linecap="round"></path><path d="M 254.787,237.916 C 252.821,240.276 252.548,240.142 249.993,241.913" stroke-width="6.969" stroke="black" fill="none" stroke-linecap="round"></path><path d="M 249.993,241.913 C 247.355,243.740 247.234,243.583 244.400,245.110" stroke-width="6.653" stroke="black" fill="none" stroke-linecap="round"></path><path d="M 244.400,245.110 C 242.041,246.381 242.129,246.667 239.605,247.508" stroke-width="6.848" stroke="black" fill="none" stroke-linecap="round"></path><path d="M 239.605,247.508 C 236.137,248.665 234.870,250.224 232.415,249.107" stroke-width="7.197" stroke="black" fill="none" stroke-linecap="round"></path><path d="M 232.415,249.107 C 230.475,248.225 231.135,246.377 230.816,243.511" stroke-width="7.792" stroke="black" fill="none" stroke-linecap="round"></path><path d="M 230.816,243.511 C 230.336,239.182 231.036,239.103 230.816,234.718" stroke-width="7.332" stroke="black" fill="none" stroke-linecap="round"></path><path d="M 230.816,234.718 C 230.636,231.109 231.709,230.273 230.017,227.523" stroke-width="7.393" stroke="black" fill="none" stroke-linecap="round"></path><path d="M 230.017,227.523 C 228.513,225.077 227.511,224.696 224.425,224.326" stroke-width="7.813" stroke="black" fill="none" stroke-linecap="round"></path><path d="M 224.425,224.326 C 217.524,223.497 217.222,224.593 210.042,225.125" stroke-width="6.661" stroke="black" fill="none" stroke-linecap="round"></path><path d="M 210.042,225.125 C 206.436,225.392 206.441,225.476 202.851,225.924" stroke-width="6.414" stroke="black" fill="none" stroke-linecap="round"></path><path d="M 202.851,225.924 C 200.049,226.275 200.072,226.558 197.258,226.724" stroke-width="6.649" stroke="black" fill="none" stroke-linecap="round"></path><path d="M 197.258,226.724 C 193.280,226.958 193.263,226.724 189.268,226.724" stroke-width="7.083" stroke="black" fill="none" stroke-linecap="round"></path><path d="M 189.268,226.724 C 186.472,226.724 184.405,228.475 183.675,226.724" stroke-width="7.903" stroke="black" fill="none" stroke-linecap="round"></path><path d="M 183.675,226.724 C 182.407,223.679 184.321,221.896 185.273,217.131" stroke-width="8.023" stroke="black" fill="none" stroke-linecap="round"></path><path d="M 185.273,217.131 C 185.919,213.902 185.770,213.822 186.871,210.736" stroke-width="6.881" stroke="black" fill="none" stroke-linecap="round"></path><path d="M 186.871,210.736 C 187.767,208.226 188.135,208.369 189.268,205.939" stroke-width="6.854" stroke="black" fill="none" stroke-linecap="round"></path><path d="M 189.268,205.939 C 190.932,202.373 190.801,202.311 192.464,198.745" stroke-width="7.165" stroke="black" fill="none" stroke-linecap="round"></path><path d="M 192.464,198.745 C 193.597,196.316 192.789,195.281 194.861,193.948" stroke-width="7.581" stroke="black" fill="none" stroke-linecap="round"></path><path d="M 194.861,193.948 C 198.382,191.684 199.294,192.877 203.650,191.550" stroke-width="8.074" stroke="black" fill="none" stroke-linecap="round"></path><path d="M 203.650,191.550 C 208.483,190.079 208.541,190.204 213.238,188.353" stroke-width="6.095" stroke="black" fill="none" stroke-linecap="round"></path><path d="M 213.238,188.353 C 221.724,185.008 221.745,185.008 230.017,181.158" stroke-width="4.635" stroke="black" fill="none" stroke-linecap="round"></path><path d="M 230.017,181.158 C 238.924,177.014 239.036,177.168 247.596,172.365" stroke-width="4.500" stroke="black" fill="none" stroke-linecap="round"></path><path d="M 247.596,172.365 C 255.416,167.975 255.677,168.204 262.777,162.772" stroke-width="4.500" stroke="black" fill="none" stroke-linecap="round"></path><path d="M 262.777,162.772 C 269.260,157.811 269.081,157.474 274.762,151.580" stroke-width="4.500" stroke="black" fill="none" stroke-linecap="round"></path><path d="M 274.762,151.580 C 279.867,146.283 280.193,146.419 284.350,140.388" stroke-width="4.598" stroke="black" fill="none" stroke-linecap="round"></path><path d="M 284.350,140.388 C 288.183,134.828 287.971,134.581 290.742,128.397" stroke-width="4.873" stroke="black" fill="none" stroke-linecap="round"></path><path d="M 290.742,128.397 C 293.165,122.990 292.859,122.841 294.737,117.206" stroke-width="4.976" stroke="black" fill="none" stroke-linecap="round"></path><path d="M 294.737,117.206 C 296.455,112.049 296.504,112.054 297.933,106.813" stroke-width="5.325" stroke="black" fill="none" stroke-linecap="round"></path><path d="M 297.933,106.813 C 298.901,103.261 298.638,103.192 299.531,99.619" stroke-width="6.025" stroke="black" fill="none" stroke-linecap="round"></path><path d="M 299.531,99.619 C 300.236,96.797 301.302,93.676 301.129,94.023" stroke-width="7.078" stroke="black" fill="none" stroke-linecap="round"></path><path d="M 301.129,94.023 C 300.903,94.475 300.137,97.702 298.732,101.218" stroke-width="7.591" stroke="black" fill="none" stroke-linecap="round"></path><path d="M 298.732,101.218 C 296.941,105.696 296.528,105.531 294.737,110.011" stroke-width="6.288" stroke="black" fill="none" stroke-linecap="round"></path><path d="M 294.737,110.011 C 292.533,115.523 292.946,115.689 290.742,121.203" stroke-width="5.457" stroke="black" fill="none" stroke-linecap="round"></path><path d="M 290.742,121.203 C 288.152,127.680 287.897,127.577 285.149,133.993" stroke-width="5.086" stroke="black" fill="none" stroke-linecap="round"></path><path d="M 285.149,133.993 C 281.904,141.567 282.193,141.698 278.757,149.182" stroke-width="4.713" stroke="black" fill="none" stroke-linecap="round"></path><path d="M 278.757,149.182 C 275.402,156.487 275.302,156.450 271.566,163.571" stroke-width="4.651" stroke="black" fill="none" stroke-linecap="round"></path><path d="M 271.566,163.571 C 266.913,172.438 266.923,172.450 261.978,181.158" stroke-width="4.500" stroke="black" fill="none" stroke-linecap="round"></path><path d="M 261.978,181.158 C 256.935,190.037 256.613,189.855 251.591,198.745" stroke-width="4.500" stroke="black" fill="none" stroke-linecap="round"></path><path d="M 251.591,198.745 C 246.226,208.241 246.397,208.338 241.203,217.931" stroke-width="4.500" stroke="black" fill="none" stroke-linecap="round"></path><path d="M 241.203,217.931 C 236.010,227.523 235.771,227.401 230.816,237.116" stroke-width="4.500" stroke="black" fill="none" stroke-linecap="round"></path><path d="M 230.816,237.116 C 225.783,246.987 225.369,246.844 221.228,257.101" stroke-width="4.500" stroke="black" fill="none" stroke-linecap="round"></path><path d="M 221.228,257.101 C 216.979,267.629 217.186,267.765 214.037,278.685" stroke-width="4.500" stroke="black" fill="none" stroke-linecap="round"></path><path d="M 214.037,278.685 C 211.193,288.550 210.719,288.548 209.243,298.670" stroke-width="4.500" stroke="black" fill="none" stroke-linecap="round"></path><path d="M 209.243,298.670 C 207.922,307.734 208.444,307.864 208.444,317.057" stroke-width="4.500" stroke="black" fill="none" stroke-linecap="round"></path><path d="M 208.444,317.057 C 208.444,325.451 208.179,325.539 209.243,333.844" stroke-width="4.500" stroke="black" fill="none" stroke-linecap="round"></path><path d="M 209.243,333.844 C 210.177,341.128 210.528,341.132 212.439,348.233" stroke-width="4.696" stroke="black" fill="none" stroke-linecap="round"></path><path d="M 212.439,348.233 C 213.325,351.524 213.125,351.718 214.836,354.629" stroke-width="5.784" stroke="black" fill="none" stroke-linecap="round"></path><path d="M 214.836,354.629 C 217.120,358.513 217.237,358.629 220.429,361.823" stroke-width="5.836" stroke="black" fill="none" stroke-linecap="round"></path><path d="M 220.429,361.823 C 223.229,364.624 223.318,364.867 226.822,366.620" stroke-width="6.033" stroke="black" fill="none" stroke-linecap="round"></path><path d="M 226.822,366.620 C 229.710,368.065 229.981,368.016 233.214,368.218" stroke-width="6.411" stroke="black" fill="none" stroke-linecap="round"></path><path d="M 233.214,368.218 C 236.373,368.416 237.333,369.124 239.605,367.419" stroke-width="6.415" stroke="black" fill="none" stroke-linecap="round"></path><path d="M 239.605,367.419 C 242.127,365.527 241.905,364.387 242.802,361.024" stroke-width="7.097" stroke="black" fill="none" stroke-linecap="round"></path><path d="M 242.802,361.024 C 243.503,358.391 243.376,358.108 242.802,355.428" stroke-width="6.866" stroke="black" fill="none" stroke-linecap="round"></path><path d="M 242.802,355.428 C 242.177,352.512 241.841,352.501 240.405,349.832" stroke-width="6.697" stroke="black" fill="none" stroke-linecap="round"></path><path d="M 240.405,349.832 C 239.044,347.305 239.403,346.682 237.208,345.036" stroke-width="6.714" stroke="black" fill="none" stroke-linecap="round"></path><path d="M 237.208,345.036 C 234.609,343.085 234.157,343.039 230.816,342.637" stroke-width="6.506" stroke="black" fill="none" stroke-linecap="round"></path><path d="M 230.816,342.637 C 224.170,341.839 224.025,342.637 217.233,342.637" stroke-width="5.375" stroke="black" fill="none" stroke-linecap="round"></path><path d="M 217.233,342.637 C 212.839,342.637 212.603,341.330 208.444,342.637" stroke-width="5.754" stroke="black" fill="none" stroke-linecap="round"></path><path d="M 208.444,342.637 C 184.638,350.123 184.836,351.330 161.303,360.224" stroke-width="4.500" stroke="black" fill="none" stroke-linecap="round"></path><path d="M 161.303,360.224 C 148.880,364.920 148.862,364.884 136.534,369.817" stroke-width="4.500" stroke="black" fill="none" stroke-linecap="round"></path><path d="M 136.534,369.817 C 132.882,371.279 128.317,374.042 129.343,373.015" stroke-width="4.902" stroke="black" fill="none" stroke-linecap="round"></path><path d="M 129.343,373.015 C 131.513,370.844 136.459,368.630 142.926,363.422" stroke-width="6.066" stroke="black" fill="none" stroke-linecap="round"></path><path d="M 142.926,363.422 C 152.838,355.440 153.006,355.529 162.102,346.634" stroke-width="4.500" stroke="black" fill="none" stroke-linecap="round"></path><path d="M 162.102,346.634 C 170.584,338.342 171.061,338.551 178.082,329.048" stroke-width="4.500" stroke="black" fill="none" stroke-linecap="round"></path><path d="M 178.082,329.048 C 184.644,320.165 184.962,319.986 189.268,309.862" stroke-width="4.500" stroke="black" fill="none" stroke-linecap="round"></path><path d="M 189.268,309.862 C 192.952,301.200 193.216,300.793 194.062,291.476" stroke-width="4.500" stroke="black" fill="none" stroke-linecap="round"></path><path d="M 194.062,291.476 C 194.814,283.206 195.008,282.322 192.464,274.688" stroke-width="4.500" stroke="black" fill="none" stroke-linecap="round"></path><path d="M 192.464,274.688 C 191.013,270.331 189.870,270.376 186.072,267.494" stroke-width="5.252" stroke="black" fill="none" stroke-linecap="round"></path><path d="M 186.072,267.494 C 178.284,261.582 178.341,260.757 169.293,257.101" stroke-width="4.500" stroke="black" fill="none" stroke-linecap="round"></path><path d="M 169.293,257.101 C 157.567,252.363 157.118,252.424 144.524,250.706" stroke-width="4.500" stroke="black" fill="none" stroke-linecap="round"></path><path d="M 144.524,250.706 C 130.751,248.827 130.531,249.695 116.559,249.907" stroke-width="4.500" stroke="black" fill="none" stroke-linecap="round"></path><path d="M 116.559,249.907 C 104.164,250.095 104.037,249.824 91.790,251.505" stroke-width="4.500" stroke="black" fill="none" stroke-linecap="round"></path><path d="M 91.790,251.505 C 83.663,252.622 83.342,252.542 75.810,255.502" stroke-width="4.500" stroke="black" fill="none" stroke-linecap="round"></path><path d="M 75.810,255.502 C 72.156,256.939 69.418,258.189 69.418,260.299" stroke-width="5.387" stroke="black" fill="none" stroke-linecap="round"></path><path d="M 69.418,260.299 C 69.418,262.186 72.365,262.758 75.810,263.496" stroke-width="6.018" stroke="black" fill="none" stroke-linecap="round"></path><path d="M 75.810,263.496 C 83.551,265.156 83.771,264.884 91.790,265.095" stroke-width="4.973" stroke="black" fill="none" stroke-linecap="round"></path><path d="M 91.790,265.095 C 114.133,265.684 114.167,265.442 136.534,265.095" stroke-width="4.500" stroke="black" fill="none" stroke-linecap="round"></path><path d="M 136.534,265.095 C 165.703,264.643 165.780,265.489 194.861,263.496" stroke-width="4.500" stroke="black" fill="none" stroke-linecap="round"></path><path d="M 194.861,263.496 C 224.107,261.492 224.185,261.369 253.189,257.101" stroke-width="4.500" stroke="black" fill="none" stroke-linecap="round"></path><path d="M 253.189,257.101 C 278.517,253.375 278.516,253.022 303.526,247.508" stroke-width="4.500" stroke="black" fill="none" stroke-linecap="round"></path><path d="M 303.526,247.508 C 325.658,242.629 325.848,243.023 347.471,236.317" stroke-width="4.500" stroke="black" fill="none" stroke-linecap="round"></path><path d="M 347.471,236.317 C 365.798,230.632 365.538,229.750 383.426,222.727" stroke-width="4.500" stroke="black" fill="none" stroke-linecap="round"></path><path d="M 383.426,222.727 C 397.099,217.359 397.067,217.269 410.592,211.535" stroke-width="4.500" stroke="black" fill="none" stroke-linecap="round"></path><path d="M 410.592,211.535 C 420.638,207.276 420.722,207.432 430.567,202.742" stroke-width="4.500" stroke="black" fill="none" stroke-linecap="round"></path><path d="M 430.567,202.742 C 437.501,199.438 437.033,197.836 444.150,195.547" stroke-width="4.500" stroke="black" fill="none" stroke-linecap="round"></path><path d="M 444.150,195.547 C 448.219,194.239 453.088,193.457 452.939,195.547" stroke-width="5.331" stroke="black" fill="none" stroke-linecap="round"></path><path d="M 452.939,195.547 C 452.689,199.053 449.048,202.179 443.351,206.739" stroke-width="6.406" stroke="black" fill="none" stroke-linecap="round"></path><path d="M 443.351,206.739 C 433.068,214.969 432.493,214.496 420.979,221.128" stroke-width="4.500" stroke="black" fill="none" stroke-linecap="round"></path><path d="M 420.979,221.128 C 406.126,229.684 405.921,229.366 390.617,237.116" stroke-width="4.500" stroke="black" fill="none" stroke-linecap="round"></path><path d="M 390.617,237.116 C 373.562,245.753 373.604,245.866 356.260,253.904" stroke-width="4.500" stroke="black" fill="none" stroke-linecap="round"></path><path d="M 356.260,253.904 C 335.652,263.453 335.874,264.100 314.712,272.290" stroke-width="4.500" stroke="black" fill="none" stroke-linecap="round"></path><path d="M 314.712,272.290 C 293.527,280.488 293.337,280.144 271.566,286.679" stroke-width="4.500" stroke="black" fill="none" stroke-linecap="round"></path><path d="M 271.566,286.679 C 249.392,293.335 249.309,293.148 226.822,298.670" stroke-width="4.500" stroke="black" fill="none" stroke-linecap="round"></path><path d="M 226.822,298.670 C 205.364,303.940 205.293,303.675 183.675,308.263" stroke-width="4.500" stroke="black" fill="none" stroke-linecap="round"></path><path d="M 183.675,308.263 C 165.742,312.069 165.733,312.048 147.720,315.458" stroke-width="4.500" stroke="black" fill="none" stroke-linecap="round"></path><path d="M 147.720,315.458 C 136.170,317.644 136.138,317.475 124.549,319.455" stroke-width="4.500" stroke="black" fill="none" stroke-linecap="round"></path><path d="M 124.549,319.455 C 119.759,320.273 112.139,322.122 114.961,321.054" stroke-width="4.724" stroke="black" fill="none" stroke-linecap="round"></path><path d="M 114.961,321.054 C 126.920,316.526 134.191,313.366 154.112,308.263" stroke-width="4.900" stroke="black" fill="none" stroke-linecap="round"></path><path d="M 154.112,308.263 C 184.128,300.575 184.459,301.796 214.836,295.473" stroke-width="4.500" stroke="black" fill="none" stroke-linecap="round"></path><path d="M 214.836,295.473 C 243.985,289.405 244.193,290.289 273.164,283.482" stroke-width="4.500" stroke="black" fill="none" stroke-linecap="round"></path><path d="M 273.164,283.482 C 296.927,277.898 297.524,279.157 320.305,270.691" stroke-width="4.500" stroke="black" fill="none" stroke-linecap="round"></path><path d="M 320.305,270.691 C 339.471,263.568 339.373,262.663 357.059,252.305" stroke-width="4.500" stroke="black" fill="none" stroke-linecap="round"></path><path d="M 357.059,252.305 C 372.132,243.477 372.354,243.404 385.823,232.320" stroke-width="4.500" stroke="black" fill="none" stroke-linecap="round"></path><path d="M 385.823,232.320 C 397.123,223.020 396.870,222.510 406.597,211.535" stroke-width="4.500" stroke="black" fill="none" stroke-linecap="round"></path><path d="M 406.597,211.535 C 415.646,201.326 415.317,200.984 423.376,189.951" stroke-width="4.500" stroke="black" fill="none" stroke-linecap="round"></path><path d="M 423.376,189.951 C 430.498,180.200 430.660,180.259 436.959,169.966" stroke-width="4.500" stroke="black" fill="none" stroke-linecap="round"></path><path d="M 436.959,169.966 C 442.645,160.673 443.895,160.909 447.346,150.781" stroke-width="4.500" stroke="black" fill="none" stroke-linecap="round"></path><path d="M 447.346,150.781 C 449.887,143.322 449.550,142.371 448.944,134.793" stroke-width="4.500" stroke="black" fill="none" stroke-linecap="round"></path><path d="M 448.944,134.793 C 448.751,132.379 447.874,132.163 445.748,130.796" stroke-width="5.925" stroke="black" fill="none" stroke-linecap="round"></path><path d="M 445.748,130.796 C 436.688,124.968 436.779,124.008 426.572,120.403" stroke-width="4.500" stroke="black" fill="none" stroke-linecap="round"></path><path d="M 426.572,120.403 C 409.613,114.415 409.264,114.133 391.416,111.610" stroke-width="4.500" stroke="black" fill="none" stroke-linecap="round"></path><path d="M 391.416,111.610 C 372.510,108.937 372.103,108.782 353.064,110.011" stroke-width="4.500" stroke="black" fill="none" stroke-linecap="round"></path><path d="M 353.064,110.011 C 334.950,111.180 335.103,113.312 317.109,116.406" stroke-width="4.500" stroke="black" fill="none" stroke-linecap="round"></path><path d="M 317.109,116.406 C 309.535,117.709 307.964,114.555 301.928,118.804" stroke-width="4.500" stroke="black" fill="none" stroke-linecap="round"></path><path d="M 301.928,118.804 C 286.391,129.743 283.515,130.686 273.963,146.784" stroke-width="4.500" stroke="black" fill="none" stroke-linecap="round"></path><path d="M 273.963,146.784 C 268.334,156.267 269.022,159.364 271.566,169.966" stroke-width="4.500" stroke="black" fill="none" stroke-linecap="round"></path><path d="M 271.566,169.966 C 273.816,179.349 275.618,180.455 283.551,186.754" stroke-width="4.500" stroke="black" fill="none" stroke-linecap="round"></path><path d="M 283.551,186.754 C 300.786,200.440 302.056,199.627 321.903,209.936" stroke-width="4.500" stroke="black" fill="none" stroke-linecap="round"></path><path d="M 321.903,209.936 C 343.604,221.210 343.783,221.237 366.647,229.922" stroke-width="4.500" stroke="black" fill="none" stroke-linecap="round"></path><path d="M 366.647,229.922 C 386.929,237.625 387.421,236.317 408.195,242.712" stroke-width="4.500" stroke="black" fill="none" stroke-linecap="round"></path><circle r="3" cx="365.84771728515625" cy="164.37045288085938" fill="black"></circle><path d="M 528.045,236.317 C 527.246,240.314 527.330,240.333 526.447,244.311" stroke-width="8.194" stroke="black" fill="none" stroke-linecap="round"></path><path d="M 526.447,244.311 C 525.733,247.527 525.301,247.447 524.849,250.706" stroke-width="6.918" stroke="black" fill="none" stroke-linecap="round"></path><path d="M 524.849,250.706 C 523.304,261.836 523.084,261.861 522.452,273.089" stroke-width="4.500" stroke="black" fill="none" stroke-linecap="round"></path><path d="M 522.452,273.089 C 521.486,290.240 521.513,290.277 521.653,307.464" stroke-width="4.500" stroke="black" fill="none" stroke-linecap="round"></path><path d="M 521.653,307.464 C 521.913,339.440 522.290,339.445 523.251,371.416" stroke-width="4.500" stroke="black" fill="none" stroke-linecap="round"></path></svg>