<svg xmlns="http://www.w3.org/2000/svg" xmlns:xlink="http://www.w3.org/1999/xlink" viewBox="0 0 576 416" width="576" height="416"><path d="M 434.562,141.188 C 434.562,145.584 434.562,145.584 434.562,149.981" stroke-width="8.629" stroke="black" fill="none" stroke-linecap="round"></path><path d="M 434.562,149.981 C 434.562,153.579 434.331,153.589 434.562,157.176" stroke-width="6.875" stroke="black" fill="none" stroke-linecap="round"></path><path d="M 434.562,157.176 C 435.130,165.980 435.336,165.972 436.160,174.763" stroke-width="6.180" stroke="black" fill="none" stroke-linecap="round"></path><path d="M 436.160,174.763 C 436.535,178.762 436.768,178.749 436.959,182.757" stroke-width="6.132" stroke="black" fill="none" stroke-linecap="round"></path><path d="M 436.959,182.757 C 437.168,187.143 436.959,187.153 436.959,191.550" stroke-width="5.990" stroke="black" fill="none" stroke-linecap="round"></path><path d="M 436.959,191.550 C 436.959,195.547 437.863,195.743 436.959,199.544" stroke-width="6.082" stroke="black" fill="none" stroke-linecap="round"></path><path d="M 436.959,199.544 C 435.866,204.137 435.534,204.297 432.964,208.338" stroke-width="5.838" stroke="black" fill="none" stroke-linecap="round"></path><path d="M 432.964,208.338 C 429.941,213.090 429.853,213.234 425.773,217.131" stroke-width="5.610" stroke="black" fill="none" stroke-linecap="round"></path><path d="M 425.773,217.131 C 421.064,221.628 420.979,221.809 415.386,225.125" stroke-width="5.230" stroke="black" fill="none" stroke-linecap="round"></path><path d="M 415.386,225.125 C 410.192,228.204 409.932,227.936 404.200,229.922" stroke-width="5.240" stroke="black" fill="none" stroke-linecap="round"></path><path d="M 404.200,229.922 C 399.545,231.534 399.461,231.438 394.612,232.320" stroke-width="5.462" stroke="black" fill="none" stroke-linecap="round"></path><path d="M 394.612,232.320 C 390.672,233.036 390.625,232.884 386.622,233.119" stroke-width="5.902" stroke="black" fill="none" stroke-linecap="round"></path><path d="M 386.622,233.119 C 383.833,233.283 382.427,234.518 381.029,233.119" stroke-width="6.485" stroke="black" fill="none" stroke-linecap="round"></path><path d="M 381.029,233.119 C 379.630,231.720 379.774,229.676 381.029,227.523" stroke-width="7.742" stroke="black" fill="none" stroke-linecap="round"></path><path d="M 381.029,227.523 C 382.570,224.879 387.912,223.397 386.622,223.526" stroke-width="7.587" stroke="black" fill="none" stroke-linecap="round"></path><path d="M 386.622,223.526 C 383.917,223.797 379.890,226.112 373.039,228.323" stroke-width="7.654" stroke="black" fill="none" stroke-linecap="round"></path><path d="M 373.039,228.323 C 367.505,230.109 367.493,230.110 361.853,231.520" stroke-width="5.979" stroke="black" fill="none" stroke-linecap="round"></path><path d="M 361.853,231.520 C 356.307,232.908 356.300,232.979 350.667,233.919" stroke-width="5.547" stroke="black" fill="none" stroke-linecap="round"></path><path d="M 350.667,233.919 C 346.712,234.578 346.681,234.495 342.677,234.718" stroke-width="5.931" stroke="black" fill="none" stroke-linecap="round"></path><path d="M 342.677,234.718 C 339.490,234.895 339.172,235.681 336.285,234.718" stroke-width="6.345" stroke="black" fill="none" stroke-linecap="round"></path><path d="M 336.285,234.718 C 333.179,233.682 330.053,233.596 330.692,230.721" stroke-width="7.103" stroke="black" fill="none" stroke-linecap="round"></path><path d="M 330.692,230.721 C 333.249,219.207 336.525,218.250 342.677,205.939" stroke-width="6.173" stroke="black" fill="none" stroke-linecap="round"></path><path d="M 342.677,205.939 C 346.512,198.265 347.126,198.544 350.667,190.751" stroke-width="4.766" stroke="black" fill="none" stroke-linecap="round"></path><path d="M 350.667,190.751 C 353.118,185.354 352.711,185.171 354.662,179.559" stroke-width="5.126" stroke="black" fill="none" stroke-linecap="round"></path><path d="M 354.662,179.559 C 355.907,175.978 356.142,176.034 357.059,172.365" stroke-width="5.848" stroke="black" fill="none" stroke-linecap="round"></path><path d="M 357.059,172.365 C 358.139,168.040 357.923,167.978 358.657,163.571" stroke-width="6.714" stroke="black" fill="none" stroke-linecap="round"></path><path d="M 358.657,163.571 C 359.121,160.784 359.456,157.132 359.456,157.975" stroke-width="7.619" stroke="black" fill="none" stroke-linecap="round"></path><path d="M 359.456,157.975 C 359.456,159.530 359.359,163.216 358.657,168.367" stroke-width="8.067" stroke="black" fill="none" stroke-linecap="round"></path><path d="M 358.657,168.367 C 358.160,172.010 357.995,172.001 357.059,175.562" stroke-width="6.726" stroke="black" fill="none" stroke-linecap="round"></path><path d="M 357.059,175.562 C 355.998,179.595 356.360,179.780 354.662,183.556" stroke-width="6.228" stroke="black" fill="none" stroke-linecap="round"></path><path d="M 354.662,183.556 C 352.765,187.774 352.620,187.814 349.868,191.550" stroke-width="6.016" stroke="black" fill="none" stroke-linecap="round"></path><path d="M 349.868,191.550 C 347.027,195.408 346.872,195.347 343.476,198.745" stroke-width="5.825" stroke="black" fill="none" stroke-linecap="round"></path><path d="M 343.476,198.745 C 340.080,202.142 340.054,202.163 336.285,205.140" stroke-width="5.680" stroke="black" fill="none" stroke-linecap="round"></path><path d="M 336.285,205.140 C 332.464,208.158 332.138,207.745 328.295,210.736" stroke-width="5.707" stroke="black" fill="none" stroke-linecap="round"></path><path d="M 328.295,210.736 C 324.947,213.341 324.899,213.334 321.903,216.332" stroke-width="5.910" stroke="black" fill="none" stroke-linecap="round"></path><path d="M 321.903,216.332 C 318.906,219.330 318.959,219.413 316.310,222.727" stroke-width="6.051" stroke="black" fill="none" stroke-linecap="round"></path><path d="M 316.310,222.727 C 314.165,225.409 314.171,225.434 312.315,228.323" stroke-width="6.297" stroke="black" fill="none" stroke-linecap="round"></path><path d="M 312.315,228.323 C 310.575,231.030 311.014,231.332 309.119,233.919" stroke-width="6.456" stroke="black" fill="none" stroke-linecap="round"></path><path d="M 309.119,233.919 C 306.620,237.328 306.846,238.890 303.526,240.314" stroke-width="6.931" stroke="black" fill="none" stroke-linecap="round"></path><path d="M 303.526,240.314 C 301.253,241.289 299.904,240.508 297.933,238.715" stroke-width="7.707" stroke="black" fill="none" stroke-linecap="round"></path><path d="M 297.933,238.715 C 295.510,236.511 296.143,235.602 294.737,232.320" stroke-width="6.693" stroke="black" fill="none" stroke-linecap="round"></path><path d="M 294.737,232.320 C 292.547,227.208 292.500,227.205 290.742,221.928" stroke-width="5.659" stroke="black" fill="none" stroke-linecap="round"></path><path d="M 290.742,221.928 C 288.505,215.214 288.800,215.116 286.747,208.338" stroke-width="5.112" stroke="black" fill="none" stroke-linecap="round"></path><path d="M 286.747,208.338 C 284.805,201.926 284.869,201.903 282.752,195.547" stroke-width="5.057" stroke="black" fill="none" stroke-linecap="round"></path><path d="M 282.752,195.547 C 280.474,188.712 280.738,188.590 277.958,181.957" stroke-width="4.925" stroke="black" fill="none" stroke-linecap="round"></path><path d="M 277.958,181.957 C 275.544,176.199 275.483,176.174 272.365,170.766" stroke-width="5.188" stroke="black" fill="none" stroke-linecap="round"></path><path d="M 272.365,170.766 C 269.491,165.782 269.358,165.831 265.973,161.173" stroke-width="5.309" stroke="black" fill="none" stroke-linecap="round"></path><path d="M 265.973,161.173 C 262.966,157.037 263.073,156.892 259.581,153.179" stroke-width="5.434" stroke="black" fill="none" stroke-linecap="round"></path><path d="M 259.581,153.179 C 256.681,150.097 256.180,150.576 253.189,147.583" stroke-width="5.893" stroke="black" fill="none" stroke-linecap="round"></path><path d="M 253.189,147.583 C 251.386,145.780 250.942,145.865 249.993,143.586" stroke-width="6.512" stroke="black" fill="none" stroke-linecap="round"></path><path d="M 249.993,143.586 C 248.944,141.069 247.356,139.522 249.194,137.990" stroke-width="7.331" stroke="black" fill="none" stroke-linecap="round"></path><path d="M 249.194,137.990 C 254.547,133.526 256.649,134.434 264.375,131.595" stroke-width="6.348" stroke="black" fill="none" stroke-linecap="round"></path><path d="M 264.375,131.595 C 276.225,127.240 276.294,127.390 288.345,123.601" stroke-width="4.500" stroke="black" fill="none" stroke-linecap="round"></path><path d="M 288.345,123.601 C 304.259,118.597 304.166,118.194 320.305,114.008" stroke-width="4.500" stroke="black" fill="none" stroke-linecap="round"></path><path d="M 320.305,114.008 C 336.526,109.800 336.638,110.185 353.064,106.813" stroke-width="4.500" stroke="black" fill="none" stroke-linecap="round"></path><path d="M 353.064,106.813 C 367.799,103.789 367.813,103.833 382.627,101.218" stroke-width="4.500" stroke="black" fill="none" stroke-linecap="round"></path><path d="M 382.627,101.218 C 394.979,99.037 394.966,98.863 407.396,97.221" stroke-width="4.500" stroke="black" fill="none" stroke-linecap="round"></path><path d="M 407.396,97.221 C 416.140,96.065 416.170,96.098 424.974,95.622" stroke-width="4.500" stroke="black" fill="none" stroke-linecap="round"></path><path d="M 424.974,95.622 C 430.952,95.298 430.978,95.382 436.959,95.622" stroke-width="4.856" stroke="black" fill="none" stroke-linecap="round"></path><path d="M 436.959,95.622 C 440.966,95.782 441.026,95.685 444.949,96.421" stroke-width="5.672" stroke="black" fill="none" stroke-linecap="round"></path><path d="M 444.949,96.421 C 447.418,96.884 449.358,96.092 449.743,98.020" stroke-width="6.503" stroke="black" fill="none" stroke-linecap="round"></path><path d="M 449.743,98.020 C 450.556,102.088 450.881,104.876 447.346,108.412" stroke-width="7.134" stroke="black" fill="none" stroke-linecap="round"></path><path d="M 447.346,108.412 C 438.896,116.867 437.164,116.386 425.773,122.002" stroke-width="4.500" stroke="black" fill="none" stroke-linecap="round"></path><path d="M 425.773,122.002 C 409.598,129.976 409.359,129.874 392.215,135.592" stroke-width="4.500" stroke="black" fill="none" stroke-linecap="round"></path><path d="M 392.215,135.592 C 372.205,142.265 372.053,142.120 351.466,146.784" stroke-width="4.500" stroke="black" fill="none" stroke-linecap="round"></path><path d="M 351.466,146.784 C 329.706,151.713 329.425,150.436 307.521,154.778" stroke-width="4.500" stroke="black" fill="none" stroke-linecap="round"></path><path d="M 307.521,154.778 C 287.078,158.830 287.037,158.723 266.772,163.571" stroke-width="4.500" stroke="black" fill="none" stroke-linecap="round"></path><path d="M 266.772,163.571 C 250.283,167.516 250.088,167.083 234.013,172.365" stroke-width="4.500" stroke="black" fill="none" stroke-linecap="round"></path><path d="M 234.013,172.365 C 223.321,175.877 223.011,175.754 213.238,181.158" stroke-width="4.500" stroke="black" fill="none" stroke-linecap="round"></path><path d="M 213.238,181.158 C 207.830,184.148 207.311,184.444 203.650,189.152" stroke-width="4.500" stroke="black" fill="none" stroke-linecap="round"></path><path d="M 203.650,189.152 C 201.718,191.638 199.777,193.921 202.052,195.547" stroke-width="5.708" stroke="black" fill="none" stroke-linecap="round"></path><path d="M 202.052,195.547 C 210.963,201.915 213.490,202.789 226.022,205.140" stroke-width="5.327" stroke="black" fill="none" stroke-linecap="round"></path><path d="M 226.022,205.140 C 245.450,208.785 245.999,207.538 265.973,207.538" stroke-width="4.500" stroke="black" fill="none" stroke-linecap="round"></path><path d="M 265.973,207.538 C 285.150,207.538 285.172,206.630 304.325,205.140" stroke-width="4.500" stroke="black" fill="none" stroke-linecap="round"></path><path d="M 304.325,205.140 C 321.127,203.833 321.075,203.094 337.883,201.942" stroke-width="4.500" stroke="black" fill="none" stroke-linecap="round"></path><path d="M 337.883,201.942 C 350.239,201.096 350.270,201.610 362.652,201.143" stroke-width="4.500" stroke="black" fill="none" stroke-linecap="round"></path><path d="M 362.652,201.143 C 371.443,200.811 371.437,200.558 380.230,200.344" stroke-width="4.500" stroke="black" fill="none" stroke-linecap="round"></path><path d="M 380.230,200.344 C 387.816,200.158 387.820,200.344 395.411,200.344" stroke-width="4.525" stroke="black" fill="none" stroke-linecap="round"></path><path d="M 395.411,200.344 C 402.202,200.344 402.222,200.061 408.994,200.344" stroke-width="4.759" stroke="black" fill="none" stroke-linecap="round"></path><path d="M 408.994,200.344 C 411.810,200.461 411.844,200.485 414.587,201.143" stroke-width="6.052" stroke="black" fill="none" stroke-linecap="round"></path><path d="M 414.587,201.143 C 421.832,202.883 421.816,203.012 428.969,205.140" stroke-width="5.111" stroke="black" fill="none" stroke-linecap="round"></path><path d="M 428.969,205.140 C 436.598,207.409 436.649,207.288 444.150,209.936" stroke-width="4.778" stroke="black" fill="none" stroke-linecap="round"></path><path d="M 444.150,209.936 C 450.232,212.084 450.460,211.770 456.135,214.733" stroke-width="5.009" stroke="black" fill="none" stroke-linecap="round"></path><path d="M 456.135,214.733 C 459.648,216.567 460.979,216.432 462.527,219.529" stroke-width="5.740" stroke="black" fill="none" stroke-linecap="round"></path><path d="M 462.527,219.529 C 463.775,222.027 464.218,224.501 461.728,225.924" stroke-width="6.885" stroke="black" fill="none" stroke-linecap="round"></path><path d="M 461.728,225.924 C 453.032,230.896 451.215,230.475 440.155,232.320" stroke-width="4.575" stroke="black" fill="none" stroke-linecap="round"></path><path d="M 440.155,232.320 C 415.260,236.471 415.062,236.124 389.818,237.916" stroke-width="4.500" stroke="black" fill="none" stroke-linecap="round"></path><path d="M 389.818,237.916 C 358.732,240.121 358.664,239.333 327.496,240.314" stroke-width="4.500" stroke="black" fill="none" stroke-linecap="round"></path><path d="M 327.496,240.314 C 295.143,241.332 295.140,241.298 262.777,241.913" stroke-width="4.500" stroke="black" fill="none" stroke-linecap="round"></path><path d="M 262.777,241.913 C 232.018,242.497 232.002,241.852 201.253,242.712" stroke-width="4.500" stroke="black" fill="none" stroke-linecap="round"></path><path d="M 201.253,242.712 C 174.873,243.450 174.852,243.397 148.519,245.110" stroke-width="4.500" stroke="black" fill="none" stroke-linecap="round"></path><path d="M 148.519,245.110 C 125.714,246.594 125.670,246.462 102.976,249.107" stroke-width="4.500" stroke="black" fill="none" stroke-linecap="round"></path><path d="M 102.976,249.107 C 84.522,251.258 84.378,250.891 66.222,254.703" stroke-width="4.500" stroke="black" fill="none" stroke-linecap="round"></path><path d="M 66.222,254.703 C 52.018,257.686 52.062,258.169 38.257,262.697" stroke-width="4.500" stroke="black" fill="none" stroke-linecap="round"></path><path d="M 38.257,262.697 C 27.692,266.163 27.688,266.282 17.483,270.691" stroke-width="4.500" stroke="black" fill="none" stroke-linecap="round"></path><path d="M 17.483,270.691 C 10.110,273.876 10.232,274.176 3.101,277.886" stroke-width="4.500" stroke="black" fill="none" stroke-linecap="round"></path></svg>