<svg xmlns="http://www.w3.org/2000/svg" xmlns:xlink="http://www.w3.org/1999/xlink" viewBox="0 0 576 416" width="576" height="416"><path d="M 453.738,215.532 C 445.348,216.731 444.883,215.359 436.959,217.931" stroke-width="8.287" stroke="black" fill="none" stroke-linecap="round"></path><path d="M 436.959,217.931 C 430.101,220.156 430.479,221.380 424.175,225.125" stroke-width="5.522" stroke="black" fill="none" stroke-linecap="round"></path><path d="M 424.175,225.125 C 417.695,228.974 417.280,228.490 411.391,233.119" stroke-width="4.973" stroke="black" fill="none" stroke-linecap="round"></path><path d="M 411.391,233.119 C 406.094,237.283 406.379,237.717 401.803,242.712" stroke-width="5.084" stroke="black" fill="none" stroke-linecap="round"></path><path d="M 401.803,242.712 C 397.590,247.310 397.514,247.294 393.813,252.305" stroke-width="5.064" stroke="black" fill="none" stroke-linecap="round"></path><path d="M 393.813,252.305 C 390.723,256.487 390.802,256.577 388.220,261.098" stroke-width="5.414" stroke="black" fill="none" stroke-linecap="round"></path><path d="M 388.220,261.098 C 384.410,267.769 385.080,268.203 381.029,274.688" stroke-width="5.975" stroke="black" fill="none" stroke-linecap="round"></path><path d="M 381.029,274.688 C 379.087,277.796 379.010,279.358 376.235,280.284" stroke-width="6.927" stroke="black" fill="none" stroke-linecap="round"></path><path d="M 376.235,280.284 C 374.216,280.957 373.775,279.199 371.441,277.886" stroke-width="7.478" stroke="black" fill="none" stroke-linecap="round"></path><path d="M 371.441,277.886 C 367.383,275.602 367.259,275.756 363.451,273.089" stroke-width="6.229" stroke="black" fill="none" stroke-linecap="round"></path><path d="M 363.451,273.089 C 359.269,270.161 359.058,270.293 355.461,266.694" stroke-width="5.788" stroke="black" fill="none" stroke-linecap="round"></path><path d="M 355.461,266.694 C 351.468,262.699 352.022,262.156 348.270,257.901" stroke-width="5.507" stroke="black" fill="none" stroke-linecap="round"></path><path d="M 348.270,257.901 C 346.030,255.361 345.873,255.502 343.476,253.104" stroke-width="6.125" stroke="black" fill="none" stroke-linecap="round"></path><path d="M 325.898,153.978 C 325.498,158.375 324.200,158.727 325.099,162.772" stroke-width="8.725" stroke="black" fill="none" stroke-linecap="round"></path><path d="M 325.099,162.772 C 325.798,165.921 326.616,166.054 329.094,168.367" stroke-width="6.869" stroke="black" fill="none" stroke-linecap="round"></path><path d="M 329.094,168.367 C 332.609,171.650 332.660,172.232 337.084,173.963" stroke-width="6.021" stroke="black" fill="none" stroke-linecap="round"></path><path d="M 337.084,173.963 C 341.849,175.829 342.246,175.175 347.471,175.562" stroke-width="5.692" stroke="black" fill="none" stroke-linecap="round"></path><path d="M 347.471,175.562 C 353.032,175.974 353.092,175.960 358.657,175.562" stroke-width="5.505" stroke="black" fill="none" stroke-linecap="round"></path><path d="M 358.657,175.562 C 364.278,175.160 364.390,175.262 369.843,173.963" stroke-width="5.436" stroke="black" fill="none" stroke-linecap="round"></path><path d="M 369.843,173.963 C 372.779,173.264 372.748,172.980 375.436,171.565" stroke-width="6.152" stroke="black" fill="none" stroke-linecap="round"></path><path d="M 375.436,171.565 C 380.339,168.983 380.345,168.948 385.024,165.969" stroke-width="5.540" stroke="black" fill="none" stroke-linecap="round"></path><path d="M 385.024,165.969 C 389.134,163.352 389.282,163.485 393.014,160.373" stroke-width="5.664" stroke="black" fill="none" stroke-linecap="round"></path><path d="M 393.014,160.373 C 396.473,157.489 396.344,157.296 399.406,153.978" stroke-width="5.810" stroke="black" fill="none" stroke-linecap="round"></path><path d="M 399.406,153.978 C 401.138,152.100 403.101,148.783 402.602,149.981" stroke-width="6.481" stroke="black" fill="none" stroke-linecap="round"></path><path d="M 402.602,149.981 C 401.103,153.580 399.491,157.077 395.411,163.571" stroke-width="7.265" stroke="black" fill="none" stroke-linecap="round"></path><path d="M 395.411,163.571 C 390.702,171.067 390.404,170.907 385.024,177.960" stroke-width="4.870" stroke="black" fill="none" stroke-linecap="round"></path><path d="M 385.024,177.960 C 378.818,186.096 378.789,186.085 372.240,193.948" stroke-width="4.500" stroke="black" fill="none" stroke-linecap="round"></path><path d="M 372.240,193.948 C 364.807,202.873 364.948,203.019 357.059,211.535" stroke-width="4.500" stroke="black" fill="none" stroke-linecap="round"></path><path d="M 357.059,211.535 C 349.767,219.407 349.571,219.235 341.878,226.724" stroke-width="4.500" stroke="black" fill="none" stroke-linecap="round"></path><path d="M 341.878,226.724 C 334.789,233.624 334.920,233.787 327.496,240.314" stroke-width="4.500" stroke="black" fill="none" stroke-linecap="round"></path><path d="M 327.496,240.314 C 321.736,245.378 321.592,245.226 315.511,249.907" stroke-width="4.500" stroke="black" fill="none" stroke-linecap="round"></path><path d="M 315.511,249.907 C 311.205,253.220 311.036,253.001 306.722,256.302" stroke-width="5.150" stroke="black" fill="none" stroke-linecap="round"></path><path d="M 306.722,256.302 C 304.244,258.197 304.123,260.299 301.928,260.299" stroke-width="6.076" stroke="black" fill="none" stroke-linecap="round"></path><path d="M 301.928,260.299 C 300.128,260.299 299.262,258.602 298.732,256.302" stroke-width="7.585" stroke="black" fill="none" stroke-linecap="round"></path><path d="M 298.732,256.302 C 298.064,253.406 299.131,253.104 299.531,249.907" stroke-width="6.811" stroke="black" fill="none" stroke-linecap="round"></path><path d="M 299.531,249.907 C 299.930,246.709 299.930,246.709 300.330,243.511" stroke-width="6.609" stroke="black" fill="none" stroke-linecap="round"></path><path d="M 300.330,243.511 C 300.729,240.314 300.928,240.326 301.129,237.116" stroke-width="6.551" stroke="black" fill="none" stroke-linecap="round"></path><path d="M 301.129,237.116 C 301.328,233.931 302.476,231.299 301.129,230.721" stroke-width="7.236" stroke="black" fill="none" stroke-linecap="round"></path><path d="M 301.129,230.721 C 299.680,230.100 298.231,232.589 295.536,234.718" stroke-width="7.709" stroke="black" fill="none" stroke-linecap="round"></path><path d="M 295.536,234.718 C 290.641,238.584 290.643,238.602 285.948,242.712" stroke-width="5.753" stroke="black" fill="none" stroke-linecap="round"></path><path d="M 285.948,242.712 C 281.055,246.996 281.514,247.586 276.360,251.505" stroke-width="5.279" stroke="black" fill="none" stroke-linecap="round"></path><path d="M 276.360,251.505 C 271.527,255.180 271.003,254.469 265.973,257.901" stroke-width="5.252" stroke="black" fill="none" stroke-linecap="round"></path><path d="M 265.973,257.901 C 262.214,260.464 262.338,260.650 258.782,263.496" stroke-width="5.663" stroke="black" fill="none" stroke-linecap="round"></path><path d="M 258.782,263.496 C 256.345,265.446 256.676,266.873 253.988,267.494" stroke-width="6.277" stroke="black" fill="none" stroke-linecap="round"></path><path d="M 253.988,267.494 C 251.482,268.072 250.192,267.693 248.395,265.895" stroke-width="7.201" stroke="black" fill="none" stroke-linecap="round"></path><path d="M 248.395,265.895 C 246.596,264.096 247.154,263.159 246.797,260.299" stroke-width="7.533" stroke="black" fill="none" stroke-linecap="round"></path><path d="M 246.797,260.299 C 246.355,256.763 246.996,256.691 246.797,253.104" stroke-width="6.554" stroke="black" fill="none" stroke-linecap="round"></path><path d="M 246.797,253.104 C 246.596,249.496 246.397,249.507 245.998,245.910" stroke-width="6.383" stroke="black" fill="none" stroke-linecap="round"></path><path d="M 245.998,245.910 C 245.598,242.312 245.762,242.287 245.199,238.715" stroke-width="6.408" stroke="black" fill="none" stroke-linecap="round"></path><path d="M 245.199,238.715 C 244.564,234.692 245.714,230.721 243.601,230.721" stroke-width="6.981" stroke="black" fill="none" stroke-linecap="round"></path><path d="M 243.601,230.721 C 240.520,230.721 239.005,234.519 234.811,238.715" stroke-width="7.444" stroke="black" fill="none" stroke-linecap="round"></path><path d="M 234.811,238.715 C 231.415,242.114 231.815,242.512 228.419,245.910" stroke-width="6.169" stroke="black" fill="none" stroke-linecap="round"></path><path d="M 228.419,245.910 C 225.024,249.307 224.939,249.248 221.228,252.305" stroke-width="5.774" stroke="black" fill="none" stroke-linecap="round"></path><path d="M 221.228,252.305 C 218.147,254.844 217.954,254.606 214.836,257.101" stroke-width="6.013" stroke="black" fill="none" stroke-linecap="round"></path><path d="M 214.836,257.101 C 211.962,259.402 212.324,260.001 209.243,261.898" stroke-width="6.197" stroke="black" fill="none" stroke-linecap="round"></path><path d="M 209.243,261.898 C 207.131,263.199 206.929,263.205 204.449,263.496" stroke-width="6.756" stroke="black" fill="none" stroke-linecap="round"></path><path d="M 204.449,263.496 C 200.137,264.004 199.879,264.241 195.660,263.496" stroke-width="6.998" stroke="black" fill="none" stroke-linecap="round"></path><path d="M 195.660,263.496 C 193.088,263.042 192.792,262.832 190.866,261.098" stroke-width="7.544" stroke="black" fill="none" stroke-linecap="round"></path><path d="M 190.866,261.098 C 188.797,259.234 189.030,258.829 187.670,256.302" stroke-width="6.949" stroke="black" fill="none" stroke-linecap="round"></path><path d="M 187.670,256.302 C 186.234,253.633 186.403,253.532 185.273,250.706" stroke-width="6.720" stroke="black" fill="none" stroke-linecap="round"></path><path d="M 185.273,250.706 C 184.006,247.536 183.652,247.609 182.876,244.311" stroke-width="6.508" stroke="black" fill="none" stroke-linecap="round"></path><path d="M 182.876,244.311 C 182.054,240.815 182.705,240.673 182.077,237.116" stroke-width="6.370" stroke="black" fill="none" stroke-linecap="round"></path><path d="M 182.077,237.116 C 181.506,233.878 180.861,233.970 180.479,230.721" stroke-width="6.450" stroke="black" fill="none" stroke-linecap="round"></path><path d="M 180.479,230.721 C 180.062,227.175 180.690,227.111 180.479,223.526" stroke-width="6.361" stroke="black" fill="none" stroke-linecap="round"></path><path d="M 180.479,223.526 C 180.291,220.316 179.881,220.341 179.680,217.131" stroke-width="6.476" stroke="black" fill="none" stroke-linecap="round"></path><path d="M 179.680,217.131 C 179.481,213.946 179.468,213.918 179.680,210.736" stroke-width="6.520" stroke="black" fill="none" stroke-linecap="round"></path><path d="M 179.680,210.736 C 179.868,207.923 180.168,207.948 180.479,205.140" stroke-width="6.682" stroke="black" fill="none" stroke-linecap="round"></path><path d="M 180.479,205.140 C 180.967,200.754 179.083,198.983 181.278,196.347" stroke-width="6.999" stroke="black" fill="none" stroke-linecap="round"></path><path d="M 181.278,196.347 C 183.078,194.186 185.143,194.764 188.469,195.547" stroke-width="7.927" stroke="black" fill="none" stroke-linecap="round"></path><path d="M 188.469,195.547 C 191.935,196.363 191.328,198.902 194.861,199.544" stroke-width="7.526" stroke="black" fill="none" stroke-linecap="round"></path><path d="M 194.861,199.544 C 200.117,200.500 200.732,200.212 206.047,198.745" stroke-width="6.941" stroke="black" fill="none" stroke-linecap="round"></path><path d="M 206.047,198.745 C 212.317,197.014 212.457,196.635 218.032,193.149" stroke-width="5.613" stroke="black" fill="none" stroke-linecap="round"></path><path d="M 218.032,193.149 C 225.241,188.641 225.293,188.470 231.615,182.757" stroke-width="4.774" stroke="black" fill="none" stroke-linecap="round"></path><path d="M 231.615,182.757 C 237.678,177.279 237.913,177.287 242.802,170.766" stroke-width="4.539" stroke="black" fill="none" stroke-linecap="round"></path><path d="M 242.802,170.766 C 247.501,164.496 247.277,164.209 250.792,157.176" stroke-width="4.630" stroke="black" fill="none" stroke-linecap="round"></path><path d="M 250.792,157.176 C 254.068,150.619 253.943,150.506 256.385,143.586" stroke-width="4.853" stroke="black" fill="none" stroke-linecap="round"></path><path d="M 256.385,143.586 C 258.737,136.916 258.714,136.871 260.380,129.996" stroke-width="4.892" stroke="black" fill="none" stroke-linecap="round"></path><path d="M 260.380,129.996 C 261.910,123.681 261.889,123.642 262.777,117.206" stroke-width="5.034" stroke="black" fill="none" stroke-linecap="round"></path><path d="M 262.777,117.206 C 263.487,112.051 262.903,111.972 263.576,106.813" stroke-width="5.482" stroke="black" fill="none" stroke-linecap="round"></path><path d="M 263.576,106.813 C 264.102,102.779 264.241,102.784 265.174,98.819" stroke-width="5.810" stroke="black" fill="none" stroke-linecap="round"></path><path d="M 265.174,98.819 C 265.839,95.989 265.904,92.876 266.772,93.224" stroke-width="7.006" stroke="black" fill="none" stroke-linecap="round"></path><path d="M 266.772,93.224 C 267.902,93.676 268.206,96.758 269.169,100.418" stroke-width="7.566" stroke="black" fill="none" stroke-linecap="round"></path><path d="M 269.169,100.418 C 270.203,104.353 270.097,104.393 270.767,108.412" stroke-width="6.463" stroke="black" fill="none" stroke-linecap="round"></path><path d="M 270.767,108.412 C 271.695,113.986 271.838,113.981 272.365,119.604" stroke-width="5.684" stroke="black" fill="none" stroke-linecap="round"></path><path d="M 272.365,119.604 C 273.036,126.772 272.979,126.793 273.164,133.993" stroke-width="4.985" stroke="black" fill="none" stroke-linecap="round"></path><path d="M 273.164,133.993 C 273.379,142.381 273.342,142.390 273.164,150.781" stroke-width="4.751" stroke="black" fill="none" stroke-linecap="round"></path><path d="M 273.164,150.781 C 272.942,161.176 272.963,161.184 272.365,171.565" stroke-width="4.500" stroke="black" fill="none" stroke-linecap="round"></path><path d="M 272.365,171.565 C 271.765,181.969 271.566,181.957 270.767,192.350" stroke-width="4.500" stroke="black" fill="none" stroke-linecap="round"></path><path d="M 270.767,192.350 C 269.968,202.742 269.569,202.727 269.169,213.134" stroke-width="4.500" stroke="black" fill="none" stroke-linecap="round"></path><path d="M 269.169,213.134 C 268.770,223.511 269.169,223.526 269.169,233.919" stroke-width="4.500" stroke="black" fill="none" stroke-linecap="round"></path><path d="M 269.169,233.919 C 269.169,243.911 268.961,243.916 269.169,253.904" stroke-width="4.500" stroke="black" fill="none" stroke-linecap="round"></path><path d="M 269.169,253.904 C 269.360,263.101 269.530,263.099 269.968,272.290" stroke-width="4.500" stroke="black" fill="none" stroke-linecap="round"></path><path d="M 269.968,272.290 C 270.329,279.886 270.169,279.900 270.767,287.479" stroke-width="4.590" stroke="black" fill="none" stroke-linecap="round"></path><path d="M 270.767,287.479 C 271.367,295.089 271.544,295.075 272.365,302.667" stroke-width="4.695" stroke="black" fill="none" stroke-linecap="round"></path><path d="M 272.365,302.667 C 273.142,309.864 272.911,309.900 273.963,317.057" stroke-width="4.810" stroke="black" fill="none" stroke-linecap="round"></path><path d="M 273.963,317.057 C 274.908,323.489 275.124,323.459 276.360,329.847" stroke-width="5.008" stroke="black" fill="none" stroke-linecap="round"></path><path d="M 276.360,329.847 C 277.521,335.850 277.383,335.884 278.757,341.838" stroke-width="5.164" stroke="black" fill="none" stroke-linecap="round"></path><path d="M 278.757,341.838 C 279.780,346.276 279.332,346.530 281.154,350.631" stroke-width="5.632" stroke="black" fill="none" stroke-linecap="round"></path><path d="M 281.154,350.631 C 282.528,353.725 282.602,354.072 285.149,356.227" stroke-width="6.154" stroke="black" fill="none" stroke-linecap="round"></path><path d="M 285.149,356.227 C 287.796,358.468 288.110,359.425 291.541,359.425" stroke-width="6.280" stroke="black" fill="none" stroke-linecap="round"></path><path d="M 291.541,359.425 C 300.494,359.425 300.913,358.532 309.918,356.227" stroke-width="5.945" stroke="black" fill="none" stroke-linecap="round"></path><path d="M 309.918,356.227 C 318.091,354.135 317.868,353.309 325.898,350.631" stroke-width="4.861" stroke="black" fill="none" stroke-linecap="round"></path><path d="M 325.898,350.631 C 333.448,348.113 333.696,348.745 341.079,345.835" stroke-width="4.710" stroke="black" fill="none" stroke-linecap="round"></path><path d="M 341.079,345.835 C 346.879,343.549 346.770,343.217 352.265,340.239" stroke-width="5.033" stroke="black" fill="none" stroke-linecap="round"></path><path d="M 352.265,340.239 C 356.358,338.021 356.386,338.023 360.255,335.443" stroke-width="5.555" stroke="black" fill="none" stroke-linecap="round"></path><path d="M 360.255,335.443 C 362.379,334.026 365.378,331.493 364.250,332.245" stroke-width="6.443" stroke="black" fill="none" stroke-linecap="round"></path><path d="M 364.250,332.245 C 360.584,334.690 357.052,336.545 350.667,341.838" stroke-width="7.166" stroke="black" fill="none" stroke-linecap="round"></path><path d="M 350.667,341.838 C 343.069,348.136 343.552,348.716 336.285,355.428" stroke-width="4.758" stroke="black" fill="none" stroke-linecap="round"></path><path d="M 336.285,355.428 C 327.972,363.105 328.621,364.000 319.506,370.617" stroke-width="4.500" stroke="black" fill="none" stroke-linecap="round"></path><path d="M 319.506,370.617 C 308.246,378.789 307.521,377.811 295.536,385.006" stroke-width="4.500" stroke="black" fill="none" stroke-linecap="round"></path><path d="M 295.536,385.006 C 283.551,392.200 284.094,393.337 271.566,399.395" stroke-width="4.500" stroke="black" fill="none" stroke-linecap="round"></path><path d="M 271.566,399.395 C 260.124,404.928 259.843,404.785 247.596,408.188" stroke-width="4.500" stroke="black" fill="none" stroke-linecap="round"></path><path d="M 247.596,408.188 C 238.270,410.780 237.955,411.386 228.419,411.386" stroke-width="4.500" stroke="black" fill="none" stroke-linecap="round"></path><path d="M 228.419,411.386 C 221.575,411.386 221.185,410.674 214.836,408.188" stroke-width="4.609" stroke="black" fill="none" stroke-linecap="round"></path><path d="M 214.836,408.188 C 211.997,407.077 211.734,406.731 210.042,404.192" stroke-width="5.833" stroke="black" fill="none" stroke-linecap="round"></path><path d="M 210.042,404.192 C 206.940,399.536 206.851,399.250 205.248,393.799" stroke-width="5.508" stroke="black" fill="none" stroke-linecap="round"></path><path d="M 205.248,393.799 C 202.856,385.660 203.180,385.470 202.052,377.012" stroke-width="4.752" stroke="black" fill="none" stroke-linecap="round"></path><path d="M 202.052,377.012 C 200.783,367.483 200.639,367.434 200.454,357.826" stroke-width="4.500" stroke="black" fill="none" stroke-linecap="round"></path><path d="M 200.454,357.826 C 200.240,346.649 200.644,346.623 201.253,335.443" stroke-width="4.500" stroke="black" fill="none" stroke-linecap="round"></path><path d="M 201.253,335.443 C 201.842,324.639 202.204,324.660 202.851,313.859" stroke-width="4.500" stroke="black" fill="none" stroke-linecap="round"></path><path d="M 202.851,313.859 C 203.402,304.675 203.885,304.640 203.650,295.473" stroke-width="4.500" stroke="black" fill="none" stroke-linecap="round"></path><path d="M 203.650,295.473 C 203.486,289.052 203.704,288.819 202.052,282.682" stroke-width="4.799" stroke="black" fill="none" stroke-linecap="round"></path><path d="M 202.052,282.682 C 200.907,278.427 201.378,276.718 198.057,274.688" stroke-width="5.519" stroke="black" fill="none" stroke-linecap="round"></path><path d="M 198.057,274.688 C 194.187,272.322 192.806,273.407 187.670,273.889" stroke-width="5.562" stroke="black" fill="none" stroke-linecap="round"></path><path d="M 187.670,273.889 C 180.022,274.606 179.823,274.640 172.489,277.086" stroke-width="4.934" stroke="black" fill="none" stroke-linecap="round"></path><path d="M 172.489,277.086 C 158.250,281.835 158.385,282.395 144.524,288.278" stroke-width="4.500" stroke="black" fill="none" stroke-linecap="round"></path><path d="M 144.524,288.278 C 132.018,293.587 131.991,293.567 119.755,299.470" stroke-width="4.500" stroke="black" fill="none" stroke-linecap="round"></path><path d="M 119.755,299.470 C 109.619,304.359 109.847,304.826 99.780,309.862" stroke-width="4.500" stroke="black" fill="none" stroke-linecap="round"></path><path d="M 99.780,309.862 C 93.867,312.820 87.248,315.640 87.795,315.458" stroke-width="4.583" stroke="black" fill="none" stroke-linecap="round"></path><path d="M 87.795,315.458 C 88.447,315.241 94.961,312.202 102.177,309.063" stroke-width="5.980" stroke="black" fill="none" stroke-linecap="round"></path><path d="M 102.177,309.063 C 122.526,300.211 122.634,300.456 142.926,291.476" stroke-width="4.500" stroke="black" fill="none" stroke-linecap="round"></path><path d="M 142.926,291.476 C 164.182,282.069 163.894,281.400 185.273,272.290" stroke-width="4.500" stroke="black" fill="none" stroke-linecap="round"></path><path d="M 185.273,272.290 C 207.040,263.014 207.408,263.880 229.218,254.703" stroke-width="4.500" stroke="black" fill="none" stroke-linecap="round"></path><path d="M 229.218,254.703 C 250.154,245.894 250.299,246.146 270.767,236.317" stroke-width="4.500" stroke="black" fill="none" stroke-linecap="round"></path><path d="M 270.767,236.317 C 290.249,226.961 289.903,226.248 309.119,216.332" stroke-width="4.500" stroke="black" fill="none" stroke-linecap="round"></path><path d="M 309.119,216.332 C 327.856,206.662 327.897,206.742 346.672,197.146" stroke-width="4.500" stroke="black" fill="none" stroke-linecap="round"></path><path d="M 346.672,197.146 C 364.651,187.956 364.410,187.449 382.627,178.760" stroke-width="4.500" stroke="black" fill="none" stroke-linecap="round"></path><path d="M 382.627,178.760 C 398.767,171.061 398.992,171.532 415.386,164.370" stroke-width="4.500" stroke="black" fill="none" stroke-linecap="round"></path><path d="M 415.386,164.370 C 427.356,159.141 427.267,158.915 439.356,153.978" stroke-width="4.500" stroke="black" fill="none" stroke-linecap="round"></path><path d="M 439.356,153.978 C 446.842,150.921 446.872,150.939 454.537,148.382" stroke-width="4.500" stroke="black" fill="none" stroke-linecap="round"></path><path d="M 454.537,148.382 C 457.658,147.341 461.969,145.431 460.929,146.784" stroke-width="5.530" stroke="black" fill="none" stroke-linecap="round"></path><path d="M 460.929,146.784 C 457.974,150.627 454.190,153.405 446.547,158.775" stroke-width="6.517" stroke="black" fill="none" stroke-linecap="round"></path><path d="M 446.547,158.775 C 435.414,166.596 434.879,165.840 423.376,173.164" stroke-width="4.500" stroke="black" fill="none" stroke-linecap="round"></path><path d="M 423.376,173.164 C 408.512,182.627 408.662,182.863 393.813,192.350" stroke-width="4.500" stroke="black" fill="none" stroke-linecap="round"></path><path d="M 393.813,192.350 C 375.504,204.047 375.572,204.162 357.059,215.532" stroke-width="4.500" stroke="black" fill="none" stroke-linecap="round"></path><path d="M 357.059,215.532 C 335.222,228.944 335.368,229.215 313.114,241.913" stroke-width="4.500" stroke="black" fill="none" stroke-linecap="round"></path><path d="M 313.114,241.913 C 287.029,256.795 287.114,257.020 260.380,270.691" stroke-width="4.500" stroke="black" fill="none" stroke-linecap="round"></path><path d="M 260.380,270.691 C 233.181,284.599 232.532,283.322 205.248,297.071" stroke-width="4.500" stroke="black" fill="none" stroke-linecap="round"></path><path d="M 205.248,297.071 C 178.599,310.501 179.240,311.788 152.514,325.051" stroke-width="4.500" stroke="black" fill="none" stroke-linecap="round"></path><path d="M 152.514,325.051 C 129.303,336.569 129.329,336.808 105.373,346.634" stroke-width="4.500" stroke="black" fill="none" stroke-linecap="round"></path><path d="M 105.373,346.634 C 89.379,353.196 89.281,353.726 72.614,357.826" stroke-width="4.500" stroke="black" fill="none" stroke-linecap="round"></path><path d="M 72.614,357.826 C 64.911,359.721 61.557,360.815 56.634,358.625" stroke-width="4.500" stroke="black" fill="none" stroke-linecap="round"></path><path d="M 56.634,358.625 C 54.366,357.617 55.780,354.028 58.232,351.431" stroke-width="5.755" stroke="black" fill="none" stroke-linecap="round"></path><path d="M 58.232,351.431 C 69.363,339.639 71.016,340.639 83.800,329.847" stroke-width="4.500" stroke="black" fill="none" stroke-linecap="round"></path><path d="M 419.381,114.807 C 419.381,109.212 420.826,108.677 419.381,103.616" stroke-width="8.301" stroke="black" fill="none" stroke-linecap="round"></path><path d="M 419.381,103.616 C 418.429,100.283 417.576,100.059 414.587,98.020" stroke-width="6.774" stroke="black" fill="none" stroke-linecap="round"></path><path d="M 414.587,98.020 C 408.787,94.064 408.537,93.871 401.803,91.625" stroke-width="5.334" stroke="black" fill="none" stroke-linecap="round"></path><path d="M 401.803,91.625 C 391.758,88.275 391.558,87.978 381.029,86.828" stroke-width="4.500" stroke="black" fill="none" stroke-linecap="round"></path><path d="M 381.029,86.828 C 369.586,85.579 369.402,86.174 357.858,86.828" stroke-width="4.500" stroke="black" fill="none" stroke-linecap="round"></path><path d="M 357.858,86.828 C 348.229,87.374 348.184,87.597 338.682,89.227" stroke-width="4.500" stroke="black" fill="none" stroke-linecap="round"></path><path d="M 338.682,89.227 C 334.202,89.995 334.082,89.890 329.893,91.625" stroke-width="5.205" stroke="black" fill="none" stroke-linecap="round"></path><path d="M 329.893,91.625 C 322.497,94.687 322.012,94.266 315.511,98.819" stroke-width="4.785" stroke="black" fill="none" stroke-linecap="round"></path><path d="M 315.511,98.819 C 310.027,102.660 309.823,102.993 305.923,108.412" stroke-width="4.938" stroke="black" fill="none" stroke-linecap="round"></path><path d="M 305.923,108.412 C 302.632,112.985 302.648,113.377 301.129,118.804" stroke-width="5.238" stroke="black" fill="none" stroke-linecap="round"></path><path d="M 301.129,118.804 C 299.851,123.370 299.501,123.837 300.330,128.397" stroke-width="5.584" stroke="black" fill="none" stroke-linecap="round"></path><path d="M 300.330,128.397 C 301.099,132.631 301.826,132.755 304.325,136.391" stroke-width="5.801" stroke="black" fill="none" stroke-linecap="round"></path><circle r="3" cx="350.6667175292969" cy="115.60684204101562" fill="black"></circle></svg>