<svg xmlns="http://www.w3.org/2000/svg" xmlns:xlink="http://www.w3.org/1999/xlink" viewBox="0 0 576 416" width="576" height="416"><path d="M 310.717,348.233 C 316.310,343.037 316.266,342.990 321.903,337.841" stroke-width="7.793" stroke="black" fill="none" stroke-linecap="round"></path><path d="M 321.903,337.841 C 325.455,334.596 325.498,334.643 329.094,331.446" stroke-width="6.238" stroke="black" fill="none" stroke-linecap="round"></path><path d="M 329.094,331.446 C 332.689,328.248 332.700,328.260 336.285,325.051" stroke-width="5.886" stroke="black" fill="none" stroke-linecap="round"></path><path d="M 336.285,325.051 C 340.290,321.465 340.485,321.647 344.275,317.856" stroke-width="5.620" stroke="black" fill="none" stroke-linecap="round"></path><path d="M 344.275,317.856 C 346.078,316.051 345.806,315.802 347.471,313.859" stroke-width="6.409" stroke="black" fill="none" stroke-linecap="round"></path><path d="M 347.471,313.859 C 350.600,310.206 350.468,310.061 353.863,306.664" stroke-width="5.930" stroke="black" fill="none" stroke-linecap="round"></path><path d="M 353.863,306.664 C 356.860,303.666 357.152,303.966 360.255,301.068" stroke-width="5.894" stroke="black" fill="none" stroke-linecap="round"></path><path d="M 360.255,301.068 C 363.144,298.370 362.729,297.858 365.848,295.473" stroke-width="5.983" stroke="black" fill="none" stroke-linecap="round"></path><path d="M 365.848,295.473 C 369.521,292.662 369.652,292.660 373.838,290.676" stroke-width="5.863" stroke="black" fill="none" stroke-linecap="round"></path><path d="M 373.838,290.676 C 377.242,289.063 378.096,287.440 381.029,288.278" stroke-width="6.836" stroke="black" fill="none" stroke-linecap="round"></path><path d="M 381.029,288.278 C 383.689,289.038 383.026,291.076 385.024,293.874" stroke-width="7.727" stroke="black" fill="none" stroke-linecap="round"></path><path d="M 385.024,293.874 C 387.021,296.672 386.958,296.720 389.019,299.470" stroke-width="7.583" stroke="black" fill="none" stroke-linecap="round"></path><path d="M 389.019,299.470 C 390.553,301.516 390.415,301.666 392.215,303.467" stroke-width="7.031" stroke="black" fill="none" stroke-linecap="round"></path><path d="M 392.215,303.467 C 394.410,305.663 394.516,305.593 397.009,307.464" stroke-width="6.711" stroke="black" fill="none" stroke-linecap="round"></path><path d="M 397.009,307.464 C 399.310,309.191 399.406,309.062 401.803,310.661" stroke-width="6.785" stroke="black" fill="none" stroke-linecap="round"></path><path d="M 401.803,310.661 C 405.398,313.059 405.295,313.237 408.994,315.458" stroke-width="7.024" stroke="black" fill="none" stroke-linecap="round"></path><path d="M 408.994,315.458 C 411.288,316.835 414.401,318.009 413.788,317.856" stroke-width="7.762" stroke="black" fill="none" stroke-linecap="round"></path><path d="M 413.788,317.856 C 412.803,317.610 409.752,316.354 405.798,314.658" stroke-width="7.719" stroke="black" fill="none" stroke-linecap="round"></path><path d="M 405.798,314.658 C 401.362,312.756 401.397,312.674 397.009,310.661" stroke-width="6.218" stroke="black" fill="none" stroke-linecap="round"></path><path d="M 397.009,310.661 C 391.809,308.277 391.822,308.249 386.622,305.865" stroke-width="5.606" stroke="black" fill="none" stroke-linecap="round"></path><path d="M 386.622,305.865 C 382.234,303.853 382.190,303.944 377.833,301.868" stroke-width="5.699" stroke="black" fill="none" stroke-linecap="round"></path><path d="M 377.833,301.868 C 373.801,299.947 373.883,299.773 369.843,297.871" stroke-width="5.916" stroke="black" fill="none" stroke-linecap="round"></path><path d="M 369.843,297.871 C 367.091,296.575 366.926,296.901 364.250,295.473" stroke-width="6.326" stroke="black" fill="none" stroke-linecap="round"></path><path d="M 364.250,295.473 C 360.934,293.703 359.912,294.217 357.858,291.476" stroke-width="7.020" stroke="black" fill="none" stroke-linecap="round"></path><path d="M 357.858,291.476 C 356.317,289.420 356.874,288.648 357.059,285.880" stroke-width="8.011" stroke="black" fill="none" stroke-linecap="round"></path><path d="M 357.059,285.880 C 357.274,282.652 357.978,282.708 358.657,279.485" stroke-width="7.674" stroke="black" fill="none" stroke-linecap="round"></path><path d="M 358.657,279.485 C 359.576,275.114 359.456,275.088 360.255,270.691" stroke-width="7.283" stroke="black" fill="none" stroke-linecap="round"></path><path d="M 360.255,270.691 C 361.054,266.294 361.410,266.327 361.853,261.898" stroke-width="7.173" stroke="black" fill="none" stroke-linecap="round"></path><path d="M 361.853,261.898 C 362.209,258.332 363.539,256.390 361.853,254.703" stroke-width="7.350" stroke="black" fill="none" stroke-linecap="round"></path><path d="M 361.853,254.703 C 360.343,253.193 357.853,253.845 355.461,255.502" stroke-width="8.033" stroke="black" fill="none" stroke-linecap="round"></path><path d="M 355.461,255.502 C 352.660,257.442 353.513,258.732 351.466,261.898" stroke-width="6.683" stroke="black" fill="none" stroke-linecap="round"></path><path d="M 351.466,261.898 C 349.118,265.527 349.069,265.495 346.672,269.092" stroke-width="6.249" stroke="black" fill="none" stroke-linecap="round"></path><path d="M 346.672,269.092 C 344.275,272.690 344.129,272.601 341.878,276.287" stroke-width="5.959" stroke="black" fill="none" stroke-linecap="round"></path><path d="M 341.878,276.287 C 339.735,279.796 339.720,279.805 337.883,283.482" stroke-width="6.032" stroke="black" fill="none" stroke-linecap="round"></path><path d="M 337.883,283.482 C 336.125,286.999 336.285,287.079 334.687,290.676" stroke-width="6.115" stroke="black" fill="none" stroke-linecap="round"></path><path d="M 334.687,290.676 C 333.089,294.274 332.869,294.194 331.491,297.871" stroke-width="6.140" stroke="black" fill="none" stroke-linecap="round"></path><path d="M 331.491,297.871 C 330.472,300.589 330.748,300.686 329.893,303.467" stroke-width="6.525" stroke="black" fill="none" stroke-linecap="round"></path><path d="M 329.893,303.467 C 329.150,305.882 329.546,306.117 328.295,308.263" stroke-width="6.868" stroke="black" fill="none" stroke-linecap="round"></path><path d="M 328.295,308.263 C 326.750,310.913 326.884,312.916 324.300,313.060" stroke-width="7.344" stroke="black" fill="none" stroke-linecap="round"></path><path d="M 324.300,313.060 C 319.693,313.316 318.907,311.493 313.913,309.063" stroke-width="6.940" stroke="black" fill="none" stroke-linecap="round"></path><path d="M 313.913,309.063 C 304.125,304.299 304.302,303.907 294.737,298.670" stroke-width="4.529" stroke="black" fill="none" stroke-linecap="round"></path><path d="M 294.737,298.670 C 283.129,292.316 283.272,292.044 271.566,285.880" stroke-width="4.500" stroke="black" fill="none" stroke-linecap="round"></path><path d="M 271.566,285.880 C 260.501,280.053 260.497,280.034 249.194,274.688" stroke-width="4.500" stroke="black" fill="none" stroke-linecap="round"></path><path d="M 249.194,274.688 C 238.525,269.642 238.458,269.773 227.620,265.095" stroke-width="4.500" stroke="black" fill="none" stroke-linecap="round"></path><path d="M 227.620,265.095 C 218.084,260.979 218.087,260.960 208.444,257.101" stroke-width="4.500" stroke="black" fill="none" stroke-linecap="round"></path><path d="M 208.444,257.101 C 202.107,254.565 202.083,254.618 195.660,252.305" stroke-width="4.623" stroke="black" fill="none" stroke-linecap="round"></path><path d="M 195.660,252.305 C 192.095,251.021 187.301,249.257 188.469,249.907" stroke-width="5.639" stroke="black" fill="none" stroke-linecap="round"></path><path d="M 188.469,249.907 C 190.896,251.256 195.635,253.163 202.851,256.302" stroke-width="6.452" stroke="black" fill="none" stroke-linecap="round"></path><path d="M 202.851,256.302 C 214.012,261.157 213.996,261.197 225.223,265.895" stroke-width="4.500" stroke="black" fill="none" stroke-linecap="round"></path><path d="M 225.223,265.895 C 235.969,270.390 235.997,270.324 246.797,274.688" stroke-width="4.500" stroke="black" fill="none" stroke-linecap="round"></path><path d="M 246.797,274.688 C 256.771,278.718 256.851,278.527 266.772,282.682" stroke-width="4.500" stroke="black" fill="none" stroke-linecap="round"></path><path d="M 266.772,282.682 C 274.029,285.722 273.934,285.947 281.154,289.077" stroke-width="4.512" stroke="black" fill="none" stroke-linecap="round"></path><path d="M 281.154,289.077 C 285.919,291.143 292.015,293.924 290.742,293.074" stroke-width="5.135" stroke="black" fill="none" stroke-linecap="round"></path><path d="M 290.742,293.074 C 288.419,291.526 282.468,288.441 273.963,284.281" stroke-width="6.334" stroke="black" fill="none" stroke-linecap="round"></path><path d="M 273.963,284.281 C 264.491,279.648 264.416,279.792 254.787,275.488" stroke-width="4.623" stroke="black" fill="none" stroke-linecap="round"></path><path d="M 254.787,275.488 C 245.639,271.398 245.608,271.468 236.410,267.494" stroke-width="4.500" stroke="black" fill="none" stroke-linecap="round"></path><path d="M 236.410,267.494 C 228.030,263.873 228.008,263.924 219.630,260.299" stroke-width="4.500" stroke="black" fill="none" stroke-linecap="round"></path><path d="M 219.630,260.299 C 213.227,257.528 213.233,257.514 206.846,254.703" stroke-width="4.725" stroke="black" fill="none" stroke-linecap="round"></path><path d="M 206.846,254.703 C 203.245,253.118 198.395,251.646 199.655,251.505" stroke-width="5.641" stroke="black" fill="none" stroke-linecap="round"></path><path d="M 199.655,251.505 C 201.991,251.246 207.006,252.061 214.037,253.904" stroke-width="6.773" stroke="black" fill="none" stroke-linecap="round"></path><path d="M 214.037,253.904 C 223.785,256.458 223.605,257.164 233.214,260.299" stroke-width="4.661" stroke="black" fill="none" stroke-linecap="round"></path><path d="M 233.214,260.299 C 241.982,263.160 241.996,263.116 250.792,265.895" stroke-width="4.500" stroke="black" fill="none" stroke-linecap="round"></path><path d="M 250.792,265.895 C 257.178,267.912 257.224,267.773 263.576,269.892" stroke-width="4.830" stroke="black" fill="none" stroke-linecap="round"></path><path d="M 263.576,269.892 C 268.011,271.371 273.044,273.259 272.365,273.089" stroke-width="6.224" stroke="black" fill="none" stroke-linecap="round"></path><path d="M 272.365,273.089 C 271.446,272.860 266.388,271.042 260.380,269.092" stroke-width="6.420" stroke="black" fill="none" stroke-linecap="round"></path><path d="M 260.380,269.092 C 251.606,266.246 251.487,266.586 242.802,263.496" stroke-width="4.787" stroke="black" fill="none" stroke-linecap="round"></path><path d="M 242.802,263.496 C 233.510,260.191 233.628,259.860 224.425,256.302" stroke-width="4.500" stroke="black" fill="none" stroke-linecap="round"></path><path d="M 224.425,256.302 C 216.050,253.065 215.875,253.467 207.645,249.907" stroke-width="4.500" stroke="black" fill="none" stroke-linecap="round"></path><path d="M 207.645,249.907 C 201.094,247.072 201.253,246.709 194.861,243.511" stroke-width="4.801" stroke="black" fill="none" stroke-linecap="round"></path><path d="M 194.861,243.511 C 190.866,241.513 188.395,242.056 186.871,239.514" stroke-width="5.444" stroke="black" fill="none" stroke-linecap="round"></path><path d="M 186.871,239.514 C 185.998,238.059 187.830,236.044 190.067,235.517" stroke-width="7.212" stroke="black" fill="none" stroke-linecap="round"></path><path d="M 190.067,235.517 C 194.622,234.445 195.257,235.970 200.454,236.317" stroke-width="5.987" stroke="black" fill="none" stroke-linecap="round"></path><path d="M 200.454,236.317 C 207.242,236.770 207.240,236.910 214.037,237.116" stroke-width="5.154" stroke="black" fill="none" stroke-linecap="round"></path><path d="M 214.037,237.116 C 220.424,237.310 220.457,237.527 226.822,237.116" stroke-width="5.142" stroke="black" fill="none" stroke-linecap="round"></path><path d="M 226.822,237.116 C 232.841,236.728 232.846,236.511 238.806,235.517" stroke-width="5.224" stroke="black" fill="none" stroke-linecap="round"></path><path d="M 238.806,235.517 C 244.831,234.513 244.961,234.848 250.792,233.119" stroke-width="5.232" stroke="black" fill="none" stroke-linecap="round"></path><path d="M 250.792,233.119 C 255.747,231.650 255.829,231.532 260.380,229.122" stroke-width="5.555" stroke="black" fill="none" stroke-linecap="round"></path><path d="M 260.380,229.122 C 262.621,227.935 262.233,227.317 264.375,225.924" stroke-width="6.444" stroke="black" fill="none" stroke-linecap="round"></path><path d="M 264.375,225.924 C 270.223,222.121 270.681,222.754 276.360,218.730" stroke-width="5.201" stroke="black" fill="none" stroke-linecap="round"></path><path d="M 276.360,218.730 C 280.269,215.959 279.930,215.504 283.551,212.335" stroke-width="5.571" stroke="black" fill="none" stroke-linecap="round"></path><path d="M 283.551,212.335 C 286.322,209.908 286.347,209.936 289.144,207.538" stroke-width="6.048" stroke="black" fill="none" stroke-linecap="round"></path><path d="M 289.144,207.538 C 291.940,205.140 291.965,205.168 294.737,202.742" stroke-width="6.208" stroke="black" fill="none" stroke-linecap="round"></path><path d="M 294.737,202.742 C 298.357,199.573 299.465,195.731 301.928,196.347" stroke-width="6.780" stroke="black" fill="none" stroke-linecap="round"></path><path d="M 301.928,196.347 C 304.259,196.930 304.325,200.743 304.325,205.140" stroke-width="7.753" stroke="black" fill="none" stroke-linecap="round"></path><path d="M 304.325,205.140 C 304.325,209.537 302.855,209.479 301.928,213.934" stroke-width="6.220" stroke="black" fill="none" stroke-linecap="round"></path><path d="M 301.928,213.934 C 300.858,219.072 300.909,219.105 300.330,224.326" stroke-width="5.743" stroke="black" fill="none" stroke-linecap="round"></path><path d="M 300.330,224.326 C 299.711,229.897 299.738,229.915 299.531,235.517" stroke-width="5.514" stroke="black" fill="none" stroke-linecap="round"></path><path d="M 299.531,235.517 C 299.339,240.707 299.315,240.723 299.531,245.910" stroke-width="5.564" stroke="black" fill="none" stroke-linecap="round"></path><path d="M 299.531,245.910 C 299.714,250.316 299.911,250.308 300.330,254.703" stroke-width="5.888" stroke="black" fill="none" stroke-linecap="round"></path><path d="M 300.330,254.703 C 300.710,258.702 300.893,258.692 301.129,262.697" stroke-width="6.118" stroke="black" fill="none" stroke-linecap="round"></path><path d="M 301.129,262.697 C 301.293,265.487 301.548,265.563 301.129,268.293" stroke-width="6.493" stroke="black" fill="none" stroke-linecap="round"></path><path d="M 301.129,268.293 C 300.749,270.759 301.202,271.603 299.531,273.089" stroke-width="6.731" stroke="black" fill="none" stroke-linecap="round"></path><path d="M 299.531,273.089 C 297.607,274.800 296.713,274.862 293.938,274.688" stroke-width="7.372" stroke="black" fill="none" stroke-linecap="round"></path><path d="M 293.938,274.688 C 290.321,274.462 290.249,273.724 286.747,272.290" stroke-width="6.613" stroke="black" fill="none" stroke-linecap="round"></path><path d="M 286.747,272.290 C 281.460,270.126 281.436,270.121 276.360,267.494" stroke-width="5.698" stroke="black" fill="none" stroke-linecap="round"></path><path d="M 276.360,267.494 C 269.851,264.125 269.956,263.916 263.576,260.299" stroke-width="4.957" stroke="black" fill="none" stroke-linecap="round"></path><path d="M 263.576,260.299 C 257.971,257.122 257.983,257.101 252.390,253.904" stroke-width="5.070" stroke="black" fill="none" stroke-linecap="round"></path><path d="M 252.390,253.904 C 246.797,250.706 246.783,250.729 241.203,247.508" stroke-width="5.105" stroke="black" fill="none" stroke-linecap="round"></path><path d="M 241.203,247.508 C 236.396,244.734 236.566,244.389 231.615,241.913" stroke-width="5.338" stroke="black" fill="none" stroke-linecap="round"></path><path d="M 231.615,241.913 C 227.777,239.993 227.564,240.439 223.625,238.715" stroke-width="5.842" stroke="black" fill="none" stroke-linecap="round"></path><path d="M 223.625,238.715 C 221.172,237.641 218.832,236.317 218.832,236.317" stroke-width="6.508" stroke="black" fill="none" stroke-linecap="round"></path><path d="M 218.832,236.317 C 218.832,236.317 221.201,237.573 223.625,238.715" stroke-width="7.687" stroke="black" fill="none" stroke-linecap="round"></path><path d="M 223.625,238.715 C 227.992,240.771 228.020,240.713 232.415,242.712" stroke-width="6.308" stroke="black" fill="none" stroke-linecap="round"></path><path d="M 232.415,242.712 C 236.809,244.711 236.802,244.727 241.203,246.709" stroke-width="5.899" stroke="black" fill="none" stroke-linecap="round"></path><path d="M 241.203,246.709 C 244.792,248.325 244.830,248.242 248.395,249.907" stroke-width="5.992" stroke="black" fill="none" stroke-linecap="round"></path><path d="M 248.395,249.907 C 250.822,251.040 253.674,252.467 253.189,252.305" stroke-width="6.563" stroke="black" fill="none" stroke-linecap="round"></path><path d="M 253.189,252.305 C 252.476,252.067 249.546,250.805 245.998,249.107" stroke-width="7.393" stroke="black" fill="none" stroke-linecap="round"></path><path d="M 245.998,249.107 C 240.358,246.409 240.405,246.309 234.811,243.511" stroke-width="5.695" stroke="black" fill="none" stroke-linecap="round"></path><path d="M 234.811,243.511 C 228.419,240.314 228.377,240.395 222.027,237.116" stroke-width="5.002" stroke="black" fill="none" stroke-linecap="round"></path><path d="M 222.027,237.116 C 215.993,234.000 215.921,234.114 210.042,230.721" stroke-width="5.002" stroke="black" fill="none" stroke-linecap="round"></path><path d="M 210.042,230.721 C 205.534,228.118 205.697,227.842 201.253,225.125" stroke-width="5.393" stroke="black" fill="none" stroke-linecap="round"></path><path d="M 201.253,225.125 C 198.506,223.445 196.106,223.710 195.660,221.928" stroke-width="6.140" stroke="black" fill="none" stroke-linecap="round"></path><path d="M 195.660,221.928 C 195.307,220.512 197.339,219.227 199.655,218.730" stroke-width="7.547" stroke="black" fill="none" stroke-linecap="round"></path><path d="M 199.655,218.730 C 202.932,218.028 203.249,219.150 206.846,219.529" stroke-width="6.639" stroke="black" fill="none" stroke-linecap="round"></path><path d="M 206.846,219.529 C 210.839,219.950 210.831,220.128 214.836,220.329" stroke-width="6.262" stroke="black" fill="none" stroke-linecap="round"></path><path d="M 214.836,220.329 C 218.822,220.528 218.845,220.550 222.826,220.329" stroke-width="6.164" stroke="black" fill="none" stroke-linecap="round"></path><path d="M 222.826,220.329 C 226.036,220.150 226.020,219.906 229.218,219.529" stroke-width="6.481" stroke="black" fill="none" stroke-linecap="round"></path><path d="M 229.218,219.529 C 232.811,219.106 232.866,219.395 236.410,218.730" stroke-width="6.280" stroke="black" fill="none" stroke-linecap="round"></path><path d="M 236.410,218.730 C 239.258,218.195 239.300,218.171 242.003,217.131" stroke-width="6.572" stroke="black" fill="none" stroke-linecap="round"></path><path d="M 242.003,217.131 C 244.493,216.173 244.548,216.164 246.797,214.733" stroke-width="6.759" stroke="black" fill="none" stroke-linecap="round"></path><path d="M 246.797,214.733 C 248.943,213.366 248.692,212.990 250.792,211.535" stroke-width="6.869" stroke="black" fill="none" stroke-linecap="round"></path><path d="M 250.792,211.535 C 253.885,209.392 253.801,209.118 257.184,207.538" stroke-width="7.236" stroke="black" fill="none" stroke-linecap="round"></path><path d="M 257.184,207.538 C 259.794,206.320 260.886,204.679 262.777,205.939" stroke-width="7.522" stroke="black" fill="none" stroke-linecap="round"></path><path d="M 262.777,205.939 C 265.680,207.876 265.303,209.771 266.772,213.934" stroke-width="7.829" stroke="black" fill="none" stroke-linecap="round"></path><path d="M 266.772,213.934 C 267.700,216.566 267.197,216.728 267.571,219.529" stroke-width="6.965" stroke="black" fill="none" stroke-linecap="round"></path><path d="M 267.571,219.529 C 267.996,222.723 267.970,222.727 268.370,225.924" stroke-width="6.652" stroke="black" fill="none" stroke-linecap="round"></path><path d="M 268.370,225.924 C 268.769,229.122 268.769,229.122 269.169,232.320" stroke-width="6.563" stroke="black" fill="none" stroke-linecap="round"></path><path d="M 269.169,232.320 C 269.568,235.517 269.754,235.506 269.968,238.715" stroke-width="6.537" stroke="black" fill="none" stroke-linecap="round"></path><path d="M 269.968,238.715 C 270.153,241.501 269.968,241.513 269.968,244.311" stroke-width="6.764" stroke="black" fill="none" stroke-linecap="round"></path><path d="M 269.968,244.311 C 269.968,248.708 270.978,249.062 269.968,253.104" stroke-width="7.000" stroke="black" fill="none" stroke-linecap="round"></path><path d="M 269.968,253.104 C 269.380,255.457 268.954,256.665 266.772,257.101" stroke-width="7.556" stroke="black" fill="none" stroke-linecap="round"></path><path d="M 266.772,257.101 C 262.962,257.864 262.305,256.584 257.983,255.502" stroke-width="7.643" stroke="black" fill="none" stroke-linecap="round"></path><path d="M 257.983,255.502 C 254.315,254.585 254.294,254.538 250.792,253.104" stroke-width="6.499" stroke="black" fill="none" stroke-linecap="round"></path><path d="M 250.792,253.104 C 245.505,250.941 245.686,250.495 240.405,248.308" stroke-width="5.673" stroke="black" fill="none" stroke-linecap="round"></path><path d="M 240.405,248.308 C 234.101,245.698 234.030,245.863 227.620,243.511" stroke-width="5.178" stroke="black" fill="none" stroke-linecap="round"></path><path d="M 227.620,243.511 C 222.045,241.466 222.049,241.451 216.434,239.514" stroke-width="5.261" stroke="black" fill="none" stroke-linecap="round"></path><path d="M 216.434,239.514 C 210.463,237.454 210.485,237.375 204.449,235.517" stroke-width="5.280" stroke="black" fill="none" stroke-linecap="round"></path><path d="M 204.449,235.517 C 200.098,234.178 200.078,234.224 195.660,233.119" stroke-width="5.673" stroke="black" fill="none" stroke-linecap="round"></path><path d="M 195.660,233.119 C 192.088,232.226 187.855,230.752 188.469,231.520" stroke-width="6.007" stroke="black" fill="none" stroke-linecap="round"></path><path d="M 188.469,231.520 C 189.453,232.751 193.508,234.664 198.856,237.116" stroke-width="7.226" stroke="black" fill="none" stroke-linecap="round"></path><path d="M 198.856,237.116 C 203.096,239.060 203.258,238.696 207.645,240.314" stroke-width="6.069" stroke="black" fill="none" stroke-linecap="round"></path><path d="M 207.645,240.314 C 210.848,241.494 210.824,241.564 214.037,242.712" stroke-width="6.312" stroke="black" fill="none" stroke-linecap="round"></path><path d="M 214.037,242.712 C 216.417,243.562 219.007,244.662 218.832,244.311" stroke-width="6.737" stroke="black" fill="none" stroke-linecap="round"></path><path d="M 218.832,244.311 C 218.608,243.863 216.088,242.614 213.238,241.113" stroke-width="7.579" stroke="black" fill="none" stroke-linecap="round"></path><path d="M 213.238,241.113 C 208.497,238.616 208.444,238.715 203.650,236.317" stroke-width="6.009" stroke="black" fill="none" stroke-linecap="round"></path><path d="M 203.650,236.317 C 198.856,233.919 198.856,233.919 194.062,231.520" stroke-width="5.561" stroke="black" fill="none" stroke-linecap="round"></path><path d="M 194.062,231.520 C 189.268,229.122 189.312,229.029 184.474,226.724" stroke-width="5.532" stroke="black" fill="none" stroke-linecap="round"></path><path d="M 184.474,226.724 C 180.923,225.032 180.888,225.104 177.283,223.526" stroke-width="5.952" stroke="black" fill="none" stroke-linecap="round"></path><path d="M 177.283,223.526 C 174.496,222.306 174.487,222.327 171.690,221.128" stroke-width="6.473" stroke="black" fill="none" stroke-linecap="round"></path><path d="M 171.690,221.128 C 168.894,219.929 166.473,220.607 166.097,218.730" stroke-width="7.265" stroke="black" fill="none" stroke-linecap="round"></path><path d="M 166.097,218.730 C 165.674,216.610 167.702,215.526 170.092,213.134" stroke-width="8.157" stroke="black" fill="none" stroke-linecap="round"></path><path d="M 170.092,213.134 C 172.096,211.129 172.403,211.386 174.886,209.936" stroke-width="7.014" stroke="black" fill="none" stroke-linecap="round"></path><path d="M 174.886,209.936 C 177.197,208.588 177.405,208.939 179.680,207.538" stroke-width="6.893" stroke="black" fill="none" stroke-linecap="round"></path><path d="M 179.680,207.538 C 182.598,205.742 182.448,205.498 185.273,203.541" stroke-width="6.622" stroke="black" fill="none" stroke-linecap="round"></path><path d="M 185.273,203.541 C 187.642,201.901 187.615,201.853 190.067,200.344" stroke-width="6.618" stroke="black" fill="none" stroke-linecap="round"></path><path d="M 190.067,200.344 C 192.809,198.656 192.989,198.928 195.660,197.146" stroke-width="6.554" stroke="black" fill="none" stroke-linecap="round"></path><path d="M 195.660,197.146 C 197.783,195.731 197.511,195.328 199.655,193.948" stroke-width="6.804" stroke="black" fill="none" stroke-linecap="round"></path><path d="M 199.655,193.948 C 203.104,191.731 203.057,190.899 206.846,189.951" stroke-width="7.108" stroke="black" fill="none" stroke-linecap="round"></path><path d="M 206.846,189.951 C 209.449,189.300 210.583,189.048 212.439,190.751" stroke-width="7.909" stroke="black" fill="none" stroke-linecap="round"></path><path d="M 212.439,190.751 C 215.377,193.444 214.523,194.707 216.434,198.745" stroke-width="7.345" stroke="black" fill="none" stroke-linecap="round"></path><path d="M 216.434,198.745 C 218.118,202.302 217.872,202.421 219.630,205.939" stroke-width="6.551" stroke="black" fill="none" stroke-linecap="round"></path><path d="M 219.630,205.939 C 221.867,210.415 221.962,210.373 224.425,214.733" stroke-width="5.805" stroke="black" fill="none" stroke-linecap="round"></path><path d="M 224.425,214.733 C 227.155,219.566 227.194,219.545 230.017,224.326" stroke-width="5.548" stroke="black" fill="none" stroke-linecap="round"></path><path d="M 230.017,224.326 C 232.388,228.339 232.568,228.239 234.811,232.320" stroke-width="5.731" stroke="black" fill="none" stroke-linecap="round"></path><path d="M 234.811,232.320 C 236.962,236.233 236.905,236.272 238.806,240.314" stroke-width="5.847" stroke="black" fill="none" stroke-linecap="round"></path><path d="M 238.806,240.314 C 240.101,243.067 240.859,242.980 241.203,245.910" stroke-width="6.372" stroke="black" fill="none" stroke-linecap="round"></path><path d="M 241.203,245.910 C 241.658,249.775 242.768,252.267 240.405,253.904" stroke-width="7.032" stroke="black" fill="none" stroke-linecap="round"></path><path d="M 240.405,253.904 C 237.574,255.864 235.524,253.961 230.816,253.104" stroke-width="7.385" stroke="black" fill="none" stroke-linecap="round"></path><path d="M 230.816,253.104 C 226.735,252.362 226.715,252.188 222.826,250.706" stroke-width="6.387" stroke="black" fill="none" stroke-linecap="round"></path><path d="M 222.826,250.706 C 218.326,248.991 218.391,248.792 214.037,246.709" stroke-width="5.920" stroke="black" fill="none" stroke-linecap="round"></path><path d="M 214.037,246.709 C 209.203,244.396 209.160,244.465 204.449,241.913" stroke-width="5.634" stroke="black" fill="none" stroke-linecap="round"></path><path d="M 204.449,241.913 C 199.572,239.269 199.601,239.203 194.861,236.317" stroke-width="5.500" stroke="black" fill="none" stroke-linecap="round"></path><path d="M 194.861,236.317 C 190.413,233.608 190.439,233.561 186.072,230.721" stroke-width="5.556" stroke="black" fill="none" stroke-linecap="round"></path><path d="M 186.072,230.721 C 182.449,228.365 182.442,228.374 178.881,225.924" stroke-width="5.837" stroke="black" fill="none" stroke-linecap="round"></path><path d="M 178.881,225.924 C 176.050,223.977 176.037,223.990 173.288,221.928" stroke-width="6.226" stroke="black" fill="none" stroke-linecap="round"></path><path d="M 173.288,221.928 C 171.243,220.392 171.291,220.329 169.293,218.730" stroke-width="6.753" stroke="black" fill="none" stroke-linecap="round"></path><path d="M 169.293,218.730 C 167.296,217.131 165.097,215.934 165.298,215.532" stroke-width="7.683" stroke="black" fill="none" stroke-linecap="round"></path><path d="M 165.298,215.532 C 165.497,215.135 170.745,217.784 170.092,217.131" stroke-width="8.230" stroke="black" fill="none" stroke-linecap="round"></path><path d="M 170.092,217.131 C 168.747,215.785 165.800,214.159 161.303,211.535" stroke-width="7.685" stroke="black" fill="none" stroke-linecap="round"></path><path d="M 161.303,211.535 C 156.212,208.564 156.023,208.887 150.916,205.939" stroke-width="5.960" stroke="black" fill="none" stroke-linecap="round"></path><path d="M 150.916,205.939 C 145.636,202.892 145.700,202.778 140.529,199.544" stroke-width="5.437" stroke="black" fill="none" stroke-linecap="round"></path><path d="M 140.529,199.544 C 136.112,196.782 136.144,196.731 131.740,193.948" stroke-width="5.447" stroke="black" fill="none" stroke-linecap="round"></path><path d="M 131.740,193.948 C 128.554,191.935 128.483,192.042 125.348,189.951" stroke-width="5.975" stroke="black" fill="none" stroke-linecap="round"></path><path d="M 125.348,189.951 C 122.490,188.045 122.673,187.751 119.755,185.954" stroke-width="6.959" stroke="black" fill="none" stroke-linecap="round"></path><path d="M 119.755,185.954 C 117.480,184.553 114.348,183.403 114.961,183.556" stroke-width="8.039" stroke="black" fill="none" stroke-linecap="round"></path><path d="M 114.961,183.556 C 115.946,183.802 118.893,185.327 122.951,186.754" stroke-width="8.013" stroke="black" fill="none" stroke-linecap="round"></path><path d="M 122.951,186.754 C 133.675,190.523 133.771,190.255 144.524,193.948" stroke-width="4.561" stroke="black" fill="none" stroke-linecap="round"></path><path d="M 144.524,193.948 C 160.537,199.448 160.659,199.134 176.484,205.140" stroke-width="4.500" stroke="black" fill="none" stroke-linecap="round"></path><path d="M 176.484,205.140 C 195.416,212.324 195.374,212.466 214.037,220.329" stroke-width="4.500" stroke="black" fill="none" stroke-linecap="round"></path><path d="M 214.037,220.329 C 233.326,228.454 233.323,228.482 252.390,237.116" stroke-width="4.500" stroke="black" fill="none" stroke-linecap="round"></path><path d="M 252.390,237.116 C 271.275,245.669 271.282,245.669 289.943,254.703" stroke-width="4.500" stroke="black" fill="none" stroke-linecap="round"></path><path d="M 289.943,254.703 C 308.436,263.656 308.538,263.484 326.697,273.089" stroke-width="4.500" stroke="black" fill="none" stroke-linecap="round"></path><path d="M 326.697,273.089 C 343.295,281.870 343.150,282.153 359.456,291.476" stroke-width="4.500" stroke="black" fill="none" stroke-linecap="round"></path><path d="M 359.456,291.476 C 373.912,299.740 373.863,299.827 388.220,308.263" stroke-width="4.500" stroke="black" fill="none" stroke-linecap="round"></path><path d="M 388.220,308.263 C 399.031,314.616 399.108,314.494 409.793,321.054" stroke-width="4.500" stroke="black" fill="none" stroke-linecap="round"></path><path d="M 409.793,321.054 C 416.686,325.286 416.745,325.232 423.376,329.847" stroke-width="4.500" stroke="black" fill="none" stroke-linecap="round"></path><path d="M 423.376,329.847 C 425.934,331.627 430.006,333.660 428.170,333.844" stroke-width="5.619" stroke="black" fill="none" stroke-linecap="round"></path><path d="M 428.170,333.844 C 422.016,334.460 417.669,333.315 407.396,331.446" stroke-width="6.109" stroke="black" fill="none" stroke-linecap="round"></path><path d="M 407.396,331.446 C 391.302,328.518 391.486,327.501 375.436,324.251" stroke-width="4.500" stroke="black" fill="none" stroke-linecap="round"></path><path d="M 375.436,324.251 C 357.928,320.706 357.876,320.951 340.280,317.856" stroke-width="4.500" stroke="black" fill="none" stroke-linecap="round"></path><path d="M 340.280,317.856 C 321.521,314.556 321.581,314.098 302.727,311.461" stroke-width="4.500" stroke="black" fill="none" stroke-linecap="round"></path><path d="M 302.727,311.461 C 284.428,308.902 284.365,309.304 265.973,307.464" stroke-width="4.500" stroke="black" fill="none" stroke-linecap="round"></path><path d="M 265.973,307.464 C 248.410,305.707 248.429,305.105 230.816,304.266" stroke-width="4.500" stroke="black" fill="none" stroke-linecap="round"></path><path d="M 230.816,304.266 C 214.871,303.506 214.805,303.601 198.856,304.266" stroke-width="4.500" stroke="black" fill="none" stroke-linecap="round"></path><path d="M 198.856,304.266 C 186.041,304.800 186.016,305.044 173.288,306.664" stroke-width="4.500" stroke="black" fill="none" stroke-linecap="round"></path><path d="M 173.288,306.664 C 164.044,307.841 163.791,307.324 154.911,309.862" stroke-width="4.500" stroke="black" fill="none" stroke-linecap="round"></path><path d="M 154.911,309.862 C 149.808,311.321 147.835,311.003 145.323,314.658" stroke-width="4.978" stroke="black" fill="none" stroke-linecap="round"></path><path d="M 145.323,314.658 C 143.441,317.398 144.008,319.550 146.122,322.652" stroke-width="5.646" stroke="black" fill="none" stroke-linecap="round"></path><path d="M 146.122,322.652 C 150.001,328.343 151.192,328.166 157.308,332.245" stroke-width="5.139" stroke="black" fill="none" stroke-linecap="round"></path><path d="M 157.308,332.245 C 177.559,345.753 177.766,345.580 198.856,357.826" stroke-width="4.500" stroke="black" fill="none" stroke-linecap="round"></path><path d="M 198.856,357.826 C 222.510,371.560 222.844,370.985 246.797,384.206" stroke-width="4.500" stroke="black" fill="none" stroke-linecap="round"></path><path d="M 246.797,384.206 C 269.186,396.565 269.144,396.641 291.541,408.988" stroke-width="4.500" stroke="black" fill="none" stroke-linecap="round"></path><path d="M 291.541,408.988 C 308.295,418.225 308.257,418.301 325.099,427.374" stroke-width="4.500" stroke="black" fill="none" stroke-linecap="round"></path><path d="M 325.099,427.374 C 329.031,429.493 329.094,429.373 333.089,431.371" stroke-width="4.500" stroke="black" fill="none" stroke-linecap="round"></path></svg>