<svg xmlns="http://www.w3.org/2000/svg" xmlns:xlink="http://www.w3.org/1999/xlink" viewBox="0 0 576 416" width="576" height="416"><path d="M 302.727,193.948 C 303.925,189.951 304.008,189.974 305.124,185.954" stroke-width="8.624" stroke="black" fill="none" stroke-linecap="round"></path><path d="M 305.124,185.954 C 306.005,182.779 306.907,179.373 306.722,179.559" stroke-width="7.806" stroke="black" fill="none" stroke-linecap="round"></path><path d="M 306.722,179.559 C 306.508,179.773 305.523,183.156 304.325,186.754" stroke-width="8.212" stroke="black" fill="none" stroke-linecap="round"></path><path d="M 304.325,186.754 C 303.126,190.351 303.126,190.351 301.928,193.948" stroke-width="6.711" stroke="black" fill="none" stroke-linecap="round"></path><path d="M 301.928,193.948 C 300.330,198.745 300.529,198.822 298.732,203.541" stroke-width="6.102" stroke="black" fill="none" stroke-linecap="round"></path><path d="M 298.732,203.541 C 297.333,207.216 296.840,210.518 295.536,210.736" stroke-width="6.899" stroke="black" fill="none" stroke-linecap="round"></path><path d="M 295.536,210.736 C 294.443,210.918 294.370,207.583 293.938,204.341" stroke-width="7.918" stroke="black" fill="none" stroke-linecap="round"></path><path d="M 293.938,204.341 C 293.571,201.588 295.067,198.321 293.938,198.745" stroke-width="7.784" stroke="black" fill="none" stroke-linecap="round"></path><path d="M 293.938,198.745 C 291.871,199.520 290.149,202.397 287.546,206.739" stroke-width="7.957" stroke="black" fill="none" stroke-linecap="round"></path><path d="M 287.546,206.739 C 285.355,210.391 286.354,210.973 284.350,214.733" stroke-width="7.429" stroke="black" fill="none" stroke-linecap="round"></path><path d="M 284.350,214.733 C 283.158,216.968 282.103,219.110 281.154,218.730" stroke-width="7.929" stroke="black" fill="none" stroke-linecap="round"></path><path d="M 281.154,218.730 C 280.105,218.310 281.742,213.308 280.355,213.134" stroke-width="8.191" stroke="black" fill="none" stroke-linecap="round"></path><path d="M 280.355,213.134 C 278.546,212.908 277.026,215.098 274.762,217.931" stroke-width="8.260" stroke="black" fill="none" stroke-linecap="round"></path><path d="M 274.762,217.931 C 272.232,221.094 272.749,225.486 270.767,225.125" stroke-width="7.491" stroke="black" fill="none" stroke-linecap="round"></path><path d="M 270.767,225.125 C 268.354,224.686 267.661,220.978 265.973,216.332" stroke-width="7.875" stroke="black" fill="none" stroke-linecap="round"></path><path d="M 265.973,216.332 C 264.465,212.185 265.210,211.928 264.375,207.538" stroke-width="6.379" stroke="black" fill="none" stroke-linecap="round"></path><path d="M 264.375,207.538 C 263.612,203.534 263.942,203.432 262.777,199.544" stroke-width="6.169" stroke="black" fill="none" stroke-linecap="round"></path><path d="M 262.777,199.544 C 261.545,195.438 261.140,195.562 259.581,191.550" stroke-width="6.031" stroke="black" fill="none" stroke-linecap="round"></path><path d="M 259.581,191.550 C 258.343,188.368 258.622,188.240 257.184,185.155" stroke-width="6.299" stroke="black" fill="none" stroke-linecap="round"></path><path d="M 257.184,185.155 C 255.826,182.244 256.261,181.644 253.988,179.559" stroke-width="6.525" stroke="black" fill="none" stroke-linecap="round"></path><path d="M 253.988,179.559 C 251.467,177.247 250.333,175.631 247.596,176.362" stroke-width="7.112" stroke="black" fill="none" stroke-linecap="round"></path><path d="M 247.596,176.362 C 244.341,177.230 244.185,179.183 242.003,182.757" stroke-width="7.174" stroke="black" fill="none" stroke-linecap="round"></path><path d="M 242.003,182.757 C 239.791,186.378 240.038,186.645 238.806,190.751" stroke-width="6.290" stroke="black" fill="none" stroke-linecap="round"></path><path d="M 238.806,190.751 C 237.641,194.639 237.656,194.713 237.208,198.745" stroke-width="6.223" stroke="black" fill="none" stroke-linecap="round"></path><path d="M 237.208,198.745 C 236.857,201.908 235.424,203.192 237.208,205.140" stroke-width="6.366" stroke="black" fill="none" stroke-linecap="round"></path><path d="M 237.208,205.140 C 239.818,207.989 241.796,208.886 245.998,208.338" stroke-width="6.835" stroke="black" fill="none" stroke-linecap="round"></path><path d="M 245.998,208.338 C 250.985,207.687 251.125,206.015 255.586,202.742" stroke-width="5.799" stroke="black" fill="none" stroke-linecap="round"></path><path d="M 255.586,202.742 C 263.110,197.221 262.947,196.932 269.968,190.751" stroke-width="4.647" stroke="black" fill="none" stroke-linecap="round"></path><path d="M 269.968,190.751 C 272.934,188.139 272.571,187.738 275.561,185.155" stroke-width="5.665" stroke="black" fill="none" stroke-linecap="round"></path><path d="M 275.561,185.155 C 281.360,180.143 287.216,173.581 287.546,175.562" stroke-width="4.870" stroke="black" fill="none" stroke-linecap="round"></path><path d="M 287.546,175.562 C 288.015,178.377 283.024,185.579 277.159,194.748" stroke-width="5.792" stroke="black" fill="none" stroke-linecap="round"></path><path d="M 277.159,194.748 C 270.239,205.564 269.929,205.426 261.978,215.532" stroke-width="4.500" stroke="black" fill="none" stroke-linecap="round"></path><path d="M 261.978,215.532 C 255.148,224.212 254.949,224.071 247.596,232.320" stroke-width="4.500" stroke="black" fill="none" stroke-linecap="round"></path><path d="M 247.596,232.320 C 241.765,238.860 241.800,238.917 235.611,245.110" stroke-width="4.500" stroke="black" fill="none" stroke-linecap="round"></path><path d="M 235.611,245.110 C 232.212,248.510 232.349,248.885 228.419,251.505" stroke-width="5.182" stroke="black" fill="none" stroke-linecap="round"></path><path d="M 228.419,251.505 C 226.356,252.882 224.855,254.158 223.625,253.104" stroke-width="6.298" stroke="black" fill="none" stroke-linecap="round"></path><path d="M 223.625,253.104 C 222.058,251.760 222.703,249.910 222.826,246.709" stroke-width="7.135" stroke="black" fill="none" stroke-linecap="round"></path><path d="M 222.826,246.709 C 223.103,239.518 223.608,239.512 224.425,232.320" stroke-width="5.483" stroke="black" fill="none" stroke-linecap="round"></path><path d="M 224.425,232.320 C 225.605,221.925 225.821,221.947 226.822,211.535" stroke-width="4.500" stroke="black" fill="none" stroke-linecap="round"></path><path d="M 226.822,211.535 C 227.818,201.162 227.820,201.154 228.419,190.751" stroke-width="4.500" stroke="black" fill="none" stroke-linecap="round"></path><path d="M 228.419,190.751 C 229.018,180.370 229.015,180.362 229.218,169.966" stroke-width="4.500" stroke="black" fill="none" stroke-linecap="round"></path><path d="M 229.218,169.966 C 229.414,159.978 230.028,159.907 229.218,149.981" stroke-width="4.500" stroke="black" fill="none" stroke-linecap="round"></path><path d="M 229.218,149.981 C 228.430,140.321 227.850,140.344 226.022,130.796" stroke-width="4.500" stroke="black" fill="none" stroke-linecap="round"></path><path d="M 226.022,130.796 C 224.255,121.558 224.498,121.473 222.027,112.409" stroke-width="4.500" stroke="black" fill="none" stroke-linecap="round"></path><path d="M 222.027,112.409 C 219.704,103.886 219.855,103.749 216.434,95.622" stroke-width="4.500" stroke="black" fill="none" stroke-linecap="round"></path><path d="M 216.434,95.622 C 213.463,88.560 213.190,88.613 209.243,82.032" stroke-width="4.586" stroke="black" fill="none" stroke-linecap="round"></path><path d="M 209.243,82.032 C 205.999,76.622 205.908,76.632 202.052,71.640" stroke-width="4.975" stroke="black" fill="none" stroke-linecap="round"></path><path d="M 202.052,71.640 C 199.116,67.838 199.054,67.841 195.660,64.445" stroke-width="5.491" stroke="black" fill="none" stroke-linecap="round"></path><path d="M 195.660,64.445 C 193.062,61.845 192.380,59.649 190.067,59.649" stroke-width="6.020" stroke="black" fill="none" stroke-linecap="round"></path><path d="M 190.067,59.649 C 188.385,59.649 187.084,62.096 187.670,64.445" stroke-width="7.477" stroke="black" fill="none" stroke-linecap="round"></path><path d="M 187.670,64.445 C 189.081,70.090 190.679,70.155 194.062,75.637" stroke-width="5.654" stroke="black" fill="none" stroke-linecap="round"></path><path d="M 194.062,75.637 C 199.068,83.745 199.205,83.664 204.449,91.625" stroke-width="4.586" stroke="black" fill="none" stroke-linecap="round"></path><path d="M 204.449,91.625 C 210.791,101.251 210.841,101.218 217.233,110.810" stroke-width="4.500" stroke="black" fill="none" stroke-linecap="round"></path><path d="M 217.233,110.810 C 224.424,121.602 224.247,121.725 231.615,132.394" stroke-width="4.500" stroke="black" fill="none" stroke-linecap="round"></path><path d="M 231.615,132.394 C 239.428,143.708 239.319,143.801 247.596,154.778" stroke-width="4.500" stroke="black" fill="none" stroke-linecap="round"></path><path d="M 247.596,154.778 C 256.498,166.584 256.759,166.389 265.973,177.960" stroke-width="4.500" stroke="black" fill="none" stroke-linecap="round"></path><path d="M 265.973,177.960 C 275.536,189.971 275.585,189.932 285.149,201.942" stroke-width="4.500" stroke="black" fill="none" stroke-linecap="round"></path><path d="M 285.149,201.942 C 294.362,213.514 294.120,213.713 303.526,225.125" stroke-width="4.500" stroke="black" fill="none" stroke-linecap="round"></path><path d="M 303.526,225.125 C 312.897,236.496 313.504,236.006 322.702,247.508" stroke-width="4.500" stroke="black" fill="none" stroke-linecap="round"></path><path d="M 322.702,247.508 C 331.082,257.989 330.959,258.113 338.682,269.092" stroke-width="4.500" stroke="black" fill="none" stroke-linecap="round"></path><path d="M 338.682,269.092 C 346.140,279.696 346.065,279.761 353.064,290.676" stroke-width="4.500" stroke="black" fill="none" stroke-linecap="round"></path><path d="M 353.064,290.676 C 359.648,300.945 359.823,300.860 365.848,311.461" stroke-width="4.500" stroke="black" fill="none" stroke-linecap="round"></path><path d="M 365.848,311.461 C 371.409,321.245 371.112,321.417 376.235,331.446" stroke-width="4.500" stroke="black" fill="none" stroke-linecap="round"></path><path d="M 376.235,331.446 C 380.300,339.404 380.402,339.359 384.225,347.434" stroke-width="4.500" stroke="black" fill="none" stroke-linecap="round"></path><path d="M 384.225,347.434 C 387.593,354.547 387.378,354.648 390.617,361.823" stroke-width="4.600" stroke="black" fill="none" stroke-linecap="round"></path><path d="M 390.617,361.823 C 392.971,367.039 393.383,366.889 395.411,372.215" stroke-width="5.035" stroke="black" fill="none" stroke-linecap="round"></path><path d="M 395.411,372.215 C 396.579,375.283 397.847,378.778 397.009,378.611" stroke-width="5.969" stroke="black" fill="none" stroke-linecap="round"></path><path d="M 397.009,378.611 C 395.850,378.379 393.679,375.341 391.416,371.416" stroke-width="7.230" stroke="black" fill="none" stroke-linecap="round"></path><path d="M 391.416,371.416 C 387.686,364.948 387.808,364.789 385.024,357.826" stroke-width="5.201" stroke="black" fill="none" stroke-linecap="round"></path><path d="M 385.024,357.826 C 381.416,348.801 381.708,348.673 378.632,339.440" stroke-width="4.500" stroke="black" fill="none" stroke-linecap="round"></path><path d="M 378.632,339.440 C 375.316,329.487 375.270,329.497 372.240,319.455" stroke-width="4.500" stroke="black" fill="none" stroke-linecap="round"></path><path d="M 372.240,319.455 C 368.878,308.313 368.908,308.300 365.848,297.071" stroke-width="4.500" stroke="black" fill="none" stroke-linecap="round"></path><path d="M 365.848,297.071 C 362.916,286.316 363.101,286.266 360.255,275.488" stroke-width="4.500" stroke="black" fill="none" stroke-linecap="round"></path><path d="M 360.255,275.488 C 357.508,265.082 357.318,265.131 354.662,254.703" stroke-width="4.500" stroke="black" fill="none" stroke-linecap="round"></path><path d="M 354.662,254.703 C 352.125,244.746 352.408,244.674 349.868,234.718" stroke-width="4.500" stroke="black" fill="none" stroke-linecap="round"></path><path d="M 349.868,234.718 C 347.614,225.888 347.690,225.858 345.074,217.131" stroke-width="4.500" stroke="black" fill="none" stroke-linecap="round"></path><path d="M 345.074,217.131 C 342.896,209.870 343.358,209.612 340.280,202.742" stroke-width="4.583" stroke="black" fill="none" stroke-linecap="round"></path><path d="M 340.280,202.742 C 338.164,198.021 338.181,197.663 334.687,193.948" stroke-width="5.238" stroke="black" fill="none" stroke-linecap="round"></path><path d="M 334.687,193.948 C 331.789,190.868 331.369,188.682 327.496,189.152" stroke-width="5.727" stroke="black" fill="none" stroke-linecap="round"></path><path d="M 327.496,189.152 C 318.186,190.281 317.110,191.771 308.320,197.146" stroke-width="5.628" stroke="black" fill="none" stroke-linecap="round"></path><path d="M 308.320,197.146 C 295.537,204.961 295.346,205.264 284.350,215.532" stroke-width="4.500" stroke="black" fill="none" stroke-linecap="round"></path><path d="M 284.350,215.532 C 271.376,227.647 271.918,228.343 260.380,241.913" stroke-width="4.500" stroke="black" fill="none" stroke-linecap="round"></path><path d="M 260.380,241.913 C 249.146,255.123 249.469,255.406 238.806,269.092" stroke-width="4.500" stroke="black" fill="none" stroke-linecap="round"></path><path d="M 238.806,269.092 C 228.295,282.585 228.511,282.754 218.032,296.272" stroke-width="4.500" stroke="black" fill="none" stroke-linecap="round"></path><path d="M 218.032,296.272 C 213.330,302.339 212.643,301.852 208.444,308.263" stroke-width="4.500" stroke="black" fill="none" stroke-linecap="round"></path><path d="M 208.444,308.263 C 197.462,325.035 198.283,325.593 187.670,342.637" stroke-width="4.500" stroke="black" fill="none" stroke-linecap="round"></path><path d="M 187.670,342.637 C 183.102,349.975 182.684,349.715 178.082,357.027" stroke-width="4.500" stroke="black" fill="none" stroke-linecap="round"></path><path d="M 178.082,357.027 C 175.892,360.507 172.860,366.015 174.087,364.221" stroke-width="5.220" stroke="black" fill="none" stroke-linecap="round"></path><path d="M 174.087,364.221 C 178.054,358.421 180.945,352.803 188.469,341.838" stroke-width="6.019" stroke="black" fill="none" stroke-linecap="round"></path><path d="M 188.469,341.838 C 199.322,326.023 199.274,325.962 210.841,310.661" stroke-width="4.500" stroke="black" fill="none" stroke-linecap="round"></path><path d="M 210.841,310.661 C 222.845,294.785 223.131,294.997 235.611,279.485" stroke-width="4.500" stroke="black" fill="none" stroke-linecap="round"></path><path d="M 235.611,279.485 C 249.498,262.221 249.417,262.151 263.576,245.110" stroke-width="4.500" stroke="black" fill="none" stroke-linecap="round"></path><path d="M 263.576,245.110 C 276.982,228.975 277.316,229.252 290.742,213.134" stroke-width="4.500" stroke="black" fill="none" stroke-linecap="round"></path><path d="M 290.742,213.134 C 297.292,205.270 296.850,204.902 303.526,197.146" stroke-width="4.500" stroke="black" fill="none" stroke-linecap="round"></path><path d="M 303.526,197.146 C 321.619,176.123 321.699,176.177 340.280,155.577" stroke-width="4.500" stroke="black" fill="none" stroke-linecap="round"></path><path d="M 340.280,155.577 C 351.262,143.401 351.395,143.519 362.652,131.595" stroke-width="4.500" stroke="black" fill="none" stroke-linecap="round"></path><path d="M 362.652,131.595 C 371.770,121.936 371.753,121.916 381.029,112.409" stroke-width="4.500" stroke="black" fill="none" stroke-linecap="round"></path><path d="M 381.029,112.409 C 388.132,105.129 388.220,105.215 395.411,98.020" stroke-width="4.500" stroke="black" fill="none" stroke-linecap="round"></path><path d="M 395.411,98.020 C 399.805,93.623 399.685,93.493 404.200,89.227" stroke-width="4.684" stroke="black" fill="none" stroke-linecap="round"></path></svg>