<svg xmlns="http://www.w3.org/2000/svg" xmlns:xlink="http://www.w3.org/1999/xlink" viewBox="0 0 576 416" width="576" height="416"><path d="M 142.127,153.967 C 146.122,154.767 147.005,153.490 150.117,155.566" stroke-width="8.696" stroke="black" fill="none" stroke-linecap="round"></path><path d="M 150.117,155.566 C 152.998,157.487 152.620,158.549 154.112,161.962" stroke-width="7.720" stroke="black" fill="none" stroke-linecap="round"></path><path d="M 154.112,161.962 C 155.417,164.944 155.032,165.133 155.710,168.357" stroke-width="6.812" stroke="black" fill="none" stroke-linecap="round"></path><path d="M 155.710,168.357 C 156.630,172.727 156.755,172.722 157.308,177.150" stroke-width="6.146" stroke="black" fill="none" stroke-linecap="round"></path><path d="M 157.308,177.150 C 157.954,182.315 157.736,182.344 158.107,187.542" stroke-width="5.984" stroke="black" fill="none" stroke-linecap="round"></path><path d="M 158.107,187.542 C 158.535,193.536 158.706,193.531 158.906,199.534" stroke-width="5.468" stroke="black" fill="none" stroke-linecap="round"></path><path d="M 158.906,199.534 C 159.106,205.522 158.906,205.529 158.906,211.525" stroke-width="5.237" stroke="black" fill="none" stroke-linecap="round"></path><path d="M 158.906,211.525 C 158.906,217.120 158.906,217.120 158.906,222.716" stroke-width="5.278" stroke="black" fill="none" stroke-linecap="round"></path><path d="M 158.906,222.716 C 158.906,227.912 158.699,227.921 158.906,233.108" stroke-width="5.490" stroke="black" fill="none" stroke-linecap="round"></path><path d="M 158.906,233.108 C 159.098,237.913 159.084,237.934 159.705,242.701" stroke-width="5.667" stroke="black" fill="none" stroke-linecap="round"></path><path d="M 159.705,242.701 C 160.282,247.127 160.598,247.083 161.303,251.495" stroke-width="5.827" stroke="black" fill="none" stroke-linecap="round"></path><path d="M 161.303,251.495 C 162.196,257.075 162.042,257.100 162.901,262.686" stroke-width="5.428" stroke="black" fill="none" stroke-linecap="round"></path><path d="M 162.901,262.686 C 163.640,267.492 163.871,267.461 164.499,272.279" stroke-width="5.712" stroke="black" fill="none" stroke-linecap="round"></path><path d="M 164.499,272.279 C 165.070,276.654 164.612,276.724 165.298,281.073" stroke-width="5.773" stroke="black" fill="none" stroke-linecap="round"></path><path d="M 165.298,281.073 C 165.811,284.319 166.356,284.225 166.896,287.468" stroke-width="6.254" stroke="black" fill="none" stroke-linecap="round"></path><path d="M 107.770,157.965 C 108.569,153.967 107.896,153.654 109.368,149.970" stroke-width="8.446" stroke="black" fill="none" stroke-linecap="round"></path><path d="M 109.368,149.970 C 110.293,147.658 110.766,147.772 112.564,145.973" stroke-width="7.315" stroke="black" fill="none" stroke-linecap="round"></path><path d="M 112.564,145.973 C 114.362,144.175 114.514,144.311 116.559,142.776" stroke-width="7.032" stroke="black" fill="none" stroke-linecap="round"></path><path d="M 116.559,142.776 C 119.308,140.714 119.321,140.727 122.152,138.779" stroke-width="6.584" stroke="black" fill="none" stroke-linecap="round"></path><path d="M 122.152,138.779 C 125.713,136.330 125.627,136.180 129.343,133.982" stroke-width="6.139" stroke="black" fill="none" stroke-linecap="round"></path><path d="M 129.343,133.982 C 134.416,130.983 134.562,131.230 139.730,128.387" stroke-width="5.630" stroke="black" fill="none" stroke-linecap="round"></path><path d="M 139.730,128.387 C 142.552,126.834 142.397,126.520 145.323,125.189" stroke-width="6.080" stroke="black" fill="none" stroke-linecap="round"></path><path d="M 145.323,125.189 C 151.186,122.523 151.101,121.945 157.308,120.393" stroke-width="5.371" stroke="black" fill="none" stroke-linecap="round"></path><path d="M 157.308,120.393 C 163.885,118.748 164.087,119.013 170.891,118.794" stroke-width="5.097" stroke="black" fill="none" stroke-linecap="round"></path><path d="M 170.891,118.794 C 176.471,118.614 176.632,118.503 182.077,119.593" stroke-width="5.231" stroke="black" fill="none" stroke-linecap="round"></path><path d="M 182.077,119.593 C 186.619,120.502 187.258,120.083 190.866,122.791" stroke-width="5.621" stroke="black" fill="none" stroke-linecap="round"></path><path d="M 190.866,122.791 C 195.248,126.079 195.649,126.764 198.057,131.584" stroke-width="5.629" stroke="black" fill="none" stroke-linecap="round"></path><path d="M 198.057,131.584 C 199.244,133.959 198.908,134.626 198.057,137.180" stroke-width="6.441" stroke="black" fill="none" stroke-linecap="round"></path><path d="M 198.057,137.180 C 196.911,140.622 196.376,140.629 194.062,143.575" stroke-width="7.036" stroke="black" fill="none" stroke-linecap="round"></path><path d="M 194.062,143.575 C 191.982,146.225 191.469,145.803 189.268,148.372" stroke-width="6.679" stroke="black" fill="none" stroke-linecap="round"></path><path d="M 189.268,148.372 C 186.675,151.399 186.813,151.527 184.474,154.767" stroke-width="6.190" stroke="black" fill="none" stroke-linecap="round"></path><path d="M 184.474,154.767 C 181.620,158.722 181.764,158.828 178.881,162.761" stroke-width="5.852" stroke="black" fill="none" stroke-linecap="round"></path><path d="M 178.881,162.761 C 177.369,164.824 177.056,164.603 175.685,166.758" stroke-width="6.616" stroke="black" fill="none" stroke-linecap="round"></path><path d="M 175.685,166.758 C 171.463,173.396 171.712,173.566 167.695,180.348" stroke-width="5.122" stroke="black" fill="none" stroke-linecap="round"></path><path d="M 167.695,180.348 C 165.320,184.358 165.389,184.402 162.901,188.342" stroke-width="5.587" stroke="black" fill="none" stroke-linecap="round"></path><path d="M 162.901,188.342 C 160.595,191.996 160.217,191.784 158.107,195.536" stroke-width="5.764" stroke="black" fill="none" stroke-linecap="round"></path><path d="M 158.107,195.536 C 156.622,198.179 156.909,198.334 155.710,201.132" stroke-width="6.405" stroke="black" fill="none" stroke-linecap="round"></path><path d="M 155.710,201.132 C 154.512,203.930 151.767,205.884 153.313,206.728" stroke-width="7.239" stroke="black" fill="none" stroke-linecap="round"></path><path d="M 153.313,206.728 C 156.162,208.283 158.918,206.452 164.499,205.929" stroke-width="7.317" stroke="black" fill="none" stroke-linecap="round"></path><path d="M 164.499,205.929 C 171.702,205.253 171.730,205.403 178.881,204.330" stroke-width="5.406" stroke="black" fill="none" stroke-linecap="round"></path><path d="M 178.881,204.330 C 187.710,203.005 187.639,202.536 196.459,201.132" stroke-width="4.651" stroke="black" fill="none" stroke-linecap="round"></path><path d="M 196.459,201.132 C 205.217,199.738 205.256,199.989 214.037,198.734" stroke-width="4.500" stroke="black" fill="none" stroke-linecap="round"></path><path d="M 214.037,198.734 C 222.035,197.591 221.988,197.005 230.017,196.336" stroke-width="4.572" stroke="black" fill="none" stroke-linecap="round"></path><path d="M 230.017,196.336 C 236.370,195.806 236.447,195.882 242.802,196.336" stroke-width="4.953" stroke="black" fill="none" stroke-linecap="round"></path><path d="M 242.802,196.336 C 247.633,196.681 247.890,196.359 252.390,197.935" stroke-width="5.470" stroke="black" fill="none" stroke-linecap="round"></path><path d="M 252.390,197.935 C 255.880,199.157 256.065,199.440 258.782,201.932" stroke-width="5.984" stroke="black" fill="none" stroke-linecap="round"></path><path d="M 258.782,201.932 C 260.859,203.837 261.220,204.076 261.978,206.728" stroke-width="6.482" stroke="black" fill="none" stroke-linecap="round"></path><path d="M 261.978,206.728 C 262.818,209.671 263.077,210.237 261.978,213.123" stroke-width="6.522" stroke="black" fill="none" stroke-linecap="round"></path><path d="M 261.978,213.123 C 259.881,218.630 259.103,218.548 255.586,223.516" stroke-width="6.556" stroke="black" fill="none" stroke-linecap="round"></path><path d="M 255.586,223.516 C 252.311,228.141 251.918,227.856 248.395,232.309" stroke-width="5.698" stroke="black" fill="none" stroke-linecap="round"></path><path d="M 248.395,232.309 C 244.328,237.448 244.497,237.583 240.405,242.701" stroke-width="5.252" stroke="black" fill="none" stroke-linecap="round"></path><path d="M 240.405,242.701 C 236.507,247.576 236.389,247.481 232.415,252.294" stroke-width="5.208" stroke="black" fill="none" stroke-linecap="round"></path><path d="M 232.415,252.294 C 228.798,256.674 228.796,256.672 225.223,261.088" stroke-width="5.421" stroke="black" fill="none" stroke-linecap="round"></path><path d="M 225.223,261.088 C 222.004,265.066 222.316,265.363 218.832,269.082" stroke-width="5.557" stroke="black" fill="none" stroke-linecap="round"></path><path d="M 218.832,269.082 C 216.323,271.758 216.153,271.635 213.238,273.878" stroke-width="5.967" stroke="black" fill="none" stroke-linecap="round"></path><path d="M 213.238,273.878 C 210.959,275.632 211.101,276.190 208.444,277.076" stroke-width="6.476" stroke="black" fill="none" stroke-linecap="round"></path><path d="M 208.444,277.076 C 205.109,278.188 204.766,278.354 201.253,277.875" stroke-width="6.361" stroke="black" fill="none" stroke-linecap="round"></path><path d="M 201.253,277.875 C 195.977,277.155 195.869,276.725 190.866,274.677" stroke-width="6.707" stroke="black" fill="none" stroke-linecap="round"></path><path d="M 190.866,274.677 C 187.080,273.127 187.219,272.766 183.675,270.680" stroke-width="6.327" stroke="black" fill="none" stroke-linecap="round"></path><path d="M 183.675,270.680 C 180.428,268.769 180.453,268.722 177.283,266.683" stroke-width="6.087" stroke="black" fill="none" stroke-linecap="round"></path><path d="M 177.283,266.683 C 174.860,265.125 174.352,265.556 172.489,263.486" stroke-width="6.518" stroke="black" fill="none" stroke-linecap="round"></path><path d="M 172.489,263.486 C 170.756,261.559 171.291,261.088 170.092,258.689" stroke-width="6.741" stroke="black" fill="none" stroke-linecap="round"></path><path d="M 222.826,153.168 C 224.424,158.764 224.667,158.707 226.022,164.360" stroke-width="8.591" stroke="black" fill="none" stroke-linecap="round"></path><path d="M 226.022,164.360 C 227.064,168.700 227.043,168.727 227.620,173.153" stroke-width="6.609" stroke="black" fill="none" stroke-linecap="round"></path><path d="M 227.620,173.153 C 228.242,177.920 228.064,177.946 228.419,182.746" stroke-width="5.884" stroke="black" fill="none" stroke-linecap="round"></path><path d="M 228.419,182.746 C 228.863,188.738 228.791,188.744 229.218,194.737" stroke-width="5.442" stroke="black" fill="none" stroke-linecap="round"></path><path d="M 229.218,194.737 C 229.590,199.935 229.397,199.960 230.017,205.129" stroke-width="5.537" stroke="black" fill="none" stroke-linecap="round"></path><path d="M 230.017,205.129 C 230.596,209.953 231.079,209.895 231.615,214.722" stroke-width="5.667" stroke="black" fill="none" stroke-linecap="round"></path><path d="M 231.615,214.722 C 232.278,220.687 231.894,220.729 232.415,226.713" stroke-width="6.321" stroke="black" fill="none" stroke-linecap="round"></path><path d="M 232.415,226.713 C 232.693,229.922 232.788,229.914 233.214,233.108" stroke-width="6.303" stroke="black" fill="none" stroke-linecap="round"></path><path d="M 233.214,233.108 C 233.587,235.910 233.593,235.909 234.013,238.704" stroke-width="6.612" stroke="black" fill="none" stroke-linecap="round"></path><path d="M 190.067,146.773 C 190.467,141.577 189.811,141.395 190.866,136.381" stroke-width="8.345" stroke="black" fill="none" stroke-linecap="round"></path><path d="M 190.866,136.381 C 191.409,133.801 191.787,133.800 193.263,131.584" stroke-width="7.233" stroke="black" fill="none" stroke-linecap="round"></path><path d="M 193.263,131.584 C 194.983,129.004 194.906,128.779 197.258,126.788" stroke-width="6.765" stroke="black" fill="none" stroke-linecap="round"></path><path d="M 197.258,126.788 C 200.100,124.383 200.352,124.606 203.650,122.791" stroke-width="6.385" stroke="black" fill="none" stroke-linecap="round"></path><path d="M 203.650,122.791 C 208.342,120.209 208.231,119.798 213.238,117.994" stroke-width="5.753" stroke="black" fill="none" stroke-linecap="round"></path><path d="M 213.238,117.994 C 218.218,116.201 218.354,115.916 223.625,115.596" stroke-width="5.596" stroke="black" fill="none" stroke-linecap="round"></path><path d="M 223.625,115.596 C 231.537,115.116 231.755,115.205 239.605,116.396" stroke-width="5.873" stroke="black" fill="none" stroke-linecap="round"></path><path d="M 239.605,116.396 C 244.938,117.204 245.260,117.123 249.993,119.593" stroke-width="5.504" stroke="black" fill="none" stroke-linecap="round"></path><path d="M 249.993,119.593 C 254.449,121.919 254.783,122.148 257.983,125.988" stroke-width="5.583" stroke="black" fill="none" stroke-linecap="round"></path><path d="M 257.983,125.988 C 260.776,129.342 261.321,129.713 261.978,133.982" stroke-width="5.801" stroke="black" fill="none" stroke-linecap="round"></path><path d="M 261.978,133.982 C 262.919,140.105 263.297,140.944 261.179,146.773" stroke-width="5.496" stroke="black" fill="none" stroke-linecap="round"></path><path d="M 261.179,146.773 C 258.503,154.134 257.400,154.050 252.390,160.363" stroke-width="4.943" stroke="black" fill="none" stroke-linecap="round"></path><path d="M 252.390,160.363 C 246.613,167.640 246.568,167.806 239.605,173.953" stroke-width="4.500" stroke="black" fill="none" stroke-linecap="round"></path><path d="M 239.605,173.953 C 232.985,179.798 232.370,179.088 225.223,184.345" stroke-width="4.500" stroke="black" fill="none" stroke-linecap="round"></path><path d="M 225.223,184.345 C 218.787,189.080 218.831,189.141 212.439,193.938" stroke-width="4.500" stroke="black" fill="none" stroke-linecap="round"></path><path d="M 212.439,193.938 C 207.645,197.535 207.528,197.390 202.851,201.132" stroke-width="5.094" stroke="black" fill="none" stroke-linecap="round"></path><path d="M 202.851,201.132 C 199.537,203.785 199.578,203.848 196.459,206.728" stroke-width="5.697" stroke="black" fill="none" stroke-linecap="round"></path><path d="M 196.459,206.728 C 194.385,208.644 192.259,210.315 192.464,210.725" stroke-width="6.975" stroke="black" fill="none" stroke-linecap="round"></path><path d="M 192.464,210.725 C 192.659,211.114 194.819,209.436 197.258,208.327" stroke-width="7.516" stroke="black" fill="none" stroke-linecap="round"></path><path d="M 197.258,208.327 C 203.608,205.439 203.698,205.633 210.042,202.731" stroke-width="5.508" stroke="black" fill="none" stroke-linecap="round"></path><path d="M 210.042,202.731 C 217.680,199.238 217.508,198.845 225.223,195.536" stroke-width="4.782" stroke="black" fill="none" stroke-linecap="round"></path><path d="M 225.223,195.536 C 234.287,191.650 234.354,191.784 243.601,188.342" stroke-width="4.500" stroke="black" fill="none" stroke-linecap="round"></path><path d="M 243.601,188.342 C 251.533,185.389 251.496,185.235 259.581,182.746" stroke-width="4.500" stroke="black" fill="none" stroke-linecap="round"></path><path d="M 259.581,182.746 C 267.076,180.438 267.051,179.820 274.762,178.749" stroke-width="4.588" stroke="black" fill="none" stroke-linecap="round"></path><path d="M 274.762,178.749 C 281.433,177.822 281.622,178.098 288.345,178.749" stroke-width="4.871" stroke="black" fill="none" stroke-linecap="round"></path><path d="M 288.345,178.749 C 294.007,179.297 294.247,179.165 299.531,181.147" stroke-width="5.216" stroke="black" fill="none" stroke-linecap="round"></path><path d="M 299.531,181.147 C 303.835,182.762 304.080,182.931 307.521,185.944" stroke-width="5.620" stroke="black" fill="none" stroke-linecap="round"></path><path d="M 307.521,185.944 C 310.472,188.527 310.652,188.804 312.315,192.339" stroke-width="5.962" stroke="black" fill="none" stroke-linecap="round"></path><path d="M 312.315,192.339 C 313.848,195.599 314.390,196.031 313.913,199.534" stroke-width="6.180" stroke="black" fill="none" stroke-linecap="round"></path><path d="M 313.913,199.534 C 313.191,204.825 312.245,204.881 309.918,209.926" stroke-width="6.588" stroke="black" fill="none" stroke-linecap="round"></path><path d="M 309.918,209.926 C 307.451,215.273 307.745,215.565 304.325,220.318" stroke-width="5.640" stroke="black" fill="none" stroke-linecap="round"></path><path d="M 304.325,220.318 C 300.554,225.558 300.241,225.465 295.536,229.911" stroke-width="5.249" stroke="black" fill="none" stroke-linecap="round"></path><path d="M 295.536,229.911 C 293.050,232.260 292.786,231.977 289.943,233.908" stroke-width="6.010" stroke="black" fill="none" stroke-linecap="round"></path><path d="M 289.943,233.908 C 281.600,239.572 282.083,240.637 273.164,245.099" stroke-width="4.546" stroke="black" fill="none" stroke-linecap="round"></path><path d="M 273.164,245.099 C 266.902,248.232 266.476,247.587 259.581,249.096" stroke-width="4.704" stroke="black" fill="none" stroke-linecap="round"></path><path d="M 259.581,249.096 C 253.692,250.385 253.602,250.473 247.596,250.695" stroke-width="5.079" stroke="black" fill="none" stroke-linecap="round"></path><path d="M 247.596,250.695 C 242.816,250.872 242.592,251.043 238.008,249.896" stroke-width="5.529" stroke="black" fill="none" stroke-linecap="round"></path><path d="M 238.008,249.896 C 234.602,249.044 233.208,249.288 231.615,246.698" stroke-width="6.070" stroke="black" fill="none" stroke-linecap="round"></path><path d="M 309.918,163.560 C 312.714,167.557 312.447,167.782 315.511,171.554" stroke-width="8.527" stroke="black" fill="none" stroke-linecap="round"></path><path d="M 315.511,171.554 C 317.640,174.177 318.089,173.793 320.305,176.351" stroke-width="7.784" stroke="black" fill="none" stroke-linecap="round"></path><path d="M 320.305,176.351 C 323.282,179.788 323.084,179.962 325.898,183.545" stroke-width="7.322" stroke="black" fill="none" stroke-linecap="round"></path><path d="M 325.898,183.545 C 327.478,185.558 327.591,185.475 329.094,187.542" stroke-width="6.962" stroke="black" fill="none" stroke-linecap="round"></path><path d="M 329.094,187.542 C 330.787,189.871 330.213,190.434 332.290,192.339" stroke-width="6.792" stroke="black" fill="none" stroke-linecap="round"></path><path d="M 332.290,192.339 C 335.006,194.831 335.177,195.167 338.682,196.336" stroke-width="7.157" stroke="black" fill="none" stroke-linecap="round"></path><path d="M 338.682,196.336 C 343.567,197.965 343.922,198.141 349.069,197.935" stroke-width="6.957" stroke="black" fill="none" stroke-linecap="round"></path><path d="M 349.069,197.935 C 353.909,197.741 353.899,196.859 358.657,195.536" stroke-width="7.000" stroke="black" fill="none" stroke-linecap="round"></path><path d="M 345.873,165.159 C 349.069,169.556 348.677,169.914 352.265,173.953" stroke-width="8.539" stroke="black" fill="none" stroke-linecap="round"></path><path d="M 352.265,173.953 C 355.069,177.109 355.448,176.766 358.657,179.548" stroke-width="7.556" stroke="black" fill="none" stroke-linecap="round"></path><path d="M 358.657,179.548 C 361.440,181.962 361.653,181.747 364.250,184.345" stroke-width="7.444" stroke="black" fill="none" stroke-linecap="round"></path><path d="M 364.250,184.345 C 366.847,186.943 366.665,187.128 369.044,189.941" stroke-width="7.411" stroke="black" fill="none" stroke-linecap="round"></path><path d="M 369.044,189.941 C 371.059,192.324 373.792,195.617 373.039,194.737" stroke-width="7.520" stroke="black" fill="none" stroke-linecap="round"></path><path d="M 377.034,149.171 C 379.431,153.168 378.839,153.714 381.828,157.165" stroke-width="8.540" stroke="black" fill="none" stroke-linecap="round"></path><path d="M 381.828,157.165 C 384.032,159.710 384.833,158.918 387.421,161.162" stroke-width="7.774" stroke="black" fill="none" stroke-linecap="round"></path><path d="M 387.421,161.162 C 390.825,164.114 390.751,164.239 393.813,167.557" stroke-width="7.296" stroke="black" fill="none" stroke-linecap="round"></path><path d="M 393.813,167.557 C 395.545,169.435 395.643,169.407 397.009,171.554" stroke-width="7.092" stroke="black" fill="none" stroke-linecap="round"></path><path d="M 397.009,171.554 C 398.440,173.804 398.352,173.890 399.406,176.351" stroke-width="6.915" stroke="black" fill="none" stroke-linecap="round"></path><path d="M 399.406,176.351 C 400.749,179.485 401.068,179.440 401.803,182.746" stroke-width="7.259" stroke="black" fill="none" stroke-linecap="round"></path><path d="M 360.255,158.764 C 363.051,155.167 362.507,154.398 365.848,151.569" stroke-width="8.553" stroke="black" fill="none" stroke-linecap="round"></path><path d="M 365.848,151.569 C 367.700,150.001 368.195,150.582 370.642,149.970" stroke-width="7.277" stroke="black" fill="none" stroke-linecap="round"></path><path d="M 370.642,149.970 C 374.587,148.984 374.604,148.947 378.632,148.372" stroke-width="6.399" stroke="black" fill="none" stroke-linecap="round"></path><path d="M 378.632,148.372 C 382.994,147.748 383.016,147.749 387.421,147.572" stroke-width="6.059" stroke="black" fill="none" stroke-linecap="round"></path><path d="M 387.421,147.572 C 393.004,147.349 393.065,147.018 398.607,147.572" stroke-width="5.778" stroke="black" fill="none" stroke-linecap="round"></path><path d="M 398.607,147.572 C 405.050,148.217 405.042,148.590 411.391,149.970" stroke-width="5.183" stroke="black" fill="none" stroke-linecap="round"></path><path d="M 411.391,149.970 C 414.230,150.588 414.241,150.609 416.984,151.569" stroke-width="6.163" stroke="black" fill="none" stroke-linecap="round"></path><path d="M 416.984,151.569 C 422.231,153.407 422.474,153.010 427.371,155.566" stroke-width="5.638" stroke="black" fill="none" stroke-linecap="round"></path><path d="M 427.371,155.566 C 431.663,157.807 431.847,157.867 435.361,161.162" stroke-width="5.694" stroke="black" fill="none" stroke-linecap="round"></path><path d="M 435.361,161.162 C 438.239,163.862 438.142,164.134 440.155,167.557" stroke-width="5.987" stroke="black" fill="none" stroke-linecap="round"></path><path d="M 440.155,167.557 C 442.137,170.929 442.662,170.962 443.351,174.752" stroke-width="5.927" stroke="black" fill="none" stroke-linecap="round"></path><path d="M 443.351,174.752 C 444.260,179.755 444.660,180.278 443.351,185.144" stroke-width="5.850" stroke="black" fill="none" stroke-linecap="round"></path><path d="M 443.351,185.144 C 441.864,190.670 441.241,190.832 437.758,195.536" stroke-width="5.364" stroke="black" fill="none" stroke-linecap="round"></path><path d="M 437.758,195.536 C 433.251,201.624 433.010,201.615 427.371,206.728" stroke-width="4.912" stroke="black" fill="none" stroke-linecap="round"></path><path d="M 427.371,206.728 C 420.226,213.206 420.315,213.564 412.190,218.719" stroke-width="4.500" stroke="black" fill="none" stroke-linecap="round"></path><path d="M 412.190,218.719 C 403.935,223.956 403.576,223.505 394.612,227.513" stroke-width="4.500" stroke="black" fill="none" stroke-linecap="round"></path><path d="M 394.612,227.513 C 384.799,231.899 384.706,231.729 374.637,235.507" stroke-width="4.500" stroke="black" fill="none" stroke-linecap="round"></path><path d="M 374.637,235.507 C 365.530,238.923 365.507,238.885 356.260,241.902" stroke-width="4.500" stroke="black" fill="none" stroke-linecap="round"></path><path d="M 356.260,241.902 C 347.130,244.880 347.076,244.717 337.883,247.498" stroke-width="4.500" stroke="black" fill="none" stroke-linecap="round"></path><path d="M 337.883,247.498 C 329.898,249.913 329.899,249.916 321.903,252.294" stroke-width="4.500" stroke="black" fill="none" stroke-linecap="round"></path><path d="M 321.903,252.294 C 315.117,254.312 315.002,253.986 308.320,256.291" stroke-width="4.757" stroke="black" fill="none" stroke-linecap="round"></path><path d="M 308.320,256.291 C 303.417,257.983 303.526,258.290 298.732,260.288" stroke-width="5.309" stroke="black" fill="none" stroke-linecap="round"></path><circle r="3" cx="127.74534606933594" cy="369.0070495605469" fill="black"></circle></svg>