<svg xmlns="http://www.w3.org/2000/svg" xmlns:xlink="http://www.w3.org/1999/xlink" viewBox="0 0 576 416" width="576" height="416"><path d="M 184.474,317.057 C 183.675,310.661 183.442,310.682 182.876,304.266" stroke-width="8.371" stroke="black" fill="none" stroke-linecap="round"></path><path d="M 182.876,304.266 C 182.244,297.092 182.466,297.072 182.077,289.877" stroke-width="5.685" stroke="black" fill="none" stroke-linecap="round"></path><path d="M 182.077,289.877 C 181.667,282.283 181.861,282.268 181.278,274.688" stroke-width="4.890" stroke="black" fill="none" stroke-linecap="round"></path><path d="M 181.278,274.688 C 180.663,266.680 180.567,266.684 179.680,258.700" stroke-width="4.703" stroke="black" fill="none" stroke-linecap="round"></path><path d="M 179.680,258.700 C 178.969,252.295 179.140,252.261 178.082,245.910" stroke-width="5.146" stroke="black" fill="none" stroke-linecap="round"></path><path d="M 178.082,245.910 C 177.143,240.270 177.071,240.263 175.685,234.718" stroke-width="5.216" stroke="black" fill="none" stroke-linecap="round"></path><path d="M 175.685,234.718 C 175.073,232.269 174.614,232.381 174.087,229.922" stroke-width="6.312" stroke="black" fill="none" stroke-linecap="round"></path><path d="M 174.087,229.922 C 173.416,226.786 172.582,222.349 173.288,223.526" stroke-width="6.460" stroke="black" fill="none" stroke-linecap="round"></path><path d="M 173.288,223.526 C 174.979,226.346 176.334,230.633 178.881,237.916" stroke-width="7.035" stroke="black" fill="none" stroke-linecap="round"></path><path d="M 178.881,237.916 C 181.927,246.621 181.374,246.818 184.474,255.502" stroke-width="4.882" stroke="black" fill="none" stroke-linecap="round"></path><path d="M 184.474,255.502 C 187.367,263.605 187.557,263.544 190.866,271.491" stroke-width="4.587" stroke="black" fill="none" stroke-linecap="round"></path><path d="M 190.866,271.491 C 193.550,277.933 193.344,278.048 196.459,284.281" stroke-width="4.830" stroke="black" fill="none" stroke-linecap="round"></path><path d="M 196.459,284.281 C 198.937,289.239 198.884,289.345 202.052,293.874" stroke-width="5.244" stroke="black" fill="none" stroke-linecap="round"></path><path d="M 202.052,293.874 C 204.477,297.339 204.326,297.896 207.645,300.269" stroke-width="5.824" stroke="black" fill="none" stroke-linecap="round"></path><path d="M 207.645,300.269 C 209.919,301.894 210.947,302.750 213.238,301.868" stroke-width="6.347" stroke="black" fill="none" stroke-linecap="round"></path><path d="M 213.238,301.868 C 216.141,300.751 216.080,299.365 218.032,296.272" stroke-width="7.047" stroke="black" fill="none" stroke-linecap="round"></path><path d="M 218.032,296.272 C 220.874,291.771 220.742,291.609 222.826,286.679" stroke-width="5.999" stroke="black" fill="none" stroke-linecap="round"></path><path d="M 222.826,286.679 C 225.136,281.217 224.810,281.078 226.822,275.488" stroke-width="5.490" stroke="black" fill="none" stroke-linecap="round"></path><path d="M 226.822,275.488 C 228.405,271.086 228.540,271.130 230.017,266.694" stroke-width="5.785" stroke="black" fill="none" stroke-linecap="round"></path><path d="M 230.017,266.694 C 230.937,263.935 230.478,261.098 231.615,261.098" stroke-width="6.332" stroke="black" fill="none" stroke-linecap="round"></path><path d="M 231.615,261.098 C 232.875,261.098 233.285,263.858 234.811,266.694" stroke-width="7.631" stroke="black" fill="none" stroke-linecap="round"></path><path d="M 234.811,266.694 C 236.082,269.054 235.147,270.221 237.208,271.491" stroke-width="7.061" stroke="black" fill="none" stroke-linecap="round"></path><path d="M 237.208,271.491 C 240.341,273.419 241.454,273.558 245.199,273.089" stroke-width="7.170" stroke="black" fill="none" stroke-linecap="round"></path><path d="M 245.199,273.089 C 247.846,272.758 247.995,271.890 249.993,269.892" stroke-width="6.920" stroke="black" fill="none" stroke-linecap="round"></path><path d="M 249.993,269.892 C 251.990,267.893 251.353,267.299 253.189,265.095" stroke-width="6.780" stroke="black" fill="none" stroke-linecap="round"></path><path d="M 253.189,265.095 C 255.348,262.503 255.245,260.931 257.983,260.299" stroke-width="7.271" stroke="black" fill="none" stroke-linecap="round"></path><path d="M 257.983,260.299 C 260.439,259.732 260.820,261.410 263.576,262.697" stroke-width="7.793" stroke="black" fill="none" stroke-linecap="round"></path><path d="M 263.576,262.697 C 266.812,264.208 266.621,265.225 269.968,265.895" stroke-width="7.540" stroke="black" fill="none" stroke-linecap="round"></path><path d="M 269.968,265.895 C 272.613,266.424 273.045,266.144 275.561,265.095" stroke-width="7.663" stroke="black" fill="none" stroke-linecap="round"></path><path d="M 275.561,265.095 C 277.839,264.146 277.433,261.898 279.556,261.898" stroke-width="8.007" stroke="black" fill="none" stroke-linecap="round"></path><path d="M 279.556,261.898 C 282.227,261.898 283.043,262.814 285.149,265.095" stroke-width="8.438" stroke="black" fill="none" stroke-linecap="round"></path><path d="M 285.149,265.095 C 287.837,268.010 286.364,269.509 289.144,272.290" stroke-width="7.567" stroke="black" fill="none" stroke-linecap="round"></path><path d="M 289.144,272.290 C 291.558,274.705 292.902,276.366 295.536,275.488" stroke-width="7.526" stroke="black" fill="none" stroke-linecap="round"></path><path d="M 295.536,275.488 C 298.894,274.367 299.642,272.457 301.129,268.293" stroke-width="7.221" stroke="black" fill="none" stroke-linecap="round"></path><path d="M 301.129,268.293 C 303.637,261.266 302.805,260.750 303.526,253.104" stroke-width="5.272" stroke="black" fill="none" stroke-linecap="round"></path><path d="M 303.526,253.104 C 304.802,239.566 304.476,239.522 305.124,225.924" stroke-width="4.500" stroke="black" fill="none" stroke-linecap="round"></path><path d="M 305.124,225.924 C 306.074,205.947 305.570,205.919 306.722,185.954" stroke-width="4.500" stroke="black" fill="none" stroke-linecap="round"></path><path d="M 306.722,185.954 C 307.967,164.350 308.175,164.359 309.918,142.787" stroke-width="4.500" stroke="black" fill="none" stroke-linecap="round"></path><path d="M 309.918,142.787 C 311.371,124.788 312.864,124.785 313.114,106.813" stroke-width="4.500" stroke="black" fill="none" stroke-linecap="round"></path><path d="M 313.114,106.813 C 313.264,96.007 312.169,95.982 310.717,85.230" stroke-width="4.500" stroke="black" fill="none" stroke-linecap="round"></path><path d="M 310.717,85.230 C 310.171,81.193 310.396,77.661 309.119,77.236" stroke-width="4.939" stroke="black" fill="none" stroke-linecap="round"></path><path d="M 309.119,77.236 C 307.999,76.862 307.096,80.276 305.923,83.631" stroke-width="5.903" stroke="black" fill="none" stroke-linecap="round"></path><path d="M 305.923,83.631 C 304.300,88.270 304.555,88.389 303.526,93.224" stroke-width="5.752" stroke="black" fill="none" stroke-linecap="round"></path><path d="M 303.526,93.224 C 299.362,112.771 298.794,112.682 295.536,132.394" stroke-width="4.500" stroke="black" fill="none" stroke-linecap="round"></path><path d="M 295.536,132.394 C 290.404,163.444 289.520,163.427 286.747,194.748" stroke-width="4.500" stroke="black" fill="none" stroke-linecap="round"></path><path d="M 286.747,194.748 C 283.927,226.580 284.542,226.717 284.350,258.700" stroke-width="4.500" stroke="black" fill="none" stroke-linecap="round"></path><path d="M 284.350,258.700 C 284.143,293.067 285.149,293.074 285.948,327.449" stroke-width="4.500" stroke="black" fill="none" stroke-linecap="round"></path><path d="M 232.415,331.446 C 230.816,339.440 230.869,339.451 229.218,347.434" stroke-width="7.825" stroke="black" fill="none" stroke-linecap="round"></path><path d="M 229.218,347.434 C 228.472,351.042 228.299,351.009 227.620,354.629" stroke-width="6.674" stroke="black" fill="none" stroke-linecap="round"></path><path d="M 227.620,354.629 C 227.100,357.404 227.870,357.707 226.822,360.224" stroke-width="6.796" stroke="black" fill="none" stroke-linecap="round"></path><path d="M 226.822,360.224 C 225.872,362.503 225.290,364.776 223.625,364.221" stroke-width="7.483" stroke="black" fill="none" stroke-linecap="round"></path><path d="M 223.625,364.221 C 220.496,363.178 220.515,360.544 217.233,357.027" stroke-width="6.177" stroke="black" fill="none" stroke-linecap="round"></path><path d="M 217.233,357.027 C 214.922,354.548 215.186,354.063 212.439,352.230" stroke-width="6.354" stroke="black" fill="none" stroke-linecap="round"></path><path d="M 212.439,352.230 C 210.392,350.865 209.972,350.438 207.645,350.631" stroke-width="7.631" stroke="black" fill="none" stroke-linecap="round"></path><path d="M 207.645,350.631 C 205.178,350.837 205.334,353.030 202.851,353.030" stroke-width="8.003" stroke="black" fill="none" stroke-linecap="round"></path><path d="M 202.851,353.030 C 199.341,353.030 199.307,350.834 195.660,350.631" stroke-width="7.541" stroke="black" fill="none" stroke-linecap="round"></path><path d="M 195.660,350.631 C 192.116,350.434 192.073,351.471 188.469,352.230" stroke-width="7.777" stroke="black" fill="none" stroke-linecap="round"></path><path d="M 188.469,352.230 C 184.483,353.070 184.161,354.706 180.479,353.829" stroke-width="7.408" stroke="black" fill="none" stroke-linecap="round"></path><path d="M 180.479,353.829 C 175.772,352.708 174.795,352.260 171.690,348.233" stroke-width="6.026" stroke="black" fill="none" stroke-linecap="round"></path><path d="M 171.690,348.233 C 164.009,338.271 162.192,338.012 158.906,325.850" stroke-width="4.500" stroke="black" fill="none" stroke-linecap="round"></path><path d="M 158.906,325.850 C 154.202,308.434 154.138,307.251 155.710,289.077" stroke-width="4.500" stroke="black" fill="none" stroke-linecap="round"></path><path d="M 155.710,289.077 C 157.734,265.682 156.418,263.766 166.097,242.712" stroke-width="4.500" stroke="black" fill="none" stroke-linecap="round"></path><path d="M 166.097,242.712 C 174.795,223.796 176.135,221.974 192.464,209.137" stroke-width="4.500" stroke="black" fill="none" stroke-linecap="round"></path><path d="M 192.464,209.137 C 209.693,195.594 211.798,195.966 233.214,189.951" stroke-width="4.500" stroke="black" fill="none" stroke-linecap="round"></path><path d="M 233.214,189.951 C 257.341,183.175 259.026,181.189 283.551,183.556" stroke-width="4.500" stroke="black" fill="none" stroke-linecap="round"></path><path d="M 283.551,183.556 C 304.569,185.585 303.925,191.150 324.300,198.745" stroke-width="4.500" stroke="black" fill="none" stroke-linecap="round"></path></svg>