<svg xmlns="http://www.w3.org/2000/svg" xmlns:xlink="http://www.w3.org/1999/xlink" viewBox="0 0 576 416" width="576" height="416"><path d="M 118.157,238.715 C 117.758,233.919 118.663,233.690 117.358,229.122" stroke-width="8.462" stroke="black" fill="none" stroke-linecap="round"></path><path d="M 117.358,229.122 C 115.467,222.498 115.578,222.119 111.765,216.332" stroke-width="5.647" stroke="black" fill="none" stroke-linecap="round"></path><path d="M 111.765,216.332 C 103.992,204.532 103.814,204.321 94.187,193.948" stroke-width="4.500" stroke="black" fill="none" stroke-linecap="round"></path><path d="M 94.187,193.948 C 88.234,187.534 87.473,188.254 80.604,182.757" stroke-width="4.500" stroke="black" fill="none" stroke-linecap="round"></path><path d="M 80.604,182.757 C 77.485,180.260 77.331,180.456 74.212,177.960" stroke-width="5.396" stroke="black" fill="none" stroke-linecap="round"></path><path d="M 74.212,177.960 C 69.341,174.061 69.474,173.894 64.624,169.966" stroke-width="5.339" stroke="black" fill="none" stroke-linecap="round"></path><path d="M 64.624,169.966 C 61.084,167.099 58.209,167.863 57.433,164.370" stroke-width="5.693" stroke="black" fill="none" stroke-linecap="round"></path><path d="M 57.433,164.370 C 56.611,160.668 57.546,157.582 61.428,155.577" stroke-width="6.554" stroke="black" fill="none" stroke-linecap="round"></path><path d="M 61.428,155.577 C 69.931,151.186 71.734,153.000 82.202,151.580" stroke-width="4.500" stroke="black" fill="none" stroke-linecap="round"></path><path d="M 82.202,151.580 C 95.304,149.803 95.386,150.381 108.569,149.182" stroke-width="4.500" stroke="black" fill="none" stroke-linecap="round"></path><path d="M 108.569,149.182 C 126.147,147.583 126.122,147.229 143.725,145.984" stroke-width="4.500" stroke="black" fill="none" stroke-linecap="round"></path><path d="M 143.725,145.984 C 165.672,144.432 165.696,144.743 187.670,143.586" stroke-width="4.500" stroke="black" fill="none" stroke-linecap="round"></path><path d="M 187.670,143.586 C 211.239,142.345 211.241,142.387 234.811,141.188" stroke-width="4.500" stroke="black" fill="none" stroke-linecap="round"></path><path d="M 234.811,141.188 C 258.382,139.989 258.383,139.999 281.953,138.790" stroke-width="4.500" stroke="black" fill="none" stroke-linecap="round"></path><path d="M 281.953,138.790 C 305.124,137.601 305.109,137.030 328.295,136.391" stroke-width="4.500" stroke="black" fill="none" stroke-linecap="round"></path><path d="M 328.295,136.391 C 348.655,135.831 348.680,135.944 369.044,136.391" stroke-width="4.500" stroke="black" fill="none" stroke-linecap="round"></path><path d="M 369.044,136.391 C 385.035,136.743 385.060,136.763 401.004,137.990" stroke-width="4.500" stroke="black" fill="none" stroke-linecap="round"></path><path d="M 401.004,137.990 C 411.028,138.762 411.186,138.429 420.979,140.388" stroke-width="4.500" stroke="black" fill="none" stroke-linecap="round"></path><path d="M 420.979,140.388 C 425.168,141.227 428.770,141.592 428.969,143.586" stroke-width="5.029" stroke="black" fill="none" stroke-linecap="round"></path><path d="M 428.969,143.586 C 429.169,145.589 425.888,147.219 421.778,148.382" stroke-width="6.361" stroke="black" fill="none" stroke-linecap="round"></path><path d="M 421.778,148.382 C 404.714,153.214 404.171,151.844 386.622,155.577" stroke-width="4.500" stroke="black" fill="none" stroke-linecap="round"></path><path d="M 386.622,155.577 C 353.435,162.636 353.495,162.922 320.305,169.966" stroke-width="4.500" stroke="black" fill="none" stroke-linecap="round"></path><path d="M 320.305,169.966 C 287.578,176.912 287.537,176.721 254.787,183.556" stroke-width="4.500" stroke="black" fill="none" stroke-linecap="round"></path><path d="M 254.787,183.556 C 222.419,190.311 222.488,190.659 190.067,197.146" stroke-width="4.500" stroke="black" fill="none" stroke-linecap="round"></path><path d="M 190.067,197.146 C 160.566,203.049 160.591,203.252 130.941,208.338" stroke-width="4.500" stroke="black" fill="none" stroke-linecap="round"></path><path d="M 130.941,208.338 C 104.661,212.845 104.667,213.137 78.207,216.332" stroke-width="4.500" stroke="black" fill="none" stroke-linecap="round"></path><path d="M 78.207,216.332 C 58.325,218.732 58.242,219.042 38.257,219.529" stroke-width="4.500" stroke="black" fill="none" stroke-linecap="round"></path><path d="M 38.257,219.529 C 25.483,219.841 25.037,220.348 12.689,217.931" stroke-width="4.500" stroke="black" fill="none" stroke-linecap="round"></path><path d="M 12.689,217.931 C 6.660,216.750 3.239,216.773 1.503,212.335" stroke-width="4.500" stroke="black" fill="none" stroke-linecap="round"></path><path d="M 1.503,212.335 C -0.357,207.580 1.665,204.713 5.498,199.544" stroke-width="4.807" stroke="black" fill="none" stroke-linecap="round"></path><path d="M 5.498,199.544 C 10.854,192.322 12.245,192.956 19.880,187.553" stroke-width="4.612" stroke="black" fill="none" stroke-linecap="round"></path><path d="M 19.880,187.553 C 45.004,169.774 44.435,168.627 71.016,153.179" stroke-width="4.500" stroke="black" fill="none" stroke-linecap="round"></path><path d="M 71.016,153.179 C 98.767,137.051 99.532,138.260 128.544,124.400" stroke-width="4.500" stroke="black" fill="none" stroke-linecap="round"></path><path d="M 128.544,124.400 C 143.877,117.076 143.621,116.242 159.705,110.810" stroke-width="4.500" stroke="black" fill="none" stroke-linecap="round"></path><path d="M 159.705,110.810 C 207.541,94.658 207.623,94.315 256.385,81.233" stroke-width="4.500" stroke="black" fill="none" stroke-linecap="round"></path><path d="M 256.385,81.233 C 279.134,75.129 279.414,75.549 302.727,72.439" stroke-width="4.500" stroke="black" fill="none" stroke-linecap="round"></path><path d="M 302.727,72.439 C 315.369,70.753 317.805,69.672 328.295,71.640" stroke-width="4.500" stroke="black" fill="none" stroke-linecap="round"></path><path d="M 328.295,71.640 C 330.589,72.070 330.107,75.664 328.295,77.236" stroke-width="4.873" stroke="black" fill="none" stroke-linecap="round"></path><path d="M 328.295,77.236 C 324.114,80.860 322.414,79.942 316.310,82.032" stroke-width="4.948" stroke="black" fill="none" stroke-linecap="round"></path><path d="M 316.310,82.032 C 292.052,90.335 292.099,90.551 267.571,98.020" stroke-width="4.500" stroke="black" fill="none" stroke-linecap="round"></path><path d="M 267.571,98.020 C 246.157,104.541 246.169,104.751 224.425,110.011" stroke-width="4.500" stroke="black" fill="none" stroke-linecap="round"></path><path d="M 224.425,110.011 C 209.815,113.545 209.717,113.405 194.861,115.607" stroke-width="4.500" stroke="black" fill="none" stroke-linecap="round"></path><path d="M 194.861,115.607 C 188.144,116.603 183.150,114.299 181.278,116.406" stroke-width="4.500" stroke="black" fill="none" stroke-linecap="round"></path><path d="M 181.278,116.406 C 179.954,117.897 185.121,119.352 188.469,122.802" stroke-width="6.081" stroke="black" fill="none" stroke-linecap="round"></path><path d="M 188.469,122.802 C 198.704,133.342 199.999,132.457 208.444,144.385" stroke-width="4.500" stroke="black" fill="none" stroke-linecap="round"></path><path d="M 208.444,144.385 C 220.374,161.235 220.736,161.523 229.218,180.359" stroke-width="4.500" stroke="black" fill="none" stroke-linecap="round"></path><path d="M 229.218,180.359 C 237.116,197.896 235.211,198.745 241.203,217.131" stroke-width="4.500" stroke="black" fill="none" stroke-linecap="round"></path><circle r="3" cx="196.45944213867188" cy="217.93051147460938" fill="black"></circle></svg>