<svg xmlns="http://www.w3.org/2000/svg" xmlns:xlink="http://www.w3.org/1999/xlink" viewBox="0 0 576 416" width="576" height="416"><path d="M 325.898,199.544 C 321.903,196.347 320.525,197.263 317.908,193.149" stroke-width="7.963" stroke="black" fill="none" stroke-linecap="round"></path><path d="M 317.908,193.149 C 314.932,188.470 315.322,187.656 314.712,181.957" stroke-width="6.957" stroke="black" fill="none" stroke-linecap="round"></path><path d="M 314.712,181.957 C 314.123,176.464 314.158,176.180 315.511,170.766" stroke-width="5.700" stroke="black" fill="none" stroke-linecap="round"></path><path d="M 315.511,170.766 C 319.351,155.395 319.212,155.112 325.099,140.388" stroke-width="4.500" stroke="black" fill="none" stroke-linecap="round"></path><path d="M 325.099,140.388 C 328.800,131.130 329.673,131.466 334.687,122.802" stroke-width="4.500" stroke="black" fill="none" stroke-linecap="round"></path><path d="M 334.687,122.802 C 338.462,116.278 338.660,116.393 342.677,110.011" stroke-width="4.500" stroke="black" fill="none" stroke-linecap="round"></path><path d="M 342.677,110.011 C 345.452,105.601 345.748,105.759 348.270,101.218" stroke-width="5.124" stroke="black" fill="none" stroke-linecap="round"></path><path d="M 348.270,101.218 C 349.743,98.565 351.322,97.587 350.667,95.622" stroke-width="6.091" stroke="black" fill="none" stroke-linecap="round"></path><path d="M 350.667,95.622 C 350.123,93.990 348.338,94.402 345.873,94.023" stroke-width="6.596" stroke="black" fill="none" stroke-linecap="round"></path><path d="M 345.873,94.023 C 343.144,93.603 343.047,93.666 340.280,94.023" stroke-width="6.718" stroke="black" fill="none" stroke-linecap="round"></path><path d="M 340.280,94.023 C 330.662,95.265 330.652,95.409 321.104,97.221" stroke-width="4.731" stroke="black" fill="none" stroke-linecap="round"></path><path d="M 321.104,97.221 C 307.481,99.805 307.512,99.978 293.938,102.816" stroke-width="4.500" stroke="black" fill="none" stroke-linecap="round"></path><path d="M 293.938,102.816 C 280.746,105.574 280.785,105.768 267.571,108.412" stroke-width="4.500" stroke="black" fill="none" stroke-linecap="round"></path><path d="M 267.571,108.412 C 256.815,110.564 256.779,110.387 245.998,112.409" stroke-width="4.500" stroke="black" fill="none" stroke-linecap="round"></path><path d="M 245.998,112.409 C 237.603,113.984 237.645,114.240 229.218,115.607" stroke-width="4.500" stroke="black" fill="none" stroke-linecap="round"></path><path d="M 229.218,115.607 C 222.863,116.638 222.830,116.438 216.434,117.206" stroke-width="4.828" stroke="black" fill="none" stroke-linecap="round"></path><path d="M 216.434,117.206 C 212.843,117.637 212.849,117.793 209.243,118.005" stroke-width="5.780" stroke="black" fill="none" stroke-linecap="round"></path><path d="M 248.395,198.745 C 246.397,195.148 246.097,195.287 244.400,191.550" stroke-width="7.815" stroke="black" fill="none" stroke-linecap="round"></path><path d="M 244.400,191.550 C 242.102,186.494 241.832,186.512 240.405,181.158" stroke-width="5.984" stroke="black" fill="none" stroke-linecap="round"></path><path d="M 240.405,181.158 C 238.636,174.521 238.548,174.421 238.008,167.568" stroke-width="5.234" stroke="black" fill="none" stroke-linecap="round"></path><path d="M 238.008,167.568 C 237.350,159.232 237.050,159.083 238.008,150.781" stroke-width="4.719" stroke="black" fill="none" stroke-linecap="round"></path><path d="M 238.008,150.781 C 239.447,138.298 239.018,137.952 242.802,125.999" stroke-width="4.500" stroke="black" fill="none" stroke-linecap="round"></path><path d="M 242.802,125.999 C 246.609,113.970 247.956,114.390 253.189,102.816" stroke-width="4.500" stroke="black" fill="none" stroke-linecap="round"></path><path d="M 253.189,102.816 C 255.546,97.602 254.864,97.178 257.983,92.424" stroke-width="4.657" stroke="black" fill="none" stroke-linecap="round"></path><path d="M 257.983,92.424 C 263.254,84.388 263.736,84.625 269.968,77.236" stroke-width="4.500" stroke="black" fill="none" stroke-linecap="round"></path><path d="M 269.968,77.236 C 274.522,71.835 274.447,71.671 279.556,66.843" stroke-width="4.687" stroke="black" fill="none" stroke-linecap="round"></path><path d="M 279.556,66.843 C 281.638,64.876 285.304,63.509 284.350,63.646" stroke-width="5.947" stroke="black" fill="none" stroke-linecap="round"></path><path d="M 284.350,63.646 C 282.507,63.909 279.121,65.556 273.963,67.643" stroke-width="6.567" stroke="black" fill="none" stroke-linecap="round"></path><path d="M 273.963,67.643 C 260.345,73.151 260.469,73.466 246.797,78.834" stroke-width="4.500" stroke="black" fill="none" stroke-linecap="round"></path><path d="M 246.797,78.834 C 228.909,85.857 228.888,85.818 210.841,92.424" stroke-width="4.500" stroke="black" fill="none" stroke-linecap="round"></path><path d="M 210.841,92.424 C 196.129,97.809 196.139,97.860 181.278,102.816" stroke-width="4.500" stroke="black" fill="none" stroke-linecap="round"></path><path d="M 181.278,102.816 C 170.971,106.254 171.019,106.582 160.504,109.212" stroke-width="4.500" stroke="black" fill="none" stroke-linecap="round"></path><path d="M 160.504,109.212 C 155.039,110.579 154.932,110.300 149.318,110.810" stroke-width="4.729" stroke="black" fill="none" stroke-linecap="round"></path><path d="M 197.258,182.757 C 190.467,176.761 190.179,177.056 183.675,170.766" stroke-width="6.950" stroke="black" fill="none" stroke-linecap="round"></path><path d="M 183.675,170.766 C 178.194,165.465 177.770,165.689 173.288,159.574" stroke-width="5.241" stroke="black" fill="none" stroke-linecap="round"></path><path d="M 173.288,159.574 C 168.981,153.698 168.501,153.598 166.097,146.784" stroke-width="4.947" stroke="black" fill="none" stroke-linecap="round"></path><path d="M 166.097,146.784 C 163.707,140.009 163.700,139.594 163.700,132.394" stroke-width="4.874" stroke="black" fill="none" stroke-linecap="round"></path><path d="M 163.700,132.394 C 163.700,124.805 163.598,124.394 166.097,117.206" stroke-width="4.769" stroke="black" fill="none" stroke-linecap="round"></path><path d="M 166.097,117.206 C 169.990,106.008 171.132,106.332 176.484,95.622" stroke-width="4.500" stroke="black" fill="none" stroke-linecap="round"></path><path d="M 176.484,95.622 C 178.722,91.144 178.272,90.786 181.278,86.828" stroke-width="5.033" stroke="black" fill="none" stroke-linecap="round"></path><path d="M 181.278,86.828 C 185.862,80.794 186.059,80.758 191.665,75.637" stroke-width="4.726" stroke="black" fill="none" stroke-linecap="round"></path><path d="M 191.665,75.637 C 195.247,72.365 201.718,68.665 199.655,70.041" stroke-width="5.300" stroke="black" fill="none" stroke-linecap="round"></path><path d="M 199.655,70.041 C 193.329,74.261 187.836,79.400 174.886,86.828" stroke-width="5.609" stroke="black" fill="none" stroke-linecap="round"></path><path d="M 174.886,86.828 C 157.874,96.587 157.582,96.220 139.730,104.415" stroke-width="4.500" stroke="black" fill="none" stroke-linecap="round"></path><path d="M 139.730,104.415 C 123.624,111.809 123.734,112.415 106.971,118.005" stroke-width="4.500" stroke="black" fill="none" stroke-linecap="round"></path><path d="M 106.971,118.005 C 94.970,122.008 94.707,121.884 82.202,123.601" stroke-width="4.500" stroke="black" fill="none" stroke-linecap="round"></path><path d="M 82.202,123.601 C 74.333,124.682 73.870,124.920 66.222,123.601" stroke-width="4.500" stroke="black" fill="none" stroke-linecap="round"></path><path d="M 66.222,123.601 C 62.285,122.922 60.436,122.615 59.031,119.604" stroke-width="5.311" stroke="black" fill="none" stroke-linecap="round"></path><path d="M 59.031,119.604 C 57.639,116.620 58.978,115.151 60.629,111.610" stroke-width="5.829" stroke="black" fill="none" stroke-linecap="round"></path><path d="M 60.629,111.610 C 61.774,109.155 62.143,108.894 64.624,107.613" stroke-width="6.447" stroke="black" fill="none" stroke-linecap="round"></path><path d="M 64.624,107.613 C 74.528,102.499 74.748,102.477 85.398,98.819" stroke-width="4.500" stroke="black" fill="none" stroke-linecap="round"></path><path d="M 85.398,98.819 C 101.514,93.284 101.429,91.920 118.157,89.227" stroke-width="4.500" stroke="black" fill="none" stroke-linecap="round"></path><path d="M 118.157,89.227 C 136.186,86.324 136.627,86.552 154.911,87.628" stroke-width="4.500" stroke="black" fill="none" stroke-linecap="round"></path><path d="M 154.911,87.628 C 177.376,88.950 177.705,88.928 199.655,94.023" stroke-width="4.500" stroke="black" fill="none" stroke-linecap="round"></path><path d="M 199.655,94.023 C 227.643,100.519 227.985,100.464 254.787,110.810" stroke-width="4.500" stroke="black" fill="none" stroke-linecap="round"></path><path d="M 254.787,110.810 C 278.721,120.050 278.294,121.355 301.129,133.194" stroke-width="4.500" stroke="black" fill="none" stroke-linecap="round"></path><path d="M 301.129,133.194 C 322.239,144.138 322.193,144.296 342.677,156.376" stroke-width="4.500" stroke="black" fill="none" stroke-linecap="round"></path><path d="M 342.677,156.376 C 360.145,166.679 359.774,167.301 377.034,177.960" stroke-width="4.500" stroke="black" fill="none" stroke-linecap="round"></path><path d="M 377.034,177.960 C 392.133,187.286 392.215,187.153 407.396,196.347" stroke-width="4.500" stroke="black" fill="none" stroke-linecap="round"></path></svg>