<svg xmlns="http://www.w3.org/2000/svg" xmlns:xlink="http://www.w3.org/1999/xlink" viewBox="0 0 576 416" width="576" height="416"><path d="M 419.381,262.697 C 413.388,263.496 413.386,263.479 407.396,264.296" stroke-width="8.576" stroke="black" fill="none" stroke-linecap="round"></path><path d="M 407.396,264.296 C 404.597,264.678 404.599,264.696 401.803,265.095" stroke-width="7.290" stroke="black" fill="none" stroke-linecap="round"></path><path d="M 401.803,265.095 C 399.006,265.495 399.010,265.521 396.210,265.895" stroke-width="6.831" stroke="black" fill="none" stroke-linecap="round"></path><path d="M 396.210,265.895 C 393.017,266.321 393.028,266.525 389.818,266.694" stroke-width="6.615" stroke="black" fill="none" stroke-linecap="round"></path><path d="M 389.818,266.694 C 385.438,266.925 385.301,267.369 381.029,266.694" stroke-width="6.982" stroke="black" fill="none" stroke-linecap="round"></path><path d="M 381.029,266.694 C 377.710,266.170 376.960,266.409 374.637,264.296" stroke-width="7.786" stroke="black" fill="none" stroke-linecap="round"></path><path d="M 374.637,264.296 C 372.565,262.412 373.200,261.581 372.240,258.700" stroke-width="7.678" stroke="black" fill="none" stroke-linecap="round"></path><path d="M 372.240,258.700 C 370.803,254.387 371.213,254.248 369.843,249.907" stroke-width="7.262" stroke="black" fill="none" stroke-linecap="round"></path><path d="M 369.843,249.907 C 368.816,246.654 368.594,246.727 367.446,243.511" stroke-width="6.652" stroke="black" fill="none" stroke-linecap="round"></path><path d="M 367.446,243.511 C 366.596,241.131 366.591,241.131 365.848,238.715" stroke-width="6.849" stroke="black" fill="none" stroke-linecap="round"></path><path d="M 365.848,238.715 C 364.993,235.934 365.217,235.860 364.250,233.119" stroke-width="6.747" stroke="black" fill="none" stroke-linecap="round"></path><path d="M 364.250,233.119 C 362.820,229.065 362.260,229.227 361.054,225.125" stroke-width="7.046" stroke="black" fill="none" stroke-linecap="round"></path><path d="M 361.054,225.125 C 360.262,222.432 358.813,219.674 360.255,219.529" stroke-width="7.503" stroke="black" fill="none" stroke-linecap="round"></path><path d="M 360.255,219.529 C 362.808,219.274 364.615,221.994 369.044,224.326" stroke-width="7.975" stroke="black" fill="none" stroke-linecap="round"></path><path d="M 369.044,224.326 C 372.205,225.991 372.284,225.842 375.436,227.523" stroke-width="6.752" stroke="black" fill="none" stroke-linecap="round"></path><path d="M 375.436,227.523 C 378.277,229.039 378.194,229.194 381.029,230.721" stroke-width="6.593" stroke="black" fill="none" stroke-linecap="round"></path><path d="M 381.029,230.721 C 383.387,231.992 383.299,232.277 385.823,233.119" stroke-width="6.766" stroke="black" fill="none" stroke-linecap="round"></path><path d="M 385.823,233.119 C 389.291,234.276 392.801,234.078 393.014,234.718" stroke-width="7.196" stroke="black" fill="none" stroke-linecap="round"></path><path d="M 393.014,234.718 C 393.200,235.277 389.827,235.212 386.622,235.517" stroke-width="7.977" stroke="black" fill="none" stroke-linecap="round"></path><path d="M 386.622,235.517 C 381.438,236.011 381.382,235.581 376.235,236.317" stroke-width="6.133" stroke="black" fill="none" stroke-linecap="round"></path><path d="M 376.235,236.317 C 370.196,237.180 370.235,237.482 364.250,238.715" stroke-width="5.476" stroke="black" fill="none" stroke-linecap="round"></path><path d="M 364.250,238.715 C 356.652,240.280 356.602,240.079 349.069,241.913" stroke-width="4.913" stroke="black" fill="none" stroke-linecap="round"></path><path d="M 349.069,241.913 C 341.820,243.677 341.925,244.099 334.687,245.910" stroke-width="4.828" stroke="black" fill="none" stroke-linecap="round"></path><path d="M 334.687,245.910 C 327.543,247.697 327.475,247.419 320.305,249.107" stroke-width="4.823" stroke="black" fill="none" stroke-linecap="round"></path><path d="M 320.305,249.107 C 313.892,250.617 313.990,251.128 307.521,252.305" stroke-width="4.993" stroke="black" fill="none" stroke-linecap="round"></path><path d="M 307.521,252.305 C 300.806,253.526 300.723,253.055 293.938,253.904" stroke-width="5.077" stroke="black" fill="none" stroke-linecap="round"></path><path d="M 293.938,253.904 C 287.939,254.654 287.972,255.101 281.953,255.502" stroke-width="5.111" stroke="black" fill="none" stroke-linecap="round"></path><path d="M 281.953,255.502 C 275.987,255.900 275.960,255.502 269.968,255.502" stroke-width="5.227" stroke="black" fill="none" stroke-linecap="round"></path><path d="M 269.968,255.502 C 263.975,255.502 263.965,255.733 257.983,255.502" stroke-width="5.263" stroke="black" fill="none" stroke-linecap="round"></path><path d="M 257.983,255.502 C 253.578,255.333 253.548,255.357 249.194,254.703" stroke-width="5.709" stroke="black" fill="none" stroke-linecap="round"></path><path d="M 249.194,254.703 C 245.558,254.158 245.588,253.948 242.003,253.104" stroke-width="6.097" stroke="black" fill="none" stroke-linecap="round"></path><path d="M 242.003,253.104 C 238.796,252.349 235.419,251.888 235.611,251.505" stroke-width="7.039" stroke="black" fill="none" stroke-linecap="round"></path><path d="M 235.611,251.505 C 235.819,251.088 239.208,251.614 242.802,251.505" stroke-width="7.308" stroke="black" fill="none" stroke-linecap="round"></path><path d="M 242.802,251.505 C 252.392,251.215 252.394,251.194 261.978,250.706" stroke-width="4.839" stroke="black" fill="none" stroke-linecap="round"></path><path d="M 261.978,250.706 C 275.964,249.994 275.953,249.646 289.943,249.107" stroke-width="4.500" stroke="black" fill="none" stroke-linecap="round"></path><path d="M 289.943,249.107 C 296.727,248.846 296.735,249.204 303.526,249.107" stroke-width="4.539" stroke="black" fill="none" stroke-linecap="round"></path><path d="M 303.526,249.107 C 324.700,248.805 324.698,248.563 345.873,248.308" stroke-width="4.500" stroke="black" fill="none" stroke-linecap="round"></path><path d="M 345.873,248.308 C 357.856,248.163 357.863,248.538 369.843,248.308" stroke-width="4.500" stroke="black" fill="none" stroke-linecap="round"></path><path d="M 369.843,248.308 C 378.637,248.139 378.638,248.011 387.421,247.508" stroke-width="4.500" stroke="black" fill="none" stroke-linecap="round"></path><path d="M 387.421,247.508 C 392.621,247.211 398.499,247.228 397.808,246.709" stroke-width="5.027" stroke="black" fill="none" stroke-linecap="round"></path><path d="M 397.808,246.709 C 396.901,246.028 391.039,245.285 384.225,245.110" stroke-width="6.532" stroke="black" fill="none" stroke-linecap="round"></path><path d="M 384.225,245.110 C 375.458,244.885 375.413,245.208 366.647,245.910" stroke-width="4.897" stroke="black" fill="none" stroke-linecap="round"></path><path d="M 366.647,245.910 C 355.438,246.807 355.424,246.834 344.275,248.308" stroke-width="4.500" stroke="black" fill="none" stroke-linecap="round"></path><path d="M 344.275,248.308 C 334.251,249.632 334.219,249.564 324.300,251.505" stroke-width="4.500" stroke="black" fill="none" stroke-linecap="round"></path><path d="M 324.300,251.505 C 315.842,253.161 315.947,253.680 307.521,255.502" stroke-width="4.500" stroke="black" fill="none" stroke-linecap="round"></path><path d="M 307.521,255.502 C 301.166,256.877 301.131,256.716 294.737,257.901" stroke-width="4.795" stroke="black" fill="none" stroke-linecap="round"></path><path d="M 294.737,257.901 C 290.345,258.714 290.285,258.478 285.948,259.499" stroke-width="5.518" stroke="black" fill="none" stroke-linecap="round"></path><circle r="3" cx="340.2796325683594" cy="298.6702880859375" fill="black"></circle></svg>