<svg xmlns="http://www.w3.org/2000/svg" xmlns:xlink="http://www.w3.org/1999/xlink" viewBox="0 0 576 416" width="576" height="416"><path d="M 319.506,273.889 C 317.908,268.293 317.822,268.316 316.310,262.697" stroke-width="7.874" stroke="black" fill="none" stroke-linecap="round"></path><path d="M 316.310,262.697 C 315.025,257.924 315.315,257.841 313.913,253.104" stroke-width="6.697" stroke="black" fill="none" stroke-linecap="round"></path><path d="M 313.913,253.104 C 312.119,247.049 311.827,247.137 309.918,241.113" stroke-width="5.434" stroke="black" fill="none" stroke-linecap="round"></path><path d="M 309.918,241.113 C 306.633,230.749 306.889,230.666 303.526,220.329" stroke-width="4.597" stroke="black" fill="none" stroke-linecap="round"></path><path d="M 303.526,220.329 C 301.296,213.478 301.009,213.574 298.732,206.739" stroke-width="4.785" stroke="black" fill="none" stroke-linecap="round"></path><path d="M 298.732,206.739 C 296.614,200.383 296.408,200.427 294.737,193.948" stroke-width="4.956" stroke="black" fill="none" stroke-linecap="round"></path><path d="M 294.737,193.948 C 293.212,188.036 293.414,187.975 292.340,181.957" stroke-width="5.148" stroke="black" fill="none" stroke-linecap="round"></path><path d="M 292.340,181.957 C 291.416,176.783 291.216,176.786 290.742,171.565" stroke-width="5.510" stroke="black" fill="none" stroke-linecap="round"></path><path d="M 290.742,171.565 C 290.417,167.993 290.742,167.968 290.742,164.370" stroke-width="6.055" stroke="black" fill="none" stroke-linecap="round"></path><path d="M 290.742,164.370 C 290.742,161.573 289.482,160.665 290.742,158.775" stroke-width="6.539" stroke="black" fill="none" stroke-linecap="round"></path><path d="M 290.742,158.775 C 291.879,157.068 293.056,157.567 295.536,157.176" stroke-width="7.396" stroke="black" fill="none" stroke-linecap="round"></path><path d="M 295.536,157.176 C 300.647,156.368 300.723,156.376 305.923,156.376" stroke-width="5.918" stroke="black" fill="none" stroke-linecap="round"></path><path d="M 305.923,156.376 C 314.705,156.376 314.766,156.246 323.501,157.176" stroke-width="4.890" stroke="black" fill="none" stroke-linecap="round"></path><path d="M 323.501,157.176 C 333.542,158.245 333.585,158.312 343.476,160.373" stroke-width="4.500" stroke="black" fill="none" stroke-linecap="round"></path><path d="M 343.476,160.373 C 352.761,162.309 352.792,162.364 361.853,165.170" stroke-width="4.500" stroke="black" fill="none" stroke-linecap="round"></path><path d="M 361.853,165.170 C 369.571,167.560 369.700,167.412 377.034,170.766" stroke-width="4.500" stroke="black" fill="none" stroke-linecap="round"></path><path d="M 377.034,170.766 C 383.683,173.807 383.662,174.001 389.818,177.960" stroke-width="4.724" stroke="black" fill="none" stroke-linecap="round"></path><path d="M 389.818,177.960 C 394.848,181.196 395.345,180.879 399.406,185.155" stroke-width="5.099" stroke="black" fill="none" stroke-linecap="round"></path><path d="M 399.406,185.155 C 402.936,188.873 403.269,189.188 404.999,193.948" stroke-width="5.505" stroke="black" fill="none" stroke-linecap="round"></path><path d="M 404.999,193.948 C 406.465,197.982 406.052,198.421 405.798,202.742" stroke-width="5.708" stroke="black" fill="none" stroke-linecap="round"></path><path d="M 405.798,202.742 C 405.652,205.216 405.631,205.510 404.200,207.538" stroke-width="6.516" stroke="black" fill="none" stroke-linecap="round"></path><path d="M 404.200,207.538 C 400.837,212.305 400.671,212.444 396.210,216.332" stroke-width="5.612" stroke="black" fill="none" stroke-linecap="round"></path><path d="M 396.210,216.332 C 388.287,223.236 388.316,223.498 379.431,229.122" stroke-width="4.500" stroke="black" fill="none" stroke-linecap="round"></path><path d="M 379.431,229.122 C 368.741,235.889 368.477,235.598 357.059,241.113" stroke-width="4.500" stroke="black" fill="none" stroke-linecap="round"></path><path d="M 357.059,241.113 C 345.306,246.790 345.169,246.542 333.089,251.505" stroke-width="4.500" stroke="black" fill="none" stroke-linecap="round"></path><path d="M 333.089,251.505 C 322.797,255.735 322.949,256.426 312.315,259.499" stroke-width="4.500" stroke="black" fill="none" stroke-linecap="round"></path><path d="M 312.315,259.499 C 304.972,261.622 304.743,261.373 297.134,261.898" stroke-width="4.500" stroke="black" fill="none" stroke-linecap="round"></path><path d="M 297.134,261.898 C 293.158,262.172 292.246,262.872 289.144,261.098" stroke-width="5.466" stroke="black" fill="none" stroke-linecap="round"></path><path d="M 289.144,261.098 C 286.653,259.675 285.606,258.234 285.948,255.502" stroke-width="6.167" stroke="black" fill="none" stroke-linecap="round"></path><path d="M 285.948,255.502 C 286.405,251.838 287.893,251.514 290.742,248.308" stroke-width="6.867" stroke="black" fill="none" stroke-linecap="round"></path><path d="M 290.742,248.308 C 294.285,244.320 294.351,244.162 298.732,241.113" stroke-width="5.756" stroke="black" fill="none" stroke-linecap="round"></path><path d="M 298.732,241.113 C 303.539,237.767 303.807,238.068 309.119,235.517" stroke-width="5.438" stroke="black" fill="none" stroke-linecap="round"></path><path d="M 309.119,235.517 C 313.795,233.272 313.750,232.873 318.707,231.520" stroke-width="5.541" stroke="black" fill="none" stroke-linecap="round"></path><path d="M 318.707,231.520 C 322.539,230.475 322.758,230.489 326.697,230.721" stroke-width="5.929" stroke="black" fill="none" stroke-linecap="round"></path><path d="M 326.697,230.721 C 329.550,230.889 330.669,230.495 332.290,232.320" stroke-width="6.452" stroke="black" fill="none" stroke-linecap="round"></path><path d="M 332.290,232.320 C 333.865,234.093 333.649,235.301 333.089,237.916" stroke-width="7.288" stroke="black" fill="none" stroke-linecap="round"></path><path d="M 333.089,237.916 C 332.450,240.897 332.062,241.196 329.893,243.511" stroke-width="6.738" stroke="black" fill="none" stroke-linecap="round"></path><path d="M 329.893,243.511 C 326.069,247.592 325.664,247.333 321.104,250.706" stroke-width="5.738" stroke="black" fill="none" stroke-linecap="round"></path><path d="M 321.104,250.706 C 316.476,254.128 316.558,254.368 311.516,257.101" stroke-width="5.471" stroke="black" fill="none" stroke-linecap="round"></path><path d="M 311.516,257.101 C 306.970,259.564 306.868,259.594 301.928,261.098" stroke-width="5.551" stroke="black" fill="none" stroke-linecap="round"></path><path d="M 301.928,261.098 C 297.679,262.392 297.518,262.697 293.139,262.697" stroke-width="5.868" stroke="black" fill="none" stroke-linecap="round"></path><path d="M 293.139,262.697 C 289.528,262.697 289.034,262.886 285.948,261.098" stroke-width="6.071" stroke="black" fill="none" stroke-linecap="round"></path><path d="M 285.948,261.098 C 281.443,258.489 281.352,257.979 277.958,253.904" stroke-width="6.588" stroke="black" fill="none" stroke-linecap="round"></path><path d="M 277.958,253.904 C 275.360,250.784 275.626,250.453 273.963,246.709" stroke-width="6.213" stroke="black" fill="none" stroke-linecap="round"></path><path d="M 273.963,246.709 C 272.430,243.259 273.005,243.012 271.566,239.514" stroke-width="6.220" stroke="black" fill="none" stroke-linecap="round"></path><path d="M 271.566,239.514 C 270.209,236.217 269.968,236.317 268.370,233.119" stroke-width="6.374" stroke="black" fill="none" stroke-linecap="round"></path><path d="M 268.370,233.119 C 267.171,230.721 268.012,229.853 265.973,228.323" stroke-width="6.626" stroke="black" fill="none" stroke-linecap="round"></path><path d="M 265.973,228.323 C 261.620,225.057 261.075,224.384 255.586,223.526" stroke-width="6.701" stroke="black" fill="none" stroke-linecap="round"></path><path d="M 255.586,223.526 C 248.291,222.386 247.871,223.057 240.405,224.326" stroke-width="5.206" stroke="black" fill="none" stroke-linecap="round"></path><path d="M 240.405,224.326 C 226.697,226.655 226.361,226.162 213.238,230.721" stroke-width="4.500" stroke="black" fill="none" stroke-linecap="round"></path><path d="M 213.238,230.721 C 197.597,236.155 197.637,236.710 182.876,244.311" stroke-width="4.500" stroke="black" fill="none" stroke-linecap="round"></path><path d="M 182.876,244.311 C 170.471,250.699 170.556,251.007 158.906,258.700" stroke-width="4.500" stroke="black" fill="none" stroke-linecap="round"></path><path d="M 158.906,258.700 C 150.581,264.197 150.947,264.737 142.926,270.691" stroke-width="4.500" stroke="black" fill="none" stroke-linecap="round"></path><path d="M 142.926,270.691 C 138.563,273.930 135.007,277.304 134.137,277.086" stroke-width="4.864" stroke="black" fill="none" stroke-linecap="round"></path><path d="M 134.137,277.086 C 133.409,276.904 136.713,273.304 139.730,269.892" stroke-width="6.532" stroke="black" fill="none" stroke-linecap="round"></path><path d="M 139.730,269.892 C 155.090,252.519 155.009,252.422 170.891,235.517" stroke-width="4.500" stroke="black" fill="none" stroke-linecap="round"></path><path d="M 170.891,235.517 C 192.562,212.452 192.155,212.002 214.836,189.951" stroke-width="4.500" stroke="black" fill="none" stroke-linecap="round"></path><path d="M 214.836,189.951 C 234.502,170.832 234.208,170.290 255.586,153.179" stroke-width="4.500" stroke="black" fill="none" stroke-linecap="round"></path><path d="M 255.586,153.179 C 272.160,139.912 272.132,139.187 290.742,129.197" stroke-width="4.500" stroke="black" fill="none" stroke-linecap="round"></path><path d="M 290.742,129.197 C 304.891,121.600 305.510,121.498 321.104,118.005" stroke-width="4.500" stroke="black" fill="none" stroke-linecap="round"></path><path d="M 321.104,118.005 C 332.276,115.502 333.025,115.738 344.275,117.206" stroke-width="4.500" stroke="black" fill="none" stroke-linecap="round"></path><path d="M 344.275,117.206 C 351.402,118.136 353.497,118.003 357.858,122.802" stroke-width="4.500" stroke="black" fill="none" stroke-linecap="round"></path><path d="M 357.858,122.802 C 361.487,126.796 362.209,129.449 360.255,134.793" stroke-width="4.850" stroke="black" fill="none" stroke-linecap="round"></path><path d="M 360.255,134.793 C 356.216,145.837 353.533,145.540 345.873,155.577" stroke-width="5.065" stroke="black" fill="none" stroke-linecap="round"></path><path d="M 345.873,155.577 C 336.754,167.524 336.012,166.954 326.697,178.760" stroke-width="4.500" stroke="black" fill="none" stroke-linecap="round"></path><path d="M 326.697,178.760 C 318.035,189.737 317.711,189.553 309.918,201.143" stroke-width="4.500" stroke="black" fill="none" stroke-linecap="round"></path><path d="M 309.918,201.143 C 302.929,211.536 303.072,211.693 297.134,222.727" stroke-width="4.500" stroke="black" fill="none" stroke-linecap="round"></path><path d="M 297.134,222.727 C 291.886,232.477 291.767,232.488 287.546,242.712" stroke-width="4.500" stroke="black" fill="none" stroke-linecap="round"></path><path d="M 287.546,242.712 C 284.176,250.874 284.146,250.964 281.953,259.499" stroke-width="4.500" stroke="black" fill="none" stroke-linecap="round"></path><path d="M 281.953,259.499 C 280.551,264.953 280.141,265.147 280.355,270.691" stroke-width="4.977" stroke="black" fill="none" stroke-linecap="round"></path><path d="M 280.355,270.691 C 280.541,275.540 280.763,275.863 282.752,280.284" stroke-width="5.456" stroke="black" fill="none" stroke-linecap="round"></path><path d="M 282.752,280.284 C 284.359,283.857 284.754,283.886 287.546,286.679" stroke-width="6.620" stroke="black" fill="none" stroke-linecap="round"></path><path d="M 287.546,286.679 C 289.947,289.082 290.006,289.423 293.139,290.676" stroke-width="6.471" stroke="black" fill="none" stroke-linecap="round"></path><path d="M 293.139,290.676 C 297.996,292.620 298.258,292.529 303.526,293.074" stroke-width="5.783" stroke="black" fill="none" stroke-linecap="round"></path><path d="M 303.526,293.074 C 309.843,293.728 309.918,293.074 316.310,293.074" stroke-width="5.315" stroke="black" fill="none" stroke-linecap="round"></path><path d="M 316.310,293.074 C 323.101,293.074 323.101,293.074 329.893,293.074" stroke-width="5.093" stroke="black" fill="none" stroke-linecap="round"></path><path d="M 329.893,293.074 C 336.285,293.074 336.318,292.636 342.677,293.074" stroke-width="5.210" stroke="black" fill="none" stroke-linecap="round"></path><path d="M 342.677,293.074 C 347.904,293.435 348.038,293.302 353.064,294.673" stroke-width="5.364" stroke="black" fill="none" stroke-linecap="round"></path><path d="M 353.064,294.673 C 356.827,295.700 356.913,295.865 360.255,297.871" stroke-width="5.892" stroke="black" fill="none" stroke-linecap="round"></path><path d="M 360.255,297.871 C 362.905,299.462 363.581,299.351 365.049,301.868" stroke-width="6.359" stroke="black" fill="none" stroke-linecap="round"></path><path d="M 365.049,301.868 C 366.378,304.147 365.660,304.651 365.848,307.464" stroke-width="6.631" stroke="black" fill="none" stroke-linecap="round"></path><circle r="3" cx="404.19976806640625" cy="338.64044189453125" fill="black"></circle></svg>