<svg xmlns="http://www.w3.org/2000/svg" xmlns:xlink="http://www.w3.org/1999/xlink" viewBox="0 0 576 416" width="576" height="416"><path d="M 396.210,269.092 C 391.815,269.092 391.798,269.336 387.421,269.092" stroke-width="8.691" stroke="black" fill="none" stroke-linecap="round"></path><path d="M 387.421,269.092 C 384.607,268.936 383.725,269.770 381.828,268.293" stroke-width="8.259" stroke="black" fill="none" stroke-linecap="round"></path><path d="M 381.828,268.293 C 380.130,266.972 380.796,265.950 380.230,263.496" stroke-width="8.209" stroke="black" fill="none" stroke-linecap="round"></path><path d="M 380.230,263.496 C 379.597,260.754 380.021,260.658 379.431,257.901" stroke-width="7.881" stroke="black" fill="none" stroke-linecap="round"></path><path d="M 379.431,257.901 C 378.823,255.062 378.632,255.103 377.833,252.305" stroke-width="7.718" stroke="black" fill="none" stroke-linecap="round"></path><path d="M 377.833,252.305 C 377.034,249.507 375.111,248.396 376.235,246.709" stroke-width="7.978" stroke="black" fill="none" stroke-linecap="round"></path><path d="M 376.235,246.709 C 377.508,244.799 379.395,245.312 382.627,245.110" stroke-width="8.232" stroke="black" fill="none" stroke-linecap="round"></path><path d="M 382.627,245.110 C 385.787,244.913 385.826,245.484 389.019,245.910" stroke-width="6.959" stroke="black" fill="none" stroke-linecap="round"></path><path d="M 389.019,245.910 C 391.819,246.283 391.801,246.508 394.612,246.709" stroke-width="6.815" stroke="black" fill="none" stroke-linecap="round"></path><path d="M 394.612,246.709 C 397.394,246.908 397.418,246.535 400.205,246.709" stroke-width="6.785" stroke="black" fill="none" stroke-linecap="round"></path><path d="M 400.205,246.709 C 403.810,246.935 406.690,246.802 407.396,247.508" stroke-width="7.218" stroke="black" fill="none" stroke-linecap="round"></path><path d="M 407.396,247.508 C 407.889,248.002 405.007,248.334 402.602,249.107" stroke-width="8.117" stroke="black" fill="none" stroke-linecap="round"></path><path d="M 402.602,249.107 C 393.821,251.931 393.900,252.205 385.024,254.703" stroke-width="6.421" stroke="black" fill="none" stroke-linecap="round"></path><path d="M 385.024,254.703 C 368.332,259.400 368.393,259.779 351.466,263.496" stroke-width="4.500" stroke="black" fill="none" stroke-linecap="round"></path><path d="M 351.466,263.496 C 335.634,266.974 335.568,266.965 319.506,269.092" stroke-width="4.500" stroke="black" fill="none" stroke-linecap="round"></path><path d="M 319.506,269.092 C 308.402,270.563 308.331,270.204 297.134,270.691" stroke-width="4.500" stroke="black" fill="none" stroke-linecap="round"></path><path d="M 297.134,270.691 C 289.954,271.003 289.875,271.239 282.752,270.691" stroke-width="4.500" stroke="black" fill="none" stroke-linecap="round"></path><path d="M 282.752,270.691 C 279.488,270.440 279.444,270.194 276.360,269.092" stroke-width="5.691" stroke="black" fill="none" stroke-linecap="round"></path><path d="M 276.360,269.092 C 273.851,268.196 270.926,267.334 271.566,266.694" stroke-width="7.005" stroke="black" fill="none" stroke-linecap="round"></path><path d="M 271.566,266.694 C 272.524,265.735 275.548,266.033 279.556,265.895" stroke-width="7.705" stroke="black" fill="none" stroke-linecap="round"></path><path d="M 279.556,265.895 C 287.133,265.633 287.146,265.895 294.737,265.895" stroke-width="5.591" stroke="black" fill="none" stroke-linecap="round"></path><path d="M 294.737,265.895 C 303.526,265.895 303.526,265.895 312.315,265.895" stroke-width="4.611" stroke="black" fill="none" stroke-linecap="round"></path><path d="M 312.315,265.895 C 321.503,265.895 321.503,265.895 330.692,265.895" stroke-width="4.500" stroke="black" fill="none" stroke-linecap="round"></path><path d="M 330.692,265.895 C 339.081,265.895 339.081,265.895 347.471,265.895" stroke-width="4.500" stroke="black" fill="none" stroke-linecap="round"></path><path d="M 347.471,265.895 C 355.061,265.895 355.061,265.895 362.652,265.895" stroke-width="4.662" stroke="black" fill="none" stroke-linecap="round"></path><path d="M 362.652,265.895 C 368.245,265.895 368.245,265.895 373.838,265.895" stroke-width="5.173" stroke="black" fill="none" stroke-linecap="round"></path><path d="M 373.838,265.895 C 377.833,265.895 383.516,265.332 381.828,265.895" stroke-width="5.803" stroke="black" fill="none" stroke-linecap="round"></path><path d="M 381.828,265.895 C 377.523,267.330 371.811,267.757 361.853,269.892" stroke-width="6.751" stroke="black" fill="none" stroke-linecap="round"></path><path d="M 361.853,269.892 C 355.031,271.354 354.979,271.201 348.270,273.089" stroke-width="5.375" stroke="black" fill="none" stroke-linecap="round"></path><path d="M 348.270,273.089 C 342.195,274.799 342.169,274.807 336.285,277.086" stroke-width="5.225" stroke="black" fill="none" stroke-linecap="round"></path><path d="M 336.285,277.086 C 329.785,279.604 329.807,279.703 323.501,282.682" stroke-width="5.024" stroke="black" fill="none" stroke-linecap="round"></path><path d="M 323.501,282.682 C 315.425,286.497 315.458,286.578 307.521,290.676" stroke-width="4.561" stroke="black" fill="none" stroke-linecap="round"></path><path d="M 307.521,290.676 C 303.073,292.973 303.126,293.074 298.732,295.473" stroke-width="5.281" stroke="black" fill="none" stroke-linecap="round"></path></svg>