<svg xmlns="http://www.w3.org/2000/svg" xmlns:xlink="http://www.w3.org/1999/xlink" viewBox="0 0 576 416" width="576" height="416"><path d="M 168.494,203.541 C 179.281,195.547 178.567,194.435 190.067,187.553" stroke-width="4.500" stroke="black" fill="none" stroke-linecap="round"></path><path d="M 190.067,187.553 C 221.314,168.854 221.512,168.901 253.988,152.379" stroke-width="4.500" stroke="black" fill="none" stroke-linecap="round"></path><path d="M 253.988,152.379 C 268.653,144.919 268.712,144.663 284.350,139.589" stroke-width="4.500" stroke="black" fill="none" stroke-linecap="round"></path><path d="M 284.350,139.589 C 313.056,130.274 313.113,129.516 342.677,123.601" stroke-width="4.500" stroke="black" fill="none" stroke-linecap="round"></path><path d="M 342.677,123.601 C 367.046,118.725 367.429,119.060 392.215,118.005" stroke-width="4.500" stroke="black" fill="none" stroke-linecap="round"></path><path d="M 392.215,118.005 C 404.982,117.461 410.493,113.515 417.783,120.403" stroke-width="4.500" stroke="black" fill="none" stroke-linecap="round"></path><path d="M 417.783,120.403 C 424.875,127.105 423.178,133.939 420.979,145.185" stroke-width="4.500" stroke="black" fill="none" stroke-linecap="round"></path><path d="M 420.979,145.185 C 419.583,152.325 416.471,151.874 410.592,157.176" stroke-width="4.500" stroke="black" fill="none" stroke-linecap="round"></path><path d="M 410.592,157.176 C 388.106,177.455 388.323,177.939 364.250,196.347" stroke-width="4.500" stroke="black" fill="none" stroke-linecap="round"></path><path d="M 364.250,196.347 C 339.185,215.511 338.705,214.975 312.315,232.320" stroke-width="4.500" stroke="black" fill="none" stroke-linecap="round"></path><path d="M 312.315,232.320 C 283.973,250.948 283.937,250.957 254.787,268.293" stroke-width="4.500" stroke="black" fill="none" stroke-linecap="round"></path><path d="M 254.787,268.293 C 226.808,284.932 226.635,284.673 198.057,300.269" stroke-width="4.500" stroke="black" fill="none" stroke-linecap="round"></path><path d="M 198.057,300.269 C 173.901,313.452 174.250,314.302 149.318,325.850" stroke-width="4.500" stroke="black" fill="none" stroke-linecap="round"></path><path d="M 149.318,325.850 C 131.104,334.287 130.938,334.644 111.765,340.239" stroke-width="4.500" stroke="black" fill="none" stroke-linecap="round"></path><path d="M 111.765,340.239 C 102.174,343.038 100.565,343.848 91.790,342.637" stroke-width="4.500" stroke="black" fill="none" stroke-linecap="round"></path><path d="M 91.790,342.637 C 88.980,342.250 87.117,339.389 88.594,337.042" stroke-width="5.125" stroke="black" fill="none" stroke-linecap="round"></path><path d="M 88.594,337.042 C 93.908,328.598 96.220,328.086 105.373,321.054" stroke-width="5.282" stroke="black" fill="none" stroke-linecap="round"></path><path d="M 105.373,321.054 C 118.592,310.899 118.805,310.894 133.338,302.667" stroke-width="4.500" stroke="black" fill="none" stroke-linecap="round"></path><path d="M 133.338,302.667 C 149.167,293.707 149.402,293.950 166.097,286.679" stroke-width="4.500" stroke="black" fill="none" stroke-linecap="round"></path><path d="M 166.097,286.679 C 183.360,279.161 183.496,279.373 201.253,273.089" stroke-width="4.500" stroke="black" fill="none" stroke-linecap="round"></path><path d="M 201.253,273.089 C 216.255,267.781 216.442,268.316 231.615,263.496" stroke-width="4.500" stroke="black" fill="none" stroke-linecap="round"></path><path d="M 231.615,263.496 C 241.610,260.322 241.731,260.642 251.591,257.101" stroke-width="4.500" stroke="black" fill="none" stroke-linecap="round"></path><path d="M 251.591,257.101 C 257.312,255.046 257.291,254.918 262.777,252.305" stroke-width="4.648" stroke="black" fill="none" stroke-linecap="round"></path><path d="M 262.777,252.305 C 265.680,250.921 265.493,250.546 268.370,249.107" stroke-width="5.821" stroke="black" fill="none" stroke-linecap="round"></path><path d="M 268.370,249.107 C 271.086,247.748 271.399,248.288 273.963,246.709" stroke-width="6.363" stroke="black" fill="none" stroke-linecap="round"></path><path d="M 273.963,246.709 C 276.592,245.090 276.276,244.603 278.757,242.712" stroke-width="7.184" stroke="black" fill="none" stroke-linecap="round"></path><path d="M 278.757,242.712 C 284.665,238.208 284.907,238.518 290.742,233.919" stroke-width="5.442" stroke="black" fill="none" stroke-linecap="round"></path><path d="M 290.742,233.919 C 298.091,228.125 297.718,227.643 305.124,221.928" stroke-width="4.500" stroke="black" fill="none" stroke-linecap="round"></path><path d="M 305.124,221.928 C 311.700,216.851 312.096,217.361 318.707,212.335" stroke-width="4.524" stroke="black" fill="none" stroke-linecap="round"></path><path d="M 318.707,212.335 C 322.084,209.767 321.903,209.537 325.099,206.739" stroke-width="5.466" stroke="black" fill="none" stroke-linecap="round"></path></svg>