<svg xmlns="http://www.w3.org/2000/svg" xmlns:xlink="http://www.w3.org/1999/xlink" viewBox="0 0 576 336" width="576" height="336"><path d="M 222.390,287.671 C 220.792,279.674 220.757,279.681 219.193,271.677" stroke-width="7.600" stroke="black" fill="none" stroke-linecap="round"></path><path d="M 219.193,271.677 C 217.737,264.221 217.246,264.282 216.351,256.750" stroke-width="5.232" stroke="black" fill="none" stroke-linecap="round"></path><path d="M 216.351,256.750 C 215.114,246.334 215.200,246.277 214.931,235.781" stroke-width="4.500" stroke="black" fill="none" stroke-linecap="round"></path><path d="M 214.931,235.781 C 214.667,225.485 215.057,225.473 215.286,215.167" stroke-width="4.500" stroke="black" fill="none" stroke-linecap="round"></path><path d="M 215.286,215.167 C 215.590,201.483 215.263,201.444 215.996,187.801" stroke-width="4.500" stroke="black" fill="none" stroke-linecap="round"></path><path d="M 215.996,187.801 C 216.151,184.918 216.577,184.966 217.062,182.115" stroke-width="5.701" stroke="black" fill="none" stroke-linecap="round"></path><path d="M 217.062,182.115 C 217.998,176.614 217.308,176.406 218.838,171.097" stroke-width="5.511" stroke="black" fill="none" stroke-linecap="round"></path><path d="M 218.838,171.097 C 219.972,167.165 220.109,167.008 222.390,163.633" stroke-width="6.022" stroke="black" fill="none" stroke-linecap="round"></path><path d="M 222.390,163.633 C 224.194,160.966 224.245,160.521 227.008,159.013" stroke-width="6.970" stroke="black" fill="none" stroke-linecap="round"></path><path d="M 227.008,159.013 C 230.106,157.323 232.168,155.080 234.113,157.236" stroke-width="7.242" stroke="black" fill="none" stroke-linecap="round"></path><path d="M 234.113,157.236 C 238.740,162.366 240.428,165.283 240.152,173.585" stroke-width="5.027" stroke="black" fill="none" stroke-linecap="round"></path><path d="M 240.152,173.585 C 239.718,186.607 237.696,187.237 232.692,199.885" stroke-width="4.500" stroke="black" fill="none" stroke-linecap="round"></path><path d="M 232.692,199.885 C 227.572,212.827 227.881,213.547 219.904,224.764" stroke-width="4.500" stroke="black" fill="none" stroke-linecap="round"></path><path d="M 219.904,224.764 C 214.737,232.028 213.655,231.667 206.405,236.847" stroke-width="4.500" stroke="black" fill="none" stroke-linecap="round"></path><path d="M 206.405,236.847 C 203.708,238.775 202.943,239.438 200.011,238.980" stroke-width="5.363" stroke="black" fill="none" stroke-linecap="round"></path><path d="M 200.011,238.980 C 197.259,238.550 197.203,237.354 195.038,235.070" stroke-width="6.148" stroke="black" fill="none" stroke-linecap="round"></path><path d="M 195.038,235.070 C 190.631,230.423 190.400,230.463 186.868,225.119" stroke-width="5.391" stroke="black" fill="none" stroke-linecap="round"></path><path d="M 186.868,225.119 C 183.118,219.445 183.570,219.128 180.474,213.035" stroke-width="4.895" stroke="black" fill="none" stroke-linecap="round"></path><path d="M 180.474,213.035 C 178.242,208.643 179.081,207.979 176.211,204.150" stroke-width="5.348" stroke="black" fill="none" stroke-linecap="round"></path><path d="M 176.211,204.150 C 174.286,201.582 173.734,200.716 170.883,200.240" stroke-width="6.670" stroke="black" fill="none" stroke-linecap="round"></path><path d="M 170.883,200.240 C 168.406,199.827 168.116,201.091 165.554,202.373" stroke-width="6.777" stroke="black" fill="none" stroke-linecap="round"></path><path d="M 165.554,202.373 C 160.656,204.823 160.864,205.252 155.963,207.704" stroke-width="5.806" stroke="black" fill="none" stroke-linecap="round"></path><path d="M 155.963,207.704 C 151.983,209.695 152.042,210.502 147.793,211.258" stroke-width="5.788" stroke="black" fill="none" stroke-linecap="round"></path><path d="M 147.793,211.258 C 144.050,211.924 143.644,211.770 139.978,210.547" stroke-width="5.872" stroke="black" fill="none" stroke-linecap="round"></path><path d="M 139.978,210.547 C 133.520,208.393 133.450,208.050 127.545,204.505" stroke-width="5.205" stroke="black" fill="none" stroke-linecap="round"></path><path d="M 127.545,204.505 C 121.017,200.586 121.853,199.101 115.112,195.620" stroke-width="4.870" stroke="black" fill="none" stroke-linecap="round"></path><path d="M 115.112,195.620 C 105.335,190.571 104.785,191.595 94.509,187.446" stroke-width="4.500" stroke="black" fill="none" stroke-linecap="round"></path><path d="M 94.509,187.446 C 84.537,183.420 84.770,182.749 74.616,179.271" stroke-width="4.500" stroke="black" fill="none" stroke-linecap="round"></path><path d="M 74.616,179.271 C 65.055,175.996 64.959,176.085 55.078,173.940" stroke-width="4.500" stroke="black" fill="none" stroke-linecap="round"></path><path d="M 55.078,173.940 C 46.132,171.998 46.074,171.826 36.962,171.097" stroke-width="4.500" stroke="black" fill="none" stroke-linecap="round"></path><path d="M 36.962,171.097 C 28.313,170.405 28.218,170.525 19.556,171.097" stroke-width="4.500" stroke="black" fill="none" stroke-linecap="round"></path><path d="M 19.556,171.097 C 12.056,171.592 12.070,172.006 4.636,173.230" stroke-width="4.787" stroke="black" fill="none" stroke-linecap="round"></path><path d="M 4.636,173.230 C -1.961,174.316 -2.026,174.123 -8.507,175.717" stroke-width="4.959" stroke="black" fill="none" stroke-linecap="round"></path><path d="M -8.507,175.717 C -12.861,176.789 -13.117,176.546 -17.032,178.560" stroke-width="5.496" stroke="black" fill="none" stroke-linecap="round"></path><path d="M -17.032,178.560 C -19.334,179.744 -21.589,180.491 -20.940,182.115" stroke-width="6.388" stroke="black" fill="none" stroke-linecap="round"></path><path d="M -20.940,182.115 C -19.813,184.933 -17.797,186.462 -13.480,187.446" stroke-width="7.179" stroke="black" fill="none" stroke-linecap="round"></path><path d="M -13.480,187.446 C -3.766,189.660 -3.116,189.157 7.123,188.512" stroke-width="4.674" stroke="black" fill="none" stroke-linecap="round"></path><path d="M 7.123,188.512 C 19.441,187.735 19.408,186.726 31.634,184.602" stroke-width="4.500" stroke="black" fill="none" stroke-linecap="round"></path><path d="M 31.634,184.602 C 44.984,182.284 44.992,182.302 58.276,179.627" stroke-width="4.500" stroke="black" fill="none" stroke-linecap="round"></path><path d="M 58.276,179.627 C 73.233,176.615 73.218,176.532 88.115,173.230" stroke-width="4.500" stroke="black" fill="none" stroke-linecap="round"></path><path d="M 88.115,173.230 C 102.880,169.957 102.803,169.598 117.599,166.477" stroke-width="4.500" stroke="black" fill="none" stroke-linecap="round"></path><path d="M 117.599,166.477 C 132.287,163.378 132.290,163.335 147.082,160.790" stroke-width="4.500" stroke="black" fill="none" stroke-linecap="round"></path><path d="M 147.082,160.790 C 160.175,158.537 160.168,158.276 173.369,156.881" stroke-width="4.500" stroke="black" fill="none" stroke-linecap="round"></path><path d="M 173.369,156.881 C 185.389,155.610 185.445,156.141 197.525,155.459" stroke-width="4.500" stroke="black" fill="none" stroke-linecap="round"></path><path d="M 197.525,155.459 C 207.469,154.897 207.470,154.901 217.417,154.393" stroke-width="4.500" stroke="black" fill="none" stroke-linecap="round"></path><path d="M 217.417,154.393 C 224.876,154.012 224.875,153.977 232.337,153.682" stroke-width="4.500" stroke="black" fill="none" stroke-linecap="round"></path><path d="M 232.337,153.682 C 238.373,153.444 238.375,153.438 244.415,153.326" stroke-width="4.920" stroke="black" fill="none" stroke-linecap="round"></path><path d="M 244.415,153.326 C 247.966,153.261 253.151,153.278 251.519,153.326" stroke-width="5.839" stroke="black" fill="none" stroke-linecap="round"></path></svg>