<svg xmlns="http://www.w3.org/2000/svg" xmlns:xlink="http://www.w3.org/1999/xlink" viewBox="0 0 576 350" width="576" height="350"><path d="M 305.000,88.000 C 306.000,92.000 305.938,92.017 307.000,96.000" stroke-width="7.785" stroke="black" fill="none" stroke-linecap="round"></path><path d="M 307.000,96.000 C 307.938,99.517 308.026,99.493 309.000,103.000" stroke-width="6.592" stroke="black" fill="none" stroke-linecap="round"></path><path d="M 309.000,103.000 C 310.526,108.493 310.434,108.519 312.000,114.000" stroke-width="5.700" stroke="black" fill="none" stroke-linecap="round"></path><path d="M 312.000,114.000 C 313.434,119.019 313.277,119.078 315.000,124.000" stroke-width="5.520" stroke="black" fill="none" stroke-linecap="round"></path><path d="M 315.000,124.000 C 316.777,129.078 316.712,129.139 319.000,134.000" stroke-width="5.513" stroke="black" fill="none" stroke-linecap="round"></path><path d="M 253.000,48.000 C 252.500,51.000 252.202,50.975 252.000,54.000" stroke-width="8.497" stroke="black" fill="none" stroke-linecap="round"></path><path d="M 252.000,54.000 C 251.702,58.475 252.000,58.500 252.000,63.000" stroke-width="6.483" stroke="black" fill="none" stroke-linecap="round"></path><path d="M 252.000,63.000 C 252.000,67.500 252.000,67.500 252.000,72.000" stroke-width="6.052" stroke="black" fill="none" stroke-linecap="round"></path><path d="M 252.000,72.000 C 252.000,76.000 252.000,76.000 252.000,80.000" stroke-width="6.099" stroke="black" fill="none" stroke-linecap="round"></path><path d="M 252.000,80.000 C 252.000,84.500 252.000,84.500 252.000,89.000" stroke-width="5.858" stroke="black" fill="none" stroke-linecap="round"></path><path d="M 252.000,89.000 C 252.000,93.500 252.000,93.500 252.000,98.000" stroke-width="5.877" stroke="black" fill="none" stroke-linecap="round"></path><path d="M 252.000,98.000 C 252.000,102.000 252.000,102.000 252.000,106.000" stroke-width="6.045" stroke="black" fill="none" stroke-linecap="round"></path><path d="M 252.000,106.000 C 252.000,110.000 252.000,110.000 252.000,114.000" stroke-width="6.013" stroke="black" fill="none" stroke-linecap="round"></path><path d="M 252.000,114.000 C 252.000,116.500 252.000,119.227 252.000,119.000" stroke-width="6.643" stroke="black" fill="none" stroke-linecap="round"></path><path d="M 252.000,119.000 C 252.000,118.727 251.127,115.794 252.000,113.000" stroke-width="7.560" stroke="black" fill="none" stroke-linecap="round"></path><path d="M 252.000,113.000 C 253.627,107.794 253.970,107.661 257.000,103.000" stroke-width="5.931" stroke="black" fill="none" stroke-linecap="round"></path><path d="M 257.000,103.000 C 260.470,97.661 260.604,97.628 265.000,93.000" stroke-width="5.246" stroke="black" fill="none" stroke-linecap="round"></path><path d="M 265.000,93.000 C 270.104,87.628 270.234,87.668 276.000,83.000" stroke-width="4.927" stroke="black" fill="none" stroke-linecap="round"></path><path d="M 276.000,83.000 C 280.734,79.168 280.580,78.409 286.000,76.000" stroke-width="5.141" stroke="black" fill="none" stroke-linecap="round"></path><path d="M 286.000,76.000 C 289.580,74.409 289.988,75.309 294.000,75.000" stroke-width="5.704" stroke="black" fill="none" stroke-linecap="round"></path><path d="M 294.000,75.000 C 296.488,74.809 297.153,73.846 299.000,75.000" stroke-width="6.525" stroke="black" fill="none" stroke-linecap="round"></path><path d="M 299.000,75.000 C 301.153,76.346 301.192,77.308 302.000,80.000" stroke-width="7.273" stroke="black" fill="none" stroke-linecap="round"></path><path d="M 302.000,80.000 C 302.692,82.308 302.000,82.500 302.000,85.000" stroke-width="7.047" stroke="black" fill="none" stroke-linecap="round"></path><path d="M 302.000,85.000 C 302.000,88.500 303.414,88.996 302.000,92.000" stroke-width="6.563" stroke="black" fill="none" stroke-linecap="round"></path><path d="M 302.000,92.000 C 299.414,97.496 297.915,96.934 294.000,102.000" stroke-width="5.384" stroke="black" fill="none" stroke-linecap="round"></path><path d="M 294.000,102.000 C 289.415,107.934 289.745,108.201 285.000,114.000" stroke-width="4.947" stroke="black" fill="none" stroke-linecap="round"></path><path d="M 285.000,114.000 C 280.745,119.201 280.063,118.668 276.000,124.000" stroke-width="5.001" stroke="black" fill="none" stroke-linecap="round"></path><path d="M 276.000,124.000 C 272.063,129.168 272.500,129.500 269.000,135.000" stroke-width="5.065" stroke="black" fill="none" stroke-linecap="round"></path><path d="M 269.000,135.000 C 265.500,140.500 265.315,140.391 262.000,146.000" stroke-width="4.990" stroke="black" fill="none" stroke-linecap="round"></path><path d="M 262.000,146.000 C 258.815,151.391 258.800,151.400 256.000,157.000" stroke-width="5.122" stroke="black" fill="none" stroke-linecap="round"></path><path d="M 256.000,157.000 C 252.800,163.400 252.324,163.262 250.000,170.000" stroke-width="4.954" stroke="black" fill="none" stroke-linecap="round"></path><path d="M 250.000,170.000 C 247.324,177.762 247.662,177.930 246.000,186.000" stroke-width="4.577" stroke="black" fill="none" stroke-linecap="round"></path><path d="M 246.000,186.000 C 244.162,194.930 244.065,194.950 243.000,204.000" stroke-width="4.500" stroke="black" fill="none" stroke-linecap="round"></path><path d="M 243.000,204.000 C 242.065,211.950 242.286,211.993 242.000,220.000" stroke-width="4.563" stroke="black" fill="none" stroke-linecap="round"></path><path d="M 242.000,220.000 C 241.786,225.993 242.000,226.000 242.000,232.000" stroke-width="4.954" stroke="black" fill="none" stroke-linecap="round"></path><path d="M 242.000,232.000 C 242.000,235.000 243.091,235.545 242.000,238.000" stroke-width="6.032" stroke="black" fill="none" stroke-linecap="round"></path><path d="M 242.000,238.000 C 241.091,240.045 240.256,240.549 238.000,241.000" stroke-width="7.391" stroke="black" fill="none" stroke-linecap="round"></path><path d="M 238.000,241.000 C 235.256,241.549 234.160,241.800 232.000,240.000" stroke-width="6.840" stroke="black" fill="none" stroke-linecap="round"></path><path d="M 232.000,240.000 C 228.160,236.800 228.326,235.845 226.000,231.000" stroke-width="5.740" stroke="black" fill="none" stroke-linecap="round"></path><path d="M 226.000,231.000 C 222.326,223.345 221.491,223.308 220.000,215.000" stroke-width="4.803" stroke="black" fill="none" stroke-linecap="round"></path><path d="M 182.000,116.000 C 184.500,116.500 184.571,116.253 187.000,117.000" stroke-width="8.263" stroke="black" fill="none" stroke-linecap="round"></path><path d="M 187.000,117.000 C 191.071,118.253 191.249,118.014 195.000,120.000" stroke-width="6.528" stroke="black" fill="none" stroke-linecap="round"></path><path d="M 195.000,120.000 C 199.749,122.514 199.619,122.836 204.000,126.000" stroke-width="5.773" stroke="black" fill="none" stroke-linecap="round"></path><path d="M 204.000,126.000 C 208.619,129.336 208.500,129.500 213.000,133.000" stroke-width="5.497" stroke="black" fill="none" stroke-linecap="round"></path><path d="M 213.000,133.000 C 217.500,136.500 218.010,136.010 222.000,140.000" stroke-width="5.326" stroke="black" fill="none" stroke-linecap="round"></path><path d="M 222.000,140.000 C 225.010,143.010 225.451,143.128 227.000,147.000" stroke-width="5.765" stroke="black" fill="none" stroke-linecap="round"></path><path d="M 227.000,147.000 C 228.451,150.628 230.141,152.664 228.000,155.000" stroke-width="6.720" stroke="black" fill="none" stroke-linecap="round"></path><path d="M 228.000,155.000 C 224.641,158.664 221.863,156.655 216.000,159.000" stroke-width="5.546" stroke="black" fill="none" stroke-linecap="round"></path><path d="M 216.000,159.000 C 209.363,161.655 209.344,161.701 203.000,165.000" stroke-width="5.067" stroke="black" fill="none" stroke-linecap="round"></path><path d="M 203.000,165.000 C 196.844,168.201 196.904,168.345 191.000,172.000" stroke-width="4.889" stroke="black" fill="none" stroke-linecap="round"></path><path d="M 191.000,172.000 C 186.404,174.845 186.103,174.581 182.000,178.000" stroke-width="5.302" stroke="black" fill="none" stroke-linecap="round"></path><path d="M 182.000,178.000 C 180.103,179.581 177.933,181.111 179.000,182.000" stroke-width="6.360" stroke="black" fill="none" stroke-linecap="round"></path><path d="M 179.000,182.000 C 180.933,183.611 183.545,183.387 188.000,183.000" stroke-width="7.192" stroke="black" fill="none" stroke-linecap="round"></path><path d="M 188.000,183.000 C 195.045,182.387 195.109,181.901 202.000,180.000" stroke-width="5.406" stroke="black" fill="none" stroke-linecap="round"></path><path d="M 202.000,180.000 C 209.609,177.901 209.336,176.788 217.000,175.000" stroke-width="4.759" stroke="black" fill="none" stroke-linecap="round"></path><path d="M 217.000,175.000 C 224.336,173.288 224.472,173.579 232.000,173.000" stroke-width="4.761" stroke="black" fill="none" stroke-linecap="round"></path><path d="M 232.000,173.000 C 237.472,172.579 237.522,172.696 243.000,173.000" stroke-width="5.232" stroke="black" fill="none" stroke-linecap="round"></path><path d="M 243.000,173.000 C 246.522,173.196 247.430,172.131 250.000,174.000" stroke-width="5.900" stroke="black" fill="none" stroke-linecap="round"></path><path d="M 250.000,174.000 C 252.930,176.131 252.996,177.235 254.000,181.000" stroke-width="6.042" stroke="black" fill="none" stroke-linecap="round"></path><path d="M 254.000,181.000 C 254.996,184.735 255.427,185.432 254.000,189.000" stroke-width="6.096" stroke="black" fill="none" stroke-linecap="round"></path><path d="M 254.000,189.000 C 251.427,195.432 250.616,195.505 246.000,201.000" stroke-width="5.074" stroke="black" fill="none" stroke-linecap="round"></path><path d="M 246.000,201.000 C 240.116,208.005 240.311,208.576 233.000,214.000" stroke-width="4.524" stroke="black" fill="none" stroke-linecap="round"></path><path d="M 233.000,214.000 C 224.811,220.076 224.154,219.299 215.000,224.000" stroke-width="4.500" stroke="black" fill="none" stroke-linecap="round"></path><path d="M 215.000,224.000 C 205.654,228.799 205.755,229.149 196.000,233.000" stroke-width="4.500" stroke="black" fill="none" stroke-linecap="round"></path><path d="M 196.000,233.000 C 186.755,236.649 186.656,236.651 177.000,239.000" stroke-width="4.500" stroke="black" fill="none" stroke-linecap="round"></path><path d="M 177.000,239.000 C 168.156,241.151 168.060,241.223 159.000,242.000" stroke-width="4.500" stroke="black" fill="none" stroke-linecap="round"></path><path d="M 159.000,242.000 C 150.560,242.723 150.308,243.259 142.000,242.000" stroke-width="4.500" stroke="black" fill="none" stroke-linecap="round"></path><path d="M 142.000,242.000 C 133.808,240.759 133.637,240.341 126.000,237.000" stroke-width="4.500" stroke="black" fill="none" stroke-linecap="round"></path><path d="M 126.000,237.000 C 117.637,233.341 117.917,232.641 110.000,228.000" stroke-width="4.500" stroke="black" fill="none" stroke-linecap="round"></path><path d="M 110.000,228.000 C 103.417,224.141 103.346,224.230 97.000,220.000" stroke-width="4.584" stroke="black" fill="none" stroke-linecap="round"></path><path d="M 97.000,220.000 C 91.346,216.230 91.399,216.129 86.000,212.000" stroke-width="4.867" stroke="black" fill="none" stroke-linecap="round"></path><path d="M 86.000,212.000 C 82.899,209.629 81.513,210.025 80.000,207.000" stroke-width="5.638" stroke="black" fill="none" stroke-linecap="round"></path><path d="M 80.000,207.000 C 79.013,205.025 79.081,203.319 81.000,202.000" stroke-width="7.010" stroke="black" fill="none" stroke-linecap="round"></path><path d="M 81.000,202.000 C 87.081,197.819 88.527,199.066 96.000,196.000" stroke-width="5.142" stroke="black" fill="none" stroke-linecap="round"></path><path d="M 96.000,196.000 C 108.027,191.066 107.887,190.711 120.000,186.000" stroke-width="4.500" stroke="black" fill="none" stroke-linecap="round"></path><path d="M 120.000,186.000 C 134.887,180.211 134.746,179.675 150.000,175.000" stroke-width="4.500" stroke="black" fill="none" stroke-linecap="round"></path><path d="M 150.000,175.000 C 165.746,170.175 165.830,170.067 182.000,167.000" stroke-width="4.500" stroke="black" fill="none" stroke-linecap="round"></path><path d="M 182.000,167.000 C 194.830,164.567 194.970,164.977 208.000,164.000" stroke-width="4.500" stroke="black" fill="none" stroke-linecap="round"></path><path d="M 208.000,164.000 C 214.970,163.477 217.867,161.934 222.000,164.000" stroke-width="4.500" stroke="black" fill="none" stroke-linecap="round"></path><path d="M 222.000,164.000 C 223.867,164.934 222.422,168.210 220.000,170.000" stroke-width="6.158" stroke="black" fill="none" stroke-linecap="round"></path><path d="M 220.000,170.000 C 210.922,176.710 209.436,175.381 199.000,181.000" stroke-width="4.500" stroke="black" fill="none" stroke-linecap="round"></path><path d="M 199.000,181.000 C 183.436,189.381 183.564,189.619 168.000,198.000" stroke-width="4.500" stroke="black" fill="none" stroke-linecap="round"></path><path d="M 168.000,198.000 C 151.064,207.119 151.150,207.297 134.000,216.000" stroke-width="4.500" stroke="black" fill="none" stroke-linecap="round"></path><path d="M 134.000,216.000 C 117.650,224.297 117.285,223.586 101.000,232.000" stroke-width="4.500" stroke="black" fill="none" stroke-linecap="round"></path><path d="M 101.000,232.000 C 87.285,239.086 87.500,239.500 74.000,247.000" stroke-width="4.500" stroke="black" fill="none" stroke-linecap="round"></path><path d="M 74.000,247.000 C 65.000,252.000 65.051,252.097 56.000,257.000" stroke-width="4.500" stroke="black" fill="none" stroke-linecap="round"></path><path d="M 56.000,257.000 C 53.051,258.597 49.757,259.513 50.000,260.000" stroke-width="5.224" stroke="black" fill="none" stroke-linecap="round"></path><path d="M 50.000,260.000 C 50.257,260.513 53.809,260.430 57.000,259.000" stroke-width="6.606" stroke="black" fill="none" stroke-linecap="round"></path><path d="M 57.000,259.000 C 68.309,253.930 68.297,253.498 79.000,247.000" stroke-width="4.500" stroke="black" fill="none" stroke-linecap="round"></path><path d="M 79.000,247.000 C 96.297,236.498 95.898,235.839 113.000,225.000" stroke-width="4.500" stroke="black" fill="none" stroke-linecap="round"></path><path d="M 113.000,225.000 C 131.398,213.339 131.174,212.939 150.000,202.000" stroke-width="4.500" stroke="black" fill="none" stroke-linecap="round"></path><path d="M 150.000,202.000 C 168.174,191.439 167.881,190.590 187.000,182.000" stroke-width="4.500" stroke="black" fill="none" stroke-linecap="round"></path><path d="M 187.000,182.000 C 202.381,175.090 202.843,175.971 219.000,171.000" stroke-width="4.500" stroke="black" fill="none" stroke-linecap="round"></path><path d="M 219.000,171.000 C 228.843,167.971 228.914,167.801 239.000,166.000" stroke-width="4.500" stroke="black" fill="none" stroke-linecap="round"></path><path d="M 239.000,166.000 C 242.914,165.301 246.794,164.144 247.000,166.000" stroke-width="5.046" stroke="black" fill="none" stroke-linecap="round"></path><path d="M 247.000,166.000 C 247.294,168.644 244.759,172.054 240.000,175.000" stroke-width="6.094" stroke="black" fill="none" stroke-linecap="round"></path><path d="M 240.000,175.000 C 223.759,185.054 222.209,182.943 205.000,192.000" stroke-width="4.500" stroke="black" fill="none" stroke-linecap="round"></path><path d="M 205.000,192.000 C 184.209,202.943 184.859,204.193 164.000,215.000" stroke-width="4.500" stroke="black" fill="none" stroke-linecap="round"></path><path d="M 164.000,215.000 C 143.359,225.693 143.214,225.481 122.000,235.000" stroke-width="4.500" stroke="black" fill="none" stroke-linecap="round"></path><path d="M 122.000,235.000 C 104.214,242.981 104.262,243.225 86.000,250.000" stroke-width="4.500" stroke="black" fill="none" stroke-linecap="round"></path><path d="M 86.000,250.000 C 73.262,254.725 73.213,255.169 60.000,258.000" stroke-width="4.500" stroke="black" fill="none" stroke-linecap="round"></path><path d="M 60.000,258.000 C 52.213,259.669 50.197,261.283 44.000,259.000" stroke-width="4.500" stroke="black" fill="none" stroke-linecap="round"></path><path d="M 44.000,259.000 C 40.697,257.783 39.703,254.567 41.000,251.000" stroke-width="5.802" stroke="black" fill="none" stroke-linecap="round"></path><path d="M 41.000,251.000 C 43.703,243.567 45.587,243.121 52.000,237.000" stroke-width="4.741" stroke="black" fill="none" stroke-linecap="round"></path><path d="M 52.000,237.000 C 67.587,222.121 68.129,222.541 85.000,209.000" stroke-width="4.500" stroke="black" fill="none" stroke-linecap="round"></path><path d="M 85.000,209.000 C 106.129,192.041 105.753,191.421 128.000,176.000" stroke-width="4.500" stroke="black" fill="none" stroke-linecap="round"></path><path d="M 128.000,176.000 C 149.753,160.921 149.921,160.966 173.000,148.000" stroke-width="4.500" stroke="black" fill="none" stroke-linecap="round"></path><path d="M 173.000,148.000 C 194.421,135.966 194.788,136.551 217.000,126.000" stroke-width="4.500" stroke="black" fill="none" stroke-linecap="round"></path><path d="M 217.000,126.000 C 234.788,117.551 234.712,117.257 253.000,110.000" stroke-width="4.500" stroke="black" fill="none" stroke-linecap="round"></path><path d="M 253.000,110.000 C 266.212,104.757 266.572,105.700 280.000,101.000" stroke-width="4.500" stroke="black" fill="none" stroke-linecap="round"></path><path d="M 280.000,101.000 C 286.572,98.700 293.681,96.000 293.000,96.000" stroke-width="4.500" stroke="black" fill="none" stroke-linecap="round"></path><path d="M 293.000,96.000 C 292.181,96.000 284.222,96.918 277.000,101.000" stroke-width="5.687" stroke="black" fill="none" stroke-linecap="round"></path><path d="M 277.000,101.000 C 261.222,109.918 261.501,110.845 247.000,122.000" stroke-width="4.500" stroke="black" fill="none" stroke-linecap="round"></path><path d="M 247.000,122.000 C 229.001,135.845 228.272,135.236 212.000,151.000" stroke-width="4.500" stroke="black" fill="none" stroke-linecap="round"></path><path d="M 212.000,151.000 C 196.272,166.236 196.671,166.844 183.000,184.000" stroke-width="4.500" stroke="black" fill="none" stroke-linecap="round"></path></svg>