<svg xmlns="http://www.w3.org/2000/svg" xmlns:xlink="http://www.w3.org/1999/xlink" viewBox="0 0 576 336" width="576" height="336"><path d="M 20.622,26.268 C 22.043,32.843 22.565,32.787 23.464,39.418" stroke-width="8.156" stroke="black" fill="none" stroke-linecap="round"></path><path d="M 23.464,39.418 C 23.986,43.272 23.301,43.334 23.464,47.237" stroke-width="6.554" stroke="black" fill="none" stroke-linecap="round"></path><path d="M 23.464,47.237 C 23.656,51.864 23.859,51.855 24.174,56.478" stroke-width="6.026" stroke="black" fill="none" stroke-linecap="round"></path><path d="M 24.174,56.478 C 24.392,59.674 24.632,64.216 24.529,62.875" stroke-width="7.009" stroke="black" fill="none" stroke-linecap="round"></path><path d="M 11.031,39.418 C 16.181,35.686 16.079,35.533 21.332,31.955" stroke-width="8.397" stroke="black" fill="none" stroke-linecap="round"></path><path d="M 21.332,31.955 C 24.427,29.846 24.487,29.927 27.726,28.045" stroke-width="6.766" stroke="black" fill="none" stroke-linecap="round"></path><path d="M 27.726,28.045 C 29.993,26.728 29.942,26.587 32.344,25.557" stroke-width="6.844" stroke="black" fill="none" stroke-linecap="round"></path><path d="M 32.344,25.557 C 34.916,24.455 34.954,24.062 37.673,23.780" stroke-width="7.416" stroke="black" fill="none" stroke-linecap="round"></path><path d="M 61.828,23.425 C 58.809,27.690 58.537,27.532 55.789,31.955" stroke-width="8.330" stroke="black" fill="none" stroke-linecap="round"></path><path d="M 55.789,31.955 C 54.452,34.108 54.237,34.127 53.658,36.575" stroke-width="7.295" stroke="black" fill="none" stroke-linecap="round"></path><path d="M 53.658,36.575 C 52.639,40.880 52.700,41.019 52.592,45.460" stroke-width="7.175" stroke="black" fill="none" stroke-linecap="round"></path><path d="M 52.592,45.460 C 52.523,48.304 53.302,48.301 53.302,51.147" stroke-width="6.858" stroke="black" fill="none" stroke-linecap="round"></path><path d="M 53.302,51.147 C 53.302,54.343 52.009,57.982 52.592,57.544" stroke-width="7.340" stroke="black" fill="none" stroke-linecap="round"></path><path d="M 52.592,57.544 C 53.430,56.916 54.630,53.369 56.144,49.014" stroke-width="8.058" stroke="black" fill="none" stroke-linecap="round"></path><path d="M 56.144,49.014 C 57.472,45.195 56.890,44.986 58.276,41.195" stroke-width="7.457" stroke="black" fill="none" stroke-linecap="round"></path><path d="M 58.276,41.195 C 59.554,37.700 58.939,36.796 61.473,34.442" stroke-width="7.714" stroke="black" fill="none" stroke-linecap="round"></path><path d="M 61.473,34.442 C 63.912,32.176 64.796,32.248 68.222,31.955" stroke-width="7.821" stroke="black" fill="none" stroke-linecap="round"></path><path d="M 68.222,31.955 C 71.012,31.715 71.076,32.621 73.906,33.376" stroke-width="7.720" stroke="black" fill="none" stroke-linecap="round"></path><path d="M 73.906,33.376 C 76.404,34.043 78.136,33.146 78.879,34.798" stroke-width="8.020" stroke="black" fill="none" stroke-linecap="round"></path><path d="M 78.879,34.798 C 79.735,36.700 78.696,38.140 77.103,40.484" stroke-width="8.393" stroke="black" fill="none" stroke-linecap="round"></path><path d="M 77.103,40.484 C 75.677,42.582 75.088,42.267 72.840,43.683" stroke-width="8.209" stroke="black" fill="none" stroke-linecap="round"></path><path d="M 72.840,43.683 C 70.292,45.288 67.367,44.646 67.511,46.526" stroke-width="8.242" stroke="black" fill="none" stroke-linecap="round"></path><path d="M 67.511,46.526 C 67.722,49.266 69.929,50.681 73.550,52.924" stroke-width="8.455" stroke="black" fill="none" stroke-linecap="round"></path><path d="M 73.550,52.924 C 77.389,55.301 77.997,54.325 82.431,55.767" stroke-width="7.394" stroke="black" fill="none" stroke-linecap="round"></path><path d="M 82.431,55.767 C 85.102,56.635 85.078,56.712 87.759,57.544" stroke-width="7.643" stroke="black" fill="none" stroke-linecap="round"></path><path d="M 87.759,57.544 C 90.229,58.311 90.195,58.720 92.733,58.966" stroke-width="8.005" stroke="black" fill="none" stroke-linecap="round"></path><path d="M 92.733,58.966 C 95.701,59.253 99.651,58.861 98.772,58.610" stroke-width="8.009" stroke="black" fill="none" stroke-linecap="round"></path><path d="M 121.151,29.467 C 117.954,34.087 118.189,34.276 114.757,38.707" stroke-width="8.428" stroke="black" fill="none" stroke-linecap="round"></path><path d="M 114.757,38.707 C 112.683,41.384 112.580,41.334 110.139,43.683" stroke-width="6.832" stroke="black" fill="none" stroke-linecap="round"></path><path d="M 110.139,43.683 C 107.963,45.777 107.697,45.499 105.521,47.593" stroke-width="6.764" stroke="black" fill="none" stroke-linecap="round"></path><path d="M 105.521,47.593 C 103.079,49.942 103.143,50.021 100.903,52.568" stroke-width="6.528" stroke="black" fill="none" stroke-linecap="round"></path><path d="M 100.903,52.568 C 99.236,54.464 99.322,54.538 97.706,56.478" stroke-width="6.744" stroke="black" fill="none" stroke-linecap="round"></path><path d="M 97.706,56.478 C 95.770,58.802 93.234,61.788 93.798,61.098" stroke-width="7.325" stroke="black" fill="none" stroke-linecap="round"></path><path d="M 93.798,28.756 C 99.482,34.087 99.354,34.236 105.166,39.418" stroke-width="8.037" stroke="black" fill="none" stroke-linecap="round"></path><path d="M 105.166,39.418 C 107.525,41.522 107.679,41.340 110.139,43.328" stroke-width="6.942" stroke="black" fill="none" stroke-linecap="round"></path><path d="M 110.139,43.328 C 112.297,45.072 112.404,44.963 114.401,46.882" stroke-width="6.831" stroke="black" fill="none" stroke-linecap="round"></path><path d="M 114.401,46.882 C 116.844,49.228 116.670,49.409 119.019,51.857" stroke-width="6.547" stroke="black" fill="none" stroke-linecap="round"></path><path d="M 119.019,51.857 C 120.933,53.851 120.654,54.277 122.927,55.767" stroke-width="6.716" stroke="black" fill="none" stroke-linecap="round"></path><path d="M 122.927,55.767 C 125.805,57.653 130.029,59.318 129.321,58.610" stroke-width="7.223" stroke="black" fill="none" stroke-linecap="round"></path><path d="M 166.620,19.160 C 161.469,18.982 161.468,18.805 156.318,18.805" stroke-width="8.389" stroke="black" fill="none" stroke-linecap="round"></path><path d="M 156.318,18.805 C 152.587,18.805 152.515,18.567 148.858,19.160" stroke-width="6.674" stroke="black" fill="none" stroke-linecap="round"></path><path d="M 148.858,19.160 C 145.943,19.633 145.210,19.046 143.175,20.937" stroke-width="7.334" stroke="black" fill="none" stroke-linecap="round"></path><path d="M 143.175,20.937 C 140.237,23.666 140.134,24.427 138.912,28.400" stroke-width="7.588" stroke="black" fill="none" stroke-linecap="round"></path><path d="M 138.912,28.400 C 138.003,31.358 137.776,31.993 138.912,34.798" stroke-width="7.553" stroke="black" fill="none" stroke-linecap="round"></path><path d="M 138.912,34.798 C 140.440,38.569 141.010,38.857 144.241,41.551" stroke-width="7.625" stroke="black" fill="none" stroke-linecap="round"></path><path d="M 144.241,41.551 C 147.404,44.188 147.759,44.210 151.700,45.460" stroke-width="7.332" stroke="black" fill="none" stroke-linecap="round"></path><path d="M 151.700,45.460 C 155.041,46.520 155.278,46.275 158.805,46.171" stroke-width="7.379" stroke="black" fill="none" stroke-linecap="round"></path><path d="M 158.805,46.171 C 161.317,46.097 161.478,46.079 163.778,45.105" stroke-width="7.667" stroke="black" fill="none" stroke-linecap="round"></path><path d="M 163.778,45.105 C 166.096,44.124 168.374,43.180 168.041,42.261" stroke-width="8.140" stroke="black" fill="none" stroke-linecap="round"></path><path d="M 168.041,42.261 C 167.664,41.225 165.142,40.894 162.357,41.195" stroke-width="8.241" stroke="black" fill="none" stroke-linecap="round"></path><path d="M 162.357,41.195 C 158.570,41.605 158.333,41.912 154.897,43.683" stroke-width="7.535" stroke="black" fill="none" stroke-linecap="round"></path><path d="M 154.897,43.683 C 152.472,44.933 152.431,45.170 150.635,47.237" stroke-width="7.063" stroke="black" fill="none" stroke-linecap="round"></path><path d="M 150.635,47.237 C 148.879,49.257 148.426,49.324 147.793,51.857" stroke-width="6.893" stroke="black" fill="none" stroke-linecap="round"></path><path d="M 147.793,51.857 C 147.005,55.011 146.495,55.771 147.793,58.610" stroke-width="7.313" stroke="black" fill="none" stroke-linecap="round"></path><path d="M 147.793,58.610 C 149.337,61.991 150.170,62.218 153.476,64.297" stroke-width="7.289" stroke="black" fill="none" stroke-linecap="round"></path><path d="M 153.476,64.297 C 156.387,66.127 156.749,66.176 160.226,66.429" stroke-width="7.374" stroke="black" fill="none" stroke-linecap="round"></path><path d="M 160.226,66.429 C 166.517,66.887 166.730,66.650 173.014,65.718" stroke-width="6.685" stroke="black" fill="none" stroke-linecap="round"></path><path d="M 173.014,65.718 C 176.321,65.228 176.590,65.321 179.408,63.586" stroke-width="6.515" stroke="black" fill="none" stroke-linecap="round"></path><path d="M 179.408,63.586 C 183.517,61.056 184.024,60.983 186.868,57.189" stroke-width="6.803" stroke="black" fill="none" stroke-linecap="round"></path><path d="M 186.868,57.189 C 188.819,54.585 187.933,53.990 188.999,50.791" stroke-width="6.548" stroke="black" fill="none" stroke-linecap="round"></path><path d="M 188.999,50.791 C 190.242,47.060 190.851,47.138 191.486,43.328" stroke-width="7.113" stroke="black" fill="none" stroke-linecap="round"></path><path d="M 191.486,43.328 C 191.917,40.740 192.385,39.969 191.131,37.997" stroke-width="7.786" stroke="black" fill="none" stroke-linecap="round"></path><path d="M 191.131,37.997 C 189.899,36.060 188.492,35.014 186.513,35.509" stroke-width="8.164" stroke="black" fill="none" stroke-linecap="round"></path><path d="M 186.513,35.509 C 184.229,36.080 183.827,37.495 182.605,40.129" stroke-width="8.081" stroke="black" fill="none" stroke-linecap="round"></path><path d="M 182.605,40.129 C 181.518,42.470 181.828,42.792 181.894,45.460" stroke-width="7.861" stroke="black" fill="none" stroke-linecap="round"></path><path d="M 181.894,45.460 C 182.005,49.900 181.928,50.026 182.960,54.345" stroke-width="7.298" stroke="black" fill="none" stroke-linecap="round"></path><path d="M 182.960,54.345 C 183.881,58.200 184.099,58.212 185.802,61.809" stroke-width="7.231" stroke="black" fill="none" stroke-linecap="round"></path><path d="M 185.802,61.809 C 187.296,64.965 187.564,64.838 189.354,67.851" stroke-width="7.365" stroke="black" fill="none" stroke-linecap="round"></path><path d="M 189.354,67.851 C 191.471,71.413 191.687,71.301 193.617,74.959" stroke-width="7.274" stroke="black" fill="none" stroke-linecap="round"></path><path d="M 23.819,90.242 C 22.753,94.506 22.424,94.456 21.688,98.771" stroke-width="8.568" stroke="black" fill="none" stroke-linecap="round"></path><path d="M 21.688,98.771 C 21.181,101.742 21.332,101.792 21.332,104.813" stroke-width="7.118" stroke="black" fill="none" stroke-linecap="round"></path><path d="M 21.332,104.813 C 21.332,107.834 21.283,107.863 21.688,110.855" stroke-width="7.498" stroke="black" fill="none" stroke-linecap="round"></path><path d="M 21.688,110.855 C 22.172,114.438 22.332,114.424 23.108,117.963" stroke-width="7.414" stroke="black" fill="none" stroke-linecap="round"></path><path d="M 23.108,92.730 C 30.213,90.597 30.140,90.288 37.317,88.465" stroke-width="7.999" stroke="black" fill="none" stroke-linecap="round"></path><path d="M 37.317,88.465 C 41.330,87.445 41.381,87.570 45.488,87.043" stroke-width="7.449" stroke="black" fill="none" stroke-linecap="round"></path><path d="M 45.488,87.043 C 48.308,86.681 51.240,85.453 51.171,86.687" stroke-width="7.868" stroke="black" fill="none" stroke-linecap="round"></path><path d="M 51.171,86.687 C 51.062,88.652 48.720,90.808 45.132,93.440" stroke-width="7.910" stroke="black" fill="none" stroke-linecap="round"></path><path d="M 45.132,93.440 C 40.728,96.672 40.134,95.880 35.186,98.416" stroke-width="7.122" stroke="black" fill="none" stroke-linecap="round"></path><path d="M 35.186,98.416 C 32.852,99.612 32.897,99.699 30.568,100.904" stroke-width="6.949" stroke="black" fill="none" stroke-linecap="round"></path><path d="M 30.568,100.904 C 27.746,102.364 24.754,101.593 24.884,103.747" stroke-width="7.643" stroke="black" fill="none" stroke-linecap="round"></path><path d="M 24.884,103.747 C 25.109,107.457 27.364,109.017 31.278,112.632" stroke-width="8.099" stroke="black" fill="none" stroke-linecap="round"></path><path d="M 31.278,112.632 C 34.290,115.414 35.054,114.505 38.738,116.542" stroke-width="6.521" stroke="black" fill="none" stroke-linecap="round"></path><path d="M 38.738,116.542 C 41.803,118.236 41.785,118.274 44.777,120.096" stroke-width="6.417" stroke="black" fill="none" stroke-linecap="round"></path><path d="M 44.777,120.096 C 49.955,123.249 49.663,123.892 55.078,126.493" stroke-width="5.555" stroke="black" fill="none" stroke-linecap="round"></path><path d="M 55.078,126.493 C 58.544,128.157 58.757,127.795 62.539,128.626" stroke-width="5.900" stroke="black" fill="none" stroke-linecap="round"></path><path d="M 62.539,128.626 C 66.040,129.395 70.856,130.038 69.643,129.692" stroke-width="6.870" stroke="black" fill="none" stroke-linecap="round"></path><circle r="3" cx="77.81320190429688" cy="109.43367004394531" fill="black"></circle><path d="M 121.861,90.242 C 114.046,91.841 114.026,91.751 106.231,93.440" stroke-width="8.149" stroke="black" fill="none" stroke-linecap="round"></path><path d="M 106.231,93.440 C 103.369,94.061 103.016,93.440 100.548,94.862" stroke-width="6.990" stroke="black" fill="none" stroke-linecap="round"></path><path d="M 100.548,94.862 C 97.154,96.817 96.477,96.944 94.509,100.193" stroke-width="7.188" stroke="black" fill="none" stroke-linecap="round"></path><path d="M 94.509,100.193 C 92.924,102.809 92.186,104.154 93.443,106.590" stroke-width="7.728" stroke="black" fill="none" stroke-linecap="round"></path><path d="M 93.443,106.590 C 95.028,109.663 96.543,109.533 100.192,111.210" stroke-width="7.360" stroke="black" fill="none" stroke-linecap="round"></path><path d="M 100.192,111.210 C 103.115,112.554 103.349,112.191 106.586,112.632" stroke-width="6.810" stroke="black" fill="none" stroke-linecap="round"></path><path d="M 106.586,112.632 C 111.164,113.257 111.212,112.914 115.823,113.343" stroke-width="6.961" stroke="black" fill="none" stroke-linecap="round"></path><path d="M 115.823,113.343 C 118.849,113.625 118.863,113.570 121.861,114.054" stroke-width="6.796" stroke="black" fill="none" stroke-linecap="round"></path><path d="M 121.861,114.054 C 124.369,114.459 124.344,114.605 126.834,115.120" stroke-width="6.743" stroke="black" fill="none" stroke-linecap="round"></path><path d="M 126.834,115.120 C 129.495,115.671 129.551,115.466 132.163,116.186" stroke-width="7.424" stroke="black" fill="none" stroke-linecap="round"></path><path d="M 132.163,116.186 C 134.702,116.887 136.513,116.359 137.136,117.963" stroke-width="8.055" stroke="black" fill="none" stroke-linecap="round"></path><path d="M 137.136,117.963 C 137.756,119.557 136.395,120.698 134.649,122.584" stroke-width="8.244" stroke="black" fill="none" stroke-linecap="round"></path><path d="M 134.649,122.584 C 131.954,125.496 131.716,125.518 128.255,127.559" stroke-width="7.536" stroke="black" fill="none" stroke-linecap="round"></path><path d="M 128.255,127.559 C 124.789,129.605 124.604,129.373 120.795,130.758" stroke-width="7.314" stroke="black" fill="none" stroke-linecap="round"></path><path d="M 120.795,130.758 C 116.789,132.216 116.763,132.239 112.625,133.246" stroke-width="7.198" stroke="black" fill="none" stroke-linecap="round"></path><path d="M 112.625,133.246 C 110.191,133.838 110.151,133.722 107.652,133.957" stroke-width="7.021" stroke="black" fill="none" stroke-linecap="round"></path><circle r="3" cx="141.0434112548828" cy="109.07810974121094" fill="black"></circle><path d="M 168.751,94.151 C 168.573,101.081 168.396,101.085 168.396,108.012" stroke-width="7.944" stroke="black" fill="none" stroke-linecap="round"></path><path d="M 168.396,108.012 C 168.396,110.858 168.380,110.879 168.751,113.699" stroke-width="7.062" stroke="black" fill="none" stroke-linecap="round"></path><path d="M 168.751,113.699 C 169.268,117.632 169.280,117.651 170.172,121.517" stroke-width="6.468" stroke="black" fill="none" stroke-linecap="round"></path><path d="M 170.172,121.517 C 170.879,124.581 170.628,124.740 171.948,127.559" stroke-width="6.461" stroke="black" fill="none" stroke-linecap="round"></path><path d="M 168.751,99.838 C 173.192,96.106 172.887,95.616 177.632,92.374" stroke-width="8.121" stroke="black" fill="none" stroke-linecap="round"></path><path d="M 177.632,92.374 C 180.170,90.640 180.362,90.755 183.316,89.886" stroke-width="6.988" stroke="black" fill="none" stroke-linecap="round"></path><path d="M 183.316,89.886 C 186.401,88.978 186.487,89.050 189.709,88.820" stroke-width="6.650" stroke="black" fill="none" stroke-linecap="round"></path><path d="M 189.709,88.820 C 193.947,88.517 193.976,88.713 198.235,88.820" stroke-width="6.177" stroke="black" fill="none" stroke-linecap="round"></path><path d="M 198.235,88.820 C 201.080,88.891 203.756,87.274 203.919,89.175" stroke-width="6.562" stroke="black" fill="none" stroke-linecap="round"></path><path d="M 203.919,89.175 C 204.289,93.494 202.553,95.874 199.301,101.259" stroke-width="7.195" stroke="black" fill="none" stroke-linecap="round"></path><path d="M 199.301,101.259 C 197.402,104.404 196.729,104.159 193.617,106.235" stroke-width="6.574" stroke="black" fill="none" stroke-linecap="round"></path><path d="M 193.617,106.235 C 190.867,108.069 190.616,107.697 187.578,109.078" stroke-width="6.496" stroke="black" fill="none" stroke-linecap="round"></path><path d="M 187.578,109.078 C 184.755,110.362 184.835,110.610 181.894,111.566" stroke-width="6.564" stroke="black" fill="none" stroke-linecap="round"></path><path d="M 181.894,111.566 C 177.730,112.920 177.667,112.817 173.369,113.699" stroke-width="6.017" stroke="black" fill="none" stroke-linecap="round"></path><path d="M 173.369,113.699 C 170.740,114.238 167.545,114.693 168.041,114.409" stroke-width="7.344" stroke="black" fill="none" stroke-linecap="round"></path><path d="M 168.041,114.409 C 168.788,113.982 171.932,113.281 175.856,112.277" stroke-width="7.620" stroke="black" fill="none" stroke-linecap="round"></path><path d="M 175.856,112.277 C 179.570,111.326 179.585,111.384 183.316,110.500" stroke-width="6.654" stroke="black" fill="none" stroke-linecap="round"></path><path d="M 183.316,110.500 C 186.334,109.784 186.293,109.549 189.354,109.078" stroke-width="6.535" stroke="black" fill="none" stroke-linecap="round"></path><path d="M 189.354,109.078 C 195.529,108.128 195.555,108.094 201.787,107.657" stroke-width="5.527" stroke="black" fill="none" stroke-linecap="round"></path><path d="M 201.787,107.657 C 205.679,107.383 205.711,107.397 209.602,107.657" stroke-width="5.881" stroke="black" fill="none" stroke-linecap="round"></path><path d="M 209.602,107.657 C 213.704,107.930 213.768,107.856 217.773,108.723" stroke-width="6.798" stroke="black" fill="none" stroke-linecap="round"></path><path d="M 217.773,108.723 C 220.339,109.278 220.576,109.110 222.745,110.500" stroke-width="6.698" stroke="black" fill="none" stroke-linecap="round"></path><path d="M 222.745,110.500 C 225.016,111.954 226.573,112.241 226.653,114.409" stroke-width="7.375" stroke="black" fill="none" stroke-linecap="round"></path><path d="M 226.653,114.409 C 226.751,117.039 225.226,117.530 223.101,120.096" stroke-width="7.474" stroke="black" fill="none" stroke-linecap="round"></path><path d="M 223.101,120.096 C 220.075,123.750 220.239,124.256 216.351,126.849" stroke-width="6.188" stroke="black" fill="none" stroke-linecap="round"></path><path d="M 216.351,126.849 C 212.779,129.231 212.405,128.925 208.181,130.047" stroke-width="6.010" stroke="black" fill="none" stroke-linecap="round"></path><path d="M 208.181,130.047 C 201.038,131.946 200.926,131.623 193.617,132.891" stroke-width="5.004" stroke="black" fill="none" stroke-linecap="round"></path><path d="M 193.617,132.891 C 187.605,133.933 187.612,134.440 181.539,134.667" stroke-width="5.250" stroke="black" fill="none" stroke-linecap="round"></path><path d="M 181.539,134.667 C 173.403,134.973 173.176,135.268 165.199,133.957" stroke-width="4.768" stroke="black" fill="none" stroke-linecap="round"></path><path d="M 213.865,212.147 C 209.957,206.460 208.817,206.814 206.050,200.773" stroke-width="8.330" stroke="black" fill="none" stroke-linecap="round"></path><path d="M 206.050,200.773 C 204.910,198.284 206.050,197.930 206.050,195.087" stroke-width="7.153" stroke="black" fill="none" stroke-linecap="round"></path><path d="M 206.050,195.087 C 206.050,191.000 205.515,190.928 206.050,186.912" stroke-width="6.365" stroke="black" fill="none" stroke-linecap="round"></path><path d="M 206.050,186.912 C 206.581,182.931 206.673,182.814 208.181,179.093" stroke-width="6.173" stroke="black" fill="none" stroke-linecap="round"></path><path d="M 208.181,179.093 C 209.338,176.239 209.554,176.260 211.378,173.762" stroke-width="6.459" stroke="black" fill="none" stroke-linecap="round"></path><path d="M 211.378,173.762 C 212.929,171.640 212.823,171.380 214.931,169.853" stroke-width="6.801" stroke="black" fill="none" stroke-linecap="round"></path><path d="M 214.931,169.853 C 217.974,167.648 218.068,166.741 221.680,166.299" stroke-width="7.177" stroke="black" fill="none" stroke-linecap="round"></path><path d="M 221.680,166.299 C 226.771,165.675 227.202,166.337 232.337,167.720" stroke-width="6.936" stroke="black" fill="none" stroke-linecap="round"></path><path d="M 232.337,167.720 C 236.437,168.825 236.459,169.136 240.152,171.275" stroke-width="6.144" stroke="black" fill="none" stroke-linecap="round"></path><path d="M 240.152,171.275 C 243.208,173.045 243.299,173.095 245.835,175.540" stroke-width="6.205" stroke="black" fill="none" stroke-linecap="round"></path><path d="M 245.835,175.540 C 248.094,177.716 248.356,177.741 249.743,180.515" stroke-width="6.449" stroke="black" fill="none" stroke-linecap="round"></path><path d="M 249.743,180.515 C 251.198,183.427 251.054,183.656 251.519,186.912" stroke-width="6.387" stroke="black" fill="none" stroke-linecap="round"></path><path d="M 251.519,186.912 C 251.942,189.876 252.207,190.066 251.519,192.955" stroke-width="6.562" stroke="black" fill="none" stroke-linecap="round"></path><path d="M 251.519,192.955 C 250.430,197.529 250.294,197.692 247.967,201.840" stroke-width="5.978" stroke="black" fill="none" stroke-linecap="round"></path><path d="M 247.967,201.840 C 244.610,207.821 244.840,208.261 240.152,213.213" stroke-width="5.331" stroke="black" fill="none" stroke-linecap="round"></path><path d="M 240.152,213.213 C 235.249,218.390 234.874,218.341 228.784,222.098" stroke-width="4.998" stroke="black" fill="none" stroke-linecap="round"></path><path d="M 228.784,222.098 C 224.217,224.916 223.985,224.785 218.838,226.363" stroke-width="5.339" stroke="black" fill="none" stroke-linecap="round"></path><path d="M 218.838,226.363 C 212.973,228.161 212.860,228.421 206.760,228.851" stroke-width="5.252" stroke="black" fill="none" stroke-linecap="round"></path><path d="M 206.760,228.851 C 200.250,229.309 199.507,229.944 193.617,228.140" stroke-width="6.027" stroke="black" fill="none" stroke-linecap="round"></path><path d="M 193.617,228.140 C 190.804,227.278 188.740,225.977 189.354,223.519" stroke-width="7.001" stroke="black" fill="none" stroke-linecap="round"></path><path d="M 189.354,223.519 C 190.694,218.158 192.819,217.402 197.525,212.502" stroke-width="6.495" stroke="black" fill="none" stroke-linecap="round"></path><path d="M 197.525,212.502 C 201.522,208.339 201.665,207.989 206.760,205.394" stroke-width="5.536" stroke="black" fill="none" stroke-linecap="round"></path><path d="M 206.760,205.394 C 211.433,203.014 211.845,203.345 217.062,202.550" stroke-width="5.529" stroke="black" fill="none" stroke-linecap="round"></path><path d="M 217.062,202.550 C 220.015,202.101 220.691,201.540 223.101,202.906" stroke-width="6.322" stroke="black" fill="none" stroke-linecap="round"></path><path d="M 223.101,202.906 C 226.019,204.561 227.787,205.456 227.719,208.592" stroke-width="6.991" stroke="black" fill="none" stroke-linecap="round"></path><path d="M 227.719,208.592 C 227.609,213.630 226.671,215.247 222.745,219.255" stroke-width="6.775" stroke="black" fill="none" stroke-linecap="round"></path><path d="M 222.745,219.255 C 217.968,224.132 216.630,222.997 210.313,226.363" stroke-width="5.331" stroke="black" fill="none" stroke-linecap="round"></path><path d="M 210.313,226.363 C 202.954,230.283 203.148,230.862 195.393,233.826" stroke-width="4.851" stroke="black" fill="none" stroke-linecap="round"></path><path d="M 195.393,233.826 C 187.340,236.904 187.116,236.433 178.698,238.447" stroke-width="4.569" stroke="black" fill="none" stroke-linecap="round"></path><path d="M 178.698,238.447 C 170.775,240.342 170.757,240.379 162.712,241.645" stroke-width="4.587" stroke="black" fill="none" stroke-linecap="round"></path><path d="M 162.712,241.645 C 154.949,242.867 154.920,242.855 147.082,243.422" stroke-width="4.553" stroke="black" fill="none" stroke-linecap="round"></path><path d="M 147.082,243.422 C 140.178,243.922 140.154,243.571 133.228,243.778" stroke-width="4.829" stroke="black" fill="none" stroke-linecap="round"></path><path d="M 133.228,243.778 C 128.254,243.926 128.255,243.946 123.282,244.133" stroke-width="5.393" stroke="black" fill="none" stroke-linecap="round"></path><path d="M 123.282,244.133 C 118.841,244.301 118.832,244.179 114.401,244.489" stroke-width="5.745" stroke="black" fill="none" stroke-linecap="round"></path><path d="M 114.401,244.489 C 111.194,244.712 111.179,244.685 108.007,245.199" stroke-width="6.201" stroke="black" fill="none" stroke-linecap="round"></path><path d="M 108.007,245.199 C 104.607,245.751 104.465,245.418 101.258,246.621" stroke-width="7.022" stroke="black" fill="none" stroke-linecap="round"></path><path d="M 101.258,246.621 C 95.939,248.617 95.818,248.641 90.957,251.597" stroke-width="6.781" stroke="black" fill="none" stroke-linecap="round"></path><path d="M 90.957,251.597 C 86.759,254.149 87.071,254.647 83.142,257.639" stroke-width="5.980" stroke="black" fill="none" stroke-linecap="round"></path><path d="M 83.142,257.639 C 78.901,260.867 78.987,260.994 74.616,264.036" stroke-width="5.659" stroke="black" fill="none" stroke-linecap="round"></path><path d="M 74.616,264.036 C 70.817,266.680 70.621,266.397 66.801,269.012" stroke-width="5.774" stroke="black" fill="none" stroke-linecap="round"></path><path d="M 66.801,269.012 C 63.871,271.017 59.341,272.684 61.117,273.277" stroke-width="6.803" stroke="black" fill="none" stroke-linecap="round"></path><path d="M 61.117,273.277 C 65.735,274.817 70.488,274.471 79.589,273.277" stroke-width="6.614" stroke="black" fill="none" stroke-linecap="round"></path><path d="M 79.589,273.277 C 92.157,271.628 92.004,270.349 104.455,267.590" stroke-width="4.500" stroke="black" fill="none" stroke-linecap="round"></path><path d="M 104.455,267.590 C 118.468,264.485 118.527,264.745 132.518,261.548" stroke-width="4.500" stroke="black" fill="none" stroke-linecap="round"></path><path d="M 132.518,261.548 C 147.300,258.170 147.154,257.480 162.002,254.440" stroke-width="4.500" stroke="black" fill="none" stroke-linecap="round"></path><path d="M 162.002,254.440 C 177.526,251.261 177.557,251.210 193.262,249.109" stroke-width="4.500" stroke="black" fill="none" stroke-linecap="round"></path><path d="M 193.262,249.109 C 208.106,247.123 208.174,247.606 223.101,246.266" stroke-width="4.500" stroke="black" fill="none" stroke-linecap="round"></path><path d="M 223.101,246.266 C 235.882,245.118 235.905,245.360 248.677,244.133" stroke-width="4.500" stroke="black" fill="none" stroke-linecap="round"></path><path d="M 248.677,244.133 C 258.106,243.228 258.093,243.083 267.504,242.001" stroke-width="4.500" stroke="black" fill="none" stroke-linecap="round"></path><path d="M 267.504,242.001 C 273.545,241.306 273.545,241.304 279.582,240.579" stroke-width="4.788" stroke="black" fill="none" stroke-linecap="round"></path><path d="M 279.582,240.579 C 282.425,240.238 286.709,239.693 285.266,239.868" stroke-width="6.496" stroke="black" fill="none" stroke-linecap="round"></path><path d="M 285.266,239.868 C 280.847,240.404 276.573,241.024 267.859,242.001" stroke-width="6.510" stroke="black" fill="none" stroke-linecap="round"></path><path d="M 267.859,242.001 C 255.970,243.334 255.958,243.235 244.059,244.489" stroke-width="4.500" stroke="black" fill="none" stroke-linecap="round"></path><path d="M 244.059,244.489 C 232.336,245.723 232.342,245.786 220.614,246.976" stroke-width="4.500" stroke="black" fill="none" stroke-linecap="round"></path><path d="M 220.614,246.976 C 207.831,248.274 207.828,248.245 195.038,249.464" stroke-width="4.500" stroke="black" fill="none" stroke-linecap="round"></path><path d="M 195.038,249.464 C 181.719,250.733 181.734,250.940 168.396,251.952" stroke-width="4.500" stroke="black" fill="none" stroke-linecap="round"></path><path d="M 168.396,251.952 C 155.980,252.894 155.972,253.091 143.530,253.374" stroke-width="4.500" stroke="black" fill="none" stroke-linecap="round"></path><path d="M 143.530,253.374 C 132.527,253.624 132.498,253.578 121.506,253.018" stroke-width="4.500" stroke="black" fill="none" stroke-linecap="round"></path><path d="M 121.506,253.018 C 111.539,252.511 111.541,252.302 101.613,251.241" stroke-width="4.500" stroke="black" fill="none" stroke-linecap="round"></path><path d="M 101.613,251.241 C 93.247,250.347 93.085,250.913 84.918,249.109" stroke-width="4.500" stroke="black" fill="none" stroke-linecap="round"></path><path d="M 84.918,249.109 C 79.409,247.892 79.148,247.926 74.261,245.199" stroke-width="4.957" stroke="black" fill="none" stroke-linecap="round"></path><path d="M 74.261,245.199 C 69.912,242.773 69.818,242.474 66.446,238.802" stroke-width="5.420" stroke="black" fill="none" stroke-linecap="round"></path><path d="M 66.446,238.802 C 63.779,235.899 63.211,235.766 62.183,232.049" stroke-width="5.816" stroke="black" fill="none" stroke-linecap="round"></path><path d="M 62.183,232.049 C 60.902,227.414 60.868,226.898 61.828,222.098" stroke-width="5.717" stroke="black" fill="none" stroke-linecap="round"></path><path d="M 61.828,222.098 C 63.355,214.458 63.895,214.367 67.156,207.171" stroke-width="5.032" stroke="black" fill="none" stroke-linecap="round"></path><path d="M 67.156,207.171 C 70.822,199.084 70.818,198.961 75.682,191.533" stroke-width="4.500" stroke="black" fill="none" stroke-linecap="round"></path><path d="M 75.682,191.533 C 80.942,183.500 81.584,183.922 87.404,176.250" stroke-width="4.500" stroke="black" fill="none" stroke-linecap="round"></path><path d="M 87.404,176.250 C 92.773,169.173 92.329,168.793 98.061,162.034" stroke-width="4.500" stroke="black" fill="none" stroke-linecap="round"></path><path d="M 98.061,162.034 C 102.276,157.064 102.469,157.174 107.297,152.793" stroke-width="4.837" stroke="black" fill="none" stroke-linecap="round"></path><path d="M 107.297,152.793 C 110.107,150.244 109.993,149.288 113.336,148.173" stroke-width="5.657" stroke="black" fill="none" stroke-linecap="round"></path><path d="M 113.336,148.173 C 115.854,147.333 117.093,147.264 119.019,148.884" stroke-width="6.930" stroke="black" fill="none" stroke-linecap="round"></path><path d="M 119.019,148.884 C 121.533,150.996 121.404,152.035 122.216,155.636" stroke-width="6.441" stroke="black" fill="none" stroke-linecap="round"></path><path d="M 122.216,155.636 C 123.890,163.053 123.514,163.250 123.993,170.919" stroke-width="5.135" stroke="black" fill="none" stroke-linecap="round"></path><path d="M 123.993,170.919 C 124.579,180.310 124.162,180.338 124.348,189.756" stroke-width="4.500" stroke="black" fill="none" stroke-linecap="round"></path><path d="M 124.348,189.756 C 124.517,198.286 124.534,198.285 124.703,206.815" stroke-width="4.500" stroke="black" fill="none" stroke-linecap="round"></path><path d="M 124.703,206.815 C 124.890,216.234 124.278,216.283 125.058,225.652" stroke-width="4.500" stroke="black" fill="none" stroke-linecap="round"></path><path d="M 125.058,225.652 C 125.876,235.475 126.872,235.385 127.900,245.199" stroke-width="4.500" stroke="black" fill="none" stroke-linecap="round"></path><path d="M 127.900,245.199 C 128.826,254.044 128.176,254.107 128.966,262.970" stroke-width="4.500" stroke="black" fill="none" stroke-linecap="round"></path><path d="M 128.966,262.970 C 129.775,272.055 130.014,272.035 131.097,281.095" stroke-width="4.500" stroke="black" fill="none" stroke-linecap="round"></path><path d="M 131.097,281.095 C 131.968,288.383 131.910,288.391 132.873,295.667" stroke-width="4.581" stroke="black" fill="none" stroke-linecap="round"></path><path d="M 132.873,295.667 C 133.863,303.141 133.410,303.256 135.005,310.594" stroke-width="4.711" stroke="black" fill="none" stroke-linecap="round"></path><path d="M 135.005,310.594 C 136.074,315.517 136.766,315.344 138.202,320.191" stroke-width="5.246" stroke="black" fill="none" stroke-linecap="round"></path><path d="M 138.202,320.191 C 139.608,324.940 138.908,325.223 140.688,329.786" stroke-width="5.546" stroke="black" fill="none" stroke-linecap="round"></path><circle r="3" cx="179.0527801513672" cy="280.02952575683594" fill="black"></circle></svg>