<svg xmlns="http://www.w3.org/2000/svg" xmlns:xlink="http://www.w3.org/1999/xlink" viewBox="0 0 576 336" width="576" height="336"><path d="M 207.826,213.746 C 205.162,206.282 204.380,206.457 202.498,198.819" stroke-width="8.125" stroke="black" fill="none" stroke-linecap="round"></path><path d="M 202.498,198.819 C 201.183,193.484 201.832,193.320 201.432,187.801" stroke-width="5.934" stroke="black" fill="none" stroke-linecap="round"></path><path d="M 201.432,187.801 C 200.944,181.058 201.081,181.048 200.722,174.296" stroke-width="5.257" stroke="black" fill="none" stroke-linecap="round"></path><path d="M 200.722,174.296 C 200.371,167.720 199.545,167.673 200.011,161.145" stroke-width="5.126" stroke="black" fill="none" stroke-linecap="round"></path><path d="M 200.011,161.145 C 200.611,152.746 200.842,152.615 202.853,144.441" stroke-width="5.348" stroke="black" fill="none" stroke-linecap="round"></path><path d="M 202.853,144.441 C 203.684,141.064 204.516,141.330 205.695,138.044" stroke-width="5.876" stroke="black" fill="none" stroke-linecap="round"></path><path d="M 205.695,138.044 C 207.002,134.400 206.401,134.185 207.826,130.581" stroke-width="6.085" stroke="black" fill="none" stroke-linecap="round"></path><path d="M 207.826,130.581 C 212.795,118.013 212.526,117.765 218.483,105.702" stroke-width="5.239" stroke="black" fill="none" stroke-linecap="round"></path><path d="M 218.483,105.702 C 219.985,102.660 220.053,102.102 222.745,100.371" stroke-width="6.617" stroke="black" fill="none" stroke-linecap="round"></path><path d="M 222.745,100.371 C 225.026,98.904 225.705,98.850 228.429,99.305" stroke-width="7.559" stroke="black" fill="none" stroke-linecap="round"></path><path d="M 228.429,99.305 C 232.099,99.916 232.253,100.476 235.534,102.503" stroke-width="7.362" stroke="black" fill="none" stroke-linecap="round"></path><path d="M 235.534,102.503 C 238.292,104.208 238.429,104.273 240.507,106.768" stroke-width="6.734" stroke="black" fill="none" stroke-linecap="round"></path><path d="M 240.507,106.768 C 243.758,110.671 243.879,110.766 246.191,115.298" stroke-width="5.809" stroke="black" fill="none" stroke-linecap="round"></path><path d="M 246.191,115.298 C 248.320,119.473 247.687,119.780 249.388,124.183" stroke-width="5.704" stroke="black" fill="none" stroke-linecap="round"></path><path d="M 249.388,124.183 C 250.707,127.599 251.132,127.458 252.230,130.936" stroke-width="6.101" stroke="black" fill="none" stroke-linecap="round"></path><path d="M 252.230,130.936 C 253.263,134.211 253.317,134.273 253.650,137.689" stroke-width="6.231" stroke="black" fill="none" stroke-linecap="round"></path><path d="M 253.650,137.689 C 254.028,141.559 253.650,141.598 253.650,145.508" stroke-width="6.100" stroke="black" fill="none" stroke-linecap="round"></path><path d="M 253.650,145.508 C 253.650,149.417 253.961,149.439 253.650,153.326" stroke-width="6.145" stroke="black" fill="none" stroke-linecap="round"></path><path d="M 253.650,153.326 C 253.251,158.324 253.165,158.344 252.230,163.278" stroke-width="5.794" stroke="black" fill="none" stroke-linecap="round"></path><path d="M 252.230,163.278 C 251.211,168.651 250.991,168.610 249.743,173.940" stroke-width="5.367" stroke="black" fill="none" stroke-linecap="round"></path><path d="M 249.743,173.940 C 248.327,179.983 248.980,180.216 246.901,186.024" stroke-width="5.250" stroke="black" fill="none" stroke-linecap="round"></path><path d="M 246.901,186.024 C 244.718,192.122 244.532,192.168 241.217,197.752" stroke-width="5.140" stroke="black" fill="none" stroke-linecap="round"></path><path d="M 241.217,197.752 C 237.782,203.541 237.603,203.495 233.402,208.770" stroke-width="5.052" stroke="black" fill="none" stroke-linecap="round"></path><path d="M 233.402,208.770 C 229.255,213.979 229.441,214.292 224.522,218.722" stroke-width="5.046" stroke="black" fill="none" stroke-linecap="round"></path><path d="M 224.522,218.722 C 220.560,222.289 220.454,222.522 215.641,224.764" stroke-width="5.365" stroke="black" fill="none" stroke-linecap="round"></path><path d="M 215.641,224.764 C 210.152,227.320 209.879,226.983 203.919,228.318" stroke-width="5.271" stroke="black" fill="none" stroke-linecap="round"></path><path d="M 203.919,228.318 C 197.979,229.648 197.848,230.192 191.841,230.095" stroke-width="5.154" stroke="black" fill="none" stroke-linecap="round"></path><path d="M 191.841,230.095 C 186.836,230.014 186.576,229.732 181.894,227.962" stroke-width="5.479" stroke="black" fill="none" stroke-linecap="round"></path><path d="M 181.894,227.962 C 178.584,226.711 178.320,226.519 175.856,224.053" stroke-width="5.970" stroke="black" fill="none" stroke-linecap="round"></path><path d="M 175.856,224.053 C 174.058,222.254 173.821,221.921 173.369,219.432" stroke-width="6.577" stroke="black" fill="none" stroke-linecap="round"></path><path d="M 173.369,219.432 C 172.756,216.057 172.276,215.445 173.724,212.324" stroke-width="6.412" stroke="black" fill="none" stroke-linecap="round"></path><path d="M 173.724,212.324 C 176.894,205.494 177.177,204.960 182.605,199.530" stroke-width="5.107" stroke="black" fill="none" stroke-linecap="round"></path><path d="M 182.605,199.530 C 188.722,193.409 189.961,194.688 196.814,189.223" stroke-width="4.507" stroke="black" fill="none" stroke-linecap="round"></path><path d="M 196.814,189.223 C 202.217,184.914 201.503,183.923 207.116,179.982" stroke-width="4.816" stroke="black" fill="none" stroke-linecap="round"></path><path d="M 207.116,179.982 C 211.627,176.815 212.114,177.542 217.062,175.006" stroke-width="5.237" stroke="black" fill="none" stroke-linecap="round"></path><path d="M 217.062,175.006 C 219.396,173.810 222.218,171.549 221.680,172.518" stroke-width="6.228" stroke="black" fill="none" stroke-linecap="round"></path><path d="M 221.680,172.518 C 220.442,174.748 218.014,177.423 213.510,181.404" stroke-width="7.134" stroke="black" fill="none" stroke-linecap="round"></path><path d="M 213.510,181.404 C 207.358,186.841 207.221,186.817 200.366,191.355" stroke-width="5.001" stroke="black" fill="none" stroke-linecap="round"></path><path d="M 200.366,191.355 C 195.143,194.813 195.001,194.677 189.354,197.397" stroke-width="5.207" stroke="black" fill="none" stroke-linecap="round"></path><path d="M 189.354,197.397 C 185.410,199.297 185.395,199.910 181.184,200.596" stroke-width="5.697" stroke="black" fill="none" stroke-linecap="round"></path><path d="M 181.184,200.596 C 177.757,201.154 176.709,201.541 174.080,199.885" stroke-width="6.790" stroke="black" fill="none" stroke-linecap="round"></path><path d="M 174.080,199.885 C 171.913,198.520 172.172,197.367 171.593,194.554" stroke-width="7.385" stroke="black" fill="none" stroke-linecap="round"></path><path d="M 171.593,194.554 C 170.929,191.325 171.494,191.174 171.593,187.801" stroke-width="6.698" stroke="black" fill="none" stroke-linecap="round"></path><path d="M 171.593,187.801 C 171.672,185.132 172.677,181.532 171.948,182.470" stroke-width="6.866" stroke="black" fill="none" stroke-linecap="round"></path><path d="M 171.948,182.470 C 170.191,184.731 170.253,189.005 166.620,194.198" stroke-width="7.305" stroke="black" fill="none" stroke-linecap="round"></path><path d="M 166.620,194.198 C 162.793,199.668 162.310,199.601 157.029,203.794" stroke-width="5.411" stroke="black" fill="none" stroke-linecap="round"></path><path d="M 157.029,203.794 C 151.121,208.486 150.807,208.186 144.241,211.969" stroke-width="4.831" stroke="black" fill="none" stroke-linecap="round"></path><path d="M 144.241,211.969 C 139.085,214.939 139.023,214.893 133.584,217.300" stroke-width="5.144" stroke="black" fill="none" stroke-linecap="round"></path><path d="M 133.584,217.300 C 129.787,218.980 129.691,218.764 125.769,220.143" stroke-width="5.742" stroke="black" fill="none" stroke-linecap="round"></path><path d="M 125.769,220.143 C 123.119,221.074 123.177,221.372 120.440,221.920" stroke-width="6.422" stroke="black" fill="none" stroke-linecap="round"></path><path d="M 120.440,221.920 C 116.961,222.616 116.820,222.980 113.336,222.631" stroke-width="7.076" stroke="black" fill="none" stroke-linecap="round"></path><path d="M 113.336,222.631 C 109.716,222.269 109.567,222.015 106.231,220.499" stroke-width="7.292" stroke="black" fill="none" stroke-linecap="round"></path><path d="M 106.231,220.499 C 103.705,219.350 103.618,219.225 101.613,217.300" stroke-width="6.839" stroke="black" fill="none" stroke-linecap="round"></path><path d="M 101.613,217.300 C 99.177,214.961 98.331,215.063 97.351,211.969" stroke-width="6.541" stroke="black" fill="none" stroke-linecap="round"></path><path d="M 97.351,211.969 C 96.022,207.777 95.697,207.015 96.995,202.728" stroke-width="5.931" stroke="black" fill="none" stroke-linecap="round"></path><path d="M 96.995,202.728 C 99.249,195.286 99.850,195.012 104.455,188.512" stroke-width="4.845" stroke="black" fill="none" stroke-linecap="round"></path><path d="M 104.455,188.512 C 109.796,180.973 110.231,181.126 116.888,174.651" stroke-width="4.500" stroke="black" fill="none" stroke-linecap="round"></path><path d="M 116.888,174.651 C 123.020,168.687 123.329,168.977 130.032,163.633" stroke-width="4.500" stroke="black" fill="none" stroke-linecap="round"></path><path d="M 130.032,163.633 C 134.697,159.914 134.834,160.088 139.623,156.525" stroke-width="4.964" stroke="black" fill="none" stroke-linecap="round"></path><path d="M 139.623,156.525 C 141.761,154.935 142.998,152.302 143.885,153.326" stroke-width="6.202" stroke="black" fill="none" stroke-linecap="round"></path><path d="M 143.885,153.326 C 145.307,154.967 144.943,157.720 144.241,161.856" stroke-width="7.350" stroke="black" fill="none" stroke-linecap="round"></path><path d="M 144.241,161.856 C 143.344,167.138 143.670,167.763 140.688,172.163" stroke-width="5.936" stroke="black" fill="none" stroke-linecap="round"></path><path d="M 140.688,172.163 C 136.565,178.248 135.568,177.719 130.032,182.825" stroke-width="5.069" stroke="black" fill="none" stroke-linecap="round"></path><path d="M 130.032,182.825 C 124.201,188.204 124.651,189.112 117.954,193.132" stroke-width="4.771" stroke="black" fill="none" stroke-linecap="round"></path><path d="M 117.954,193.132 C 112.218,196.575 111.679,195.852 105.166,197.752" stroke-width="4.929" stroke="black" fill="none" stroke-linecap="round"></path><path d="M 105.166,197.752 C 98.890,199.584 98.822,199.541 92.377,200.596" stroke-width="5.036" stroke="black" fill="none" stroke-linecap="round"></path><path d="M 92.377,200.596 C 89.053,201.140 88.801,201.624 85.628,200.951" stroke-width="5.943" stroke="black" fill="none" stroke-linecap="round"></path><path d="M 85.628,200.951 C 82.939,200.380 81.815,200.430 80.655,198.108" stroke-width="7.054" stroke="black" fill="none" stroke-linecap="round"></path><path d="M 80.655,198.108 C 78.618,194.033 77.940,192.781 79.234,188.157" stroke-width="6.945" stroke="black" fill="none" stroke-linecap="round"></path><path d="M 79.234,188.157 C 81.670,179.453 83.665,179.800 88.115,171.452" stroke-width="4.696" stroke="black" fill="none" stroke-linecap="round"></path><path d="M 88.115,171.452 C 92.191,163.806 92.464,163.935 96.285,156.170" stroke-width="4.526" stroke="black" fill="none" stroke-linecap="round"></path><path d="M 96.285,156.170 C 98.148,152.384 98.790,152.420 99.482,148.351" stroke-width="5.473" stroke="black" fill="none" stroke-linecap="round"></path><path d="M 99.482,148.351 C 100.211,144.068 100.199,143.657 99.127,139.466" stroke-width="6.513" stroke="black" fill="none" stroke-linecap="round"></path><path d="M 99.127,139.466 C 98.245,136.016 97.428,136.221 95.574,133.068" stroke-width="6.273" stroke="black" fill="none" stroke-linecap="round"></path><path d="M 95.574,133.068 C 93.876,130.179 93.631,130.316 92.022,127.382" stroke-width="6.399" stroke="black" fill="none" stroke-linecap="round"></path><path d="M 92.022,127.382 C 90.611,124.807 90.538,124.809 89.536,122.051" stroke-width="6.663" stroke="black" fill="none" stroke-linecap="round"></path><path d="M 89.536,122.051 C 87.696,116.990 87.644,116.968 86.339,111.744" stroke-width="5.808" stroke="black" fill="none" stroke-linecap="round"></path><path d="M 86.339,111.744 C 85.335,107.727 85.548,107.669 84.918,103.569" stroke-width="5.974" stroke="black" fill="none" stroke-linecap="round"></path><path d="M 84.918,103.569 C 84.482,100.738 84.719,100.698 84.207,97.883" stroke-width="6.416" stroke="black" fill="none" stroke-linecap="round"></path><path d="M 84.207,97.883 C 83.653,94.834 83.425,94.877 82.786,91.841" stroke-width="6.669" stroke="black" fill="none" stroke-linecap="round"></path><path d="M 82.786,91.841 C 82.004,88.124 82.198,88.081 81.365,84.377" stroke-width="6.348" stroke="black" fill="none" stroke-linecap="round"></path><path d="M 81.365,84.377 C 80.600,80.973 79.359,76.416 79.589,77.625" stroke-width="6.370" stroke="black" fill="none" stroke-linecap="round"></path><path d="M 79.589,77.625 C 80.070,80.148 83.152,93.083 82.786,91.841" stroke-width="10.924" stroke="black" fill="none" stroke-linecap="round"></path><path d="M 82.786,91.841 C 82.264,90.062 84.208,74.910 77.813,71.583" stroke-width="7.746" stroke="black" fill="none" stroke-linecap="round"></path><path d="M 77.813,71.583 C 70.887,67.979 66.187,73.205 56.144,77.980" stroke-width="5.891" stroke="black" fill="none" stroke-linecap="round"></path><path d="M 56.144,77.980 C 48.248,81.735 48.580,82.825 41.935,88.642" stroke-width="4.762" stroke="black" fill="none" stroke-linecap="round"></path><path d="M 41.935,88.642 C 38.634,91.533 33.602,95.143 36.252,95.395" stroke-width="5.444" stroke="black" fill="none" stroke-linecap="round"></path><path d="M 36.252,95.395 C 44.791,96.209 50.591,94.337 64.315,90.775" stroke-width="5.588" stroke="black" fill="none" stroke-linecap="round"></path><path d="M 64.315,90.775 C 83.449,85.807 82.845,83.438 101.968,78.335" stroke-width="4.500" stroke="black" fill="none" stroke-linecap="round"></path><path d="M 101.968,78.335 C 120.144,73.486 120.448,74.642 138.912,70.872" stroke-width="4.500" stroke="black" fill="none" stroke-linecap="round"></path><path d="M 138.912,70.872 C 155.260,67.534 155.271,67.583 171.593,64.119" stroke-width="4.500" stroke="black" fill="none" stroke-linecap="round"></path><path d="M 171.593,64.119 C 184.578,61.363 184.457,60.629 197.525,58.433" stroke-width="4.500" stroke="black" fill="none" stroke-linecap="round"></path><path d="M 197.525,58.433 C 206.659,56.897 206.742,57.164 215.996,56.656" stroke-width="4.500" stroke="black" fill="none" stroke-linecap="round"></path><path d="M 215.996,56.656 C 222.905,56.276 222.950,56.255 229.850,56.656" stroke-width="4.595" stroke="black" fill="none" stroke-linecap="round"></path><path d="M 229.850,56.656 C 235.205,56.966 235.564,56.361 240.507,58.077" stroke-width="5.120" stroke="black" fill="none" stroke-linecap="round"></path><path d="M 240.507,58.077 C 244.267,59.382 244.508,59.842 247.256,62.698" stroke-width="5.823" stroke="black" fill="none" stroke-linecap="round"></path><path d="M 247.256,62.698 C 249.125,64.640 249.212,65.017 249.743,67.673" stroke-width="6.397" stroke="black" fill="none" stroke-linecap="round"></path><path d="M 249.743,67.673 C 250.455,71.237 251.813,72.252 249.743,75.137" stroke-width="6.296" stroke="black" fill="none" stroke-linecap="round"></path><path d="M 249.743,75.137 C 241.867,86.113 241.563,87.663 229.850,95.395" stroke-width="4.500" stroke="black" fill="none" stroke-linecap="round"></path><path d="M 229.850,95.395 C 207.106,110.409 205.466,108.264 180.829,120.629" stroke-width="4.500" stroke="black" fill="none" stroke-linecap="round"></path><path d="M 180.829,120.629 C 150.939,135.630 151.018,135.814 120.795,150.128" stroke-width="4.500" stroke="black" fill="none" stroke-linecap="round"></path><path d="M 120.795,150.128 C 90.985,164.246 90.544,163.319 60.762,177.494" stroke-width="4.500" stroke="black" fill="none" stroke-linecap="round"></path><path d="M 60.762,177.494 C 35.661,189.441 35.386,189.017 11.031,202.373" stroke-width="4.500" stroke="black" fill="none" stroke-linecap="round"></path><path d="M 11.031,202.373 C -7.064,212.296 -7.428,212.078 -24.137,224.053" stroke-width="4.500" stroke="black" fill="none" stroke-linecap="round"></path><path d="M -24.137,224.053 C -32.472,230.026 -38.162,234.130 -39.057,238.269" stroke-width="4.500" stroke="black" fill="none" stroke-linecap="round"></path><path d="M -39.057,238.269 C -39.583,240.705 -32.217,239.851 -26.979,237.203" stroke-width="5.254" stroke="black" fill="none" stroke-linecap="round"></path><path d="M -26.979,237.203 C -15.344,231.321 -16.490,228.694 -5.310,221.209" stroke-width="4.500" stroke="black" fill="none" stroke-linecap="round"></path><path d="M -5.310,221.209 C 7.666,212.523 7.544,212.164 21.332,204.861" stroke-width="4.500" stroke="black" fill="none" stroke-linecap="round"></path><path d="M 21.332,204.861 C 37.738,196.171 37.709,195.729 55.078,189.223" stroke-width="4.500" stroke="black" fill="none" stroke-linecap="round"></path><path d="M 55.078,189.223 C 73.765,182.223 73.931,181.457 93.443,177.850" stroke-width="4.500" stroke="black" fill="none" stroke-linecap="round"></path><path d="M 93.443,177.850 C 106.612,175.415 107.114,176.250 120.440,177.139" stroke-width="4.500" stroke="black" fill="none" stroke-linecap="round"></path><path d="M 120.440,177.139 C 125.763,177.494 127.526,176.476 130.742,180.337" stroke-width="4.571" stroke="black" fill="none" stroke-linecap="round"></path><path d="M 130.742,180.337 C 138.182,189.270 141.668,191.405 141.754,202.728" stroke-width="4.500" stroke="black" fill="none" stroke-linecap="round"></path><path d="M 141.754,202.728 C 141.846,214.862 137.802,215.858 131.097,227.251" stroke-width="4.500" stroke="black" fill="none" stroke-linecap="round"></path><path d="M 131.097,227.251 C 126.613,234.872 126.355,235.241 119.375,240.757" stroke-width="4.500" stroke="black" fill="none" stroke-linecap="round"></path><path d="M 119.375,240.757 C 95.095,259.942 94.600,259.678 68.577,276.653" stroke-width="4.500" stroke="black" fill="none" stroke-linecap="round"></path><path d="M 68.577,276.653 C 50.196,288.643 49.391,287.369 30.568,298.688" stroke-width="4.500" stroke="black" fill="none" stroke-linecap="round"></path><path d="M 30.568,298.688 C 15.111,307.983 14.566,307.295 0.018,317.881" stroke-width="4.500" stroke="black" fill="none" stroke-linecap="round"></path><path d="M 0.018,317.881 C -12.786,327.198 -13.115,327.177 -24.137,338.494" stroke-width="4.500" stroke="black" fill="none" stroke-linecap="round"></path><path d="M -24.137,338.494 C -33.363,347.968 -33.807,348.118 -40.477,359.463" stroke-width="4.500" stroke="black" fill="none" stroke-linecap="round"></path><path d="M -40.477,359.463 C -46.240,369.264 -45.721,369.844 -49.003,380.788" stroke-width="4.500" stroke="black" fill="none" stroke-linecap="round"></path><path d="M -49.003,380.788 C -51.583,389.391 -51.505,389.642 -52.200,398.558" stroke-width="4.500" stroke="black" fill="none" stroke-linecap="round"></path><path d="M -52.200,398.558 C -52.571,403.326 -52.880,409.628 -51.134,408.154" stroke-width="5.047" stroke="black" fill="none" stroke-linecap="round"></path><path d="M -51.134,408.154 C -47.196,404.830 -40.516,391.813 -40.833,388.962" stroke-width="5.346" stroke="black" fill="none" stroke-linecap="round"></path><circle r="3" cx="163.42294311523438" cy="43.50555419921875" fill="black"></circle><circle r="3" cx="138.55694580078125" cy="300.1100769042969" fill="black"></circle></svg>