<svg xmlns="http://www.w3.org/2000/svg" xmlns:xlink="http://www.w3.org/1999/xlink" viewBox="0 0 576 416" width="576" height="416"><path d="M 328.295,298.670 C 325.898,294.673 325.573,294.823 323.501,290.676" stroke-width="8.703" stroke="black" fill="none" stroke-linecap="round"></path><path d="M 323.501,290.676 C 322.377,288.427 322.190,288.374 321.903,285.880" stroke-width="8.707" stroke="black" fill="none" stroke-linecap="round"></path><path d="M 321.903,285.880 C 320.992,277.982 321.437,277.889 321.104,269.892" stroke-width="8.367" stroke="black" fill="none" stroke-linecap="round"></path><path d="M 321.104,269.892 C 320.638,258.703 320.482,258.704 320.305,247.508" stroke-width="4.627" stroke="black" fill="none" stroke-linecap="round"></path><path d="M 320.305,247.508 C 320.083,233.523 319.955,233.511 320.305,219.529" stroke-width="4.500" stroke="black" fill="none" stroke-linecap="round"></path><path d="M 320.305,219.529 C 320.754,201.535 320.078,201.443 321.903,183.556" stroke-width="4.500" stroke="black" fill="none" stroke-linecap="round"></path><path d="M 321.903,183.556 C 324.073,162.272 324.731,162.306 328.295,141.188" stroke-width="4.500" stroke="black" fill="none" stroke-linecap="round"></path><path d="M 328.295,141.188 C 329.925,131.529 330.015,131.531 332.290,122.002" stroke-width="4.500" stroke="black" fill="none" stroke-linecap="round"></path><path d="M 332.290,122.002 C 336.407,104.751 336.378,104.730 341.079,87.628" stroke-width="4.500" stroke="black" fill="none" stroke-linecap="round"></path><path d="M 341.079,87.628 C 345.167,72.754 345.059,72.702 349.868,58.050" stroke-width="4.500" stroke="black" fill="none" stroke-linecap="round"></path><path d="M 349.868,58.050 C 353.848,45.922 354.553,46.156 358.657,34.068" stroke-width="4.500" stroke="black" fill="none" stroke-linecap="round"></path><path d="M 358.657,34.068 C 361.744,24.972 360.840,24.637 364.250,15.681" stroke-width="4.500" stroke="black" fill="none" stroke-linecap="round"></path><path d="M 364.250,15.681 C 367.232,7.850 366.997,7.440 371.441,0.493" stroke-width="4.561" stroke="black" fill="none" stroke-linecap="round"></path><path d="M 371.441,0.493 C 373.389,-2.553 373.809,-3.544 377.034,-4.304" stroke-width="5.575" stroke="black" fill="none" stroke-linecap="round"></path><path d="M 377.034,-4.304 C 380.600,-5.143 382.494,-5.376 385.024,-2.705" stroke-width="5.922" stroke="black" fill="none" stroke-linecap="round"></path><path d="M 385.024,-2.705 C 389.685,2.218 389.694,3.680 391.416,10.885" stroke-width="6.143" stroke="black" fill="none" stroke-linecap="round"></path><path d="M 391.416,10.885 C 394.088,22.066 393.634,22.452 393.813,34.068" stroke-width="4.500" stroke="black" fill="none" stroke-linecap="round"></path><path d="M 393.813,34.068 C 394.034,48.433 393.761,48.536 392.215,62.846" stroke-width="4.500" stroke="black" fill="none" stroke-linecap="round"></path><path d="M 392.215,62.846 C 390.565,78.114 390.551,78.189 387.421,93.224" stroke-width="4.500" stroke="black" fill="none" stroke-linecap="round"></path><path d="M 387.421,93.224 C 384.559,106.968 384.529,107.046 380.230,120.403" stroke-width="4.500" stroke="black" fill="none" stroke-linecap="round"></path><path d="M 380.230,120.403 C 376.938,130.629 377.112,130.851 372.240,140.388" stroke-width="4.500" stroke="black" fill="none" stroke-linecap="round"></path><path d="M 372.240,140.388 C 367.924,148.837 367.774,148.971 361.853,156.376" stroke-width="4.500" stroke="black" fill="none" stroke-linecap="round"></path><path d="M 361.853,156.376 C 356.588,162.961 356.619,163.401 349.868,168.367" stroke-width="4.500" stroke="black" fill="none" stroke-linecap="round"></path><path d="M 349.868,168.367 C 343.036,173.394 342.534,172.966 334.687,176.362" stroke-width="4.533" stroke="black" fill="none" stroke-linecap="round"></path><path d="M 334.687,176.362 C 327.752,179.362 327.446,178.623 320.305,181.158" stroke-width="4.594" stroke="black" fill="none" stroke-linecap="round"></path><path d="M 320.305,181.158 C 315.062,183.019 314.939,182.775 309.918,185.155" stroke-width="5.231" stroke="black" fill="none" stroke-linecap="round"></path><path d="M 309.918,185.155 C 299.758,189.970 299.549,189.712 289.943,195.547" stroke-width="4.500" stroke="black" fill="none" stroke-linecap="round"></path><path d="M 289.943,195.547 C 277.177,203.302 277.178,203.430 265.174,212.335" stroke-width="4.500" stroke="black" fill="none" stroke-linecap="round"></path><path d="M 265.174,212.335 C 254.007,220.617 254.405,221.151 243.601,229.922" stroke-width="4.500" stroke="black" fill="none" stroke-linecap="round"></path><path d="M 243.601,229.922 C 233.232,238.338 233.233,238.339 222.826,246.709" stroke-width="4.500" stroke="black" fill="none" stroke-linecap="round"></path><path d="M 222.826,246.709 C 212.858,254.727 213.193,255.191 202.851,262.697" stroke-width="4.500" stroke="black" fill="none" stroke-linecap="round"></path><path d="M 202.851,262.697 C 192.818,269.980 192.809,270.092 182.077,276.287" stroke-width="4.500" stroke="black" fill="none" stroke-linecap="round"></path><path d="M 182.077,276.287 C 172.035,282.083 172.154,282.787 161.303,286.679" stroke-width="4.500" stroke="black" fill="none" stroke-linecap="round"></path><path d="M 161.303,286.679 C 150.980,290.382 150.638,290.426 139.730,291.476" stroke-width="4.500" stroke="black" fill="none" stroke-linecap="round"></path><path d="M 139.730,291.476 C 129.864,292.425 129.573,292.004 119.755,290.676" stroke-width="4.500" stroke="black" fill="none" stroke-linecap="round"></path><path d="M 119.755,290.676 C 114.792,290.005 114.904,289.234 110.167,287.479" stroke-width="5.082" stroke="black" fill="none" stroke-linecap="round"></path><path d="M 110.167,287.479 C 104.117,285.237 104.159,285.119 98.182,282.682" stroke-width="5.011" stroke="black" fill="none" stroke-linecap="round"></path><path d="M 98.182,282.682 C 93.373,280.722 93.483,280.397 88.594,278.685" stroke-width="5.400" stroke="black" fill="none" stroke-linecap="round"></path><path d="M 88.594,278.685 C 85.493,277.599 81.842,277.627 82.202,277.086" stroke-width="6.117" stroke="black" fill="none" stroke-linecap="round"></path><path d="M 82.202,277.086 C 82.641,276.428 86.195,276.668 90.192,276.287" stroke-width="7.353" stroke="black" fill="none" stroke-linecap="round"></path><path d="M 90.192,276.287 C 102.974,275.069 103.214,276.399 115.760,273.889" stroke-width="4.500" stroke="black" fill="none" stroke-linecap="round"></path><path d="M 115.760,273.889 C 135.174,270.004 135.340,269.886 154.112,263.496" stroke-width="4.500" stroke="black" fill="none" stroke-linecap="round"></path><path d="M 154.112,263.496 C 174.092,256.696 174.317,256.793 193.263,247.508" stroke-width="4.500" stroke="black" fill="none" stroke-linecap="round"></path><path d="M 193.263,247.508 C 213.468,237.607 212.941,236.490 232.415,225.125" stroke-width="4.500" stroke="black" fill="none" stroke-linecap="round"></path><path d="M 232.415,225.125 C 241.705,219.703 241.303,218.990 250.792,213.934" stroke-width="4.500" stroke="black" fill="none" stroke-linecap="round"></path><path d="M 250.792,213.934 C 278.057,199.405 277.916,198.964 305.923,185.954" stroke-width="4.500" stroke="black" fill="none" stroke-linecap="round"></path><path d="M 305.923,185.954 C 322.660,178.180 322.734,178.007 340.280,172.365" stroke-width="4.500" stroke="black" fill="none" stroke-linecap="round"></path><path d="M 340.280,172.365 C 356.293,167.215 356.493,167.474 373.039,164.370" stroke-width="4.500" stroke="black" fill="none" stroke-linecap="round"></path><path d="M 373.039,164.370 C 388.454,161.479 388.560,161.609 404.200,160.373" stroke-width="4.500" stroke="black" fill="none" stroke-linecap="round"></path><path d="M 404.200,160.373 C 418.922,159.211 418.993,160.177 433.763,159.574" stroke-width="4.500" stroke="black" fill="none" stroke-linecap="round"></path><path d="M 433.763,159.574 C 438.568,159.378 438.544,158.775 443.351,158.775" stroke-width="4.664" stroke="black" fill="none" stroke-linecap="round"></path><path d="M 443.351,158.775 C 463.313,158.775 463.327,159.135 483.301,159.574" stroke-width="4.500" stroke="black" fill="none" stroke-linecap="round"></path><path d="M 483.301,159.574 C 499.681,159.934 499.680,159.974 516.060,160.373" stroke-width="4.500" stroke="black" fill="none" stroke-linecap="round"></path><circle r="3" cx="252.3895263671875" cy="137.19076538085938" fill="black"></circle><circle r="3" cx="266.77154541015625" cy="299.4696044921875" fill="black"></circle></svg>