<svg xmlns="http://www.w3.org/2000/svg" xmlns:xlink="http://www.w3.org/1999/xlink" viewBox="0 0 576 350" width="576" height="350"><path d="M 60.000,75.000 C 57.500,76.000 55.822,74.864 55.000,77.000" stroke-width="7.683" stroke="black" fill="none" stroke-linecap="round"></path><path d="M 55.000,77.000 C 53.322,81.364 55.000,82.500 55.000,88.000" stroke-width="5.872" stroke="black" fill="none" stroke-linecap="round"></path><path d="M 55.000,88.000 C 55.000,100.000 54.800,100.003 55.000,112.000" stroke-width="4.500" stroke="black" fill="none" stroke-linecap="round"></path><path d="M 55.000,112.000 C 55.300,130.003 55.769,129.996 56.000,148.000" stroke-width="4.500" stroke="black" fill="none" stroke-linecap="round"></path><path d="M 56.000,148.000 C 56.269,168.996 55.475,169.014 56.000,190.000" stroke-width="4.500" stroke="black" fill="none" stroke-linecap="round"></path><path d="M 56.000,190.000 C 56.475,209.014 56.563,209.035 58.000,228.000" stroke-width="4.500" stroke="black" fill="none" stroke-linecap="round"></path><path d="M 58.000,228.000 C 59.063,242.035 57.749,242.634 61.000,256.000" stroke-width="4.500" stroke="black" fill="none" stroke-linecap="round"></path><path d="M 61.000,256.000 C 62.249,261.134 63.141,262.106 67.000,265.000" stroke-width="4.500" stroke="black" fill="none" stroke-linecap="round"></path><path d="M 67.000,265.000 C 69.141,266.606 70.052,265.421 73.000,265.000" stroke-width="5.755" stroke="black" fill="none" stroke-linecap="round"></path><path d="M 73.000,265.000 C 77.052,264.421 78.223,265.777 81.000,263.000" stroke-width="5.965" stroke="black" fill="none" stroke-linecap="round"></path><path d="M 81.000,263.000 C 89.223,254.777 88.761,253.466 95.000,243.000" stroke-width="4.500" stroke="black" fill="none" stroke-linecap="round"></path><path d="M 95.000,243.000 C 104.261,227.466 103.603,227.054 112.000,211.000" stroke-width="4.500" stroke="black" fill="none" stroke-linecap="round"></path><path d="M 112.000,211.000 C 120.603,194.554 120.584,194.542 129.000,178.000" stroke-width="4.500" stroke="black" fill="none" stroke-linecap="round"></path><path d="M 129.000,178.000 C 135.084,166.042 136.524,156.877 141.000,154.000" stroke-width="4.500" stroke="black" fill="none" stroke-linecap="round"></path><path d="M 141.000,154.000 C 143.524,152.377 142.772,161.470 143.000,169.000" stroke-width="5.180" stroke="black" fill="none" stroke-linecap="round"></path><path d="M 143.000,169.000 C 143.272,177.970 142.514,178.001 142.000,187.000" stroke-width="4.584" stroke="black" fill="none" stroke-linecap="round"></path><path d="M 142.000,187.000 C 141.514,195.501 141.548,195.503 141.000,204.000" stroke-width="4.522" stroke="black" fill="none" stroke-linecap="round"></path><path d="M 141.000,204.000 C 140.548,211.003 138.256,212.768 140.000,218.000" stroke-width="4.800" stroke="black" fill="none" stroke-linecap="round"></path><path d="M 140.000,218.000 C 140.756,220.268 143.720,220.628 146.000,219.000" stroke-width="6.678" stroke="black" fill="none" stroke-linecap="round"></path><path d="M 146.000,219.000 C 154.220,213.128 152.731,210.121 161.000,203.000" stroke-width="4.500" stroke="black" fill="none" stroke-linecap="round"></path><path d="M 161.000,203.000 C 170.731,194.621 170.681,193.917 182.000,188.000" stroke-width="4.500" stroke="black" fill="none" stroke-linecap="round"></path><path d="M 182.000,188.000 C 192.681,182.417 193.244,182.867 205.000,180.000" stroke-width="4.500" stroke="black" fill="none" stroke-linecap="round"></path><path d="M 205.000,180.000 C 213.744,177.867 214.255,177.352 223.000,178.000" stroke-width="4.500" stroke="black" fill="none" stroke-linecap="round"></path><path d="M 223.000,178.000 C 227.755,178.352 229.155,178.498 232.000,182.000" stroke-width="5.046" stroke="black" fill="none" stroke-linecap="round"></path><path d="M 232.000,182.000 C 235.655,186.498 234.769,187.845 236.000,194.000" stroke-width="5.126" stroke="black" fill="none" stroke-linecap="round"></path><path d="M 236.000,194.000 C 237.269,200.345 236.767,200.490 237.000,207.000" stroke-width="5.103" stroke="black" fill="none" stroke-linecap="round"></path><path d="M 237.000,207.000 C 237.267,214.490 236.355,214.579 237.000,222.000" stroke-width="4.774" stroke="black" fill="none" stroke-linecap="round"></path><path d="M 237.000,222.000 C 237.355,226.079 236.566,227.837 239.000,230.000" stroke-width="5.607" stroke="black" fill="none" stroke-linecap="round"></path><path d="M 239.000,230.000 C 241.066,231.837 242.822,231.211 246.000,230.000" stroke-width="6.123" stroke="black" fill="none" stroke-linecap="round"></path><path d="M 246.000,230.000 C 253.322,227.211 253.887,227.127 260.000,222.000" stroke-width="4.986" stroke="black" fill="none" stroke-linecap="round"></path><path d="M 260.000,222.000 C 269.387,214.127 269.491,213.762 277.000,204.000" stroke-width="4.500" stroke="black" fill="none" stroke-linecap="round"></path><path d="M 277.000,204.000 C 284.491,194.262 283.352,193.405 290.000,183.000" stroke-width="4.500" stroke="black" fill="none" stroke-linecap="round"></path><path d="M 290.000,183.000 C 294.852,175.405 300.973,166.249 300.000,168.000" stroke-width="4.500" stroke="black" fill="none" stroke-linecap="round"></path><path d="M 300.000,168.000 C 298.473,170.749 293.683,180.893 285.000,192.000" stroke-width="5.130" stroke="black" fill="none" stroke-linecap="round"></path><path d="M 285.000,192.000 C 272.183,208.393 271.521,208.003 257.000,223.000" stroke-width="4.500" stroke="black" fill="none" stroke-linecap="round"></path><path d="M 257.000,223.000 C 241.021,239.503 241.373,240.007 224.000,255.000" stroke-width="4.500" stroke="black" fill="none" stroke-linecap="round"></path><path d="M 224.000,255.000 C 204.873,271.507 204.951,271.941 184.000,286.000" stroke-width="4.500" stroke="black" fill="none" stroke-linecap="round"></path><path d="M 184.000,286.000 C 166.951,297.441 166.981,299.265 148.000,306.000" stroke-width="4.500" stroke="black" fill="none" stroke-linecap="round"></path><path d="M 148.000,306.000 C 135.981,310.265 132.941,311.743 122.000,308.000" stroke-width="4.500" stroke="black" fill="none" stroke-linecap="round"></path><path d="M 122.000,308.000 C 113.941,305.243 111.910,301.788 110.000,293.000" stroke-width="4.500" stroke="black" fill="none" stroke-linecap="round"></path><path d="M 110.000,293.000 C 106.910,278.788 107.196,276.412 112.000,262.000" stroke-width="4.500" stroke="black" fill="none" stroke-linecap="round"></path><path d="M 112.000,262.000 C 119.196,240.412 121.094,240.245 134.000,221.000" stroke-width="4.500" stroke="black" fill="none" stroke-linecap="round"></path><path d="M 134.000,221.000 C 149.594,197.745 150.115,197.750 169.000,177.000" stroke-width="4.500" stroke="black" fill="none" stroke-linecap="round"></path><path d="M 169.000,177.000 C 190.615,153.250 193.081,155.503 215.000,132.000" stroke-width="4.500" stroke="black" fill="none" stroke-linecap="round"></path><path d="M 215.000,132.000 C 234.581,111.003 234.090,110.464 252.000,88.000" stroke-width="4.500" stroke="black" fill="none" stroke-linecap="round"></path><path d="M 252.000,88.000 C 263.590,73.464 264.974,73.886 274.000,58.000" stroke-width="4.500" stroke="black" fill="none" stroke-linecap="round"></path><path d="M 274.000,58.000 C 277.474,51.886 279.414,48.560 277.000,44.000" stroke-width="4.500" stroke="black" fill="none" stroke-linecap="round"></path><path d="M 277.000,44.000 C 274.914,40.060 270.767,39.753 265.000,41.000" stroke-width="4.692" stroke="black" fill="none" stroke-linecap="round"></path><path d="M 265.000,41.000 C 252.267,43.753 251.501,44.771 240.000,52.000" stroke-width="4.500" stroke="black" fill="none" stroke-linecap="round"></path><path d="M 240.000,52.000 C 216.501,66.771 215.404,66.183 195.000,85.000" stroke-width="4.500" stroke="black" fill="none" stroke-linecap="round"></path><path d="M 195.000,85.000 C 170.404,107.683 173.399,110.870 150.000,135.000" stroke-width="4.500" stroke="black" fill="none" stroke-linecap="round"></path><path d="M 150.000,135.000 C 125.399,160.370 123.030,158.141 99.000,184.000" stroke-width="4.500" stroke="black" fill="none" stroke-linecap="round"></path><path d="M 99.000,184.000 C 77.030,207.641 78.231,208.785 58.000,234.000" stroke-width="4.500" stroke="black" fill="none" stroke-linecap="round"></path><path d="M 58.000,234.000 C 43.731,251.785 43.251,251.528 30.000,270.000" stroke-width="4.500" stroke="black" fill="none" stroke-linecap="round"></path><path d="M 30.000,270.000 C 26.751,274.528 21.877,280.390 25.000,280.000" stroke-width="4.500" stroke="black" fill="none" stroke-linecap="round"></path><path d="M 25.000,280.000 C 33.877,278.890 40.566,275.355 54.000,267.000" stroke-width="4.500" stroke="black" fill="none" stroke-linecap="round"></path><path d="M 54.000,267.000 C 81.566,249.855 80.884,248.504 107.000,229.000" stroke-width="4.500" stroke="black" fill="none" stroke-linecap="round"></path></svg>