<svg xmlns="http://www.w3.org/2000/svg" xmlns:xlink="http://www.w3.org/1999/xlink" viewBox="0 0 576 350" width="576" height="350"><path d="M 109.000,271.000 C 104.500,268.000 101.674,269.394 100.000,265.000" stroke-width="6.696" stroke="black" fill="none" stroke-linecap="round"></path><path d="M 100.000,265.000 C 97.674,258.894 99.532,257.340 101.000,250.000" stroke-width="5.111" stroke="black" fill="none" stroke-linecap="round"></path><path d="M 101.000,250.000 C 104.032,234.840 105.090,235.023 109.000,220.000" stroke-width="4.500" stroke="black" fill="none" stroke-linecap="round"></path><path d="M 109.000,220.000 C 114.590,198.523 114.785,198.569 120.000,177.000" stroke-width="4.500" stroke="black" fill="none" stroke-linecap="round"></path><path d="M 120.000,177.000 C 125.785,153.069 125.791,153.063 131.000,129.000" stroke-width="4.500" stroke="black" fill="none" stroke-linecap="round"></path><path d="M 131.000,129.000 C 136.291,104.563 136.577,104.602 141.000,80.000" stroke-width="4.500" stroke="black" fill="none" stroke-linecap="round"></path><path d="M 141.000,80.000 C 144.577,60.102 144.730,60.054 147.000,40.000" stroke-width="4.500" stroke="black" fill="none" stroke-linecap="round"></path><path d="M 147.000,40.000 C 147.730,33.554 148.092,26.345 147.000,27.000" stroke-width="4.500" stroke="black" fill="none" stroke-linecap="round"></path><path d="M 147.000,27.000 C 145.592,27.845 143.705,34.815 142.000,43.000" stroke-width="5.133" stroke="black" fill="none" stroke-linecap="round"></path><path d="M 142.000,43.000 C 138.705,58.815 138.837,58.922 137.000,75.000" stroke-width="4.500" stroke="black" fill="none" stroke-linecap="round"></path><path d="M 137.000,75.000 C 134.837,93.922 134.793,93.972 134.000,113.000" stroke-width="4.500" stroke="black" fill="none" stroke-linecap="round"></path><path d="M 134.000,113.000 C 133.293,129.972 130.278,131.181 134.000,147.000" stroke-width="4.500" stroke="black" fill="none" stroke-linecap="round"></path><path d="M 134.000,147.000 C 136.278,156.681 137.806,159.282 146.000,164.000" stroke-width="4.500" stroke="black" fill="none" stroke-linecap="round"></path><path d="M 146.000,164.000 C 154.306,168.782 157.118,168.313 167.000,166.000" stroke-width="4.500" stroke="black" fill="none" stroke-linecap="round"></path><path d="M 167.000,166.000 C 180.618,162.813 181.064,161.108 193.000,153.000" stroke-width="4.500" stroke="black" fill="none" stroke-linecap="round"></path><path d="M 193.000,153.000 C 207.564,143.108 206.720,141.748 220.000,130.000" stroke-width="4.500" stroke="black" fill="none" stroke-linecap="round"></path><path d="M 220.000,130.000 C 232.720,118.748 231.205,116.304 245.000,107.000" stroke-width="4.500" stroke="black" fill="none" stroke-linecap="round"></path><path d="M 245.000,107.000 C 252.705,101.804 254.000,101.600 263.000,101.000" stroke-width="4.500" stroke="black" fill="none" stroke-linecap="round"></path><path d="M 263.000,101.000 C 269.000,100.600 271.460,100.627 275.000,105.000" stroke-width="4.618" stroke="black" fill="none" stroke-linecap="round"></path><path d="M 275.000,105.000 C 279.960,111.127 279.407,113.297 280.000,122.000" stroke-width="4.500" stroke="black" fill="none" stroke-linecap="round"></path><path d="M 280.000,122.000 C 280.907,135.297 282.107,136.449 278.000,149.000" stroke-width="4.500" stroke="black" fill="none" stroke-linecap="round"></path><path d="M 278.000,149.000 C 273.107,163.949 271.085,163.741 262.000,177.000" stroke-width="4.500" stroke="black" fill="none" stroke-linecap="round"></path><path d="M 262.000,177.000 C 252.585,190.741 253.177,191.838 241.000,203.000" stroke-width="4.500" stroke="black" fill="none" stroke-linecap="round"></path><path d="M 241.000,203.000 C 229.177,213.838 228.483,214.169 214.000,221.000" stroke-width="4.500" stroke="black" fill="none" stroke-linecap="round"></path><path d="M 214.000,221.000 C 201.983,226.669 200.878,227.701 188.000,228.000" stroke-width="4.500" stroke="black" fill="none" stroke-linecap="round"></path><path d="M 188.000,228.000 C 179.378,228.201 176.528,228.142 171.000,222.000" stroke-width="4.500" stroke="black" fill="none" stroke-linecap="round"></path><path d="M 171.000,222.000 C 163.028,213.142 163.234,210.591 161.000,198.000" stroke-width="4.500" stroke="black" fill="none" stroke-linecap="round"></path><path d="M 161.000,198.000 C 157.734,179.591 157.528,178.650 160.000,160.000" stroke-width="4.500" stroke="black" fill="none" stroke-linecap="round"></path><path d="M 160.000,160.000 C 163.028,137.150 164.429,136.957 172.000,115.000" stroke-width="4.500" stroke="black" fill="none" stroke-linecap="round"></path><path d="M 172.000,115.000 C 179.429,93.457 179.696,93.321 190.000,73.000" stroke-width="4.500" stroke="black" fill="none" stroke-linecap="round"></path><path d="M 190.000,73.000 C 197.696,57.821 199.222,58.629 208.000,44.000" stroke-width="4.500" stroke="black" fill="none" stroke-linecap="round"></path><path d="M 208.000,44.000 C 211.222,38.629 215.871,31.441 214.000,33.000" stroke-width="4.500" stroke="black" fill="none" stroke-linecap="round"></path><path d="M 214.000,33.000 C 209.871,36.441 204.555,43.142 196.000,54.000" stroke-width="4.622" stroke="black" fill="none" stroke-linecap="round"></path><path d="M 196.000,54.000 C 178.555,76.142 179.722,77.081 162.000,99.000" stroke-width="4.500" stroke="black" fill="none" stroke-linecap="round"></path><path d="M 27.000,279.000 C 22.500,286.500 22.907,286.783 18.000,294.000" stroke-width="4.801" stroke="black" fill="none" stroke-linecap="round"></path><path d="M 18.000,294.000 C 14.407,299.283 7.793,305.104 10.000,304.000" stroke-width="5.029" stroke="black" fill="none" stroke-linecap="round"></path><path d="M 10.000,304.000 C 14.793,301.604 21.577,296.179 32.000,287.000" stroke-width="4.500" stroke="black" fill="none" stroke-linecap="round"></path><path d="M 32.000,287.000 C 55.077,266.679 53.922,265.350 77.000,245.000" stroke-width="4.500" stroke="black" fill="none" stroke-linecap="round"></path><path d="M 77.000,245.000 C 108.922,216.850 107.655,214.978 142.000,190.000" stroke-width="4.500" stroke="black" fill="none" stroke-linecap="round"></path><path d="M 142.000,190.000 C 179.155,162.978 180.685,164.984 220.000,141.000" stroke-width="4.500" stroke="black" fill="none" stroke-linecap="round"></path><path d="M 220.000,141.000 C 260.185,116.484 259.768,115.611 301.000,93.000" stroke-width="4.500" stroke="black" fill="none" stroke-linecap="round"></path></svg>