<svg xmlns="http://www.w3.org/2000/svg" xmlns:xlink="http://www.w3.org/1999/xlink" viewBox="0 0 576 350" width="576" height="350"><path d="M 63.000,43.000 C 63.500,46.500 63.749,46.482 64.000,50.000" stroke-width="8.244" stroke="black" fill="none" stroke-linecap="round"></path><path d="M 64.000,50.000 C 64.249,53.482 64.680,53.602 64.000,57.000" stroke-width="6.748" stroke="black" fill="none" stroke-linecap="round"></path><path d="M 64.000,57.000 C 62.680,63.602 62.385,63.640 60.000,70.000" stroke-width="5.525" stroke="black" fill="none" stroke-linecap="round"></path><path d="M 60.000,70.000 C 56.385,79.640 56.000,79.500 52.000,89.000" stroke-width="4.500" stroke="black" fill="none" stroke-linecap="round"></path><path d="M 52.000,89.000 C 48.000,98.500 47.734,98.397 44.000,108.000" stroke-width="4.500" stroke="black" fill="none" stroke-linecap="round"></path><path d="M 44.000,108.000 C 40.734,116.397 40.687,116.403 38.000,125.000" stroke-width="4.500" stroke="black" fill="none" stroke-linecap="round"></path><path d="M 38.000,125.000 C 35.687,132.403 35.624,132.421 34.000,140.000" stroke-width="4.563" stroke="black" fill="none" stroke-linecap="round"></path><path d="M 34.000,140.000 C 32.624,146.421 32.850,146.481 32.000,153.000" stroke-width="4.820" stroke="black" fill="none" stroke-linecap="round"></path><path d="M 32.000,153.000 C 31.350,157.981 31.587,158.011 31.000,163.000" stroke-width="5.376" stroke="black" fill="none" stroke-linecap="round"></path><path d="M 31.000,163.000 C 30.587,166.511 30.852,166.594 30.000,170.000" stroke-width="6.027" stroke="black" fill="none" stroke-linecap="round"></path><path d="M 30.000,170.000 C 29.352,172.594 29.113,175.223 28.000,175.000" stroke-width="6.505" stroke="black" fill="none" stroke-linecap="round"></path><path d="M 28.000,175.000 C 26.613,174.723 25.464,172.245 25.000,169.000" stroke-width="7.444" stroke="black" fill="none" stroke-linecap="round"></path><path d="M 25.000,169.000 C 23.964,161.745 24.560,161.477 25.000,154.000" stroke-width="5.356" stroke="black" fill="none" stroke-linecap="round"></path><path d="M 25.000,154.000 C 25.560,144.477 24.650,144.166 27.000,135.000" stroke-width="4.521" stroke="black" fill="none" stroke-linecap="round"></path><path d="M 27.000,135.000 C 29.650,124.666 30.584,124.813 35.000,115.000" stroke-width="4.500" stroke="black" fill="none" stroke-linecap="round"></path><path d="M 35.000,115.000 C 39.584,104.813 39.702,104.839 45.000,95.000" stroke-width="4.500" stroke="black" fill="none" stroke-linecap="round"></path><path d="M 45.000,95.000 C 50.202,85.339 50.469,85.482 56.000,76.000" stroke-width="4.500" stroke="black" fill="none" stroke-linecap="round"></path><path d="M 56.000,76.000 C 60.969,67.482 60.298,66.983 66.000,59.000" stroke-width="4.500" stroke="black" fill="none" stroke-linecap="round"></path><path d="M 66.000,59.000 C 70.298,52.983 70.907,53.411 76.000,48.000" stroke-width="4.526" stroke="black" fill="none" stroke-linecap="round"></path><path d="M 76.000,48.000 C 78.907,44.911 78.539,43.888 82.000,42.000" stroke-width="5.468" stroke="black" fill="none" stroke-linecap="round"></path><path d="M 82.000,42.000 C 84.039,40.888 84.622,41.406 87.000,42.000" stroke-width="6.372" stroke="black" fill="none" stroke-linecap="round"></path><path d="M 87.000,42.000 C 90.622,42.906 91.644,42.408 94.000,45.000" stroke-width="7.002" stroke="black" fill="none" stroke-linecap="round"></path><path d="M 94.000,45.000 C 96.644,47.908 96.128,48.857 97.000,53.000" stroke-width="6.261" stroke="black" fill="none" stroke-linecap="round"></path><path d="M 97.000,53.000 C 98.128,58.357 97.760,58.488 98.000,64.000" stroke-width="5.675" stroke="black" fill="none" stroke-linecap="round"></path><path d="M 98.000,64.000 C 98.260,69.988 99.655,70.414 98.000,76.000" stroke-width="5.389" stroke="black" fill="none" stroke-linecap="round"></path><path d="M 98.000,76.000 C 95.655,83.914 94.266,83.654 90.000,91.000" stroke-width="4.628" stroke="black" fill="none" stroke-linecap="round"></path><path d="M 90.000,91.000 C 85.266,99.154 85.519,99.379 80.000,107.000" stroke-width="4.500" stroke="black" fill="none" stroke-linecap="round"></path><path d="M 80.000,107.000 C 75.019,113.879 74.873,113.860 69.000,120.000" stroke-width="4.500" stroke="black" fill="none" stroke-linecap="round"></path><path d="M 69.000,120.000 C 63.873,125.360 63.788,125.369 58.000,130.000" stroke-width="4.601" stroke="black" fill="none" stroke-linecap="round"></path><path d="M 58.000,130.000 C 53.788,133.369 53.673,133.330 49.000,136.000" stroke-width="5.196" stroke="black" fill="none" stroke-linecap="round"></path><path d="M 49.000,136.000 C 46.673,137.330 45.296,138.778 44.000,138.000" stroke-width="6.747" stroke="black" fill="none" stroke-linecap="round"></path><path d="M 44.000,138.000 C 42.796,137.278 42.774,134.992 44.000,133.000" stroke-width="6.891" stroke="black" fill="none" stroke-linecap="round"></path><path d="M 44.000,133.000 C 46.774,128.492 47.548,128.440 52.000,125.000" stroke-width="5.778" stroke="black" fill="none" stroke-linecap="round"></path><path d="M 52.000,125.000 C 58.548,119.940 58.681,119.904 66.000,116.000" stroke-width="4.748" stroke="black" fill="none" stroke-linecap="round"></path><path d="M 66.000,116.000 C 73.681,111.904 73.865,112.149 82.000,109.000" stroke-width="4.528" stroke="black" fill="none" stroke-linecap="round"></path><path d="M 82.000,109.000 C 89.365,106.149 89.370,105.978 97.000,104.000" stroke-width="4.622" stroke="black" fill="none" stroke-linecap="round"></path><path d="M 97.000,104.000 C 102.870,102.478 102.967,102.603 109.000,102.000" stroke-width="5.042" stroke="black" fill="none" stroke-linecap="round"></path><path d="M 109.000,102.000 C 112.967,101.603 114.012,100.257 117.000,102.000" stroke-width="5.676" stroke="black" fill="none" stroke-linecap="round"></path><path d="M 117.000,102.000 C 120.012,103.757 120.154,105.194 121.000,109.000" stroke-width="6.683" stroke="black" fill="none" stroke-linecap="round"></path><path d="M 121.000,109.000 C 122.154,114.194 122.175,114.713 121.000,120.000" stroke-width="5.781" stroke="black" fill="none" stroke-linecap="round"></path><path d="M 121.000,120.000 C 119.175,128.213 118.628,128.290 115.000,136.000" stroke-width="4.811" stroke="black" fill="none" stroke-linecap="round"></path><path d="M 115.000,136.000 C 110.628,145.290 110.566,145.372 105.000,154.000" stroke-width="4.500" stroke="black" fill="none" stroke-linecap="round"></path><path d="M 105.000,154.000 C 100.566,160.872 100.461,160.933 95.000,167.000" stroke-width="4.500" stroke="black" fill="none" stroke-linecap="round"></path><path d="M 95.000,167.000 C 91.461,170.933 91.389,171.179 87.000,174.000" stroke-width="5.135" stroke="black" fill="none" stroke-linecap="round"></path><path d="M 87.000,174.000 C 84.389,175.679 84.072,175.442 81.000,176.000" stroke-width="6.055" stroke="black" fill="none" stroke-linecap="round"></path><path d="M 81.000,176.000 C 78.572,176.442 77.843,177.228 76.000,176.000" stroke-width="6.595" stroke="black" fill="none" stroke-linecap="round"></path><path d="M 76.000,176.000 C 73.343,174.228 72.592,173.357 72.000,170.000" stroke-width="7.130" stroke="black" fill="none" stroke-linecap="round"></path><path d="M 72.000,170.000 C 71.092,164.857 70.167,163.407 73.000,159.000" stroke-width="5.869" stroke="black" fill="none" stroke-linecap="round"></path><path d="M 73.000,159.000 C 79.167,149.407 81.264,150.251 90.000,142.000" stroke-width="4.500" stroke="black" fill="none" stroke-linecap="round"></path><path d="M 90.000,142.000 C 99.264,133.251 99.112,133.018 109.000,125.000" stroke-width="4.500" stroke="black" fill="none" stroke-linecap="round"></path><path d="M 109.000,125.000 C 117.612,118.018 117.931,118.402 127.000,112.000" stroke-width="4.500" stroke="black" fill="none" stroke-linecap="round"></path><path d="M 127.000,112.000 C 134.931,106.402 134.721,106.027 143.000,101.000" stroke-width="4.500" stroke="black" fill="none" stroke-linecap="round"></path><path d="M 143.000,101.000 C 148.721,97.527 149.536,95.729 155.000,95.000" stroke-width="4.694" stroke="black" fill="none" stroke-linecap="round"></path><path d="M 155.000,95.000 C 157.036,94.729 158.000,96.757 158.000,99.000" stroke-width="6.690" stroke="black" fill="none" stroke-linecap="round"></path><path d="M 158.000,99.000 C 158.000,103.257 157.182,103.834 155.000,108.000" stroke-width="6.023" stroke="black" fill="none" stroke-linecap="round"></path><path d="M 155.000,108.000 C 151.682,114.334 151.419,114.319 147.000,120.000" stroke-width="5.058" stroke="black" fill="none" stroke-linecap="round"></path><path d="M 147.000,120.000 C 140.919,127.819 141.000,128.000 134.000,135.000" stroke-width="4.500" stroke="black" fill="none" stroke-linecap="round"></path><path d="M 134.000,135.000 C 127.000,142.000 126.740,141.808 119.000,148.000" stroke-width="4.500" stroke="black" fill="none" stroke-linecap="round"></path><path d="M 119.000,148.000 C 114.240,151.808 111.179,155.817 109.000,155.000" stroke-width="4.885" stroke="black" fill="none" stroke-linecap="round"></path><path d="M 109.000,155.000 C 107.179,154.317 108.170,149.021 111.000,145.000" stroke-width="6.449" stroke="black" fill="none" stroke-linecap="round"></path><path d="M 111.000,145.000 C 117.670,135.521 119.043,135.989 128.000,128.000" stroke-width="4.500" stroke="black" fill="none" stroke-linecap="round"></path><path d="M 128.000,128.000 C 137.543,119.489 137.644,119.508 148.000,112.000" stroke-width="4.500" stroke="black" fill="none" stroke-linecap="round"></path><path d="M 148.000,112.000 C 157.644,105.008 157.780,105.132 168.000,99.000" stroke-width="4.500" stroke="black" fill="none" stroke-linecap="round"></path><path d="M 168.000,99.000 C 177.780,93.132 177.970,93.445 188.000,88.000" stroke-width="4.500" stroke="black" fill="none" stroke-linecap="round"></path><path d="M 188.000,88.000 C 195.470,83.945 195.298,83.501 203.000,80.000" stroke-width="4.500" stroke="black" fill="none" stroke-linecap="round"></path><path d="M 203.000,80.000 C 206.298,78.501 207.925,77.111 210.000,78.000" stroke-width="5.496" stroke="black" fill="none" stroke-linecap="round"></path><path d="M 210.000,78.000 C 211.425,78.611 210.178,80.510 210.000,83.000" stroke-width="6.937" stroke="black" fill="none" stroke-linecap="round"></path><path d="M 210.000,83.000 C 209.678,87.510 209.885,87.573 209.000,92.000" stroke-width="6.156" stroke="black" fill="none" stroke-linecap="round"></path><path d="M 209.000,92.000 C 207.885,97.573 207.566,97.519 206.000,103.000" stroke-width="5.597" stroke="black" fill="none" stroke-linecap="round"></path><path d="M 206.000,103.000 C 204.566,108.019 204.192,107.932 203.000,113.000" stroke-width="5.491" stroke="black" fill="none" stroke-linecap="round"></path><path d="M 203.000,113.000 C 202.192,116.432 200.048,118.829 202.000,120.000" stroke-width="6.069" stroke="black" fill="none" stroke-linecap="round"></path><path d="M 202.000,120.000 C 205.048,121.829 208.330,121.561 213.000,119.000" stroke-width="6.526" stroke="black" fill="none" stroke-linecap="round"></path><path d="M 213.000,119.000 C 223.830,113.061 223.471,111.526 233.000,103.000" stroke-width="4.500" stroke="black" fill="none" stroke-linecap="round"></path><path d="M 233.000,103.000 C 242.471,94.526 242.282,94.263 251.000,85.000" stroke-width="4.500" stroke="black" fill="none" stroke-linecap="round"></path><path d="M 251.000,85.000 C 258.282,77.263 258.744,77.530 265.000,69.000" stroke-width="4.500" stroke="black" fill="none" stroke-linecap="round"></path><path d="M 265.000,69.000 C 269.744,62.530 270.150,62.410 273.000,55.000" stroke-width="4.500" stroke="black" fill="none" stroke-linecap="round"></path><path d="M 273.000,55.000 C 275.150,49.410 274.397,49.033 275.000,43.000" stroke-width="4.941" stroke="black" fill="none" stroke-linecap="round"></path><path d="M 275.000,43.000 C 275.397,39.033 275.000,39.000 275.000,35.000" stroke-width="5.637" stroke="black" fill="none" stroke-linecap="round"></path><path d="M 275.000,35.000 C 275.000,32.000 276.318,31.108 275.000,29.000" stroke-width="6.311" stroke="black" fill="none" stroke-linecap="round"></path><path d="M 275.000,29.000 C 273.818,27.108 272.593,27.519 270.000,27.000" stroke-width="6.669" stroke="black" fill="none" stroke-linecap="round"></path><path d="M 270.000,27.000 C 267.593,26.519 267.252,26.134 265.000,27.000" stroke-width="6.800" stroke="black" fill="none" stroke-linecap="round"></path><path d="M 265.000,27.000 C 260.752,28.634 260.205,28.635 257.000,32.000" stroke-width="6.058" stroke="black" fill="none" stroke-linecap="round"></path><path d="M 257.000,32.000 C 250.205,39.135 250.732,39.811 245.000,48.000" stroke-width="4.570" stroke="black" fill="none" stroke-linecap="round"></path><path d="M 245.000,48.000 C 236.732,59.811 236.786,59.863 229.000,72.000" stroke-width="4.500" stroke="black" fill="none" stroke-linecap="round"></path><path d="M 229.000,72.000 C 219.786,86.363 219.407,86.164 211.000,101.000" stroke-width="4.500" stroke="black" fill="none" stroke-linecap="round"></path><path d="M 211.000,101.000 C 202.407,116.164 202.800,116.400 195.000,132.000" stroke-width="4.500" stroke="black" fill="none" stroke-linecap="round"></path><path d="M 195.000,132.000 C 187.300,147.400 188.110,147.827 180.000,163.000" stroke-width="4.500" stroke="black" fill="none" stroke-linecap="round"></path><path d="M 180.000,163.000 C 172.610,176.827 172.518,176.836 164.000,190.000" stroke-width="4.500" stroke="black" fill="none" stroke-linecap="round"></path><path d="M 164.000,190.000 C 156.018,202.336 156.621,203.004 147.000,214.000" stroke-width="4.500" stroke="black" fill="none" stroke-linecap="round"></path><path d="M 147.000,214.000 C 139.121,223.004 138.647,222.907 129.000,230.000" stroke-width="4.500" stroke="black" fill="none" stroke-linecap="round"></path><path d="M 129.000,230.000 C 121.647,235.407 121.338,235.526 113.000,239.000" stroke-width="4.500" stroke="black" fill="none" stroke-linecap="round"></path><path d="M 113.000,239.000 C 109.338,240.526 107.250,241.750 105.000,240.000" stroke-width="5.236" stroke="black" fill="none" stroke-linecap="round"></path><path d="M 105.000,240.000 C 102.750,238.250 103.694,235.984 104.000,232.000" stroke-width="5.815" stroke="black" fill="none" stroke-linecap="round"></path><path d="M 104.000,232.000 C 104.694,222.984 103.221,222.099 107.000,214.000" stroke-width="4.698" stroke="black" fill="none" stroke-linecap="round"></path><path d="M 107.000,214.000 C 113.721,199.599 115.001,199.726 125.000,187.000" stroke-width="4.500" stroke="black" fill="none" stroke-linecap="round"></path><path d="M 125.000,187.000 C 137.001,171.726 136.693,171.074 151.000,158.000" stroke-width="4.500" stroke="black" fill="none" stroke-linecap="round"></path><path d="M 151.000,158.000 C 165.693,144.574 166.568,145.376 183.000,134.000" stroke-width="4.500" stroke="black" fill="none" stroke-linecap="round"></path><path d="M 183.000,134.000 C 199.068,122.876 199.688,123.783 216.000,113.000" stroke-width="4.500" stroke="black" fill="none" stroke-linecap="round"></path><path d="M 216.000,113.000 C 229.188,104.283 229.600,104.719 242.000,95.000" stroke-width="4.500" stroke="black" fill="none" stroke-linecap="round"></path><path d="M 242.000,95.000 C 248.100,90.219 252.698,87.926 253.000,84.000" stroke-width="4.500" stroke="black" fill="none" stroke-linecap="round"></path><path d="M 253.000,84.000 C 253.198,81.426 247.827,80.820 243.000,82.000" stroke-width="5.643" stroke="black" fill="none" stroke-linecap="round"></path><path d="M 243.000,82.000 C 225.327,86.320 224.772,86.949 208.000,95.000" stroke-width="4.500" stroke="black" fill="none" stroke-linecap="round"></path><path d="M 208.000,95.000 C 187.272,104.949 188.320,107.096 168.000,118.000" stroke-width="4.500" stroke="black" fill="none" stroke-linecap="round"></path><path d="M 168.000,118.000 C 147.320,129.096 147.272,129.092 126.000,139.000" stroke-width="4.500" stroke="black" fill="none" stroke-linecap="round"></path><path d="M 126.000,139.000 C 110.772,146.092 110.756,146.486 95.000,152.000" stroke-width="4.500" stroke="black" fill="none" stroke-linecap="round"></path><path d="M 95.000,152.000 C 90.756,153.486 85.324,155.570 86.000,153.000" stroke-width="4.500" stroke="black" fill="none" stroke-linecap="round"></path><path d="M 86.000,153.000 C 87.824,146.070 91.147,141.220 100.000,133.000" stroke-width="4.920" stroke="black" fill="none" stroke-linecap="round"></path><path d="M 100.000,133.000 C 119.147,115.220 119.208,113.851 142.000,101.000" stroke-width="4.500" stroke="black" fill="none" stroke-linecap="round"></path></svg>