<svg xmlns="http://www.w3.org/2000/svg" xmlns:xlink="http://www.w3.org/1999/xlink" viewBox="0 0 576 416" width="576" height="416"><path d="M 452.939,160.373 C 452.939,167.568 452.939,167.568 452.939,174.763" stroke-width="8.292" stroke="black" fill="none" stroke-linecap="round"></path><path d="M 452.939,174.763 C 452.939,185.555 452.939,185.555 452.939,196.347" stroke-width="6.123" stroke="black" fill="none" stroke-linecap="round"></path><path d="M 452.939,196.347 C 452.939,202.742 452.939,202.742 452.939,209.137" stroke-width="5.397" stroke="black" fill="none" stroke-linecap="round"></path><path d="M 452.939,209.137 C 452.939,215.133 452.739,215.139 452.939,221.128" stroke-width="5.313" stroke="black" fill="none" stroke-linecap="round"></path><path d="M 452.939,221.128 C 453.139,227.130 453.524,227.117 453.738,233.119" stroke-width="5.285" stroke="black" fill="none" stroke-linecap="round"></path><path d="M 453.738,233.119 C 453.923,238.309 453.513,238.327 453.738,243.511" stroke-width="5.492" stroke="black" fill="none" stroke-linecap="round"></path><path d="M 453.738,243.511 C 453.912,247.520 454.326,247.499 454.537,251.505" stroke-width="5.911" stroke="black" fill="none" stroke-linecap="round"></path><path d="M 454.537,251.505 C 454.726,255.093 454.537,255.103 454.537,258.700" stroke-width="6.194" stroke="black" fill="none" stroke-linecap="round"></path><path d="M 460.130,114.008 C 456.135,114.807 455.496,113.718 452.140,115.607" stroke-width="8.339" stroke="black" fill="none" stroke-linecap="round"></path><path d="M 452.140,115.607 C 449.104,117.315 448.559,117.967 447.346,121.203" stroke-width="7.685" stroke="black" fill="none" stroke-linecap="round"></path><path d="M 447.346,121.203 C 446.162,124.362 447.557,124.813 447.346,128.397" stroke-width="7.475" stroke="black" fill="none" stroke-linecap="round"></path><path d="M 447.346,128.397 C 447.157,131.608 448.252,132.518 446.547,134.793" stroke-width="7.828" stroke="black" fill="none" stroke-linecap="round"></path><path d="M 446.547,134.793 C 444.656,137.315 443.251,136.220 440.155,137.990" stroke-width="7.492" stroke="black" fill="none" stroke-linecap="round"></path><path d="M 440.155,137.990 C 437.658,139.417 434.373,141.682 435.361,141.188" stroke-width="6.857" stroke="black" fill="none" stroke-linecap="round"></path><path d="M 381.828,238.715 C 383.026,244.311 381.616,245.470 384.225,249.907" stroke-width="8.389" stroke="black" fill="none" stroke-linecap="round"></path><path d="M 384.225,249.907 C 385.611,252.265 386.980,252.086 389.818,252.305" stroke-width="7.846" stroke="black" fill="none" stroke-linecap="round"></path><path d="M 389.818,252.305 C 392.174,252.486 393.014,252.305 394.612,250.706" stroke-width="7.838" stroke="black" fill="none" stroke-linecap="round"></path><path d="M 394.612,250.706 C 396.210,249.107 396.860,248.024 396.210,245.910" stroke-width="7.836" stroke="black" fill="none" stroke-linecap="round"></path><path d="M 396.210,245.910 C 395.262,242.828 394.560,241.639 391.416,240.314" stroke-width="7.827" stroke="black" fill="none" stroke-linecap="round"></path><path d="M 391.416,240.314 C 386.970,238.441 386.206,239.329 381.029,239.514" stroke-width="7.146" stroke="black" fill="none" stroke-linecap="round"></path><path d="M 381.029,239.514 C 375.020,239.729 374.988,240.051 369.044,241.113" stroke-width="5.908" stroke="black" fill="none" stroke-linecap="round"></path><path d="M 369.044,241.113 C 363.802,242.050 363.800,242.126 358.657,243.511" stroke-width="5.639" stroke="black" fill="none" stroke-linecap="round"></path><path d="M 358.657,243.511 C 353.413,244.924 353.401,244.932 348.270,246.709" stroke-width="5.534" stroke="black" fill="none" stroke-linecap="round"></path><path d="M 348.270,246.709 C 343.014,248.529 343.138,248.886 337.883,250.706" stroke-width="5.467" stroke="black" fill="none" stroke-linecap="round"></path><path d="M 337.883,250.706 C 332.751,252.483 332.726,252.438 327.496,253.904" stroke-width="5.483" stroke="black" fill="none" stroke-linecap="round"></path><path d="M 327.496,253.904 C 322.739,255.236 322.725,255.206 317.908,256.302" stroke-width="5.627" stroke="black" fill="none" stroke-linecap="round"></path><path d="M 317.908,256.302 C 313.936,257.205 313.938,257.266 309.918,257.901" stroke-width="5.939" stroke="black" fill="none" stroke-linecap="round"></path><path d="M 309.918,257.901 C 306.348,258.465 306.332,258.475 302.727,258.700" stroke-width="6.196" stroke="black" fill="none" stroke-linecap="round"></path><path d="M 302.727,258.700 C 299.940,258.874 299.862,259.120 297.134,258.700" stroke-width="6.588" stroke="black" fill="none" stroke-linecap="round"></path><path d="M 297.134,258.700 C 294.668,258.321 294.084,258.653 292.340,257.101" stroke-width="7.414" stroke="black" fill="none" stroke-linecap="round"></path><path d="M 292.340,257.101 C 290.489,255.455 290.623,254.856 289.943,252.305" stroke-width="7.662" stroke="black" fill="none" stroke-linecap="round"></path><path d="M 289.943,252.305 C 289.025,248.861 289.369,248.717 289.144,245.110" stroke-width="7.491" stroke="black" fill="none" stroke-linecap="round"></path><path d="M 289.144,245.110 C 288.969,242.322 290.611,241.166 289.144,239.514" stroke-width="7.655" stroke="black" fill="none" stroke-linecap="round"></path><path d="M 289.144,239.514 C 287.415,237.569 285.781,237.511 282.752,237.916" stroke-width="8.197" stroke="black" fill="none" stroke-linecap="round"></path><path d="M 282.752,237.916 C 279.789,238.311 280.004,239.606 277.159,241.113" stroke-width="7.032" stroke="black" fill="none" stroke-linecap="round"></path><path d="M 277.159,241.113 C 273.213,243.203 273.125,243.037 269.169,245.110" stroke-width="6.102" stroke="black" fill="none" stroke-linecap="round"></path><path d="M 269.169,245.110 C 264.735,247.434 264.725,247.422 260.380,249.907" stroke-width="5.789" stroke="black" fill="none" stroke-linecap="round"></path><path d="M 260.380,249.907 C 256.335,252.219 256.543,252.625 252.390,254.703" stroke-width="5.806" stroke="black" fill="none" stroke-linecap="round"></path><path d="M 252.390,254.703 C 248.553,256.622 248.435,256.413 244.400,257.901" stroke-width="5.923" stroke="black" fill="none" stroke-linecap="round"></path><path d="M 244.400,257.901 C 240.845,259.211 240.871,259.383 237.208,260.299" stroke-width="6.131" stroke="black" fill="none" stroke-linecap="round"></path><path d="M 237.208,260.299 C 234.479,260.982 234.357,261.309 231.615,261.098" stroke-width="6.617" stroke="black" fill="none" stroke-linecap="round"></path><path d="M 231.615,261.098 C 229.163,260.910 227.880,261.264 226.822,259.499" stroke-width="7.635" stroke="black" fill="none" stroke-linecap="round"></path><path d="M 226.822,259.499 C 225.483,257.267 228.672,254.451 226.822,253.104" stroke-width="8.040" stroke="black" fill="none" stroke-linecap="round"></path><path d="M 226.822,253.104 C 224.278,251.253 222.244,252.188 218.032,253.104" stroke-width="8.127" stroke="black" fill="none" stroke-linecap="round"></path><path d="M 218.032,253.104 C 213.055,254.187 213.290,255.237 208.444,257.101" stroke-width="6.054" stroke="black" fill="none" stroke-linecap="round"></path><path d="M 208.444,257.101 C 202.903,259.234 202.873,259.161 197.258,261.098" stroke-width="5.504" stroke="black" fill="none" stroke-linecap="round"></path><path d="M 197.258,261.098 C 191.287,263.158 191.340,263.361 185.273,265.095" stroke-width="5.261" stroke="black" fill="none" stroke-linecap="round"></path><path d="M 185.273,265.095 C 180.154,266.559 180.117,266.487 174.886,267.494" stroke-width="5.447" stroke="black" fill="none" stroke-linecap="round"></path><path d="M 174.886,267.494 C 169.730,268.486 169.719,268.638 164.499,269.092" stroke-width="5.527" stroke="black" fill="none" stroke-linecap="round"></path><path d="M 164.499,269.092 C 160.531,269.438 160.425,269.582 156.509,269.092" stroke-width="6.003" stroke="black" fill="none" stroke-linecap="round"></path><path d="M 156.509,269.092 C 154.033,268.783 153.916,268.679 151.715,267.494" stroke-width="6.565" stroke="black" fill="none" stroke-linecap="round"></path><path d="M 151.715,267.494 C 148.722,265.881 148.423,265.975 146.122,263.496" stroke-width="6.455" stroke="black" fill="none" stroke-linecap="round"></path><path d="M 146.122,263.496 C 143.229,260.379 143.549,260.005 141.328,256.302" stroke-width="6.105" stroke="black" fill="none" stroke-linecap="round"></path><path d="M 141.328,256.302 C 138.755,252.011 138.382,252.130 136.534,247.508" stroke-width="5.789" stroke="black" fill="none" stroke-linecap="round"></path><path d="M 136.534,247.508 C 134.387,242.138 134.936,241.913 133.338,236.317" stroke-width="5.469" stroke="black" fill="none" stroke-linecap="round"></path><path d="M 133.338,236.317 C 131.740,230.721 131.866,230.682 130.142,225.125" stroke-width="5.380" stroke="black" fill="none" stroke-linecap="round"></path><path d="M 130.142,225.125 C 128.271,219.091 128.019,219.168 126.147,213.134" stroke-width="5.226" stroke="black" fill="none" stroke-linecap="round"></path><path d="M 126.147,213.134 C 124.424,207.577 125.031,207.351 122.951,201.942" stroke-width="5.307" stroke="black" fill="none" stroke-linecap="round"></path><path d="M 122.951,201.942 C 121.036,196.959 120.877,196.954 118.157,192.350" stroke-width="5.453" stroke="black" fill="none" stroke-linecap="round"></path><path d="M 118.157,192.350 C 115.683,188.161 115.674,188.090 112.564,184.356" stroke-width="5.636" stroke="black" fill="none" stroke-linecap="round"></path><path d="M 112.564,184.356 C 109.682,180.895 109.857,180.418 106.172,177.960" stroke-width="5.801" stroke="black" fill="none" stroke-linecap="round"></path><path d="M 106.172,177.960 C 102.666,175.621 102.332,175.706 98.182,174.763" stroke-width="6.000" stroke="black" fill="none" stroke-linecap="round"></path><path d="M 98.182,174.763 C 93.543,173.708 93.380,173.963 88.594,173.963" stroke-width="5.729" stroke="black" fill="none" stroke-linecap="round"></path><path d="M 88.594,173.963 C 85.390,173.963 85.281,173.907 82.202,174.763" stroke-width="6.265" stroke="black" fill="none" stroke-linecap="round"></path><path d="M 82.202,174.763 C 78.090,175.906 78.048,176.041 74.212,177.960" stroke-width="6.059" stroke="black" fill="none" stroke-linecap="round"></path><path d="M 74.212,177.960 C 70.058,180.038 69.895,179.946 66.222,182.757" stroke-width="5.885" stroke="black" fill="none" stroke-linecap="round"></path><path d="M 66.222,182.757 C 63.104,185.143 62.938,185.203 60.629,188.353" stroke-width="6.137" stroke="black" fill="none" stroke-linecap="round"></path><path d="M 60.629,188.353 C 58.543,191.199 58.755,191.443 57.433,194.748" stroke-width="6.275" stroke="black" fill="none" stroke-linecap="round"></path><path d="M 57.433,194.748 C 56.358,197.438 55.835,197.546 55.835,200.344" stroke-width="6.499" stroke="black" fill="none" stroke-linecap="round"></path><path d="M 55.835,200.344 C 55.835,203.142 55.425,204.217 57.433,205.939" stroke-width="6.642" stroke="black" fill="none" stroke-linecap="round"></path><path d="M 57.433,205.939 C 61.018,209.014 62.044,208.854 67.021,209.936" stroke-width="6.816" stroke="black" fill="none" stroke-linecap="round"></path><path d="M 67.021,209.936 C 71.232,210.852 71.428,210.156 75.810,209.936" stroke-width="6.173" stroke="black" fill="none" stroke-linecap="round"></path><path d="M 75.810,209.936 C 79.418,209.756 79.395,209.338 83.001,209.137" stroke-width="6.343" stroke="black" fill="none" stroke-linecap="round"></path><path d="M 83.001,209.137 C 86.586,208.938 86.605,209.317 90.192,209.137" stroke-width="6.249" stroke="black" fill="none" stroke-linecap="round"></path><path d="M 255.586,323.452 C 262.377,320.254 262.255,319.957 269.169,317.057" stroke-width="8.059" stroke="black" fill="none" stroke-linecap="round"></path><path d="M 269.169,317.057 C 274.639,314.761 274.813,315.192 280.355,313.060" stroke-width="5.905" stroke="black" fill="none" stroke-linecap="round"></path><path d="M 280.355,313.060 C 285.200,311.195 285.149,311.061 289.943,309.063" stroke-width="5.678" stroke="black" fill="none" stroke-linecap="round"></path><path d="M 289.943,309.063 C 294.737,307.064 294.744,307.082 299.531,305.066" stroke-width="5.614" stroke="black" fill="none" stroke-linecap="round"></path><path d="M 299.531,305.066 C 302.335,303.884 302.327,303.866 305.124,302.667" stroke-width="6.287" stroke="black" fill="none" stroke-linecap="round"></path><circle r="3" cx="214.83645629882812" cy="187.55316162109375" fill="black"></circle><path d="M 32.664,133.993 C 39.056,133.194 39.029,132.751 45.448,132.394" stroke-width="8.078" stroke="black" fill="none" stroke-linecap="round"></path><path d="M 45.448,132.394 C 53.411,131.952 53.452,132.741 61.428,132.394" stroke-width="5.436" stroke="black" fill="none" stroke-linecap="round"></path><path d="M 61.428,132.394 C 71.829,131.942 71.815,131.595 82.202,130.796" stroke-width="4.500" stroke="black" fill="none" stroke-linecap="round"></path><path d="M 82.202,130.796 C 92.589,129.996 92.580,129.744 102.976,129.197" stroke-width="4.500" stroke="black" fill="none" stroke-linecap="round"></path><path d="M 102.976,129.197 C 107.761,128.945 107.770,129.197 112.564,129.197" stroke-width="5.034" stroke="black" fill="none" stroke-linecap="round"></path></svg>