<svg xmlns="http://www.w3.org/2000/svg" xmlns:xlink="http://www.w3.org/1999/xlink" viewBox="0 0 576 416" width="576" height="416"><path d="M 109.368,177.960 C 105.373,180.359 104.921,179.779 101.378,182.757" stroke-width="8.223" stroke="black" fill="none" stroke-linecap="round"></path><path d="M 101.378,182.757 C 94.933,188.173 94.911,188.337 89.393,194.748" stroke-width="5.213" stroke="black" fill="none" stroke-linecap="round"></path><path d="M 89.393,194.748 C 82.526,202.727 82.548,202.835 76.609,211.535" stroke-width="4.500" stroke="black" fill="none" stroke-linecap="round"></path><path d="M 76.609,211.535 C 71.362,219.222 70.311,218.929 67.021,227.523" stroke-width="4.512" stroke="black" fill="none" stroke-linecap="round"></path><path d="M 67.021,227.523 C 63.120,237.715 63.310,238.272 62.227,249.107" stroke-width="4.500" stroke="black" fill="none" stroke-linecap="round"></path><path d="M 62.227,249.107 C 61.712,254.260 60.710,255.915 63.825,259.499" stroke-width="5.012" stroke="black" fill="none" stroke-linecap="round"></path><path d="M 63.825,259.499 C 68.700,265.108 70.669,264.318 78.207,267.494" stroke-width="5.741" stroke="black" fill="none" stroke-linecap="round"></path><path d="M 78.207,267.494 C 85.850,270.713 86.160,270.025 94.187,272.290" stroke-width="4.736" stroke="black" fill="none" stroke-linecap="round"></path><path d="M 94.187,272.290 C 101.740,274.421 101.868,273.994 109.368,276.287" stroke-width="4.696" stroke="black" fill="none" stroke-linecap="round"></path><path d="M 109.368,276.287 C 116.250,278.391 116.287,278.375 122.951,281.083" stroke-width="4.818" stroke="black" fill="none" stroke-linecap="round"></path><path d="M 122.951,281.083 C 129.071,283.571 129.427,283.152 134.936,286.679" stroke-width="4.986" stroke="black" fill="none" stroke-linecap="round"></path><path d="M 134.936,286.679 C 139.415,289.547 139.654,289.727 142.926,293.874" stroke-width="5.344" stroke="black" fill="none" stroke-linecap="round"></path><path d="M 142.926,293.874 C 145.646,297.321 145.998,297.617 146.921,301.868" stroke-width="5.796" stroke="black" fill="none" stroke-linecap="round"></path><path d="M 146.921,301.868 C 147.995,306.811 147.868,307.287 146.921,312.260" stroke-width="5.554" stroke="black" fill="none" stroke-linecap="round"></path><path d="M 146.921,312.260 C 146.270,315.681 145.665,315.669 143.725,318.655" stroke-width="6.079" stroke="black" fill="none" stroke-linecap="round"></path><path d="M 143.725,318.655 C 140.472,323.663 140.733,324.047 136.534,328.248" stroke-width="5.495" stroke="black" fill="none" stroke-linecap="round"></path><path d="M 136.534,328.248 C 131.944,332.841 131.667,332.765 126.147,336.242" stroke-width="5.199" stroke="black" fill="none" stroke-linecap="round"></path><path d="M 126.147,336.242 C 120.880,339.560 120.852,340.009 114.961,341.838" stroke-width="5.189" stroke="black" fill="none" stroke-linecap="round"></path><path d="M 114.961,341.838 C 109.267,343.606 108.911,343.657 102.976,343.437" stroke-width="5.476" stroke="black" fill="none" stroke-linecap="round"></path><path d="M 102.976,343.437 C 98.125,343.257 98.182,342.238 93.388,341.039" stroke-width="5.625" stroke="black" fill="none" stroke-linecap="round"></path><path d="M 106.971,125.200 C 110.567,129.197 110.993,128.870 114.162,133.194" stroke-width="8.199" stroke="black" fill="none" stroke-linecap="round"></path><path d="M 114.162,133.194 C 119.782,140.861 119.752,140.954 124.549,149.182" stroke-width="4.960" stroke="black" fill="none" stroke-linecap="round"></path><path d="M 124.549,149.182 C 130.938,160.139 130.553,160.368 136.534,171.565" stroke-width="4.500" stroke="black" fill="none" stroke-linecap="round"></path><path d="M 136.534,171.565 C 142.937,183.550 142.689,183.689 149.318,195.547" stroke-width="4.500" stroke="black" fill="none" stroke-linecap="round"></path><path d="M 149.318,195.547 C 155.873,207.271 156.261,207.053 162.901,218.730" stroke-width="4.500" stroke="black" fill="none" stroke-linecap="round"></path><path d="M 162.901,218.730 C 169.444,230.235 169.330,230.301 175.685,241.913" stroke-width="4.500" stroke="black" fill="none" stroke-linecap="round"></path><path d="M 175.685,241.913 C 178.519,247.089 178.414,247.146 181.278,252.305" stroke-width="4.537" stroke="black" fill="none" stroke-linecap="round"></path><path d="M 181.278,252.305 C 186.404,261.535 186.612,261.422 191.665,270.691" stroke-width="4.500" stroke="black" fill="none" stroke-linecap="round"></path><path d="M 191.665,270.691 C 196.200,279.009 195.783,279.244 200.454,287.479" stroke-width="4.500" stroke="black" fill="none" stroke-linecap="round"></path><path d="M 200.454,287.479 C 204.172,294.033 204.494,293.847 208.444,300.269" stroke-width="4.558" stroke="black" fill="none" stroke-linecap="round"></path><path d="M 208.444,300.269 C 210.886,304.239 210.876,304.246 213.238,308.263" stroke-width="5.294" stroke="black" fill="none" stroke-linecap="round"></path><path d="M 213.238,308.263 C 214.871,311.041 216.277,314.647 216.434,313.859" stroke-width="6.269" stroke="black" fill="none" stroke-linecap="round"></path><path d="M 216.434,313.859 C 216.676,312.649 215.236,309.062 214.037,304.266" stroke-width="7.366" stroke="black" fill="none" stroke-linecap="round"></path><path d="M 214.037,304.266 C 212.839,299.470 213.023,299.416 211.640,294.673" stroke-width="5.890" stroke="black" fill="none" stroke-linecap="round"></path><path d="M 211.640,294.673 C 210.227,289.823 209.858,289.930 208.444,285.080" stroke-width="5.715" stroke="black" fill="none" stroke-linecap="round"></path><path d="M 208.444,285.080 C 207.062,280.338 207.192,280.297 206.047,275.488" stroke-width="5.698" stroke="black" fill="none" stroke-linecap="round"></path><path d="M 206.047,275.488 C 205.194,271.903 205.128,271.912 204.449,268.293" stroke-width="5.930" stroke="black" fill="none" stroke-linecap="round"></path><path d="M 204.449,268.293 C 203.929,265.517 203.440,265.440 203.650,262.697" stroke-width="6.484" stroke="black" fill="none" stroke-linecap="round"></path><path d="M 203.650,262.697 C 203.839,260.244 203.859,258.298 205.248,257.901" stroke-width="7.562" stroke="black" fill="none" stroke-linecap="round"></path><path d="M 205.248,257.901 C 206.655,257.499 207.291,259.445 209.243,261.098" stroke-width="7.026" stroke="black" fill="none" stroke-linecap="round"></path><path d="M 209.243,261.098 C 212.485,263.842 212.471,263.861 215.635,266.694" stroke-width="6.362" stroke="black" fill="none" stroke-linecap="round"></path><path d="M 215.635,266.694 C 220.061,270.656 220.130,270.587 224.425,274.688" stroke-width="5.474" stroke="black" fill="none" stroke-linecap="round"></path><path d="M 224.425,274.688 C 228.919,278.980 228.621,279.304 233.214,283.482" stroke-width="5.278" stroke="black" fill="none" stroke-linecap="round"></path><path d="M 233.214,283.482 C 237.410,287.298 237.419,287.341 242.003,290.676" stroke-width="5.360" stroke="black" fill="none" stroke-linecap="round"></path><path d="M 242.003,290.676 C 246.208,293.736 246.076,294.221 250.792,296.272" stroke-width="5.512" stroke="black" fill="none" stroke-linecap="round"></path><path d="M 250.792,296.272 C 255.265,298.218 255.507,298.108 260.380,298.670" stroke-width="5.636" stroke="black" fill="none" stroke-linecap="round"></path><path d="M 260.380,298.670 C 265.894,299.307 266.126,299.541 271.566,298.670" stroke-width="5.576" stroke="black" fill="none" stroke-linecap="round"></path><path d="M 271.566,298.670 C 276.114,297.942 276.238,297.621 280.355,295.473" stroke-width="5.648" stroke="black" fill="none" stroke-linecap="round"></path><path d="M 280.355,295.473 C 285.427,292.825 285.522,292.731 289.943,289.077" stroke-width="5.446" stroke="black" fill="none" stroke-linecap="round"></path><path d="M 289.943,289.077 C 294.711,285.136 294.933,285.140 298.732,280.284" stroke-width="5.270" stroke="black" fill="none" stroke-linecap="round"></path><path d="M 298.732,280.284 C 302.124,275.947 301.940,275.680 304.325,270.691" stroke-width="5.391" stroke="black" fill="none" stroke-linecap="round"></path><path d="M 304.325,270.691 C 306.334,266.487 306.493,266.422 307.521,261.898" stroke-width="5.674" stroke="black" fill="none" stroke-linecap="round"></path><path d="M 307.521,261.898 C 308.490,257.628 308.926,257.354 308.320,253.104" stroke-width="5.924" stroke="black" fill="none" stroke-linecap="round"></path><path d="M 308.320,253.104 C 307.728,248.960 307.779,248.176 305.124,245.110" stroke-width="6.725" stroke="black" fill="none" stroke-linecap="round"></path><path d="M 305.124,245.110 C 302.586,242.180 301.774,241.922 297.933,241.113" stroke-width="7.082" stroke="black" fill="none" stroke-linecap="round"></path><path d="M 297.933,241.113 C 294.183,240.323 293.021,239.988 289.943,241.913" stroke-width="7.220" stroke="black" fill="none" stroke-linecap="round"></path><path d="M 289.943,241.913 C 286.629,243.985 286.018,245.106 285.149,249.107" stroke-width="7.189" stroke="black" fill="none" stroke-linecap="round"></path><path d="M 285.149,249.107 C 284.020,254.300 284.514,255.040 285.948,260.299" stroke-width="6.888" stroke="black" fill="none" stroke-linecap="round"></path><path d="M 285.948,260.299 C 286.911,263.833 287.485,263.885 289.943,266.694" stroke-width="6.417" stroke="black" fill="none" stroke-linecap="round"></path><path d="M 289.943,266.694 C 293.078,270.280 293.042,270.750 297.134,273.089" stroke-width="5.933" stroke="black" fill="none" stroke-linecap="round"></path><path d="M 297.134,273.089 C 301.431,275.546 301.810,275.263 306.722,276.287" stroke-width="5.728" stroke="black" fill="none" stroke-linecap="round"></path><path d="M 306.722,276.287 C 311.398,277.262 311.517,277.086 316.310,277.086" stroke-width="5.741" stroke="black" fill="none" stroke-linecap="round"></path><path d="M 316.310,277.086 C 320.706,277.086 320.774,277.074 325.099,276.287" stroke-width="5.868" stroke="black" fill="none" stroke-linecap="round"></path><path d="M 325.099,276.287 C 329.563,275.475 329.734,275.639 333.888,273.889" stroke-width="5.862" stroke="black" fill="none" stroke-linecap="round"></path><path d="M 333.888,273.889 C 337.325,272.441 337.742,272.580 340.280,269.892" stroke-width="6.118" stroke="black" fill="none" stroke-linecap="round"></path><path d="M 340.280,269.892 C 344.534,265.385 345.439,265.090 347.471,259.499" stroke-width="6.422" stroke="black" fill="none" stroke-linecap="round"></path><path d="M 347.471,259.499 C 348.635,256.297 348.311,255.175 346.672,252.305" stroke-width="7.090" stroke="black" fill="none" stroke-linecap="round"></path><path d="M 346.672,252.305 C 345.115,249.579 344.045,248.732 341.079,248.308" stroke-width="7.670" stroke="black" fill="none" stroke-linecap="round"></path><path d="M 341.079,248.308 C 338.452,247.932 336.239,248.634 335.486,250.706" stroke-width="7.914" stroke="black" fill="none" stroke-linecap="round"></path><path d="M 335.486,250.706 C 334.641,253.031 335.253,256.270 337.883,257.101" stroke-width="7.943" stroke="black" fill="none" stroke-linecap="round"></path><path d="M 337.883,257.101 C 342.843,258.669 344.556,257.277 350.667,255.502" stroke-width="6.853" stroke="black" fill="none" stroke-linecap="round"></path><path d="M 350.667,255.502 C 356.940,253.680 357.033,253.320 362.652,249.907" stroke-width="5.492" stroke="black" fill="none" stroke-linecap="round"></path><path d="M 362.652,249.907 C 368.219,246.525 368.555,246.594 373.039,241.913" stroke-width="5.198" stroke="black" fill="none" stroke-linecap="round"></path><path d="M 373.039,241.913 C 377.743,237.001 377.559,236.596 381.029,230.721" stroke-width="5.040" stroke="black" fill="none" stroke-linecap="round"></path><path d="M 381.029,230.721 C 382.752,227.803 382.600,227.631 383.426,224.326" stroke-width="5.933" stroke="black" fill="none" stroke-linecap="round"></path><path d="M 383.426,224.326 C 385.796,214.841 386.269,214.820 387.421,205.140" stroke-width="4.587" stroke="black" fill="none" stroke-linecap="round"></path><path d="M 387.421,205.140 C 388.266,198.033 388.210,197.859 387.421,190.751" stroke-width="4.784" stroke="black" fill="none" stroke-linecap="round"></path><path d="M 387.421,190.751 C 386.612,183.470 385.922,183.533 384.225,176.362" stroke-width="4.810" stroke="black" fill="none" stroke-linecap="round"></path><path d="M 384.225,176.362 C 382.327,168.344 382.705,168.216 380.230,160.373" stroke-width="4.639" stroke="black" fill="none" stroke-linecap="round"></path><path d="M 380.230,160.373 C 377.911,153.027 377.640,153.087 374.637,145.984" stroke-width="4.693" stroke="black" fill="none" stroke-linecap="round"></path><path d="M 374.637,145.984 C 373.246,142.695 373.311,142.629 371.441,139.589" stroke-width="5.794" stroke="black" fill="none" stroke-linecap="round"></path><path d="M 371.441,139.589 C 366.919,132.237 366.771,132.307 361.853,125.200" stroke-width="4.681" stroke="black" fill="none" stroke-linecap="round"></path><path d="M 361.853,125.200 C 359.579,121.915 359.738,121.729 357.059,118.804" stroke-width="5.605" stroke="black" fill="none" stroke-linecap="round"></path><path d="M 357.059,118.804 C 355.343,116.932 354.447,114.638 353.064,115.607" stroke-width="6.463" stroke="black" fill="none" stroke-linecap="round"></path><path d="M 353.064,115.607 C 350.452,117.436 349.069,119.880 349.069,124.400" stroke-width="7.394" stroke="black" fill="none" stroke-linecap="round"></path><path d="M 349.069,124.400 C 349.069,130.672 350.845,130.872 353.064,137.191" stroke-width="5.566" stroke="black" fill="none" stroke-linecap="round"></path><path d="M 353.064,137.191 C 356.038,145.661 355.607,145.893 359.456,153.978" stroke-width="4.676" stroke="black" fill="none" stroke-linecap="round"></path><path d="M 359.456,153.978 C 363.597,162.680 364.250,162.372 369.044,170.766" stroke-width="4.500" stroke="black" fill="none" stroke-linecap="round"></path><path d="M 369.044,170.766 C 373.838,179.159 373.515,179.362 378.632,187.553" stroke-width="4.500" stroke="black" fill="none" stroke-linecap="round"></path><path d="M 378.632,187.553 C 383.502,195.350 383.411,195.469 389.019,202.742" stroke-width="4.500" stroke="black" fill="none" stroke-linecap="round"></path><path d="M 389.019,202.742 C 394.197,209.458 394.420,209.316 400.205,215.532" stroke-width="4.500" stroke="black" fill="none" stroke-linecap="round"></path><path d="M 400.205,215.532 C 405.207,220.907 405.007,221.197 410.592,225.924" stroke-width="4.681" stroke="black" fill="none" stroke-linecap="round"></path><path d="M 410.592,225.924 C 415.394,229.990 415.430,230.232 420.979,233.119" stroke-width="5.008" stroke="black" fill="none" stroke-linecap="round"></path><path d="M 420.979,233.119 C 425.417,235.428 425.652,235.462 430.567,236.317" stroke-width="5.437" stroke="black" fill="none" stroke-linecap="round"></path><path d="M 430.567,236.317 C 434.841,237.060 435.542,237.843 439.356,236.317" stroke-width="5.775" stroke="black" fill="none" stroke-linecap="round"></path><path d="M 439.356,236.317 C 443.532,234.646 443.503,233.576 446.547,229.922" stroke-width="6.590" stroke="black" fill="none" stroke-linecap="round"></path><path d="M 446.547,229.922 C 449.495,226.382 449.425,226.146 451.341,221.928" stroke-width="6.026" stroke="black" fill="none" stroke-linecap="round"></path><path d="M 451.341,221.928 C 453.420,217.352 453.405,217.241 454.537,212.335" stroke-width="5.753" stroke="black" fill="none" stroke-linecap="round"></path><path d="M 454.537,212.335 C 455.802,206.849 455.719,206.766 456.135,201.143" stroke-width="5.505" stroke="black" fill="none" stroke-linecap="round"></path><path d="M 456.135,201.143 C 456.518,195.974 456.564,195.908 456.135,190.751" stroke-width="5.561" stroke="black" fill="none" stroke-linecap="round"></path><path d="M 456.135,190.751 C 455.765,186.315 455.617,186.282 454.537,181.957" stroke-width="5.871" stroke="black" fill="none" stroke-linecap="round"></path><path d="M 454.537,181.957 C 453.620,178.288 453.652,178.220 452.140,174.763" stroke-width="6.033" stroke="black" fill="none" stroke-linecap="round"></path><path d="M 452.140,174.763 C 450.855,171.825 450.948,171.618 448.944,169.167" stroke-width="6.370" stroke="black" fill="none" stroke-linecap="round"></path><path d="M 448.944,169.167 C 447.352,167.221 447.239,166.733 444.949,165.969" stroke-width="6.744" stroke="black" fill="none" stroke-linecap="round"></path><path d="M 444.949,165.969 C 442.445,165.134 441.086,164.395 439.356,165.969" stroke-width="7.404" stroke="black" fill="none" stroke-linecap="round"></path><path d="M 439.356,165.969 C 436.692,168.392 436.160,169.901 436.160,173.963" stroke-width="7.247" stroke="black" fill="none" stroke-linecap="round"></path><path d="M 436.160,173.963 C 436.160,179.094 436.665,179.868 439.356,184.356" stroke-width="6.942" stroke="black" fill="none" stroke-linecap="round"></path><path d="M 439.356,184.356 C 441.459,187.862 442.176,187.767 445.748,189.951" stroke-width="6.256" stroke="black" fill="none" stroke-linecap="round"></path><path d="M 445.748,189.951 C 449.367,192.164 449.604,192.115 453.738,193.149" stroke-width="6.057" stroke="black" fill="none" stroke-linecap="round"></path><path d="M 453.738,193.149 C 457.594,194.114 457.769,194.157 461.728,193.948" stroke-width="6.173" stroke="black" fill="none" stroke-linecap="round"></path><path d="M 461.728,193.948 C 465.360,193.757 465.394,193.387 468.919,192.350" stroke-width="6.166" stroke="black" fill="none" stroke-linecap="round"></path><path d="M 468.919,192.350 C 472.186,191.388 472.429,191.682 475.311,189.951" stroke-width="6.342" stroke="black" fill="none" stroke-linecap="round"></path><path d="M 475.311,189.951 C 478.421,188.084 478.592,187.931 480.904,185.155" stroke-width="6.298" stroke="black" fill="none" stroke-linecap="round"></path><path d="M 480.904,185.155 C 482.587,183.135 482.273,182.827 483.301,180.359" stroke-width="6.669" stroke="black" fill="none" stroke-linecap="round"></path><path d="M 483.301,180.359 C 484.270,178.031 484.607,178.043 484.899,175.562" stroke-width="6.854" stroke="black" fill="none" stroke-linecap="round"></path><path d="M 484.899,175.562 C 485.406,171.248 483.778,170.806 484.899,166.769" stroke-width="7.059" stroke="black" fill="none" stroke-linecap="round"></path><path d="M 484.899,166.769 C 485.775,163.612 486.160,162.540 488.894,161.173" stroke-width="7.804" stroke="black" fill="none" stroke-linecap="round"></path><path d="M 488.894,161.173 C 491.753,159.743 492.495,161.017 496.085,161.173" stroke-width="6.789" stroke="black" fill="none" stroke-linecap="round"></path><path d="M 496.085,161.173 C 501.683,161.416 501.678,161.573 507.271,161.972" stroke-width="5.666" stroke="black" fill="none" stroke-linecap="round"></path></svg>