<svg xmlns="http://www.w3.org/2000/svg" xmlns:xlink="http://www.w3.org/1999/xlink" viewBox="0 0 576 350" width="576" height="350"><path d="M 22.000,281.000 C 26.500,279.000 27.153,279.886 31.000,277.000" stroke-width="7.998" stroke="black" fill="none" stroke-linecap="round"></path><path d="M 31.000,277.000 C 35.153,273.886 35.106,273.426 38.000,269.000" stroke-width="5.989" stroke="black" fill="none" stroke-linecap="round"></path><path d="M 38.000,269.000 C 43.606,260.426 42.868,259.925 48.000,251.000" stroke-width="4.500" stroke="black" fill="none" stroke-linecap="round"></path><path d="M 48.000,251.000 C 54.368,239.925 54.775,240.153 61.000,229.000" stroke-width="4.500" stroke="black" fill="none" stroke-linecap="round"></path><path d="M 61.000,229.000 C 66.775,218.653 66.500,218.500 72.000,208.000" stroke-width="4.500" stroke="black" fill="none" stroke-linecap="round"></path><path d="M 72.000,208.000 C 77.500,197.500 77.203,197.333 83.000,187.000" stroke-width="4.500" stroke="black" fill="none" stroke-linecap="round"></path><path d="M 83.000,187.000 C 88.703,176.833 88.919,176.950 95.000,167.000" stroke-width="4.500" stroke="black" fill="none" stroke-linecap="round"></path><path d="M 95.000,167.000 C 99.919,158.950 100.148,159.087 105.000,151.000" stroke-width="4.500" stroke="black" fill="none" stroke-linecap="round"></path><path d="M 105.000,151.000 C 107.648,146.587 111.976,140.730 110.000,142.000" stroke-width="4.964" stroke="black" fill="none" stroke-linecap="round"></path><path d="M 110.000,142.000 C 104.976,145.230 99.758,150.321 91.000,160.000" stroke-width="5.003" stroke="black" fill="none" stroke-linecap="round"></path><path d="M 91.000,160.000 C 80.758,171.321 81.728,172.187 72.000,184.000" stroke-width="4.500" stroke="black" fill="none" stroke-linecap="round"></path><path d="M 72.000,184.000 C 60.728,197.687 59.787,196.952 49.000,211.000" stroke-width="4.500" stroke="black" fill="none" stroke-linecap="round"></path><path d="M 49.000,211.000 C 38.287,224.952 37.826,224.831 29.000,240.000" stroke-width="4.500" stroke="black" fill="none" stroke-linecap="round"></path><path d="M 29.000,240.000 C 21.826,252.331 21.797,252.638 17.000,266.000" stroke-width="4.500" stroke="black" fill="none" stroke-linecap="round"></path><path d="M 17.000,266.000 C 14.797,272.138 12.152,274.966 15.000,279.000" stroke-width="4.500" stroke="black" fill="none" stroke-linecap="round"></path><path d="M 15.000,279.000 C 18.152,283.466 21.890,282.510 29.000,283.000" stroke-width="5.509" stroke="black" fill="none" stroke-linecap="round"></path><path d="M 29.000,283.000 C 36.390,283.510 36.774,282.993 44.000,281.000" stroke-width="4.964" stroke="black" fill="none" stroke-linecap="round"></path><path d="M 44.000,281.000 C 51.274,278.993 50.934,277.826 58.000,275.000" stroke-width="4.810" stroke="black" fill="none" stroke-linecap="round"></path><path d="M 58.000,275.000 C 60.934,273.826 64.347,271.034 64.000,273.000" stroke-width="5.852" stroke="black" fill="none" stroke-linecap="round"></path><path d="M 64.000,273.000 C 62.847,279.534 59.393,282.450 55.000,292.000" stroke-width="6.182" stroke="black" fill="none" stroke-linecap="round"></path><path d="M 55.000,292.000 C 47.893,307.450 48.241,307.613 41.000,323.000" stroke-width="4.500" stroke="black" fill="none" stroke-linecap="round"></path><path d="M 41.000,323.000 C 32.241,341.613 31.807,341.408 23.000,360.000" stroke-width="4.500" stroke="black" fill="none" stroke-linecap="round"></path><path d="M 23.000,360.000 C 13.807,379.408 14.489,379.743 5.000,399.000" stroke-width="4.500" stroke="black" fill="none" stroke-linecap="round"></path><path d="M 5.000,399.000 C -2.511,414.243 -3.403,413.806 -11.000,429.000" stroke-width="4.500" stroke="black" fill="none" stroke-linecap="round"></path><path d="M -11.000,429.000 C -14.403,435.806 -16.625,437.381 -17.000,443.000" stroke-width="4.500" stroke="black" fill="none" stroke-linecap="round"></path><path d="M 142.000,135.000 C 138.500,140.000 137.421,139.498 135.000,145.000" stroke-width="6.637" stroke="black" fill="none" stroke-linecap="round"></path><path d="M 135.000,145.000 C 131.921,151.998 133.568,152.691 131.000,160.000" stroke-width="5.155" stroke="black" fill="none" stroke-linecap="round"></path><path d="M 131.000,160.000 C 127.068,171.191 127.219,171.345 122.000,182.000" stroke-width="4.500" stroke="black" fill="none" stroke-linecap="round"></path><path d="M 122.000,182.000 C 115.219,195.845 114.522,195.512 107.000,209.000" stroke-width="4.500" stroke="black" fill="none" stroke-linecap="round"></path><path d="M 107.000,209.000 C 100.022,221.512 99.644,221.317 93.000,234.000" stroke-width="4.500" stroke="black" fill="none" stroke-linecap="round"></path><path d="M 93.000,234.000 C 88.644,242.317 88.539,242.348 85.000,251.000" stroke-width="4.500" stroke="black" fill="none" stroke-linecap="round"></path><path d="M 85.000,251.000 C 84.039,253.348 82.860,255.088 84.000,256.000" stroke-width="5.634" stroke="black" fill="none" stroke-linecap="round"></path><path d="M 84.000,256.000 C 85.360,257.088 87.339,256.330 90.000,255.000" stroke-width="6.879" stroke="black" fill="none" stroke-linecap="round"></path><path d="M 90.000,255.000 C 95.339,252.330 95.613,252.167 100.000,248.000" stroke-width="5.642" stroke="black" fill="none" stroke-linecap="round"></path><path d="M 100.000,248.000 C 105.613,242.667 105.154,242.122 110.000,236.000" stroke-width="4.940" stroke="black" fill="none" stroke-linecap="round"></path><path d="M 110.000,236.000 C 114.654,230.122 114.500,230.000 119.000,224.000" stroke-width="4.730" stroke="black" fill="none" stroke-linecap="round"></path><path d="M 119.000,224.000 C 122.000,220.000 122.400,216.975 125.000,216.000" stroke-width="5.349" stroke="black" fill="none" stroke-linecap="round"></path><path d="M 125.000,216.000 C 126.400,215.475 127.381,218.459 127.000,221.000" stroke-width="7.022" stroke="black" fill="none" stroke-linecap="round"></path><path d="M 127.000,221.000 C 125.881,228.459 125.313,228.851 122.000,236.000" stroke-width="5.296" stroke="black" fill="none" stroke-linecap="round"></path><path d="M 122.000,236.000 C 115.813,249.351 114.934,248.965 108.000,262.000" stroke-width="4.500" stroke="black" fill="none" stroke-linecap="round"></path><path d="M 108.000,262.000 C 102.434,272.465 102.157,272.342 97.000,283.000" stroke-width="4.500" stroke="black" fill="none" stroke-linecap="round"></path><path d="M 97.000,283.000 C 94.657,287.842 92.722,292.166 93.000,293.000" stroke-width="4.809" stroke="black" fill="none" stroke-linecap="round"></path><path d="M 93.000,293.000 C 93.222,293.666 95.577,289.553 98.000,286.000" stroke-width="6.513" stroke="black" fill="none" stroke-linecap="round"></path><path d="M 98.000,286.000 C 103.077,278.553 103.332,278.702 108.000,271.000" stroke-width="4.729" stroke="black" fill="none" stroke-linecap="round"></path><path d="M 108.000,271.000 C 113.332,262.202 112.746,261.848 118.000,253.000" stroke-width="4.500" stroke="black" fill="none" stroke-linecap="round"></path><path d="M 118.000,253.000 C 122.246,245.848 122.315,245.871 127.000,239.000" stroke-width="4.500" stroke="black" fill="none" stroke-linecap="round"></path><path d="M 127.000,239.000 C 129.815,234.871 130.691,230.743 133.000,231.000" stroke-width="5.161" stroke="black" fill="none" stroke-linecap="round"></path><path d="M 133.000,231.000 C 135.191,231.243 136.459,235.639 136.000,240.000" stroke-width="6.637" stroke="black" fill="none" stroke-linecap="round"></path><path d="M 136.000,240.000 C 135.459,245.139 133.030,244.812 131.000,250.000" stroke-width="5.743" stroke="black" fill="none" stroke-linecap="round"></path><path d="M 131.000,250.000 C 128.530,256.312 128.715,256.428 127.000,263.000" stroke-width="5.202" stroke="black" fill="none" stroke-linecap="round"></path><path d="M 127.000,263.000 C 125.715,267.928 123.187,269.633 125.000,273.000" stroke-width="5.491" stroke="black" fill="none" stroke-linecap="round"></path><path d="M 125.000,273.000 C 126.687,276.133 130.061,277.576 134.000,276.000" stroke-width="6.461" stroke="black" fill="none" stroke-linecap="round"></path><path d="M 134.000,276.000 C 142.561,272.576 142.497,270.034 150.000,263.000" stroke-width="4.500" stroke="black" fill="none" stroke-linecap="round"></path><path d="M 150.000,263.000 C 158.497,255.034 159.116,255.279 166.000,246.000" stroke-width="4.500" stroke="black" fill="none" stroke-linecap="round"></path><path d="M 166.000,246.000 C 170.616,239.779 170.470,239.229 173.000,232.000" stroke-width="4.500" stroke="black" fill="none" stroke-linecap="round"></path><path d="M 173.000,232.000 C 173.970,229.229 174.351,227.892 173.000,226.000" stroke-width="5.733" stroke="black" fill="none" stroke-linecap="round"></path><path d="M 173.000,226.000 C 171.851,224.392 169.262,223.990 168.000,225.000" stroke-width="7.036" stroke="black" fill="none" stroke-linecap="round"></path><path d="M 168.000,225.000 C 166.762,225.990 168.000,227.500 168.000,230.000" stroke-width="6.979" stroke="black" fill="none" stroke-linecap="round"></path><path d="M 168.000,230.000 C 168.000,233.500 168.000,233.500 168.000,237.000" stroke-width="6.545" stroke="black" fill="none" stroke-linecap="round"></path><path d="M 168.000,237.000 C 168.000,243.000 168.427,243.027 168.000,249.000" stroke-width="5.602" stroke="black" fill="none" stroke-linecap="round"></path><path d="M 168.000,249.000 C 167.427,257.027 166.573,256.973 166.000,265.000" stroke-width="4.768" stroke="black" fill="none" stroke-linecap="round"></path><path d="M 166.000,265.000 C 165.573,270.973 164.035,272.416 166.000,277.000" stroke-width="5.113" stroke="black" fill="none" stroke-linecap="round"></path><path d="M 166.000,277.000 C 167.035,279.416 169.793,280.204 172.000,279.000" stroke-width="6.607" stroke="black" fill="none" stroke-linecap="round"></path><path d="M 172.000,279.000 C 175.293,277.204 174.712,275.119 177.000,271.000" stroke-width="6.011" stroke="black" fill="none" stroke-linecap="round"></path><path d="M 177.000,271.000 C 179.712,266.119 179.288,265.881 182.000,261.000" stroke-width="5.592" stroke="black" fill="none" stroke-linecap="round"></path><path d="M 182.000,261.000 C 184.288,256.881 184.772,257.138 187.000,253.000" stroke-width="5.728" stroke="black" fill="none" stroke-linecap="round"></path><path d="M 187.000,253.000 C 188.272,250.638 188.230,248.000 189.000,248.000" stroke-width="6.397" stroke="black" fill="none" stroke-linecap="round"></path><path d="M 189.000,248.000 C 189.730,248.000 189.748,250.475 190.000,253.000" stroke-width="7.550" stroke="black" fill="none" stroke-linecap="round"></path><path d="M 190.000,253.000 C 190.248,255.475 190.000,255.500 190.000,258.000" stroke-width="7.051" stroke="black" fill="none" stroke-linecap="round"></path><path d="M 190.000,258.000 C 190.000,261.500 189.751,261.518 190.000,265.000" stroke-width="6.564" stroke="black" fill="none" stroke-linecap="round"></path><path d="M 190.000,265.000 C 190.251,268.518 189.013,269.572 191.000,272.000" stroke-width="6.335" stroke="black" fill="none" stroke-linecap="round"></path><path d="M 191.000,272.000 C 193.513,275.072 194.728,274.983 199.000,276.000" stroke-width="6.022" stroke="black" fill="none" stroke-linecap="round"></path><path d="M 199.000,276.000 C 205.228,277.483 206.450,279.379 212.000,277.000" stroke-width="5.341" stroke="black" fill="none" stroke-linecap="round"></path><path d="M 212.000,277.000 C 220.450,273.379 220.498,271.399 227.000,264.000" stroke-width="4.500" stroke="black" fill="none" stroke-linecap="round"></path><path d="M 227.000,264.000 C 234.998,254.899 235.987,254.862 241.000,244.000" stroke-width="4.500" stroke="black" fill="none" stroke-linecap="round"></path><path d="M 241.000,244.000 C 244.987,235.362 244.675,234.430 245.000,225.000" stroke-width="4.500" stroke="black" fill="none" stroke-linecap="round"></path><path d="M 245.000,225.000 C 245.175,219.930 245.312,217.802 242.000,215.000" stroke-width="4.956" stroke="black" fill="none" stroke-linecap="round"></path><path d="M 242.000,215.000 C 238.812,212.302 237.011,214.278 232.000,214.000" stroke-width="5.426" stroke="black" fill="none" stroke-linecap="round"></path><path d="M 232.000,214.000 C 228.011,213.778 227.682,212.948 224.000,214.000" stroke-width="5.894" stroke="black" fill="none" stroke-linecap="round"></path><path d="M 224.000,214.000 C 220.682,214.948 220.232,215.322 218.000,218.000" stroke-width="6.108" stroke="black" fill="none" stroke-linecap="round"></path><path d="M 218.000,218.000 C 215.232,221.322 215.271,221.763 214.000,226.000" stroke-width="5.959" stroke="black" fill="none" stroke-linecap="round"></path><path d="M 214.000,226.000 C 212.271,231.763 212.949,231.992 212.000,238.000" stroke-width="5.340" stroke="black" fill="none" stroke-linecap="round"></path><path d="M 253.000,148.000 C 257.000,148.000 259.316,145.684 261.000,148.000" stroke-width="8.473" stroke="black" fill="none" stroke-linecap="round"></path><path d="M 261.000,148.000 C 263.316,151.184 262.137,153.695 261.000,159.000" stroke-width="6.000" stroke="black" fill="none" stroke-linecap="round"></path><path d="M 261.000,159.000 C 259.137,167.695 258.045,167.516 255.000,176.000" stroke-width="4.756" stroke="black" fill="none" stroke-linecap="round"></path><path d="M 255.000,176.000 C 251.045,187.016 250.981,186.993 247.000,198.000" stroke-width="4.500" stroke="black" fill="none" stroke-linecap="round"></path><path d="M 247.000,198.000 C 242.481,210.493 242.500,210.500 238.000,223.000" stroke-width="4.500" stroke="black" fill="none" stroke-linecap="round"></path><path d="M 238.000,223.000 C 233.500,235.500 233.122,235.377 229.000,248.000" stroke-width="4.500" stroke="black" fill="none" stroke-linecap="round"></path><path d="M 291.000,218.000 C 288.000,223.000 287.049,222.599 285.000,228.000" stroke-width="7.873" stroke="black" fill="none" stroke-linecap="round"></path><path d="M 285.000,228.000 C 281.549,237.099 283.537,237.905 280.000,247.000" stroke-width="4.860" stroke="black" fill="none" stroke-linecap="round"></path><path d="M 280.000,247.000 C 276.537,255.905 275.645,255.581 271.000,264.000" stroke-width="4.500" stroke="black" fill="none" stroke-linecap="round"></path><path d="M 271.000,264.000 C 267.645,270.081 263.755,276.000 264.000,276.000" stroke-width="4.734" stroke="black" fill="none" stroke-linecap="round"></path><path d="M 264.000,276.000 C 264.255,276.000 267.763,269.826 272.000,264.000" stroke-width="6.333" stroke="black" fill="none" stroke-linecap="round"></path><path d="M 272.000,264.000 C 275.763,258.826 276.318,259.216 280.000,254.000" stroke-width="5.443" stroke="black" fill="none" stroke-linecap="round"></path><path d="M 280.000,254.000 C 282.318,250.716 282.575,247.285 284.000,247.000" stroke-width="5.890" stroke="black" fill="none" stroke-linecap="round"></path><path d="M 284.000,247.000 C 285.075,246.785 285.228,250.041 285.000,253.000" stroke-width="7.237" stroke="black" fill="none" stroke-linecap="round"></path><path d="M 285.000,253.000 C 284.728,256.541 283.938,256.483 283.000,260.000" stroke-width="6.467" stroke="black" fill="none" stroke-linecap="round"></path><path d="M 283.000,260.000 C 281.938,263.983 281.579,263.948 281.000,268.000" stroke-width="6.177" stroke="black" fill="none" stroke-linecap="round"></path><path d="M 281.000,268.000 C 280.579,270.948 279.638,273.546 281.000,274.000" stroke-width="6.502" stroke="black" fill="none" stroke-linecap="round"></path><path d="M 281.000,274.000 C 282.638,274.546 284.989,272.873 287.000,270.000" stroke-width="7.400" stroke="black" fill="none" stroke-linecap="round"></path><path d="M 287.000,270.000 C 291.989,262.873 291.172,262.082 295.000,254.000" stroke-width="4.871" stroke="black" fill="none" stroke-linecap="round"></path><path d="M 295.000,254.000 C 300.172,243.082 300.517,243.207 305.000,232.000" stroke-width="4.500" stroke="black" fill="none" stroke-linecap="round"></path><path d="M 305.000,232.000 C 309.517,220.707 309.856,220.719 313.000,209.000" stroke-width="4.500" stroke="black" fill="none" stroke-linecap="round"></path><path d="M 313.000,209.000 C 315.356,200.219 315.151,200.054 316.000,191.000" stroke-width="4.500" stroke="black" fill="none" stroke-linecap="round"></path><path d="M 316.000,191.000 C 316.651,184.054 316.000,184.000 316.000,177.000" stroke-width="4.639" stroke="black" fill="none" stroke-linecap="round"></path><path d="M 316.000,177.000 C 316.000,173.000 316.598,169.897 316.000,169.000" stroke-width="5.515" stroke="black" fill="none" stroke-linecap="round"></path><path d="M 316.000,169.000 C 315.598,168.397 314.435,171.391 314.000,174.000" stroke-width="7.224" stroke="black" fill="none" stroke-linecap="round"></path><path d="M 314.000,174.000 C 313.435,177.391 314.407,177.540 314.000,181.000" stroke-width="6.608" stroke="black" fill="none" stroke-linecap="round"></path><path d="M 314.000,181.000 C 313.407,186.040 312.928,185.987 312.000,191.000" stroke-width="5.888" stroke="black" fill="none" stroke-linecap="round"></path><path d="M 312.000,191.000 C 310.428,199.487 310.544,199.508 309.000,208.000" stroke-width="4.814" stroke="black" fill="none" stroke-linecap="round"></path><path d="M 309.000,208.000 C 307.544,216.008 307.111,215.949 306.000,224.000" stroke-width="4.562" stroke="black" fill="none" stroke-linecap="round"></path><path d="M 306.000,224.000 C 305.111,230.449 305.361,230.495 305.000,237.000" stroke-width="4.921" stroke="black" fill="none" stroke-linecap="round"></path><path d="M 305.000,237.000 C 304.861,239.495 304.359,242.214 305.000,242.000" stroke-width="6.133" stroke="black" fill="none" stroke-linecap="round"></path><path d="M 305.000,242.000 C 305.859,241.714 306.889,239.149 308.000,236.000" stroke-width="7.040" stroke="black" fill="none" stroke-linecap="round"></path><path d="M 308.000,236.000 C 309.889,230.649 309.518,230.505 311.000,225.000" stroke-width="5.688" stroke="black" fill="none" stroke-linecap="round"></path><path d="M 311.000,225.000 C 313.018,217.505 312.868,217.462 315.000,210.000" stroke-width="4.962" stroke="black" fill="none" stroke-linecap="round"></path><path d="M 315.000,210.000 C 316.868,203.462 317.020,203.506 319.000,197.000" stroke-width="4.988" stroke="black" fill="none" stroke-linecap="round"></path><path d="M 319.000,197.000 C 320.520,192.006 320.736,192.055 322.000,187.000" stroke-width="5.385" stroke="black" fill="none" stroke-linecap="round"></path><path d="M 322.000,187.000 C 322.736,184.055 322.570,180.570 323.000,181.000" stroke-width="6.133" stroke="black" fill="none" stroke-linecap="round"></path><path d="M 323.000,181.000 C 323.570,181.570 323.764,184.984 324.000,189.000" stroke-width="7.182" stroke="black" fill="none" stroke-linecap="round"></path><path d="M 324.000,189.000 C 324.264,193.484 324.000,193.500 324.000,198.000" stroke-width="6.222" stroke="black" fill="none" stroke-linecap="round"></path><path d="M 324.000,198.000 C 324.000,204.500 324.000,204.500 324.000,211.000" stroke-width="5.392" stroke="black" fill="none" stroke-linecap="round"></path><path d="M 324.000,211.000 C 324.000,216.500 323.711,216.518 324.000,222.000" stroke-width="5.351" stroke="black" fill="none" stroke-linecap="round"></path><path d="M 324.000,222.000 C 324.211,226.018 323.201,227.002 325.000,230.000" stroke-width="5.857" stroke="black" fill="none" stroke-linecap="round"></path><path d="M 325.000,230.000 C 326.201,232.002 327.407,231.481 330.000,232.000" stroke-width="6.444" stroke="black" fill="none" stroke-linecap="round"></path><path d="M 330.000,232.000 C 332.407,232.481 333.048,233.171 335.000,232.000" stroke-width="6.793" stroke="black" fill="none" stroke-linecap="round"></path><path d="M 335.000,232.000 C 338.048,230.171 338.452,229.483 340.000,226.000" stroke-width="6.342" stroke="black" fill="none" stroke-linecap="round"></path><path d="M 340.000,226.000 C 342.452,220.483 341.392,219.971 343.000,214.000" stroke-width="5.399" stroke="black" fill="none" stroke-linecap="round"></path><path d="M 343.000,214.000 C 344.892,206.971 345.366,207.082 347.000,200.000" stroke-width="5.001" stroke="black" fill="none" stroke-linecap="round"></path><path d="M 347.000,200.000 C 348.366,194.082 348.425,194.035 349.000,188.000" stroke-width="5.170" stroke="black" fill="none" stroke-linecap="round"></path><path d="M 349.000,188.000 C 349.425,183.535 349.000,183.500 349.000,179.000" stroke-width="5.569" stroke="black" fill="none" stroke-linecap="round"></path><path d="M 349.000,179.000 C 349.000,176.500 350.250,175.250 349.000,174.000" stroke-width="6.472" stroke="black" fill="none" stroke-linecap="round"></path><path d="M 349.000,174.000 C 347.750,172.750 345.485,172.762 344.000,174.000" stroke-width="7.357" stroke="black" fill="none" stroke-linecap="round"></path><path d="M 344.000,174.000 C 342.485,175.262 343.387,176.482 343.000,179.000" stroke-width="7.048" stroke="black" fill="none" stroke-linecap="round"></path><path d="M 343.000,179.000 C 342.387,182.982 342.545,183.006 342.000,187.000" stroke-width="6.360" stroke="black" fill="none" stroke-linecap="round"></path><path d="M 342.000,187.000 C 341.045,194.006 340.454,193.961 340.000,201.000" stroke-width="5.273" stroke="black" fill="none" stroke-linecap="round"></path><path d="M 340.000,201.000 C 339.454,209.461 340.000,209.500 340.000,218.000" stroke-width="4.602" stroke="black" fill="none" stroke-linecap="round"></path><path d="M 340.000,218.000 C 340.000,226.000 338.663,226.248 340.000,234.000" stroke-width="4.626" stroke="black" fill="none" stroke-linecap="round"></path><path d="M 340.000,234.000 C 341.163,240.748 342.260,240.606 345.000,247.000" stroke-width="4.846" stroke="black" fill="none" stroke-linecap="round"></path><path d="M 345.000,247.000 C 346.760,251.106 350.333,252.111 349.000,255.000" stroke-width="5.460" stroke="black" fill="none" stroke-linecap="round"></path><path d="M 349.000,255.000 C 347.333,258.611 344.450,259.408 339.000,260.000" stroke-width="6.661" stroke="black" fill="none" stroke-linecap="round"></path><path d="M 339.000,260.000 C 321.450,261.908 321.000,260.000 303.000,260.000" stroke-width="4.500" stroke="black" fill="none" stroke-linecap="round"></path><path d="M 303.000,260.000 C 283.000,260.000 282.980,260.579 263.000,260.000" stroke-width="4.500" stroke="black" fill="none" stroke-linecap="round"></path><path d="M 263.000,260.000 C 248.480,259.579 248.515,258.558 234.000,258.000" stroke-width="4.500" stroke="black" fill="none" stroke-linecap="round"></path><path d="M 234.000,258.000 C 222.515,257.558 222.488,257.681 211.000,258.000" stroke-width="4.500" stroke="black" fill="none" stroke-linecap="round"></path><path d="M 36.000,192.000 C 42.000,198.000 40.076,203.120 48.000,204.000" stroke-width="6.978" stroke="black" fill="none" stroke-linecap="round"></path><path d="M 48.000,204.000 C 76.076,207.120 78.314,204.398 108.000,200.000" stroke-width="4.500" stroke="black" fill="none" stroke-linecap="round"></path><path d="M 108.000,200.000 C 159.314,192.398 158.834,189.010 210.000,180.000" stroke-width="4.500" stroke="black" fill="none" stroke-linecap="round"></path></svg>