<svg xmlns="http://www.w3.org/2000/svg" xmlns:xlink="http://www.w3.org/1999/xlink" viewBox="0 0 576 350" width="576" height="350"><path d="M 142.000,274.000 C 142.000,267.000 142.000,267.000 142.000,260.000" stroke-width="5.709" stroke="black" fill="none" stroke-linecap="round"></path><path d="M 142.000,260.000 C 142.000,256.000 142.417,255.962 142.000,252.000" stroke-width="5.991" stroke="black" fill="none" stroke-linecap="round"></path><path d="M 142.000,252.000 C 141.417,246.462 142.349,245.911 140.000,241.000" stroke-width="5.586" stroke="black" fill="none" stroke-linecap="round"></path><path d="M 140.000,241.000 C 136.849,234.411 135.256,235.170 131.000,229.000" stroke-width="4.997" stroke="black" fill="none" stroke-linecap="round"></path><path d="M 131.000,229.000 C 125.256,220.670 125.176,220.695 120.000,212.000" stroke-width="4.500" stroke="black" fill="none" stroke-linecap="round"></path><path d="M 120.000,212.000 C 112.676,199.695 111.402,200.182 106.000,187.000" stroke-width="4.500" stroke="black" fill="none" stroke-linecap="round"></path><path d="M 106.000,187.000 C 98.902,169.682 99.519,169.255 95.000,151.000" stroke-width="4.500" stroke="black" fill="none" stroke-linecap="round"></path><path d="M 95.000,151.000 C 87.019,118.755 88.079,118.482 81.000,86.000" stroke-width="4.500" stroke="black" fill="none" stroke-linecap="round"></path><path d="M 81.000,86.000 C 79.579,79.482 77.636,76.637 78.000,73.000" stroke-width="4.500" stroke="black" fill="none" stroke-linecap="round"></path><path d="M 78.000,73.000 C 78.136,71.637 80.048,74.439 82.000,76.000" stroke-width="5.891" stroke="black" fill="none" stroke-linecap="round"></path><path d="M 82.000,76.000 C 85.048,78.439 85.631,77.954 88.000,81.000" stroke-width="6.081" stroke="black" fill="none" stroke-linecap="round"></path><path d="M 88.000,81.000 C 92.631,86.954 92.595,87.190 96.000,94.000" stroke-width="5.078" stroke="black" fill="none" stroke-linecap="round"></path><path d="M 96.000,94.000 C 101.595,105.190 101.502,105.305 106.000,117.000" stroke-width="4.500" stroke="black" fill="none" stroke-linecap="round"></path><path d="M 106.000,117.000 C 111.502,131.305 111.527,131.339 116.000,146.000" stroke-width="4.500" stroke="black" fill="none" stroke-linecap="round"></path><path d="M 116.000,146.000 C 120.527,160.839 120.113,160.971 124.000,176.000" stroke-width="4.500" stroke="black" fill="none" stroke-linecap="round"></path><path d="M 124.000,176.000 C 127.613,189.971 127.732,189.948 131.000,204.000" stroke-width="4.500" stroke="black" fill="none" stroke-linecap="round"></path><path d="M 131.000,204.000 C 132.732,211.448 133.368,220.264 134.000,219.000" stroke-width="4.500" stroke="black" fill="none" stroke-linecap="round"></path><path d="M 134.000,219.000 C 134.868,217.264 134.000,208.500 134.000,198.000" stroke-width="4.997" stroke="black" fill="none" stroke-linecap="round"></path><path d="M 134.000,198.000 C 134.000,180.500 133.767,180.497 134.000,163.000" stroke-width="4.500" stroke="black" fill="none" stroke-linecap="round"></path><path d="M 134.000,163.000 C 134.267,142.997 133.671,142.942 135.000,123.000" stroke-width="4.500" stroke="black" fill="none" stroke-linecap="round"></path><path d="M 135.000,123.000 C 136.171,105.442 135.806,105.246 139.000,88.000" stroke-width="4.500" stroke="black" fill="none" stroke-linecap="round"></path><path d="M 139.000,88.000 C 140.806,78.246 140.446,76.970 145.000,69.000" stroke-width="4.500" stroke="black" fill="none" stroke-linecap="round"></path><path d="M 145.000,69.000 C 146.446,66.470 148.233,66.262 151.000,67.000" stroke-width="5.212" stroke="black" fill="none" stroke-linecap="round"></path><path d="M 151.000,67.000 C 155.733,68.262 156.103,69.363 160.000,73.000" stroke-width="6.247" stroke="black" fill="none" stroke-linecap="round"></path><path d="M 160.000,73.000 C 163.603,76.363 163.229,76.844 166.000,81.000" stroke-width="5.829" stroke="black" fill="none" stroke-linecap="round"></path><path d="M 166.000,81.000 C 170.229,87.344 170.596,87.191 174.000,94.000" stroke-width="5.023" stroke="black" fill="none" stroke-linecap="round"></path><path d="M 174.000,94.000 C 179.096,104.191 179.851,104.085 183.000,115.000" stroke-width="4.500" stroke="black" fill="none" stroke-linecap="round"></path><path d="M 183.000,115.000 C 187.351,130.085 187.414,130.335 189.000,146.000" stroke-width="4.500" stroke="black" fill="none" stroke-linecap="round"></path><path d="M 189.000,146.000 C 191.414,169.835 191.967,170.074 191.000,194.000" stroke-width="4.500" stroke="black" fill="none" stroke-linecap="round"></path><path d="M 191.000,194.000 C 189.967,219.574 190.360,220.092 185.000,245.000" stroke-width="4.500" stroke="black" fill="none" stroke-linecap="round"></path><path d="M 185.000,245.000 C 181.860,259.592 181.027,260.000 174.000,273.000" stroke-width="4.500" stroke="black" fill="none" stroke-linecap="round"></path><path d="M 174.000,273.000 C 171.027,278.500 169.747,281.473 165.000,282.000" stroke-width="4.500" stroke="black" fill="none" stroke-linecap="round"></path><path d="M 165.000,282.000 C 160.747,282.473 158.261,279.870 156.000,275.000" stroke-width="4.948" stroke="black" fill="none" stroke-linecap="round"></path><path d="M 156.000,275.000 C 151.761,265.870 153.009,264.594 152.000,254.000" stroke-width="4.500" stroke="black" fill="none" stroke-linecap="round"></path><path d="M 152.000,254.000 C 151.009,243.594 148.644,242.349 152.000,233.000" stroke-width="4.500" stroke="black" fill="none" stroke-linecap="round"></path><path d="M 152.000,233.000 C 155.644,222.849 157.705,222.657 166.000,215.000" stroke-width="4.500" stroke="black" fill="none" stroke-linecap="round"></path><path d="M 166.000,215.000 C 177.205,204.657 178.513,206.018 191.000,197.000" stroke-width="4.500" stroke="black" fill="none" stroke-linecap="round"></path><path d="M 191.000,197.000 C 205.513,186.518 205.806,186.899 220.000,176.000" stroke-width="4.500" stroke="black" fill="none" stroke-linecap="round"></path><path d="M 220.000,176.000 C 233.806,165.399 234.307,165.847 247.000,154.000" stroke-width="4.500" stroke="black" fill="none" stroke-linecap="round"></path><path d="M 247.000,154.000 C 256.807,144.847 258.458,145.215 265.000,134.000" stroke-width="4.500" stroke="black" fill="none" stroke-linecap="round"></path><path d="M 265.000,134.000 C 268.958,127.215 268.593,125.707 268.000,118.000" stroke-width="4.500" stroke="black" fill="none" stroke-linecap="round"></path><path d="M 268.000,118.000 C 267.593,112.707 266.988,111.284 263.000,108.000" stroke-width="4.949" stroke="black" fill="none" stroke-linecap="round"></path><path d="M 263.000,108.000 C 258.488,104.284 257.104,105.357 251.000,104.000" stroke-width="5.003" stroke="black" fill="none" stroke-linecap="round"></path><path d="M 251.000,104.000 C 248.104,103.357 247.108,102.682 245.000,104.000" stroke-width="6.054" stroke="black" fill="none" stroke-linecap="round"></path><path d="M 245.000,104.000 C 243.108,105.182 243.435,106.391 243.000,109.000" stroke-width="6.514" stroke="black" fill="none" stroke-linecap="round"></path><path d="M 243.000,109.000 C 242.435,112.391 242.825,112.507 243.000,116.000" stroke-width="6.416" stroke="black" fill="none" stroke-linecap="round"></path><path d="M 243.000,116.000 C 243.325,122.507 242.275,122.839 244.000,129.000" stroke-width="5.429" stroke="black" fill="none" stroke-linecap="round"></path><path d="M 244.000,129.000 C 245.775,135.339 246.260,135.534 250.000,141.000" stroke-width="5.044" stroke="black" fill="none" stroke-linecap="round"></path><path d="M 250.000,141.000 C 252.760,145.034 254.016,149.305 257.000,148.000" stroke-width="5.478" stroke="black" fill="none" stroke-linecap="round"></path><path d="M 257.000,148.000 C 262.016,145.805 263.644,141.793 266.000,134.000" stroke-width="5.861" stroke="black" fill="none" stroke-linecap="round"></path><path d="M 266.000,134.000 C 270.144,120.293 267.678,119.448 270.000,105.000" stroke-width="4.500" stroke="black" fill="none" stroke-linecap="round"></path><path d="M 270.000,105.000 C 272.178,91.448 272.489,91.498 275.000,78.000" stroke-width="4.500" stroke="black" fill="none" stroke-linecap="round"></path><path d="M 275.000,78.000 C 276.489,69.998 276.763,63.855 278.000,62.000" stroke-width="4.500" stroke="black" fill="none" stroke-linecap="round"></path><path d="M 278.000,62.000 C 278.763,60.855 278.377,67.016 279.000,72.000" stroke-width="6.071" stroke="black" fill="none" stroke-linecap="round"></path><path d="M 279.000,72.000 C 279.377,75.016 279.456,75.008 280.000,78.000" stroke-width="6.451" stroke="black" fill="none" stroke-linecap="round"></path><path d="M 280.000,78.000 C 280.456,80.508 279.576,83.178 281.000,83.000" stroke-width="6.708" stroke="black" fill="none" stroke-linecap="round"></path><path d="M 281.000,83.000 C 283.576,82.678 285.353,80.666 288.000,77.000" stroke-width="7.391" stroke="black" fill="none" stroke-linecap="round"></path><path d="M 288.000,77.000 C 291.853,71.666 290.357,70.464 294.000,65.000" stroke-width="5.563" stroke="black" fill="none" stroke-linecap="round"></path><path d="M 294.000,65.000 C 295.357,62.964 296.250,61.750 298.000,62.000" stroke-width="6.469" stroke="black" fill="none" stroke-linecap="round"></path><path d="M 298.000,62.000 C 299.750,62.250 300.147,63.686 301.000,66.000" stroke-width="6.801" stroke="black" fill="none" stroke-linecap="round"></path><path d="M 301.000,66.000 C 303.647,73.186 302.899,73.528 305.000,81.000" stroke-width="5.184" stroke="black" fill="none" stroke-linecap="round"></path><path d="M 305.000,81.000 C 307.399,89.528 307.669,89.454 310.000,98.000" stroke-width="4.614" stroke="black" fill="none" stroke-linecap="round"></path><path d="M 310.000,98.000 C 312.169,105.954 311.931,106.018 314.000,114.000" stroke-width="4.582" stroke="black" fill="none" stroke-linecap="round"></path><path d="M 314.000,114.000 C 315.431,119.518 315.957,122.915 317.000,125.000" stroke-width="5.117" stroke="black" fill="none" stroke-linecap="round"></path><path d="M 317.000,125.000 C 317.457,125.915 317.000,122.500 317.000,120.000" stroke-width="6.865" stroke="black" fill="none" stroke-linecap="round"></path><path d="M 317.000,120.000 C 317.000,113.000 317.000,113.000 317.000,106.000" stroke-width="5.390" stroke="black" fill="none" stroke-linecap="round"></path><path d="M 317.000,106.000 C 317.000,98.500 316.148,98.386 317.000,91.000" stroke-width="4.949" stroke="black" fill="none" stroke-linecap="round"></path><path d="M 317.000,91.000 C 317.648,85.386 317.567,84.866 320.000,80.000" stroke-width="5.159" stroke="black" fill="none" stroke-linecap="round"></path><path d="M 320.000,80.000 C 321.067,77.866 322.868,76.056 324.000,77.000" stroke-width="6.297" stroke="black" fill="none" stroke-linecap="round"></path><path d="M 324.000,77.000 C 325.868,78.556 323.838,81.658 326.000,85.000" stroke-width="7.234" stroke="black" fill="none" stroke-linecap="round"></path><path d="M 326.000,85.000 C 329.338,90.158 329.843,90.562 335.000,94.000" stroke-width="6.700" stroke="black" fill="none" stroke-linecap="round"></path></svg>