<svg xmlns="http://www.w3.org/2000/svg" xmlns:xlink="http://www.w3.org/1999/xlink" viewBox="0 0 576 350" width="576" height="350"><path d="M 120.000,250.000 C 122.500,243.000 122.198,242.877 125.000,236.000" stroke-width="7.104" stroke="black" fill="none" stroke-linecap="round"></path><path d="M 125.000,236.000 C 127.698,229.377 127.532,229.243 131.000,223.000" stroke-width="5.148" stroke="black" fill="none" stroke-linecap="round"></path><path d="M 131.000,223.000 C 135.032,215.743 135.946,216.254 140.000,209.000" stroke-width="4.713" stroke="black" fill="none" stroke-linecap="round"></path><path d="M 140.000,209.000 C 145.446,199.254 145.094,199.046 150.000,189.000" stroke-width="4.500" stroke="black" fill="none" stroke-linecap="round"></path><path d="M 150.000,189.000 C 155.594,177.546 155.893,177.672 161.000,166.000" stroke-width="4.500" stroke="black" fill="none" stroke-linecap="round"></path><path d="M 161.000,166.000 C 166.393,153.672 166.360,153.632 171.000,141.000" stroke-width="4.500" stroke="black" fill="none" stroke-linecap="round"></path><path d="M 171.000,141.000 C 175.360,129.132 175.391,129.116 179.000,117.000" stroke-width="4.500" stroke="black" fill="none" stroke-linecap="round"></path><path d="M 179.000,117.000 C 182.391,105.616 183.010,105.658 185.000,94.000" stroke-width="4.500" stroke="black" fill="none" stroke-linecap="round"></path><path d="M 185.000,94.000 C 186.510,85.158 185.689,85.005 186.000,76.000" stroke-width="4.500" stroke="black" fill="none" stroke-linecap="round"></path><path d="M 186.000,76.000 C 186.189,70.505 187.154,70.194 186.000,65.000" stroke-width="4.939" stroke="black" fill="none" stroke-linecap="round"></path><path d="M 186.000,65.000 C 185.154,61.194 184.802,60.522 182.000,58.000" stroke-width="5.701" stroke="black" fill="none" stroke-linecap="round"></path><path d="M 182.000,58.000 C 179.802,56.022 179.085,56.475 176.000,56.000" stroke-width="6.206" stroke="black" fill="none" stroke-linecap="round"></path><path d="M 176.000,56.000 C 172.585,55.475 172.098,54.724 169.000,56.000" stroke-width="6.323" stroke="black" fill="none" stroke-linecap="round"></path><path d="M 169.000,56.000 C 163.598,58.224 163.663,59.083 159.000,63.000" stroke-width="5.523" stroke="black" fill="none" stroke-linecap="round"></path><path d="M 159.000,63.000 C 151.163,69.583 150.983,69.518 144.000,77.000" stroke-width="4.500" stroke="black" fill="none" stroke-linecap="round"></path><path d="M 144.000,77.000 C 136.983,84.518 137.180,84.760 131.000,93.000" stroke-width="4.500" stroke="black" fill="none" stroke-linecap="round"></path><path d="M 131.000,93.000 C 125.180,100.760 125.065,100.736 120.000,109.000" stroke-width="4.500" stroke="black" fill="none" stroke-linecap="round"></path><path d="M 120.000,109.000 C 115.565,116.236 115.125,116.187 112.000,124.000" stroke-width="4.500" stroke="black" fill="none" stroke-linecap="round"></path><path d="M 112.000,124.000 C 110.125,128.687 107.741,131.063 110.000,134.000" stroke-width="5.153" stroke="black" fill="none" stroke-linecap="round"></path><path d="M 110.000,134.000 C 112.741,137.563 116.142,137.888 122.000,137.000" stroke-width="6.055" stroke="black" fill="none" stroke-linecap="round"></path><path d="M 122.000,137.000 C 132.642,135.388 132.853,133.775 143.000,129.000" stroke-width="4.500" stroke="black" fill="none" stroke-linecap="round"></path><path d="M 143.000,129.000 C 158.353,121.775 157.941,120.888 173.000,113.000" stroke-width="4.500" stroke="black" fill="none" stroke-linecap="round"></path><path d="M 173.000,113.000 C 189.441,104.388 190.070,105.450 206.000,96.000" stroke-width="4.500" stroke="black" fill="none" stroke-linecap="round"></path><path d="M 206.000,96.000 C 219.570,87.950 218.979,86.970 232.000,78.000" stroke-width="4.500" stroke="black" fill="none" stroke-linecap="round"></path><path d="M 232.000,78.000 C 241.479,71.470 241.588,71.623 251.000,65.000" stroke-width="4.500" stroke="black" fill="none" stroke-linecap="round"></path><path d="M 251.000,65.000 C 255.088,62.123 260.080,59.864 259.000,59.000" stroke-width="4.810" stroke="black" fill="none" stroke-linecap="round"></path><path d="M 259.000,59.000 C 257.580,57.864 252.168,58.885 246.000,61.000" stroke-width="6.210" stroke="black" fill="none" stroke-linecap="round"></path><path d="M 246.000,61.000 C 234.668,64.885 235.093,66.215 224.000,71.000" stroke-width="4.500" stroke="black" fill="none" stroke-linecap="round"></path><path d="M 224.000,71.000 C 209.593,77.215 208.945,75.905 195.000,83.000" stroke-width="4.500" stroke="black" fill="none" stroke-linecap="round"></path><path d="M 195.000,83.000 C 180.445,90.405 180.858,91.275 167.000,100.000" stroke-width="4.500" stroke="black" fill="none" stroke-linecap="round"></path><path d="M 167.000,100.000 C 153.858,108.275 154.154,108.746 141.000,117.000" stroke-width="4.500" stroke="black" fill="none" stroke-linecap="round"></path><path d="M 141.000,117.000 C 128.654,124.746 128.020,123.805 116.000,132.000" stroke-width="4.500" stroke="black" fill="none" stroke-linecap="round"></path><path d="M 116.000,132.000 C 106.020,138.805 106.244,139.200 97.000,147.000" stroke-width="4.500" stroke="black" fill="none" stroke-linecap="round"></path><path d="M 97.000,147.000 C 90.244,152.700 90.056,152.608 84.000,159.000" stroke-width="4.500" stroke="black" fill="none" stroke-linecap="round"></path><path d="M 84.000,159.000 C 81.056,162.108 78.719,163.191 79.000,166.000" stroke-width="5.220" stroke="black" fill="none" stroke-linecap="round"></path><path d="M 79.000,166.000 C 79.219,168.191 81.848,169.450 85.000,169.000" stroke-width="6.620" stroke="black" fill="none" stroke-linecap="round"></path><path d="M 85.000,169.000 C 95.848,167.450 96.583,166.849 107.000,162.000" stroke-width="4.500" stroke="black" fill="none" stroke-linecap="round"></path><path d="M 107.000,162.000 C 125.583,153.349 124.513,151.007 143.000,142.000" stroke-width="4.500" stroke="black" fill="none" stroke-linecap="round"></path><path d="M 143.000,142.000 C 163.513,132.007 163.845,132.619 185.000,124.000" stroke-width="4.500" stroke="black" fill="none" stroke-linecap="round"></path><path d="M 185.000,124.000 C 204.345,116.119 204.202,115.599 224.000,109.000" stroke-width="4.500" stroke="black" fill="none" stroke-linecap="round"></path><path d="M 224.000,109.000 C 241.702,103.099 241.788,103.017 260.000,99.000" stroke-width="4.500" stroke="black" fill="none" stroke-linecap="round"></path></svg>