<svg xmlns="http://www.w3.org/2000/svg" xmlns:xlink="http://www.w3.org/1999/xlink" viewBox="0 0 576 416" width="576" height="416"><path d="M 68.619,343.437 C 71.815,338.241 71.634,338.113 75.011,333.045" stroke-width="8.187" stroke="black" fill="none" stroke-linecap="round"></path><path d="M 75.011,333.045 C 76.428,330.918 76.917,331.243 78.207,329.048" stroke-width="7.179" stroke="black" fill="none" stroke-linecap="round"></path><path d="M 78.207,329.048 C 80.912,324.448 81.199,324.465 83.001,319.455" stroke-width="5.930" stroke="black" fill="none" stroke-linecap="round"></path><path d="M 83.001,319.455 C 84.794,314.472 84.791,314.326 85.398,309.063" stroke-width="5.645" stroke="black" fill="none" stroke-linecap="round"></path><path d="M 85.398,309.063 C 85.990,303.934 85.634,303.853 85.398,298.670" stroke-width="5.603" stroke="black" fill="none" stroke-linecap="round"></path><path d="M 85.398,298.670 C 85.234,295.060 85.227,295.032 84.599,291.476" stroke-width="6.081" stroke="black" fill="none" stroke-linecap="round"></path><path d="M 84.599,291.476 C 84.028,288.237 84.103,288.166 83.001,285.080" stroke-width="6.283" stroke="black" fill="none" stroke-linecap="round"></path><path d="M 83.001,285.080 C 82.105,282.570 82.160,282.425 80.604,280.284" stroke-width="6.597" stroke="black" fill="none" stroke-linecap="round"></path><path d="M 80.604,280.284 C 78.964,278.028 79.007,277.486 76.609,276.287" stroke-width="6.635" stroke="black" fill="none" stroke-linecap="round"></path><path d="M 76.609,276.287 C 74.213,275.088 73.819,275.488 71.016,275.488" stroke-width="6.646" stroke="black" fill="none" stroke-linecap="round"></path><path d="M 71.016,275.488 C 67.427,275.488 67.193,275.115 63.825,276.287" stroke-width="6.409" stroke="black" fill="none" stroke-linecap="round"></path><path d="M 63.825,276.287 C 58.004,278.313 57.816,278.430 52.639,281.883" stroke-width="5.598" stroke="black" fill="none" stroke-linecap="round"></path><path d="M 52.639,281.883 C 44.632,287.223 44.351,287.278 37.458,293.874" stroke-width="4.500" stroke="black" fill="none" stroke-linecap="round"></path><path d="M 37.458,293.874 C 35.162,296.071 35.981,296.746 34.262,299.470" stroke-width="5.718" stroke="black" fill="none" stroke-linecap="round"></path><path d="M 34.262,299.470 C 31.187,304.341 30.424,303.952 27.870,309.063" stroke-width="5.368" stroke="black" fill="none" stroke-linecap="round"></path><path d="M 27.870,309.063 C 25.630,313.545 25.740,313.748 24.674,318.655" stroke-width="5.470" stroke="black" fill="none" stroke-linecap="round"></path><path d="M 24.674,318.655 C 23.743,322.941 23.378,323.221 23.875,327.449" stroke-width="5.780" stroke="black" fill="none" stroke-linecap="round"></path><path d="M 23.875,327.449 C 24.177,330.016 24.589,330.225 26.272,332.245" stroke-width="6.421" stroke="black" fill="none" stroke-linecap="round"></path><path d="M 26.272,332.245 C 28.584,335.021 28.640,335.523 31.865,337.042" stroke-width="6.238" stroke="black" fill="none" stroke-linecap="round"></path><path d="M 31.865,337.042 C 35.432,338.721 35.849,338.789 39.855,338.640" stroke-width="6.043" stroke="black" fill="none" stroke-linecap="round"></path><path d="M 39.855,338.640 C 46.636,338.389 47.054,338.638 53.438,336.242" stroke-width="5.249" stroke="black" fill="none" stroke-linecap="round"></path><path d="M 53.438,336.242 C 63.034,332.642 63.405,332.540 71.815,326.649" stroke-width="4.500" stroke="black" fill="none" stroke-linecap="round"></path><path d="M 71.815,326.649 C 79.385,321.348 79.408,320.922 85.398,313.859" stroke-width="4.500" stroke="black" fill="none" stroke-linecap="round"></path><path d="M 85.398,313.859 C 90.594,307.732 90.410,307.383 94.187,300.269" stroke-width="4.505" stroke="black" fill="none" stroke-linecap="round"></path><path d="M 94.187,300.269 C 97.201,294.593 96.873,294.370 98.981,288.278" stroke-width="4.915" stroke="black" fill="none" stroke-linecap="round"></path><path d="M 98.981,288.278 C 100.469,283.978 100.392,283.925 101.378,279.485" stroke-width="5.540" stroke="black" fill="none" stroke-linecap="round"></path><path d="M 101.378,279.485 C 101.990,276.731 103.165,273.148 102.177,273.889" stroke-width="6.337" stroke="black" fill="none" stroke-linecap="round"></path><path d="M 102.177,273.889 C 99.969,275.546 97.786,278.679 94.986,284.281" stroke-width="7.294" stroke="black" fill="none" stroke-linecap="round"></path><path d="M 94.986,284.281 C 91.794,290.670 92.589,291.076 90.192,297.871" stroke-width="5.410" stroke="black" fill="none" stroke-linecap="round"></path><path d="M 90.192,297.871 C 87.795,304.666 87.373,304.545 85.398,311.461" stroke-width="5.021" stroke="black" fill="none" stroke-linecap="round"></path><path d="M 85.398,311.461 C 83.378,318.534 83.481,318.600 82.202,325.850" stroke-width="4.879" stroke="black" fill="none" stroke-linecap="round"></path><path d="M 82.202,325.850 C 81.084,332.190 80.604,332.252 80.604,338.640" stroke-width="5.044" stroke="black" fill="none" stroke-linecap="round"></path><path d="M 80.604,338.640 C 80.604,344.243 80.789,344.413 82.202,349.832" stroke-width="5.373" stroke="black" fill="none" stroke-linecap="round"></path><path d="M 82.202,349.832 C 83.186,353.606 82.982,354.169 85.398,357.027" stroke-width="5.895" stroke="black" fill="none" stroke-linecap="round"></path><path d="M 85.398,357.027 C 87.376,359.365 88.082,360.030 90.991,360.224" stroke-width="6.323" stroke="black" fill="none" stroke-linecap="round"></path><path d="M 90.991,360.224 C 94.074,360.430 94.698,359.864 97.383,357.826" stroke-width="6.313" stroke="black" fill="none" stroke-linecap="round"></path><path d="M 97.383,357.826 C 106.284,351.071 106.750,351.083 114.162,342.637" stroke-width="4.500" stroke="black" fill="none" stroke-linecap="round"></path><path d="M 114.162,342.637 C 121.132,334.695 120.618,334.123 126.147,325.051" stroke-width="4.500" stroke="black" fill="none" stroke-linecap="round"></path><path d="M 126.147,325.051 C 130.606,317.735 130.686,317.688 134.137,309.862" stroke-width="4.500" stroke="black" fill="none" stroke-linecap="round"></path><path d="M 134.137,309.862 C 136.679,304.098 136.207,303.889 138.132,297.871" stroke-width="4.837" stroke="black" fill="none" stroke-linecap="round"></path><path d="M 138.132,297.871 C 139.403,293.897 138.624,293.452 140.529,289.877" stroke-width="5.994" stroke="black" fill="none" stroke-linecap="round"></path><path d="M 140.529,289.877 C 141.820,287.456 143.379,285.062 144.524,285.880" stroke-width="7.064" stroke="black" fill="none" stroke-linecap="round"></path><path d="M 144.524,285.880 C 146.176,287.060 145.719,289.838 146.122,293.874" stroke-width="7.508" stroke="black" fill="none" stroke-linecap="round"></path><path d="M 146.122,293.874 C 146.518,297.832 146.122,297.871 146.122,301.868" stroke-width="6.481" stroke="black" fill="none" stroke-linecap="round"></path><path d="M 146.122,301.868 C 146.122,306.265 146.122,306.265 146.122,310.661" stroke-width="5.995" stroke="black" fill="none" stroke-linecap="round"></path><path d="M 146.122,310.661 C 146.122,314.658 146.322,314.668 146.122,318.655" stroke-width="6.083" stroke="black" fill="none" stroke-linecap="round"></path><path d="M 146.122,318.655 C 145.922,322.662 145.559,322.644 145.323,326.649" stroke-width="6.103" stroke="black" fill="none" stroke-linecap="round"></path><path d="M 145.323,326.649 C 145.159,329.439 145.323,329.447 145.323,332.245" stroke-width="6.488" stroke="black" fill="none" stroke-linecap="round"></path><path d="M 145.323,332.245 C 145.323,335.443 144.671,338.206 145.323,338.640" stroke-width="7.190" stroke="black" fill="none" stroke-linecap="round"></path><path d="M 145.323,338.640 C 145.870,339.005 146.727,336.330 147.720,333.844" stroke-width="7.589" stroke="black" fill="none" stroke-linecap="round"></path><path d="M 147.720,333.844 C 149.923,328.336 149.545,328.180 151.715,322.652" stroke-width="5.825" stroke="black" fill="none" stroke-linecap="round"></path><path d="M 151.715,322.652 C 153.939,316.989 154.038,317.024 156.509,311.461" stroke-width="5.498" stroke="black" fill="none" stroke-linecap="round"></path><path d="M 156.509,311.461 C 158.832,306.232 158.747,306.184 161.303,301.068" stroke-width="5.320" stroke="black" fill="none" stroke-linecap="round"></path><path d="M 161.303,301.068 C 163.541,296.592 162.864,295.995 166.097,292.275" stroke-width="5.556" stroke="black" fill="none" stroke-linecap="round"></path><path d="M 166.097,292.275 C 170.854,286.802 171.153,286.028 177.283,282.682" stroke-width="6.043" stroke="black" fill="none" stroke-linecap="round"></path><path d="M 177.283,282.682 C 179.942,281.231 180.911,281.453 183.675,282.682" stroke-width="6.383" stroke="black" fill="none" stroke-linecap="round"></path><path d="M 183.675,282.682 C 188.102,284.651 188.504,285.237 191.665,289.077" stroke-width="6.748" stroke="black" fill="none" stroke-linecap="round"></path><path d="M 191.665,289.077 C 194.097,292.032 193.565,292.567 194.861,296.272" stroke-width="6.319" stroke="black" fill="none" stroke-linecap="round"></path><path d="M 194.861,296.272 C 196.362,300.561 196.250,300.626 197.258,305.066" stroke-width="5.990" stroke="black" fill="none" stroke-linecap="round"></path><path d="M 197.258,305.066 C 198.247,309.419 198.225,309.439 198.856,313.859" stroke-width="5.926" stroke="black" fill="none" stroke-linecap="round"></path><path d="M 198.856,313.859 C 199.424,317.832 199.473,317.845 199.655,321.853" stroke-width="6.055" stroke="black" fill="none" stroke-linecap="round"></path><path d="M 199.655,321.853 C 199.873,326.639 198.372,332.088 199.655,331.446" stroke-width="6.699" stroke="black" fill="none" stroke-linecap="round"></path><path d="M 199.655,331.446 C 201.568,330.489 203.239,325.211 206.047,318.655" stroke-width="6.927" stroke="black" fill="none" stroke-linecap="round"></path><path d="M 206.047,318.655 C 208.033,314.019 207.645,313.859 209.243,309.063" stroke-width="5.976" stroke="black" fill="none" stroke-linecap="round"></path><path d="M 209.243,309.063 C 210.841,304.266 210.457,304.097 212.439,299.470" stroke-width="5.825" stroke="black" fill="none" stroke-linecap="round"></path><path d="M 212.439,299.470 C 214.053,295.703 214.320,295.801 216.434,292.275" stroke-width="5.991" stroke="black" fill="none" stroke-linecap="round"></path><path d="M 216.434,292.275 C 217.915,289.806 217.345,287.969 219.630,287.479" stroke-width="6.484" stroke="black" fill="none" stroke-linecap="round"></path><path d="M 219.630,287.479 C 222.938,286.769 224.473,287.568 227.620,289.877" stroke-width="7.298" stroke="black" fill="none" stroke-linecap="round"></path><path d="M 227.620,289.877 C 230.466,291.964 229.801,292.972 231.615,296.272" stroke-width="6.602" stroke="black" fill="none" stroke-linecap="round"></path><path d="M 231.615,296.272 C 234.196,300.966 233.931,301.111 236.410,305.865" stroke-width="5.703" stroke="black" fill="none" stroke-linecap="round"></path><path d="M 236.410,305.865 C 238.725,310.304 238.396,310.538 241.203,314.658" stroke-width="5.675" stroke="black" fill="none" stroke-linecap="round"></path><path d="M 241.203,314.658 C 244.388,319.332 244.078,319.956 248.395,323.452" stroke-width="5.476" stroke="black" fill="none" stroke-linecap="round"></path><path d="M 248.395,323.452 C 252.468,326.751 252.896,326.929 257.983,328.248" stroke-width="5.590" stroke="black" fill="none" stroke-linecap="round"></path><path d="M 257.983,328.248 C 263.682,329.727 264.064,329.704 269.968,329.048" stroke-width="5.365" stroke="black" fill="none" stroke-linecap="round"></path><path d="M 269.968,329.048 C 278.446,328.105 279.157,328.754 286.747,325.051" stroke-width="4.703" stroke="black" fill="none" stroke-linecap="round"></path><path d="M 286.747,325.051 C 295.537,320.760 296.028,320.209 302.727,313.060" stroke-width="4.500" stroke="black" fill="none" stroke-linecap="round"></path><path d="M 302.727,313.060 C 308.013,307.418 308.150,306.745 310.717,299.470" stroke-width="4.550" stroke="black" fill="none" stroke-linecap="round"></path><path d="M 310.717,299.470 C 312.944,293.155 312.760,292.562 312.315,285.880" stroke-width="4.847" stroke="black" fill="none" stroke-linecap="round"></path><path d="M 312.315,285.880 C 311.961,280.571 311.207,280.451 309.119,275.488" stroke-width="5.279" stroke="black" fill="none" stroke-linecap="round"></path><path d="M 309.119,275.488 C 308.011,272.856 307.927,272.696 305.923,270.691" stroke-width="6.212" stroke="black" fill="none" stroke-linecap="round"></path><path d="M 305.923,270.691 C 303.532,268.300 303.437,267.974 300.330,266.694" stroke-width="6.348" stroke="black" fill="none" stroke-linecap="round"></path><path d="M 300.330,266.694 C 296.646,265.177 296.364,265.297 292.340,265.095" stroke-width="6.161" stroke="black" fill="none" stroke-linecap="round"></path><path d="M 292.340,265.095 C 288.374,264.897 288.254,265.046 284.350,265.895" stroke-width="6.127" stroke="black" fill="none" stroke-linecap="round"></path><path d="M 284.350,265.895 C 279.065,267.044 278.651,266.552 273.963,269.092" stroke-width="5.667" stroke="black" fill="none" stroke-linecap="round"></path><path d="M 273.963,269.092 C 269.063,271.748 269.042,272.202 265.174,276.287" stroke-width="5.378" stroke="black" fill="none" stroke-linecap="round"></path><path d="M 265.174,276.287 C 261.851,279.796 261.489,279.889 259.581,284.281" stroke-width="5.612" stroke="black" fill="none" stroke-linecap="round"></path><path d="M 259.581,284.281 C 257.494,289.082 257.791,289.410 257.184,294.673" stroke-width="5.640" stroke="black" fill="none" stroke-linecap="round"></path><path d="M 257.184,294.673 C 256.592,299.802 256.937,299.885 257.184,305.066" stroke-width="5.602" stroke="black" fill="none" stroke-linecap="round"></path><path d="M 257.184,305.066 C 257.336,308.278 257.083,308.402 257.983,311.461" stroke-width="6.218" stroke="black" fill="none" stroke-linecap="round"></path><path d="M 257.983,311.461 C 259.081,315.197 259.032,315.434 261.179,318.655" stroke-width="6.171" stroke="black" fill="none" stroke-linecap="round"></path><path d="M 261.179,318.655 C 263.027,321.430 263.100,321.919 265.973,323.452" stroke-width="6.353" stroke="black" fill="none" stroke-linecap="round"></path><path d="M 265.973,323.452 C 269.093,325.117 269.552,325.195 273.164,325.051" stroke-width="6.301" stroke="black" fill="none" stroke-linecap="round"></path><path d="M 273.164,325.051 C 279.540,324.795 279.918,324.893 285.948,322.652" stroke-width="5.408" stroke="black" fill="none" stroke-linecap="round"></path><path d="M 285.948,322.652 C 293.901,319.697 294.085,319.432 301.129,314.658" stroke-width="4.723" stroke="black" fill="none" stroke-linecap="round"></path><path d="M 301.129,314.658 C 306.470,311.038 306.245,310.563 310.717,305.865" stroke-width="4.980" stroke="black" fill="none" stroke-linecap="round"></path><path d="M 310.717,305.865 C 314.235,302.169 314.584,302.233 317.109,297.871" stroke-width="5.410" stroke="black" fill="none" stroke-linecap="round"></path><path d="M 317.109,297.871 C 318.979,294.639 318.307,294.274 319.506,290.676" stroke-width="5.955" stroke="black" fill="none" stroke-linecap="round"></path><path d="M 319.506,290.676 C 320.305,288.278 322.223,286.360 321.104,285.880" stroke-width="6.610" stroke="black" fill="none" stroke-linecap="round"></path><path d="M 321.104,285.880 C 319.426,285.160 316.707,286.006 313.913,288.278" stroke-width="7.585" stroke="black" fill="none" stroke-linecap="round"></path><path d="M 313.913,288.278 C 310.315,291.202 310.559,291.979 308.320,296.272" stroke-width="6.174" stroke="black" fill="none" stroke-linecap="round"></path><path d="M 308.320,296.272 C 305.765,301.172 305.817,301.331 304.325,306.664" stroke-width="5.640" stroke="black" fill="none" stroke-linecap="round"></path><path d="M 304.325,306.664 C 303.021,311.323 302.727,311.474 302.727,316.257" stroke-width="5.699" stroke="black" fill="none" stroke-linecap="round"></path><path d="M 302.727,316.257 C 302.727,320.267 301.993,321.529 304.325,324.251" stroke-width="5.881" stroke="black" fill="none" stroke-linecap="round"></path><path d="M 304.325,324.251 C 306.787,327.125 308.119,327.043 312.315,327.449" stroke-width="6.025" stroke="black" fill="none" stroke-linecap="round"></path><path d="M 312.315,327.449 C 320.504,328.242 321.134,328.944 329.094,326.649" stroke-width="4.892" stroke="black" fill="none" stroke-linecap="round"></path><path d="M 329.094,326.649 C 344.705,322.149 345.782,322.545 359.456,313.859" stroke-width="4.500" stroke="black" fill="none" stroke-linecap="round"></path><path d="M 359.456,313.859 C 370.951,306.557 370.752,305.309 379.431,294.673" stroke-width="4.500" stroke="black" fill="none" stroke-linecap="round"></path><path d="M 379.431,294.673 C 386.732,285.724 387.694,285.447 391.416,274.688" stroke-width="4.500" stroke="black" fill="none" stroke-linecap="round"></path><path d="M 391.416,274.688 C 394.885,264.662 393.562,263.890 393.813,253.104" stroke-width="4.500" stroke="black" fill="none" stroke-linecap="round"></path><path d="M 393.813,253.104 C 393.962,246.703 393.693,246.560 392.215,240.314" stroke-width="4.703" stroke="black" fill="none" stroke-linecap="round"></path><path d="M 392.215,240.314 C 390.098,231.371 390.037,231.269 386.622,222.727" stroke-width="4.500" stroke="black" fill="none" stroke-linecap="round"></path><path d="M 386.622,222.727 C 383.645,215.281 383.797,215.005 379.431,208.338" stroke-width="4.500" stroke="black" fill="none" stroke-linecap="round"></path><path d="M 379.431,208.338 C 376.206,203.413 376.189,202.711 371.441,199.544" stroke-width="5.018" stroke="black" fill="none" stroke-linecap="round"></path><path d="M 371.441,199.544 C 367.800,197.116 366.905,196.922 362.652,197.146" stroke-width="5.719" stroke="black" fill="none" stroke-linecap="round"></path><path d="M 362.652,197.146 C 359.315,197.322 358.915,198.019 356.260,200.344" stroke-width="6.061" stroke="black" fill="none" stroke-linecap="round"></path><path d="M 356.260,200.344 C 349.327,206.413 349.006,206.492 343.476,213.934" stroke-width="4.703" stroke="black" fill="none" stroke-linecap="round"></path><path d="M 343.476,213.934 C 337.421,222.080 336.688,222.117 333.089,231.520" stroke-width="4.500" stroke="black" fill="none" stroke-linecap="round"></path><path d="M 333.089,231.520 C 329.497,240.903 328.891,241.565 329.094,251.505" stroke-width="4.500" stroke="black" fill="none" stroke-linecap="round"></path><path d="M 329.094,251.505 C 329.290,261.151 328.371,263.213 333.888,270.691" stroke-width="4.500" stroke="black" fill="none" stroke-linecap="round"></path><path d="M 333.888,270.691 C 340.755,280.000 342.453,281.568 353.863,285.080" stroke-width="4.500" stroke="black" fill="none" stroke-linecap="round"></path><path d="M 353.863,285.080 C 373.614,291.161 374.967,288.919 396.210,289.877" stroke-width="4.500" stroke="black" fill="none" stroke-linecap="round"></path><path d="M 396.210,289.877 C 419.312,290.918 419.379,289.305 442.552,289.077" stroke-width="4.500" stroke="black" fill="none" stroke-linecap="round"></path><path d="M 442.552,289.077 C 460.128,288.905 460.187,288.268 477.708,289.077" stroke-width="4.500" stroke="black" fill="none" stroke-linecap="round"></path><path d="M 477.708,289.077 C 486.155,289.467 487.653,288.342 494.487,291.476" stroke-width="4.500" stroke="black" fill="none" stroke-linecap="round"></path><path d="M 494.487,291.476 C 497.241,292.738 498.228,295.181 496.884,297.871" stroke-width="5.323" stroke="black" fill="none" stroke-linecap="round"></path><path d="M 496.884,297.871 C 493.434,304.774 491.699,305.157 484.899,310.661" stroke-width="4.666" stroke="black" fill="none" stroke-linecap="round"></path><path d="M 484.899,310.661 C 447.754,340.730 446.888,339.764 408.994,369.018" stroke-width="4.500" stroke="black" fill="none" stroke-linecap="round"></path><path d="M 408.994,369.018 C 368.187,400.519 368.245,400.594 327.496,432.171" stroke-width="4.500" stroke="black" fill="none" stroke-linecap="round"></path></svg>