<svg xmlns="http://www.w3.org/2000/svg" xmlns:xlink="http://www.w3.org/1999/xlink" viewBox="0 0 576 350" width="576" height="350"><path d="M 217.000,103.000 C 220.000,103.500 220.147,103.049 223.000,104.000" stroke-width="7.998" stroke="black" fill="none" stroke-linecap="round"></path><path d="M 223.000,104.000 C 226.147,105.049 226.129,105.277 229.000,107.000" stroke-width="6.762" stroke="black" fill="none" stroke-linecap="round"></path><path d="M 229.000,107.000 C 233.629,109.777 233.396,110.167 238.000,113.000" stroke-width="5.826" stroke="black" fill="none" stroke-linecap="round"></path><path d="M 238.000,113.000 C 246.396,118.167 246.627,117.795 255.000,123.000" stroke-width="4.500" stroke="black" fill="none" stroke-linecap="round"></path><path d="M 255.000,123.000 C 265.127,129.295 265.119,129.324 275.000,136.000" stroke-width="4.500" stroke="black" fill="none" stroke-linecap="round"></path><path d="M 275.000,136.000 C 283.619,141.824 284.057,141.338 292.000,148.000" stroke-width="4.500" stroke="black" fill="none" stroke-linecap="round"></path><path d="M 292.000,148.000 C 299.557,154.338 299.789,154.377 306.000,162.000" stroke-width="4.500" stroke="black" fill="none" stroke-linecap="round"></path><path d="M 306.000,162.000 C 310.789,167.877 311.573,167.989 314.000,175.000" stroke-width="4.500" stroke="black" fill="none" stroke-linecap="round"></path><path d="M 314.000,175.000 C 316.073,180.989 316.914,182.259 315.000,188.000" stroke-width="4.899" stroke="black" fill="none" stroke-linecap="round"></path><path d="M 315.000,188.000 C 312.914,194.259 311.872,195.558 306.000,199.000" stroke-width="4.805" stroke="black" fill="none" stroke-linecap="round"></path><path d="M 306.000,199.000 C 297.372,204.058 296.193,202.915 286.000,205.000" stroke-width="4.500" stroke="black" fill="none" stroke-linecap="round"></path><path d="M 286.000,205.000 C 274.193,207.415 274.040,206.975 262.000,208.000" stroke-width="4.500" stroke="black" fill="none" stroke-linecap="round"></path><path d="M 262.000,208.000 C 250.540,208.975 250.506,208.755 239.000,209.000" stroke-width="4.500" stroke="black" fill="none" stroke-linecap="round"></path><path d="M 239.000,209.000 C 227.006,209.255 226.705,210.821 215.000,209.000" stroke-width="4.500" stroke="black" fill="none" stroke-linecap="round"></path><path d="M 215.000,209.000 C 204.205,207.321 204.113,206.373 194.000,202.000" stroke-width="4.500" stroke="black" fill="none" stroke-linecap="round"></path><path d="M 194.000,202.000 C 185.613,198.373 184.716,198.910 178.000,193.000" stroke-width="4.500" stroke="black" fill="none" stroke-linecap="round"></path><path d="M 178.000,193.000 C 172.216,187.910 171.387,187.160 169.000,180.000" stroke-width="4.500" stroke="black" fill="none" stroke-linecap="round"></path><path d="M 169.000,180.000 C 166.887,173.660 169.000,173.000 169.000,166.000" stroke-width="4.787" stroke="black" fill="none" stroke-linecap="round"></path><path d="M 169.000,166.000 C 169.000,160.000 167.946,159.797 169.000,154.000" stroke-width="5.031" stroke="black" fill="none" stroke-linecap="round"></path><path d="M 169.000,154.000 C 169.946,148.797 170.601,148.798 173.000,144.000" stroke-width="5.357" stroke="black" fill="none" stroke-linecap="round"></path><path d="M 173.000,144.000 C 175.101,139.798 175.901,140.198 178.000,136.000" stroke-width="5.567" stroke="black" fill="none" stroke-linecap="round"></path><path d="M 178.000,136.000 C 179.901,132.198 179.414,131.965 181.000,128.000" stroke-width="5.856" stroke="black" fill="none" stroke-linecap="round"></path><path d="M 181.000,128.000 C 182.414,124.465 183.161,124.636 184.000,121.000" stroke-width="6.103" stroke="black" fill="none" stroke-linecap="round"></path><path d="M 184.000,121.000 C 184.661,118.136 184.000,118.000 184.000,115.000" stroke-width="6.477" stroke="black" fill="none" stroke-linecap="round"></path><path d="M 184.000,115.000 C 184.000,112.500 185.340,111.723 184.000,110.000" stroke-width="6.739" stroke="black" fill="none" stroke-linecap="round"></path><path d="M 184.000,110.000 C 181.840,107.223 180.703,107.234 177.000,106.000" stroke-width="7.077" stroke="black" fill="none" stroke-linecap="round"></path><path d="M 177.000,106.000 C 174.703,105.234 174.500,106.000 172.000,106.000" stroke-width="6.991" stroke="black" fill="none" stroke-linecap="round"></path><path d="M 172.000,106.000 C 168.500,106.000 168.500,106.000 165.000,106.000" stroke-width="6.548" stroke="black" fill="none" stroke-linecap="round"></path><path d="M 165.000,106.000 C 160.500,106.000 160.405,105.413 156.000,106.000" stroke-width="6.069" stroke="black" fill="none" stroke-linecap="round"></path><path d="M 156.000,106.000 C 152.905,106.413 149.000,108.333 150.000,108.000" stroke-width="6.331" stroke="black" fill="none" stroke-linecap="round"></path><path d="M 150.000,108.000 C 152.000,107.333 156.087,106.237 162.000,104.000" stroke-width="7.151" stroke="black" fill="none" stroke-linecap="round"></path><path d="M 162.000,104.000 C 174.587,99.237 174.264,98.317 187.000,94.000" stroke-width="4.500" stroke="black" fill="none" stroke-linecap="round"></path><path d="M 187.000,94.000 C 203.764,88.317 203.892,88.596 221.000,84.000" stroke-width="4.500" stroke="black" fill="none" stroke-linecap="round"></path><path d="M 221.000,84.000 C 237.392,79.596 237.338,79.124 254.000,76.000" stroke-width="4.500" stroke="black" fill="none" stroke-linecap="round"></path><path d="M 254.000,76.000 C 269.338,73.124 269.448,73.196 285.000,72.000" stroke-width="4.500" stroke="black" fill="none" stroke-linecap="round"></path><path d="M 285.000,72.000 C 295.448,71.196 295.500,72.000 306.000,72.000" stroke-width="4.500" stroke="black" fill="none" stroke-linecap="round"></path><path d="M 306.000,72.000 C 310.500,72.000 312.130,69.913 315.000,72.000" stroke-width="4.998" stroke="black" fill="none" stroke-linecap="round"></path><path d="M 315.000,72.000 C 317.630,73.913 317.904,76.384 317.000,80.000" stroke-width="6.360" stroke="black" fill="none" stroke-linecap="round"></path><path d="M 317.000,80.000 C 315.904,84.384 315.103,85.502 311.000,88.000" stroke-width="6.733" stroke="black" fill="none" stroke-linecap="round"></path><path d="M 311.000,88.000 C 303.603,92.502 302.626,91.412 294.000,94.000" stroke-width="4.883" stroke="black" fill="none" stroke-linecap="round"></path><path d="M 294.000,94.000 C 282.626,97.412 282.580,97.346 271.000,100.000" stroke-width="4.500" stroke="black" fill="none" stroke-linecap="round"></path><path d="M 271.000,100.000 C 258.580,102.846 258.508,102.543 246.000,105.000" stroke-width="4.500" stroke="black" fill="none" stroke-linecap="round"></path><path d="M 246.000,105.000 C 230.508,108.043 230.435,107.693 215.000,111.000" stroke-width="4.500" stroke="black" fill="none" stroke-linecap="round"></path><path d="M 215.000,111.000 C 195.435,115.193 195.292,114.738 176.000,120.000" stroke-width="4.500" stroke="black" fill="none" stroke-linecap="round"></path><path d="M 176.000,120.000 C 156.792,125.238 157.060,126.199 138.000,132.000" stroke-width="4.500" stroke="black" fill="none" stroke-linecap="round"></path><path d="M 138.000,132.000 C 122.560,136.699 122.329,135.989 107.000,141.000" stroke-width="4.500" stroke="black" fill="none" stroke-linecap="round"></path><path d="M 107.000,141.000 C 96.329,144.489 96.384,144.724 86.000,149.000" stroke-width="4.500" stroke="black" fill="none" stroke-linecap="round"></path><path d="M 86.000,149.000 C 79.384,151.724 79.603,152.249 73.000,155.000" stroke-width="4.500" stroke="black" fill="none" stroke-linecap="round"></path><path d="M 73.000,155.000 C 67.603,157.249 67.468,156.917 62.000,159.000" stroke-width="4.978" stroke="black" fill="none" stroke-linecap="round"></path><path d="M 62.000,159.000 C 56.968,160.917 56.930,160.843 52.000,163.000" stroke-width="5.339" stroke="black" fill="none" stroke-linecap="round"></path><path d="M 52.000,163.000 C 48.930,164.343 45.199,165.600 46.000,166.000" stroke-width="6.003" stroke="black" fill="none" stroke-linecap="round"></path><path d="M 46.000,166.000 C 47.199,166.600 50.990,165.295 56.000,165.000" stroke-width="7.439" stroke="black" fill="none" stroke-linecap="round"></path><path d="M 56.000,165.000 C 59.490,164.795 59.676,165.831 63.000,165.000" stroke-width="6.661" stroke="black" fill="none" stroke-linecap="round"></path><path d="M 63.000,165.000 C 67.676,163.831 67.551,163.108 72.000,161.000" stroke-width="5.957" stroke="black" fill="none" stroke-linecap="round"></path><path d="M 72.000,161.000 C 77.051,158.608 77.377,159.082 82.000,156.000" stroke-width="5.577" stroke="black" fill="none" stroke-linecap="round"></path><path d="M 82.000,156.000 C 87.877,152.082 87.724,151.748 93.000,147.000" stroke-width="4.984" stroke="black" fill="none" stroke-linecap="round"></path><path d="M 93.000,147.000 C 97.724,142.748 97.780,142.747 102.000,138.000" stroke-width="5.004" stroke="black" fill="none" stroke-linecap="round"></path><path d="M 102.000,138.000 C 105.780,133.747 105.478,133.483 109.000,129.000" stroke-width="5.266" stroke="black" fill="none" stroke-linecap="round"></path><path d="M 109.000,129.000 C 110.978,126.483 113.192,123.233 113.000,124.000" stroke-width="6.096" stroke="black" fill="none" stroke-linecap="round"></path><path d="M 113.000,124.000 C 112.692,125.233 110.609,128.564 108.000,133.000" stroke-width="7.197" stroke="black" fill="none" stroke-linecap="round"></path><path d="M 108.000,133.000 C 105.609,137.064 105.703,137.139 103.000,141.000" stroke-width="6.149" stroke="black" fill="none" stroke-linecap="round"></path><path d="M 103.000,141.000 C 98.703,147.139 98.533,147.025 94.000,153.000" stroke-width="5.013" stroke="black" fill="none" stroke-linecap="round"></path><path d="M 94.000,153.000 C 87.533,161.525 87.166,161.265 81.000,170.000" stroke-width="4.500" stroke="black" fill="none" stroke-linecap="round"></path><path d="M 81.000,170.000 C 75.166,178.265 76.098,178.962 70.000,187.000" stroke-width="4.500" stroke="black" fill="none" stroke-linecap="round"></path><path d="M 70.000,187.000 C 65.098,193.462 65.126,193.793 59.000,199.000" stroke-width="4.500" stroke="black" fill="none" stroke-linecap="round"></path><path d="M 53.000,150.000 C 54.000,147.500 54.426,147.623 55.000,145.000" stroke-width="7.510" stroke="black" fill="none" stroke-linecap="round"></path><path d="M 55.000,145.000 C 57.926,131.623 56.606,131.200 60.000,118.000" stroke-width="4.500" stroke="black" fill="none" stroke-linecap="round"></path><path d="M 60.000,118.000 C 61.106,113.700 63.730,110.270 64.000,110.000" stroke-width="5.216" stroke="black" fill="none" stroke-linecap="round"></path><path d="M 64.000,110.000 C 64.230,109.770 62.013,113.353 61.000,117.000" stroke-width="6.818" stroke="black" fill="none" stroke-linecap="round"></path><path d="M 61.000,117.000 C 59.513,122.353 60.132,122.527 59.000,128.000" stroke-width="5.783" stroke="black" fill="none" stroke-linecap="round"></path><path d="M 59.000,128.000 C 57.132,137.027 57.585,137.166 55.000,146.000" stroke-width="4.777" stroke="black" fill="none" stroke-linecap="round"></path><path d="M 55.000,146.000 C 51.585,157.666 51.079,157.528 47.000,169.000" stroke-width="4.500" stroke="black" fill="none" stroke-linecap="round"></path><path d="M 47.000,169.000 C 43.079,180.028 43.707,180.331 39.000,191.000" stroke-width="4.500" stroke="black" fill="none" stroke-linecap="round"></path><path d="M 39.000,191.000 C 36.207,197.331 30.912,205.993 32.000,203.000" stroke-width="4.529" stroke="black" fill="none" stroke-linecap="round"></path><path d="M 37.000,112.000 C 36.500,116.000 36.211,115.982 36.000,120.000" stroke-width="7.977" stroke="black" fill="none" stroke-linecap="round"></path><path d="M 36.000,120.000 C 35.711,125.482 36.723,125.575 36.000,131.000" stroke-width="5.922" stroke="black" fill="none" stroke-linecap="round"></path><path d="M 36.000,131.000 C 34.723,140.575 34.457,140.617 32.000,150.000" stroke-width="4.603" stroke="black" fill="none" stroke-linecap="round"></path><path d="M 32.000,150.000 C 28.957,161.617 28.336,161.453 25.000,173.000" stroke-width="4.500" stroke="black" fill="none" stroke-linecap="round"></path></svg>