<svg xmlns="http://www.w3.org/2000/svg" xmlns:xlink="http://www.w3.org/1999/xlink" viewBox="0 0 576 416" width="576" height="416"><path d="M 76.609,67.643 C 78.207,75.237 78.180,75.243 79.805,82.831" stroke-width="8.118" stroke="black" fill="none" stroke-linecap="round"></path><path d="M 79.805,82.831 C 80.577,86.435 80.657,86.417 81.403,90.026" stroke-width="6.736" stroke="black" fill="none" stroke-linecap="round"></path><path d="M 81.403,90.026 C 83.054,98.009 83.109,98.000 84.599,106.014" stroke-width="5.078" stroke="black" fill="none" stroke-linecap="round"></path><path d="M 84.599,106.014 C 86.305,115.187 86.234,115.201 87.795,124.400" stroke-width="4.500" stroke="black" fill="none" stroke-linecap="round"></path><path d="M 87.795,124.400 C 89.829,136.385 89.825,136.386 91.790,148.382" stroke-width="4.500" stroke="black" fill="none" stroke-linecap="round"></path><path d="M 91.790,148.382 C 93.820,160.768 94.065,160.735 95.785,173.164" stroke-width="4.500" stroke="black" fill="none" stroke-linecap="round"></path><path d="M 95.785,173.164 C 97.661,186.715 97.539,186.737 98.981,200.344" stroke-width="4.500" stroke="black" fill="none" stroke-linecap="round"></path><path d="M 98.981,200.344 C 100.335,213.118 100.768,213.107 101.378,225.924" stroke-width="4.500" stroke="black" fill="none" stroke-linecap="round"></path><path d="M 101.378,225.924 C 101.967,238.288 101.378,238.315 101.378,250.706" stroke-width="4.500" stroke="black" fill="none" stroke-linecap="round"></path><path d="M 101.378,250.706 C 101.378,263.097 101.791,263.111 101.378,275.488" stroke-width="4.500" stroke="black" fill="none" stroke-linecap="round"></path><path d="M 101.378,275.488 C 100.992,287.093 100.654,287.085 99.780,298.670" stroke-width="4.500" stroke="black" fill="none" stroke-linecap="round"></path><path d="M 99.780,298.670 C 99.056,308.269 99.722,308.390 98.182,317.856" stroke-width="4.500" stroke="black" fill="none" stroke-linecap="round"></path><path d="M 98.182,317.856 C 96.926,325.578 96.799,325.682 94.187,333.045" stroke-width="4.500" stroke="black" fill="none" stroke-linecap="round"></path><path d="M 94.187,333.045 C 92.404,338.072 92.558,338.497 89.393,342.637" stroke-width="5.152" stroke="black" fill="none" stroke-linecap="round"></path><path d="M 89.393,342.637 C 87.365,345.292 86.687,346.428 83.800,346.634" stroke-width="5.902" stroke="black" fill="none" stroke-linecap="round"></path><path d="M 83.800,346.634 C 81.094,346.828 80.527,345.546 78.207,343.437" stroke-width="6.253" stroke="black" fill="none" stroke-linecap="round"></path><path d="M 78.207,343.437 C 76.132,341.549 76.197,341.250 75.011,338.640" stroke-width="6.503" stroke="black" fill="none" stroke-linecap="round"></path><path d="M 75.011,338.640 C 72.202,332.456 72.513,332.282 70.217,325.850" stroke-width="5.255" stroke="black" fill="none" stroke-linecap="round"></path><path d="M 70.217,325.850 C 66.521,315.494 66.015,315.630 63.026,305.066" stroke-width="4.500" stroke="black" fill="none" stroke-linecap="round"></path><path d="M 63.026,305.066 C 60.022,294.445 60.318,294.333 58.232,283.482" stroke-width="4.500" stroke="black" fill="none" stroke-linecap="round"></path><path d="M 58.232,283.482 C 56.323,273.548 56.496,273.509 55.036,263.496" stroke-width="4.500" stroke="black" fill="none" stroke-linecap="round"></path><path d="M 55.036,263.496 C 53.699,254.323 53.314,254.337 52.639,245.110" stroke-width="4.500" stroke="black" fill="none" stroke-linecap="round"></path><path d="M 52.639,245.110 C 52.116,237.950 52.205,237.887 52.639,230.721" stroke-width="4.614" stroke="black" fill="none" stroke-linecap="round"></path><path d="M 52.639,230.721 C 53.004,224.697 52.837,224.568 54.237,218.730" stroke-width="4.960" stroke="black" fill="none" stroke-linecap="round"></path><path d="M 54.237,218.730 C 55.234,214.575 55.117,214.212 57.433,210.736" stroke-width="5.629" stroke="black" fill="none" stroke-linecap="round"></path><path d="M 57.433,210.736 C 59.112,208.216 59.733,206.427 62.227,206.739" stroke-width="6.265" stroke="black" fill="none" stroke-linecap="round"></path><path d="M 62.227,206.739 C 66.125,207.226 66.805,208.921 70.217,212.335" stroke-width="6.727" stroke="black" fill="none" stroke-linecap="round"></path><path d="M 70.217,212.335 C 75.195,217.315 75.029,217.643 79.006,223.526" stroke-width="5.334" stroke="black" fill="none" stroke-linecap="round"></path><path d="M 79.006,223.526 C 84.217,231.233 83.828,231.504 88.594,239.514" stroke-width="4.500" stroke="black" fill="none" stroke-linecap="round"></path><path d="M 88.594,239.514 C 93.816,248.291 93.517,248.480 98.981,257.101" stroke-width="4.500" stroke="black" fill="none" stroke-linecap="round"></path><path d="M 98.981,257.101 C 103.904,264.868 104.065,264.773 109.368,272.290" stroke-width="4.500" stroke="black" fill="none" stroke-linecap="round"></path><path d="M 109.368,272.290 C 113.653,278.363 113.054,278.971 118.157,284.281" stroke-width="4.580" stroke="black" fill="none" stroke-linecap="round"></path><path d="M 118.157,284.281 C 123.041,289.363 123.291,289.486 129.343,293.074" stroke-width="4.884" stroke="black" fill="none" stroke-linecap="round"></path><path d="M 129.343,293.074 C 134.077,295.881 134.351,296.302 139.730,297.071" stroke-width="5.260" stroke="black" fill="none" stroke-linecap="round"></path><path d="M 139.730,297.071 C 145.537,297.901 146.091,297.848 151.715,296.272" stroke-width="5.270" stroke="black" fill="none" stroke-linecap="round"></path><path d="M 151.715,296.272 C 156.079,295.050 156.223,294.506 159.705,291.476" stroke-width="5.639" stroke="black" fill="none" stroke-linecap="round"></path><path d="M 159.705,291.476 C 165.411,286.511 165.685,286.457 170.092,280.284" stroke-width="4.979" stroke="black" fill="none" stroke-linecap="round"></path><path d="M 170.092,280.284 C 175.673,272.468 175.040,271.974 179.680,263.496" stroke-width="4.500" stroke="black" fill="none" stroke-linecap="round"></path><path d="M 179.680,263.496 C 184.229,255.187 184.899,255.440 188.469,246.709" stroke-width="4.500" stroke="black" fill="none" stroke-linecap="round"></path><path d="M 188.469,246.709 C 192.090,237.854 191.893,237.657 194.062,228.323" stroke-width="4.500" stroke="black" fill="none" stroke-linecap="round"></path><path d="M 194.062,228.323 C 195.888,220.470 195.592,220.363 196.459,212.335" stroke-width="4.500" stroke="black" fill="none" stroke-linecap="round"></path><path d="M 196.459,212.335 C 197.190,205.574 197.484,205.510 197.258,198.745" stroke-width="4.836" stroke="black" fill="none" stroke-linecap="round"></path><path d="M 197.258,198.745 C 197.084,193.519 197.229,193.285 195.660,188.353" stroke-width="5.322" stroke="black" fill="none" stroke-linecap="round"></path><path d="M 195.660,188.353 C 194.433,184.492 194.577,183.655 191.665,181.158" stroke-width="5.821" stroke="black" fill="none" stroke-linecap="round"></path><path d="M 191.665,181.158 C 188.984,178.858 186.774,177.073 184.474,178.760" stroke-width="6.819" stroke="black" fill="none" stroke-linecap="round"></path><path d="M 184.474,178.760 C 180.781,181.469 181.600,184.189 179.680,189.951" stroke-width="6.683" stroke="black" fill="none" stroke-linecap="round"></path><path d="M 179.680,189.951 C 176.806,198.578 177.004,198.678 174.886,207.538" stroke-width="4.853" stroke="black" fill="none" stroke-linecap="round"></path><path d="M 174.886,207.538 C 172.610,217.064 172.468,217.062 170.891,226.724" stroke-width="4.500" stroke="black" fill="none" stroke-linecap="round"></path><path d="M 170.891,226.724 C 169.272,236.648 169.108,236.682 168.494,246.709" stroke-width="4.500" stroke="black" fill="none" stroke-linecap="round"></path><path d="M 168.494,246.709 C 167.910,256.267 168.277,256.307 168.494,265.895" stroke-width="4.500" stroke="black" fill="none" stroke-linecap="round"></path><path d="M 168.494,265.895 C 168.676,273.894 168.198,273.992 169.293,281.883" stroke-width="4.551" stroke="black" fill="none" stroke-linecap="round"></path><path d="M 169.293,281.883 C 170.196,288.381 170.540,288.389 172.489,294.673" stroke-width="4.983" stroke="black" fill="none" stroke-linecap="round"></path><path d="M 172.489,294.673 C 174.136,299.980 173.765,300.305 176.484,305.066" stroke-width="5.206" stroke="black" fill="none" stroke-linecap="round"></path><path d="M 176.484,305.066 C 178.559,308.698 178.607,309.339 182.077,311.461" stroke-width="5.738" stroke="black" fill="none" stroke-linecap="round"></path><path d="M 182.077,311.461 C 185.798,313.736 186.478,313.615 190.866,313.859" stroke-width="5.823" stroke="black" fill="none" stroke-linecap="round"></path><path d="M 190.866,313.859 C 193.669,314.015 193.987,313.722 196.459,312.260" stroke-width="6.414" stroke="black" fill="none" stroke-linecap="round"></path><path d="M 196.459,312.260 C 202.776,308.525 203.143,308.605 208.444,303.467" stroke-width="5.193" stroke="black" fill="none" stroke-linecap="round"></path><path d="M 208.444,303.467 C 215.927,296.215 215.581,295.742 222.027,287.479" stroke-width="4.500" stroke="black" fill="none" stroke-linecap="round"></path><path d="M 222.027,287.479 C 228.365,279.354 228.633,279.461 234.013,270.691" stroke-width="4.500" stroke="black" fill="none" stroke-linecap="round"></path><path d="M 234.013,270.691 C 239.420,261.874 239.140,261.656 243.601,252.305" stroke-width="4.500" stroke="black" fill="none" stroke-linecap="round"></path><path d="M 243.601,252.305 C 247.529,244.069 247.984,244.160 250.792,235.517" stroke-width="4.500" stroke="black" fill="none" stroke-linecap="round"></path><path d="M 250.792,235.517 C 253.178,228.172 252.601,227.960 253.988,220.329" stroke-width="4.587" stroke="black" fill="none" stroke-linecap="round"></path><path d="M 253.988,220.329 C 254.998,214.770 255.993,214.638 255.586,209.137" stroke-width="5.131" stroke="black" fill="none" stroke-linecap="round"></path><path d="M 255.586,209.137 C 255.194,203.846 255.485,201.366 252.390,198.745" stroke-width="6.206" stroke="black" fill="none" stroke-linecap="round"></path><path d="M 252.390,198.745 C 250.292,196.969 247.844,198.226 245.199,200.344" stroke-width="7.281" stroke="black" fill="none" stroke-linecap="round"></path><path d="M 245.199,200.344 C 241.851,203.023 242.420,204.149 240.405,208.338" stroke-width="6.187" stroke="black" fill="none" stroke-linecap="round"></path><path d="M 240.405,208.338 C 237.227,214.941 237.304,215.022 234.811,221.928" stroke-width="5.270" stroke="black" fill="none" stroke-linecap="round"></path><path d="M 234.811,221.928 C 232.110,229.411 232.092,229.435 230.017,237.116" stroke-width="4.714" stroke="black" fill="none" stroke-linecap="round"></path><path d="M 230.017,237.116 C 228.097,244.224 228.031,244.246 226.822,251.505" stroke-width="4.788" stroke="black" fill="none" stroke-linecap="round"></path><path d="M 226.822,251.505 C 225.634,258.636 225.648,258.679 225.223,265.895" stroke-width="4.839" stroke="black" fill="none" stroke-linecap="round"></path><path d="M 225.223,265.895 C 224.849,272.269 225.003,272.298 225.223,278.685" stroke-width="5.043" stroke="black" fill="none" stroke-linecap="round"></path><path d="M 225.223,278.685 C 225.403,283.890 225.320,283.926 226.022,289.077" stroke-width="5.407" stroke="black" fill="none" stroke-linecap="round"></path><path d="M 226.022,289.077 C 226.519,292.720 225.770,293.495 227.620,296.272" stroke-width="5.989" stroke="black" fill="none" stroke-linecap="round"></path><path d="M 227.620,296.272 C 228.966,298.292 230.270,299.574 232.415,298.670" stroke-width="7.117" stroke="black" fill="none" stroke-linecap="round"></path><path d="M 232.415,298.670 C 237.860,296.376 238.151,294.812 242.802,289.877" stroke-width="5.595" stroke="black" fill="none" stroke-linecap="round"></path><path d="M 242.802,289.877 C 251.334,280.822 250.812,280.301 258.782,270.691" stroke-width="4.500" stroke="black" fill="none" stroke-linecap="round"></path><path d="M 258.782,270.691 C 266.392,261.515 266.011,261.170 273.963,252.305" stroke-width="4.500" stroke="black" fill="none" stroke-linecap="round"></path><path d="M 273.963,252.305 C 279.993,245.581 280.030,245.540 286.747,239.514" stroke-width="4.500" stroke="black" fill="none" stroke-linecap="round"></path><path d="M 286.747,239.514 C 291.615,235.147 291.519,234.696 297.134,231.520" stroke-width="4.723" stroke="black" fill="none" stroke-linecap="round"></path><path d="M 297.134,231.520 C 300.707,229.499 301.074,229.599 305.124,229.122" stroke-width="5.572" stroke="black" fill="none" stroke-linecap="round"></path><path d="M 305.124,229.122 C 307.866,228.799 308.667,228.486 310.717,229.922" stroke-width="6.351" stroke="black" fill="none" stroke-linecap="round"></path><path d="M 310.717,229.922 C 312.662,231.284 312.571,232.138 313.114,234.718" stroke-width="7.284" stroke="black" fill="none" stroke-linecap="round"></path><path d="M 313.114,234.718 C 314.169,239.733 314.070,239.920 313.913,245.110" stroke-width="6.098" stroke="black" fill="none" stroke-linecap="round"></path><path d="M 313.913,245.110 C 313.670,253.111 313.134,253.106 312.315,261.098" stroke-width="4.876" stroke="black" fill="none" stroke-linecap="round"></path><path d="M 312.315,261.098 C 311.536,268.695 311.893,268.756 310.717,276.287" stroke-width="4.781" stroke="black" fill="none" stroke-linecap="round"></path><path d="M 310.717,276.287 C 309.895,281.546 309.928,281.620 308.320,286.679" stroke-width="5.282" stroke="black" fill="none" stroke-linecap="round"></path><path d="M 308.320,286.679 C 307.132,290.414 304.811,295.751 305.124,293.874" stroke-width="5.862" stroke="black" fill="none" stroke-linecap="round"></path><path d="M 305.124,293.874 C 306.009,288.557 307.375,282.911 310.717,272.290" stroke-width="6.474" stroke="black" fill="none" stroke-linecap="round"></path><path d="M 310.717,272.290 C 314.166,261.327 314.007,261.178 318.707,250.706" stroke-width="4.500" stroke="black" fill="none" stroke-linecap="round"></path><path d="M 318.707,250.706 C 322.796,241.592 323.470,241.896 328.295,233.119" stroke-width="4.500" stroke="black" fill="none" stroke-linecap="round"></path><path d="M 328.295,233.119 C 332.259,225.908 331.644,225.462 336.285,218.730" stroke-width="4.500" stroke="black" fill="none" stroke-linecap="round"></path><path d="M 336.285,218.730 C 339.634,213.870 340.082,214.132 344.275,209.936" stroke-width="5.090" stroke="black" fill="none" stroke-linecap="round"></path><path d="M 344.275,209.936 C 347.273,206.937 347.031,206.159 350.667,204.341" stroke-width="5.617" stroke="black" fill="none" stroke-linecap="round"></path><path d="M 350.667,204.341 C 353.423,202.962 354.006,203.105 357.059,203.541" stroke-width="6.224" stroke="black" fill="none" stroke-linecap="round"></path><path d="M 357.059,203.541 C 359.599,203.904 360.521,203.867 361.853,205.939" stroke-width="6.645" stroke="black" fill="none" stroke-linecap="round"></path><path d="M 361.853,205.939 C 364.117,209.463 363.769,210.240 364.250,214.733" stroke-width="6.955" stroke="black" fill="none" stroke-linecap="round"></path><path d="M 364.250,214.733 C 364.967,221.432 364.711,221.553 364.250,228.323" stroke-width="5.462" stroke="black" fill="none" stroke-linecap="round"></path><path d="M 364.250,228.323 C 363.513,239.140 363.501,239.185 361.853,249.907" stroke-width="4.500" stroke="black" fill="none" stroke-linecap="round"></path><path d="M 361.853,249.907 C 360.305,259.969 359.735,259.877 357.858,269.892" stroke-width="4.500" stroke="black" fill="none" stroke-linecap="round"></path><path d="M 357.858,269.892 C 356.139,279.062 356.535,279.143 354.662,288.278" stroke-width="4.500" stroke="black" fill="none" stroke-linecap="round"></path><path d="M 354.662,288.278 C 353.339,294.731 352.894,294.637 351.466,301.068" stroke-width="4.755" stroke="black" fill="none" stroke-linecap="round"></path><path d="M 351.466,301.068 C 350.497,305.429 348.355,308.132 349.868,309.862" stroke-width="5.502" stroke="black" fill="none" stroke-linecap="round"></path><path d="M 349.868,309.862 C 351.151,311.329 354.422,309.992 357.059,307.464" stroke-width="6.962" stroke="black" fill="none" stroke-linecap="round"></path><path d="M 357.059,307.464 C 364.010,300.799 362.900,299.352 369.044,291.476" stroke-width="4.711" stroke="black" fill="none" stroke-linecap="round"></path><path d="M 369.044,291.476 C 375.684,282.964 375.959,283.179 382.627,274.688" stroke-width="4.500" stroke="black" fill="none" stroke-linecap="round"></path><path d="M 382.627,274.688 C 389.142,266.391 388.748,266.072 395.411,257.901" stroke-width="4.500" stroke="black" fill="none" stroke-linecap="round"></path><path d="M 395.411,257.901 C 401.132,250.884 401.447,251.144 407.396,244.311" stroke-width="4.500" stroke="black" fill="none" stroke-linecap="round"></path><path d="M 407.396,244.311 C 412.234,238.753 411.800,238.306 416.984,233.119" stroke-width="4.721" stroke="black" fill="none" stroke-linecap="round"></path><path d="M 416.984,233.119 C 420.189,229.912 420.342,229.920 424.175,227.523" stroke-width="5.387" stroke="black" fill="none" stroke-linecap="round"></path><path d="M 424.175,227.523 C 426.734,225.923 428.564,223.520 429.768,225.125" stroke-width="6.785" stroke="black" fill="none" stroke-linecap="round"></path><path d="M 429.768,225.125 C 432.160,228.316 430.802,231.098 431.366,237.116" stroke-width="7.362" stroke="black" fill="none" stroke-linecap="round"></path><path d="M 431.366,237.116 C 432.000,243.889 431.584,243.926 432.165,250.706" stroke-width="5.531" stroke="black" fill="none" stroke-linecap="round"></path><path d="M 432.165,250.706 C 432.782,257.916 432.711,257.938 433.763,265.095" stroke-width="5.044" stroke="black" fill="none" stroke-linecap="round"></path><path d="M 433.763,265.095 C 434.708,271.528 434.232,271.715 436.160,277.886" stroke-width="5.081" stroke="black" fill="none" stroke-linecap="round"></path><path d="M 436.160,277.886 C 438.227,284.505 438.551,284.497 441.753,290.676" stroke-width="5.073" stroke="black" fill="none" stroke-linecap="round"></path><path d="M 441.753,290.676 C 444.144,295.289 443.936,295.631 447.346,299.470" stroke-width="5.417" stroke="black" fill="none" stroke-linecap="round"></path><path d="M 447.346,299.470 C 450.328,302.826 450.529,303.283 454.537,305.066" stroke-width="5.635" stroke="black" fill="none" stroke-linecap="round"></path><path d="M 454.537,305.066 C 457.720,306.481 458.451,306.775 461.728,305.865" stroke-width="6.093" stroke="black" fill="none" stroke-linecap="round"></path><path d="M 461.728,305.865 C 465.642,304.777 466.176,304.344 468.919,301.068" stroke-width="6.004" stroke="black" fill="none" stroke-linecap="round"></path><path d="M 468.919,301.068 C 478.560,289.555 479.624,289.713 486.497,276.287" stroke-width="4.500" stroke="black" fill="none" stroke-linecap="round"></path><path d="M 486.497,276.287 C 496.403,256.937 494.494,255.905 502.477,235.517" stroke-width="4.500" stroke="black" fill="none" stroke-linecap="round"></path><path d="M 502.477,235.517 C 509.675,217.134 510.081,217.281 516.859,198.745" stroke-width="4.500" stroke="black" fill="none" stroke-linecap="round"></path><path d="M 516.859,198.745 C 522.066,184.505 521.489,184.297 526.447,169.966" stroke-width="4.500" stroke="black" fill="none" stroke-linecap="round"></path><path d="M 526.447,169.966 C 528.680,163.513 528.044,162.991 531.241,157.176" stroke-width="4.500" stroke="black" fill="none" stroke-linecap="round"></path><path d="M 531.241,157.176 C 532.439,154.997 533.239,155.577 535.236,153.978" stroke-width="5.785" stroke="black" fill="none" stroke-linecap="round"></path></svg>