<svg xmlns="http://www.w3.org/2000/svg" xmlns:xlink="http://www.w3.org/1999/xlink" viewBox="0 0 576 416" width="576" height="416"><path d="M 393.014,101.009 C 389.019,105.006 389.566,105.973 385.024,109.003" stroke-width="8.836" stroke="black" fill="none" stroke-linecap="round"></path><path d="M 385.024,109.003 C 382.375,110.769 381.864,110.400 378.632,110.602" stroke-width="7.886" stroke="black" fill="none" stroke-linecap="round"></path><path d="M 378.632,110.602 C 375.472,110.799 375.134,109.134 372.240,109.802" stroke-width="8.118" stroke="black" fill="none" stroke-linecap="round"></path><path d="M 372.240,109.802 C 369.941,110.333 370.210,111.362 368.245,113.000" stroke-width="8.370" stroke="black" fill="none" stroke-linecap="round"></path><path d="M 368.245,113.000 C 365.416,115.359 365.365,115.308 362.652,117.796" stroke-width="7.603" stroke="black" fill="none" stroke-linecap="round"></path><path d="M 362.652,117.796 C 360.571,119.705 360.977,120.316 358.657,121.793" stroke-width="7.183" stroke="black" fill="none" stroke-linecap="round"></path><path d="M 358.657,121.793 C 356.582,123.114 356.103,123.766 353.863,123.392" stroke-width="7.628" stroke="black" fill="none" stroke-linecap="round"></path><path d="M 353.863,123.392 C 351.309,122.966 351.657,120.367 349.069,120.194" stroke-width="8.171" stroke="black" fill="none" stroke-linecap="round"></path><path d="M 349.069,120.194 C 345.664,119.967 345.388,121.188 341.878,122.593" stroke-width="7.933" stroke="black" fill="none" stroke-linecap="round"></path><path d="M 341.878,122.593 C 339.395,123.586 339.332,123.559 337.084,124.991" stroke-width="7.137" stroke="black" fill="none" stroke-linecap="round"></path><path d="M 337.084,124.991 C 334.937,126.357 335.233,126.809 333.089,128.188" stroke-width="6.982" stroke="black" fill="none" stroke-linecap="round"></path><path d="M 333.089,128.188 C 329.640,130.406 329.687,130.764 325.898,132.186" stroke-width="7.165" stroke="black" fill="none" stroke-linecap="round"></path><path d="M 325.898,132.186 C 323.295,133.162 323.034,132.302 320.305,132.985" stroke-width="7.930" stroke="black" fill="none" stroke-linecap="round"></path><path d="M 320.305,132.985 C 316.642,133.901 316.556,133.833 313.114,135.383" stroke-width="7.877" stroke="black" fill="none" stroke-linecap="round"></path><path d="M 313.114,135.383 C 308.566,137.430 308.711,137.766 304.325,140.180" stroke-width="7.170" stroke="black" fill="none" stroke-linecap="round"></path><path d="M 293.938,71.431 C 297.533,76.627 296.387,78.434 301.129,81.823" stroke-width="8.392" stroke="black" fill="none" stroke-linecap="round"></path><path d="M 301.129,81.823 C 304.776,84.430 305.898,82.819 310.717,83.422" stroke-width="6.430" stroke="black" fill="none" stroke-linecap="round"></path><path d="M 310.717,83.422 C 315.486,84.018 315.503,84.012 320.305,84.221" stroke-width="5.841" stroke="black" fill="none" stroke-linecap="round"></path><path d="M 320.305,84.221 C 324.691,84.412 324.699,84.221 329.094,84.221" stroke-width="5.905" stroke="black" fill="none" stroke-linecap="round"></path><path d="M 329.094,84.221 C 332.290,84.221 332.348,83.803 335.486,84.221" stroke-width="6.402" stroke="black" fill="none" stroke-linecap="round"></path><path d="M 335.486,84.221 C 338.341,84.602 340.878,84.615 341.079,85.820" stroke-width="7.228" stroke="black" fill="none" stroke-linecap="round"></path><path d="M 341.079,85.820 C 341.277,87.014 338.603,87.309 336.285,89.018" stroke-width="7.526" stroke="black" fill="none" stroke-linecap="round"></path><path d="M 336.285,89.018 C 331.012,92.905 331.216,93.187 325.898,97.012" stroke-width="5.514" stroke="black" fill="none" stroke-linecap="round"></path><path d="M 325.898,97.012 C 318.432,102.380 318.493,102.499 310.717,107.404" stroke-width="4.622" stroke="black" fill="none" stroke-linecap="round"></path><path d="M 310.717,107.404 C 300.116,114.090 300.086,114.084 289.144,120.194" stroke-width="4.500" stroke="black" fill="none" stroke-linecap="round"></path><path d="M 289.144,120.194 C 282.907,123.677 282.752,123.392 276.360,126.590" stroke-width="4.613" stroke="black" fill="none" stroke-linecap="round"></path><path d="M 276.360,126.590 C 272.365,128.588 272.365,128.588 268.370,130.587" stroke-width="5.444" stroke="black" fill="none" stroke-linecap="round"></path><path d="M 268.370,130.587 C 265.973,131.786 265.619,133.394 263.576,132.985" stroke-width="6.353" stroke="black" fill="none" stroke-linecap="round"></path><path d="M 263.576,132.985 C 261.624,132.595 262.436,129.549 260.380,128.988" stroke-width="7.642" stroke="black" fill="none" stroke-linecap="round"></path><path d="M 260.380,128.988 C 258.042,128.350 257.124,129.098 254.787,130.587" stroke-width="8.173" stroke="black" fill="none" stroke-linecap="round"></path><path d="M 254.787,130.587 C 252.730,131.896 253.317,132.700 251.591,134.584" stroke-width="7.252" stroke="black" fill="none" stroke-linecap="round"></path><path d="M 251.591,134.584 C 248.922,137.496 249.221,138.106 245.998,140.180" stroke-width="7.286" stroke="black" fill="none" stroke-linecap="round"></path><path d="M 245.998,140.180 C 243.628,141.704 243.180,141.952 240.405,141.778" stroke-width="7.583" stroke="black" fill="none" stroke-linecap="round"></path><path d="M 240.405,141.778 C 236.788,141.552 236.911,140.085 233.214,139.380" stroke-width="7.396" stroke="black" fill="none" stroke-linecap="round"></path><path d="M 233.214,139.380 C 228.521,138.486 228.390,138.373 223.625,138.581" stroke-width="7.125" stroke="black" fill="none" stroke-linecap="round"></path><path d="M 223.625,138.581 C 219.202,138.773 218.900,138.598 214.836,140.180" stroke-width="7.156" stroke="black" fill="none" stroke-linecap="round"></path><path d="M 236.410,156.168 C 230.816,153.370 230.141,154.261 225.223,150.572" stroke-width="8.070" stroke="black" fill="none" stroke-linecap="round"></path><path d="M 225.223,150.572 C 220.553,147.067 220.781,146.511 217.233,141.778" stroke-width="5.906" stroke="black" fill="none" stroke-linecap="round"></path><path d="M 217.233,141.778 C 213.590,136.918 213.866,136.681 210.841,131.386" stroke-width="5.423" stroke="black" fill="none" stroke-linecap="round"></path><path d="M 210.841,131.386 C 207.473,125.489 207.486,125.470 204.449,119.395" stroke-width="5.121" stroke="black" fill="none" stroke-linecap="round"></path><path d="M 204.449,119.395 C 201.493,113.479 201.897,113.272 198.856,107.404" stroke-width="5.079" stroke="black" fill="none" stroke-linecap="round"></path><path d="M 198.856,107.404 C 196.304,102.480 196.204,102.518 193.263,97.811" stroke-width="5.329" stroke="black" fill="none" stroke-linecap="round"></path><path d="M 193.263,97.811 C 190.211,92.925 189.122,88.444 186.871,88.218" stroke-width="6.202" stroke="black" fill="none" stroke-linecap="round"></path><path d="M 186.871,88.218 C 185.127,88.044 184.788,92.881 185.273,97.012" stroke-width="7.450" stroke="black" fill="none" stroke-linecap="round"></path><path d="M 185.273,97.012 C 185.587,99.676 186.330,99.997 188.469,101.808" stroke-width="6.995" stroke="black" fill="none" stroke-linecap="round"></path><path d="M 188.469,101.808 C 191.523,104.394 191.712,105.446 195.660,105.805" stroke-width="6.224" stroke="black" fill="none" stroke-linecap="round"></path><path d="M 195.660,105.805 C 204.895,106.645 205.488,106.322 214.836,104.206" stroke-width="4.673" stroke="black" fill="none" stroke-linecap="round"></path><path d="M 214.836,104.206 C 239.046,98.728 239.164,98.492 262.777,90.617" stroke-width="4.500" stroke="black" fill="none" stroke-linecap="round"></path><path d="M 262.777,90.617 C 289.501,81.704 289.127,80.581 315.511,70.631" stroke-width="4.500" stroke="black" fill="none" stroke-linecap="round"></path><path d="M 315.511,70.631 C 341.062,60.996 340.880,60.469 366.647,51.446" stroke-width="4.500" stroke="black" fill="none" stroke-linecap="round"></path><path d="M 366.647,51.446 C 388.820,43.681 388.924,43.938 411.391,37.057" stroke-width="4.500" stroke="black" fill="none" stroke-linecap="round"></path><path d="M 411.391,37.057 C 428.075,31.947 428.038,31.694 444.949,27.464" stroke-width="4.500" stroke="black" fill="none" stroke-linecap="round"></path><path d="M 444.949,27.464 C 453.606,25.298 464.715,22.076 462.527,24.266" stroke-width="4.500" stroke="black" fill="none" stroke-linecap="round"></path><path d="M 462.527,24.266 C 458.323,28.472 447.703,33.044 432.165,40.254" stroke-width="4.722" stroke="black" fill="none" stroke-linecap="round"></path><path d="M 432.165,40.254 C 420.137,45.835 419.608,44.634 407.396,49.847" stroke-width="4.500" stroke="black" fill="none" stroke-linecap="round"></path><path d="M 407.396,49.847 C 359.683,70.215 359.498,69.855 312.315,91.416" stroke-width="4.500" stroke="black" fill="none" stroke-linecap="round"></path><path d="M 312.315,91.416 C 276.402,107.827 276.721,108.525 241.203,125.790" stroke-width="4.500" stroke="black" fill="none" stroke-linecap="round"></path><path d="M 241.203,125.790 C 206.009,142.899 205.713,142.326 170.891,160.165" stroke-width="4.500" stroke="black" fill="none" stroke-linecap="round"></path><path d="M 170.891,160.165 C 139.396,176.300 139.514,176.563 108.569,193.740" stroke-width="4.500" stroke="black" fill="none" stroke-linecap="round"></path><path d="M 108.569,193.740 C 81.187,208.939 81.446,209.403 54.237,224.916" stroke-width="4.500" stroke="black" fill="none" stroke-linecap="round"></path><path d="M 54.237,224.916 C 44.292,230.587 44.022,230.133 34.262,236.108" stroke-width="4.500" stroke="black" fill="none" stroke-linecap="round"></path><path d="M 34.262,236.108 C 17.255,246.521 10.341,249.657 0.704,257.692" stroke-width="4.500" stroke="black" fill="none" stroke-linecap="round"></path><path d="M 0.704,257.692 C -1.644,259.649 5.737,257.694 10.292,256.093" stroke-width="5.050" stroke="black" fill="none" stroke-linecap="round"></path><path d="M 10.292,256.093 C 20.519,252.498 20.307,251.758 30.267,247.300" stroke-width="4.500" stroke="black" fill="none" stroke-linecap="round"></path><path d="M 30.267,247.300 C 35.488,244.963 35.461,244.901 40.654,242.503" stroke-width="4.969" stroke="black" fill="none" stroke-linecap="round"></path></svg>