<svg xmlns="http://www.w3.org/2000/svg" xmlns:xlink="http://www.w3.org/1999/xlink" viewBox="0 0 576 416" width="576" height="416"><path d="M 195.660,326.002 C 195.660,319.207 194.652,319.096 195.660,312.412" stroke-width="7.119" stroke="black" fill="none" stroke-linecap="round"></path><path d="M 195.660,312.412 C 197.848,297.912 197.902,297.752 202.052,283.633" stroke-width="4.500" stroke="black" fill="none" stroke-linecap="round"></path><path d="M 202.052,283.633 C 207.889,263.777 207.630,263.550 215.635,244.462" stroke-width="4.500" stroke="black" fill="none" stroke-linecap="round"></path><path d="M 215.635,244.462 C 226.406,218.783 227.053,218.993 239.605,194.100" stroke-width="4.500" stroke="black" fill="none" stroke-linecap="round"></path><path d="M 239.605,194.100 C 249.425,174.626 250.635,175.227 260.380,155.729" stroke-width="4.500" stroke="black" fill="none" stroke-linecap="round"></path><path d="M 260.380,155.729 C 266.216,144.050 265.918,143.874 270.767,131.747" stroke-width="4.500" stroke="black" fill="none" stroke-linecap="round"></path><path d="M 270.767,131.747 C 274.707,121.891 275.344,121.982 277.958,111.762" stroke-width="4.500" stroke="black" fill="none" stroke-linecap="round"></path><path d="M 277.958,111.762 C 279.739,104.795 279.556,104.500 279.556,97.372" stroke-width="4.500" stroke="black" fill="none" stroke-linecap="round"></path><path d="M 279.556,97.372 C 279.556,94.507 279.892,93.550 277.958,91.776" stroke-width="5.697" stroke="black" fill="none" stroke-linecap="round"></path><path d="M 277.958,91.776 C 275.098,89.153 273.922,87.335 269.968,88.579" stroke-width="6.635" stroke="black" fill="none" stroke-linecap="round"></path><path d="M 269.968,88.579 C 245.957,96.129 245.319,97.712 222.027,109.363" stroke-width="4.500" stroke="black" fill="none" stroke-linecap="round"></path><path d="M 222.027,109.363 C 210.962,114.899 211.017,115.325 201.253,122.953" stroke-width="4.500" stroke="black" fill="none" stroke-linecap="round"></path><path d="M 201.253,122.953 C 181.854,138.108 181.302,137.753 163.700,154.929" stroke-width="4.500" stroke="black" fill="none" stroke-linecap="round"></path><path d="M 163.700,154.929 C 148.943,169.330 148.817,169.572 136.534,186.106" stroke-width="4.500" stroke="black" fill="none" stroke-linecap="round"></path><path d="M 136.534,186.106 C 126.844,199.150 127.392,199.703 119.755,214.085" stroke-width="4.500" stroke="black" fill="none" stroke-linecap="round"></path><path d="M 119.755,214.085 C 113.809,225.284 112.970,225.256 109.368,237.268" stroke-width="4.500" stroke="black" fill="none" stroke-linecap="round"></path><path d="M 109.368,237.268 C 106.977,245.241 107.770,245.722 107.770,254.055" stroke-width="4.500" stroke="black" fill="none" stroke-linecap="round"></path><path d="M 107.770,254.055 C 107.770,257.313 106.739,259.398 109.368,260.451" stroke-width="5.474" stroke="black" fill="none" stroke-linecap="round"></path><path d="M 109.368,260.451 C 116.726,263.395 118.635,262.809 127.745,262.049" stroke-width="5.636" stroke="black" fill="none" stroke-linecap="round"></path><path d="M 127.745,262.049 C 142.605,260.810 142.709,260.020 157.308,256.454" stroke-width="4.500" stroke="black" fill="none" stroke-linecap="round"></path><path d="M 157.308,256.454 C 177.066,251.627 177.259,251.935 196.459,245.262" stroke-width="4.500" stroke="black" fill="none" stroke-linecap="round"></path><path d="M 196.459,245.262 C 215.212,238.745 215.210,238.466 233.214,230.073" stroke-width="4.500" stroke="black" fill="none" stroke-linecap="round"></path><path d="M 233.214,230.073 C 250.366,222.078 249.918,221.134 266.772,212.486" stroke-width="4.500" stroke="black" fill="none" stroke-linecap="round"></path><path d="M 266.772,212.486 C 281.079,205.146 280.950,204.849 295.536,198.097" stroke-width="4.500" stroke="black" fill="none" stroke-linecap="round"></path><path d="M 295.536,198.097 C 307.717,192.458 307.703,192.289 320.305,187.705" stroke-width="4.500" stroke="black" fill="none" stroke-linecap="round"></path><path d="M 320.305,187.705 C 329.676,184.295 329.731,183.775 339.481,182.109" stroke-width="4.500" stroke="black" fill="none" stroke-linecap="round"></path><path d="M 339.481,182.109 C 346.110,180.977 346.439,181.162 353.064,182.109" stroke-width="4.500" stroke="black" fill="none" stroke-linecap="round"></path><path d="M 353.064,182.109 C 357.625,182.761 358.897,182.350 361.853,185.307" stroke-width="5.392" stroke="black" fill="none" stroke-linecap="round"></path><path d="M 361.853,185.307 C 364.490,187.945 364.423,189.308 364.250,193.301" stroke-width="5.748" stroke="black" fill="none" stroke-linecap="round"></path><path d="M 364.250,193.301 C 364.024,198.502 363.942,199.273 361.054,203.693" stroke-width="5.470" stroke="black" fill="none" stroke-linecap="round"></path><path d="M 361.054,203.693 C 357.150,209.666 356.047,209.086 350.667,214.085" stroke-width="5.004" stroke="black" fill="none" stroke-linecap="round"></path><path d="M 350.667,214.085 C 339.268,224.675 339.843,225.466 327.496,234.870" stroke-width="4.500" stroke="black" fill="none" stroke-linecap="round"></path><path d="M 327.496,234.870 C 313.077,245.851 312.847,245.785 297.134,254.855" stroke-width="4.500" stroke="black" fill="none" stroke-linecap="round"></path><path d="M 297.134,254.855 C 281.686,263.772 281.548,263.764 265.174,270.843" stroke-width="4.500" stroke="black" fill="none" stroke-linecap="round"></path><path d="M 265.174,270.843 C 249.189,277.753 249.057,277.695 232.415,282.834" stroke-width="4.500" stroke="black" fill="none" stroke-linecap="round"></path><path d="M 232.415,282.834 C 216.697,287.687 216.571,287.514 200.454,290.828" stroke-width="4.500" stroke="black" fill="none" stroke-linecap="round"></path><path d="M 200.454,290.828 C 187.408,293.510 187.331,293.454 174.087,294.825" stroke-width="4.500" stroke="black" fill="none" stroke-linecap="round"></path><path d="M 174.087,294.825 C 164.160,295.852 164.094,295.624 154.112,295.624" stroke-width="4.500" stroke="black" fill="none" stroke-linecap="round"></path><path d="M 154.112,295.624 C 148.513,295.624 143.264,297.524 142.926,294.825" stroke-width="4.742" stroke="black" fill="none" stroke-linecap="round"></path><path d="M 142.926,294.825 C 142.465,291.129 146.666,287.661 152.514,282.834" stroke-width="6.046" stroke="black" fill="none" stroke-linecap="round"></path><path d="M 152.514,282.834 C 162.646,274.471 163.517,275.339 174.886,268.445" stroke-width="4.500" stroke="black" fill="none" stroke-linecap="round"></path><path d="M 174.886,268.445 C 189.884,259.351 189.861,259.274 205.248,250.858" stroke-width="4.500" stroke="black" fill="none" stroke-linecap="round"></path><path d="M 205.248,250.858 C 219.824,242.886 219.990,243.185 234.811,235.669" stroke-width="4.500" stroke="black" fill="none" stroke-linecap="round"></path><path d="M 234.811,235.669 C 249.154,228.396 249.035,228.138 263.576,221.280" stroke-width="4.500" stroke="black" fill="none" stroke-linecap="round"></path><path d="M 263.576,221.280 C 277.000,214.948 277.150,215.264 290.742,209.289" stroke-width="4.500" stroke="black" fill="none" stroke-linecap="round"></path><path d="M 290.742,209.289 C 303.517,203.673 303.541,203.727 316.310,198.097" stroke-width="4.500" stroke="black" fill="none" stroke-linecap="round"></path><path d="M 316.310,198.097 C 327.111,193.335 327.438,193.947 337.883,188.504" stroke-width="4.500" stroke="black" fill="none" stroke-linecap="round"></path><path d="M 337.883,188.504 C 346.614,183.954 346.688,183.874 354.662,178.112" stroke-width="4.500" stroke="black" fill="none" stroke-linecap="round"></path><path d="M 354.662,178.112 C 361.070,173.481 361.607,173.679 366.647,167.720" stroke-width="4.500" stroke="black" fill="none" stroke-linecap="round"></path><path d="M 366.647,167.720 C 370.396,163.286 370.689,162.756 372.240,157.328" stroke-width="4.882" stroke="black" fill="none" stroke-linecap="round"></path><path d="M 372.240,157.328 C 373.086,154.363 372.803,153.659 371.441,150.932" stroke-width="5.985" stroke="black" fill="none" stroke-linecap="round"></path><path d="M 371.441,150.932 C 370.007,148.063 369.622,147.560 366.647,146.136" stroke-width="6.216" stroke="black" fill="none" stroke-linecap="round"></path><path d="M 366.647,146.136 C 360.434,143.163 360.023,143.110 353.064,142.139" stroke-width="5.132" stroke="black" fill="none" stroke-linecap="round"></path><path d="M 353.064,142.139 C 342.845,140.712 342.582,140.452 332.290,141.339" stroke-width="4.500" stroke="black" fill="none" stroke-linecap="round"></path><path d="M 332.290,141.339 C 319.411,142.450 319.346,143.074 306.722,146.136" stroke-width="4.500" stroke="black" fill="none" stroke-linecap="round"></path><path d="M 306.722,146.136 C 292.979,149.469 292.533,148.720 279.556,154.130" stroke-width="4.500" stroke="black" fill="none" stroke-linecap="round"></path><path d="M 279.556,154.130 C 268.563,158.712 268.414,159.112 258.782,166.121" stroke-width="4.500" stroke="black" fill="none" stroke-linecap="round"></path><path d="M 258.782,166.121 C 250.836,171.903 249.893,171.796 244.400,179.711" stroke-width="4.500" stroke="black" fill="none" stroke-linecap="round"></path><path d="M 244.400,179.711 C 239.906,186.185 240.590,187.092 238.806,194.899" stroke-width="4.500" stroke="black" fill="none" stroke-linecap="round"></path><path d="M 238.806,194.899 C 237.394,201.081 236.356,201.908 238.008,207.690" stroke-width="4.885" stroke="black" fill="none" stroke-linecap="round"></path><path d="M 238.008,207.690 C 239.552,213.099 241.113,212.922 245.199,217.283" stroke-width="5.154" stroke="black" fill="none" stroke-linecap="round"></path><path d="M 245.199,217.283 C 253.098,225.713 252.785,226.326 261.978,233.271" stroke-width="4.500" stroke="black" fill="none" stroke-linecap="round"></path><path d="M 261.978,233.271 C 272.360,241.115 272.624,241.212 284.350,246.861" stroke-width="4.500" stroke="black" fill="none" stroke-linecap="round"></path><path d="M 284.350,246.861 C 294.197,251.605 294.493,251.503 305.124,254.055" stroke-width="4.500" stroke="black" fill="none" stroke-linecap="round"></path><path d="M 305.124,254.055 C 314.468,256.299 314.700,256.235 324.300,256.454" stroke-width="4.500" stroke="black" fill="none" stroke-linecap="round"></path><path d="M 324.300,256.454 C 332.278,256.635 332.862,257.329 340.280,254.855" stroke-width="4.500" stroke="black" fill="none" stroke-linecap="round"></path><path d="M 340.280,254.855 C 347.244,252.532 346.990,251.307 353.064,246.861" stroke-width="4.630" stroke="black" fill="none" stroke-linecap="round"></path><path d="M 353.064,246.861 C 363.370,239.316 363.940,239.769 373.039,230.873" stroke-width="4.500" stroke="black" fill="none" stroke-linecap="round"></path><path d="M 373.039,230.873 C 381.518,222.582 381.156,222.061 388.220,212.486" stroke-width="4.500" stroke="black" fill="none" stroke-linecap="round"></path><path d="M 388.220,212.486 C 393.541,205.274 393.190,204.997 397.808,197.298" stroke-width="4.500" stroke="black" fill="none" stroke-linecap="round"></path><path d="M 397.808,197.298 C 401.580,191.008 401.291,190.836 404.999,184.507" stroke-width="4.582" stroke="black" fill="none" stroke-linecap="round"></path><path d="M 404.999,184.507 C 408.082,179.245 408.573,179.496 411.391,174.115" stroke-width="5.023" stroke="black" fill="none" stroke-linecap="round"></path><path d="M 411.391,174.115 C 412.968,171.103 414.764,170.063 413.788,167.720" stroke-width="5.783" stroke="black" fill="none" stroke-linecap="round"></path><path d="M 413.788,167.720 C 412.766,165.267 410.792,165.416 407.396,164.522" stroke-width="7.092" stroke="black" fill="none" stroke-linecap="round"></path><path d="M 407.396,164.522 C 403.202,163.418 402.975,164.326 398.607,163.723" stroke-width="6.232" stroke="black" fill="none" stroke-linecap="round"></path><path d="M 398.607,163.723 C 391.390,162.727 391.320,162.928 384.225,161.324" stroke-width="5.082" stroke="black" fill="none" stroke-linecap="round"></path><path d="M 384.225,161.324 C 378.936,160.130 377.349,161.138 373.838,158.127" stroke-width="6.126" stroke="black" fill="none" stroke-linecap="round"></path><path d="M 373.838,158.127 C 371.756,156.341 371.649,154.203 373.039,151.732" stroke-width="7.045" stroke="black" fill="none" stroke-linecap="round"></path><path d="M 373.039,151.732 C 375.245,147.808 376.803,148.205 381.029,145.336" stroke-width="5.879" stroke="black" fill="none" stroke-linecap="round"></path><path d="M 381.029,145.336 C 387.989,140.611 387.963,140.455 395.411,136.543" stroke-width="4.959" stroke="black" fill="none" stroke-linecap="round"></path><path d="M 395.411,136.543 C 403.943,132.061 404.185,132.513 412.989,128.549" stroke-width="4.500" stroke="black" fill="none" stroke-linecap="round"></path><path d="M 412.989,128.549 C 420.165,125.318 420.128,125.228 427.371,122.154" stroke-width="4.500" stroke="black" fill="none" stroke-linecap="round"></path><path d="M 427.371,122.154 C 433.311,119.632 433.315,119.624 439.356,117.357" stroke-width="4.826" stroke="black" fill="none" stroke-linecap="round"></path><path d="M 439.356,117.357 C 442.903,116.026 447.241,113.848 446.547,114.959" stroke-width="5.656" stroke="black" fill="none" stroke-linecap="round"></path><path d="M 446.547,114.959 C 445.244,117.045 441.107,119.561 435.361,123.753" stroke-width="6.538" stroke="black" fill="none" stroke-linecap="round"></path><path d="M 435.361,123.753 C 421.931,133.550 421.655,133.175 408.195,142.938" stroke-width="4.500" stroke="black" fill="none" stroke-linecap="round"></path><path d="M 408.195,142.938 C 389.695,156.358 388.967,155.505 371.441,170.118" stroke-width="4.500" stroke="black" fill="none" stroke-linecap="round"></path><path d="M 371.441,170.118 C 353.012,185.483 353.366,186.003 336.285,202.894" stroke-width="4.500" stroke="black" fill="none" stroke-linecap="round"></path><path d="M 336.285,202.894 C 319.008,219.977 319.381,220.363 302.727,238.067" stroke-width="4.500" stroke="black" fill="none" stroke-linecap="round"></path><path d="M 302.727,238.067 C 287.421,254.338 287.386,254.311 272.365,270.843" stroke-width="4.500" stroke="black" fill="none" stroke-linecap="round"></path><path d="M 272.365,270.843 C 259.421,285.088 259.422,285.095 246.797,299.621" stroke-width="4.500" stroke="black" fill="none" stroke-linecap="round"></path><path d="M 246.797,299.621 C 235.452,312.674 235.582,312.788 224.425,326.002" stroke-width="4.500" stroke="black" fill="none" stroke-linecap="round"></path><path d="M 224.425,326.002 C 216.007,335.970 215.611,335.673 207.645,345.987" stroke-width="4.500" stroke="black" fill="none" stroke-linecap="round"></path><path d="M 207.645,345.987 C 202.028,353.260 201.179,353.069 197.258,361.175" stroke-width="4.500" stroke="black" fill="none" stroke-linecap="round"></path><path d="M 197.258,361.175 C 195.186,365.460 194.875,366.578 195.660,370.768" stroke-width="4.958" stroke="black" fill="none" stroke-linecap="round"></path><path d="M 195.660,370.768 C 196.074,372.973 197.277,373.966 199.655,373.966" stroke-width="6.667" stroke="black" fill="none" stroke-linecap="round"></path><path d="M 199.655,373.966 C 206.865,373.966 207.546,373.327 214.836,370.768" stroke-width="5.161" stroke="black" fill="none" stroke-linecap="round"></path><path d="M 214.836,370.768 C 230.318,365.333 230.524,365.401 245.199,357.978" stroke-width="4.500" stroke="black" fill="none" stroke-linecap="round"></path><path d="M 245.199,357.978 C 266.080,347.414 266.044,347.149 285.948,334.795" stroke-width="4.500" stroke="black" fill="none" stroke-linecap="round"></path><path d="M 285.948,334.795 C 309.190,320.369 309.192,320.274 331.491,304.418" stroke-width="4.500" stroke="black" fill="none" stroke-linecap="round"></path><path d="M 331.491,304.418 C 357.532,285.900 357.413,285.688 382.627,266.046" stroke-width="4.500" stroke="black" fill="none" stroke-linecap="round"></path><path d="M 382.627,266.046 C 409.748,244.918 409.256,244.290 436.160,222.879" stroke-width="4.500" stroke="black" fill="none" stroke-linecap="round"></path><path d="M 436.160,222.879 C 461.990,202.321 461.404,201.491 488.095,182.109" stroke-width="4.500" stroke="black" fill="none" stroke-linecap="round"></path><path d="M 488.095,182.109 C 510.942,165.518 511.416,166.122 535.236,150.932" stroke-width="4.500" stroke="black" fill="none" stroke-linecap="round"></path><path d="M 535.236,150.932 C 547.770,142.939 566.848,131.746 560.804,135.744" stroke-width="4.500" stroke="black" fill="none" stroke-linecap="round"></path></svg>