<svg xmlns="http://www.w3.org/2000/svg" xmlns:xlink="http://www.w3.org/1999/xlink" viewBox="0 0 576 416" width="576" height="416"><path d="M 475.311,142.713 C 466.522,144.711 466.424,144.360 457.733,146.710" stroke-width="7.498" stroke="black" fill="none" stroke-linecap="round"></path><path d="M 457.733,146.710 C 451.642,148.357 451.667,148.513 445.748,150.707" stroke-width="6.076" stroke="black" fill="none" stroke-linecap="round"></path><path d="M 445.748,150.707 C 440.881,152.510 440.549,152.031 436.160,154.704" stroke-width="5.629" stroke="black" fill="none" stroke-linecap="round"></path><path d="M 436.160,154.704 C 431.361,157.626 428.864,157.915 427.371,161.898" stroke-width="5.776" stroke="black" fill="none" stroke-linecap="round"></path><path d="M 427.371,161.898 C 426.467,164.310 428.546,165.927 431.366,167.494" stroke-width="6.853" stroke="black" fill="none" stroke-linecap="round"></path><path d="M 431.366,167.494 C 435.737,169.924 436.503,169.017 441.753,169.892" stroke-width="5.966" stroke="black" fill="none" stroke-linecap="round"></path><path d="M 441.753,169.892 C 448.488,171.016 448.530,170.853 455.336,171.491" stroke-width="5.246" stroke="black" fill="none" stroke-linecap="round"></path><path d="M 455.336,171.491 C 461.314,172.052 461.335,171.811 467.321,172.291" stroke-width="5.265" stroke="black" fill="none" stroke-linecap="round"></path><path d="M 467.321,172.291 C 471.323,172.611 477.752,172.479 475.311,173.090" stroke-width="5.831" stroke="black" fill="none" stroke-linecap="round"></path><path d="M 475.311,173.090 C 464.968,175.677 458.571,176.141 441.753,178.686" stroke-width="5.521" stroke="black" fill="none" stroke-linecap="round"></path><path d="M 441.753,178.686 C 411.030,183.335 410.974,182.968 380.230,187.479" stroke-width="4.500" stroke="black" fill="none" stroke-linecap="round"></path><path d="M 380.230,187.479 C 351.049,191.761 350.984,191.389 321.903,196.273" stroke-width="4.500" stroke="black" fill="none" stroke-linecap="round"></path><path d="M 321.903,196.273 C 293.856,200.982 293.800,200.814 265.973,206.665" stroke-width="4.500" stroke="black" fill="none" stroke-linecap="round"></path><path d="M 265.973,206.665 C 238.669,212.406 238.847,213.240 211.640,219.455" stroke-width="4.500" stroke="black" fill="none" stroke-linecap="round"></path><path d="M 211.640,219.455 C 188.111,224.831 188.121,224.896 164.499,229.848" stroke-width="4.500" stroke="black" fill="none" stroke-linecap="round"></path><path d="M 164.499,229.848 C 146.173,233.689 146.189,233.844 127.745,237.042" stroke-width="4.500" stroke="black" fill="none" stroke-linecap="round"></path><path d="M 127.745,237.042 C 116.226,239.040 116.195,239.158 104.574,240.240" stroke-width="4.500" stroke="black" fill="none" stroke-linecap="round"></path><path d="M 104.574,240.240 C 99.017,240.757 92.891,241.899 93.388,240.240" stroke-width="4.572" stroke="black" fill="none" stroke-linecap="round"></path><path d="M 93.388,240.240 C 94.089,237.902 99.734,235.274 106.971,232.246" stroke-width="5.972" stroke="black" fill="none" stroke-linecap="round"></path><path d="M 106.971,232.246 C 121.707,226.081 122.005,226.572 137.333,221.854" stroke-width="4.500" stroke="black" fill="none" stroke-linecap="round"></path><path d="M 137.333,221.854 C 153.166,216.980 153.140,216.652 169.293,213.060" stroke-width="4.500" stroke="black" fill="none" stroke-linecap="round"></path><path d="M 169.293,213.060 C 181.904,210.256 182.046,210.823 194.861,209.063" stroke-width="4.500" stroke="black" fill="none" stroke-linecap="round"></path><path d="M 194.861,209.063 C 202.421,208.025 202.440,208.028 210.042,207.464" stroke-width="4.500" stroke="black" fill="none" stroke-linecap="round"></path><path d="M 210.042,207.464 C 213.226,207.228 216.434,206.547 216.434,207.464" stroke-width="5.637" stroke="black" fill="none" stroke-linecap="round"></path><path d="M 216.434,207.464 C 216.434,208.546 213.365,209.701 210.042,211.461" stroke-width="7.018" stroke="black" fill="none" stroke-linecap="round"></path><path d="M 210.042,211.461 C 206.574,213.299 206.527,213.280 202.851,214.659" stroke-width="6.298" stroke="black" fill="none" stroke-linecap="round"></path><path d="M 202.851,214.659 C 200.135,215.678 200.015,215.338 197.258,216.258" stroke-width="6.642" stroke="black" fill="none" stroke-linecap="round"></path></svg>