<svg xmlns="http://www.w3.org/2000/svg" xmlns:xlink="http://www.w3.org/1999/xlink" viewBox="0 0 576 416" width="576" height="416"><path d="M 371.441,107.613 C 371.041,112.010 370.642,112.016 370.642,116.406" stroke-width="8.569" stroke="black" fill="none" stroke-linecap="round"></path><path d="M 370.642,116.406 C 370.642,119.611 370.848,119.640 371.441,122.802" stroke-width="7.029" stroke="black" fill="none" stroke-linecap="round"></path><path d="M 371.441,122.802 C 372.047,126.035 372.284,125.989 373.039,129.197" stroke-width="6.639" stroke="black" fill="none" stroke-linecap="round"></path><path d="M 373.039,129.197 C 373.882,132.784 374.032,132.762 374.637,136.391" stroke-width="6.382" stroke="black" fill="none" stroke-linecap="round"></path><path d="M 374.637,136.391 C 375.231,139.956 375.436,139.980 375.436,143.586" stroke-width="6.333" stroke="black" fill="none" stroke-linecap="round"></path><path d="M 375.436,143.586 C 375.436,149.573 375.697,149.740 374.637,155.577" stroke-width="6.551" stroke="black" fill="none" stroke-linecap="round"></path><path d="M 374.637,155.577 C 374.099,158.534 373.759,158.567 372.240,161.173" stroke-width="6.604" stroke="black" fill="none" stroke-linecap="round"></path><path d="M 372.240,161.173 C 370.962,163.363 370.842,163.371 369.044,165.170" stroke-width="6.820" stroke="black" fill="none" stroke-linecap="round"></path><path d="M 369.044,165.170 C 367.246,166.968 367.283,167.175 365.049,168.367" stroke-width="6.888" stroke="black" fill="none" stroke-linecap="round"></path><path d="M 365.049,168.367 C 361.291,170.373 361.159,170.359 357.059,171.565" stroke-width="7.091" stroke="black" fill="none" stroke-linecap="round"></path><path d="M 357.059,171.565 C 354.367,172.357 354.179,171.641 351.466,172.365" stroke-width="7.518" stroke="black" fill="none" stroke-linecap="round"></path><path d="M 351.466,172.365 C 348.187,173.239 348.288,173.614 345.074,174.763" stroke-width="8.278" stroke="black" fill="none" stroke-linecap="round"></path><path d="M 345.074,174.763 C 342.695,175.613 342.677,175.562 340.280,176.362" stroke-width="7.292" stroke="black" fill="none" stroke-linecap="round"></path><path d="M 340.280,176.362 C 337.883,177.161 337.883,177.161 335.486,177.960" stroke-width="7.040" stroke="black" fill="none" stroke-linecap="round"></path><path d="M 335.486,177.960 C 333.089,178.760 333.071,178.709 330.692,179.559" stroke-width="7.031" stroke="black" fill="none" stroke-linecap="round"></path><path d="M 330.692,179.559 C 327.478,180.708 326.267,182.832 324.300,181.957" stroke-width="7.324" stroke="black" fill="none" stroke-linecap="round"></path><path d="M 324.300,181.957 C 322.671,181.233 323.091,179.028 323.501,176.362" stroke-width="8.127" stroke="black" fill="none" stroke-linecap="round"></path><path d="M 323.501,176.362 C 323.890,173.832 326.497,173.364 325.898,171.565" stroke-width="7.877" stroke="black" fill="none" stroke-linecap="round"></path><path d="M 325.898,171.565 C 325.299,169.767 323.571,169.373 321.104,169.167" stroke-width="8.410" stroke="black" fill="none" stroke-linecap="round"></path><path d="M 321.104,169.167 C 318.777,168.973 318.783,170.436 316.310,170.766" stroke-width="8.381" stroke="black" fill="none" stroke-linecap="round"></path><path d="M 316.310,170.766 C 312.790,171.235 312.487,169.803 309.119,170.766" stroke-width="8.588" stroke="black" fill="none" stroke-linecap="round"></path><path d="M 309.119,170.766 C 304.097,172.201 304.391,173.305 299.531,175.562" stroke-width="6.067" stroke="black" fill="none" stroke-linecap="round"></path><path d="M 299.531,175.562 C 293.205,178.501 293.139,178.360 286.747,181.158" stroke-width="5.127" stroke="black" fill="none" stroke-linecap="round"></path><path d="M 286.747,181.158 C 280.355,183.956 280.385,184.028 273.963,186.754" stroke-width="4.996" stroke="black" fill="none" stroke-linecap="round"></path><path d="M 273.963,186.754 C 267.202,189.624 267.261,189.792 260.380,192.350" stroke-width="4.779" stroke="black" fill="none" stroke-linecap="round"></path><path d="M 260.380,192.350 C 253.278,194.989 253.273,195.066 245.998,197.146" stroke-width="4.764" stroke="black" fill="none" stroke-linecap="round"></path><path d="M 245.998,197.146 C 242.087,198.264 241.997,197.919 238.008,198.745" stroke-width="5.544" stroke="black" fill="none" stroke-linecap="round"></path><path d="M 238.008,198.745 C 230.412,200.317 230.440,200.461 222.826,201.942" stroke-width="4.929" stroke="black" fill="none" stroke-linecap="round"></path><path d="M 222.826,201.942 C 216.058,203.259 216.032,203.128 209.243,204.341" stroke-width="4.957" stroke="black" fill="none" stroke-linecap="round"></path><path d="M 209.243,204.341 C 204.846,205.126 198.538,206.278 200.454,205.939" stroke-width="5.581" stroke="black" fill="none" stroke-linecap="round"></path><path d="M 347.471,248.308 C 341.079,249.907 341.176,250.551 334.687,251.505" stroke-width="8.026" stroke="black" fill="none" stroke-linecap="round"></path><path d="M 334.687,251.505 C 327.593,252.549 327.498,252.305 320.305,252.305" stroke-width="5.637" stroke="black" fill="none" stroke-linecap="round"></path><path d="M 320.305,252.305 C 311.119,252.305 311.120,251.747 301.928,251.505" stroke-width="4.648" stroke="black" fill="none" stroke-linecap="round"></path><path d="M 301.928,251.505 C 295.939,251.348 295.935,251.505 289.943,251.505" stroke-width="5.072" stroke="black" fill="none" stroke-linecap="round"></path><path d="M 334.687,121.203 C 326.697,124.400 326.795,124.676 318.707,127.598" stroke-width="7.768" stroke="black" fill="none" stroke-linecap="round"></path><path d="M 318.707,127.598 C 312.413,129.872 312.360,129.755 305.923,131.595" stroke-width="5.628" stroke="black" fill="none" stroke-linecap="round"></path><path d="M 305.923,131.595 C 298.378,133.752 298.325,133.569 290.742,135.592" stroke-width="5.027" stroke="black" fill="none" stroke-linecap="round"></path><path d="M 290.742,135.592 C 286.340,136.766 286.347,136.791 281.953,137.990" stroke-width="5.582" stroke="black" fill="none" stroke-linecap="round"></path><path d="M 257.184,181.158 C 253.189,179.559 253.124,179.708 249.194,177.960" stroke-width="8.589" stroke="black" fill="none" stroke-linecap="round"></path><path d="M 249.194,177.960 C 242.337,174.912 242.282,174.998 235.611,171.565" stroke-width="5.513" stroke="black" fill="none" stroke-linecap="round"></path><path d="M 235.611,171.565 C 228.299,167.803 228.007,168.165 221.228,163.571" stroke-width="4.820" stroke="black" fill="none" stroke-linecap="round"></path><path d="M 221.228,163.571 C 215.622,159.771 215.975,159.243 210.841,154.778" stroke-width="4.943" stroke="black" fill="none" stroke-linecap="round"></path><path d="M 210.841,154.778 C 206.786,151.249 206.374,151.577 202.851,147.583" stroke-width="5.329" stroke="black" fill="none" stroke-linecap="round"></path><path d="M 202.851,147.583 C 200.381,144.782 199.463,144.624 198.856,141.188" stroke-width="5.932" stroke="black" fill="none" stroke-linecap="round"></path><path d="M 198.856,141.188 C 198.264,137.829 197.923,135.930 200.454,133.993" stroke-width="6.837" stroke="black" fill="none" stroke-linecap="round"></path><path d="M 200.454,133.993 C 204.715,130.734 206.338,131.835 212.439,130.796" stroke-width="5.605" stroke="black" fill="none" stroke-linecap="round"></path><path d="M 212.439,130.796 C 225.114,128.637 225.169,128.466 238.008,127.598" stroke-width="4.500" stroke="black" fill="none" stroke-linecap="round"></path><path d="M 238.008,127.598 C 254.732,126.467 254.785,126.798 271.566,126.798" stroke-width="4.500" stroke="black" fill="none" stroke-linecap="round"></path><path d="M 271.566,126.798 C 294.336,126.798 294.355,126.794 317.109,127.598" stroke-width="4.500" stroke="black" fill="none" stroke-linecap="round"></path><path d="M 317.109,127.598 C 328.313,127.994 328.349,127.959 339.481,129.197" stroke-width="4.500" stroke="black" fill="none" stroke-linecap="round"></path><path d="M 339.481,129.197 C 346.326,129.958 346.583,129.621 353.064,131.595" stroke-width="4.500" stroke="black" fill="none" stroke-linecap="round"></path><path d="M 353.064,131.595 C 355.771,132.419 359.593,133.966 357.858,134.793" stroke-width="5.805" stroke="black" fill="none" stroke-linecap="round"></path><path d="M 357.858,134.793 C 351.203,137.963 347.138,137.527 336.285,139.589" stroke-width="5.600" stroke="black" fill="none" stroke-linecap="round"></path><path d="M 336.285,139.589 C 315.577,143.523 315.537,143.347 294.737,146.784" stroke-width="4.500" stroke="black" fill="none" stroke-linecap="round"></path><path d="M 294.737,146.784 C 271.992,150.542 271.908,150.053 249.194,153.978" stroke-width="4.500" stroke="black" fill="none" stroke-linecap="round"></path><path d="M 249.194,153.978 C 227.963,157.647 227.786,157.005 206.846,161.972" stroke-width="4.500" stroke="black" fill="none" stroke-linecap="round"></path><path d="M 206.846,161.972 C 189.034,166.198 189.268,167.168 171.690,172.365" stroke-width="4.500" stroke="black" fill="none" stroke-linecap="round"></path><path d="M 231.615,207.538 C 232.015,201.143 233.096,201.050 232.415,194.748" stroke-width="8.050" stroke="black" fill="none" stroke-linecap="round"></path><path d="M 232.415,194.748 C 231.498,186.261 231.651,185.897 228.419,177.960" stroke-width="5.155" stroke="black" fill="none" stroke-linecap="round"></path><path d="M 228.419,177.960 C 222.862,164.313 223.137,163.761 214.836,151.580" stroke-width="4.500" stroke="black" fill="none" stroke-linecap="round"></path><path d="M 214.836,151.580 C 205.160,137.380 204.556,137.499 192.464,125.200" stroke-width="4.500" stroke="black" fill="none" stroke-linecap="round"></path><path d="M 192.464,125.200 C 180.586,113.117 179.747,113.931 166.896,102.816" stroke-width="4.500" stroke="black" fill="none" stroke-linecap="round"></path><path d="M 166.896,102.816 C 156.177,93.546 155.675,94.081 145.323,84.430" stroke-width="4.500" stroke="black" fill="none" stroke-linecap="round"></path><path d="M 145.323,84.430 C 138.097,77.693 137.232,78.032 131.740,70.041" stroke-width="4.500" stroke="black" fill="none" stroke-linecap="round"></path><path d="M 131.740,70.041 C 128.443,65.242 124.014,61.442 127.745,58.849" stroke-width="4.687" stroke="black" fill="none" stroke-linecap="round"></path><path d="M 127.745,58.849 C 138.396,51.449 143.778,52.205 160.504,50.056" stroke-width="4.558" stroke="black" fill="none" stroke-linecap="round"></path><path d="M 160.504,50.056 C 187.323,46.609 187.683,47.298 214.836,47.658" stroke-width="4.500" stroke="black" fill="none" stroke-linecap="round"></path><path d="M 214.836,47.658 C 248.008,48.097 248.265,47.568 281.154,51.655" stroke-width="4.500" stroke="black" fill="none" stroke-linecap="round"></path><path d="M 281.154,51.655 C 309.389,55.163 309.814,54.954 337.084,62.846" stroke-width="4.500" stroke="black" fill="none" stroke-linecap="round"></path><path d="M 337.084,62.846 C 358.154,68.944 359.842,67.958 377.833,79.634" stroke-width="4.500" stroke="black" fill="none" stroke-linecap="round"></path><path d="M 377.833,79.634 C 389.405,87.144 393.540,89.095 396.210,101.218" stroke-width="4.500" stroke="black" fill="none" stroke-linecap="round"></path><path d="M 396.210,101.218 C 398.734,112.678 396.715,117.512 388.220,126.798" stroke-width="4.500" stroke="black" fill="none" stroke-linecap="round"></path><path d="M 388.220,126.798 C 375.142,141.094 371.739,139.778 353.064,148.382" stroke-width="4.500" stroke="black" fill="none" stroke-linecap="round"></path><path d="M 353.064,148.382 C 311.015,167.757 310.177,166.251 266.772,182.757" stroke-width="4.500" stroke="black" fill="none" stroke-linecap="round"></path><path d="M 266.772,182.757 C 221.887,199.825 221.628,199.144 176.484,215.532" stroke-width="4.500" stroke="black" fill="none" stroke-linecap="round"></path></svg>