<svg xmlns="http://www.w3.org/2000/svg" xmlns:xlink="http://www.w3.org/1999/xlink" viewBox="0 0 576 416" width="576" height="416"><path d="M 27.071,167.568 C 28.270,174.363 28.680,174.327 29.468,181.158" stroke-width="8.329" stroke="black" fill="none" stroke-linecap="round"></path><path d="M 29.468,181.158 C 29.879,184.719 29.269,184.766 29.468,188.353" stroke-width="6.816" stroke="black" fill="none" stroke-linecap="round"></path><path d="M 29.468,188.353 C 29.669,191.961 30.067,191.939 30.267,195.547" stroke-width="6.455" stroke="black" fill="none" stroke-linecap="round"></path><path d="M 30.267,195.547 C 30.466,199.134 30.078,199.154 30.267,202.742" stroke-width="6.363" stroke="black" fill="none" stroke-linecap="round"></path><path d="M 30.267,202.742 C 30.478,206.748 30.899,206.727 31.066,210.736" stroke-width="6.185" stroke="black" fill="none" stroke-linecap="round"></path><path d="M 31.066,210.736 C 31.299,216.320 31.066,216.332 31.066,221.928" stroke-width="6.584" stroke="black" fill="none" stroke-linecap="round"></path><path d="M 31.066,221.928 C 31.066,225.125 31.066,229.195 31.066,228.323" stroke-width="7.270" stroke="black" fill="none" stroke-linecap="round"></path><path d="M 31.066,228.323 C 31.066,226.797 31.299,222.715 31.066,217.131" stroke-width="7.728" stroke="black" fill="none" stroke-linecap="round"></path><path d="M 31.066,217.131 C 30.899,213.122 30.467,213.144 30.267,209.137" stroke-width="6.521" stroke="black" fill="none" stroke-linecap="round"></path><path d="M 30.267,209.137 C 30.068,205.150 30.267,205.140 30.267,201.143" stroke-width="6.236" stroke="black" fill="none" stroke-linecap="round"></path><path d="M 30.267,201.143 C 30.267,197.146 30.477,197.134 30.267,193.149" stroke-width="6.233" stroke="black" fill="none" stroke-linecap="round"></path><path d="M 30.267,193.149 C 30.077,189.540 29.680,189.562 29.468,185.954" stroke-width="6.208" stroke="black" fill="none" stroke-linecap="round"></path><path d="M 29.468,185.954 C 29.281,182.767 29.468,182.757 29.468,179.559" stroke-width="6.436" stroke="black" fill="none" stroke-linecap="round"></path><path d="M 29.468,179.559 C 29.468,175.562 28.394,172.210 29.468,171.565" stroke-width="7.009" stroke="black" fill="none" stroke-linecap="round"></path><path d="M 29.468,171.565 C 30.392,171.011 31.867,174.144 33.463,177.161" stroke-width="7.882" stroke="black" fill="none" stroke-linecap="round"></path><path d="M 33.463,177.161 C 35.462,180.939 35.128,181.133 36.659,185.155" stroke-width="6.442" stroke="black" fill="none" stroke-linecap="round"></path><path d="M 36.659,185.155 C 38.324,189.526 38.016,189.655 39.855,193.948" stroke-width="5.983" stroke="black" fill="none" stroke-linecap="round"></path><path d="M 39.855,193.948 C 41.612,198.049 41.683,198.040 43.850,201.942" stroke-width="6.005" stroke="black" fill="none" stroke-linecap="round"></path><path d="M 43.850,201.942 C 45.678,205.235 45.977,205.067 47.845,208.338" stroke-width="6.164" stroke="black" fill="none" stroke-linecap="round"></path><path d="M 47.845,208.338 C 49.173,210.663 48.811,210.884 50.242,213.134" stroke-width="6.557" stroke="black" fill="none" stroke-linecap="round"></path><path d="M 50.242,213.134 C 51.608,215.281 52.892,218.442 53.438,217.131" stroke-width="7.394" stroke="black" fill="none" stroke-linecap="round"></path><path d="M 53.438,217.131 C 54.890,213.645 54.031,210.342 54.237,203.541" stroke-width="7.209" stroke="black" fill="none" stroke-linecap="round"></path><path d="M 54.237,203.541 C 54.431,197.152 54.237,197.146 54.237,190.751" stroke-width="5.508" stroke="black" fill="none" stroke-linecap="round"></path><path d="M 54.237,190.751 C 54.237,184.356 54.009,184.346 54.237,177.960" stroke-width="5.242" stroke="black" fill="none" stroke-linecap="round"></path><path d="M 54.237,177.960 C 54.409,173.154 54.808,173.171 55.036,168.367" stroke-width="5.585" stroke="black" fill="none" stroke-linecap="round"></path><path d="M 55.036,168.367 C 55.207,164.777 55.036,164.770 55.036,161.173" stroke-width="6.082" stroke="black" fill="none" stroke-linecap="round"></path><path d="M 55.036,161.173 C 55.036,157.176 54.319,154.136 55.036,153.179" stroke-width="6.903" stroke="black" fill="none" stroke-linecap="round"></path><path d="M 55.036,153.179 C 55.517,152.537 56.590,155.446 57.433,157.975" stroke-width="7.717" stroke="black" fill="none" stroke-linecap="round"></path><path d="M 57.433,157.975 C 58.987,162.640 58.595,162.781 59.830,167.568" stroke-width="6.177" stroke="black" fill="none" stroke-linecap="round"></path><path d="M 59.830,167.568 C 61.791,175.172 61.984,175.126 63.825,182.757" stroke-width="5.149" stroke="black" fill="none" stroke-linecap="round"></path><path d="M 63.825,182.757 C 64.781,186.718 64.412,186.804 65.423,190.751" stroke-width="5.769" stroke="black" fill="none" stroke-linecap="round"></path><path d="M 65.423,190.751 C 68.407,202.393 68.653,202.333 71.815,213.934" stroke-width="4.500" stroke="black" fill="none" stroke-linecap="round"></path><path d="M 71.815,213.934 C 73.447,219.920 73.565,219.894 75.011,225.924" stroke-width="4.795" stroke="black" fill="none" stroke-linecap="round"></path><path d="M 75.011,225.924 C 75.962,229.886 75.623,229.971 76.609,233.919" stroke-width="5.629" stroke="black" fill="none" stroke-linecap="round"></path><path d="M 102.976,207.538 C 97.383,205.939 97.329,204.592 91.790,204.341" stroke-width="8.505" stroke="black" fill="none" stroke-linecap="round"></path><path d="M 91.790,204.341 C 88.540,204.193 87.864,204.683 85.398,206.739" stroke-width="7.772" stroke="black" fill="none" stroke-linecap="round"></path><path d="M 85.398,206.739 C 83.070,208.680 82.420,209.498 82.202,212.335" stroke-width="7.627" stroke="black" fill="none" stroke-linecap="round"></path><path d="M 82.202,212.335 C 82.021,214.695 82.835,217.131 84.599,217.131" stroke-width="8.191" stroke="black" fill="none" stroke-linecap="round"></path><path d="M 84.599,217.131 C 87.229,217.131 88.200,215.128 90.991,212.335" stroke-width="7.914" stroke="black" fill="none" stroke-linecap="round"></path><path d="M 90.991,212.335 C 93.393,209.932 93.168,206.375 94.986,206.739" stroke-width="7.939" stroke="black" fill="none" stroke-linecap="round"></path><path d="M 94.986,206.739 C 97.163,207.174 97.066,210.293 98.981,213.934" stroke-width="8.118" stroke="black" fill="none" stroke-linecap="round"></path><path d="M 98.981,213.934 C 101.061,217.887 100.887,217.980 102.976,221.928" stroke-width="7.398" stroke="black" fill="none" stroke-linecap="round"></path><path d="M 102.976,221.928 C 104.483,224.774 104.829,224.612 106.172,227.523" stroke-width="7.515" stroke="black" fill="none" stroke-linecap="round"></path><path d="M 115.760,207.538 C 116.959,211.535 117.097,215.320 118.157,215.532" stroke-width="8.679" stroke="black" fill="none" stroke-linecap="round"></path><path d="M 118.157,215.532 C 119.094,215.720 119.372,211.981 119.755,208.338" stroke-width="8.477" stroke="black" fill="none" stroke-linecap="round"></path><path d="M 119.755,208.338 C 120.171,204.386 119.755,204.341 119.755,200.344" stroke-width="6.678" stroke="black" fill="none" stroke-linecap="round"></path><path d="M 119.755,200.344 C 119.755,196.746 119.755,196.746 119.755,193.149" stroke-width="6.426" stroke="black" fill="none" stroke-linecap="round"></path><path d="M 135.735,150.781 C 136.135,155.177 136.116,155.179 136.534,159.574" stroke-width="8.625" stroke="black" fill="none" stroke-linecap="round"></path><path d="M 136.534,159.574 C 136.915,163.573 136.986,163.566 137.333,167.568" stroke-width="6.697" stroke="black" fill="none" stroke-linecap="round"></path><path d="M 137.333,167.568 C 137.785,172.760 137.557,172.783 138.132,177.960" stroke-width="5.873" stroke="black" fill="none" stroke-linecap="round"></path><path d="M 138.132,177.960 C 138.756,183.575 139.083,183.539 139.730,189.152" stroke-width="5.538" stroke="black" fill="none" stroke-linecap="round"></path><path d="M 139.730,189.152 C 140.282,193.931 140.130,193.948 140.529,198.745" stroke-width="5.682" stroke="black" fill="none" stroke-linecap="round"></path><path d="M 140.529,198.745 C 140.929,203.541 140.732,203.566 141.328,208.338" stroke-width="5.727" stroke="black" fill="none" stroke-linecap="round"></path><path d="M 141.328,208.338 C 141.931,213.159 142.270,213.115 142.926,217.931" stroke-width="6.502" stroke="black" fill="none" stroke-linecap="round"></path><path d="M 142.926,217.931 C 143.469,221.909 143.974,227.419 143.725,225.924" stroke-width="7.028" stroke="black" fill="none" stroke-linecap="round"></path><path d="M 145.323,206.739 C 149.718,209.537 149.610,211.623 154.112,212.335" stroke-width="8.605" stroke="black" fill="none" stroke-linecap="round"></path><path d="M 154.112,212.335 C 157.201,212.823 158.296,211.687 160.504,209.137" stroke-width="8.095" stroke="black" fill="none" stroke-linecap="round"></path><path d="M 160.504,209.137 C 163.489,205.691 162.913,204.878 164.499,200.344" stroke-width="7.303" stroke="black" fill="none" stroke-linecap="round"></path><path d="M 164.499,200.344 C 165.710,196.884 165.129,192.503 166.097,193.149" stroke-width="7.394" stroke="black" fill="none" stroke-linecap="round"></path><path d="M 166.097,193.149 C 167.526,194.102 168.274,198.235 169.293,203.541" stroke-width="7.886" stroke="black" fill="none" stroke-linecap="round"></path><path d="M 169.293,203.541 C 170.271,208.628 169.693,208.737 170.092,213.934" stroke-width="6.217" stroke="black" fill="none" stroke-linecap="round"></path><path d="M 170.092,213.934 C 170.492,219.130 170.492,219.130 170.891,224.326" stroke-width="5.659" stroke="black" fill="none" stroke-linecap="round"></path><path d="M 170.891,224.326 C 171.291,229.522 171.464,229.515 171.690,234.718" stroke-width="5.603" stroke="black" fill="none" stroke-linecap="round"></path><path d="M 171.690,234.718 C 171.864,238.708 171.690,238.715 171.690,242.712" stroke-width="5.956" stroke="black" fill="none" stroke-linecap="round"></path><path d="M 171.690,242.712 C 171.690,245.910 171.503,245.920 171.690,249.107" stroke-width="6.419" stroke="black" fill="none" stroke-linecap="round"></path><path d="M 184.474,201.942 C 184.874,206.739 184.526,210.290 185.273,211.535" stroke-width="8.663" stroke="black" fill="none" stroke-linecap="round"></path><path d="M 185.273,211.535 C 185.725,212.288 186.016,208.720 186.871,205.939" stroke-width="8.558" stroke="black" fill="none" stroke-linecap="round"></path><path d="M 186.871,205.939 C 187.614,203.524 187.563,203.500 188.469,201.143" stroke-width="7.425" stroke="black" fill="none" stroke-linecap="round"></path><path d="M 188.469,201.143 C 189.561,198.304 188.954,197.673 190.866,195.547" stroke-width="7.546" stroke="black" fill="none" stroke-linecap="round"></path><path d="M 190.866,195.547 C 192.550,193.676 193.446,192.780 195.660,193.149" stroke-width="7.704" stroke="black" fill="none" stroke-linecap="round"></path><path d="M 195.660,193.149 C 198.240,193.579 198.377,194.860 200.454,197.146" stroke-width="7.897" stroke="black" fill="none" stroke-linecap="round"></path><path d="M 200.454,197.146 C 202.372,199.257 202.371,199.381 203.650,201.942" stroke-width="6.955" stroke="black" fill="none" stroke-linecap="round"></path><path d="M 203.650,201.942 C 205.167,204.977 204.724,205.192 206.047,208.338" stroke-width="6.572" stroke="black" fill="none" stroke-linecap="round"></path><path d="M 206.047,208.338 C 207.920,212.786 208.062,212.727 210.042,217.131" stroke-width="6.136" stroke="black" fill="none" stroke-linecap="round"></path><path d="M 254.787,177.960 C 255.186,184.755 255.083,184.763 255.586,191.550" stroke-width="8.358" stroke="black" fill="none" stroke-linecap="round"></path><path d="M 255.586,191.550 C 255.882,195.555 256.004,195.545 256.385,199.544" stroke-width="6.648" stroke="black" fill="none" stroke-linecap="round"></path><path d="M 256.385,199.544 C 256.803,203.939 256.745,203.945 257.184,208.338" stroke-width="6.124" stroke="black" fill="none" stroke-linecap="round"></path><path d="M 257.184,208.338 C 257.544,211.939 257.802,211.923 257.983,215.532" stroke-width="6.254" stroke="black" fill="none" stroke-linecap="round"></path><path d="M 257.983,215.532 C 258.202,219.917 258.151,225.001 257.983,224.326" stroke-width="6.856" stroke="black" fill="none" stroke-linecap="round"></path><path d="M 257.983,224.326 C 257.752,223.403 257.337,218.338 257.184,212.335" stroke-width="7.515" stroke="black" fill="none" stroke-linecap="round"></path><path d="M 257.184,212.335 C 256.938,202.750 256.931,202.733 257.184,193.149" stroke-width="5.096" stroke="black" fill="none" stroke-linecap="round"></path><path d="M 257.184,193.149 C 257.331,187.544 257.535,187.549 257.983,181.957" stroke-width="5.320" stroke="black" fill="none" stroke-linecap="round"></path><path d="M 257.983,181.957 C 258.334,177.557 257.922,177.464 258.782,173.164" stroke-width="5.728" stroke="black" fill="none" stroke-linecap="round"></path><path d="M 258.782,173.164 C 259.520,169.470 259.774,169.481 261.179,165.969" stroke-width="6.066" stroke="black" fill="none" stroke-linecap="round"></path><path d="M 261.179,165.969 C 262.171,163.486 261.692,162.886 263.576,161.173" stroke-width="6.649" stroke="black" fill="none" stroke-linecap="round"></path><path d="M 263.576,161.173 C 266.086,158.889 268.830,156.512 269.968,157.975" stroke-width="7.181" stroke="black" fill="none" stroke-linecap="round"></path><path d="M 269.968,157.975 C 271.626,160.109 270.094,163.277 269.169,168.367" stroke-width="7.606" stroke="black" fill="none" stroke-linecap="round"></path><path d="M 269.169,168.367 C 268.496,172.071 268.033,171.987 266.772,175.562" stroke-width="6.583" stroke="black" fill="none" stroke-linecap="round"></path><path d="M 266.772,175.562 C 265.636,178.782 265.717,178.823 264.375,181.957" stroke-width="6.468" stroke="black" fill="none" stroke-linecap="round"></path><path d="M 264.375,181.957 C 263.320,184.418 263.100,184.320 261.978,186.754" stroke-width="6.725" stroke="black" fill="none" stroke-linecap="round"></path><path d="M 261.978,186.754 C 260.703,189.516 258.276,191.371 259.581,192.350" stroke-width="7.336" stroke="black" fill="none" stroke-linecap="round"></path><path d="M 259.581,192.350 C 261.472,193.769 264.051,191.296 268.370,191.550" stroke-width="7.890" stroke="black" fill="none" stroke-linecap="round"></path><path d="M 268.370,191.550 C 270.842,191.696 271.026,191.866 273.164,193.149" stroke-width="7.198" stroke="black" fill="none" stroke-linecap="round"></path><path d="M 273.164,193.149 C 277.018,195.463 277.568,195.314 280.355,198.745" stroke-width="7.128" stroke="black" fill="none" stroke-linecap="round"></path><path d="M 280.355,198.745 C 282.762,201.709 283.347,202.275 283.551,205.939" stroke-width="7.253" stroke="black" fill="none" stroke-linecap="round"></path><path d="M 283.551,205.939 C 283.747,209.469 283.052,209.969 281.154,213.134" stroke-width="7.327" stroke="black" fill="none" stroke-linecap="round"></path><path d="M 281.154,213.134 C 279.456,215.964 278.849,215.632 276.360,217.931" stroke-width="6.678" stroke="black" fill="none" stroke-linecap="round"></path><path d="M 276.360,217.931 C 273.655,220.428 273.808,220.698 270.767,222.727" stroke-width="6.393" stroke="black" fill="none" stroke-linecap="round"></path><path d="M 270.767,222.727 C 267.816,224.695 267.611,224.413 264.375,225.924" stroke-width="6.353" stroke="black" fill="none" stroke-linecap="round"></path><path d="M 264.375,225.924 C 261.619,227.211 261.696,227.698 258.782,228.323" stroke-width="6.543" stroke="black" fill="none" stroke-linecap="round"></path><path d="M 258.782,228.323 C 256.103,228.897 255.917,227.903 253.189,228.323" stroke-width="7.330" stroke="black" fill="none" stroke-linecap="round"></path><path d="M 294.737,218.730 C 299.131,214.333 299.431,214.579 303.526,209.936" stroke-width="8.323" stroke="black" fill="none" stroke-linecap="round"></path><path d="M 303.526,209.936 C 305.424,207.784 305.273,207.625 306.722,205.140" stroke-width="7.133" stroke="black" fill="none" stroke-linecap="round"></path><path d="M 306.722,205.140 C 308.069,202.828 308.223,202.854 309.119,200.344" stroke-width="6.927" stroke="black" fill="none" stroke-linecap="round"></path><path d="M 309.119,200.344 C 310.220,197.258 311.598,196.373 310.717,193.948" stroke-width="7.344" stroke="black" fill="none" stroke-linecap="round"></path><path d="M 310.717,193.948 C 310.000,191.977 308.287,191.235 305.923,191.550" stroke-width="8.004" stroke="black" fill="none" stroke-linecap="round"></path><path d="M 305.923,191.550 C 302.294,192.034 301.064,192.436 298.732,195.547" stroke-width="7.427" stroke="black" fill="none" stroke-linecap="round"></path><path d="M 298.732,195.547 C 295.071,200.430 295.169,201.378 293.938,207.538" stroke-width="6.846" stroke="black" fill="none" stroke-linecap="round"></path><path d="M 293.938,207.538 C 293.172,211.371 293.388,211.933 294.737,215.532" stroke-width="7.144" stroke="black" fill="none" stroke-linecap="round"></path><path d="M 294.737,215.532 C 295.785,218.329 296.303,218.562 298.732,220.329" stroke-width="7.483" stroke="black" fill="none" stroke-linecap="round"></path><path d="M 298.732,220.329 C 300.698,221.759 301.056,221.575 303.526,221.928" stroke-width="7.726" stroke="black" fill="none" stroke-linecap="round"></path><path d="M 339.481,194.748 C 335.885,196.746 335.491,196.281 332.290,198.745" stroke-width="8.601" stroke="black" fill="none" stroke-linecap="round"></path><path d="M 332.290,198.745 C 330.298,200.278 330.280,200.500 329.094,202.742" stroke-width="7.349" stroke="black" fill="none" stroke-linecap="round"></path><path d="M 329.094,202.742 C 326.685,207.295 326.651,207.416 325.099,212.335" stroke-width="7.024" stroke="black" fill="none" stroke-linecap="round"></path><path d="M 325.099,212.335 C 324.254,215.010 324.145,215.143 324.300,217.931" stroke-width="6.901" stroke="black" fill="none" stroke-linecap="round"></path><path d="M 324.300,217.931 C 324.544,222.338 323.789,223.137 325.898,226.724" stroke-width="7.027" stroke="black" fill="none" stroke-linecap="round"></path><path d="M 325.898,226.724 C 327.784,229.932 328.751,229.971 332.290,231.520" stroke-width="7.495" stroke="black" fill="none" stroke-linecap="round"></path><path d="M 353.863,220.329 C 356.659,217.131 356.957,217.343 359.456,213.934" stroke-width="8.530" stroke="black" fill="none" stroke-linecap="round"></path><path d="M 359.456,213.934 C 361.351,211.347 361.054,211.136 362.652,208.338" stroke-width="7.021" stroke="black" fill="none" stroke-linecap="round"></path><path d="M 362.652,208.338 C 364.250,205.540 364.629,205.703 365.848,202.742" stroke-width="6.667" stroke="black" fill="none" stroke-linecap="round"></path><path d="M 365.848,202.742 C 367.426,198.908 368.975,197.912 368.245,194.748" stroke-width="7.049" stroke="black" fill="none" stroke-linecap="round"></path><path d="M 368.245,194.748 C 367.776,192.716 365.670,191.757 363.451,192.350" stroke-width="7.977" stroke="black" fill="none" stroke-linecap="round"></path><path d="M 363.451,192.350 C 359.678,193.356 359.447,194.756 356.260,197.945" stroke-width="7.341" stroke="black" fill="none" stroke-linecap="round"></path><path d="M 356.260,197.945 C 353.854,200.352 353.314,200.392 352.265,203.541" stroke-width="6.812" stroke="black" fill="none" stroke-linecap="round"></path><path d="M 352.265,203.541 C 350.917,207.586 350.707,208.286 351.466,212.335" stroke-width="7.042" stroke="black" fill="none" stroke-linecap="round"></path><path d="M 351.466,212.335 C 351.905,214.681 352.710,214.770 354.662,216.332" stroke-width="7.571" stroke="black" fill="none" stroke-linecap="round"></path><path d="M 354.662,216.332 C 356.705,217.968 356.915,218.367 359.456,218.730" stroke-width="7.712" stroke="black" fill="none" stroke-linecap="round"></path><path d="M 359.456,218.730 C 362.508,219.166 362.795,218.803 365.848,217.931" stroke-width="7.610" stroke="black" fill="none" stroke-linecap="round"></path><path d="M 365.848,217.931 C 368.388,217.204 368.245,216.731 370.642,215.532" stroke-width="7.056" stroke="black" fill="none" stroke-linecap="round"></path><path d="M 390.617,191.550 C 390.617,196.347 390.617,196.347 390.617,201.143" stroke-width="8.487" stroke="black" fill="none" stroke-linecap="round"></path><path d="M 390.617,201.143 C 390.617,205.140 390.617,205.140 390.617,209.137" stroke-width="7.610" stroke="black" fill="none" stroke-linecap="round"></path><path d="M 390.617,209.137 C 390.617,211.935 390.617,215.750 390.617,214.733" stroke-width="7.692" stroke="black" fill="none" stroke-linecap="round"></path><path d="M 390.617,214.733 C 390.617,212.553 390.378,208.725 390.617,202.742" stroke-width="7.930" stroke="black" fill="none" stroke-linecap="round"></path><path d="M 390.617,202.742 C 390.777,198.733 390.821,198.716 391.416,194.748" stroke-width="6.563" stroke="black" fill="none" stroke-linecap="round"></path><path d="M 391.416,194.748 C 392.019,190.722 391.848,190.642 393.014,186.754" stroke-width="6.375" stroke="black" fill="none" stroke-linecap="round"></path><path d="M 407.396,191.550 C 408.195,197.146 408.459,197.127 408.994,202.742" stroke-width="8.522" stroke="black" fill="none" stroke-linecap="round"></path><path d="M 408.994,202.742 C 409.258,205.521 408.795,205.554 408.994,208.338" stroke-width="7.950" stroke="black" fill="none" stroke-linecap="round"></path><path d="M 408.994,208.338 C 409.195,211.150 409.645,214.674 409.793,213.934" stroke-width="8.056" stroke="black" fill="none" stroke-linecap="round"></path><path d="M 409.793,213.934 C 410.044,212.676 409.341,209.087 409.793,204.341" stroke-width="8.160" stroke="black" fill="none" stroke-linecap="round"></path><path d="M 409.793,204.341 C 410.140,200.694 410.422,200.699 411.391,197.146" stroke-width="6.745" stroke="black" fill="none" stroke-linecap="round"></path><path d="M 411.391,197.146 C 412.819,191.905 412.794,191.878 414.587,186.754" stroke-width="6.078" stroke="black" fill="none" stroke-linecap="round"></path><path d="M 414.587,186.754 C 415.591,183.884 415.893,183.997 416.984,181.158" stroke-width="6.380" stroke="black" fill="none" stroke-linecap="round"></path><path d="M 416.984,181.158 C 417.890,178.800 417.783,178.760 418.582,176.362" stroke-width="6.873" stroke="black" fill="none" stroke-linecap="round"></path><path d="M 466.522,180.359 C 460.529,180.359 460.454,179.820 454.537,180.359" stroke-width="8.351" stroke="black" fill="none" stroke-linecap="round"></path><path d="M 454.537,180.359 C 451.665,180.620 451.633,180.881 448.944,181.957" stroke-width="7.127" stroke="black" fill="none" stroke-linecap="round"></path><path d="M 448.944,181.957 C 445.640,183.279 445.537,183.235 442.552,185.155" stroke-width="6.554" stroke="black" fill="none" stroke-linecap="round"></path><path d="M 442.552,185.155 C 439.944,186.832 439.835,186.866 437.758,189.152" stroke-width="6.574" stroke="black" fill="none" stroke-linecap="round"></path><path d="M 437.758,189.152 C 435.840,191.263 435.843,191.384 434.562,193.948" stroke-width="6.676" stroke="black" fill="none" stroke-linecap="round"></path><path d="M 434.562,193.948 C 432.647,197.779 431.366,198.112 431.366,201.942" stroke-width="7.022" stroke="black" fill="none" stroke-linecap="round"></path><path d="M 431.366,201.942 C 431.366,204.507 432.424,206.156 434.562,206.739" stroke-width="7.843" stroke="black" fill="none" stroke-linecap="round"></path><path d="M 434.562,206.739 C 436.819,207.355 437.564,205.896 440.155,204.341" stroke-width="7.158" stroke="black" fill="none" stroke-linecap="round"></path><path d="M 440.155,204.341 C 443.557,202.298 443.407,202.013 446.547,199.544" stroke-width="6.400" stroke="black" fill="none" stroke-linecap="round"></path><path d="M 446.547,199.544 C 449.000,197.616 449.034,197.645 451.341,195.547" stroke-width="6.527" stroke="black" fill="none" stroke-linecap="round"></path><path d="M 451.341,195.547 C 453.429,193.648 453.239,193.438 455.336,191.550" stroke-width="6.685" stroke="black" fill="none" stroke-linecap="round"></path><path d="M 455.336,191.550 C 457.234,189.841 457.530,187.861 459.331,188.353" stroke-width="7.443" stroke="black" fill="none" stroke-linecap="round"></path><path d="M 459.331,188.353 C 461.924,189.060 461.883,191.033 464.125,193.948" stroke-width="8.084" stroke="black" fill="none" stroke-linecap="round"></path><path d="M 464.125,193.948 C 465.878,196.229 465.628,196.416 467.321,198.745" stroke-width="7.079" stroke="black" fill="none" stroke-linecap="round"></path><path d="M 467.321,198.745 C 468.824,200.813 468.716,200.940 470.517,202.742" stroke-width="6.965" stroke="black" fill="none" stroke-linecap="round"></path><path d="M 470.517,202.742 C 473.110,205.336 473.148,205.365 476.110,207.538" stroke-width="6.470" stroke="black" fill="none" stroke-linecap="round"></path><path d="M 476.110,207.538 C 479.140,209.762 479.306,209.537 482.502,211.535" stroke-width="6.304" stroke="black" fill="none" stroke-linecap="round"></path></svg>