<svg xmlns="http://www.w3.org/2000/svg" xmlns:xlink="http://www.w3.org/1999/xlink" viewBox="0 0 576 416" width="576" height="416"><circle r="3" cx="238.80648803710938" cy="173.12631225585938" fill="black"></circle><path d="M 206.047,211.498 C 210.841,207.101 210.789,207.042 215.635,202.704" stroke-width="8.622" stroke="black" fill="none" stroke-linecap="round"></path><path d="M 215.635,202.704 C 218.380,200.247 218.354,200.209 221.228,197.908" stroke-width="6.739" stroke="black" fill="none" stroke-linecap="round"></path><path d="M 221.228,197.908 C 224.346,195.412 224.522,195.630 227.620,193.111" stroke-width="6.295" stroke="black" fill="none" stroke-linecap="round"></path><path d="M 227.620,193.111 C 230.914,190.434 230.916,190.420 234.013,187.516" stroke-width="6.086" stroke="black" fill="none" stroke-linecap="round"></path><path d="M 234.013,187.516 C 237.308,184.424 237.315,184.418 240.405,181.120" stroke-width="5.937" stroke="black" fill="none" stroke-linecap="round"></path><path d="M 240.405,181.120 C 243.307,178.022 243.280,177.988 245.998,174.725" stroke-width="6.132" stroke="black" fill="none" stroke-linecap="round"></path><path d="M 245.998,174.725 C 249.272,170.794 249.249,170.771 252.390,166.731" stroke-width="6.630" stroke="black" fill="none" stroke-linecap="round"></path><path d="M 252.390,166.731 C 254.842,163.576 258.265,161.418 257.184,160.336" stroke-width="7.020" stroke="black" fill="none" stroke-linecap="round"></path><path d="M 257.184,160.336 C 255.868,159.020 252.252,160.630 247.596,161.935" stroke-width="7.734" stroke="black" fill="none" stroke-linecap="round"></path><path d="M 247.596,161.935 C 242.264,163.428 242.250,163.603 237.208,165.932" stroke-width="5.971" stroke="black" fill="none" stroke-linecap="round"></path><path d="M 237.208,165.932 C 231.863,168.400 232.093,168.891 226.822,171.528" stroke-width="5.494" stroke="black" fill="none" stroke-linecap="round"></path><path d="M 226.822,171.528 C 224.103,172.888 223.991,172.650 221.228,173.926" stroke-width="6.302" stroke="black" fill="none" stroke-linecap="round"></path><path d="M 221.228,173.926 C 213.604,177.447 213.433,177.162 206.047,181.120" stroke-width="4.830" stroke="black" fill="none" stroke-linecap="round"></path><path d="M 206.047,181.120 C 202.247,183.157 202.417,183.468 198.856,185.917" stroke-width="5.642" stroke="black" fill="none" stroke-linecap="round"></path><path d="M 198.856,185.917 C 196.025,187.864 196.035,187.881 193.263,189.914" stroke-width="6.158" stroke="black" fill="none" stroke-linecap="round"></path><path d="M 193.263,189.914 C 190.042,192.277 186.004,193.843 186.871,194.710" stroke-width="6.907" stroke="black" fill="none" stroke-linecap="round"></path><path d="M 186.871,194.710 C 188.002,195.841 192.072,194.383 197.258,193.911" stroke-width="7.743" stroke="black" fill="none" stroke-linecap="round"></path><path d="M 197.258,193.911 C 200.861,193.583 200.857,193.534 204.449,193.111" stroke-width="6.683" stroke="black" fill="none" stroke-linecap="round"></path><path d="M 204.449,193.111 C 207.648,192.735 207.649,192.312 210.841,192.312" stroke-width="6.573" stroke="black" fill="none" stroke-linecap="round"></path><path d="M 210.841,192.312 C 213.641,192.312 213.638,192.712 216.434,193.111" stroke-width="6.699" stroke="black" fill="none" stroke-linecap="round"></path><path d="M 216.434,193.111 C 219.231,193.511 219.723,192.527 222.027,193.911" stroke-width="6.738" stroke="black" fill="none" stroke-linecap="round"></path><path d="M 222.027,193.911 C 225.716,196.125 226.495,196.455 228.419,200.306" stroke-width="6.994" stroke="black" fill="none" stroke-linecap="round"></path><path d="M 228.419,200.306 C 230.490,204.449 229.777,205.091 230.017,209.899" stroke-width="6.997" stroke="black" fill="none" stroke-linecap="round"></path><path d="M 230.017,209.899 C 230.177,213.085 230.223,213.280 229.218,216.294" stroke-width="6.660" stroke="black" fill="none" stroke-linecap="round"></path><path d="M 229.218,216.294 C 227.826,220.474 227.515,220.466 225.223,224.288" stroke-width="6.108" stroke="black" fill="none" stroke-linecap="round"></path><path d="M 225.223,224.288 C 222.721,228.460 222.671,228.479 219.630,232.282" stroke-width="5.830" stroke="black" fill="none" stroke-linecap="round"></path><path d="M 219.630,232.282 C 216.279,236.473 216.413,236.698 212.439,240.276" stroke-width="5.604" stroke="black" fill="none" stroke-linecap="round"></path><path d="M 212.439,240.276 C 208.423,243.893 208.225,243.759 203.650,246.671" stroke-width="5.524" stroke="black" fill="none" stroke-linecap="round"></path><path d="M 203.650,246.671 C 199.436,249.355 199.336,249.230 194.861,251.468" stroke-width="5.621" stroke="black" fill="none" stroke-linecap="round"></path><path d="M 194.861,251.468 C 190.547,253.626 190.548,253.674 186.072,255.465" stroke-width="5.704" stroke="black" fill="none" stroke-linecap="round"></path><path d="M 186.072,255.465 C 182.558,256.871 182.553,256.999 178.881,257.863" stroke-width="6.059" stroke="black" fill="none" stroke-linecap="round"></path><path d="M 178.881,257.863 C 175.761,258.598 175.682,258.663 172.489,258.663" stroke-width="6.379" stroke="black" fill="none" stroke-linecap="round"></path><path d="M 172.489,258.663 C 169.689,258.663 168.126,259.621 166.896,257.863" stroke-width="7.260" stroke="black" fill="none" stroke-linecap="round"></path><path d="M 166.896,257.863 C 165.330,255.624 166.079,254.102 166.896,250.668" stroke-width="7.350" stroke="black" fill="none" stroke-linecap="round"></path><path d="M 166.896,250.668 C 168.077,245.709 168.312,245.549 170.891,241.076" stroke-width="6.116" stroke="black" fill="none" stroke-linecap="round"></path><path d="M 170.891,241.076 C 174.305,235.156 174.326,234.989 178.881,229.884" stroke-width="5.270" stroke="black" fill="none" stroke-linecap="round"></path><path d="M 178.881,229.884 C 184.314,223.797 184.874,224.288 190.866,218.692" stroke-width="4.768" stroke="black" fill="none" stroke-linecap="round"></path><path d="M 266.772,227.486 C 261.978,228.285 261.167,226.807 257.184,229.085" stroke-width="8.695" stroke="black" fill="none" stroke-linecap="round"></path><path d="M 257.184,229.085 C 252.777,231.604 253.239,232.816 249.993,237.079" stroke-width="6.193" stroke="black" fill="none" stroke-linecap="round"></path><path d="M 249.993,237.079 C 246.846,241.210 247.006,241.368 244.400,245.872" stroke-width="5.750" stroke="black" fill="none" stroke-linecap="round"></path><path d="M 244.400,245.872 C 242.611,248.962 242.319,248.919 241.203,252.267" stroke-width="6.148" stroke="black" fill="none" stroke-linecap="round"></path><path d="M 241.203,252.267 C 240.322,254.915 239.011,257.553 240.405,257.863" stroke-width="7.127" stroke="black" fill="none" stroke-linecap="round"></path><path d="M 240.405,257.863 C 242.607,258.353 245.077,256.732 248.395,253.866" stroke-width="7.476" stroke="black" fill="none" stroke-linecap="round"></path><path d="M 248.395,253.866 C 253.866,249.138 253.450,248.468 257.983,242.674" stroke-width="5.707" stroke="black" fill="none" stroke-linecap="round"></path><path d="M 257.983,242.674 C 260.641,239.275 260.488,239.144 262.777,235.480" stroke-width="5.886" stroke="black" fill="none" stroke-linecap="round"></path><path d="M 262.777,235.480 C 264.483,232.749 264.446,232.720 265.973,229.884" stroke-width="6.247" stroke="black" fill="none" stroke-linecap="round"></path><path d="M 265.973,229.884 C 267.243,227.524 267.341,227.556 268.370,225.088" stroke-width="6.768" stroke="black" fill="none" stroke-linecap="round"></path><path d="M 268.370,225.088 C 269.339,222.760 269.822,219.563 269.968,220.291" stroke-width="7.462" stroke="black" fill="none" stroke-linecap="round"></path><path d="M 269.968,220.291 C 270.222,221.562 269.378,224.679 269.169,229.085" stroke-width="7.933" stroke="black" fill="none" stroke-linecap="round"></path><path d="M 269.169,229.085 C 268.979,233.073 267.872,233.619 269.169,237.079" stroke-width="7.469" stroke="black" fill="none" stroke-linecap="round"></path><path d="M 269.169,237.079 C 270.269,240.014 271.255,241.694 273.963,241.875" stroke-width="7.807" stroke="black" fill="none" stroke-linecap="round"></path><path d="M 273.963,241.875 C 277.247,242.094 277.869,240.288 281.154,237.878" stroke-width="7.375" stroke="black" fill="none" stroke-linecap="round"></path><path d="M 281.154,237.878 C 283.861,235.891 283.551,235.480 285.948,233.082" stroke-width="6.690" stroke="black" fill="none" stroke-linecap="round"></path><path d="M 285.948,233.082 C 288.744,230.284 289.059,230.542 291.541,227.486" stroke-width="6.296" stroke="black" fill="none" stroke-linecap="round"></path><path d="M 291.541,227.486 C 294.252,224.146 294.083,223.977 296.335,220.291" stroke-width="6.061" stroke="black" fill="none" stroke-linecap="round"></path><path d="M 296.335,220.291 C 298.478,216.782 298.332,216.694 300.330,213.096" stroke-width="6.063" stroke="black" fill="none" stroke-linecap="round"></path><path d="M 300.330,213.096 C 302.327,209.499 302.401,209.538 304.325,205.902" stroke-width="6.064" stroke="black" fill="none" stroke-linecap="round"></path><path d="M 304.325,205.902 C 305.996,202.743 305.923,202.704 307.521,199.507" stroke-width="6.252" stroke="black" fill="none" stroke-linecap="round"></path><path d="M 307.521,199.507 C 309.119,196.309 308.947,196.210 310.717,193.111" stroke-width="6.310" stroke="black" fill="none" stroke-linecap="round"></path><path d="M 310.717,193.111 C 312.143,190.614 312.239,190.660 313.913,188.315" stroke-width="6.592" stroke="black" fill="none" stroke-linecap="round"></path><path d="M 313.913,188.315 C 316.234,185.064 316.632,185.316 318.707,181.920" stroke-width="6.256" stroke="black" fill="none" stroke-linecap="round"></path><path d="M 318.707,181.920 C 321.026,178.122 320.973,178.034 322.702,173.926" stroke-width="6.002" stroke="black" fill="none" stroke-linecap="round"></path><path d="M 322.702,173.926 C 324.169,170.440 324.030,170.366 325.099,166.731" stroke-width="6.155" stroke="black" fill="none" stroke-linecap="round"></path><path d="M 325.099,166.731 C 326.028,163.571 325.792,163.503 326.697,160.336" stroke-width="6.383" stroke="black" fill="none" stroke-linecap="round"></path><path d="M 326.697,160.336 C 327.390,157.907 327.985,158.017 328.295,155.539" stroke-width="6.761" stroke="black" fill="none" stroke-linecap="round"></path><path d="M 328.295,155.539 C 328.784,151.622 328.784,151.463 328.295,147.545" stroke-width="7.121" stroke="black" fill="none" stroke-linecap="round"></path><path d="M 328.295,147.545 C 327.985,145.068 328.248,143.331 326.697,142.749" stroke-width="7.836" stroke="black" fill="none" stroke-linecap="round"></path><path d="M 326.697,142.749 C 325.052,142.132 323.744,143.305 321.903,145.147" stroke-width="8.049" stroke="black" fill="none" stroke-linecap="round"></path><path d="M 321.903,145.147 C 318.551,148.501 318.770,148.957 316.310,153.141" stroke-width="7.280" stroke="black" fill="none" stroke-linecap="round"></path><path d="M 316.310,153.141 C 314.775,155.752 315.111,155.939 313.913,158.737" stroke-width="6.810" stroke="black" fill="none" stroke-linecap="round"></path><path d="M 313.913,158.737 C 312.714,161.535 312.583,161.485 311.516,164.333" stroke-width="6.681" stroke="black" fill="none" stroke-linecap="round"></path><path d="M 311.516,164.333 C 310.186,167.880 310.260,167.912 309.119,171.528" stroke-width="6.354" stroke="black" fill="none" stroke-linecap="round"></path><path d="M 309.119,171.528 C 307.863,175.506 307.920,175.525 306.722,179.522" stroke-width="6.128" stroke="black" fill="none" stroke-linecap="round"></path><path d="M 306.722,179.522 C 305.523,183.519 305.335,183.472 304.325,187.516" stroke-width="6.064" stroke="black" fill="none" stroke-linecap="round"></path><path d="M 304.325,187.516 C 303.338,191.466 303.361,191.487 302.727,195.510" stroke-width="6.077" stroke="black" fill="none" stroke-linecap="round"></path><path d="M 302.727,195.510 C 302.163,199.081 302.555,199.148 301.928,202.704" stroke-width="6.240" stroke="black" fill="none" stroke-linecap="round"></path><path d="M 301.928,202.704 C 301.356,205.943 300.936,205.866 300.330,209.099" stroke-width="6.410" stroke="black" fill="none" stroke-linecap="round"></path><path d="M 300.330,209.099 C 299.737,212.261 299.744,212.286 299.531,215.495" stroke-width="6.491" stroke="black" fill="none" stroke-linecap="round"></path><path d="M 299.531,215.495 C 299.345,218.281 299.324,218.303 299.531,221.091" stroke-width="6.684" stroke="black" fill="none" stroke-linecap="round"></path><path d="M 299.531,221.091 C 300.123,229.095 300.302,229.087 301.129,237.079" stroke-width="6.273" stroke="black" fill="none" stroke-linecap="round"></path><path d="M 301.129,237.079 C 301.501,240.679 301.263,240.728 301.928,244.273" stroke-width="6.300" stroke="black" fill="none" stroke-linecap="round"></path><path d="M 301.928,244.273 C 302.462,247.123 302.115,247.400 303.526,249.869" stroke-width="6.578" stroke="black" fill="none" stroke-linecap="round"></path><path d="M 303.526,249.869 C 305.311,252.996 305.325,253.967 308.320,255.465" stroke-width="7.131" stroke="black" fill="none" stroke-linecap="round"></path><path d="M 308.320,255.465 C 310.918,256.765 312.064,256.789 314.712,255.465" stroke-width="7.436" stroke="black" fill="none" stroke-linecap="round"></path><path d="M 314.712,255.465 C 318.456,253.592 318.818,252.811 321.104,249.070" stroke-width="7.581" stroke="black" fill="none" stroke-linecap="round"></path><path d="M 321.104,249.070 C 323.213,245.616 323.050,245.135 323.501,241.076" stroke-width="7.329" stroke="black" fill="none" stroke-linecap="round"></path><path d="M 323.501,241.076 C 323.849,237.941 323.815,237.577 322.702,234.680" stroke-width="7.493" stroke="black" fill="none" stroke-linecap="round"></path><path d="M 322.702,234.680 C 321.818,232.381 321.385,232.375 319.506,230.683" stroke-width="7.721" stroke="black" fill="none" stroke-linecap="round"></path><path d="M 319.506,230.683 C 317.390,228.778 317.039,229.179 314.712,227.486" stroke-width="7.703" stroke="black" fill="none" stroke-linecap="round"></path><path d="M 314.712,227.486 C 312.645,225.982 310.529,225.792 310.717,224.288" stroke-width="8.158" stroke="black" fill="none" stroke-linecap="round"></path><path d="M 310.717,224.288 C 310.928,222.594 312.972,222.435 315.511,221.091" stroke-width="8.108" stroke="black" fill="none" stroke-linecap="round"></path><path d="M 315.511,221.091 C 319.764,218.838 319.853,218.967 324.300,217.094" stroke-width="7.306" stroke="black" fill="none" stroke-linecap="round"></path><path d="M 324.300,217.094 C 327.444,215.769 327.569,216.062 330.692,214.695" stroke-width="6.663" stroke="black" fill="none" stroke-linecap="round"></path><path d="M 330.692,214.695 C 333.961,213.264 333.847,213.009 337.084,211.498" stroke-width="6.431" stroke="black" fill="none" stroke-linecap="round"></path><path d="M 337.084,211.498 C 339.840,210.211 339.960,210.459 342.677,209.099" stroke-width="6.567" stroke="black" fill="none" stroke-linecap="round"></path><path d="M 342.677,209.099 C 345.553,207.661 345.473,207.501 348.270,205.902" stroke-width="6.539" stroke="black" fill="none" stroke-linecap="round"></path><path d="M 348.270,205.902 C 351.066,204.303 351.188,204.488 353.863,202.704" stroke-width="6.530" stroke="black" fill="none" stroke-linecap="round"></path><path d="M 353.863,202.704 C 357.180,200.491 357.089,200.345 360.255,197.908" stroke-width="7.042" stroke="black" fill="none" stroke-linecap="round"></path><path d="M 360.255,197.908 C 362.282,196.348 363.542,194.003 364.250,194.710" stroke-width="7.571" stroke="black" fill="none" stroke-linecap="round"></path><path d="M 364.250,194.710 C 365.140,195.601 364.410,198.066 363.451,201.105" stroke-width="8.223" stroke="black" fill="none" stroke-linecap="round"></path><path d="M 363.451,201.105 C 362.013,205.660 361.282,205.432 359.456,209.899" stroke-width="6.311" stroke="black" fill="none" stroke-linecap="round"></path><path d="M 359.456,209.899 C 357.687,214.226 357.738,214.256 356.260,218.692" stroke-width="5.948" stroke="black" fill="none" stroke-linecap="round"></path><path d="M 356.260,218.692 C 354.941,222.650 354.873,222.642 353.863,226.686" stroke-width="6.010" stroke="black" fill="none" stroke-linecap="round"></path><path d="M 353.863,226.686 C 352.876,230.636 352.972,230.668 352.265,234.680" stroke-width="6.061" stroke="black" fill="none" stroke-linecap="round"></path><path d="M 352.265,234.680 C 351.774,237.463 350.906,237.661 351.466,240.276" stroke-width="6.530" stroke="black" fill="none" stroke-linecap="round"></path><path d="M 351.466,240.276 C 352.104,243.257 352.217,245.383 354.662,245.872" stroke-width="7.222" stroke="black" fill="none" stroke-linecap="round"></path><path d="M 354.662,245.872 C 358.210,246.582 359.428,244.910 363.451,242.674" stroke-width="7.486" stroke="black" fill="none" stroke-linecap="round"></path><path d="M 363.451,242.674 C 366.619,240.913 366.353,240.390 369.044,237.878" stroke-width="6.598" stroke="black" fill="none" stroke-linecap="round"></path><path d="M 369.044,237.878 C 372.346,234.795 372.553,234.943 375.436,231.483" stroke-width="6.075" stroke="black" fill="none" stroke-linecap="round"></path><path d="M 375.436,231.483 C 378.546,227.749 378.275,227.515 381.029,223.489" stroke-width="5.821" stroke="black" fill="none" stroke-linecap="round"></path><path d="M 381.029,223.489 C 383.469,219.921 383.636,220.013 385.823,216.294" stroke-width="5.922" stroke="black" fill="none" stroke-linecap="round"></path><path d="M 385.823,216.294 C 387.631,213.218 387.421,213.097 389.019,209.899" stroke-width="6.205" stroke="black" fill="none" stroke-linecap="round"></path><path d="M 389.019,209.899 C 390.217,207.501 392.263,204.149 391.416,205.102" stroke-width="6.638" stroke="black" fill="none" stroke-linecap="round"></path><path d="M 391.416,205.102 C 389.067,207.746 386.422,210.765 382.627,217.094" stroke-width="7.536" stroke="black" fill="none" stroke-linecap="round"></path><path d="M 382.627,217.094 C 380.429,220.758 380.399,220.969 379.431,225.088" stroke-width="6.370" stroke="black" fill="none" stroke-linecap="round"></path><path d="M 379.431,225.088 C 378.801,227.764 378.176,230.325 379.431,230.683" stroke-width="7.264" stroke="black" fill="none" stroke-linecap="round"></path><path d="M 379.431,230.683 C 380.972,231.124 382.633,229.078 385.024,226.686" stroke-width="7.718" stroke="black" fill="none" stroke-linecap="round"></path><path d="M 385.024,226.686 C 387.028,224.681 386.527,224.219 388.220,221.890" stroke-width="6.992" stroke="black" fill="none" stroke-linecap="round"></path><path d="M 388.220,221.890 C 389.723,219.822 390.050,220.040 391.416,217.893" stroke-width="6.940" stroke="black" fill="none" stroke-linecap="round"></path><path d="M 391.416,217.893 C 392.847,215.643 392.543,215.456 393.813,213.096" stroke-width="6.871" stroke="black" fill="none" stroke-linecap="round"></path><path d="M 393.813,213.096 C 395.339,210.260 396.010,207.301 397.009,207.501" stroke-width="7.343" stroke="black" fill="none" stroke-linecap="round"></path><path d="M 397.009,207.501 C 398.008,207.701 397.178,210.745 397.808,213.896" stroke-width="8.177" stroke="black" fill="none" stroke-linecap="round"></path><path d="M 397.808,213.896 C 398.376,216.741 397.613,217.518 399.406,219.492" stroke-width="8.096" stroke="black" fill="none" stroke-linecap="round"></path><path d="M 399.406,219.492 C 401.608,221.915 402.453,222.296 405.798,222.689" stroke-width="7.953" stroke="black" fill="none" stroke-linecap="round"></path><path d="M 405.798,222.689 C 409.245,223.095 409.524,222.296 412.989,221.091" stroke-width="7.583" stroke="black" fill="none" stroke-linecap="round"></path><circle r="3" cx="354.66168212890625" cy="157.13824462890625" fill="black"></circle><path d="M 147.720,313.821 C 151.715,310.224 151.366,309.731 155.710,306.627" stroke-width="8.387" stroke="black" fill="none" stroke-linecap="round"></path><path d="M 155.710,306.627 C 159.756,303.736 160.059,304.141 164.499,301.830" stroke-width="6.164" stroke="black" fill="none" stroke-linecap="round"></path><path d="M 164.499,301.830 C 170.046,298.944 169.819,298.348 175.685,296.234" stroke-width="5.445" stroke="black" fill="none" stroke-linecap="round"></path><path d="M 175.685,296.234 C 189.794,291.153 189.870,291.038 204.449,287.441" stroke-width="4.500" stroke="black" fill="none" stroke-linecap="round"></path><path d="M 204.449,287.441 C 219.034,283.843 219.137,283.999 234.013,281.845" stroke-width="4.500" stroke="black" fill="none" stroke-linecap="round"></path><path d="M 234.013,281.845 C 249.499,279.603 249.555,279.662 265.174,278.648" stroke-width="4.500" stroke="black" fill="none" stroke-linecap="round"></path><path d="M 265.174,278.648 C 280.317,277.664 280.352,278.053 295.536,277.848" stroke-width="4.500" stroke="black" fill="none" stroke-linecap="round"></path><path d="M 295.536,277.848 C 309.915,277.654 309.918,277.848 324.300,277.848" stroke-width="4.500" stroke="black" fill="none" stroke-linecap="round"></path><path d="M 324.300,277.848 C 336.684,277.848 336.689,277.627 349.069,277.848" stroke-width="4.500" stroke="black" fill="none" stroke-linecap="round"></path><path d="M 349.069,277.848 C 359.061,278.027 359.059,278.183 369.044,278.648" stroke-width="4.500" stroke="black" fill="none" stroke-linecap="round"></path><path d="M 369.044,278.648 C 376.238,278.982 376.248,278.895 383.426,279.447" stroke-width="4.500" stroke="black" fill="none" stroke-linecap="round"></path><path d="M 383.426,279.447 C 386.636,279.694 390.827,279.236 389.818,280.246" stroke-width="5.664" stroke="black" fill="none" stroke-linecap="round"></path><path d="M 389.818,280.246 C 387.631,282.434 383.693,283.892 377.034,285.842" stroke-width="6.540" stroke="black" fill="none" stroke-linecap="round"></path><path d="M 377.034,285.842 C 367.313,288.689 367.027,287.748 357.059,289.839" stroke-width="4.500" stroke="black" fill="none" stroke-linecap="round"></path><path d="M 357.059,289.839 C 342.258,292.944 342.118,292.427 327.496,296.234" stroke-width="4.500" stroke="black" fill="none" stroke-linecap="round"></path><path d="M 327.496,296.234 C 312.955,300.021 313.118,300.647 298.732,305.028" stroke-width="4.500" stroke="black" fill="none" stroke-linecap="round"></path><path d="M 298.732,305.028 C 285.553,309.041 285.426,308.666 272.365,313.022" stroke-width="4.500" stroke="black" fill="none" stroke-linecap="round"></path><path d="M 272.365,313.022 C 262.655,316.260 262.445,315.925 253.189,320.217" stroke-width="4.500" stroke="black" fill="none" stroke-linecap="round"></path><path d="M 253.189,320.217 C 246.065,323.519 246.095,323.795 239.605,328.211" stroke-width="4.500" stroke="black" fill="none" stroke-linecap="round"></path><path d="M 239.605,328.211 C 236.108,330.590 233.641,330.810 233.214,333.806" stroke-width="5.382" stroke="black" fill="none" stroke-linecap="round"></path><path d="M 233.214,333.806 C 232.842,336.406 234.699,338.299 238.008,339.402" stroke-width="6.650" stroke="black" fill="none" stroke-linecap="round"></path><path d="M 238.008,339.402 C 246.684,342.296 247.551,341.189 257.184,341.800" stroke-width="4.845" stroke="black" fill="none" stroke-linecap="round"></path><path d="M 257.184,341.800 C 272.720,342.787 272.764,342.600 288.345,342.600" stroke-width="4.500" stroke="black" fill="none" stroke-linecap="round"></path><path d="M 288.345,342.600 C 303.925,342.600 303.923,342.069 319.506,341.800" stroke-width="4.500" stroke="black" fill="none" stroke-linecap="round"></path><path d="M 319.506,341.800 C 327.094,341.670 327.096,341.800 334.687,341.800" stroke-width="4.500" stroke="black" fill="none" stroke-linecap="round"></path><circle r="3" cx="346.67169189453125" cy="370.5790100097656" fill="black"></circle></svg>