<svg xmlns="http://www.w3.org/2000/svg" xmlns:xlink="http://www.w3.org/1999/xlink" viewBox="0 0 576 416" width="576" height="416"><path d="M 131.740,185.954 C 132.939,191.950 133.030,191.933 134.137,197.945" stroke-width="8.284" stroke="black" fill="none" stroke-linecap="round"></path><path d="M 134.137,197.945 C 135.827,207.121 136.476,207.063 137.333,216.332" stroke-width="5.016" stroke="black" fill="none" stroke-linecap="round"></path><path d="M 137.333,216.332 C 138.473,228.647 137.981,228.718 138.132,241.113" stroke-width="4.500" stroke="black" fill="none" stroke-linecap="round"></path><path d="M 138.132,241.113 C 138.381,261.494 138.381,261.502 138.132,281.883" stroke-width="4.500" stroke="black" fill="none" stroke-linecap="round"></path><path d="M 138.132,281.883 C 137.981,294.278 137.896,294.282 137.333,306.664" stroke-width="4.500" stroke="black" fill="none" stroke-linecap="round"></path><path d="M 137.333,306.664 C 137.097,311.869 136.840,311.855 136.534,317.057" stroke-width="4.749" stroke="black" fill="none" stroke-linecap="round"></path><path d="M 136.534,317.057 C 136.041,325.444 136.228,325.456 135.735,333.844" stroke-width="4.591" stroke="black" fill="none" stroke-linecap="round"></path><path d="M 135.735,333.844 C 135.429,339.046 134.826,346.560 134.936,344.236" stroke-width="5.160" stroke="black" fill="none" stroke-linecap="round"></path><path d="M 142.926,201.942 C 148.120,197.546 147.453,196.189 153.313,193.149" stroke-width="7.948" stroke="black" fill="none" stroke-linecap="round"></path><path d="M 153.313,193.149 C 158.240,190.593 158.837,191.299 164.499,190.751" stroke-width="5.957" stroke="black" fill="none" stroke-linecap="round"></path><path d="M 164.499,190.751 C 171.222,190.100 171.329,190.217 178.082,190.751" stroke-width="5.255" stroke="black" fill="none" stroke-linecap="round"></path><path d="M 178.082,190.751 C 186.510,191.416 186.729,191.008 194.861,193.149" stroke-width="4.708" stroke="black" fill="none" stroke-linecap="round"></path><path d="M 194.861,193.149 C 201.910,195.005 202.181,195.071 208.444,198.745" stroke-width="4.879" stroke="black" fill="none" stroke-linecap="round"></path><path d="M 208.444,198.745 C 213.767,201.866 214.786,201.686 218.032,206.739" stroke-width="5.092" stroke="black" fill="none" stroke-linecap="round"></path><path d="M 218.032,206.739 C 221.977,212.878 222.826,214.066 222.826,221.128" stroke-width="5.762" stroke="black" fill="none" stroke-linecap="round"></path><path d="M 222.826,221.128 C 222.826,226.457 221.284,226.897 218.032,231.520" stroke-width="5.488" stroke="black" fill="none" stroke-linecap="round"></path><path d="M 218.032,231.520 C 213.694,237.689 213.272,237.579 207.645,242.712" stroke-width="4.943" stroke="black" fill="none" stroke-linecap="round"></path><path d="M 207.645,242.712 C 199.689,249.970 199.959,250.616 190.866,256.302" stroke-width="4.500" stroke="black" fill="none" stroke-linecap="round"></path><path d="M 190.866,256.302 C 180.783,262.607 180.210,261.808 169.293,266.694" stroke-width="4.500" stroke="black" fill="none" stroke-linecap="round"></path><path d="M 169.293,266.694 C 165.029,268.603 164.913,268.335 160.504,269.892" stroke-width="5.047" stroke="black" fill="none" stroke-linecap="round"></path><path d="M 160.504,269.892 C 158.122,270.733 154.569,271.906 155.710,271.491" stroke-width="6.287" stroke="black" fill="none" stroke-linecap="round"></path><path d="M 255.586,254.703 C 255.186,249.507 256.126,249.136 254.787,244.311" stroke-width="8.440" stroke="black" fill="none" stroke-linecap="round"></path><path d="M 254.787,244.311 C 254.129,241.942 253.466,242.020 251.591,240.314" stroke-width="7.313" stroke="black" fill="none" stroke-linecap="round"></path><path d="M 251.591,240.314 C 249.071,238.023 249.057,237.745 245.998,236.317" stroke-width="6.656" stroke="black" fill="none" stroke-linecap="round"></path><path d="M 245.998,236.317 C 243.065,234.947 242.850,235.124 239.605,234.718" stroke-width="6.536" stroke="black" fill="none" stroke-linecap="round"></path><path d="M 239.605,234.718 C 236.458,234.324 236.255,234.066 233.214,234.718" stroke-width="6.539" stroke="black" fill="none" stroke-linecap="round"></path><path d="M 233.214,234.718 C 230.662,235.265 230.559,235.560 228.419,237.116" stroke-width="6.811" stroke="black" fill="none" stroke-linecap="round"></path><path d="M 228.419,237.116 C 226.164,238.757 225.806,238.694 224.425,241.113" stroke-width="6.771" stroke="black" fill="none" stroke-linecap="round"></path><path d="M 224.425,241.113 C 221.012,247.088 220.160,247.256 218.832,253.904" stroke-width="5.378" stroke="black" fill="none" stroke-linecap="round"></path><path d="M 218.832,253.904 C 217.763,259.247 218.103,259.856 219.630,265.095" stroke-width="5.408" stroke="black" fill="none" stroke-linecap="round"></path><path d="M 219.630,265.095 C 220.899,269.448 221.117,270.489 224.425,273.089" stroke-width="5.685" stroke="black" fill="none" stroke-linecap="round"></path><path d="M 224.425,273.089 C 226.710,274.886 227.799,274.777 230.816,273.889" stroke-width="6.100" stroke="black" fill="none" stroke-linecap="round"></path><path d="M 230.816,273.889 C 241.382,270.780 242.226,271.057 251.591,265.095" stroke-width="4.500" stroke="black" fill="none" stroke-linecap="round"></path><path d="M 251.591,265.095 C 259.804,259.866 259.461,258.889 265.973,251.505" stroke-width="4.500" stroke="black" fill="none" stroke-linecap="round"></path><path d="M 265.973,251.505 C 271.446,245.299 271.229,244.987 275.561,237.916" stroke-width="4.500" stroke="black" fill="none" stroke-linecap="round"></path><path d="M 275.561,237.916 C 278.819,232.596 279.044,232.528 281.154,226.724" stroke-width="5.007" stroke="black" fill="none" stroke-linecap="round"></path><path d="M 281.154,226.724 C 282.240,223.734 282.399,219.585 281.953,220.329" stroke-width="5.982" stroke="black" fill="none" stroke-linecap="round"></path><path d="M 281.953,220.329 C 281.200,221.583 279.178,225.446 278.757,230.721" stroke-width="7.405" stroke="black" fill="none" stroke-linecap="round"></path><path d="M 278.757,230.721 C 278.379,235.439 279.522,235.523 280.355,240.314" stroke-width="6.238" stroke="black" fill="none" stroke-linecap="round"></path><path d="M 280.355,240.314 C 281.120,244.716 281.510,244.678 281.953,249.107" stroke-width="5.906" stroke="black" fill="none" stroke-linecap="round"></path><path d="M 281.953,249.107 C 282.309,252.672 282.602,252.838 281.953,256.302" stroke-width="6.192" stroke="black" fill="none" stroke-linecap="round"></path><path d="M 281.953,256.302 C 281.403,259.233 281.627,260.014 279.556,261.898" stroke-width="6.490" stroke="black" fill="none" stroke-linecap="round"></path><path d="M 279.556,261.898 C 277.232,264.011 276.504,263.782 273.164,264.296" stroke-width="6.442" stroke="black" fill="none" stroke-linecap="round"></path><path d="M 273.164,264.296 C 266.117,265.381 265.977,264.801 258.782,265.095" stroke-width="5.256" stroke="black" fill="none" stroke-linecap="round"></path><path d="M 258.782,265.095 C 246.402,265.601 246.398,265.895 234.013,265.895" stroke-width="4.500" stroke="black" fill="none" stroke-linecap="round"></path><path d="M 234.013,265.895 C 219.631,265.895 219.630,265.525 205.248,265.095" stroke-width="4.500" stroke="black" fill="none" stroke-linecap="round"></path><path d="M 205.248,265.095 C 192.863,264.725 192.863,264.723 180.479,264.296" stroke-width="4.500" stroke="black" fill="none" stroke-linecap="round"></path><path d="M 180.479,264.296 C 169.692,263.924 169.696,263.721 158.906,263.496" stroke-width="4.500" stroke="black" fill="none" stroke-linecap="round"></path><path d="M 158.906,263.496 C 150.520,263.322 150.510,263.270 142.127,263.496" stroke-width="4.500" stroke="black" fill="none" stroke-linecap="round"></path><path d="M 142.127,263.496 C 135.728,263.670 135.726,263.785 129.343,264.296" stroke-width="4.851" stroke="black" fill="none" stroke-linecap="round"></path><path d="M 129.343,264.296 C 125.738,264.584 120.823,265.700 122.152,265.095" stroke-width="5.852" stroke="black" fill="none" stroke-linecap="round"></path><path d="M 122.152,265.095 C 125.218,263.701 130.076,262.460 138.132,260.299" stroke-width="6.738" stroke="black" fill="none" stroke-linecap="round"></path><path d="M 138.132,260.299 C 168.827,252.067 168.866,252.195 199.655,244.311" stroke-width="4.500" stroke="black" fill="none" stroke-linecap="round"></path><path d="M 199.655,244.311 C 235.982,235.008 235.886,234.595 272.365,225.924" stroke-width="4.500" stroke="black" fill="none" stroke-linecap="round"></path><path d="M 272.365,225.924 C 308.195,217.408 308.132,216.962 344.275,209.936" stroke-width="4.500" stroke="black" fill="none" stroke-linecap="round"></path><path d="M 344.275,209.936 C 378.045,203.372 378.098,203.293 412.190,198.745" stroke-width="4.500" stroke="black" fill="none" stroke-linecap="round"></path><path d="M 412.190,198.745 C 438.023,195.299 438.118,195.494 464.125,193.948" stroke-width="4.500" stroke="black" fill="none" stroke-linecap="round"></path><path d="M 464.125,193.948 C 478.468,193.096 478.600,193.283 492.889,193.948" stroke-width="4.500" stroke="black" fill="none" stroke-linecap="round"></path><path d="M 492.889,193.948 C 495.779,194.083 499.726,194.868 498.482,195.547" stroke-width="4.740" stroke="black" fill="none" stroke-linecap="round"></path><path d="M 498.482,195.547 C 495.331,197.267 491.347,197.434 484.100,198.745" stroke-width="5.722" stroke="black" fill="none" stroke-linecap="round"></path><path d="M 484.100,198.745 C 458.189,203.430 458.152,203.260 432.165,207.538" stroke-width="4.500" stroke="black" fill="none" stroke-linecap="round"></path><path d="M 432.165,207.538 C 395.031,213.652 394.915,212.987 357.858,219.529" stroke-width="4.500" stroke="black" fill="none" stroke-linecap="round"></path><path d="M 357.858,219.529 C 320.208,226.177 320.165,226.060 282.752,233.919" stroke-width="4.500" stroke="black" fill="none" stroke-linecap="round"></path><path d="M 282.752,233.919 C 247.855,241.249 247.843,241.306 213.238,249.907" stroke-width="4.500" stroke="black" fill="none" stroke-linecap="round"></path><path d="M 213.238,249.907 C 185.121,256.895 185.321,257.683 157.308,265.095" stroke-width="4.500" stroke="black" fill="none" stroke-linecap="round"></path><path d="M 157.308,265.095 C 136.982,270.474 136.986,270.509 116.559,275.488" stroke-width="4.500" stroke="black" fill="none" stroke-linecap="round"></path><path d="M 116.559,275.488 C 105.825,278.104 105.773,277.886 94.986,280.284" stroke-width="4.500" stroke="black" fill="none" stroke-linecap="round"></path><path d="M 94.986,280.284 C 91.391,281.083 88.242,281.883 87.795,281.883" stroke-width="4.899" stroke="black" fill="none" stroke-linecap="round"></path><path d="M 87.795,281.883 C 87.443,281.883 90.570,281.001 93.388,280.284" stroke-width="6.565" stroke="black" fill="none" stroke-linecap="round"></path><path d="M 93.388,280.284 C 114.140,275.005 114.104,274.847 134.936,269.892" stroke-width="4.500" stroke="black" fill="none" stroke-linecap="round"></path><path d="M 134.936,269.892 C 171.233,261.257 171.003,259.939 207.645,253.104" stroke-width="4.500" stroke="black" fill="none" stroke-linecap="round"></path><path d="M 207.645,253.104 C 241.714,246.749 241.881,247.072 276.360,243.511" stroke-width="4.500" stroke="black" fill="none" stroke-linecap="round"></path><path d="M 276.360,243.511 C 303.803,240.677 303.906,241.257 331.491,240.314" stroke-width="4.500" stroke="black" fill="none" stroke-linecap="round"></path><path d="M 331.491,240.314 C 350.648,239.659 350.796,239.009 369.843,240.314" stroke-width="4.500" stroke="black" fill="none" stroke-linecap="round"></path><path d="M 369.843,240.314 C 379.960,241.007 381.983,240.548 389.818,244.311" stroke-width="4.500" stroke="black" fill="none" stroke-linecap="round"></path><path d="M 389.818,244.311 C 391.970,245.344 391.714,248.309 389.818,249.907" stroke-width="5.574" stroke="black" fill="none" stroke-linecap="round"></path><path d="M 389.818,249.907 C 384.124,254.704 382.437,253.996 374.637,257.101" stroke-width="4.797" stroke="black" fill="none" stroke-linecap="round"></path><path d="M 374.637,257.101 C 345.283,268.785 345.074,268.293 315.511,279.485" stroke-width="4.500" stroke="black" fill="none" stroke-linecap="round"></path></svg>