<svg xmlns="http://www.w3.org/2000/svg" xmlns:xlink="http://www.w3.org/1999/xlink" viewBox="0 0 576 416" width="576" height="416"><path d="M 89.393,371.416 C 90.991,367.419 90.951,367.402 92.589,363.422" stroke-width="8.287" stroke="black" fill="none" stroke-linecap="round"></path><path d="M 92.589,363.422 C 93.748,360.607 93.584,360.524 94.986,357.826" stroke-width="7.051" stroke="black" fill="none" stroke-linecap="round"></path><path d="M 94.986,357.826 C 98.778,350.532 99.249,350.771 102.976,343.437" stroke-width="5.112" stroke="black" fill="none" stroke-linecap="round"></path><path d="M 102.976,343.437 C 111.234,327.188 110.975,327.053 118.956,310.661" stroke-width="4.500" stroke="black" fill="none" stroke-linecap="round"></path><path d="M 118.956,310.661 C 126.156,295.876 125.987,295.793 133.338,281.083" stroke-width="4.500" stroke="black" fill="none" stroke-linecap="round"></path><path d="M 133.338,281.083 C 141.568,264.616 141.646,264.653 150.117,248.308" stroke-width="4.500" stroke="black" fill="none" stroke-linecap="round"></path><path d="M 150.117,248.308 C 158.425,232.277 158.185,232.142 166.896,216.332" stroke-width="4.500" stroke="black" fill="none" stroke-linecap="round"></path><path d="M 166.896,216.332 C 175.363,200.965 175.273,200.889 184.474,185.954" stroke-width="4.500" stroke="black" fill="none" stroke-linecap="round"></path><path d="M 184.474,185.954 C 193.251,171.710 192.999,171.484 202.851,157.975" stroke-width="4.500" stroke="black" fill="none" stroke-linecap="round"></path><path d="M 202.851,157.975 C 214.572,141.906 214.733,141.955 227.620,126.798" stroke-width="4.500" stroke="black" fill="none" stroke-linecap="round"></path><path d="M 227.620,126.798 C 237.504,115.175 237.086,114.525 248.395,104.415" stroke-width="4.500" stroke="black" fill="none" stroke-linecap="round"></path><path d="M 248.395,104.415 C 255.863,97.738 256.187,97.354 265.174,93.224" stroke-width="4.500" stroke="black" fill="none" stroke-linecap="round"></path><path d="M 265.174,93.224 C 270.969,90.560 271.969,89.938 277.958,90.825" stroke-width="4.591" stroke="black" fill="none" stroke-linecap="round"></path><path d="M 277.958,90.825 C 282.755,91.536 285.187,91.999 286.747,96.421" stroke-width="5.161" stroke="black" fill="none" stroke-linecap="round"></path><path d="M 286.747,96.421 C 289.981,105.589 288.261,107.262 287.546,118.005" stroke-width="5.396" stroke="black" fill="none" stroke-linecap="round"></path><path d="M 287.546,118.005 C 286.264,137.239 285.783,137.289 282.752,156.376" stroke-width="4.500" stroke="black" fill="none" stroke-linecap="round"></path><path d="M 282.752,156.376 C 278.991,180.057 278.381,179.963 273.963,203.541" stroke-width="4.500" stroke="black" fill="none" stroke-linecap="round"></path><path d="M 273.963,203.541 C 269.992,224.730 269.263,224.619 265.973,245.910" stroke-width="4.500" stroke="black" fill="none" stroke-linecap="round"></path><path d="M 265.973,245.910 C 263.271,263.390 263.299,263.449 261.978,281.083" stroke-width="4.500" stroke="black" fill="none" stroke-linecap="round"></path><path d="M 261.978,281.083 C 260.902,295.425 260.463,295.549 261.179,309.862" stroke-width="4.500" stroke="black" fill="none" stroke-linecap="round"></path><path d="M 261.179,309.862 C 261.662,319.531 261.033,320.213 264.375,329.048" stroke-width="4.500" stroke="black" fill="none" stroke-linecap="round"></path><path d="M 264.375,329.048 C 266.626,335.002 267.543,336.224 272.365,339.440" stroke-width="4.624" stroke="black" fill="none" stroke-linecap="round"></path><path d="M 272.365,339.440 C 274.734,341.020 275.926,340.091 278.757,338.640" stroke-width="5.809" stroke="black" fill="none" stroke-linecap="round"></path><path d="M 278.757,338.640 C 292.306,331.697 292.769,331.796 305.124,322.652" stroke-width="4.500" stroke="black" fill="none" stroke-linecap="round"></path><path d="M 305.124,322.652 C 321.933,310.212 321.662,309.668 337.084,295.473" stroke-width="4.500" stroke="black" fill="none" stroke-linecap="round"></path><path d="M 337.084,295.473 C 351.625,282.088 350.959,281.374 365.049,267.494" stroke-width="4.500" stroke="black" fill="none" stroke-linecap="round"></path><path d="M 365.049,267.494 C 376.926,255.793 376.783,255.629 389.019,244.311" stroke-width="4.500" stroke="black" fill="none" stroke-linecap="round"></path><path d="M 389.019,244.311 C 397.957,236.043 398.065,236.145 407.396,228.323" stroke-width="4.500" stroke="black" fill="none" stroke-linecap="round"></path><path d="M 407.396,228.323 C 412.846,223.754 419.218,218.097 418.582,219.529" stroke-width="4.500" stroke="black" fill="none" stroke-linecap="round"></path><path d="M 418.582,219.529 C 417.620,221.694 411.721,227.842 404.200,235.517" stroke-width="5.581" stroke="black" fill="none" stroke-linecap="round"></path><path d="M 404.200,235.517 C 391.746,248.227 391.216,247.709 378.632,260.299" stroke-width="4.500" stroke="black" fill="none" stroke-linecap="round"></path><path d="M 378.632,260.299 C 367.645,271.291 367.517,271.198 357.059,282.682" stroke-width="4.500" stroke="black" fill="none" stroke-linecap="round"></path><path d="M 357.059,282.682 C 351.137,289.185 350.919,289.144 345.873,296.272" stroke-width="4.500" stroke="black" fill="none" stroke-linecap="round"></path><path d="M 345.873,296.272 C 344.127,298.737 342.534,301.114 343.476,301.868" stroke-width="5.529" stroke="black" fill="none" stroke-linecap="round"></path><path d="M 343.476,301.868 C 344.532,302.713 346.780,300.921 349.868,299.470" stroke-width="6.190" stroke="black" fill="none" stroke-linecap="round"></path><path d="M 349.868,299.470 C 373.147,288.530 373.608,289.342 396.210,277.086" stroke-width="4.500" stroke="black" fill="none" stroke-linecap="round"></path><path d="M 396.210,277.086 C 425.943,260.963 425.834,260.633 454.537,242.712" stroke-width="4.500" stroke="black" fill="none" stroke-linecap="round"></path><path d="M 454.537,242.712 C 478.968,227.458 478.820,227.173 502.477,210.736" stroke-width="4.500" stroke="black" fill="none" stroke-linecap="round"></path><path d="M 502.477,210.736 C 521.966,197.195 523.041,198.232 540.829,182.757" stroke-width="4.500" stroke="black" fill="none" stroke-linecap="round"></path><path d="M 540.829,182.757 C 550.607,174.250 550.009,173.226 557.608,162.772" stroke-width="4.500" stroke="black" fill="none" stroke-linecap="round"></path><path d="M 557.608,162.772 C 559.597,160.036 560.005,159.511 560.005,156.376" stroke-width="4.808" stroke="black" fill="none" stroke-linecap="round"></path><path d="M 560.005,156.376 C 560.005,153.915 559.940,152.444 557.608,151.580" stroke-width="6.071" stroke="black" fill="none" stroke-linecap="round"></path><path d="M 557.608,151.580 C 549.153,148.447 548.110,149.011 538.432,148.382" stroke-width="4.627" stroke="black" fill="none" stroke-linecap="round"></path><path d="M 538.432,148.382 C 517.348,147.013 517.254,147.397 496.085,147.583" stroke-width="4.500" stroke="black" fill="none" stroke-linecap="round"></path><path d="M 496.085,147.583 C 471.711,147.797 471.709,148.222 447.346,149.182" stroke-width="4.500" stroke="black" fill="none" stroke-linecap="round"></path><path d="M 447.346,149.182 C 420.973,150.221 420.968,150.182 394.612,151.580" stroke-width="4.500" stroke="black" fill="none" stroke-linecap="round"></path><path d="M 394.612,151.580 C 368.234,152.980 368.217,152.811 341.878,154.778" stroke-width="4.500" stroke="black" fill="none" stroke-linecap="round"></path><path d="M 341.878,154.778 C 314.684,156.808 314.663,156.708 287.546,159.574" stroke-width="4.500" stroke="black" fill="none" stroke-linecap="round"></path><path d="M 287.546,159.574 C 257.933,162.704 257.989,163.227 228.419,166.769" stroke-width="4.500" stroke="black" fill="none" stroke-linecap="round"></path><path d="M 228.419,166.769 C 201.260,170.022 201.248,169.919 174.087,173.164" stroke-width="4.500" stroke="black" fill="none" stroke-linecap="round"></path><path d="M 174.087,173.164 C 147.715,176.314 147.769,176.832 121.353,179.559" stroke-width="4.500" stroke="black" fill="none" stroke-linecap="round"></path><path d="M 121.353,179.559 C 97.431,182.028 97.371,181.416 73.413,183.556" stroke-width="4.500" stroke="black" fill="none" stroke-linecap="round"></path><path d="M 73.413,183.556 C 52.626,185.413 52.576,185.041 31.865,187.553" stroke-width="4.500" stroke="black" fill="none" stroke-linecap="round"></path><path d="M 31.865,187.553 C 13.026,189.838 12.880,189.349 -5.688,193.149" stroke-width="4.500" stroke="black" fill="none" stroke-linecap="round"></path><path d="M -5.688,193.149 C -22.276,196.544 -22.067,197.546 -38.447,201.942" stroke-width="4.500" stroke="black" fill="none" stroke-linecap="round"></path></svg>