<svg xmlns="http://www.w3.org/2000/svg" xmlns:xlink="http://www.w3.org/1999/xlink" viewBox="0 0 576 416" width="576" height="416"><path d="M 196.459,239.714 C 196.060,234.518 196.395,234.464 195.660,229.322" stroke-width="8.150" stroke="black" fill="none" stroke-linecap="round"></path><path d="M 195.660,229.322 C 195.196,226.070 195.053,226.066 194.062,222.927" stroke-width="6.820" stroke="black" fill="none" stroke-linecap="round"></path><path d="M 194.062,222.927 C 192.656,218.472 192.570,218.489 190.866,214.134" stroke-width="6.165" stroke="black" fill="none" stroke-linecap="round"></path><path d="M 190.866,214.134 C 188.974,209.296 188.963,209.296 186.871,204.541" stroke-width="5.748" stroke="black" fill="none" stroke-linecap="round"></path><path d="M 186.871,204.541 C 184.568,199.303 184.126,199.478 182.077,194.148" stroke-width="5.484" stroke="black" fill="none" stroke-linecap="round"></path><path d="M 182.077,194.148 C 180.131,189.085 180.293,189.002 178.881,183.756" stroke-width="5.572" stroke="black" fill="none" stroke-linecap="round"></path><path d="M 178.881,183.756 C 177.497,178.610 177.115,178.625 176.484,173.364" stroke-width="5.543" stroke="black" fill="none" stroke-linecap="round"></path><path d="M 176.484,173.364 C 175.917,168.632 176.033,168.518 176.484,163.771" stroke-width="5.910" stroke="black" fill="none" stroke-linecap="round"></path><path d="M 176.484,163.771 C 176.832,160.124 177.135,160.133 178.082,156.576" stroke-width="6.163" stroke="black" fill="none" stroke-linecap="round"></path><path d="M 178.082,156.576 C 178.733,154.137 178.185,153.776 179.680,151.780" stroke-width="6.621" stroke="black" fill="none" stroke-linecap="round"></path><path d="M 179.680,151.780 C 185.376,144.183 184.926,142.937 192.464,137.391" stroke-width="4.616" stroke="black" fill="none" stroke-linecap="round"></path><path d="M 192.464,137.391 C 198.509,132.944 199.503,134.115 206.846,131.795" stroke-width="4.592" stroke="black" fill="none" stroke-linecap="round"></path><path d="M 206.846,131.795 C 214.684,129.319 214.756,129.144 222.826,127.798" stroke-width="4.500" stroke="black" fill="none" stroke-linecap="round"></path><path d="M 222.826,127.798 C 226.741,127.145 226.877,127.235 230.816,127.798" stroke-width="5.516" stroke="black" fill="none" stroke-linecap="round"></path><path d="M 230.816,127.798 C 240.860,129.233 241.178,128.758 250.792,131.795" stroke-width="4.500" stroke="black" fill="none" stroke-linecap="round"></path><path d="M 250.792,131.795 C 256.359,133.554 256.429,133.996 261.179,137.391" stroke-width="5.016" stroke="black" fill="none" stroke-linecap="round"></path><path d="M 261.179,137.391 C 264.818,139.992 265.059,140.114 267.571,143.786" stroke-width="5.421" stroke="black" fill="none" stroke-linecap="round"></path><path d="M 267.571,143.786 C 270.253,147.708 270.473,147.987 271.566,152.579" stroke-width="5.553" stroke="black" fill="none" stroke-linecap="round"></path><path d="M 271.566,152.579 C 272.470,156.381 273.164,157.109 271.566,160.573" stroke-width="5.939" stroke="black" fill="none" stroke-linecap="round"></path><path d="M 271.566,160.573 C 268.370,167.501 267.530,167.809 261.978,173.364" stroke-width="6.066" stroke="black" fill="none" stroke-linecap="round"></path><path d="M 261.978,173.364 C 258.741,176.602 258.067,175.916 253.988,178.160" stroke-width="5.887" stroke="black" fill="none" stroke-linecap="round"></path><path d="M 253.988,178.160 C 250.077,180.312 250.191,180.832 245.998,182.157" stroke-width="5.896" stroke="black" fill="none" stroke-linecap="round"></path><path d="M 245.998,182.157 C 242.601,183.230 242.414,182.767 238.806,182.957" stroke-width="6.182" stroke="black" fill="none" stroke-linecap="round"></path><path d="M 238.806,182.957 C 234.823,183.167 231.021,182.341 230.816,182.957" stroke-width="6.941" stroke="black" fill="none" stroke-linecap="round"></path><path d="M 230.816,182.957 C 230.622,183.541 234.701,183.604 238.008,185.355" stroke-width="7.812" stroke="black" fill="none" stroke-linecap="round"></path><path d="M 238.008,185.355 C 241.493,187.201 241.053,187.985 244.400,190.151" stroke-width="6.547" stroke="black" fill="none" stroke-linecap="round"></path><path d="M 244.400,190.151 C 247.845,192.382 248.031,192.087 251.591,194.148" stroke-width="6.202" stroke="black" fill="none" stroke-linecap="round"></path><path d="M 251.591,194.148 C 255.622,196.484 255.536,196.633 259.581,198.945" stroke-width="5.925" stroke="black" fill="none" stroke-linecap="round"></path><path d="M 259.581,198.945 C 263.926,201.429 263.772,201.825 268.370,203.741" stroke-width="5.740" stroke="black" fill="none" stroke-linecap="round"></path><path d="M 268.370,203.741 C 273.360,205.822 273.468,205.763 278.757,206.939" stroke-width="5.563" stroke="black" fill="none" stroke-linecap="round"></path><path d="M 278.757,206.939 C 284.255,208.161 284.328,208.337 289.943,208.538" stroke-width="5.452" stroke="black" fill="none" stroke-linecap="round"></path><path d="M 289.943,208.538 C 295.514,208.737 295.655,208.798 301.129,207.738" stroke-width="5.432" stroke="black" fill="none" stroke-linecap="round"></path><path d="M 301.129,207.738 C 308.039,206.400 308.199,206.424 314.712,203.741" stroke-width="5.056" stroke="black" fill="none" stroke-linecap="round"></path><path d="M 314.712,203.741 C 321.782,200.829 322.167,201.042 328.295,196.547" stroke-width="4.821" stroke="black" fill="none" stroke-linecap="round"></path><path d="M 328.295,196.547 C 334.152,192.249 333.935,191.729 338.682,186.154" stroke-width="4.825" stroke="black" fill="none" stroke-linecap="round"></path><path d="M 338.682,186.154 C 343.124,180.937 343.449,180.951 346.672,174.963" stroke-width="4.929" stroke="black" fill="none" stroke-linecap="round"></path><path d="M 346.672,174.963 C 349.042,170.559 349.680,170.244 349.868,165.370" stroke-width="5.408" stroke="black" fill="none" stroke-linecap="round"></path><path d="M 349.868,165.370 C 350.080,159.852 350.120,158.757 347.471,154.178" stroke-width="6.272" stroke="black" fill="none" stroke-linecap="round"></path><path d="M 347.471,154.178 C 345.726,151.162 344.490,151.674 341.079,150.181" stroke-width="6.246" stroke="black" fill="none" stroke-linecap="round"></path><path d="M 341.079,150.181 C 338.098,148.876 337.928,149.123 334.687,148.582" stroke-width="6.412" stroke="black" fill="none" stroke-linecap="round"></path><path d="M 334.687,148.582 C 330.737,147.924 330.683,147.783 326.697,147.783" stroke-width="6.200" stroke="black" fill="none" stroke-linecap="round"></path><path d="M 326.697,147.783 C 323.892,147.783 323.675,147.593 321.104,148.582" stroke-width="6.578" stroke="black" fill="none" stroke-linecap="round"></path><path d="M 321.104,148.582 C 318.481,149.592 317.694,149.426 316.310,151.780" stroke-width="6.744" stroke="black" fill="none" stroke-linecap="round"></path><path d="M 316.310,151.780 C 313.699,156.221 313.902,156.913 313.114,162.172" stroke-width="6.762" stroke="black" fill="none" stroke-linecap="round"></path><path d="M 313.114,162.172 C 312.704,164.907 313.031,165.121 313.913,167.768" stroke-width="6.757" stroke="black" fill="none" stroke-linecap="round"></path><path d="M 313.913,167.768 C 315.028,171.116 315.189,171.176 317.109,174.163" stroke-width="6.456" stroke="black" fill="none" stroke-linecap="round"></path><path d="M 317.109,174.163 C 318.785,176.772 318.908,176.763 321.104,178.960" stroke-width="6.544" stroke="black" fill="none" stroke-linecap="round"></path><path d="M 321.104,178.960 C 322.903,180.760 322.895,180.897 325.099,182.157" stroke-width="6.862" stroke="black" fill="none" stroke-linecap="round"></path><path d="M 325.099,182.157 C 328.488,184.095 328.569,184.657 332.290,185.355" stroke-width="7.141" stroke="black" fill="none" stroke-linecap="round"></path><path d="M 332.290,185.355 C 334.961,185.856 335.367,183.926 337.883,184.556" stroke-width="7.788" stroke="black" fill="none" stroke-linecap="round"></path><path d="M 337.883,184.556 C 340.161,185.125 339.898,186.133 341.878,187.753" stroke-width="8.186" stroke="black" fill="none" stroke-linecap="round"></path><path d="M 341.878,187.753 C 344.292,189.730 344.471,192.379 346.672,191.750" stroke-width="8.068" stroke="black" fill="none" stroke-linecap="round"></path><path d="M 346.672,191.750 C 350.064,190.780 350.979,188.727 353.064,184.556" stroke-width="7.714" stroke="black" fill="none" stroke-linecap="round"></path><path d="M 353.064,184.556 C 355.374,179.933 354.586,179.416 355.461,174.163" stroke-width="6.044" stroke="black" fill="none" stroke-linecap="round"></path><path d="M 355.461,174.163 C 356.583,167.425 356.475,167.387 357.059,160.573" stroke-width="5.263" stroke="black" fill="none" stroke-linecap="round"></path><path d="M 357.059,160.573 C 357.673,153.397 357.458,153.379 357.858,146.184" stroke-width="5.075" stroke="black" fill="none" stroke-linecap="round"></path><path d="M 357.858,146.184 C 358.257,138.990 358.467,138.995 358.657,131.795" stroke-width="4.930" stroke="black" fill="none" stroke-linecap="round"></path><path d="M 358.657,131.795 C 358.867,123.807 358.872,123.795 358.657,115.807" stroke-width="4.722" stroke="black" fill="none" stroke-linecap="round"></path><path d="M 358.657,115.807 C 358.473,109.006 358.473,108.992 357.858,102.217" stroke-width="4.820" stroke="black" fill="none" stroke-linecap="round"></path><path d="M 357.858,102.217 C 357.275,95.802 357.519,95.728 356.260,89.427" stroke-width="5.109" stroke="black" fill="none" stroke-linecap="round"></path><path d="M 356.260,89.427 C 355.122,83.737 354.692,83.822 353.064,78.235" stroke-width="5.179" stroke="black" fill="none" stroke-linecap="round"></path><path d="M 353.064,78.235 C 351.896,74.229 352.053,74.170 350.667,70.241" stroke-width="5.822" stroke="black" fill="none" stroke-linecap="round"></path><path d="M 350.667,70.241 C 349.656,67.375 350.170,64.818 348.270,64.645" stroke-width="6.363" stroke="black" fill="none" stroke-linecap="round"></path><path d="M 348.270,64.645 C 345.775,64.418 343.438,66.146 341.878,69.441" stroke-width="7.451" stroke="black" fill="none" stroke-linecap="round"></path><path d="M 341.878,69.441 C 339.843,73.740 341.264,74.629 341.079,79.834" stroke-width="6.132" stroke="black" fill="none" stroke-linecap="round"></path><path d="M 341.079,79.834 C 340.865,85.821 340.706,85.851 341.079,91.825" stroke-width="5.406" stroke="black" fill="none" stroke-linecap="round"></path><path d="M 341.079,91.825 C 341.505,98.642 341.583,98.666 342.677,105.415" stroke-width="5.105" stroke="black" fill="none" stroke-linecap="round"></path><path d="M 342.677,105.415 C 343.980,113.455 343.561,113.625 345.873,121.403" stroke-width="4.736" stroke="black" fill="none" stroke-linecap="round"></path><path d="M 345.873,121.403 C 347.956,128.413 348.273,128.391 351.466,134.993" stroke-width="4.800" stroke="black" fill="none" stroke-linecap="round"></path><path d="M 351.466,134.993 C 354.266,140.782 354.155,140.954 357.858,146.184" stroke-width="5.019" stroke="black" fill="none" stroke-linecap="round"></path><path d="M 357.858,146.184 C 360.947,150.547 361.062,150.633 365.049,154.178" stroke-width="5.355" stroke="black" fill="none" stroke-linecap="round"></path><path d="M 365.049,154.178 C 368.253,157.028 368.314,157.666 372.240,158.975" stroke-width="5.769" stroke="black" fill="none" stroke-linecap="round"></path><path d="M 372.240,158.975 C 375.505,160.064 375.911,159.444 379.431,158.975" stroke-width="6.147" stroke="black" fill="none" stroke-linecap="round"></path><path d="M 379.431,158.975 C 381.904,158.645 382.325,158.941 384.225,157.376" stroke-width="6.680" stroke="black" fill="none" stroke-linecap="round"></path><path d="M 384.225,157.376 C 389.116,153.345 388.981,152.871 393.014,147.783" stroke-width="5.488" stroke="black" fill="none" stroke-linecap="round"></path><path d="M 393.014,147.783 C 398.169,141.279 398.676,141.459 402.602,134.193" stroke-width="4.795" stroke="black" fill="none" stroke-linecap="round"></path><path d="M 402.602,134.193 C 406.666,126.670 406.472,126.403 408.994,118.205" stroke-width="4.564" stroke="black" fill="none" stroke-linecap="round"></path><path d="M 408.994,118.205 C 411.266,110.815 411.382,110.693 412.190,103.016" stroke-width="4.661" stroke="black" fill="none" stroke-linecap="round"></path><path d="M 412.190,103.016 C 412.980,95.504 412.677,95.382 412.190,87.828" stroke-width="4.725" stroke="black" fill="none" stroke-linecap="round"></path><path d="M 412.190,87.828 C 411.878,82.991 411.896,82.894 410.592,78.235" stroke-width="5.383" stroke="black" fill="none" stroke-linecap="round"></path><path d="M 410.592,78.235 C 409.099,72.901 408.997,72.846 406.597,67.843" stroke-width="5.422" stroke="black" fill="none" stroke-linecap="round"></path><path d="M 406.597,67.843 C 404.203,62.853 403.575,63.161 401.004,58.250" stroke-width="5.437" stroke="black" fill="none" stroke-linecap="round"></path><path d="M 401.004,58.250 C 399.181,54.768 399.653,54.517 397.808,51.055" stroke-width="5.918" stroke="black" fill="none" stroke-linecap="round"></path><path d="M 397.808,51.055 C 396.457,48.521 394.968,44.951 394.612,46.259" stroke-width="6.520" stroke="black" fill="none" stroke-linecap="round"></path><path d="M 394.612,46.259 C 393.770,49.348 394.425,53.139 395.411,59.849" stroke-width="7.164" stroke="black" fill="none" stroke-linecap="round"></path><path d="M 395.411,59.849 C 396.422,66.729 396.641,66.751 398.607,73.438" stroke-width="5.556" stroke="black" fill="none" stroke-linecap="round"></path><path d="M 398.607,73.438 C 400.636,80.341 401.124,80.194 403.401,87.028" stroke-width="5.058" stroke="black" fill="none" stroke-linecap="round"></path><path d="M 403.401,87.028 C 405.518,93.384 405.093,93.536 407.396,99.819" stroke-width="4.945" stroke="black" fill="none" stroke-linecap="round"></path><path d="M 407.396,99.819 C 409.488,105.527 409.739,105.438 412.190,111.010" stroke-width="5.151" stroke="black" fill="none" stroke-linecap="round"></path><path d="M 412.190,111.010 C 414.134,115.431 414.028,115.489 416.185,119.804" stroke-width="5.549" stroke="black" fill="none" stroke-linecap="round"></path><path d="M 416.185,119.804 C 417.624,122.683 417.142,123.384 419.381,125.400" stroke-width="6.199" stroke="black" fill="none" stroke-linecap="round"></path><path d="M 419.381,125.400 C 421.137,126.981 422.794,128.486 424.175,126.999" stroke-width="7.260" stroke="black" fill="none" stroke-linecap="round"></path><path d="M 424.175,126.999 C 427.988,122.890 427.503,120.779 429.768,114.208" stroke-width="6.621" stroke="black" fill="none" stroke-linecap="round"></path><path d="M 429.768,114.208 C 431.498,109.188 431.159,109.049 432.165,103.816" stroke-width="5.818" stroke="black" fill="none" stroke-linecap="round"></path><path d="M 432.165,103.816 C 433.156,98.657 433.161,98.642 433.763,93.424" stroke-width="5.635" stroke="black" fill="none" stroke-linecap="round"></path><path d="M 433.763,93.424 C 434.359,88.250 434.336,88.234 434.562,83.031" stroke-width="5.596" stroke="black" fill="none" stroke-linecap="round"></path><path d="M 434.562,83.031 C 434.735,79.041 434.562,79.034 434.562,75.037" stroke-width="6.027" stroke="black" fill="none" stroke-linecap="round"></path><path d="M 434.562,75.037 C 434.562,70.241 432.648,65.619 434.562,65.444" stroke-width="6.659" stroke="black" fill="none" stroke-linecap="round"></path><path d="M 434.562,65.444 C 437.042,65.219 439.072,69.732 443.351,74.238" stroke-width="7.308" stroke="black" fill="none" stroke-linecap="round"></path><path d="M 443.351,74.238 C 446.663,77.726 446.347,78.035 449.743,81.433" stroke-width="6.038" stroke="black" fill="none" stroke-linecap="round"></path><path d="M 449.743,81.433 C 453.138,84.830 453.419,84.545 456.934,87.828" stroke-width="5.831" stroke="black" fill="none" stroke-linecap="round"></path><path d="M 456.934,87.828 C 459.411,90.141 459.005,90.678 461.728,92.624" stroke-width="6.240" stroke="black" fill="none" stroke-linecap="round"></path><path d="M 461.728,92.624 C 464.598,94.675 466.803,96.951 468.120,95.822" stroke-width="7.032" stroke="black" fill="none" stroke-linecap="round"></path><path d="M 468.120,95.822 C 469.600,94.553 468.143,91.734 467.321,87.828" stroke-width="7.536" stroke="black" fill="none" stroke-linecap="round"></path><path d="M 467.321,87.828 C 466.545,84.140 466.054,84.252 464.924,80.633" stroke-width="6.567" stroke="black" fill="none" stroke-linecap="round"></path><path d="M 464.924,80.633 C 464.057,77.856 464.181,77.818 463.326,75.037" stroke-width="6.663" stroke="black" fill="none" stroke-linecap="round"></path><path d="M 463.326,75.037 C 462.583,72.622 461.397,69.910 461.728,70.241" stroke-width="6.852" stroke="black" fill="none" stroke-linecap="round"></path><path d="M 461.728,70.241 C 462.196,70.709 463.518,73.354 464.924,76.636" stroke-width="7.873" stroke="black" fill="none" stroke-linecap="round"></path><path d="M 464.924,76.636 C 467.113,81.748 467.343,81.707 468.919,87.028" stroke-width="6.098" stroke="black" fill="none" stroke-linecap="round"></path><path d="M 468.919,87.028 C 470.539,92.499 471.490,92.629 471.316,98.220" stroke-width="5.476" stroke="black" fill="none" stroke-linecap="round"></path><path d="M 471.316,98.220 C 471.091,105.420 471.698,106.344 468.120,112.609" stroke-width="5.000" stroke="black" fill="none" stroke-linecap="round"></path><path d="M 468.120,112.609 C 460.512,125.929 460.823,127.487 448.944,137.391" stroke-width="4.500" stroke="black" fill="none" stroke-linecap="round"></path><path d="M 448.944,137.391 C 427.265,155.466 426.277,155.456 401.004,168.567" stroke-width="4.500" stroke="black" fill="none" stroke-linecap="round"></path><path d="M 401.004,168.567 C 372.345,183.435 371.345,181.744 341.079,193.349" stroke-width="4.500" stroke="black" fill="none" stroke-linecap="round"></path><path d="M 341.079,193.349 C 304.628,207.325 304.524,207.125 267.571,219.729" stroke-width="4.500" stroke="black" fill="none" stroke-linecap="round"></path><path d="M 267.571,219.729 C 234.212,231.107 234.209,231.182 200.454,241.313" stroke-width="4.500" stroke="black" fill="none" stroke-linecap="round"></path><path d="M 200.454,241.313 C 174.284,249.168 174.422,250.459 147.720,255.702" stroke-width="4.500" stroke="black" fill="none" stroke-linecap="round"></path><path d="M 147.720,255.702 C 131.675,258.853 130.326,260.663 114.961,258.101" stroke-width="4.500" stroke="black" fill="none" stroke-linecap="round"></path><path d="M 114.961,258.101 C 106.356,256.666 102.331,254.999 99.780,247.708" stroke-width="4.500" stroke="black" fill="none" stroke-linecap="round"></path><path d="M 99.780,247.708 C 96.737,239.010 99.513,236.018 103.775,226.125" stroke-width="4.500" stroke="black" fill="none" stroke-linecap="round"></path><path d="M 103.775,226.125 C 109.501,212.835 110.186,212.495 119.755,201.343" stroke-width="4.500" stroke="black" fill="none" stroke-linecap="round"></path><path d="M 119.755,201.343 C 146.541,170.127 145.471,168.235 176.484,141.388" stroke-width="4.500" stroke="black" fill="none" stroke-linecap="round"></path><path d="M 176.484,141.388 C 201.801,119.472 203.488,120.974 232.415,103.816" stroke-width="4.500" stroke="black" fill="none" stroke-linecap="round"></path><path d="M 232.415,103.816 C 259.418,87.798 259.624,87.689 288.345,75.037" stroke-width="4.500" stroke="black" fill="none" stroke-linecap="round"></path><path d="M 288.345,75.037 C 313.157,64.107 313.412,64.007 339.481,56.651" stroke-width="4.500" stroke="black" fill="none" stroke-linecap="round"></path><path d="M 339.481,56.651 C 360.154,50.817 360.549,51.534 381.828,48.657" stroke-width="4.500" stroke="black" fill="none" stroke-linecap="round"></path><path d="M 381.828,48.657 C 390.112,47.537 390.823,46.154 398.607,48.657" stroke-width="4.500" stroke="black" fill="none" stroke-linecap="round"></path><path d="M 398.607,48.657 C 413.195,53.349 418.762,52.392 426.572,63.046" stroke-width="4.500" stroke="black" fill="none" stroke-linecap="round"></path><path d="M 426.572,63.046 C 431.946,70.378 428.560,74.922 424.974,84.630" stroke-width="4.500" stroke="black" fill="none" stroke-linecap="round"></path><path d="M 424.974,84.630 C 421.768,93.309 419.778,92.948 412.989,99.819" stroke-width="4.500" stroke="black" fill="none" stroke-linecap="round"></path><path d="M 412.989,99.819 C 385.022,128.122 384.873,128.110 355.461,154.978" stroke-width="4.500" stroke="black" fill="none" stroke-linecap="round"></path><path d="M 355.461,154.978 C 329.741,178.472 328.526,177.138 302.727,200.544" stroke-width="4.500" stroke="black" fill="none" stroke-linecap="round"></path><path d="M 302.727,200.544 C 281.385,219.906 280.735,219.442 261.179,240.514" stroke-width="4.500" stroke="black" fill="none" stroke-linecap="round"></path><path d="M 261.179,240.514 C 249.574,253.017 247.871,253.029 240.405,267.694" stroke-width="4.500" stroke="black" fill="none" stroke-linecap="round"></path><path d="M 240.405,267.694 C 237.085,274.213 237.235,276.715 239.605,282.882" stroke-width="4.500" stroke="black" fill="none" stroke-linecap="round"></path><path d="M 239.605,282.882 C 241.230,287.107 243.527,288.937 248.395,288.478" stroke-width="4.880" stroke="black" fill="none" stroke-linecap="round"></path><path d="M 248.395,288.478 C 264.700,286.939 265.222,283.845 281.953,278.885" stroke-width="4.564" stroke="black" fill="none" stroke-linecap="round"></path><path d="M 281.953,278.885 C 297.582,274.252 297.519,274.041 313.114,269.292" stroke-width="4.500" stroke="black" fill="none" stroke-linecap="round"></path><path d="M 313.114,269.292 C 325.084,265.647 324.991,265.254 337.084,262.098" stroke-width="4.500" stroke="black" fill="none" stroke-linecap="round"></path><path d="M 337.084,262.098 C 343.368,260.457 343.519,259.976 349.868,259.699" stroke-width="4.500" stroke="black" fill="none" stroke-linecap="round"></path><path d="M 349.868,259.699 C 352.707,259.576 354.629,259.634 355.461,261.298" stroke-width="5.841" stroke="black" fill="none" stroke-linecap="round"></path></svg>