<svg xmlns="http://www.w3.org/2000/svg" xmlns:xlink="http://www.w3.org/1999/xlink" viewBox="0 0 576 416" width="576" height="416"><path d="M 71.815,207.538 C 68.220,203.941 68.902,202.056 64.624,200.344" stroke-width="8.549" stroke="black" fill="none" stroke-linecap="round"></path><path d="M 64.624,200.344 C 60.912,198.858 59.720,199.477 55.835,201.143" stroke-width="7.916" stroke="black" fill="none" stroke-linecap="round"></path><path d="M 55.835,201.143 C 51.330,203.075 51.341,203.857 47.845,207.538" stroke-width="6.154" stroke="black" fill="none" stroke-linecap="round"></path><path d="M 47.845,207.538 C 43.750,211.851 43.789,212.064 40.654,217.131" stroke-width="5.411" stroke="black" fill="none" stroke-linecap="round"></path><path d="M 40.654,217.131 C 38.596,220.458 38.883,220.661 37.458,224.326" stroke-width="5.909" stroke="black" fill="none" stroke-linecap="round"></path><path d="M 37.458,224.326 C 36.086,227.856 35.751,227.841 35.061,231.520" stroke-width="5.957" stroke="black" fill="none" stroke-linecap="round"></path><path d="M 35.061,231.520 C 34.552,234.236 34.641,234.386 35.061,237.116" stroke-width="6.671" stroke="black" fill="none" stroke-linecap="round"></path><path d="M 35.061,237.116 C 35.440,239.582 34.697,241.127 36.659,241.913" stroke-width="6.916" stroke="black" fill="none" stroke-linecap="round"></path><path d="M 36.659,241.913 C 40.690,243.526 42.218,243.265 47.046,241.913" stroke-width="6.933" stroke="black" fill="none" stroke-linecap="round"></path><path d="M 47.046,241.913 C 52.206,240.467 52.196,239.599 56.634,236.317" stroke-width="5.819" stroke="black" fill="none" stroke-linecap="round"></path><path d="M 56.634,236.317 C 61.384,232.804 61.229,232.520 65.423,228.323" stroke-width="5.444" stroke="black" fill="none" stroke-linecap="round"></path><path d="M 65.423,228.323 C 69.618,224.126 69.658,224.121 73.413,219.529" stroke-width="5.341" stroke="black" fill="none" stroke-linecap="round"></path><path d="M 73.413,219.529 C 76.849,215.328 76.690,215.189 79.805,210.736" stroke-width="5.527" stroke="black" fill="none" stroke-linecap="round"></path><path d="M 79.805,210.736 C 82.283,207.195 82.684,207.374 84.599,203.541" stroke-width="5.744" stroke="black" fill="none" stroke-linecap="round"></path><path d="M 84.599,203.541 C 86.279,200.179 85.798,199.944 86.996,196.347" stroke-width="6.072" stroke="black" fill="none" stroke-linecap="round"></path><path d="M 86.996,196.347 C 87.795,193.948 88.594,193.948 88.594,191.550" stroke-width="6.653" stroke="black" fill="none" stroke-linecap="round"></path><path d="M 88.594,191.550 C 88.594,189.152 87.883,186.162 86.996,186.754" stroke-width="7.773" stroke="black" fill="none" stroke-linecap="round"></path><path d="M 86.996,186.754 C 85.486,187.761 85.360,190.736 83.800,194.748" stroke-width="7.349" stroke="black" fill="none" stroke-linecap="round"></path><path d="M 83.800,194.748 C 82.563,197.930 82.531,197.920 81.403,201.143" stroke-width="6.674" stroke="black" fill="none" stroke-linecap="round"></path><path d="M 81.403,201.143 C 79.734,205.914 79.678,205.901 78.207,210.736" stroke-width="6.009" stroke="black" fill="none" stroke-linecap="round"></path><path d="M 78.207,210.736 C 76.882,215.094 76.777,215.082 75.810,219.529" stroke-width="5.903" stroke="black" fill="none" stroke-linecap="round"></path><path d="M 75.810,219.529 C 74.779,224.275 74.769,224.297 74.212,229.122" stroke-width="5.777" stroke="black" fill="none" stroke-linecap="round"></path><path d="M 74.212,229.122 C 73.570,234.689 73.668,234.713 73.413,240.314" stroke-width="6.404" stroke="black" fill="none" stroke-linecap="round"></path><path d="M 73.413,240.314 C 73.268,243.506 72.353,243.951 73.413,246.709" stroke-width="6.422" stroke="black" fill="none" stroke-linecap="round"></path><path d="M 73.413,246.709 C 74.350,249.147 75.339,251.150 77.408,250.706" stroke-width="7.297" stroke="black" fill="none" stroke-linecap="round"></path><path d="M 77.408,250.706 C 80.932,249.951 81.530,247.957 84.599,244.311" stroke-width="7.097" stroke="black" fill="none" stroke-linecap="round"></path><path d="M 84.599,244.311 C 87.922,240.362 87.304,239.853 90.192,235.517" stroke-width="5.962" stroke="black" fill="none" stroke-linecap="round"></path><path d="M 90.192,235.517 C 92.897,231.459 92.893,231.450 95.785,227.523" stroke-width="5.789" stroke="black" fill="none" stroke-linecap="round"></path><path d="M 95.785,227.523 C 98.486,223.856 98.618,223.954 101.378,220.329" stroke-width="5.838" stroke="black" fill="none" stroke-linecap="round"></path><path d="M 101.378,220.329 C 105.010,215.560 105.953,211.212 108.569,210.736" stroke-width="6.386" stroke="black" fill="none" stroke-linecap="round"></path><path d="M 108.569,210.736 C 110.348,210.412 110.167,214.783 110.167,218.730" stroke-width="7.635" stroke="black" fill="none" stroke-linecap="round"></path><path d="M 110.167,218.730 C 110.167,221.178 109.032,221.056 108.569,223.526" stroke-width="7.133" stroke="black" fill="none" stroke-linecap="round"></path><path d="M 108.569,223.526 C 107.834,227.451 106.231,230.750 107.770,231.520" stroke-width="7.235" stroke="black" fill="none" stroke-linecap="round"></path><path d="M 107.770,231.520 C 109.427,232.349 111.974,229.713 114.961,226.724" stroke-width="7.744" stroke="black" fill="none" stroke-linecap="round"></path><path d="M 114.961,226.724 C 117.567,224.117 116.823,223.433 118.956,220.329" stroke-width="6.707" stroke="black" fill="none" stroke-linecap="round"></path><path d="M 118.956,220.329 C 121.218,217.038 121.256,217.053 123.750,213.934" stroke-width="6.197" stroke="black" fill="none" stroke-linecap="round"></path><path d="M 123.750,213.934 C 126.050,211.058 126.303,211.253 128.544,208.338" stroke-width="6.254" stroke="black" fill="none" stroke-linecap="round"></path><path d="M 128.544,208.338 C 130.298,206.057 129.665,205.429 131.740,203.541" stroke-width="6.638" stroke="black" fill="none" stroke-linecap="round"></path><path d="M 131.740,203.541 C 134.060,201.432 134.780,200.131 137.333,200.344" stroke-width="7.238" stroke="black" fill="none" stroke-linecap="round"></path><path d="M 137.333,200.344 C 139.574,200.530 140.486,201.811 141.328,204.341" stroke-width="7.822" stroke="black" fill="none" stroke-linecap="round"></path><path d="M 141.328,204.341 C 142.883,209.006 141.891,209.530 142.127,214.733" stroke-width="7.144" stroke="black" fill="none" stroke-linecap="round"></path><path d="M 142.127,214.733 C 142.290,218.324 142.467,218.358 142.127,221.928" stroke-width="6.549" stroke="black" fill="none" stroke-linecap="round"></path><path d="M 142.127,221.928 C 141.668,226.752 138.991,231.520 140.529,231.520" stroke-width="6.857" stroke="black" fill="none" stroke-linecap="round"></path><path d="M 140.529,231.520 C 142.587,231.520 145.183,226.936 149.318,221.928" stroke-width="7.608" stroke="black" fill="none" stroke-linecap="round"></path><path d="M 149.318,221.928 C 152.774,217.743 152.577,217.575 155.710,213.134" stroke-width="5.990" stroke="black" fill="none" stroke-linecap="round"></path><path d="M 155.710,213.134 C 157.371,210.780 156.944,210.424 158.906,208.338" stroke-width="6.546" stroke="black" fill="none" stroke-linecap="round"></path><path d="M 158.906,208.338 C 163.336,203.629 163.635,203.866 168.494,199.544" stroke-width="5.461" stroke="black" fill="none" stroke-linecap="round"></path><path d="M 168.494,199.544 C 170.826,197.471 170.709,197.267 173.288,195.547" stroke-width="6.133" stroke="black" fill="none" stroke-linecap="round"></path><path d="M 173.288,195.547 C 175.503,194.070 175.685,193.149 178.082,193.149" stroke-width="6.613" stroke="black" fill="none" stroke-linecap="round"></path><path d="M 178.082,193.149 C 180.479,193.149 181.545,193.475 182.876,195.547" stroke-width="7.385" stroke="black" fill="none" stroke-linecap="round"></path><path d="M 182.876,195.547 C 185.140,199.071 184.462,199.874 185.273,204.341" stroke-width="7.212" stroke="black" fill="none" stroke-linecap="round"></path><path d="M 185.273,204.341 C 186.060,208.668 185.863,208.729 186.072,213.134" stroke-width="6.162" stroke="black" fill="none" stroke-linecap="round"></path><path d="M 186.072,213.134 C 186.262,217.122 185.712,217.161 186.072,221.128" stroke-width="6.133" stroke="black" fill="none" stroke-linecap="round"></path><path d="M 186.072,221.128 C 186.511,225.954 186.801,225.937 187.670,230.721" stroke-width="5.842" stroke="black" fill="none" stroke-linecap="round"></path><path d="M 187.670,230.721 C 188.399,234.731 187.930,234.920 189.268,238.715" stroke-width="6.009" stroke="black" fill="none" stroke-linecap="round"></path><path d="M 189.268,238.715 C 190.327,241.715 190.355,241.990 192.464,244.311" stroke-width="6.429" stroke="black" fill="none" stroke-linecap="round"></path><path d="M 192.464,244.311 C 194.350,246.386 194.618,246.942 197.258,247.508" stroke-width="6.631" stroke="black" fill="none" stroke-linecap="round"></path><path d="M 197.258,247.508 C 200.211,248.141 200.668,247.762 203.650,246.709" stroke-width="6.479" stroke="black" fill="none" stroke-linecap="round"></path><path d="M 203.650,246.709 C 207.460,245.364 207.591,245.190 210.841,242.712" stroke-width="6.184" stroke="black" fill="none" stroke-linecap="round"></path><path d="M 210.841,242.712 C 215.981,238.794 216.063,238.703 220.429,233.919" stroke-width="5.382" stroke="black" fill="none" stroke-linecap="round"></path><path d="M 220.429,233.919 C 224.453,229.510 224.555,229.438 227.620,224.326" stroke-width="5.309" stroke="black" fill="none" stroke-linecap="round"></path><path d="M 227.620,224.326 C 230.547,219.446 230.687,219.336 232.415,213.934" stroke-width="5.358" stroke="black" fill="none" stroke-linecap="round"></path><path d="M 232.415,213.934 C 233.883,209.343 233.610,209.170 234.013,204.341" stroke-width="5.688" stroke="black" fill="none" stroke-linecap="round"></path><path d="M 234.013,204.341 C 234.409,199.577 234.713,199.417 234.013,194.748" stroke-width="5.645" stroke="black" fill="none" stroke-linecap="round"></path><path d="M 234.013,194.748 C 233.514,191.423 233.132,191.387 231.615,188.353" stroke-width="6.166" stroke="black" fill="none" stroke-linecap="round"></path><path d="M 231.615,188.353 C 230.336,185.791 230.663,185.110 228.419,183.556" stroke-width="6.545" stroke="black" fill="none" stroke-linecap="round"></path><path d="M 228.419,183.556 C 225.469,181.513 224.242,180.216 221.228,181.158" stroke-width="7.094" stroke="black" fill="none" stroke-linecap="round"></path><path d="M 221.228,181.158 C 217.850,182.214 218.147,184.143 215.635,187.553" stroke-width="7.168" stroke="black" fill="none" stroke-linecap="round"></path><path d="M 215.635,187.553 C 212.554,191.737 212.507,191.768 210.042,196.347" stroke-width="5.977" stroke="black" fill="none" stroke-linecap="round"></path><path d="M 210.042,196.347 C 206.914,202.160 207.246,202.342 204.449,208.338" stroke-width="5.305" stroke="black" fill="none" stroke-linecap="round"></path><path d="M 204.449,208.338 C 201.653,214.333 201.342,214.206 198.856,220.329" stroke-width="5.132" stroke="black" fill="none" stroke-linecap="round"></path><path d="M 198.856,220.329 C 196.149,226.997 196.340,227.084 194.062,233.919" stroke-width="4.946" stroke="black" fill="none" stroke-linecap="round"></path><path d="M 194.062,233.919 C 191.945,240.274 191.791,240.242 190.067,246.709" stroke-width="5.007" stroke="black" fill="none" stroke-linecap="round"></path><path d="M 190.067,246.709 C 188.595,252.233 188.609,252.264 187.670,257.901" stroke-width="5.261" stroke="black" fill="none" stroke-linecap="round"></path><path d="M 187.670,257.901 C 187.011,261.857 186.440,262.006 186.871,265.895" stroke-width="5.829" stroke="black" fill="none" stroke-linecap="round"></path><path d="M 186.871,265.895 C 187.239,269.201 187.110,272.290 189.268,272.290" stroke-width="6.903" stroke="black" fill="none" stroke-linecap="round"></path><path d="M 189.268,272.290 C 192.703,272.290 194.159,269.632 198.057,265.895" stroke-width="6.878" stroke="black" fill="none" stroke-linecap="round"></path><path d="M 198.057,265.895 C 203.747,260.439 203.635,260.196 208.444,253.904" stroke-width="5.037" stroke="black" fill="none" stroke-linecap="round"></path><path d="M 208.444,253.904 C 214.022,246.606 213.924,246.489 218.832,238.715" stroke-width="4.514" stroke="black" fill="none" stroke-linecap="round"></path><path d="M 218.832,238.715 C 223.512,231.301 223.707,231.357 227.620,223.526" stroke-width="4.500" stroke="black" fill="none" stroke-linecap="round"></path><path d="M 227.620,223.526 C 230.898,216.968 230.636,216.813 233.214,209.936" stroke-width="4.709" stroke="black" fill="none" stroke-linecap="round"></path><path d="M 233.214,209.936 C 235.430,204.022 235.743,204.055 237.208,197.945" stroke-width="5.017" stroke="black" fill="none" stroke-linecap="round"></path><path d="M 237.208,197.945 C 238.140,194.062 237.772,193.957 238.008,189.951" stroke-width="5.804" stroke="black" fill="none" stroke-linecap="round"></path><path d="M 238.008,189.951 C 238.172,187.162 238.750,184.356 238.008,184.356" stroke-width="7.010" stroke="black" fill="none" stroke-linecap="round"></path><path d="M 238.008,184.356 C 237.152,184.356 236.425,187.163 234.811,189.951" stroke-width="7.390" stroke="black" fill="none" stroke-linecap="round"></path><path d="M 234.811,189.951 C 232.031,194.757 231.547,194.526 229.218,199.544" stroke-width="5.911" stroke="black" fill="none" stroke-linecap="round"></path><path d="M 229.218,199.544 C 226.354,205.717 226.518,205.842 224.425,212.335" stroke-width="5.235" stroke="black" fill="none" stroke-linecap="round"></path><path d="M 224.425,212.335 C 222.523,218.233 222.069,218.231 221.228,224.326" stroke-width="5.212" stroke="black" fill="none" stroke-linecap="round"></path><path d="M 221.228,224.326 C 220.471,229.822 220.253,230.152 221.228,235.517" stroke-width="5.361" stroke="black" fill="none" stroke-linecap="round"></path><path d="M 221.228,235.517 C 221.851,238.945 222.260,239.157 224.425,241.913" stroke-width="6.008" stroke="black" fill="none" stroke-linecap="round"></path><path d="M 224.425,241.913 C 226.655,244.753 226.708,245.550 230.017,246.709" stroke-width="6.195" stroke="black" fill="none" stroke-linecap="round"></path><path d="M 230.017,246.709 C 234.698,248.348 235.358,248.374 240.405,247.508" stroke-width="5.840" stroke="black" fill="none" stroke-linecap="round"></path><path d="M 240.405,247.508 C 249.341,245.976 249.768,245.934 257.983,241.913" stroke-width="4.683" stroke="black" fill="none" stroke-linecap="round"></path><path d="M 257.983,241.913 C 268.545,236.741 268.977,236.710 277.958,229.122" stroke-width="4.500" stroke="black" fill="none" stroke-linecap="round"></path><path d="M 277.958,229.122 C 286.955,221.521 286.774,220.955 293.938,211.535" stroke-width="4.500" stroke="black" fill="none" stroke-linecap="round"></path><path d="M 293.938,211.535 C 300.757,202.568 300.717,202.349 305.923,192.350" stroke-width="4.500" stroke="black" fill="none" stroke-linecap="round"></path><path d="M 305.923,192.350 C 310.705,183.163 311.079,183.086 313.913,173.164" stroke-width="4.500" stroke="black" fill="none" stroke-linecap="round"></path><path d="M 313.913,173.164 C 316.672,163.501 316.235,163.229 317.109,153.179" stroke-width="4.500" stroke="black" fill="none" stroke-linecap="round"></path><path d="M 317.109,153.179 C 317.833,144.843 317.561,144.757 317.109,136.391" stroke-width="4.500" stroke="black" fill="none" stroke-linecap="round"></path><path d="M 317.109,136.391 C 316.762,129.968 317.162,129.738 315.511,123.601" stroke-width="4.797" stroke="black" fill="none" stroke-linecap="round"></path><path d="M 315.511,123.601 C 314.366,119.346 314.262,118.855 311.516,115.607" stroke-width="5.519" stroke="black" fill="none" stroke-linecap="round"></path><path d="M 311.516,115.607 C 309.868,113.659 308.944,112.468 306.722,113.209" stroke-width="6.383" stroke="black" fill="none" stroke-linecap="round"></path><path d="M 306.722,113.209 C 301.753,114.866 301.269,116.123 297.134,120.403" stroke-width="6.604" stroke="black" fill="none" stroke-linecap="round"></path><path d="M 297.134,120.403 C 289.684,128.114 289.603,128.286 283.551,137.191" stroke-width="4.504" stroke="black" fill="none" stroke-linecap="round"></path><path d="M 283.551,137.191 C 276.020,148.271 276.128,148.457 269.968,160.373" stroke-width="4.500" stroke="black" fill="none" stroke-linecap="round"></path><path d="M 269.968,160.373 C 264.143,171.640 263.702,171.599 259.581,183.556" stroke-width="4.500" stroke="black" fill="none" stroke-linecap="round"></path><path d="M 259.581,183.556 C 255.712,194.781 255.340,195.008 253.988,206.739" stroke-width="4.500" stroke="black" fill="none" stroke-linecap="round"></path><path d="M 253.988,206.739 C 252.943,215.792 253.215,216.213 254.787,225.125" stroke-width="4.500" stroke="black" fill="none" stroke-linecap="round"></path><path d="M 254.787,225.125 C 255.612,229.802 255.621,230.456 258.782,233.919" stroke-width="5.170" stroke="black" fill="none" stroke-linecap="round"></path><path d="M 258.782,233.919 C 264.011,239.649 264.472,240.149 271.566,243.511" stroke-width="4.786" stroke="black" fill="none" stroke-linecap="round"></path><path d="M 271.566,243.511 C 279.653,247.344 280.239,246.452 289.144,248.308" stroke-width="4.500" stroke="black" fill="none" stroke-linecap="round"></path><path d="M 289.144,248.308 C 299.415,250.449 299.523,249.957 309.918,251.505" stroke-width="4.500" stroke="black" fill="none" stroke-linecap="round"></path><path d="M 309.918,251.505 C 318.300,252.755 318.333,252.547 326.697,253.904" stroke-width="4.500" stroke="black" fill="none" stroke-linecap="round"></path><path d="M 326.697,253.904 C 333.115,254.945 333.293,254.496 339.481,256.302" stroke-width="4.864" stroke="black" fill="none" stroke-linecap="round"></path><path d="M 339.481,256.302 C 342.881,257.294 344.086,256.918 345.873,259.499" stroke-width="5.809" stroke="black" fill="none" stroke-linecap="round"></path><path d="M 345.873,259.499 C 347.682,262.114 348.135,263.644 346.672,266.694" stroke-width="6.827" stroke="black" fill="none" stroke-linecap="round"></path><path d="M 346.672,266.694 C 343.341,273.637 341.644,273.229 336.285,279.485" stroke-width="5.184" stroke="black" fill="none" stroke-linecap="round"></path><path d="M 336.285,279.485 C 324.865,292.815 324.979,292.930 313.114,305.865" stroke-width="4.500" stroke="black" fill="none" stroke-linecap="round"></path><path d="M 313.114,305.865 C 298.212,322.109 297.722,321.658 282.752,337.841" stroke-width="4.500" stroke="black" fill="none" stroke-linecap="round"></path><path d="M 282.752,337.841 C 262.966,359.230 263.176,359.425 243.601,381.009" stroke-width="4.500" stroke="black" fill="none" stroke-linecap="round"></path></svg>