<svg xmlns="http://www.w3.org/2000/svg" xmlns:xlink="http://www.w3.org/1999/xlink" viewBox="0 0 576 416" width="576" height="416"><path d="M 392.215,209.286 C 384.624,212.883 384.544,212.724 377.034,216.481" stroke-width="7.928" stroke="black" fill="none" stroke-linecap="round"></path><path d="M 377.034,216.481 C 370.961,219.519 371.121,219.838 365.049,222.876" stroke-width="5.625" stroke="black" fill="none" stroke-linecap="round"></path><path d="M 365.049,222.876 C 358.337,226.233 358.262,226.084 351.466,229.271" stroke-width="5.005" stroke="black" fill="none" stroke-linecap="round"></path><path d="M 351.466,229.271 C 345.478,232.079 345.435,231.991 339.481,234.867" stroke-width="5.045" stroke="black" fill="none" stroke-linecap="round"></path><path d="M 339.481,234.867 C 333.850,237.587 333.975,237.858 328.295,240.463" stroke-width="5.142" stroke="black" fill="none" stroke-linecap="round"></path><path d="M 328.295,240.463 C 324.387,242.255 324.332,242.150 320.305,243.661" stroke-width="5.698" stroke="black" fill="none" stroke-linecap="round"></path><path d="M 320.305,243.661 C 317.940,244.548 314.631,246.030 315.511,245.259" stroke-width="7.026" stroke="black" fill="none" stroke-linecap="round"></path><path d="M 315.511,245.259 C 317.827,243.232 321.058,241.590 326.697,238.065" stroke-width="7.084" stroke="black" fill="none" stroke-linecap="round"></path><path d="M 326.697,238.065 C 337.039,231.598 337.173,231.808 347.471,225.274" stroke-width="4.500" stroke="black" fill="none" stroke-linecap="round"></path><path d="M 347.471,225.274 C 353.552,221.416 353.500,221.332 359.456,217.280" stroke-width="4.731" stroke="black" fill="none" stroke-linecap="round"></path><path d="M 359.456,217.280 C 363.488,214.537 363.548,214.609 367.446,211.684" stroke-width="5.382" stroke="black" fill="none" stroke-linecap="round"></path><path d="M 367.446,211.684 C 369.940,209.813 372.633,208.868 372.240,207.687" stroke-width="6.170" stroke="black" fill="none" stroke-linecap="round"></path><path d="M 372.240,207.687 C 371.834,206.469 369.018,206.515 365.848,206.888" stroke-width="7.341" stroke="black" fill="none" stroke-linecap="round"></path><path d="M 365.848,206.888 C 355.435,208.114 355.438,208.776 345.074,210.885" stroke-width="4.761" stroke="black" fill="none" stroke-linecap="round"></path><path d="M 345.074,210.885 C 331.868,213.572 331.815,213.369 318.707,216.481" stroke-width="4.500" stroke="black" fill="none" stroke-linecap="round"></path><path d="M 318.707,216.481 C 308.244,218.965 308.322,219.288 297.933,222.077" stroke-width="4.500" stroke="black" fill="none" stroke-linecap="round"></path><path d="M 297.933,222.077 C 291.943,223.685 285.440,226.460 285.948,225.274" stroke-width="4.720" stroke="black" fill="none" stroke-linecap="round"></path><path d="M 285.948,225.274 C 286.638,223.662 292.934,220.498 300.330,216.481" stroke-width="6.226" stroke="black" fill="none" stroke-linecap="round"></path><path d="M 300.330,216.481 C 306.916,212.903 307.020,213.041 313.913,210.086" stroke-width="5.137" stroke="black" fill="none" stroke-linecap="round"></path><path d="M 313.913,210.086 C 318.206,208.245 318.384,208.667 322.702,206.888" stroke-width="5.588" stroke="black" fill="none" stroke-linecap="round"></path><path d="M 322.702,206.888 C 325.176,205.869 327.981,204.328 327.496,204.490" stroke-width="6.411" stroke="black" fill="none" stroke-linecap="round"></path><path d="M 327.496,204.490 C 326.783,204.728 323.940,206.182 320.305,207.687" stroke-width="7.039" stroke="black" fill="none" stroke-linecap="round"></path><path d="M 320.305,207.687 C 312.354,210.979 312.351,210.980 304.325,214.083" stroke-width="4.900" stroke="black" fill="none" stroke-linecap="round"></path><path d="M 304.325,214.083 C 294.773,217.775 294.718,217.630 285.149,221.277" stroke-width="4.500" stroke="black" fill="none" stroke-linecap="round"></path><path d="M 285.149,221.277 C 277.939,224.025 278.104,224.595 270.767,226.873" stroke-width="4.583" stroke="black" fill="none" stroke-linecap="round"></path><path d="M 270.767,226.873 C 266.519,228.192 266.106,228.958 261.978,228.472" stroke-width="5.432" stroke="black" fill="none" stroke-linecap="round"></path><path d="M 261.978,228.472 C 259.314,228.158 257.962,227.739 257.184,225.274" stroke-width="6.858" stroke="black" fill="none" stroke-linecap="round"></path><path d="M 257.184,225.274 C 255.565,220.145 256.953,219.268 257.184,213.283" stroke-width="7.134" stroke="black" fill="none" stroke-linecap="round"></path><path d="M 257.184,213.283 C 257.353,208.876 257.312,208.847 257.983,204.490" stroke-width="6.241" stroke="black" fill="none" stroke-linecap="round"></path><path d="M 257.983,204.490 C 258.910,198.455 258.992,198.450 260.380,192.499" stroke-width="5.501" stroke="black" fill="none" stroke-linecap="round"></path><path d="M 260.380,192.499 C 261.788,186.459 261.794,186.448 263.576,180.508" stroke-width="5.378" stroke="black" fill="none" stroke-linecap="round"></path><path d="M 263.576,180.508 C 265.390,174.457 265.119,174.315 267.571,168.517" stroke-width="5.128" stroke="black" fill="none" stroke-linecap="round"></path><path d="M 267.571,168.517 C 269.513,163.922 270.128,164.199 272.365,159.723" stroke-width="5.492" stroke="black" fill="none" stroke-linecap="round"></path><path d="M 272.365,159.723 C 274.123,156.205 274.182,156.206 275.561,152.529" stroke-width="5.937" stroke="black" fill="none" stroke-linecap="round"></path><path d="M 275.561,152.529 C 276.579,149.810 276.360,149.731 277.159,146.933" stroke-width="6.454" stroke="black" fill="none" stroke-linecap="round"></path><path d="M 277.159,146.933 C 277.958,144.135 276.918,143.176 278.757,141.337" stroke-width="7.289" stroke="black" fill="none" stroke-linecap="round"></path><path d="M 278.757,141.337 C 280.913,139.179 281.819,139.228 285.149,138.939" stroke-width="7.883" stroke="black" fill="none" stroke-linecap="round"></path><path d="M 285.149,138.939 C 291.007,138.429 291.164,139.103 297.134,139.738" stroke-width="5.855" stroke="black" fill="none" stroke-linecap="round"></path><path d="M 297.134,139.738 C 309.940,141.101 309.968,141.005 322.702,142.936" stroke-width="4.500" stroke="black" fill="none" stroke-linecap="round"></path><path d="M 322.702,142.936 C 336.335,145.002 336.432,144.697 349.868,147.732" stroke-width="4.500" stroke="black" fill="none" stroke-linecap="round"></path><path d="M 349.868,147.732 C 361.201,150.292 361.573,149.762 372.240,154.127" stroke-width="4.500" stroke="black" fill="none" stroke-linecap="round"></path><path d="M 372.240,154.127 C 379.151,156.956 379.743,157.078 385.024,162.121" stroke-width="4.500" stroke="black" fill="none" stroke-linecap="round"></path><path d="M 385.024,162.121 C 388.532,165.472 391.357,167.373 389.818,170.915" stroke-width="5.195" stroke="black" fill="none" stroke-linecap="round"></path><path d="M 389.818,170.915 C 387.362,176.567 384.279,177.232 377.034,180.508" stroke-width="5.847" stroke="black" fill="none" stroke-linecap="round"></path><path d="M 377.034,180.508 C 342.731,196.018 342.148,195.221 306.722,208.487" stroke-width="4.500" stroke="black" fill="none" stroke-linecap="round"></path><path d="M 306.722,208.487 C 273.833,220.802 273.258,219.269 240.405,231.669" stroke-width="4.500" stroke="black" fill="none" stroke-linecap="round"></path><path d="M 240.405,231.669 C 206.542,244.451 206.846,245.259 173.288,258.849" stroke-width="4.500" stroke="black" fill="none" stroke-linecap="round"></path></svg>