<svg xmlns="http://www.w3.org/2000/svg" xmlns:xlink="http://www.w3.org/1999/xlink" viewBox="0 0 576 416" width="576" height="416"><path d="M 134.936,109.212 C 132.539,116.007 131.665,115.794 130.142,122.802" stroke-width="8.231" stroke="black" fill="none" stroke-linecap="round"></path><path d="M 130.142,122.802 C 127.670,134.181 128.109,134.347 126.946,145.984" stroke-width="4.519" stroke="black" fill="none" stroke-linecap="round"></path><path d="M 126.946,145.984 C 125.313,162.326 125.590,162.363 124.549,178.760" stroke-width="4.500" stroke="black" fill="none" stroke-linecap="round"></path><path d="M 124.549,178.760 C 123.992,187.544 123.876,187.547 123.750,196.347" stroke-width="4.500" stroke="black" fill="none" stroke-linecap="round"></path><path d="M 123.750,196.347 C 123.476,215.526 123.750,215.532 123.750,234.718" stroke-width="4.500" stroke="black" fill="none" stroke-linecap="round"></path><path d="M 123.750,234.718 C 123.750,252.305 123.544,252.307 123.750,269.892" stroke-width="4.500" stroke="black" fill="none" stroke-linecap="round"></path><path d="M 123.750,269.892 C 123.943,286.282 124.118,286.280 124.549,302.667" stroke-width="4.500" stroke="black" fill="none" stroke-linecap="round"></path><path d="M 124.549,302.667 C 124.917,316.658 124.897,316.659 125.348,330.646" stroke-width="4.500" stroke="black" fill="none" stroke-linecap="round"></path><path d="M 125.348,330.646 C 125.696,341.440 125.501,341.454 126.147,352.230" stroke-width="4.500" stroke="black" fill="none" stroke-linecap="round"></path><path d="M 183.675,104.415 C 184.075,110.411 183.829,110.436 184.474,116.406" stroke-width="8.092" stroke="black" fill="none" stroke-linecap="round"></path><path d="M 184.474,116.406 C 185.427,125.225 186.039,125.163 186.871,133.993" stroke-width="5.101" stroke="black" fill="none" stroke-linecap="round"></path><path d="M 186.871,133.993 C 188.036,146.347 187.301,146.417 188.469,158.775" stroke-width="4.500" stroke="black" fill="none" stroke-linecap="round"></path><path d="M 188.469,158.775 C 190.098,175.995 190.644,175.943 192.464,193.149" stroke-width="4.500" stroke="black" fill="none" stroke-linecap="round"></path><path d="M 192.464,193.149 C 194.239,209.918 194.062,209.936 195.660,226.724" stroke-width="4.500" stroke="black" fill="none" stroke-linecap="round"></path><path d="M 195.660,226.724 C 197.258,243.511 197.480,243.495 198.856,260.299" stroke-width="4.500" stroke="black" fill="none" stroke-linecap="round"></path><path d="M 198.856,260.299 C 199.477,267.877 199.104,267.904 199.655,275.488" stroke-width="4.500" stroke="black" fill="none" stroke-linecap="round"></path><path d="M 199.655,275.488 C 200.702,289.887 200.596,289.903 202.052,304.266" stroke-width="4.500" stroke="black" fill="none" stroke-linecap="round"></path><path d="M 202.052,304.266 C 203.393,317.483 204.109,317.419 205.248,330.646" stroke-width="4.500" stroke="black" fill="none" stroke-linecap="round"></path><path d="M 205.248,330.646 C 206.106,340.602 206.047,340.642 206.047,350.631" stroke-width="4.500" stroke="black" fill="none" stroke-linecap="round"></path><path d="M 206.047,350.631 C 206.047,357.829 205.988,357.866 205.248,365.021" stroke-width="4.533" stroke="black" fill="none" stroke-linecap="round"></path><path d="M 105.373,205.939 C 113.363,208.338 113.493,207.973 121.353,210.736" stroke-width="8.005" stroke="black" fill="none" stroke-linecap="round"></path><path d="M 121.353,210.736 C 128.274,213.169 128.145,213.534 134.936,216.332" stroke-width="5.481" stroke="black" fill="none" stroke-linecap="round"></path><path d="M 134.936,216.332 C 141.728,219.130 141.652,219.328 148.519,221.928" stroke-width="5.007" stroke="black" fill="none" stroke-linecap="round"></path><path d="M 148.519,221.928 C 156.434,224.924 156.532,224.662 164.499,227.523" stroke-width="4.648" stroke="black" fill="none" stroke-linecap="round"></path><path d="M 164.499,227.523 C 172.113,230.258 171.944,230.818 179.680,233.119" stroke-width="4.622" stroke="black" fill="none" stroke-linecap="round"></path><path d="M 179.680,233.119 C 186.725,235.215 186.902,234.597 194.062,236.317" stroke-width="4.666" stroke="black" fill="none" stroke-linecap="round"></path><path d="M 194.062,236.317 C 196.890,236.996 196.828,237.242 199.655,237.916" stroke-width="5.870" stroke="black" fill="none" stroke-linecap="round"></path><path d="M 199.655,237.916 C 205.217,239.241 205.297,238.927 210.841,240.314" stroke-width="5.518" stroke="black" fill="none" stroke-linecap="round"></path><path d="M 210.841,240.314 C 214.885,241.325 214.790,241.701 218.832,242.712" stroke-width="5.790" stroke="black" fill="none" stroke-linecap="round"></path><path d="M 249.993,163.571 C 247.196,167.968 246.647,167.694 244.400,172.365" stroke-width="7.893" stroke="black" fill="none" stroke-linecap="round"></path><path d="M 244.400,172.365 C 241.454,178.486 241.294,178.567 239.605,185.155" stroke-width="5.721" stroke="black" fill="none" stroke-linecap="round"></path><path d="M 239.605,185.155 C 237.299,194.156 237.457,194.282 236.410,203.541" stroke-width="4.638" stroke="black" fill="none" stroke-linecap="round"></path><path d="M 236.410,203.541 C 235.060,215.466 234.999,215.521 234.811,227.523" stroke-width="4.500" stroke="black" fill="none" stroke-linecap="round"></path><path d="M 234.811,227.523 C 234.599,241.102 234.615,241.157 235.611,254.703" stroke-width="4.500" stroke="black" fill="none" stroke-linecap="round"></path><path d="M 235.611,254.703 C 236.612,268.337 236.835,268.355 238.806,281.883" stroke-width="4.500" stroke="black" fill="none" stroke-linecap="round"></path><path d="M 238.806,281.883 C 239.631,287.540 239.652,287.572 241.203,293.074" stroke-width="4.572" stroke="black" fill="none" stroke-linecap="round"></path><path d="M 241.203,293.074 C 244.047,303.161 243.824,303.294 247.596,313.060" stroke-width="4.500" stroke="black" fill="none" stroke-linecap="round"></path><path d="M 247.596,313.060 C 250.616,320.881 250.496,321.093 254.787,328.248" stroke-width="4.500" stroke="black" fill="none" stroke-linecap="round"></path><path d="M 254.787,328.248 C 257.687,333.084 257.595,333.753 261.978,337.042" stroke-width="5.022" stroke="black" fill="none" stroke-linecap="round"></path><path d="M 261.978,337.042 C 265.585,339.749 266.297,339.792 270.767,340.239" stroke-width="5.620" stroke="black" fill="none" stroke-linecap="round"></path><path d="M 270.767,340.239 C 274.287,340.591 275.013,340.547 277.958,338.640" stroke-width="6.066" stroke="black" fill="none" stroke-linecap="round"></path><path d="M 277.958,338.640 C 281.804,336.150 282.006,335.584 284.350,331.446" stroke-width="5.839" stroke="black" fill="none" stroke-linecap="round"></path><path d="M 284.350,331.446 C 288.797,323.593 288.662,323.297 291.541,314.658" stroke-width="4.701" stroke="black" fill="none" stroke-linecap="round"></path><path d="M 291.541,314.658 C 295.054,304.111 295.342,304.031 297.134,293.074" stroke-width="4.500" stroke="black" fill="none" stroke-linecap="round"></path><path d="M 297.134,293.074 C 298.937,282.047 298.110,281.892 298.732,270.691" stroke-width="4.500" stroke="black" fill="none" stroke-linecap="round"></path><path d="M 298.732,270.691 C 299.308,260.309 299.531,260.297 299.531,249.907" stroke-width="4.500" stroke="black" fill="none" stroke-linecap="round"></path><path d="M 299.531,249.907 C 299.531,241.112 299.675,241.047 298.732,232.320" stroke-width="4.500" stroke="black" fill="none" stroke-linecap="round"></path><path d="M 298.732,232.320 C 298.077,226.258 297.581,226.314 296.335,220.329" stroke-width="4.911" stroke="black" fill="none" stroke-linecap="round"></path><path d="M 296.335,220.329 C 295.583,216.721 294.518,213.572 294.737,213.134" stroke-width="5.794" stroke="black" fill="none" stroke-linecap="round"></path><path d="M 337.084,209.137 C 343.076,211.935 343.348,211.462 349.069,214.733" stroke-width="8.442" stroke="black" fill="none" stroke-linecap="round"></path><path d="M 349.069,214.733 C 354.534,217.857 354.752,217.765 359.456,221.928" stroke-width="5.844" stroke="black" fill="none" stroke-linecap="round"></path><path d="M 359.456,221.928 C 365.139,226.958 365.659,226.840 369.843,233.119" stroke-width="5.026" stroke="black" fill="none" stroke-linecap="round"></path><path d="M 369.843,233.119 C 374.448,240.030 374.274,240.420 377.034,248.308" stroke-width="4.665" stroke="black" fill="none" stroke-linecap="round"></path><path d="M 377.034,248.308 C 379.867,256.408 379.664,256.627 381.029,265.095" stroke-width="4.989" stroke="black" fill="none" stroke-linecap="round"></path><path d="M 381.029,265.095 C 381.661,269.018 381.286,269.105 381.029,273.089" stroke-width="5.657" stroke="black" fill="none" stroke-linecap="round"></path><path d="M 381.029,273.089 C 380.487,281.495 381.593,281.874 379.431,289.877" stroke-width="4.700" stroke="black" fill="none" stroke-linecap="round"></path><path d="M 379.431,289.877 C 377.598,296.663 376.892,296.692 373.039,302.667" stroke-width="4.737" stroke="black" fill="none" stroke-linecap="round"></path><path d="M 373.039,302.667 C 368.902,309.083 369.408,310.101 363.451,314.658" stroke-width="4.635" stroke="black" fill="none" stroke-linecap="round"></path><path d="M 363.451,314.658 C 355.825,320.493 355.043,320.313 345.873,323.452" stroke-width="4.500" stroke="black" fill="none" stroke-linecap="round"></path><path d="M 345.873,323.452 C 339.862,325.509 339.477,325.051 333.089,325.051" stroke-width="4.759" stroke="black" fill="none" stroke-linecap="round"></path><path d="M 333.089,325.051 C 327.093,325.051 326.809,325.117 321.104,323.452" stroke-width="5.010" stroke="black" fill="none" stroke-linecap="round"></path><path d="M 321.104,323.452 C 317.221,322.319 317.484,321.496 313.913,319.455" stroke-width="5.629" stroke="black" fill="none" stroke-linecap="round"></path><path d="M 313.913,319.455 C 309.094,316.700 308.851,317.029 304.325,313.859" stroke-width="5.499" stroke="black" fill="none" stroke-linecap="round"></path><path d="M 304.325,313.859 C 300.861,311.433 301.157,311.028 297.933,308.263" stroke-width="5.841" stroke="black" fill="none" stroke-linecap="round"></path><path d="M 297.933,308.263 C 295.564,306.232 294.606,306.783 293.139,304.266" stroke-width="6.406" stroke="black" fill="none" stroke-linecap="round"></path><path d="M 408.195,184.356 C 408.195,190.351 407.585,190.401 408.195,196.347" stroke-width="8.255" stroke="black" fill="none" stroke-linecap="round"></path><path d="M 408.195,196.347 C 409.183,205.990 409.521,205.992 411.391,215.532" stroke-width="4.924" stroke="black" fill="none" stroke-linecap="round"></path><path d="M 411.391,215.532 C 413.516,226.377 413.019,226.558 416.185,237.116" stroke-width="4.500" stroke="black" fill="none" stroke-linecap="round"></path><path d="M 416.185,237.116 C 419.012,246.543 419.428,246.475 423.376,255.502" stroke-width="4.500" stroke="black" fill="none" stroke-linecap="round"></path><path d="M 423.376,255.502 C 425.021,259.265 425.001,259.350 427.371,262.697" stroke-width="5.395" stroke="black" fill="none" stroke-linecap="round"></path><path d="M 427.371,262.697 C 431.792,268.942 432.190,268.672 436.959,274.688" stroke-width="4.911" stroke="black" fill="none" stroke-linecap="round"></path><path d="M 436.959,274.688 C 441.379,280.264 441.333,280.300 445.748,285.880" stroke-width="4.807" stroke="black" fill="none" stroke-linecap="round"></path><path d="M 445.748,285.880 C 448.923,289.893 449.409,289.580 452.140,293.874" stroke-width="5.174" stroke="black" fill="none" stroke-linecap="round"></path><path d="M 452.140,293.874 C 455.002,298.373 455.972,298.332 456.934,303.467" stroke-width="5.322" stroke="black" fill="none" stroke-linecap="round"></path><path d="M 456.934,303.467 C 458.369,311.122 458.253,311.802 456.934,319.455" stroke-width="5.094" stroke="black" fill="none" stroke-linecap="round"></path><path d="M 456.934,319.455 C 456.255,323.394 455.507,323.469 452.939,326.649" stroke-width="5.736" stroke="black" fill="none" stroke-linecap="round"></path><path d="M 452.939,326.649 C 447.117,333.861 447.464,334.614 440.155,340.239" stroke-width="4.642" stroke="black" fill="none" stroke-linecap="round"></path><path d="M 440.155,340.239 C 431.884,346.605 431.339,346.247 421.778,350.631" stroke-width="4.500" stroke="black" fill="none" stroke-linecap="round"></path><path d="M 421.778,350.631 C 412.163,355.041 412.097,355.807 401.803,357.826" stroke-width="4.500" stroke="black" fill="none" stroke-linecap="round"></path><path d="M 401.803,357.826 C 391.723,359.804 391.361,359.095 381.029,358.625" stroke-width="4.500" stroke="black" fill="none" stroke-linecap="round"></path><path d="M 381.029,358.625 C 373.783,358.296 373.671,358.077 366.647,356.227" stroke-width="4.576" stroke="black" fill="none" stroke-linecap="round"></path><path d="M 366.647,356.227 C 358.490,354.080 358.221,354.303 350.667,350.631" stroke-width="4.529" stroke="black" fill="none" stroke-linecap="round"></path><path d="M 350.667,350.631 C 344.239,347.508 344.632,346.696 338.682,342.637" stroke-width="4.763" stroke="black" fill="none" stroke-linecap="round"></path><path d="M 338.682,342.637 C 335.842,340.701 335.151,341.311 333.089,338.640" stroke-width="5.866" stroke="black" fill="none" stroke-linecap="round"></path><path d="M 333.089,338.640 C 328.359,332.517 328.010,332.199 325.099,325.051" stroke-width="4.865" stroke="black" fill="none" stroke-linecap="round"></path><path d="M 325.099,325.051 C 323.615,321.407 324.699,321.054 324.300,317.057" stroke-width="5.675" stroke="black" fill="none" stroke-linecap="round"></path><path d="M 512.864,287.479 C 506.072,285.880 505.775,286.663 499.281,284.281" stroke-width="7.975" stroke="black" fill="none" stroke-linecap="round"></path><path d="M 499.281,284.281 C 493.790,282.267 493.437,282.321 488.894,278.685" stroke-width="5.904" stroke="black" fill="none" stroke-linecap="round"></path><path d="M 488.894,278.685 C 483.449,274.327 483.227,274.074 479.306,268.293" stroke-width="5.272" stroke="black" fill="none" stroke-linecap="round"></path><path d="M 479.306,268.293 C 475.637,262.883 475.430,262.600 473.713,256.302" stroke-width="5.122" stroke="black" fill="none" stroke-linecap="round"></path><path d="M 473.713,256.302 C 471.834,249.410 471.904,249.070 472.115,241.913" stroke-width="5.028" stroke="black" fill="none" stroke-linecap="round"></path><path d="M 472.115,241.913 C 472.304,235.480 472.997,235.436 474.512,229.122" stroke-width="5.077" stroke="black" fill="none" stroke-linecap="round"></path><path d="M 474.512,229.122 C 475.394,225.443 475.124,225.243 476.909,221.928" stroke-width="5.676" stroke="black" fill="none" stroke-linecap="round"></path><path d="M 476.909,221.928 C 480.717,214.851 480.419,214.308 485.698,208.338" stroke-width="4.886" stroke="black" fill="none" stroke-linecap="round"></path><path d="M 485.698,208.338 C 489.608,203.916 489.991,203.571 495.286,201.143" stroke-width="4.967" stroke="black" fill="none" stroke-linecap="round"></path><path d="M 495.286,201.143 C 499.579,199.174 500.238,199.102 504.874,199.544" stroke-width="5.393" stroke="black" fill="none" stroke-linecap="round"></path><path d="M 504.874,199.544 C 508.627,199.902 509.610,199.897 512.065,202.742" stroke-width="5.973" stroke="black" fill="none" stroke-linecap="round"></path><path d="M 512.065,202.742 C 517.200,208.691 517.212,209.488 520.055,217.131" stroke-width="5.118" stroke="black" fill="none" stroke-linecap="round"></path><path d="M 520.055,217.131 C 523.604,226.675 522.684,227.074 524.849,237.116" stroke-width="4.500" stroke="black" fill="none" stroke-linecap="round"></path><path d="M 524.849,237.116 C 527.079,247.458 527.006,247.480 528.844,257.901" stroke-width="4.500" stroke="black" fill="none" stroke-linecap="round"></path><path d="M 528.844,257.901 C 530.601,267.865 530.581,267.873 532.040,277.886" stroke-width="4.500" stroke="black" fill="none" stroke-linecap="round"></path><path d="M 532.040,277.886 C 533.377,287.059 533.127,287.095 534.437,296.272" stroke-width="4.500" stroke="black" fill="none" stroke-linecap="round"></path><path d="M 534.437,296.272 C 535.524,303.883 535.683,303.859 536.834,311.461" stroke-width="4.570" stroke="black" fill="none" stroke-linecap="round"></path><path d="M 536.834,311.461 C 537.680,317.049 537.283,317.134 538.432,322.652" stroke-width="5.124" stroke="black" fill="none" stroke-linecap="round"></path><path d="M 538.432,322.652 C 539.280,326.726 539.585,326.664 540.829,330.646" stroke-width="5.730" stroke="black" fill="none" stroke-linecap="round"></path><path d="M 540.829,330.646 C 541.583,333.059 541.628,333.045 542.427,335.443" stroke-width="6.580" stroke="black" fill="none" stroke-linecap="round"></path><path d="M 488.095,273.889 C 494.487,271.890 494.377,271.337 500.879,269.892" stroke-width="8.168" stroke="black" fill="none" stroke-linecap="round"></path><path d="M 500.879,269.892 C 505.163,268.939 505.273,269.492 509.668,269.092" stroke-width="6.456" stroke="black" fill="none" stroke-linecap="round"></path></svg>