<svg xmlns="http://www.w3.org/2000/svg" xmlns:xlink="http://www.w3.org/1999/xlink" viewBox="0 0 576 416" width="576" height="416"><circle r="3" cx="401.802734375" cy="234.11859130859375" fill="black"></circle><path d="M 326.697,83.031 C 330.692,89.826 330.940,89.701 334.687,96.621" stroke-width="8.159" stroke="black" fill="none" stroke-linecap="round"></path><path d="M 334.687,96.621 C 336.133,99.294 335.825,99.446 337.084,102.217" stroke-width="6.938" stroke="black" fill="none" stroke-linecap="round"></path><path d="M 337.084,102.217 C 339.820,108.240 341.883,107.673 342.677,114.208" stroke-width="5.612" stroke="black" fill="none" stroke-linecap="round"></path><path d="M 307.521,95.022 C 319.506,109.412 319.388,109.512 331.491,123.801" stroke-width="7.229" stroke="black" fill="none" stroke-linecap="round"></path><path d="M 331.491,123.801 C 339.363,133.094 339.282,133.175 347.471,142.187" stroke-width="4.500" stroke="black" fill="none" stroke-linecap="round"></path><path d="M 347.471,142.187 C 355.262,150.762 355.691,150.380 363.451,158.975" stroke-width="4.500" stroke="black" fill="none" stroke-linecap="round"></path><path d="M 363.451,158.975 C 366.877,162.770 366.595,163.014 369.843,166.969" stroke-width="4.998" stroke="black" fill="none" stroke-linecap="round"></path><path d="M 369.843,166.969 C 375.784,174.205 376.899,173.468 381.828,181.358" stroke-width="4.663" stroke="black" fill="none" stroke-linecap="round"></path><path d="M 381.828,181.358 C 388.884,192.654 388.895,193.038 393.813,205.340" stroke-width="4.500" stroke="black" fill="none" stroke-linecap="round"></path><path d="M 393.813,205.340 C 395.287,209.026 394.452,209.325 394.612,213.334" stroke-width="6.120" stroke="black" fill="none" stroke-linecap="round"></path><path d="M 394.612,213.334 C 394.851,219.318 395.756,219.600 394.612,225.325" stroke-width="5.505" stroke="black" fill="none" stroke-linecap="round"></path><path d="M 394.612,225.325 C 393.759,229.592 392.518,229.277 390.617,233.319" stroke-width="6.521" stroke="black" fill="none" stroke-linecap="round"></path><path d="M 390.617,233.319 C 389.322,236.072 389.494,236.152 388.220,238.915" stroke-width="6.968" stroke="black" fill="none" stroke-linecap="round"></path><path d="M 446.547,216.532 C 441.753,217.731 441.501,217.162 436.959,218.930" stroke-width="8.590" stroke="black" fill="none" stroke-linecap="round"></path><path d="M 436.959,218.930 C 434.310,219.960 434.384,220.311 432.165,222.128" stroke-width="7.107" stroke="black" fill="none" stroke-linecap="round"></path><path d="M 432.165,222.128 C 429.989,223.909 428.916,223.697 428.170,226.125" stroke-width="7.650" stroke="black" fill="none" stroke-linecap="round"></path><path d="M 428.170,226.125 C 427.318,228.893 427.127,230.342 428.969,232.520" stroke-width="7.661" stroke="black" fill="none" stroke-linecap="round"></path><path d="M 428.969,232.520 C 431.522,235.538 433.073,234.330 436.959,236.517" stroke-width="7.279" stroke="black" fill="none" stroke-linecap="round"></path><path d="M 436.959,236.517 C 439.465,237.927 441.132,237.644 441.753,239.714" stroke-width="7.826" stroke="black" fill="none" stroke-linecap="round"></path><path d="M 441.753,239.714 C 442.331,241.641 441.039,242.491 439.356,244.511" stroke-width="7.767" stroke="black" fill="none" stroke-linecap="round"></path><path d="M 439.356,244.511 C 437.044,247.287 437.083,247.774 433.763,249.307" stroke-width="6.662" stroke="black" fill="none" stroke-linecap="round"></path><path d="M 433.763,249.307 C 416.309,257.367 416.518,259.204 397.808,263.696" stroke-width="4.730" stroke="black" fill="none" stroke-linecap="round"></path><path d="M 397.808,263.696 C 366.580,271.195 365.891,269.067 333.888,273.289" stroke-width="4.500" stroke="black" fill="none" stroke-linecap="round"></path><path d="M 333.888,273.289 C 329.536,273.864 329.412,274.024 325.099,273.289" stroke-width="5.215" stroke="black" fill="none" stroke-linecap="round"></path><path d="M 325.099,273.289 C 310.636,270.826 310.119,271.491 296.335,266.894" stroke-width="4.884" stroke="black" fill="none" stroke-linecap="round"></path><path d="M 296.335,266.894 C 290.943,265.096 291.304,263.985 286.747,260.499" stroke-width="5.291" stroke="black" fill="none" stroke-linecap="round"></path><path d="M 286.747,260.499 C 284.512,258.789 284.656,258.588 282.752,256.502" stroke-width="6.293" stroke="black" fill="none" stroke-linecap="round"></path><path d="M 282.752,256.502 C 276.266,249.395 276.079,249.537 269.968,242.113" stroke-width="5.647" stroke="black" fill="none" stroke-linecap="round"></path><path d="M 269.968,242.113 C 264.893,235.947 265.625,235.339 260.380,229.322" stroke-width="4.500" stroke="black" fill="none" stroke-linecap="round"></path><path d="M 260.380,229.322 C 249.246,216.553 249.544,216.060 237.208,204.541" stroke-width="4.500" stroke="black" fill="none" stroke-linecap="round"></path><path d="M 237.208,204.541 C 231.567,199.272 231.207,199.431 224.425,195.747" stroke-width="4.500" stroke="black" fill="none" stroke-linecap="round"></path><path d="M 224.425,195.747 C 217.224,191.836 217.097,191.627 209.243,189.352" stroke-width="4.674" stroke="black" fill="none" stroke-linecap="round"></path><path d="M 209.243,189.352 C 201.916,187.230 201.696,187.345 194.062,186.954" stroke-width="4.711" stroke="black" fill="none" stroke-linecap="round"></path><path d="M 194.062,186.954 C 186.116,186.546 185.928,186.445 178.082,187.753" stroke-width="5.379" stroke="black" fill="none" stroke-linecap="round"></path><path d="M 178.082,187.753 C 169.148,189.243 169.223,189.933 160.504,192.550" stroke-width="4.892" stroke="black" fill="none" stroke-linecap="round"></path><path d="M 160.504,192.550 C 157.238,193.530 154.112,194.329 154.112,194.948" stroke-width="5.931" stroke="black" fill="none" stroke-linecap="round"></path><path d="M 154.112,194.948 C 154.112,195.528 157.404,195.668 160.504,194.948" stroke-width="7.241" stroke="black" fill="none" stroke-linecap="round"></path><path d="M 160.504,194.948 C 179.776,190.472 179.828,190.249 198.856,184.556" stroke-width="4.500" stroke="black" fill="none" stroke-linecap="round"></path><path d="M 198.856,184.556 C 222.574,177.459 222.413,176.918 245.998,169.367" stroke-width="4.500" stroke="black" fill="none" stroke-linecap="round"></path><path d="M 245.998,169.367 C 282.338,157.732 282.343,157.747 318.707,146.184" stroke-width="4.500" stroke="black" fill="none" stroke-linecap="round"></path><path d="M 318.707,146.184 C 333.879,141.360 333.788,141.055 349.069,136.591" stroke-width="4.500" stroke="black" fill="none" stroke-linecap="round"></path><path d="M 349.069,136.591 C 388.520,125.067 388.588,125.286 428.170,114.208" stroke-width="4.500" stroke="black" fill="none" stroke-linecap="round"></path><path d="M 428.170,114.208 C 445.716,109.298 445.639,108.887 463.326,104.615" stroke-width="4.500" stroke="black" fill="none" stroke-linecap="round"></path><path d="M 463.326,104.615 C 468.810,103.291 472.196,101.987 474.512,103.016" stroke-width="4.627" stroke="black" fill="none" stroke-linecap="round"></path><path d="M 474.512,103.016 C 475.791,103.585 472.927,105.840 470.517,107.813" stroke-width="6.421" stroke="black" fill="none" stroke-linecap="round"></path><path d="M 470.517,107.813 C 450.954,123.827 450.502,123.351 430.567,138.990" stroke-width="4.532" stroke="black" fill="none" stroke-linecap="round"></path><path d="M 430.567,138.990 C 415.346,150.930 415.632,151.305 400.205,162.972" stroke-width="4.500" stroke="black" fill="none" stroke-linecap="round"></path><path d="M 400.205,162.972 C 381.275,177.286 381.127,177.099 361.853,190.951" stroke-width="4.500" stroke="black" fill="none" stroke-linecap="round"></path><path d="M 361.853,190.951 C 352.762,197.484 352.428,197.024 343.476,203.741" stroke-width="4.500" stroke="black" fill="none" stroke-linecap="round"></path><path d="M 343.476,203.741 C 317.272,223.404 317.628,223.885 291.541,243.711" stroke-width="4.500" stroke="black" fill="none" stroke-linecap="round"></path><path d="M 291.541,243.711 C 276.080,255.461 275.732,255.008 260.380,266.894" stroke-width="4.500" stroke="black" fill="none" stroke-linecap="round"></path><path d="M 260.380,266.894 C 242.174,280.988 242.007,280.830 224.425,295.673" stroke-width="4.500" stroke="black" fill="none" stroke-linecap="round"></path><path d="M 224.425,295.673 C 216.439,302.414 216.633,302.669 209.243,310.062" stroke-width="4.500" stroke="black" fill="none" stroke-linecap="round"></path><path d="M 209.243,310.062 C 204.647,314.660 204.636,314.686 200.454,319.655" stroke-width="4.869" stroke="black" fill="none" stroke-linecap="round"></path></svg>