<svg xmlns="http://www.w3.org/2000/svg" xmlns:xlink="http://www.w3.org/1999/xlink" viewBox="0 0 576 416" width="576" height="416"><path d="M 103.775,154.778 C 97.383,155.177 97.387,155.299 90.991,155.577" stroke-width="8.458" stroke="black" fill="none" stroke-linecap="round"></path><path d="M 90.991,155.577 C 88.199,155.699 88.188,155.732 85.398,155.577" stroke-width="7.121" stroke="black" fill="none" stroke-linecap="round"></path><path d="M 85.398,155.577 C 80.997,155.332 80.993,155.265 76.609,154.778" stroke-width="7.167" stroke="black" fill="none" stroke-linecap="round"></path><path d="M 76.609,154.778 C 73.802,154.466 71.016,155.790 71.016,153.978" stroke-width="7.522" stroke="black" fill="none" stroke-linecap="round"></path><path d="M 71.016,153.978 C 71.016,150.194 73.265,148.396 76.609,143.586" stroke-width="7.390" stroke="black" fill="none" stroke-linecap="round"></path><path d="M 76.609,143.586 C 79.657,139.203 80.194,139.580 83.800,135.592" stroke-width="5.968" stroke="black" fill="none" stroke-linecap="round"></path><path d="M 83.800,135.592 C 87.785,131.186 88.140,131.465 91.790,126.798" stroke-width="5.482" stroke="black" fill="none" stroke-linecap="round"></path><path d="M 91.790,126.798 C 95.331,122.271 94.797,121.863 98.182,117.206" stroke-width="5.304" stroke="black" fill="none" stroke-linecap="round"></path><path d="M 98.182,117.206 C 101.189,113.070 101.647,113.395 104.574,109.212" stroke-width="5.600" stroke="black" fill="none" stroke-linecap="round"></path><path d="M 104.574,109.212 C 107.240,105.401 107.107,105.289 109.368,101.218" stroke-width="5.747" stroke="black" fill="none" stroke-linecap="round"></path><path d="M 109.368,101.218 C 111.102,98.095 110.966,98.020 112.564,94.822" stroke-width="6.147" stroke="black" fill="none" stroke-linecap="round"></path><path d="M 112.564,94.822 C 113.763,92.424 113.228,91.952 114.961,90.026" stroke-width="6.617" stroke="black" fill="none" stroke-linecap="round"></path><path d="M 114.961,90.026 C 116.824,87.955 117.852,86.136 119.755,86.828" stroke-width="7.337" stroke="black" fill="none" stroke-linecap="round"></path><path d="M 119.755,86.828 C 122.246,87.735 121.910,89.935 123.750,93.224" stroke-width="7.357" stroke="black" fill="none" stroke-linecap="round"></path><path d="M 123.750,93.224 C 127.503,99.928 127.404,99.988 130.941,106.813" stroke-width="5.294" stroke="black" fill="none" stroke-linecap="round"></path><path d="M 130.941,106.813 C 132.997,110.780 132.831,110.867 134.936,114.807" stroke-width="5.621" stroke="black" fill="none" stroke-linecap="round"></path><path d="M 134.936,114.807 C 145.216,134.049 145.236,134.041 155.710,153.179" stroke-width="4.500" stroke="black" fill="none" stroke-linecap="round"></path><path d="M 155.710,153.179 C 163.613,167.616 163.506,167.680 171.690,181.957" stroke-width="4.500" stroke="black" fill="none" stroke-linecap="round"></path><path d="M 171.690,181.957 C 179.086,194.859 179.055,194.888 186.871,207.538" stroke-width="4.500" stroke="black" fill="none" stroke-linecap="round"></path><path d="M 186.871,207.538 C 192.638,216.872 193.268,216.489 198.856,225.924" stroke-width="4.500" stroke="black" fill="none" stroke-linecap="round"></path><path d="M 198.856,225.924 C 206.052,238.073 205.964,238.153 212.439,250.706" stroke-width="4.500" stroke="black" fill="none" stroke-linecap="round"></path><path d="M 212.439,250.706 C 218.748,262.934 218.686,262.980 224.425,275.488" stroke-width="4.500" stroke="black" fill="none" stroke-linecap="round"></path><path d="M 224.425,275.488 C 229.872,287.362 230.185,287.265 234.811,299.470" stroke-width="4.500" stroke="black" fill="none" stroke-linecap="round"></path><path d="M 234.811,299.470 C 238.974,310.448 239.059,310.494 242.003,321.853" stroke-width="4.500" stroke="black" fill="none" stroke-linecap="round"></path><path d="M 242.003,321.853 C 244.652,332.078 244.715,332.161 245.998,342.637" stroke-width="4.500" stroke="black" fill="none" stroke-linecap="round"></path><path d="M 245.998,342.637 C 247.112,351.747 247.073,351.883 246.797,361.024" stroke-width="4.500" stroke="black" fill="none" stroke-linecap="round"></path><path d="M 246.797,361.024 C 246.674,365.073 246.295,365.100 245.199,369.018" stroke-width="5.369" stroke="black" fill="none" stroke-linecap="round"></path><path d="M 245.199,369.018 C 243.499,375.092 243.936,375.359 241.203,381.009" stroke-width="5.126" stroke="black" fill="none" stroke-linecap="round"></path><path d="M 241.203,381.009 C 237.943,387.750 238.256,388.366 233.214,393.799" stroke-width="4.871" stroke="black" fill="none" stroke-linecap="round"></path><path d="M 233.214,393.799 C 227.869,399.558 227.340,399.528 220.429,403.392" stroke-width="4.706" stroke="black" fill="none" stroke-linecap="round"></path><path d="M 220.429,403.392 C 213.757,407.123 213.470,407.131 206.047,408.988" stroke-width="4.714" stroke="black" fill="none" stroke-linecap="round"></path><path d="M 206.047,408.988 C 199.088,410.729 198.738,411.043 191.665,410.587" stroke-width="4.816" stroke="black" fill="none" stroke-linecap="round"></path><path d="M 191.665,410.587 C 186.354,410.244 186.051,409.859 181.278,407.389" stroke-width="5.269" stroke="black" fill="none" stroke-linecap="round"></path><path d="M 181.278,407.389 C 174.465,403.863 174.005,403.919 168.494,398.596" stroke-width="4.956" stroke="black" fill="none" stroke-linecap="round"></path><path d="M 168.494,398.596 C 162.420,392.727 162.114,392.450 158.107,385.006" stroke-width="4.516" stroke="black" fill="none" stroke-linecap="round"></path><path d="M 158.107,385.006 C 153.724,376.862 153.971,376.445 151.715,367.419" stroke-width="4.500" stroke="black" fill="none" stroke-linecap="round"></path><path d="M 151.715,367.419 C 149.576,358.858 149.318,358.618 149.318,349.832" stroke-width="4.500" stroke="black" fill="none" stroke-linecap="round"></path><path d="M 149.318,349.832 C 149.318,341.830 149.531,341.578 151.715,333.844" stroke-width="4.520" stroke="black" fill="none" stroke-linecap="round"></path><path d="M 151.715,333.844 C 154.724,323.192 154.319,322.682 159.705,313.060" stroke-width="4.500" stroke="black" fill="none" stroke-linecap="round"></path><path d="M 159.705,313.060 C 165.505,302.697 166.387,303.036 174.087,293.874" stroke-width="4.500" stroke="black" fill="none" stroke-linecap="round"></path><path d="M 174.087,293.874 C 181.168,285.449 181.012,285.114 189.268,277.886" stroke-width="4.500" stroke="black" fill="none" stroke-linecap="round"></path><path d="M 189.268,277.886 C 196.992,271.124 197.271,271.249 206.047,265.895" stroke-width="4.500" stroke="black" fill="none" stroke-linecap="round"></path><path d="M 206.047,265.895 C 213.651,261.256 213.952,261.716 222.027,257.901" stroke-width="4.500" stroke="black" fill="none" stroke-linecap="round"></path><path d="M 222.027,257.901 C 228.334,254.921 228.436,255.140 234.811,252.305" stroke-width="4.708" stroke="black" fill="none" stroke-linecap="round"></path><path d="M 234.811,252.305 C 239.223,250.343 239.287,250.465 243.601,248.308" stroke-width="5.458" stroke="black" fill="none" stroke-linecap="round"></path><path d="M 243.601,248.308 C 246.478,246.868 247.088,247.392 249.194,245.110" stroke-width="6.165" stroke="black" fill="none" stroke-linecap="round"></path><path d="M 249.194,245.110 C 251.882,242.196 251.522,241.668 253.189,237.916" stroke-width="6.857" stroke="black" fill="none" stroke-linecap="round"></path><path d="M 253.189,237.916 C 256.316,230.876 255.916,230.694 258.782,223.526" stroke-width="5.312" stroke="black" fill="none" stroke-linecap="round"></path><path d="M 258.782,223.526 C 263.107,212.707 262.591,212.460 267.571,201.942" stroke-width="4.500" stroke="black" fill="none" stroke-linecap="round"></path><path d="M 267.571,201.942 C 273.377,189.677 273.851,189.890 280.355,177.960" stroke-width="4.500" stroke="black" fill="none" stroke-linecap="round"></path><path d="M 280.355,177.960 C 283.439,172.303 282.947,171.953 286.747,166.769" stroke-width="4.585" stroke="black" fill="none" stroke-linecap="round"></path><path d="M 286.747,166.769 C 296.130,153.966 296.057,153.724 306.722,141.987" stroke-width="4.500" stroke="black" fill="none" stroke-linecap="round"></path><path d="M 306.722,141.987 C 312.037,136.138 311.937,135.207 318.707,131.595" stroke-width="4.500" stroke="black" fill="none" stroke-linecap="round"></path><path d="M 318.707,131.595 C 323.922,128.812 324.717,129.197 330.692,129.197" stroke-width="4.938" stroke="black" fill="none" stroke-linecap="round"></path><path d="M 330.692,129.197 C 335.903,129.197 336.118,129.790 341.079,131.595" stroke-width="5.253" stroke="black" fill="none" stroke-linecap="round"></path><path d="M 341.079,131.595 C 344.907,132.988 344.448,134.467 348.270,135.592" stroke-width="6.529" stroke="black" fill="none" stroke-linecap="round"></path><path d="M 348.270,135.592 C 351.239,136.466 351.781,136.766 354.662,135.592" stroke-width="6.537" stroke="black" fill="none" stroke-linecap="round"></path><path d="M 354.662,135.592 C 362.568,132.369 363.314,132.531 369.843,126.798" stroke-width="4.786" stroke="black" fill="none" stroke-linecap="round"></path><path d="M 369.843,126.798 C 382.889,115.344 381.904,114.078 393.813,101.218" stroke-width="4.500" stroke="black" fill="none" stroke-linecap="round"></path><path d="M 393.813,101.218 C 407.072,86.899 406.401,86.224 420.180,72.439" stroke-width="4.500" stroke="black" fill="none" stroke-linecap="round"></path><path d="M 420.180,72.439 C 430.371,62.242 429.806,59.502 441.753,53.253" stroke-width="4.500" stroke="black" fill="none" stroke-linecap="round"></path><path d="M 441.753,53.253 C 447.384,50.309 450.456,51.612 455.336,54.053" stroke-width="4.500" stroke="black" fill="none" stroke-linecap="round"></path><path d="M 455.336,54.053 C 457.647,55.209 456.650,57.292 456.135,60.448" stroke-width="5.596" stroke="black" fill="none" stroke-linecap="round"></path><path d="M 456.135,60.448 C 453.454,76.878 453.127,76.984 448.944,93.224" stroke-width="4.500" stroke="black" fill="none" stroke-linecap="round"></path><path d="M 448.944,93.224 C 443.140,115.755 443.392,115.882 436.160,137.990" stroke-width="4.500" stroke="black" fill="none" stroke-linecap="round"></path><path d="M 436.160,137.990 C 429.010,159.849 428.507,159.705 420.180,181.158" stroke-width="4.500" stroke="black" fill="none" stroke-linecap="round"></path><path d="M 420.180,181.158 C 412.527,200.874 413.073,201.185 404.200,220.329" stroke-width="4.500" stroke="black" fill="none" stroke-linecap="round"></path><path d="M 404.200,220.329 C 400.289,228.765 400.008,228.733 394.612,236.317" stroke-width="4.500" stroke="black" fill="none" stroke-linecap="round"></path><path d="M 394.612,236.317 C 383.229,252.315 383.801,254.665 370.642,267.494" stroke-width="4.500" stroke="black" fill="none" stroke-linecap="round"></path><path d="M 370.642,267.494 C 368.221,269.854 364.564,268.736 363.451,266.694" stroke-width="4.659" stroke="black" fill="none" stroke-linecap="round"></path><path d="M 363.451,266.694 C 362.167,264.339 364.019,262.436 365.848,258.700" stroke-width="5.545" stroke="black" fill="none" stroke-linecap="round"></path><path d="M 365.848,258.700 C 373.607,242.851 374.225,243.105 382.627,227.523" stroke-width="4.500" stroke="black" fill="none" stroke-linecap="round"></path><path d="M 382.627,227.523 C 390.604,212.728 390.802,212.831 398.607,197.945" stroke-width="4.500" stroke="black" fill="none" stroke-linecap="round"></path><path d="M 398.607,197.945 C 403.586,188.449 403.052,188.143 408.195,178.760" stroke-width="4.500" stroke="black" fill="none" stroke-linecap="round"></path><path d="M 408.195,178.760 C 409.843,175.752 414.437,171.665 412.190,173.164" stroke-width="5.242" stroke="black" fill="none" stroke-linecap="round"></path><path d="M 412.190,173.164 C 394.062,185.255 389.565,189.215 367.446,205.939" stroke-width="4.500" stroke="black" fill="none" stroke-linecap="round"></path><path d="M 367.446,205.939 C 337.230,228.786 338.256,230.197 307.521,252.305" stroke-width="4.500" stroke="black" fill="none" stroke-linecap="round"></path><path d="M 307.521,252.305 C 277.132,274.164 276.639,273.520 245.199,293.874" stroke-width="4.500" stroke="black" fill="none" stroke-linecap="round"></path><path d="M 245.199,293.874 C 201.933,321.884 201.653,321.453 158.107,349.033" stroke-width="4.500" stroke="black" fill="none" stroke-linecap="round"></path></svg>