<svg xmlns="http://www.w3.org/2000/svg" xmlns:xlink="http://www.w3.org/1999/xlink" viewBox="0 0 576 416" width="576" height="416"><path d="M 31.066,247.608 C 36.260,243.611 36.472,243.865 41.453,239.614" stroke-width="8.084" stroke="black" fill="none" stroke-linecap="round"></path><path d="M 41.453,239.614 C 50.055,232.274 50.020,232.209 58.232,224.426" stroke-width="4.578" stroke="black" fill="none" stroke-linecap="round"></path><path d="M 58.232,224.426 C 72.792,210.626 72.816,210.634 86.996,196.447" stroke-width="4.500" stroke="black" fill="none" stroke-linecap="round"></path><path d="M 86.996,196.447 C 93.590,189.850 93.661,189.886 99.780,182.857" stroke-width="4.500" stroke="black" fill="none" stroke-linecap="round"></path><path d="M 99.780,182.857 C 104.447,177.495 104.418,177.433 108.569,171.665" stroke-width="4.556" stroke="black" fill="none" stroke-linecap="round"></path><path d="M 108.569,171.665 C 111.609,167.441 111.749,167.459 114.162,162.872" stroke-width="5.227" stroke="black" fill="none" stroke-linecap="round"></path><path d="M 114.162,162.872 C 115.744,159.865 115.481,159.714 116.559,156.476" stroke-width="6.072" stroke="black" fill="none" stroke-linecap="round"></path><path d="M 116.559,156.476 C 117.478,153.718 119.173,150.245 118.157,150.881" stroke-width="7.118" stroke="black" fill="none" stroke-linecap="round"></path><path d="M 118.157,150.881 C 115.977,152.244 113.980,155.537 110.167,160.473" stroke-width="7.463" stroke="black" fill="none" stroke-linecap="round"></path><path d="M 110.167,160.473 C 107.188,164.331 107.279,164.409 104.574,168.467" stroke-width="6.046" stroke="black" fill="none" stroke-linecap="round"></path><path d="M 104.574,168.467 C 101.686,172.803 101.604,172.762 98.981,177.261" stroke-width="5.712" stroke="black" fill="none" stroke-linecap="round"></path><path d="M 98.981,177.261 C 96.011,182.355 96.238,182.486 93.388,187.653" stroke-width="5.426" stroke="black" fill="none" stroke-linecap="round"></path><path d="M 93.388,187.653 C 89.846,194.077 89.817,194.062 86.197,200.444" stroke-width="4.995" stroke="black" fill="none" stroke-linecap="round"></path><path d="M 86.197,200.444 C 81.428,208.851 81.082,208.669 76.609,217.231" stroke-width="4.517" stroke="black" fill="none" stroke-linecap="round"></path><path d="M 76.609,217.231 C 71.894,226.256 72.458,226.549 67.820,235.617" stroke-width="4.500" stroke="black" fill="none" stroke-linecap="round"></path><path d="M 67.820,235.617 C 63.669,243.736 63.106,243.453 59.031,251.605" stroke-width="4.500" stroke="black" fill="none" stroke-linecap="round"></path><path d="M 59.031,251.605 C 55.515,258.641 55.712,258.748 52.639,265.995" stroke-width="4.544" stroke="black" fill="none" stroke-linecap="round"></path><path d="M 52.639,265.995 C 50.119,271.938 50.162,271.960 47.845,277.986" stroke-width="4.929" stroke="black" fill="none" stroke-linecap="round"></path><path d="M 47.845,277.986 C 46.167,282.352 45.894,282.294 44.649,286.779" stroke-width="5.511" stroke="black" fill="none" stroke-linecap="round"></path><path d="M 44.649,286.779 C 43.897,289.489 44.051,289.563 43.850,292.375" stroke-width="6.262" stroke="black" fill="none" stroke-linecap="round"></path><path d="M 43.850,292.375 C 43.651,295.159 42.395,297.647 43.850,297.971" stroke-width="7.221" stroke="black" fill="none" stroke-linecap="round"></path><path d="M 43.850,297.971 C 45.990,298.447 47.844,296.500 51.041,293.974" stroke-width="7.583" stroke="black" fill="none" stroke-linecap="round"></path><path d="M 51.041,293.974 C 55.434,290.504 55.113,290.051 59.031,285.980" stroke-width="5.915" stroke="black" fill="none" stroke-linecap="round"></path><path d="M 59.031,285.980 C 65.500,279.259 65.490,279.246 71.815,272.390" stroke-width="4.782" stroke="black" fill="none" stroke-linecap="round"></path><path d="M 71.815,272.390 C 79.872,263.658 79.815,263.606 87.795,254.803" stroke-width="4.500" stroke="black" fill="none" stroke-linecap="round"></path><path d="M 87.795,254.803 C 95.396,246.419 95.543,246.546 102.976,238.016" stroke-width="4.500" stroke="black" fill="none" stroke-linecap="round"></path><path d="M 102.976,238.016 C 109.126,230.958 109.086,230.915 114.961,223.626" stroke-width="4.500" stroke="black" fill="none" stroke-linecap="round"></path><path d="M 114.961,223.626 C 119.074,218.524 119.058,218.505 122.951,213.234" stroke-width="4.761" stroke="black" fill="none" stroke-linecap="round"></path><path d="M 122.951,213.234 C 125.849,209.311 126.084,209.424 128.544,205.240" stroke-width="5.393" stroke="black" fill="none" stroke-linecap="round"></path><path d="M 128.544,205.240 C 130.079,202.629 131.375,202.033 130.941,199.644" stroke-width="6.201" stroke="black" fill="none" stroke-linecap="round"></path><path d="M 130.941,199.644 C 130.576,197.636 128.992,196.276 126.946,196.447" stroke-width="7.575" stroke="black" fill="none" stroke-linecap="round"></path><path d="M 126.946,196.447 C 124.198,196.676 123.850,198.112 121.353,200.444" stroke-width="6.719" stroke="black" fill="none" stroke-linecap="round"></path><path d="M 121.353,200.444 C 117.858,203.708 117.802,203.780 114.961,207.638" stroke-width="6.097" stroke="black" fill="none" stroke-linecap="round"></path><path d="M 114.961,207.638 C 112.209,211.375 112.333,211.515 110.167,215.632" stroke-width="5.804" stroke="black" fill="none" stroke-linecap="round"></path><path d="M 110.167,215.632 C 108.338,219.109 107.960,219.068 106.971,222.827" stroke-width="6.043" stroke="black" fill="none" stroke-linecap="round"></path><path d="M 106.971,222.827 C 105.962,226.663 104.770,230.019 106.172,230.821" stroke-width="6.859" stroke="black" fill="none" stroke-linecap="round"></path><path d="M 106.172,230.821 C 107.567,231.618 109.841,228.901 112.564,226.025" stroke-width="7.180" stroke="black" fill="none" stroke-linecap="round"></path><path d="M 112.564,226.025 C 117.032,221.306 117.142,221.181 120.554,215.632" stroke-width="5.456" stroke="black" fill="none" stroke-linecap="round"></path><path d="M 120.554,215.632 C 123.534,210.788 122.981,210.450 125.348,205.240" stroke-width="5.402" stroke="black" fill="none" stroke-linecap="round"></path><path d="M 125.348,205.240 C 126.976,201.656 126.881,201.612 128.544,198.045" stroke-width="5.906" stroke="black" fill="none" stroke-linecap="round"></path><path d="M 128.544,198.045 C 129.677,195.616 129.983,193.057 130.941,193.249" stroke-width="6.531" stroke="black" fill="none" stroke-linecap="round"></path><path d="M 130.941,193.249 C 131.981,193.457 130.542,198.012 132.539,198.845" stroke-width="7.750" stroke="black" fill="none" stroke-linecap="round"></path><path d="M 132.539,198.845 C 135.336,200.011 137.084,199.071 140.529,197.246" stroke-width="7.957" stroke="black" fill="none" stroke-linecap="round"></path><path d="M 140.529,197.246 C 143.875,195.474 143.326,194.448 146.122,191.650" stroke-width="6.496" stroke="black" fill="none" stroke-linecap="round"></path><path d="M 146.122,191.650 C 148.120,189.652 148.021,189.541 150.117,187.653" stroke-width="6.675" stroke="black" fill="none" stroke-linecap="round"></path><path d="M 150.117,187.653 C 152.016,185.944 152.804,183.895 154.112,184.456" stroke-width="7.439" stroke="black" fill="none" stroke-linecap="round"></path><path d="M 154.112,184.456 C 155.600,185.094 153.469,189.827 155.710,190.051" stroke-width="8.021" stroke="black" fill="none" stroke-linecap="round"></path><path d="M 155.710,190.051 C 161.459,190.627 163.219,188.805 170.092,186.054" stroke-width="7.249" stroke="black" fill="none" stroke-linecap="round"></path><path d="M 170.092,186.054 C 175.204,184.009 174.922,183.315 179.680,180.459" stroke-width="5.884" stroke="black" fill="none" stroke-linecap="round"></path><path d="M 179.680,180.459 C 182.912,178.519 182.804,178.330 186.072,176.462" stroke-width="6.046" stroke="black" fill="none" stroke-linecap="round"></path><path d="M 186.072,176.462 C 188.397,175.133 188.338,174.842 190.866,174.063" stroke-width="6.642" stroke="black" fill="none" stroke-linecap="round"></path><path d="M 190.866,174.063 C 193.531,173.243 193.800,174.151 196.459,173.264" stroke-width="7.601" stroke="black" fill="none" stroke-linecap="round"></path><path d="M 196.459,173.264 C 202.189,171.353 202.309,171.369 207.645,168.467" stroke-width="6.852" stroke="black" fill="none" stroke-linecap="round"></path><path d="M 207.645,168.467 C 220.686,161.377 220.917,161.601 233.214,153.279" stroke-width="4.500" stroke="black" fill="none" stroke-linecap="round"></path><path d="M 233.214,153.279 C 248.083,143.215 247.395,142.208 261.978,131.695" stroke-width="4.500" stroke="black" fill="none" stroke-linecap="round"></path><path d="M 261.978,131.695 C 274.561,122.623 274.888,123.078 287.546,114.108" stroke-width="4.500" stroke="black" fill="none" stroke-linecap="round"></path><path d="M 287.546,114.108 C 294.064,109.488 298.067,107.345 300.330,104.515" stroke-width="4.500" stroke="black" fill="none" stroke-linecap="round"></path><path d="M 300.330,104.515 C 301.263,103.348 296.863,104.626 293.938,106.114" stroke-width="6.033" stroke="black" fill="none" stroke-linecap="round"></path><path d="M 293.938,106.114 C 273.293,116.617 273.289,116.833 253.189,128.497" stroke-width="4.500" stroke="black" fill="none" stroke-linecap="round"></path><path d="M 253.189,128.497 C 233.339,140.016 233.289,139.991 214.037,152.479" stroke-width="4.500" stroke="black" fill="none" stroke-linecap="round"></path><path d="M 214.037,152.479 C 196.935,163.574 197.236,164.038 180.479,175.662" stroke-width="4.500" stroke="black" fill="none" stroke-linecap="round"></path><path d="M 180.479,175.662 C 167.273,184.823 167.186,184.706 154.112,194.048" stroke-width="4.500" stroke="black" fill="none" stroke-linecap="round"></path><path d="M 154.112,194.048 C 150.407,196.697 150.517,196.846 146.921,199.644" stroke-width="4.571" stroke="black" fill="none" stroke-linecap="round"></path><circle r="3" cx="199.65548706054688" cy="120.50326538085938" fill="black"></circle></svg>