<svg xmlns="http://www.w3.org/2000/svg" xmlns:xlink="http://www.w3.org/1999/xlink" viewBox="0 0 576 416" width="576" height="416"><path d="M 46.247,99.619 C 50.642,99.219 50.664,99.390 55.036,98.819" stroke-width="8.196" stroke="black" fill="none" stroke-linecap="round"></path><path d="M 55.036,98.819 C 59.852,98.191 59.918,98.398 64.624,97.221" stroke-width="7.246" stroke="black" fill="none" stroke-linecap="round"></path><path d="M 64.624,97.221 C 72.702,95.200 73.260,96.229 80.604,92.424" stroke-width="5.115" stroke="black" fill="none" stroke-linecap="round"></path><path d="M 80.604,92.424 C 95.632,84.638 95.962,84.445 109.368,74.038" stroke-width="4.500" stroke="black" fill="none" stroke-linecap="round"></path><path d="M 109.368,74.038 C 119.133,66.458 118.937,65.902 126.946,56.451" stroke-width="4.500" stroke="black" fill="none" stroke-linecap="round"></path><path d="M 126.946,56.451 C 134.518,47.516 133.864,46.945 140.529,37.265" stroke-width="4.500" stroke="black" fill="none" stroke-linecap="round"></path><path d="M 140.529,37.265 C 146.249,28.959 146.014,28.797 151.715,20.478" stroke-width="4.500" stroke="black" fill="none" stroke-linecap="round"></path><path d="M 151.715,20.478 C 155.602,14.807 155.394,14.614 159.705,9.286" stroke-width="4.513" stroke="black" fill="none" stroke-linecap="round"></path><path d="M 159.705,9.286 C 162.186,6.221 162.029,4.781 165.298,3.690" stroke-width="5.473" stroke="black" fill="none" stroke-linecap="round"></path><path d="M 165.298,3.690 C 168.021,2.782 169.978,2.918 171.690,5.289" stroke-width="6.729" stroke="black" fill="none" stroke-linecap="round"></path><path d="M 171.690,5.289 C 175.172,10.112 174.569,11.501 175.685,18.080" stroke-width="5.445" stroke="black" fill="none" stroke-linecap="round"></path><path d="M 175.685,18.080 C 178.164,32.685 177.689,32.835 178.881,47.658" stroke-width="4.500" stroke="black" fill="none" stroke-linecap="round"></path><path d="M 178.881,47.658 C 180.486,67.609 179.908,67.654 181.278,87.628" stroke-width="4.500" stroke="black" fill="none" stroke-linecap="round"></path><path d="M 181.278,87.628 C 182.705,108.424 182.661,108.431 184.474,129.197" stroke-width="4.500" stroke="black" fill="none" stroke-linecap="round"></path><path d="M 184.474,129.197 C 186.256,149.600 186.412,149.588 188.469,169.966" stroke-width="4.500" stroke="black" fill="none" stroke-linecap="round"></path><path d="M 188.469,169.966 C 190.407,189.158 190.587,189.140 192.464,208.338" stroke-width="4.500" stroke="black" fill="none" stroke-linecap="round"></path><path d="M 192.464,208.338 C 194.183,225.913 194.177,225.915 195.660,243.511" stroke-width="4.500" stroke="black" fill="none" stroke-linecap="round"></path><path d="M 195.660,243.511 C 196.974,259.090 197.179,259.082 198.057,274.688" stroke-width="4.500" stroke="black" fill="none" stroke-linecap="round"></path><path d="M 198.057,274.688 C 198.777,287.461 199.304,287.516 198.856,300.269" stroke-width="4.500" stroke="black" fill="none" stroke-linecap="round"></path><path d="M 198.856,300.269 C 198.505,310.299 197.881,310.295 196.459,320.254" stroke-width="4.500" stroke="black" fill="none" stroke-linecap="round"></path><path d="M 196.459,320.254 C 195.485,327.082 196.395,327.480 194.062,333.844" stroke-width="4.575" stroke="black" fill="none" stroke-linecap="round"></path><path d="M 194.062,333.844 C 192.000,339.471 192.000,340.317 187.670,344.236" stroke-width="5.021" stroke="black" fill="none" stroke-linecap="round"></path><path d="M 187.670,344.236 C 183.610,347.911 182.632,348.636 177.283,349.033" stroke-width="5.267" stroke="black" fill="none" stroke-linecap="round"></path><path d="M 177.283,349.033 C 171.845,349.436 171.298,348.176 166.097,345.835" stroke-width="5.320" stroke="black" fill="none" stroke-linecap="round"></path><path d="M 166.097,345.835 C 163.308,344.579 163.561,343.989 161.303,341.838" stroke-width="6.206" stroke="black" fill="none" stroke-linecap="round"></path><path d="M 161.303,341.838 C 155.171,335.995 155.003,336.122 149.318,329.847" stroke-width="4.795" stroke="black" fill="none" stroke-linecap="round"></path><path d="M 149.318,329.847 C 143.417,323.332 143.296,323.361 138.132,316.257" stroke-width="4.528" stroke="black" fill="none" stroke-linecap="round"></path><path d="M 138.132,316.257 C 133.708,310.171 133.952,309.969 130.142,303.467" stroke-width="4.694" stroke="black" fill="none" stroke-linecap="round"></path><path d="M 130.142,303.467 C 127.161,298.378 126.451,298.544 124.549,293.074" stroke-width="5.110" stroke="black" fill="none" stroke-linecap="round"></path><path d="M 124.549,293.074 C 123.255,289.351 123.519,289.021 123.750,285.080" stroke-width="5.772" stroke="black" fill="none" stroke-linecap="round"></path><path d="M 123.750,285.080 C 123.918,282.226 123.207,280.997 125.348,279.485" stroke-width="6.395" stroke="black" fill="none" stroke-linecap="round"></path><path d="M 125.348,279.485 C 129.998,276.201 131.156,276.346 137.333,275.488" stroke-width="6.511" stroke="black" fill="none" stroke-linecap="round"></path><path d="M 137.333,275.488 C 145.538,274.347 145.750,274.975 154.112,275.488" stroke-width="4.985" stroke="black" fill="none" stroke-linecap="round"></path><path d="M 154.112,275.488 C 165.326,276.174 165.323,276.490 176.484,277.886" stroke-width="4.500" stroke="black" fill="none" stroke-linecap="round"></path><path d="M 176.484,277.886 C 187.695,279.288 187.617,280.079 198.856,281.083" stroke-width="4.500" stroke="black" fill="none" stroke-linecap="round"></path><path d="M 198.856,281.083 C 209.989,282.078 210.152,282.838 221.228,281.883" stroke-width="4.500" stroke="black" fill="none" stroke-linecap="round"></path><path d="M 221.228,281.883 C 233.323,280.840 233.978,281.577 245.199,277.086" stroke-width="4.500" stroke="black" fill="none" stroke-linecap="round"></path><path d="M 245.199,277.086 C 261.943,270.385 262.690,270.305 277.159,259.499" stroke-width="4.500" stroke="black" fill="none" stroke-linecap="round"></path><path d="M 277.159,259.499 C 291.055,249.121 290.997,248.293 301.928,234.718" stroke-width="4.500" stroke="black" fill="none" stroke-linecap="round"></path><path d="M 301.928,234.718 C 314.168,219.515 313.091,218.566 323.501,201.942" stroke-width="4.500" stroke="black" fill="none" stroke-linecap="round"></path><path d="M 323.501,201.942 C 333.865,185.391 333.744,185.301 343.476,168.367" stroke-width="4.500" stroke="black" fill="none" stroke-linecap="round"></path><path d="M 343.476,168.367 C 352.121,153.325 352.507,153.494 360.255,137.990" stroke-width="4.500" stroke="black" fill="none" stroke-linecap="round"></path><path d="M 360.255,137.990 C 366.090,126.314 365.749,126.117 370.642,114.008" stroke-width="4.500" stroke="black" fill="none" stroke-linecap="round"></path><path d="M 370.642,114.008 C 373.340,107.331 375.109,97.040 375.436,100.418" stroke-width="4.500" stroke="black" fill="none" stroke-linecap="round"></path><path d="M 375.436,100.418 C 376.307,109.431 374.966,119.673 373.039,138.790" stroke-width="4.830" stroke="black" fill="none" stroke-linecap="round"></path><path d="M 373.039,138.790 C 370.172,167.237 369.443,167.168 365.848,195.547" stroke-width="4.500" stroke="black" fill="none" stroke-linecap="round"></path><path d="M 377.833,251.505 C 380.230,233.519 380.835,233.584 382.627,215.532" stroke-width="4.500" stroke="black" fill="none" stroke-linecap="round"></path><path d="M 382.627,215.532 C 386.428,177.226 386.401,177.199 389.019,138.790" stroke-width="4.500" stroke="black" fill="none" stroke-linecap="round"></path><path d="M 389.019,138.790 C 391.195,106.852 392.215,106.797 392.215,74.837" stroke-width="4.500" stroke="black" fill="none" stroke-linecap="round"></path><path d="M 392.215,74.837 C 392.215,52.038 394.898,50.593 389.019,29.271" stroke-width="4.500" stroke="black" fill="none" stroke-linecap="round"></path><path d="M 389.019,29.271 C 385.310,15.819 383.933,12.265 373.039,5.289" stroke-width="4.500" stroke="black" fill="none" stroke-linecap="round"></path><path d="M 373.039,5.289 C 363.958,-0.526 360.300,0.972 349.069,3.690" stroke-width="4.500" stroke="black" fill="none" stroke-linecap="round"></path><path d="M 349.069,3.690 C 335.531,6.967 334.655,8.184 323.501,17.280" stroke-width="4.500" stroke="black" fill="none" stroke-linecap="round"></path><path d="M 323.501,17.280 C 287.114,46.955 283.808,45.126 253.988,81.233" stroke-width="4.500" stroke="black" fill="none" stroke-linecap="round"></path><path d="M 253.988,81.233 C 221.086,121.069 226.022,125.200 198.057,169.167" stroke-width="4.500" stroke="black" fill="none" stroke-linecap="round"></path></svg>