<svg xmlns="http://www.w3.org/2000/svg" xmlns:xlink="http://www.w3.org/1999/xlink" viewBox="0 0 576 416" width="576" height="416"><path d="M 78.207,207.538 C 77.408,212.335 77.377,212.330 76.609,217.131" stroke-width="8.609" stroke="black" fill="none" stroke-linecap="round"></path><path d="M 76.609,217.131 C 75.779,222.322 75.754,222.319 75.011,227.523" stroke-width="6.222" stroke="black" fill="none" stroke-linecap="round"></path><path d="M 75.011,227.523 C 74.156,233.511 74.356,233.541 73.413,239.514" stroke-width="5.610" stroke="black" fill="none" stroke-linecap="round"></path><path d="M 73.413,239.514 C 71.959,248.730 71.750,248.697 70.217,257.901" stroke-width="4.505" stroke="black" fill="none" stroke-linecap="round"></path><path d="M 70.217,257.901 C 68.954,265.484 69.171,265.524 67.820,273.089" stroke-width="4.657" stroke="black" fill="none" stroke-linecap="round"></path><path d="M 67.820,273.089 C 67.173,276.715 66.665,276.632 66.222,280.284" stroke-width="5.685" stroke="black" fill="none" stroke-linecap="round"></path><path d="M 66.222,280.284 C 65.067,289.823 65.470,289.881 64.624,299.470" stroke-width="4.574" stroke="black" fill="none" stroke-linecap="round"></path><path d="M 64.624,299.470 C 64.271,303.471 64.294,303.475 63.825,307.464" stroke-width="5.552" stroke="black" fill="none" stroke-linecap="round"></path><path d="M 63.825,307.464 C 63.495,310.270 63.174,313.800 63.026,313.060" stroke-width="6.400" stroke="black" fill="none" stroke-linecap="round"></path><path d="M 63.026,313.060 C 62.775,311.802 62.551,308.224 63.026,303.467" stroke-width="7.635" stroke="black" fill="none" stroke-linecap="round"></path><path d="M 63.026,303.467 C 63.749,296.233 64.103,296.250 65.423,289.077" stroke-width="5.440" stroke="black" fill="none" stroke-linecap="round"></path><path d="M 65.423,289.077 C 66.899,281.061 66.645,280.990 68.619,273.089" stroke-width="4.819" stroke="black" fill="none" stroke-linecap="round"></path><path d="M 68.619,273.089 C 70.640,265.002 70.892,265.056 73.413,257.101" stroke-width="4.621" stroke="black" fill="none" stroke-linecap="round"></path><path d="M 73.413,257.101 C 76.086,248.668 75.728,248.514 79.006,240.314" stroke-width="4.500" stroke="black" fill="none" stroke-linecap="round"></path><path d="M 79.006,240.314 C 82.120,232.526 82.533,232.686 86.197,225.125" stroke-width="4.598" stroke="black" fill="none" stroke-linecap="round"></path><path d="M 86.197,225.125 C 88.925,219.496 88.994,219.529 91.790,213.934" stroke-width="4.906" stroke="black" fill="none" stroke-linecap="round"></path><path d="M 91.790,213.934 C 93.788,209.936 93.433,209.705 95.785,205.939" stroke-width="5.561" stroke="black" fill="none" stroke-linecap="round"></path><path d="M 95.785,205.939 C 97.428,203.309 98.670,200.588 99.780,201.143" stroke-width="6.849" stroke="black" fill="none" stroke-linecap="round"></path><path d="M 99.780,201.143 C 101.067,201.787 100.252,204.734 100.579,208.338" stroke-width="7.701" stroke="black" fill="none" stroke-linecap="round"></path><path d="M 100.579,208.338 C 101.051,213.527 101.007,213.532 101.378,218.730" stroke-width="6.082" stroke="black" fill="none" stroke-linecap="round"></path><path d="M 101.378,218.730 C 101.806,224.723 101.764,224.726 102.177,230.721" stroke-width="5.492" stroke="black" fill="none" stroke-linecap="round"></path><path d="M 102.177,230.721 C 102.563,236.318 102.562,236.318 102.976,241.913" stroke-width="5.443" stroke="black" fill="none" stroke-linecap="round"></path><path d="M 102.976,241.913 C 103.361,247.110 103.575,247.101 103.775,252.305" stroke-width="5.620" stroke="black" fill="none" stroke-linecap="round"></path><path d="M 103.775,252.305 C 103.975,257.493 103.775,257.501 103.775,262.697" stroke-width="5.596" stroke="black" fill="none" stroke-linecap="round"></path><path d="M 56.634,284.281 C 64.225,279.485 64.388,279.722 71.815,274.688" stroke-width="8.062" stroke="black" fill="none" stroke-linecap="round"></path><path d="M 71.815,274.688 C 76.773,271.328 76.865,271.385 81.403,267.494" stroke-width="5.888" stroke="black" fill="none" stroke-linecap="round"></path><path d="M 81.403,267.494 C 85.254,264.191 84.881,263.767 88.594,260.299" stroke-width="5.706" stroke="black" fill="none" stroke-linecap="round"></path><path d="M 88.594,260.299 C 90.873,258.171 90.991,258.300 93.388,256.302" stroke-width="6.356" stroke="black" fill="none" stroke-linecap="round"></path><path d="M 108.569,190.751 C 111.765,197.146 112.574,196.907 114.961,203.541" stroke-width="8.668" stroke="black" fill="none" stroke-linecap="round"></path><path d="M 114.961,203.541 C 116.170,206.900 115.312,207.145 115.760,210.736" stroke-width="6.872" stroke="black" fill="none" stroke-linecap="round"></path><path d="M 115.760,210.736 C 116.111,213.540 116.359,213.520 116.559,216.332" stroke-width="6.856" stroke="black" fill="none" stroke-linecap="round"></path><path d="M 116.559,216.332 C 116.758,219.116 116.385,219.139 116.559,221.928" stroke-width="6.723" stroke="black" fill="none" stroke-linecap="round"></path><path d="M 116.559,221.928 C 116.785,225.535 117.168,225.513 117.358,229.122" stroke-width="7.171" stroke="black" fill="none" stroke-linecap="round"></path><path d="M 117.358,229.122 C 117.568,233.108 117.358,233.119 117.358,237.116" stroke-width="7.222" stroke="black" fill="none" stroke-linecap="round"></path><path d="M 117.358,237.116 C 117.358,241.113 115.720,243.003 117.358,245.110" stroke-width="7.321" stroke="black" fill="none" stroke-linecap="round"></path><path d="M 117.358,245.110 C 118.516,246.600 120.286,245.131 122.951,244.311" stroke-width="8.308" stroke="black" fill="none" stroke-linecap="round"></path><path d="M 122.951,244.311 C 125.480,243.532 125.629,241.383 127.745,241.913" stroke-width="8.338" stroke="black" fill="none" stroke-linecap="round"></path><path d="M 127.745,241.913 C 130.423,242.582 130.050,244.410 132.539,246.709" stroke-width="8.045" stroke="black" fill="none" stroke-linecap="round"></path><path d="M 132.539,246.709 C 135.244,249.207 134.967,250.374 138.132,251.505" stroke-width="7.917" stroke="black" fill="none" stroke-linecap="round"></path><path d="M 138.132,251.505 C 140.560,252.373 141.365,251.978 143.725,250.706" stroke-width="7.728" stroke="black" fill="none" stroke-linecap="round"></path><path d="M 143.725,250.706 C 146.558,249.180 145.871,247.992 148.519,245.910" stroke-width="6.686" stroke="black" fill="none" stroke-linecap="round"></path><path d="M 178.082,160.373 C 178.082,167.968 177.906,167.971 178.082,175.562" stroke-width="8.207" stroke="black" fill="none" stroke-linecap="round"></path><path d="M 178.082,175.562 C 178.305,185.159 178.677,185.151 178.881,194.748" stroke-width="4.946" stroke="black" fill="none" stroke-linecap="round"></path><path d="M 178.881,194.748 C 179.077,203.937 178.686,203.945 178.881,213.134" stroke-width="4.500" stroke="black" fill="none" stroke-linecap="round"></path><path d="M 178.881,213.134 C 179.085,222.731 179.489,222.723 179.680,232.320" stroke-width="4.500" stroke="black" fill="none" stroke-linecap="round"></path><path d="M 179.680,232.320 C 179.888,242.708 179.680,242.712 179.680,253.104" stroke-width="4.500" stroke="black" fill="none" stroke-linecap="round"></path><path d="M 154.112,174.763 C 154.512,183.156 154.470,183.159 154.911,191.550" stroke-width="8.123" stroke="black" fill="none" stroke-linecap="round"></path><path d="M 154.911,191.550 C 155.269,198.347 155.516,198.339 155.710,205.140" stroke-width="5.650" stroke="black" fill="none" stroke-linecap="round"></path><path d="M 155.710,205.140 C 155.916,212.329 155.710,212.335 155.710,219.529" stroke-width="5.084" stroke="black" fill="none" stroke-linecap="round"></path><path d="M 155.710,219.529 C 155.710,225.925 155.930,225.933 155.710,232.320" stroke-width="5.120" stroke="black" fill="none" stroke-linecap="round"></path><path d="M 155.710,232.320 C 155.531,237.524 155.363,237.520 154.911,242.712" stroke-width="5.433" stroke="black" fill="none" stroke-linecap="round"></path><path d="M 154.911,242.712 C 154.564,246.714 154.323,246.700 154.112,250.706" stroke-width="5.891" stroke="black" fill="none" stroke-linecap="round"></path><path d="M 154.112,250.706 C 153.924,254.294 153.984,259.184 154.112,257.901" stroke-width="6.865" stroke="black" fill="none" stroke-linecap="round"></path><path d="M 143.725,245.110 C 148.919,238.715 148.662,238.484 154.112,232.320" stroke-width="8.124" stroke="black" fill="none" stroke-linecap="round"></path><path d="M 154.112,232.320 C 157.851,228.092 158.107,228.323 162.102,224.326" stroke-width="6.009" stroke="black" fill="none" stroke-linecap="round"></path><path d="M 162.102,224.326 C 165.298,221.128 165.192,221.014 168.494,217.931" stroke-width="5.915" stroke="black" fill="none" stroke-linecap="round"></path><path d="M 168.494,217.931 C 171.185,215.418 171.291,215.532 174.087,213.134" stroke-width="6.165" stroke="black" fill="none" stroke-linecap="round"></path><path d="M 201.253,192.350 C 196.459,201.942 195.878,201.702 191.665,211.535" stroke-width="8.237" stroke="black" fill="none" stroke-linecap="round"></path><path d="M 191.665,211.535 C 188.687,218.489 187.397,223.556 186.871,225.924" stroke-width="5.321" stroke="black" fill="none" stroke-linecap="round"></path><path d="M 186.871,225.924 C 186.598,227.154 188.148,219.157 190.067,218.730" stroke-width="5.946" stroke="black" fill="none" stroke-linecap="round"></path><path d="M 190.067,218.730 C 191.744,218.357 191.456,223.978 194.062,224.326" stroke-width="6.924" stroke="black" fill="none" stroke-linecap="round"></path><path d="M 194.062,224.326 C 197.449,224.778 198.257,222.650 202.052,220.329" stroke-width="7.065" stroke="black" fill="none" stroke-linecap="round"></path><path d="M 202.052,220.329 C 205.448,218.253 205.327,218.028 208.444,215.532" stroke-width="7.219" stroke="black" fill="none" stroke-linecap="round"></path><path d="M 208.444,215.532 C 211.319,213.231 210.858,212.099 214.037,210.736" stroke-width="7.286" stroke="black" fill="none" stroke-linecap="round"></path><path d="M 214.037,210.736 C 216.451,209.701 217.204,211.892 219.630,210.736" stroke-width="8.214" stroke="black" fill="none" stroke-linecap="round"></path><path d="M 219.630,210.736 C 225.594,207.895 225.909,207.418 230.816,202.742" stroke-width="6.861" stroke="black" fill="none" stroke-linecap="round"></path><path d="M 230.816,202.742 C 234.299,199.424 233.907,198.920 236.410,194.748" stroke-width="6.019" stroke="black" fill="none" stroke-linecap="round"></path><path d="M 236.410,194.748 C 238.701,190.926 238.676,190.862 240.405,186.754" stroke-width="5.934" stroke="black" fill="none" stroke-linecap="round"></path><path d="M 240.405,186.754 C 241.872,183.268 241.938,183.232 242.802,179.559" stroke-width="6.134" stroke="black" fill="none" stroke-linecap="round"></path><path d="M 242.802,179.559 C 243.536,176.437 243.601,176.366 243.601,173.164" stroke-width="6.329" stroke="black" fill="none" stroke-linecap="round"></path><path d="M 243.601,173.164 C 243.601,169.172 242.556,166.151 242.802,165.170" stroke-width="7.016" stroke="black" fill="none" stroke-linecap="round"></path><path d="M 242.802,165.170 C 242.956,164.552 243.687,167.542 244.400,169.966" stroke-width="8.053" stroke="black" fill="none" stroke-linecap="round"></path><path d="M 244.400,169.966 C 245.684,174.337 245.545,174.378 246.797,178.760" stroke-width="6.380" stroke="black" fill="none" stroke-linecap="round"></path><path d="M 246.797,178.760 C 247.942,182.772 248.229,182.701 249.194,186.754" stroke-width="6.047" stroke="black" fill="none" stroke-linecap="round"></path><path d="M 249.194,186.754 C 250.226,191.094 249.993,191.150 250.792,195.547" stroke-width="5.854" stroke="black" fill="none" stroke-linecap="round"></path><path d="M 250.792,195.547 C 251.591,199.944 251.787,199.917 252.390,204.341" stroke-width="5.885" stroke="black" fill="none" stroke-linecap="round"></path><path d="M 252.390,204.341 C 252.985,208.711 252.988,208.728 253.189,213.134" stroke-width="5.912" stroke="black" fill="none" stroke-linecap="round"></path><path d="M 253.189,213.134 C 253.388,217.522 253.408,217.543 253.189,221.928" stroke-width="5.743" stroke="black" fill="none" stroke-linecap="round"></path><path d="M 253.189,221.928 C 253.008,225.537 253.125,225.588 252.390,229.122" stroke-width="6.053" stroke="black" fill="none" stroke-linecap="round"></path><path d="M 252.390,229.122 C 251.128,235.181 251.272,235.291 249.194,241.113" stroke-width="5.329" stroke="black" fill="none" stroke-linecap="round"></path><path d="M 249.194,241.113 C 247.277,246.483 247.130,246.496 244.400,251.505" stroke-width="5.271" stroke="black" fill="none" stroke-linecap="round"></path><path d="M 244.400,251.505 C 242.336,255.290 242.115,255.185 239.605,258.700" stroke-width="5.739" stroke="black" fill="none" stroke-linecap="round"></path><path d="M 239.605,258.700 C 238.120,260.781 237.334,263.468 236.410,262.697" stroke-width="6.516" stroke="black" fill="none" stroke-linecap="round"></path><path d="M 236.410,262.697 C 234.937,261.469 234.263,258.545 234.811,254.703" stroke-width="7.339" stroke="black" fill="none" stroke-linecap="round"></path><path d="M 234.811,254.703 C 235.461,250.151 237.050,250.401 238.806,245.910" stroke-width="6.039" stroke="black" fill="none" stroke-linecap="round"></path><path d="M 238.806,245.910 C 240.645,241.208 239.908,240.889 242.003,236.317" stroke-width="5.843" stroke="black" fill="none" stroke-linecap="round"></path><path d="M 242.003,236.317 C 244.303,231.296 244.715,231.470 247.596,226.724" stroke-width="5.558" stroke="black" fill="none" stroke-linecap="round"></path><path d="M 247.596,226.724 C 251.507,220.278 251.456,220.240 255.586,213.934" stroke-width="4.876" stroke="black" fill="none" stroke-linecap="round"></path><path d="M 255.586,213.934 C 259.046,208.649 258.891,208.508 262.777,203.541" stroke-width="5.073" stroke="black" fill="none" stroke-linecap="round"></path><path d="M 262.777,203.541 C 266.082,199.315 266.285,199.462 269.968,195.547" stroke-width="5.453" stroke="black" fill="none" stroke-linecap="round"></path><path d="M 269.968,195.547 C 272.677,192.667 272.892,192.864 275.561,189.951" stroke-width="5.839" stroke="black" fill="none" stroke-linecap="round"></path><path d="M 275.561,189.951 C 277.287,188.067 276.746,187.362 278.757,185.954" stroke-width="6.611" stroke="black" fill="none" stroke-linecap="round"></path><path d="M 278.757,185.954 C 280.741,184.564 282.164,183.315 283.551,184.356" stroke-width="7.632" stroke="black" fill="none" stroke-linecap="round"></path><path d="M 283.551,184.356 C 285.360,185.713 283.386,189.649 285.149,190.751" stroke-width="8.193" stroke="black" fill="none" stroke-linecap="round"></path><path d="M 285.149,190.751 C 286.582,191.647 287.584,188.171 289.943,188.353" stroke-width="8.482" stroke="black" fill="none" stroke-linecap="round"></path><path d="M 289.943,188.353 C 292.777,188.571 293.216,189.441 295.536,191.550" stroke-width="8.521" stroke="black" fill="none" stroke-linecap="round"></path><path d="M 295.536,191.550 C 297.611,193.438 297.394,193.803 298.732,196.347" stroke-width="7.176" stroke="black" fill="none" stroke-linecap="round"></path><path d="M 298.732,196.347 C 301.389,201.397 300.876,201.679 303.526,206.739" stroke-width="6.860" stroke="black" fill="none" stroke-linecap="round"></path><circle r="3" cx="274.7615661621094" cy="133.19375610351562" fill="black"></circle><path d="M 309.918,171.565 C 306.322,175.962 306.322,175.962 302.727,180.359" stroke-width="8.454" stroke="black" fill="none" stroke-linecap="round"></path><path d="M 302.727,180.359 C 299.131,184.755 299.082,184.716 295.536,189.152" stroke-width="5.935" stroke="black" fill="none" stroke-linecap="round"></path><path d="M 295.536,189.152 C 292.690,192.710 293.424,193.434 289.943,196.347" stroke-width="5.882" stroke="black" fill="none" stroke-linecap="round"></path><path d="M 289.943,196.347 C 269.055,213.819 269.630,215.153 246.797,229.922" stroke-width="4.500" stroke="black" fill="none" stroke-linecap="round"></path><path d="M 246.797,229.922 C 230.079,240.734 228.955,239.006 210.841,247.508" stroke-width="4.500" stroke="black" fill="none" stroke-linecap="round"></path><path d="M 210.841,247.508 C 196.595,254.195 196.473,253.935 182.077,260.299" stroke-width="4.500" stroke="black" fill="none" stroke-linecap="round"></path><path d="M 182.077,260.299 C 179.295,261.529 179.172,261.282 176.484,262.697" stroke-width="5.321" stroke="black" fill="none" stroke-linecap="round"></path><path d="M 176.484,262.697 C 171.581,265.279 171.588,265.329 166.896,268.293" stroke-width="5.316" stroke="black" fill="none" stroke-linecap="round"></path><path d="M 166.896,268.293 C 156.406,274.921 156.396,274.920 146.122,281.883" stroke-width="4.500" stroke="black" fill="none" stroke-linecap="round"></path><path d="M 146.122,281.883 C 131.627,291.707 131.830,292.010 117.358,301.868" stroke-width="4.500" stroke="black" fill="none" stroke-linecap="round"></path><path d="M 117.358,301.868 C 113.053,304.800 112.885,304.546 108.569,307.464" stroke-width="4.500" stroke="black" fill="none" stroke-linecap="round"></path><path d="M 108.569,307.464 C 98.103,314.539 98.382,314.982 87.795,321.853" stroke-width="4.500" stroke="black" fill="none" stroke-linecap="round"></path><path d="M 87.795,321.853 C 83.601,324.575 83.317,324.112 79.006,326.649" stroke-width="4.838" stroke="black" fill="none" stroke-linecap="round"></path><path d="M 79.006,326.649 C 76.525,328.109 73.835,329.281 74.212,329.847" stroke-width="5.960" stroke="black" fill="none" stroke-linecap="round"></path><path d="M 74.212,329.847 C 74.634,330.480 77.438,329.624 80.604,329.048" stroke-width="7.446" stroke="black" fill="none" stroke-linecap="round"></path><path d="M 80.604,329.048 C 86.227,328.025 86.158,327.621 91.790,326.649" stroke-width="5.758" stroke="black" fill="none" stroke-linecap="round"></path><path d="M 91.790,326.649 C 97.743,325.622 97.769,325.718 103.775,325.051" stroke-width="5.491" stroke="black" fill="none" stroke-linecap="round"></path><path d="M 103.775,325.051 C 108.555,324.519 108.612,324.025 113.363,324.251" stroke-width="5.581" stroke="black" fill="none" stroke-linecap="round"></path><path d="M 113.363,324.251 C 117.001,324.424 117.144,324.571 120.554,325.850" stroke-width="6.052" stroke="black" fill="none" stroke-linecap="round"></path><path d="M 120.554,325.850 C 123.536,326.969 124.445,326.706 126.147,329.048" stroke-width="7.079" stroke="black" fill="none" stroke-linecap="round"></path><path d="M 126.147,329.048 C 127.641,331.102 126.781,331.829 126.946,334.643" stroke-width="7.492" stroke="black" fill="none" stroke-linecap="round"></path><path d="M 126.946,334.643 C 127.180,338.624 127.156,338.652 126.946,342.637" stroke-width="7.347" stroke="black" fill="none" stroke-linecap="round"></path><path d="M 126.946,342.637 C 126.756,346.246 126.319,346.222 126.147,349.832" stroke-width="7.371" stroke="black" fill="none" stroke-linecap="round"></path></svg>