<svg xmlns="http://www.w3.org/2000/svg" xmlns:xlink="http://www.w3.org/1999/xlink" viewBox="0 0 576 416" width="576" height="416"><path d="M 480.105,165.871 C 474.911,166.271 474.865,165.935 469.718,166.670" stroke-width="8.492" stroke="black" fill="none" stroke-linecap="round"></path><path d="M 469.718,166.670 C 463.679,167.533 463.637,167.537 457.733,169.068" stroke-width="5.916" stroke="black" fill="none" stroke-linecap="round"></path><path d="M 457.733,169.068 C 452.851,170.335 452.862,170.468 448.145,172.266" stroke-width="5.723" stroke="black" fill="none" stroke-linecap="round"></path><path d="M 448.145,172.266 C 444.472,173.666 443.223,172.780 440.954,175.464" stroke-width="6.017" stroke="black" fill="none" stroke-linecap="round"></path><path d="M 440.954,175.464 C 438.829,177.977 438.649,179.592 439.356,182.658" stroke-width="6.921" stroke="black" fill="none" stroke-linecap="round"></path><path d="M 439.356,182.658 C 439.847,184.788 441.109,184.669 443.351,185.856" stroke-width="6.919" stroke="black" fill="none" stroke-linecap="round"></path><path d="M 443.351,185.856 C 447.901,188.266 448.079,188.030 452.939,189.853" stroke-width="5.929" stroke="black" fill="none" stroke-linecap="round"></path><path d="M 452.939,189.853 C 457.667,191.627 457.789,191.304 462.527,193.051" stroke-width="5.727" stroke="black" fill="none" stroke-linecap="round"></path><path d="M 462.527,193.051 C 465.380,194.102 470.105,194.394 468.120,195.449" stroke-width="6.329" stroke="black" fill="none" stroke-linecap="round"></path><path d="M 468.120,195.449 C 457.321,201.189 452.902,202.304 436.959,206.640" stroke-width="5.692" stroke="black" fill="none" stroke-linecap="round"></path><path d="M 436.959,206.640 C 411.753,213.496 411.456,212.552 385.823,217.832" stroke-width="4.500" stroke="black" fill="none" stroke-linecap="round"></path><path d="M 385.823,217.832 C 357.124,223.744 356.925,222.814 328.295,229.024" stroke-width="4.500" stroke="black" fill="none" stroke-linecap="round"></path><path d="M 328.295,229.024 C 299.797,235.205 299.945,235.883 271.566,242.614" stroke-width="4.500" stroke="black" fill="none" stroke-linecap="round"></path><path d="M 271.566,242.614 C 246.013,248.674 245.981,248.539 220.429,254.605" stroke-width="4.500" stroke="black" fill="none" stroke-linecap="round"></path><path d="M 220.429,254.605 C 198.840,259.730 198.925,260.108 177.283,264.997" stroke-width="4.500" stroke="black" fill="none" stroke-linecap="round"></path><path d="M 177.283,264.997 C 161.771,268.501 161.760,268.524 146.122,271.392" stroke-width="4.500" stroke="black" fill="none" stroke-linecap="round"></path><path d="M 146.122,271.392 C 137.790,272.920 137.754,272.889 129.343,273.790" stroke-width="4.500" stroke="black" fill="none" stroke-linecap="round"></path><path d="M 129.343,273.790 C 126.568,274.088 122.598,274.629 123.750,273.790" stroke-width="5.506" stroke="black" fill="none" stroke-linecap="round"></path><path d="M 123.750,273.790 C 126.993,271.431 130.851,270.375 138.132,267.395" stroke-width="6.399" stroke="black" fill="none" stroke-linecap="round"></path><path d="M 138.132,267.395 C 148.429,263.181 148.421,263.117 158.906,259.401" stroke-width="4.500" stroke="black" fill="none" stroke-linecap="round"></path><path d="M 158.906,259.401 C 167.597,256.322 167.686,256.572 176.484,253.805" stroke-width="4.500" stroke="black" fill="none" stroke-linecap="round"></path><path d="M 176.484,253.805 C 181.668,252.175 186.472,249.808 186.871,250.608" stroke-width="5.161" stroke="black" fill="none" stroke-linecap="round"></path><path d="M 186.871,250.608 C 187.271,251.407 182.717,254.221 178.082,257.003" stroke-width="6.733" stroke="black" fill="none" stroke-linecap="round"></path><path d="M 178.082,257.003 C 174.727,259.017 174.496,258.623 170.891,260.200" stroke-width="6.315" stroke="black" fill="none" stroke-linecap="round"></path><path d="M 170.891,260.200 C 168.104,261.421 168.136,261.507 165.298,262.599" stroke-width="6.531" stroke="black" fill="none" stroke-linecap="round"></path></svg>