<svg xmlns="http://www.w3.org/2000/svg" xmlns:xlink="http://www.w3.org/1999/xlink" viewBox="0 0 576 416" width="576" height="416"><path d="M 368.245,187.653 C 363.451,190.851 363.565,191.047 358.657,194.048" stroke-width="8.802" stroke="black" fill="none" stroke-linecap="round"></path><path d="M 358.657,194.048 C 356.374,195.444 354.248,197.024 353.863,196.447" stroke-width="8.079" stroke="black" fill="none" stroke-linecap="round"></path><path d="M 353.863,196.447 C 353.449,195.825 357.241,191.468 357.059,191.650" stroke-width="8.593" stroke="black" fill="none" stroke-linecap="round"></path><path d="M 357.059,191.650 C 356.841,191.868 355.330,194.676 353.064,197.246" stroke-width="8.399" stroke="black" fill="none" stroke-linecap="round"></path><path d="M 353.064,197.246 C 349.338,201.471 349.236,201.423 345.074,205.240" stroke-width="5.811" stroke="black" fill="none" stroke-linecap="round"></path><path d="M 345.074,205.240 C 339.648,210.217 339.329,209.869 333.888,214.833" stroke-width="4.974" stroke="black" fill="none" stroke-linecap="round"></path><path d="M 333.888,214.833 C 325.746,222.260 325.272,221.891 317.908,230.022" stroke-width="4.500" stroke="black" fill="none" stroke-linecap="round"></path><path d="M 317.908,230.022 C 313.686,234.682 314.022,235.040 310.717,240.414" stroke-width="5.012" stroke="black" fill="none" stroke-linecap="round"></path><path d="M 310.717,240.414 C 307.630,245.432 307.411,245.397 305.124,250.806" stroke-width="5.128" stroke="black" fill="none" stroke-linecap="round"></path><path d="M 305.124,250.806 C 303.016,255.789 302.589,255.905 301.928,261.198" stroke-width="5.376" stroke="black" fill="none" stroke-linecap="round"></path><path d="M 301.928,261.198 C 301.390,265.497 302.517,265.586 302.727,269.992" stroke-width="5.748" stroke="black" fill="none" stroke-linecap="round"></path><path d="M 302.727,269.992 C 302.916,273.980 300.468,276.247 302.727,277.986" stroke-width="6.745" stroke="black" fill="none" stroke-linecap="round"></path><path d="M 302.727,277.986 C 305.661,280.244 307.951,278.383 313.114,277.986" stroke-width="5.890" stroke="black" fill="none" stroke-linecap="round"></path><path d="M 313.114,277.986 C 318.338,277.584 318.449,277.705 323.501,276.387" stroke-width="5.656" stroke="black" fill="none" stroke-linecap="round"></path><path d="M 323.501,276.387 C 327.637,275.307 328.141,275.583 331.491,273.189" stroke-width="5.876" stroke="black" fill="none" stroke-linecap="round"></path><path d="M 331.491,273.189 C 333.734,271.586 333.929,271.046 334.687,268.393" stroke-width="6.443" stroke="black" fill="none" stroke-linecap="round"></path><path d="M 334.687,268.393 C 335.527,265.450 335.786,264.884 334.687,261.998" stroke-width="6.510" stroke="black" fill="none" stroke-linecap="round"></path><path d="M 334.687,261.998 C 332.590,256.491 331.725,256.639 328.295,251.605" stroke-width="6.624" stroke="black" fill="none" stroke-linecap="round"></path><path d="M 328.295,251.605 C 325.732,247.846 325.498,248.008 322.702,244.411" stroke-width="5.975" stroke="black" fill="none" stroke-linecap="round"></path><path d="M 322.702,244.411 C 319.905,240.813 320.003,240.733 317.109,237.216" stroke-width="5.893" stroke="black" fill="none" stroke-linecap="round"></path><path d="M 317.109,237.216 C 314.410,233.938 314.312,234.019 311.516,230.821" stroke-width="5.968" stroke="black" fill="none" stroke-linecap="round"></path><path d="M 311.516,230.821 C 308.719,227.623 308.572,227.740 305.923,224.426" stroke-width="5.991" stroke="black" fill="none" stroke-linecap="round"></path><path d="M 305.923,224.426 C 303.778,221.744 303.690,221.769 301.928,218.830" stroke-width="6.347" stroke="black" fill="none" stroke-linecap="round"></path><path d="M 301.928,218.830 C 300.095,215.774 300.242,215.673 298.732,212.435" stroke-width="6.258" stroke="black" fill="none" stroke-linecap="round"></path><path d="M 298.732,212.435 C 297.446,209.677 296.853,209.776 296.335,206.839" stroke-width="6.512" stroke="black" fill="none" stroke-linecap="round"></path><path d="M 296.335,206.839 C 295.654,202.981 297.582,199.469 296.335,198.845" stroke-width="7.036" stroke="black" fill="none" stroke-linecap="round"></path><path d="M 296.335,198.845 C 295.185,198.270 294.079,201.774 291.541,204.441" stroke-width="7.985" stroke="black" fill="none" stroke-linecap="round"></path><path d="M 291.541,204.441 C 286.089,210.167 286.128,210.229 280.355,215.632" stroke-width="5.326" stroke="black" fill="none" stroke-linecap="round"></path><path d="M 280.355,215.632 C 273.744,221.820 273.783,221.907 266.772,227.623" stroke-width="4.608" stroke="black" fill="none" stroke-linecap="round"></path><path d="M 266.772,227.623 C 262.997,230.701 262.743,230.374 258.782,233.219" stroke-width="5.405" stroke="black" fill="none" stroke-linecap="round"></path><path d="M 258.782,233.219 C 247.162,241.565 247.384,241.892 235.611,250.007" stroke-width="4.500" stroke="black" fill="none" stroke-linecap="round"></path><path d="M 235.611,250.007 C 229.406,254.283 229.231,254.024 222.826,258.001" stroke-width="4.500" stroke="black" fill="none" stroke-linecap="round"></path><path d="M 222.826,258.001 C 217.645,261.218 217.782,261.480 212.439,264.396" stroke-width="4.934" stroke="black" fill="none" stroke-linecap="round"></path><path d="M 212.439,264.396 C 208.993,266.277 208.853,266.016 205.248,267.594" stroke-width="5.728" stroke="black" fill="none" stroke-linecap="round"></path><path d="M 205.248,267.594 C 202.461,268.814 200.178,271.037 199.655,269.992" stroke-width="6.960" stroke="black" fill="none" stroke-linecap="round"></path><path d="M 199.655,269.992 C 198.980,268.639 200.960,266.237 202.851,262.797" stroke-width="7.512" stroke="black" fill="none" stroke-linecap="round"></path><path d="M 202.851,262.797 C 205.355,258.243 205.386,258.211 208.444,254.004" stroke-width="6.046" stroke="black" fill="none" stroke-linecap="round"></path><path d="M 208.444,254.004 C 211.778,249.418 212.302,249.796 215.635,245.210" stroke-width="5.575" stroke="black" fill="none" stroke-linecap="round"></path><path d="M 215.635,245.210 C 218.694,241.003 218.447,240.823 221.228,236.417" stroke-width="5.662" stroke="black" fill="none" stroke-linecap="round"></path><path d="M 221.228,236.417 C 223.241,233.229 223.186,233.193 225.223,230.022" stroke-width="6.122" stroke="black" fill="none" stroke-linecap="round"></path><path d="M 225.223,230.022 C 226.781,227.597 229.524,226.015 228.419,225.225" stroke-width="6.460" stroke="black" fill="none" stroke-linecap="round"></path><path d="M 228.419,225.225 C 226.728,224.016 223.727,224.544 219.630,226.025" stroke-width="7.445" stroke="black" fill="none" stroke-linecap="round"></path><path d="M 219.630,226.025 C 209.345,229.741 209.646,230.828 199.655,235.617" stroke-width="4.557" stroke="black" fill="none" stroke-linecap="round"></path><path d="M 199.655,235.617 C 190.470,240.021 190.474,240.030 181.278,244.411" stroke-width="4.500" stroke="black" fill="none" stroke-linecap="round"></path><path d="M 181.278,244.411 C 173.695,248.024 173.702,248.039 166.097,251.605" stroke-width="4.500" stroke="black" fill="none" stroke-linecap="round"></path><path d="M 166.097,251.605 C 160.918,254.034 160.926,254.054 155.710,256.402" stroke-width="5.042" stroke="black" fill="none" stroke-linecap="round"></path><path d="M 155.710,256.402 C 152.936,257.651 149.434,260.053 150.117,258.800" stroke-width="6.056" stroke="black" fill="none" stroke-linecap="round"></path><path d="M 150.117,258.800 C 151.831,255.656 155.023,252.909 160.504,247.608" stroke-width="6.907" stroke="black" fill="none" stroke-linecap="round"></path><path d="M 160.504,247.608 C 167.008,241.318 167.150,241.438 174.087,235.617" stroke-width="4.899" stroke="black" fill="none" stroke-linecap="round"></path><path d="M 174.087,235.617 C 179.535,231.046 179.557,231.051 185.273,226.824" stroke-width="4.899" stroke="black" fill="none" stroke-linecap="round"></path><path d="M 185.273,226.824 C 188.746,224.256 193.814,221.046 192.464,222.028" stroke-width="5.600" stroke="black" fill="none" stroke-linecap="round"></path><path d="M 192.464,222.028 C 189.419,224.243 184.791,228.131 176.484,233.219" stroke-width="6.508" stroke="black" fill="none" stroke-linecap="round"></path><path d="M 176.484,233.219 C 165.215,240.122 164.921,239.655 153.313,246.010" stroke-width="4.500" stroke="black" fill="none" stroke-linecap="round"></path><path d="M 153.313,246.010 C 143.748,251.246 143.791,251.331 134.137,256.402" stroke-width="4.500" stroke="black" fill="none" stroke-linecap="round"></path><path d="M 134.137,256.402 C 127.811,259.725 127.880,259.924 121.353,262.797" stroke-width="4.654" stroke="black" fill="none" stroke-linecap="round"></path><path d="M 121.353,262.797 C 117.892,264.321 115.142,266.372 114.162,265.195" stroke-width="5.584" stroke="black" fill="none" stroke-linecap="round"></path><path d="M 114.162,265.195 C 113.145,263.974 114.949,261.014 117.358,258.001" stroke-width="6.979" stroke="black" fill="none" stroke-linecap="round"></path><path d="M 117.358,258.001 C 121.341,253.020 122.041,253.475 126.946,249.207" stroke-width="5.435" stroke="black" fill="none" stroke-linecap="round"></path><path d="M 126.946,249.207 C 131.229,245.481 131.302,245.561 135.735,242.013" stroke-width="5.493" stroke="black" fill="none" stroke-linecap="round"></path><path d="M 135.735,242.013 C 139.292,239.166 139.094,238.813 142.926,236.417" stroke-width="5.660" stroke="black" fill="none" stroke-linecap="round"></path><path d="M 142.926,236.417 C 145.486,234.816 149.005,233.695 148.519,234.019" stroke-width="6.930" stroke="black" fill="none" stroke-linecap="round"></path><path d="M 148.519,234.019 C 147.806,234.494 144.608,236.202 140.529,238.016" stroke-width="7.067" stroke="black" fill="none" stroke-linecap="round"></path><path d="M 140.529,238.016 C 133.822,240.998 133.777,240.914 126.946,243.611" stroke-width="5.335" stroke="black" fill="none" stroke-linecap="round"></path><path d="M 126.946,243.611 C 118.596,246.909 118.675,247.169 110.167,250.007" stroke-width="4.519" stroke="black" fill="none" stroke-linecap="round"></path><path d="M 110.167,250.007 C 103.095,252.365 103.069,252.458 95.785,254.004" stroke-width="4.707" stroke="black" fill="none" stroke-linecap="round"></path><path d="M 95.785,254.004 C 89.885,255.256 89.809,254.958 83.800,255.602" stroke-width="5.080" stroke="black" fill="none" stroke-linecap="round"></path><path d="M 83.800,255.602 C 78.623,256.157 78.602,256.402 73.413,256.402" stroke-width="5.420" stroke="black" fill="none" stroke-linecap="round"></path><path d="M 73.413,256.402 C 69.414,256.402 69.256,256.561 65.423,255.602" stroke-width="5.887" stroke="black" fill="none" stroke-linecap="round"></path><path d="M 65.423,255.602 C 62.864,254.962 62.277,255.152 60.629,253.204" stroke-width="6.583" stroke="black" fill="none" stroke-linecap="round"></path><path d="M 60.629,253.204 C 57.882,249.956 55.553,248.457 56.634,245.210" stroke-width="6.925" stroke="black" fill="none" stroke-linecap="round"></path><path d="M 56.634,245.210 C 57.950,241.262 60.659,241.357 65.423,238.815" stroke-width="6.851" stroke="black" fill="none" stroke-linecap="round"></path><path d="M 65.423,238.815 C 72.644,234.962 72.780,234.918 80.604,232.420" stroke-width="5.188" stroke="black" fill="none" stroke-linecap="round"></path><path d="M 80.604,232.420 C 91.557,228.922 91.686,229.119 102.976,226.824" stroke-width="4.500" stroke="black" fill="none" stroke-linecap="round"></path><path d="M 102.976,226.824 C 117.254,223.922 117.307,224.064 131.740,222.028" stroke-width="4.500" stroke="black" fill="none" stroke-linecap="round"></path><path d="M 131.740,222.028 C 148.468,219.667 148.466,219.370 165.298,218.031" stroke-width="4.500" stroke="black" fill="none" stroke-linecap="round"></path><path d="M 165.298,218.031 C 183.622,216.572 183.669,216.629 202.052,216.432" stroke-width="4.500" stroke="black" fill="none" stroke-linecap="round"></path><path d="M 202.052,216.432 C 220.822,216.230 220.836,216.625 239.605,217.231" stroke-width="4.500" stroke="black" fill="none" stroke-linecap="round"></path><path d="M 239.605,217.231 C 257.989,217.824 258.046,217.271 276.360,218.830" stroke-width="4.500" stroke="black" fill="none" stroke-linecap="round"></path><path d="M 276.360,218.830 C 295.600,220.468 295.575,220.950 314.712,223.626" stroke-width="4.500" stroke="black" fill="none" stroke-linecap="round"></path><path d="M 314.712,223.626 C 332.728,226.146 332.734,226.164 350.667,229.222" stroke-width="4.500" stroke="black" fill="none" stroke-linecap="round"></path><path d="M 350.667,229.222 C 367.890,232.159 367.875,232.270 385.024,235.617" stroke-width="4.500" stroke="black" fill="none" stroke-linecap="round"></path><path d="M 385.024,235.617 C 400.634,238.665 400.630,238.693 416.185,242.013" stroke-width="4.500" stroke="black" fill="none" stroke-linecap="round"></path><path d="M 416.185,242.013 C 430.593,245.088 430.567,245.210 444.949,248.408" stroke-width="4.500" stroke="black" fill="none" stroke-linecap="round"></path></svg>