<svg xmlns="http://www.w3.org/2000/svg" xmlns:xlink="http://www.w3.org/1999/xlink" viewBox="0 0 576 416" width="576" height="416"><path d="M 459.331,185.155 C 453.338,182.357 453.647,180.741 447.346,179.559" stroke-width="8.453" stroke="black" fill="none" stroke-linecap="round"></path><path d="M 447.346,179.559 C 440.863,178.343 440.544,179.837 433.763,180.359" stroke-width="5.697" stroke="black" fill="none" stroke-linecap="round"></path><path d="M 433.763,180.359 C 430.157,180.636 430.125,180.512 426.572,181.158" stroke-width="6.184" stroke="black" fill="none" stroke-linecap="round"></path><path d="M 426.572,181.158 C 421.336,182.110 421.241,181.947 416.185,183.556" stroke-width="5.615" stroke="black" fill="none" stroke-linecap="round"></path><path d="M 416.185,183.556 C 412.452,184.744 408.994,185.155 408.994,186.754" stroke-width="5.980" stroke="black" fill="none" stroke-linecap="round"></path><path d="M 408.994,186.754 C 408.994,188.353 412.405,189.006 416.185,189.951" stroke-width="6.852" stroke="black" fill="none" stroke-linecap="round"></path><path d="M 416.185,189.951 C 421.993,191.404 422.155,190.986 428.170,191.550" stroke-width="5.654" stroke="black" fill="none" stroke-linecap="round"></path><path d="M 428.170,191.550 C 434.939,192.185 434.987,191.695 441.753,192.350" stroke-width="5.273" stroke="black" fill="none" stroke-linecap="round"></path><path d="M 441.753,192.350 C 447.372,192.894 447.334,193.247 452.939,193.948" stroke-width="5.274" stroke="black" fill="none" stroke-linecap="round"></path><path d="M 452.939,193.948 C 456.922,194.447 456.990,194.052 460.929,194.748" stroke-width="5.834" stroke="black" fill="none" stroke-linecap="round"></path><path d="M 460.929,194.748 C 463.782,195.252 467.720,196.107 466.522,196.347" stroke-width="7.017" stroke="black" fill="none" stroke-linecap="round"></path><path d="M 466.522,196.347 C 463.725,196.906 459.730,196.347 452.939,196.347" stroke-width="6.596" stroke="black" fill="none" stroke-linecap="round"></path><path d="M 452.939,196.347 C 436.959,196.347 436.957,196.177 420.979,196.347" stroke-width="4.500" stroke="black" fill="none" stroke-linecap="round"></path><path d="M 420.979,196.347 C 399.404,196.576 399.391,196.347 377.833,197.146" stroke-width="4.500" stroke="black" fill="none" stroke-linecap="round"></path><path d="M 377.833,197.146 C 356.245,197.946 356.210,197.750 334.687,199.544" stroke-width="4.500" stroke="black" fill="none" stroke-linecap="round"></path><path d="M 334.687,199.544 C 313.064,201.347 313.037,201.381 291.541,204.341" stroke-width="4.500" stroke="black" fill="none" stroke-linecap="round"></path><path d="M 291.541,204.341 C 269.491,207.376 269.413,207.170 247.596,211.535" stroke-width="4.500" stroke="black" fill="none" stroke-linecap="round"></path><path d="M 247.596,211.535 C 227.466,215.563 227.405,215.568 207.645,221.128" stroke-width="4.500" stroke="black" fill="none" stroke-linecap="round"></path><path d="M 207.645,221.128 C 189.053,226.360 189.181,226.871 170.891,233.119" stroke-width="4.500" stroke="black" fill="none" stroke-linecap="round"></path><path d="M 170.891,233.119 C 156.422,238.062 156.463,238.191 142.127,243.511" stroke-width="4.500" stroke="black" fill="none" stroke-linecap="round"></path><path d="M 142.127,243.511 C 131.694,247.384 131.740,247.508 121.353,251.505" stroke-width="4.500" stroke="black" fill="none" stroke-linecap="round"></path><path d="M 121.353,251.505 C 116.160,253.504 109.353,254.916 110.966,255.502" stroke-width="4.708" stroke="black" fill="none" stroke-linecap="round"></path><path d="M 110.966,255.502 C 113.748,256.514 120.586,255.513 130.142,254.703" stroke-width="6.118" stroke="black" fill="none" stroke-linecap="round"></path><path d="M 130.142,254.703 C 144.157,253.515 144.109,252.947 158.107,251.505" stroke-width="4.500" stroke="black" fill="none" stroke-linecap="round"></path><path d="M 158.107,251.505 C 171.275,250.149 171.269,249.815 184.474,249.107" stroke-width="4.500" stroke="black" fill="none" stroke-linecap="round"></path><path d="M 184.474,249.107 C 193.641,248.616 193.677,248.829 202.851,249.107" stroke-width="4.500" stroke="black" fill="none" stroke-linecap="round"></path><path d="M 202.851,249.107 C 206.860,249.229 210.640,248.897 210.841,249.907" stroke-width="5.363" stroke="black" fill="none" stroke-linecap="round"></path><path d="M 210.841,249.907 C 211.039,250.896 207.431,252.159 203.650,253.104" stroke-width="6.591" stroke="black" fill="none" stroke-linecap="round"></path><path d="M 203.650,253.104 C 197.843,254.557 197.683,254.288 191.665,254.703" stroke-width="5.599" stroke="black" fill="none" stroke-linecap="round"></path><path d="M 191.665,254.703 C 186.098,255.087 186.062,254.926 180.479,254.703" stroke-width="5.384" stroke="black" fill="none" stroke-linecap="round"></path><path d="M 180.479,254.703 C 176.075,254.527 176.025,254.626 171.690,253.904" stroke-width="5.751" stroke="black" fill="none" stroke-linecap="round"></path><path d="M 171.690,253.904 C 168.834,253.427 168.021,254.016 166.097,252.305" stroke-width="6.448" stroke="black" fill="none" stroke-linecap="round"></path></svg>