<svg xmlns="http://www.w3.org/2000/svg" xmlns:xlink="http://www.w3.org/1999/xlink" viewBox="0 0 576 416" width="576" height="416"><path d="M 489.693,145.984 C 483.700,151.980 483.585,151.869 477.708,157.975" stroke-width="7.610" stroke="black" fill="none" stroke-linecap="round"></path><path d="M 477.708,157.975 C 473.198,162.661 473.513,162.971 468.919,167.568" stroke-width="6.204" stroke="black" fill="none" stroke-linecap="round"></path><path d="M 468.919,167.568 C 464.325,172.165 463.926,171.764 459.331,176.362" stroke-width="5.280" stroke="black" fill="none" stroke-linecap="round"></path><path d="M 459.331,176.362 C 453.938,181.757 454.200,182.018 448.944,187.553" stroke-width="5.155" stroke="black" fill="none" stroke-linecap="round"></path><path d="M 448.944,187.553 C 446.609,190.012 445.870,192.565 444.150,192.350" stroke-width="5.988" stroke="black" fill="none" stroke-linecap="round"></path><path d="M 444.150,192.350 C 442.674,192.165 442.212,189.472 442.552,186.754" stroke-width="7.438" stroke="black" fill="none" stroke-linecap="round"></path><path d="M 442.552,186.754 C 443.011,183.077 444.443,183.257 445.748,179.559" stroke-width="7.317" stroke="black" fill="none" stroke-linecap="round"></path><path d="M 445.748,179.559 C 446.840,176.462 448.683,174.693 447.346,173.164" stroke-width="7.471" stroke="black" fill="none" stroke-linecap="round"></path><path d="M 447.346,173.164 C 445.887,171.496 443.568,172.244 440.155,173.164" stroke-width="7.758" stroke="black" fill="none" stroke-linecap="round"></path><path d="M 440.155,173.164 C 433.181,175.042 433.279,175.777 426.572,178.760" stroke-width="6.572" stroke="black" fill="none" stroke-linecap="round"></path><path d="M 426.572,178.760 C 422.493,180.574 422.577,180.758 418.582,182.757" stroke-width="6.086" stroke="black" fill="none" stroke-linecap="round"></path><path d="M 418.582,182.757 C 415.386,184.356 415.286,184.184 412.190,185.954" stroke-width="6.259" stroke="black" fill="none" stroke-linecap="round"></path><path d="M 412.190,185.954 C 409.693,187.382 409.098,189.578 407.396,189.152" stroke-width="6.698" stroke="black" fill="none" stroke-linecap="round"></path><path d="M 407.396,189.152 C 405.902,188.778 405.798,186.816 405.798,184.356" stroke-width="7.676" stroke="black" fill="none" stroke-linecap="round"></path><path d="M 405.798,184.356 C 405.798,179.622 406.638,179.565 407.396,174.763" stroke-width="7.222" stroke="black" fill="none" stroke-linecap="round"></path><path d="M 407.396,174.763 C 407.836,171.971 409.400,170.573 408.195,169.167" stroke-width="7.539" stroke="black" fill="none" stroke-linecap="round"></path><path d="M 408.195,169.167 C 407.003,167.775 405.326,168.648 402.602,169.167" stroke-width="7.671" stroke="black" fill="none" stroke-linecap="round"></path><path d="M 402.602,169.167 C 396.936,170.247 396.782,170.183 391.416,172.365" stroke-width="5.878" stroke="black" fill="none" stroke-linecap="round"></path><path d="M 391.416,172.365 C 383.998,175.379 383.988,175.553 377.034,179.559" stroke-width="5.043" stroke="black" fill="none" stroke-linecap="round"></path><path d="M 377.034,179.559 C 370.804,183.148 370.645,183.074 365.049,187.553" stroke-width="4.824" stroke="black" fill="none" stroke-linecap="round"></path><path d="M 365.049,187.553 C 360.658,191.068 360.680,191.244 357.059,195.547" stroke-width="5.217" stroke="black" fill="none" stroke-linecap="round"></path><path d="M 357.059,195.547 C 354.288,198.839 353.956,198.875 352.265,202.742" stroke-width="5.720" stroke="black" fill="none" stroke-linecap="round"></path><path d="M 352.265,202.742 C 351.159,205.270 350.467,206.006 351.466,208.338" stroke-width="6.407" stroke="black" fill="none" stroke-linecap="round"></path><path d="M 351.466,208.338 C 352.864,211.602 353.782,212.294 357.059,213.934" stroke-width="7.033" stroke="black" fill="none" stroke-linecap="round"></path><path d="M 357.059,213.934 C 359.375,215.092 362.838,213.934 362.652,213.934" stroke-width="7.484" stroke="black" fill="none" stroke-linecap="round"></path><path d="M 362.652,213.934 C 362.439,213.934 359.443,213.734 356.260,213.934" stroke-width="8.038" stroke="black" fill="none" stroke-linecap="round"></path><path d="M 356.260,213.934 C 353.051,214.134 352.949,213.911 349.868,214.733" stroke-width="6.830" stroke="black" fill="none" stroke-linecap="round"></path><path d="M 349.868,214.733 C 346.957,215.510 347.031,215.844 344.275,217.131" stroke-width="6.610" stroke="black" fill="none" stroke-linecap="round"></path><path d="M 344.275,217.131 C 341.038,218.642 340.637,218.164 337.883,220.329" stroke-width="6.416" stroke="black" fill="none" stroke-linecap="round"></path><path d="M 337.883,220.329 C 335.044,222.561 335.220,222.939 333.089,225.924" stroke-width="6.319" stroke="black" fill="none" stroke-linecap="round"></path><path d="M 333.089,225.924 C 331.225,228.535 331.472,228.712 329.893,231.520" stroke-width="6.463" stroke="black" fill="none" stroke-linecap="round"></path><path d="M 329.893,231.520 C 327.876,235.107 327.736,235.037 325.898,238.715" stroke-width="5.993" stroke="black" fill="none" stroke-linecap="round"></path><path d="M 325.898,238.715 C 323.741,243.031 324.060,243.192 321.903,247.508" stroke-width="5.813" stroke="black" fill="none" stroke-linecap="round"></path><path d="M 321.903,247.508 C 320.065,251.186 319.905,251.106 317.908,254.703" stroke-width="5.987" stroke="black" fill="none" stroke-linecap="round"></path><path d="M 317.908,254.703 C 315.910,258.300 315.910,258.300 313.913,261.898" stroke-width="5.956" stroke="black" fill="none" stroke-linecap="round"></path><path d="M 313.913,261.898 C 311.915,265.495 312.193,265.678 309.918,269.092" stroke-width="5.947" stroke="black" fill="none" stroke-linecap="round"></path><path d="M 309.918,269.092 C 307.399,272.873 307.219,272.771 304.325,276.287" stroke-width="5.796" stroke="black" fill="none" stroke-linecap="round"></path><path d="M 304.325,276.287 C 301.626,279.565 301.528,279.485 298.732,282.682" stroke-width="5.938" stroke="black" fill="none" stroke-linecap="round"></path><path d="M 286.747,136.391 C 285.548,141.987 285.186,141.935 284.350,147.583" stroke-width="8.384" stroke="black" fill="none" stroke-linecap="round"></path><path d="M 284.350,147.583 C 283.588,152.727 283.730,152.771 283.551,157.975" stroke-width="6.202" stroke="black" fill="none" stroke-linecap="round"></path><path d="M 283.551,157.975 C 283.330,164.362 283.176,164.391 283.551,170.766" stroke-width="5.415" stroke="black" fill="none" stroke-linecap="round"></path><path d="M 283.551,170.766 C 283.975,177.981 284.327,177.963 285.149,185.155" stroke-width="5.015" stroke="black" fill="none" stroke-linecap="round"></path><path d="M 285.149,185.155 C 285.925,191.952 285.898,191.956 286.747,198.745" stroke-width="4.995" stroke="black" fill="none" stroke-linecap="round"></path><path d="M 286.747,198.745 C 287.496,204.747 287.528,204.743 288.345,210.736" stroke-width="5.260" stroke="black" fill="none" stroke-linecap="round"></path><path d="M 288.345,210.736 C 288.726,213.536 289.337,217.780 289.144,216.332" stroke-width="6.224" stroke="black" fill="none" stroke-linecap="round"></path><path d="M 242.003,192.350 C 242.802,196.746 242.681,196.772 243.601,201.143" stroke-width="8.623" stroke="black" fill="none" stroke-linecap="round"></path><path d="M 243.601,201.143 C 244.279,204.367 244.444,204.330 245.199,207.538" stroke-width="7.006" stroke="black" fill="none" stroke-linecap="round"></path><path d="M 245.199,207.538 C 246.042,211.125 246.392,211.092 246.797,214.733" stroke-width="6.480" stroke="black" fill="none" stroke-linecap="round"></path><path d="M 246.797,214.733 C 247.191,218.287 247.171,218.367 246.797,221.928" stroke-width="6.370" stroke="black" fill="none" stroke-linecap="round"></path><path d="M 246.797,221.928 C 246.372,225.962 246.315,226.013 245.199,229.922" stroke-width="6.166" stroke="black" fill="none" stroke-linecap="round"></path><path d="M 245.199,229.922 C 243.918,234.407 243.980,234.510 242.003,238.715" stroke-width="5.909" stroke="black" fill="none" stroke-linecap="round"></path><path d="M 242.003,238.715 C 240.784,241.305 240.345,241.075 238.806,243.511" stroke-width="6.387" stroke="black" fill="none" stroke-linecap="round"></path><path d="M 238.806,243.511 C 235.551,248.669 235.701,248.766 232.415,253.904" stroke-width="5.538" stroke="black" fill="none" stroke-linecap="round"></path><path d="M 232.415,253.904 C 229.309,258.758 229.352,258.794 226.022,263.496" stroke-width="5.415" stroke="black" fill="none" stroke-linecap="round"></path><path d="M 226.022,263.496 C 222.560,268.387 217.752,274.709 218.832,273.089" stroke-width="5.223" stroke="black" fill="none" stroke-linecap="round"></path><circle r="3" cx="345.8726501464844" cy="259.49945068359375" fill="black"></circle><path d="M 197.258,178.760 C 198.457,186.754 198.110,186.821 199.655,194.748" stroke-width="8.253" stroke="black" fill="none" stroke-linecap="round"></path><path d="M 199.655,194.748 C 201.306,203.209 202.000,203.074 203.650,211.535" stroke-width="5.179" stroke="black" fill="none" stroke-linecap="round"></path><path d="M 203.650,211.535 C 205.196,219.462 205.218,219.502 206.047,227.523" stroke-width="4.769" stroke="black" fill="none" stroke-linecap="round"></path><path d="M 206.047,227.523 C 206.417,231.093 206.047,231.121 206.047,234.718" stroke-width="5.761" stroke="black" fill="none" stroke-linecap="round"></path><path d="M 206.047,234.718 C 206.047,241.913 206.279,241.921 206.047,249.107" stroke-width="5.005" stroke="black" fill="none" stroke-linecap="round"></path><path d="M 206.047,249.107 C 205.880,254.312 206.433,254.521 205.248,259.499" stroke-width="5.308" stroke="black" fill="none" stroke-linecap="round"></path><path d="M 205.248,259.499 C 204.436,262.914 204.393,263.553 202.052,265.895" stroke-width="5.915" stroke="black" fill="none" stroke-linecap="round"></path><path d="M 202.052,265.895 C 200.398,267.550 199.038,268.751 197.258,267.494" stroke-width="6.652" stroke="black" fill="none" stroke-linecap="round"></path><path d="M 197.258,267.494 C 192.247,263.954 191.670,262.494 188.469,256.302" stroke-width="6.473" stroke="black" fill="none" stroke-linecap="round"></path><path d="M 188.469,256.302 C 185.678,250.902 186.036,250.416 185.273,244.311" stroke-width="5.626" stroke="black" fill="none" stroke-linecap="round"></path><path d="M 185.273,244.311 C 184.438,237.625 184.455,237.432 185.273,230.721" stroke-width="5.072" stroke="black" fill="none" stroke-linecap="round"></path><path d="M 185.273,230.721 C 186.453,221.044 186.297,220.824 189.268,211.535" stroke-width="4.513" stroke="black" fill="none" stroke-linecap="round"></path><path d="M 189.268,211.535 C 192.689,200.839 192.329,200.365 198.057,190.751" stroke-width="4.500" stroke="black" fill="none" stroke-linecap="round"></path><path d="M 198.057,190.751 C 204.713,179.581 204.757,179.066 214.037,169.966" stroke-width="4.500" stroke="black" fill="none" stroke-linecap="round"></path><path d="M 214.037,169.966 C 224.732,159.481 225.267,159.592 238.008,151.580" stroke-width="4.500" stroke="black" fill="none" stroke-linecap="round"></path><path d="M 238.008,151.580 C 253.232,142.005 253.434,141.909 269.968,134.793" stroke-width="4.500" stroke="black" fill="none" stroke-linecap="round"></path><path d="M 269.968,134.793 C 287.791,127.121 288.020,127.233 306.722,122.002" stroke-width="4.500" stroke="black" fill="none" stroke-linecap="round"></path><path d="M 306.722,122.002 C 325.173,116.841 325.334,116.923 344.275,114.008" stroke-width="4.500" stroke="black" fill="none" stroke-linecap="round"></path><path d="M 344.275,114.008 C 361.689,111.328 361.820,111.681 379.431,110.810" stroke-width="4.500" stroke="black" fill="none" stroke-linecap="round"></path><path d="M 379.431,110.810 C 394.179,110.082 394.356,109.459 408.994,110.810" stroke-width="4.500" stroke="black" fill="none" stroke-linecap="round"></path><path d="M 408.994,110.810 C 420.323,111.857 420.587,112.096 431.366,115.607" stroke-width="4.500" stroke="black" fill="none" stroke-linecap="round"></path><path d="M 431.366,115.607 C 437.765,117.691 438.927,117.365 443.351,122.002" stroke-width="4.515" stroke="black" fill="none" stroke-linecap="round"></path><path d="M 443.351,122.002 C 447.316,126.158 447.898,127.763 448.145,133.194" stroke-width="5.002" stroke="black" fill="none" stroke-linecap="round"></path><path d="M 448.145,133.194 C 448.298,136.557 446.961,137.128 444.150,139.589" stroke-width="5.805" stroke="black" fill="none" stroke-linecap="round"></path><path d="M 444.150,139.589 C 430.981,151.118 431.369,152.337 416.185,161.173" stroke-width="4.500" stroke="black" fill="none" stroke-linecap="round"></path><path d="M 416.185,161.173 C 392.218,175.120 391.313,173.831 365.848,185.155" stroke-width="4.500" stroke="black" fill="none" stroke-linecap="round"></path><path d="M 365.848,185.155 C 340.976,196.215 340.892,196.097 315.511,205.939" stroke-width="4.500" stroke="black" fill="none" stroke-linecap="round"></path><path d="M 315.511,205.939 C 289.357,216.082 289.062,215.315 262.777,225.125" stroke-width="4.500" stroke="black" fill="none" stroke-linecap="round"></path><path d="M 262.777,225.125 C 238.725,234.101 238.668,233.974 214.836,243.511" stroke-width="4.500" stroke="black" fill="none" stroke-linecap="round"></path><path d="M 214.836,243.511 C 196.720,250.762 196.924,251.267 178.881,258.700" stroke-width="4.500" stroke="black" fill="none" stroke-linecap="round"></path><path d="M 178.881,258.700 C 169.758,262.458 169.706,262.331 160.504,265.895" stroke-width="4.500" stroke="black" fill="none" stroke-linecap="round"></path><path d="M 160.504,265.895 C 157.321,267.128 153.066,269.340 154.112,268.293" stroke-width="5.157" stroke="black" fill="none" stroke-linecap="round"></path><path d="M 154.112,268.293 C 156.661,265.743 160.602,263.024 167.695,258.700" stroke-width="6.180" stroke="black" fill="none" stroke-linecap="round"></path><path d="M 167.695,258.700 C 186.171,247.436 186.312,247.619 205.248,237.116" stroke-width="4.500" stroke="black" fill="none" stroke-linecap="round"></path><path d="M 205.248,237.116 C 223.066,227.234 223.117,227.313 241.203,217.931" stroke-width="4.500" stroke="black" fill="none" stroke-linecap="round"></path><path d="M 241.203,217.931 C 255.477,210.526 255.868,211.236 269.968,203.541" stroke-width="4.500" stroke="black" fill="none" stroke-linecap="round"></path><path d="M 269.968,203.541 C 277.840,199.245 282.301,197.082 285.149,193.948" stroke-width="4.500" stroke="black" fill="none" stroke-linecap="round"></path><path d="M 285.149,193.948 C 286.296,192.686 281.411,193.701 277.958,194.748" stroke-width="5.995" stroke="black" fill="none" stroke-linecap="round"></path><path d="M 277.958,194.748 C 255.044,201.695 255.105,202.108 232.415,209.936" stroke-width="4.500" stroke="black" fill="none" stroke-linecap="round"></path><path d="M 232.415,209.936 C 208.763,218.096 208.805,218.222 185.273,226.724" stroke-width="4.500" stroke="black" fill="none" stroke-linecap="round"></path><path d="M 185.273,226.724 C 165.659,233.811 165.729,234.006 146.122,241.113" stroke-width="4.500" stroke="black" fill="none" stroke-linecap="round"></path><path d="M 146.122,241.113 C 138.164,243.998 137.976,243.516 130.142,246.709" stroke-width="4.500" stroke="black" fill="none" stroke-linecap="round"></path><path d="M 130.142,246.709 C 116.403,252.309 116.738,253.327 102.976,258.700" stroke-width="4.500" stroke="black" fill="none" stroke-linecap="round"></path><path d="M 102.976,258.700 C 100.358,259.722 96.699,260.755 97.383,259.499" stroke-width="5.141" stroke="black" fill="none" stroke-linecap="round"></path><path d="M 97.383,259.499 C 99.096,256.358 102.128,254.141 107.770,249.907" stroke-width="6.341" stroke="black" fill="none" stroke-linecap="round"></path><path d="M 107.770,249.907 C 121.304,239.751 121.764,240.331 135.735,230.721" stroke-width="4.500" stroke="black" fill="none" stroke-linecap="round"></path><path d="M 135.735,230.721 C 147.333,222.744 147.599,223.095 158.906,214.733" stroke-width="4.500" stroke="black" fill="none" stroke-linecap="round"></path><path d="M 158.906,214.733 C 165.976,209.505 165.857,209.312 172.489,203.541" stroke-width="4.500" stroke="black" fill="none" stroke-linecap="round"></path><path d="M 172.489,203.541 C 175.045,201.318 178.276,199.738 177.283,198.745" stroke-width="5.466" stroke="black" fill="none" stroke-linecap="round"></path><path d="M 177.283,198.745 C 175.879,197.340 172.382,197.903 167.695,198.745" stroke-width="6.469" stroke="black" fill="none" stroke-linecap="round"></path><path d="M 167.695,198.745 C 156.801,200.701 156.863,201.376 146.122,204.341" stroke-width="4.536" stroke="black" fill="none" stroke-linecap="round"></path><path d="M 146.122,204.341 C 133.692,207.771 133.692,207.788 121.353,211.535" stroke-width="4.500" stroke="black" fill="none" stroke-linecap="round"></path><path d="M 121.353,211.535 C 111.320,214.583 111.374,214.759 101.378,217.931" stroke-width="4.500" stroke="black" fill="none" stroke-linecap="round"></path><path d="M 101.378,217.931 C 94.995,219.956 95.069,220.308 88.594,221.928" stroke-width="4.595" stroke="black" fill="none" stroke-linecap="round"></path><path d="M 88.594,221.928 C 85.481,222.706 83.046,223.782 82.202,222.727" stroke-width="5.796" stroke="black" fill="none" stroke-linecap="round"></path><path d="M 82.202,222.727 C 81.448,221.783 83.563,220.134 85.398,217.931" stroke-width="7.229" stroke="black" fill="none" stroke-linecap="round"></path><path d="M 85.398,217.931 C 87.558,215.338 90.192,214.966 90.192,213.134" stroke-width="7.443" stroke="black" fill="none" stroke-linecap="round"></path><path d="M 90.192,213.134 C 90.192,211.769 87.349,212.999 85.398,211.535" stroke-width="8.068" stroke="black" fill="none" stroke-linecap="round"></path><path d="M 85.398,211.535 C 82.555,209.401 80.604,209.161 80.604,205.939" stroke-width="7.586" stroke="black" fill="none" stroke-linecap="round"></path><path d="M 80.604,205.939 C 80.604,199.968 81.601,198.736 85.398,193.149" stroke-width="5.671" stroke="black" fill="none" stroke-linecap="round"></path><path d="M 85.398,193.149 C 95.184,178.751 96.370,179.372 107.770,165.969" stroke-width="4.500" stroke="black" fill="none" stroke-linecap="round"></path><path d="M 107.770,165.969 C 112.350,160.586 112.163,160.359 117.358,155.577" stroke-width="4.500" stroke="black" fill="none" stroke-linecap="round"></path><path d="M 181.278,153.978 C 181.678,148.782 180.026,146.408 182.077,143.586" stroke-width="8.010" stroke="black" fill="none" stroke-linecap="round"></path><path d="M 182.077,143.586 C 183.222,142.011 185.463,143.579 187.670,145.185" stroke-width="8.211" stroke="black" fill="none" stroke-linecap="round"></path></svg>