<svg xmlns="http://www.w3.org/2000/svg" xmlns:xlink="http://www.w3.org/1999/xlink" viewBox="0 0 576 416" width="576" height="416"><path d="M 320.305,237.916 C 316.310,234.318 316.359,234.261 312.315,230.721" stroke-width="8.148" stroke="black" fill="none" stroke-linecap="round"></path><path d="M 312.315,230.721 C 309.967,228.666 309.818,228.831 307.521,226.724" stroke-width="6.986" stroke="black" fill="none" stroke-linecap="round"></path><path d="M 307.521,226.724 C 305.024,224.434 304.956,224.476 302.727,221.928" stroke-width="6.590" stroke="black" fill="none" stroke-linecap="round"></path><path d="M 302.727,221.928 C 299.363,218.081 299.157,218.169 296.335,213.934" stroke-width="6.053" stroke="black" fill="none" stroke-linecap="round"></path><path d="M 296.335,213.934 C 294.363,210.975 294.131,210.915 293.139,207.538" stroke-width="6.248" stroke="black" fill="none" stroke-linecap="round"></path><path d="M 293.139,207.538 C 292.134,204.120 292.340,203.938 292.340,200.344" stroke-width="6.293" stroke="black" fill="none" stroke-linecap="round"></path><path d="M 292.340,200.344 C 292.340,197.143 292.221,197.008 293.139,193.948" stroke-width="6.454" stroke="black" fill="none" stroke-linecap="round"></path><path d="M 293.139,193.948 C 294.618,189.014 294.484,188.774 297.134,184.356" stroke-width="5.821" stroke="black" fill="none" stroke-linecap="round"></path><path d="M 297.134,184.356 C 300.476,178.782 300.694,178.764 305.124,173.963" stroke-width="5.377" stroke="black" fill="none" stroke-linecap="round"></path><path d="M 305.124,173.963 C 310.282,168.372 310.533,168.554 316.310,163.571" stroke-width="4.813" stroke="black" fill="none" stroke-linecap="round"></path><path d="M 316.310,163.571 C 322.118,158.561 322.112,158.515 328.295,153.978" stroke-width="4.844" stroke="black" fill="none" stroke-linecap="round"></path><path d="M 328.295,153.978 C 334.097,149.721 334.164,149.782 340.280,145.984" stroke-width="4.768" stroke="black" fill="none" stroke-linecap="round"></path><path d="M 340.280,145.984 C 345.749,142.587 345.715,142.466 351.466,139.589" stroke-width="5.009" stroke="black" fill="none" stroke-linecap="round"></path><path d="M 351.466,139.589 C 356.102,137.270 356.204,137.441 361.054,135.592" stroke-width="5.400" stroke="black" fill="none" stroke-linecap="round"></path><path d="M 361.054,135.592 C 364.593,134.243 364.567,133.884 368.245,133.194" stroke-width="5.952" stroke="black" fill="none" stroke-linecap="round"></path><path d="M 368.245,133.194 C 370.959,132.685 372.687,131.548 373.838,133.194" stroke-width="6.503" stroke="black" fill="none" stroke-linecap="round"></path><path d="M 373.838,133.194 C 375.483,135.545 375.353,137.649 373.838,141.188" stroke-width="7.360" stroke="black" fill="none" stroke-linecap="round"></path><path d="M 373.838,141.188 C 370.559,148.841 369.320,148.581 364.250,155.577" stroke-width="4.936" stroke="black" fill="none" stroke-linecap="round"></path><path d="M 364.250,155.577 C 357.734,164.569 357.738,164.600 350.667,173.164" stroke-width="4.500" stroke="black" fill="none" stroke-linecap="round"></path><path d="M 350.667,173.164 C 342.557,182.986 342.364,182.834 333.888,192.350" stroke-width="4.500" stroke="black" fill="none" stroke-linecap="round"></path><path d="M 333.888,192.350 C 325.985,201.221 326.092,201.328 317.908,209.936" stroke-width="4.500" stroke="black" fill="none" stroke-linecap="round"></path><path d="M 317.908,209.936 C 310.511,217.716 310.522,217.748 302.727,225.125" stroke-width="4.500" stroke="black" fill="none" stroke-linecap="round"></path><path d="M 302.727,225.125 C 295.740,231.737 295.663,231.670 288.345,237.916" stroke-width="4.500" stroke="black" fill="none" stroke-linecap="round"></path><path d="M 288.345,237.916 C 282.080,243.262 281.971,243.135 275.561,248.308" stroke-width="4.510" stroke="black" fill="none" stroke-linecap="round"></path><path d="M 275.561,248.308 C 269.587,253.128 269.985,253.778 263.576,257.901" stroke-width="4.828" stroke="black" fill="none" stroke-linecap="round"></path><path d="M 263.576,257.901 C 258.799,260.973 258.491,260.575 253.189,262.697" stroke-width="5.114" stroke="black" fill="none" stroke-linecap="round"></path><path d="M 253.189,262.697 C 248.504,264.572 248.515,265.040 243.601,265.895" stroke-width="5.474" stroke="black" fill="none" stroke-linecap="round"></path><path d="M 243.601,265.895 C 239.327,266.638 239.084,266.570 234.811,265.895" stroke-width="5.787" stroke="black" fill="none" stroke-linecap="round"></path><path d="M 234.811,265.895 C 231.493,265.370 231.341,265.167 228.419,263.496" stroke-width="6.863" stroke="black" fill="none" stroke-linecap="round"></path><path d="M 228.419,263.496 C 225.748,261.969 226.097,261.402 223.625,259.499" stroke-width="6.586" stroke="black" fill="none" stroke-linecap="round"></path><path d="M 223.625,259.499 C 220.903,257.405 220.647,257.716 218.032,255.502" stroke-width="6.461" stroke="black" fill="none" stroke-linecap="round"></path><path d="M 218.032,255.502 C 215.453,253.319 215.527,253.204 213.238,250.706" stroke-width="6.442" stroke="black" fill="none" stroke-linecap="round"></path><path d="M 213.238,250.706 C 211.132,248.407 211.439,248.106 209.243,245.910" stroke-width="6.540" stroke="black" fill="none" stroke-linecap="round"></path><path d="M 209.243,245.910 C 207.444,244.109 207.246,244.311 205.248,242.712" stroke-width="6.800" stroke="black" fill="none" stroke-linecap="round"></path><path d="M 205.248,242.712 C 203.251,241.113 202.246,238.687 201.253,239.514" stroke-width="7.485" stroke="black" fill="none" stroke-linecap="round"></path><path d="M 201.253,239.514 C 199.849,240.685 200.680,243.102 200.454,246.709" stroke-width="7.928" stroke="black" fill="none" stroke-linecap="round"></path><path d="M 200.454,246.709 C 200.280,249.497 200.454,249.507 200.454,252.305" stroke-width="7.153" stroke="black" fill="none" stroke-linecap="round"></path><path d="M 200.454,252.305 C 200.454,256.702 201.808,257.262 200.454,261.098" stroke-width="7.120" stroke="black" fill="none" stroke-linecap="round"></path><path d="M 200.454,261.098 C 199.411,264.057 198.456,265.034 195.660,265.895" stroke-width="7.677" stroke="black" fill="none" stroke-linecap="round"></path><path d="M 195.660,265.895 C 193.262,266.633 192.770,265.336 190.067,264.296" stroke-width="7.683" stroke="black" fill="none" stroke-linecap="round"></path><path d="M 190.067,264.296 C 187.577,263.337 187.471,261.211 185.273,261.898" stroke-width="7.747" stroke="black" fill="none" stroke-linecap="round"></path><path d="M 185.273,261.898 C 181.079,263.209 180.405,264.389 177.283,268.293" stroke-width="7.800" stroke="black" fill="none" stroke-linecap="round"></path><path d="M 177.283,268.293 C 174.013,272.383 175.030,273.166 172.489,277.886" stroke-width="6.049" stroke="black" fill="none" stroke-linecap="round"></path><path d="M 172.489,277.886 C 169.437,283.558 169.381,283.534 166.097,289.077" stroke-width="5.367" stroke="black" fill="none" stroke-linecap="round"></path><path d="M 166.097,289.077 C 162.989,294.325 162.979,294.323 159.705,299.470" stroke-width="5.365" stroke="black" fill="none" stroke-linecap="round"></path><path d="M 159.705,299.470 C 157.386,303.116 157.463,303.183 154.911,306.664" stroke-width="5.691" stroke="black" fill="none" stroke-linecap="round"></path><path d="M 154.911,306.664 C 153.069,309.178 153.013,309.153 150.916,311.461" stroke-width="6.287" stroke="black" fill="none" stroke-linecap="round"></path><path d="M 150.916,311.461 C 149.018,313.550 148.829,313.376 146.921,315.458" stroke-width="7.224" stroke="black" fill="none" stroke-linecap="round"></path><path d="M 146.921,315.458 C 144.434,318.172 144.574,318.300 142.127,321.054" stroke-width="7.660" stroke="black" fill="none" stroke-linecap="round"></path><path d="M 142.127,321.054 C 138.182,325.494 138.253,325.565 134.137,329.847" stroke-width="5.943" stroke="black" fill="none" stroke-linecap="round"></path><path d="M 134.137,329.847 C 128.265,335.957 128.527,336.283 122.152,341.838" stroke-width="4.747" stroke="black" fill="none" stroke-linecap="round"></path><path d="M 122.152,341.838 C 116.143,347.075 115.947,346.906 109.368,351.431" stroke-width="4.671" stroke="black" fill="none" stroke-linecap="round"></path><path d="M 109.368,351.431 C 103.163,355.699 103.288,356.071 96.584,359.425" stroke-width="4.740" stroke="black" fill="none" stroke-linecap="round"></path><path d="M 96.584,359.425 C 91.303,362.067 91.139,362.273 85.398,363.422" stroke-width="5.117" stroke="black" fill="none" stroke-linecap="round"></path><path d="M 85.398,363.422 C 81.151,364.272 79.559,365.679 76.609,363.422" stroke-width="5.662" stroke="black" fill="none" stroke-linecap="round"></path><path d="M 76.609,363.422 C 72.768,360.483 72.845,358.526 71.815,353.030" stroke-width="6.372" stroke="black" fill="none" stroke-linecap="round"></path><path d="M 71.815,353.030 C 70.448,345.735 70.647,345.292 71.815,337.841" stroke-width="5.145" stroke="black" fill="none" stroke-linecap="round"></path><path d="M 71.815,337.841 C 73.843,324.907 74.053,324.728 78.207,312.260" stroke-width="4.500" stroke="black" fill="none" stroke-linecap="round"></path><path d="M 78.207,312.260 C 82.043,300.746 82.114,300.588 87.795,289.877" stroke-width="4.500" stroke="black" fill="none" stroke-linecap="round"></path><path d="M 87.795,289.877 C 92.501,281.003 92.614,280.825 98.981,273.089" stroke-width="4.500" stroke="black" fill="none" stroke-linecap="round"></path><path d="M 98.981,273.089 C 103.800,267.235 103.862,266.579 110.167,262.697" stroke-width="4.500" stroke="black" fill="none" stroke-linecap="round"></path><path d="M 110.167,262.697 C 114.249,260.184 115.280,259.659 119.755,260.299" stroke-width="5.316" stroke="black" fill="none" stroke-linecap="round"></path><path d="M 119.755,260.299 C 123.669,260.858 124.675,261.686 126.946,265.095" stroke-width="5.755" stroke="black" fill="none" stroke-linecap="round"></path><path d="M 126.946,265.095 C 130.268,270.080 128.803,271.143 130.941,277.086" stroke-width="6.297" stroke="black" fill="none" stroke-linecap="round"></path><path d="M 130.941,277.086 C 132.398,281.135 132.309,281.194 134.137,285.080" stroke-width="6.068" stroke="black" fill="none" stroke-linecap="round"></path><path d="M 134.137,285.080 C 135.506,287.989 135.807,287.840 137.333,290.676" stroke-width="6.381" stroke="black" fill="none" stroke-linecap="round"></path><path d="M 137.333,290.676 C 138.603,293.036 138.532,293.074 139.730,295.473" stroke-width="6.697" stroke="black" fill="none" stroke-linecap="round"></path><circle r="3" cx="168.494384765625" cy="197.94540405273438" fill="black"></circle><path d="M 218.832,333.045 C 226.822,325.450 226.746,325.369 234.811,317.856" stroke-width="7.719" stroke="black" fill="none" stroke-linecap="round"></path><path d="M 234.811,317.856 C 238.332,314.577 238.407,314.658 242.003,311.461" stroke-width="6.320" stroke="black" fill="none" stroke-linecap="round"></path></svg>