<svg xmlns="http://www.w3.org/2000/svg" xmlns:xlink="http://www.w3.org/1999/xlink" viewBox="0 0 576 416" width="576" height="416"><path d="M 369.843,155.577 C 367.046,161.173 367.046,161.173 364.250,166.769" stroke-width="7.744" stroke="black" fill="none" stroke-linecap="round"></path><path d="M 364.250,166.769 C 363.051,169.167 362.952,169.121 361.853,171.565" stroke-width="7.013" stroke="black" fill="none" stroke-linecap="round"></path><path d="M 361.853,171.565 C 359.357,177.115 359.385,177.132 357.059,182.757" stroke-width="5.564" stroke="black" fill="none" stroke-linecap="round"></path><path d="M 357.059,182.757 C 354.591,188.723 354.469,188.682 352.265,194.748" stroke-width="5.142" stroke="black" fill="none" stroke-linecap="round"></path><path d="M 352.265,194.748 C 349.675,201.872 350.019,201.998 347.471,209.137" stroke-width="4.866" stroke="black" fill="none" stroke-linecap="round"></path><circle r="3" cx="345.8726501464844" cy="118.80447387695312" fill="black"></circle><path d="M 325.099,183.556 C 321.503,187.553 322.062,188.372 317.908,191.550" stroke-width="8.731" stroke="black" fill="none" stroke-linecap="round"></path><path d="M 317.908,191.550 C 315.270,193.568 314.810,193.289 311.516,193.948" stroke-width="7.855" stroke="black" fill="none" stroke-linecap="round"></path><path d="M 311.516,193.948 C 308.817,194.488 308.475,193.097 305.923,193.948" stroke-width="8.178" stroke="black" fill="none" stroke-linecap="round"></path><path d="M 305.923,193.948 C 302.482,195.096 302.996,196.722 299.531,197.945" stroke-width="8.298" stroke="black" fill="none" stroke-linecap="round"></path><path d="M 299.531,197.945 C 296.205,199.120 295.945,198.519 292.340,198.745" stroke-width="7.635" stroke="black" fill="none" stroke-linecap="round"></path><path d="M 292.340,198.745 C 289.553,198.919 289.305,197.957 286.747,198.745" stroke-width="7.700" stroke="black" fill="none" stroke-linecap="round"></path><path d="M 286.747,198.745 C 284.111,199.556 284.254,200.216 281.953,201.942" stroke-width="7.977" stroke="black" fill="none" stroke-linecap="round"></path><path d="M 281.953,201.942 C 279.460,203.813 279.636,204.044 277.159,205.939" stroke-width="6.947" stroke="black" fill="none" stroke-linecap="round"></path><path d="M 277.159,205.939 C 272.844,209.240 272.888,209.321 268.370,212.335" stroke-width="5.859" stroke="black" fill="none" stroke-linecap="round"></path><path d="M 268.370,212.335 C 262.102,216.515 262.031,216.420 255.586,220.329" stroke-width="5.051" stroke="black" fill="none" stroke-linecap="round"></path><path d="M 255.586,220.329 C 248.848,224.414 249.036,224.804 242.003,228.323" stroke-width="4.778" stroke="black" fill="none" stroke-linecap="round"></path><path d="M 242.003,228.323 C 233.855,232.399 233.722,232.199 225.223,235.517" stroke-width="4.500" stroke="black" fill="none" stroke-linecap="round"></path><path d="M 225.223,235.517 C 217.342,238.595 217.233,238.315 209.243,241.113" stroke-width="4.500" stroke="black" fill="none" stroke-linecap="round"></path><path d="M 209.243,241.113 C 201.253,243.911 201.355,244.281 193.263,246.709" stroke-width="4.505" stroke="black" fill="none" stroke-linecap="round"></path><path d="M 193.263,246.709 C 189.370,247.878 189.209,247.266 185.273,248.308" stroke-width="5.505" stroke="black" fill="none" stroke-linecap="round"></path><path d="M 185.273,248.308 C 175.626,250.863 175.772,251.484 166.097,253.904" stroke-width="4.500" stroke="black" fill="none" stroke-linecap="round"></path><path d="M 166.097,253.904 C 161.390,255.081 161.330,255.020 156.509,255.502" stroke-width="5.281" stroke="black" fill="none" stroke-linecap="round"></path><path d="M 156.509,255.502 C 153.340,255.820 151.083,257.048 150.117,255.502" stroke-width="6.104" stroke="black" fill="none" stroke-linecap="round"></path><path d="M 150.117,255.502 C 149.086,253.851 150.174,251.449 152.514,249.107" stroke-width="7.281" stroke="black" fill="none" stroke-linecap="round"></path><path d="M 152.514,249.107 C 159.362,242.256 160.099,242.492 168.494,237.116" stroke-width="4.753" stroke="black" fill="none" stroke-linecap="round"></path><path d="M 168.494,237.116 C 180.074,229.702 180.372,230.125 192.464,223.526" stroke-width="4.500" stroke="black" fill="none" stroke-linecap="round"></path><path d="M 192.464,223.526 C 206.739,215.736 206.726,215.695 221.228,208.338" stroke-width="4.500" stroke="black" fill="none" stroke-linecap="round"></path><path d="M 221.228,208.338 C 235.091,201.305 235.163,201.443 249.194,194.748" stroke-width="4.500" stroke="black" fill="none" stroke-linecap="round"></path><path d="M 249.194,194.748 C 261.131,189.052 261.245,189.289 273.164,183.556" stroke-width="4.500" stroke="black" fill="none" stroke-linecap="round"></path><path d="M 273.164,183.556 C 282.019,179.297 282.004,179.259 290.742,174.763" stroke-width="4.500" stroke="black" fill="none" stroke-linecap="round"></path><path d="M 290.742,174.763 C 295.987,172.064 296.029,172.121 301.129,169.167" stroke-width="4.799" stroke="black" fill="none" stroke-linecap="round"></path><path d="M 301.129,169.167 C 303.619,167.724 303.526,167.568 305.923,165.969" stroke-width="6.000" stroke="black" fill="none" stroke-linecap="round"></path><circle r="3" cx="306.7216491699219" cy="254.70306396484375" fill="black"></circle><path d="M 315.511,219.529 C 319.506,217.131 323.501,214.733 323.501,214.733" stroke-width="8.469" stroke="black" fill="none" stroke-linecap="round"></path><circle r="3" cx="290.7415771484375" cy="184.35556030273438" fill="black"></circle></svg>