<svg xmlns="http://www.w3.org/2000/svg" xmlns:xlink="http://www.w3.org/1999/xlink" viewBox="0 0 576 416" width="576" height="416"><path d="M 205.248,153.179 C 208.844,158.375 209.295,158.108 212.439,163.571" stroke-width="7.464" stroke="black" fill="none" stroke-linecap="round"></path><path d="M 212.439,163.571 C 216.886,171.298 216.434,171.565 220.429,179.559" stroke-width="4.882" stroke="black" fill="none" stroke-linecap="round"></path><path d="M 220.429,179.559 C 225.623,189.951 226.087,189.743 230.816,200.344" stroke-width="4.661" stroke="black" fill="none" stroke-linecap="round"></path><path d="M 230.816,200.344 C 236.074,212.127 236.827,211.962 240.405,224.326" stroke-width="4.500" stroke="black" fill="none" stroke-linecap="round"></path><path d="M 240.405,224.326 C 245.616,242.339 246.753,242.567 248.395,261.098" stroke-width="4.500" stroke="black" fill="none" stroke-linecap="round"></path><path d="M 248.395,261.098 C 249.550,274.143 249.651,274.945 245.998,287.479" stroke-width="4.500" stroke="black" fill="none" stroke-linecap="round"></path><path d="M 245.998,287.479 C 241.262,303.724 240.932,304.410 231.615,318.655" stroke-width="4.500" stroke="black" fill="none" stroke-linecap="round"></path><path d="M 231.615,318.655 C 219.759,336.785 218.639,336.401 203.650,352.230" stroke-width="4.500" stroke="black" fill="none" stroke-linecap="round"></path><path d="M 203.650,352.230 C 189.875,366.778 189.305,366.330 174.087,379.410" stroke-width="4.500" stroke="black" fill="none" stroke-linecap="round"></path><path d="M 174.087,379.410 C 160.940,390.711 161.176,391.236 146.921,400.994" stroke-width="4.500" stroke="black" fill="none" stroke-linecap="round"></path><path d="M 146.921,400.994 C 138.405,406.824 138.037,406.676 128.544,410.587" stroke-width="4.500" stroke="black" fill="none" stroke-linecap="round"></path><path d="M 128.544,410.587 C 124.454,412.272 122.807,413.814 119.755,412.186" stroke-width="4.940" stroke="black" fill="none" stroke-linecap="round"></path><path d="M 119.755,412.186 C 116.814,410.616 117.024,408.372 116.559,404.192" stroke-width="6.321" stroke="black" fill="none" stroke-linecap="round"></path><path d="M 116.559,404.192 C 115.825,397.580 116.079,397.259 117.358,390.602" stroke-width="5.433" stroke="black" fill="none" stroke-linecap="round"></path><path d="M 117.358,390.602 C 120.074,376.474 118.431,375.510 124.549,362.622" stroke-width="4.500" stroke="black" fill="none" stroke-linecap="round"></path><path d="M 124.549,362.622 C 133.612,343.534 134.526,343.383 147.720,326.649" stroke-width="4.500" stroke="black" fill="none" stroke-linecap="round"></path><path d="M 147.720,326.649 C 162.890,307.410 162.691,306.561 181.278,290.676" stroke-width="4.500" stroke="black" fill="none" stroke-linecap="round"></path><path d="M 181.278,290.676 C 201.043,273.785 202.116,274.684 224.425,261.098" stroke-width="4.500" stroke="black" fill="none" stroke-linecap="round"></path><path d="M 224.425,261.098 C 248.059,246.705 248.281,246.851 273.164,234.718" stroke-width="4.500" stroke="black" fill="none" stroke-linecap="round"></path><path d="M 273.164,234.718 C 295.822,223.669 296.088,224.105 319.506,214.733" stroke-width="4.500" stroke="black" fill="none" stroke-linecap="round"></path><path d="M 319.506,214.733 C 340.033,206.518 340.043,206.404 361.054,199.544" stroke-width="4.500" stroke="black" fill="none" stroke-linecap="round"></path><path d="M 361.054,199.544 C 377.996,194.013 378.017,193.628 395.411,189.951" stroke-width="4.500" stroke="black" fill="none" stroke-linecap="round"></path><path d="M 395.411,189.951 C 406.382,187.632 406.578,188.394 417.783,187.553" stroke-width="4.500" stroke="black" fill="none" stroke-linecap="round"></path><path d="M 417.783,187.553 C 422.558,187.195 424.743,185.641 427.371,187.553" stroke-width="4.785" stroke="black" fill="none" stroke-linecap="round"></path><path d="M 427.371,187.553 C 429.137,188.839 428.484,191.652 426.572,193.948" stroke-width="6.443" stroke="black" fill="none" stroke-linecap="round"></path><path d="M 426.572,193.948 C 422.492,198.847 421.282,198.428 415.386,201.942" stroke-width="5.341" stroke="black" fill="none" stroke-linecap="round"></path><path d="M 415.386,201.942 C 402.505,209.620 402.303,209.327 389.019,216.332" stroke-width="4.500" stroke="black" fill="none" stroke-linecap="round"></path><path d="M 389.019,216.332 C 372.740,224.915 372.758,224.965 356.260,233.119" stroke-width="4.500" stroke="black" fill="none" stroke-linecap="round"></path><path d="M 356.260,233.119 C 339.599,241.353 339.477,241.106 322.702,249.107" stroke-width="4.500" stroke="black" fill="none" stroke-linecap="round"></path><path d="M 322.702,249.107 C 305.120,257.493 305.120,257.494 287.546,265.895" stroke-width="4.500" stroke="black" fill="none" stroke-linecap="round"></path><path d="M 287.546,265.895 C 269.165,274.681 269.278,274.927 250.792,283.482" stroke-width="4.500" stroke="black" fill="none" stroke-linecap="round"></path><path d="M 250.792,283.482 C 237.318,289.716 237.192,289.440 223.625,295.473" stroke-width="4.500" stroke="black" fill="none" stroke-linecap="round"></path><path d="M 223.625,295.473 C 215.619,299.033 215.802,299.645 207.645,302.667" stroke-width="4.500" stroke="black" fill="none" stroke-linecap="round"></path><path d="M 207.645,302.667 C 205.016,303.642 201.165,304.976 202.052,303.467" stroke-width="5.532" stroke="black" fill="none" stroke-linecap="round"></path><path d="M 202.052,303.467 C 205.160,298.181 208.013,295.328 215.635,289.077" stroke-width="5.682" stroke="black" fill="none" stroke-linecap="round"></path><path d="M 215.635,289.077 C 232.383,275.343 232.933,275.882 250.792,263.496" stroke-width="4.500" stroke="black" fill="none" stroke-linecap="round"></path><path d="M 250.792,263.496 C 268.089,251.500 267.760,250.837 285.948,240.314" stroke-width="4.500" stroke="black" fill="none" stroke-linecap="round"></path><path d="M 285.948,240.314 C 300.919,231.651 300.942,230.604 317.109,225.125" stroke-width="4.500" stroke="black" fill="none" stroke-linecap="round"></path><path d="M 317.109,225.125 C 325.711,222.210 327.574,221.300 335.486,223.526" stroke-width="4.500" stroke="black" fill="none" stroke-linecap="round"></path><path d="M 335.486,223.526 C 340.358,224.897 342.950,227.395 342.677,232.320" stroke-width="4.816" stroke="black" fill="none" stroke-linecap="round"></path><path d="M 342.677,232.320 C 342.151,241.784 339.282,242.918 333.888,252.305" stroke-width="5.263" stroke="black" fill="none" stroke-linecap="round"></path><path d="M 333.888,252.305 C 330.094,258.906 329.581,258.782 324.300,264.296" stroke-width="4.775" stroke="black" fill="none" stroke-linecap="round"></path><path d="M 324.300,264.296 C 320.392,268.375 320.266,268.583 315.511,271.491" stroke-width="5.193" stroke="black" fill="none" stroke-linecap="round"></path><path d="M 315.511,271.491 C 313.075,272.980 312.255,273.727 309.918,273.089" stroke-width="6.167" stroke="black" fill="none" stroke-linecap="round"></path><path d="M 309.918,273.089 C 307.861,272.528 307.159,271.498 306.722,269.092" stroke-width="7.239" stroke="black" fill="none" stroke-linecap="round"></path><path d="M 306.722,269.092 C 305.561,262.704 306.162,262.219 306.722,255.502" stroke-width="6.653" stroke="black" fill="none" stroke-linecap="round"></path><path d="M 306.722,255.502 C 306.961,252.626 306.872,249.472 308.320,249.907" stroke-width="6.689" stroke="black" fill="none" stroke-linecap="round"></path><path d="M 308.320,249.907 C 310.867,250.671 312.524,253.366 314.712,257.901" stroke-width="6.847" stroke="black" fill="none" stroke-linecap="round"></path><path d="M 314.712,257.901 C 318.117,264.957 317.238,265.457 319.506,273.089" stroke-width="5.142" stroke="black" fill="none" stroke-linecap="round"></path><path d="M 319.506,273.089 C 321.632,280.246 321.480,280.291 323.501,287.479" stroke-width="4.891" stroke="black" fill="none" stroke-linecap="round"></path><path d="M 323.501,287.479 C 325.076,293.081 325.287,293.029 326.697,298.670" stroke-width="5.199" stroke="black" fill="none" stroke-linecap="round"></path><path d="M 326.697,298.670 C 327.684,302.622 330.845,307.515 328.295,306.664" stroke-width="5.788" stroke="black" fill="none" stroke-linecap="round"></path><path d="M 328.295,306.664 C 318.860,303.518 315.340,298.928 302.727,290.676" stroke-width="6.361" stroke="black" fill="none" stroke-linecap="round"></path><path d="M 302.727,290.676 C 294.566,285.338 294.820,284.956 286.747,279.485" stroke-width="4.669" stroke="black" fill="none" stroke-linecap="round"></path><path d="M 286.747,279.485 C 282.435,276.562 280.681,277.604 277.958,273.889" stroke-width="5.271" stroke="black" fill="none" stroke-linecap="round"></path><path d="M 277.958,273.889 C 276.286,271.608 275.837,269.531 277.958,267.494" stroke-width="6.697" stroke="black" fill="none" stroke-linecap="round"></path><path d="M 277.958,267.494 C 285.824,259.938 287.533,260.365 297.933,254.703" stroke-width="4.500" stroke="black" fill="none" stroke-linecap="round"></path><path d="M 297.933,254.703 C 314.699,245.576 314.860,245.753 332.290,237.916" stroke-width="4.500" stroke="black" fill="none" stroke-linecap="round"></path><path d="M 332.290,237.916 C 350.416,229.765 350.356,229.450 369.044,222.727" stroke-width="4.500" stroke="black" fill="none" stroke-linecap="round"></path><path d="M 369.044,222.727 C 385.911,216.659 386.124,217.175 403.401,212.335" stroke-width="4.500" stroke="black" fill="none" stroke-linecap="round"></path><path d="M 403.401,212.335 C 416.086,208.781 416.064,208.360 428.969,205.939" stroke-width="4.500" stroke="black" fill="none" stroke-linecap="round"></path><path d="M 428.969,205.939 C 435.240,204.763 435.691,204.313 441.753,205.140" stroke-width="4.500" stroke="black" fill="none" stroke-linecap="round"></path></svg>