<svg xmlns="http://www.w3.org/2000/svg" xmlns:xlink="http://www.w3.org/1999/xlink" viewBox="0 0 576 416" width="576" height="416"><path d="M 87.795,288.278 C 93.388,294.673 93.496,294.583 98.981,301.068" stroke-width="8.156" stroke="black" fill="none" stroke-linecap="round"></path><path d="M 98.981,301.068 C 102.285,304.975 102.367,304.927 105.373,309.063" stroke-width="6.196" stroke="black" fill="none" stroke-linecap="round"></path><path d="M 105.373,309.063 C 108.759,313.720 108.476,313.924 111.765,318.655" stroke-width="5.589" stroke="black" fill="none" stroke-linecap="round"></path><path d="M 111.765,318.655 C 114.868,323.117 115.284,322.849 118.157,327.449" stroke-width="5.519" stroke="black" fill="none" stroke-linecap="round"></path><path d="M 118.157,327.449 C 121.277,332.442 121.014,332.614 123.750,337.841" stroke-width="5.373" stroke="black" fill="none" stroke-linecap="round"></path><path d="M 123.750,337.841 C 125.408,341.008 127.712,345.660 126.946,344.236" stroke-width="6.012" stroke="black" fill="none" stroke-linecap="round"></path><path d="M 61.428,312.260 C 63.426,307.863 62.801,307.480 65.423,303.467" stroke-width="8.460" stroke="black" fill="none" stroke-linecap="round"></path><path d="M 65.423,303.467 C 69.592,297.088 69.795,297.081 75.011,291.476" stroke-width="5.450" stroke="black" fill="none" stroke-linecap="round"></path><path d="M 75.011,291.476 C 80.582,285.489 80.725,285.547 86.996,280.284" stroke-width="4.811" stroke="black" fill="none" stroke-linecap="round"></path><path d="M 86.996,280.284 C 93.109,275.154 93.114,275.068 99.780,270.691" stroke-width="4.689" stroke="black" fill="none" stroke-linecap="round"></path><path d="M 99.780,270.691 C 105.898,266.674 105.854,266.312 112.564,263.496" stroke-width="4.788" stroke="black" fill="none" stroke-linecap="round"></path><path d="M 112.564,263.496 C 118.238,261.116 118.460,261.314 124.549,260.299" stroke-width="5.154" stroke="black" fill="none" stroke-linecap="round"></path><path d="M 124.549,260.299 C 130.445,259.316 130.734,258.947 136.534,259.499" stroke-width="6.086" stroke="black" fill="none" stroke-linecap="round"></path><path d="M 136.534,259.499 C 139.123,259.746 139.141,260.383 141.328,261.898" stroke-width="6.531" stroke="black" fill="none" stroke-linecap="round"></path><path d="M 141.328,261.898 C 144.335,263.980 144.532,263.935 146.921,266.694" stroke-width="6.352" stroke="black" fill="none" stroke-linecap="round"></path><path d="M 146.921,266.694 C 149.725,269.931 150.133,269.931 151.715,273.889" stroke-width="6.077" stroke="black" fill="none" stroke-linecap="round"></path><path d="M 151.715,273.889 C 154.128,279.924 154.911,280.273 154.911,286.679" stroke-width="5.521" stroke="black" fill="none" stroke-linecap="round"></path><path d="M 154.911,286.679 C 154.911,293.463 154.152,293.769 151.715,300.269" stroke-width="5.001" stroke="black" fill="none" stroke-linecap="round"></path><path d="M 151.715,300.269 C 148.159,309.757 148.173,309.967 142.926,318.655" stroke-width="4.500" stroke="black" fill="none" stroke-linecap="round"></path><path d="M 142.926,318.655 C 136.587,329.153 136.024,328.870 128.544,338.640" stroke-width="4.500" stroke="black" fill="none" stroke-linecap="round"></path><path d="M 128.544,338.640 C 121.642,347.656 121.955,348.009 114.162,356.227" stroke-width="4.500" stroke="black" fill="none" stroke-linecap="round"></path><path d="M 114.162,356.227 C 107.173,363.598 106.744,363.227 98.981,369.817" stroke-width="4.500" stroke="black" fill="none" stroke-linecap="round"></path><path d="M 98.981,369.817 C 93.560,374.419 93.745,374.801 87.795,378.611" stroke-width="4.675" stroke="black" fill="none" stroke-linecap="round"></path><path d="M 87.795,378.611 C 83.758,381.196 82.415,382.870 79.006,382.608" stroke-width="5.294" stroke="black" fill="none" stroke-linecap="round"></path><path d="M 79.006,382.608 C 77.221,382.470 76.677,380.005 77.408,377.811" stroke-width="7.035" stroke="black" fill="none" stroke-linecap="round"></path><path d="M 77.408,377.811 C 79.074,372.810 80.299,372.787 83.800,368.218" stroke-width="5.775" stroke="black" fill="none" stroke-linecap="round"></path><path d="M 83.800,368.218 C 89.488,360.796 89.558,360.815 95.785,353.829" stroke-width="4.747" stroke="black" fill="none" stroke-linecap="round"></path><path d="M 95.785,353.829 C 102.741,346.026 102.777,346.035 110.167,338.640" stroke-width="4.500" stroke="black" fill="none" stroke-linecap="round"></path><path d="M 110.167,338.640 C 117.159,331.646 117.347,331.833 124.549,325.051" stroke-width="4.500" stroke="black" fill="none" stroke-linecap="round"></path><path d="M 124.549,325.051 C 130.930,319.043 130.832,318.934 137.333,313.060" stroke-width="4.500" stroke="black" fill="none" stroke-linecap="round"></path><path d="M 137.333,313.060 C 143.217,307.743 143.265,307.792 149.318,302.667" stroke-width="4.557" stroke="black" fill="none" stroke-linecap="round"></path><path d="M 149.318,302.667 C 153.652,298.998 153.357,298.497 158.107,295.473" stroke-width="5.113" stroke="black" fill="none" stroke-linecap="round"></path><path d="M 158.107,295.473 C 162.146,292.901 163.896,290.404 166.896,291.476" stroke-width="6.308" stroke="black" fill="none" stroke-linecap="round"></path><path d="M 166.896,291.476 C 169.489,292.402 168.177,295.450 169.293,299.470" stroke-width="7.243" stroke="black" fill="none" stroke-linecap="round"></path><path d="M 169.293,299.470 C 170.175,302.645 170.092,302.667 170.891,305.865" stroke-width="6.695" stroke="black" fill="none" stroke-linecap="round"></path><path d="M 170.891,305.865 C 171.690,309.063 171.121,309.326 172.489,312.260" stroke-width="6.620" stroke="black" fill="none" stroke-linecap="round"></path><path d="M 172.489,312.260 C 173.917,315.321 174.128,318.601 176.484,317.856" stroke-width="7.179" stroke="black" fill="none" stroke-linecap="round"></path><path d="M 176.484,317.856 C 181.718,316.202 182.278,312.858 187.670,307.464" stroke-width="6.473" stroke="black" fill="none" stroke-linecap="round"></path><path d="M 187.670,307.464 C 191.866,303.266 191.467,302.865 195.660,298.670" stroke-width="5.603" stroke="black" fill="none" stroke-linecap="round"></path><path d="M 195.660,298.670 C 198.659,295.671 198.942,295.964 202.052,293.074" stroke-width="5.951" stroke="black" fill="none" stroke-linecap="round"></path><path d="M 202.052,293.074 C 204.535,290.768 203.980,289.891 206.846,288.278" stroke-width="6.205" stroke="black" fill="none" stroke-linecap="round"></path><path d="M 206.846,288.278 C 210.372,286.294 210.779,286.331 214.836,285.880" stroke-width="6.887" stroke="black" fill="none" stroke-linecap="round"></path><path d="M 214.836,285.880 C 217.970,285.531 218.053,286.944 221.228,286.679" stroke-width="7.635" stroke="black" fill="none" stroke-linecap="round"></path><path d="M 221.228,286.679 C 227.641,286.145 227.822,286.116 234.013,284.281" stroke-width="6.769" stroke="black" fill="none" stroke-linecap="round"></path><path d="M 234.013,284.281 C 238.608,282.919 238.366,282.186 242.802,280.284" stroke-width="6.014" stroke="black" fill="none" stroke-linecap="round"></path><path d="M 242.802,280.284 C 246.755,278.589 246.739,278.517 250.792,277.086" stroke-width="5.987" stroke="black" fill="none" stroke-linecap="round"></path><path d="M 250.792,277.086 C 253.531,276.119 253.536,276.022 256.385,275.488" stroke-width="6.472" stroke="black" fill="none" stroke-linecap="round"></path><path d="M 256.385,275.488 C 259.928,274.823 260.047,275.394 263.576,274.688" stroke-width="7.108" stroke="black" fill="none" stroke-linecap="round"></path><path d="M 263.576,274.688 C 266.040,274.195 265.991,273.939 268.370,273.089" stroke-width="7.832" stroke="black" fill="none" stroke-linecap="round"></path><path d="M 268.370,273.089 C 271.584,271.941 271.473,271.514 274.762,270.691" stroke-width="7.619" stroke="black" fill="none" stroke-linecap="round"></path><path d="M 274.762,270.691 C 277.865,269.915 278.082,270.802 281.154,269.892" stroke-width="7.556" stroke="black" fill="none" stroke-linecap="round"></path><path d="M 281.154,269.892 C 288.868,267.605 289.241,268.081 296.335,264.296" stroke-width="7.035" stroke="black" fill="none" stroke-linecap="round"></path><path d="M 296.335,264.296 C 307.218,258.488 306.928,257.799 317.109,250.706" stroke-width="4.500" stroke="black" fill="none" stroke-linecap="round"></path><path d="M 317.109,250.706 C 329.300,242.211 329.341,242.231 341.079,233.119" stroke-width="4.500" stroke="black" fill="none" stroke-linecap="round"></path><path d="M 341.079,233.119 C 352.512,224.244 352.228,223.882 363.451,214.733" stroke-width="4.500" stroke="black" fill="none" stroke-linecap="round"></path><path d="M 363.451,214.733 C 373.801,206.295 374.044,206.581 384.225,197.945" stroke-width="4.500" stroke="black" fill="none" stroke-linecap="round"></path><path d="M 384.225,197.945 C 392.421,190.993 391.996,190.485 400.205,183.556" stroke-width="4.500" stroke="black" fill="none" stroke-linecap="round"></path><path d="M 400.205,183.556 C 404.780,179.693 412.350,174.351 409.793,176.362" stroke-width="4.728" stroke="black" fill="none" stroke-linecap="round"></path><path d="M 409.793,176.362 C 401.164,183.144 393.618,188.508 377.833,201.143" stroke-width="5.334" stroke="black" fill="none" stroke-linecap="round"></path><path d="M 377.833,201.143 C 359.660,215.688 359.757,215.814 341.878,230.721" stroke-width="4.500" stroke="black" fill="none" stroke-linecap="round"></path><path d="M 341.878,230.721 C 321.405,247.790 321.838,248.322 301.129,265.095" stroke-width="4.500" stroke="black" fill="none" stroke-linecap="round"></path><path d="M 301.129,265.095 C 279.891,282.297 279.438,281.734 257.983,298.670" stroke-width="4.500" stroke="black" fill="none" stroke-linecap="round"></path><path d="M 257.983,298.670 C 235.892,316.108 236.073,316.336 214.037,333.844" stroke-width="4.500" stroke="black" fill="none" stroke-linecap="round"></path><path d="M 214.037,333.844 C 195.324,348.712 195.538,349.003 176.484,363.422" stroke-width="4.500" stroke="black" fill="none" stroke-linecap="round"></path><path d="M 176.484,363.422 C 164.377,372.585 164.144,372.278 151.715,381.009" stroke-width="4.500" stroke="black" fill="none" stroke-linecap="round"></path><path d="M 151.715,381.009 C 145.367,385.468 145.756,386.798 138.931,389.802" stroke-width="4.500" stroke="black" fill="none" stroke-linecap="round"></path><path d="M 138.931,389.802 C 135.768,391.195 133.250,391.690 131.740,389.802" stroke-width="5.358" stroke="black" fill="none" stroke-linecap="round"></path><path d="M 131.740,389.802 C 130.054,387.693 131.504,385.657 132.539,381.808" stroke-width="6.572" stroke="black" fill="none" stroke-linecap="round"></path><path d="M 132.539,381.808 C 134.300,375.265 134.238,375.082 137.333,369.018" stroke-width="5.379" stroke="black" fill="none" stroke-linecap="round"></path><path d="M 137.333,369.018 C 143.826,356.296 144.348,356.522 151.715,344.236" stroke-width="4.500" stroke="black" fill="none" stroke-linecap="round"></path><path d="M 151.715,344.236 C 162.325,326.544 162.167,326.435 173.288,309.063" stroke-width="4.500" stroke="black" fill="none" stroke-linecap="round"></path><path d="M 173.288,309.063 C 184.939,290.862 185.756,291.379 197.258,273.089" stroke-width="4.500" stroke="black" fill="none" stroke-linecap="round"></path><path d="M 197.258,273.089 C 208.128,255.806 207.880,255.637 218.032,237.916" stroke-width="4.500" stroke="black" fill="none" stroke-linecap="round"></path><path d="M 218.032,237.916 C 226.657,222.861 227.247,223.120 234.811,207.538" stroke-width="4.500" stroke="black" fill="none" stroke-linecap="round"></path><path d="M 234.811,207.538 C 240.830,195.141 241.945,195.196 245.199,181.957" stroke-width="4.500" stroke="black" fill="none" stroke-linecap="round"></path><path d="M 245.199,181.957 C 247.937,170.815 247.484,170.243 246.797,158.775" stroke-width="4.500" stroke="black" fill="none" stroke-linecap="round"></path><path d="M 246.797,158.775 C 246.286,150.258 245.497,150.077 242.802,141.987" stroke-width="4.500" stroke="black" fill="none" stroke-linecap="round"></path><path d="M 242.802,141.987 C 241.901,139.285 241.494,139.351 239.605,137.191" stroke-width="5.677" stroke="black" fill="none" stroke-linecap="round"></path><path d="M 239.605,137.191 C 235.901,132.955 235.792,132.995 231.615,129.197" stroke-width="5.485" stroke="black" fill="none" stroke-linecap="round"></path><path d="M 231.615,129.197 C 227.003,125.001 226.839,125.179 222.027,121.203" stroke-width="5.275" stroke="black" fill="none" stroke-linecap="round"></path><path d="M 222.027,121.203 C 217.650,117.585 217.477,117.778 213.238,114.008" stroke-width="5.358" stroke="black" fill="none" stroke-linecap="round"></path><path d="M 213.238,114.008 C 210.286,111.382 210.314,111.325 207.645,108.412" stroke-width="5.884" stroke="black" fill="none" stroke-linecap="round"></path><path d="M 207.645,108.412 C 205.919,106.528 202.984,104.140 204.449,104.415" stroke-width="6.571" stroke="black" fill="none" stroke-linecap="round"></path><path d="M 204.449,104.415 C 209.376,105.340 213.305,106.156 220.429,110.810" stroke-width="6.681" stroke="black" fill="none" stroke-linecap="round"></path><path d="M 220.429,110.810 C 232.881,118.946 233.223,119.229 243.601,129.996" stroke-width="4.500" stroke="black" fill="none" stroke-linecap="round"></path><path d="M 243.601,129.996 C 254.796,141.612 255.667,141.626 263.576,155.577" stroke-width="4.500" stroke="black" fill="none" stroke-linecap="round"></path><path d="M 263.576,155.577 C 270.848,168.406 270.072,169.216 273.963,183.556" stroke-width="4.500" stroke="black" fill="none" stroke-linecap="round"></path><path d="M 273.963,183.556 C 277.663,197.195 276.897,197.475 278.757,211.535" stroke-width="4.500" stroke="black" fill="none" stroke-linecap="round"></path><path d="M 278.757,211.535 C 280.492,224.655 279.858,224.735 281.154,237.916" stroke-width="4.500" stroke="black" fill="none" stroke-linecap="round"></path><path d="M 281.154,237.916 C 282.255,249.117 281.151,249.386 283.551,260.299" stroke-width="4.500" stroke="black" fill="none" stroke-linecap="round"></path><path d="M 283.551,260.299 C 285.545,269.371 285.554,269.762 289.943,277.886" stroke-width="4.500" stroke="black" fill="none" stroke-linecap="round"></path><path d="M 289.943,277.886 C 293.544,284.551 293.404,285.854 299.531,289.877" stroke-width="4.523" stroke="black" fill="none" stroke-linecap="round"></path><path d="M 299.531,289.877 C 306.188,294.248 307.336,293.372 315.511,294.673" stroke-width="4.536" stroke="black" fill="none" stroke-linecap="round"></path><path d="M 315.511,294.673 C 324.914,296.170 325.114,295.681 334.687,295.473" stroke-width="4.500" stroke="black" fill="none" stroke-linecap="round"></path><path d="M 334.687,295.473 C 343.491,295.281 343.671,295.486 352.265,293.874" stroke-width="4.500" stroke="black" fill="none" stroke-linecap="round"></path><path d="M 352.265,293.874 C 356.455,293.088 356.276,292.315 360.255,290.676" stroke-width="5.357" stroke="black" fill="none" stroke-linecap="round"></path><path d="M 360.255,290.676 C 363.068,289.517 363.051,289.477 365.848,288.278" stroke-width="6.187" stroke="black" fill="none" stroke-linecap="round"></path></svg>