<svg xmlns="http://www.w3.org/2000/svg" xmlns:xlink="http://www.w3.org/1999/xlink" viewBox="0 0 576 416" width="576" height="416"><path d="M 358.657,272.155 C 358.657,263.761 358.657,263.761 358.657,255.368" stroke-width="7.918" stroke="black" fill="none" stroke-linecap="round"></path><path d="M 358.657,255.368 C 358.657,252.570 358.288,252.538 358.657,249.772" stroke-width="6.999" stroke="black" fill="none" stroke-linecap="round"></path><path d="M 358.657,249.772 C 359.886,240.547 360.503,240.614 361.853,231.386" stroke-width="4.968" stroke="black" fill="none" stroke-linecap="round"></path><path d="M 361.853,231.386 C 362.900,224.226 362.605,224.185 363.451,216.996" stroke-width="4.892" stroke="black" fill="none" stroke-linecap="round"></path><path d="M 363.451,216.996 C 364.203,210.596 364.515,210.618 365.049,204.206" stroke-width="5.049" stroke="black" fill="none" stroke-linecap="round"></path><path d="M 365.049,204.206 C 365.314,201.025 364.904,201.003 365.049,197.811" stroke-width="5.942" stroke="black" fill="none" stroke-linecap="round"></path><path d="M 365.049,197.811 C 365.303,192.210 365.154,192.175 365.848,186.619" stroke-width="5.470" stroke="black" fill="none" stroke-linecap="round"></path><path d="M 365.848,186.619 C 366.352,182.582 366.738,182.638 367.446,178.625" stroke-width="5.806" stroke="black" fill="none" stroke-linecap="round"></path><path d="M 367.446,178.625 C 367.936,175.843 367.046,173.429 368.245,173.029" stroke-width="6.439" stroke="black" fill="none" stroke-linecap="round"></path><path d="M 368.245,173.029 C 369.443,172.629 371.026,174.598 372.240,177.026" stroke-width="7.664" stroke="black" fill="none" stroke-linecap="round"></path><path d="M 372.240,177.026 C 373.823,180.193 373.473,180.576 373.838,184.221" stroke-width="6.547" stroke="black" fill="none" stroke-linecap="round"></path><path d="M 373.838,184.221 C 374.272,188.570 373.619,188.630 373.838,193.014" stroke-width="6.104" stroke="black" fill="none" stroke-linecap="round"></path><path d="M 373.838,193.014 C 374.018,196.624 374.425,196.601 374.637,200.209" stroke-width="6.248" stroke="black" fill="none" stroke-linecap="round"></path><path d="M 374.637,200.209 C 374.824,203.396 374.637,203.406 374.637,206.604" stroke-width="6.449" stroke="black" fill="none" stroke-linecap="round"></path><path d="M 374.637,206.604 C 374.637,209.402 375.004,209.447 374.637,212.200" stroke-width="6.671" stroke="black" fill="none" stroke-linecap="round"></path><path d="M 374.637,212.200 C 374.205,215.443 374.848,216.333 373.039,218.595" stroke-width="7.256" stroke="black" fill="none" stroke-linecap="round"></path><path d="M 373.039,218.595 C 371.652,220.330 370.678,220.329 368.245,220.194" stroke-width="7.884" stroke="black" fill="none" stroke-linecap="round"></path><path d="M 368.245,220.194 C 363.487,219.929 363.435,219.054 358.657,217.796" stroke-width="7.257" stroke="black" fill="none" stroke-linecap="round"></path><path d="M 358.657,217.796 C 355.844,217.055 355.767,217.237 353.064,216.197" stroke-width="6.785" stroke="black" fill="none" stroke-linecap="round"></path><path d="M 353.064,216.197 C 350.573,215.238 350.485,215.276 348.270,213.799" stroke-width="6.825" stroke="black" fill="none" stroke-linecap="round"></path><path d="M 348.270,213.799 C 345.691,212.078 345.567,209.421 343.476,209.802" stroke-width="7.352" stroke="black" fill="none" stroke-linecap="round"></path><path d="M 343.476,209.802 C 341.172,210.221 342.014,213.324 339.481,215.397" stroke-width="8.076" stroke="black" fill="none" stroke-linecap="round"></path><path d="M 339.481,215.397 C 337.619,216.921 336.761,215.675 334.687,216.996" stroke-width="8.154" stroke="black" fill="none" stroke-linecap="round"></path><path d="M 334.687,216.996 C 332.367,218.473 331.719,218.496 330.692,220.993" stroke-width="8.118" stroke="black" fill="none" stroke-linecap="round"></path><path d="M 330.692,220.993 C 328.923,225.291 329.852,225.783 329.094,230.586" stroke-width="7.334" stroke="black" fill="none" stroke-linecap="round"></path><path d="M 329.094,230.586 C 328.653,233.378 328.694,233.384 328.295,236.182" stroke-width="6.842" stroke="black" fill="none" stroke-linecap="round"></path><path d="M 328.295,236.182 C 327.895,238.980 327.846,238.974 327.496,241.778" stroke-width="6.780" stroke="black" fill="none" stroke-linecap="round"></path><path d="M 331.491,135.461 C 331.890,141.856 331.864,141.858 332.290,148.251" stroke-width="8.655" stroke="black" fill="none" stroke-linecap="round"></path><path d="M 332.290,148.251 C 332.663,153.849 332.822,153.842 333.089,159.443" stroke-width="7.241" stroke="black" fill="none" stroke-linecap="round"></path><path d="M 333.089,159.443 C 333.222,162.236 333.089,162.241 333.089,165.039" stroke-width="6.906" stroke="black" fill="none" stroke-linecap="round"></path><path d="M 333.089,165.039 C 333.089,168.236 333.089,168.236 333.089,171.434" stroke-width="6.645" stroke="black" fill="none" stroke-linecap="round"></path><path d="M 333.089,171.434 C 333.089,174.232 333.089,174.232 333.089,177.030" stroke-width="6.733" stroke="black" fill="none" stroke-linecap="round"></path><path d="M 333.089,177.030 C 333.089,179.828 333.089,179.828 333.089,182.625" stroke-width="6.760" stroke="black" fill="none" stroke-linecap="round"></path><path d="M 333.089,182.625 C 333.089,186.223 333.089,186.223 333.089,189.820" stroke-width="7.161" stroke="black" fill="none" stroke-linecap="round"></path><path d="M 333.089,189.820 C 333.089,193.417 333.312,193.433 333.089,197.015" stroke-width="7.346" stroke="black" fill="none" stroke-linecap="round"></path><path d="M 331.491,173.832 C 328.694,178.629 328.967,178.819 325.898,183.425" stroke-width="8.615" stroke="black" fill="none" stroke-linecap="round"></path><path d="M 325.898,183.425 C 324.173,186.014 324.429,186.666 321.903,188.221" stroke-width="7.881" stroke="black" fill="none" stroke-linecap="round"></path><path d="M 321.903,188.221 C 319.236,189.863 318.541,190.224 315.511,189.820" stroke-width="7.943" stroke="black" fill="none" stroke-linecap="round"></path><path d="M 315.511,189.820 C 312.548,189.425 312.659,188.310 309.918,186.622" stroke-width="7.701" stroke="black" fill="none" stroke-linecap="round"></path><path d="M 309.918,186.622 C 307.466,185.113 306.872,182.842 305.124,183.425" stroke-width="7.944" stroke="black" fill="none" stroke-linecap="round"></path><path d="M 305.124,183.425 C 303.277,184.041 303.217,186.078 302.727,189.021" stroke-width="8.371" stroke="black" fill="none" stroke-linecap="round"></path><path d="M 302.727,189.021 C 302.018,193.272 302.727,193.417 302.727,197.814" stroke-width="7.478" stroke="black" fill="none" stroke-linecap="round"></path><path d="M 302.727,197.814 C 302.727,200.612 302.727,200.612 302.727,203.410" stroke-width="6.892" stroke="black" fill="none" stroke-linecap="round"></path><path d="M 302.727,203.410 C 302.727,206.208 302.727,206.208 302.727,209.006" stroke-width="6.873" stroke="black" fill="none" stroke-linecap="round"></path><path d="M 302.727,209.006 C 302.727,212.203 302.926,212.216 302.727,215.401" stroke-width="6.557" stroke="black" fill="none" stroke-linecap="round"></path><path d="M 302.727,215.401 C 302.526,218.611 302.141,218.587 301.928,221.796" stroke-width="6.535" stroke="black" fill="none" stroke-linecap="round"></path><path d="M 301.928,221.796 C 301.742,224.583 301.928,224.594 301.928,227.392" stroke-width="6.699" stroke="black" fill="none" stroke-linecap="round"></path><path d="M 301.928,227.392 C 301.928,230.190 302.092,230.198 301.928,232.988" stroke-width="6.749" stroke="black" fill="none" stroke-linecap="round"></path><path d="M 301.928,232.988 C 301.692,236.993 301.572,236.990 301.129,240.982" stroke-width="7.139" stroke="black" fill="none" stroke-linecap="round"></path><path d="M 279.556,125.068 C 279.556,129.465 279.556,129.465 279.556,133.862" stroke-width="8.621" stroke="black" fill="none" stroke-linecap="round"></path><path d="M 279.556,133.862 C 279.556,137.459 279.376,137.467 279.556,141.057" stroke-width="6.873" stroke="black" fill="none" stroke-linecap="round"></path><path d="M 279.556,141.057 C 279.776,145.461 279.972,145.452 280.355,149.850" stroke-width="6.180" stroke="black" fill="none" stroke-linecap="round"></path><path d="M 280.355,149.850 C 280.771,154.645 280.770,154.645 281.154,159.443" stroke-width="5.955" stroke="black" fill="none" stroke-linecap="round"></path><path d="M 281.154,159.443 C 281.569,164.638 281.753,164.631 281.953,169.835" stroke-width="5.592" stroke="black" fill="none" stroke-linecap="round"></path><path d="M 281.953,169.835 C 282.152,175.024 281.953,175.031 281.953,180.227" stroke-width="5.588" stroke="black" fill="none" stroke-linecap="round"></path><path d="M 281.953,180.227 C 281.953,187.422 281.705,187.433 281.953,194.617" stroke-width="6.008" stroke="black" fill="none" stroke-linecap="round"></path><path d="M 281.953,194.617 C 282.105,199.025 282.542,199.005 282.752,203.410" stroke-width="5.861" stroke="black" fill="none" stroke-linecap="round"></path><path d="M 282.752,203.410 C 282.941,207.398 282.530,207.421 282.752,211.404" stroke-width="6.116" stroke="black" fill="none" stroke-linecap="round"></path><path d="M 282.752,211.404 C 282.930,214.615 283.245,214.592 283.551,217.799" stroke-width="6.323" stroke="black" fill="none" stroke-linecap="round"></path><path d="M 283.551,217.799 C 284.044,222.986 285.695,225.230 284.350,228.192" stroke-width="6.768" stroke="black" fill="none" stroke-linecap="round"></path><path d="M 284.350,228.192 C 283.697,229.627 281.404,228.178 279.556,226.593" stroke-width="7.825" stroke="black" fill="none" stroke-linecap="round"></path><path d="M 279.556,226.593 C 275.811,223.382 275.919,222.859 273.164,218.599" stroke-width="7.167" stroke="black" fill="none" stroke-linecap="round"></path><path d="M 273.164,218.599 C 271.525,216.064 272.125,215.721 270.767,213.003" stroke-width="6.780" stroke="black" fill="none" stroke-linecap="round"></path><path d="M 270.767,213.003 C 269.329,210.125 268.755,210.371 267.571,207.407" stroke-width="6.600" stroke="black" fill="none" stroke-linecap="round"></path><path d="M 267.571,207.407 C 266.358,204.375 266.772,204.209 265.973,201.012" stroke-width="6.591" stroke="black" fill="none" stroke-linecap="round"></path><path d="M 265.973,201.012 C 265.174,197.814 265.223,197.801 264.375,194.617" stroke-width="6.438" stroke="black" fill="none" stroke-linecap="round"></path><path d="M 264.375,194.617 C 263.625,191.805 263.385,191.859 262.777,189.021" stroke-width="6.622" stroke="black" fill="none" stroke-linecap="round"></path><path d="M 262.777,189.021 C 262.186,186.264 262.568,183.425 261.978,183.425" stroke-width="7.352" stroke="black" fill="none" stroke-linecap="round"></path><path d="M 261.978,183.425 C 261.370,183.425 262.108,186.797 260.380,189.021" stroke-width="8.071" stroke="black" fill="none" stroke-linecap="round"></path><path d="M 260.380,189.021 C 256.515,193.992 256.241,194.387 250.792,197.814" stroke-width="8.171" stroke="black" fill="none" stroke-linecap="round"></path><path d="M 250.792,197.814 C 242.258,203.181 241.844,202.798 232.415,206.608" stroke-width="4.815" stroke="black" fill="none" stroke-linecap="round"></path><path d="M 232.415,206.608 C 221.070,211.191 220.973,211.134 209.243,214.602" stroke-width="4.500" stroke="black" fill="none" stroke-linecap="round"></path><path d="M 209.243,214.602 C 203.395,216.331 203.291,216.030 197.258,217.000" stroke-width="4.776" stroke="black" fill="none" stroke-linecap="round"></path><path d="M 197.258,217.000 C 180.919,219.627 180.919,220.770 164.499,221.796" stroke-width="4.500" stroke="black" fill="none" stroke-linecap="round"></path><path d="M 164.499,221.796 C 155.351,222.368 155.163,221.780 146.122,220.197" stroke-width="4.500" stroke="black" fill="none" stroke-linecap="round"></path><path d="M 146.122,220.197 C 139.183,218.982 139.276,218.367 132.539,216.200" stroke-width="4.598" stroke="black" fill="none" stroke-linecap="round"></path><path d="M 132.539,216.200 C 128.090,214.769 127.882,215.070 123.750,213.003" stroke-width="5.382" stroke="black" fill="none" stroke-linecap="round"></path><path d="M 123.750,213.003 C 121.490,211.872 118.022,210.022 119.755,209.805" stroke-width="6.372" stroke="black" fill="none" stroke-linecap="round"></path><path d="M 119.755,209.805 C 127.610,208.823 131.345,210.108 142.926,210.605" stroke-width="6.606" stroke="black" fill="none" stroke-linecap="round"></path><path d="M 142.926,210.605 C 159.310,211.307 159.295,211.865 175.685,212.203" stroke-width="4.500" stroke="black" fill="none" stroke-linecap="round"></path><path d="M 175.685,212.203 C 198.046,212.665 198.070,212.754 220.429,212.203" stroke-width="4.500" stroke="black" fill="none" stroke-linecap="round"></path><path d="M 220.429,212.203 C 246.809,211.554 246.785,210.624 273.164,209.805" stroke-width="4.500" stroke="black" fill="none" stroke-linecap="round"></path><path d="M 273.164,209.805 C 298.320,209.025 298.338,208.796 323.501,209.006" stroke-width="4.500" stroke="black" fill="none" stroke-linecap="round"></path><path d="M 323.501,209.006 C 346.278,209.196 346.428,208.364 369.044,210.605" stroke-width="4.500" stroke="black" fill="none" stroke-linecap="round"></path><path d="M 369.044,210.605 C 386.777,212.361 386.814,213.004 404.200,217.000" stroke-width="4.500" stroke="black" fill="none" stroke-linecap="round"></path><path d="M 404.200,217.000 C 416.377,219.799 416.635,219.578 428.170,224.194" stroke-width="4.500" stroke="black" fill="none" stroke-linecap="round"></path><path d="M 428.170,224.194 C 434.613,226.773 434.631,227.244 440.155,231.389" stroke-width="4.500" stroke="black" fill="none" stroke-linecap="round"></path></svg>