<svg xmlns="http://www.w3.org/2000/svg" xmlns:xlink="http://www.w3.org/1999/xlink" viewBox="0 0 576 416" width="576" height="416"><path d="M 177.283,268.293 C 174.487,262.297 176.906,259.705 171.690,256.302" stroke-width="7.862" stroke="black" fill="none" stroke-linecap="round"></path><path d="M 171.690,256.302 C 158.529,247.714 156.788,245.606 140.529,244.311" stroke-width="5.200" stroke="black" fill="none" stroke-linecap="round"></path><path d="M 140.529,244.311 C 111.644,242.009 110.677,244.923 81.403,249.107" stroke-width="4.500" stroke="black" fill="none" stroke-linecap="round"></path><path d="M 81.403,249.107 C 63.137,251.718 63.099,252.485 45.448,257.901" stroke-width="4.500" stroke="black" fill="none" stroke-linecap="round"></path><path d="M 45.448,257.901 C 33.136,261.678 32.811,261.567 21.478,267.494" stroke-width="4.500" stroke="black" fill="none" stroke-linecap="round"></path><path d="M 21.478,267.494 C 15.233,270.760 12.971,270.927 10.292,276.287" stroke-width="4.500" stroke="black" fill="none" stroke-linecap="round"></path><path d="M 10.292,276.287 C 8.576,279.720 9.494,283.002 12.689,285.080" stroke-width="5.339" stroke="black" fill="none" stroke-linecap="round"></path><path d="M 12.689,285.080 C 17.484,288.199 19.463,286.679 26.272,286.679" stroke-width="4.989" stroke="black" fill="none" stroke-linecap="round"></path><path d="M 26.272,286.679 C 37.041,286.679 37.129,286.519 47.845,285.080" stroke-width="4.500" stroke="black" fill="none" stroke-linecap="round"></path><path d="M 47.845,285.080 C 102.647,277.725 103.002,279.251 157.308,269.092" stroke-width="4.500" stroke="black" fill="none" stroke-linecap="round"></path><path d="M 157.308,269.092 C 194.887,262.063 194.549,260.236 231.615,250.706" stroke-width="4.500" stroke="black" fill="none" stroke-linecap="round"></path><path d="M 231.615,250.706 C 266.059,241.850 265.980,241.540 300.330,232.320" stroke-width="4.500" stroke="black" fill="none" stroke-linecap="round"></path><path d="M 300.330,232.320 C 331.498,223.953 331.232,222.787 362.652,215.532" stroke-width="4.500" stroke="black" fill="none" stroke-linecap="round"></path><path d="M 362.652,215.532 C 388.361,209.596 388.464,209.045 414.587,205.939" stroke-width="4.500" stroke="black" fill="none" stroke-linecap="round"></path><path d="M 414.587,205.939 C 428.814,204.248 429.796,203.581 443.351,205.939" stroke-width="4.500" stroke="black" fill="none" stroke-linecap="round"></path><path d="M 443.351,205.939 C 448.173,206.779 453.953,209.908 451.341,212.335" stroke-width="4.500" stroke="black" fill="none" stroke-linecap="round"></path><path d="M 451.341,212.335 C 442.767,220.301 436.813,221.297 420.979,226.724" stroke-width="4.500" stroke="black" fill="none" stroke-linecap="round"></path><path d="M 420.979,226.724 C 393.667,236.086 393.425,236.576 365.049,241.913" stroke-width="4.500" stroke="black" fill="none" stroke-linecap="round"></path><path d="M 365.049,241.913 C 340.291,246.569 339.829,246.928 314.712,246.709" stroke-width="4.500" stroke="black" fill="none" stroke-linecap="round"></path><path d="M 314.712,246.709 C 293.887,246.528 292.898,247.103 273.164,241.113" stroke-width="4.500" stroke="black" fill="none" stroke-linecap="round"></path><path d="M 273.164,241.113 C 257.343,236.311 256.408,235.422 243.601,225.125" stroke-width="4.500" stroke="black" fill="none" stroke-linecap="round"></path><path d="M 243.601,225.125 C 234.036,217.436 234.599,215.902 228.419,205.140" stroke-width="4.500" stroke="black" fill="none" stroke-linecap="round"></path><path d="M 228.419,205.140 C 223.812,197.116 224.202,196.527 222.027,187.553" stroke-width="4.500" stroke="black" fill="none" stroke-linecap="round"></path><path d="M 222.027,187.553 C 221.006,183.336 220.325,181.193 222.027,178.760" stroke-width="5.219" stroke="black" fill="none" stroke-linecap="round"></path><path d="M 222.027,178.760 C 223.121,177.196 225.961,177.899 227.620,179.559" stroke-width="6.731" stroke="black" fill="none" stroke-linecap="round"></path><path d="M 227.620,179.559 C 229.557,181.496 229.353,182.729 229.218,185.954" stroke-width="6.557" stroke="black" fill="none" stroke-linecap="round"></path><path d="M 229.218,185.954 C 228.953,192.322 229.038,192.683 226.822,198.745" stroke-width="5.462" stroke="black" fill="none" stroke-linecap="round"></path><path d="M 226.822,198.745 C 223.046,209.071 223.080,209.414 217.233,218.730" stroke-width="4.500" stroke="black" fill="none" stroke-linecap="round"></path><path d="M 217.233,218.730 C 212.294,226.601 211.095,225.808 205.248,233.119" stroke-width="4.500" stroke="black" fill="none" stroke-linecap="round"></path><path d="M 205.248,233.119 C 199.909,239.797 199.638,239.629 194.861,246.709" stroke-width="4.500" stroke="black" fill="none" stroke-linecap="round"></path><path d="M 194.861,246.709 C 188.851,255.617 189.268,255.902 183.675,265.095" stroke-width="4.500" stroke="black" fill="none" stroke-linecap="round"></path></svg>