<svg xmlns="http://www.w3.org/2000/svg" xmlns:xlink="http://www.w3.org/1999/xlink" viewBox="0 0 576 416" width="576" height="416"><path d="M 276.360,267.494 C 272.365,265.495 272.493,265.184 268.370,263.496" stroke-width="8.307" stroke="black" fill="none" stroke-linecap="round"></path><path d="M 268.370,263.496 C 263.704,261.587 263.592,261.846 258.782,260.299" stroke-width="6.245" stroke="black" fill="none" stroke-linecap="round"></path><path d="M 258.782,260.299 C 252.406,258.249 252.369,258.364 245.998,256.302" stroke-width="5.345" stroke="black" fill="none" stroke-linecap="round"></path><path d="M 245.998,256.302 C 238.786,253.968 238.743,254.081 231.615,251.505" stroke-width="4.920" stroke="black" fill="none" stroke-linecap="round"></path><path d="M 231.615,251.505 C 224.361,248.884 224.366,248.848 217.233,245.910" stroke-width="4.776" stroke="black" fill="none" stroke-linecap="round"></path><path d="M 217.233,245.910 C 210.783,243.252 210.736,243.322 204.449,240.314" stroke-width="4.798" stroke="black" fill="none" stroke-linecap="round"></path><path d="M 204.449,240.314 C 201.547,238.925 201.459,238.997 198.856,237.116" stroke-width="5.890" stroke="black" fill="none" stroke-linecap="round"></path><path d="M 198.856,237.116 C 194.268,233.801 194.176,233.816 190.067,229.922" stroke-width="5.330" stroke="black" fill="none" stroke-linecap="round"></path><path d="M 190.067,229.922 C 186.586,226.622 186.206,226.735 183.675,222.727" stroke-width="5.530" stroke="black" fill="none" stroke-linecap="round"></path><path d="M 183.675,222.727 C 181.412,219.141 181.350,218.870 180.479,214.733" stroke-width="5.751" stroke="black" fill="none" stroke-linecap="round"></path><path d="M 180.479,214.733 C 179.752,211.276 179.337,210.803 180.479,207.538" stroke-width="6.140" stroke="black" fill="none" stroke-linecap="round"></path><path d="M 180.479,207.538 C 182.134,202.809 182.597,202.553 186.072,198.745" stroke-width="5.737" stroke="black" fill="none" stroke-linecap="round"></path><path d="M 186.072,198.745 C 190.987,193.360 191.189,193.260 197.258,189.152" stroke-width="5.063" stroke="black" fill="none" stroke-linecap="round"></path><path d="M 197.258,189.152 C 204.772,184.067 204.896,183.936 213.238,180.359" stroke-width="4.536" stroke="black" fill="none" stroke-linecap="round"></path><path d="M 213.238,180.359 C 221.675,176.741 221.861,176.860 230.816,174.763" stroke-width="4.500" stroke="black" fill="none" stroke-linecap="round"></path><path d="M 230.816,174.763 C 240.637,172.463 240.741,172.370 250.792,171.565" stroke-width="4.500" stroke="black" fill="none" stroke-linecap="round"></path><path d="M 250.792,171.565 C 260.716,170.771 260.825,170.916 270.767,171.565" stroke-width="4.500" stroke="black" fill="none" stroke-linecap="round"></path><path d="M 270.767,171.565 C 279.202,172.116 279.267,172.230 287.546,173.963" stroke-width="4.500" stroke="black" fill="none" stroke-linecap="round"></path><path d="M 287.546,173.963 C 296.445,175.827 296.769,175.331 305.124,178.760" stroke-width="4.500" stroke="black" fill="none" stroke-linecap="round"></path><path d="M 305.124,178.760 C 312.350,181.726 312.453,182.061 318.707,186.754" stroke-width="4.658" stroke="black" fill="none" stroke-linecap="round"></path><path d="M 318.707,186.754 C 323.639,190.455 324.191,190.477 327.496,195.547" stroke-width="4.935" stroke="black" fill="none" stroke-linecap="round"></path><path d="M 327.496,195.547 C 330.183,199.670 330.249,200.272 330.692,205.140" stroke-width="5.410" stroke="black" fill="none" stroke-linecap="round"></path><path d="M 330.692,205.140 C 331.048,209.065 331.107,209.698 329.094,213.134" stroke-width="5.864" stroke="black" fill="none" stroke-linecap="round"></path><path d="M 329.094,213.134 C 324.315,221.289 323.913,221.515 317.109,228.323" stroke-width="4.599" stroke="black" fill="none" stroke-linecap="round"></path><path d="M 317.109,228.323 C 307.933,237.503 307.763,237.626 297.134,245.110" stroke-width="4.500" stroke="black" fill="none" stroke-linecap="round"></path><path d="M 297.134,245.110 C 286.190,252.815 285.873,252.536 273.963,258.700" stroke-width="4.500" stroke="black" fill="none" stroke-linecap="round"></path><path d="M 273.963,258.700 C 262.702,264.527 262.618,264.525 250.792,269.092" stroke-width="4.500" stroke="black" fill="none" stroke-linecap="round"></path><path d="M 250.792,269.092 C 239.847,273.319 239.737,273.179 228.419,276.287" stroke-width="4.500" stroke="black" fill="none" stroke-linecap="round"></path><path d="M 228.419,276.287 C 219.362,278.774 219.311,279.333 210.042,280.284" stroke-width="4.500" stroke="black" fill="none" stroke-linecap="round"></path><path d="M 210.042,280.284 C 203.730,280.932 203.488,280.568 197.258,279.485" stroke-width="4.765" stroke="black" fill="none" stroke-linecap="round"></path><path d="M 197.258,279.485 C 194.299,278.970 192.569,279.256 191.665,277.086" stroke-width="5.932" stroke="black" fill="none" stroke-linecap="round"></path><path d="M 191.665,277.086 C 190.571,274.459 191.032,272.443 193.263,269.892" stroke-width="6.887" stroke="black" fill="none" stroke-linecap="round"></path><path d="M 193.263,269.892 C 196.625,266.048 197.957,266.908 202.851,264.296" stroke-width="5.810" stroke="black" fill="none" stroke-linecap="round"></path><path d="M 202.851,264.296 C 209.942,260.512 209.838,260.217 217.233,257.101" stroke-width="4.926" stroke="black" fill="none" stroke-linecap="round"></path><path d="M 217.233,257.101 C 225.019,253.821 225.114,253.937 233.214,251.505" stroke-width="4.627" stroke="black" fill="none" stroke-linecap="round"></path><path d="M 233.214,251.505 C 241.094,249.140 241.157,249.295 249.194,247.508" stroke-width="4.588" stroke="black" fill="none" stroke-linecap="round"></path><path d="M 249.194,247.508 C 255.539,246.098 255.538,245.800 261.978,245.110" stroke-width="5.016" stroke="black" fill="none" stroke-linecap="round"></path><path d="M 261.978,245.110 C 266.724,244.601 266.786,244.871 271.566,245.110" stroke-width="5.429" stroke="black" fill="none" stroke-linecap="round"></path><path d="M 271.566,245.110 C 274.776,245.271 276.468,244.206 277.958,245.910" stroke-width="6.153" stroke="black" fill="none" stroke-linecap="round"></path><path d="M 277.958,245.910 C 279.265,247.404 278.986,249.677 277.159,251.505" stroke-width="7.170" stroke="black" fill="none" stroke-linecap="round"></path><path d="M 277.159,251.505 C 272.993,255.673 271.803,255.187 265.973,257.901" stroke-width="5.600" stroke="black" fill="none" stroke-linecap="round"></path><path d="M 265.973,257.901 C 254.625,263.181 254.335,262.575 242.802,267.494" stroke-width="4.500" stroke="black" fill="none" stroke-linecap="round"></path><path d="M 242.802,267.494 C 229.966,272.967 230.267,273.746 217.233,278.685" stroke-width="4.500" stroke="black" fill="none" stroke-linecap="round"></path><path d="M 217.233,278.685 C 203.900,283.738 203.693,283.218 190.067,287.479" stroke-width="4.500" stroke="black" fill="none" stroke-linecap="round"></path><path d="M 190.067,287.479 C 178.125,291.213 178.190,291.489 166.097,294.673" stroke-width="4.500" stroke="black" fill="none" stroke-linecap="round"></path><path d="M 166.097,294.673 C 155.419,297.485 155.415,298.017 144.524,299.470" stroke-width="4.500" stroke="black" fill="none" stroke-linecap="round"></path><path d="M 144.524,299.470 C 137.437,300.415 137.255,300.158 130.142,299.470" stroke-width="4.500" stroke="black" fill="none" stroke-linecap="round"></path><path d="M 130.142,299.470 C 124.870,298.959 124.291,299.340 119.755,297.071" stroke-width="5.247" stroke="black" fill="none" stroke-linecap="round"></path><path d="M 119.755,297.071 C 117.100,295.743 116.389,295.105 115.760,292.275" stroke-width="6.050" stroke="black" fill="none" stroke-linecap="round"></path><path d="M 115.760,292.275 C 114.791,287.911 115.580,287.334 116.559,282.682" stroke-width="5.834" stroke="black" fill="none" stroke-linecap="round"></path><path d="M 116.559,282.682 C 117.178,279.740 117.278,279.604 118.956,277.086" stroke-width="6.367" stroke="black" fill="none" stroke-linecap="round"></path><path d="M 118.956,277.086 C 123.671,270.011 123.758,269.957 129.343,263.496" stroke-width="4.922" stroke="black" fill="none" stroke-linecap="round"></path><path d="M 129.343,263.496 C 136.542,255.169 136.929,255.498 144.524,247.508" stroke-width="4.500" stroke="black" fill="none" stroke-linecap="round"></path><path d="M 144.524,247.508 C 152.509,239.110 152.414,239.017 160.504,230.721" stroke-width="4.500" stroke="black" fill="none" stroke-linecap="round"></path><path d="M 160.504,230.721 C 168.395,222.629 168.710,222.931 176.484,214.733" stroke-width="4.500" stroke="black" fill="none" stroke-linecap="round"></path><path d="M 176.484,214.733 C 183.492,207.343 183.800,207.544 190.067,199.544" stroke-width="4.500" stroke="black" fill="none" stroke-linecap="round"></path><path d="M 190.067,199.544 C 195.386,192.755 195.379,192.642 199.655,185.155" stroke-width="4.500" stroke="black" fill="none" stroke-linecap="round"></path><path d="M 199.655,185.155 C 203.369,178.652 203.835,178.649 206.047,171.565" stroke-width="4.632" stroke="black" fill="none" stroke-linecap="round"></path><path d="M 206.047,171.565 C 207.830,165.859 207.431,165.586 207.645,159.574" stroke-width="5.053" stroke="black" fill="none" stroke-linecap="round"></path><path d="M 207.645,159.574 C 207.830,154.394 207.899,154.237 206.846,149.182" stroke-width="5.489" stroke="black" fill="none" stroke-linecap="round"></path><path d="M 206.846,149.182 C 205.902,144.644 205.428,144.708 203.650,140.388" stroke-width="6.473" stroke="black" fill="none" stroke-linecap="round"></path><path d="M 203.650,140.388 C 202.632,137.913 202.308,138.053 201.253,135.592" stroke-width="6.727" stroke="black" fill="none" stroke-linecap="round"></path><path d="M 201.253,135.592 C 199.911,132.457 198.057,128.877 198.856,129.197" stroke-width="7.246" stroke="black" fill="none" stroke-linecap="round"></path><path d="M 198.856,129.197 C 200.055,129.676 202.224,133.065 205.248,137.191" stroke-width="7.419" stroke="black" fill="none" stroke-linecap="round"></path><path d="M 205.248,137.191 C 211.013,145.056 210.909,145.138 216.434,153.179" stroke-width="4.820" stroke="black" fill="none" stroke-linecap="round"></path><path d="M 216.434,153.179 C 224.093,164.324 224.208,164.250 231.615,175.562" stroke-width="4.500" stroke="black" fill="none" stroke-linecap="round"></path><path d="M 231.615,175.562 C 239.389,187.433 239.441,187.411 246.797,199.544" stroke-width="4.500" stroke="black" fill="none" stroke-linecap="round"></path><path d="M 246.797,199.544 C 254.222,211.793 254.444,211.693 261.179,224.326" stroke-width="4.500" stroke="black" fill="none" stroke-linecap="round"></path><path d="M 261.179,224.326 C 267.228,235.675 267.303,235.691 272.365,247.508" stroke-width="4.500" stroke="black" fill="none" stroke-linecap="round"></path><path d="M 272.365,247.508 C 276.891,258.075 276.593,258.220 280.355,269.092" stroke-width="4.500" stroke="black" fill="none" stroke-linecap="round"></path><path d="M 280.355,269.092 C 283.784,279.004 284.104,278.944 286.747,289.077" stroke-width="4.500" stroke="black" fill="none" stroke-linecap="round"></path><path d="M 286.747,289.077 C 288.898,297.330 288.645,297.426 289.943,305.865" stroke-width="4.500" stroke="black" fill="none" stroke-linecap="round"></path><path d="M 289.943,305.865 C 291.042,313.014 291.060,313.042 291.541,320.254" stroke-width="4.680" stroke="black" fill="none" stroke-linecap="round"></path><path d="M 291.541,320.254 C 291.859,325.033 291.541,325.051 291.541,329.847" stroke-width="5.455" stroke="black" fill="none" stroke-linecap="round"></path></svg>