<svg xmlns="http://www.w3.org/2000/svg" xmlns:xlink="http://www.w3.org/1999/xlink" viewBox="0 0 576 416" width="576" height="416"><path d="M 423.376,193.149 C 424.175,189.152 427.993,186.191 424.974,185.155" stroke-width="8.775" stroke="black" fill="none" stroke-linecap="round"></path><path d="M 424.974,185.155 C 414.010,181.394 410.142,182.871 395.411,183.556" stroke-width="7.191" stroke="black" fill="none" stroke-linecap="round"></path><path d="M 395.411,183.556 C 375.785,184.469 375.838,185.978 356.260,188.353" stroke-width="4.500" stroke="black" fill="none" stroke-linecap="round"></path><path d="M 356.260,188.353 C 336.288,190.775 336.212,190.249 316.310,193.149" stroke-width="4.500" stroke="black" fill="none" stroke-linecap="round"></path><path d="M 316.310,193.149 C 295.063,196.245 295.130,196.713 273.963,200.344" stroke-width="4.500" stroke="black" fill="none" stroke-linecap="round"></path><path d="M 273.963,200.344 C 253.183,203.908 253.210,204.071 232.415,207.538" stroke-width="4.500" stroke="black" fill="none" stroke-linecap="round"></path><path d="M 232.415,207.538 C 222.049,209.267 221.990,208.917 211.640,210.736" stroke-width="4.500" stroke="black" fill="none" stroke-linecap="round"></path><path d="M 211.640,210.736 C 192.427,214.113 192.382,213.942 173.288,217.931" stroke-width="4.500" stroke="black" fill="none" stroke-linecap="round"></path><path d="M 173.288,217.931 C 156.028,221.536 156.147,222.097 138.931,225.924" stroke-width="4.500" stroke="black" fill="none" stroke-linecap="round"></path><path d="M 138.931,225.924 C 123.788,229.291 123.804,229.406 108.569,232.320" stroke-width="4.500" stroke="black" fill="none" stroke-linecap="round"></path><path d="M 108.569,232.320 C 96.638,234.602 96.622,234.598 84.599,236.317" stroke-width="4.500" stroke="black" fill="none" stroke-linecap="round"></path><path d="M 84.599,236.317 C 77.047,237.396 76.979,237.916 69.418,237.916" stroke-width="4.500" stroke="black" fill="none" stroke-linecap="round"></path><path d="M 69.418,237.916 C 64.994,237.916 62.183,238.537 60.629,236.317" stroke-width="5.472" stroke="black" fill="none" stroke-linecap="round"></path><path d="M 60.629,236.317 C 59.386,234.540 61.748,232.808 63.825,229.922" stroke-width="6.691" stroke="black" fill="none" stroke-linecap="round"></path><path d="M 63.825,229.922 C 68.939,222.815 68.811,222.535 75.011,216.332" stroke-width="4.923" stroke="black" fill="none" stroke-linecap="round"></path><path d="M 75.011,216.332 C 83.592,207.746 83.869,207.924 93.388,200.344" stroke-width="4.500" stroke="black" fill="none" stroke-linecap="round"></path><path d="M 93.388,200.344 C 103.445,192.335 103.588,192.479 114.162,185.155" stroke-width="4.500" stroke="black" fill="none" stroke-linecap="round"></path><path d="M 114.162,185.155 C 124.362,178.090 124.338,178.011 134.936,171.565" stroke-width="4.500" stroke="black" fill="none" stroke-linecap="round"></path><path d="M 134.936,171.565 C 144.712,165.620 144.648,165.403 154.911,160.373" stroke-width="4.500" stroke="black" fill="none" stroke-linecap="round"></path><path d="M 154.911,160.373 C 164.224,155.810 164.474,156.314 174.087,152.379" stroke-width="4.500" stroke="black" fill="none" stroke-linecap="round"></path><path d="M 174.087,152.379 C 182.052,149.120 181.922,148.701 190.067,145.984" stroke-width="4.500" stroke="black" fill="none" stroke-linecap="round"></path><path d="M 190.067,145.984 C 196.304,143.904 196.373,143.681 202.851,142.787" stroke-width="4.811" stroke="black" fill="none" stroke-linecap="round"></path><path d="M 202.851,142.787 C 207.958,142.082 208.158,142.093 213.238,142.787" stroke-width="5.329" stroke="black" fill="none" stroke-linecap="round"></path><path d="M 213.238,142.787 C 216.947,143.292 217.329,143.276 220.429,145.185" stroke-width="5.994" stroke="black" fill="none" stroke-linecap="round"></path><path d="M 220.429,145.185 C 222.523,146.473 222.741,146.882 223.625,149.182" stroke-width="6.549" stroke="black" fill="none" stroke-linecap="round"></path><path d="M 223.625,149.182 C 224.739,152.078 224.246,152.366 224.425,155.577" stroke-width="6.533" stroke="black" fill="none" stroke-linecap="round"></path><path d="M 224.425,155.577 C 224.646,159.560 224.614,159.583 224.425,163.571" stroke-width="7.043" stroke="black" fill="none" stroke-linecap="round"></path><path d="M 224.425,163.571 C 224.215,167.976 223.992,167.965 223.625,172.365" stroke-width="6.220" stroke="black" fill="none" stroke-linecap="round"></path><path d="M 223.625,172.365 C 223.193,177.558 223.242,177.562 222.826,182.757" stroke-width="5.846" stroke="black" fill="none" stroke-linecap="round"></path><path d="M 222.826,182.757 C 222.443,187.554 222.228,187.545 222.027,192.350" stroke-width="5.686" stroke="black" fill="none" stroke-linecap="round"></path><path d="M 222.027,192.350 C 221.828,197.138 222.027,197.146 222.027,201.942" stroke-width="5.733" stroke="black" fill="none" stroke-linecap="round"></path><path d="M 222.027,201.942 C 222.027,205.939 221.632,205.979 222.027,209.936" stroke-width="5.999" stroke="black" fill="none" stroke-linecap="round"></path><path d="M 222.027,209.936 C 222.431,213.973 222.826,213.933 223.625,217.931" stroke-width="6.058" stroke="black" fill="none" stroke-linecap="round"></path><path d="M 223.625,217.931 C 224.424,221.928 224.011,222.043 225.223,225.924" stroke-width="6.075" stroke="black" fill="none" stroke-linecap="round"></path><path d="M 256.385,289.077 C 258.782,293.874 258.401,294.123 261.179,298.670" stroke-width="8.599" stroke="black" fill="none" stroke-linecap="round"></path></svg>