<svg xmlns="http://www.w3.org/2000/svg" xmlns:xlink="http://www.w3.org/1999/xlink" viewBox="0 0 576 416" width="576" height="416"><path d="M 344.275,28.273 C 347.471,33.869 347.497,33.854 350.667,39.465" stroke-width="8.351" stroke="black" fill="none" stroke-linecap="round"></path><path d="M 350.667,39.465 C 352.691,43.047 352.577,43.114 354.662,46.659" stroke-width="6.607" stroke="black" fill="none" stroke-linecap="round"></path><path d="M 354.662,46.659 C 356.572,49.909 356.403,50.048 358.657,53.055" stroke-width="6.342" stroke="black" fill="none" stroke-linecap="round"></path><path d="M 358.657,53.055 C 361.197,56.443 361.574,56.155 364.250,59.450" stroke-width="6.099" stroke="black" fill="none" stroke-linecap="round"></path><path d="M 364.250,59.450 C 366.767,62.550 366.549,62.726 369.044,65.845" stroke-width="6.192" stroke="black" fill="none" stroke-linecap="round"></path><path d="M 369.044,65.845 C 371.343,68.721 371.564,68.546 373.838,71.441" stroke-width="6.394" stroke="black" fill="none" stroke-linecap="round"></path><path d="M 373.838,71.441 C 375.959,74.142 375.977,74.148 377.833,77.037" stroke-width="6.404" stroke="black" fill="none" stroke-linecap="round"></path><path d="M 377.833,77.037 C 379.572,79.744 379.652,79.726 381.029,82.633" stroke-width="6.489" stroke="black" fill="none" stroke-linecap="round"></path><path d="M 381.029,82.633 C 383.248,87.320 384.379,87.283 385.024,92.225" stroke-width="6.828" stroke="black" fill="none" stroke-linecap="round"></path><path d="M 385.024,92.225 C 385.578,96.476 385.333,97.203 383.426,101.019" stroke-width="7.388" stroke="black" fill="none" stroke-linecap="round"></path><path d="M 383.426,101.019 C 381.737,104.397 380.629,103.817 377.833,106.615" stroke-width="6.469" stroke="black" fill="none" stroke-linecap="round"></path><path d="M 377.833,106.615 C 373.838,110.612 374.108,110.923 369.843,114.609" stroke-width="5.686" stroke="black" fill="none" stroke-linecap="round"></path><path d="M 369.843,114.609 C 365.319,118.518 365.049,118.206 360.255,121.803" stroke-width="5.394" stroke="black" fill="none" stroke-linecap="round"></path><path d="M 360.255,121.803 C 355.461,125.401 355.582,125.577 350.667,128.998" stroke-width="5.313" stroke="black" fill="none" stroke-linecap="round"></path><path d="M 350.667,128.998 C 346.394,131.972 346.245,131.754 341.878,134.594" stroke-width="5.497" stroke="black" fill="none" stroke-linecap="round"></path><path d="M 341.878,134.594 C 338.255,136.950 338.385,137.170 334.687,139.390" stroke-width="5.817" stroke="black" fill="none" stroke-linecap="round"></path><path d="M 334.687,139.390 C 332.393,140.767 332.290,140.589 329.893,141.788" stroke-width="6.499" stroke="black" fill="none" stroke-linecap="round"></path><path d="M 329.893,141.788 C 327.496,142.988 326.896,144.786 325.099,144.187" stroke-width="7.342" stroke="black" fill="none" stroke-linecap="round"></path><path d="M 325.099,144.187 C 323.301,143.587 324.184,138.437 322.702,139.390" stroke-width="8.279" stroke="black" fill="none" stroke-linecap="round"></path><path d="M 322.702,139.390 C 318.591,142.034 318.573,145.599 313.913,151.381" stroke-width="7.925" stroke="black" fill="none" stroke-linecap="round"></path><path d="M 313.913,151.381 C 308.586,157.990 308.622,158.070 302.727,164.172" stroke-width="5.171" stroke="black" fill="none" stroke-linecap="round"></path><path d="M 302.727,164.172 C 297.037,170.061 296.919,169.989 290.742,175.363" stroke-width="4.744" stroke="black" fill="none" stroke-linecap="round"></path><path d="M 290.742,175.363 C 287.731,177.983 287.468,177.664 284.350,180.160" stroke-width="5.560" stroke="black" fill="none" stroke-linecap="round"></path><path d="M 284.350,180.160 C 279.478,184.059 279.591,184.200 274.762,188.154" stroke-width="5.295" stroke="black" fill="none" stroke-linecap="round"></path><path d="M 274.762,188.154 C 270.802,191.395 270.966,191.664 266.772,194.549" stroke-width="5.429" stroke="black" fill="none" stroke-linecap="round"></path><path d="M 266.772,194.549 C 264.574,196.060 264.375,196.947 261.978,196.947" stroke-width="6.347" stroke="black" fill="none" stroke-linecap="round"></path><path d="M 261.978,196.947 C 259.581,196.947 258.303,196.629 257.184,194.549" stroke-width="7.524" stroke="black" fill="none" stroke-linecap="round"></path><path d="M 257.184,194.549 C 255.506,191.432 256.973,190.526 256.385,186.555" stroke-width="6.563" stroke="black" fill="none" stroke-linecap="round"></path><path d="M 256.385,186.555 C 255.375,179.734 255.148,179.767 253.988,172.965" stroke-width="5.247" stroke="black" fill="none" stroke-linecap="round"></path><path d="M 253.988,172.965 C 252.352,163.379 252.583,163.336 250.792,153.780" stroke-width="4.500" stroke="black" fill="none" stroke-linecap="round"></path><path d="M 250.792,153.780 C 248.987,144.151 249.073,144.120 246.797,134.594" stroke-width="4.500" stroke="black" fill="none" stroke-linecap="round"></path><path d="M 246.797,134.594 C 244.679,125.733 244.260,125.836 242.003,117.007" stroke-width="4.500" stroke="black" fill="none" stroke-linecap="round"></path><path d="M 242.003,117.007 C 239.865,108.649 240.046,108.603 238.008,100.219" stroke-width="4.508" stroke="black" fill="none" stroke-linecap="round"></path><path d="M 238.008,100.219 C 236.450,93.814 236.524,93.793 234.811,87.429" stroke-width="4.887" stroke="black" fill="none" stroke-linecap="round"></path><path d="M 234.811,87.429 C 233.727,83.401 233.591,83.438 232.415,79.435" stroke-width="5.564" stroke="black" fill="none" stroke-linecap="round"></path><path d="M 232.415,79.435 C 231.594,76.643 231.595,73.216 230.816,73.839" stroke-width="6.316" stroke="black" fill="none" stroke-linecap="round"></path><path d="M 230.816,73.839 C 229.597,74.815 229.162,78.175 228.419,82.633" stroke-width="7.563" stroke="black" fill="none" stroke-linecap="round"></path><path d="M 228.419,82.633 C 227.964,85.370 227.790,85.552 228.419,88.229" stroke-width="6.991" stroke="black" fill="none" stroke-linecap="round"></path><path d="M 228.419,88.229 C 229.388,92.347 229.277,92.713 231.615,96.222" stroke-width="6.247" stroke="black" fill="none" stroke-linecap="round"></path><path d="M 231.615,96.222 C 234.071,99.908 234.235,100.353 238.008,102.618" stroke-width="6.065" stroke="black" fill="none" stroke-linecap="round"></path><path d="M 238.008,102.618 C 242.225,105.149 242.665,105.056 247.596,105.815" stroke-width="5.764" stroke="black" fill="none" stroke-linecap="round"></path><path d="M 247.596,105.815 C 253.052,106.655 253.197,106.030 258.782,105.815" stroke-width="5.429" stroke="black" fill="none" stroke-linecap="round"></path><path d="M 258.782,105.815 C 263.585,105.631 263.581,105.472 268.370,105.016" stroke-width="5.648" stroke="black" fill="none" stroke-linecap="round"></path><path d="M 268.370,105.016 C 271.971,104.673 271.955,104.442 275.561,104.217" stroke-width="6.098" stroke="black" fill="none" stroke-linecap="round"></path><path d="M 275.561,104.217 C 278.347,104.042 282.027,103.015 281.154,104.217" stroke-width="7.155" stroke="black" fill="none" stroke-linecap="round"></path><path d="M 281.154,104.217 C 278.831,107.411 275.256,108.747 269.169,113.010" stroke-width="6.506" stroke="black" fill="none" stroke-linecap="round"></path><path d="M 269.169,113.010 C 259.276,119.939 259.386,120.128 249.194,126.600" stroke-width="4.500" stroke="black" fill="none" stroke-linecap="round"></path><path d="M 249.194,126.600 C 238.612,133.318 238.518,133.191 227.620,139.390" stroke-width="4.500" stroke="black" fill="none" stroke-linecap="round"></path><path d="M 227.620,139.390 C 218.143,144.782 218.231,145.000 208.444,149.782" stroke-width="4.500" stroke="black" fill="none" stroke-linecap="round"></path><path d="M 208.444,149.782 C 201.053,153.394 200.893,153.077 193.263,156.178" stroke-width="4.500" stroke="black" fill="none" stroke-linecap="round"></path><path d="M 193.263,156.178 C 188.109,158.273 188.176,158.584 182.876,160.175" stroke-width="5.009" stroke="black" fill="none" stroke-linecap="round"></path><path d="M 182.876,160.175 C 180.186,160.982 179.799,161.603 177.283,160.974" stroke-width="6.115" stroke="black" fill="none" stroke-linecap="round"></path><path d="M 177.283,160.974 C 175.005,160.404 175.548,157.274 173.288,157.777" stroke-width="7.668" stroke="black" fill="none" stroke-linecap="round"></path><path d="M 173.288,157.777 C 164.761,159.672 164.487,161.746 155.710,165.771" stroke-width="6.157" stroke="black" fill="none" stroke-linecap="round"></path><path d="M 155.710,165.771 C 145.311,170.539 145.494,170.979 134.936,175.363" stroke-width="4.500" stroke="black" fill="none" stroke-linecap="round"></path><path d="M 134.936,175.363 C 124.321,179.772 124.338,179.979 113.363,183.357" stroke-width="4.500" stroke="black" fill="none" stroke-linecap="round"></path><path d="M 113.363,183.357 C 103.564,186.374 103.490,186.546 93.388,188.154" stroke-width="4.500" stroke="black" fill="none" stroke-linecap="round"></path><path d="M 93.388,188.154 C 85.912,189.344 85.795,188.953 78.207,188.953" stroke-width="4.500" stroke="black" fill="none" stroke-linecap="round"></path><path d="M 78.207,188.953 C 72.212,188.953 71.981,189.483 66.222,188.154" stroke-width="4.885" stroke="black" fill="none" stroke-linecap="round"></path><path d="M 66.222,188.154 C 61.594,187.085 61.133,187.036 57.433,184.157" stroke-width="5.373" stroke="black" fill="none" stroke-linecap="round"></path><path d="M 57.433,184.157 C 53.942,181.440 54.124,180.846 51.840,176.962" stroke-width="6.420" stroke="black" fill="none" stroke-linecap="round"></path><path d="M 51.840,176.962 C 50.129,174.051 49.999,173.902 49.443,170.567" stroke-width="6.420" stroke="black" fill="none" stroke-linecap="round"></path><path d="M 49.443,170.567 C 48.401,164.309 48.865,164.177 48.644,157.777" stroke-width="5.559" stroke="black" fill="none" stroke-linecap="round"></path><path d="M 48.644,157.777 C 48.465,152.586 47.663,152.434 48.644,147.384" stroke-width="5.487" stroke="black" fill="none" stroke-linecap="round"></path><path d="M 48.644,147.384 C 50.459,138.045 50.827,137.954 54.237,128.998" stroke-width="4.538" stroke="black" fill="none" stroke-linecap="round"></path><path d="M 54.237,128.998 C 57.219,121.167 57.102,120.952 61.428,113.809" stroke-width="4.529" stroke="black" fill="none" stroke-linecap="round"></path><path d="M 61.428,113.809 C 65.092,107.761 65.138,107.497 70.217,102.618" stroke-width="4.782" stroke="black" fill="none" stroke-linecap="round"></path><path d="M 70.217,102.618 C 75.125,97.904 75.294,97.587 81.403,94.624" stroke-width="4.916" stroke="black" fill="none" stroke-linecap="round"></path><path d="M 81.403,94.624 C 88.478,91.192 88.961,92.115 96.584,89.827" stroke-width="4.817" stroke="black" fill="none" stroke-linecap="round"></path><path d="M 96.584,89.827 C 100.946,88.518 100.979,88.628 105.373,87.429" stroke-width="5.425" stroke="black" fill="none" stroke-linecap="round"></path></svg>