<svg xmlns="http://www.w3.org/2000/svg" xmlns:xlink="http://www.w3.org/1999/xlink" viewBox="0 0 576 416" width="576" height="416"><path d="M 524.849,165.170 C 522.053,169.567 522.189,169.659 519.256,173.963" stroke-width="8.492" stroke="black" fill="none" stroke-linecap="round"></path><path d="M 519.256,173.963 C 516.196,178.453 516.005,178.321 512.864,182.757" stroke-width="6.026" stroke="black" fill="none" stroke-linecap="round"></path><path d="M 512.864,182.757 C 509.213,187.914 509.610,188.225 505.673,193.149" stroke-width="5.394" stroke="black" fill="none" stroke-linecap="round"></path><path d="M 505.673,193.149 C 501.620,198.218 501.378,198.041 496.884,202.742" stroke-width="5.184" stroke="black" fill="none" stroke-linecap="round"></path><path d="M 496.884,202.742 C 492.589,207.234 492.616,207.278 488.095,211.535" stroke-width="5.281" stroke="black" fill="none" stroke-linecap="round"></path><path d="M 488.095,211.535 C 485.825,213.673 485.716,213.555 483.301,215.532" stroke-width="6.063" stroke="black" fill="none" stroke-linecap="round"></path><path d="M 483.301,215.532 C 476.927,220.750 477.095,220.988 470.517,225.924" stroke-width="4.935" stroke="black" fill="none" stroke-linecap="round"></path><path d="M 470.517,225.924 C 467.507,228.183 467.479,228.244 464.125,229.922" stroke-width="5.843" stroke="black" fill="none" stroke-linecap="round"></path><path d="M 464.125,229.922 C 461.087,231.441 459.263,233.194 457.733,232.320" stroke-width="6.909" stroke="black" fill="none" stroke-linecap="round"></path><path d="M 457.733,232.320 C 456.466,231.596 457.762,229.418 458.532,226.724" stroke-width="7.703" stroke="black" fill="none" stroke-linecap="round"></path><path d="M 458.532,226.724 C 459.360,223.822 459.654,223.891 460.929,221.128" stroke-width="6.917" stroke="black" fill="none" stroke-linecap="round"></path><path d="M 460.929,221.128 C 462.051,218.695 462.065,218.697 463.326,216.332" stroke-width="6.864" stroke="black" fill="none" stroke-linecap="round"></path><path d="M 463.326,216.332 C 465.261,212.701 468.164,210.613 467.321,209.137" stroke-width="7.127" stroke="black" fill="none" stroke-linecap="round"></path><path d="M 467.321,209.137 C 466.566,207.815 463.405,209.169 460.130,210.736" stroke-width="7.969" stroke="black" fill="none" stroke-linecap="round"></path><path d="M 460.130,210.736 C 454.217,213.565 454.537,214.333 448.944,217.931" stroke-width="5.673" stroke="black" fill="none" stroke-linecap="round"></path><path d="M 448.944,217.931 C 443.351,221.528 443.419,221.639 437.758,225.125" stroke-width="5.222" stroke="black" fill="none" stroke-linecap="round"></path><path d="M 437.758,225.125 C 433.032,228.035 432.887,227.799 428.170,230.721" stroke-width="5.376" stroke="black" fill="none" stroke-linecap="round"></path><path d="M 428.170,230.721 C 424.497,232.996 424.678,233.297 420.979,235.517" stroke-width="5.776" stroke="black" fill="none" stroke-linecap="round"></path><path d="M 420.979,235.517 C 418.685,236.894 418.229,238.325 416.185,237.916" stroke-width="6.483" stroke="black" fill="none" stroke-linecap="round"></path><path d="M 416.185,237.916 C 414.234,237.525 413.150,236.173 412.989,233.919" stroke-width="7.584" stroke="black" fill="none" stroke-linecap="round"></path><path d="M 412.989,233.919 C 412.750,230.577 414.365,230.373 415.386,226.724" stroke-width="6.578" stroke="black" fill="none" stroke-linecap="round"></path><path d="M 415.386,226.724 C 417.161,220.380 416.830,220.286 418.582,213.934" stroke-width="5.444" stroke="black" fill="none" stroke-linecap="round"></path><path d="M 418.582,213.934 C 420.026,208.695 420.180,208.737 421.778,203.541" stroke-width="5.475" stroke="black" fill="none" stroke-linecap="round"></path><path d="M 421.778,203.541 C 423.376,198.345 423.775,198.428 424.974,193.149" stroke-width="5.485" stroke="black" fill="none" stroke-linecap="round"></path><path d="M 424.974,193.149 C 425.772,189.634 425.572,189.563 425.773,185.954" stroke-width="6.039" stroke="black" fill="none" stroke-linecap="round"></path><path d="M 425.773,185.954 C 425.972,182.368 427.910,179.523 425.773,178.760" stroke-width="6.925" stroke="black" fill="none" stroke-linecap="round"></path><path d="M 425.773,178.760 C 422.317,177.525 419.977,179.838 414.587,181.957" stroke-width="7.220" stroke="black" fill="none" stroke-linecap="round"></path><path d="M 414.587,181.957 C 408.791,184.235 408.634,184.187 403.401,187.553" stroke-width="5.552" stroke="black" fill="none" stroke-linecap="round"></path><path d="M 403.401,187.553 C 397.448,191.382 397.748,191.876 392.215,196.347" stroke-width="5.173" stroke="black" fill="none" stroke-linecap="round"></path><path d="M 392.215,196.347 C 387.361,200.269 387.134,200.046 382.627,204.341" stroke-width="5.090" stroke="black" fill="none" stroke-linecap="round"></path><path d="M 382.627,204.341 C 378.744,208.040 378.490,207.969 375.436,212.335" stroke-width="5.459" stroke="black" fill="none" stroke-linecap="round"></path><path d="M 375.436,212.335 C 372.897,215.963 372.973,216.167 371.441,220.329" stroke-width="5.676" stroke="black" fill="none" stroke-linecap="round"></path><path d="M 371.441,220.329 C 370.177,223.761 370.056,223.898 369.843,227.523" stroke-width="6.155" stroke="black" fill="none" stroke-linecap="round"></path><path d="M 369.843,227.523 C 369.656,230.693 369.528,231.022 370.642,233.919" stroke-width="6.335" stroke="black" fill="none" stroke-linecap="round"></path><path d="M 370.642,233.919 C 371.526,236.218 371.962,236.210 373.838,237.916" stroke-width="6.791" stroke="black" fill="none" stroke-linecap="round"></path><path d="M 373.838,237.916 C 376.357,240.207 376.709,239.818 379.431,241.913" stroke-width="6.519" stroke="black" fill="none" stroke-linecap="round"></path><path d="M 379.431,241.913 C 381.902,243.815 381.646,244.189 384.225,245.910" stroke-width="6.488" stroke="black" fill="none" stroke-linecap="round"></path><path d="M 384.225,245.910 C 386.440,247.387 386.477,247.721 389.019,248.308" stroke-width="6.732" stroke="black" fill="none" stroke-linecap="round"></path><path d="M 389.019,248.308 C 391.671,248.920 393.847,249.648 394.612,248.308" stroke-width="7.641" stroke="black" fill="none" stroke-linecap="round"></path><path d="M 394.612,248.308 C 395.445,246.850 393.983,245.124 392.215,242.712" stroke-width="7.636" stroke="black" fill="none" stroke-linecap="round"></path><path d="M 392.215,242.712 C 389.588,239.129 389.563,238.604 385.823,236.317" stroke-width="7.321" stroke="black" fill="none" stroke-linecap="round"></path><path d="M 385.823,236.317 C 382.372,234.207 381.898,234.347 377.833,233.919" stroke-width="7.255" stroke="black" fill="none" stroke-linecap="round"></path><path d="M 377.833,233.919 C 374.307,233.547 374.058,233.713 370.642,234.718" stroke-width="7.343" stroke="black" fill="none" stroke-linecap="round"></path><path d="M 370.642,234.718 C 367.267,235.711 366.897,235.675 364.250,237.916" stroke-width="7.434" stroke="black" fill="none" stroke-linecap="round"></path><path d="M 364.250,237.916 C 361.703,240.071 361.950,240.543 360.255,243.511" stroke-width="7.444" stroke="black" fill="none" stroke-linecap="round"></path><path d="M 360.255,243.511 C 358.754,246.139 359.216,246.389 357.858,249.107" stroke-width="7.551" stroke="black" fill="none" stroke-linecap="round"></path><path d="M 357.858,249.107 C 356.420,251.985 356.446,252.025 354.662,254.703" stroke-width="7.609" stroke="black" fill="none" stroke-linecap="round"></path><path d="M 354.662,254.703 C 351.652,259.220 351.858,259.458 348.270,263.496" stroke-width="6.962" stroke="black" fill="none" stroke-linecap="round"></path><path d="M 348.270,263.496 C 345.466,266.653 345.268,266.548 341.878,269.092" stroke-width="6.346" stroke="black" fill="none" stroke-linecap="round"></path><path d="M 341.878,269.092 C 337.278,272.544 337.164,272.417 332.290,275.488" stroke-width="5.625" stroke="black" fill="none" stroke-linecap="round"></path><path d="M 332.290,275.488 C 326.378,279.212 326.385,279.244 320.305,282.682" stroke-width="5.024" stroke="black" fill="none" stroke-linecap="round"></path><path d="M 320.305,282.682 C 317.196,284.440 317.129,284.323 313.913,285.880" stroke-width="5.939" stroke="black" fill="none" stroke-linecap="round"></path><path d="M 313.913,285.880 C 304.745,290.318 304.740,290.311 295.536,294.673" stroke-width="4.500" stroke="black" fill="none" stroke-linecap="round"></path><path d="M 295.536,294.673 C 289.559,297.506 289.543,297.471 283.551,300.269" stroke-width="4.923" stroke="black" fill="none" stroke-linecap="round"></path><path d="M 283.551,300.269 C 277.558,303.067 277.599,303.159 271.566,305.865" stroke-width="4.926" stroke="black" fill="none" stroke-linecap="round"></path><path d="M 271.566,305.865 C 266.014,308.355 266.014,308.365 260.380,310.661" stroke-width="5.228" stroke="black" fill="none" stroke-linecap="round"></path><path d="M 260.380,310.661 C 255.227,312.761 255.202,312.704 249.993,314.658" stroke-width="5.284" stroke="black" fill="none" stroke-linecap="round"></path><path d="M 249.993,314.658 C 245.614,316.301 245.591,316.239 241.203,317.856" stroke-width="5.715" stroke="black" fill="none" stroke-linecap="round"></path><path d="M 241.203,317.856 C 238.001,319.036 238.109,319.478 234.811,320.254" stroke-width="6.192" stroke="black" fill="none" stroke-linecap="round"></path><path d="M 297.134,122.802 C 297.533,130.396 296.944,130.473 297.933,137.990" stroke-width="8.278" stroke="black" fill="none" stroke-linecap="round"></path><path d="M 297.933,137.990 C 298.941,145.661 299.724,145.549 301.129,153.179" stroke-width="5.522" stroke="black" fill="none" stroke-linecap="round"></path><path d="M 301.129,153.179 C 302.520,160.738 301.983,160.843 303.526,168.367" stroke-width="5.037" stroke="black" fill="none" stroke-linecap="round"></path><path d="M 303.526,168.367 C 305.179,176.432 305.475,176.374 307.521,184.356" stroke-width="4.599" stroke="black" fill="none" stroke-linecap="round"></path><path d="M 307.521,184.356 C 309.470,191.962 309.612,191.926 311.516,199.544" stroke-width="4.742" stroke="black" fill="none" stroke-linecap="round"></path><path d="M 311.516,199.544 C 313.208,206.316 313.290,206.306 314.712,213.134" stroke-width="4.787" stroke="black" fill="none" stroke-linecap="round"></path><path d="M 314.712,213.134 C 315.287,215.899 314.957,215.961 315.511,218.730" stroke-width="6.013" stroke="black" fill="none" stroke-linecap="round"></path><path d="M 315.511,218.730 C 316.555,223.955 316.775,223.912 317.908,229.122" stroke-width="5.755" stroke="black" fill="none" stroke-linecap="round"></path><path d="M 317.908,229.122 C 318.773,233.105 318.798,233.104 319.506,237.116" stroke-width="5.808" stroke="black" fill="none" stroke-linecap="round"></path><path d="M 319.506,237.116 C 319.996,239.898 319.993,239.904 320.305,242.712" stroke-width="6.439" stroke="black" fill="none" stroke-linecap="round"></path><path d="M 269.968,165.969 C 266.372,170.766 265.874,170.471 262.777,175.562" stroke-width="8.434" stroke="black" fill="none" stroke-linecap="round"></path><path d="M 262.777,175.562 C 260.281,179.664 260.426,179.831 258.782,184.356" stroke-width="6.348" stroke="black" fill="none" stroke-linecap="round"></path><path d="M 258.782,184.356 C 257.230,188.625 257.393,188.709 256.385,193.149" stroke-width="5.997" stroke="black" fill="none" stroke-linecap="round"></path><path d="M 256.385,193.149 C 255.396,197.503 255.019,197.530 254.787,201.942" stroke-width="5.928" stroke="black" fill="none" stroke-linecap="round"></path><path d="M 254.787,201.942 C 254.619,205.124 254.889,205.203 255.586,208.338" stroke-width="6.401" stroke="black" fill="none" stroke-linecap="round"></path><path d="M 255.586,208.338 C 256.487,212.397 256.466,212.455 257.983,216.332" stroke-width="6.053" stroke="black" fill="none" stroke-linecap="round"></path><path d="M 257.983,216.332 C 260.062,221.648 260.525,221.467 262.777,226.724" stroke-width="6.514" stroke="black" fill="none" stroke-linecap="round"></path><path d="M 262.777,226.724 C 264.120,229.861 264.299,229.839 265.174,233.119" stroke-width="6.368" stroke="black" fill="none" stroke-linecap="round"></path><path d="M 265.174,233.119 C 265.897,235.834 265.973,235.905 265.973,238.715" stroke-width="6.634" stroke="black" fill="none" stroke-linecap="round"></path><path d="M 265.973,238.715 C 265.973,243.500 266.423,243.808 265.174,248.308" stroke-width="6.926" stroke="black" fill="none" stroke-linecap="round"></path><path d="M 265.174,248.308 C 264.425,251.002 263.866,250.944 261.978,253.104" stroke-width="6.781" stroke="black" fill="none" stroke-linecap="round"></path><path d="M 261.978,253.104 C 258.273,257.340 258.326,257.513 253.988,261.098" stroke-width="5.756" stroke="black" fill="none" stroke-linecap="round"></path><path d="M 253.988,261.098 C 249.137,265.107 248.933,264.914 243.601,268.293" stroke-width="5.328" stroke="black" fill="none" stroke-linecap="round"></path><path d="M 243.601,268.293 C 236.948,272.508 236.869,272.396 230.017,276.287" stroke-width="4.850" stroke="black" fill="none" stroke-linecap="round"></path><path d="M 230.017,276.287 C 222.088,280.790 222.110,280.840 214.037,285.080" stroke-width="4.578" stroke="black" fill="none" stroke-linecap="round"></path><path d="M 214.037,285.080 C 206.130,289.234 206.003,288.992 198.057,293.074" stroke-width="4.500" stroke="black" fill="none" stroke-linecap="round"></path><path d="M 198.057,293.074 C 191.222,296.586 191.346,296.832 184.474,300.269" stroke-width="4.605" stroke="black" fill="none" stroke-linecap="round"></path><path d="M 184.474,300.269 C 178.562,303.227 178.451,303.002 172.489,305.865" stroke-width="4.915" stroke="black" fill="none" stroke-linecap="round"></path><path d="M 172.489,305.865 C 168.463,307.799 168.494,307.863 164.499,309.862" stroke-width="5.565" stroke="black" fill="none" stroke-linecap="round"></path><circle r="3" cx="319.505615234375" cy="249.9066162109375" fill="black"></circle><path d="M 210.841,151.580 C 213.238,159.574 213.615,159.480 215.635,167.568" stroke-width="8.099" stroke="black" fill="none" stroke-linecap="round"></path><path d="M 215.635,167.568 C 217.610,175.468 217.271,175.555 218.832,183.556" stroke-width="5.279" stroke="black" fill="none" stroke-linecap="round"></path><path d="M 218.832,183.556 C 220.467,191.943 220.405,191.955 222.027,200.344" stroke-width="4.700" stroke="black" fill="none" stroke-linecap="round"></path><path d="M 222.027,200.344 C 222.802,204.345 224.016,210.387 223.625,208.338" stroke-width="5.517" stroke="black" fill="none" stroke-linecap="round"></path><path d="M 169.293,282.682 C 166.497,276.287 165.751,276.503 163.700,269.892" stroke-width="7.721" stroke="black" fill="none" stroke-linecap="round"></path><path d="M 163.700,269.892 C 162.156,264.912 162.625,264.725 162.102,259.499" stroke-width="5.961" stroke="black" fill="none" stroke-linecap="round"></path><path d="M 162.102,259.499 C 161.426,252.734 160.449,252.574 161.303,245.910" stroke-width="5.253" stroke="black" fill="none" stroke-linecap="round"></path><path d="M 161.303,245.910 C 162.447,236.986 161.505,236.022 166.097,228.323" stroke-width="4.680" stroke="black" fill="none" stroke-linecap="round"></path><path d="M 166.097,228.323 C 176.287,211.240 177.677,211.626 190.866,196.347" stroke-width="4.500" stroke="black" fill="none" stroke-linecap="round"></path><path d="M 190.866,196.347 C 200.449,185.246 200.032,184.403 211.640,175.562" stroke-width="4.500" stroke="black" fill="none" stroke-linecap="round"></path><path d="M 211.640,175.562 C 226.799,164.018 227.654,164.908 244.400,155.577" stroke-width="4.500" stroke="black" fill="none" stroke-linecap="round"></path><path d="M 244.400,155.577 C 259.214,147.322 259.135,146.919 274.762,140.388" stroke-width="4.500" stroke="black" fill="none" stroke-linecap="round"></path><path d="M 274.762,140.388 C 290.696,133.729 290.926,134.056 307.521,129.197" stroke-width="4.500" stroke="black" fill="none" stroke-linecap="round"></path><path d="M 307.521,129.197 C 323.685,124.463 323.781,124.625 340.280,121.203" stroke-width="4.500" stroke="black" fill="none" stroke-linecap="round"></path><path d="M 340.280,121.203 C 356.540,117.830 356.556,117.366 373.039,115.607" stroke-width="4.500" stroke="black" fill="none" stroke-linecap="round"></path><path d="M 373.039,115.607 C 386.518,114.168 386.635,114.588 400.205,114.807" stroke-width="4.500" stroke="black" fill="none" stroke-linecap="round"></path><path d="M 400.205,114.807 C 411.404,114.988 411.531,114.760 422.577,116.406" stroke-width="4.500" stroke="black" fill="none" stroke-linecap="round"></path><path d="M 422.577,116.406 C 430.308,117.558 430.277,118.064 437.758,120.403" stroke-width="4.500" stroke="black" fill="none" stroke-linecap="round"></path><path d="M 437.758,120.403 C 443.061,122.061 443.614,121.454 448.145,124.400" stroke-width="5.052" stroke="black" fill="none" stroke-linecap="round"></path><path d="M 448.145,124.400 C 451.604,126.650 451.903,127.124 453.738,130.796" stroke-width="5.681" stroke="black" fill="none" stroke-linecap="round"></path><path d="M 453.738,130.796 C 455.498,134.319 456.598,135.316 455.336,138.790" stroke-width="5.956" stroke="black" fill="none" stroke-linecap="round"></path><path d="M 455.336,138.790 C 453.402,144.109 452.094,144.402 447.346,148.382" stroke-width="6.382" stroke="black" fill="none" stroke-linecap="round"></path><path d="M 447.346,148.382 C 437.312,156.793 437.260,157.186 425.773,163.571" stroke-width="4.500" stroke="black" fill="none" stroke-linecap="round"></path><path d="M 425.773,163.571 C 408.496,173.174 408.180,172.901 389.818,180.359" stroke-width="4.500" stroke="black" fill="none" stroke-linecap="round"></path><path d="M 389.818,180.359 C 367.830,189.289 367.624,188.888 345.074,196.347" stroke-width="4.500" stroke="black" fill="none" stroke-linecap="round"></path><path d="M 345.074,196.347 C 319.284,204.876 319.246,204.823 293.139,212.335" stroke-width="4.500" stroke="black" fill="none" stroke-linecap="round"></path><path d="M 293.139,212.335 C 258.122,222.410 257.894,221.614 222.826,231.520" stroke-width="4.500" stroke="black" fill="none" stroke-linecap="round"></path><path d="M 222.826,231.520 C 189.979,240.800 189.898,240.572 157.308,250.706" stroke-width="4.500" stroke="black" fill="none" stroke-linecap="round"></path><path d="M 157.308,250.706 C 130.772,258.958 130.917,259.428 104.574,268.293" stroke-width="4.500" stroke="black" fill="none" stroke-linecap="round"></path><path d="M 104.574,268.293 C 86.972,274.217 86.954,274.170 69.418,280.284" stroke-width="4.500" stroke="black" fill="none" stroke-linecap="round"></path><path d="M 69.418,280.284 C 60.587,283.363 51.147,288.067 51.840,286.679" stroke-width="4.500" stroke="black" fill="none" stroke-linecap="round"></path><path d="M 51.840,286.679 C 52.745,284.869 61.940,279.776 72.614,273.889" stroke-width="5.007" stroke="black" fill="none" stroke-linecap="round"></path><path d="M 72.614,273.889 C 93.101,262.589 93.151,262.613 114.162,252.305" stroke-width="4.500" stroke="black" fill="none" stroke-linecap="round"></path><path d="M 114.162,252.305 C 134.699,242.229 134.889,242.607 155.710,233.119" stroke-width="4.500" stroke="black" fill="none" stroke-linecap="round"></path><path d="M 155.710,233.119 C 175.238,224.221 175.460,224.693 194.861,215.532" stroke-width="4.500" stroke="black" fill="none" stroke-linecap="round"></path><path d="M 194.861,215.532 C 211.016,207.905 211.051,207.926 226.822,199.544" stroke-width="4.500" stroke="black" fill="none" stroke-linecap="round"></path><path d="M 226.822,199.544 C 236.620,194.336 236.956,194.657 245.998,188.353" stroke-width="4.500" stroke="black" fill="none" stroke-linecap="round"></path><path d="M 245.998,188.353 C 250.140,185.464 254.552,183.033 253.189,181.158" stroke-width="4.747" stroke="black" fill="none" stroke-linecap="round"></path><path d="M 253.189,181.158 C 251.356,178.637 246.384,179.107 239.605,179.559" stroke-width="6.179" stroke="black" fill="none" stroke-linecap="round"></path><path d="M 239.605,179.559 C 222.413,180.706 222.335,181.414 205.248,184.356" stroke-width="4.500" stroke="black" fill="none" stroke-linecap="round"></path><path d="M 205.248,184.356 C 185.181,187.810 185.207,188.049 165.298,192.350" stroke-width="4.500" stroke="black" fill="none" stroke-linecap="round"></path><path d="M 165.298,192.350 C 150.051,195.643 150.153,196.106 134.936,199.544" stroke-width="4.500" stroke="black" fill="none" stroke-linecap="round"></path><path d="M 134.936,199.544 C 125.384,201.702 125.372,201.671 115.760,203.541" stroke-width="4.500" stroke="black" fill="none" stroke-linecap="round"></path><path d="M 115.760,203.541 C 110.990,204.469 105.190,206.544 106.172,205.140" stroke-width="4.956" stroke="black" fill="none" stroke-linecap="round"></path><path d="M 106.172,205.140 C 107.987,202.547 113.674,200.197 121.353,195.547" stroke-width="6.295" stroke="black" fill="none" stroke-linecap="round"></path><path d="M 121.353,195.547 C 128.855,191.004 129.103,191.401 136.534,186.754" stroke-width="4.862" stroke="black" fill="none" stroke-linecap="round"></path><path d="M 136.534,186.754 C 141.887,183.407 141.874,183.346 146.921,179.559" stroke-width="5.152" stroke="black" fill="none" stroke-linecap="round"></path><path d="M 146.921,179.559 C 149.864,177.351 152.062,177.251 152.514,174.763" stroke-width="5.892" stroke="black" fill="none" stroke-linecap="round"></path><path d="M 152.514,174.763 C 152.861,172.854 151.032,171.653 148.519,170.766" stroke-width="7.042" stroke="black" fill="none" stroke-linecap="round"></path><path d="M 148.519,170.766 C 144.241,169.255 143.719,170.430 138.931,169.966" stroke-width="6.083" stroke="black" fill="none" stroke-linecap="round"></path><path d="M 138.931,169.966 C 131.335,169.231 131.286,169.510 123.750,168.367" stroke-width="5.078" stroke="black" fill="none" stroke-linecap="round"></path><path d="M 123.750,168.367 C 118.103,167.511 118.036,167.566 112.564,165.969" stroke-width="5.285" stroke="black" fill="none" stroke-linecap="round"></path><path d="M 112.564,165.969 C 108.448,164.768 105.556,165.882 104.574,162.772" stroke-width="5.750" stroke="black" fill="none" stroke-linecap="round"></path><path d="M 104.574,162.772 C 103.159,158.287 104.210,155.476 107.770,150.781" stroke-width="6.316" stroke="black" fill="none" stroke-linecap="round"></path><path d="M 107.770,150.781 C 112.999,143.885 114.989,145.220 122.152,139.589" stroke-width="4.793" stroke="black" fill="none" stroke-linecap="round"></path><path d="M 122.152,139.589 C 126.175,136.427 126.147,136.391 130.142,133.194" stroke-width="5.342" stroke="black" fill="none" stroke-linecap="round"></path><path d="M 219.630,141.987 C 224.025,141.587 224.016,141.398 228.419,141.188" stroke-width="8.332" stroke="black" fill="none" stroke-linecap="round"></path></svg>