<svg xmlns="http://www.w3.org/2000/svg" xmlns:xlink="http://www.w3.org/1999/xlink" viewBox="0 0 576 416" width="576" height="416"><path d="M 142.926,249.107 C 143.725,243.511 143.245,243.403 144.524,237.916" stroke-width="8.049" stroke="black" fill="none" stroke-linecap="round"></path><path d="M 144.524,237.916 C 146.041,231.412 146.356,231.465 148.519,225.125" stroke-width="5.550" stroke="black" fill="none" stroke-linecap="round"></path><path d="M 148.519,225.125 C 151.949,215.077 151.901,215.050 155.710,205.140" stroke-width="4.500" stroke="black" fill="none" stroke-linecap="round"></path><path d="M 155.710,205.140 C 159.891,194.266 160.411,194.463 164.499,183.556" stroke-width="4.500" stroke="black" fill="none" stroke-linecap="round"></path><path d="M 164.499,183.556 C 168.801,172.080 168.761,172.051 172.489,160.373" stroke-width="4.500" stroke="black" fill="none" stroke-linecap="round"></path><path d="M 172.489,160.373 C 177.949,143.272 177.581,143.155 182.876,125.999" stroke-width="4.500" stroke="black" fill="none" stroke-linecap="round"></path><path d="M 182.876,125.999 C 185.971,115.975 186.298,116.072 189.268,106.014" stroke-width="4.500" stroke="black" fill="none" stroke-linecap="round"></path><path d="M 189.268,106.014 C 191.492,98.485 191.481,98.467 193.263,90.825" stroke-width="4.500" stroke="black" fill="none" stroke-linecap="round"></path><path d="M 193.263,90.825 C 194.278,86.476 193.841,86.372 194.861,82.032" stroke-width="5.297" stroke="black" fill="none" stroke-linecap="round"></path><path d="M 194.861,82.032 C 195.439,79.577 195.176,76.808 196.459,77.236" stroke-width="6.400" stroke="black" fill="none" stroke-linecap="round"></path><path d="M 196.459,77.236 C 198.772,78.007 200.038,80.399 202.052,84.430" stroke-width="7.217" stroke="black" fill="none" stroke-linecap="round"></path><path d="M 202.052,84.430 C 205.631,91.590 204.698,92.083 207.645,99.619" stroke-width="5.171" stroke="black" fill="none" stroke-linecap="round"></path><path d="M 207.645,99.619 C 211.889,110.469 212.073,110.397 216.434,121.203" stroke-width="4.500" stroke="black" fill="none" stroke-linecap="round"></path><path d="M 216.434,121.203 C 220.463,131.182 220.241,131.275 224.425,141.188" stroke-width="4.500" stroke="black" fill="none" stroke-linecap="round"></path><path d="M 224.425,141.188 C 227.832,149.262 228.165,149.120 231.615,157.176" stroke-width="4.500" stroke="black" fill="none" stroke-linecap="round"></path><path d="M 231.615,157.176 C 234.157,163.110 233.838,163.250 236.410,169.167" stroke-width="4.754" stroke="black" fill="none" stroke-linecap="round"></path><path d="M 236.410,169.167 C 237.833,172.443 237.151,173.553 239.605,175.562" stroke-width="5.761" stroke="black" fill="none" stroke-linecap="round"></path><path d="M 239.605,175.562 C 241.545,177.150 243.075,177.689 245.199,176.362" stroke-width="7.004" stroke="black" fill="none" stroke-linecap="round"></path><path d="M 245.199,176.362 C 249.467,173.692 248.876,172.030 252.390,167.568" stroke-width="5.893" stroke="black" fill="none" stroke-linecap="round"></path><path d="M 252.390,167.568 C 259.263,158.840 259.340,158.893 265.973,149.981" stroke-width="4.500" stroke="black" fill="none" stroke-linecap="round"></path><path d="M 265.973,149.981 C 273.322,140.107 273.340,140.111 280.355,129.996" stroke-width="4.500" stroke="black" fill="none" stroke-linecap="round"></path><path d="M 280.355,129.996 C 286.923,120.525 286.811,120.445 293.139,110.810" stroke-width="4.500" stroke="black" fill="none" stroke-linecap="round"></path><path d="M 293.139,110.810 C 295.999,106.455 295.842,106.353 298.732,102.017" stroke-width="5.178" stroke="black" fill="none" stroke-linecap="round"></path><path d="M 298.732,102.017 C 305.431,91.964 305.410,91.944 312.315,82.032" stroke-width="4.500" stroke="black" fill="none" stroke-linecap="round"></path><path d="M 312.315,82.032 C 314.598,78.753 314.172,78.085 317.109,75.637" stroke-width="5.255" stroke="black" fill="none" stroke-linecap="round"></path><path d="M 317.109,75.637 C 318.966,74.088 320.687,72.686 321.903,74.038" stroke-width="6.330" stroke="black" fill="none" stroke-linecap="round"></path><path d="M 321.903,74.038 C 324.282,76.683 323.101,78.834 324.300,83.631" stroke-width="6.735" stroke="black" fill="none" stroke-linecap="round"></path><path d="M 324.300,83.631 C 325.099,86.828 326.145,86.763 325.898,90.026" stroke-width="6.390" stroke="black" fill="none" stroke-linecap="round"></path><path d="M 325.898,90.026 C 324.147,113.143 324.098,113.383 320.305,136.391" stroke-width="4.500" stroke="black" fill="none" stroke-linecap="round"></path><path d="M 320.305,136.391 C 317.706,152.154 316.709,151.980 313.114,167.568" stroke-width="4.500" stroke="black" fill="none" stroke-linecap="round"></path><path d="M 313.114,167.568 C 311.915,172.764 311.873,172.755 310.717,177.960" stroke-width="4.500" stroke="black" fill="none" stroke-linecap="round"></path><path d="M 310.717,177.960 C 308.677,187.144 306.263,194.740 306.722,196.347" stroke-width="4.500" stroke="black" fill="none" stroke-linecap="round"></path><path d="M 306.722,196.347 C 307.062,197.538 311.135,190.243 312.315,183.556" stroke-width="6.080" stroke="black" fill="none" stroke-linecap="round"></path><path d="M 312.315,183.556 C 313.532,176.653 313.754,175.885 311.516,169.167" stroke-width="5.180" stroke="black" fill="none" stroke-linecap="round"></path><path d="M 311.516,169.167 C 306.962,155.501 307.642,154.102 298.732,142.787" stroke-width="4.500" stroke="black" fill="none" stroke-linecap="round"></path><path d="M 298.732,142.787 C 286.868,127.722 285.275,128.410 269.968,116.406" stroke-width="4.500" stroke="black" fill="none" stroke-linecap="round"></path><path d="M 269.968,116.406 C 255.712,105.227 254.100,107.298 239.605,96.421" stroke-width="4.500" stroke="black" fill="none" stroke-linecap="round"></path><path d="M 239.605,96.421 C 230.130,89.311 229.275,89.497 222.027,80.433" stroke-width="4.500" stroke="black" fill="none" stroke-linecap="round"></path><path d="M 222.027,80.433 C 218.089,75.507 217.989,74.486 217.233,68.442" stroke-width="4.500" stroke="black" fill="none" stroke-linecap="round"></path><path d="M 217.233,68.442 C 216.790,64.893 221.620,59.157 219.630,61.247" stroke-width="5.505" stroke="black" fill="none" stroke-linecap="round"></path><path d="M 219.630,61.247 C 205.640,75.944 204.818,84.120 185.273,102.017" stroke-width="5.175" stroke="black" fill="none" stroke-linecap="round"></path><path d="M 185.273,102.017 C 157.677,127.288 156.064,125.867 125.348,147.583" stroke-width="4.500" stroke="black" fill="none" stroke-linecap="round"></path><path d="M 125.348,147.583 C 96.138,168.235 95.719,167.701 65.423,186.754" stroke-width="4.500" stroke="black" fill="none" stroke-linecap="round"></path><path d="M 65.423,186.754 C 39.789,202.875 40.039,203.465 13.488,217.931" stroke-width="4.500" stroke="black" fill="none" stroke-linecap="round"></path><path d="M 13.488,217.931 C -0.310,225.448 -6.572,229.219 -15.276,230.721" stroke-width="4.500" stroke="black" fill="none" stroke-linecap="round"></path><path d="M -15.276,230.721 C -18.157,231.218 -13.995,224.741 -9.683,221.928" stroke-width="4.653" stroke="black" fill="none" stroke-linecap="round"></path><path d="M -9.683,221.928 C 22.759,200.759 22.920,199.572 58.232,182.757" stroke-width="4.500" stroke="black" fill="none" stroke-linecap="round"></path><path d="M 58.232,182.757 C 106.017,160.002 106.100,158.859 156.509,142.787" stroke-width="4.500" stroke="black" fill="none" stroke-linecap="round"></path><path d="M 156.509,142.787 C 215.163,124.085 215.586,122.780 276.360,113.209" stroke-width="4.500" stroke="black" fill="none" stroke-linecap="round"></path><path d="M 276.360,113.209 C 345.025,102.395 345.941,101.595 415.386,102.017" stroke-width="4.500" stroke="black" fill="none" stroke-linecap="round"></path><path d="M 415.386,102.017 C 477.376,102.394 477.280,108.744 539.231,114.807" stroke-width="4.500" stroke="black" fill="none" stroke-linecap="round"></path></svg>