<svg xmlns="http://www.w3.org/2000/svg" xmlns:xlink="http://www.w3.org/1999/xlink" viewBox="0 0 576 416" width="576" height="416"><path d="M 74.212,188.353 C 76.210,192.350 76.514,192.231 78.207,196.347" stroke-width="8.558" stroke="black" fill="none" stroke-linecap="round"></path><path d="M 78.207,196.347 C 79.310,199.026 80.230,201.517 79.805,201.942" stroke-width="8.216" stroke="black" fill="none" stroke-linecap="round"></path><path d="M 79.805,201.942 C 79.431,202.316 77.844,200.169 76.609,197.945" stroke-width="8.323" stroke="black" fill="none" stroke-linecap="round"></path><path d="M 76.609,197.945 C 73.849,192.974 73.894,192.870 71.815,187.553" stroke-width="7.103" stroke="black" fill="none" stroke-linecap="round"></path><path d="M 71.815,187.553 C 70.299,183.676 70.383,183.612 69.418,179.559" stroke-width="6.321" stroke="black" fill="none" stroke-linecap="round"></path><path d="M 69.418,179.559 C 68.385,175.219 68.263,175.194 67.820,170.766" stroke-width="6.019" stroke="black" fill="none" stroke-linecap="round"></path><path d="M 67.820,170.766 C 67.464,167.200 67.480,167.140 67.820,163.571" stroke-width="6.063" stroke="black" fill="none" stroke-linecap="round"></path><path d="M 67.820,163.571 C 68.279,158.747 68.037,158.585 69.418,153.978" stroke-width="6.058" stroke="black" fill="none" stroke-linecap="round"></path><path d="M 69.418,153.978 C 70.434,150.591 70.606,150.505 72.614,147.583" stroke-width="6.250" stroke="black" fill="none" stroke-linecap="round"></path><path d="M 72.614,147.583 C 75.001,144.110 74.744,143.539 78.207,141.188" stroke-width="6.073" stroke="black" fill="none" stroke-linecap="round"></path><path d="M 78.207,141.188 C 85.930,135.945 86.273,135.828 94.986,132.394" stroke-width="5.865" stroke="black" fill="none" stroke-linecap="round"></path><path d="M 94.986,132.394 C 99.457,130.632 99.756,131.398 104.574,130.796" stroke-width="5.767" stroke="black" fill="none" stroke-linecap="round"></path><path d="M 104.574,130.796 C 109.344,130.199 109.372,129.996 114.162,129.996" stroke-width="5.753" stroke="black" fill="none" stroke-linecap="round"></path><path d="M 114.162,129.996 C 118.161,129.996 118.370,129.660 122.152,130.796" stroke-width="6.000" stroke="black" fill="none" stroke-linecap="round"></path><path d="M 122.152,130.796 C 126.360,132.059 126.284,132.558 130.142,134.793" stroke-width="5.929" stroke="black" fill="none" stroke-linecap="round"></path><path d="M 130.142,134.793 C 133.875,136.955 134.220,136.682 137.333,139.589" stroke-width="6.034" stroke="black" fill="none" stroke-linecap="round"></path><path d="M 137.333,139.589 C 140.212,142.277 140.619,142.399 142.127,145.984" stroke-width="6.012" stroke="black" fill="none" stroke-linecap="round"></path><path d="M 142.127,145.984 C 143.815,149.993 143.323,150.345 143.725,154.778" stroke-width="5.932" stroke="black" fill="none" stroke-linecap="round"></path><path d="M 143.725,154.778 C 144.122,159.139 144.533,159.330 143.725,163.571" stroke-width="5.932" stroke="black" fill="none" stroke-linecap="round"></path><path d="M 143.725,163.571 C 142.935,167.723 142.579,167.806 140.529,171.565" stroke-width="5.962" stroke="black" fill="none" stroke-linecap="round"></path><path d="M 140.529,171.565 C 137.785,176.599 137.622,176.598 134.137,181.158" stroke-width="5.530" stroke="black" fill="none" stroke-linecap="round"></path><path d="M 134.137,181.158 C 132.429,183.393 132.140,183.156 130.142,185.155" stroke-width="6.392" stroke="black" fill="none" stroke-linecap="round"></path><path d="M 130.142,185.155 C 124.549,190.751 124.991,191.316 118.956,196.347" stroke-width="4.960" stroke="black" fill="none" stroke-linecap="round"></path><path d="M 118.956,196.347 C 115.402,199.310 115.082,198.976 110.966,201.143" stroke-width="5.528" stroke="black" fill="none" stroke-linecap="round"></path><path d="M 110.966,201.143 C 107.491,202.973 107.340,202.676 103.775,204.341" stroke-width="5.950" stroke="black" fill="none" stroke-linecap="round"></path><path d="M 103.775,204.341 C 101.347,205.474 98.398,207.789 98.981,206.739" stroke-width="6.548" stroke="black" fill="none" stroke-linecap="round"></path><path d="M 98.981,206.739 C 100.396,204.191 102.724,201.151 107.770,197.146" stroke-width="7.380" stroke="black" fill="none" stroke-linecap="round"></path><path d="M 107.770,197.146 C 114.309,191.957 114.894,192.635 122.152,188.353" stroke-width="5.114" stroke="black" fill="none" stroke-linecap="round"></path><path d="M 122.152,188.353 C 130.474,183.442 130.650,183.731 138.931,178.760" stroke-width="4.500" stroke="black" fill="none" stroke-linecap="round"></path><path d="M 138.931,178.760 C 142.635,176.536 142.229,175.796 146.122,173.963" stroke-width="5.477" stroke="black" fill="none" stroke-linecap="round"></path><path d="M 146.122,173.963 C 155.812,169.401 156.073,169.870 166.097,165.969" stroke-width="4.500" stroke="black" fill="none" stroke-linecap="round"></path><path d="M 166.097,165.969 C 170.455,164.274 170.453,164.250 174.886,162.772" stroke-width="5.216" stroke="black" fill="none" stroke-linecap="round"></path><path d="M 174.886,162.772 C 177.644,161.852 177.777,160.965 180.479,161.173" stroke-width="6.176" stroke="black" fill="none" stroke-linecap="round"></path><path d="M 180.479,161.173 C 182.970,161.365 183.867,161.539 185.273,163.571" stroke-width="7.667" stroke="black" fill="none" stroke-linecap="round"></path><path d="M 185.273,163.571 C 187.463,166.735 186.061,167.741 187.670,171.565" stroke-width="7.353" stroke="black" fill="none" stroke-linecap="round"></path><path d="M 187.670,171.565 C 189.257,175.336 188.781,176.318 191.665,178.760" stroke-width="7.306" stroke="black" fill="none" stroke-linecap="round"></path><path d="M 191.665,178.760 C 193.975,180.715 195.082,181.103 198.057,180.359" stroke-width="7.442" stroke="black" fill="none" stroke-linecap="round"></path><path d="M 198.057,180.359 C 203.072,179.104 203.270,178.046 207.645,174.763" stroke-width="6.969" stroke="black" fill="none" stroke-linecap="round"></path><path d="M 207.645,174.763 C 209.662,173.249 209.508,172.933 210.841,170.766" stroke-width="6.933" stroke="black" fill="none" stroke-linecap="round"></path><path d="M 210.841,170.766 C 212.704,167.737 211.825,165.256 214.037,164.370" stroke-width="7.303" stroke="black" fill="none" stroke-linecap="round"></path><path d="M 214.037,164.370 C 215.820,163.657 216.834,165.570 218.832,167.568" stroke-width="8.060" stroke="black" fill="none" stroke-linecap="round"></path><path d="M 218.832,167.568 C 220.829,169.567 220.123,170.247 222.027,172.365" stroke-width="6.992" stroke="black" fill="none" stroke-linecap="round"></path><path d="M 222.027,172.365 C 223.718,174.244 223.900,174.147 226.022,175.562" stroke-width="6.870" stroke="black" fill="none" stroke-linecap="round"></path><path d="M 226.022,175.562 C 228.694,177.344 228.605,177.818 231.615,178.760" stroke-width="6.626" stroke="black" fill="none" stroke-linecap="round"></path><path d="M 231.615,178.760 C 234.997,179.817 235.211,179.559 238.806,179.559" stroke-width="6.404" stroke="black" fill="none" stroke-linecap="round"></path><path d="M 238.806,179.559 C 242.402,179.559 242.512,179.631 245.998,178.760" stroke-width="6.340" stroke="black" fill="none" stroke-linecap="round"></path><path d="M 245.998,178.760 C 250.502,177.633 250.484,177.375 254.787,175.562" stroke-width="5.956" stroke="black" fill="none" stroke-linecap="round"></path><path d="M 254.787,175.562 C 258.075,174.177 258.082,174.135 261.179,172.365" stroke-width="6.288" stroke="black" fill="none" stroke-linecap="round"></path><path d="M 261.179,172.365 C 263.675,170.937 263.754,170.983 265.973,169.167" stroke-width="6.515" stroke="black" fill="none" stroke-linecap="round"></path><path d="M 265.973,169.167 C 268.148,167.386 269.968,164.980 269.968,165.170" stroke-width="7.312" stroke="black" fill="none" stroke-linecap="round"></path><path d="M 269.968,165.170 C 269.968,165.380 266.712,167.190 265.973,169.966" stroke-width="8.031" stroke="black" fill="none" stroke-linecap="round"></path><path d="M 265.973,169.966 C 265.114,173.186 264.774,175.162 266.772,177.161" stroke-width="7.939" stroke="black" fill="none" stroke-linecap="round"></path><path d="M 266.772,177.161 C 268.769,179.159 270.434,178.196 273.963,177.960" stroke-width="7.885" stroke="black" fill="none" stroke-linecap="round"></path><path d="M 273.963,177.960 C 276.427,177.796 276.710,177.727 278.757,176.362" stroke-width="7.197" stroke="black" fill="none" stroke-linecap="round"></path><path d="M 278.757,176.362 C 281.504,174.529 282.740,174.403 283.551,171.565" stroke-width="7.433" stroke="black" fill="none" stroke-linecap="round"></path><path d="M 283.551,171.565 C 284.338,168.807 283.587,167.895 281.953,165.170" stroke-width="7.481" stroke="black" fill="none" stroke-linecap="round"></path><path d="M 281.953,165.170 C 279.991,161.899 279.534,161.868 276.360,159.574" stroke-width="6.490" stroke="black" fill="none" stroke-linecap="round"></path><path d="M 276.360,159.574 C 272.343,156.671 272.004,157.101 267.571,154.778" stroke-width="5.889" stroke="black" fill="none" stroke-linecap="round"></path><path d="M 267.571,154.778 C 263.615,152.704 263.576,152.779 259.581,150.781" stroke-width="5.896" stroke="black" fill="none" stroke-linecap="round"></path><path d="M 259.581,150.781 C 256.385,149.182 256.458,149.014 253.189,147.583" stroke-width="6.268" stroke="black" fill="none" stroke-linecap="round"></path><path d="M 345.074,165.969 C 339.481,164.770 339.504,164.106 333.888,163.571" stroke-width="8.099" stroke="black" fill="none" stroke-linecap="round"></path><path d="M 333.888,163.571 C 331.114,163.307 331.095,163.997 328.295,164.370" stroke-width="7.109" stroke="black" fill="none" stroke-linecap="round"></path><path d="M 328.295,164.370 C 325.102,164.796 325.052,164.540 321.903,165.170" stroke-width="6.691" stroke="black" fill="none" stroke-linecap="round"></path><path d="M 321.903,165.170 C 319.059,165.739 318.601,165.182 316.310,166.769" stroke-width="6.701" stroke="black" fill="none" stroke-linecap="round"></path><path d="M 316.310,166.769 C 313.407,168.779 310.949,170.098 311.516,172.365" stroke-width="7.173" stroke="black" fill="none" stroke-linecap="round"></path><path d="M 311.516,172.365 C 312.148,174.895 314.852,175.590 318.707,176.362" stroke-width="7.538" stroke="black" fill="none" stroke-linecap="round"></path><path d="M 318.707,176.362 C 322.842,177.189 323.183,176.384 327.496,175.562" stroke-width="6.331" stroke="black" fill="none" stroke-linecap="round"></path><path d="M 327.496,175.562 C 331.572,174.785 331.580,174.604 335.486,173.164" stroke-width="6.034" stroke="black" fill="none" stroke-linecap="round"></path><path d="M 335.486,173.164 C 339.170,171.806 339.287,171.904 342.677,169.966" stroke-width="6.325" stroke="black" fill="none" stroke-linecap="round"></path><path d="M 342.677,169.966 C 344.880,168.706 344.285,167.127 346.672,166.769" stroke-width="7.322" stroke="black" fill="none" stroke-linecap="round"></path><path d="M 346.672,166.769 C 352.275,165.928 352.661,167.215 358.657,167.568" stroke-width="7.276" stroke="black" fill="none" stroke-linecap="round"></path><path d="M 358.657,167.568 C 366.244,168.015 366.248,168.367 373.838,168.367" stroke-width="5.303" stroke="black" fill="none" stroke-linecap="round"></path><path d="M 373.838,168.367 C 380.630,168.367 380.659,168.245 387.421,167.568" stroke-width="5.087" stroke="black" fill="none" stroke-linecap="round"></path><path d="M 387.421,167.568 C 392.644,167.046 392.611,166.749 397.808,165.969" stroke-width="5.489" stroke="black" fill="none" stroke-linecap="round"></path><path d="M 397.808,165.969 C 400.601,165.550 403.582,165.894 403.401,165.170" stroke-width="6.254" stroke="black" fill="none" stroke-linecap="round"></path><path d="M 403.401,165.170 C 403.182,164.295 400.365,162.975 397.009,162.772" stroke-width="7.074" stroke="black" fill="none" stroke-linecap="round"></path><path d="M 397.009,162.772 C 387.181,162.176 387.009,162.957 377.034,163.571" stroke-width="4.725" stroke="black" fill="none" stroke-linecap="round"></path><path d="M 377.034,163.571 C 361.041,164.556 361.043,164.638 345.074,165.969" stroke-width="4.500" stroke="black" fill="none" stroke-linecap="round"></path><path d="M 345.074,165.969 C 327.485,167.436 327.484,167.448 309.918,169.167" stroke-width="4.500" stroke="black" fill="none" stroke-linecap="round"></path><path d="M 309.918,169.167 C 290.730,171.045 290.729,171.055 271.566,173.164" stroke-width="4.500" stroke="black" fill="none" stroke-linecap="round"></path><path d="M 271.566,173.164 C 250.779,175.452 250.786,175.516 230.017,177.960" stroke-width="4.500" stroke="black" fill="none" stroke-linecap="round"></path><path d="M 230.017,177.960 C 210.037,180.312 210.001,180.056 190.067,182.757" stroke-width="4.500" stroke="black" fill="none" stroke-linecap="round"></path><path d="M 190.067,182.757 C 171.649,185.252 171.647,185.295 153.313,188.353" stroke-width="4.500" stroke="black" fill="none" stroke-linecap="round"></path><path d="M 153.313,188.353 C 138.089,190.891 138.113,191.048 122.951,193.948" stroke-width="4.500" stroke="black" fill="none" stroke-linecap="round"></path><path d="M 122.951,193.948 C 110.947,196.245 110.869,195.946 98.981,198.745" stroke-width="4.500" stroke="black" fill="none" stroke-linecap="round"></path><path d="M 98.981,198.745 C 90.495,200.743 90.551,201.010 82.202,203.541" stroke-width="4.500" stroke="black" fill="none" stroke-linecap="round"></path><path d="M 82.202,203.541 C 77.367,205.007 76.164,203.949 72.614,206.739" stroke-width="5.010" stroke="black" fill="none" stroke-linecap="round"></path><path d="M 72.614,206.739 C 70.571,208.345 69.004,211.472 71.016,212.335" stroke-width="6.624" stroke="black" fill="none" stroke-linecap="round"></path><path d="M 71.016,212.335 C 77.394,215.069 80.205,214.095 89.393,213.934" stroke-width="6.095" stroke="black" fill="none" stroke-linecap="round"></path><path d="M 89.393,213.934 C 102.977,213.695 103.109,213.643 116.559,211.535" stroke-width="4.500" stroke="black" fill="none" stroke-linecap="round"></path><path d="M 116.559,211.535 C 136.267,208.447 136.293,208.196 155.710,203.541" stroke-width="4.500" stroke="black" fill="none" stroke-linecap="round"></path><path d="M 155.710,203.541 C 174.645,199.003 174.590,198.692 193.263,193.149" stroke-width="4.500" stroke="black" fill="none" stroke-linecap="round"></path><path d="M 193.263,193.149 C 210.945,187.900 211.039,188.107 228.419,181.957" stroke-width="4.500" stroke="black" fill="none" stroke-linecap="round"></path><path d="M 228.419,181.957 C 243.798,176.516 244.050,176.902 258.782,169.966" stroke-width="4.500" stroke="black" fill="none" stroke-linecap="round"></path><path d="M 258.782,169.966 C 271.216,164.112 271.030,163.594 282.752,156.376" stroke-width="4.500" stroke="black" fill="none" stroke-linecap="round"></path><path d="M 282.752,156.376 C 291.804,150.803 292.440,151.351 300.330,144.385" stroke-width="4.500" stroke="black" fill="none" stroke-linecap="round"></path><path d="M 300.330,144.385 C 306.023,139.360 305.867,138.830 309.918,132.394" stroke-width="4.500" stroke="black" fill="none" stroke-linecap="round"></path><path d="M 309.918,132.394 C 312.659,128.038 312.926,127.735 313.913,122.802" stroke-width="5.153" stroke="black" fill="none" stroke-linecap="round"></path><path d="M 313.913,122.802 C 314.524,119.741 315.346,117.662 313.114,116.406" stroke-width="6.043" stroke="black" fill="none" stroke-linecap="round"></path><path d="M 313.114,116.406 C 308.954,114.065 307.037,114.903 301.129,115.607" stroke-width="6.489" stroke="black" fill="none" stroke-linecap="round"></path><path d="M 301.129,115.607 C 290.258,116.902 290.178,117.427 279.556,120.403" stroke-width="4.500" stroke="black" fill="none" stroke-linecap="round"></path><path d="M 279.556,120.403 C 270.203,123.023 270.045,122.879 261.179,126.798" stroke-width="4.500" stroke="black" fill="none" stroke-linecap="round"></path><path d="M 261.179,126.798 C 252.867,130.473 252.992,130.872 245.199,135.592" stroke-width="4.500" stroke="black" fill="none" stroke-linecap="round"></path><path d="M 245.199,135.592 C 237.811,140.065 237.157,139.455 230.816,145.185" stroke-width="4.500" stroke="black" fill="none" stroke-linecap="round"></path><path d="M 230.816,145.185 C 224.773,150.646 224.976,151.152 220.429,157.975" stroke-width="4.523" stroke="black" fill="none" stroke-linecap="round"></path><path d="M 220.429,157.975 C 216.187,164.342 216.182,164.497 213.238,171.565" stroke-width="4.750" stroke="black" fill="none" stroke-linecap="round"></path><path d="M 213.238,171.565 C 210.189,178.887 210.468,179.061 208.444,186.754" stroke-width="4.579" stroke="black" fill="none" stroke-linecap="round"></path><path d="M 208.444,186.754 C 206.473,194.250 206.313,194.277 205.248,201.942" stroke-width="4.666" stroke="black" fill="none" stroke-linecap="round"></path><path d="M 205.248,201.942 C 204.315,208.666 204.887,208.740 204.449,215.532" stroke-width="4.978" stroke="black" fill="none" stroke-linecap="round"></path><path d="M 204.449,215.532 C 204.088,221.131 203.894,221.123 203.650,226.724" stroke-width="5.192" stroke="black" fill="none" stroke-linecap="round"></path><path d="M 203.650,226.724 C 203.494,230.316 203.650,230.321 203.650,233.919" stroke-width="6.001" stroke="black" fill="none" stroke-linecap="round"></path><path d="M 203.650,233.919 C 203.650,237.916 202.933,238.085 203.650,241.913" stroke-width="6.847" stroke="black" fill="none" stroke-linecap="round"></path></svg>