<svg xmlns="http://www.w3.org/2000/svg" xmlns:xlink="http://www.w3.org/1999/xlink" viewBox="0 0 576 416" width="576" height="416"><path d="M 71.815,301.068 C 73.413,293.874 72.777,293.684 75.011,286.679" stroke-width="7.829" stroke="black" fill="none" stroke-linecap="round"></path><path d="M 75.011,286.679 C 78.769,274.898 78.986,274.913 83.800,263.496" stroke-width="4.500" stroke="black" fill="none" stroke-linecap="round"></path><path d="M 83.800,263.496 C 89.773,249.332 90.326,249.567 96.584,235.517" stroke-width="4.500" stroke="black" fill="none" stroke-linecap="round"></path><path d="M 96.584,235.517 C 106.706,212.794 107.120,212.955 116.559,189.951" stroke-width="4.500" stroke="black" fill="none" stroke-linecap="round"></path><path d="M 116.559,189.951 C 122.701,174.984 122.505,174.883 127.745,159.574" stroke-width="4.500" stroke="black" fill="none" stroke-linecap="round"></path><path d="M 127.745,159.574 C 132.493,145.705 132.364,145.650 136.534,131.595" stroke-width="4.500" stroke="black" fill="none" stroke-linecap="round"></path><path d="M 136.534,131.595 C 139.954,120.070 139.845,120.034 142.926,108.412" stroke-width="4.500" stroke="black" fill="none" stroke-linecap="round"></path><path d="M 142.926,108.412 C 145.038,100.448 144.800,100.384 146.921,92.424" stroke-width="4.500" stroke="black" fill="none" stroke-linecap="round"></path><path d="M 146.921,92.424 C 147.996,88.393 150.055,83.546 149.318,84.430" stroke-width="5.356" stroke="black" fill="none" stroke-linecap="round"></path><path d="M 149.318,84.430 C 148.057,85.944 146.009,90.771 142.926,97.221" stroke-width="6.427" stroke="black" fill="none" stroke-linecap="round"></path><path d="M 142.926,97.221 C 137.220,109.157 137.040,109.083 131.740,121.203" stroke-width="4.500" stroke="black" fill="none" stroke-linecap="round"></path><path d="M 131.740,121.203 C 125.854,134.664 126.045,134.751 120.554,148.382" stroke-width="4.500" stroke="black" fill="none" stroke-linecap="round"></path><path d="M 120.554,148.382 C 115.258,161.531 115.025,161.451 110.167,174.763" stroke-width="4.500" stroke="black" fill="none" stroke-linecap="round"></path><path d="M 110.167,174.763 C 105.836,186.632 105.532,186.579 102.177,198.745" stroke-width="4.500" stroke="black" fill="none" stroke-linecap="round"></path><path d="M 102.177,198.745 C 99.140,209.762 99.087,209.835 97.383,221.128" stroke-width="4.500" stroke="black" fill="none" stroke-linecap="round"></path><path d="M 97.383,221.128 C 95.891,231.019 96.261,231.108 95.785,241.113" stroke-width="4.500" stroke="black" fill="none" stroke-linecap="round"></path><path d="M 95.785,241.113 C 95.462,247.895 95.525,247.923 95.785,254.703" stroke-width="4.655" stroke="black" fill="none" stroke-linecap="round"></path><path d="M 95.785,254.703 C 95.924,258.315 94.789,260.102 96.584,261.898" stroke-width="5.703" stroke="black" fill="none" stroke-linecap="round"></path><path d="M 96.584,261.898 C 97.985,263.299 100.074,262.760 102.177,261.098" stroke-width="6.978" stroke="black" fill="none" stroke-linecap="round"></path><path d="M 102.177,261.098 C 107.664,256.764 107.181,255.672 111.765,249.907" stroke-width="5.314" stroke="black" fill="none" stroke-linecap="round"></path><path d="M 111.765,249.907 C 121.164,238.086 121.556,238.334 130.142,225.924" stroke-width="4.500" stroke="black" fill="none" stroke-linecap="round"></path><path d="M 130.142,225.924 C 139.533,212.353 139.086,212.030 147.720,197.945" stroke-width="4.500" stroke="black" fill="none" stroke-linecap="round"></path><path d="M 147.720,197.945 C 157.463,182.052 157.922,182.294 166.896,165.969" stroke-width="4.500" stroke="black" fill="none" stroke-linecap="round"></path><path d="M 166.896,165.969 C 175.500,150.318 174.802,149.938 182.876,133.993" stroke-width="4.500" stroke="black" fill="none" stroke-linecap="round"></path><path d="M 182.876,133.993 C 189.983,119.961 190.227,120.083 197.258,106.014" stroke-width="4.500" stroke="black" fill="none" stroke-linecap="round"></path><path d="M 197.258,106.014 C 203.011,94.502 202.692,94.342 208.444,82.831" stroke-width="4.500" stroke="black" fill="none" stroke-linecap="round"></path><path d="M 208.444,82.831 C 211.881,75.956 211.771,75.870 215.635,69.241" stroke-width="4.500" stroke="black" fill="none" stroke-linecap="round"></path><path d="M 215.635,69.241 C 217.364,66.277 219.914,62.653 219.630,63.646" stroke-width="5.554" stroke="black" fill="none" stroke-linecap="round"></path><path d="M 219.630,63.646 C 219.115,65.451 216.980,69.318 214.037,74.837" stroke-width="6.234" stroke="black" fill="none" stroke-linecap="round"></path><path d="M 214.037,74.837 C 207.392,87.304 207.570,87.415 200.454,99.619" stroke-width="4.500" stroke="black" fill="none" stroke-linecap="round"></path><path d="M 200.454,99.619 C 190.791,116.194 190.224,115.863 180.479,132.394" stroke-width="4.500" stroke="black" fill="none" stroke-linecap="round"></path><path d="M 180.479,132.394 C 171.846,147.040 171.648,146.952 163.700,161.972" stroke-width="4.500" stroke="black" fill="none" stroke-linecap="round"></path><path d="M 163.700,161.972 C 157.266,174.131 157.212,174.151 151.715,186.754" stroke-width="4.500" stroke="black" fill="none" stroke-linecap="round"></path><path d="M 151.715,186.754 C 147.624,196.134 147.099,196.103 144.524,205.939" stroke-width="4.500" stroke="black" fill="none" stroke-linecap="round"></path><path d="M 144.524,205.939 C 142.705,212.890 142.207,213.376 142.926,220.329" stroke-width="4.500" stroke="black" fill="none" stroke-linecap="round"></path><path d="M 142.926,220.329 C 143.406,224.967 143.715,226.602 146.921,229.122" stroke-width="5.297" stroke="black" fill="none" stroke-linecap="round"></path><path d="M 146.921,229.122 C 149.308,230.999 151.284,230.973 154.112,229.122" stroke-width="5.977" stroke="black" fill="none" stroke-linecap="round"></path><path d="M 154.112,229.122 C 161.671,224.178 161.492,222.834 167.695,215.532" stroke-width="5.816" stroke="black" fill="none" stroke-linecap="round"></path><path d="M 167.695,215.532 C 175.075,206.846 175.049,206.703 181.278,197.146" stroke-width="4.500" stroke="black" fill="none" stroke-linecap="round"></path><path d="M 181.278,197.146 C 187.034,188.317 186.429,187.928 191.665,178.760" stroke-width="4.500" stroke="black" fill="none" stroke-linecap="round"></path><path d="M 191.665,178.760 C 196.017,171.141 196.155,171.218 200.454,163.571" stroke-width="4.500" stroke="black" fill="none" stroke-linecap="round"></path><path d="M 200.454,163.571 C 203.346,158.428 203.300,158.401 206.047,153.179" stroke-width="4.990" stroke="black" fill="none" stroke-linecap="round"></path><path d="M 206.047,153.179 C 207.296,150.806 208.795,148.207 208.444,148.382" stroke-width="6.156" stroke="black" fill="none" stroke-linecap="round"></path><path d="M 208.444,148.382 C 207.996,148.607 206.249,151.053 204.449,153.978" stroke-width="7.031" stroke="black" fill="none" stroke-linecap="round"></path><path d="M 204.449,153.978 C 199.857,161.445 200.289,161.718 195.660,169.167" stroke-width="4.982" stroke="black" fill="none" stroke-linecap="round"></path><path d="M 195.660,169.167 C 191.100,176.507 190.584,176.192 186.072,183.556" stroke-width="4.606" stroke="black" fill="none" stroke-linecap="round"></path><path d="M 186.072,183.556 C 182.993,188.583 182.693,188.535 180.479,193.948" stroke-width="4.993" stroke="black" fill="none" stroke-linecap="round"></path><path d="M 180.479,193.948 C 179.097,197.329 177.765,198.686 178.881,201.143" stroke-width="5.893" stroke="black" fill="none" stroke-linecap="round"></path><path d="M 178.881,201.143 C 179.763,203.082 181.796,203.215 184.474,202.742" stroke-width="7.042" stroke="black" fill="none" stroke-linecap="round"></path><path d="M 184.474,202.742 C 188.588,202.016 188.771,201.208 192.464,198.745" stroke-width="6.201" stroke="black" fill="none" stroke-linecap="round"></path><path d="M 192.464,198.745 C 197.160,195.613 197.149,195.451 201.253,191.550" stroke-width="5.614" stroke="black" fill="none" stroke-linecap="round"></path><path d="M 201.253,191.550 C 205.139,187.857 205.007,187.683 208.444,183.556" stroke-width="5.543" stroke="black" fill="none" stroke-linecap="round"></path><path d="M 208.444,183.556 C 211.000,180.488 210.803,180.329 213.238,177.161" stroke-width="5.936" stroke="black" fill="none" stroke-linecap="round"></path><path d="M 213.238,177.161 C 214.798,175.133 216.434,172.810 216.434,173.164" stroke-width="6.591" stroke="black" fill="none" stroke-linecap="round"></path><path d="M 216.434,173.164 C 216.434,173.609 214.596,175.849 213.238,178.760" stroke-width="7.653" stroke="black" fill="none" stroke-linecap="round"></path><path d="M 213.238,178.760 C 211.800,181.845 211.716,181.874 210.841,185.155" stroke-width="6.746" stroke="black" fill="none" stroke-linecap="round"></path><path d="M 210.841,185.155 C 210.118,187.870 208.567,188.980 210.042,190.751" stroke-width="6.752" stroke="black" fill="none" stroke-linecap="round"></path><path d="M 210.042,190.751 C 212.562,193.776 214.224,194.599 218.832,194.748" stroke-width="6.930" stroke="black" fill="none" stroke-linecap="round"></path><path d="M 218.832,194.748 C 226.608,194.999 226.999,193.783 234.811,191.550" stroke-width="5.112" stroke="black" fill="none" stroke-linecap="round"></path><path d="M 234.811,191.550 C 243.778,188.987 243.837,188.885 252.390,185.155" stroke-width="4.504" stroke="black" fill="none" stroke-linecap="round"></path><path d="M 252.390,185.155 C 259.417,182.090 259.497,182.039 265.973,177.960" stroke-width="4.657" stroke="black" fill="none" stroke-linecap="round"></path><path d="M 265.973,177.960 C 270.284,175.244 269.992,174.793 273.963,171.565" stroke-width="5.291" stroke="black" fill="none" stroke-linecap="round"></path><path d="M 273.963,171.565 C 276.384,169.597 278.757,167.376 278.757,167.568" stroke-width="6.133" stroke="black" fill="none" stroke-linecap="round"></path><path d="M 278.757,167.568 C 278.757,167.776 276.530,170.163 273.963,172.365" stroke-width="7.548" stroke="black" fill="none" stroke-linecap="round"></path><path d="M 273.963,172.365 C 270.937,174.959 270.688,174.665 267.571,177.161" stroke-width="6.395" stroke="black" fill="none" stroke-linecap="round"></path><path d="M 267.571,177.161 C 264.696,179.462 264.573,179.361 261.978,181.957" stroke-width="6.313" stroke="black" fill="none" stroke-linecap="round"></path><path d="M 261.978,181.957 C 259.779,184.157 257.561,185.489 257.983,186.754" stroke-width="7.119" stroke="black" fill="none" stroke-linecap="round"></path><path d="M 257.983,186.754 C 258.360,187.887 260.798,187.018 263.576,186.754" stroke-width="7.490" stroke="black" fill="none" stroke-linecap="round"></path><path d="M 263.576,186.754 C 269.187,186.219 269.166,185.933 274.762,185.155" stroke-width="5.788" stroke="black" fill="none" stroke-linecap="round"></path><path d="M 274.762,185.155 C 283.548,183.934 283.567,184.064 292.340,182.757" stroke-width="4.744" stroke="black" fill="none" stroke-linecap="round"></path><path d="M 292.340,182.757 C 302.343,181.266 302.306,181.016 312.315,179.559" stroke-width="4.500" stroke="black" fill="none" stroke-linecap="round"></path><path d="M 312.315,179.559 C 324.279,177.818 324.266,177.656 336.285,176.362" stroke-width="4.500" stroke="black" fill="none" stroke-linecap="round"></path><path d="M 336.285,176.362 C 350.234,174.859 350.300,175.472 364.250,173.963" stroke-width="4.500" stroke="black" fill="none" stroke-linecap="round"></path><path d="M 364.250,173.963 C 379.863,172.275 379.841,172.043 395.411,169.966" stroke-width="4.500" stroke="black" fill="none" stroke-linecap="round"></path><path d="M 395.411,169.966 C 409.803,168.046 409.828,168.193 424.175,165.969" stroke-width="4.500" stroke="black" fill="none" stroke-linecap="round"></path><path d="M 424.175,165.969 C 438.192,163.796 438.311,164.247 452.140,161.173" stroke-width="4.500" stroke="black" fill="none" stroke-linecap="round"></path><path d="M 452.140,161.173 C 463.480,158.652 463.344,158.037 474.512,154.778" stroke-width="4.500" stroke="black" fill="none" stroke-linecap="round"></path><path d="M 474.512,154.778 C 482.520,152.441 482.448,152.176 490.492,149.981" stroke-width="4.500" stroke="black" fill="none" stroke-linecap="round"></path><path d="M 490.492,149.981 C 495.631,148.579 495.730,148.939 500.879,147.583" stroke-width="5.065" stroke="black" fill="none" stroke-linecap="round"></path><path d="M 500.879,147.583 C 503.320,146.940 506.938,145.692 505.673,145.984" stroke-width="6.245" stroke="black" fill="none" stroke-linecap="round"></path><path d="M 505.673,145.984 C 501.744,146.891 498.037,147.824 490.492,149.981" stroke-width="7.134" stroke="black" fill="none" stroke-linecap="round"></path><path d="M 490.492,149.981 C 481.258,152.621 481.378,153.049 472.115,155.577" stroke-width="4.814" stroke="black" fill="none" stroke-linecap="round"></path><path d="M 472.115,155.577 C 459.406,159.045 459.399,159.075 446.547,161.972" stroke-width="4.500" stroke="black" fill="none" stroke-linecap="round"></path><path d="M 446.547,161.972 C 431.035,165.470 430.996,165.320 415.386,168.367" stroke-width="4.500" stroke="black" fill="none" stroke-linecap="round"></path><path d="M 415.386,168.367 C 398.237,171.715 398.111,171.114 381.029,174.763" stroke-width="4.500" stroke="black" fill="none" stroke-linecap="round"></path><path d="M 381.029,174.763 C 362.556,178.708 362.580,178.880 344.275,183.556" stroke-width="4.500" stroke="black" fill="none" stroke-linecap="round"></path><path d="M 344.275,183.556 C 325.027,188.473 325.016,188.463 305.923,193.948" stroke-width="4.500" stroke="black" fill="none" stroke-linecap="round"></path><path d="M 305.923,193.948 C 284.666,200.055 284.980,201.238 263.576,206.739" stroke-width="4.500" stroke="black" fill="none" stroke-linecap="round"></path><path d="M 263.576,206.739 C 241.434,212.429 241.258,211.806 218.832,216.332" stroke-width="4.500" stroke="black" fill="none" stroke-linecap="round"></path><path d="M 218.832,216.332 C 193.718,221.399 193.698,221.321 168.494,225.924" stroke-width="4.500" stroke="black" fill="none" stroke-linecap="round"></path><path d="M 168.494,225.924 C 143.361,230.515 143.238,229.868 118.157,234.718" stroke-width="4.500" stroke="black" fill="none" stroke-linecap="round"></path><path d="M 118.157,234.718 C 95.697,239.061 95.609,238.814 73.413,244.311" stroke-width="4.500" stroke="black" fill="none" stroke-linecap="round"></path><path d="M 73.413,244.311 C 55.260,248.807 55.340,249.198 37.458,254.703" stroke-width="4.500" stroke="black" fill="none" stroke-linecap="round"></path><path d="M 37.458,254.703 C 24.179,258.791 24.403,259.550 11.091,263.496" stroke-width="4.500" stroke="black" fill="none" stroke-linecap="round"></path><path d="M 11.091,263.496 C 2.830,265.945 2.763,265.857 -5.688,267.494" stroke-width="4.500" stroke="black" fill="none" stroke-linecap="round"></path><path d="M -5.688,267.494 C -9.622,268.255 -12.410,269.773 -13.678,268.293" stroke-width="5.317" stroke="black" fill="none" stroke-linecap="round"></path><path d="M -13.678,268.293 C -14.807,266.975 -12.999,264.284 -10.482,261.898" stroke-width="6.620" stroke="black" fill="none" stroke-linecap="round"></path><path d="M -10.482,261.898 C -5.409,257.089 -4.775,257.409 1.503,253.904" stroke-width="5.291" stroke="black" fill="none" stroke-linecap="round"></path><path d="M 1.503,253.904 C 12.404,247.817 12.396,247.634 23.875,242.712" stroke-width="4.500" stroke="black" fill="none" stroke-linecap="round"></path><path d="M 23.875,242.712 C 37.565,236.842 37.748,237.200 51.840,232.320" stroke-width="4.500" stroke="black" fill="none" stroke-linecap="round"></path><path d="M 51.840,232.320 C 68.909,226.408 68.842,226.116 86.197,221.128" stroke-width="4.500" stroke="black" fill="none" stroke-linecap="round"></path><path d="M 86.197,221.128 C 106.395,215.324 106.537,215.792 126.946,210.736" stroke-width="4.500" stroke="black" fill="none" stroke-linecap="round"></path><path d="M 126.946,210.736 C 148.485,205.400 148.387,204.915 170.092,200.344" stroke-width="4.500" stroke="black" fill="none" stroke-linecap="round"></path><path d="M 170.092,200.344 C 193.930,195.323 194.028,195.753 218.032,191.550" stroke-width="4.500" stroke="black" fill="none" stroke-linecap="round"></path><path d="M 218.032,191.550 C 241.969,187.359 241.952,187.222 265.973,183.556" stroke-width="4.500" stroke="black" fill="none" stroke-linecap="round"></path><path d="M 265.973,183.556 C 289.093,180.027 289.154,180.432 312.315,177.161" stroke-width="4.500" stroke="black" fill="none" stroke-linecap="round"></path><path d="M 312.315,177.161 C 323.112,175.636 323.113,175.638 333.888,173.963" stroke-width="4.500" stroke="black" fill="none" stroke-linecap="round"></path><path d="M 333.888,173.963 C 364.261,169.243 364.258,169.219 394.612,164.370" stroke-width="4.500" stroke="black" fill="none" stroke-linecap="round"></path><path d="M 394.612,164.370 C 411.799,161.625 411.790,161.573 428.969,158.775" stroke-width="4.500" stroke="black" fill="none" stroke-linecap="round"></path></svg>