<svg version="1.0" xmlns="http://www.w3.org/2000/svg"
 width="600.000000pt" height="263.000000pt" viewBox="0 0 600.000000 263.000000"
 preserveAspectRatio="xMidYMid meet">
<g transform="translate(0.000000,263.000000) scale(0.100000,-0.100000)"
fill="#000000" stroke="none">
<path d="M2033 803 c-56 -31 -93 -99 -93 -170 0 -26 8 -42 31 -64 30 -28 35
-29 130 -29 54 0 99 3 99 8 0 4 9 13 19 19 16 10 23 8 42 -8 18 -15 37 -19
105 -19 46 0 85 4 88 9 4 5 18 5 35 -2 23 -8 36 -8 54 2 18 10 30 10 45 2 26
-14 199 -15 207 -1 4 6 10 8 15 5 5 -3 14 1 22 8 26 26 46 26 75 1 25 -21 38
-24 109 -24 73 0 83 2 104 25 23 24 23 24 40 5 9 -11 20 -17 24 -13 3 3 6 1 6
-5 0 -21 145 -15 189 8 38 19 39 19 56 0 25 -28 54 -25 90 9 26 25 40 30 98
33 63 4 72 0 68 -24 -2 -17 17 -7 25 13 9 19 19 21 94 23 80 1 85 2 88 24 3
21 0 22 -62 22 -72 0 -92 16 -80 64 12 49 41 63 147 69 l97 5 -3 -26 -4 -27
-79 3 c-63 3 -83 1 -93 -12 -21 -25 -4 -35 59 -34 87 1 109 -26 75 -91 -19
-38 -60 -51 -162 -51 -54 0 -82 -4 -78 -10 3 -6 47 -10 97 -10 75 0 97 4 125
21 43 27 67 82 53 122 -8 24 -6 34 10 54 25 32 25 45 2 66 -26 23 -170 24
-214 1 -29 -15 -34 -15 -60 0 -22 13 -50 17 -121 15 -50 -1 -97 -6 -104 -11
-7 -6 -19 -6 -32 1 -54 29 -88 6 -117 -81 -8 -24 -17 -51 -20 -60 -3 -10 -15
-20 -26 -23 -24 -8 -51 13 -43 34 4 9 8 23 10 31 2 8 6 28 10 43 13 49 -49 89
-83 55 -9 -9 -15 -9 -24 0 -19 19 -172 16 -211 -4 -18 -9 -35 -21 -38 -26 -9
-14 -18 -11 -39 14 -16 21 -28 23 -115 27 -66 2 -105 -1 -121 -10 -19 -10 -27
-10 -36 -1 -18 18 -63 14 -80 -5 -14 -17 -40 -75 -44 -98 -1 -5 -7 -22 -13
-37 -9 -25 -16 -28 -53 -28 -65 0 -70 6 -56 73 11 50 7 80 -7 65 -3 -2 -15
-37 -27 -77 -26 -87 -22 -91 65 -83 60 5 60 5 54 -19 -4 -13 -7 -28 -7 -32 0
-9 -162 -3 -179 7 -17 11 -13 62 11 142 21 69 24 73 58 79 33 7 34 8 12 18
-16 7 -30 7 -49 -2 -18 -8 -29 -9 -37 -1 -5 5 -52 10 -106 10 -72 0 -103 -4
-127 -17z m237 -7 c0 -3 -4 -16 -10 -31 -10 -25 -11 -26 -94 -23 -97 3 -119
-9 -131 -69 -8 -46 2 -55 64 -57 51 -1 52 -1 61 35 8 30 16 38 40 41 17 3 32
3 33 1 2 -1 -6 -32 -17 -68 l-21 -65 -85 0 c-136 0 -160 24 -129 127 27 87 50
101 170 106 52 1 100 4 107 5 6 1 12 0 12 -2z m310 -114 c-38 -115 -39 -117
-71 -120 -25 -3 -31 0 -26 12 4 9 18 55 33 103 34 114 37 118 72 120 l30 2
-38 -117z m298 90 c31 -39 -9 -162 -60 -188 -30 -16 -228 -31 -228 -17 0 3 10
37 22 74 19 60 24 68 51 72 28 4 29 3 22 -27 -20 -87 -24 -79 40 -72 31 3 63
10 71 17 19 16 40 87 28 99 -5 5 -45 10 -89 11 -44 1 -83 3 -87 6 -4 2 -3 14
3 26 9 21 15 22 112 19 81 -3 105 -7 115 -20z m290 1 c-10 -27 -12 -28 -83
-25 -57 3 -76 0 -89 -13 -31 -31 -19 -37 64 -33 81 3 85 2 74 -26 -5 -13 -23
-16 -90 -16 -65 0 -84 -3 -84 -14 0 -27 27 -36 94 -32 56 3 66 1 62 -11 -3 -8
-6 -21 -6 -29 0 -11 -17 -14 -77 -14 -95 0 -127 14 -131 56 -4 36 32 136 55
156 9 7 53 15 102 19 47 3 93 6 103 7 14 2 15 -2 6 -25z m102 18 c0 -4 -9 -34
-20 -67 -12 -32 -19 -70 -18 -84 3 -22 8 -25 43 -27 60 -4 81 16 109 104 24
78 24 78 61 81 29 3 35 0 29 -10 -5 -7 -22 -51 -39 -97 -21 -59 -38 -90 -57
-104 -51 -38 -196 -32 -212 9 -6 16 17 117 38 169 9 22 21 31 40 33 14 1 26
-2 26 -7z m434 -1 c21 -8 26 -16 26 -46 0 -44 -25 -88 -57 -103 -13 -6 -55
-11 -93 -11 l-69 0 -3 -32 c-3 -29 -7 -33 -36 -36 -29 -3 -33 -1 -29 15 38
131 39 133 74 133 25 0 31 -4 27 -15 -5 -12 4 -15 50 -15 46 0 57 4 66 21 22
40 8 48 -79 42 -75 -5 -81 -5 -81 14 0 10 5 24 12 31 15 15 156 16 192 2z
m-1559 -91 c5 -30 -24 -54 -62 -50 -18 2 -16 31 4 53 20 22 55 20 58 -3z m634
12 c31 -20 -18 -78 -54 -65 -12 5 -15 14 -10 33 10 38 35 50 64 32z"/>
<path d="M5721 280 c-28 -27 -51 -53 -51 -58 0 -18 42 -62 52 -56 6 4 8 2 4
-4 -7 -11 39 -52 59 -52 13 0 105 96 105 109 0 14 -89 105 -104 107 -8 1 -38
-20 -65 -46z m69 21 c0 -19 52 -71 71 -71 29 0 23 -13 -14 -30 -18 -8 -39 -29
-47 -47 -17 -36 -30 -43 -30 -15 0 22 -35 57 -70 70 -24 9 -24 10 -5 17 28 11
75 56 75 72 0 7 5 13 10 13 6 0 10 -4 10 -9z"/>
</g>
</svg>
