<?xml version="1.0" encoding="utf-8"?>
<!-- Generator: Adobe Illustrator 22.0.1, SVG Export Plug-In . SVG Version: 6.00 Build 0)  -->
<svg class="salamat-logo" version="1.1" xmlns="http://www.w3.org/2000/svg" xmlns:xlink="http://www.w3.org/1999/xlink" x="0px" y="0px"
	 viewBox="0 0 1227.5 537.9" style="enable-background:new 0 0 1227.5 537.9;" xml:space="preserve">
<g>
	<g>
		<path class="logo-letter" d="M162.9,415.5c-7-3-20.6-11-29.3-20c-9.3-9.5-14.7-18.8-17.5-26.6c-2.2-6.2-3.6-15.7-3.6-22.9
			c0-6.1,1-11.9,2.9-17.3c2-5.4,4.7-10.1,8.3-14.1c3.6-4,7.7-7.1,12.4-9.4c4.7-2.2,9.7-3.3,15-3.3c6.6,0,12.1,1.6,16.5,4.9
			c3,2.2,5.2,4.9,6.7,8.3c1.1,2.5-0.6,5.2-3.3,5.5c-7.5,0.7-13.6,3.3-18.3,7.6c-2.7,2.5-4.9,5.5-6.4,9c-1.5,3.6-2.3,7.5-2.3,11.8
			c0,8.2-0.4,23.7,22.4,42c15.9,12.7,36,14.7,44.1,14.7c4.8,0,9.3-0.9,13.5-2.7c4.2-1.8,7.8-4.2,10.9-7.3c3.1-3.1,5.5-6.8,7.2-11.1
			c1.7-4.3,2.5-9,2.5-13.9c0-9.1-3.1-18.6-9.3-28.4c-2.5-3.8-5.2-7.6-8.1-11.3c-3-3.7-7.1-8.6-12.4-14.7
			c-4.7-5.5-8.7-10.2-11.9-14.2c-3.2-4-6.1-8.1-8.6-12.3c-6.2-10.1-9.3-20-9.3-29.8c0-7.3,1.5-14,4.6-20.3
			c3.1-6.2,7.5-11.7,13.3-16.3c5.7-4.6,12.4-8.2,20.1-10.8c7.7-2.5,15.9-3.8,24.7-3.8c15,0,27.1,3.6,36.2,10.7
			c4.4,3.5,7.7,7.6,10,12.4c2.3,4.8,3.5,10.2,3.5,16.1c0,7.7-2,14.1-5.9,19c-1.8,2.4-4.1,4.2-6.8,5.5c-2.7,1.3-5.5,1.9-8.5,1.9
			c-3.8,0-7.1-0.8-10.1-2.5c-3.9-2.2-5-7.3-2.2-10.7c1.4-1.7,2.6-3.6,3.6-5.7c2-4.2,3.1-8.8,3.1-13.6c0-6-1.8-10.8-5.3-14.3
			c-3.6-3.5-8.4-5.3-14.6-5.3c-3.7,0-7.2,0.7-10.3,2c-3.1,1.4-5.8,3.3-8,5.9c-2.3,2.6-4,5.6-5.3,9c-1.2,3.5-1.8,7.2-1.8,11.3
			c0,5.8,1.4,11.4,4.1,16.8c2.7,5.4,6.6,11,11.8,16.8c4.6,5.4,9.5,10.7,14.8,16c12.3,12.8,21,25.2,26.1,37.3
			c3,7.2,4.5,15.1,4.5,23.8c0,9.1-1.9,17.6-5.6,25.3c-3.7,7.8-9.1,14.6-16,20.3c-6.9,5.8-15,10.3-24.2,13.5
			c-9.2,3.2-19,4.8-29.5,4.8C202.6,425,180.6,423,162.9,415.5z"/>
		<path class="logo-letter" d="M310.3,411.6c-7.7-7.8-11.5-19.5-11.5-35c0-6.6,0.7-13.5,2-20.8c1.3-7.3,3.3-14.5,5.8-21.6
			c5.8-16,13.8-29,23.9-38.8c11.7-11.2,25.1-16.8,40.3-16.8c7.6,0,13.2,1.3,17,3.9c3.8,2.6,5.7,6,5.7,10.3v2l2-10
			c0.6-2.9,3.1-4.9,6-4.9h27.8c3.9,0,6.8,3.6,6,7.4l-18.5,87.7c-0.8,2.7-1.2,5.7-1.2,9c0,8,3.8,12,11.5,12c5.1,0,9.7-2.6,13.9-7.8
			c3.6-4.4,6.5-10.6,8.7-18.6h11.8c-5,14.2-11.1,25.5-18.2,33.7c-6,6.8-12.8,11.8-20.4,14.8c-5.6,2.2-11.4,3.3-17.6,3.3
			c-7.9,0-14.2-2.2-18.9-6.5c-4.7-4.3-7.5-10.7-8.5-19.2c-5.3,7.5-10.8,13.3-16.7,17.5c-7.5,5.5-15.8,8.2-25,8.2
			C325.5,421.6,316.9,418.3,310.3,411.6z M360.9,392.9c2.3-1.1,4.6-2.6,6.8-4.6c4.9-4.7,8.2-10.9,9.8-18.4l13.4-63.1
			c0-0.9-0.2-2-0.6-3.2c-0.4-1.2-1-2.4-1.7-3.5c-2.2-2.6-5.2-4-9.2-4c-3.7,0-7.4,1.2-10.9,3.7c-3.5,2.5-6.8,5.9-9.9,10.2
			c-5.5,7.9-10,18.3-13.5,31c-1.6,5.6-2.9,11.2-3.7,16.7c-0.8,5.5-1.2,10.5-1.2,15c0,9.3,1.7,15.6,5.2,18.9c1.2,1.3,2.5,2.1,4,2.5
			c1.5,0.4,3.1,0.5,4.9,0.5C356.4,394.5,358.6,394,360.9,392.9z"/>
		<path class="logo-letter" d="M456.2,413.7c-5.8-5.8-8.7-14.3-8.7-25.6c0-5.3,0.7-11.4,2.2-18.3l32.9-153.2c0.7-3.1,3.2-5.5,6.4-5.9
			l27.3-3.7c4.3-0.6,7.9,3.3,6.9,7.5l-34.3,160.7c-0.7,2.4-1.1,5.4-1.1,9c0,3.8,0.9,6.5,2.7,8.1c1.8,1.6,4.7,2.3,8.7,2.3
			c2.7,0,5.4-0.6,8-1.8s5-2.9,7.2-5.1c4.5-4.5,7.8-10.4,10.1-17.8h11.8c-5,14.1-11.3,25.4-18.9,33.7c-6.4,6.8-13.6,11.8-21.6,14.8
			c-5.8,2.2-11.9,3.3-18.3,3.3C468.5,421.6,461.4,419,456.2,413.7z"/>
		<path class="logo-letter" d="M532.2,411.6c-7.7-7.8-11.5-19.5-11.5-35c0-6.6,0.7-13.5,2-20.8c1.3-7.3,3.3-14.5,5.8-21.6
			c5.8-16,13.8-29,23.9-38.8c11.7-11.2,25.1-16.8,40.3-16.8c7.6,0,13.2,1.3,17,3.9c3.8,2.6,5.7,6,5.7,10.3v2l2-10
			c0.6-2.9,3.1-4.9,6-4.9h27.8c3.9,0,6.8,3.6,6,7.4l-18.5,87.7c-0.8,2.7-1.2,5.7-1.2,9c0,8,3.8,12,11.5,12c5.1,0,9.7-2.6,13.9-7.8
			c3.6-4.4,6.5-10.6,8.7-18.6h11.8c-5,14.2-11.1,25.5-18.2,33.7c-6,6.8-12.8,11.8-20.4,14.8c-5.6,2.2-11.4,3.3-17.6,3.3
			c-7.9,0-14.2-2.2-18.9-6.5c-4.7-4.3-7.5-10.7-8.5-19.2c-5.3,7.5-10.8,13.3-16.7,17.5c-7.5,5.5-15.8,8.2-25,8.2
			C547.4,421.6,538.8,418.3,532.2,411.6z M582.8,392.9c2.3-1.1,4.6-2.6,6.8-4.6c4.9-4.7,8.2-10.9,9.8-18.4l13.4-63.1
			c0-0.9-0.2-2-0.6-3.2c-0.4-1.2-1-2.4-1.7-3.5c-2.2-2.6-5.2-4-9.2-4c-3.7,0-7.4,1.2-10.9,3.7c-3.5,2.5-6.8,5.9-9.9,10.2
			c-5.5,7.9-10,18.3-13.5,31c-1.6,5.6-2.9,11.2-3.7,16.7c-0.8,5.5-1.2,10.5-1.2,15c0,9.3,1.7,15.6,5.2,18.9c1.2,1.3,2.5,2.1,4,2.5
			c1.5,0.4,3.1,0.5,4.9,0.5C578.3,394.5,580.5,394,582.8,392.9z"/>
		<path class="logo-letter" d="M816,411.8c-4.8-5.6-7.2-12.9-7.2-21.7c0-4.2,0.5-9.1,1.6-14.6c1-5.6,2.6-12.7,4.7-21.5
			c2.1-8.9,3.7-16.1,4.7-21.4c1-5.3,1.6-10,1.6-13.9c0-9.6-3.4-14.3-10.1-14.3c-4.7,0-9.1,2.5-13.1,7.5c-3.4,4.3-6.3,10.4-8.7,18.3
			l-19,89.8h-40.3l20.5-96.6c0.5-2.2,0.8-4.5,0.8-7c0-3.7-0.6-6.6-1.8-8.6c-1.6-2.5-3.8-3.7-6.7-3.7c-5.3,0-9.9,2.6-13.8,7.7
			c-3.5,4.4-6.4,10.5-8.9,18.4l-19,89.8h-40.3l28.6-135.1c0.6-2.8,3.1-4.8,6-4.8h27.8c3.9,0,6.8,3.6,6,7.4l-1.5,7.1
			c5.5-6.1,11.4-10.4,17.9-13c5.1-1.9,10.5-2.9,16.3-2.9c7.8,0,14.1,1.8,18.7,5.5c5.2,4.1,8.5,10.3,10,18.6
			c6-9.3,12.9-15.8,20.8-19.7c5.6-2.7,11.6-4.1,18.2-4.1c9.4,0,16.8,2.5,22.3,7.4c5.8,5.4,8.7,13.4,8.7,24.2
			c0,6.1-1.1,14.5-3.4,25.3c-0.9,4.5-2,9-3.3,13.5c-2.3,8.7-4.1,16.8-5.6,24.2c-0.7,3.8-1.1,6.9-1.1,9.3c0,3.7,0.8,6.6,2.5,8.7
			c1.7,2,4.6,3.1,8.7,3.1c5.6,0,10.2-2.3,14.1-6.8c2.9-3.5,6.1-9.4,9.4-17.9h11.8c-6.9,20.5-15.7,34.8-26.2,43
			c-7.5,5.8-16.1,8.7-25.8,8.7C830.1,421.6,821.5,418.3,816,411.8z"/>
		<path class="logo-letter" d="M889.8,411.6c-7.7-7.8-11.5-19.5-11.5-35c0-6.6,0.7-13.5,2-20.8c1.3-7.3,3.3-14.5,5.8-21.6
			c5.8-16,13.8-29,23.9-38.8c11.7-11.2,25.1-16.8,40.3-16.8c7.6,0,13.2,1.3,17,3.9c3.8,2.6,5.7,6,5.7,10.3v2l2-10
			c0.6-2.9,3.1-4.9,6-4.9h27.8c3.9,0,6.8,3.6,6,7.4l-18.5,87.7c-0.8,2.7-1.2,5.7-1.2,9c0,8,3.8,12,11.5,12c5.1,0,9.7-2.6,13.9-7.8
			c3.6-4.4,6.5-10.6,8.7-18.6h11.8c-5,14.2-11.1,25.5-18.2,33.7c-6,6.8-12.8,11.8-20.4,14.8c-5.6,2.2-11.4,3.3-17.6,3.3
			c-7.9,0-14.2-2.2-18.9-6.5c-4.7-4.3-7.5-10.7-8.5-19.2c-5.3,7.5-10.8,13.3-16.7,17.5c-7.5,5.5-15.8,8.2-25,8.2
			C904.9,421.6,896.3,418.3,889.8,411.6z M940.4,392.9c2.3-1.1,4.6-2.6,6.8-4.6c4.9-4.7,8.2-10.9,9.8-18.4l13.4-63.1
			c0-0.9-0.2-2-0.6-3.2c-0.4-1.2-1-2.4-1.7-3.5c-2.2-2.6-5.2-4-9.2-4c-3.7,0-7.4,1.2-10.9,3.7c-3.5,2.5-6.8,5.9-9.9,10.2
			c-5.5,7.9-10,18.3-13.5,31c-1.6,5.6-2.9,11.2-3.7,16.7c-0.8,5.5-1.2,10.5-1.2,15c0,9.3,1.7,15.6,5.2,18.9c1.2,1.3,2.5,2.1,4,2.5
			c1.5,0.4,3.1,0.5,4.9,0.5C935.9,394.5,938.1,394,940.4,392.9z"/>
		<path class="logo-letter" d="M1035.7,413.7c-5.8-5.8-8.7-14.3-8.7-25.6c0-5.3,0.7-11.4,2.2-18.3l28.3-129.8c1.1-5.1,5.3-9,10.6-9.7
			l23.1-3.1c4.7-0.6,8.6,3.6,7.6,8.2l-30.3,139.8c-0.7,2.4-1.1,5.4-1.1,9c0,3.8,0.9,6.5,2.7,8.1c1.8,1.6,4.7,2.3,8.7,2.3
			c2.7,0,5.4-0.6,8-1.8s5-2.9,7.2-5.1c3.3-3.3,6.1-7.5,8.2-12.5c1.3-3.2,4.4-5.3,7.8-5.3l0,0c2.9,0,4.8,2.9,3.8,5.6
			c-4.6,11.5-10.2,20.9-16.7,28.2c-6.4,6.8-13.6,11.8-21.6,14.8c-5.8,2.2-11.9,3.3-18.3,3.3C1048,421.6,1040.9,419,1035.7,413.7z"/>
		<g>
			<path class="logo-leaves" d="M1076.7,280.8c12.8,1.4,25.8-4.2,32.4-6.9c2.6-1.1,5.6,0.5,6.1,3.3v0c0.7,4-1.4,8-5.1,9.7
				c-6.2,2.8-16.8,6-31.4,5c-29.8-2-50.2-20.3-59-35.5c-0.8-1.4,0.9-2.9,2.1-1.9C1037,266.7,1054.2,278.3,1076.7,280.8z"/>
			<path class="logo-leaves" d="M1037.2,127.7c-76.1,51.8-35.7,108.1-22.3,123.4c0.6,0.7,1.8,0.1,1.6-0.8c-10.8-52.5,11.3-82.6,11.3-82.6
				c-1.1,2.8-2.1,5.6-3,8.3c-9.5,30.2-5.3,63.5-3.4,74.8c0.1,0.7,1,1,1.6,0.5C1097.1,182.3,1037.2,127.7,1037.2,127.7z"/>
			<path class="logo-leaves" d="M1016.5,141.7c-22.6-24-57-29.4-57-29.4c-36.2,90.8,30.4,129.9,52.5,140c0.4,0.2,0.8-0.3,0.5-0.7
				c-4.9-5.6-14.3-17.5-19.5-33c-9.2-7.7-14.7-20.1-17.5-27.6c-0.9-2.1-1.6-4.3-2.1-6.5c0,0,0.7,2.6,2.1,6.5
				c0.2,0.4,0.3,0.8,0.5,1.2c-8.7-22.1-6.4-45-6.4-45c1.7,35.4,15.8,56.6,21.2,63.6C986.4,190.8,990.1,166.2,1016.5,141.7z"/>
		</g>
	</g>
</g>
</svg>
