<svg version="1.1" xmlns="http://www.w3.org/2000/svg" xmlns:xlink="http://www.w3.org/1999/xlink" width="64px" height="192px" viewBox="0 0 64 192">
<g class="tooth-17">
	<g class="inner">
		<path style="fill:#7A7A7A;" d="M40.809,176.147c-0.301,0-0.64-0.025-1.023-0.074c-5.065-0.656-17.495-5.385-23.581-15.817
			C9.092,148.063,8.042,110.146,8,108.538c-0.021-0.828,0.633-1.517,1.461-1.537c0.854-0.054,1.517,0.633,1.538,1.461
			c0.01,0.386,1.07,38.751,7.796,50.282c5.878,10.077,18.593,14.248,21.71,14.409c0.275-0.998,0.493-3.39,0.494-5.653
			c0-0.66,0.433-1.242,1.064-1.435c0.63-0.193,1.314,0.053,1.683,0.602c1.108,1.654,3.686,4.405,4.921,3.585
			c2.525-1.684,2.098-7.283,1.347-12.54c-0.793-5.55,0.2-9.321,1.16-12.969c0.315-1.199,0.613-2.331,0.854-3.537
			c0.91-4.554,1.489-24.901,0.726-33.319c-0.074-0.825,0.533-1.555,1.358-1.63c0.813-0.072,1.554,0.533,1.63,1.358
			c0.742,8.188,0.273,28.951-0.772,34.179c-0.259,1.294-0.582,2.523-0.896,3.713c-0.924,3.513-1.797,6.831-1.09,11.781
			c1.071,7.503,1.03,13.004-2.653,15.46c-1.065,0.709-3.319,1.472-6.466-1.388c-0.012-0.011-0.022-0.021-0.033-0.03
			c-0.188,1.863-0.563,3.521-1.272,4.23C42.16,175.961,41.624,176.147,40.809,176.147z M40.951,173.141L40.951,173.141
			L40.951,173.141z"/>
	</g>
	<path class="nerve" style="fill:#C92838;" d="M17,111c0,0,2,36,9,46s1-1-1-8s-2-17-1-20s0.575-15.156,2.288-16.078S36,112,39,115
		s5,17,4,21s-2,16-1,18s0,1,1-3s2-10,4-17s1-18,1-20s0-2,0-2S25,113,17,111z"/>
	<g class="screw">
		<polygon style="fill:#7A7A7A;" points="24.061,147 27.061,149 27.061,152 36.061,152 36.061,149 39.061,147 39.061,145 
			24.061,145 		"/>
		<polygon style="fill:#7A7A7A;" points="17.061,121 19.061,121 19.561,125 43.561,125 44.061,121 46.061,121 48.061,118 
			15.061,118 		"/>
		<polygon style="fill:#7A7A7A;" points="13.727,116 49.394,116 50.061,115 48.061,113 45.061,113 43.061,106 40.061,104 
			32.061,104 31.061,104 23.061,104 20.061,106 18.061,113 15.061,113 13.061,115 		"/>
		<polygon style="fill:#7A7A7A;" points="20.061,129 22.061,131 22.061,134 41.061,134 41.061,131 43.061,129 43.311,127 
			19.811,127 		"/>
		<polygon style="fill:#7A7A7A;" points="22.061,138 24.061,140 24.061,143 39.061,143 39.061,140 41.061,138 41.061,136 
			22.061,136 		"/>
		<polygon style="fill:#7A7A7A;" points="27.061,156 29.061,157 29.061,160 31.061,162 32.061,162 34.061,160 34.061,157 
			36.061,156 36.061,154 27.061,154 		"/>
	</g>
	<g class="filler">
		<path style="fill:#EFECB9;" d="M31,71c-14-9-21-3-21-3h3v14c15,4,36,1,36,1V73l1.707-1.3C41,66,31.028,71.018,31,71z"/>
		<path style="fill:#EFECB9;" d="M35,37c12-3,12-5,9-12s-5-7-16-9s-14-1-16,4s0,9,0,9C14,34,23,40,35,37z"/>
	</g>
	<g class="outer">
		<path style="fill:#FFFFFF;" d="M60.893,83.943c-2.355-5.888-5.891-10.034-10.716-12.529C49.369,71.031,48,70.589,48,72
			c0,1.052,0.769,1.897,1.499,2.464c0.427,0.245,0.843,0.502,1.244,0.779c0.024,0.011,0.038,0.018,0.038,0.018
			s0.007,0.009,0.01,0.014c3.178,2.205,5.572,5.425,7.316,9.783c1.983,4.959,1.346,11.706-1.624,17.189
			c-2.322,4.287-5.617,7.051-9.277,7.783c-9.614,1.923-27.282-0.979-27.459-1.009l-0.061-0.009c-2.942-0.368-8.044-1.18-9.444-1.819
			c-1.003-1.002-2.871-7.331-3.773-10.39c-0.791-2.68-1.256-4.232-1.626-4.973c-0.805-1.61-1.711-13.838,2.719-18.269
			c1.471-1.471,2.779-2.515,3.943-3.243c0,0,0-0.003,0-0.003s0.012-0.007,0.033-0.018c0.207-0.129,0.41-0.247,0.608-0.357
			C12.884,69.478,14,68.669,14,68c0-0.792-1.179-1.578-2.941-0.88c-1.699,0.882-3.568,2.267-5.62,4.319
			c-5.667,5.667-4.471,19.352-3.281,21.731c0.27,0.539,0.861,2.542,1.433,4.48c2.336,7.918,3.581,11.361,5.238,12.19
			c2.107,1.054,9.008,1.961,10.455,2.143c0.813,0.135,10.513,1.707,19.574,1.706c3.197,0,6.317-0.195,8.937-0.72
			c4.551-0.91,8.573-4.211,11.327-9.296C62.498,97.44,63.193,89.695,60.893,83.943z"/>
		<path style="fill:#FFFFFF;" d="M50.007,21.965c-0.013-2.424-0.496-11.454-6.793-15.903c-4.437-3.134-10.631-3.228-18.423-0.284
			c-1.562-1.21-5.324-3.482-9.848-1.67c-5.449,2.18-8.779,5.554-9.898,10.029c-0.949,3.795-0.258,9.058-0.068,10.333
			c-0.405,2.155-2.433,15.216,6.794,20.342c5.146,2.859,14.728,5.308,23.025,5.308c6.081,0,11.473-1.315,13.924-4.747
			C54.934,36.673,55.373,28.593,50.007,21.965z M46.279,43.628c-4.291,6.01-24.305,3.42-33.051-1.439
			c-5.931-3.295-5.941-11.321-5.563-15.197c-0.298-1.934,0.013-5.321,0.013-5.321c0,0,0,0,0,0c-0.166-1.981-0.245-4.719,0.277-6.806
			c0.884-3.537,3.535-6.144,8.102-7.971c0.807-0.323,1.584-0.452,2.311-0.452c1.663,0,3.048,0.671,3.952,1.26c0,0,0.003,0,0.003,0
			L25,9l0.413-0.195c-0.006-0.013-0.012-0.028-0.018-0.041c0.165-0.065,0.325-0.12,0.489-0.182l0.054-0.026
			c0,0,0.007,0.003,0.007,0.003C32.691,6.028,37.918,6,41.473,8.505c3.295,2.322,4.631,6.44,5.171,9.601
			c0.524,1.51,0.317,2.728,0.317,2.728l0,0.009c0.059,0.964,0.041,1.576,0.04,1.6c-0.001,0.024,0.01,0.046,0.01,0.069
			c-0.006,0.005-0.014,0.01-0.02,0.015L47,23l0.979,1.287c0.005-0.003,0.01-0.006,0.015-0.01c0.083,0.11,0.153,0.224,0.232,0.335
			l0.174,0.229c0,0,0.007,0.027,0.01,0.036C52.062,30.214,51.365,36.509,46.279,43.628z"/>
	</g>
	<g class="org">
		<path style="fill:#FFFFFF;" d="M11.98,21.595c0.136-0.011,0.215,0.015,0.313,0.112c0.619,0.619,1.146,1.056,1.569,1.406
			c0.942,0.78,1.138,0.943,1.144,1.885c-0.115,0.177-0.856,0.41-1.254,0.536c-0.993,0.313-2.118,0.667-2.638,1.686
			c-0.306,0.599-0.327,1.304-0.063,2.097c0.726,2.177,2.34,4.701,4.694,5.256c1.142,0.27,2.931,0.165,4.962-1.866
			c1.965-1.964,3.54-3.505,4.184-3.45c0.201,0.02,0.586,0.261,1.277,1.297c0.449,0.674,0.796,1.483,1.163,2.339
			c1.012,2.362,2.244,5.237,6.199,5.237c0.499,0,1.043-0.046,1.634-0.145c4.652-0.775,10.063-2.699,11.294-5.774
			c0.35-0.873,0.52-2.242-0.658-3.812c-0.742-0.989-1.412-1.799-2.02-2.456c1.62-0.243,3.233-0.954,4.82-2.144
			c0.442-0.331,0.532-0.958,0.2-1.4c-0.331-0.441-0.958-0.532-1.399-0.2c-2.023,1.517-4.051,2.1-6.021,1.738
			c-2.569-0.473-4.539-2.438-5.531-3.638C39.985,18.442,40,17.374,40,17c0-0.552-0.447-1-1-1c-0.444,0-0.821,0.291-0.951,0.692
			c-0.142,0.174-0.942,0.989-4.42,2.379c-1.229,0.493-2.253,0.512-3.134,0.062c-0.273-0.14-0.532-0.34-0.783-0.57
			c1.568-0.534,3.204-1.454,4.902-2.774c0.436-0.339,0.515-0.968,0.175-1.403c-0.339-0.435-0.966-0.514-1.403-0.176
			c-1.764,1.372-3.414,2.249-4.943,2.648c-0.558-1.044-1.048-2.401-1.473-4.101c-1.015-4.06-2.033-6.119-2.076-6.205
			c-0.247-0.493-0.847-0.693-1.34-0.447c-0.494,0.246-0.695,0.846-0.45,1.34c0.009,0.02,0.97,1.977,1.925,5.797
			c0.295,1.18,0.708,2.562,1.306,3.857c-0.269-0.014-0.534-0.04-0.793-0.09c-2.454-0.472-3.662-2.485-3.676-2.51
			c-0.275-0.477-0.883-0.641-1.362-0.368c-0.479,0.274-0.646,0.885-0.372,1.364c0.065,0.114,1.638,2.806,4.993,3.47
			c0.496,0.098,1.001,0.147,1.517,0.147c0.282,0,0.567-0.019,0.855-0.048c0.575,0.763,1.253,1.421,2.089,1.849
			c0.708,0.362,1.467,0.542,2.272,0.542c0.657,0,1.347-0.127,2.062-0.367c0.319,0.422,0.793,0.996,1.409,1.609
			c-1.631,0.768-3.331,1.111-4.295,1.253c-0.036-0.118-0.068-0.217-0.085-0.268C29.553,19.497,18.114,19,18,19
			c-1.591,0-2.368,1.36-2.75,2.667c-0.038-0.031-0.073-0.062-0.112-0.094c-0.412-0.341-0.878-0.728-1.431-1.28
			c-0.523-0.523-1.185-0.758-1.924-0.688c-2.433,0.241-5.104,4.075-5.615,4.841c-0.306,0.459-0.182,1.08,0.277,1.386
			c0.46,0.307,1.08,0.183,1.387-0.276C8.856,24.022,10.882,21.703,11.98,21.595z M36.976,24.102
			c0.959,0.693,2.093,1.303,3.383,1.647c0.129,0.111,0.277,0.199,0.45,0.233c0.164,0.076,1.145,0.623,3.391,3.618
			c0.672,0.896,0.551,1.495,0.401,1.868c-0.726,1.812-4.833,3.723-9.766,4.545c-3.119,0.517-4.195-0.726-5.122-2.681
			c0.504-0.257,0.939-0.627,1.27-1.13c1.132-1.722,0.909-4.396,0.537-6.299C32.812,25.699,34.986,25.215,36.976,24.102z M18,21
			c2.952,0,10.375,1.287,11.051,3.316c0.771,2.311,1.124,5.475,0.261,6.788c-0.116,0.177-0.251,0.309-0.409,0.407
			c-0.312-0.71-0.641-1.42-1.071-2.066c-0.673-1.009-1.525-2.058-2.744-2.178c-1.623-0.165-3.009,1.239-5.795,4.026
			c-1.107,1.108-2.147,1.555-3.088,1.333c-1.456-0.344-2.684-2.228-3.256-3.943c-0.084-0.253-0.104-0.456-0.053-0.555
			c0.139-0.272,0.901-0.512,1.457-0.688C15.407,27.109,17,26.608,17,25c0-0.4-0.044-0.736-0.112-1.041
			C16.946,22.719,17.392,21,18,21z"/>
		<path style="fill:#FFFFFF;" d="M53.561,73.439c-0.23-0.23-2.428-2.31-8.586-4.362c-5.625-1.877-8.447,1.476-11.177,4.718
			c-0.743,0.883-1.511,1.797-2.358,2.644c-0.51,0.51-0.816,0.496-0.935,0.491c-1.187-0.056-3.035-2.286-4.666-4.253
			c-1.721-2.076-3.5-4.223-5.567-5.463c-4.751-2.85-9.164-0.445-10.833,1.226c-0.586,0.585-0.586,1.536,0,2.121
			C10.025,71.146,11.414,70.586,12,70c0.13-0.129,2.778-2.583,6.728-0.214c1.628,0.977,3.241,2.923,4.801,4.805
			c2.224,2.684,4.325,5.218,6.835,5.335c0.061,0.003,0.122,0.004,0.183,0.004c1.09,0,2.104-0.46,3.013-1.371
			c0.938-0.938,1.749-1.902,2.533-2.833c2.862-3.401,4.398-4.981,7.932-3.804c5.479,1.827,7.407,3.631,7.414,3.638
			c0.586,0.586,1.535,0.586,2.121,0C54.146,74.975,54.146,74.025,53.561,73.439z"/>
	</g>
	<g class="drilled">
		<path style="fill:#FFFFFF;" d="M49.909,82.004c-0.003,0-0.018,0.002-0.042,0.004V72c0-0.552-0.447-1-1-1s-1,0.448-1,1v10.176
			C44.315,82.461,36.818,83,31,83c-5.953,0-13.689-1.139-17.088-1.691V68c0-0.552-0.448-1-1-1s-1,0.448-1,1v13.022
			c-0.437,0.041-0.813,0.347-0.896,0.799c-0.099,0.543,0.262,1.064,0.805,1.163C12.274,83.066,23.002,85,31,85
			c7.953,0,18.98-0.994,19.091-1.004c0.55-0.05,0.955-0.537,0.905-1.086C50.945,82.359,50.469,81.966,49.909,82.004z"/>
		<path style="fill:#FFFFFF;" d="M28.689,38.796c2.072,0,4.268-0.255,6.553-0.826c7.003-1.751,9.872-3.151,10.964-5.353
			c1.069-2.154,0.141-4.679-1.287-8.011c-3.054-7.125-5.361-7.541-15.074-9.289l-1.667-0.301
			c-11.169-2.031-14.847-1.04-17.107,4.612c-2.055,5.137-0.219,9.288,0.014,9.776C12.922,33.938,19.638,38.797,28.689,38.796z
			 M12.929,20.372c1.172-2.932,2.595-4.353,6.762-4.353c1.992,0,4.612,0.325,8.131,0.965l1.67,0.302
			c9.5,1.71,10.96,1.973,13.59,8.108c1.376,3.211,1.96,5.072,1.334,6.334c-0.759,1.53-3.557,2.776-9.657,4.301
			c-12.125,3.031-20.199-3.325-21.829-7.401c-0.011-0.025-0.022-0.051-0.034-0.076C12.876,28.517,11.116,24.902,12.929,20.372z"/>
	</g>
	<g class="crown">
		<path style="fill:#FFE150;" d="M61.979,86.253C60.41,76.835,52,63,31.681,69.951C29.221,68.947,19,63,9.909,67.121
			C2.242,70.597-1.206,81.947,2.053,93.895C2.231,94.547,2.824,95,3.5,95h15c0.829,0,1.5-0.671,1.5-1.5c0-0.055,0.34-5.5,12.5-5.5
			c6.549,0,9.342,1.57,10.532,2.886c1.09,1.206,0.984,2.381,0.982,2.402c-0.062,0.43,0.067,0.866,0.353,1.195
			C44.651,94.812,45.065,95,45.5,95h15c0.397,0,0.779-0.158,1.061-0.439C62.572,93.549,62.717,90.677,61.979,86.253z"/>
		<path style="fill:#FFE150;" d="M7.279,41.372c4.582,6.414,18.398,8.874,27.687,8.874c1.77,0,3.375-0.089,4.721-0.258
			c7.84-0.98,13.052-6.548,14.299-15.276c0.898-6.289-2.514-11.051-3.885-12.675c0.347-2.476,0.806-10.165-5.624-15.676
			C37.76,0.604,27.309,3.864,24.577,4.863c-2.053-0.939-8.468-3.211-14.949,1.417c-7.14,5.1-5.921,17.088-5.651,19.16
			C3.644,27.053,2.438,34.593,7.279,41.372z"/>
	</g>
</g>
</svg>
