<svg version="1.1" xmlns="http://www.w3.org/2000/svg" xmlns:xlink="http://www.w3.org/1999/xlink" width="40px" height="192px" viewBox="0 0 40 192">
<g class="tooth-23">
	<g class="inner">
		<path style="fill:#7A7A7A;" d="M20.9,181.6c-0.6,0-1.4-0.2-2.2-1c-0.2-0.2-0.4-0.4-0.6-0.5c-1.8-1.6-2.1-2.1-3.8-15.3
			c-0.3-2.2-0.6-4.7-1-7.3c-2.1-15-4.7-33.6-3-43.2c0.1-0.8,0.9-1.4,1.7-1.2c0.8,0.1,1.4,0.9,1.2,1.7c-1.7,9.1,1,28.3,3,42.3
			c0.4,2.6,0.7,5,1,7.3c1.7,12.5,1.9,12.7,2.8,13.4c0.2,0.2,0.5,0.4,0.8,0.7c0,0,0,0,0.1,0.1c0.7-0.5,2.2-3.1,5.4-13.4
			c3.9-12.6,1-50.1,0.9-50.4c-0.1-0.8,0.6-1.5,1.4-1.6c0.8-0.1,1.5,0.6,1.6,1.4c0.1,1.6,3,38.4-1.1,51.6c-3.8,12.5-5.6,15-7.7,15.5
			C21.3,181.5,21.1,181.6,20.9,181.6z"/>
	</g>
	<path class="nerve" style="fill:#C92838;" d="M18,116c0,0-0.8,11,0.3,18s3.3,23.8,3.2,26.9c-0.2,3.1-1.2,8.1-0.2,7.1s2-10,2-18
		s-1-23,0-27s1.1-7,1.1-7S19.8,117,18,116z"/>
	<g class="screw">
		<polygon style="fill:#7A7A7A;" points="12.3,147 15.3,149 15.3,152 24.3,152 24.3,149 27.3,147 27.3,145 12.3,145 		"/>
		<polygon style="fill:#7A7A7A;" points="5.3,121 7.3,121 7.8,125 31.8,125 32.3,121 34.3,121 36.3,118 3.3,118 		"/>
		<polygon style="fill:#7A7A7A;" points="2,116 37.6,116 38.3,115 36.3,113 33.3,113 31.3,106 28.3,104 20.3,104 19.3,104 11.3,104 
			8.3,106 6.3,113 3.3,113 1.3,115 		"/>
		<polygon style="fill:#7A7A7A;" points="8.3,129 10.3,131 10.3,134 29.3,134 29.3,131 31.3,129 31.6,127 8.1,127 		"/>
		<polygon style="fill:#7A7A7A;" points="10.3,138 12.3,140 12.3,143 27.3,143 27.3,140 29.3,138 29.3,136 10.3,136 		"/>
		<polygon style="fill:#7A7A7A;" points="15.3,156 17.3,157 17.3,160 19.3,162 20.3,162 22.3,160 22.3,157 24.3,156 24.3,154 
			15.3,154 		"/>
	</g>
	<g class="filler">
		<path style="fill:#EFECB9;" d="M13.3,64c-3-2-4.7-0.8-4.7-0.8L9.3,64v12l10,2l9-1l0.3-7.4l3.1-1.8C26.1,63.6,16.3,66,13.3,64z"/>
		<path style="fill:#EFECB9;" d="M28.3,30c4-2,1-3-3-9s-6-5-6-5c-8,4-8,13-8,13C11.3,32,24.3,32,28.3,30z"/>
	</g>
	<g class="outer">
		<path style="fill:#FFFFFF;" d="M19.8,43c10.8,0,16.5-8.8,16.5-13.5c0-4.1,0-6.8-3.7-9.2c-0.8-0.6-1.9-1.7-3-2.9
			C27,14.5,23.8,11,19.8,11c-5.8,0-8.2,2.5-10.3,6.8c-1.9,3.8-4.8,7.7-4.9,7.8c-0.1,0.2-0.2,0.4-0.3,0.6C3.3,31.1,4,35.1,6.5,38
			C9.1,41.3,13.7,43,19.8,43z M7.2,27.1c0.7-1,3.2-4.4,4.9-7.9c1.8-3.6,3.3-5.2,7.7-5.2c2.7,0,5.3,2.9,7.6,5.4
			c1.2,1.3,2.4,2.6,3.5,3.4c2.3,1.6,2.3,2.9,2.3,6.8c0,2.9-4.2,10.5-13.5,10.5c-5.1,0-8.9-1.3-11-3.9C7,33.9,6.5,30.9,7.2,27.1z"/>
		<path style="fill:#FFFFFF;" d="M35.1,72.9c-1.2-3-2.7-4.7-4.2-5.7c-1.3-0.7-3.2-1.3-3.2,0.5c0,0.7,0.3,1.1,0.6,1.5
			c0.5,0.2,0.9,0.4,1.3,0.8c0,0,0,0,0,0c0,0,0,0,0,0c1.1,0.8,2,2.2,2.7,4c1.8,4.5-1.4,30.3-4,36.9c-1.6,4-7.5,4.1-7.6,4.1
			c-3.2,0-8.1-0.9-8.5-2.9c-0.4-1.7-1.3-6.7-2.2-11.9C8.7,92.1,7.7,86.7,7.2,85c-1.4-4.2-3.3-15.2-0.5-17.3c1-0.7,1.6-1.2,2.1-1.4
			l0,0c0,0,0,0,0,0C9,66.1,9.3,66.1,9.5,66c0.6-0.3,1.2-0.8,1.2-1.8c0-0.8-0.6-1.2-1.2-1.3c-1.3,0-2.6,0.7-4.7,2.3
			C-0.7,69.5,4.3,85.8,4.3,86c0.5,1.5,1.7,8.6,2.8,14.8C8,106,8.8,111,9.3,112.9c1.2,5,10.4,5.1,11.5,5.1c0.3,0,8-0.1,10.4-5.9
			C33.8,105.4,37.4,78.5,35.1,72.9z"/>
	</g>
	<g class="org">
		<path style="fill:#FFFFFF;" d="M11.8,31.1c0.3,0.1,0.7,0.2,1,0.2c0.9,0,1.8-0.4,2.6-0.7c0.7-0.3,1.4-0.6,1.8-0.6
			c0.4,0,1,0,1.9,0.1c8.4,0.4,11.1,0.1,12-1.1c0.3-0.4,0.3-1,0.1-1.4c-1.2-2.4-5.5-5.5-7.4-6.4c-0.9-0.5-1.3-1.8-1.7-3.2
			c-0.2-0.8-0.5-1.6-0.8-2.4C21,15.2,20.6,15,20.3,15c-0.1,0-3.6,0-5.8,3.4l-0.5,0.8c-2.1,3.1-4.6,6.9-3.6,10.1
			C10.6,30.2,11.1,30.8,11.8,31.1z M15.5,20.4l0.6-0.8c1.2-1.7,2.7-2.3,3.5-2.5c0.2,0.4,0.3,0.9,0.4,1.4c0.5,1.7,1,3.5,2.7,4.4
			c1.8,0.9,5.1,3.4,6.3,5.1c-1.8,0.5-7.8,0.2-9.8,0.1c-0.9,0-1.6-0.1-2-0.1c-0.9,0-1.8,0.4-2.6,0.7c-0.7,0.3-1.7,0.7-2,0.5
			c-0.2-0.1-0.3-0.4-0.4-0.6C11.4,26.4,13.7,23.1,15.5,20.4z"/>
		<path style="fill:#FFFFFF;" d="M33.5,69.7c-2.4-3.9-9.6-4.4-15.3-4.8c-1.9-0.1-4.4-0.3-4.9-0.6c-2.9-2.1-5.9-0.9-7,0
			c-0.6,0.5-0.7,1.4-0.2,2.1c0.5,0.6,1.4,0.8,2.1,0.3c0.2-0.1,1.7-1.2,3.4,0c1,0.7,2.8,0.9,6.4,1.2c4.5,0.3,11.4,0.8,13,3.4
			c0.3,0.5,0.8,0.7,1.3,0.7c0.3,0,0.5-0.1,0.8-0.2C33.7,71.3,34,70.4,33.5,69.7z"/>
	</g>
	<g class="drilled">
		<path style="fill:#FFFFFF;" d="M29.7,76.1V68c0-0.6-0.4-1-1-1s-1,0.4-1,1v8.2c-2,0.3-5.6,0.8-8.4,0.8c-2.9,0-6.7-1-8.5-1.6V64
			c0-0.6-0.4-1-1-1s-1,0.4-1,1v11.2c-0.2,0.1-0.3,0.3-0.4,0.5c-0.2,0.5,0.1,1.1,0.6,1.3c0.2,0.1,6,2.1,10.3,2.1c4.2,0,9.9-1,10.2-1
			c0.5-0.1,0.9-0.6,0.8-1.2C30.2,76.5,29.9,76.2,29.7,76.1z"/>
		<path style="fill:#FFFFFF;" d="M28.8,23.4c-1.6-1.5-2.5-2.9-3.3-4.2c-1.2-1.9-2.3-3.5-5-4.2c-5.1-1.3-9.3,8.1-10.2,10.7
			c-1.1,3.4,0,4.8,0.2,5c0.8,0.8,4.6,1.3,10.7,1.3c5.6,0,8.9-1.1,9.7-3.3C31.4,27.6,31.4,25.8,28.8,23.4z M29.1,28
			c-0.4,1-2.7,2-7.9,2c-6.8,0-8.8-0.6-9.3-0.8c-0.1-0.3-0.3-1.1,0.2-2.9c1.2-3.6,5-10.1,7.8-9.3c2,0.5,2.7,1.6,3.8,3.4
			c0.8,1.3,1.8,2.9,3.6,4.6C28.8,26.1,29.4,27.3,29.1,28z"/>
	</g>
	<g class="crown">
		<path style="fill:#FFE150;" d="M19.7,44c11.5,0,17.5-9.3,17.5-14.3c0-4.4,0-7.2-3.9-9.8c-0.9-0.6-2-1.8-3.2-3.1
			c-2.8-3-6.2-6.7-10.5-6.7c-6.2,0-8.7,2.7-11,7.3c-2,4.1-5.1,8.2-5.2,8.3c-0.1,0.2-0.2,0.4-0.3,0.6c-1,5.2-0.3,9.4,2.3,12.5
			C8.5,42.2,13.3,44,19.7,44z"/>
		<path style="fill:#FFE150;" d="M23.9,65c-5.2-0.5-6.9-1.6-8.2-2.4c-1.7-1.1-2.9-1.7-6.4-0.5c-6.9,2.3-8,5.1-8,12.4
			c0,7.2,3.9,19,4.1,19.5c0.2,0.6,0.8,1,1.4,1h7c0.4,0,0.8-0.2,1.1-0.5c0.3-0.3,0.4-0.8,0.4-1.2c0,0-0.3-2.5,1-4
			c0.7-0.8,1.9-1.3,3.5-1.3c2.1,0,3.6,0.5,4.5,1.5c1.3,1.5,1,3.7,1,3.7c-0.1,0.4,0.1,0.9,0.4,1.2c0.3,0.3,0.7,0.5,1.1,0.5h7
			c0.8,0,1.4-0.6,1.5-1.4c0-0.5,1-11.1,1-15.1C36.3,74.5,36.3,66.1,23.9,65z"/>
	</g>
</g>
</svg>
